<svg xmlns="http://www.w3.org/2000/svg" width="32" height="32" viewBox="0 0 32 32"><g transform="translate(-435.661 -3537.516)"><ellipse cx="16" cy="16" rx="16" ry="16" transform="translate(435.661 3537.516)" fill="#fff"/><g transform="translate(448.413 3547.02)"><path d="M6.5,9a2.492,2.492,0,0,1-1.768-.732l-6.5-6.5a2.5,2.5,0,0,1,0-3.536,2.5,2.5,0,0,1,3.536,0l6.5,6.5A2.5,2.5,0,0,1,6.5,9Z" transform="translate(0 0)" fill="#35d0b2"/><path d="M0,9a2.492,2.492,0,0,1-1.768-.732,2.5,2.5,0,0,1,0-3.536l6.5-6.5a2.5,2.5,0,0,1,3.536,0,2.5,2.5,0,0,1,0,3.536l-6.5,6.5A2.492,2.492,0,0,1,0,9Z" transform="translate(0 6.496)" fill="#35d0b2"/></g></g></svg>
