<svg xmlns="http://www.w3.org/2000/svg" width="32" height="32" viewBox="0 0 32 32"><g transform="translate(-438 -5685.5)"><circle cx="16" cy="16" r="16" transform="translate(438 5685.5)" fill="#35d0b2"/><g transform="translate(451.848 5695.195)"><path d="M6.3,8.8a2.492,2.492,0,0,1-1.768-.732l-6.3-6.3a2.5,2.5,0,0,1,0-3.536,2.5,2.5,0,0,1,3.536,0l6.3,6.3A2.5,2.5,0,0,1,6.3,8.8Z" fill="#fff"/><path d="M0,8.8a2.492,2.492,0,0,1-1.768-.732,2.5,2.5,0,0,1,0-3.536l6.3-6.3a2.5,2.5,0,0,1,3.536,0,2.5,2.5,0,0,1,0,3.536l-6.3,6.3A2.492,2.492,0,0,1,0,8.8Z" transform="translate(0 6.305)" fill="#fff"/></g></g></svg>
