<svg width="40" height="28" viewBox="0 0 40 28" fill="none" xmlns="http://www.w3.org/2000/svg">
<path d="M36.0853 0H3.6915C1.65706 0 0.0078125 1.64924 0.0078125 3.68369V24.3163C0.0078125 26.3508 1.65706 28 3.6915 28H36.0853C38.1198 28 39.769 26.3508 39.769 24.3163V3.68369C39.769 1.64924 38.1198 0 36.0853 0Z" fill="#006FCF"/>
<path d="M34.8669 13.5783H37.8491V6.63745H34.6659V7.747L33.957 6.63745H31.1819V8.04164L30.5606 6.63745H25.9732C25.7526 6.63745 25.5381 6.65348 25.3297 6.68676C25.1522 6.71512 24.9796 6.75457 24.8131 6.80635C24.6825 6.84703 24.5555 6.89511 24.4334 6.95182C24.2892 7.0184 24.1524 7.0936 24.0217 7.18113V6.63868H9.04896L8.64091 7.84932L8.22544 6.63868H4.74147V8.05767L4.11271 6.63868H1.27105L0 9.60734V13.5795H2.01322L2.38799 12.5834H3.09686L3.47782 13.5795H18.9646V12.5698L19.74 13.5795H24.0192V13.0753C24.1302 13.1468 24.2448 13.2097 24.3607 13.2639C24.4778 13.3181 24.5974 13.3638 24.7182 13.4032C24.8674 13.4525 25.0203 13.4883 25.1707 13.5166C25.4172 13.561 25.6638 13.5807 25.8968 13.5807H28.4574L28.8322 12.5846H29.541L29.922 13.5807H34.2147V12.5513L34.8632 13.5807L34.8669 13.5783ZM39.7341 22.4793V15.9663H15.0861L14.4574 16.8551L13.836 15.9663H6.74727V22.9071H13.8089L14.4241 22.0047L15.059 22.9071H19.4787V21.4092H19.4318C19.9817 21.4092 20.481 21.3093 20.9236 21.1454V22.9071H24.0056V21.8974L24.7811 22.9071H38.1548C38.5394 22.9071 38.9007 22.8417 39.2237 22.7246C39.4061 22.6581 39.5763 22.5767 39.7328 22.4793H39.7341Z" fill="#F7F7F7"/>
<path d="M38.1872 20.842H35.7868V21.779H38.1539C39.1648 21.779 39.7664 21.1638 39.7664 20.2872C39.7664 19.4107 39.2252 18.9632 38.3154 18.9632H37.2317C36.9642 18.9632 36.7768 18.7894 36.7768 18.5144C36.7768 18.2395 36.963 18.046 37.2317 18.046H39.2646L39.6801 17.0967H37.2662C36.2565 17.0967 35.6549 17.7119 35.6549 18.5539C35.6549 19.3959 36.2232 19.9112 37.1134 19.9112H38.1896C38.4571 19.9112 38.6507 20.0851 38.6507 20.3661C38.6507 20.6472 38.4571 20.8408 38.1896 20.8408L38.1872 20.842ZM33.7329 20.842H31.3326V21.779H33.6997C34.7093 21.779 35.3122 21.1638 35.3122 20.2872C35.3122 19.4107 34.771 18.9632 33.8612 18.9632H32.7775C32.51 18.9632 32.3226 18.7894 32.3226 18.5144C32.3226 18.2395 32.51 18.046 32.7775 18.046H34.8104L35.2259 17.0967H32.812C31.8023 17.0967 31.2007 17.7119 31.2007 18.5539C31.2007 19.3959 31.769 19.9112 32.6591 19.9112H33.7354C34.0029 19.9112 34.1965 20.0851 34.1965 20.3661C34.1965 20.6472 34.0029 20.8408 33.7354 20.8408L33.7329 20.842ZM30.6509 18.0472V17.0979H26.9055V21.779H30.6509V20.8358H28.0299V19.8927H30.5905V18.9558H28.0299V18.046H30.6509V18.0472ZM24.3782 18.0534C24.7789 18.0534 24.9934 18.3135 24.9934 18.6353C24.9934 18.957 24.7789 19.2097 24.3782 19.2097H23.0603V18.0534H24.3782ZM23.0603 20.0925H23.5892L24.9873 21.7777H26.3853L24.827 20.0518C25.6234 19.9038 26.0968 19.3293 26.0968 18.581C26.0968 17.7045 25.4755 17.0967 24.4781 17.0967H21.9372V21.7777H23.0603V20.0925ZM20.1977 18.6673C20.1977 18.9817 19.9968 19.243 19.6023 19.243H18.2585V18.0928H19.6023C19.9968 18.0928 20.1977 18.3468 20.1977 18.6673ZM17.1354 17.0967V21.7777H18.2585V20.233H19.6688C20.6921 20.233 21.327 19.5648 21.327 18.6624C21.327 17.7599 20.7056 17.0979 19.7083 17.0979H17.1341L17.1354 17.0967ZM15.4834 21.7777H16.8876L15.0087 19.4169L16.874 17.0967H15.5105L14.3603 18.581L13.2174 17.0967H11.8132L13.6859 19.4366L11.8207 21.7777H13.1854L14.3356 20.2724L15.4858 21.7777H15.4834ZM11.5852 18.046V17.0967H7.83984V21.7777H11.5852V20.8346H8.96418V19.8915H11.5248V18.9546H8.96418V18.0447H11.5852V18.046Z" fill="#006FCF"/>
<path d="M33.3123 9.64666L33.2987 9.25832L33.533 9.64666L35.3242 12.4489H36.636V7.76783H35.5388V10.4764L35.5523 10.824L35.3452 10.4764L33.5921 7.76783H32.2151V12.4489H33.311V9.64666H33.3123ZM28.8322 9.51352L29.1737 8.63698L29.5139 9.51352L29.9294 10.5503H28.4241L28.8322 9.51352ZM30.6913 12.4489H31.9549L29.9565 7.76783H28.4784L26.4725 12.4489H27.6696L28.0641 11.4454H30.2906L30.6913 12.4489ZM25.7896 12.4489H25.85L26.311 11.4528H25.9695C25.2003 11.4528 24.7454 10.972 24.7454 10.1423V10.0757C24.7454 9.33353 25.1534 8.77875 25.956 8.77875H27.1728V7.76907H25.8623C24.4174 7.76907 23.6284 8.7393 23.6284 10.0695V10.1497C23.6284 11.5403 24.4371 12.444 25.7883 12.4501L25.7896 12.4489ZM21.7977 12.4489H22.9208V7.76783H21.7977V12.4489ZM19.4368 8.72451C19.8375 8.72451 20.052 8.98464 20.052 9.3064C20.052 9.62817 19.8375 9.8809 19.4368 9.8809H18.1189V8.72451H19.4368ZM18.1189 10.7636H18.6478L20.0458 12.4489H21.4438L19.8855 10.7229C20.6819 10.5762 21.1566 10.0005 21.1566 9.25216C21.1566 8.37562 20.534 7.76783 19.5379 7.76783H16.997V12.4489H18.1201V10.7636H18.1189ZM16.1735 8.71711V7.76783H12.4282V12.4489H16.1735V11.4922H13.5525V10.5627H16.1131V9.62694H13.5525V8.71711H16.1735ZM6.85825 9.25216L6.83111 7.98851L8.12805 12.4489H9.14513L10.4421 8.01563L10.415 9.246V12.4489H11.5048V7.76783H9.52607L8.63721 11.0841L7.74094 7.76783H5.76842V12.4489H6.85825V9.25216ZM2.38431 9.51229L2.7258 8.63575L3.0673 9.51229L3.48153 10.5491H1.97747L2.38554 9.51229H2.38431ZM4.24341 12.4477H5.50706L3.50741 7.7666H2.02925L0.0234375 12.4477H1.22051L1.61502 11.4441H3.8415L4.24217 12.4477H4.24341Z" fill="#006FCF"/>
</svg>
