<svg width="58" height="58" viewBox="0 0 58 58" fill="none" xmlns="http://www.w3.org/2000/svg">
<circle cx="29" cy="29" r="29" fill="#D8F5F1"/>
<path d="M41.0877 20.8807H16.2175C14.5006 20.8807 13.1088 22.2725 13.1088 23.9895V39.5333C13.1088 41.2503 14.5006 42.6421 16.2175 42.6421H41.0877C42.8047 42.6421 44.1965 41.2503 44.1965 39.5333V23.9895C44.1965 22.2725 42.8047 20.8807 41.0877 20.8807Z" stroke="#27D0B9" stroke-width="3" stroke-linecap="round" stroke-linejoin="round"/>
<path d="M34.8702 42.6421V17.7719C34.8702 16.9474 34.5426 16.1567 33.9596 15.5737C33.3766 14.9907 32.5859 14.6632 31.7614 14.6632H25.5439C24.7194 14.6632 23.9286 14.9907 23.3456 15.5737C22.7626 16.1567 22.4351 16.9474 22.4351 17.7719V42.6421" stroke="#27D0B9" stroke-width="3" stroke-linecap="round" stroke-linejoin="round"/>
</svg>
