<svg width="72" height="72" viewBox="0 0 72 72" fill="none" xmlns="http://www.w3.org/2000/svg">
<path d="M0.166016 35.9997C0.166016 43.0868 2.2676 50.0148 6.20502 55.9076C10.1424 61.8004 15.7388 66.3932 22.2865 69.1053C28.8342 71.8175 36.0391 72.5271 42.9901 71.1445C49.9411 69.7618 56.326 66.349 61.3373 61.3377C66.3487 56.3263 69.7615 49.9414 71.1442 42.9904C72.5268 36.0394 71.8172 28.8345 69.105 22.2868C66.3929 15.7391 61.8 10.1428 55.9073 6.20534C50.0145 2.26792 43.0865 0.166329 35.9994 0.166329C31.2937 0.166329 26.634 1.09319 22.2865 2.89397C17.939 4.69477 13.9888 7.33424 10.6614 10.6617C7.33392 13.9891 4.69446 17.9393 2.89367 22.2868C1.09287 26.6343 0.166016 31.294 0.166016 35.9997ZM42.6644 22.7772L52.9127 33.5272C53.0643 33.6826 53.1858 33.8649 53.271 34.0647C53.4232 34.2333 53.5445 34.4273 53.6294 34.638C53.8189 35.0669 53.9169 35.5307 53.9169 35.9997C53.9169 36.4686 53.8189 36.9324 53.6294 37.3613C53.4588 37.8012 53.2031 38.203 52.8769 38.5438L42.1269 49.2938C41.4521 49.9686 40.5369 50.3477 39.5827 50.3477C38.6284 50.3477 37.7133 49.9686 37.0385 49.2938C36.3638 48.6191 35.9847 47.7039 35.9847 46.7497C35.9847 45.7954 36.3638 44.8802 37.0385 44.2055L41.6969 39.583L21.666 39.583C20.7157 39.583 19.8042 39.2055 19.1322 38.5335C18.4602 37.8615 18.0827 36.95 18.0827 35.9997C18.0827 35.0493 18.4602 34.1379 19.1322 33.4659C19.8042 32.7939 20.7157 32.4163 21.666 32.4163L41.9477 32.4163L37.4685 27.7222C36.8128 27.0331 36.4576 26.1119 36.4811 25.161C36.5046 24.2101 36.9049 23.3075 37.5939 22.6517C38.2829 21.996 39.2042 21.6408 40.1551 21.6643C41.106 21.6879 42.0086 22.0882 42.6644 22.7772Z" fill="#074B96"/>
</svg>
