<svg width="38" height="39" viewBox="0 0 38 39" fill="none" xmlns="http://www.w3.org/2000/svg">
<path d="M33.2342 25.8281V13.393C33.2336 12.8478 33.0897 12.3124 32.8169 11.8404C32.5441 11.3684 32.1519 10.9765 31.6798 10.7039L20.7991 4.48634C20.3265 4.21349 19.7904 4.06985 19.2447 4.06985C18.699 4.06985 18.1629 4.21349 17.6903 4.48634L6.80964 10.7039C6.33751 10.9765 5.94537 11.3684 5.67254 11.8404C5.39972 12.3124 5.25581 12.8478 5.25525 13.393V25.8281C5.25581 26.3732 5.39972 26.9087 5.67254 27.3806C5.94537 27.8526 6.33751 28.2446 6.80964 28.5172L17.6903 34.7347C18.1629 35.0075 18.699 35.1512 19.2447 35.1512C19.7904 35.1512 20.3265 35.0075 20.7991 34.7347L31.6798 28.5172C32.1519 28.2446 32.5441 27.8526 32.8169 27.3806C33.0897 26.9087 33.2336 26.3732 33.2342 25.8281Z" stroke="#3C64B1" stroke-width="2.33158" stroke-linecap="round" stroke-linejoin="round"/>
<path d="M5.67493 11.7764L19.2447 19.6261L32.8145 11.7764" stroke="#3C64B1" stroke-width="2.33158" stroke-linecap="round" stroke-linejoin="round"/>
<path d="M19.2446 35.2787V19.6105" stroke="#3C64B1" stroke-width="2.33158" stroke-linecap="round" stroke-linejoin="round"/>
</svg>
