<svg width="38" height="38" viewBox="0 0 38 38" fill="none" xmlns="http://www.w3.org/2000/svg">
<path d="M31.6798 10.9807H6.80958C5.09265 10.9807 3.70081 12.3726 3.70081 14.0895V29.6333C3.70081 31.3503 5.09265 32.7421 6.80958 32.7421H31.6798C33.3967 32.7421 34.7885 31.3503 34.7885 29.6333V14.0895C34.7885 12.3726 33.3967 10.9807 31.6798 10.9807Z" stroke="#3C64B1" stroke-width="2.33158" stroke-linecap="round" stroke-linejoin="round"/>
<path d="M25.4622 32.7421V7.87194C25.4622 7.04744 25.1347 6.25671 24.5516 5.67371C23.9686 5.0907 23.1779 4.76317 22.3534 4.76317H16.1359C15.3114 4.76317 14.5206 5.0907 13.9376 5.67371C13.3546 6.25671 13.0271 7.04744 13.0271 7.87194V32.7421" stroke="#3C64B1" stroke-width="2.33158" stroke-linecap="round" stroke-linejoin="round"/>
</svg>
