<svg width="58" height="58" viewBox="0 0 58 58" fill="none" xmlns="http://www.w3.org/2000/svg">
<circle cx="29" cy="29" r="29" fill="#D9F1FD"/>
<path d="M36.9021 29.2092C38.702 26.993 39.5504 24.1538 39.2615 21.3134C38.9725 18.4731 37.5698 15.8629 35.3604 14.0546C34.0946 13.0401 32.6189 12.3202 31.0403 11.9468C29.4617 11.5735 27.8198 11.5562 26.2338 11.8963C24.4529 12.2901 22.8009 13.129 21.4321 14.3344C20.0634 15.5398 19.0224 17.0724 18.4065 18.7892C17.7907 20.506 17.6199 22.3508 17.9103 24.1514C18.2007 25.9521 18.9427 27.6497 20.0671 29.0858C21.0918 30.3325 21.677 31.8822 21.7321 33.495V33.9421C21.1455 34.5088 20.8073 35.2849 20.7917 36.1004V39.1838C20.7917 40.0015 21.1165 40.7858 21.6948 41.364C22.273 41.9422 23.0572 42.2671 23.875 42.2671V43.8088C23.875 44.2176 24.0374 44.6098 24.3265 44.8989C24.6157 45.188 25.0078 45.3504 25.4167 45.3504C25.8255 45.3504 26.2177 45.188 26.5068 44.8989C26.7959 44.6098 26.9583 44.2176 26.9583 43.8088V42.2671H30.0417V43.8088C30.0417 44.2176 30.2041 44.6098 30.4932 44.8989C30.7823 45.188 31.1745 45.3504 31.5833 45.3504C31.9922 45.3504 32.3843 45.188 32.6735 44.8989C32.9626 44.6098 33.125 44.2176 33.125 43.8088V42.2671C33.9428 42.2671 34.727 41.9422 35.3052 41.364C35.8835 40.7858 36.2083 40.0015 36.2083 39.1838V36.1004C36.209 35.2937 35.8936 34.5189 35.3296 33.9421V33.2792C35.3746 31.7829 35.9294 30.347 36.9021 29.2092V29.2092ZM23.875 39.1838V36.1004H33.125V39.1838H23.875ZM34.4971 27.2821C33.1324 28.8917 32.3407 30.9089 32.2463 33.0171H24.7383C24.5929 30.8812 23.7845 28.844 22.4258 27.1896C21.6097 26.1653 21.068 24.9501 20.8518 23.6584C20.6356 22.3667 20.752 21.0413 21.1902 19.8071C21.6283 18.5729 22.3736 17.4707 23.3559 16.6045C24.3381 15.7383 25.5249 15.1366 26.8042 14.8563C27.9376 14.6006 29.1142 14.6045 30.2459 14.8676C31.3776 15.1307 32.4352 15.6463 33.3396 16.3757C34.244 17.1052 34.9718 18.0296 35.4685 19.08C35.9653 20.1303 36.2182 21.2794 36.2083 22.4412C36.218 24.2047 35.6129 25.9165 34.4971 27.2821Z" fill="#21A8EB"/>
</svg>
