<svg width="58" height="58" viewBox="0 0 58 58" fill="none" xmlns="http://www.w3.org/2000/svg">
<circle cx="29" cy="29" r="29" fill="#F7ECFD"/>
<path d="M28.5 31.5833C28.8049 31.5833 29.103 31.4929 29.3565 31.3235C29.61 31.1541 29.8076 30.9133 29.9243 30.6316C30.041 30.3499 30.0715 30.04 30.012 29.7409C29.9526 29.4418 29.8057 29.1672 29.5901 28.9515C29.3745 28.7359 29.0998 28.5891 28.8008 28.5296C28.5017 28.4701 28.1917 28.5007 27.91 28.6174C27.6283 28.734 27.3876 28.9316 27.2182 29.1852C27.0488 29.4387 26.9583 29.7368 26.9583 30.0417C26.9583 30.4505 27.1208 30.8427 27.4099 31.1318C27.699 31.4209 28.0911 31.5833 28.5 31.5833ZM36.2083 31.5833C36.5132 31.5833 36.8113 31.4929 37.0648 31.3235C37.3184 31.1541 37.516 30.9133 37.6326 30.6316C37.7493 30.3499 37.7799 30.04 37.7204 29.7409C37.6609 29.4418 37.5141 29.1672 37.2985 28.9515C37.0829 28.7359 36.8082 28.5891 36.5091 28.5296C36.21 28.4701 35.9001 28.5007 35.6184 28.6174C35.3367 28.734 35.0959 28.9316 34.9265 29.1852C34.7571 29.4387 34.6667 29.7368 34.6667 30.0417C34.6667 30.4505 34.8291 30.8427 35.1182 31.1318C35.4073 31.4209 35.7995 31.5833 36.2083 31.5833ZM28.5 37.75C28.8049 37.75 29.103 37.6596 29.3565 37.4902C29.61 37.3208 29.8076 37.08 29.9243 36.7983C30.041 36.5166 30.0715 36.2066 30.012 35.9076C29.9526 35.6085 29.8057 35.3338 29.5901 35.1182C29.3745 34.9026 29.0998 34.7558 28.8008 34.6963C28.5017 34.6368 28.1917 34.6673 27.91 34.784C27.6283 34.9007 27.3876 35.0983 27.2182 35.3518C27.0488 35.6054 26.9583 35.9034 26.9583 36.2083C26.9583 36.6172 27.1208 37.0093 27.4099 37.2985C27.699 37.5876 28.0911 37.75 28.5 37.75ZM36.2083 37.75C36.5132 37.75 36.8113 37.6596 37.0648 37.4902C37.3184 37.3208 37.516 37.08 37.6326 36.7983C37.7493 36.5166 37.7799 36.2066 37.7204 35.9076C37.6609 35.6085 37.5141 35.3338 37.2985 35.1182C37.0829 34.9026 36.8082 34.7558 36.5091 34.6963C36.21 34.6368 35.9001 34.6673 35.6184 34.784C35.3367 34.9007 35.0959 35.0983 34.9265 35.3518C34.7571 35.6054 34.6667 35.9034 34.6667 36.2083C34.6667 36.6172 34.8291 37.0093 35.1182 37.2985C35.4073 37.5876 35.7995 37.75 36.2083 37.75ZM20.7917 31.5833C21.0966 31.5833 21.3946 31.4929 21.6482 31.3235C21.9017 31.1541 22.0993 30.9133 22.216 30.6316C22.3327 30.3499 22.3632 30.04 22.3037 29.7409C22.2442 29.4418 22.0974 29.1672 21.8818 28.9515C21.6662 28.7359 21.3915 28.5891 21.0924 28.5296C20.7934 28.4701 20.4834 28.5007 20.2017 28.6174C19.92 28.734 19.6792 28.9316 19.5098 29.1852C19.3404 29.4387 19.25 29.7368 19.25 30.0417C19.25 30.4505 19.4124 30.8427 19.7015 31.1318C19.9907 31.4209 20.3828 31.5833 20.7917 31.5833ZM39.2917 16.1667H37.75V14.625C37.75 14.2161 37.5876 13.824 37.2985 13.5349C37.0093 13.2458 36.6172 13.0833 36.2083 13.0833C35.7995 13.0833 35.4073 13.2458 35.1182 13.5349C34.8291 13.824 34.6667 14.2161 34.6667 14.625V16.1667H22.3333V14.625C22.3333 14.2161 22.1709 13.824 21.8818 13.5349C21.5927 13.2458 21.2005 13.0833 20.7917 13.0833C20.3828 13.0833 19.9907 13.2458 19.7015 13.5349C19.4124 13.824 19.25 14.2161 19.25 14.625V16.1667H17.7083C16.4817 16.1667 15.3053 16.6539 14.438 17.5213C13.5706 18.3887 13.0833 19.565 13.0833 20.7917V39.2917C13.0833 40.5183 13.5706 41.6947 14.438 42.562C15.3053 43.4294 16.4817 43.9167 17.7083 43.9167H39.2917C40.5183 43.9167 41.6947 43.4294 42.562 42.562C43.4294 41.6947 43.9167 40.5183 43.9167 39.2917V20.7917C43.9167 19.565 43.4294 18.3887 42.562 17.5213C41.6947 16.6539 40.5183 16.1667 39.2917 16.1667V16.1667ZM40.8333 39.2917C40.8333 39.7005 40.6709 40.0927 40.3818 40.3818C40.0927 40.6709 39.7005 40.8333 39.2917 40.8333H17.7083C17.2995 40.8333 16.9073 40.6709 16.6182 40.3818C16.3291 40.0927 16.1667 39.7005 16.1667 39.2917V25.4167H40.8333V39.2917ZM40.8333 22.3333H16.1667V20.7917C16.1667 20.3828 16.3291 19.9907 16.6182 19.7015C16.9073 19.4124 17.2995 19.25 17.7083 19.25H39.2917C39.7005 19.25 40.0927 19.4124 40.3818 19.7015C40.6709 19.9907 40.8333 20.3828 40.8333 20.7917V22.3333ZM20.7917 37.75C21.0966 37.75 21.3946 37.6596 21.6482 37.4902C21.9017 37.3208 22.0993 37.08 22.216 36.7983C22.3327 36.5166 22.3632 36.2066 22.3037 35.9076C22.2442 35.6085 22.0974 35.3338 21.8818 35.1182C21.6662 34.9026 21.3915 34.7558 21.0924 34.6963C20.7934 34.6368 20.4834 34.6673 20.2017 34.784C19.92 34.9007 19.6792 35.0983 19.5098 35.3518C19.3404 35.6054 19.25 35.9034 19.25 36.2083C19.25 36.6172 19.4124 37.0093 19.7015 37.2985C19.9907 37.5876 20.3828 37.75 20.7917 37.75Z" fill="#A90FFD"/>
</svg>
