<svg width="61" height="60" viewBox="0 0 61 60" fill="none" xmlns="http://www.w3.org/2000/svg">
<path d="M4.78577 3.21429H6.78364C10.7805 3.21429 14.2468 5.97665 15.1389 9.87267L17.4559 19.9923" stroke="#3C6DAF" stroke-width="3.42857" stroke-linecap="round" stroke-linejoin="round"/>
<path d="M57.0821 23.5667C56.4894 29.8334 54.7121 35.0485 53.2202 38.2709C52.4535 39.9269 51.107 41.2126 49.3425 41.6777C47.183 42.2469 43.4677 42.8571 37.4643 42.8571C31.4607 42.8571 27.7456 42.2469 25.5862 41.6777C23.8216 41.2126 22.4748 39.9269 21.7082 38.2709C19.8881 34.3392 17.6428 27.4411 17.6428 19.2857H53C55.367 19.2857 57.305 21.2102 57.0821 23.5667Z" fill="#68C5E6" stroke="#3C6DAF" stroke-width="3.42857" stroke-linecap="round" stroke-linejoin="round"/>
<path d="M24.0715 57.738C26.7204 57.738 28.8678 55.5904 28.8678 52.9414C28.8678 50.2924 26.7204 48.1453 24.0715 48.1453C21.4225 48.1453 19.2751 50.2924 19.2751 52.9414C19.2751 55.5904 21.4225 57.738 24.0715 57.738Z" fill="white" stroke="#3C6DAF" stroke-width="3.42857" stroke-linecap="round" stroke-linejoin="round"/>
<path d="M50.8572 57.738C53.5062 57.738 55.6533 55.5904 55.6533 52.9414C55.6533 50.2924 53.5062 48.1453 50.8572 48.1453C48.2082 48.1453 46.061 50.2924 46.061 52.9414C46.061 55.5904 48.2082 57.738 50.8572 57.738Z" fill="white" stroke="#3C6DAF" stroke-width="3.42857" stroke-linecap="round" stroke-linejoin="round"/>
</svg>
