<svg width="61" height="60" viewBox="0 0 61 60" fill="none" xmlns="http://www.w3.org/2000/svg">
<path d="M12.9491 52.6963C17.0255 54.5207 23.2669 56.6062 30.4999 56.6062C37.7329 56.6062 43.9742 54.5207 48.0508 52.6963C51.3662 51.2122 53.3766 47.9692 53.7829 44.3593C54.3105 39.6678 54.9431 32.9109 54.9431 27.4747C54.9431 22.555 54.6053 17.7245 54.1909 13.0114H6.69435C6.33401 17.3016 6.05664 23.0171 6.05664 27.4747C6.05664 32.9109 6.68921 39.6678 7.217 44.3593C7.62311 47.9692 9.63358 51.2122 12.9491 52.6963Z" fill="#68C5E6" stroke="#3C6DAF" stroke-width="3.42857" stroke-linejoin="round"/>
<path d="M30.4984 24.6008C45.8274 24.6008 54.4498 20.7836 54.4498 13.9974C54.4498 7.21116 45.8274 3.39392 30.4984 3.39392C15.1696 3.39392 6.54712 7.21116 6.54712 13.9974C6.54712 20.7836 15.1696 24.6008 30.4984 24.6008Z" fill="white" stroke="#3C6DAF" stroke-width="3.42857" stroke-linecap="round" stroke-linejoin="round"/>
<path d="M6.25903 34.2857C21.4612 42.0151 39.5572 42.0506 54.7414 34.2856" stroke="#3C6DAF" stroke-width="3.42857" stroke-linecap="round" stroke-linejoin="round"/>
</svg>
