<svg width="24" height="24" viewBox="0 0 24 24" fill="none" xmlns="http://www.w3.org/2000/svg">
<path d="M7.96219 1.77153C7.88924 1.72692 7.8305 1.66244 7.79287 1.58565C7.75524 1.50886 7.74027 1.42294 7.74971 1.33795C7.75916 1.25296 7.79262 1.17242 7.84619 1.10576C7.89976 1.03911 7.97122 0.989095 8.05219 0.961588C9.69175 0.394397 11.4372 0.200051 13.1614 0.392707C14.8855 0.585363 16.545 1.16017 18.019 2.07526C18.0738 2.10799 18.121 2.15202 18.1576 2.20442C18.1941 2.25682 18.219 2.31639 18.2307 2.37917C18.2424 2.44195 18.2406 2.5065 18.2254 2.56854C18.2103 2.63057 18.1821 2.68867 18.1427 2.73896C16.8348 4.39866 15.2381 5.80866 13.4293 6.90116C11.9655 4.84536 10.107 3.10158 7.96219 1.77153ZM11.8207 7.74485C10.1737 5.50707 8.01321 3.69769 5.52112 2.46898C5.44754 2.43565 5.36678 2.42127 5.28622 2.42717C5.20565 2.43306 5.12785 2.45904 5.0599 2.50273C3.04353 3.95502 1.53601 6.00572 0.751463 8.36355C0.732899 8.4234 0.727039 8.48646 0.734259 8.54871C0.741478 8.61095 0.761618 8.671 0.793387 8.72501C0.825157 8.77901 0.867856 8.82579 0.91875 8.86234C0.969644 8.89889 1.02761 8.92441 1.08894 8.93726C2.26446 9.19094 3.46359 9.31915 4.66618 9.31974C7.13733 9.32285 9.57924 8.78533 11.8207 7.74485ZM23.4973 10.7484C23.2096 8.13908 22.0526 5.70238 20.2126 3.83013C20.1671 3.78588 20.1131 3.75148 20.0537 3.72907C19.9944 3.70666 19.9311 3.69673 19.8677 3.69989C19.8044 3.70306 19.7424 3.71926 19.6856 3.74747C19.6288 3.77569 19.5784 3.81532 19.5376 3.86388C18.1151 5.67925 16.3729 7.21943 14.3967 8.40855C15.0131 9.47819 15.5254 10.6045 15.9266 11.7721C17.5366 11.3367 19.1972 11.1173 20.865 11.1196C21.5792 11.1213 22.2927 11.1626 23.0024 11.2433C23.0691 11.2504 23.1366 11.2425 23.1998 11.2201C23.2631 11.1978 23.3206 11.1615 23.368 11.1141C23.4155 11.0666 23.4517 11.0091 23.4741 10.9459C23.4965 10.8826 23.5044 10.8151 23.4973 10.7484ZM16.4216 13.5044C16.7521 14.9243 16.9182 16.3775 16.9165 17.8354C16.9157 19.228 16.761 20.6164 16.4553 21.9751C16.4353 22.0586 16.4396 22.1462 16.4677 22.2274C16.4958 22.3085 16.5466 22.38 16.6141 22.4332C16.6815 22.4865 16.7628 22.5193 16.8483 22.5278C16.9338 22.5363 17.0199 22.5202 17.0965 22.4813C18.8035 21.6275 20.2759 20.3695 21.3856 18.8167C22.4953 17.2639 23.2087 15.4634 23.4636 13.5719C23.4714 13.5128 23.4675 13.4526 23.4519 13.395C23.4363 13.3374 23.4094 13.2835 23.3727 13.2364C23.3361 13.1893 23.2904 13.1499 23.2384 13.1206C23.1864 13.0913 23.1291 13.0727 23.0699 13.0657C22.3392 12.9659 21.6025 12.917 20.865 12.9195C19.3646 12.9176 17.8704 13.1143 16.4216 13.5044ZM14.2055 12.3345C13.849 11.2685 13.3815 10.243 12.8106 9.27474C10.2683 10.4922 7.48493 11.1227 4.66618 11.1196C3.34655 11.1189 2.03066 10.9794 0.740213 10.7034C0.677705 10.6904 0.613153 10.6909 0.550845 10.7048C0.488537 10.7187 0.429899 10.7457 0.378828 10.784C0.327756 10.8223 0.28542 10.871 0.254631 10.927C0.223842 10.9829 0.205305 11.0447 0.200252 11.1084C0.177754 11.4083 0.166505 11.7121 0.166505 12.0195C0.165934 13.6213 0.495244 15.2061 1.13392 16.675C1.77259 18.1439 2.70693 19.4656 3.87874 20.5577C3.92703 20.6041 3.98529 20.6388 4.04906 20.6591C4.11283 20.6795 4.18042 20.685 4.24666 20.6753C4.31289 20.6655 4.37601 20.6407 4.43117 20.6028C4.48634 20.5648 4.5321 20.5148 4.56494 20.4564C6.75985 16.7303 10.1609 13.8651 14.2055 12.3345ZM5.98234 21.6039C5.95232 21.6554 5.93287 21.7125 5.92511 21.7717C5.91735 21.8308 5.92145 21.891 5.93715 21.9485C5.95285 22.0061 5.97985 22.06 6.01658 22.107C6.05331 22.1541 6.09902 22.1934 6.15107 22.2226C7.89448 23.2071 9.86346 23.7226 11.8657 23.7187C12.5485 23.7217 13.2301 23.6614 13.9018 23.5387C13.9795 23.5258 14.0522 23.4917 14.1117 23.44C14.1713 23.3884 14.2154 23.3214 14.2392 23.2462C14.8227 21.502 15.1191 19.6746 15.1167 17.8354C15.116 16.5678 14.9765 15.3041 14.7005 14.0669C11.0156 15.5043 7.93738 18.1655 5.98234 21.6039Z" fill="#111827"/>
</svg>
