<svg width="18" height="12" viewBox="0 0 18 12" fill="none" xmlns="http://www.w3.org/2000/svg">
<path d="M16.6823 5.10627C16.8868 5.33286 17 5.62723 17 5.93246C17 6.23768 16.8868 6.53206 16.6823 6.75864C15.3875 8.15206 12.4404 10.8649 9 10.8649C5.55961 10.8649 2.61247 8.15206 1.3177 6.75864C1.1132 6.53206 1 6.23768 1 5.93246C1 5.62723 1.1132 5.33286 1.3177 5.10627C2.61247 3.71285 5.55961 1 9 1C12.4404 1 15.3875 3.71285 16.6823 5.10627Z" stroke="black" stroke-linecap="round" stroke-linejoin="round"/>
<path d="M9.00041 8.39877C10.3625 8.39877 11.4666 7.2946 11.4666 5.93254C11.4666 4.57048 10.3625 3.46631 9.00041 3.46631C7.63835 3.46631 6.53418 4.57048 6.53418 5.93254C6.53418 7.2946 7.63835 8.39877 9.00041 8.39877Z" stroke="black" stroke-linecap="round" stroke-linejoin="round"/>
</svg>
