<svg width="40" height="40" viewBox="0 0 46 46" fill="none" xmlns="http://www.w3.org/2000/svg">
<path d="M22.6582 0.109619C10.252 0.109619 0.158203 10.2035 0.158203 22.6096C0.158203 35.0158 10.252 45.1096 22.6582 45.1096C35.0644 45.1096 45.1582 35.0158 45.1582 22.6096C45.1582 10.2035 35.0644 0.109619 22.6582 0.109619ZM22.6582 3.57116C33.1934 3.57116 41.6967 12.0744 41.6967 22.6096C41.6967 33.1448 33.1934 41.6481 22.6582 41.6481C12.123 41.6481 3.61974 33.1448 3.61974 22.6096C3.61974 12.0744 12.123 3.57116 22.6582 3.57116ZM16.1159 13.575L13.6236 16.0673L20.1728 22.6096L13.627 29.1519L16.1194 31.6442L22.6582 25.0967L29.2005 31.639L31.6928 29.1519L25.1453 22.6096L31.6876 16.0673L29.2005 13.575L22.6582 20.1242L16.1159 13.5785V13.575Z" fill="#E12547"/>
</svg>
