<svg width="24" height="24" viewBox="0 0 24 24" fill="none" xmlns="http://www.w3.org/2000/svg">
<path d="M19.63 3.65006C19.5138 3.55609 19.3781 3.48934 19.2327 3.45473C19.0873 3.42012 18.9361 3.41852 18.79 3.45006C17.7214 3.67401 16.6183 3.67686 15.5486 3.45845C14.4789 3.24003 13.4653 2.80498 12.57 2.18006C12.4026 2.06394 12.2037 2.00171 12 2.00171C11.7963 2.00171 11.5974 2.06394 11.43 2.18006C10.5348 2.80498 9.52108 3.24003 8.45137 3.45845C7.38166 3.67686 6.27857 3.67401 5.21001 3.45006C5.06394 3.41852 4.91267 3.42012 4.76731 3.45473C4.62194 3.48934 4.48618 3.55609 4.37001 3.65006C4.25399 3.74418 4.16053 3.8631 4.0965 3.99808C4.03247 4.13306 3.9995 4.28067 4.00001 4.43006V11.8801C3.99912 13.3138 4.34078 14.727 4.99654 16.002C5.6523 17.277 6.60319 18.3769 7.77001 19.2101L11.42 21.8101C11.5894 21.9306 11.7921 21.9954 12 21.9954C12.2079 21.9954 12.4106 21.9306 12.58 21.8101L16.23 19.2101C17.3968 18.3769 18.3477 17.277 19.0035 16.002C19.6592 14.727 20.0009 13.3138 20 11.8801V4.43006C20.0005 4.28067 19.9675 4.13306 19.9035 3.99808C19.8395 3.8631 19.746 3.74418 19.63 3.65006ZM18 11.8801C18.0008 12.9948 17.7353 14.0936 17.2257 15.0851C16.716 16.0765 15.977 16.9319 15.07 17.5801L12 19.7701L8.93001 17.5801C8.02304 16.9319 7.28399 16.0765 6.77435 15.0851C6.26472 14.0936 5.99924 12.9948 6.00001 11.8801V5.58006C8.09643 5.7595 10.196 5.27309 12 4.19006C13.804 5.27309 15.9036 5.7595 18 5.58006V11.8801Z" fill="black" />
</svg>
