<svg width="24" height="24" viewBox="0 0 24 24" fill="none" xmlns="http://www.w3.org/2000/svg">
<path d="M12.0001 10C11.7349 10 11.4805 10.1054 11.293 10.2929C11.1055 10.4804 11.0001 10.7348 11.0001 11V15C11.0001 15.2652 11.1055 15.5196 11.293 15.7071C11.4805 15.8946 11.7349 16 12.0001 16C12.2653 16 12.5197 15.8946 12.7072 15.7071C12.8948 15.5196 13.0001 15.2652 13.0001 15V11C13.0001 10.7348 12.8948 10.4804 12.7072 10.2929C12.5197 10.1054 12.2653 10 12.0001 10ZM8.00011 13C7.73489 13 7.48054 13.1054 7.293 13.2929C7.10547 13.4804 7.00011 13.7348 7.00011 14V15C7.00011 15.2652 7.10547 15.5196 7.293 15.7071C7.48054 15.8946 7.73489 16 8.00011 16C8.26533 16 8.51968 15.8946 8.70722 15.7071C8.89475 15.5196 9.00011 15.2652 9.00011 15V14C9.00011 13.7348 8.89475 13.4804 8.70722 13.2929C8.51968 13.1054 8.26533 13 8.00011 13ZM12.0001 2C10.6869 2 9.38653 2.25866 8.17328 2.7612C6.96002 3.26375 5.85763 4.00035 4.92904 4.92893C3.05368 6.8043 2.00011 9.34784 2.00011 12C1.99137 14.3091 2.7909 16.5485 4.26011 18.33L2.26011 20.33C2.12135 20.4706 2.02736 20.6492 1.98998 20.8432C1.95261 21.0372 1.97353 21.2379 2.05011 21.42C2.13317 21.5999 2.26781 21.7511 2.43696 21.8544C2.6061 21.9577 2.80211 22.0083 3.00011 22H12.0001C14.6523 22 17.1958 20.9464 19.0712 19.0711C20.9465 17.1957 22.0001 14.6522 22.0001 12C22.0001 9.34784 20.9465 6.8043 19.0712 4.92893C17.1958 3.05357 14.6523 2 12.0001 2ZM12.0001 20H5.41011L6.34011 19.07C6.4346 18.9774 6.50977 18.8669 6.56126 18.7451C6.61276 18.6232 6.63956 18.4923 6.64011 18.36C6.63635 18.0962 6.52852 17.8446 6.34011 17.66C5.0307 16.352 4.21528 14.6305 4.0328 12.7888C3.85032 10.947 4.31205 9.09901 5.33934 7.55952C6.36662 6.02004 7.8959 4.88436 9.66663 4.34597C11.4374 3.80759 13.34 3.8998 15.0503 4.60691C16.7607 5.31402 18.173 6.59227 19.0465 8.22389C19.9201 9.85551 20.201 11.7395 19.8412 13.555C19.4815 15.3705 18.5034 17.005 17.0736 18.1802C15.6439 19.3554 13.8509 19.9985 12.0001 20ZM16.0001 8C15.7349 8 15.4805 8.10536 15.293 8.29289C15.1055 8.48043 15.0001 8.73478 15.0001 9V15C15.0001 15.2652 15.1055 15.5196 15.293 15.7071C15.4805 15.8946 15.7349 16 16.0001 16C16.2653 16 16.5197 15.8946 16.7072 15.7071C16.8948 15.5196 17.0001 15.2652 17.0001 15V9C17.0001 8.73478 16.8948 8.48043 16.7072 8.29289C16.5197 8.10536 16.2653 8 16.0001 8Z" fill="black" />
</svg>
