<svg width="24" height="24" viewBox="0 0 24 24" fill="none" xmlns="http://www.w3.org/2000/svg">
<path d="M20.4599 9.63006C20.3195 8.16898 19.8031 6.76915 18.9611 5.56688C18.119 4.36462 16.98 3.4009 15.6549 2.76956C14.3298 2.13822 12.8638 1.86079 11.3996 1.96427C9.93543 2.06775 8.52301 2.54863 7.29988 3.36006C6.24908 4.06271 5.36693 4.98936 4.71682 6.07346C4.06672 7.15755 3.66478 8.37217 3.53988 9.63006C3.41736 10.8797 3.57455 12.141 4.00005 13.3223C4.42555 14.5037 5.10868 15.5755 5.99988 16.4601L11.2999 21.7701C11.3928 21.8638 11.5034 21.9382 11.6253 21.989C11.7472 22.0397 11.8779 22.0659 12.0099 22.0659C12.1419 22.0659 12.2726 22.0397 12.3945 21.989C12.5163 21.9382 12.6269 21.8638 12.7199 21.7701L17.9999 16.4601C18.8911 15.5755 19.5742 14.5037 19.9997 13.3223C20.4252 12.141 20.5824 10.8797 20.4599 9.63006ZM16.5999 15.0501L11.9999 19.6501L7.39988 15.0501C6.72197 14.3721 6.20268 13.5524 5.87935 12.6498C5.55601 11.7473 5.43667 10.7843 5.52988 9.83006C5.6237 8.86117 5.93164 7.92522 6.43145 7.08991C6.93126 6.25459 7.61044 5.54077 8.41988 5.00006C9.48083 4.2953 10.7262 3.91936 11.9999 3.91936C13.2736 3.91936 14.5189 4.2953 15.5799 5.00006C16.3869 5.53868 17.0646 6.24935 17.5642 7.081C18.0639 7.91266 18.3732 8.84467 18.4699 9.81007C18.5661 10.7675 18.4483 11.7343 18.1249 12.6406C17.8014 13.5469 17.2805 14.3699 16.5999 15.0501ZM11.9999 6.00006C11.1099 6.00006 10.2398 6.26399 9.49982 6.75845C8.75979 7.25292 8.18302 7.95572 7.84242 8.77799C7.50183 9.60026 7.41271 10.5051 7.58635 11.378C7.75998 12.2509 8.18856 13.0527 8.8179 13.682C9.44724 14.3114 10.2491 14.74 11.122 14.9136C11.9949 15.0872 12.8997 14.9981 13.722 14.6575C14.5442 14.3169 15.247 13.7402 15.7415 13.0001C16.236 12.2601 16.4999 11.3901 16.4999 10.5001C16.4972 9.3074 16.0223 8.16434 15.1789 7.321C14.3356 6.47766 13.1925 6.00271 11.9999 6.00006ZM11.9999 13.0001C11.5054 13.0001 11.0221 12.8534 10.611 12.5787C10.1998 12.304 9.8794 11.9136 9.69018 11.4568C9.50096 11 9.45145 10.4973 9.54792 10.0123C9.64438 9.52739 9.88248 9.08193 10.2321 8.7323C10.5817 8.38267 11.0272 8.14456 11.5122 8.0481C11.9971 7.95164 12.4998 8.00115 12.9566 8.19037C13.4134 8.37958 13.8039 8.70002 14.0786 9.11114C14.3533 9.52226 14.4999 10.0056 14.4999 10.5001C14.4999 11.1631 14.2365 11.799 13.7676 12.2678C13.2988 12.7367 12.6629 13.0001 11.9999 13.0001Z" fill="black" />
</svg>
