<svg width="25" height="24" viewBox="0 0 25 24" fill="none" xmlns="http://www.w3.org/2000/svg">
<path d="M12.4937 22.9373C9.50576 22.9373 9.15352 22.9215 7.98751 22.8706C7.07822 22.8407 6.1807 22.6561 5.3336 22.3248C3.86795 21.7552 2.70901 20.5975 2.13919 19.1338C1.82012 18.2848 1.64803 17.3878 1.63027 16.4812C1.56226 15.3193 1.56226 14.9385 1.56226 11.9779C1.56226 8.98582 1.57805 8.63652 1.63027 7.47824C1.64842 6.57287 1.82051 5.67717 2.13919 4.82937C2.70839 3.36368 3.86921 2.20497 5.33724 1.63715C6.18582 1.3172 7.08305 1.1449 7.98994 1.12775C9.14988 1.06226 9.53127 1.06226 12.4937 1.06226C15.5059 1.06226 15.8521 1.07802 16.9999 1.12775C17.9091 1.14505 18.8087 1.31733 19.6598 1.63715C21.1275 2.20562 22.288 3.3641 22.8579 4.82937C23.1823 5.68952 23.3553 6.59923 23.3692 7.51827C23.4373 8.68018 23.4373 9.0598 23.4373 12.0192C23.4373 14.9785 23.4203 15.3666 23.3692 16.5152C23.3512 17.4227 23.1787 18.3204 22.8591 19.1701C22.2878 20.6349 21.1272 21.793 19.6598 22.3624C18.8099 22.6804 17.9122 22.8522 17.0047 22.8706C15.8448 22.9373 15.4646 22.9373 12.4937 22.9373ZM12.4524 2.9822C9.48147 2.9822 9.17296 2.99676 8.01301 3.04891C7.32067 3.05807 6.63502 3.18565 5.98584 3.4261C5.02722 3.7924 4.26867 4.54677 3.89794 5.50251C3.65528 6.15781 3.52749 6.84996 3.5202 7.54859C3.45582 8.72384 3.45582 9.03191 3.45582 11.9779C3.45582 14.8888 3.46675 15.2417 3.5202 16.4097C3.53107 17.1013 3.65878 17.786 3.89794 18.4352C4.26921 19.3903 5.02763 20.1441 5.98584 20.5103C6.63458 20.7524 7.32051 20.88 8.01301 20.8875C9.18875 20.9555 9.49847 20.9555 12.4524 20.9555C15.4318 20.9555 15.7403 20.9409 16.8905 20.8875C17.5834 20.8791 18.2695 20.7515 18.9189 20.5103C19.8718 20.1409 20.6254 19.3888 20.9959 18.4376C21.2381 17.7817 21.3659 17.0893 21.3736 16.3903H21.387C21.4392 15.2308 21.4392 14.9215 21.4392 11.9585C21.4392 8.99552 21.4259 8.68382 21.3736 7.52554C21.3628 6.83477 21.235 6.15079 20.9959 5.50251C20.6262 4.5499 19.8725 3.79638 18.9189 3.4261C18.2697 3.18443 17.5834 3.05682 16.8905 3.04891C15.716 2.9822 15.4087 2.9822 12.4524 2.9822ZM12.4937 17.5801C10.2224 17.5816 8.17385 16.2165 7.30352 14.1216C6.43319 12.0267 6.91247 9.61448 8.51784 8.01003C10.1232 6.40559 12.5385 5.92491 14.6372 6.79217C16.7359 7.65944 18.1047 9.70381 18.1052 11.9719C18.1018 15.0659 15.5922 17.5741 12.4937 17.5801ZM12.4937 8.33088C10.4813 8.33088 8.84987 9.95992 8.84987 11.9694C8.84987 13.979 10.4813 15.608 12.4937 15.608C14.5061 15.608 16.1375 13.979 16.1375 11.9694C16.1328 9.96185 14.5042 8.33555 12.4937 8.33088ZM18.3238 7.46612C17.6016 7.46344 17.018 6.87738 17.0193 6.15624C17.0206 5.43511 17.6065 4.85121 18.3286 4.85121C19.0508 4.85121 19.6366 5.4351 19.638 6.15623C19.6383 6.50416 19.4999 6.83789 19.2533 7.08368C19.0067 7.32947 18.6722 7.46708 18.3238 7.46612Z" fill="#111827"/>
</svg>
