<svg width="58" height="58" viewBox="0 0 58 58" fill="none" xmlns="http://www.w3.org/2000/svg">
<circle cx="29" cy="29" r="29" fill="#FDEFD9"/>
<path d="M34.093 21.6579L39.5333 16.2175M42.6421 13.1088L39.5333 16.2175L42.6421 13.1088ZM27.7045 28.0464C28.5071 28.8383 29.1451 29.7812 29.5818 30.8207C30.0185 31.8602 30.2453 32.9758 30.249 34.1033C30.2528 35.2308 30.0335 36.3479 29.6038 37.3903C29.1741 38.4327 28.5424 39.3798 27.7451 40.1771C26.9478 40.9743 26.0007 41.606 24.9583 42.0358C23.9159 42.4655 22.7988 42.6848 21.6713 42.681C20.5438 42.6772 19.4282 42.4505 18.3887 42.0138C17.3492 41.577 16.4064 40.939 15.6144 40.1364C14.0572 38.5241 13.1954 36.3645 13.2149 34.123C13.2344 31.8814 14.1335 29.7372 15.7186 28.1521C17.3037 26.567 19.4479 25.6679 21.6894 25.6485C23.931 25.629 26.0905 26.4907 27.7029 28.048L27.7045 28.0464ZM27.7045 28.0464L34.093 21.6579L27.7045 28.0464ZM34.093 21.6579L38.7561 26.3211L44.1965 20.8807L39.5333 16.2175L34.093 21.6579Z" stroke="#E39519" stroke-width="3" stroke-linecap="round" stroke-linejoin="round"/>
</svg>
