<svg width="61" height="60" viewBox="0 0 61 60" fill="none" xmlns="http://www.w3.org/2000/svg">
<path d="M17.7604 7.05612C21.8111 4.62977 26.4442 3.34755 31.1661 3.34607C35.0947 3.34376 38.9732 4.2282 42.5124 5.93348C46.0516 7.63877 49.1604 10.1209 51.6067 13.1949C54.053 16.2688 55.7741 19.8553 56.6416 23.687C57.509 27.5187 57.5004 31.4967 56.6163 35.3246C55.7321 39.1524 53.9956 42.7314 51.5356 45.7945C49.076 48.858 45.9564 51.3265 42.4097 53.0164C38.8631 54.7062 34.9808 55.5737 31.0522 55.554C27.7733 55.5381 24.5328 54.9042 21.4984 53.6922L7.23054 56.0678C5.63638 56.3335 4.33331 54.8057 4.84674 53.2735L8.49671 42.3793C6.46356 38.8132 5.29579 34.8098 5.09959 30.6927C4.87489 25.9761 5.93368 21.287 8.16324 17.1246C10.3927 12.9622 13.7095 9.48252 17.7604 7.05612Z" fill="#68C5E6"/>
<path d="M31.1661 3.34607C26.4442 3.34754 21.8111 4.62976 17.7604 7.05611C13.7095 9.48251 10.3927 12.9622 8.16324 17.1246C5.93368 21.287 4.87489 25.9761 5.09959 30.6926C5.29579 34.8098 6.46356 38.8132 8.49671 42.3793L4.84674 53.2735C4.33331 54.8057 5.63638 56.3335 7.23054 56.0678L21.4984 53.6922C24.5328 54.9042 27.7733 55.5381 31.0522 55.5539C34.9808 55.5737 38.8631 54.7062 42.4097 53.0164C45.9564 51.3265 49.076 48.8579 51.5356 45.7945C53.9956 42.7314 55.7321 39.1524 56.6163 35.3246C57.5004 31.4967 57.509 27.5186 56.6416 23.687" stroke="#3C6DAF" stroke-width="3.42857" stroke-linecap="round" stroke-linejoin="round"/>
<path d="M30.5 17.6786L38.2922 25.7143C41.9589 15.1814 45.0127 10.5595 51.9286 4.28577" stroke="#3C6DAF" stroke-width="3.42857" stroke-linecap="round" stroke-linejoin="round"/>
</svg>
