<svg width="40" height="28" viewBox="0 0 40 28" fill="none" xmlns="http://www.w3.org/2000/svg">
<path d="M36.0775 0H3.68369C1.64925 0 0 1.64924 0 3.68369V24.3163C0 26.3508 1.64925 28 3.68369 28H36.0775C38.1119 28 39.7612 26.3508 39.7612 24.3163V3.68369C39.7612 1.64924 38.1119 0 36.0775 0Z" fill="#36495D"/>
<path d="M23.2185 7.99731H16.5391V20.0014H23.2185V7.99731Z" fill="#F16522"/>
<path d="M16.9634 13.9999C16.9634 11.565 18.1038 9.3965 19.8791 7.99848C18.5797 6.97646 16.9425 6.36621 15.161 6.36621C10.9447 6.36621 7.52734 9.78484 7.52734 14.0011C7.52734 18.2174 10.9447 21.636 15.161 21.636C16.9425 21.636 18.5797 21.0258 19.8791 20.0038C18.1038 18.6057 16.9634 16.4372 16.9634 14.0024" fill="#E41B24"/>
<path d="M32.2306 13.9987C32.2306 18.2149 28.8132 21.6336 24.5969 21.6336C22.8155 21.6336 21.1783 21.0233 19.8789 20.0013C21.6542 18.6033 22.7945 16.4347 22.7945 13.9999C22.7945 11.565 21.6542 9.3965 19.8789 7.99848C21.1771 6.97646 22.8155 6.36621 24.5969 6.36621C28.8132 6.36621 32.2306 9.78361 32.2306 13.9999M31.502 18.7302V18.4849H31.6006V18.4356H31.3479V18.4849H31.4465V18.7302H31.5008H31.502ZM31.9914 18.7302V18.4344H31.9138L31.825 18.6378L31.7362 18.4344H31.6586V18.7302H31.7128V18.5071L31.7967 18.7007H31.8534L31.9372 18.5071V18.7315H31.9914V18.7302Z" fill="#F89E1C"/>
</svg>
