<svg width="58" height="58" viewBox="0 0 58 58" fill="none" xmlns="http://www.w3.org/2000/svg">
<circle cx="29" cy="29" r="29" fill="#E3E9FF"/>
<path d="M29.7129 35.8287L29.4567 35.6237C29.3614 35.5591 29.258 35.5074 29.1492 35.47L28.8417 35.3333C28.5646 35.2754 28.2775 35.2872 28.0062 35.3677C27.7348 35.4483 27.4877 35.5949 27.2871 35.7946C27.1362 35.9606 27.0148 36.1513 26.9283 36.3583C26.799 36.6696 26.7647 37.0121 26.8297 37.3429C26.8946 37.6736 27.056 37.9777 27.2934 38.217C27.5308 38.4562 27.8337 38.6199 28.1639 38.6873C28.4941 38.7548 28.8369 38.7231 29.1492 38.5962C29.3533 38.4972 29.543 38.3708 29.7129 38.2204C29.95 37.9802 30.1105 37.6751 30.1744 37.3437C30.2382 37.0123 30.2025 36.6694 30.0717 36.3583C29.9865 36.1608 29.8648 35.9811 29.7129 35.8287V35.8287ZM35.3333 11.4167H21.6667C20.3074 11.4167 19.0039 11.9566 18.0427 12.9177C17.0816 13.8789 16.5417 15.1824 16.5417 16.5417V40.4583C16.5417 41.8176 17.0816 43.1211 18.0427 44.0823C19.0039 45.0434 20.3074 45.5833 21.6667 45.5833H35.3333C36.6926 45.5833 37.9961 45.0434 38.9573 44.0823C39.9184 43.1211 40.4583 41.8176 40.4583 40.4583V16.5417C40.4583 15.1824 39.9184 13.8789 38.9573 12.9177C37.9961 11.9566 36.6926 11.4167 35.3333 11.4167ZM37.0417 40.4583C37.0417 40.9114 36.8617 41.3459 36.5413 41.6663C36.2209 41.9867 35.7864 42.1667 35.3333 42.1667H21.6667C21.2136 42.1667 20.7791 41.9867 20.4587 41.6663C20.1383 41.3459 19.9583 40.9114 19.9583 40.4583V16.5417C19.9583 16.0886 20.1383 15.6541 20.4587 15.3337C20.7791 15.0133 21.2136 14.8333 21.6667 14.8333H35.3333C35.7864 14.8333 36.2209 15.0133 36.5413 15.3337C36.8617 15.6541 37.0417 16.0886 37.0417 16.5417V40.4583Z" fill="#2D56EA"/>
</svg>
