<svg width="61" height="60" viewBox="0 0 61 60" fill="none" xmlns="http://www.w3.org/2000/svg">
<path d="M8.48432 47.5483C8.72209 51.6758 11.956 54.9977 16.0793 55.2985C25.8964 56.0147 35.1036 56.0147 44.9206 55.2985C49.0438 54.9977 52.2778 51.6758 52.5157 47.5483C53.1984 35.7007 53.1984 24.2992 52.5157 12.4516C52.2778 8.32416 49.0438 5.00243 44.9206 4.70149C35.1036 3.98508 25.8964 3.98508 16.0793 4.70149C11.956 5.00243 8.72209 8.32416 8.48432 12.4516C7.80178 24.2992 7.80178 35.7007 8.48432 47.5483Z" fill="#68C5E6" stroke="#3C6DAF" stroke-width="3.42857"/>
<path d="M52.9718 24.2229H8.02856C8.10416 20.3268 8.25609 16.4141 8.48439 12.4516C8.72216 8.32416 11.956 5.00243 16.0794 4.70149C25.8964 3.98508 35.1037 3.98508 44.9206 4.70149C49.0439 5.00243 52.2779 8.32416 52.5158 12.4516C52.7442 16.4141 52.8959 20.3268 52.9718 24.2229Z" fill="white" stroke="#3C6DAF" stroke-width="3.42857" stroke-linejoin="round"/>
<path d="M36.1318 14.1935H42.0179" stroke="#3C6DAF" stroke-width="3.42857" stroke-linecap="round" stroke-linejoin="round"/>
<path d="M18.947 44.7141H20.154" stroke="#3C6DAF" stroke-width="3.42857" stroke-linecap="round" stroke-linejoin="round"/>
<path d="M29.8965 44.7141H31.1034" stroke="#3C6DAF" stroke-width="3.42857" stroke-linecap="round" stroke-linejoin="round"/>
<path d="M41.0142 44.7141H42.2211" stroke="#3C6DAF" stroke-width="3.42857" stroke-linecap="round" stroke-linejoin="round"/>
<path d="M18.947 35.0711H20.154" stroke="#3C6DAF" stroke-width="3.42857" stroke-linecap="round" stroke-linejoin="round"/>
<path d="M29.8965 35.0711H31.1034" stroke="#3C6DAF" stroke-width="3.42857" stroke-linecap="round" stroke-linejoin="round"/>
<path d="M41.0142 35.0711H42.2211" stroke="#3C6DAF" stroke-width="3.42857" stroke-linecap="round" stroke-linejoin="round"/>
</svg>
