<svg width="107" height="28" viewBox="0 0 107 28" fill="none" xmlns="http://www.w3.org/2000/svg">
<path d="M102.355 5.96791L99.8206 21.8933C99.8111 21.9517 99.8145 22.0116 99.8306 22.0686C99.8467 22.1256 99.875 22.1785 99.9137 22.2234C99.9523 22.2683 100 22.3042 100.054 22.3286C100.108 22.353 100.167 22.3653 100.226 22.3646H103.226C103.332 22.3655 103.434 22.3285 103.515 22.2602C103.596 22.1919 103.65 22.0969 103.667 21.9925L106.202 6.0671C106.211 6.00862 106.208 5.94877 106.192 5.89175C106.176 5.83473 106.147 5.78192 106.109 5.73701C106.07 5.69211 106.022 5.6562 105.968 5.6318C105.914 5.60741 105.855 5.59512 105.796 5.59579H102.796C102.69 5.59369 102.587 5.63029 102.506 5.69877C102.425 5.76724 102.371 5.86291 102.355 5.96791ZM99.1522 10.6153H96.306C96.2003 10.6143 96.0977 10.6512 96.0169 10.7194C95.9361 10.7875 95.8824 10.8824 95.8656 10.9868L95.7715 11.5731C95.7715 11.5731 93.5609 9.1761 89.647 10.796C87.4016 11.7235 86.3238 13.6397 85.8651 15.0435C85.8651 15.0435 84.4095 19.3099 87.7017 21.6582C87.7017 21.6582 90.7545 23.9169 94.192 21.5193L94.1326 21.8933C94.1189 21.9811 94.1343 22.0711 94.1765 22.1493C94.2187 22.2276 94.2854 22.2899 94.3664 22.3267C94.4201 22.3519 94.4789 22.3646 94.5382 22.3646H97.3863C97.4925 22.3667 97.5958 22.3301 97.6769 22.2616C97.7581 22.1931 97.8115 22.0975 97.8273 21.9925L99.5597 11.0866C99.5694 11.0282 99.5659 10.9684 99.5497 10.9114C99.5334 10.8545 99.5046 10.8019 99.4655 10.7575C99.4269 10.7122 99.3789 10.6759 99.3247 10.6512C99.2706 10.6265 99.2117 10.6141 99.1522 10.6147V10.6153ZM94.9641 16.6425C94.853 17.4045 94.4678 18.0998 93.8806 18.5979C93.2908 19.0978 92.5403 19.3678 91.7673 19.3579C91.4641 19.3614 91.1622 19.3175 90.8727 19.2278C89.6438 18.8361 88.9425 17.6647 89.1441 16.3949C89.256 15.6333 89.6417 14.9385 90.2289 14.4408C90.8181 13.9405 91.568 13.6698 92.3409 13.6782C92.6441 13.6751 92.946 13.7194 93.2355 13.8096C94.4719 14.1988 95.17 15.372 94.9672 16.6432H94.9641V16.6425ZM79.7659 16.9439C81.3093 16.9439 82.8022 16.3955 83.9748 15.3985C85.145 14.4049 85.9197 13.0244 86.1583 11.508C86.6568 8.35352 84.1745 5.60021 80.6554 5.60021H74.9865C74.8807 5.5992 74.778 5.6362 74.6972 5.7045C74.6164 5.7728 74.5627 5.86784 74.5461 5.97233L72.0108 21.8977C71.997 21.9856 72.0124 22.0755 72.0546 22.1538C72.0968 22.232 72.1635 22.2943 72.2445 22.3311C72.2988 22.3564 72.357 22.369 72.4164 22.369H75.418C75.5238 22.37 75.6264 22.333 75.7072 22.2647C75.7881 22.1964 75.8417 22.1014 75.8583 21.9969L76.6026 17.3204C76.6182 17.2153 76.6716 17.1195 76.7528 17.0509C76.8339 16.9823 76.9373 16.9456 77.0435 16.9477L79.7659 16.9439ZM82.2766 11.3646C82.0915 12.5309 81.183 13.3895 79.445 13.3895H77.223L77.8977 9.14831H80.0799C81.8767 9.15146 82.4617 10.2034 82.2766 11.3678V11.3646Z" fill="#0070E0"/>
<path d="M68.5896 10.8857L65.1565 16.6381L63.4141 10.928C63.3868 10.8369 63.3306 10.7571 63.254 10.7007C63.1775 10.6443 63.0846 10.6143 62.9895 10.6153H59.8912C59.8111 10.6142 59.7332 10.6422 59.6721 10.6939C59.6109 10.7457 59.5705 10.8179 59.5583 10.8971C59.5507 10.9496 59.5562 11.0032 59.5741 11.0531L62.6963 20.6714L59.8723 25.2038C59.8483 25.2411 59.8322 25.2829 59.8249 25.3267C59.8177 25.3705 59.8194 25.4152 59.8301 25.4583C59.8407 25.5013 59.86 25.5418 59.8869 25.5771C59.9137 25.6124 59.9474 25.6419 59.986 25.6638C60.0377 25.6934 60.0964 25.7087 60.1559 25.708H63.493C63.5883 25.7083 63.682 25.6841 63.7651 25.6376C63.8482 25.5911 63.9179 25.524 63.9675 25.4426L72.6886 11.122C72.7202 11.0721 72.7376 11.0146 72.7388 10.9556C72.74 10.8965 72.7251 10.8383 72.6956 10.7872C72.6661 10.7359 72.6234 10.6934 72.572 10.6642C72.5206 10.6349 72.4622 10.62 72.4031 10.621H69.0672C68.9716 10.6201 68.8773 10.644 68.7936 10.6904C68.7099 10.7368 68.6396 10.8041 68.5896 10.8857ZM58.1349 10.6153H55.2862C55.1802 10.6143 55.0774 10.6514 54.9964 10.7198C54.9155 10.7882 54.8618 10.8834 54.8452 10.9881L54.7529 11.5737C54.7529 11.5737 52.5404 9.17675 48.6265 10.7966C46.3818 11.7241 45.3034 13.6403 44.8466 15.0441C44.8466 15.0441 43.3897 19.3105 46.6813 21.6589C46.6813 21.6589 49.7347 23.9175 53.1722 21.5199L53.1128 21.8939C53.0989 21.9818 53.1142 22.0718 53.1564 22.1501C53.1987 22.2285 53.2655 22.2907 53.3466 22.3273C53.4003 22.3526 53.459 22.3652 53.5184 22.3652H56.3665C56.4722 22.366 56.5748 22.3289 56.6555 22.2606C56.7363 22.1924 56.79 22.0975 56.8069 21.9931L58.5398 11.0873C58.554 10.9993 58.5387 10.9091 58.4965 10.8307C58.4542 10.7522 58.3873 10.6898 58.3061 10.6532C58.2522 10.6284 58.1936 10.6155 58.1342 10.6153H58.1349ZM53.9461 16.6438C53.834 17.4048 53.4486 18.099 52.862 18.5966C52.2726 19.0965 51.5227 19.367 50.75 19.3586C50.4472 19.3619 50.1458 19.318 49.8566 19.2284C48.6284 18.8367 47.9278 17.6654 48.1293 16.3949C48.2416 15.6316 48.6287 14.9356 49.2179 14.4376C49.8094 13.9374 50.5617 13.6679 51.3363 13.6788C51.6395 13.6757 51.9421 13.7199 52.2315 13.8102C53.4553 14.1994 54.1521 15.372 53.9499 16.6438H53.9468H53.9461ZM38.7486 16.9445C40.2894 16.9437 41.7798 16.3953 42.9538 15.3973C44.1228 14.4037 44.8967 13.0237 45.1347 11.508C45.6338 8.35416 43.1509 5.60085 39.6331 5.60085H33.9635C33.8577 5.59979 33.755 5.63669 33.6741 5.70485C33.5932 5.77301 33.5394 5.86791 33.5225 5.97234L30.9954 21.8933C30.9812 21.9813 30.9965 22.0714 31.0387 22.1499C31.081 22.2283 31.1479 22.2907 31.2291 22.3273C31.2828 22.352 31.3416 22.3652 31.401 22.3652H34.4007C34.5066 22.3662 34.6095 22.3292 34.6904 22.2607C34.7713 22.1923 34.825 22.0971 34.8417 21.9925L35.5846 17.316C35.6004 17.211 35.6539 17.1153 35.735 17.0469C35.8162 16.9784 35.9195 16.9418 36.0256 16.9439H38.7486V16.9445ZM41.2593 11.3646C41.0742 12.5309 40.1663 13.3895 38.4283 13.3895H36.2063L36.8798 9.14832H39.062C40.8594 9.15147 41.4438 10.204 41.2593 11.3678V11.3646Z" fill="#003087"/>
<path d="M19.3559 6.41881C19.4235 2.9023 16.5229 0.20459 12.5345 0.20459H4.28466C4.09242 0.204499 3.90645 0.273062 3.76028 0.397927C3.6141 0.522793 3.51731 0.695753 3.48735 0.885652L0.181864 21.5405C0.167075 21.6341 0.172746 21.7298 0.198487 21.821C0.224228 21.9122 0.269427 21.9968 0.330973 22.0688C0.392519 22.1409 0.468949 22.1987 0.555 22.2384C0.641052 22.2781 0.734681 22.2987 0.829442 22.2987H5.71692L4.95309 27.0813C4.9383 27.1749 4.94397 27.2706 4.96971 27.3618C4.99546 27.453 5.04065 27.5375 5.1022 27.6096C5.16375 27.6816 5.24018 27.7395 5.32623 27.7792C5.41228 27.8188 5.50591 27.8394 5.60067 27.8394H9.58217C9.77423 27.8394 9.94544 27.7706 10.092 27.6461C10.2373 27.521 10.2613 27.3485 10.2917 27.1584L11.4605 20.282C11.4902 20.0925 11.5868 19.8461 11.7328 19.721C11.8787 19.5959 12.0063 19.5277 12.199 19.5277H14.6352C18.5415 19.5277 21.8552 16.751 22.4611 12.8895C22.8901 10.1489 21.7149 7.65458 19.3559 6.41818V6.41881Z" fill="#001C64"/>
<path d="M6.7789 14.6813L5.56146 22.4004L4.797 27.2424C4.7823 27.336 4.78806 27.4317 4.81389 27.5229C4.83971 27.614 4.88498 27.6985 4.94659 27.7705C5.00819 27.8425 5.08467 27.9003 5.17074 27.9399C5.25682 27.9795 5.35046 28 5.44521 27.9999H9.6592C9.85127 27.9998 10.037 27.9312 10.1829 27.8063C10.3289 27.6815 10.4254 27.5086 10.4553 27.3189L11.5659 20.2814C11.5959 20.0916 11.6926 19.9188 11.8386 19.7939C11.9847 19.6691 12.1705 19.6004 12.3626 19.6004H14.843C18.7493 19.6004 22.063 16.751 22.6695 12.8896C23.0991 10.1489 21.7193 7.65461 19.3602 6.41821C19.3539 6.7101 19.3286 7.00135 19.2838 7.29007C18.6779 11.1503 15.3629 14.0002 11.4579 14.0002H7.57558C7.38338 14.0005 7.19757 14.0692 7.05153 14.1942C6.9055 14.3191 6.80883 14.4921 6.7789 14.6819" fill="#0070E0"/>
<path d="M5.55773 22.4005H0.65509C0.560349 22.4005 0.466738 22.3799 0.38071 22.3403C0.294683 22.3006 0.218286 22.2427 0.156788 22.1706C0.0952904 22.0986 0.0501542 22.014 0.024492 21.9228C-0.00117012 21.8316 -0.00674763 21.7359 0.00814411 21.6424L3.31363 0.681062C3.34358 0.49127 3.44027 0.318394 3.58632 0.193543C3.73236 0.0686907 3.91817 6.00693e-05 4.11031 0H12.5358C16.5242 0 19.4247 2.90241 19.3571 6.41829C18.3646 5.8977 17.1983 5.60013 15.9209 5.60013H8.8967C8.70445 5.60004 8.51849 5.6686 8.37231 5.79346C8.22614 5.91833 8.12935 6.09129 8.09939 6.28119L6.77644 14.6814L5.5571 22.4005H5.55773Z" fill="#003087"/>
</svg>
