<svg width="61" height="60" viewBox="0 0 61 60" fill="none" xmlns="http://www.w3.org/2000/svg">
<path d="M21.0158 11.6064L28.5292 4.13399C28.7873 3.84468 29.1035 3.61319 29.4573 3.45468C29.8111 3.29617 30.1944 3.21423 30.5821 3.21423C30.9697 3.21423 31.353 3.29617 31.7068 3.45468C33.8703 4.424 35.9882 5.81245 38.0852 7.12602C39.1143 7.77068 39.0742 9.40229 38.2043 10.2496C35.2075 13.5454 35.3315 18.7704 38.4813 21.9203C41.6311 25.0701 46.8564 25.1941 50.1521 22.1972C50.9968 21.3301 52.625 21.2951 53.261 22.325C54.6088 24.5076 56.0381 26.7098 57.0452 28.9573C57.2038 29.3111 57.2857 29.6944 57.2857 30.0821C57.2857 30.4697 57.2038 30.853 57.0452 31.2068C56.8867 31.5606 56.6552 31.8769 56.366 32.1349L48.8934 39.4841C55.9888 39.9132 59.3634 48.8104 54.3371 53.8371C49.433 58.7408 40.4158 55.5312 39.9841 48.3934L32.4707 55.866C32.2126 56.1552 31.8964 56.3867 31.5426 56.5452C31.1888 56.7038 30.8055 56.7857 30.4178 56.7857C30.0302 56.7857 29.6469 56.7038 29.2931 56.5452C27.1962 55.6058 25.1549 54.1864 23.1452 52.8441C22.1194 52.1588 22.1851 50.5127 23.0687 49.6521C26.3224 46.3757 26.3038 40.917 23.0277 37.6633C19.7516 34.4096 14.2927 34.4283 11.039 37.7043C10.1817 38.5844 8.54072 38.6426 7.86735 37.6149C6.45769 35.4637 4.95782 33.2815 3.95468 31.0426C3.79617 30.6888 3.71423 30.3055 3.71423 29.9178C3.71423 29.5302 3.79617 29.1469 3.95468 28.7931C4.11319 28.4393 4.34468 28.123 4.63399 27.865L12.1064 20.5158C4.93519 20.154 1.71608 11.0755 6.64579 6.14579C11.6528 1.13876 20.6567 4.48988 21.0158 11.6064Z" fill="#68C5E6" stroke="#3C6DAF" stroke-width="3.42857" stroke-linecap="round" stroke-linejoin="round"/>
</svg>
