<svg width="48" height="48" viewBox="0 0 48 48" fill="none" xmlns="http://www.w3.org/2000/svg">
<circle cx="23.9093" cy="24.2274" r="23.7467" fill="#074B96"/>
<path d="M31.6487 15.8682L31.3067 18.5191C30.4705 18.4621 29.8244 18.6142 29.3683 18.9752C28.9123 19.3363 28.6082 19.8399 28.4562 20.486C28.3041 21.1321 28.2756 21.8637 28.3707 22.6809H31.6487V29.5506H25.3491V22.1108C25.3491 19.8684 25.8812 18.1771 26.9454 17.0369C28.0286 15.8777 29.5964 15.4881 31.6487 15.8682ZM22.8692 15.8682L22.5271 18.5191C21.691 18.4621 21.0449 18.6142 20.5888 18.9752C20.1327 19.3363 19.8287 19.8399 19.6766 20.486C19.5246 21.1321 19.4961 21.8637 19.5911 22.6809H22.8692V29.5506H16.5696V22.1108C16.5696 19.8684 17.1017 18.1771 18.1659 17.0369C19.2491 15.8777 20.8168 15.4881 22.8692 15.8682Z" fill="white"/>
</svg>
