<svg width="61" height="60" viewBox="0 0 61 60" fill="none" xmlns="http://www.w3.org/2000/svg">
<path d="M8.58984 45.4547C9.28678 51.6034 14.4863 56.3974 20.6705 56.6169C23.8074 56.7283 27.0285 56.7857 30.5001 56.7857C33.9718 56.7857 37.1928 56.7283 40.3298 56.6169C46.514 56.3974 51.7135 51.6034 52.4103 45.4547C52.6533 43.3119 52.8218 41.1343 52.8218 38.9286C52.8218 36.7231 52.6533 34.5456 52.4103 32.4025C51.7135 26.2539 46.514 21.4598 40.3298 21.2403C37.1928 21.129 33.9718 21.0715 30.5001 21.0715C27.0285 21.0715 23.8074 21.129 20.6705 21.2403C14.4863 21.4598 9.28678 26.2539 8.58984 32.4025C8.34688 34.5456 8.17871 36.7231 8.17871 38.9286C8.17871 41.1343 8.34688 43.3119 8.58984 45.4547Z" fill="#68C5E6" stroke="#3C6DAF" stroke-width="3.42857"/>
<path d="M42.9999 21.0715V15.7143C42.9999 12.3991 41.683 9.21965 39.3387 6.87545C36.9945 4.53125 33.8151 3.21429 30.4999 3.21429C27.1847 3.21429 24.0053 4.53125 21.6611 6.87545C19.3168 9.21965 17.9999 12.3991 17.9999 15.7143V21.0715" stroke="#3C6DAF" stroke-width="3.42857" stroke-linecap="round" stroke-linejoin="round"/>
<path d="M30.5 36.4288V40.7143" stroke="#3C6DAF" stroke-width="3.42857" stroke-linecap="round" stroke-linejoin="round"/>
</svg>
