<svg width="65" height="22" viewBox="0 0 65 22" fill="none" xmlns="http://www.w3.org/2000/svg">
<path d="M51.2008 2.15798L56.5617 1.20392V21.7728H51.2008V2.15798ZM59.0263 2.15798V21.7615H64.3872V1.20392L59.0263 2.15798ZM43.5798 21.7615H48.9406V6.7238H43.5798V21.7615ZM8.15488 8.8477C7.47341 8.80227 5.90604 8.70005 5.90604 7.29169C5.90604 5.58802 8.16624 5.58802 9.00671 5.58802C10.4946 5.58802 12.4254 6.03098 13.7997 6.43986C13.7997 6.43986 14.572 6.71244 15.2194 6.98503L15.2762 6.99639V2.3397L15.1967 2.31699C13.5725 1.7491 11.6871 1.20392 8.17759 1.20392C2.13526 1.20392 0 4.72483 0 7.73464C0 9.47238 0.749613 13.5612 7.66649 14.0382C8.2571 14.0723 9.81311 14.1631 9.81311 15.6283C9.81311 16.8322 8.54104 17.5478 6.39442 17.5478C4.04337 17.5478 1.77181 16.9458 0.386164 16.3779V21.1822C2.45328 21.7274 4.79298 22 7.5302 22C13.4362 22 16.0826 18.6722 16.0826 15.3671C16.0826 11.619 13.1296 9.18844 8.15488 8.8477ZM40.5586 6.508C35.6066 6.66701 33.0965 8.89313 33.0965 13.3113V21.7728H38.5028V14.8673C38.5028 12.221 38.8436 11.0852 41.9897 10.983V6.57615C41.4445 6.47393 40.5586 6.508 40.5586 6.508ZM26.0207 6.71244C25.9071 7.00774 25.0439 9.43831 22.9654 11.9484V1.20392L17.4342 2.29427V21.7615H22.9654V15.7419C24.5669 18.1497 25.3619 21.7615 25.3619 21.7615H31.9835C31.3247 19.0356 28.4626 14.0155 28.4626 14.0155C31.0294 10.7558 32.1652 7.28033 32.3469 6.70108H26.0207V6.71244ZM46.2488 5.28136C47.7026 5.28136 48.8952 4.10015 48.8952 2.64636C48.8952 1.19257 47.714 0 46.2488 0C44.795 0 43.6138 1.18121 43.6138 2.64636C43.6138 4.10015 44.795 5.28136 46.2488 5.28136Z" fill="url(#paint0_linear_1554_3977)"/>
<defs>
<linearGradient id="paint0_linear_1554_3977" x1="0.0113613" y1="10.9929" x2="64.3908" y2="10.9929" gradientUnits="userSpaceOnUse">
<stop stop-color="#872166"/>
<stop offset="1" stop-color="#4F2455"/>
</linearGradient>
</defs>
</svg>
