<svg width="260" height="104" viewBox="0 0 260 104" fill="none" xmlns="http://www.w3.org/2000/svg">
<path opacity="0.5" d="M1.00098 24.4747L26.3094 1L49.3171 24.4747L68.8736 4.5212L88.4301 24.4747L107.987 4.5212L127.543 24.4747L147.1 4.5212L166.656 24.4747L186.213 4.5212L205.769 24.4747L225.326 4.5212L244.882 24.4747L264.439 4.5212" stroke="#C4C4C4" stroke-width="2" stroke-linecap="round" stroke-linejoin="round"/>
<path opacity="0.5" d="M1 63.5981L26.3084 40.1234L49.3161 63.5981L68.8726 43.6446L88.4292 63.5981L107.986 43.6446L127.542 63.5981L147.099 43.6446L166.655 63.5981L186.212 43.6446L205.768 63.5981L225.325 43.6446L244.881 63.5981L264.438 43.6446" stroke="#C4C4C4" stroke-width="2" stroke-linecap="round" stroke-linejoin="round"/>
<path opacity="0.5" d="M1.00293 102.725L26.3114 79.2502L49.319 102.725L68.8756 82.7714L88.4321 102.725L107.989 82.7714L127.545 102.725L147.102 82.7714L166.658 102.725L186.215 82.7714L205.771 102.725L225.328 82.7714L244.884 102.725L264.441 82.7714" stroke="#C4C4C4" stroke-width="2" stroke-linecap="round" stroke-linejoin="round"/>
</svg>
