<svg width="227" height="227" viewBox="0 0 227 227" fill="none" xmlns="http://www.w3.org/2000/svg">
<g opacity="0.3">
<path d="M0 0H6.13514V6.13514H0V0Z" fill="#C4C4C4"/>
<path d="M36.8108 0H42.9459V6.13514H36.8108V0Z" fill="#C4C4C4"/>
<path d="M73.6216 0H79.7568V6.13514H73.6216V0Z" fill="#C4C4C4"/>
<path d="M110.432 0H116.568V6.13514H110.432V0Z" fill="#C4C4C4"/>
<path d="M147.243 0H153.378V6.13514H147.243V0Z" fill="#C4C4C4"/>
<path d="M184.054 0H190.189V6.13514H184.054V0Z" fill="#C4C4C4"/>
<path d="M220.865 0H227V6.13514H220.865V0Z" fill="#C4C4C4"/>
<path d="M0 36.8108H6.13514V42.9459H0V36.8108Z" fill="#C4C4C4"/>
<path d="M36.8108 36.8108H42.9459V42.9459H36.8108V36.8108Z" fill="#C4C4C4"/>
<path d="M73.6216 36.8108H79.7568V42.9459H73.6216V36.8108Z" fill="#C4C4C4"/>
<path d="M110.432 36.8108H116.568V42.9459H110.432V36.8108Z" fill="#C4C4C4"/>
<path d="M147.243 36.8108H153.378V42.9459H147.243V36.8108Z" fill="#C4C4C4"/>
<path d="M184.054 36.8108H190.189V42.9459H184.054V36.8108Z" fill="#C4C4C4"/>
<path d="M220.865 36.8108H227V42.9459H220.865V36.8108Z" fill="#C4C4C4"/>
<path d="M0 73.6216H6.13514V79.7568H0V73.6216Z" fill="#C4C4C4"/>
<path d="M36.8108 73.6216H42.9459V79.7568H36.8108V73.6216Z" fill="#C4C4C4"/>
<path d="M73.6216 73.6216H79.7568V79.7568H73.6216V73.6216Z" fill="#C4C4C4"/>
<path d="M110.432 73.6216H116.568V79.7568H110.432V73.6216Z" fill="#C4C4C4"/>
<path d="M147.243 73.6216H153.378V79.7568H147.243V73.6216Z" fill="#C4C4C4"/>
<path d="M184.054 73.6216H190.189V79.7568H184.054V73.6216Z" fill="#C4C4C4"/>
<path d="M220.865 73.6216H227V79.7568H220.865V73.6216Z" fill="#C4C4C4"/>
<path d="M0 110.432H6.13514V116.568H0V110.432Z" fill="#C4C4C4"/>
<path d="M36.8108 110.432H42.9459V116.568H36.8108V110.432Z" fill="#C4C4C4"/>
<path d="M73.6216 110.432H79.7568V116.568H73.6216V110.432Z" fill="#C4C4C4"/>
<path d="M110.432 110.432H116.568V116.568H110.432V110.432Z" fill="#C4C4C4"/>
<path d="M147.243 110.432H153.378V116.568H147.243V110.432Z" fill="#C4C4C4"/>
<path d="M184.054 110.432H190.189V116.568H184.054V110.432Z" fill="#C4C4C4"/>
<path d="M220.865 110.432H227V116.568H220.865V110.432Z" fill="#C4C4C4"/>
<path d="M0 147.243H6.13514V153.378H0V147.243Z" fill="#C4C4C4"/>
<path d="M36.8108 147.243H42.9459V153.378H36.8108V147.243Z" fill="#C4C4C4"/>
<path d="M73.6216 147.243H79.7568V153.378H73.6216V147.243Z" fill="#C4C4C4"/>
<path d="M110.432 147.243H116.568V153.378H110.432V147.243Z" fill="#C4C4C4"/>
<path d="M147.243 147.243H153.378V153.378H147.243V147.243Z" fill="#C4C4C4"/>
<path d="M184.054 147.243H190.189V153.378H184.054V147.243Z" fill="#C4C4C4"/>
<path d="M220.865 147.243H227V153.378H220.865V147.243Z" fill="#C4C4C4"/>
<path d="M0 184.054H6.13514V190.189H0V184.054Z" fill="#C4C4C4"/>
<path d="M36.8108 184.054H42.9459V190.189H36.8108V184.054Z" fill="#C4C4C4"/>
<path d="M73.6216 184.054H79.7568V190.189H73.6216V184.054Z" fill="#C4C4C4"/>
<path d="M110.432 184.054H116.568V190.189H110.432V184.054Z" fill="#C4C4C4"/>
<path d="M147.243 184.054H153.378V190.189H147.243V184.054Z" fill="#C4C4C4"/>
<path d="M184.054 184.054H190.189V190.189H184.054V184.054Z" fill="#C4C4C4"/>
<path d="M220.865 184.054H227V190.189H220.865V184.054Z" fill="#C4C4C4"/>
<path d="M0 220.865H6.13514V227H0V220.865Z" fill="#C4C4C4"/>
<path d="M36.8108 220.865H42.9459V227H36.8108V220.865Z" fill="#C4C4C4"/>
<path d="M73.6216 220.865H79.7568V227H73.6216V220.865Z" fill="#C4C4C4"/>
<path d="M110.432 220.865H116.568V227H110.432V220.865Z" fill="#C4C4C4"/>
<path d="M147.243 220.865H153.378V227H147.243V220.865Z" fill="#C4C4C4"/>
<path d="M184.054 220.865H190.189V227H184.054V220.865Z" fill="#C4C4C4"/>
<path d="M220.865 220.865H227V227H220.865V220.865Z" fill="#C4C4C4"/>
</g>
</svg>
