<svg width="40" height="28" viewBox="0 0 40 28" fill="none" xmlns="http://www.w3.org/2000/svg">
<path d="M36.0775 0H3.68369C1.64925 0 0 1.64924 0 3.68369V24.3163C0 26.3508 1.64925 28 3.68369 28H36.0775C38.1119 28 39.7612 26.3508 39.7612 24.3163V3.68369C39.7612 1.64924 38.1119 0 36.0775 0Z" fill="#0066B2"/>
<path d="M18.1962 18.3863H16.125L17.4195 10.4321H19.4906L18.1962 18.3863Z" fill="white"/>
<path d="M14.38 10.4321L12.405 15.9034L12.172 14.7248L11.4755 11.1484C11.4755 11.1484 11.3917 10.4321 10.4929 10.4321H7.22962L7.19141 10.5665C7.19141 10.5665 8.19 10.7736 9.35749 11.4763L11.1562 18.3863H13.3136L16.609 10.4321H14.38Z" fill="white"/>
<path d="M30.6695 18.3863H32.5705L30.9124 10.4321H29.2468C28.4775 10.4321 28.2914 11.0251 28.2914 11.0251L25.2031 18.3863H27.3618L27.7933 17.2053H30.4254L30.6683 18.3863H30.6695ZM28.3912 15.573L29.4798 12.5957L30.0925 15.573H28.3925H28.3912Z" fill="white"/>
<path d="M25.3654 12.3442L25.6613 10.6355C25.6613 10.6355 24.749 10.2891 23.7984 10.2891C22.7703 10.2891 20.3305 10.739 20.3305 12.9224C20.3305 14.9775 23.1944 15.0034 23.1944 16.0821C23.1944 17.1608 20.6251 16.9685 19.777 16.288L19.4688 18.0731C19.4688 18.0731 20.3934 18.5231 21.8062 18.5231C23.219 18.5231 25.3518 17.7908 25.3518 15.7998C25.3518 13.8088 22.4621 13.5388 22.4621 12.6401C22.4621 11.7413 24.479 11.856 25.3654 12.3442Z" fill="white"/>
<path d="M12.172 14.7248L11.4755 11.1484C11.4755 11.1484 11.3917 10.4321 10.4929 10.4321H7.22962L7.19141 10.5665C7.19141 10.5665 8.7608 10.892 10.2648 12.11C11.7036 13.2738 12.172 14.7248 12.172 14.7248Z" fill="#F9A533"/>
</svg>
