<svg xmlns="http://www.w3.org/2000/svg" xmlns:xlink="http://www.w3.org/1999/xlink" width="144.26" height="118.558" viewBox="0 0 144.26 118.558"><defs><linearGradient id="a" x1="1.055" y1="-0.387" x2="-0.481" y2="1.906" gradientUnits="objectBoundingBox"><stop offset="0" stop-color="#34a096"/><stop offset="1" stop-color="#14645d"/></linearGradient><linearGradient id="b" x1="3.019" y1="-2.887" x2="-1.77" y2="3.552" xlink:href="#a"/><linearGradient id="c" x1="1.925" y1="-24.78" x2="-0.602" y2="20.048" xlink:href="#a"/><linearGradient id="d" x1="1.322" y1="-20.503" x2="-0.432" y2="24.325" xlink:href="#a"/><linearGradient id="e" x1="1.981" y1="-0.483" x2="-2.531" y2="2.512" xlink:href="#a"/><linearGradient id="f" x1="2.675" y1="-5.173" x2="-6.212" y2="17.542" xlink:href="#a"/><linearGradient id="g" x1="14.467" y1="-14.97" x2="-21.38" y2="24.735" xlink:href="#a"/></defs><g transform="translate(1385.827 -4012.275)"><path d="M-1275.594,4028.3v33.72h-1.685c-2.841,0-5.142,3.955-5.142,5.994v7.056h-85.411c-4.853,0-8.791-2.82-8.791-6.3V4028.3c0-3.484,3.938-6.31,8.791-6.31h83.448C-1279.532,4021.992-1275.594,4024.818-1275.594,4028.3Z" transform="translate(1.49 1.573)" fill="#d0e4e2"/><g transform="translate(-1385.827 4012.275)"><path d="M-1280.931,4103.122h-92.323a12.581,12.581,0,0,1-12.573-12.56v-65.715a12.585,12.585,0,0,1,12.573-12.571h97.271a12.585,12.585,0,0,1,12.573,12.571V4063.6a2.325,2.325,0,0,1-2.324,2.324h-9.2a3.675,3.675,0,0,0-3.671,3.671V4100.8A2.324,2.324,0,0,1-1280.931,4103.122Zm-92.323-86.2a7.933,7.933,0,0,0-7.925,7.924v65.715a7.928,7.928,0,0,0,7.925,7.913h90v-28.884a8.327,8.327,0,0,1,8.318-8.319h6.88v-36.425a7.933,7.933,0,0,0-7.925-7.924Z" transform="translate(1385.827 -4012.275)" fill="url(#a)"/></g><g transform="translate(-1344.26 4098.478)"><path d="M-1313.093,4118.822h-34.635a2.324,2.324,0,0,1-2.324-2.324v-27.708a2.323,2.323,0,0,1,2.324-2.324h34.635a2.324,2.324,0,0,1,2.324,2.324V4116.5A2.325,2.325,0,0,1-1313.093,4118.822Zm-32.311-4.647h29.987v-23.06H-1345.4Z" transform="translate(1350.051 -4086.467)" fill="url(#b)"/></g><g transform="translate(-1362.375 4126.185)"><path d="M-1293.518,4114.962h-69.8a2.324,2.324,0,0,1-2.324-2.324,2.323,2.323,0,0,1,2.324-2.324h69.8a2.323,2.323,0,0,1,2.324,2.324A2.324,2.324,0,0,1-1293.518,4114.962Z" transform="translate(1365.643 -4110.314)" fill="url(#c)"/></g><g transform="translate(-1385.827 4083.73)"><path d="M-1280.931,4078.423H-1383.5a2.325,2.325,0,0,1-2.324-2.324,2.324,2.324,0,0,1,2.324-2.324h102.572a2.324,2.324,0,0,1,2.324,2.324A2.325,2.325,0,0,1-1280.931,4078.423Z" transform="translate(1385.827 -4073.775)" fill="url(#d)"/></g><g transform="translate(-1283.255 4061.271)"><path d="M-1264.178,4124.006h-25.05a8.328,8.328,0,0,1-8.318-8.319v-52.922a8.327,8.327,0,0,1,8.318-8.319h25.05a8.328,8.328,0,0,1,8.32,8.319v52.922A8.329,8.329,0,0,1-1264.178,4124.006Zm-25.05-64.913a3.675,3.675,0,0,0-3.671,3.671v52.922a3.675,3.675,0,0,0,3.671,3.672h25.05a3.676,3.676,0,0,0,3.673-3.672v-52.922a3.676,3.676,0,0,0-3.673-3.671Z" transform="translate(1297.546 -4054.445)" fill="url(#e)"/></g><g transform="translate(-1272.593 4061.271)"><path d="M-1271.393,4063.617h-13.055a2.322,2.322,0,0,1-2.19-1.55l-1.6-4.524a2.323,2.323,0,0,1,.294-2.117,2.324,2.324,0,0,1,1.9-.98h16.518a2.327,2.327,0,0,1,1.931,1.03,2.325,2.325,0,0,1,.217,2.178l-1.865,4.525A2.325,2.325,0,0,1-1271.393,4063.617Z" transform="translate(1288.37 -4054.445)" fill="url(#f)"/></g><g transform="translate(-1265.036 4116.616)"><path d="M-1279.24,4107.325a2.628,2.628,0,0,1-2.625-2.624,2.628,2.628,0,0,1,2.625-2.624,2.625,2.625,0,0,1,2.622,2.624A2.626,2.626,0,0,1-1279.24,4107.325Zm0-4.647a2.026,2.026,0,0,0-2.025,2.024,2.027,2.027,0,0,0,2.025,2.024,2.025,2.025,0,0,0,2.023-2.024A2.025,2.025,0,0,0-1279.24,4102.678Z" transform="translate(1281.865 -4102.078)" fill="url(#g)"/></g><rect width="26.287" height="40.318" transform="translate(-1275.525 4072.738)" fill="#d0e4e2"/></g></svg>