<svg xmlns="http://www.w3.org/2000/svg" xmlns:xlink="http://www.w3.org/1999/xlink" width="108.01" height="150.885" viewBox="0 0 108.01 150.885"><defs><linearGradient id="a" x1="2.495" y1="-0.832" x2="-2.219" y2="2.316" gradientUnits="objectBoundingBox"><stop offset="0" stop-color="#34a096"/><stop offset="1" stop-color="#14645d"/></linearGradient><linearGradient id="b" x1="1.495" y1="-0.571" x2="-2.55" y2="2.577" xlink:href="#a"/><linearGradient id="c" x1="1.061" y1="-1.249" x2="-0.952" y2="4.403" xlink:href="#a"/><linearGradient id="d" x1="4.083" y1="-16.248" x2="-4.556" y2="23.848" xlink:href="#a"/><linearGradient id="e" x1="3.031" y1="-14.354" x2="-3.763" y2="25.138" xlink:href="#a"/><linearGradient id="f" x1="1.057" y1="-2.058" x2="-0.955" y2="7.185" xlink:href="#a"/><linearGradient id="g" x1="2.915" y1="-2.017" x2="-2.034" y2="3.141" xlink:href="#a"/><linearGradient id="h" x1="4.82" y1="-4.003" x2="-10.493" y2="11.957" xlink:href="#a"/><linearGradient id="i" x1="3.476" y1="-2.602" x2="-11.836" y2="13.357" xlink:href="#a"/><linearGradient id="j" x1="3.29" y1="-2.407" x2="-12.023" y2="13.552" xlink:href="#a"/><linearGradient id="k" x1="2.496" y1="-1.58" x2="-12.817" y2="14.379" xlink:href="#a"/><linearGradient id="l" x1="5.429" y1="-4.637" x2="-9.884" y2="11.322" xlink:href="#a"/><linearGradient id="m" x1="7.077" y1="-6.355" x2="-18.801" y2="20.615" xlink:href="#a"/></defs><g transform="translate(1592.502 -3761.92)"><path d="M-1546.382,3866.455a2.012,2.012,0,0,1-1.82,2.17,2,2,0,0,1-2.17-1.82l-2.04-23.49-19.94-20.58-.06-.06-19.51-20.15a1.959,1.959,0,0,1-.57-1.39v-2.46a2.006,2.006,0,0,1,2-2h33.41a11.058,11.058,0,0,0,2.29,4h-33.36l5.28,5.45,12.9,13.32,4.8,4.95,16.12,16.65a1.978,1.978,0,0,1,.56,1.21Z" fill="url(#a)"/><path d="M-1484.492,3798.675v2.46a1.992,1.992,0,0,1-.56,1.39l-19.25,19.87-20.26,20.92-2.05,23.5a1.992,1.992,0,0,1-1.99,1.82.913.913,0,0,1-.17-.01,1.99,1.99,0,0,1-1.82-2.16l2.11-24.21a2,2,0,0,1,.55-1.22l16.16-16.68,4.99-5.15,12.67-13.08,5.28-5.45h-49.4a11.058,11.058,0,0,0,2.29-4h17.67a10.9,10.9,0,0,0,4.53.97,10.894,10.894,0,0,0,4.53-.97h22.72a1.985,1.985,0,0,1,1.98,1.76A.972.972,0,0,1-1484.492,3798.675Z" fill="url(#b)"/><path d="M-1524.842,3786.815c-4.69-.27-9.15-.39-12.97-.4a11.1,11.1,0,0,1,2.03,4.01c4.04.05,8,.18,11.8.4A11.152,11.152,0,0,1-1524.842,3786.815Zm8.12.58a3.1,3.1,0,0,0,2.98,2.25A3.1,3.1,0,0,0-1511,3788C-1512.882,3787.765-1514.8,3787.565-1516.722,3787.4Zm32.21,11.04c-.26-4.49-8.2-7.42-18.45-9.26a10.787,10.787,0,0,1-1.7,3.74c.87.15,1.72.31,2.55.47a46.2,46.2,0,0,1,11.07,3.29c1.97.97,2.55,1.73,2.55,2v1.65l-.34.35-5.28,5.45-12.67,13.08c-9.13,2.27-19.45,3.29-33.36,3.29a147.338,147.338,0,0,1-29.83-3.05l-12.9-13.32-5.28-5.45-.34-.35v-1.39a2.344,2.344,0,0,0-.01-.26c0-.27.58-1.03,2.55-2a46.2,46.2,0,0,1,11.07-3.29,152.564,152.564,0,0,1,17.49-2.26,10.983,10.983,0,0,1,1.72-4.1c-17.59,1.23-36.83,4.5-36.83,11.65a2.611,2.611,0,0,0,.01.28v2.18a1.959,1.959,0,0,0,.57,1.39l19.51,20.15.06.06a1.89,1.89,0,0,0,.97.5q3.12.645,6.21,1.16a149.24,149.24,0,0,0,25.03,2.1,156.332,156.332,0,0,0,28.37-2.14c2.25-.4,4.42-.87,6.53-1.41a1.96,1.96,0,0,0,.94-.55l19.25-19.87a1.992,1.992,0,0,0,.56-1.39v-2.46A.972.972,0,0,0-1484.512,3798.435Zm-62-8.24a3.015,3.015,0,0,0-1.51.4c.94-.04,1.88-.07,2.83-.09A2.948,2.948,0,0,0-1546.512,3790.2Z" fill="url(#c)"/><path d="M-1539.187,3862.189a48.536,48.536,0,0,1-9.022-.809,3.143,3.143,0,0,1-1.453-.636,2,2,0,0,1-1.4-1.948,2,2,0,0,1,2-1.959h.042a2.767,2.767,0,0,1,1.973.689c6.9,1.238,14.981.584,18.379-.832a2,2,0,0,1,2.615,1.076,2,2,0,0,1-1.076,2.615C-1529.953,3861.564-1534.472,3862.189-1539.187,3862.189Z" fill="url(#d)"/><path d="M-1539.856,3844.055c-4.3,0-9.661,0-13.452-1.836a2,2,0,0,1-.928-2.671,2,2,0,0,1,2.67-.929c2.967,1.436,7.815,1.436,11.71,1.436a57.931,57.931,0,0,0,14.862-1.657,2,2,0,0,1,2.473,1.372,2,2,0,0,1-1.372,2.473A61.837,61.837,0,0,1-1539.856,3844.055Z" fill="url(#e)"/><path d="M-1524.842,3786.815c-4.69-.27-9.15-.39-12.97-.4a11.1,11.1,0,0,1,2.03,4.01c4.04.05,8,.18,11.8.4A11.152,11.152,0,0,1-1524.842,3786.815Zm8.12.58a3.1,3.1,0,0,0,2.98,2.25A3.1,3.1,0,0,0-1511,3788C-1512.882,3787.765-1514.8,3787.565-1516.722,3787.4Zm32.21,11.04c-.26-4.49-8.2-7.42-18.45-9.26a10.787,10.787,0,0,1-1.7,3.74c.87.15,1.72.31,2.55.47a46.2,46.2,0,0,1,11.07,3.29c1.97.97,2.55,1.73,2.55,2s-.56,1.03-2.53,2a44.671,44.671,0,0,1-10.26,3.14c-9.82,2-23.04,3.11-37.21,3.11-14.55,0-28.47-1.22-38.18-3.33a41.387,41.387,0,0,1-9.29-2.92c-2.33-1.17-2.54-1.98-2.54-2,0-.27.58-1.03,2.55-2a46.2,46.2,0,0,1,11.07-3.29,152.564,152.564,0,0,1,17.49-2.26,10.983,10.983,0,0,1,1.72-4.1c-17.59,1.23-36.83,4.5-36.83,11.65a2.611,2.611,0,0,0,.01.28,1.95,1.95,0,0,0,.02.25c.24,1.86,1.6,4.47,9.6,6.92,1.53.47,3.3.93,5.35,1.38,9.97,2.17,24.2,3.42,39.03,3.42,14.44,0,27.93-1.14,38.01-3.2q3.6-.75,6.37-1.6c6.46-1.99,9.62-4.45,9.62-7.45A.972.972,0,0,0-1484.512,3798.435Zm-62-8.24a3.015,3.015,0,0,0-1.51.4c.94-.04,1.88-.07,2.83-.09A2.948,2.948,0,0,0-1546.512,3790.2Z" fill="url(#f)"/><path d="M-1538.182,3868.885a21.964,21.964,0,0,0-21.96,21.96,21.964,21.964,0,0,0,21.96,21.96,21.958,21.958,0,0,0,21.96-21.96A21.958,21.958,0,0,0-1538.182,3868.885Zm-2.44,17.49a2.657,2.657,0,0,0,.93.83,12.444,12.444,0,0,0,1.8.8c1.66.59,3.13,1.18,4.44,1.79a9.123,9.123,0,0,1,3.09,2.23,5.011,5.011,0,0,1,1.13,3.39,5.021,5.021,0,0,1-1.18,3.37,7.382,7.382,0,0,1-3.28,2.13,12.97,12.97,0,0,1-3.28.66v3.08h-3.19v-3.09a17.92,17.92,0,0,1-2.06-.3,11.347,11.347,0,0,1-3.3-1.25,6.778,6.778,0,0,1-2.38-2.32,6.628,6.628,0,0,1-.9-3.56h6.87a3.767,3.767,0,0,0,.28,1.55,2.508,2.508,0,0,0,.74.99,2.893,2.893,0,0,0,1.08.54,4.834,4.834,0,0,0,1.28.16,3.187,3.187,0,0,0,1.41-.259,1.81,1.81,0,0,0,.78-.711,2.02,2.02,0,0,0,.25-.96,2.388,2.388,0,0,0-.3-1.27,2.454,2.454,0,0,0-.94-.85,9.689,9.689,0,0,0-1.74-.73c-1.69-.57-3.19-1.15-4.5-1.729a8.555,8.555,0,0,1-3.07-2.181,5.052,5.052,0,0,1-1.11-3.41,4.924,4.924,0,0,1,1.19-3.28,7.762,7.762,0,0,1,3.3-2.18,12.63,12.63,0,0,1,3.54-.72v-3.18h3.19v3.24a11.31,11.31,0,0,1,2.98.75,7.6,7.6,0,0,1,3.3,2.461,6.218,6.218,0,0,1,1.2,3.829h-6.87a2.782,2.782,0,0,0-.77-2.26,2.916,2.916,0,0,0-1.86-.62,2.869,2.869,0,0,0-1.34.28,1.785,1.785,0,0,0-.75.74,2.139,2.139,0,0,0-.24,1A1.883,1.883,0,0,0-1540.622,3886.375Z" fill="url(#g)"/><path d="M-1544.442,3786.5c-1.48.04-3.01.09-4.58.16a6.748,6.748,0,0,1,2.51-.47A7.046,7.046,0,0,1-1544.442,3786.5Z" fill="#29a9e1"/><path d="M-1543.412,3793.285a3.1,3.1,0,0,1-3.1,3.1,3.1,3.1,0,0,1-3.1-3.1,3.061,3.061,0,0,1,1.59-2.69,3.015,3.015,0,0,1,1.51-.4,2.948,2.948,0,0,1,1.32.31A3.06,3.06,0,0,1-1543.412,3793.285Z" fill="#29a9e1"/><path d="M-1546.512,3786.185a6.748,6.748,0,0,0-2.51.47c1.57-.07,3.1-.12,4.58-.16A7.046,7.046,0,0,0-1546.512,3786.185Z" fill="#fff"/><path d="M-1519.132,3791.155c3.4.27,6.65.62,9.69,1.03a7,7,0,0,1-4.3,1.46A7.06,7.06,0,0,1-1519.132,3791.155Z" fill="#29a9e1"/><path d="M-1506.642,3786.545a6.887,6.887,0,0,1-.29,1.99c-1.33-.2-2.69-.38-4.07-.54a3.1,3.1,0,0,1-2.74,1.65,3.1,3.1,0,0,1-2.98-2.25c-1.36-.13-2.73-.24-4.09-.33a4.526,4.526,0,0,1-.03-.52,7.093,7.093,0,0,1,7.1-7.09A7.093,7.093,0,0,1-1506.642,3786.545Z" fill="#29a9e1"/><path d="M-1519.132,3791.155a7.06,7.06,0,0,0,5.39,2.49,7,7,0,0,0,4.3-1.46C-1512.482,3791.775-1515.732,3791.425-1519.132,3791.155Zm5.39-11.7a7.093,7.093,0,0,0-7.1,7.09,4.526,4.526,0,0,0,.03.52c1.36.09,2.73.2,4.09.33a2.962,2.962,0,0,1-.12-.85,3.094,3.094,0,0,1,3.1-3.09,3.094,3.094,0,0,1,3.1,3.09,3.055,3.055,0,0,1-.36,1.45c1.38.16,2.74.34,4.07.54a6.887,6.887,0,0,0,.29-1.99A7.093,7.093,0,0,0-1513.742,3779.455Z" fill="#fff"/><circle cx="7.098" cy="7.098" r="7.098" transform="translate(-1553.612 3786.19)" fill="url(#h)"/><circle cx="7.098" cy="7.098" r="7.098" transform="translate(-1520.84 3779.451)" fill="url(#i)"/><circle cx="7.098" cy="7.098" r="7.098" transform="translate(-1533.581 3761.92)" fill="url(#j)"/><circle cx="7.098" cy="7.098" r="7.098" transform="translate(-1501.734 3769.924)" fill="url(#k)"/><circle cx="7.098" cy="7.098" r="7.098" transform="translate(-1589.453 3769.087)" fill="url(#l)"/><circle cx="4.2" cy="4.2" r="4.2" transform="translate(-1563.376 3764.774)" fill="url(#m)"/></g></svg>