<svg xmlns="http://www.w3.org/2000/svg" xmlns:xlink="http://www.w3.org/1999/xlink" width="175.525" height="73.265" viewBox="0 0 175.525 73.265"><defs><clipPath id="a"><rect width="175.525" height="73.265" transform="translate(0 0.001)" fill="none"/></clipPath></defs><g transform="translate(0 0)"><g clip-path="url(#a)"><path d="M169.042,69.163c1.9-.062,3.76-1.3,4.145-2.545.908-2.462.979-3.794.471-4.807a3.853,3.853,0,0,1-.707-1.784c.008-1.891-2.273-3.144-3.933-2.852-.144.025-.7.166-1.158.288l-3.223,4.071-.361,4.235L164.925,67a4.679,4.679,0,0,0,3.054,2.131ZM140.9,72.817V52.831H62.86V72.817m-3.409-32.3h41.384V29.355H59.451Zm88.581,32.3V42.863h-7.744V39.984h-15v2.879H121.8V39.984h-15v2.879H55.729V72.817M106.8,42.863h15m3.49,0h15m-73.509,0V40.521m26.727,2.342V40.521M78.679,52.831V72.817M94.146,52.831V72.817m15.469-19.986V72.817m15.467-19.986V72.817M.43,72.818H175.1m-135.644-2.1,1.175-.15a1.729,1.729,0,0,0,1.031-.555,10.532,10.532,0,0,0,.7-3.26c.086-.7-.386-.539-.352-1.175a27.735,27.735,0,0,0-.871-6.837c-.405-1.6-.669-1.969-2.852-2.035q-9.621-.021-19.2.195a11.835,11.835,0,0,0-4.475,1.072c-1.567.8-3.493,2.4-5.2,3.2a17.109,17.109,0,0,0-3.3,1.756,2.164,2.164,0,0,0-.66,1.136,21.078,21.078,0,0,0-.251,3l-.2.28a1.067,1.067,0,0,0-.1.613L5.177,69.7a.933.933,0,0,0,.806.8l1.871.223m5.839,0H33.616m135.419,2.12v-5.4M74.07,56.562a1.194,1.194,0,0,0-2.319,0,3.424,3.424,0,0,0,.192,1.35,1.253,1.253,0,0,0,.782.568,1.154,1.154,0,0,0,.371,0,1.252,1.252,0,0,0,.783-.568,3.441,3.441,0,0,0,.191-1.35M71.418,71.716l-.14-5.223-.617-.067-.188-.19-.3-2.792.13-3.02c.013-.169.244-.366.4-.42a5.91,5.91,0,0,1,4.4,0c.161.054.392.251.4.42l.131,3.02-.3,2.792-.188.19-.617.067-.14,5.223m-1.493-5.94v5.943M49.554,56.562a1.195,1.195,0,0,0-2.32,0,3.424,3.424,0,0,0,.192,1.35,1.253,1.253,0,0,0,.782.568,1.161,1.161,0,0,0,.372,0,1.253,1.253,0,0,0,.782-.568,3.424,3.424,0,0,0,.192-1.35M46.9,71.716l-.14-5.223-.618-.067-.187-.19-.3-2.792.13-3.02c.013-.169.244-.366.406-.42a5.908,5.908,0,0,1,4.4,0c.162.054.392.251.406.42l.13,3.02-.3,2.792-.188.19-.617.067-.141,5.223m-1.492-5.94v5.943M38.368,56.709c.177.678.906,3.659,1.018,4.367.056.352-.159.5-.574.5l-31,.356,1.258-.591.988-.5s3.41-2.8,6.293-3.516,8.92-.538,8.92-.538l13.018-.084" fill="#00b6ed" fill-rule="evenodd"/><path d="M169.035,73.266a.429.429,0,0,1-.127-.019H.43a.429.429,0,0,1,0-.858H55.3V42.863a.429.429,0,0,1,.429-.429H66.35V40.95h-6.9a.429.429,0,0,1-.429-.429V29.355a.429.429,0,0,1,.429-.429h41.384a.429.429,0,0,1,.429.429V40.521a.429.429,0,0,1-.429.429h-6.9v1.484h12.434v-2.45a.429.429,0,0,1,.429-.429h15a.429.429,0,0,1,.429.429v2.45h2.632v-2.45a.429.429,0,0,1,.429-.429h15a.429.429,0,0,1,.429.429v2.45h7.315a.429.429,0,0,1,.429.429V72.389h20.145V69.577l-.642-.022-.05,0a5.113,5.113,0,0,1-3.353-2.327l-.016-.027L163.9,65.97a.429.429,0,0,1-.048-.237l.361-4.235a.429.429,0,0,1,.091-.23l3.223-4.071a.429.429,0,0,1,.225-.148c.38-.1,1.011-.264,1.2-.3a4.2,4.2,0,0,1,3.282.956,3.02,3.02,0,0,1,1.153,2.32,2.265,2.265,0,0,0,.418,1.147c.081.14.165.286.243.442.592,1.18.462,2.669-.448,5.138-.431,1.373-2.263,2.594-4.129,2.806v2.827H175.1a.429.429,0,1,1,0,.858h-5.934A.429.429,0,0,1,169.035,73.266Zm-27.706-.877H147.6v-29.1H56.158v29.1h6.273V52.831a.429.429,0,0,1,.429-.429H140.9a.429.429,0,0,1,.429.429Zm-15.818,0h14.96V53.26h-14.96Zm-15.467,0h14.609V53.26H110.044Zm-15.469,0h14.611V53.26H94.575Zm-15.467,0H93.717V53.26H79.108Zm-15.819,0H78.25V53.26H63.289ZM168.02,68.7l.586.02V67.441a.429.429,0,0,1,.858,0V68.7a4.11,4.11,0,0,0,3.313-2.207l.007-.022c.822-2.228.964-3.522.49-4.466-.067-.134-.142-.262-.22-.4a3,3,0,0,1-.532-1.579,2.18,2.18,0,0,0-.848-1.661,3.36,3.36,0,0,0-2.582-.767c-.106.018-.538.126-.984.243L165.053,61.7l-.339,3.981.583,1.1A4.23,4.23,0,0,0,168.02,68.7Zm-42.3-26.264h14.142V40.413H125.717Zm-18.49,0h14.142V40.413H107.227Zm-40.019,0H93.077V40.95H67.208ZM59.88,40.092h40.526V29.784H59.88ZM72.91,72.148a.429.429,0,0,1-.429-.429V65.776a.429.429,0,1,1,.858,0v5.943A.429.429,0,0,1,72.91,72.148Zm-24.516,0a.429.429,0,0,1-.429-.429V65.776a.429.429,0,1,1,.858,0v5.943A.429.429,0,0,1,48.394,72.148Zm1.492,0h-.012a.429.429,0,0,1-.417-.44l.141-5.223a.429.429,0,0,1,.383-.415l.443-.048L50.7,63.43,50.573,60.5a.382.382,0,0,0-.116-.089,5.517,5.517,0,0,0-4.129,0,.386.386,0,0,0-.113.087l-.126,2.931.276,2.588.443.048a.429.429,0,0,1,.383.415l.14,5.223a.429.429,0,1,1-.858.023l-.13-4.848-.245-.027a.429.429,0,0,1-.26-.126l-.187-.19a.429.429,0,0,1-.121-.255l-.3-2.792a.427.427,0,0,1,0-.064l.13-3.02s0-.01,0-.014a1.041,1.041,0,0,1,.7-.794,6.3,6.3,0,0,1,4.667,0,1.046,1.046,0,0,1,.7.792q0,.008,0,.017l.13,3.02a.432.432,0,0,1,0,.064l-.3,2.792a.429.429,0,0,1-.122.256l-.188.19a.429.429,0,0,1-.259.125l-.245.027-.131,4.849A.429.429,0,0,1,49.886,72.145Zm24.517,0h-.012a.429.429,0,0,1-.417-.44l.14-5.223a.429.429,0,0,1,.383-.415l.443-.048.276-2.588L75.089,60.5a.385.385,0,0,0-.116-.089,5.462,5.462,0,0,0-4.129,0,.389.389,0,0,0-.112.087l-.126,2.931.275,2.588.443.048a.429.429,0,0,1,.383.415l.14,5.223a.429.429,0,1,1-.858.023l-.13-4.848-.244-.027a.429.429,0,0,1-.259-.125l-.188-.19a.429.429,0,0,1-.122-.256l-.3-2.792a.429.429,0,0,1,0-.064l.13-3.02s0-.01,0-.014a1.042,1.042,0,0,1,.7-.794,6.309,6.309,0,0,1,4.668,0,1.043,1.043,0,0,1,.7.795s0,.01,0,.014l.131,3.02a.426.426,0,0,1,0,.064l-.3,2.792a.429.429,0,0,1-.122.256l-.188.19a.429.429,0,0,1-.259.125l-.245.027-.13,4.848A.429.429,0,0,1,74.4,72.145Zm-34.952-1a.429.429,0,0,1-.054-.855l1.175-.15a1.333,1.333,0,0,0,.738-.382,10.5,10.5,0,0,0,.6-2.872l.023-.189c.022-.184,0-.207-.076-.3a1.089,1.089,0,0,1-.278-.841,27.218,27.218,0,0,0-.857-6.7l0-.006c-.3-1.2-.395-1.565-1.795-1.678.276,1.111.788,3.237.883,3.841a.819.819,0,0,1-.167.688,1.038,1.038,0,0,1-.83.309l-30.9.355a7.54,7.54,0,0,0-1.516.9,1.775,1.775,0,0,0-.519.914,12.538,12.538,0,0,0-.2,2.12c-.012.291-.024.566-.04.8a.429.429,0,0,1-.078.218l-.181.256a.7.7,0,0,0-.04.339L5.6,69.631v.008a.5.5,0,0,0,.445.429l1.857.221a.429.429,0,1,1-.1.852l-1.871-.223-.024,0a1.368,1.368,0,0,1-1.156-1.156l-.268-1.734q0-.014,0-.029a1.486,1.486,0,0,1,.151-.857.427.427,0,0,1,.025-.04l.128-.181c.012-.2.021-.42.031-.656a12.718,12.718,0,0,1,.225-2.3,2.576,2.576,0,0,1,.8-1.359,12.412,12.412,0,0,1,2.62-1.453l.438-.2.918-.463c.4-.325,3.611-2.868,6.424-3.57l.044-.011a13.9,13.9,0,0,1,2.775-.428h.013l.489-.01c2.606-.18,5.341-.111,5.687-.1,4.473-.065,8.778-.093,13.032-.083H38.3c2.361.072,2.792.539,3.251,2.357a28.26,28.26,0,0,1,.884,6.967.266.266,0,0,0,.085.25,1.107,1.107,0,0,1,.264.953l-.023.188a9,9,0,0,1-.755,3.268L42,70.269a2.159,2.159,0,0,1-1.321.724l-1.175.15A.434.434,0,0,1,39.451,71.147ZM16.429,57.75a8.506,8.506,0,0,0-1.624.605A23.9,23.9,0,0,0,12.492,59.8a25.458,25.458,0,0,1-2.724,1.681l29.038-.333a.831.831,0,0,0,.154-.012c-.1-.607-.666-2.965-.927-4l-12.765.082h-.025c-1.838.027-3.7.06-5.607.1a19.6,19.6,0,0,0-3.187.426Zm17.187,13.4H13.693a.429.429,0,0,1,0-.858H33.616a.429.429,0,0,1,0,.858ZM72.91,58.924a1.711,1.711,0,0,1-.246-.019l-.039-.008a1.678,1.678,0,0,1-1.061-.784,3.732,3.732,0,0,1-.241-1.589,1.618,1.618,0,0,1,3.174,0h0a3.816,3.816,0,0,1-.24,1.589A1.678,1.678,0,0,1,73.2,58.9l-.039.007A1.711,1.711,0,0,1,72.91,58.924Zm-.1-.866a.689.689,0,0,0,.208,0,.829.829,0,0,0,.486-.348,3.221,3.221,0,0,0,.142-1.11h0c-.043-.481-.572-.518-.733-.518s-.688.037-.732.519a3.2,3.2,0,0,0,.143,1.109A.829.829,0,0,0,72.807,58.058Zm-24.413.866a1.711,1.711,0,0,1-.246-.019l-.039-.008a1.678,1.678,0,0,1-1.061-.784,3.732,3.732,0,0,1-.241-1.589,1.619,1.619,0,0,1,3.175,0v0a3.732,3.732,0,0,1-.241,1.59,1.677,1.677,0,0,1-1.06.783l-.04.008A1.725,1.725,0,0,1,48.394,58.924Zm-.1-.866a.7.7,0,0,0,.209,0,.829.829,0,0,0,.485-.348,3.2,3.2,0,0,0,.144-1.109c-.045-.482-.572-.519-.733-.519s-.689.037-.733.519A3.2,3.2,0,0,0,47.8,57.71.829.829,0,0,0,48.29,58.058Z" fill="#333"/><path d="M74.912,13.113,58.278,29.9s-7.584,7.635-7.13,8.14,12.185-7.634,16.736-7.382A52.7,52.7,0,0,1,84.695,34.7c7.053,2.781,11.5,4.854,12.11,4.045s-6.371-6.067-6.371-6.067,19.314,3.337,20.375,2.68S89.928,18.523,89.018,18.624s-5.764,4.5-5.764,4.5-7.965-10.392-8.342-10.011" fill="#fff"/><path d="M74.94,12.766h0c.249,0,.558,0,4.658,5.137,1.586,1.987,3.138,4,3.7,4.727.434-.388,1.332-1.183,2.279-1.977,2.733-2.29,3.2-2.342,3.4-2.365l.046,0c.164,0,.469,0,3.957,2.426,2.061,1.434,4.741,3.378,7.351,5.335,2.825,2.117,5.4,4.121,7.253,5.643,3.382,2.779,3.516,3.251,3.574,3.453a.427.427,0,0,1-.176.5,1.628,1.628,0,0,1-.876.136c-3.074,0-14.458-1.877-18.4-2.543.651.51,1.515,1.2,2.355,1.914a28.451,28.451,0,0,1,2.246,2.074c.593.632,1.1,1.279.764,1.722a.931.931,0,0,1-.791.312c-1.177,0-3.771-1.049-7.7-2.637-1.2-.486-2.562-1.036-4.014-1.609a53.047,53.047,0,0,0-16.706-4.022c-.062,0-.128-.006-.194-.005-2.976,0-8.814,3.318-12.678,5.514-2.472,1.4-3.372,1.9-3.774,1.9a.416.416,0,0,1-.322-.134c-.271-.3-.067-.734.913-1.924.577-.7,1.413-1.64,2.486-2.79,1.822-1.953,3.724-3.869,3.743-3.888L74.673,12.876A.373.373,0,0,1,74.94,12.766Zm8.314,10.7h-.03a.337.337,0,0,1-.237-.131c-.018-.024-1.844-2.4-3.762-4.813a51.006,51.006,0,0,0-4.243-4.994L58.517,30.136c-.018.018-1.747,1.76-3.481,3.609a43.232,43.232,0,0,0-3.291,3.773c.663-.322,1.8-.969,2.914-1.6,3.925-2.231,9.857-5.6,13.011-5.6.079,0,.157,0,.232.006a53.693,53.693,0,0,1,16.916,4.068c1.454.573,2.817,1.125,4.02,1.611,3.715,1.5,6.4,2.588,7.445,2.588a.739.739,0,0,0,.205-.023c-.08-.2-.533-.945-3.1-3.1-1.567-1.315-3.143-2.5-3.159-2.516a.337.337,0,0,1,.26-.6c.16.028,16.02,2.761,19.62,2.761.1,0,.183,0,.25-.006a26.455,26.455,0,0,0-3.181-2.876c-1.814-1.491-4.338-3.457-7.109-5.536-5.853-4.392-10.382-7.5-11.049-7.726a13.221,13.221,0,0,0-3.014,2.207c-1.306,1.095-2.515,2.19-2.527,2.2A.337.337,0,0,1,83.254,23.461Z" fill="#333"/><path d="M80.428,33.116c-.038-.084-.061-.141-.065-.156.027.008.16.061.065.156" fill="#b1953a"/><path d="M90.327,32.96c0,.015-.027.072-.065.156-.1-.1.038-.148.065-.156" fill="#b1953a"/><path d="M100.035,15.42a2.2,2.2,0,0,1-2.949.521c-1.251-.93-.757-1.082-.53-.881s1.147.881,1.943.322a1.186,1.186,0,0,0-.73-2.106c-1.261-.189-1.582-.246-4.076.674a14.514,14.514,0,0,1-6.987,1.005,4.575,4.575,0,0,1-1.69-.38.568.568,0,0,0,.028-.068c-.011,0-.07.027-.028.068a3.658,3.658,0,0,1-.84,1.277,10.051,10.051,0,0,0,3.931.749c2.338,0,6.395.215,7.508,2.035s.607,3.463-.2,3.907-2.388.593-2.9-.177-.733-1.512-.587-1.631.259,1,1.023,1.187,1.53.247,1.669-.972-1.9-2.074-2.712-2.2-3.179-.393-4.126-.607-3.743-1.137-4.33-1.909l-.243.05A9.67,9.67,0,0,1,85,18.952c.468,1.277.291,5.575.632,6.27s1.347,1.471,1.314,1.568a3.538,3.538,0,0,1-2.009-.885,4.361,4.361,0,0,1-1.579-2.724c-.058-1.207.258-2.946.233-3.622a7.079,7.079,0,0,0-.706-2.963,7.055,7.055,0,0,0-.708,2.963c-.025.676.291,2.415.233,3.622a4.357,4.357,0,0,1-1.579,2.724,3.538,3.538,0,0,1-2.009.885c-.032-.1.972-.874,1.314-1.568s.164-4.993.632-6.27a9.717,9.717,0,0,1,1.791-2.667l-.012,0-.215-.045-.014,0c-.588.772-3.383,1.694-4.332,1.909s-3.317.479-4.126.607-2.851.979-2.712,2.2.905,1.156,1.669.972.878-1.308,1.024-1.187-.076.858-.588,1.631-2.091.618-2.9.177-1.315-2.087-.2-3.907,5.172-2.035,7.51-2.035a10.04,10.04,0,0,0,3.929-.749c-.011-.01-.025-.02-.036-.032-.028-.023-.055-.048-.081-.073a.424.424,0,0,1-.03-.03,2.833,2.833,0,0,1-.7-1.135,4.951,4.951,0,0,1-1.685.373,14.514,14.514,0,0,1-6.987-1.005c-2.492-.92-2.815-.863-4.076-.674a1.186,1.186,0,0,0-.73,2.106c.795.559,1.715-.124,1.943-.322s.722-.049-.53.881a2.2,2.2,0,0,1-2.949-.521c-.541-.522-.691-1.65.17-3.035s3.518-1.791,6.21-.417a21.176,21.176,0,0,0,6.38,2.266,6.015,6.015,0,0,0,2.122-.19v-.01a3.544,3.544,0,0,1-.043-.551.282.282,0,0,1,0-.041l0-.013a10.748,10.748,0,0,1-4.448-1.262,15.721,15.721,0,0,1-3.65-2.957,6.718,6.718,0,0,0-2.914-1.852c-.566-.17-1.207.117-1.365.055s-.072-.146-.072-.146a2.383,2.383,0,0,1,1.829-.882c2.067,0,5.621,3.11,7.139,4.721A6.435,6.435,0,0,0,80.6,12.972a3.325,3.325,0,0,1,.233-.833c.019-.041.037-.083.057-.124-.913-.116-3.05-2.332-3.827-3.45a24.428,24.428,0,0,1-1.849-3.934c-.3-.711-1.128-1.811-2.132-1.45s-.74,2.407-1.46,2.674-1.27-1.006-1.252-1.12.143-.066.143-.066c1.043.635,1.478-1.052,1.991-1.905a1.743,1.743,0,0,1,1.422-.844c1.991-.058,2.939,1.687,4.247,5.175s3.021,4.426,3.021,4.426l0,0a2.161,2.161,0,0,1,1.082-.776.03.03,0,0,1,.015-.005,6.2,6.2,0,0,1-2.162-4.069c-.089-.936.1-3.615-.316-4.791S78.4.472,78.652.344A5.648,5.648,0,0,1,81.877,3.2a8.326,8.326,0,0,1,.036,4.222,4.88,4.88,0,0,0,.884,3.24c.056,0,.112,0,.167.008v-.008a4.888,4.888,0,0,0,.883-3.24A8.326,8.326,0,0,1,83.883,3.2,5.653,5.653,0,0,1,87.108.344c.253.128-.746.356-1.163,1.532s-.228,3.855-.317,4.791a6.2,6.2,0,0,1-2.162,4.069,2.681,2.681,0,0,1,1.1.785s1.713-.936,3.021-4.426,2.258-5.233,4.247-5.175a1.744,1.744,0,0,1,1.422.844c.513.853.948,2.54,1.991,1.905,0,0,.124-.048.143.066s-.531,1.384-1.252,1.12-.455-2.314-1.459-2.674-1.831.739-2.133,1.45A24.514,24.514,0,0,1,88.7,8.565c-.777,1.118-2.914,3.334-3.827,3.45a2.864,2.864,0,0,1,.29.957,6.438,6.438,0,0,0,3.517-1.866c1.518-1.611,5.072-4.721,7.139-4.721a2.383,2.383,0,0,1,1.829.882s.086.081-.072.146-.8-.225-1.365-.055A6.718,6.718,0,0,0,93.294,9.21a15.739,15.739,0,0,1-3.649,2.957A10.757,10.757,0,0,1,85.2,13.429l-.045.615a6.015,6.015,0,0,0,2.122.19,21.176,21.176,0,0,0,6.38-2.266c2.692-1.374,5.346-.967,6.21.417s.711,2.513.17,3.035" fill="#cca34b"/><path d="M86.887,27.142a4.18,4.18,0,0,1-2.193-1l-.04-.041a4.557,4.557,0,0,1-1.636-2.9,16.742,16.742,0,0,1,.139-2.381,11.528,11.528,0,0,0,.094-1.244,8.109,8.109,0,0,0-.37-2.157,8.082,8.082,0,0,0-.371,2.158,11.534,11.534,0,0,0,.094,1.244,16.741,16.741,0,0,1,.139,2.382,4.559,4.559,0,0,1-1.64,2.908l-.036.037a4.181,4.181,0,0,1-2.193,1A.367.367,0,0,1,78.5,26.9c-.077-.235.071-.381.4-.7a5.082,5.082,0,0,0,.937-1.121,13.409,13.409,0,0,0,.222-2.5,16.312,16.312,0,0,1,.4-3.735,6.853,6.853,0,0,1,.823-1.5,18.341,18.341,0,0,1-3.214,1.134c-.648.146-1.922.313-2.945.447-.5.066-.939.123-1.2.165-.753.117-2.535.9-2.43,1.828.082.715.365.775.648.775a2.771,2.771,0,0,0,.608-.092c.334-.08.508-.487.623-.756.095-.221.192-.449.458-.449a.373.373,0,0,1,.237.087c.537.441-.412,1.91-.522,2.077a1.874,1.874,0,0,1-1.637.694,3.78,3.78,0,0,1-1.705-.407,2.053,2.053,0,0,1-.919-1.3,3.917,3.917,0,0,1,.588-3.08c.891-1.458,3.515-2.2,7.8-2.2a10.415,10.415,0,0,0,3.33-.541,3.183,3.183,0,0,1-.435-.7,11.983,11.983,0,0,1-1.449.268,10.846,10.846,0,0,1-1.519.1,16.473,16.473,0,0,1-5.631-1.127A8.844,8.844,0,0,0,69.08,13.5a6.861,6.861,0,0,0-1.014.106l-.025,0a.984.984,0,0,0-.873.713.733.733,0,0,0,.287.784.815.815,0,0,0,.484.154,1.853,1.853,0,0,0,1.045-.455.632.632,0,0,1,.409-.16.427.427,0,0,1,.417.288c.109.329-.171.711-.934,1.278a2.181,2.181,0,0,1-1.315.462,3.055,3.055,0,0,1-2.069-1.011c-.585-.565-.906-1.809.118-3.455a3.674,3.674,0,0,1,3.206-1.425,7.664,7.664,0,0,1,3.444.885,20.821,20.821,0,0,0,6.256,2.23c.16.014.324.021.489.021a5.968,5.968,0,0,0,1.236-.13l0-.02a11.879,11.879,0,0,1-4.265-1.3,15.837,15.837,0,0,1-3.741-3.02,6.31,6.31,0,0,0-2.776-1.771,1.056,1.056,0,0,0-.306-.04,2.958,2.958,0,0,0-.558.071,1.865,1.865,0,0,1-.342.048.5.5,0,0,1-.185-.032l-.005,0a.45.45,0,0,1-.3-.334.41.41,0,0,1,.1-.347,2.754,2.754,0,0,1,2.047-1h.043c2.327.008,6.113,3.486,7.377,4.827a6.165,6.165,0,0,0,3.005,1.7,3.636,3.636,0,0,1,.1-.353,13.029,13.029,0,0,1-3.652-3.466A19.747,19.747,0,0,1,75.124,5.3c-.088-.218-.163-.406-.22-.539-.226-.529-.791-1.316-1.426-1.316A.834.834,0,0,0,73.2,3.5c-.375.134-.52.719-.661,1.284-.154.619-.3,1.2-.8,1.389a.912.912,0,0,1-.315.057,1.193,1.193,0,0,1-.888-.481,1.959,1.959,0,0,1-.5-1.064V4.677a.416.416,0,0,1,.419-.355.509.509,0,0,1,.178.033l.028.011.025.015a.524.524,0,0,0,.262.091c.338,0,.66-.672.919-1.212.116-.242.226-.471.345-.67a2.081,2.081,0,0,1,1.706-1.007c2.341-.065,3.366,2.189,4.568,5.394a9.146,9.146,0,0,0,2.648,4.094,2.543,2.543,0,0,1,.576-.452A6.328,6.328,0,0,1,79.8,6.7c-.03-.311-.03-.786-.03-1.336A13.029,13.029,0,0,0,79.5,1.989,2.362,2.362,0,0,0,78.6.847c-.177-.133-.345-.259-.324-.489A.389.389,0,0,1,78.5.043.427.427,0,0,1,78.694,0a4.486,4.486,0,0,1,1.784.958A4.9,4.9,0,0,1,82.2,3.1a8.208,8.208,0,0,1,.083,4.13l-.036.241a4.333,4.333,0,0,0,.633,2.7,4.36,4.36,0,0,0,.634-2.7l-.036-.24a8.208,8.208,0,0,1,.083-4.13A4.908,4.908,0,0,1,85.283.958,4.484,4.484,0,0,1,87.066,0a.426.426,0,0,1,.193.044.39.39,0,0,1,.225.315c.02.23-.147.356-.324.489a2.359,2.359,0,0,0-.9,1.142,13.006,13.006,0,0,0-.269,3.376c0,.549,0,1.024-.03,1.334a6.338,6.338,0,0,1-1.931,3.937,3.1,3.1,0,0,1,.582.442,9.12,9.12,0,0,0,2.657-4.1c1.2-3.206,2.229-5.46,4.57-5.394a2.085,2.085,0,0,1,1.7,1.008c.119.2.229.427.345.669.259.54.581,1.212.919,1.212a.524.524,0,0,0,.262-.091l.026-.016.028-.011a.511.511,0,0,1,.177-.033.415.415,0,0,1,.42.358c.009.051.029.164-.131.5a2.74,2.74,0,0,1-.354.555,1.2,1.2,0,0,1-.9.5.91.91,0,0,1-.314-.057c-.5-.185-.643-.77-.8-1.39-.14-.565-.285-1.149-.66-1.284a.836.836,0,0,0-.283-.051c-.636,0-1.2.787-1.426,1.316-.057.133-.132.321-.22.539a19.828,19.828,0,0,1-1.663,3.456,13.052,13.052,0,0,1-3.648,3.465,3.426,3.426,0,0,1,.115.351,6.166,6.166,0,0,0,2.991-1.7c1.264-1.341,5.05-4.819,7.377-4.827h.043a2.754,2.754,0,0,1,2.047,1,.41.41,0,0,1,.1.347.45.45,0,0,1-.3.334l-.005,0a.5.5,0,0,1-.185.032,1.865,1.865,0,0,1-.342-.048,2.957,2.957,0,0,0-.558-.071,1.056,1.056,0,0,0-.306.04,6.31,6.31,0,0,0-2.776,1.771,15.853,15.853,0,0,1-3.741,3.02,11.86,11.86,0,0,1-4.277,1.3v.018a5.965,5.965,0,0,0,1.247.132c.164,0,.329-.007.489-.021a20.82,20.82,0,0,0,6.256-2.23,7.665,7.665,0,0,1,3.444-.885,3.674,3.674,0,0,1,3.206,1.424c1.024,1.647.7,2.891.118,3.456A3.06,3.06,0,0,1,98.2,16.674a2.181,2.181,0,0,1-1.314-.462c-.763-.567-1.042-.95-.934-1.278a.427.427,0,0,1,.417-.288.632.632,0,0,1,.411.163,1.851,1.851,0,0,0,1.042.453.817.817,0,0,0,.484-.154.733.733,0,0,0,.287-.784.984.984,0,0,0-.874-.713l-.025,0a6.855,6.855,0,0,0-1.013-.106,8.859,8.859,0,0,0-2.871.767,16.475,16.475,0,0,1-5.631,1.127,10.846,10.846,0,0,1-1.52-.1,11.494,11.494,0,0,1-1.474-.275,4.626,4.626,0,0,1-.423.7,10.42,10.42,0,0,0,3.345.545c4.282,0,6.9.739,7.8,2.2a3.917,3.917,0,0,1,.589,3.082,2.05,2.05,0,0,1-.918,1.3,3.78,3.78,0,0,1-1.706.407,1.874,1.874,0,0,1-1.637-.693c-.11-.167-1.061-1.638-.519-2.079a.37.37,0,0,1,.235-.085c.265,0,.363.228.457.449.115.27.29.677.622.756a2.773,2.773,0,0,0,.608.092c.283,0,.566-.06.648-.775.106-.927-1.677-1.712-2.429-1.828-.265-.042-.7-.1-1.2-.165-1.023-.134-2.3-.3-2.945-.447a18.342,18.342,0,0,1-3.214-1.134,6.816,6.816,0,0,1,.822,1.5,16.316,16.316,0,0,1,.4,3.734,13.392,13.392,0,0,0,.222,2.5,5.077,5.077,0,0,0,.935,1.119c.327.322.476.469.4.706A.367.367,0,0,1,86.887,27.142Zm-3.389-10a8.749,8.749,0,0,1,.426,2.405,11.444,11.444,0,0,1-.1,1.34,16.285,16.285,0,0,0-.136,2.279,3.965,3.965,0,0,0,1.442,2.463l.04.04a2.569,2.569,0,0,0,.7.466,3.61,3.61,0,0,1-.546-.763,10.194,10.194,0,0,1-.291-2.772,16.7,16.7,0,0,0-.355-3.531A7.554,7.554,0,0,0,83.5,17.141Zm-1.234,0a7.6,7.6,0,0,0-1.184,1.928,16.7,16.7,0,0,0-.355,3.531,10.2,10.2,0,0,1-.291,2.771,3.614,3.614,0,0,1-.546.764,2.57,2.57,0,0,0,.7-.466l.036-.037a3.967,3.967,0,0,0,1.446-2.466,16.284,16.284,0,0,0-.136-2.279,11.447,11.447,0,0,1-.1-1.339A8.722,8.722,0,0,1,82.264,17.14Zm10.577,5.1a1.376,1.376,0,0,0,1.027.329,3.113,3.113,0,0,0,1.383-.325,1.4,1.4,0,0,0,.59-.879,3.372,3.372,0,0,0-.513-2.557c-.523-.855-2.2-1.874-7.22-1.874a10.316,10.316,0,0,1-4.074-.781L83.689,16l.027.036c.484.636,3.11,1.552,4.136,1.784.617.139,1.874.3,2.883.436.509.066.948.124,1.221.167.95.147,3.162,1.095,2.994,2.57-.129,1.134-.788,1.373-1.317,1.373a3.38,3.38,0,0,1-.766-.111ZM82.074,15.994l-.347.163a10.305,10.305,0,0,1-4.073.781c-5.022,0-6.7,1.019-7.223,1.874a3.371,3.371,0,0,0-.512,2.555,1.408,1.408,0,0,0,.591.881,3.112,3.112,0,0,0,1.382.324,1.377,1.377,0,0,0,1.026-.329l-.028.007a3.378,3.378,0,0,1-.765.111c-.53,0-1.188-.238-1.317-1.372-.168-1.475,2.044-2.423,3-2.57.272-.043.711-.1,1.22-.167,1.009-.132,2.266-.3,2.883-.436,1.026-.232,3.653-1.148,4.138-1.784Zm15.709-.06A1.345,1.345,0,0,0,98.2,16a2.432,2.432,0,0,0,1.6-.823c.436-.421.537-1.393-.222-2.614a3.027,3.027,0,0,0-2.633-1.106,6.99,6.99,0,0,0-3.137.812,21.161,21.161,0,0,1-6.5,2.3c-.179.016-.363.024-.547.024q-.114,0-.224,0l.22.032a10.17,10.17,0,0,0,1.425.1,15.81,15.81,0,0,0,5.4-1.085,9.158,9.158,0,0,1,3.1-.809,7.42,7.42,0,0,1,1.113.114l.025,0a1.656,1.656,0,0,1,1.429,1.225,1.413,1.413,0,0,1-.555,1.49,1.49,1.49,0,0,1-.872.277ZM68.815,11.456a3.027,3.027,0,0,0-2.634,1.107c-.759,1.221-.658,2.193-.222,2.614a2.427,2.427,0,0,0,1.6.822,1.346,1.346,0,0,0,.417-.066h-.039a1.488,1.488,0,0,1-.871-.277,1.413,1.413,0,0,1-.555-1.49,1.656,1.656,0,0,1,1.429-1.225l.025,0a7.426,7.426,0,0,1,1.114-.114,9.144,9.144,0,0,1,3.1.809,15.809,15.809,0,0,0,5.4,1.085,10.172,10.172,0,0,0,1.425-.1l.22-.032q-.109,0-.224,0c-.184,0-.368-.008-.547-.024a21.161,21.161,0,0,1-6.5-2.3A6.99,6.99,0,0,0,68.815,11.456Zm14.067,4.472.041.071.665-.137.007.009.377-.287a2.876,2.876,0,0,0,.645-.943l0,0,.051-.107a.363.363,0,0,1,.011-.074.369.369,0,0,1,.123-.193l.067-.914-.065.008.022-.4a2.436,2.436,0,0,0-.257-.791l-.131-.27-.129-.156a2.375,2.375,0,0,0-.946-.68l-.06-.02v0l-.243-.022.055.054h-.767a1.831,1.831,0,0,0-.882.649l-.154.2-.117.239c-.011.023-.021.046-.032.069l-.02.045a2.982,2.982,0,0,0-.207.744l-.044.305.018.116-.006.041a3.219,3.219,0,0,0,.039.5l0,.026v.127l.114.339a2.5,2.5,0,0,0,.613,1l.018.018.013.013c.025.024.043.04.06.054l.026.023.023.02.332.3.033-.043.435.092.234.039Zm12.97-9.207h-.035c-1.854,0-5.212,2.831-6.894,4.615a6.635,6.635,0,0,1-2.5,1.643A14.774,14.774,0,0,0,89.5,11.862a15.452,15.452,0,0,0,3.558-2.894,7.086,7.086,0,0,1,3.052-1.933,1.741,1.741,0,0,1,.5-.069c.054,0,.108,0,.161.006A2.006,2.006,0,0,0,95.851,6.721Zm-26.7.245a1.741,1.741,0,0,1,.5.069A7.086,7.086,0,0,1,72.7,8.968a15.437,15.437,0,0,0,3.558,2.894,14.739,14.739,0,0,0,3.081,1.117,6.63,6.63,0,0,1-2.5-1.642C75.156,9.553,71.8,6.722,69.944,6.722h-.035a2.006,2.006,0,0,0-.921.251C69.041,6.968,69.094,6.966,69.149,6.966Zm22.59-4.711c-1.692,0-2.551,1.529-3.836,4.958a9.615,9.615,0,0,1-2.9,4.42,12.258,12.258,0,0,0,3.42-3.261A19.38,19.38,0,0,0,90.011,5.05c.089-.221.166-.412.225-.552.272-.64,1.009-1.725,2.046-1.725a1.508,1.508,0,0,1,.511.091,1.171,1.171,0,0,1,.179.081l0-.008a1.4,1.4,0,0,0-1.132-.681h-.1Zm-18.261.518c1.034,0,1.773,1.085,2.046,1.726.06.139.137.331.226.553a19.3,19.3,0,0,0,1.59,3.321,12.258,12.258,0,0,0,3.42,3.261,9.615,9.615,0,0,1-2.9-4.42c-1.307-3.485-2.172-5.008-3.922-4.956h-.013a1.4,1.4,0,0,0-1.129.68l-.005.009a1.171,1.171,0,0,1,.181-.082A1.5,1.5,0,0,1,73.478,2.773ZM85.765,1.437A4.324,4.324,0,0,0,84.2,3.3a7.593,7.593,0,0,0-.06,3.832l.036.241a4.673,4.673,0,0,1-.415,2.553,5.463,5.463,0,0,0,1.528-3.292c.027-.279.027-.739.027-1.271a13.019,13.019,0,0,1,.308-3.6A2.96,2.96,0,0,1,85.765,1.437Zm-5.77,0a2.962,2.962,0,0,1,.138.326,13.04,13.04,0,0,1,.307,3.6c0,.533,0,.993.027,1.273A5.465,5.465,0,0,0,82,9.927a4.664,4.664,0,0,1-.416-2.553l.036-.241a7.594,7.594,0,0,0-.06-3.832A4.314,4.314,0,0,0,80,1.437ZM93.875,4.6l0,.016c.09.363.213.859.376.92a.234.234,0,0,0,.081.015c.168,0,.357-.2.5-.409H94.81A1.18,1.18,0,0,1,93.875,4.6Zm-22.949.541c.143.211.33.409.5.409a.236.236,0,0,0,.082-.015c.162-.06.285-.556.375-.919l0-.016a1.18,1.18,0,0,1-.935.542Z" fill="#333"/><path d="M36.534,65.5a3.271,3.271,0,1,0,3.271,3.271A3.27,3.27,0,0,0,36.534,65.5" fill="#fff" fill-rule="evenodd"/><path d="M3.271-.429a3.7,3.7,0,1,1-3.7,3.7A3.7,3.7,0,0,1,3.271-.429Zm0,6.542A2.842,2.842,0,1,0,.429,3.271,2.845,2.845,0,0,0,3.271,6.113Z" transform="translate(33.263 65.503)" fill="#333"/><path d="M10.773,65.5a3.271,3.271,0,1,0,3.271,3.271A3.27,3.27,0,0,0,10.773,65.5" fill="#fff" fill-rule="evenodd"/><path d="M3.271-.429a3.7,3.7,0,1,1-3.7,3.7A3.7,3.7,0,0,1,3.271-.429Zm0,6.542A2.842,2.842,0,1,0,.429,3.271,2.845,2.845,0,0,0,3.271,6.113Z" transform="translate(7.502 65.503)" fill="#333"/><path d="M157.528,67.6c-2.645-.432-4.748-1.858-5.271-3.819-1.277-3.865-1.266-5.957-.309-7.549.162-.269.332-.516.495-.756a3.945,3.945,0,0,0,.868-2.042c.085-1.468,1.32-2.628,2.381-3.4,3.894-2.835,9.168-.646,11,3.746.85,2.04-.347,3.6.411,4.483.878,1.018.633,3.221.349,4.414-.687,2.886-4.974,5.08-7.954,5.1" fill="#fff" fill-rule="evenodd"/><path d="M159.5,68.111a.337.337,0,0,1,0-.674c2.937-.017,6.995-2.179,7.628-4.838.263-1.1.5-3.215-.276-4.116a2.322,2.322,0,0,1-.268-1.932,4.748,4.748,0,0,0-.2-2.641,7.863,7.863,0,0,0-5.046-4.562,6.222,6.222,0,0,0-5.445.959c-1.428,1.04-2.182,2.1-2.243,3.148a4.291,4.291,0,0,1-.926,2.212l-.044.064c-.147.216-.3.439-.441.676-.945,1.572-.846,3.678.34,7.269l.006.019c.474,1.778,2.39,3.147,5,3.573a.337.337,0,1,1-.109.665c-2.871-.469-4.992-2.022-5.54-4.055-1.253-3.795-1.332-6.06-.275-7.819.153-.253.31-.484.462-.708l.044-.064a3.592,3.592,0,0,0,.81-1.872c.073-1.26.92-2.49,2.519-3.654a6.883,6.883,0,0,1,6.024-1.063A8.542,8.542,0,0,1,167,53.65a5.38,5.38,0,0,1,.245,2.989c-.094.706-.135,1.119.11,1.4,1.151,1.335.553,4.159.422,4.712a6.58,6.58,0,0,1-3.273,3.836,10.463,10.463,0,0,1-5.007,1.52Z" fill="#333"/><line y1="9.455" transform="translate(159.381 63.362)" fill="#00b6ed"/><path d="M0,9.884a.429.429,0,0,1-.429-.429V0A.429.429,0,0,1,0-.429.429.429,0,0,1,.429,0V9.455A.429.429,0,0,1,0,9.884Z" transform="translate(159.381 63.362)" fill="#333"/><rect width="15" height="2.878" transform="translate(106.798 39.985)" fill="#fff"/><path d="M0-.337H15A.337.337,0,0,1,15.337,0V2.878A.337.337,0,0,1,15,3.215H0a.337.337,0,0,1-.337-.337V0A.337.337,0,0,1,0-.337ZM14.663.337H.337v2.2H14.663Z" transform="translate(106.798 39.985)" fill="#333"/><rect width="15" height="2.878" transform="translate(125.288 39.985)" fill="#fff"/><path d="M0-.337H15A.337.337,0,0,1,15.337,0V2.878A.337.337,0,0,1,15,3.215H0a.337.337,0,0,1-.337-.337V0A.337.337,0,0,1,0-.337ZM14.663.337H.337v2.2H14.663Z" transform="translate(125.288 39.985)" fill="#333"/></g></g></svg>