<svg xmlns="http://www.w3.org/2000/svg" xmlns:xlink="http://www.w3.org/1999/xlink" width="148.667" height="140.48" viewBox="0 0 148.667 140.48"><defs><linearGradient id="a" x1="1.505" y1="-1.237" x2="-0.916" y2="2.948" gradientUnits="objectBoundingBox"><stop offset="0" stop-color="#1cabe0"/><stop offset="1" stop-color="#107aa3"/></linearGradient><linearGradient id="b" x1="1.53" y1="-1.279" x2="-2.31" y2="5.356" xlink:href="#a"/><linearGradient id="c" x1="1.158" y1="-0.638" x2="-5.006" y2="10.014" xlink:href="#a"/><linearGradient id="d" x1="1.947" y1="-2" x2="-2.59" y2="5.838" xlink:href="#a"/><linearGradient id="e" x1="3.423" y1="-4.55" x2="-1.114" y2="3.289" xlink:href="#a"/><linearGradient id="f" x1="3.67" y1="-4.977" x2="-2.271" y2="5.289" xlink:href="#a"/><linearGradient id="g" x1="3.928" y1="-5.423" x2="-1.736" y2="4.364" xlink:href="#a"/><linearGradient id="h" x1="1.061" y1="-10.411" x2="-1.411" y2="37.653" xlink:href="#a"/><linearGradient id="i" x1="10.546" y1="-1.498" x2="-17.279" y2="4.035" xlink:href="#a"/><linearGradient id="j" x1="15.303" y1="-2.035" x2="-12.52" y2="2.73" xlink:href="#a"/><linearGradient id="k" x1="3.218" y1="-26.358" x2="-1.647" y2="21.719" xlink:href="#a"/><linearGradient id="l" x1="14.262" y1="-2.158" x2="-13.553" y2="3.214" xlink:href="#a"/><linearGradient id="m" x1="9.847" y1="-1.969" x2="-17.972" y2="5.379" xlink:href="#a"/></defs><g transform="translate(1616.053 -4220.967)"><circle cx="20.978" cy="20.978" r="20.978" transform="translate(-1566.159 4267.587)" fill="#e1f7ff" stroke="#707070" stroke-miterlimit="10" stroke-width="4"/><path d="M-1545.181,4311.543a23,23,0,0,1-22.979-22.977,23.005,23.005,0,0,1,22.979-22.978,23,23,0,0,1,22.977,22.978A23,23,0,0,1-1545.181,4311.543Zm0-41.955a19,19,0,0,0-18.979,18.978,19,19,0,0,0,18.979,18.977,19,19,0,0,0,18.977-18.977A19,19,0,0,0-1545.181,4269.588Z" fill="url(#a)"/><path d="M-1571.791,4249.95a14.511,14.511,0,0,1-14.423-13.21h0a14.4,14.4,0,0,1,3.321-10.582,14.4,14.4,0,0,1,9.831-5.133,14.39,14.39,0,0,1,10.581,3.32,14.4,14.4,0,0,1,5.135,9.831,14.4,14.4,0,0,1-3.321,10.582,14.4,14.4,0,0,1-9.831,5.135C-1570.932,4249.931-1571.364,4249.95-1571.791,4249.95Zm-10.439-13.563a10.505,10.505,0,0,0,11.378,9.521,10.425,10.425,0,0,0,7.117-3.716,10.426,10.426,0,0,0,2.405-7.663,10.509,10.509,0,0,0-11.378-9.52,10.421,10.421,0,0,0-7.118,3.717,10.421,10.421,0,0,0-2.4,7.661Z" fill="url(#b)"/><path d="M-1494.159,4248a8.953,8.953,0,0,1-5.776-2.1,8.965,8.965,0,0,1-3.2-6.124,8.961,8.961,0,0,1,2.068-6.591,8.961,8.961,0,0,1,6.124-3.2,9.026,9.026,0,0,1,9.789,8.192,8.965,8.965,0,0,1-2.068,6.591,8.97,8.97,0,0,1-6.124,3.2Q-1493.753,4248-1494.159,4248Zm.026-14.054c-.151,0-.3.007-.454.021a4.993,4.993,0,0,0-3.41,1.78,4.992,4.992,0,0,0-1.152,3.671h0a5,5,0,0,0,1.78,3.41,4.975,4.975,0,0,0,3.671,1.152,4.994,4.994,0,0,0,3.41-1.781,4.992,4.992,0,0,0,1.152-3.671,5,5,0,0,0-1.781-3.41A4.99,4.99,0,0,0-1494.133,4233.944Z" fill="url(#c)"/><path d="M-1479.661,4314.076a12.283,12.283,0,0,1-12.209-11.181h0a12.182,12.182,0,0,1,2.811-8.957,12.184,12.184,0,0,1,8.321-4.345,12.178,12.178,0,0,1,8.957,2.81,12.19,12.19,0,0,1,4.346,8.322,12.279,12.279,0,0,1-11.133,13.3C-1478.934,4314.06-1479.3,4314.076-1479.661,4314.076Zm.023-20.532q-.371,0-.746.033a8.215,8.215,0,0,0-5.608,2.928,8.217,8.217,0,0,0-1.893,6.036h0a8.275,8.275,0,0,0,8.964,7.5,8.276,8.276,0,0,0,7.5-8.965,8.214,8.214,0,0,0-2.929-5.607A8.2,8.2,0,0,0-1479.638,4293.544Z" fill="url(#d)"/><path d="M-1575.931,4341.878a12.176,12.176,0,0,1-7.85-2.859,12.192,12.192,0,0,1-4.345-8.322,12.277,12.277,0,0,1,11.131-13.3,12.291,12.291,0,0,1,13.3,11.132,12.187,12.187,0,0,1-2.81,8.957,12.188,12.188,0,0,1-8.322,4.345C-1575.194,4341.862-1575.564,4341.878-1575.931,4341.878Zm.026-20.531q-.366,0-.736.032a8.276,8.276,0,0,0-7.5,8.965,8.207,8.207,0,0,0,2.929,5.607,8.183,8.183,0,0,0,6.036,1.894,8.215,8.215,0,0,0,5.606-2.928,8.213,8.213,0,0,0,1.9-6.036A8.278,8.278,0,0,0-1575.905,4321.347Z" fill="url(#e)"/><path d="M-1606.7,4292.746a9.3,9.3,0,0,1-5.993-2.183,9.31,9.31,0,0,1-3.318-6.354h0a9.377,9.377,0,0,1,8.5-10.157,9.29,9.29,0,0,1,6.839,2.146,9.3,9.3,0,0,1,3.318,6.354,9.3,9.3,0,0,1-2.146,6.839,9.31,9.31,0,0,1-6.354,3.318Q-1606.282,4292.746-1606.7,4292.746Zm-5.327-8.89a5.331,5.331,0,0,0,1.9,3.639,5.29,5.29,0,0,0,3.918,1.23,5.331,5.331,0,0,0,3.639-1.9,5.327,5.327,0,0,0,1.23-3.918,5.369,5.369,0,0,0-5.82-4.869,5.373,5.373,0,0,0-4.869,5.82Z" fill="url(#f)"/><path d="M-1520.561,4361.447a9.84,9.84,0,0,1-9.78-8.956h0a9.837,9.837,0,0,1,8.917-10.655,9.787,9.787,0,0,1,7.175,2.251,9.761,9.761,0,0,1,3.48,6.666,9.834,9.834,0,0,1-8.917,10.655C-1519.979,4361.435-1520.272,4361.447-1520.561,4361.447Zm-5.8-9.309a5.83,5.83,0,0,0,6.318,5.286,5.83,5.83,0,0,0,5.286-6.317,5.785,5.785,0,0,0-2.064-3.952,5.8,5.8,0,0,0-4.254-1.335,5.834,5.834,0,0,0-5.286,6.318Z" fill="url(#g)"/><rect width="45.015" height="4.001" transform="translate(-1531.199 4272.907) rotate(-44.98)" fill="url(#h)"/><rect width="4" height="34.755" transform="translate(-1524.531 4295.876) rotate(-80.565)" fill="url(#i)"/><rect width="4" height="40.353" transform="translate(-1538.903 4308.525) rotate(-18.498)" fill="url(#j)"/><rect width="22.877" height="4" transform="translate(-1573.463 4322.144) rotate(-57.179)" fill="url(#k)"/><rect width="4.001" height="35.797" transform="matrix(0.11, -0.994, 0.994, 0.11, -1601.959, 4286.606)" fill="url(#l)"/><rect width="4" height="26.172" transform="matrix(0.933, -0.36, 0.36, 0.933, -1568.026, 4247.363)" fill="url(#m)"/></g></svg>