<svg xmlns="http://www.w3.org/2000/svg" xmlns:xlink="http://www.w3.org/1999/xlink" width="136.68" height="129.681" viewBox="0 0 136.68 129.681"><defs><linearGradient id="a" x1="1.203" y1="-0.206" x2="-0.358" y2="1.311" gradientUnits="objectBoundingBox"><stop offset="0" stop-color="#9b8fc4"/><stop offset="1" stop-color="#251d41"/></linearGradient><linearGradient id="b" x1="2.145" y1="-1.05" x2="-2.718" y2="3.531" xlink:href="#a"/><linearGradient id="c" x1="1.853" y1="-1.637" x2="-0.83" y2="3.056" xlink:href="#a"/><linearGradient id="d" x1="2.494" y1="-2.821" x2="-0.189" y2="1.872" xlink:href="#a"/><linearGradient id="e" x1="3.346" y1="-2.181" x2="-1.517" y2="2.4" xlink:href="#a"/><linearGradient id="f" x1="3.038" y1="-1.891" x2="-1.825" y2="2.69" xlink:href="#a"/><linearGradient id="g" x1="2.346" y1="-2.497" x2="-0.337" y2="2.194" xlink:href="#a"/></defs><g transform="translate(1837.579 -3774.628)"><g opacity="0.2"><path d="M-1735.129,3843.949a12.176,12.176,0,0,1-3.56-8.58v-8.65a12.1,12.1,0,0,1,1.98-6.62,23.684,23.684,0,0,0-14.04-4.64,23.564,23.564,0,0,0-10.23,2.34,23.5,23.5,0,0,0-8.2,6.55,23.635,23.635,0,0,0-18.44-8.89,23.574,23.574,0,0,0-14.11,4.71,12.137,12.137,0,0,1,1.94,6.55v8.65a12.187,12.187,0,0,1-11.47,12.13v5.92a23.708,23.708,0,0,1,22.97,23.62v2.83a23.557,23.557,0,0,1,2.3-2.68,23.644,23.644,0,0,1,16.7-6.95,23.63,23.63,0,0,1,19.1,9.77v-2.97a23.677,23.677,0,0,1,6.94-16.7,23.64,23.64,0,0,1,16.14-6.93v-5.91A12.117,12.117,0,0,1-1735.129,3843.949Zm-22.02,8.27a12.18,12.18,0,0,1-12.14,12.15,12.143,12.143,0,0,1-8.58-3.57,12.143,12.143,0,0,1-3.57-8.58v-8.65a12.187,12.187,0,0,1,12.15-12.14,12.172,12.172,0,0,1,12.14,12.14Zm6.4-75.59a12.181,12.181,0,0,0-12.14,12.15v8.65a12.134,12.134,0,0,0,3.56,8.57,12.143,12.143,0,0,0,8.58,3.57,12.181,12.181,0,0,0,12.15-12.14v-8.65A12.189,12.189,0,0,0-1750.749,3776.629Zm-36.88,0a12.181,12.181,0,0,0-12.14,12.15v8.65a12.134,12.134,0,0,0,3.56,8.57,12.143,12.143,0,0,0,8.58,3.57,12.181,12.181,0,0,0,12.15-12.14v-8.65A12.189,12.189,0,0,0-1787.629,3776.629Z" fill="#9b8fc4" fill-rule="evenodd"/></g><path d="M-1748.189,3886.169l-3.619-4.985a21.744,21.744,0,0,0-17.486-8.945,21.58,21.58,0,0,0-15.281,6.364,21.69,21.69,0,0,0-2.105,2.453l-3.609,4.893v-8.91a21.614,21.614,0,0,0-21.031-21.621l-1.939-.059v-9.748l1.885-.109a10.2,10.2,0,0,0,9.585-10.139v-8.645a10.139,10.139,0,0,0-1.62-5.464l-1.012-1.565,1.49-1.119a25.458,25.458,0,0,1,15.3-5.111,25.5,25.5,0,0,1,18.447,7.856,25.7,25.7,0,0,1,7.331-5.317,25.688,25.688,0,0,1,11.1-2.539,25.574,25.574,0,0,1,15.229,5.033l1.522,1.126-1.04,1.581a10.1,10.1,0,0,0-1.651,5.528v8.642a10.154,10.154,0,0,0,2.977,7.169,10.146,10.146,0,0,0,6.7,2.963l1.905.09v9.768l-1.95.049a21.627,21.627,0,0,0-14.778,6.347,21.612,21.612,0,0,0-6.352,15.289Zm-21.106-17.93a25.776,25.776,0,0,1,17.2,6.669,25.58,25.58,0,0,1,7.432-15.982,25.616,25.616,0,0,1,15.556-7.393v-2.257a14.128,14.128,0,0,1-7.434-3.913l0,0a14.127,14.127,0,0,1-4.143-9.984v-8.658a14.172,14.172,0,0,1,1.343-6,21.622,21.622,0,0,0-11.411-3.263,21.661,21.661,0,0,0-9.353,2.141,21.632,21.632,0,0,0-7.5,5.992l-1.562,1.969-1.567-1.964a21.537,21.537,0,0,0-16.881-8.138,21.491,21.491,0,0,0-11.486,3.329,14.176,14.176,0,0,1,1.319,5.922v8.659a14.213,14.213,0,0,1-11.47,13.89v2.292a25.576,25.576,0,0,1,22.87,23.262A25.543,25.543,0,0,1-1769.3,3868.239Zm18.552-56.67a14.1,14.1,0,0,1-10-4.156,14.075,14.075,0,0,1-4.146-9.978v-8.656a14.219,14.219,0,0,1,14.134-14.151h.012a14.223,14.223,0,0,1,14.144,14.145v8.656A14.218,14.218,0,0,1-1750.743,3811.569Zm-.006-32.941a10.208,10.208,0,0,0-10.14,10.157v8.644a10.1,10.1,0,0,0,2.974,7.156,10.122,10.122,0,0,0,7.172,2.984,10.2,10.2,0,0,0,10.144-10.146v-8.644A10.211,10.211,0,0,0-1750.749,3778.628Zm-36.874,32.941a14.1,14.1,0,0,1-10-4.156,14.079,14.079,0,0,1-4.147-9.977v-8.657a14.22,14.22,0,0,1,14.135-14.151h.012a14.22,14.22,0,0,1,14.143,14.145v8.656A14.215,14.215,0,0,1-1787.623,3811.569Zm-.006-32.941a10.209,10.209,0,0,0-10.141,10.157v8.644a10.11,10.11,0,0,0,2.975,7.156,10.122,10.122,0,0,0,7.172,2.984,10.2,10.2,0,0,0,10.143-10.146v-8.644A10.21,10.21,0,0,0-1787.629,3778.628Z" fill="url(#a)"/><path d="M-1726.543,3849.519c-.236,0-.466-.011-.686-.024a14.118,14.118,0,0,1-9.314-4.132,14.129,14.129,0,0,1-4.146-9.987v-8.658a14.088,14.088,0,0,1,2.309-7.718,14.106,14.106,0,0,1,11.826-6.421,14.217,14.217,0,0,1,14.155,14.133v8.657A14.221,14.221,0,0,1-1726.543,3849.519Zm-.012-32.94a10.113,10.113,0,0,0-8.477,4.611,10.11,10.11,0,0,0-1.657,5.537v8.642a10.152,10.152,0,0,0,2.977,7.169,10.143,10.143,0,0,0,6.7,2.963c.165.009.315.018.465.018a10.21,10.21,0,0,0,10.15-10.156v-8.642A10.2,10.2,0,0,0-1726.555,3816.579Z" fill="url(#b)"/><path d="M-1700.9,3887.459h-47.7l-.492-1.286a21.189,21.189,0,0,0-2.714-4.979l-.388-.528v-3.627a25.6,25.6,0,0,1,7.524-18.113,25.615,25.615,0,0,1,17.505-7.516c.158-.01.384-.011.611-.011a25.78,25.78,0,0,1,25.65,25.634Zm-44.985-4h40.985v-6.417a21.771,21.771,0,0,0-21.656-21.643c-.149,0-.3,0-.446.007a21.665,21.665,0,0,0-14.836,6.349,21.612,21.612,0,0,0-6.352,15.289v2.325A25.041,25.041,0,0,1-1745.884,3883.459Z" fill="url(#c)"/><path d="M-1789.984,3887.459h-47.595v-10.42a25.557,25.557,0,0,1,7.536-18.114,25.551,25.551,0,0,1,18.108-7.526c.275,0,.535,0,.793.023a25.6,25.6,0,0,1,24.853,25.611v3.5l-.4.532a21.217,21.217,0,0,0-2.8,5.108Zm-43.595-4h40.885a25.046,25.046,0,0,1,2.405-4.24v-2.177a21.616,21.616,0,0,0-21.031-21.624l-.123-.007c-.161-.015-.32-.012-.486-.012a21.584,21.584,0,0,0-15.286,6.354,21.579,21.579,0,0,0-6.364,15.291Z" fill="url(#d)"/><path d="M-1811.929,3849.519a14.1,14.1,0,0,1-9.994-4.156,14.1,14.1,0,0,1-4.156-9.988v-8.657a14.215,14.215,0,0,1,14.144-14.139,14.125,14.125,0,0,1,11.887,6.507,14.137,14.137,0,0,1,2.259,7.624v8.659a14.206,14.206,0,0,1-13.355,14.127C-1811.414,3849.508-1811.666,3849.519-1811.929,3849.519Zm-.005-32.94a10.2,10.2,0,0,0-10.145,10.145v8.645a10.117,10.117,0,0,0,2.984,7.166,10.118,10.118,0,0,0,7.172,2.984c.191,0,.378-.009.567-.018a10.193,10.193,0,0,0,9.567-10.138v-8.639a10.139,10.139,0,0,0-1.62-5.47A10.142,10.142,0,0,0-1811.934,3816.579Z" fill="url(#e)"/><path d="M-1769.283,3866.369a14.1,14.1,0,0,1-10-4.157,14.09,14.09,0,0,1-4.156-9.987v-8.656a14.23,14.23,0,0,1,14.144-14.14h.012a14.21,14.21,0,0,1,14.134,14.134v8.655A14.216,14.216,0,0,1-1769.283,3866.369Zm-.006-32.94a10.219,10.219,0,0,0-10.15,10.149v8.64a10.115,10.115,0,0,0,2.984,7.166,10.121,10.121,0,0,0,7.172,2.985,10.2,10.2,0,0,0,10.134-10.157v-8.643A10.2,10.2,0,0,0-1769.289,3833.429Z" fill="url(#f)"/><path d="M-1743.649,3904.309h-51.28v-10.421a25.566,25.566,0,0,1,1.7-9.148,25.247,25.247,0,0,1,3.334-6.069,25.69,25.69,0,0,1,2.489-2.9,25.56,25.56,0,0,1,18.108-7.536,25.762,25.762,0,0,1,20.724,10.6,25.145,25.145,0,0,1,3.22,5.909,25.543,25.543,0,0,1,1.7,9.137Zm-47.28-4h43.28v-6.417a21.586,21.586,0,0,0-1.436-7.715,21.22,21.22,0,0,0-2.716-4.983,21.748,21.748,0,0,0-17.493-8.955,21.58,21.58,0,0,0-15.281,6.364,21.69,21.69,0,0,0-2.105,2.453,21.254,21.254,0,0,0-2.812,5.118,21.585,21.585,0,0,0-1.437,7.721Z" fill="url(#g)"/></g></svg>