<svg id="Group_5859" data-name="Group 5859" xmlns="http://www.w3.org/2000/svg" xmlns:xlink="http://www.w3.org/1999/xlink" width="221.789" height="69.801" viewBox="0 0 221.789 69.801">
  <defs>
    <clipPath id="clip-path">
      <rect id="Rectangle_11628" data-name="Rectangle 11628" width="221.789" height="69.801" fill="none"/>
    </clipPath>
  </defs>
  <g id="Group_5858" data-name="Group 5858" transform="translate(0 0)" clip-path="url(#clip-path)">
    <path id="Path_16663" data-name="Path 16663" d="M143.719,45.615l.011,1.637c-.011-.573-.017-1.136-.011-1.637" transform="translate(20.708 6.572)" fill="#e6e6e6"/>
    <path id="Path_16664" data-name="Path 16664" d="M143.791,44.3a.992.992,0,0,1,.264-.436Z" transform="translate(20.719 6.32)" fill="#e6e6e6"/>
    <path id="Path_16665" data-name="Path 16665" d="M145.261,44.185l-.6-.375-.628.078a.747.747,0,0,1,1.229.3" transform="translate(20.754 6.293)" fill="#e6e6e6"/>
    <path id="Path_16666" data-name="Path 16666" d="M150.325,58.415c-.022.518.166,4.569.166,4.569h-5.3a39.029,39.029,0,0,0-.16-4.608,1.672,1.672,0,0,0-.292-.6,6.807,6.807,0,0,1-1.924-2.844c-.309-.832-1.037-4.123-1.207-4.922a.824.824,0,0,1,.143-.678c.358-.44.96-.192,1.384.507a8.309,8.309,0,0,1,.81,2.31,1.282,1.282,0,0,0,.116.315l-.027-4.741v-.006l-.011-1.637c0-.116,0-.225.006-.331,0-.364.006-.689.022-.943a1.024,1.024,0,0,1,.055-.292l.265-.436.006,0h.006l.627-.078.6.375.11.066.033-.15.111-.511v-.866l.094-.143c0-.006.01-.017.022-.022a.971.971,0,0,1,.43-.3l.01,0,.53-.039h.006a.89.89,0,0,1,.374.17l.253.276c.011.006.011.011.011.017l.1,1.268.149-.414.348-.27a.823.823,0,0,1,.225-.066l.569.066s0,0,.01.006l.358.32a.716.716,0,0,1,.094.368V46.2c0-.826,1.742-1.025,1.8.447.17,4.227.578,8.593-.761,11.1a1.434,1.434,0,0,0-.166.667" transform="translate(20.402 6.109)" fill="#e6e6e6"/>
    <path id="Path_16667" data-name="Path 16667" d="M143.719,45.387l0-.061c0,.105,0,.215,0,.331Z" transform="translate(20.709 6.531)" fill="#e6e6e6"/>
    <path id="Path_16668" data-name="Path 16668" d="M145.611,42.456l.248-.016a.969.969,0,0,0-.43.3Z" transform="translate(20.955 6.115)" fill="#e6e6e6"/>
    <path id="Path_16669" data-name="Path 16669" d="M146.486,42.387l.17.188a.889.889,0,0,0-.374-.17Z" transform="translate(21.078 6.107)" fill="#e6e6e6"/>
    <path id="Path_16670" data-name="Path 16670" d="M147.465,43.245l.121.016a.823.823,0,0,0-.225.066Z" transform="translate(21.234 6.231)" fill="#e6e6e6"/>
    <path id="Path_16671" data-name="Path 16671" d="M148.472,43.684v.286a.716.716,0,0,0-.094-.368Z" transform="translate(21.38 6.282)" fill="#e6e6e6"/>
    <path id="Path_16672" data-name="Path 16672" d="M146.928,43.966a.754.754,0,0,1,.148-.413Z" transform="translate(21.171 6.275)" fill="#e6e6e6"/>
    <path id="Path_16673" data-name="Path 16673" d="M147.4,43.317l-.348.27a.752.752,0,0,1,.348-.27" transform="translate(21.19 6.241)" fill="#e6e6e6"/>
    <path id="Path_16674" data-name="Path 16674" d="M148.127,43.327l-.569-.066a.989.989,0,0,1,.569.066" transform="translate(21.262 6.231)" fill="#e6e6e6"/>
    <path id="Path_16675" data-name="Path 16675" d="M148.423,43.641l-.358-.32a.7.7,0,0,1,.358.32" transform="translate(21.335 6.242)" fill="#e6e6e6"/>
    <path id="Path_16676" data-name="Path 16676" d="M145.242,43.263a1,1,0,0,1,.1-.414v.86l-.111.513c0-.352.006-.677.011-.959" transform="translate(20.927 6.174)" fill="#e6e6e6"/>
    <path id="Path_16677" data-name="Path 16677" d="M146.184,42.387a.731.731,0,0,1,.16.017l-.53.038a1.2,1.2,0,0,1,.37-.055" transform="translate(21.011 6.107)" fill="#e6e6e6"/>
    <path id="Path_16678" data-name="Path 16678" d="M146.863,42.827l-.254-.276a.764.764,0,0,1,.254.276" transform="translate(21.125 6.131)" fill="#e6e6e6"/>
    <path id="Path_16679" data-name="Path 16679" d="M146.941,43.17v.9l-.1-1.268a.691.691,0,0,1,.1.364" transform="translate(21.158 6.167)" fill="#e6e6e6"/>
    <path id="Path_16680" data-name="Path 16680" d="M145.411,44.473c-.318-1.241-1.607-.913-1.668.149-.105,1.853.109,7.171.009,7.657" transform="translate(20.708 6.293)" fill="none" stroke="#333" stroke-linecap="round" stroke-linejoin="round" stroke-width="0.882"/>
    <path id="Path_16681" data-name="Path 16681" d="M149.5,62.588s-.188-4.052-.169-4.572a1.406,1.406,0,0,1,.166-.667c1.34-2.506.932-6.875.76-11.1-.059-1.471-1.8-1.269-1.8-.445" transform="translate(21.391 6.507)" fill="none" stroke="#333" stroke-linecap="round" stroke-linejoin="round" stroke-width="0.882"/>
    <path id="Path_16682" data-name="Path 16682" d="M144.058,51.617a1.132,1.132,0,0,1-.113-.316,8.359,8.359,0,0,0-.812-2.311c-.422-.7-1.026-.947-1.38-.5a.819.819,0,0,0-.146.676c.169.8.9,4.092,1.207,4.923a6.786,6.786,0,0,0,1.923,2.845,1.649,1.649,0,0,1,.293.6,39.616,39.616,0,0,1,.162,4.61" transform="translate(20.402 6.954)" fill="none" stroke="#333" stroke-linecap="round" stroke-linejoin="round" stroke-width="0.882"/>
    <path id="Path_16683" data-name="Path 16683" d="M148.676,50s0-3.967,0-5.977c0-1.022-1.672-1.051-1.752-.01" transform="translate(21.171 6.231)" fill="none" stroke="#333" stroke-linecap="round" stroke-linejoin="round" stroke-width="0.882"/>
    <path id="Path_16684" data-name="Path 16684" d="M147.169,49.314V43.232a.911.911,0,0,0-.9-.847.974.974,0,0,0-1.025.945c-.038,1.96,0,6.211,0,6.211" transform="translate(20.925 6.107)" fill="none" stroke="#333" stroke-linecap="round" stroke-linejoin="round" stroke-width="0.882"/>
    <path id="Path_16685" data-name="Path 16685" d="M134.753,39.916l.015,2.269c-.015-.794-.023-1.574-.015-2.269" transform="translate(19.416 5.751)" fill="#e6e6e6"/>
    <path id="Path_16686" data-name="Path 16686" d="M134.853,38.1a1.368,1.368,0,0,1,.366-.6Z" transform="translate(19.431 5.402)" fill="#e6e6e6"/>
    <path id="Path_16687" data-name="Path 16687" d="M136.891,37.936l-.833-.519-.871.106a1.036,1.036,0,0,1,1.7.413" transform="translate(19.479 5.364)" fill="#e6e6e6"/>
    <path id="Path_16688" data-name="Path 16688" d="M143.908,57.652c-.03.717.23,6.331.23,6.331H136.8a53.986,53.986,0,0,0-.222-6.385,2.287,2.287,0,0,0-.405-.832c-.969-1.162-1.733-1.429-2.665-3.941-.428-1.154-1.437-5.714-1.673-6.821a1.14,1.14,0,0,1,.2-.939c.5-.611,1.329-.268,1.917.7a11.457,11.457,0,0,1,1.122,3.2,1.782,1.782,0,0,0,.161.436l-.039-6.569v-.007l-.015-2.269c0-.16,0-.313.007-.458,0-.5.008-.955.031-1.307a1.376,1.376,0,0,1,.077-.405l.366-.6.008-.008h.008l.87-.106.833.519.153.092.046-.207.153-.709v-1.2l.129-.2c.008-.008.015-.023.031-.031a1.347,1.347,0,0,1,.595-.412c.008,0,.008,0,.015-.008l.734-.054h.007a1.248,1.248,0,0,1,.519.237l.351.382c.016.008.016.015.016.023l.137,1.757.206-.573.482-.374a1.115,1.115,0,0,1,.312-.093l.787.093c.008-.008.008,0,.015.007l.5.444a1,1,0,0,1,.13.511v2.849c0-1.145,2.413-1.421,2.5.619.237,5.858.8,11.907-1.054,15.382a1.98,1.98,0,0,0-.23.924" transform="translate(18.992 5.109)" fill="#e6e6e6"/>
    <path id="Path_16689" data-name="Path 16689" d="M134.753,39.6l.008-.084c-.008.144-.008.3-.008.458Z" transform="translate(19.417 5.693)" fill="#e6e6e6"/>
    <path id="Path_16690" data-name="Path 16690" d="M137.376,35.54l.342-.023a1.343,1.343,0,0,0-.594.412Z" transform="translate(19.758 5.117)" fill="#e6e6e6"/>
    <path id="Path_16691" data-name="Path 16691" d="M138.588,35.444l.237.26a1.232,1.232,0,0,0-.519-.237Z" transform="translate(19.929 5.107)" fill="#e6e6e6"/>
    <path id="Path_16692" data-name="Path 16692" d="M139.945,36.632l.168.023a1.16,1.16,0,0,0-.313.092Z" transform="translate(20.144 5.278)" fill="#e6e6e6"/>
    <path id="Path_16693" data-name="Path 16693" d="M141.338,37.24v.4a1,1,0,0,0-.13-.511Z" transform="translate(20.347 5.349)" fill="#e6e6e6"/>
    <path id="Path_16694" data-name="Path 16694" d="M139.2,37.632a1.054,1.054,0,0,1,.206-.573Z" transform="translate(20.057 5.339)" fill="#e6e6e6"/>
    <path id="Path_16695" data-name="Path 16695" d="M139.861,36.732l-.481.374a1.054,1.054,0,0,1,.481-.374" transform="translate(20.084 5.292)" fill="#e6e6e6"/>
    <path id="Path_16696" data-name="Path 16696" d="M140.861,36.746l-.787-.092a1.383,1.383,0,0,1,.787.092" transform="translate(20.184 5.278)" fill="#e6e6e6"/>
    <path id="Path_16697" data-name="Path 16697" d="M141.272,37.182l-.5-.443a.969.969,0,0,1,.5.443" transform="translate(20.285 5.293)" fill="#e6e6e6"/>
    <path id="Path_16698" data-name="Path 16698" d="M136.865,36.657a1.374,1.374,0,0,1,.138-.573v1.192l-.153.709c0-.489.008-.939.015-1.328" transform="translate(19.719 5.199)" fill="#e6e6e6"/>
    <path id="Path_16699" data-name="Path 16699" d="M138.17,35.444a.99.99,0,0,1,.221.023l-.733.053a1.66,1.66,0,0,1,.513-.076" transform="translate(19.835 5.107)" fill="#e6e6e6"/>
    <path id="Path_16700" data-name="Path 16700" d="M139.11,36.052l-.351-.382a1.054,1.054,0,0,1,.351.382" transform="translate(19.994 5.139)" fill="#e6e6e6"/>
    <path id="Path_16701" data-name="Path 16701" d="M139.216,36.528v1.253l-.137-1.756a.959.959,0,0,1,.137.5" transform="translate(20.04 5.19)" fill="#e6e6e6"/>
    <path id="Path_16702" data-name="Path 16702" d="M137.1,38.332c-.442-1.72-2.229-1.264-2.313.207-.145,2.566.151,9.935.013,10.61" transform="translate(19.416 5.363)" fill="none" stroke="#333" stroke-linecap="round" stroke-linejoin="round" stroke-width="0.882"/>
    <path id="Path_16703" data-name="Path 16703" d="M142.763,63.434s-.259-5.614-.235-6.335a1.965,1.965,0,0,1,.23-.923c1.857-3.472,1.292-9.527,1.054-15.386-.084-2.039-2.494-1.76-2.5-.617" transform="translate(20.362 5.66)" fill="none" stroke="#333" stroke-linecap="round" stroke-linejoin="round" stroke-width="0.882"/>
    <path id="Path_16704" data-name="Path 16704" d="M135.224,48.233a1.635,1.635,0,0,1-.157-.437,11.613,11.613,0,0,0-1.126-3.2c-.585-.964-1.422-1.312-1.912-.7a1.132,1.132,0,0,0-.2.938c.233,1.107,1.245,5.669,1.67,6.82.93,2.514,1.693,2.78,2.666,3.943a2.307,2.307,0,0,1,.406.832,54.884,54.884,0,0,1,.225,6.387" transform="translate(18.992 6.28)" fill="none" stroke="#333" stroke-linecap="round" stroke-linejoin="round" stroke-width="0.882"/>
    <path id="Path_16705" data-name="Path 16705" d="M141.622,45.992s-.006-5.5,0-8.281c0-1.416-2.316-1.458-2.427-.015" transform="translate(20.057 5.278)" fill="none" stroke="#333" stroke-linecap="round" stroke-linejoin="round" stroke-width="0.882"/>
    <path id="Path_16706" data-name="Path 16706" d="M139.535,45.041V36.614a1.262,1.262,0,0,0-1.254-1.173,1.348,1.348,0,0,0-1.42,1.309c-.053,2.716-.007,8.606-.007,8.606" transform="translate(19.717 5.106)" fill="none" stroke="#333" stroke-linecap="round" stroke-linejoin="round" stroke-width="0.882"/>
    <path id="Path_16707" data-name="Path 16707" d="M96.783,20.107l.029,4.463c-.029-1.563-.043-3.1-.029-4.463" transform="translate(13.945 2.897)" fill="#e6e6e6"/>
    <path id="Path_16708" data-name="Path 16708" d="M96.979,16.527a2.691,2.691,0,0,1,.721-1.188Z" transform="translate(13.974 2.21)" fill="#e6e6e6"/>
    <path id="Path_16709" data-name="Path 16709" d="M100.986,16.21l-1.638-1.022-1.713.211a2.037,2.037,0,0,1,3.351.811" transform="translate(14.068 2.135)" fill="#e6e6e6"/>
    <path id="Path_16710" data-name="Path 16710" d="M114.793,55c-.059,1.412.451,12.457.451,12.457H100.8s.12-10.669-.435-12.562a4.5,4.5,0,0,0-.8-1.637c-1.908-2.285-3.411-2.811-5.245-7.755-.841-2.269-2.825-11.24-3.29-13.419a2.249,2.249,0,0,1,.391-1.848c.976-1.2,2.614-.526,3.771,1.382a22.53,22.53,0,0,1,2.209,6.3,3.425,3.425,0,0,0,.316.857l-.076-12.923v-.016l-.03-4.463c0-.315,0-.616.015-.9,0-.992.015-1.879.061-2.57a2.64,2.64,0,0,1,.15-.8l.721-1.186.016-.015h.015l1.713-.211,1.638,1.022.3.181.09-.406.3-1.4V12.729l.255-.391c.015-.015.03-.045.059-.059a2.674,2.674,0,0,1,1.173-.812c.015,0,.015,0,.03-.015l1.443-.105h.015a2.433,2.433,0,0,1,1.022.466l.692.752c.03.015.03.03.03.045l.27,3.456.406-1.127.946-.736a2.219,2.219,0,0,1,.617-.181l1.548.181c.015-.015.015,0,.03.015l.976.872A1.955,1.955,0,0,1,112.4,16.1v5.6c0-2.255,4.748-2.8,4.914,1.216.466,11.526,1.578,23.428-2.074,30.265A3.9,3.9,0,0,0,114.793,55" transform="translate(13.11 1.634)" fill="#e6e6e6"/>
    <path id="Path_16711" data-name="Path 16711" d="M96.782,19.484l.014-.165c-.014.285-.014.586-.014.9Z" transform="translate(13.945 2.783)" fill="#e6e6e6"/>
    <path id="Path_16712" data-name="Path 16712" d="M101.941,11.5l.676-.046a2.674,2.674,0,0,0-1.173.812Z" transform="translate(14.617 1.649)" fill="#e6e6e6"/>
    <path id="Path_16713" data-name="Path 16713" d="M104.325,11.307l.466.511a2.4,2.4,0,0,0-1.022-.466Z" transform="translate(14.952 1.629)" fill="#e6e6e6"/>
    <path id="Path_16714" data-name="Path 16714" d="M107,13.645l.331.046a2.216,2.216,0,0,0-.617.18Z" transform="translate(15.376 1.966)" fill="#e6e6e6"/>
    <path id="Path_16715" data-name="Path 16715" d="M109.738,14.842v.781a1.961,1.961,0,0,0-.256-1.007Z" transform="translate(15.775 2.106)" fill="#e6e6e6"/>
    <path id="Path_16716" data-name="Path 16716" d="M105.529,15.612a2.072,2.072,0,0,1,.405-1.126Z" transform="translate(15.206 2.087)" fill="#e6e6e6"/>
    <path id="Path_16717" data-name="Path 16717" d="M106.83,13.842l-.947.737a2.054,2.054,0,0,1,.947-.737" transform="translate(15.257 1.994)" fill="#e6e6e6"/>
    <path id="Path_16718" data-name="Path 16718" d="M108.8,13.87l-1.548-.181a2.713,2.713,0,0,1,1.548.181" transform="translate(15.454 1.966)" fill="#e6e6e6"/>
    <path id="Path_16719" data-name="Path 16719" d="M109.605,14.727l-.977-.872a1.912,1.912,0,0,1,.977.872" transform="translate(15.652 1.996)" fill="#e6e6e6"/>
    <path id="Path_16720" data-name="Path 16720" d="M100.936,13.695a2.712,2.712,0,0,1,.27-1.127v2.344l-.3,1.4c0-.961.015-1.848.03-2.614" transform="translate(14.54 1.81)" fill="#e6e6e6"/>
    <path id="Path_16721" data-name="Path 16721" d="M103.5,11.307a1.989,1.989,0,0,1,.436.046l-1.443.1a3.237,3.237,0,0,1,1.007-.15" transform="translate(14.769 1.629)" fill="#e6e6e6"/>
    <path id="Path_16722" data-name="Path 16722" d="M105.353,12.5l-.691-.752a2.089,2.089,0,0,1,.691.752" transform="translate(15.081 1.693)" fill="#e6e6e6"/>
    <path id="Path_16723" data-name="Path 16723" d="M105.563,13.442v2.464l-.271-3.456a1.89,1.89,0,0,1,.271.992" transform="translate(15.172 1.793)" fill="#e6e6e6"/>
    <path id="Path_16724" data-name="Path 16724" d="M101.4,16.991c-.866-3.383-4.383-2.488-4.548.406-.287,5.051.3,19.548.024,20.875" transform="translate(13.943 2.134)" fill="none" stroke="#333" stroke-linecap="round" stroke-linejoin="round" stroke-width="0.882"/>
    <path id="Path_16725" data-name="Path 16725" d="M112.541,66.377s-.509-11.046-.46-12.463a3.844,3.844,0,0,1,.45-1.817c3.655-6.833,2.541-18.744,2.072-30.27-.162-4.011-4.9-3.46-4.909-1.213" transform="translate(15.806 2.718)" fill="none" stroke="#333" stroke-linecap="round" stroke-linejoin="round" stroke-width="0.882"/>
    <path id="Path_16726" data-name="Path 16726" d="M97.707,36.469a3.173,3.173,0,0,1-.308-.859,22.837,22.837,0,0,0-2.215-6.3c-1.151-1.9-2.8-2.581-3.762-1.371a2.221,2.221,0,0,0-.4,1.844c.459,2.181,2.45,11.154,3.287,13.418,1.828,4.945,3.33,5.47,5.246,7.756a4.548,4.548,0,0,1,.8,1.637c.55,1.891.443,12.566.443,12.566" transform="translate(13.109 3.938)" fill="none" stroke="#333" stroke-linecap="round" stroke-linejoin="round" stroke-width="0.882"/>
    <path id="Path_16727" data-name="Path 16727" d="M110.294,32.059s-.011-10.813,0-16.292c.006-2.787-4.556-2.867-4.773-.03" transform="translate(15.205 1.965)" fill="none" stroke="#333" stroke-linecap="round" stroke-linejoin="round" stroke-width="0.882"/>
    <path id="Path_16728" data-name="Path 16728" d="M106.189,30.189c0-.015,0-10.373,0-16.579a2.483,2.483,0,0,0-2.466-2.308,2.653,2.653,0,0,0-2.8,2.574c-.1,5.344-.013,16.933-.013,16.933" transform="translate(14.536 1.628)" fill="none" stroke="#333" stroke-linecap="round" stroke-linejoin="round" stroke-width="0.882"/>
    <path id="Path_16729" data-name="Path 16729" d="M123.452,31.538l.021,3.2c-.021-1.12-.032-2.217-.021-3.2" transform="translate(17.788 4.544)" fill="#e6e6e6"/>
    <path id="Path_16730" data-name="Path 16730" d="M123.592,28.973a1.92,1.92,0,0,1,.517-.849Z" transform="translate(17.809 4.052)" fill="#e6e6e6"/>
    <path id="Path_16731" data-name="Path 16731" d="M126.462,28.747l-1.173-.732-1.228.151a1.46,1.46,0,0,1,2.4.581" transform="translate(17.876 3.998)" fill="#e6e6e6"/>
    <path id="Path_16732" data-name="Path 16732" d="M136.351,56.53c-.044,1.011.323,8.922.323,8.922H126.331s.086-7.641-.312-9a3.234,3.234,0,0,0-.57-1.173c-1.367-1.636-2.444-2.014-3.757-5.555-.6-1.625-2.023-8.05-2.357-9.61a1.61,1.61,0,0,1,.28-1.324c.7-.862,1.873-.378,2.7.99a16.13,16.13,0,0,1,1.582,4.51,2.482,2.482,0,0,0,.225.613l-.053-9.256v-.011l-.022-3.2c0-.225,0-.44.01-.645,0-.71.011-1.345.043-1.841a1.924,1.924,0,0,1,.108-.571l.516-.85.011-.01h.01l1.228-.151,1.173.732.215.129.065-.291.215-1v-1.69l.183-.28c.01-.01.021-.032.042-.042a1.91,1.91,0,0,1,.84-.581c.011,0,.011,0,.022-.011l1.033-.076h.01a1.761,1.761,0,0,1,.732.334l.5.539c.022.01.022.021.022.032l.193,2.475.291-.807.677-.527a1.6,1.6,0,0,1,.442-.129l1.109.129c.011-.01.011,0,.022.01l.7.625a1.41,1.41,0,0,1,.182.721v4.015c0-1.614,3.4-2,3.52.872.333,8.255,1.129,16.779-1.486,21.676a2.8,2.8,0,0,0-.323,1.3" transform="translate(17.19 3.64)" fill="#e6e6e6"/>
    <path id="Path_16733" data-name="Path 16733" d="M123.451,31.092l.01-.119c-.01.2-.01.42-.01.646Z" transform="translate(17.788 4.462)" fill="#e6e6e6"/>
    <path id="Path_16734" data-name="Path 16734" d="M127.146,25.371l.484-.032a1.91,1.91,0,0,0-.84.581Z" transform="translate(18.269 3.651)" fill="#e6e6e6"/>
    <path id="Path_16735" data-name="Path 16735" d="M128.853,25.236l.334.366a1.74,1.74,0,0,0-.732-.334Z" transform="translate(18.509 3.636)" fill="#e6e6e6"/>
    <path id="Path_16736" data-name="Path 16736" d="M130.768,26.91l.236.032a1.56,1.56,0,0,0-.44.129Z" transform="translate(18.813 3.877)" fill="#e6e6e6"/>
    <path id="Path_16737" data-name="Path 16737" d="M132.73,27.767v.559a1.4,1.4,0,0,0-.183-.721Z" transform="translate(19.099 3.977)" fill="#e6e6e6"/>
    <path id="Path_16738" data-name="Path 16738" d="M129.716,28.32a1.492,1.492,0,0,1,.291-.808Z" transform="translate(18.691 3.964)" fill="#e6e6e6"/>
    <path id="Path_16739" data-name="Path 16739" d="M130.647,27.051l-.677.527a1.478,1.478,0,0,1,.677-.527" transform="translate(18.728 3.897)" fill="#e6e6e6"/>
    <path id="Path_16740" data-name="Path 16740" d="M132.057,27.071l-1.109-.129a1.941,1.941,0,0,1,1.109.129" transform="translate(18.869 3.877)" fill="#e6e6e6"/>
    <path id="Path_16741" data-name="Path 16741" d="M132.636,27.685l-.7-.625a1.37,1.37,0,0,1,.7.625" transform="translate(19.011 3.899)" fill="#e6e6e6"/>
    <path id="Path_16742" data-name="Path 16742" d="M126.426,26.946a1.962,1.962,0,0,1,.193-.808v1.68l-.215,1c0-.689.011-1.324.022-1.873" transform="translate(18.214 3.766)" fill="#e6e6e6"/>
    <path id="Path_16743" data-name="Path 16743" d="M128.264,25.236a1.453,1.453,0,0,1,.312.032l-1.033.076a2.287,2.287,0,0,1,.721-.108" transform="translate(18.378 3.636)" fill="#e6e6e6"/>
    <path id="Path_16744" data-name="Path 16744" d="M129.59,26.094l-.5-.538a1.492,1.492,0,0,1,.5.538" transform="translate(18.602 3.682)" fill="#e6e6e6"/>
    <path id="Path_16745" data-name="Path 16745" d="M129.74,26.764V28.53l-.193-2.476a1.353,1.353,0,0,1,.193.71" transform="translate(18.667 3.754)" fill="#e6e6e6"/>
    <path id="Path_16746" data-name="Path 16746" d="M126.756,29.307c-.62-2.424-3.139-1.782-3.257.291-.2,3.618.212,14,.017,14.952" transform="translate(17.787 3.998)" fill="none" stroke="#333" stroke-linecap="round" stroke-linejoin="round" stroke-width="0.882"/>
    <path id="Path_16747" data-name="Path 16747" d="M134.738,64.679s-.364-7.911-.329-8.926a2.744,2.744,0,0,1,.323-1.3c2.618-4.893,1.819-13.424,1.485-21.681C136.1,29.9,132.7,30.292,132.7,31.9" transform="translate(19.121 4.416)" fill="none" stroke="#333" stroke-linecap="round" stroke-linejoin="round" stroke-width="0.882"/>
    <path id="Path_16748" data-name="Path 16748" d="M124.113,43.257a2.3,2.3,0,0,1-.221-.616,16.323,16.323,0,0,0-1.586-4.513c-.825-1.361-2-1.85-2.7-.982a1.6,1.6,0,0,0-.284,1.32c.329,1.562,1.755,7.989,2.355,9.61,1.311,3.542,2.387,3.917,3.757,5.555a3.259,3.259,0,0,1,.571,1.174c.394,1.353.318,9,.318,9" transform="translate(17.189 5.289)" fill="none" stroke="#333" stroke-linecap="round" stroke-linejoin="round" stroke-width="0.882"/>
    <path id="Path_16749" data-name="Path 16749" d="M133.129,40.1s-.008-7.744,0-11.67c0-2-3.263-2.054-3.419-.021" transform="translate(18.69 3.877)" fill="none" stroke="#333" stroke-linecap="round" stroke-linejoin="round" stroke-width="0.882"/>
    <path id="Path_16750" data-name="Path 16750" d="M130.188,38.759c0-.01,0-7.43,0-11.875a1.779,1.779,0,0,0-1.766-1.653,1.9,1.9,0,0,0-2,1.844c-.073,3.828-.01,12.129-.01,12.129" transform="translate(18.211 3.635)" fill="none" stroke="#333" stroke-linecap="round" stroke-linejoin="round" stroke-width="0.882"/>
    <path id="Path_16751" data-name="Path 16751" d="M41.117,45.615l-.011,1.637c.011-.573.016-1.136.011-1.637" transform="translate(5.923 6.572)" fill="#e6e6e6"/>
    <path id="Path_16752" data-name="Path 16752" d="M41.076,44.3a.992.992,0,0,0-.264-.436Z" transform="translate(5.881 6.32)" fill="#e6e6e6"/>
    <path id="Path_16753" data-name="Path 16753" d="M39.728,44.185l.6-.375.628.078a.747.747,0,0,0-1.229.3" transform="translate(5.724 6.293)" fill="#e6e6e6"/>
    <path id="Path_16754" data-name="Path 16754" d="M35.75,58.415c.023.518-.166,4.569-.166,4.569h5.3a38.989,38.989,0,0,1,.159-4.608,1.655,1.655,0,0,1,.293-.6,6.8,6.8,0,0,0,1.923-2.844c.309-.832,1.037-4.123,1.207-4.922a.824.824,0,0,0-.143-.678c-.358-.44-.959-.192-1.383.507a8.236,8.236,0,0,0-.81,2.31,1.334,1.334,0,0,1-.117.315l.029-4.741v-.006l.01-1.637c0-.116,0-.225-.006-.331,0-.364,0-.689-.022-.943a.986.986,0,0,0-.055-.292l-.264-.436-.006,0h-.006l-.628-.078-.6.375-.111.066-.033-.15-.11-.511v-.866l-.094-.143c-.006-.006-.011-.017-.022-.022a.984.984,0,0,0-.43-.3c-.006,0-.006,0-.011,0l-.529-.039h-.006a.888.888,0,0,0-.375.17l-.253.276c-.011.006-.011.011-.011.017l-.1,1.268-.149-.414-.347-.27a.843.843,0,0,0-.227-.066l-.567.066c-.006,0-.006,0-.011.006l-.358.32a.716.716,0,0,0-.094.368V46.2c0-.826-1.741-1.025-1.8.447-.169,4.227-.578,8.593.761,11.1a1.434,1.434,0,0,1,.166.667" transform="translate(4.99 6.109)" fill="#e6e6e6"/>
    <path id="Path_16755" data-name="Path 16755" d="M41.117,45.387l-.006-.061c.006.105.006.215.006.331Z" transform="translate(5.924 6.531)" fill="#e6e6e6"/>
    <path id="Path_16756" data-name="Path 16756" d="M39.277,42.456l-.248-.016a.975.975,0,0,1,.43.3Z" transform="translate(5.624 6.115)" fill="#e6e6e6"/>
    <path id="Path_16757" data-name="Path 16757" d="M38.4,42.387l-.17.188a.883.883,0,0,1,.374-.17Z" transform="translate(5.508 6.107)" fill="#e6e6e6"/>
    <path id="Path_16758" data-name="Path 16758" d="M37.4,43.245l-.121.016a.842.842,0,0,1,.227.066Z" transform="translate(5.371 6.231)" fill="#e6e6e6"/>
    <path id="Path_16759" data-name="Path 16759" d="M36.375,43.684v.286a.716.716,0,0,1,.094-.368Z" transform="translate(5.241 6.282)" fill="#e6e6e6"/>
    <path id="Path_16760" data-name="Path 16760" d="M37.926,43.966a.764.764,0,0,0-.149-.413Z" transform="translate(5.443 6.275)" fill="#e6e6e6"/>
    <path id="Path_16761" data-name="Path 16761" d="M37.473,43.317l.347.27a.749.749,0,0,0-.347-.27" transform="translate(5.4 6.241)" fill="#e6e6e6"/>
    <path id="Path_16762" data-name="Path 16762" d="M36.78,43.327l.567-.066a.986.986,0,0,0-.567.066" transform="translate(5.3 6.231)" fill="#e6e6e6"/>
    <path id="Path_16763" data-name="Path 16763" d="M36.457,43.641l.358-.32a.7.7,0,0,0-.358.32" transform="translate(5.253 6.242)" fill="#e6e6e6"/>
    <path id="Path_16764" data-name="Path 16764" d="M39.605,43.263a1.021,1.021,0,0,0-.1-.414v.86l.11.513c0-.352-.006-.677-.011-.959" transform="translate(5.693 6.174)" fill="#e6e6e6"/>
    <path id="Path_16765" data-name="Path 16765" d="M38.717,42.387a.731.731,0,0,0-.16.017l.53.038a1.2,1.2,0,0,0-.37-.055" transform="translate(5.556 6.107)" fill="#e6e6e6"/>
    <path id="Path_16766" data-name="Path 16766" d="M38,42.827l.254-.276a.764.764,0,0,0-.254.276" transform="translate(5.476 6.131)" fill="#e6e6e6"/>
    <path id="Path_16767" data-name="Path 16767" d="M37.907,43.17v.9l.1-1.268a.7.7,0,0,0-.1.364" transform="translate(5.462 6.167)" fill="#e6e6e6"/>
    <path id="Path_16768" data-name="Path 16768" d="M39.637,44.473c.317-1.241,1.607-.913,1.668.149.105,1.853-.109,7.171-.009,7.657" transform="translate(5.711 6.293)" fill="none" stroke="#333" stroke-linecap="round" stroke-linejoin="round" stroke-width="0.882"/>
    <path id="Path_16769" data-name="Path 16769" d="M35.587,62.588s.186-4.052.168-4.572a1.407,1.407,0,0,0-.165-.667c-1.341-2.506-.932-6.875-.76-11.1.059-1.471,1.8-1.269,1.8-.445" transform="translate(4.991 6.507)" fill="none" stroke="#333" stroke-linecap="round" stroke-linejoin="round" stroke-width="0.882"/>
    <path id="Path_16770" data-name="Path 16770" d="M41.23,51.617a1.17,1.17,0,0,0,.113-.316,8.36,8.36,0,0,1,.812-2.311c.422-.7,1.026-.947,1.38-.5a.814.814,0,0,1,.145.676c-.168.8-.9,4.092-1.206,4.923a6.786,6.786,0,0,1-1.924,2.845,1.648,1.648,0,0,0-.292.6,39.621,39.621,0,0,0-.162,4.61" transform="translate(5.777 6.954)" fill="none" stroke="#333" stroke-linecap="round" stroke-linejoin="round" stroke-width="0.882"/>
    <path id="Path_16771" data-name="Path 16771" d="M36.38,50s0-3.967,0-5.977c0-1.022,1.67-1.051,1.75-.01" transform="translate(5.242 6.231)" fill="none" stroke="#333" stroke-linecap="round" stroke-linejoin="round" stroke-width="0.882"/>
    <path id="Path_16772" data-name="Path 16772" d="M37.91,49.314V43.232a.911.911,0,0,1,.9-.847.974.974,0,0,1,1.025.945c.037,1.96,0,6.211,0,6.211" transform="translate(5.463 6.107)" fill="none" stroke="#333" stroke-linecap="round" stroke-linejoin="round" stroke-width="0.882"/>
    <path id="Path_16773" data-name="Path 16773" d="M50.083,39.916l-.016,2.269c.016-.794.023-1.574.016-2.269" transform="translate(7.214 5.751)" fill="#e6e6e6"/>
    <path id="Path_16774" data-name="Path 16774" d="M50.027,38.1a1.358,1.358,0,0,0-.366-.6Z" transform="translate(7.156 5.402)" fill="#e6e6e6"/>
    <path id="Path_16775" data-name="Path 16775" d="M48.159,37.936l.832-.519.871.106a1.035,1.035,0,0,0-1.7.413" transform="translate(6.939 5.364)" fill="#e6e6e6"/>
    <path id="Path_16776" data-name="Path 16776" d="M42.647,57.652c.03.717-.23,6.331-.23,6.331h7.34a53.945,53.945,0,0,1,.221-6.385,2.287,2.287,0,0,1,.405-.832c.971-1.162,1.734-1.429,2.666-3.941.428-1.154,1.437-5.714,1.674-6.821a1.141,1.141,0,0,0-.2-.939c-.5-.611-1.328-.268-1.916.7a11.459,11.459,0,0,0-1.123,3.2,1.777,1.777,0,0,1-.159.436l.037-6.569v-.007l.016-2.269c0-.16,0-.313-.008-.458,0-.5-.008-.955-.03-1.307a1.306,1.306,0,0,0-.078-.405l-.366-.6-.007-.008H50.88l-.871-.106-.832.519-.154.092-.046-.207-.152-.709v-1.2l-.129-.2a.131.131,0,0,0-.031-.031,1.356,1.356,0,0,0-.6-.412c-.008,0-.008,0-.015-.008l-.733-.054h-.008a1.25,1.25,0,0,0-.518.237l-.352.382c-.015.008-.015.015-.015.023l-.137,1.757-.207-.573-.482-.374a1.1,1.1,0,0,0-.312-.093l-.787.093c-.007-.008-.007,0-.015.007l-.5.444a1,1,0,0,0-.129.511v2.849c0-1.145-2.413-1.421-2.5.619-.237,5.858-.8,11.907,1.055,15.382a1.98,1.98,0,0,1,.23.924" transform="translate(5.921 5.109)" fill="#e6e6e6"/>
    <path id="Path_16777" data-name="Path 16777" d="M50.082,39.6l-.008-.084c.008.144.008.3.008.458Z" transform="translate(7.215 5.693)" fill="#e6e6e6"/>
    <path id="Path_16778" data-name="Path 16778" d="M47.534,35.54l-.344-.023a1.35,1.35,0,0,1,.6.412Z" transform="translate(6.8 5.117)" fill="#e6e6e6"/>
    <path id="Path_16779" data-name="Path 16779" d="M46.313,35.444l-.237.26a1.221,1.221,0,0,1,.518-.237Z" transform="translate(6.639 5.107)" fill="#e6e6e6"/>
    <path id="Path_16780" data-name="Path 16780" d="M44.929,36.632l-.169.023a1.16,1.16,0,0,1,.313.092Z" transform="translate(6.45 5.278)" fill="#e6e6e6"/>
    <path id="Path_16781" data-name="Path 16781" d="M43.512,37.24v.4a1,1,0,0,1,.129-.511Z" transform="translate(6.27 5.349)" fill="#e6e6e6"/>
    <path id="Path_16782" data-name="Path 16782" d="M45.661,37.632a1.063,1.063,0,0,0-.206-.573Z" transform="translate(6.55 5.339)" fill="#e6e6e6"/>
    <path id="Path_16783" data-name="Path 16783" d="M45.034,36.732l.482.374a1.057,1.057,0,0,0-.482-.374" transform="translate(6.489 5.292)" fill="#e6e6e6"/>
    <path id="Path_16784" data-name="Path 16784" d="M44.072,36.746l.787-.092a1.382,1.382,0,0,0-.787.092" transform="translate(6.35 5.278)" fill="#e6e6e6"/>
    <path id="Path_16785" data-name="Path 16785" d="M43.625,37.182l.5-.443a.974.974,0,0,0-.5.443" transform="translate(6.286 5.293)" fill="#e6e6e6"/>
    <path id="Path_16786" data-name="Path 16786" d="M47.989,36.657a1.41,1.41,0,0,0-.138-.573v1.192l.152.709c0-.489-.006-.939-.014-1.328" transform="translate(6.895 5.199)" fill="#e6e6e6"/>
    <path id="Path_16787" data-name="Path 16787" d="M46.758,35.444a.983.983,0,0,0-.221.023l.732.053a1.647,1.647,0,0,0-.511-.076" transform="translate(6.706 5.107)" fill="#e6e6e6"/>
    <path id="Path_16788" data-name="Path 16788" d="M45.768,36.052l.351-.382a1.064,1.064,0,0,0-.351.382" transform="translate(6.595 5.139)" fill="#e6e6e6"/>
    <path id="Path_16789" data-name="Path 16789" d="M45.635,36.528v1.253l.137-1.756a.959.959,0,0,0-.137.5" transform="translate(6.576 5.19)" fill="#e6e6e6"/>
    <path id="Path_16790" data-name="Path 16790" d="M48.032,38.332c.44-1.72,2.228-1.264,2.311.207.145,2.566-.15,9.935-.011,10.61" transform="translate(6.921 5.363)" fill="none" stroke="#333" stroke-linecap="round" stroke-linejoin="round" stroke-width="0.882"/>
    <path id="Path_16791" data-name="Path 16791" d="M42.419,63.434s.26-5.614.235-6.335a1.965,1.965,0,0,0-.229-.923c-1.858-3.472-1.292-9.527-1.054-15.386.082-2.039,2.493-1.76,2.5-.617" transform="translate(5.922 5.66)" fill="none" stroke="#333" stroke-linecap="round" stroke-linejoin="round" stroke-width="0.882"/>
    <path id="Path_16792" data-name="Path 16792" d="M50.241,48.233A1.635,1.635,0,0,0,50.4,47.8a11.614,11.614,0,0,1,1.126-3.2c.585-.964,1.422-1.312,1.912-.7a1.132,1.132,0,0,1,.2.938c-.233,1.107-1.246,5.669-1.672,6.82-.929,2.514-1.692,2.78-2.666,3.943a2.305,2.305,0,0,0-.405.832,54.883,54.883,0,0,0-.225,6.387" transform="translate(7.012 6.28)" fill="none" stroke="#333" stroke-linecap="round" stroke-linejoin="round" stroke-width="0.882"/>
    <path id="Path_16793" data-name="Path 16793" d="M43.519,45.992s.006-5.5,0-8.281c0-1.416,2.314-1.458,2.427-.015" transform="translate(6.271 5.278)" fill="none" stroke="#333" stroke-linecap="round" stroke-linejoin="round" stroke-width="0.882"/>
    <path id="Path_16794" data-name="Path 16794" d="M45.639,45.041V36.614a1.262,1.262,0,0,1,1.254-1.173,1.347,1.347,0,0,1,1.42,1.309c.053,2.716.008,8.606.008,8.606" transform="translate(6.576 5.106)" fill="none" stroke="#333" stroke-linecap="round" stroke-linejoin="round" stroke-width="0.882"/>
    <path id="Path_16795" data-name="Path 16795" d="M61.387,31.538l-.022,3.2c.022-1.12.033-2.217.022-3.2" transform="translate(8.842 4.544)" fill="#e6e6e6"/>
    <path id="Path_16796" data-name="Path 16796" d="M61.307,28.973a1.928,1.928,0,0,0-.516-.849Z" transform="translate(8.759 4.052)" fill="#e6e6e6"/>
    <path id="Path_16797" data-name="Path 16797" d="M58.675,28.747l1.173-.732,1.228.151a1.459,1.459,0,0,0-2.4.581" transform="translate(8.455 3.998)" fill="#e6e6e6"/>
    <path id="Path_16798" data-name="Path 16798" d="M50.906,56.53c.043,1.011-.323,8.922-.323,8.922H60.926s-.086-7.641.312-9a3.217,3.217,0,0,1,.571-1.173c1.367-1.636,2.443-2.014,3.756-5.555.6-1.625,2.024-8.05,2.357-9.61a1.61,1.61,0,0,0-.28-1.324c-.7-.862-1.872-.378-2.7.99a16.166,16.166,0,0,0-1.582,4.51,2.483,2.483,0,0,1-.225.613l.054-9.256v-.011l.021-3.2c0-.225,0-.44-.01-.645,0-.71-.01-1.345-.042-1.841a1.924,1.924,0,0,0-.109-.571l-.516-.85-.011-.01h-.01l-1.226-.151-1.174.732-.215.129-.064-.291-.216-1v-1.69l-.182-.28c-.011-.01-.022-.032-.043-.042a1.91,1.91,0,0,0-.84-.581c-.01,0-.01,0-.021-.011l-1.034-.076h-.01a1.761,1.761,0,0,0-.732.334l-.5.539a.029.029,0,0,0-.021.032l-.194,2.475-.291-.807-.677-.527a1.579,1.579,0,0,0-.442-.129l-1.109.129c-.011-.01-.011,0-.022.01l-.7.625a1.4,1.4,0,0,0-.183.721v4.015c0-1.614-3.4-2-3.52.872-.333,8.255-1.129,16.779,1.486,21.676a2.8,2.8,0,0,1,.323,1.3" transform="translate(7.02 3.64)" fill="#e6e6e6"/>
    <path id="Path_16799" data-name="Path 16799" d="M61.385,31.092l-.01-.119c.01.2.01.42.01.646Z" transform="translate(8.844 4.462)" fill="#e6e6e6"/>
    <path id="Path_16800" data-name="Path 16800" d="M57.795,25.371l-.484-.032a1.917,1.917,0,0,1,.84.581Z" transform="translate(8.258 3.651)" fill="#e6e6e6"/>
    <path id="Path_16801" data-name="Path 16801" d="M56.073,25.236l-.334.366a1.733,1.733,0,0,1,.732-.334Z" transform="translate(8.032 3.636)" fill="#e6e6e6"/>
    <path id="Path_16802" data-name="Path 16802" d="M54.123,26.91l-.237.032a1.579,1.579,0,0,1,.442.129Z" transform="translate(7.765 3.877)" fill="#e6e6e6"/>
    <path id="Path_16803" data-name="Path 16803" d="M52.127,27.767v.559a1.41,1.41,0,0,1,.183-.721Z" transform="translate(7.511 3.977)" fill="#e6e6e6"/>
    <path id="Path_16804" data-name="Path 16804" d="M55.155,28.32a1.493,1.493,0,0,0-.291-.808Z" transform="translate(7.905 3.964)" fill="#e6e6e6"/>
    <path id="Path_16805" data-name="Path 16805" d="M54.272,27.051l.678.527a1.487,1.487,0,0,0-.678-.527" transform="translate(7.82 3.897)" fill="#e6e6e6"/>
    <path id="Path_16806" data-name="Path 16806" d="M52.917,27.071l1.109-.129a1.941,1.941,0,0,0-1.109.129" transform="translate(7.625 3.877)" fill="#e6e6e6"/>
    <path id="Path_16807" data-name="Path 16807" d="M52.287,27.685l.7-.625a1.372,1.372,0,0,0-.7.625" transform="translate(7.534 3.899)" fill="#e6e6e6"/>
    <path id="Path_16808" data-name="Path 16808" d="M58.435,26.946a1.944,1.944,0,0,0-.193-.808v1.68l.215,1c0-.689-.011-1.324-.022-1.873" transform="translate(8.392 3.766)" fill="#e6e6e6"/>
    <path id="Path_16809" data-name="Path 16809" d="M56.7,25.236a1.453,1.453,0,0,0-.312.032l1.033.076a2.287,2.287,0,0,0-.721-.108" transform="translate(8.125 3.636)" fill="#e6e6e6"/>
    <path id="Path_16810" data-name="Path 16810" d="M55.306,26.094l.5-.538a1.492,1.492,0,0,0-.5.538" transform="translate(7.969 3.682)" fill="#e6e6e6"/>
    <path id="Path_16811" data-name="Path 16811" d="M55.118,26.764V28.53l.193-2.476a1.363,1.363,0,0,0-.193.71" transform="translate(7.942 3.754)" fill="#e6e6e6"/>
    <path id="Path_16812" data-name="Path 16812" d="M58.5,29.307c.62-2.424,3.139-1.782,3.257.291.2,3.618-.212,14-.017,14.952" transform="translate(8.429 3.998)" fill="none" stroke="#333" stroke-linecap="round" stroke-linejoin="round" stroke-width="0.882"/>
    <path id="Path_16813" data-name="Path 16813" d="M50.587,64.679s.365-7.911.329-8.926a2.758,2.758,0,0,0-.321-1.3c-2.619-4.893-1.82-13.424-1.485-21.681.117-2.873,3.512-2.478,3.517-.868" transform="translate(7.021 4.416)" fill="none" stroke="#333" stroke-linecap="round" stroke-linejoin="round" stroke-width="0.882"/>
    <path id="Path_16814" data-name="Path 16814" d="M61.608,43.257a2.3,2.3,0,0,0,.221-.616,16.359,16.359,0,0,1,1.586-4.513c.825-1.361,2.006-1.85,2.7-.982a1.591,1.591,0,0,1,.284,1.32c-.328,1.562-1.755,7.989-2.355,9.61-1.31,3.542-2.385,3.917-3.757,5.555a3.259,3.259,0,0,0-.571,1.174c-.394,1.353-.317,9-.317,9" transform="translate(8.557 5.289)" fill="none" stroke="#333" stroke-linecap="round" stroke-linejoin="round" stroke-width="0.882"/>
    <path id="Path_16815" data-name="Path 16815" d="M52.137,40.1s.008-7.744,0-11.67c-.006-2,3.262-2.054,3.419-.021" transform="translate(7.513 3.877)" fill="none" stroke="#333" stroke-linecap="round" stroke-linejoin="round" stroke-width="0.882"/>
    <path id="Path_16816" data-name="Path 16816" d="M55.125,38.759c0-.01,0-7.43,0-11.875a1.779,1.779,0,0,1,1.766-1.653,1.9,1.9,0,0,1,2,1.844C58.967,30.9,58.9,39.2,58.9,39.2" transform="translate(7.943 3.635)" fill="none" stroke="#333" stroke-linecap="round" stroke-linejoin="round" stroke-width="0.882"/>
    <path id="Path_16817" data-name="Path 16817" d="M73.1,20.107l.03,4.463c-.03-1.563-.045-3.1-.03-4.463" transform="translate(10.533 2.897)" fill="#e6e6e6"/>
    <path id="Path_16818" data-name="Path 16818" d="M73.3,16.527a2.691,2.691,0,0,1,.721-1.188Z" transform="translate(10.562 2.21)" fill="#e6e6e6"/>
    <path id="Path_16819" data-name="Path 16819" d="M77.306,16.21l-1.638-1.022-1.713.211a2.037,2.037,0,0,1,3.351.811" transform="translate(10.656 2.135)" fill="#e6e6e6"/>
    <path id="Path_16820" data-name="Path 16820" d="M91.114,55c-.061,1.412.45,12.457.45,12.457H77.123s.121-10.669-.435-12.562a4.538,4.538,0,0,0-.8-1.637c-1.908-2.285-3.413-2.811-5.245-7.755-.842-2.269-2.825-11.24-3.29-13.419a2.252,2.252,0,0,1,.389-1.848c.978-1.2,2.617-.526,3.772,1.382a22.494,22.494,0,0,1,2.209,6.3,3.425,3.425,0,0,0,.316.857l-.074-12.923v-.016l-.03-4.463c0-.315,0-.616.015-.9,0-.992.015-1.879.058-2.57a2.675,2.675,0,0,1,.151-.8l.721-1.186L74.9,15.9h.015l1.713-.211,1.638,1.022.3.181.092-.406.3-1.4V12.729l.255-.391c.015-.015.029-.045.058-.059a2.68,2.68,0,0,1,1.173-.812c.015,0,.015,0,.03-.015l1.443-.105h.016a2.441,2.441,0,0,1,1.021.466l.692.752c.03.015.03.03.03.045l.27,3.456.405-1.127L85.3,14.2a2.189,2.189,0,0,1,.616-.181l1.548.181c.015-.015.015,0,.03.015l.976.872a1.955,1.955,0,0,1,.256,1.007v5.6c0-2.255,4.748-2.8,4.914,1.216.467,11.526,1.578,23.428-2.074,30.265A3.886,3.886,0,0,0,91.114,55" transform="translate(9.698 1.634)" fill="#e6e6e6"/>
    <path id="Path_16821" data-name="Path 16821" d="M73.1,19.484l.015-.165c-.015.285-.015.586-.015.9Z" transform="translate(10.533 2.783)" fill="#e6e6e6"/>
    <path id="Path_16822" data-name="Path 16822" d="M78.26,11.5l.676-.046a2.67,2.67,0,0,0-1.172.812Z" transform="translate(11.205 1.649)" fill="#e6e6e6"/>
    <path id="Path_16823" data-name="Path 16823" d="M80.646,11.307l.465.511a2.407,2.407,0,0,0-1.021-.466Z" transform="translate(11.54 1.629)" fill="#e6e6e6"/>
    <path id="Path_16824" data-name="Path 16824" d="M83.317,13.645l.331.046a2.216,2.216,0,0,0-.617.18Z" transform="translate(11.964 1.966)" fill="#e6e6e6"/>
    <path id="Path_16825" data-name="Path 16825" d="M86.058,14.842v.781a1.972,1.972,0,0,0-.255-1.007Z" transform="translate(12.364 2.106)" fill="#e6e6e6"/>
    <path id="Path_16826" data-name="Path 16826" d="M81.849,15.612a2.081,2.081,0,0,1,.405-1.126Z" transform="translate(11.794 2.087)" fill="#e6e6e6"/>
    <path id="Path_16827" data-name="Path 16827" d="M83.151,13.842l-.948.737a2.063,2.063,0,0,1,.948-.737" transform="translate(11.845 1.994)" fill="#e6e6e6"/>
    <path id="Path_16828" data-name="Path 16828" d="M85.118,13.87l-1.548-.181a2.713,2.713,0,0,1,1.548.181" transform="translate(12.042 1.966)" fill="#e6e6e6"/>
    <path id="Path_16829" data-name="Path 16829" d="M85.926,14.727l-.977-.872a1.911,1.911,0,0,1,.977.872" transform="translate(12.24 1.996)" fill="#e6e6e6"/>
    <path id="Path_16830" data-name="Path 16830" d="M77.257,13.695a2.712,2.712,0,0,1,.27-1.127v2.344l-.3,1.4c0-.961.015-1.848.03-2.614" transform="translate(11.128 1.81)" fill="#e6e6e6"/>
    <path id="Path_16831" data-name="Path 16831" d="M79.823,11.307a1.989,1.989,0,0,1,.436.046l-1.443.1a3.237,3.237,0,0,1,1.007-.15" transform="translate(11.357 1.629)" fill="#e6e6e6"/>
    <path id="Path_16832" data-name="Path 16832" d="M81.674,12.5l-.691-.752a2.079,2.079,0,0,1,.691.752" transform="translate(11.669 1.693)" fill="#e6e6e6"/>
    <path id="Path_16833" data-name="Path 16833" d="M81.883,13.442v2.464l-.27-3.456a1.9,1.9,0,0,1,.27.992" transform="translate(11.76 1.793)" fill="#e6e6e6"/>
    <path id="Path_16834" data-name="Path 16834" d="M77.717,16.991c-.866-3.383-4.383-2.488-4.547.406-.287,5.051.3,19.548.023,20.875" transform="translate(10.531 2.134)" fill="none" stroke="#333" stroke-linecap="round" stroke-linejoin="round" stroke-width="0.882"/>
    <path id="Path_16835" data-name="Path 16835" d="M88.861,66.377s-.509-11.046-.46-12.463a3.844,3.844,0,0,1,.45-1.817c3.655-6.833,2.541-18.744,2.073-30.27-.164-4.011-4.9-3.46-4.91-1.213" transform="translate(12.394 2.718)" fill="none" stroke="#333" stroke-linecap="round" stroke-linejoin="round" stroke-width="0.882"/>
    <path id="Path_16836" data-name="Path 16836" d="M74.028,36.469a3.173,3.173,0,0,1-.308-.859,22.838,22.838,0,0,0-2.215-6.3c-1.151-1.9-2.8-2.581-3.763-1.371a2.229,2.229,0,0,0-.4,1.844c.46,2.181,2.451,11.154,3.288,13.418,1.828,4.945,3.33,5.47,5.245,7.756a4.531,4.531,0,0,1,.8,1.637c.549,1.891.443,12.566.443,12.566" transform="translate(9.697 3.938)" fill="none" stroke="#333" stroke-linecap="round" stroke-linejoin="round" stroke-width="0.882"/>
    <path id="Path_16837" data-name="Path 16837" d="M86.614,32.059s-.011-10.813,0-16.292c.006-2.787-4.555-2.867-4.773-.03" transform="translate(11.793 1.965)" fill="none" stroke="#333" stroke-linecap="round" stroke-linejoin="round" stroke-width="0.882"/>
    <path id="Path_16838" data-name="Path 16838" d="M82.509,30.189c0-.015,0-10.373,0-16.579A2.483,2.483,0,0,0,80.043,11.3a2.652,2.652,0,0,0-2.8,2.574c-.1,5.344-.014,16.933-.014,16.933" transform="translate(11.124 1.628)" fill="none" stroke="#333" stroke-linecap="round" stroke-linejoin="round" stroke-width="0.882"/>
    <line id="Line_1304" data-name="Line 1304" x2="221.018" transform="translate(0.386 69.325)" fill="#fff"/>
    <line id="Line_1305" data-name="Line 1305" x2="221.018" transform="translate(0.386 69.325)" fill="none" stroke="#333" stroke-linecap="round" stroke-linejoin="round" stroke-width="0.674"/>
    <path id="Path_16839" data-name="Path 16839" d="M84.433,28.632c.284-1.387-.325-16.541-.025-21.819.172-3.026,3.848-3.962,4.753-.426V20.3" transform="translate(12.15 0.592)" fill="#fff"/>
    <path id="Path_16840" data-name="Path 16840" d="M84.433,28.632c.284-1.387-.325-16.541-.025-21.819.172-3.026,3.848-3.962,4.753-.426V20.3" transform="translate(12.15 0.592)" fill="none" stroke="#333" stroke-linecap="round" stroke-linejoin="round" stroke-width="0.882"/>
    <path id="Path_16841" data-name="Path 16841" d="M100.652,10.567c.006-2.349,4.962-2.925,5.132,1.268.49,12.048,1.392,24.5-2.429,31.64a4.015,4.015,0,0,0-.47,1.9c-.051,1.48.744,23.113.744,23.113H88.538s.111-21.243-.463-23.22a4.763,4.763,0,0,0-.833-1.712c-2-2.39-3.571-2.938-5.482-8.106C80.884,33.081,78.8,23.7,78.322,21.423a2.324,2.324,0,0,1,.414-1.928c1.008-1.267,2.73-.554,3.933,1.432a23.87,23.87,0,0,1,2.314,6.587c.07.312.284,1.216.321.9.032-.265-.1-14.846-.1-14.846L85.2,7.17l.279-1.54" transform="translate(11.278 0.811)" fill="#fff"/>
    <path id="Path_16842" data-name="Path 16842" d="M100.652,10.567c.006-2.349,4.962-2.925,5.132,1.268.49,12.048,1.392,24.5-2.429,31.64a4.015,4.015,0,0,0-.47,1.9c-.051,1.48.744,23.113.744,23.113H88.538s.111-21.243-.463-23.22a4.763,4.763,0,0,0-.833-1.712c-2-2.39-3.571-2.938-5.482-8.106C80.884,33.081,78.8,23.7,78.322,21.423a2.324,2.324,0,0,1,.414-1.928c1.008-1.267,2.73-.554,3.933,1.432a23.87,23.87,0,0,1,2.314,6.587c.07.312.284,1.216.321.9.032-.265-.1-14.846-.1-14.846L85.2,7.17l.279-1.54" transform="translate(11.278 0.811)" fill="none" stroke="#333" stroke-linecap="round" stroke-linejoin="round" stroke-width="0.882"/>
    <path id="Path_16843" data-name="Path 16843" d="M98.461,22.138s-.011-11.3,0-17.03c.006-2.913-4.762-3-4.989-.031" transform="translate(13.469 0.416)" fill="#fff"/>
    <path id="Path_16844" data-name="Path 16844" d="M98.461,22.138s-.011-11.3,0-17.03c.006-2.913-4.762-3-4.989-.031" transform="translate(13.469 0.416)" fill="none" stroke="#333" stroke-linecap="round" stroke-linejoin="round" stroke-width="0.882"/>
    <path id="Path_16845" data-name="Path 16845" d="M94.17,20.182c0-.016,0-10.844,0-17.33A2.6,2.6,0,0,0,91.592.441,2.772,2.772,0,0,0,88.67,3.132c-.106,5.585-.014,17.7-.014,17.7" transform="translate(12.769 0.063)" fill="#fff"/>
    <path id="Path_16846" data-name="Path 16846" d="M94.17,20.182c0-.016,0-10.844,0-17.33A2.6,2.6,0,0,0,91.592.441,2.772,2.772,0,0,0,88.67,3.132c-.106,5.585-.014,17.7-.014,17.7" transform="translate(12.769 0.063)" fill="none" stroke="#333" stroke-linecap="round" stroke-linejoin="round" stroke-width="0.882"/>
    <path id="Path_16847" data-name="Path 16847" d="M94.042,35.076l-5.2-4.592c-2.3-2.3-2.65-3.637-2.257-5.2A4.119,4.119,0,0,1,89.616,22.2a4.9,4.9,0,0,1,4.542,1.557.026.026,0,0,0,.053,0A4.9,4.9,0,0,1,98.753,22.2a4.119,4.119,0,0,1,3.032,3.082c.392,1.567.181,2.766-2.312,5.261l-5.145,4.536a.216.216,0,0,1-.286,0" transform="translate(12.456 3.18)" fill="#00b6ed"/>
    <path id="Path_16848" data-name="Path 16848" d="M94.042,35.076l-5.2-4.592c-2.3-2.3-2.65-3.637-2.257-5.2A4.119,4.119,0,0,1,89.616,22.2a4.9,4.9,0,0,1,4.542,1.557.026.026,0,0,0,.053,0A4.9,4.9,0,0,1,98.753,22.2a4.119,4.119,0,0,1,3.032,3.082c.392,1.567.181,2.766-2.312,5.261l-5.145,4.536A.216.216,0,0,1,94.042,35.076Z" transform="translate(12.456 3.18)" fill="none" stroke="#333" stroke-miterlimit="10" stroke-width="1"/>
    <path id="Path_16849" data-name="Path 16849" d="M125.855,55.507c-.056,1.326.423,11.707.423,11.707H112.722s.1-10.029-.408-11.806a4.223,4.223,0,0,0-.748-1.538c-1.805-2.144-3.216-2.638-4.922-7.279-.791-2.117-2.652-10.551-3.09-12.6a2.07,2.07,0,0,1,.367-1.721c.916-1.143,2.454-.508,3.541,1.284a21.168,21.168,0,0,1,2.073,5.909,2.468,2.468,0,0,0,.254.706.208.208,0,0,0,.042.1,30.575,30.575,0,0,0,.056-3.541c-.042-4.683-.281-12.654-.085-16.053.156-2.679,3.385-3.541,4.247-.479h.112c0-1.228,0-2.369.029-3.3a2.491,2.491,0,0,1,2.623-2.413,2.337,2.337,0,0,1,2.313,2.159v2.327c.212-2.666,4.486-2.595,4.486.015v5.261c0-2.1,4.457-2.623,4.6,1.143.452,10.82,1.5,22.005-1.932,28.409a3.351,3.351,0,0,0-.423,1.707" transform="translate(14.914 2.087)" fill="#fff"/>
    <path id="Path_16850" data-name="Path 16850" d="M113.166,19.826c-.812-3.176-4.114-2.336-4.267.381-.27,4.741.277,18.35.022,19.6" transform="translate(15.68 2.562)" fill="#fff"/>
    <path id="Path_16851" data-name="Path 16851" d="M113.166,19.826c-.812-3.176-4.114-2.336-4.267.381-.27,4.741.277,18.35.022,19.6" transform="translate(15.68 2.562)" fill="none" stroke="#333" stroke-linecap="round" stroke-linejoin="round" stroke-width="0.882"/>
    <path id="Path_16852" data-name="Path 16852" d="M123.487,23.228c.006-2.11,4.456-2.627,4.61,1.138.439,10.821,1.485,22-1.946,28.415a3.6,3.6,0,0,0-.422,1.706c-.046,1.331.431,11.7.431,11.7H112.607s.1-10.021-.416-11.8a4.236,4.236,0,0,0-.748-1.537c-1.8-2.146-3.207-2.639-4.923-7.281-.787-2.125-2.655-10.55-3.086-12.6a2.085,2.085,0,0,1,.371-1.73c.9-1.137,2.452-.5,3.533,1.286a21.477,21.477,0,0,1,2.079,5.916,2.953,2.953,0,0,0,.288.807" transform="translate(14.897 3.11)" fill="#fff"/>
    <path id="Path_16853" data-name="Path 16853" d="M123.487,23.228c.006-2.11,4.456-2.627,4.61,1.138.439,10.821,1.485,22-1.946,28.415a3.6,3.6,0,0,0-.422,1.706c-.046,1.331.431,11.7.431,11.7H112.607s.1-10.021-.416-11.8a4.236,4.236,0,0,0-.748-1.537c-1.8-2.146-3.207-2.639-4.923-7.281-.787-2.125-2.655-10.55-3.086-12.6a2.085,2.085,0,0,1,.371-1.73c.9-1.137,2.452-.5,3.533,1.286a21.477,21.477,0,0,1,2.079,5.916,2.953,2.953,0,0,0,.288.807" transform="translate(14.897 3.11)" fill="none" stroke="#333" stroke-linecap="round" stroke-linejoin="round" stroke-width="0.882"/>
    <path id="Path_16854" data-name="Path 16854" d="M121.519,33.972s-.01-10.15,0-15.294c0-2.615-4.277-2.691-4.481-.029" transform="translate(16.864 2.404)" fill="#fff"/>
    <path id="Path_16855" data-name="Path 16855" d="M121.519,33.972s-.01-10.15,0-15.294c0-2.615-4.277-2.691-4.481-.029" transform="translate(16.864 2.404)" fill="none" stroke="#333" stroke-linecap="round" stroke-linejoin="round" stroke-width="0.882"/>
    <path id="Path_16856" data-name="Path 16856" d="M117.666,32.215c0-.015,0-9.739,0-15.564a2.333,2.333,0,0,0-2.314-2.166,2.491,2.491,0,0,0-2.625,2.417c-.095,5.016-.013,15.895-.013,15.895" transform="translate(16.236 2.087)" fill="#fff"/>
    <path id="Path_16857" data-name="Path 16857" d="M117.666,32.215c0-.015,0-9.739,0-15.564a2.333,2.333,0,0,0-2.314-2.166,2.491,2.491,0,0,0-2.625,2.417c-.095,5.016-.013,15.895-.013,15.895" transform="translate(16.236 2.087)" fill="none" stroke="#333" stroke-linecap="round" stroke-linejoin="round" stroke-width="0.882"/>
    <path id="Path_16858" data-name="Path 16858" d="M117.476,45.48l-4.2-3.713c-1.858-1.858-2.141-2.939-1.825-4.206A3.333,3.333,0,0,1,113.9,35.07a3.959,3.959,0,0,1,3.67,1.259l.022.023.022-.023a3.959,3.959,0,0,1,3.67-1.259,3.333,3.333,0,0,1,2.452,2.492c.317,1.267.145,2.237-1.871,4.251l-4.158,3.667a.174.174,0,0,1-.231,0" transform="translate(16.043 5.038)" fill="#00b6ed"/>
    <path id="Path_16859" data-name="Path 16859" d="M117.476,45.48l-4.2-3.713c-1.858-1.858-2.141-2.939-1.825-4.206A3.333,3.333,0,0,1,113.9,35.07a3.959,3.959,0,0,1,3.67,1.259l.022.023.022-.023a3.959,3.959,0,0,1,3.67-1.259,3.333,3.333,0,0,1,2.452,2.492c.317,1.267.145,2.237-1.871,4.251l-4.158,3.667A.174.174,0,0,1,117.476,45.48Z" transform="translate(16.043 5.038)" fill="none" stroke="#333" stroke-miterlimit="10" stroke-width="1"/>
    <path id="Path_16860" data-name="Path 16860" d="M60.827,22.029l.027,4.249c-.027-1.487-.042-2.947-.027-4.249" transform="translate(8.764 3.174)" fill="#fff"/>
    <path id="Path_16861" data-name="Path 16861" d="M61.013,18.619a2.556,2.556,0,0,1,.688-1.13Z" transform="translate(8.791 2.519)" fill="#fff"/>
    <path id="Path_16862" data-name="Path 16862" d="M64.829,18.319l-1.559-.974-1.631.2a1.94,1.94,0,0,1,3.191.772" transform="translate(8.882 2.448)" fill="#fff"/>
    <path id="Path_16863" data-name="Path 16863" d="M77.977,55.256c-.057,1.345.429,11.863.429,11.863H64.654s.116-10.161-.414-11.963a4.292,4.292,0,0,0-.759-1.561c-1.817-2.175-3.248-2.676-4.994-7.384-.8-2.16-2.691-10.7-3.134-12.778a2.138,2.138,0,0,1,.372-1.76c.93-1.145,2.49-.5,3.591,1.316a21.446,21.446,0,0,1,2.1,6,3.265,3.265,0,0,0,.3.816L61.649,27.5v-.014l-.029-4.25c0-.3,0-.587.014-.858,0-.945.015-1.789.058-2.447a2.5,2.5,0,0,1,.143-.759l.686-1.13.014-.014h.015l1.631-.2,1.559.974.286.172.086-.387L66.4,17.25V15l.244-.372a.224.224,0,0,1,.057-.057,2.541,2.541,0,0,1,1.117-.772c.014,0,.014,0,.029-.015l1.374-.1h.014a2.3,2.3,0,0,1,.972.443l.659.716c.029.014.029.029.029.042l.257,3.292.387-1.073.9-.7a2.125,2.125,0,0,1,.586-.172l1.475.172c.014-.015.014,0,.029.015l.93.829a1.867,1.867,0,0,1,.243.959v5.337c0-2.146,4.523-2.661,4.68,1.159.443,10.976,1.5,22.31-1.976,28.821a3.713,3.713,0,0,0-.429,1.731" transform="translate(7.969 1.972)" fill="#fff"/>
    <path id="Path_16864" data-name="Path 16864" d="M60.826,21.436l.013-.158c-.013.272-.013.558-.013.859Z" transform="translate(8.765 3.065)" fill="#fff"/>
    <path id="Path_16865" data-name="Path 16865" d="M65.738,13.829l.643-.043a2.542,2.542,0,0,0-1.115.773Z" transform="translate(9.404 1.986)" fill="#fff"/>
    <path id="Path_16866" data-name="Path 16866" d="M68.009,13.649l.444.486a2.309,2.309,0,0,0-.974-.443Z" transform="translate(9.723 1.966)" fill="#fff"/>
    <path id="Path_16867" data-name="Path 16867" d="M70.553,15.875l.315.043a2.091,2.091,0,0,0-.587.17Z" transform="translate(10.127 2.287)" fill="#fff"/>
    <path id="Path_16868" data-name="Path 16868" d="M73.164,17.016v.744a1.878,1.878,0,0,0-.243-.959Z" transform="translate(10.507 2.42)" fill="#fff"/>
    <path id="Path_16869" data-name="Path 16869" d="M69.156,17.749a1.965,1.965,0,0,1,.386-1.073Z" transform="translate(9.965 2.402)" fill="#fff"/>
    <path id="Path_16870" data-name="Path 16870" d="M70.395,16.063l-.9.7a1.968,1.968,0,0,1,.9-.7" transform="translate(10.013 2.314)" fill="#fff"/>
    <path id="Path_16871" data-name="Path 16871" d="M72.268,16.089l-1.475-.172a2.582,2.582,0,0,1,1.475.172" transform="translate(10.201 2.287)" fill="#fff"/>
    <path id="Path_16872" data-name="Path 16872" d="M73.037,16.905l-.93-.829a1.822,1.822,0,0,1,.93.829" transform="translate(10.39 2.316)" fill="#fff"/>
    <path id="Path_16873" data-name="Path 16873" d="M64.782,15.923a2.592,2.592,0,0,1,.257-1.073v2.232l-.286,1.331c0-.916.015-1.76.029-2.49" transform="translate(9.33 2.139)" fill="#fff"/>
    <path id="Path_16874" data-name="Path 16874" d="M67.225,13.649a1.95,1.95,0,0,1,.415.043l-1.374.1a3.065,3.065,0,0,1,.959-.143" transform="translate(9.548 1.966)" fill="#fff"/>
    <path id="Path_16875" data-name="Path 16875" d="M68.988,14.789l-.658-.715a1.967,1.967,0,0,1,.658.715" transform="translate(9.846 2.027)" fill="#fff"/>
    <path id="Path_16876" data-name="Path 16876" d="M69.189,15.681v2.347l-.259-3.29a1.8,1.8,0,0,1,.259.944" transform="translate(9.932 2.123)" fill="#fff"/>
    <path id="Path_16877" data-name="Path 16877" d="M65.219,19.062c-.825-3.222-4.173-2.369-4.33.387-.272,4.81.281,18.616.023,19.879" transform="translate(8.762 2.448)" fill="#fff"/>
    <path id="Path_16878" data-name="Path 16878" d="M65.219,19.062c-.825-3.222-4.173-2.369-4.33.387-.272,4.81.281,18.616.023,19.879" transform="translate(8.762 2.448)" fill="none" stroke="#333" stroke-linecap="round" stroke-linejoin="round" stroke-width="0.882"/>
    <path id="Path_16879" data-name="Path 16879" d="M75.833,66.091s-.485-10.519-.438-11.868a3.672,3.672,0,0,1,.428-1.731c3.481-6.506,2.42-17.848,1.974-28.825-.154-3.82-4.67-3.295-4.676-1.156" transform="translate(10.536 3.003)" fill="#fff"/>
    <path id="Path_16880" data-name="Path 16880" d="M75.833,66.091s-.485-10.519-.438-11.868a3.672,3.672,0,0,1,.428-1.731c3.481-6.506,2.42-17.848,1.974-28.825-.154-3.82-4.67-3.295-4.676-1.156" transform="translate(10.536 3.003)" fill="none" stroke="#333" stroke-linecap="round" stroke-linejoin="round" stroke-width="0.882"/>
    <path id="Path_16881" data-name="Path 16881" d="M61.707,37.61a3,3,0,0,1-.293-.818,21.734,21.734,0,0,0-2.11-6c-1.1-1.809-2.665-2.459-3.582-1.305a2.12,2.12,0,0,0-.378,1.756c.437,2.077,2.334,10.622,3.13,12.778,1.742,4.708,3.173,5.208,5,7.385a4.334,4.334,0,0,1,.76,1.559c.524,1.8.421,11.966.421,11.966" transform="translate(7.967 4.165)" fill="#fff"/>
    <path id="Path_16882" data-name="Path 16882" d="M61.707,37.61a3,3,0,0,1-.293-.818,21.734,21.734,0,0,0-2.11-6c-1.1-1.809-2.665-2.459-3.582-1.305a2.12,2.12,0,0,0-.378,1.756c.437,2.077,2.334,10.622,3.13,12.778,1.742,4.708,3.173,5.208,5,7.385a4.334,4.334,0,0,1,.76,1.559c.524,1.8.421,11.966.421,11.966" transform="translate(7.967 4.165)" fill="none" stroke="#333" stroke-linecap="round" stroke-linejoin="round" stroke-width="0.882"/>
    <path id="Path_16883" data-name="Path 16883" d="M73.692,33.412s-.01-10.3,0-15.515c0-2.653-4.338-2.73-4.545-.029" transform="translate(9.964 2.287)" fill="#fff"/>
    <path id="Path_16884" data-name="Path 16884" d="M73.692,33.412s-.01-10.3,0-15.515c0-2.653-4.338-2.73-4.545-.029" transform="translate(9.964 2.287)" fill="none" stroke="#333" stroke-linecap="round" stroke-linejoin="round" stroke-width="0.882"/>
    <path id="Path_16885" data-name="Path 16885" d="M69.784,31.629c0-.015,0-9.879,0-15.788a2.366,2.366,0,0,0-2.349-2.2,2.525,2.525,0,0,0-2.661,2.451c-.1,5.091-.014,16.125-.014,16.125" transform="translate(9.327 1.965)" fill="#fff"/>
    <path id="Path_16886" data-name="Path 16886" d="M69.784,31.629c0-.015,0-9.879,0-15.788a2.366,2.366,0,0,0-2.349-2.2,2.525,2.525,0,0,0-2.661,2.451c-.1,5.091-.014,16.125-.014,16.125" transform="translate(9.327 1.965)" fill="none" stroke="#333" stroke-linecap="round" stroke-linejoin="round" stroke-width="0.882"/>
    <path id="Path_16887" data-name="Path 16887" d="M69.591,45.086,65.327,41.32c-1.885-1.884-2.171-2.982-1.851-4.266a3.378,3.378,0,0,1,2.487-2.527A4.012,4.012,0,0,1,69.686,35.8l.023.022.022-.022a4.012,4.012,0,0,1,3.723-1.277,3.378,3.378,0,0,1,2.487,2.527c.321,1.285.148,2.268-1.9,4.313l-4.218,3.719a.176.176,0,0,1-.235,0" transform="translate(9.13 4.96)" fill="#00b6ed"/>
    <path id="Path_16888" data-name="Path 16888" d="M69.591,45.086,65.327,41.32c-1.885-1.884-2.171-2.982-1.851-4.266a3.378,3.378,0,0,1,2.487-2.527A4.012,4.012,0,0,1,69.686,35.8l.023.022.022-.022a4.012,4.012,0,0,1,3.723-1.277,3.378,3.378,0,0,1,2.487,2.527c.321,1.285.148,2.268-1.9,4.313l-4.218,3.719A.176.176,0,0,1,69.591,45.086Z" transform="translate(9.13 4.96)" fill="none" stroke="#333" stroke-miterlimit="10" stroke-width="1"/>
  </g>
</svg>
