<svg xmlns="http://www.w3.org/2000/svg" xmlns:xlink="http://www.w3.org/1999/xlink" width="200.104" height="46.346" viewBox="0 0 200.104 46.346"><defs><clipPath id="a"><rect width="200.104" height="46.346" transform="translate(0 0)" fill="none"/></clipPath></defs><g transform="translate(0 0)"><g clip-path="url(#a)"><path d="M31.531,22.7a2.818,2.818,0,0,1-1.045,2.19l-2.5.523A2.806,2.806,0,1,1,31.531,22.7" fill="#fff"/><path d="M38.152,21.121a2.924,2.924,0,0,1-1.294,2.452l-2.2.46a2.956,2.956,0,1,1,3.5-2.912" fill="#fff"/><path d="M45.221,19.515A3.131,3.131,0,0,1,43.8,22.142l-2.215.448a3.12,3.12,0,1,1,3.634-3.075" fill="#fff"/><path d="M52.751,17.8a3.269,3.269,0,0,1-1.593,2.813l-2.141.448A3.289,3.289,0,1,1,52.751,17.8" fill="#fff"/><path d="M60.778,15.968a3.463,3.463,0,0,1-1.755,3.012l-2.116.436a3.466,3.466,0,1,1,3.871-3.448" fill="#fff"/><path d="M69.329,14.027a3.667,3.667,0,0,1-1.9,3.211l-.013.012-2.041.411a3.653,3.653,0,1,1,3.958-3.634" fill="#fff"/><path d="M78.427,11.948a3.857,3.857,0,0,1-2.153,3.46l-1.879.386a3.86,3.86,0,1,1,4.032-3.846" fill="#fff"/><path d="M88.11,9.733a4.076,4.076,0,0,1-2.427,3.721l-1.718.361A4.083,4.083,0,1,1,88.11,9.733" fill="#fff"/><path d="M98.478,7.38a4.333,4.333,0,0,1-2.639,3.971h-.012l-1.581.336h-.087A4.313,4.313,0,1,1,98.478,7.38" fill="#fff"/><path d="M105.335,9.384a4.692,4.692,0,1,1,4.692-4.692,4.694,4.694,0,0,1-4.692,4.692" fill="#fff"/><path d="M116.86,11.687a4.313,4.313,0,1,1,4.307-4.307,4.31,4.31,0,0,1-4.307,4.307" fill="#fff"/><path d="M126.979,13.815a4.082,4.082,0,1,1,4.083-4.082,4.092,4.092,0,0,1-4.083,4.082" fill="#fff"/><path d="M136.45,15.806a3.865,3.865,0,1,1,3.858-3.858,3.864,3.864,0,0,1-3.858,3.858" fill="#fff"/><path d="M145.349,17.686a3.659,3.659,0,1,1,3.659-3.659,3.665,3.665,0,0,1-3.659,3.659" fill="#fff"/><path d="M153.713,19.441a3.467,3.467,0,1,1,3.459-3.473,3.474,3.474,0,0,1-3.459,3.473" fill="#fff"/><path d="M161.554,21.083A3.286,3.286,0,1,1,164.84,17.8a3.293,3.293,0,0,1-3.286,3.286" fill="#fff"/><path d="M168.909,22.639a3.124,3.124,0,1,1,3.124-3.124,3.133,3.133,0,0,1-3.124,3.124" fill="#fff"/><path d="M175.817,24.083a2.956,2.956,0,1,1,2.962-2.962,2.961,2.961,0,0,1-2.962,2.962" fill="#fff"/><path d="M182.289,25.514a2.807,2.807,0,1,1,2.8-2.813,2.807,2.807,0,0,1-2.8,2.813" fill="#fff"/><path d="M186.956,28.962l-.237,6.011-1.63.7-.1,10.032L26.1,45.926V35.334l-1.444.087-.56-.659v-6.9l1.817-2.029L27.56,25.5l.423-.087,2.5-.523.348-.075,3.087-.634.734-.15,2.2-.46.66-.137,3.2-.66.872-.187,2.215-.447.012-.013.4-.075.435-.1,3.3-.685L49,21.059l2.154-.448,1.083-.224,3.41-.71,1.257-.261,2.115-.435,1.345-.274,3.5-.735,1.506-.311,2.054-.423,1.555-.324,3.635-.746,1.779-.374,1.88-.386,1.891-.4,3.759-.772,2.029-.423,1.73-.361,2.3-.472,3.9-.81,2.34-.485,1.618-.336,2.925-.61,4.007-.821,2.564-.536,2.9.6,4.144.858,6.746,1.394,3.971.81,5.986,1.244,3.846.784,5.451,1.133,3.709.759,5.041,1.045,3.559.735,4.655.958,3.46.722,4.257.871,3.323.685,3.92.809,3.211.659,3.572.747,3.1.635,2.838.585.435.074,2.116.337Z" fill="#fff"/><path d="M102.577,10.15l-3.615.728-2,3.846V26.531l1.514,1.76,1.864-.4.363,18.333h9.6V27.435s1.455,1,1.645,1.047a11.429,11.429,0,0,0,1.855-1.238l.191-12.52-1.855-3.651-3.193-.944a41.886,41.886,0,0,0-6.368.021" fill="#00b6ed"/><path d="M31.531,22.7a2.818,2.818,0,0,1-1.045,2.19,2.858,2.858,0,0,1-1.769.623,2.913,2.913,0,0,1-.734-.1A2.806,2.806,0,1,1,31.531,22.7" fill="#fff"/><path d="M38.152,21.121a2.953,2.953,0,0,1-2.95,2.962,2.6,2.6,0,0,1-.548-.05,2.956,2.956,0,1,1,3.5-2.912" fill="#fff"/><path d="M45.221,19.515a3.1,3.1,0,0,1-3.112,3.124,2.563,2.563,0,0,1-.522-.049,3.12,3.12,0,1,1,3.634-3.075" fill="#fff"/><path d="M52.751,17.8a3.294,3.294,0,0,1-3.286,3.286c-.149,0-.3-.013-.448-.025A3.289,3.289,0,1,1,52.751,17.8" fill="#fff"/><path d="M60.778,15.968a3.463,3.463,0,0,1-1.755,3.012,3.374,3.374,0,0,1-1.717.461c-.137,0-.262-.013-.4-.025a3.466,3.466,0,1,1,3.871-3.448" fill="#fff"/><path d="M69.329,14.027a3.667,3.667,0,0,1-1.9,3.211l-.013.012a3.771,3.771,0,0,1-1.754.436,1.115,1.115,0,0,1-.287-.025,3.653,3.653,0,1,1,3.958-3.634" fill="#fff"/><path d="M78.427,11.948a3.857,3.857,0,0,1-2.153,3.46,3.9,3.9,0,0,1-1.705.4.849.849,0,0,1-.174-.012,3.86,3.86,0,1,1,4.032-3.846" fill="#fff"/><path d="M88.11,9.733a4.076,4.076,0,0,1-2.427,3.721,3.914,3.914,0,0,1-1.656.361h-.062A4.083,4.083,0,1,1,88.11,9.733" fill="#fff"/><path d="M98.478,7.38a4.333,4.333,0,0,1-2.639,3.971h-.012a4.2,4.2,0,0,1-1.581.336h-.087A4.313,4.313,0,1,1,98.478,7.38" fill="#fff"/><path d="M110.027,4.692A4.686,4.686,0,1,1,105.335,0a4.7,4.7,0,0,1,4.692,4.692" fill="#00b6ed"/><path d="M121.167,7.38a4.313,4.313,0,1,1-4.307-4.318,4.309,4.309,0,0,1,4.307,4.318" fill="#fff"/><path d="M131.061,9.733a4.083,4.083,0,1,1-4.083-4.083,4.085,4.085,0,0,1,4.083,4.083" fill="#fff"/><path d="M140.308,11.948a3.865,3.865,0,1,1-3.858-3.871,3.861,3.861,0,0,1,3.858,3.871" fill="#fff"/><path d="M149.008,14.027a3.659,3.659,0,1,1-3.659-3.659,3.665,3.665,0,0,1,3.659,3.659" fill="#fff"/><path d="M157.173,15.968a3.467,3.467,0,1,1-3.46-3.46,3.472,3.472,0,0,1,3.46,3.46" fill="#fff"/><path d="M164.839,17.8a3.292,3.292,0,1,1-3.286-3.286,3.291,3.291,0,0,1,3.286,3.286" fill="#fff"/><path d="M172.033,19.515a3.124,3.124,0,1,1-3.124-3.123,3.134,3.134,0,0,1,3.124,3.123" fill="#fff"/><path d="M178.779,21.121a2.962,2.962,0,1,1-2.962-2.95,2.961,2.961,0,0,1,2.962,2.95" fill="#fff"/><path d="M185.089,22.7a2.8,2.8,0,1,1-2.8-2.8,2.807,2.807,0,0,1,2.8,2.8" fill="#fff"/><path d="M105.335,0a4.693,4.693,0,1,0,4.692,4.693A4.694,4.694,0,0,0,105.335,0m0,8.3a3.6,3.6,0,1,1,3.609-3.609A3.609,3.609,0,0,1,105.335,8.3" fill="#333"/><path d="M105.883,27.792V45.677a.542.542,0,1,1-1.083,0V27.792a.542.542,0,1,1,1.083,0" fill="#333"/><path d="M102.809,10.106a.542.542,0,0,1-.548.535,4.677,4.677,0,0,0-4.667,4.667V26.535a1.288,1.288,0,0,0,2.576,0V16.242a.542.542,0,0,1,1.083,0V45.676a.542.542,0,1,1-1.083,0V28.526a2.371,2.371,0,0,1-.958.361V45.676a.542.542,0,1,1-1.083,0V28.787a2.391,2.391,0,0,1-1.63-2.252V15.308a5.741,5.741,0,0,1,2.265-4.567,5.8,5.8,0,0,1,3.5-1.183.538.538,0,0,1,.51.361.5.5,0,0,1,.038.187" fill="#333"/><path d="M114.508,15.308V26.535a2.4,2.4,0,0,1-1.618,2.252V45.676a.548.548,0,1,1-1.1,0V28.887a2.25,2.25,0,0,1-.946-.361v17.15a.548.548,0,1,1-1.1,0V16.242a.548.548,0,0,1,1.1,0V26.535a1.288,1.288,0,0,0,2.576,0V15.308a4.684,4.684,0,0,0-4.667-4.667.542.542,0,0,1-.548-.535.183.183,0,0,1,.025-.112.525.525,0,0,1,.523-.436,5.74,5.74,0,0,1,5.75,5.75" fill="#333"/><path d="M94.159,3.062a4.313,4.313,0,1,0,0,8.625h.087a4.194,4.194,0,0,0,1.58-.336h.013a4.314,4.314,0,0,0-1.68-8.289m0,7.542A3.23,3.23,0,1,1,97.383,7.38,3.225,3.225,0,0,1,94.159,10.6" fill="#333"/><path d="M94.706,28.389V45.677a.548.548,0,0,1-1.1,0V28.389a.548.548,0,0,1,1.1,0" fill="#333"/><path d="M91.906,12.3a.552.552,0,0,1-.547.547,4.2,4.2,0,0,0-4.195,4.195v10.2a1.12,1.12,0,0,0,2.241,0V17.885a.552.552,0,0,1,.547-.547.541.541,0,0,1,.535.547V45.677a.542.542,0,0,1-.535.548.553.553,0,0,1-.547-.548V29.136a2.077,2.077,0,0,1-.6.249V45.677a.553.553,0,0,1-.547.548.543.543,0,0,1-.536-.548v-16.3a2.2,2.2,0,0,1-1.655-2.129v-10.2a5.325,5.325,0,0,1,5.29-5.29.546.546,0,0,1,.522.423.206.206,0,0,1,.025.125" fill="#333"/><path d="M84.027,5.65a4.083,4.083,0,0,0-.062,8.165h.062a3.93,3.93,0,0,0,1.656-.361,4.076,4.076,0,0,0-1.656-7.8m0,7.082a3,3,0,1,1,3-3,3,3,0,0,1-3,3" fill="#333"/><path d="M84.575,29.447V45.676a.547.547,0,1,1-1.095,0V29.447a.548.548,0,0,1,1.095,0" fill="#333"/><path d="M81.949,14.35a.553.553,0,0,1-.548.548,3.915,3.915,0,0,0-3.908,3.908v9.571a1.021,1.021,0,0,0,2.041,0V19.6a.544.544,0,0,1,.548-.547.533.533,0,0,1,.535.547V45.677a.542.542,0,0,1-.535.548.553.553,0,0,1-.548-.548V30.219a2.9,2.9,0,0,1-.448.187V45.677a.553.553,0,0,1-.547.548A.542.542,0,0,1,78,45.677V30.418a2.1,2.1,0,0,1-1.594-2.041V18.806a5.024,5.024,0,0,1,4.991-5,.523.523,0,0,1,.523.435.184.184,0,0,1,.025.112" fill="#333"/><path d="M74.569,8.077a3.86,3.86,0,0,0-.174,7.716.785.785,0,0,0,.174.013,3.9,3.9,0,0,0,1.705-.4,3.866,3.866,0,0,0-1.705-7.331m0,6.646a2.775,2.775,0,1,1,2.775-2.775,2.778,2.778,0,0,1-2.775,2.775" fill="#333"/><path d="M75.116,30.455V45.676a.547.547,0,1,1-1.095,0V30.455a.547.547,0,1,1,1.095,0" fill="#333"/><path d="M72.64,16.279a.542.542,0,0,1-.535.548,3.635,3.635,0,0,0-3.634,3.621v9a.92.92,0,1,0,1.841,0V21.2a.548.548,0,0,1,1.1,0v24.48a.548.548,0,1,1-1.1,0V31.227a1.923,1.923,0,0,1-.373.149v14.3a.548.548,0,1,1-1.1,0V31.388l.012-.012a2,2,0,0,1-1.468-1.929v-9a4.716,4.716,0,0,1,4.717-4.716.51.51,0,0,1,.51.435.184.184,0,0,1,.025.112" fill="#333"/><path d="M65.657,10.367a3.652,3.652,0,0,0-.286,7.294,1.1,1.1,0,0,0,.286.025,3.775,3.775,0,0,0,1.755-.436l.013-.013a3.66,3.66,0,0,0-1.768-6.87m0,6.223a2.57,2.57,0,1,1,2.576-2.563,2.56,2.56,0,0,1-2.576,2.563" fill="#333"/><path d="M66.205,31.388V45.676a.542.542,0,1,1-1.083,0V31.388a.542.542,0,1,1,1.083,0" fill="#333"/><path d="M63.89,18.084a.538.538,0,0,1-.548.548A3.383,3.383,0,0,0,59.97,22v8.439a.834.834,0,1,0,1.667,0V22.714a.547.547,0,0,1,1.095,0V45.677a.547.547,0,1,1-1.095,0V32.161a1.125,1.125,0,0,1-.286.111v13.4a.553.553,0,0,1-.548.548.542.542,0,0,1-.535-.548v-13.4A1.908,1.908,0,0,1,58.9,30.555a.357.357,0,0,1-.012-.112V22a4.492,4.492,0,0,1,4.455-4.455.5.5,0,0,1,.523.423.184.184,0,0,1,.025.112" fill="#333"/><path d="M57.306,12.508a3.465,3.465,0,0,0-.4,6.908c.136.012.261.025.4.025a3.383,3.383,0,0,0,1.717-.46,3.461,3.461,0,0,0-1.717-6.473m0,5.85a2.384,2.384,0,1,1,2.377-2.39,2.38,2.38,0,0,1-2.377,2.39" fill="#333"/><path d="M57.854,32.26V45.677a.548.548,0,0,1-1.1,0V32.26a.548.548,0,0,1,1.1,0" fill="#333"/><path d="M55.676,19.789a.545.545,0,0,1-.548.548A3.126,3.126,0,0,0,52,23.461v7.915a.747.747,0,1,0,1.494,0V24.121a.553.553,0,0,1,.548-.548.542.542,0,0,1,.535.548V45.677a.542.542,0,0,1-.535.548.553.553,0,0,1-.548-.548V33.057a1.146,1.146,0,0,1-.212.062V45.677a.542.542,0,0,1-.535.548.553.553,0,0,1-.548-.548V33.119a1.833,1.833,0,0,1-1.281-1.631c0-.037-.013-.074-.013-.112V23.461a4.224,4.224,0,0,1,4.219-4.219.514.514,0,0,1,.523.435.184.184,0,0,1,.025.112" fill="#333"/><path d="M49.465,14.512a3.289,3.289,0,0,0-.448,6.547c.149.012.3.025.448.025a3.286,3.286,0,0,0,0-6.572m0,5.489a2.2,2.2,0,1,1,2.2-2.2,2.2,2.2,0,0,1-2.2,2.2" fill="#333"/><path d="M50.013,33.094V45.677a.548.548,0,1,1-1.1,0V33.094a.548.548,0,0,1,1.1,0" fill="#333"/><path d="M47.972,21.382a.553.553,0,0,1-.548.548,2.905,2.905,0,0,0-2.912,2.9V32.26a.677.677,0,0,0,.672.672.67.67,0,0,0,.672-.672V25.452A.553.553,0,0,1,46.4,24.9a.542.542,0,0,1,.535.548V45.676a.542.542,0,0,1-.535.548.553.553,0,0,1-.548-.548v-11.8a.45.45,0,0,1-.124.037V45.676a.553.553,0,0,1-.548.548.542.542,0,0,1-.535-.548V33.915a1.743,1.743,0,0,1-1.207-1.543.331.331,0,0,1-.013-.112V24.829a4.036,4.036,0,0,1,1.22-2.875,3.944,3.944,0,0,1,2.775-1.12.524.524,0,0,1,.523.436.183.183,0,0,1,.025.112" fill="#333"/><path d="M42.11,16.392a3.12,3.12,0,0,0-.522,6.2,2.43,2.43,0,0,0,.522.05,3.124,3.124,0,0,0,0-6.247m0,5.152a2.029,2.029,0,1,1,2.029-2.028,2.031,2.031,0,0,1-2.029,2.028" fill="#333"/><path d="M42.645,33.866V45.677a.542.542,0,1,1-1.083,0V33.866a.542.542,0,1,1,1.083,0" fill="#333"/><path d="M40.728,22.876a.541.541,0,0,1-.535.547,2.7,2.7,0,0,0-2.7,2.689v6.97a.6.6,0,0,0,1.195,0V26.7a.542.542,0,1,1,1.083,0v18.98a.542.542,0,1,1-1.083,0V34.65c-.025.012-.038.012-.05.025v11a.548.548,0,1,1-1.1,0v-11a1.683,1.683,0,0,1-1.12-1.482.325.325,0,0,1-.013-.111v-6.97a3.783,3.783,0,0,1,3.784-3.784.544.544,0,0,1,.522.448.234.234,0,0,1,.013.1" fill="#333"/><path d="M35.2,18.171a2.956,2.956,0,0,0-.548,5.862,2.661,2.661,0,0,0,.548.05,2.956,2.956,0,0,0,0-5.912M35.2,23a1.874,1.874,0,1,1,0-3.747A1.874,1.874,0,0,1,35.2,23" fill="#333"/><path d="M35.737,34.587V45.676a.542.542,0,1,1-1.083,0V34.587a.542.542,0,0,1,1.083,0" fill="#333"/><path d="M33.945,24.282a.541.541,0,0,1-.547.535,2.5,2.5,0,0,0-2.49,2.5v6.546a.523.523,0,0,0,1.046,0v-6a.552.552,0,0,1,.547-.547.542.542,0,0,1,.536.547V45.677a.539.539,0,0,1-1.071.1.546.546,0,0,1-1.083-.1V35.371a1.627,1.627,0,0,1-1.058-1.406c0-.025-.012-.062-.012-.1V27.319A3.591,3.591,0,0,1,33.4,23.734a.534.534,0,0,1,.522.448.134.134,0,0,1,.025.1" fill="#333"/><path d="M28.718,19.9a2.806,2.806,0,0,0-.735,5.513,2.921,2.921,0,0,0,.735.1,2.852,2.852,0,0,0,1.767-.623,2.806,2.806,0,0,0-1.767-4.99M27,22.7a1.724,1.724,0,1,1,1.718,1.717A1.722,1.722,0,0,1,27,22.7" fill="#333"/><path d="M29.265,35.309V45.676a.542.542,0,1,1-1.083,0V35.309a.542.542,0,1,1,1.083,0" fill="#333"/><path d="M27.585,25.651a.543.543,0,0,1-.547.547,2.3,2.3,0,0,0-2.29,2.3v6.124a.445.445,0,0,0,.447.447.457.457,0,0,0,.461-.447V29.011a.542.542,0,1,1,1.083,0V45.676a.542.542,0,1,1-1.083,0V36.081a1.466,1.466,0,0,1-.461.087,1.546,1.546,0,0,1-1.53-1.444c0-.025-.013-.062-.013-.1V28.5a3.379,3.379,0,0,1,1-2.39l.012-.012a3.338,3.338,0,0,1,2.378-.983.525.525,0,0,1,.522.386.588.588,0,0,1,.025.149" fill="#333"/><path d="M116.86,3.062a4.313,4.313,0,1,0,4.307,4.318,4.32,4.32,0,0,0-4.307-4.318m0,7.542a3.23,3.23,0,1,1,3.224-3.224A3.235,3.235,0,0,1,116.86,10.6" fill="#333"/><path d="M117.395,28.389V45.677a.542.542,0,1,1-1.083,0V28.389a.542.542,0,1,1,1.083,0" fill="#333"/><path d="M124.938,17.038V27.244a2.189,2.189,0,0,1-1.655,2.128c0,.025.012.05.012.075V45.676a.548.548,0,1,1-1.1,0V29.447a.572.572,0,0,0,.012-.062,1.979,1.979,0,0,1-.6-.249v16.54a.548.548,0,1,1-1.1,0V17.884a.548.548,0,0,1,1.1,0v9.36a1.12,1.12,0,0,0,2.24,0V17.038a4.2,4.2,0,0,0-4.194-4.194.553.553,0,0,1-.548-.548v-.012a.551.551,0,0,1,.548-.536,5.323,5.323,0,0,1,5.277,5.29" fill="#333"/><path d="M126.979,5.65a4.082,4.082,0,1,0,4.083,4.082,4.093,4.093,0,0,0-4.083-4.082m0,7.082a3,3,0,1,1,3-3,3,3,0,0,1-3,3" fill="#333"/><path d="M127.527,29.447V45.676a.542.542,0,1,1-1.083,0V29.447a.542.542,0,0,1,1.083,0" fill="#333"/><path d="M134.608,18.806v9.571a2.111,2.111,0,0,1-1.593,2.041V45.677a.553.553,0,0,1-.548.547.542.542,0,0,1-.535-.547V30.406a2.507,2.507,0,0,1-.448-.187V45.677a.547.547,0,0,1-1.095,0V19.6a.547.547,0,0,1,1.095,0v8.775a1.015,1.015,0,1,0,2.029,0V18.806a3.9,3.9,0,0,0-3.9-3.908.555.555,0,0,1-.548-.51V14.35a.553.553,0,0,1,.548-.547,5.013,5.013,0,0,1,4.991,5" fill="#333"/><path d="M136.45,8.077a3.865,3.865,0,1,0,3.858,3.871,3.875,3.875,0,0,0-3.858-3.871m0,6.646a2.775,2.775,0,1,1,2.775-2.775,2.788,2.788,0,0,1-2.775,2.775" fill="#333"/><path d="M136.986,30.455V45.676a.542.542,0,1,1-1.084,0V30.455a.542.542,0,1,1,1.084,0" fill="#333"/><path d="M143.632,20.449v9a2.006,2.006,0,0,1-1.47,1.929v14.3a.541.541,0,1,1-1.082,0v-14.3a2.116,2.116,0,0,1-.386-.15v14.45a.542.542,0,1,1-1.083,0V21.2a.542.542,0,0,1,1.083,0v8.252a.926.926,0,0,0,.921.92.937.937,0,0,0,.933-.92v-9a3.636,3.636,0,0,0-3.634-3.622.538.538,0,0,1-.535-.485.091.091,0,0,1-.013-.062.553.553,0,0,1,.548-.548,4.739,4.739,0,0,1,4.718,4.717" fill="#333"/><path d="M145.349,10.367a3.66,3.66,0,1,0,3.659,3.66,3.665,3.665,0,0,0-3.659-3.66m0,6.223a2.57,2.57,0,1,1,2.576-2.563,2.571,2.571,0,0,1-2.576,2.563" fill="#333"/><path d="M145.9,31.388V45.676a.548.548,0,1,1-1.1,0V31.388a.548.548,0,0,1,1.1,0" fill="#333"/><path d="M152.132,22v8.438c0,.038-.012.075-.012.113a1.908,1.908,0,0,1-1.369,1.717v13.4a.553.553,0,0,1-.548.548.542.542,0,0,1-.535-.548v-13.4a1.477,1.477,0,0,1-.3-.112V45.676a.542.542,0,0,1-.535.548.553.553,0,0,1-.548-.548V22.713a.544.544,0,0,1,.548-.547.534.534,0,0,1,.535.547v7.729a.834.834,0,1,0,1.668,0V22a3.376,3.376,0,0,0-3.373-3.373.536.536,0,0,1-.535-.448.26.26,0,0,1-.013-.1.543.543,0,0,1,.548-.536,4.481,4.481,0,0,1,3.286,1.444A4.435,4.435,0,0,1,152.132,22" fill="#333"/><path d="M153.713,12.508a3.467,3.467,0,1,0,3.459,3.46,3.472,3.472,0,0,0-3.459-3.46m0,5.85a2.384,2.384,0,1,1,2.377-2.39,2.391,2.391,0,0,1-2.377,2.39" fill="#333"/><path d="M154.248,32.26V45.677a.542.542,0,1,1-1.083,0V32.26a.542.542,0,0,1,1.083,0" fill="#333"/><path d="M160.1,23.461v7.916a.325.325,0,0,1-.013.111,1.8,1.8,0,0,1-1.281,1.631V45.677a.543.543,0,0,1-.536.548.553.553,0,0,1-.547-.548V33.119a.917.917,0,0,1-.2-.062v12.62a.548.548,0,1,1-1.1,0V24.121a.548.548,0,1,1,1.1,0v7.256a.747.747,0,0,0,1.494,0V23.461a3.128,3.128,0,0,0-3.136-3.124.547.547,0,0,1-.523-.423.2.2,0,0,1-.025-.125.553.553,0,0,1,.548-.547,4.2,4.2,0,0,1,4.219,4.219" fill="#333"/><path d="M161.554,14.512A3.286,3.286,0,1,0,164.84,17.8a3.3,3.3,0,0,0-3.286-3.286m0,5.489a2.2,2.2,0,1,1,2.2-2.2,2.2,2.2,0,0,1-2.2,2.2" fill="#333"/><path d="M162.089,33.094V45.677a.542.542,0,0,1-.535.548.553.553,0,0,1-.548-.548V33.094a.553.553,0,0,1,.548-.547.542.542,0,0,1,.535.547" fill="#333"/><path d="M167.578,24.829v7.542a1.742,1.742,0,0,1-1.208,1.544V45.676a.553.553,0,0,1-.547.548.542.542,0,0,1-.535-.548V33.915a.382.382,0,0,1-.125-.038v11.8a.548.548,0,1,1-1.1,0V25.452a.548.548,0,1,1,1.1,0V32.26a.666.666,0,1,0,1.332,0V24.829a2.9,2.9,0,0,0-2.9-2.9.54.54,0,0,1-.523-.387.641.641,0,0,1-.024-.161.544.544,0,0,1,.547-.548,3.987,3.987,0,0,1,3.983,4" fill="#333"/><path d="M168.909,16.392a3.123,3.123,0,1,0,3.124,3.124,3.133,3.133,0,0,0-3.124-3.124m0,5.152a2.029,2.029,0,1,1,2.029-2.028,2.029,2.029,0,0,1-2.029,2.028" fill="#333"/><path d="M169.457,33.866V45.677a.548.548,0,1,1-1.1,0V33.866a.548.548,0,1,1,1.1,0" fill="#333"/><path d="M174.609,26.112v6.97c0,.037-.012.074-.012.112a1.715,1.715,0,0,1-1.133,1.481v11a.542.542,0,1,1-1.083,0v-11c-.024-.013-.037-.013-.049-.025V45.677a.548.548,0,0,1-1.1,0V26.7a.548.548,0,0,1,1.1,0v6.385a.591.591,0,1,0,1.182,0v-6.97a2.693,2.693,0,0,0-2.689-2.688.54.54,0,0,1-.5-.349.358.358,0,0,1-.05-.2.553.553,0,0,1,.547-.548,3.789,3.789,0,0,1,3.784,3.784" fill="#333"/><path d="M175.817,18.171a2.956,2.956,0,1,0,2.962,2.95,2.959,2.959,0,0,0-2.962-2.95m0,4.829a1.874,1.874,0,1,1,0-3.747,1.874,1.874,0,0,1,0,3.747" fill="#333"/><path d="M176.364,34.587V45.676a.548.548,0,1,1-1.1,0V34.587a.548.548,0,0,1,1.1,0" fill="#333"/><path d="M181.193,27.319v6.547a.229.229,0,0,1-.013.1,1.607,1.607,0,0,1-1.057,1.407v10.3a.539.539,0,0,1-1.071.1.546.546,0,0,1-1.083-.1V27.867a.553.553,0,0,1,.548-.548.542.542,0,0,1,.535.548v6a.529.529,0,0,0,1.058,0V27.319a2.5,2.5,0,0,0-2.5-2.5.556.556,0,0,1-.5-.312v-.012a.6.6,0,0,1-.037-.212.542.542,0,0,1,.536-.547,3.59,3.59,0,0,1,3.584,3.584" fill="#333"/><path d="M182.289,19.9a2.807,2.807,0,1,0,2.8,2.8,2.8,2.8,0,0,0-2.8-2.8m0,4.518a1.718,1.718,0,1,1,1.718-1.717,1.721,1.721,0,0,1-1.718,1.717" fill="#333"/><path d="M182.837,35.309V45.676a.548.548,0,0,1-1.1,0V35.309a.548.548,0,0,1,1.1,0" fill="#333"/><path d="M187.354,28.5v6.124a.249.249,0,0,1-.012.1,1.531,1.531,0,0,1-1.531,1.444,1.322,1.322,0,0,1-.448-.087v9.595a.548.548,0,1,1-1.1,0V29.011a.548.548,0,1,1,1.1,0v5.614a.446.446,0,0,0,.448.447.456.456,0,0,0,.46-.447V28.5a2.305,2.305,0,0,0-2.3-2.3.511.511,0,0,1-.5-.361.352.352,0,0,1-.05-.186.542.542,0,0,1,.548-.535,3.377,3.377,0,0,1,3.385,3.385" fill="#333"/><line x2="199.43" transform="translate(0.337 46.009)" fill="#fff"/><path d="M199.43.337H0A.337.337,0,0,1-.337,0,.337.337,0,0,1,0-.337H199.43a.337.337,0,0,1,.337.337A.337.337,0,0,1,199.43.337Z" transform="translate(0.337 46.009)" fill="#333"/><path d="M27.585,25.651a.543.543,0,0,1-.547.547,2.3,2.3,0,0,0-2.29,2.3v6.124a.445.445,0,0,0,.447.447.457.457,0,0,0,.461-.447V29.011a.542.542,0,1,1,1.083,0V45.676a.542.542,0,1,1-1.083,0V36.081a1.466,1.466,0,0,1-.461.087,1.546,1.546,0,0,1-1.53-1.444c0-.025-.013-.062-.013-.1V28.5a3.379,3.379,0,0,1,1-2.39l.012-.012a3.338,3.338,0,0,1,2.378-.983.525.525,0,0,1,.522.386.588.588,0,0,1,.025.149" fill="#333"/><path d="M29.265,35.309V45.676a.542.542,0,1,1-1.083,0V35.309a.542.542,0,1,1,1.083,0" fill="#333"/><path d="M33.945,24.282a.541.541,0,0,1-.547.535,2.5,2.5,0,0,0-2.49,2.5v6.546a.523.523,0,0,0,1.046,0v-6a.552.552,0,0,1,.547-.547.542.542,0,0,1,.536.547V45.677a.539.539,0,0,1-1.071.1.546.546,0,0,1-1.083-.1V35.371a1.627,1.627,0,0,1-1.058-1.406c0-.025-.012-.062-.012-.1V27.319A3.591,3.591,0,0,1,33.4,23.734a.534.534,0,0,1,.522.448.134.134,0,0,1,.025.1" fill="#333"/><path d="M35.737,34.587V45.676a.542.542,0,1,1-1.083,0V34.587a.542.542,0,0,1,1.083,0" fill="#333"/><path d="M40.728,22.876a.541.541,0,0,1-.535.547,2.7,2.7,0,0,0-2.7,2.689v6.97a.6.6,0,0,0,1.195,0V26.7a.542.542,0,1,1,1.083,0v18.98a.542.542,0,1,1-1.083,0V34.65c-.025.012-.038.012-.05.025v11a.548.548,0,1,1-1.1,0v-11a1.683,1.683,0,0,1-1.12-1.482.325.325,0,0,1-.013-.111v-6.97a3.783,3.783,0,0,1,3.784-3.784.544.544,0,0,1,.522.448.234.234,0,0,1,.013.1" fill="#333"/><path d="M42.645,33.866V45.677a.542.542,0,1,1-1.083,0V33.866a.542.542,0,1,1,1.083,0" fill="#333"/><path d="M47.972,21.382a.553.553,0,0,1-.548.548,2.905,2.905,0,0,0-2.912,2.9V32.26a.677.677,0,0,0,.672.672.67.67,0,0,0,.672-.672V25.452A.553.553,0,0,1,46.4,24.9a.542.542,0,0,1,.535.548V45.676a.542.542,0,0,1-.535.548.553.553,0,0,1-.548-.548v-11.8a.45.45,0,0,1-.124.037V45.676a.553.553,0,0,1-.548.548.542.542,0,0,1-.535-.548V33.915a1.743,1.743,0,0,1-1.207-1.543.331.331,0,0,1-.013-.112V24.829a4.036,4.036,0,0,1,1.22-2.875,3.944,3.944,0,0,1,2.775-1.12.524.524,0,0,1,.523.436.183.183,0,0,1,.025.112" fill="#333"/><path d="M50.013,33.094V45.677a.548.548,0,1,1-1.1,0V33.094a.548.548,0,0,1,1.1,0" fill="#333"/><path d="M55.676,19.789a.545.545,0,0,1-.548.548A3.126,3.126,0,0,0,52,23.461v7.915a.747.747,0,1,0,1.494,0V24.121a.553.553,0,0,1,.548-.548.542.542,0,0,1,.535.548V45.677a.542.542,0,0,1-.535.548.553.553,0,0,1-.548-.548V33.057a1.146,1.146,0,0,1-.212.062V45.677a.542.542,0,0,1-.535.548.553.553,0,0,1-.548-.548V33.119a1.833,1.833,0,0,1-1.281-1.631c0-.037-.013-.074-.013-.112V23.461a4.224,4.224,0,0,1,4.219-4.219.514.514,0,0,1,.523.435.184.184,0,0,1,.025.112" fill="#333"/><path d="M57.854,32.26V45.677a.548.548,0,0,1-1.1,0V32.26a.548.548,0,0,1,1.1,0" fill="#333"/><path d="M63.89,18.084a.538.538,0,0,1-.548.548A3.383,3.383,0,0,0,59.97,22v8.439a.834.834,0,1,0,1.667,0V22.714a.547.547,0,0,1,1.095,0V45.677a.547.547,0,1,1-1.095,0V32.161a1.125,1.125,0,0,1-.286.111v13.4a.553.553,0,0,1-.548.548.542.542,0,0,1-.535-.548v-13.4A1.908,1.908,0,0,1,58.9,30.555a.357.357,0,0,1-.012-.112V22a4.492,4.492,0,0,1,4.455-4.455.5.5,0,0,1,.523.423.184.184,0,0,1,.025.112" fill="#333"/><path d="M66.205,31.388V45.676a.542.542,0,1,1-1.083,0V31.388a.542.542,0,1,1,1.083,0" fill="#333"/><path d="M72.64,16.279a.542.542,0,0,1-.535.548,3.635,3.635,0,0,0-3.634,3.621v9a.92.92,0,1,0,1.841,0V21.2a.548.548,0,0,1,1.1,0v24.48a.548.548,0,1,1-1.1,0V31.227a1.923,1.923,0,0,1-.373.149v14.3a.548.548,0,1,1-1.1,0V31.388l.012-.012a2,2,0,0,1-1.468-1.929v-9a4.716,4.716,0,0,1,4.717-4.716.51.51,0,0,1,.51.435.184.184,0,0,1,.025.112" fill="#333"/><path d="M75.116,30.455V45.676a.547.547,0,1,1-1.095,0V30.455a.547.547,0,1,1,1.095,0" fill="#333"/><path d="M81.949,14.35a.553.553,0,0,1-.548.548,3.915,3.915,0,0,0-3.908,3.908v9.571a1.021,1.021,0,0,0,2.041,0V19.6a.544.544,0,0,1,.548-.547.533.533,0,0,1,.535.547V45.677a.542.542,0,0,1-.535.548.553.553,0,0,1-.548-.548V30.219a2.9,2.9,0,0,1-.448.187V45.677a.553.553,0,0,1-.547.548A.542.542,0,0,1,78,45.677V30.418a2.1,2.1,0,0,1-1.594-2.041V18.806a5.024,5.024,0,0,1,4.991-5,.523.523,0,0,1,.523.435.184.184,0,0,1,.025.112" fill="#333"/><path d="M84.575,29.447V45.676a.547.547,0,1,1-1.095,0V29.447a.548.548,0,0,1,1.095,0" fill="#333"/><path d="M91.906,12.3a.552.552,0,0,1-.547.547,4.2,4.2,0,0,0-4.195,4.195v10.2a1.12,1.12,0,0,0,2.241,0V17.885a.552.552,0,0,1,.547-.547.541.541,0,0,1,.535.547V45.677a.542.542,0,0,1-.535.548.553.553,0,0,1-.547-.548V29.136a2.077,2.077,0,0,1-.6.249V45.677a.553.553,0,0,1-.547.548.543.543,0,0,1-.536-.548v-16.3a2.2,2.2,0,0,1-1.655-2.129v-10.2a5.325,5.325,0,0,1,5.29-5.29.546.546,0,0,1,.522.423.206.206,0,0,1,.025.125" fill="#333"/><path d="M94.706,28.389V45.677a.548.548,0,0,1-1.1,0V28.389a.548.548,0,0,1,1.1,0" fill="#333"/><path d="M102.809,10.106a.542.542,0,0,1-.548.535,4.677,4.677,0,0,0-4.667,4.667V26.535a1.288,1.288,0,0,0,2.576,0V16.242a.542.542,0,0,1,1.083,0V45.676a.542.542,0,1,1-1.083,0V28.526a2.371,2.371,0,0,1-.958.361V45.676a.542.542,0,1,1-1.083,0V28.787a2.391,2.391,0,0,1-1.63-2.252V15.308a5.741,5.741,0,0,1,2.265-4.567,5.8,5.8,0,0,1,3.5-1.183.538.538,0,0,1,.51.361.5.5,0,0,1,.038.187" fill="#333"/><path d="M105.883,27.792V45.677a.542.542,0,1,1-1.083,0V27.792a.542.542,0,1,1,1.083,0" fill="#333"/><path d="M114.508,15.308V26.535a2.4,2.4,0,0,1-1.618,2.252V45.676a.548.548,0,1,1-1.1,0V28.887a2.25,2.25,0,0,1-.946-.361v17.15a.548.548,0,1,1-1.1,0V16.242a.548.548,0,0,1,1.1,0V26.535a1.288,1.288,0,0,0,2.576,0V15.308a4.684,4.684,0,0,0-4.667-4.667.542.542,0,0,1-.548-.535.183.183,0,0,1,.025-.112.525.525,0,0,1,.523-.436,5.74,5.74,0,0,1,5.75,5.75" fill="#333"/><path d="M117.395,28.389V45.677a.542.542,0,1,1-1.083,0V28.389a.542.542,0,1,1,1.083,0" fill="#333"/><path d="M124.938,17.038V27.244a2.189,2.189,0,0,1-1.655,2.128c0,.025.012.05.012.075V45.676a.548.548,0,1,1-1.1,0V29.447a.572.572,0,0,0,.012-.062,1.979,1.979,0,0,1-.6-.249v16.54a.548.548,0,1,1-1.1,0V17.884a.548.548,0,0,1,1.1,0v9.36a1.12,1.12,0,0,0,2.24,0V17.038a4.2,4.2,0,0,0-4.194-4.194.553.553,0,0,1-.548-.548v-.012a.551.551,0,0,1,.548-.536,5.323,5.323,0,0,1,5.277,5.29" fill="#333"/><path d="M127.527,29.447V45.676a.542.542,0,1,1-1.083,0V29.447a.542.542,0,0,1,1.083,0" fill="#333"/><path d="M134.608,18.806v9.571a2.111,2.111,0,0,1-1.593,2.041V45.677a.553.553,0,0,1-.548.547.542.542,0,0,1-.535-.547V30.406a2.507,2.507,0,0,1-.448-.187V45.677a.547.547,0,0,1-1.095,0V19.6a.547.547,0,0,1,1.095,0v8.775a1.015,1.015,0,1,0,2.029,0V18.806a3.9,3.9,0,0,0-3.9-3.908.555.555,0,0,1-.548-.51V14.35a.553.553,0,0,1,.548-.547,5.013,5.013,0,0,1,4.991,5" fill="#333"/><path d="M136.986,30.455V45.676a.542.542,0,1,1-1.084,0V30.455a.542.542,0,1,1,1.084,0" fill="#333"/><path d="M143.632,20.449v9a2.006,2.006,0,0,1-1.47,1.929v14.3a.541.541,0,1,1-1.082,0v-14.3a2.116,2.116,0,0,1-.386-.15v14.45a.542.542,0,1,1-1.083,0V21.2a.542.542,0,0,1,1.083,0v8.252a.926.926,0,0,0,.921.92.937.937,0,0,0,.933-.92v-9a3.636,3.636,0,0,0-3.634-3.622.538.538,0,0,1-.535-.485.091.091,0,0,1-.013-.062.553.553,0,0,1,.548-.548,4.739,4.739,0,0,1,4.718,4.717" fill="#333"/><path d="M145.9,31.388V45.676a.548.548,0,1,1-1.1,0V31.388a.548.548,0,0,1,1.1,0" fill="#333"/><path d="M152.132,22v8.438c0,.038-.012.075-.012.113a1.908,1.908,0,0,1-1.369,1.717v13.4a.553.553,0,0,1-.548.548.542.542,0,0,1-.535-.548v-13.4a1.477,1.477,0,0,1-.3-.112V45.676a.542.542,0,0,1-.535.548.553.553,0,0,1-.548-.548V22.713a.544.544,0,0,1,.548-.547.534.534,0,0,1,.535.547v7.729a.834.834,0,1,0,1.668,0V22a3.376,3.376,0,0,0-3.373-3.373.536.536,0,0,1-.535-.448.26.26,0,0,1-.013-.1.543.543,0,0,1,.548-.536,4.481,4.481,0,0,1,3.286,1.444A4.435,4.435,0,0,1,152.132,22" fill="#333"/><path d="M154.248,32.26V45.677a.542.542,0,1,1-1.083,0V32.26a.542.542,0,0,1,1.083,0" fill="#333"/><path d="M160.1,23.461v7.916a.325.325,0,0,1-.013.111,1.8,1.8,0,0,1-1.281,1.631V45.677a.543.543,0,0,1-.536.548.553.553,0,0,1-.547-.548V33.119a.917.917,0,0,1-.2-.062v12.62a.548.548,0,1,1-1.1,0V24.121a.548.548,0,1,1,1.1,0v7.256a.747.747,0,0,0,1.494,0V23.461a3.128,3.128,0,0,0-3.136-3.124.547.547,0,0,1-.523-.423.2.2,0,0,1-.025-.125.553.553,0,0,1,.548-.547,4.2,4.2,0,0,1,4.219,4.219" fill="#333"/><path d="M162.089,33.094V45.677a.542.542,0,0,1-.535.548.553.553,0,0,1-.548-.548V33.094a.553.553,0,0,1,.548-.547.542.542,0,0,1,.535.547" fill="#333"/><path d="M167.578,24.829v7.542a1.742,1.742,0,0,1-1.208,1.544V45.676a.553.553,0,0,1-.547.548.542.542,0,0,1-.535-.548V33.915a.382.382,0,0,1-.125-.038v11.8a.548.548,0,1,1-1.1,0V25.452a.548.548,0,1,1,1.1,0V32.26a.666.666,0,1,0,1.332,0V24.829a2.9,2.9,0,0,0-2.9-2.9.54.54,0,0,1-.523-.387.641.641,0,0,1-.024-.161.544.544,0,0,1,.547-.548,3.987,3.987,0,0,1,3.983,4" fill="#333"/><path d="M169.457,33.866V45.677a.548.548,0,1,1-1.1,0V33.866a.548.548,0,1,1,1.1,0" fill="#333"/><path d="M174.609,26.112v6.97c0,.037-.012.074-.012.112a1.715,1.715,0,0,1-1.133,1.481v11a.542.542,0,1,1-1.083,0v-11c-.024-.013-.037-.013-.049-.025V45.677a.548.548,0,0,1-1.1,0V26.7a.548.548,0,0,1,1.1,0v6.385a.591.591,0,1,0,1.182,0v-6.97a2.693,2.693,0,0,0-2.689-2.688.54.54,0,0,1-.5-.349.358.358,0,0,1-.05-.2.553.553,0,0,1,.547-.548,3.789,3.789,0,0,1,3.784,3.784" fill="#333"/><path d="M176.364,34.587V45.676a.548.548,0,1,1-1.1,0V34.587a.548.548,0,0,1,1.1,0" fill="#333"/><path d="M181.193,27.319v6.547a.229.229,0,0,1-.013.1,1.607,1.607,0,0,1-1.057,1.407v10.3a.539.539,0,0,1-1.071.1.546.546,0,0,1-1.083-.1V27.867a.553.553,0,0,1,.548-.548.542.542,0,0,1,.535.548v6a.529.529,0,0,0,1.058,0V27.319a2.5,2.5,0,0,0-2.5-2.5.556.556,0,0,1-.5-.312v-.012a.6.6,0,0,1-.037-.212.542.542,0,0,1,.536-.547,3.59,3.59,0,0,1,3.584,3.584" fill="#333"/><path d="M182.837,35.309V45.676a.548.548,0,0,1-1.1,0V35.309a.548.548,0,0,1,1.1,0" fill="#333"/><path d="M187.354,28.5v6.124a.249.249,0,0,1-.012.1,1.531,1.531,0,0,1-1.531,1.444,1.322,1.322,0,0,1-.448-.087v9.595a.548.548,0,1,1-1.1,0V29.011a.548.548,0,1,1,1.1,0v5.614a.446.446,0,0,0,.448.447.456.456,0,0,0,.46-.447V28.5a2.305,2.305,0,0,0-2.3-2.3.511.511,0,0,1-.5-.361.352.352,0,0,1-.05-.186.542.542,0,0,1,.548-.535,3.377,3.377,0,0,1,3.385,3.385" fill="#333"/><path d="M27.56,25.5l-2.9.6a3.338,3.338,0,0,1,2.378-.983.526.526,0,0,1,.522.386" fill="#333"/><path d="M33.92,24.182l-3.086.635A3.566,3.566,0,0,1,33.4,23.734a.535.535,0,0,1,.522.448" fill="#333"/><path d="M40.715,22.776l-3.2.66a3.768,3.768,0,0,1,2.676-1.108.544.544,0,0,1,.522.448" fill="#333"/><path d="M47.947,21.27l-3.3.685a3.945,3.945,0,0,1,2.775-1.121.524.524,0,0,1,.523.436" fill="#333"/><path d="M55.651,19.677l-3.41.709a4.206,4.206,0,0,1,2.887-1.145.515.515,0,0,1,.523.436" fill="#333"/><path d="M63.865,17.972l-3.5.734a4.424,4.424,0,0,1,2.975-1.157.5.5,0,0,1,.523.423" fill="#333"/><path d="M72.615,16.167l-3.634.747a4.714,4.714,0,0,1,3.124-1.183.512.512,0,0,1,.51.436" fill="#333"/><path d="M81.924,14.238l-3.771.784A4.922,4.922,0,0,1,81.4,13.8a.524.524,0,0,1,.523.436" fill="#333"/><path d="M91.881,12.172l-3.9.809a5.222,5.222,0,0,1,3.374-1.232.545.545,0,0,1,.522.423" fill="#333"/><path d="M102.771,9.919l-4.007.822a5.8,5.8,0,0,1,3.5-1.183.539.539,0,0,1,.51.361" fill="#333"/><path d="M108.758,9.558a5.757,5.757,0,0,1,3.671,1.319l-4.194-.883a.525.525,0,0,1,.523-.436" fill="#333"/><path d="M119.66,11.749a5.212,5.212,0,0,1,3.56,1.407l-4.107-.872a.55.55,0,0,1,.547-.535" fill="#333"/><path d="M129.617,13.8a4.929,4.929,0,0,1,3.485,1.431l-4.033-.846V14.35a.553.553,0,0,1,.548-.547" fill="#333"/><path d="M138.915,15.732a4.633,4.633,0,0,1,3.385,1.444l-3.92-.834a.093.093,0,0,1-.013-.063.553.553,0,0,1,.548-.547" fill="#333"/><path d="M147.664,17.549a4.484,4.484,0,0,1,3.286,1.444l-3.821-.809a.263.263,0,0,1-.013-.1.542.542,0,0,1,.548-.535" fill="#333"/><path d="M155.879,19.241a4.238,4.238,0,0,1,3.2,1.457l-3.721-.785a.2.2,0,0,1-.025-.125.553.553,0,0,1,.548-.547" fill="#333"/><path d="M163.6,20.834a4,4,0,0,1,3.086,1.469l-3.609-.76a.641.641,0,0,1-.024-.161.544.544,0,0,1,.547-.548" fill="#333"/><path d="M173.825,23.809l-3.5-.734a.358.358,0,0,1-.05-.2.553.553,0,0,1,.547-.548,3.8,3.8,0,0,1,3,1.481" fill="#333"/><path d="M180.509,25.216l-3.4-.709v-.013a.579.579,0,0,1-.037-.212.541.541,0,0,1,.535-.547,3.57,3.57,0,0,1,2.9,1.481" fill="#333"/><path d="M186.719,26.522l-3.248-.685a.343.343,0,0,1-.05-.186.542.542,0,0,1,.548-.535,3.411,3.411,0,0,1,2.75,1.406" fill="#333"/></g></g></svg>