<svg xmlns="http://www.w3.org/2000/svg" width="383.261" height="134.648" viewBox="0 0 383.261 134.648">
  <g id="Group_5878" data-name="Group 5878" transform="translate(0.337 0.477)">
    <line id="Line_1305" data-name="Line 1305" x2="382.587" transform="translate(0 133.834)" fill="none" stroke="#262626" stroke-linecap="round" stroke-linejoin="round" stroke-width="0.674"/>
    <g id="Group_5876" data-name="Group 5876" transform="translate(124.234 15.927)">
      <path id="Path_16890" data-name="Path 16890" d="M2260.169,276.439l-25.909-37.055,34.981,29.122" transform="translate(-2234.26 -239.384)" fill="#00a8e6"/>
      <path id="Path_16891" data-name="Path 16891" d="M2319.523,321.742c.163,3.628.163,5.766.163,5.766h-71.235c0-24.544,24.539-29.28,24.539-47.38" transform="translate(-2223.887 -209.6)" fill="#fff"/>
      <path id="Path_16892" data-name="Path 16892" d="M2281,254.1a29.461,29.461,0,0,1,41.339,12.053,29.5,29.5,0,0,1,19.178,36.421h0a25.268,25.268,0,0,1,8.579,18.633c0,14.778-15.531,16.4-7.369,31.934,0,0-17.236-2.264-21.569-14.1-4.177-11.411,3.686-19.633,3.686-19.633h0c-4.366-25.429-14.8-56.424-39.71-59.379a36.052,36.052,0,0,0-16.1-14.972v18.177c-6.086,3.419-11.295,8.946-15.354,14.52-7.743,10.63-16.58,21.183-16.58,23.8,0,4.913,7.369,12.282,12.282,12.282s17.791-10.055,17.791-10.055v0a17.2,17.2,0,0,0,26.424-14.511" transform="translate(-2232.186 -235.235)" fill="#fff"/>
      <path id="Path_16893" data-name="Path 16893" d="M2289.165,300.787a17.184,17.184,0,0,1-21.984,2.995s-12.88,10.057-17.795,10.057-12.29-7.374-12.29-12.29c0-2.614,8.845-13.173,16.583-23.8,4.068-5.574,9.261-11.1,15.354-14.506V245.065a36.111,36.111,0,0,1,11.979,9.036H2281l.121.329-.034.969s3.86,15.648,4.656,16.306C2286.084,271.984,2287.573,285.45,2289.165,300.787Z" transform="translate(-2232.188 -235.232)" fill="#fff"/>
      <path id="Path_16894" data-name="Path 16894" d="M2324.177,351.064s-17.24-2.25-21.568-14.09c-4.172-11.407,3.687-19.63,3.687-19.63-2.181-12.723-5.885-26.814-12.151-38.117s-15.095-19.786-27.558-21.274a33.57,33.57,0,0,0-4.016-5.8c-.034-.035-.069-.085-.1-.121a.364.364,0,0,1,.1-.069,29.436,29.436,0,0,1,41.216,12.117,29.474,29.474,0,0,1,20.391,28.043,29.1,29.1,0,0,1-1.211,8.378,26.246,26.246,0,0,1,5.28,6.491,23.985,23.985,0,0,1,3.306,12.153C2331.551,333.909,2316.024,335.537,2324.177,351.064Z" transform="translate(-2213.642 -233.163)" fill="#fff"/>
      <path id="Path_16895" data-name="Path 16895" d="M2264.446,302.088l-4.307-49.117,1.455-2.249,15.745-.634,21.434,6.72,15.612,42.868,3.837,17.861-2.117,15.877-6.218,11.643-15.876-2.382Z" transform="translate(-2215.343 -231.56)" fill="#fff"/>
      <path id="Path_16896" data-name="Path 16896" d="M2324.133,351.064s-17.24-2.25-21.568-14.09c-4.172-11.407,3.687-19.63,3.687-19.63-2.181-12.723-5.885-26.814-12.152-38.117s-15.095-19.786-27.558-21.274a33.543,33.543,0,0,0-4.016-5.8v-.19a29.436,29.436,0,0,1,41.216,12.117,29.474,29.474,0,0,1,20.391,28.043,29.092,29.092,0,0,1-1.211,8.378,26.246,26.246,0,0,1,5.28,6.491,23.985,23.985,0,0,1,3.305,12.153C2331.507,333.909,2315.98,335.537,2324.133,351.064Z" transform="translate(-2213.597 -233.163)" fill="#e0e0df"/>
    </g>
    <g id="Group_5877" data-name="Group 5877" transform="translate(124.234 15.927)">
      <path id="Path_16897" data-name="Path 16897" d="M2260.169,276.439l-25.909-37.055,34.981,29.122" transform="translate(-2234.26 -239.384)" fill="none" stroke="#262626" stroke-linecap="round" stroke-linejoin="round" stroke-width="0.674"/>
      <path id="Path_16898" data-name="Path 16898" d="M2319.523,321.742c.163,3.628.163,5.766.163,5.766h-71.235c0-24.544,24.539-29.28,24.539-47.38" transform="translate(-2223.887 -209.6)" fill="none" stroke="#262626" stroke-linecap="round" stroke-linejoin="round" stroke-width="0.674"/>
      <path id="Path_16899" data-name="Path 16899" d="M2281,254.1a29.461,29.461,0,0,1,41.339,12.053,29.5,29.5,0,0,1,19.178,36.421h0a25.268,25.268,0,0,1,8.579,18.633c0,14.778-15.531,16.4-7.369,31.934,0,0-17.236-2.264-21.569-14.1-4.177-11.411,3.686-19.633,3.686-19.633h0c-4.366-25.429-14.8-56.424-39.71-59.379a36.052,36.052,0,0,0-16.1-14.972v18.177c-6.086,3.419-11.295,8.946-15.354,14.52-7.743,10.63-16.58,21.183-16.58,23.8,0,4.913,7.369,12.282,12.282,12.282s17.791-10.055,17.791-10.055v0a17.2,17.2,0,0,0,26.424-14.511" transform="translate(-2232.186 -235.235)" fill="none" stroke="#262626" stroke-linecap="round" stroke-linejoin="round" stroke-width="0.674"/>
    </g>
    <line id="Line_1306" data-name="Line 1306" x1="2.459" y2="2.459" transform="translate(124.213 44.619)" fill="none" stroke="#262626" stroke-linecap="round" stroke-linejoin="round" stroke-width="0.674"/>
    <line id="Line_1307" data-name="Line 1307" x1="2.459" y2="2.459" transform="translate(119.433 49.4)" fill="none" stroke="#262626" stroke-linecap="round" stroke-linejoin="round" stroke-width="0.674"/>
    <line id="Line_1308" data-name="Line 1308" x1="2.459" y1="2.459" transform="translate(124.213 49.4)" fill="none" stroke="#262626" stroke-linecap="round" stroke-linejoin="round" stroke-width="0.674"/>
    <line id="Line_1309" data-name="Line 1309" x1="2.459" y1="2.459" transform="translate(119.433 44.619)" fill="none" stroke="#262626" stroke-linecap="round" stroke-linejoin="round" stroke-width="0.674"/>
    <line id="Line_1310" data-name="Line 1310" x1="1.624" y2="1.624" transform="translate(253.017 65.328)" fill="none" stroke="#262626" stroke-linecap="round" stroke-linejoin="round" stroke-width="0.674"/>
    <line id="Line_1311" data-name="Line 1311" x1="1.624" y2="1.624" transform="translate(249.86 68.485)" fill="none" stroke="#262626" stroke-linecap="round" stroke-linejoin="round" stroke-width="0.674"/>
    <line id="Line_1312" data-name="Line 1312" x1="1.624" y1="1.624" transform="translate(253.017 68.485)" fill="none" stroke="#262626" stroke-linecap="round" stroke-linejoin="round" stroke-width="0.674"/>
    <line id="Line_1313" data-name="Line 1313" x1="1.624" y1="1.624" transform="translate(249.86 65.328)" fill="none" stroke="#262626" stroke-linecap="round" stroke-linejoin="round" stroke-width="0.674"/>
    <line id="Line_1314" data-name="Line 1314" x1="2.412" y2="2.412" transform="translate(149.937 5.411)" fill="none" stroke="#262626" stroke-linecap="round" stroke-linejoin="round" stroke-width="0.674"/>
    <line id="Line_1315" data-name="Line 1315" x1="2.412" y2="2.412" transform="translate(145.247 10.101)" fill="none" stroke="#262626" stroke-linecap="round" stroke-linejoin="round" stroke-width="0.674"/>
    <line id="Line_1316" data-name="Line 1316" x1="2.412" y1="2.412" transform="translate(149.937 10.101)" fill="none" stroke="#262626" stroke-linecap="round" stroke-linejoin="round" stroke-width="0.674"/>
    <line id="Line_1317" data-name="Line 1317" x1="2.412" y1="2.412" transform="translate(145.247 5.411)" fill="none" stroke="#262626" stroke-linecap="round" stroke-linejoin="round" stroke-width="0.674"/>
    <line id="Line_1318" data-name="Line 1318" x1="3.676" y2="3.676" transform="translate(195.006 0)" fill="none" stroke="#262626" stroke-linecap="round" stroke-linejoin="round" stroke-width="0.674"/>
    <line id="Line_1319" data-name="Line 1319" x1="3.676" y2="3.676" transform="translate(187.859 7.147)" fill="none" stroke="#262626" stroke-linecap="round" stroke-linejoin="round" stroke-width="0.674"/>
    <line id="Line_1320" data-name="Line 1320" x1="3.676" y1="3.676" transform="translate(195.006 7.147)" fill="none" stroke="#262626" stroke-linecap="round" stroke-linejoin="round" stroke-width="0.674"/>
    <line id="Line_1321" data-name="Line 1321" x1="3.676" y1="3.676" transform="translate(187.859 0)" fill="none" stroke="#262626" stroke-linecap="round" stroke-linejoin="round" stroke-width="0.674"/>
    <line id="Line_1322" data-name="Line 1322" x1="2.115" y2="2.115" transform="translate(235.991 21.348)" fill="none" stroke="#262626" stroke-linecap="round" stroke-linejoin="round" stroke-width="0.674"/>
    <line id="Line_1323" data-name="Line 1323" x1="2.115" y2="2.115" transform="translate(231.879 25.459)" fill="none" stroke="#262626" stroke-linecap="round" stroke-linejoin="round" stroke-width="0.674"/>
    <line id="Line_1324" data-name="Line 1324" x1="2.115" y1="2.115" transform="translate(235.991 25.459)" fill="none" stroke="#262626" stroke-linecap="round" stroke-linejoin="round" stroke-width="0.674"/>
    <line id="Line_1325" data-name="Line 1325" x1="2.115" y1="2.115" transform="translate(231.879 21.348)" fill="none" stroke="#262626" stroke-linecap="round" stroke-linejoin="round" stroke-width="0.674"/>
    <line id="Line_1326" data-name="Line 1326" x1="2.443" y2="2.443" transform="translate(125.387 105.729)" fill="none" stroke="#262626" stroke-linecap="round" stroke-linejoin="round" stroke-width="0.674"/>
    <line id="Line_1327" data-name="Line 1327" x1="2.443" y2="2.443" transform="translate(120.637 110.48)" fill="none" stroke="#262626" stroke-linecap="round" stroke-linejoin="round" stroke-width="0.674"/>
    <line id="Line_1328" data-name="Line 1328" x1="2.443" y1="2.443" transform="translate(125.387 110.48)" fill="none" stroke="#262626" stroke-linecap="round" stroke-linejoin="round" stroke-width="0.674"/>
    <line id="Line_1329" data-name="Line 1329" x1="2.443" y1="2.443" transform="translate(120.637 105.729)" fill="none" stroke="#262626" stroke-linecap="round" stroke-linejoin="round" stroke-width="0.674"/>
  </g>
</svg>
