<svg xmlns="http://www.w3.org/2000/svg" xmlns:xlink="http://www.w3.org/1999/xlink" width="166.138" height="123.774" viewBox="0 0 166.138 123.774"><defs><linearGradient id="a" x1="1.492" y1="-0.177" x2="-1.354" y2="1.603" gradientUnits="objectBoundingBox"><stop offset="0" stop-color="#d8805a"/><stop offset="1" stop-color="#7b4129"/></linearGradient><linearGradient id="b" x1="2.509" y1="-1.355" x2="-3.774" y2="4.446" xlink:href="#a"/><linearGradient id="c" x1="2.658" y1="-0.918" x2="-1.293" y2="1.576" xlink:href="#a"/><linearGradient id="d" x1="4.936" y1="-3.595" x2="-3.499" y2="4.192" xlink:href="#a"/><linearGradient id="e" x1="1.08" y1="0.078" x2="-2.871" y2="2.572" xlink:href="#a"/><linearGradient id="f" x1="1.569" y1="-0.487" x2="-6.866" y2="7.301" xlink:href="#a"/></defs><g transform="translate(1856.548 -4223.032)"><circle cx="61.887" cy="61.887" r="61.887" transform="translate(-1835.366 4223.032)" fill="#fff3dc"/><path d="M-1773.479,4335.894h-.043a2,2,0,0,1-1.415-.63c-1.142-1.216-27.951-30.081-27.951-56.782a29.442,29.442,0,0,1,29.409-29.408,29.442,29.442,0,0,1,29.408,29.408,57.945,57.945,0,0,1-4.009,20.367,83.019,83.019,0,0,1-10.263,19.517,117.463,117.463,0,0,1-13.737,16.958A2,2,0,0,1-1773.479,4335.894Zm0-82.82a25.438,25.438,0,0,0-25.409,25.408c0,21.742,19.941,46.135,25.465,52.475a121.18,121.18,0,0,0,11.767-14.831l.013-.019a80.07,80.07,0,0,0,9.77-18.531c.01-.032.022-.065.034-.1a53.991,53.991,0,0,0,3.768-19A25.437,25.437,0,0,0-1773.479,4253.074Z" fill="url(#a)"/><path d="M-1773.479,4291.207a13.336,13.336,0,0,1-13.321-13.32,13.336,13.336,0,0,1,13.321-13.322,13.336,13.336,0,0,1,13.32,13.322A13.335,13.335,0,0,1-1773.479,4291.207Zm0-22.642a9.332,9.332,0,0,0-9.321,9.322,9.331,9.331,0,0,0,9.321,9.32,9.331,9.331,0,0,0,9.32-9.32A9.332,9.332,0,0,0-1773.479,4268.565Z" fill="url(#b)"/><path d="M-1835.367,4321.3h-.042a2,2,0,0,1-1.416-.631c-.805-.858-19.723-21.229-19.723-40.15a21.205,21.205,0,0,1,21.181-21.182,21.206,21.206,0,0,1,21.182,21.182,41.136,41.136,0,0,1-2.839,14.453,58.942,58.942,0,0,1-7.252,13.8,82.837,82.837,0,0,1-9.692,11.961A2,2,0,0,1-1835.367,4321.3Zm0-57.963a17.2,17.2,0,0,0-17.181,17.182c0,14.49,12.9,30.762,17.237,35.825a84.757,84.757,0,0,0,7.721-9.815l.013-.018a55.539,55.539,0,0,0,6.761-12.814c.01-.031.022-.064.033-.095a37.191,37.191,0,0,0,2.6-13.083A17.2,17.2,0,0,0-1835.367,4263.334Z" fill="url(#c)"/><path d="M-1835.367,4290.021a9.933,9.933,0,0,1-9.922-9.922,9.934,9.934,0,0,1,9.922-9.923,9.934,9.934,0,0,1,9.923,9.923A9.934,9.934,0,0,1-1835.367,4290.021Zm0-15.845a5.929,5.929,0,0,0-5.922,5.923,5.929,5.929,0,0,0,5.922,5.922,5.929,5.929,0,0,0,5.923-5.922A5.929,5.929,0,0,0-1835.367,4274.176Z" fill="url(#d)"/><path d="M-1711.592,4321.3h-.043a2,2,0,0,1-1.415-.631c-.806-.858-19.724-21.229-19.724-40.15a21.206,21.206,0,0,1,21.182-21.182,21.206,21.206,0,0,1,21.182,21.182,41.138,41.138,0,0,1-2.84,14.453,58.9,58.9,0,0,1-7.252,13.8,82.979,82.979,0,0,1-9.691,11.96A2,2,0,0,1-1711.592,4321.3Zm0-57.963a17.2,17.2,0,0,0-17.182,17.182c0,14.49,12.9,30.762,17.238,35.825a84.668,84.668,0,0,0,7.72-9.815l.013-.018a55.5,55.5,0,0,0,6.761-12.814c.01-.031.022-.064.033-.095a37.194,37.194,0,0,0,2.6-13.083A17.2,17.2,0,0,0-1711.592,4263.334Z" fill="url(#e)"/><path d="M-1711.592,4290.021a9.934,9.934,0,0,1-9.923-9.922,9.934,9.934,0,0,1,9.923-9.923,9.934,9.934,0,0,1,9.923,9.923A9.934,9.934,0,0,1-1711.592,4290.021Zm0-15.845a5.93,5.93,0,0,0-5.923,5.923,5.93,5.93,0,0,0,5.923,5.922,5.93,5.93,0,0,0,5.923-5.922A5.93,5.93,0,0,0-1711.592,4274.176Z" fill="url(#f)"/></g></svg>