<svg id="Group_5821" data-name="Group 5821" xmlns="http://www.w3.org/2000/svg" xmlns:xlink="http://www.w3.org/1999/xlink" width="187.188" height="64.498" viewBox="0 0 187.188 64.498">
  <defs>
    <clipPath id="clip-path">
      <rect id="Rectangle_11608" data-name="Rectangle 11608" width="187.188" height="64.498" fill="none"/>
    </clipPath>
  </defs>
  <g id="Group_5820" data-name="Group 5820" clip-path="url(#clip-path)">
    <path id="Path_16373" data-name="Path 16373" d="M141.636,26.96h0A8.662,8.662,0,1,1,150.3,18.3a8.662,8.662,0,0,1-8.662,8.662" transform="translate(8.289 1.035)" fill="#e4e5e7"/>
    <rect id="Rectangle_11583" data-name="Rectangle 11583" width="85.517" height="56.812" transform="translate(7.296 10.032)" fill="#fff"/>
    <rect id="Rectangle_11584" data-name="Rectangle 11584" width="85.517" height="56.812" transform="translate(7.296 10.032)" fill="none" stroke="#333" stroke-linecap="round" stroke-linejoin="round" stroke-width="0.882"/>
    <rect id="Rectangle_11585" data-name="Rectangle 11585" width="85.517" height="12.676" transform="translate(7.296 10.032)" fill="#00b6ed"/>
    <rect id="Rectangle_11586" data-name="Rectangle 11586" width="85.517" height="12.676" transform="translate(7.296 10.032)" fill="none" stroke="#333" stroke-miterlimit="10" stroke-width="0.88"/>
    <line id="Line_1200" data-name="Line 1200" y2="7.195" transform="translate(14.695 7.074)" fill="#e6e6e6"/>
    <line id="Line_1201" data-name="Line 1201" y2="7.195" transform="translate(14.695 7.074)" fill="none" stroke="#333" stroke-linecap="round" stroke-linejoin="round" stroke-width="0.882"/>
    <line id="Line_1202" data-name="Line 1202" y2="7.195" transform="translate(21.797 7.074)" fill="#e6e6e6"/>
    <line id="Line_1203" data-name="Line 1203" y2="7.195" transform="translate(21.797 7.074)" fill="none" stroke="#333" stroke-linecap="round" stroke-linejoin="round" stroke-width="0.882"/>
    <line id="Line_1204" data-name="Line 1204" y2="7.195" transform="translate(28.898 7.074)" fill="#e6e6e6"/>
    <line id="Line_1205" data-name="Line 1205" y2="7.195" transform="translate(28.898 7.074)" fill="none" stroke="#333" stroke-linecap="round" stroke-linejoin="round" stroke-width="0.882"/>
    <line id="Line_1206" data-name="Line 1206" y2="7.195" transform="translate(36 7.074)" fill="#e6e6e6"/>
    <line id="Line_1207" data-name="Line 1207" y2="7.195" transform="translate(36 7.074)" fill="none" stroke="#333" stroke-linecap="round" stroke-linejoin="round" stroke-width="0.882"/>
    <line id="Line_1208" data-name="Line 1208" y2="7.195" transform="translate(43.102 7.074)" fill="#e6e6e6"/>
    <line id="Line_1209" data-name="Line 1209" y2="7.195" transform="translate(43.102 7.074)" fill="none" stroke="#333" stroke-linecap="round" stroke-linejoin="round" stroke-width="0.882"/>
    <line id="Line_1210" data-name="Line 1210" y2="7.195" transform="translate(50.203 7.074)" fill="#e6e6e6"/>
    <line id="Line_1211" data-name="Line 1211" y2="7.195" transform="translate(50.203 7.074)" fill="none" stroke="#333" stroke-linecap="round" stroke-linejoin="round" stroke-width="0.882"/>
    <line id="Line_1212" data-name="Line 1212" y2="7.195" transform="translate(57.305 7.074)" fill="#e6e6e6"/>
    <line id="Line_1213" data-name="Line 1213" y2="7.195" transform="translate(57.305 7.074)" fill="none" stroke="#333" stroke-linecap="round" stroke-linejoin="round" stroke-width="0.882"/>
    <line id="Line_1214" data-name="Line 1214" y2="7.195" transform="translate(64.406 7.074)" fill="#e6e6e6"/>
    <line id="Line_1215" data-name="Line 1215" y2="7.195" transform="translate(64.406 7.074)" fill="none" stroke="#333" stroke-linecap="round" stroke-linejoin="round" stroke-width="0.882"/>
    <line id="Line_1216" data-name="Line 1216" y2="7.195" transform="translate(71.508 7.074)" fill="#e6e6e6"/>
    <line id="Line_1217" data-name="Line 1217" y2="7.195" transform="translate(71.508 7.074)" fill="none" stroke="#333" stroke-linecap="round" stroke-linejoin="round" stroke-width="0.882"/>
    <line id="Line_1218" data-name="Line 1218" y2="7.195" transform="translate(78.609 7.074)" fill="#e6e6e6"/>
    <line id="Line_1219" data-name="Line 1219" y2="7.195" transform="translate(78.609 7.074)" fill="none" stroke="#333" stroke-linecap="round" stroke-linejoin="round" stroke-width="0.882"/>
    <line id="Line_1220" data-name="Line 1220" y2="7.195" transform="translate(85.711 7.074)" fill="#e6e6e6"/>
    <line id="Line_1221" data-name="Line 1221" y2="7.195" transform="translate(85.711 7.074)" fill="none" stroke="#333" stroke-linecap="round" stroke-linejoin="round" stroke-width="0.882"/>
    <rect id="Rectangle_11587" data-name="Rectangle 11587" width="57.72" height="28.126" transform="translate(21.6 29.365)" fill="#fff"/>
    <rect id="Rectangle_11588" data-name="Rectangle 11588" width="57.72" height="28.126" transform="translate(21.6 29.365)" fill="none" stroke="#333" stroke-linecap="round" stroke-linejoin="round" stroke-width="0.882"/>
    <rect id="Rectangle_11589" data-name="Rectangle 11589" width="7.279" height="28.126" transform="translate(21.6 29.365)" fill="#fff"/>
    <rect id="Rectangle_11590" data-name="Rectangle 11590" width="7.279" height="28.126" transform="translate(21.6 29.365)" fill="none" stroke="#333" stroke-linecap="round" stroke-linejoin="round" stroke-width="0.882"/>
    <rect id="Rectangle_11591" data-name="Rectangle 11591" width="7.102" height="28.406" transform="translate(21.796 29.197)" fill="#00b6ed"/>
    <rect id="Rectangle_11592" data-name="Rectangle 11592" width="7.279" height="28.126" transform="translate(28.879 29.365)" fill="#fff"/>
    <rect id="Rectangle_11593" data-name="Rectangle 11593" width="7.279" height="28.126" transform="translate(28.879 29.365)" fill="none" stroke="#333" stroke-linecap="round" stroke-linejoin="round" stroke-width="0.882"/>
    <rect id="Rectangle_11594" data-name="Rectangle 11594" width="7.279" height="28.126" transform="translate(36.158 29.365)" fill="#fff"/>
    <rect id="Rectangle_11595" data-name="Rectangle 11595" width="7.279" height="28.126" transform="translate(36.158 29.365)" fill="none" stroke="#333" stroke-linecap="round" stroke-linejoin="round" stroke-width="0.882"/>
    <rect id="Rectangle_11596" data-name="Rectangle 11596" width="7.279" height="28.126" transform="translate(43.438 29.365)" fill="#fff"/>
    <rect id="Rectangle_11597" data-name="Rectangle 11597" width="7.279" height="28.126" transform="translate(43.438 29.365)" fill="none" stroke="#333" stroke-linecap="round" stroke-linejoin="round" stroke-width="0.882"/>
    <rect id="Rectangle_11598" data-name="Rectangle 11598" width="7.279" height="28.126" transform="translate(50.717 29.365)" fill="#fff"/>
    <rect id="Rectangle_11599" data-name="Rectangle 11599" width="7.279" height="28.126" transform="translate(50.717 29.365)" fill="none" stroke="#333" stroke-linecap="round" stroke-linejoin="round" stroke-width="0.882"/>
    <rect id="Rectangle_11600" data-name="Rectangle 11600" width="7.279" height="28.126" transform="translate(57.996 29.365)" fill="#fff"/>
    <rect id="Rectangle_11601" data-name="Rectangle 11601" width="7.279" height="28.126" transform="translate(57.996 29.365)" fill="none" stroke="#333" stroke-linecap="round" stroke-linejoin="round" stroke-width="0.882"/>
    <rect id="Rectangle_11602" data-name="Rectangle 11602" width="7.279" height="28.126" transform="translate(65.275 29.365)" fill="#fff"/>
    <rect id="Rectangle_11603" data-name="Rectangle 11603" width="7.279" height="28.126" transform="translate(65.275 29.365)" fill="none" stroke="#333" stroke-linecap="round" stroke-linejoin="round" stroke-width="0.882"/>
    <rect id="Rectangle_11604" data-name="Rectangle 11604" width="57.72" height="7.032" transform="translate(21.6 29.364)" fill="none" stroke="#333" stroke-linecap="round" stroke-linejoin="round" stroke-width="0.882"/>
    <rect id="Rectangle_11605" data-name="Rectangle 11605" width="57.72" height="7.032" transform="translate(21.6 36.396)" fill="none" stroke="#333" stroke-linecap="round" stroke-linejoin="round" stroke-width="0.882"/>
    <rect id="Rectangle_11606" data-name="Rectangle 11606" width="57.72" height="7.032" transform="translate(21.6 43.428)" fill="none" stroke="#333" stroke-linecap="round" stroke-linejoin="round" stroke-width="0.882"/>
    <rect id="Rectangle_11607" data-name="Rectangle 11607" width="57.72" height="7.032" transform="translate(21.6 50.459)" fill="none" stroke="#333" stroke-linecap="round" stroke-linejoin="round" stroke-width="0.882"/>
    <path id="Path_16374" data-name="Path 16374" d="M60.858,45.431l-2.869-2.869,1-1,1.866,1.866,4.231-4.233,1.006,1Z" transform="translate(0.235 4.209)" fill="#00b6ed"/>
    <path id="Path_16375" data-name="Path 16375" d="M41.619,38.8l-2.869-2.869,1-1L41.619,36.8l4.233-4.233,1,1Z" transform="translate(-1.831 3.498)" fill="#00b6ed"/>
    <path id="Path_16376" data-name="Path 16376" d="M73.683,32.605l-2.869-2.869,1-1L73.683,30.6l4.231-4.233,1,1Z" transform="translate(1.613 2.832)" fill="#00b6ed"/>
    <path id="Path_16377" data-name="Path 16377" d="M82.086,47.559a28.177,28.177,0,1,0,28.177-28.177A28.177,28.177,0,0,0,82.086,47.559" transform="translate(2.823 2.082)" fill="#fff"/>
    <path id="Path_16378" data-name="Path 16378" d="M82.086,47.559a28.177,28.177,0,1,0,28.177-28.177A28.177,28.177,0,0,0,82.086,47.559Z" transform="translate(2.823 2.082)" fill="none" stroke="#333" stroke-linecap="round" stroke-linejoin="round" stroke-width="0.882"/>
    <path id="Path_16379" data-name="Path 16379" d="M109.811,23.621A23.483,23.483,0,1,0,133.288,47.1a23.484,23.484,0,0,0-23.477-23.477" transform="translate(3.278 2.537)" fill="#00b6ed"/>
    <path id="Path_16380" data-name="Path 16380" d="M122.744,46.166A13.87,13.87,0,1,1,108.879,32.3a13.874,13.874,0,0,1,13.865,13.865" transform="translate(4.211 3.469)" fill="#fff"/>
    <path id="Path_16381" data-name="Path 16381" d="M109.811,23.621v9.612a13.862,13.862,0,0,0-11.24,21.993l-6.855,6.855a23.486,23.486,0,0,1,18.1-38.46" transform="translate(3.278 2.537)" fill="#e6e6e6"/>
    <path id="Path_16382" data-name="Path 16382" d="M107.533,22.357V47.239L120.27,59.977" transform="translate(5.556 2.401)" fill="none" stroke="#333" stroke-linecap="round" stroke-linejoin="round" stroke-width="0.882"/>
    <line id="Line_1222" data-name="Line 1222" x2="26.993" transform="translate(149.925 14.31)" fill="none" stroke="#333" stroke-linecap="round" stroke-linejoin="round" stroke-width="0.882"/>
    <line id="Line_1223" data-name="Line 1223" x2="26.993" transform="translate(149.925 18.41)" fill="none" stroke="#333" stroke-linecap="round" stroke-linejoin="round" stroke-width="0.882"/>
    <line id="Line_1224" data-name="Line 1224" x2="26.993" transform="translate(149.925 22.509)" fill="none" stroke="#333" stroke-linecap="round" stroke-linejoin="round" stroke-width="0.882"/>
    <line id="Line_1225" data-name="Line 1225" x2="18.783" transform="translate(149.925 26.609)" fill="none" stroke="#333" stroke-linecap="round" stroke-linejoin="round" stroke-width="0.882"/>
    <line id="Line_1226" data-name="Line 1226" x2="12.393" transform="translate(149.925 30.709)" fill="none" stroke="#333" stroke-linecap="round" stroke-linejoin="round" stroke-width="0.882"/>
  </g>
</svg>
