<svg xmlns="http://www.w3.org/2000/svg" xmlns:xlink="http://www.w3.org/1999/xlink" width="143.59" height="95.7" viewBox="0 0 143.59 95.7"><defs><linearGradient id="a" x1="0.937" y1="-0.209" x2="-0.182" y2="1.607" gradientUnits="objectBoundingBox"><stop offset="0" stop-color="#9b8fc4"/><stop offset="1" stop-color="#251d41"/></linearGradient><linearGradient id="b" x1="0.838" y1="-0.392" x2="-0.281" y2="1.425" xlink:href="#a"/><linearGradient id="c" x1="15.194" y1="-0.395" x2="-14.643" y2="1.422" xlink:href="#a"/><linearGradient id="d" x1="0.963" y1="-12.457" x2="-0.156" y2="18.853" xlink:href="#a"/><linearGradient id="e" x1="2.949" y1="-1.979" x2="-1.753" y2="2.952" xlink:href="#a"/><linearGradient id="f" x1="2.507" y1="-1.603" x2="-2.199" y2="3.333" xlink:href="#a"/><linearGradient id="g" x1="3.285" y1="-3.012" x2="-2.203" y2="3.911" xlink:href="#a"/><linearGradient id="h" x1="3.646" y1="-3.544" x2="-1.818" y2="3.375" xlink:href="#a"/></defs><g transform="translate(-30.42 -58.36)"><path d="M162.22,154.06H61.06c-6.5,0-11.79-4.92-11.79-10.95V84.39c0-6,5.29-11,11.79-11H162.22c6.5,0,11.79,4.91,11.79,11v58.72C174,149.14,168.72,154.06,162.22,154.06ZM61.06,78.12c-3.92,0-7.11,2.81-7.11,6.27v58.72c0,3.45,3.19,6.27,7.11,6.27H162.22c3.86,0,7.11-2.87,7.11-6.27V84.39c0-3.46-3.19-6.27-7.11-6.27Z" fill="url(#a)"/><path d="M152.83,69.36v6.42H61.06c-5.2,0-9.45,3.87-9.45,8.61V136.7h-9.4c-5.18,0-9.45-3.88-9.45-8.62V69.36c0-4.73,4.26-8.61,9.45-8.61H143.38C148.58,60.75,152.83,64.64,152.83,69.36Z" fill="#867bad" opacity="0.29"/><path d="M51.61,139h-9.4c-6.5,0-11.79-4.92-11.79-11V69.36c0-6,5.29-11,11.79-11H143.38c6.5,0,11.79,4.91,11.79,11v6.42a2.34,2.34,0,0,1-2.34,2.34H61.06c-3.92,0-7.11,2.81-7.11,6.27V136.7a2.34,2.34,0,0,1-2.34,2.3Zm-9.4-75.95c-3.92,0-7.11,2.81-7.11,6.27v58.72c0,3.46,3.19,6.28,7.11,6.28h7.06v-50c0-6,5.29-11,11.79-11h89.43V69.36c0-3.46-3.19-6.27-7.11-6.27Z" fill="url(#b)"/><path d="M81.78,154.06a2.34,2.34,0,0,1-2.34-2.34V75.77a2.34,2.34,0,0,1,4.68,0v76A2.34,2.34,0,0,1,81.78,154.06Z" fill="url(#c)"/><path d="M171.67,122.55H51.61a2.34,2.34,0,1,1,0-4.68H171.67a2.34,2.34,0,1,1,0,4.68Z" fill="url(#d)"/><rect width="43.41" height="8.64" transform="translate(118.02 86.67)" fill="#867bad" opacity="0.56"/><rect width="24.29" height="8.64" transform="translate(118.02 100.3)" fill="#867bad" opacity="0.56"/><path d="M82.39,122.55h-.23c-.61-.06-15-1.55-21.76-8.26-9.39-9.4-4-16.27-2.09-18.15a10.38,10.38,0,0,1,8.25-3.28c3.25.25,6.58,2.05,9.9,5.37h0c6.71,6.71,8.2,21.15,8.26,21.76a2.339,2.339,0,0,1-2.33,2.56ZM65.8,97.5a5.87,5.87,0,0,0-4.18,1.93c-3.14,3.14-2.43,7,2.09,11.54,3.9,3.9,11.64,5.73,15.91,6.47-.74-4.27-2.57-12-6.47-15.91h0c-2.47-2.47-4.87-3.85-7-4Z" fill="url(#e)"/><path d="M82.38,122.55A2.33,2.33,0,0,1,80.06,120c.06-.61,1.55-15,8.25-21.76,9.4-9.39,16.27-4,18.15-2.09s7.3,8.76-2.09,18.15h0c-6.71,6.71-21.15,8.2-21.76,8.26ZM99,97.52c-2.2,0-4.65,1.34-7.33,4-3.89,3.9-5.73,11.65-6.47,15.92,4.27-.75,12-2.58,15.91-6.48h0c4.52-4.52,5.23-8.4,2.1-11.53A5.87,5.87,0,0,0,99,97.52Z" fill="url(#f)"/><path d="M103.22,139a2.34,2.34,0,0,1-2.15-1.41,25.68,25.68,0,0,0-19-15.1,2.34,2.34,0,0,1,.6-4.64,30.37,30.37,0,0,1,22.68,17.88,2.36,2.36,0,0,1-2.14,3.27Z" fill="url(#g)"/><path d="M60.94,139a2.36,2.36,0,0,1-2.14-3.27,30.37,30.37,0,0,1,22.68-17.88,2.34,2.34,0,1,1,.6,4.64,25.69,25.69,0,0,0-19,15.1A2.34,2.34,0,0,1,60.94,139Z" fill="url(#h)"/></g></svg>