<svg xmlns="http://www.w3.org/2000/svg" xmlns:xlink="http://www.w3.org/1999/xlink" width="154.92" height="137.637" viewBox="0 0 154.92 137.637"><defs><linearGradient id="a" x1="0.915" y1="-0.049" x2="-0.013" y2="1.179" gradientUnits="objectBoundingBox"><stop offset="0" stop-color="#1cabe0"/><stop offset="1" stop-color="#107aa3"/></linearGradient><linearGradient id="b" x1="3.745" y1="-3.07" x2="-2.18" y2="3.447" xlink:href="#a"/><linearGradient id="c" x1="6.522" y1="-5.456" x2="-6.344" y2="7.268" xlink:href="#a"/><linearGradient id="d" x1="5.142" y1="-4.027" x2="-7.901" y2="8.695" xlink:href="#a"/><linearGradient id="e" x1="3.665" y1="-2.604" x2="-9.318" y2="10.12" xlink:href="#a"/><linearGradient id="f" x1="2.21" y1="-1.177" x2="-10.773" y2="11.546" xlink:href="#a"/><linearGradient id="g" x1="3.867" y1="-1.165" x2="-4.825" y2="3.132" xlink:href="#a"/><linearGradient id="h" x1="3.018" y1="-0.746" x2="-5.674" y2="3.552" xlink:href="#a"/><linearGradient id="i" x1="2.159" y1="-0.316" x2="-6.539" y2="3.971" xlink:href="#a"/><linearGradient id="j" x1="1.261" y1="0.124" x2="-7.431" y2="4.422" xlink:href="#a"/><linearGradient id="k" x1="8.127" y1="-7.054" x2="-4.739" y2="5.687" xlink:href="#a"/><linearGradient id="l" x1="6.769" y1="-5.624" x2="-6.274" y2="7.117" xlink:href="#a"/><linearGradient id="m" x1="9.729" y1="-8.611" x2="-3.137" y2="4.093" xlink:href="#a"/><linearGradient id="n" x1="9.718" y1="-8.548" x2="-3.265" y2="4.195" xlink:href="#a"/><linearGradient id="o" x1="11.335" y1="-10.099" x2="-1.648" y2="2.604" xlink:href="#a"/><linearGradient id="p" x1="8.393" y1="-7.186" x2="-4.65" y2="5.517" xlink:href="#a"/><linearGradient id="q" x1="3.831" y1="-2.769" x2="-9.152" y2="9.973" xlink:href="#a"/><linearGradient id="r" x1="5.278" y1="-4.198" x2="-7.685" y2="8.545" xlink:href="#a"/><linearGradient id="s" x1="1.295" y1="-0.239" x2="-0.425" y2="1.857" xlink:href="#a"/><linearGradient id="t" x1="1.681" y1="0.056" x2="-2.105" y2="1.378" xlink:href="#a"/></defs><g transform="translate(-27.87 -30.023)"><path d="M37.08,144.59a9.27,9.27,0,0,1-9.21-9.21V51.55a9.28,9.28,0,0,1,9.2-9.22H48.72V53.09a2.05,2.05,0,0,0,.7,1.52,2.76,2.76,0,0,0,1.9.72,2.44,2.44,0,0,0,2.59-2.24V42.33H73.59v11a2,2,0,0,0,.7,1.51,2.74,2.74,0,0,0,1.9.72,2.44,2.44,0,0,0,2.59-2.23v-11H98.42V53.09a2.05,2.05,0,0,0,.7,1.52,2.74,2.74,0,0,0,1.9.72,2.44,2.44,0,0,0,2.58-2.24V42.33h20.83V53.09a2.08,2.08,0,0,0,.69,1.52,2.82,2.82,0,0,0,1.9.72,2.45,2.45,0,0,0,2.6-2.24V42.33h12.61a9.3,9.3,0,0,1,9.22,9.21v83.84a9.28,9.28,0,0,1-9.21,9.21Zm0-98.26a5.26,5.26,0,0,0-5.21,5.23v83.82a5.25,5.25,0,0,0,5.22,5.21H142.23a5.26,5.26,0,0,0,5.22-5.22V51.55a5.28,5.28,0,0,0-5.23-5.22h-8.6v6.76a6.43,6.43,0,0,1-6.6,6.24,6.71,6.71,0,0,1-4.6-1.78,6,6,0,0,1-2-4.46V46.33H107.6v6.76a6.42,6.42,0,0,1-6.6,6.24,6.77,6.77,0,0,1-4.62-1.78,6.1,6.1,0,0,1-2-4.46V46.33H82.78v7a6.43,6.43,0,0,1-6.59,6.23,6.77,6.77,0,0,1-4.62-1.78,6,6,0,0,1-2-4.45v-7H57.91v6.76a6.43,6.43,0,0,1-6.59,6.24,6.76,6.76,0,0,1-4.61-1.78,6.07,6.07,0,0,1-2-4.46V46.33Z" fill="url(#a)"/><path d="M47.14,74H55.5A3.48,3.48,0,0,1,59,77.47V85.8a3.48,3.48,0,0,1-3.49,3.48H47.14a3.5,3.5,0,0,1-3.49-3.48V77.42A3.48,3.48,0,0,1,47.14,74Z" fill="#e1f7ff"/><path d="M55.49,91.28H47.14a5.5,5.5,0,0,1-5.49-5.48V77.42A5.52,5.52,0,0,1,47.14,72H55.5A5.5,5.5,0,0,1,61,77.46V85.8a5.5,5.5,0,0,1-5.51,5.48ZM47.14,76a1.49,1.49,0,0,0-1.49,1.46V85.8a1.49,1.49,0,0,0,1.49,1.48h8.35A1.49,1.49,0,0,0,57,85.79V77.47A1.49,1.49,0,0,0,55.49,76Z" fill="url(#b)"/><path d="M69.1,78.31h3.58a1.5,1.5,0,0,1,1.51,1.49h0v3.58a1.51,1.51,0,0,1-1.5,1.49H69.1a1.51,1.51,0,0,1-1.54-1.47V79.8a1.5,1.5,0,0,1,1.49-1.49Z" fill="url(#c)"/><path d="M87.81,78.31h3.58a1.49,1.49,0,0,1,1.49,1.49v3.58a1.49,1.49,0,0,1-1.49,1.49H87.81a1.51,1.51,0,0,1-1.47-1.49V79.8a1.5,1.5,0,0,1,1.5-1.49Z" fill="url(#d)"/><path d="M106.53,78.31h3.58a1.5,1.5,0,0,1,1.49,1.49v3.58a1.51,1.51,0,0,1-1.49,1.49h-3.58a1.5,1.5,0,0,1-1.5-1.49V79.8a1.49,1.49,0,0,1,1.5-1.49Z" fill="url(#e)"/><path d="M125.23,78.31h3.59a1.5,1.5,0,0,1,1.49,1.49v3.58a1.51,1.51,0,0,1-1.49,1.49h-3.59a1.5,1.5,0,0,1-1.49-1.49V79.8A1.49,1.49,0,0,1,125.23,78.31Z" fill="url(#f)"/><path d="M51.32,59.33a6.76,6.76,0,0,1-4.61-1.78,6.07,6.07,0,0,1-2-4.46V36.26a6.61,6.61,0,0,1,13.19,0V53.09A6.43,6.43,0,0,1,51.32,59.33Zm0-25.3a2.44,2.44,0,0,0-2.6,2.23V53.09a2.05,2.05,0,0,0,.7,1.52,2.76,2.76,0,0,0,1.9.72,2.44,2.44,0,0,0,2.59-2.24V36.26A2.43,2.43,0,0,0,51.32,34Z" fill="url(#g)"/><path d="M76.19,59.52a6.77,6.77,0,0,1-4.62-1.78,6,6,0,0,1-2-4.45V36.45a6.61,6.61,0,0,1,13.19,0V53.29a6.43,6.43,0,0,1-6.57,6.23Zm0-25.3a2.43,2.43,0,0,0-2.6,2.23V53.29a2,2,0,0,0,.7,1.51,2.74,2.74,0,0,0,1.9.72,2.44,2.44,0,0,0,2.59-2.23V36.45a2.44,2.44,0,0,0-2.59-2.23Z" fill="url(#h)"/><path d="M101,59.33a6.77,6.77,0,0,1-4.62-1.78,6.1,6.1,0,0,1-2-4.46V36.26a6.6,6.6,0,0,1,13.18,0V53.09A6.42,6.42,0,0,1,101,59.33ZM101,34a2.43,2.43,0,0,0-2.6,2.23V53.09a2.05,2.05,0,0,0,.7,1.52,2.74,2.74,0,0,0,1.9.72,2.44,2.44,0,0,0,2.58-2.24V36.26A2.43,2.43,0,0,0,101,34Z" fill="url(#i)"/><path d="M127,59.33a6.71,6.71,0,0,1-4.6-1.78,6,6,0,0,1-2-4.46V36.26a6.61,6.61,0,0,1,13.19,0V53.09A6.43,6.43,0,0,1,127,59.33ZM127,34a2.44,2.44,0,0,0-2.59,2.23V53.09a2.08,2.08,0,0,0,.69,1.52,2.82,2.82,0,0,0,1.9.72,2.45,2.45,0,0,0,2.6-2.24V36.26A2.44,2.44,0,0,0,127,34Z" fill="url(#j)"/><path d="M69.1,99.61h3.58a1.48,1.48,0,0,1,1.51,1.47v3.59a1.51,1.51,0,0,1-1.5,1.49H69.1a1.51,1.51,0,0,1-1.54-1.47V101.1a1.49,1.49,0,0,1,1.49-1.49Z" fill="url(#k)"/><path d="M87.81,99.61h3.58a1.47,1.47,0,0,1,1.49,1.47v3.59a1.49,1.49,0,0,1-1.49,1.49H87.81a1.51,1.51,0,0,1-1.47-1.49V101.1a1.49,1.49,0,0,1,1.49-1.49h0Z" fill="url(#l)"/><path d="M69.1,120.83h3.58a1.49,1.49,0,0,1,1.51,1.47v3.61a1.5,1.5,0,0,1-1.5,1.49H69.1a1.51,1.51,0,0,1-1.54-1.47v-3.59a1.49,1.49,0,0,1,1.49-1.49Z" fill="url(#m)"/><path d="M49.53,99.61h3.58a1.48,1.48,0,0,1,1.49,1.47v3.59a1.49,1.49,0,0,1-1.49,1.49H49.53a1.5,1.5,0,0,1-1.5-1.49V101.1a1.49,1.49,0,0,1,1.49-1.49Z" fill="url(#n)"/><path d="M49.53,120.83h3.58a1.48,1.48,0,0,1,1.49,1.47v3.61a1.49,1.49,0,0,1-1.49,1.49H49.53a1.49,1.49,0,0,1-1.5-1.49v-3.57a1.49,1.49,0,0,1,1.49-1.49h0Z" fill="url(#o)"/><path d="M87.81,120.83h3.58a1.47,1.47,0,0,1,1.49,1.47v3.61a1.49,1.49,0,0,1-1.49,1.49H87.81a1.5,1.5,0,0,1-1.47-1.49v-3.57a1.49,1.49,0,0,1,1.49-1.49h0Z" fill="url(#p)"/><path d="M125.23,99.61h3.59a1.49,1.49,0,0,1,1.49,1.49v3.57a1.51,1.51,0,0,1-1.49,1.49h-3.59a1.5,1.5,0,0,1-1.49-1.49V101.1A1.49,1.49,0,0,1,125.23,99.61Z" fill="url(#q)"/><path d="M106.51,99.61h3.59a1.49,1.49,0,0,1,1.5,1.49v3.57a1.51,1.51,0,0,1-1.5,1.49h-3.59a1.51,1.51,0,0,1-1.49-1.49V101.1A1.49,1.49,0,0,1,106.51,99.61Z" fill="url(#r)"/><path d="M144.05,112.82a6.22,6.22,0,0,1,10.79,0l12.56,21.75L180,156.32a6.23,6.23,0,0,1-5.4,9.34H124.33a6.23,6.23,0,0,1-5.39-9.34l12.56-21.75Z" fill="#e1f7ff"/><path d="M174.56,167.66H124.33a8.23,8.23,0,0,1-7.12-12.34l25.11-43.5a8.15,8.15,0,0,1,7.13-4.12h0a8.13,8.13,0,0,1,7.12,4.12l25.12,43.5a8.23,8.23,0,0,1-7.13,12.34Zm-28.78-53.84-25.11,43.5a4.23,4.23,0,0,0,3.66,6.34h50.23a4.23,4.23,0,0,0,3.67-6.34l-25.12-43.5a4.23,4.23,0,0,0-7.33,0Z" fill="url(#s)"/><path d="M145.87,153.1a3.58,3.58,0,1,1,1.731,3.258,3.58,3.58,0,0,1-1.731-3.258Zm1.32-8.51-.92-18.08h6.35l-.88,18.08Z" fill="url(#t)"/></g></svg>