<svg xmlns="http://www.w3.org/2000/svg" xmlns:xlink="http://www.w3.org/1999/xlink" width="140.142" height="139.479" viewBox="0 0 140.142 139.479"><defs><linearGradient id="a" x1="-1.574" y1="1.402" x2="2.588" y2="-0.295" gradientUnits="objectBoundingBox"><stop offset="0" stop-color="#9b4a69"/><stop offset="1" stop-color="#f388b0"/></linearGradient><linearGradient id="b" x1="-3.208" y1="4.74" x2="1.412" y2="-0.948" xlink:href="#a"/><linearGradient id="c" x1="-0.123" y1="1.291" x2="0.837" y2="0.024" xlink:href="#a"/><linearGradient id="d" x1="-1.299" y1="1.768" x2="1.491" y2="-0.202" xlink:href="#a"/></defs><g transform="translate(-29.934 -30.261)"><path d="M44,141a2,2,0,0,1-1.65-.86,70.33,70.33,0,0,1-9.86-58.69,69.45,69.45,0,0,1,26.4-38.17,2,2,0,1,1,2.44,3.17C34,68.74,34.09,99.06,34.09,99.37a66.32,66.32,0,0,0,11.55,38.48A2,2,0,0,1,44,141Z" fill="url(#a)"/><path d="M65.39,59.53a2.009,2.009,0,0,1-1.95-1.59L58.12,32.67a2,2,0,0,1,2.44-2.35l25,6.24a2.009,2.009,0,0,1,.89,3.39L66.78,59A2,2,0,0,1,65.39,59.53ZM62.68,35,66.6,53.58l14.48-14Z" fill="url(#b)"/><path d="M100.33,169.74A69.75,69.75,0,0,1,60.38,42.82a2,2,0,1,1,2.29,3.27,65.75,65.75,0,1,0,68.89-4,2,2,0,1,1,1.9-3.52,69.76,69.76,0,0,1-33.13,131.14Z" fill="url(#c)"/><path d="M96.47,142.54v-9.38c-6.62-.29-13-2.07-16.79-4.24l3-11.55A34.83,34.83,0,0,0,99,121.71c5.63,0,9.48-2.17,9.48-6.12,0-3.75-3.16-6.12-10.46-8.59-10.57-3.55-17.77-8.49-17.77-18.06,0-8.69,6.12-15.5,16.68-17.58V62h9.68v8.69A35.6,35.6,0,0,1,121,73.93l-2.86,11.16a32.7,32.7,0,0,0-14.22-3.36c-6.41,0-8.49,2.76-8.49,5.53,0,3.26,3.46,5.33,11.85,8.49,11.75,4.14,16.49,9.57,16.49,18.46s-6.22,16.29-17.58,18.26v10.07Z" fill="#ffebfc"/><path d="M106.14,144.54H96.47a2,2,0,0,1-2-2V135c-6-.51-11.9-2.14-15.79-4.39a2,2,0,0,1-.93-2.23l3-11.55a2,2,0,0,1,1.14-1.34,2.05,2.05,0,0,1,1.76.08A33,33,0,0,0,99,119.71c1.76,0,7.48-.29,7.48-4.12,0-2.17-1.55-4.14-9.1-6.69-8.91-3-19.13-8-19.13-20,0-9.36,6.34-16.59,16.68-19.18V62a2,2,0,0,1,2-2h9.68a2,2,0,0,1,2,2v6.81a36.42,36.42,0,0,1,13.18,3.34,2,2,0,0,1,1.07,2.3L120,85.58a2,2,0,0,1-2.72,1.35l-.75-.32a29.4,29.4,0,0,0-12.69-2.88c-2.42,0-6.49.46-6.49,3.53,0,1.93,2.86,3.72,10.55,6.62,12.46,4.39,17.79,10.48,17.79,20.33s-6.84,17.43-17.58,19.9v8.43a2,2,0,0,1-1.97,2Zm-7.67-4h5.67v-8.07a2,2,0,0,1,1.66-2c9.82-1.7,15.92-8,15.92-16.29,0-8.08-4.25-12.73-15.16-16.58-8.94-3.36-13.18-5.77-13.18-10.37,0-1.77.76-7.53,10.49-7.53a32.55,32.55,0,0,1,12.86,2.6l1.86-7.26a35.78,35.78,0,0,0-12-2.4,2,2,0,0,1-1.91-2V64H99v7.38a2,2,0,0,1-1.61,2C87.91,75.18,82.28,81,82.28,88.94c0,7.46,4.9,12.3,16.41,16.17,7.1,2.4,11.82,5.1,11.82,10.48,0,5-4.4,8.12-11.48,8.12A36.49,36.49,0,0,1,84,120.27l-2,7.61a40.37,40.37,0,0,0,14.54,3.29,2,2,0,0,1,1.91,2Z" fill="url(#d)"/></g></svg>