<svg xmlns="http://www.w3.org/2000/svg" xmlns:xlink="http://www.w3.org/1999/xlink" width="145.56" height="112.96" viewBox="0 0 145.56 112.96"><defs><linearGradient id="a" x1="1.11" y1="-0.49" x2="-0.179" y2="1.602" gradientUnits="objectBoundingBox"><stop offset="0" stop-color="#d8805a"/><stop offset="1" stop-color="#7b4129"/></linearGradient><linearGradient id="b" x1="0" y1="0.5" x2="1" y2="0.5" xlink:href="#a"/><linearGradient id="c" x1="1.01" y1="-0.675" x2="-0.279" y2="1.416" xlink:href="#a"/><linearGradient id="d" x1="0" y1="0.5" x2="1" y2="0.5" xlink:href="#a"/><linearGradient id="e" x1="1.719" y1="-0.698" x2="-0.68" y2="2.091" xlink:href="#a"/><linearGradient id="f" x1="4.661" y1="-0.639" x2="-8.014" y2="2.745" xlink:href="#a"/><linearGradient id="g" x1="0" y1="0.5" x2="1" y2="0.5" xlink:href="#a"/><linearGradient id="h" x1="0" y1="0.5" x2="1" y2="0.5" xlink:href="#a"/></defs><g transform="translate(-27.21 -51.56)"><path d="M113.92,146.54H57.51c-6.31,0-11.45-4.76-11.45-10.61V77.21c0-5.85,5.14-10.61,11.45-10.61H158.67c6.31,0,11.45,4.76,11.45,10.61v58.72a10.41,10.41,0,0,1-5,8.74,2,2,0,0,1-2.8-.69l-19.23-33.3a4.19,4.19,0,0,0-3.66-2.12h0a4.2,4.2,0,0,0-3.67,2.12l-20.12,34.86A2,2,0,0,1,113.92,146.54ZM57.51,70.6c-4.11,0-7.45,3-7.45,6.61v58.72c0,3.64,3.34,6.61,7.45,6.61h55.26l19.54-33.86a8.15,8.15,0,0,1,7.13-4.12h0a8.13,8.13,0,0,1,7.11,4.12l18,31.23a6.14,6.14,0,0,0,1.52-4V77.21c0-3.65-3.34-6.61-7.45-6.61Z" fill="url(#a)"/><path d="M149.28,62.17v6.42H57.51c-5.2,0-9.45,3.87-9.45,8.61v52.31h-9.4c-5.18,0-9.45-3.88-9.45-8.62V62.17c0-4.73,4.26-8.61,9.45-8.61H139.83C145,53.56,149.28,57.45,149.28,62.17Z" opacity="0.3" fill="url(#b)"/><path d="M48.06,131.51h-9.4c-6.32,0-11.45-4.76-11.45-10.62V62.17c0-5.85,5.13-10.61,11.45-10.61H139.83c6.31,0,11.45,4.76,11.45,10.61v6.42a2,2,0,0,1-2,2H57.51c-4.11,0-7.45,3-7.45,6.61v52.31A2,2,0,0,1,48.06,131.51Zm-9.4-75.95c-4.11,0-7.45,3-7.45,6.61v58.72c0,3.65,3.34,6.62,7.45,6.62h7.4V77.2c0-5.85,5.13-10.61,11.45-10.61h89.77V62.17c0-3.64-3.35-6.61-7.45-6.61Z" fill="url(#c)"/><rect width="116.4" height="11.49" transform="translate(49.34 87.22)" opacity="0.3" fill="url(#d)"/><path d="M164.55,164.52H114.32a8.22,8.22,0,0,1-7.12-12.34l25.11-43.5a8.15,8.15,0,0,1,7.13-4.12h0a8.13,8.13,0,0,1,7.11,4.12l25.12,43.5a8.23,8.23,0,0,1-7.13,12.34Zm-25.11-56a4.2,4.2,0,0,0-3.67,2.12l-25.11,43.5a4.23,4.23,0,0,0,3.66,6.34h50.23a4.23,4.23,0,0,0,3.67-6.34l-25.12-43.5a4.19,4.19,0,0,0-3.66-2.12Z" fill="url(#e)"/><path d="M135.87,150a3.57,3.57,0,1,1,3.57,3.57,3.57,3.57,0,0,1-3.57-3.57Zm1.31-8.51-.92-18.09h6.35l-.87,18.09Z" fill="url(#f)"/><path d="M75.1,127.53a8.64,8.64,0,1,1,0-13.32,8.63,8.63,0,0,0,0,13.32Z" opacity="0.3" fill="url(#g)"/><path d="M94.86,120.87a8.64,8.64,0,1,1-8.64-8.64,8.64,8.64,0,0,1,8.64,8.64Z" opacity="0.3" fill="url(#h)"/></g></svg>