<svg xmlns="http://www.w3.org/2000/svg" xmlns:xlink="http://www.w3.org/1999/xlink" width="265.673" height="147.301" viewBox="0 0 265.673 147.301"><defs><clipPath id="a"><path d="M1178.245,484.741a19.867,19.867,0,0,0-2.723,8.226c-8.7-1.841-14.094-1.243-16.874-.567a18.745,18.745,0,0,0-1.611-7.941s4.387-2.776,5.446-7.515a1.855,1.855,0,0,0,.845.295s-1.176,3.982,2.516,4.127,4.919-4.168,4.919-4.168h.789S1173.8,484.276,1178.245,484.741Z" transform="translate(-1157.036 -476.944)" fill="none"/></clipPath></defs><g transform="translate(-275.214 -84.303)"><g transform="translate(264.983 84.803)"><path d="M264.673.5H0A.5.5,0,0,1-.5,0,.5.5,0,0,1,0-.5H264.673a.5.5,0,0,1,.5.5A.5.5,0,0,1,264.673.5Z" transform="translate(10.731 117.368)" fill="#d3d3d3"/><path d="M1403.538,687.983c-1.048,0-2.1-.021-3.128-.061-.067,0-.135,0-.2-.007s-.143-.006-.2-.006h-.038c-.569-.022-1.131-.054-1.557-.079h-.008l-.089-.006a3.7,3.7,0,0,1-1.246-.228,1.855,1.855,0,0,1-1.082-1.326l0-.007a6.821,6.821,0,0,1-.094-1.772c.009-.278.017-.541.008-.762,0-.013,0-.026,0-.04v-.108l-.005-.049c-.007-.068-.016-.151-.018-.248-.078-1.038-.115-2.036-.115-3.048v-.728c0-.814-.018-1.651-.031-2.461l-.008-.483c0-.005,0-.01,0-.015v-.429c-.014-.624-.014-1.254-.014-1.864a.957.957,0,0,1,.816-.947,17.707,17.707,0,0,1,2.62-.175c1.029,0,2.066.063,3.069.124.838.051,1.629.1,2.418.114.526.01,1.069.023,1.593.037,1.034.026,2.1.053,3.155.053,1.387,0,2.52-.046,3.563-.145a.957.957,0,0,1,1.036,1.1c-.024.151-.045.314-.067.509.013.333.031.676.048,1.008l.013.247q0,.01,0,.02c0,.05.005.1.008.151.006.087.012.184.013.289v.006c.05.939.1,1.911.117,2.874,0,.005,0,.011,0,.016v.435a26.848,26.848,0,0,1-.11,2.847v.17a3.282,3.282,0,0,0,.016.349c.006.055.013.111.019.168.008.077.017.155.027.236v.01l.005.045a4.387,4.387,0,0,1-.4,3.139,3.188,3.188,0,0,1-2.676,1.014h0c-.207,0-.432-.007-.708-.023h-.005l-.437-.027h-.007c-.307-.021-.536-.032-.718-.032l-.718.022c-.941.03-1.914.06-2.871.081h-.458l-.787.011h-.005C1404.033,687.982,1403.784,687.983,1403.538,687.983Zm-3.514-1.989c.1,0,.187,0,.268.008l.185.006c1.006.04,2.036.06,3.062.06.239,0,.482,0,.721,0l.792-.011h.447c.944-.021,1.909-.051,2.842-.08l.734-.023h.03c.229,0,.5.012.862.037l.432.027c.237.013.426.02.6.02.891,0,1.1-.186,1.141-.244a3.869,3.869,0,0,0,.031-1.773l0-.041c-.011-.089-.021-.176-.03-.261-.006-.054-.012-.108-.018-.16l0-.016a5.211,5.211,0,0,1-.027-.561v-.2q0-.045,0-.09a24.942,24.942,0,0,0,.106-2.693s0-.009,0-.014v-.434c-.016-.926-.066-1.877-.115-2.8v-.029c0-.017,0-.034,0-.05,0-.054,0-.121-.009-.193s-.008-.131-.011-.2l-.012-.236c-.013-.239-.026-.483-.037-.728-.8.047-1.655.069-2.632.069-1.077,0-2.158-.027-3.2-.054-.521-.013-1.06-.027-1.58-.036-.829-.015-1.678-.067-2.5-.117-.974-.059-1.981-.121-2.953-.121-.547,0-1.051.02-1.52.059,0,.327.005.656.012.98,0,.007,0,.014,0,.021v.432l.008.475c.014.816.027,1.659.031,2.488v.732c0,.974.037,1.933.112,2.934,0,.024,0,.048,0,.072s0,.057.008.092.01.1.013.145c0,.021,0,.043,0,.064v.127c.011.285,0,.588-.008.881a5.817,5.817,0,0,0,.041,1.26c0,.015.008.028.011.037a3.715,3.715,0,0,0,.583.065l.088.006C1398.937,685.942,1399.479,685.972,1400.024,685.994Z" transform="translate(-1236.988 -575.089)" fill="#d3d3d3"/><path d="M1405.506,687.561h-.444a.5.5,0,0,1-.5-.476c-.039-.821-.083-1.653-.125-2.457l-.014-.264c-1.184-.024-2.372-.044-3.543-.06,0,.835.006,1.767.054,2.691a.5.5,0,0,1-.507.526c-.068,0-.137,0-.207-.007s-.151-.007-.221-.007a.5.5,0,0,1-.5-.473c-.049-.925-.057-1.852-.058-2.757l-.417-.006c-.718-.01-1.461-.021-2.188-.037a.5.5,0,0,1-.489-.5v-.127c0-.026,0-.052-.007-.077a2.306,2.306,0,0,1-.016-.242.5.5,0,0,1,.5-.5h.01c.872.017,1.752.032,2.625.045v-.116c.01-.712.02-1.448.02-2.162v-.044c-.4.005-.793.008-1.175.008-.543,0-1.082-.006-1.6-.017a.5.5,0,0,1-.489-.5v-.442a.5.5,0,0,1,.5-.5h.007c.472.007.96.01,1.492.01.391,0,.8,0,1.249-.006-.018-.667-.046-1.334-.076-1.989-.906.013-1.822.013-2.711.013a.5.5,0,0,1-.5-.5v-.439a.5.5,0,0,1,.5-.5h.41c.745,0,1.5-.008,2.243-.017-.023-.558-.038-1.028-.047-1.48a.5.5,0,0,1,.513-.51l.447.011a.5.5,0,0,1,.487.491c.009.5.027,1,.047,1.467,1.128-.019,2.312-.036,3.5-.047q.01-.6.022-1.2a.5.5,0,0,1,.5-.49h.442a.5.5,0,0,1,.5.51q0,.228-.01.455c-.006.231-.011.467-.015.7h1.265c.824,0,1.5,0,2.12.014-.005-.371,0-.743.005-1.108a.5.5,0,0,1,.5-.488h.44a.5.5,0,0,1,.5.518c-.013.367-.015.742-.006,1.119.435.016.858.034,1.3.065s.9.079,1.241.117a.5.5,0,0,1,.444.48c0,.054.005.109.009.164.006.092.012.188.012.29a.5.5,0,0,1-.562.5c-.279-.035-.542-.061-.8-.08-.472-.038-.969-.067-1.565-.089.02.355.041.71.063,1.057.02.331.041.669.06,1.007.195,0,.392,0,.6,0h.277c.516,0,1.022-.009,1.548-.027a.5.5,0,0,1,.517.5v.442a.5.5,0,0,1-.481.5c-.619.024-1.25.024-1.86.024-.167,0-.328,0-.484-.008h-.049c.019.835.022,1.673.023,2.494.266,0,.519-.007.764-.014.468-.016.921-.024,1.344-.024h.14a.5.5,0,0,1,.494.44c.007.059.014.12.021.182s.017.155.027.235a.5.5,0,0,1-.479.562l-.4.013c-.241.008-.49.015-.728.026-.4.025-.805.032-1.2.035,0,.907.012,1.705.048,2.512a.5.5,0,0,1-.531.522l-.437-.027a.5.5,0,0,1-.468-.475c-.041-.846-.047-1.7-.048-2.536-.776-.011-1.552-.033-2.307-.054l-.494-.014-.526-.011-.156,0,.006.118c.041.825.083,1.678.131,2.516a.5.5,0,0,1-.5.528Zm.306-4.618.351.007.731.021c.813.024,1.649.049,2.476.057,0-.8,0-1.617-.025-2.42,0-.034,0-.067,0-.1l-.484-.013c-1-.026-2.028-.053-3.039-.053h-.106C1405.739,681.277,1405.775,682.119,1405.812,682.944Zm-4.912-.092c1.165.016,2.328.038,3.469.066-.036-.814-.071-1.644-.1-2.465-1.114.008-2.238.024-3.33.04h-.019c0,.423-.008.847-.013,1.261C1400.907,682.114,1400.9,682.484,1400.9,682.851Zm4.792-3.849h.135c1.152,0,2.317.034,3.445.064-.019-.336-.04-.672-.06-1-.021-.348-.044-.7-.063-1.06-.894-.013-1.8-.013-2.673-.013h-.159c-.184,0-.374,0-.557.006h-.07C1405.686,677.64,1405.687,678.3,1405.693,679Zm-4.854-1.944c.031.7.055,1.343.065,1.984l1.014-.015c.762-.012,1.545-.024,2.325-.028-.006-.661-.006-1.327,0-1.988-.978.012-1.965.026-2.923.04Z" transform="translate(-1237 -575.13)" fill="#d3d3d3"/><path d="M1402.9,651.248c-1.072,0-2.151-.027-3.2-.054-.521-.013-1.059-.027-1.578-.036-.82-.015-1.663-.066-2.479-.116-.981-.06-2-.121-2.981-.121a16.277,16.277,0,0,0-2.405.159c-.222.033-.419.069-.619.111a.873.873,0,0,1-1.039-.632c0-.008,0-.017-.006-.025a17.9,17.9,0,0,1-.308-4.956.875.875,0,0,1,.483-.707.834.834,0,0,1,.681-.316c.572,0,1.142.029,1.694.056.789.04,1.579.1,2.342.15.572.04,1.22.086,1.857.122.884.05,1.618.073,2.308.073l.361,0h.006c.567,0,1.151-.026,1.715-.05l.151-.007c.416-.018.841-.04,1.252-.061l.94-.047c1.11-.054,1.958-.079,2.749-.079.274,0,.545,0,.8.009.554.015,1.053.043,1.528.084a.881.881,0,0,1,.822.857q.028.454.055.909c.035.581.071,1.182.11,1.77a5.915,5.915,0,0,0,.092.611,3.486,3.486,0,0,1,.044,1.66.5.5,0,0,1-.4.333c-.382.057-.789.107-1.28.155C1405.508,651.2,1404.332,651.248,1402.9,651.248Zm-10.234-1.328c1.016,0,2.045.063,3.041.123.806.049,1.638.1,2.437.114.523.01,1.063.023,1.585.037,1.038.026,2.111.053,3.17.053,1.4,0,2.549-.047,3.608-.147.319-.031.6-.063.862-.1a5.7,5.7,0,0,0-.116-.875,6.571,6.571,0,0,1-.106-.725c-.04-.591-.076-1.193-.11-1.776q-.025-.418-.05-.836c-.43-.036-.883-.06-1.382-.073-.249-.006-.512-.009-.778-.009-.774,0-1.607.024-2.7.078l-.937.047c-.413.021-.84.043-1.259.062l-.151.007c-.574.025-1.167.051-1.755.051l-.371,0c-.709,0-1.461-.024-2.364-.075-.644-.036-1.3-.082-1.872-.123-.759-.054-1.543-.11-2.321-.149-.514-.026-1.046-.052-1.568-.054a.5.5,0,0,1-.25.2,16.888,16.888,0,0,0,.269,4.435c.182-.036.364-.068.565-.1A17.27,17.27,0,0,1,1392.663,649.92Z" transform="translate(-1230.524 -551.414)" fill="#d3d3d3"/><path d="M0-.5H168.918a.5.5,0,0,1,.5.5V111.941a.5.5,0,0,1-.5.5H0a.5.5,0,0,1-.5-.5V0A.5.5,0,0,1,0-.5ZM168.418.5H.5V111.441H168.418Z" transform="translate(21.871 0)" fill="#d3d3d3"/><path d="M1672.89,250.389h-71.87a.5.5,0,0,1-.5-.5V137.948a.5.5,0,0,1,.5-.5h61.869a.5.5,0,0,1,0,1H1601.52V249.389h71.37a.5.5,0,0,1,0,1Z" transform="translate(-1403.611 -137.948)" fill="#d3d3d3"/><path d="M696.868,338.78H650.393a.5.5,0,0,1,0-1h45.975V321.043a.5.5,0,0,1,.5-.5h21.081V296.957a.5.5,0,0,1,.5-.5h15.9V284.438a.5.5,0,0,1,.5-.5h24.173a.5.5,0,0,1,.5.5v43.286h18.208V303a.5.5,0,0,1,.5-.5h18.317a.5.5,0,0,1,.5.5v26.046h22.262a.5.5,0,0,1,0,1H796.549a.5.5,0,0,1-.5-.5V303.5H778.732v24.725a.5.5,0,0,1-.5.5H759.023a.5.5,0,0,1-.5-.5V284.938H735.35v12.019a.5.5,0,0,1-.5.5h-15.9v23.585a.5.5,0,0,1-.5.5H697.368V338.28A.5.5,0,0,1,696.868,338.78Z" transform="translate(-628.522 -257.388)" fill="#d3d3d3"/><path d="M1624.615,320.579h-23.6a.5.5,0,0,1,0-1h23.1V262.113a.5.5,0,0,1,.5-.5h20.144a.5.5,0,0,1,.5.5v16.142h17.629a.5.5,0,0,1,0,1h-18.129a.5.5,0,0,1-.5-.5V262.613h-19.144v57.466A.5.5,0,0,1,1624.615,320.579Z" transform="translate(-1403.611 -239.185)" fill="#d3d3d3"/><path d="M1300.279,206.322h-27.989a.5.5,0,0,1-.491-.408,6.983,6.983,0,0,1-.119-1.279,6.868,6.868,0,0,1,8.357-6.7,6.868,6.868,0,0,1,13.07,1.248,6.952,6.952,0,0,1,.81-.048,6.868,6.868,0,0,1,6.863,6.678.5.5,0,0,1-.5.514Zm-27.56-1h27.023a5.869,5.869,0,0,0-5.827-5.192,5.953,5.953,0,0,0-1.126.108.5.5,0,0,1-.591-.427,5.868,5.868,0,0,0-11.379-1.126.5.5,0,0,1-.615.32,5.868,5.868,0,0,0-7.525,5.629A5.973,5.973,0,0,0,1272.719,205.322Z" transform="translate(-1135.492 -183.808)" fill="#d3d3d3"/><path d="M898.612,321.122H883.989a.5.5,0,0,1-.5-.514,3.827,3.827,0,0,1,3.826-3.721h.009q.118,0,.237.007a3.827,3.827,0,0,1,7.146-.668,3.737,3.737,0,0,1,.627-.053h.009A3.831,3.831,0,0,1,899.169,320a3.942,3.942,0,0,1-.066.713A.5.5,0,0,1,898.612,321.122Zm-14.062-1h13.617q0-.061,0-.122a2.83,2.83,0,0,0-2.827-2.827h-.007a2.742,2.742,0,0,0-.785.115.5.5,0,0,1-.616-.317,2.827,2.827,0,0,0-5.477.542.5.5,0,0,1-.589.425,2.924,2.924,0,0,0-.544-.051h-.008a2.829,2.829,0,0,0-2.765,2.235Z" transform="translate(-818.983 -281.945)" fill="#d3d3d3"/><path d="M1475.5,537.9a33.38,33.38,0,0,0-4.835,5.8,36.573,36.573,0,0,0-3.142,7.036,45.064,45.064,0,0,1-2.327,5.666,7.642,7.642,0,0,1-.64,1.022c-1.174-.027-2.346,0-3.517.069a25.513,25.513,0,0,0,1.491-5.492c.334-1.724.691-3.453.988-5.2h0c1.183-2.928,2.359-5.918,4.532-8.265a.253.253,0,0,1,.4.306,19.056,19.056,0,0,0-2.214,6.871q-.189,1-.391,2c.11-.191.23-.384.336-.572,2.209-3.683,5.041-7.688,8.942-9.723a.306.306,0,0,1,.38.474Z" transform="translate(-1289.482 -463.622)" fill="#25847b"/><path d="M1351.778,568.246c-.776-.055-1.554-.111-2.332-.15-1.9-1.381-2.9-4.373-3.966-6.164-2.287-3.83-4.031-8.056-7.727-10.756-.255-.186-.113-.691.23-.557l.073.032a17.684,17.684,0,0,1,8.141,6.633c.126.184.251.371.375.559a24.723,24.723,0,0,1,2.23,4.182C1349.681,564.16,1350.261,566.462,1351.778,568.246Z" transform="translate(-1188.851 -474.399)" fill="#25847b"/><path d="M1391.855,524.3c-.1-.474-.17-.96-.23-1.45h0c-.145-.242-.279-.49-.4-.743a30.655,30.655,0,0,1-2.18-7.752c-.5-2.491-1.052-4.972-1.612-7.446-.481-2.072-1.28-4.187-1.611-6.321-.03-.608-.078-1.213-.152-1.816-.039-.312-.5-.334-.506,0a11.909,11.909,0,0,0,.177,2c.23,4.049-.212,8.162-.1,12.2.021.78.051,1.59.1,2.419a24.721,24.721,0,0,1,2.23,4.182c.873,2.131,1.453,4.433,2.97,6.215.621.044,1.243.087,1.864.122a7.44,7.44,0,0,1-.546-1.614Z" transform="translate(-1227.61 -431.947)" fill="#53968e"/><path d="M1425.54,516.743h0c-.03,1.234-.069,2.467-.074,3.7a6.785,6.785,0,0,1-.527,3.017c-.631.028-1.259.051-1.887.057-.9.011-1.8-.021-2.7-.071a7.425,7.425,0,0,1-.546-1.611c-.1-.474-.17-.96-.23-1.45h0a52.656,52.656,0,0,1-.074-6.408c.048-3.151.216-6.3.094-9.453a42.478,42.478,0,0,1,.175-8.837.253.253,0,0,1,.486,0c.3,1.979,1.611,12.264,2.365,18.531.069-1.289.156-2.578.189-3.869.094-3.713-.258-7.536.6-11.182a.253.253,0,0,1,.485,0,21.968,21.968,0,0,1,.624,4.946c.14,1.922.548,3.816.8,5.724A43.311,43.311,0,0,1,1425.54,516.743Z" transform="translate(-1255.558 -429.479)" fill="#25847b"/><path d="M1454.546,509.578a47.919,47.919,0,0,1-.642,5.239h0c-.3,1.741-.654,3.473-.988,5.2a25.545,25.545,0,0,1-1.491,5.492c-.73.035-1.464.076-2.194.108a6.759,6.759,0,0,0,.527-3.017c0-1.232.044-2.465.073-3.7h0c.39-2.111.725-4.228,1.075-6.344.444-2.679.739-5.409,1.413-8.042.312-1.2.691-2.371.985-3.577a9.5,9.5,0,0,1,.981-2.67c.122-.2.494-.13.46.127C1454.447,502.118,1454.765,505.851,1454.546,509.578Z" transform="translate(-1279.851 -431.636)" fill="#53968e"/><path d="M929.2,842.991s1.3-.288,5.791,5.791A60.582,60.582,0,0,0,945.809,859.6h93.03a130.709,130.709,0,0,0-12.361-9.127,26.742,26.742,0,0,1-7.916-7.483Z" transform="translate(-855.846 -712.8)" fill="#d7a848"/><g transform="translate(80.259 131.16)" opacity="0.4"><path d="M966.595,849.1s55.143-1.188,78.345-.754C1044.94,848.342,973.415,849.725,966.595,849.1Z" transform="translate(-966.595 -848.248)" fill="#fff"/><path d="M984.907,869.856s55.143-1.187,78.344-.757C1063.252,869.1,991.72,870.482,984.907,869.856Z" transform="translate(-981.526 -865.172)" fill="#fff"/><path d="M1063.252,857.323s-55.143,1.188-78.344.754C984.907,858.078,1056.438,856.694,1063.252,857.323Z" transform="translate(-981.526 -855.514)" fill="#fff"/><path d="M1074.171,881.02s-55.143,1.188-78.345.754C995.826,881.774,1067.357,880.391,1074.171,881.02Z" transform="translate(-990.428 -874.835)" fill="#fff"/><path d="M1016.056,905.407s55.143-1.185,78.345-.754C1094.4,904.652,1022.869,906.035,1016.056,905.407Z" transform="translate(-1006.923 -894.161)" fill="#fff"/><path d="M1094.4,892.873s-55.143,1.176-78.345.754C1016.056,893.628,1087.588,892.244,1094.4,892.873Z" transform="translate(-1006.923 -884.499)" fill="#fff"/><path d="M1105.322,916.57s-55.143,1.188-78.344.754C1026.977,917.324,1098.51,915.941,1105.322,916.57Z" transform="translate(-1015.827 -903.82)" fill="#fff"/></g><path d="M1193.064,385.722a11.693,11.693,0,0,0-2.177,2.87l-.642,1.56s-.312,1.082-1.015,4.113c-.442,1.9,1.342,3.453,1.342,3.453s.81,4.265-.962,4.719c-2.072.534-6.047,1.662-6.348,1.57.147-.276-1.227-2.447-1.109-3.894a6.333,6.333,0,0,1,.832-2.072c.138-.17,0,.044.154-.283a12.316,12.316,0,0,0,2.3-5.253c-.967-.177-4.187.016-4.118-5.264.375-3.327.244-6.48.766-6.647l1.117-1.137a35.667,35.667,0,0,1,7.508,1.788c.4.173.757,2.589.661,3.124.792-1.929,2.016-1.319,2.182-1.063C1193.872,383.764,1193.822,384.566,1193.064,385.722Z" transform="translate(-1061.411 -334.86)" fill="#ecc298" fill-rule="evenodd"/><path d="M1194.122,406.184a2.075,2.075,0,0,1-1.17,1.634c-1.064.449.8.578,1,.41s-.619.189-.5-.292a.38.38,0,0,1,.23-.263,1.433,1.433,0,0,0,.435-1.489Z" transform="translate(-1070.629 -356.653)" fill="#c37e57"/><path d="M1193.172,416.425a2.916,2.916,0,0,0,2.889-.709s.092-.186-.23-.377.338-.35.548.161.345.375-.026.329-.939,1.418-3.2.739C1193.159,416.568,1192.839,416.441,1193.172,416.425Z" transform="translate(-1070.95 -363.968)" fill="#c37e57"/><path d="M1190.432,396.648s.2-.946,1.639-.832l-.044.536s-1.151-.449-1.535.3Z" transform="translate(-1068.84 -348.192)" fill="#3c3427"/><path d="M1208.2,397.558s-.041-.967-1.485-1.084l-.041.536s1.216-.256,1.466.543Z" transform="translate(-1082.082 -348.736)" fill="#3c3427"/><path d="M1206.186,407.593a1.317,1.317,0,0,0,1.4.2c.709-.393-.212.527-.716.393S1206.018,407.685,1206.186,407.593Z" transform="translate(-1081.65 -357.802)" fill="#3c3427"/><path d="M1189.454,406.72a1.321,1.321,0,0,0,1.4.2c.709-.391-.423.494-.921.359S1189.279,406.821,1189.454,406.72Z" transform="translate(-1067.986 -357.09)" fill="#3c3427"/><path d="M1203.226,434s3.327.286,5.347-3.646l-.534,1.3-.98,3.968a2.361,2.361,0,0,0-.08,1.128s-1.356-2.879-3.833-2.365Z" transform="translate(-1079.206 -376.36)" fill="#c37e57" fill-rule="evenodd"/><circle cx="4.928" cy="4.928" r="4.928" transform="translate(128.932 35.244)" fill="#75432a"/><path d="M1241.543,340.542a4.928,4.928,0,0,1-9.515,1.8,4.928,4.928,0,0,0,8.167-5.193,4.923,4.923,0,0,1,1.349,3.39Z" transform="translate(-1102.755 -300.368)" fill="#58311d" fill-rule="evenodd"/><path d="M1197.409,369.441c-1.1,3.273-4.963,4.373-4.963,4.373l1.022-2.847a3.44,3.44,0,0,0,1.4-.91c.13-.13.209-.214.209-.214a3.537,3.537,0,0,0,.665-1.881c-.043-.571-.375-.691-.375-.691-1.43-.621-1.991,1.222-1.991,1.222a4.347,4.347,0,0,1-1.4-2.447,7.169,7.169,0,0,0-8.192-.582c0-3.054,4.575-6.571,8.567-5.167,2.693.946,4.765,2.654,5.345,5.1h0A7.257,7.257,0,0,1,1197.409,369.441Z" transform="translate(-1063.425 -318.98)" fill="#75432a" fill-rule="evenodd"/><path d="M1235.631,393.344c-1.1,3.273-4.962,4.373-4.962,4.373l1.022-2.847a3.439,3.439,0,0,0,1.4-.91c0,.46.016.84.88.794.985-.055,1.966-4.053,1.952-5.46A7.282,7.282,0,0,1,1235.631,393.344Z" transform="translate(-1101.647 -342.882)" fill="#58311d"/><path d="M1108.055,288.605v8.286a3.361,3.361,0,0,1-.073.5h0a.168.168,0,0,1-.011.062.149.149,0,0,1,0,.035,10.259,10.259,0,0,1-3.473,5.342c-.32.279-.691.61-1.077.978l-.072.067c-3.871,3.623-10.689,10.779-10.689,11.009a53.621,53.621,0,0,0,10.6,8.44c.5.286.3.992.3.992l-3.913,8.224-12.462-11.564s-3.568-3.167-2.635-6.905,18.667-15.442,19.052-16.4S1106.353,287.6,1108.055,288.605Z" transform="translate(-982.384 -260.722)" fill="#ecc298"/><path d="M1233.4,321.011l-9.9,10.128-1.02,1.043-6.588-6.905a1.507,1.507,0,0,1,.921-1.673c4.484-1.517,11.12-8.517,11.12-8.694,0-.242-8.4-9.034-11.829-12.031s-3.568-5.948-3.568-5.948v-8.287c1.7-1.008,4.063,8.1,4.447,9.065.35.872,15.065,10.643,18.414,15.212a3.649,3.649,0,0,1,.633,1.185C1236.971,317.844,1233.4,321.011,1233.4,321.011Z" transform="translate(-1086.868 -260.754)" fill="#ecc298"/><path d="M1240.634,402.463s1.139-.06-.2,1.8a1.889,1.889,0,0,0,1.092-1.367C1241.641,401.934,1240.634,402.463,1240.634,402.463Z" transform="translate(-1109.605 -353.5)" fill="#c37e57" fill-rule="evenodd"/><path d="M1176.053,498.972s-6.123,3.98-17.921-.336a32.837,32.837,0,0,0,.516-6.231,18.744,18.744,0,0,0-1.611-7.941s4.387-2.776,5.446-7.515a1.853,1.853,0,0,0,.845.295s-1.176,3.982,2.516,4.127,4.919-4.168,4.919-4.168h.789s2.242,7.078,6.675,7.543a19.867,19.867,0,0,0-2.722,8.226,16.176,16.176,0,0,0,.55,6Z" transform="translate(-1041.611 -414.351)" fill="#ecc298"/><path d="M1178.245,484.741a19.867,19.867,0,0,0-2.723,8.226c-8.7-1.841-14.094-1.243-16.874-.567a18.745,18.745,0,0,0-1.611-7.941s4.387-2.776,5.446-7.515a1.855,1.855,0,0,0,.845.295s-1.176,3.982,2.516,4.127,4.919-4.168,4.919-4.168h.789S1173.8,484.276,1178.245,484.741Z" transform="translate(-1041.611 -414.347)" fill="#f8e6e6"/><g transform="translate(115.425 62.597)"><g clip-path="url(#a)"><g transform="translate(1.022 -0.234)"><circle cx="0.235" cy="0.235" r="0.235" transform="translate(17.456 0)" fill="#f5d1d1"/><circle cx="0.235" cy="0.235" r="0.235" transform="translate(17.456 1.678)" fill="#f5d1d1"/><circle cx="0.235" cy="0.235" r="0.235" transform="translate(17.456 3.358)" fill="#f5d1d1"/><path d="M1257.342,502.951a.235.235,0,1,1-.235.235A.235.235,0,0,1,1257.342,502.951Z" transform="translate(-1239.651 -497.915)" fill="#f5d1d1"/><circle cx="0.235" cy="0.235" r="0.235" transform="translate(17.456 6.714)" fill="#f5d1d1"/><circle cx="0.235" cy="0.235" r="0.235" transform="translate(17.456 8.394)" fill="#f5d1d1"/><path d="M1257.342,530.225a.235.235,0,1,1-.235.235A.235.235,0,0,1,1257.342,530.225Z" transform="translate(-1239.651 -520.153)" fill="#f5d1d1"/><circle cx="0.235" cy="0.235" r="0.235" transform="translate(17.456 11.75)" fill="#f5d1d1"/><circle cx="0.235" cy="0.235" r="0.235" transform="translate(17.456 13.428)" fill="#f5d1d1"/><circle cx="0.235" cy="0.235" r="0.235" transform="translate(17.456 15.109)" fill="#f5d1d1"/><circle cx="0.235" cy="0.235" r="0.235" transform="translate(18.704 0.84)" fill="#f5d1d1"/><path d="M1264.1,489.315a.235.235,0,1,1-.235.235A.235.235,0,0,1,1264.1,489.315Z" transform="translate(-1245.16 -486.797)" fill="#f5d1d1"/><circle cx="0.235" cy="0.235" r="0.235" transform="translate(18.704 4.196)" fill="#f5d1d1"/><circle cx="0.235" cy="0.235" r="0.235" transform="translate(18.704 5.876)" fill="#f5d1d1"/><path d="M1264.1,516.588a.235.235,0,1,1-.235.235A.235.235,0,0,1,1264.1,516.588Z" transform="translate(-1245.16 -509.034)" fill="#f5d1d1"/><circle cx="0.235" cy="0.235" r="0.235" transform="translate(18.704 9.232)" fill="#f5d1d1"/><circle cx="0.235" cy="0.235" r="0.235" transform="translate(18.704 10.912)" fill="#f5d1d1"/><circle cx="0.235" cy="0.235" r="0.235" transform="translate(18.704 12.591)" fill="#f5d1d1"/><circle cx="0.235" cy="0.235" r="0.235" transform="translate(18.704 14.268)" fill="#f5d1d1"/><circle cx="0.235" cy="0.235" r="0.235" transform="translate(18.704 15.946)" fill="#f5d1d1"/><circle cx="0.235" cy="0.235" r="0.235" transform="translate(14.964 0)" fill="#f5d1d1"/><circle cx="0.235" cy="0.235" r="0.235" transform="translate(14.964 1.678)" fill="#f5d1d1"/><circle cx="0.235" cy="0.235" r="0.235" transform="translate(14.964 3.358)" fill="#f5d1d1"/><path d="M1243.843,502.951a.235.235,0,1,1-.235.235A.235.235,0,0,1,1243.843,502.951Z" transform="translate(-1228.644 -497.915)" fill="#f5d1d1"/><circle cx="0.235" cy="0.235" r="0.235" transform="translate(14.964 6.714)" fill="#f5d1d1"/><circle cx="0.235" cy="0.235" r="0.235" transform="translate(14.964 8.394)" fill="#f5d1d1"/><path d="M1243.843,530.225a.235.235,0,1,1-.235.235A.235.235,0,0,1,1243.843,530.225Z" transform="translate(-1228.644 -520.153)" fill="#f5d1d1"/><circle cx="0.235" cy="0.235" r="0.235" transform="translate(14.964 11.75)" fill="#f5d1d1"/><circle cx="0.235" cy="0.235" r="0.235" transform="translate(14.964 13.428)" fill="#f5d1d1"/><circle cx="0.235" cy="0.235" r="0.235" transform="translate(14.964 15.109)" fill="#f5d1d1"/><circle cx="0.235" cy="0.235" r="0.235" transform="translate(16.211 0.84)" fill="#f5d1d1"/><path d="M1250.6,489.315a.235.235,0,1,1-.235.235A.235.235,0,0,1,1250.6,489.315Z" transform="translate(-1234.152 -486.797)" fill="#f5d1d1"/><circle cx="0.235" cy="0.235" r="0.235" transform="translate(16.211 4.196)" fill="#f5d1d1"/><circle cx="0.235" cy="0.235" r="0.235" transform="translate(16.211 5.876)" fill="#f5d1d1"/><path d="M1250.6,516.588a.235.235,0,1,1-.235.235A.235.235,0,0,1,1250.6,516.588Z" transform="translate(-1234.152 -509.034)" fill="#f5d1d1"/><circle cx="0.235" cy="0.235" r="0.235" transform="translate(16.211 9.232)" fill="#f5d1d1"/><circle cx="0.235" cy="0.235" r="0.235" transform="translate(16.211 10.912)" fill="#f5d1d1"/><circle cx="0.235" cy="0.235" r="0.235" transform="translate(16.211 12.591)" fill="#f5d1d1"/><circle cx="0.235" cy="0.235" r="0.235" transform="translate(16.211 14.268)" fill="#f5d1d1"/><circle cx="0.235" cy="0.235" r="0.235" transform="translate(16.211 15.946)" fill="#f5d1d1"/><circle cx="0.235" cy="0.235" r="0.235" transform="translate(12.469 0)" fill="#f5d1d1"/><circle cx="0.235" cy="0.235" r="0.235" transform="translate(12.469 1.678)" fill="#f5d1d1"/><circle cx="0.235" cy="0.235" r="0.235" transform="translate(12.469 3.358)" fill="#f5d1d1"/><path d="M1230.331,502.951a.235.235,0,1,1-.235.235A.235.235,0,0,1,1230.331,502.951Z" transform="translate(-1217.627 -497.915)" fill="#f5d1d1"/><circle cx="0.235" cy="0.235" r="0.235" transform="translate(12.469 6.714)" fill="#f5d1d1"/><circle cx="0.235" cy="0.235" r="0.235" transform="translate(12.469 8.394)" fill="#f5d1d1"/><path d="M1230.331,530.225a.235.235,0,1,1-.235.235A.235.235,0,0,1,1230.331,530.225Z" transform="translate(-1217.627 -520.153)" fill="#f5d1d1"/><circle cx="0.235" cy="0.235" r="0.235" transform="translate(12.469 11.75)" fill="#f5d1d1"/><circle cx="0.235" cy="0.235" r="0.235" transform="translate(12.469 13.428)" fill="#f5d1d1"/><circle cx="0.235" cy="0.235" r="0.235" transform="translate(12.469 15.109)" fill="#f5d1d1"/><circle cx="0.235" cy="0.235" r="0.235" transform="translate(13.716 0.84)" fill="#f5d1d1"/><path d="M1237.086,489.315a.235.235,0,1,1-.235.235A.235.235,0,0,1,1237.086,489.315Z" transform="translate(-1223.135 -486.797)" fill="#f5d1d1"/><circle cx="0.235" cy="0.235" r="0.235" transform="translate(13.716 4.196)" fill="#f5d1d1"/><circle cx="0.235" cy="0.235" r="0.235" transform="translate(13.716 5.876)" fill="#f5d1d1"/><path d="M1237.086,516.588a.235.235,0,1,1-.235.235A.235.235,0,0,1,1237.086,516.588Z" transform="translate(-1223.135 -509.034)" fill="#f5d1d1"/><circle cx="0.235" cy="0.235" r="0.235" transform="translate(13.716 9.232)" fill="#f5d1d1"/><circle cx="0.235" cy="0.235" r="0.235" transform="translate(13.716 10.912)" fill="#f5d1d1"/><circle cx="0.235" cy="0.235" r="0.235" transform="translate(13.716 12.591)" fill="#f5d1d1"/><circle cx="0.235" cy="0.235" r="0.235" transform="translate(13.716 14.268)" fill="#f5d1d1"/><circle cx="0.235" cy="0.235" r="0.235" transform="translate(13.716 15.946)" fill="#f5d1d1"/><path d="M1216.831,475.678a.235.235,0,1,1-.235.235A.235.235,0,0,1,1216.831,475.678Z" transform="translate(-1206.62 -475.678)" fill="#f5d1d1"/><path d="M1216.831,484.764a.235.235,0,1,1-.235.235A.235.235,0,0,1,1216.831,484.764Z" transform="translate(-1206.62 -483.086)" fill="#f5d1d1"/><path d="M1216.831,493.865a.235.235,0,1,1-.235.235A.235.235,0,0,1,1216.831,493.865Z" transform="translate(-1206.62 -490.507)" fill="#f5d1d1"/><path d="M1216.831,502.951a.235.235,0,1,1-.235.235A.235.235,0,0,1,1216.831,502.951Z" transform="translate(-1206.62 -497.915)" fill="#f5d1d1"/><path d="M1216.831,512.039a.235.235,0,1,1-.235.235A.235.235,0,0,1,1216.831,512.039Z" transform="translate(-1206.62 -505.325)" fill="#f5d1d1"/><path d="M1216.831,521.138a.235.235,0,1,1-.235.235A.235.235,0,0,1,1216.831,521.138Z" transform="translate(-1206.62 -512.744)" fill="#f5d1d1"/><path d="M1216.831,530.225a.235.235,0,1,1-.235.235A.235.235,0,0,1,1216.831,530.225Z" transform="translate(-1206.62 -520.153)" fill="#f5d1d1"/><path d="M1216.831,539.313a.235.235,0,1,1-.235.235A.235.235,0,0,1,1216.831,539.313Z" transform="translate(-1206.62 -527.563)" fill="#f5d1d1"/><path d="M1216.831,548.4a.235.235,0,1,1-.235.235A.235.235,0,0,1,1216.831,548.4Z" transform="translate(-1206.62 -534.971)" fill="#f5d1d1"/><path d="M1216.831,557.5a.235.235,0,1,1-.235.235A.234.234,0,0,1,1216.831,557.5Z" transform="translate(-1206.62 -542.39)" fill="#f5d1d1"/><path d="M1223.587,480.228a.235.235,0,1,1-.235.235A.235.235,0,0,1,1223.587,480.228Z" transform="translate(-1212.129 -479.388)" fill="#f5d1d1"/><path d="M1223.587,489.315a.235.235,0,1,1-.235.235A.235.235,0,0,1,1223.587,489.315Z" transform="translate(-1212.129 -486.797)" fill="#f5d1d1"/><path d="M1223.587,498.4a.235.235,0,1,1-.235.235A.235.235,0,0,1,1223.587,498.4Z" transform="translate(-1212.129 -494.205)" fill="#f5d1d1"/><path d="M1223.587,507.5a.235.235,0,1,1-.235.235A.235.235,0,0,1,1223.587,507.5Z" transform="translate(-1212.129 -501.626)" fill="#f5d1d1"/><path d="M1223.587,516.588a.235.235,0,1,1-.235.235A.235.235,0,0,1,1223.587,516.588Z" transform="translate(-1212.129 -509.034)" fill="#f5d1d1"/><path d="M1223.587,525.676a.235.235,0,1,1-.235.235A.235.235,0,0,1,1223.587,525.676Z" transform="translate(-1212.129 -516.444)" fill="#f5d1d1"/><path d="M1223.587,534.775a.235.235,0,1,1-.235.235A.235.235,0,0,1,1223.587,534.775Z" transform="translate(-1212.129 -523.862)" fill="#f5d1d1"/><path d="M1223.587,543.862a.235.235,0,1,1-.235.235A.235.235,0,0,1,1223.587,543.862Z" transform="translate(-1212.129 -531.271)" fill="#f5d1d1"/><path d="M1223.587,552.949a.235.235,0,1,1-.235.235A.235.235,0,0,1,1223.587,552.949Z" transform="translate(-1212.129 -538.681)" fill="#f5d1d1"/><path d="M1223.587,562.036a.235.235,0,1,1-.235.235A.235.235,0,0,1,1223.587,562.036Z" transform="translate(-1212.129 -546.09)" fill="#f5d1d1"/><circle cx="0.235" cy="0.235" r="0.235" transform="translate(7.481 0)" fill="#f5d1d1"/><circle cx="0.235" cy="0.235" r="0.235" transform="translate(7.481 1.678)" fill="#f5d1d1"/><circle cx="0.235" cy="0.235" r="0.235" transform="translate(7.481 3.358)" fill="#f5d1d1"/><path d="M1203.319,502.951a.235.235,0,1,1-.235.235A.235.235,0,0,1,1203.319,502.951Z" transform="translate(-1195.603 -497.915)" fill="#f5d1d1"/><circle cx="0.235" cy="0.235" r="0.235" transform="translate(7.481 6.714)" fill="#f5d1d1"/><circle cx="0.235" cy="0.235" r="0.235" transform="translate(7.481 8.394)" fill="#f5d1d1"/><path d="M1203.319,530.225a.235.235,0,1,1-.235.235A.235.235,0,0,1,1203.319,530.225Z" transform="translate(-1195.603 -520.153)" fill="#f5d1d1"/><circle cx="0.235" cy="0.235" r="0.235" transform="translate(7.481 11.75)" fill="#f5d1d1"/><circle cx="0.235" cy="0.235" r="0.235" transform="translate(7.481 13.428)" fill="#f5d1d1"/><circle cx="0.235" cy="0.235" r="0.235" transform="translate(7.481 15.109)" fill="#f5d1d1"/><path d="M1210.075,480.228a.235.235,0,1,1-.235.235A.235.235,0,0,1,1210.075,480.228Z" transform="translate(-1201.112 -479.388)" fill="#f5d1d1"/><path d="M1210.075,489.315a.235.235,0,1,1-.235.235A.234.234,0,0,1,1210.075,489.315Z" transform="translate(-1201.112 -486.797)" fill="#f5d1d1"/><path d="M1210.075,498.4a.235.235,0,1,1-.235.235A.235.235,0,0,1,1210.075,498.4Z" transform="translate(-1201.112 -494.205)" fill="#f5d1d1"/><path d="M1210.075,507.5a.235.235,0,1,1-.235.235A.235.235,0,0,1,1210.075,507.5Z" transform="translate(-1201.112 -501.626)" fill="#f5d1d1"/><path d="M1210.075,516.588a.235.235,0,1,1-.235.235A.235.235,0,0,1,1210.075,516.588Z" transform="translate(-1201.112 -509.034)" fill="#f5d1d1"/><path d="M1210.075,525.676a.235.235,0,1,1-.235.235A.235.235,0,0,1,1210.075,525.676Z" transform="translate(-1201.112 -516.444)" fill="#f5d1d1"/><path d="M1210.075,534.775a.235.235,0,1,1-.235.235A.235.235,0,0,1,1210.075,534.775Z" transform="translate(-1201.112 -523.862)" fill="#f5d1d1"/><path d="M1210.075,543.862a.235.235,0,1,1-.235.235A.235.235,0,0,1,1210.075,543.862Z" transform="translate(-1201.112 -531.271)" fill="#f5d1d1"/><path d="M1210.075,552.949a.235.235,0,1,1-.235.235A.234.234,0,0,1,1210.075,552.949Z" transform="translate(-1201.112 -538.681)" fill="#f5d1d1"/><path d="M1210.075,562.036a.235.235,0,1,1-.235.235A.235.235,0,0,1,1210.075,562.036Z" transform="translate(-1201.112 -546.09)" fill="#f5d1d1"/><circle cx="0.235" cy="0.235" r="0.235" transform="translate(4.988 0)" fill="#f5d1d1"/><circle cx="0.235" cy="0.235" r="0.235" transform="translate(4.988 1.678)" fill="#f5d1d1"/><circle cx="0.235" cy="0.235" r="0.235" transform="translate(4.988 3.358)" fill="#f5d1d1"/><path d="M1189.82,502.951a.235.235,0,1,1-.235.235A.235.235,0,0,1,1189.82,502.951Z" transform="translate(-1184.597 -497.915)" fill="#f5d1d1"/><circle cx="0.235" cy="0.235" r="0.235" transform="translate(4.988 6.714)" fill="#f5d1d1"/><circle cx="0.235" cy="0.235" r="0.235" transform="translate(4.988 8.394)" fill="#f5d1d1"/><path d="M1189.82,530.225a.235.235,0,1,1-.235.235A.235.235,0,0,1,1189.82,530.225Z" transform="translate(-1184.597 -520.153)" fill="#f5d1d1"/><circle cx="0.235" cy="0.235" r="0.235" transform="translate(4.988 11.75)" fill="#f5d1d1"/><circle cx="0.235" cy="0.235" r="0.235" transform="translate(4.988 13.428)" fill="#f5d1d1"/><circle cx="0.235" cy="0.235" r="0.235" transform="translate(4.988 15.109)" fill="#f5d1d1"/><circle cx="0.235" cy="0.235" r="0.235" transform="translate(6.235 0.84)" fill="#f5d1d1"/><path d="M1196.575,489.315a.235.235,0,1,1-.235.235A.235.235,0,0,1,1196.575,489.315Z" transform="translate(-1190.104 -486.797)" fill="#f5d1d1"/><circle cx="0.235" cy="0.235" r="0.235" transform="translate(6.235 4.196)" fill="#f5d1d1"/><circle cx="0.235" cy="0.235" r="0.235" transform="translate(6.235 5.876)" fill="#f5d1d1"/><path d="M1196.575,516.588a.235.235,0,1,1-.235.235A.235.235,0,0,1,1196.575,516.588Z" transform="translate(-1190.104 -509.034)" fill="#f5d1d1"/><circle cx="0.235" cy="0.235" r="0.235" transform="translate(6.235 9.232)" fill="#f5d1d1"/><circle cx="0.235" cy="0.235" r="0.235" transform="translate(6.235 10.912)" fill="#f5d1d1"/><circle cx="0.235" cy="0.235" r="0.235" transform="translate(6.235 12.591)" fill="#f5d1d1"/><circle cx="0.235" cy="0.235" r="0.235" transform="translate(6.235 14.268)" fill="#f5d1d1"/><circle cx="0.235" cy="0.235" r="0.235" transform="translate(6.235 15.946)" fill="#f5d1d1"/><path d="M1176.306,475.678a.235.235,0,1,1-.235.235A.235.235,0,0,1,1176.306,475.678Z" transform="translate(-1173.578 -475.678)" fill="#f5d1d1"/><path d="M1176.306,484.764a.235.235,0,1,1-.235.235A.235.235,0,0,1,1176.306,484.764Z" transform="translate(-1173.578 -483.086)" fill="#f5d1d1"/><path d="M1176.306,493.865a.235.235,0,1,1-.235.235A.235.235,0,0,1,1176.306,493.865Z" transform="translate(-1173.578 -490.507)" fill="#f5d1d1"/><path d="M1176.306,502.951a.235.235,0,1,1-.235.235A.235.235,0,0,1,1176.306,502.951Z" transform="translate(-1173.578 -497.915)" fill="#f5d1d1"/><path d="M1176.306,512.039a.235.235,0,1,1-.235.235A.235.235,0,0,1,1176.306,512.039Z" transform="translate(-1173.578 -505.325)" fill="#f5d1d1"/><path d="M1176.306,521.138a.235.235,0,1,1-.235.235A.235.235,0,0,1,1176.306,521.138Z" transform="translate(-1173.578 -512.744)" fill="#f5d1d1"/><path d="M1176.306,530.225a.235.235,0,1,1-.235.235A.235.235,0,0,1,1176.306,530.225Z" transform="translate(-1173.578 -520.153)" fill="#f5d1d1"/><path d="M1176.306,539.313a.235.235,0,1,1-.235.235A.235.235,0,0,1,1176.306,539.313Z" transform="translate(-1173.578 -527.563)" fill="#f5d1d1"/><path d="M1176.306,548.4a.235.235,0,1,1-.235.235A.235.235,0,0,1,1176.306,548.4Z" transform="translate(-1173.578 -534.971)" fill="#f5d1d1"/><path d="M1176.306,557.5a.235.235,0,1,1-.235.235A.235.235,0,0,1,1176.306,557.5Z" transform="translate(-1173.578 -542.39)" fill="#f5d1d1"/><circle cx="0.235" cy="0.235" r="0.235" transform="translate(3.74 0.84)" fill="#f5d1d1"/><path d="M1183.063,489.315a.235.235,0,1,1-.235.235A.235.235,0,0,1,1183.063,489.315Z" transform="translate(-1179.088 -486.797)" fill="#f5d1d1"/><circle cx="0.235" cy="0.235" r="0.235" transform="translate(3.74 4.196)" fill="#f5d1d1"/><circle cx="0.235" cy="0.235" r="0.235" transform="translate(3.74 5.876)" fill="#f5d1d1"/><path d="M1183.063,516.588a.235.235,0,1,1-.235.235A.235.235,0,0,1,1183.063,516.588Z" transform="translate(-1179.088 -509.034)" fill="#f5d1d1"/><circle cx="0.235" cy="0.235" r="0.235" transform="translate(3.74 9.232)" fill="#f5d1d1"/><circle cx="0.235" cy="0.235" r="0.235" transform="translate(3.74 10.912)" fill="#f5d1d1"/><circle cx="0.235" cy="0.235" r="0.235" transform="translate(3.74 12.591)" fill="#f5d1d1"/><circle cx="0.235" cy="0.235" r="0.235" transform="translate(3.74 14.268)" fill="#f5d1d1"/><circle cx="0.235" cy="0.235" r="0.235" transform="translate(3.74 15.946)" fill="#f5d1d1"/><circle cx="0.235" cy="0.235" r="0.235" transform="translate(0 0)" fill="#f5d1d1"/><circle cx="0.235" cy="0.235" r="0.235" transform="translate(0 1.678)" fill="#f5d1d1"/><circle cx="0.235" cy="0.235" r="0.235" transform="translate(0 3.358)" fill="#f5d1d1"/><path d="M1162.807,502.951a.235.235,0,1,1-.235.235A.235.235,0,0,1,1162.807,502.951Z" transform="translate(-1162.572 -497.915)" fill="#f5d1d1"/><circle cx="0.235" cy="0.235" r="0.235" transform="translate(0 6.714)" fill="#f5d1d1"/><circle cx="0.235" cy="0.235" r="0.235" transform="translate(0 8.394)" fill="#f5d1d1"/><path d="M1162.807,530.225a.235.235,0,1,1-.235.235A.235.235,0,0,1,1162.807,530.225Z" transform="translate(-1162.572 -520.153)" fill="#f5d1d1"/><circle cx="0.235" cy="0.235" r="0.235" transform="translate(0 11.75)" fill="#f5d1d1"/><circle cx="0.235" cy="0.235" r="0.235" transform="translate(0 13.428)" fill="#f5d1d1"/><circle cx="0.235" cy="0.235" r="0.235" transform="translate(0 15.109)" fill="#f5d1d1"/><circle cx="0.235" cy="0.235" r="0.235" transform="translate(1.247 0.84)" fill="#f5d1d1"/><path d="M1169.562,489.315a.235.235,0,1,1-.235.235A.235.235,0,0,1,1169.562,489.315Z" transform="translate(-1168.08 -486.797)" fill="#f5d1d1"/><circle cx="0.235" cy="0.235" r="0.235" transform="translate(1.247 4.196)" fill="#f5d1d1"/><circle cx="0.235" cy="0.235" r="0.235" transform="translate(1.247 5.876)" fill="#f5d1d1"/><path d="M1169.562,516.588a.235.235,0,1,1-.235.235A.235.235,0,0,1,1169.562,516.588Z" transform="translate(-1168.08 -509.034)" fill="#f5d1d1"/><circle cx="0.235" cy="0.235" r="0.235" transform="translate(1.247 9.232)" fill="#f5d1d1"/><circle cx="0.235" cy="0.235" r="0.235" transform="translate(1.247 10.912)" fill="#f5d1d1"/><circle cx="0.235" cy="0.235" r="0.235" transform="translate(1.247 12.591)" fill="#f5d1d1"/><circle cx="0.235" cy="0.235" r="0.235" transform="translate(1.247 14.268)" fill="#f5d1d1"/><circle cx="0.235" cy="0.235" r="0.235" transform="translate(1.247 15.946)" fill="#f5d1d1"/></g></g></g><path d="M1325.676,435.951a1.744,1.744,0,0,1-1.68,1.008S1325.532,438.062,1325.676,435.951Z" transform="translate(-1177.741 -380.923)" fill="#c37e57"/><path d="M1165.484,549.408s7.17-2.138,17.01.566l.117-.246s-6.392-3.423-17.148-.721Z" transform="translate(-1048.482 -472.256)" fill="#f1b6b6"/><path d="M1098.247,433.62a1.731,1.731,0,0,0,1.547,1.259S1098.143,435.814,1098.247,433.62Z" transform="translate(-993.674 -379.023)" fill="#c37e57"/><path d="M1181.193,615.811c-4.744,4.03-15.192,6.061-15.192,6.061-2.3-1.206-3.619-5.14-3.619-5.14,4.583-4.693,8.4-5.2,8.4-5.2a137.3,137.3,0,0,1-12.708-5.243,4.477,4.477,0,0,0-2.209.361,67.5,67.5,0,0,0-1.241,14.73c0,.23,0,.481.019.723a41.065,41.065,0,0,1-.522,7.322c-.461,3.061-1.055,5.374-1.055,5.374a21.108,21.108,0,0,1-7.881,0,24.957,24.957,0,0,1-.414-7.808c.345-3.706-.861-9.495-.861-9.495-3.43-16.872,2.762-25.629,2.762-25.629,10.588,3.759,17.838.8,17.838.8s10.358,5.95,14.407,10.05S1185.938,611.783,1181.193,615.811Z" transform="translate(-1030.067 -508.05)" fill="#5f3d53"/><path d="M1189.594,759.729c-.138.359-.373.274-.373.274a.658.658,0,0,1-.865.344.637.637,0,0,1-.075-.038c-.359.377-.667.778-1.466.412-.884-.4-.127-4.484-.23-5.444a22.3,22.3,0,0,1,0-2.833l3.533-.762c0,.23,0,.481.018.723A41.064,41.064,0,0,1,1189.594,759.729Z" transform="translate(-1065.537 -638.353)" fill="#3f2112" opacity="0.54" style="isolation:isolate"/><path d="M1135.664,889.079c-.073,0-1.381.14-1.02.484a7.416,7.416,0,0,0,3.43.762,8.949,8.949,0,0,0,3.86-1.1,2.113,2.113,0,0,1,.875-.143c.541,0,2.41-.4,2.072-1.188s-3.883-.3-3.883-.3Z" transform="translate(-1023.302 -749.044)" opacity="0.36" style="isolation:isolate"/><path d="M1145.88,829.671a12.715,12.715,0,0,0-.265,2.875c.21,2.171.074,2.992-.18,3.43a1.208,1.208,0,0,1-.156.214,3.151,3.151,0,0,1-.98.709h-.019l-.089.039c-.485.172-1.367-.03-2.019.442a6.176,6.176,0,0,1-1.745.743l-.242.064-.062.016c-.631.145-1.075.23-1.128.23s-.3-.037-.617-.092l-.948-.17h0l-.168-.03h0c-.536-.1-.985-.182-.985-.182s-.341.044-.743-.476a.355.355,0,0,1-.026-.166c.03-.762,1.057-1.024,1.057-1.024a17.056,17.056,0,0,0,4.267-2.313c-.46-1.612-1.056-5.524-1.381-7.826-.154-1.066-.249-1.791-.249-1.791a27.246,27.246,0,0,0,7.879,0S1146.313,827.275,1145.88,829.671Z" transform="translate(-1024.058 -697.613)" fill="#ecc298"/><path d="M1202.515,731.652l-1.4.274c-2.493.486-7.478,1.475-7.936,1.489-1.17.037-1.381.63-1.381.63-.334.773-.23,2.751-.511,3.936a.254.254,0,0,1-.021.087,2.989,2.989,0,0,1-.2.576h0c-.113.145-.288,0-.288,0a.536.536,0,0,1-.23.345h0a.2.2,0,0,1-.273-.062l0-.005s.026.2-.294.366a.554.554,0,0,1-.52,0,.455.455,0,0,1-.1-.062,1.048,1.048,0,0,1-.127.2.691.691,0,0,1-.444.256h-.041a1.024,1.024,0,0,1-.564-.138c-.312-.186-.191-.921-.23-1.872h0a21.228,21.228,0,0,0,.046-3.5c-.062-.46-.286-1.17-.318-1.51v-.17q0-.109-.021-.216c-.23-2.3,2.265-2.194,2.265-2.194a32.456,32.456,0,0,0,6.171-2.267h0c1.593-.711,2.833-1.31,2.833-1.31a11.557,11.557,0,0,0,3.584,5.14Z" transform="translate(-1066.569 -617.831)" fill="#ecc298"/><path d="M1199.216,661.939a7.159,7.159,0,0,0-2.589-2.039A11.637,11.637,0,0,0,1199.216,661.939Z" transform="translate(-1073.891 -563.519)" fill="#3f2112" opacity="0.38" style="isolation:isolate"/><path d="M1226.98,659.1a4.6,4.6,0,0,1,1.978-2.159s-.773.936-1.51,1.89a11.616,11.616,0,0,1,1.3.269C1229.222,659.238,1226.98,659.1,1226.98,659.1Z" transform="translate(-1098.639 -561.11)" fill="#3f2112" opacity="0.38" style="isolation:isolate"/><path d="M1292.958,692.833s2.136-1.3,2.23-1.3-1.7,1.3-1.7,1.3l2.014.58-2.4-.414Z" transform="translate(-1152.434 -589.314)" fill="#3f2112" opacity="0.54" style="isolation:isolate"/><path d="M1160.179,746.594a3,3,0,0,0,3.835-1.3S1163.871,748.56,1160.179,746.594Z" transform="translate(-1044.173 -633.148)" fill="#3f2112" opacity="0.54" style="isolation:isolate"/><path d="M1239.662,731.653l-1.4.274-.039-.018c-.676-3.324-4.913-4.067-5.017-4.085,1.593-.711,2.833-1.31,2.833-1.31a11.558,11.558,0,0,0,3.621,5.14Z" transform="translate(-1103.716 -617.832)" fill="#c37e57"/><path d="M1198.427,752.877s-1.008.09-.81.737C1197.618,753.618,1198.124,752.9,1198.427,752.877Z" transform="translate(-1074.677 -639.327)" fill="#c37e57"/><path d="M1196.344,790.328a.468.468,0,0,1-.1-.062,1.05,1.05,0,0,1-.126.2,6.468,6.468,0,0,0,.23-1.358C1196.335,789.113,1196.666,789.369,1196.344,790.328Z" transform="translate(-1073.474 -668.872)" fill="#c37e57"/><path d="M1201.725,790.269l.069-.794a1.688,1.688,0,0,1,.088.439,1.575,1.575,0,0,1-.046.442.188.188,0,0,1-.11-.087Z" transform="translate(-1078.048 -669.167)" fill="#c37e57"/><path d="M1204.593,789.686c0-.032.083-.573.083-.573a1.386,1.386,0,0,1,.041.312,1.353,1.353,0,0,1-.041.312Z" transform="translate(-1080.386 -668.872)" fill="#c37e57"/><path d="M1163.3,824.363s-.746,2.9-1.178,5.294c-.163-4.878-6.446-3.509-6.446-3.509h0c-.154-1.066-.248-1.791-.248-1.791A26.884,26.884,0,0,0,1163.3,824.363Z" transform="translate(-1040.297 -697.608)" fill="#c37e57"/><path d="M1162.883,876.468a4.457,4.457,0,0,0,1.356.46,2.925,2.925,0,0,1-1.271-.23l-.4.382A1.877,1.877,0,0,0,1162.883,876.468Z" transform="translate(-1046.125 -740.097)" fill="#c37e57"/><path d="M1183.274,880.27s.23.921-.384,1.068C1182.89,881.338,1183.91,881.17,1183.274,880.27Z" transform="translate(-1062.691 -743.196)" fill="#c37e57"/><path d="M1167.148,887.25a1.224,1.224,0,0,1-.156.214,3.146,3.146,0,0,1-.981.709h-.018l-.089.039c-.486.172-1.367-.03-2.019.442a6.174,6.174,0,0,1-1.745.743,4.94,4.94,0,0,0,1.314-.863c.6-.564,1.319-.481,2.327-.6A1.848,1.848,0,0,0,1167.148,887.25Z" transform="translate(-1045.772 -748.888)" fill="#c37e57"/><path d="M1138.011,891.8a1.07,1.07,0,0,0-.182.064C1137.953,891.744,1138.011,891.8,1138.011,891.8Z" transform="translate(-1025.95 -752.586)" fill="#c37e57"/><path d="M1136.984,893.207c.026.122.156.2.306.248-.536-.1-.985-.182-.985-.182s-.341.044-.743-.476a1.265,1.265,0,0,1,.085-.309.691.691,0,0,1,.334-.29,1.3,1.3,0,0,0-.208.283c-.272.46.286.631.345.65s-.052-.247,0-.522.559-.382.559-.382l-.246.138a.57.57,0,0,0-.156.789c.1.168.65.186.587.12s0-.442,0-.442a.629.629,0,0,1,.5-.523.88.88,0,0,0-.382.9Z" transform="translate(-1024.101 -752.922)" fill="#c37e57"/><path d="M1146.867,893.376l-.948-.17c.23.023.426-.037.318-.18-.21-.276.168-.921.612-.946a7.435,7.435,0,0,0,1.1-.23,2.394,2.394,0,0,1-1.084.361C1145.911,892.619,1146.769,893.349,1146.867,893.376Z" transform="translate(-1032.547 -752.638)" fill="#c37e57"/><path d="M1165.576,601.924s3.2,3.772,3.393,4.972C1168.958,606.9,1168.076,602.771,1165.576,601.924Z" transform="translate(-1048.574 -516.249)" fill="#3f2112" opacity="0.38" style="isolation:isolate"/><path d="M1248.473,603.42s-2.625,3.849-2.783,5.064C1245.69,608.491,1246.413,604.283,1248.473,603.42Z" transform="translate(-1113.894 -517.468)" fill="#3f2112" opacity="0.38" style="isolation:isolate"/><path d="M1210.1,298.345s-.863-5.593-.341-6.169.808,1.132,1.024,2.1c0,0-.251-2.571-.773-2.5s-.23.09-.23.09-.13-.691.359-.557,1.2,1.823,1.292,2.6c0,0-.484-2.776-1.292-2.885,0,0-.43.071-.449.23,0,0,.122-1.024.691-.789s1.537,3.011,1.537,3.011-.87-3.452-1.66-3.353c0,0-.676-.06-.654,1.259A36.023,36.023,0,0,0,1210.1,298.345Z" transform="translate(-1084.461 -262.021)" fill="#c37e57"/><path d="M1199.616,320.989s-.615,2.9.2,2.721.647-.345.647-.345-.272.8-.962.46.03-2.615.12-2.914" transform="translate(-1075.99 -287.126)" fill="#c37e57" opacity="0.46" style="isolation:isolate"/><path d="M1203.309,291.47s.932-.941.5.893-.5,2.23-.5,2.23,1.4-3.913.276-3.5c0,0,.292-.633.486-.615.316.028.39.5.391,1.151,0,0,.393-1.706-.391-1.3a3.471,3.471,0,0,0-.762,1.146Z" transform="translate(-1079.339 -262.137)" fill="#c37e57"/><path d="M1206.711,304.537a20.916,20.916,0,0,0,.527-2.212l.021.421A8.908,8.908,0,0,1,1206.711,304.537Z" transform="translate(-1082.113 -271.972)" fill="#c37e57"/></g></g></svg>