<svg xmlns="http://www.w3.org/2000/svg" width="122.015" height="117.594" viewBox="0 0 122.015 117.594"><g transform="translate(-31.392 -33.497)"><path d="M77.852,95.71v48.809a7.333,7.333,0,0,1-7.332,7.332H43.907a7.332,7.332,0,0,1-7.331-7.332V95.71a20.638,20.638,0,0,1,41.276,0Z" transform="translate(-0.282 -2.261)" fill="#25847b"/><rect width="12.472" height="12.472" transform="translate(50.696 63.701)" fill="#25847b"/><rect width="6.071" height="32.534" transform="translate(68.828 57.63) rotate(90)" fill="#25847b"/><path d="M127.93,109.385v34.084a6.721,6.721,0,0,1-6.721,6.721H84.779a6.721,6.721,0,0,1-6.721-6.721V109.385A12.359,12.359,0,0,1,79.72,103.2l17.25-29.79V44.527h12.019V73.406h.028l17.25,29.79A12.349,12.349,0,0,1,127.93,109.385Z" transform="translate(-2.538 -0.6)" fill="#70678f"/><path d="M123.327,113.636v29.036a5.575,5.575,0,0,1-5.408,5.73H88.632a5.575,5.575,0,0,1-5.408-5.73V113.636a11.12,11.12,0,0,1,1.333-5.275l7.527-13.772h22.381l7.527,13.772A11.121,11.121,0,0,1,123.327,113.636Z" transform="translate(-2.819 -3.322)" fill="#fff"/><path d="M112.67,35.823V41.61a2.323,2.323,0,0,1-2.326,2.317H97.474a2.323,2.323,0,0,1-2.326-2.317V35.823A2.325,2.325,0,0,1,97.474,33.5h12.87A2.325,2.325,0,0,1,112.67,35.823Z" transform="translate(-3.467)" fill="#70678f"/><path d="M156.382,131.235a21.352,21.352,0,1,1-27.423-20.473V88.6H141.1v22.165A21.356,21.356,0,0,1,156.382,131.235Z" transform="translate(-4.475 -2.996)" fill="#fff"/><path d="M135.03,154.087a22.855,22.855,0,0,1-7.571-44.416V87.1H142.6v22.574a22.851,22.851,0,0,1-7.571,44.416ZM130.459,90.1v21.786l-1.075.318a19.852,19.852,0,1,0,11.292,0l-1.075-.318V90.1Z" transform="translate(-4.475 -2.996)" fill="#ce809d"/><path d="M156.382,133.687a21.352,21.352,0,1,1-42.7,0Z" transform="translate(-4.475 -5.448)" fill="#ce809d"/><rect width="22.157" height="9.626" rx="3.099" transform="translate(119.477 77.88)" fill="#ce809d"/><path d="M41.2,77.3a4.9,4.9,0,1,1-9.8,0c0-2.707,4.9-9.723,4.9-9.723S41.2,74.594,41.2,77.3Z" transform="translate(0 -1.853)" fill="#ce809d"/></g></svg>