<svg xmlns="http://www.w3.org/2000/svg" xmlns:xlink="http://www.w3.org/1999/xlink" width="82.985" height="102.09" viewBox="0 0 82.985 102.09"><defs><linearGradient id="a" x1="-1.205" y1="21.722" x2="1.384" y2="-10.498" gradientUnits="objectBoundingBox"><stop offset="0" stop-color="#9b4a69"/><stop offset="1" stop-color="#f388b0"/></linearGradient><linearGradient id="b" x1="-1.718" y1="19.594" x2="2.025" y2="-12.627" xlink:href="#a"/><linearGradient id="c" x1="-0.225" y1="1.109" x2="1.404" y2="-0.259" xlink:href="#a"/><linearGradient id="d" x1="-0.327" y1="1.202" x2="1.26" y2="-0.145" xlink:href="#a"/><linearGradient id="e" x1="-0.976" y1="18.049" x2="3.115" y2="-30.597" xlink:href="#a"/><linearGradient id="f" x1="-4.233" y1="3.345" x2="8.882" y2="-4.538" xlink:href="#a"/><linearGradient id="g" x1="-5.188" y1="2.455" x2="7.926" y2="-2.053" xlink:href="#a"/><linearGradient id="h" x1="-3.159" y1="25.401" x2="3.99" y2="-23.245" xlink:href="#a"/><linearGradient id="i" x1="-7.491" y1="28.206" x2="6.54" y2="-20.44" xlink:href="#a"/><linearGradient id="j" x1="-5.166" y1="23.391" x2="6.874" y2="-25.252" xlink:href="#a"/><linearGradient id="k" x1="-4.816" y1="25.83" x2="5.393" y2="-22.813" xlink:href="#a"/><linearGradient id="l" x1="-3.003" y1="3.999" x2="2.808" y2="-1.806" xlink:href="#a"/><linearGradient id="m" x1="-2.44" y1="3.663" x2="3.371" y2="-2.589" xlink:href="#a"/><clipPath id="o"><rect width="45.437" height="3.928" transform="translate(-1423.437 1714.895)" fill="url(#a)"/></clipPath><linearGradient id="p" x1="-88.618" y1="93.463" x2="32.152" y2="-31.84" xlink:href="#a"/><linearGradient id="q" x1="-26.474" y1="28.833" x2="10.193" y2="-9.208" xlink:href="#a"/><linearGradient id="r" x1="-15.412" y1="24.297" x2="6.203" y2="-7.925" xlink:href="#a"/><linearGradient id="s" x1="-13.756" y1="24.015" x2="5.779" y2="-8.207" xlink:href="#a"/><linearGradient id="t" x1="-13.584" y1="23.731" x2="5.951" y2="-8.491" xlink:href="#a"/><linearGradient id="u" x1="-13.412" y1="23.447" x2="6.123" y2="-8.774" xlink:href="#a"/><linearGradient id="v" x1="-13.24" y1="23.164" x2="6.295" y2="-9.058" xlink:href="#a"/><linearGradient id="w" x1="-13.068" y1="22.88" x2="6.466" y2="-9.341" xlink:href="#a"/><linearGradient id="x" x1="-12.896" y1="22.596" x2="6.638" y2="-9.625" xlink:href="#a"/><linearGradient id="y" x1="-12.724" y1="22.313" x2="6.81" y2="-9.909" xlink:href="#a"/><linearGradient id="z" x1="-12.552" y1="22.029" x2="6.982" y2="-10.192" xlink:href="#a"/><linearGradient id="aa" x1="-12.38" y1="21.746" x2="7.154" y2="-10.476" xlink:href="#a"/><linearGradient id="ab" x1="-12.209" y1="21.462" x2="7.326" y2="-10.759" xlink:href="#a"/><linearGradient id="ac" x1="-12.037" y1="21.178" x2="7.498" y2="-11.043" xlink:href="#a"/><linearGradient id="ad" x1="-11.865" y1="20.895" x2="7.67" y2="-11.327" xlink:href="#a"/><linearGradient id="ae" x1="-11.693" y1="20.611" x2="7.842" y2="-11.61" xlink:href="#a"/><linearGradient id="af" x1="-11.521" y1="20.328" x2="8.014" y2="-11.894" xlink:href="#a"/><linearGradient id="ag" x1="-11.349" y1="20.044" x2="8.186" y2="-12.177" xlink:href="#a"/><linearGradient id="ah" x1="-11.177" y1="19.76" x2="8.358" y2="-12.461" xlink:href="#a"/><linearGradient id="ai" x1="-11.005" y1="19.477" x2="8.53" y2="-12.745" xlink:href="#a"/><linearGradient id="aj" x1="-11.28" y1="19.194" x2="8.993" y2="-13.028" xlink:href="#a"/><linearGradient id="ak" x1="-18.672" y1="20.077" x2="14.294" y2="-14.124" xlink:href="#a"/><linearGradient id="al" x1="-50.649" y1="53.061" x2="37.523" y2="-38.407" xlink:href="#a"/><clipPath id="an"><rect width="31.426" height="3.928" transform="translate(-1423.437 1723.969)" fill="url(#b)"/></clipPath><linearGradient id="ao" x1="-422.563" y1="439.819" x2="232.522" y2="-239.662" xlink:href="#a"/><linearGradient id="ap" x1="-30.778" y1="33.413" x2="17.956" y2="-17.147" xlink:href="#a"/><linearGradient id="aq" x1="-15.756" y1="21.378" x2="9.552" y2="-10.844" xlink:href="#a"/><linearGradient id="ar" x1="-11.987" y1="21.097" x2="7.547" y2="-11.124" xlink:href="#a"/><linearGradient id="as" x1="-11.815" y1="20.814" x2="7.719" y2="-11.408" xlink:href="#a"/><linearGradient id="at" x1="-11.643" y1="20.53" x2="7.891" y2="-11.691" xlink:href="#a"/><linearGradient id="au" x1="-11.471" y1="20.247" x2="8.063" y2="-11.975" xlink:href="#a"/><linearGradient id="av" x1="-11.299" y1="19.963" x2="8.235" y2="-12.259" xlink:href="#a"/><linearGradient id="aw" x1="-11.128" y1="19.679" x2="8.407" y2="-12.542" xlink:href="#a"/><linearGradient id="ax" x1="-10.956" y1="19.396" x2="8.579" y2="-12.826" xlink:href="#a"/><linearGradient id="ay" x1="-10.784" y1="19.112" x2="8.751" y2="-13.109" xlink:href="#a"/><linearGradient id="az" x1="-10.612" y1="18.829" x2="8.923" y2="-13.393" xlink:href="#a"/><linearGradient id="ba" x1="-10.44" y1="18.545" x2="9.095" y2="-13.677" xlink:href="#a"/><linearGradient id="bb" x1="-10.268" y1="18.261" x2="9.267" y2="-13.96" xlink:href="#a"/><linearGradient id="bc" x1="-10.153" y1="17.978" x2="9.482" y2="-14.244" xlink:href="#a"/><linearGradient id="bd" x1="-16.506" y1="17.845" x2="14.809" y2="-14.642" xlink:href="#a"/><linearGradient id="be" x1="-41.381" y1="43.452" x2="35.889" y2="-36.716" xlink:href="#a"/></defs><g transform="translate(1445.368 -1703.515)"><path d="M-1381.374,1805.6h-55.757a8.247,8.247,0,0,1-8.237-8.238v-76.074a8.246,8.246,0,0,1,8.237-8.237h3.218v78.182a3.583,3.583,0,0,0,3.58,3.58h57.2v2.549A8.247,8.247,0,0,1-1381.374,1805.6Zm-55.757-89.948a5.643,5.643,0,0,0-5.637,5.636v76.074a5.643,5.643,0,0,0,5.637,5.637h55.757a5.642,5.642,0,0,0,5.636-5.584h-54.595a6.188,6.188,0,0,1-6.18-6.182v-75.581Z" fill="url(#c)"/><path d="M-1371.124,1797.421h-56.646a8.751,8.751,0,0,1-8.74-8.741v-76.424a8.751,8.751,0,0,1,8.74-8.741h56.646a8.751,8.751,0,0,1,8.741,8.741v76.424A8.751,8.751,0,0,1-1371.124,1797.421Zm-56.646-91.305a6.147,6.147,0,0,0-6.14,6.14v76.424a6.147,6.147,0,0,0,6.14,6.139h56.646a6.146,6.146,0,0,0,6.14-6.139v-76.424a6.146,6.146,0,0,0-6.14-6.14Z" fill="url(#d)"/><path d="M-1397.166,1779.584h-26.151a1.3,1.3,0,0,1-1.3-1.3,1.3,1.3,0,0,1,1.3-1.3h26.151a1.3,1.3,0,0,1,1.3,1.3A1.3,1.3,0,0,1-1397.166,1779.584Z" fill="url(#e)"/><path d="M-1414.361,1779.492h-6.369a1.3,1.3,0,0,1-1.3-1.3v-13.457a1.3,1.3,0,0,1,1.3-1.3h6.369a1.3,1.3,0,0,1,1.3,1.3v13.457A1.3,1.3,0,0,1-1414.361,1779.492Zm-5.069-2.6h3.769v-10.856h-3.769Z" fill="url(#f)"/><path d="M-1402.327,1779.492h-6.369a1.3,1.3,0,0,1-1.3-1.3v-25.475a1.3,1.3,0,0,1,1.3-1.3h6.369a1.3,1.3,0,0,1,1.3,1.3v25.475A1.3,1.3,0,0,1-1402.327,1779.492Zm-5.069-2.6h3.769v-22.874h-3.769Z" fill="url(#g)"/><path d="M-1409.463,1738.22h-13.854a1.3,1.3,0,0,1-1.3-1.3,1.3,1.3,0,0,1,1.3-1.3h13.854a1.3,1.3,0,0,1,1.3,1.3A1.3,1.3,0,0,1-1409.463,1738.22Z" fill="url(#h)"/><path d="M-1398.862,1738.22h-5.784a1.3,1.3,0,0,1-1.3-1.3,1.3,1.3,0,0,1,1.3-1.3h5.784a1.3,1.3,0,0,1,1.3,1.3A1.3,1.3,0,0,1-1398.862,1738.22Z" fill="url(#i)"/><path d="M-1416.147,1744.852h-7.17a1.3,1.3,0,0,1-1.3-1.3,1.3,1.3,0,0,1,1.3-1.3h7.17a1.3,1.3,0,0,1,1.3,1.3A1.3,1.3,0,0,1-1416.147,1744.852Z" fill="url(#j)"/><path d="M-1402.544,1744.852h-8.923a1.3,1.3,0,0,1-1.3-1.3,1.3,1.3,0,0,1,1.3-1.3h8.923a1.3,1.3,0,0,1,1.3,1.3A1.3,1.3,0,0,1-1402.544,1744.852Z" fill="url(#k)"/><path d="M-1374.165,1757.424h-17.641a1.3,1.3,0,0,1-1.3-1.3v-19.2a1.3,1.3,0,0,1,1.3-1.3h17.641a1.3,1.3,0,0,1,1.3,1.3v19.2A1.3,1.3,0,0,1-1374.165,1757.424Zm-16.341-2.6h15.041v-16.6h-15.041Z" fill="url(#l)"/><path d="M-1374.165,1779.492h-17.641a1.3,1.3,0,0,1-1.3-1.3V1760.55a1.3,1.3,0,0,1,1.3-1.3h17.641a1.3,1.3,0,0,1,1.3,1.3v17.641A1.3,1.3,0,0,1-1374.165,1779.492Zm-16.341-2.6h15.041v-15.04h-15.041Z" fill="url(#m)"/><g opacity="0.35"><rect width="45.437" height="3.928" transform="translate(-1423.437 1714.895)" fill="url(#a)"/><g clip-path="url(#o)"><path d="M-1378.974,1718.823l.974-1.01v1.01Z" fill="url(#p)"/><path d="M-1381.208,1718.823l3.208-3.327v2.317l-.974,1.01Z" fill="url(#q)"/><path d="M-1383.442,1718.823l3.787-3.928H-1378v.6l-3.208,3.327Z" fill="url(#r)"/><path d="M-1385.676,1718.823l3.787-3.928h2.234l-3.787,3.928Z" fill="url(#s)"/><path d="M-1387.91,1718.823l3.787-3.928h2.234l-3.787,3.928Z" fill="url(#t)"/><path d="M-1390.144,1718.823l3.787-3.928h2.234l-3.787,3.928Z" fill="url(#u)"/><path d="M-1392.379,1718.823l3.787-3.928h2.234l-3.787,3.928Z" fill="url(#v)"/><path d="M-1394.613,1718.823l3.787-3.928h2.234l-3.787,3.928Z" fill="url(#w)"/><path d="M-1396.847,1718.823l3.787-3.928h2.234l-3.787,3.928Z" fill="url(#x)"/><path d="M-1399.081,1718.823l3.787-3.928h2.234l-3.787,3.928Z" fill="url(#y)"/><path d="M-1401.315,1718.823l3.787-3.928h2.234l-3.787,3.928Z" fill="url(#z)"/><path d="M-1403.549,1718.823l3.787-3.928h2.234l-3.787,3.928Z" fill="url(#aa)"/><path d="M-1405.783,1718.823l3.787-3.928h2.234l-3.787,3.928Z" fill="url(#ab)"/><path d="M-1408.017,1718.823l3.787-3.928H-1402l-3.787,3.928Z" fill="url(#ac)"/><path d="M-1410.252,1718.823l3.787-3.928h2.234l-3.787,3.928Z" fill="url(#ad)"/><path d="M-1412.486,1718.823l3.787-3.928h2.234l-3.787,3.928Z" fill="url(#ae)"/><path d="M-1414.72,1718.823l3.787-3.928h2.234l-3.787,3.928Z" fill="url(#af)"/><path d="M-1416.954,1718.823l3.787-3.928h2.234l-3.787,3.928Z" fill="url(#ag)"/><path d="M-1419.188,1718.823l3.787-3.928h2.234l-3.787,3.928Z" fill="url(#ah)"/><path d="M-1421.422,1718.823l3.787-3.928h2.234l-3.787,3.928Z" fill="url(#ai)"/><path d="M-1423.437,1718.6l3.568-3.7h2.234l-3.787,3.928h-2.015Z" fill="url(#aj)"/><path d="M-1423.437,1716.279l1.334-1.384h2.234l-3.568,3.7Z" fill="url(#ak)"/><path d="M-1422.1,1714.9l-1.334,1.384V1714.9Z" fill="url(#al)"/></g></g><g opacity="0.35"><rect width="31.426" height="3.928" transform="translate(-1423.437 1723.969)" fill="url(#b)"/><g clip-path="url(#an)"><path d="M-1392.19,1727.9l.18-.186v.186Z" fill="url(#ao)"/><path d="M-1394.424,1727.9l2.414-2.5v2.317l-.18.186Z" fill="url(#ap)"/><path d="M-1396.659,1727.9l3.788-3.928h.86v1.425l-2.414,2.5Z" fill="url(#aq)"/><path d="M-1398.893,1727.9l3.788-3.928h2.234l-3.788,3.928Z" fill="url(#ar)"/><path d="M-1401.127,1727.9l3.788-3.928h2.234l-3.788,3.928Z" fill="url(#as)"/><path d="M-1403.361,1727.9l3.788-3.928h2.234l-3.788,3.928Z" fill="url(#at)"/><path d="M-1405.6,1727.9l3.788-3.928h2.234l-3.788,3.928Z" fill="url(#au)"/><path d="M-1407.829,1727.9l3.788-3.928h2.234l-3.788,3.928Z" fill="url(#av)"/><path d="M-1410.063,1727.9l3.788-3.928h2.234l-3.788,3.928Z" fill="url(#aw)"/><path d="M-1412.3,1727.9l3.788-3.928h2.234l-3.788,3.928Z" fill="url(#ax)"/><path d="M-1414.532,1727.9l3.788-3.928h2.234l-3.788,3.928Z" fill="url(#ay)"/><path d="M-1416.766,1727.9l3.788-3.928h2.234l-3.788,3.928Z" fill="url(#az)"/><path d="M-1419,1727.9l3.788-3.928h2.234l-3.788,3.928Z" fill="url(#ba)"/><path d="M-1421.234,1727.9l3.788-3.928h2.234L-1419,1727.9Z" fill="url(#bb)"/><path d="M-1423.437,1727.865l3.756-3.9h2.234l-3.788,3.928h-2.2Z" fill="url(#bc)"/><path d="M-1423.437,1725.547l1.522-1.579h2.234l-3.756,3.9Z" fill="url(#bd)"/><path d="M-1421.915,1723.969l-1.522,1.579v-1.579Z" fill="url(#be)"/></g></g></g></svg>