<svg xmlns="http://www.w3.org/2000/svg" width="123.89" height="116.094" viewBox="0 0 123.89 116.094"><g transform="translate(874.633 -29.063)"><path d="M-769.9,145.157h-69.35s15-15.818,11.911-27.045-6.6-14.783-6.6-14.783c-2.393,1.585-4.711,3.281-6.994,5.022-3.363,2.556-9.119,6.021-11.924,1.631l-1.384-2.9-2.768-.779a2.231,2.231,0,0,1-1.063-2.923h-.11l-1.7-.523a2.106,2.106,0,0,1-1.365-1.264l-.925-2.419a13.239,13.239,0,0,1-5.756-.715,1.076,1.076,0,0,1-.559-1.063c.082-1.411,1.658-6.653,1.778-9.5.164-4.4-2.906-6.141-5.618-12.584a30.978,30.978,0,0,1-2.108-14.27c.092-.073.174-.147.266-.211h-.467a.794.794,0,0,1,.074-.156v-.064a.077.077,0,0,0,0-.064l.055-.074c1.054-4.674,2.2-11.63,5.306-15.287a33.446,33.446,0,0,1,2.419-2.53c7.214-6.708,16.424-8.166,25.222-6.2a8.174,8.174,0,0,1,.422-.962c3.162-6.334,11.924-8.313,19.668-4.464s11.493,12.042,8.367,18.348a10.51,10.51,0,0,1-3.8,4.226,37.358,37.358,0,0,1,3.9,27.358l1.365,6.342c4.949,12.373,31.38,31.262,31.38,31.262a44.8,44.8,0,0,1,5.545,9.156C-773.076,131.273-770.59,141.3-769.9,145.157Z" transform="translate(0)" fill="#ce809d"/><g transform="translate(-823.378 92.739)"><path d="M-741.425,127.049l-7.543,1.814a35.517,35.517,0,0,0-6.745,2.31c-.705.329-1.347.66-1.952,1a13.751,13.751,0,0,1-6.8,1.614,27.312,27.312,0,0,1-5.481-.642c-3.876-.816-10.787-6.9-11.914-7.91a31.313,31.313,0,0,0-11.951-4.83,27.985,27.985,0,0,0-9.357.385c-.449.156-.954.376-1.485.614-1.412.614-2.868,1.265-4.244,1.026a5.435,5.435,0,0,1-3.345-1.943,2.214,2.214,0,0,1-.569-2.034,1.785,1.785,0,0,1,1.072-1.164l13.271-5.949c.083-.037.165-.064.247-.091a77.277,77.277,0,0,1,9.706-1.842,9.137,9.137,0,0,1,4.317.412l.495.165c.678.229,1.32.449,1.97.614l.11.027,11.392,3.831a20.849,20.849,0,0,0,4.408,1.136,6.04,6.04,0,0,0,4.455-1.274l10.568-8.212a1.542,1.542,0,0,1,2.162.266,1.542,1.542,0,0,1-.266,2.163l.266-2.163,8.159,18.374-1.67-.7a1.54,1.54,0,0,1,1.861,1.136A1.545,1.545,0,0,1-741.425,127.049Z" transform="translate(812.88 -105.781)" fill="#70678f"/></g><path d="M-812.992,80.958a9.82,9.82,0,0,1-9.917-1.787c-4.124-3.684-10.182-2.411-11.264-2.145,4.647-1.3,6.48-10.751-.724-11.905-7.286-1.155-7.561,6.626-7.561,6.626s-.422,2.521-8.551-7.845c-5.884-7.515-15.59-5.9-20.493-4.445-.514.155-.981.3-1.375.449-1.054.357-1.668.642-1.668.642l.055-.074c1.054-4.674,2.2-11.63,5.306-15.287a33.446,33.446,0,0,1,2.419-2.53c7.214-6.708,16.424-8.166,25.222-6.2a8.174,8.174,0,0,1,.422-.962c3.162-6.334,11.924-8.313,19.668-4.464s11.493,12.042,8.367,18.348a10.51,10.51,0,0,1-3.8,4.226A37.358,37.358,0,0,1-812.992,80.958Z" transform="translate(-0.015)" fill="#25847b"/></g></svg>