<svg xmlns="http://www.w3.org/2000/svg" xmlns:xlink="http://www.w3.org/1999/xlink" width="98.722" height="98.72" viewBox="0 0 98.722 98.72"><defs><linearGradient id="a" x1="1.437" y1="-0.555" x2="-0.303" y2="1.405" gradientUnits="objectBoundingBox"><stop offset="0" stop-color="#1cabe0"/><stop offset="1" stop-color="#107aa3"/></linearGradient><linearGradient id="b" x1="1.731" y1="-0.94" x2="-0.555" y2="1.734" xlink:href="#a"/><linearGradient id="c" x1="3.116" y1="-2.448" x2="-1.742" y2="3.027" xlink:href="#a"/><linearGradient id="d" x1="19.23" y1="-4.366" x2="-27.776" y2="7.846" xlink:href="#a"/><linearGradient id="e" x1="21.141" y1="-4.863" x2="-25.865" y2="7.35" xlink:href="#a"/><linearGradient id="f" x1="17.319" y1="-3.87" x2="-29.687" y2="8.343" xlink:href="#a"/><linearGradient id="g" x1="15.409" y1="-3.373" x2="-31.598" y2="8.839" xlink:href="#a"/><linearGradient id="h" x1="36.214" y1="-8.779" x2="-10.793" y2="3.434" xlink:href="#a"/><linearGradient id="i" x1="34.303" y1="-8.282" x2="-12.704" y2="3.93" xlink:href="#a"/><linearGradient id="j" x1="30.481" y1="-7.289" x2="-16.525" y2="4.923" xlink:href="#a"/><linearGradient id="k" x1="4.049" y1="-16.847" x2="-6.788" y2="36.121" xlink:href="#a"/><linearGradient id="l" x1="5.042" y1="-21.699" x2="-5.795" y2="31.269" xlink:href="#a"/><linearGradient id="m" x1="4.546" y1="-19.273" x2="-6.292" y2="33.695" xlink:href="#a"/><linearGradient id="n" x1="5.539" y1="-24.126" x2="-5.299" y2="28.842" xlink:href="#a"/><linearGradient id="o" x1="7.133" y1="-31.92" x2="-3.704" y2="21.048" xlink:href="#a"/><linearGradient id="p" x1="7.63" y1="-34.346" x2="-3.208" y2="18.622" xlink:href="#a"/><linearGradient id="q" x1="8.622" y1="-39.198" x2="-2.215" y2="13.77" xlink:href="#a"/><linearGradient id="r" x1="32.392" y1="-7.786" x2="-14.615" y2="4.427" xlink:href="#a"/><linearGradient id="s" x1="8.126" y1="-36.772" x2="-2.711" y2="16.196" xlink:href="#a"/></defs><g transform="translate(-633.284 -29.605)"><g transform="translate(644.202 40.523)"><path d="M716.209,121.841H657.946a9.324,9.324,0,0,1-9.312-9.312V54.267a9.24,9.24,0,0,1,2.722-6.572,9.365,9.365,0,0,1,6.589-2.741h58.262a9.245,9.245,0,0,1,6.572,2.722,9.366,9.366,0,0,1,2.741,6.59v58.262a9.35,9.35,0,0,1-2.743,6.594A9.242,9.242,0,0,1,716.209,121.841ZM657.946,47.8a6.5,6.5,0,0,0-4.575,1.9,6.419,6.419,0,0,0-1.892,4.565v58.26A6.48,6.48,0,0,0,657.947,119h58.26a6.422,6.422,0,0,0,4.562-1.89,6.491,6.491,0,0,0,1.906-4.577V54.267a6.506,6.506,0,0,0-1.9-4.576,6.424,6.424,0,0,0-4.564-1.892Z" transform="translate(-648.634 -44.954)" fill="url(#a)"/></g><g transform="translate(653.402 50.794)"><path d="M711.866,115.737h-42.11a8.07,8.07,0,0,1-8.188-7.928V67.322a8.07,8.07,0,0,1,8.188-7.928h42.11a8.07,8.07,0,0,1,8.188,7.928v40.486A8.07,8.07,0,0,1,711.866,115.737ZM669.755,62.3a5.167,5.167,0,0,0-5.286,5.026v40.486a5.167,5.167,0,0,0,5.286,5.026h42.11a5.167,5.167,0,0,0,5.286-5.026V67.322a5.167,5.167,0,0,0-5.286-5.026Z" transform="translate(-661.567 -59.394)" fill="url(#b)"/></g><g transform="translate(661.712 58.032)"><rect width="41.876" height="41.876" rx="8.619" fill="#dfedef"/></g><g transform="translate(668.883 65.202)"><path d="M697.095,107.177a13.764,13.764,0,1,1,13.763-13.764A13.779,13.779,0,0,1,697.095,107.177Zm0-24.682a10.918,10.918,0,1,0,10.918,10.918A10.931,10.931,0,0,0,697.095,82.5Z" transform="translate(-683.332 -79.65)" fill="url(#c)"/></g><g transform="translate(675.057 29.605)"><rect width="2.845" height="12.34" transform="translate(0)" fill="url(#d)"/></g><g transform="translate(662.716 29.605)"><rect width="2.845" height="12.34" fill="url(#e)"/></g><g transform="translate(687.397 29.605)"><rect width="2.845" height="12.34" transform="translate(0)" fill="url(#f)"/></g><g transform="translate(699.736 29.605)"><rect width="2.845" height="12.34" fill="url(#g)"/></g><g transform="translate(662.716 115.986)"><rect width="2.845" height="12.34" transform="translate(0 0)" fill="url(#h)"/></g><g transform="translate(675.057 115.986)"><rect width="2.845" height="12.34" transform="translate(0 0)" fill="url(#i)"/></g><g transform="translate(699.736 115.986)"><rect width="2.845" height="12.34" transform="translate(0 0)" fill="url(#j)"/></g><g transform="translate(719.666 59.037)"><rect width="12.341" height="2.845" transform="translate(0)" fill="url(#k)"/></g><g transform="translate(719.666 83.717)"><rect width="12.341" height="2.845" transform="translate(0)" fill="url(#l)"/></g><g transform="translate(719.666 71.378)"><rect width="12.341" height="2.845" transform="translate(0 0)" fill="url(#m)"/></g><g transform="translate(719.666 96.057)"><rect width="12.341" height="2.845" transform="translate(0)" fill="url(#n)"/></g><g transform="translate(633.284 59.037)"><rect width="12.341" height="2.845" fill="url(#o)"/></g><g transform="translate(633.284 71.378)"><rect width="12.341" height="2.845" transform="translate(0 0)" fill="url(#p)"/></g><g transform="translate(633.284 96.057)"><rect width="12.341" height="2.845" fill="url(#q)"/></g><g transform="translate(687.397 115.986)"><rect width="2.845" height="12.34" transform="translate(0 0)" fill="url(#r)"/></g><g transform="translate(633.284 83.717)"><rect width="12.341" height="2.845" fill="url(#s)"/></g></g></svg>