<svg xmlns="http://www.w3.org/2000/svg" width="523.482" height="441.724"><defs><linearGradient id="a" x1=".5" y1="1.704" x2=".5" y2=".238" gradientUnits="objectBoundingBox"><stop offset="0" stop-color="#fff"/><stop offset="1" stop-color="#00b6ed"/></linearGradient><linearGradient id="b" x1=".5" y1="1.704" x2=".5" y2=".238" gradientUnits="objectBoundingBox"><stop offset="0" stop-color="#fff" stop-opacity=".38"/><stop offset="1" stop-color="#fff" stop-opacity=".549"/></linearGradient><linearGradient id="c" x1=".5" y1="1.704" x2=".5" y2=".238" gradientUnits="objectBoundingBox"><stop offset="0" stop-color="#fff"/><stop offset="1" stop-color="#fff" stop-opacity=".322"/></linearGradient></defs><g transform="translate(-7427.528 2775.606)"><g fill="#fff"><path d="M7466.074-2711.446h72.19a13.01 13.01 0 0113.01 13.01v57.813a13.01 13.01 0 01-13.01 13.01h-72.19a13.01 13.01 0 01-13.01-13.01v-57.813a13.01 13.01 0 0113.01-13.01zm72.19 81.833a11.022 11.022 0 0011.01-11.01v-57.813a11.022 11.022 0 00-11.01-11.01h-72.19a11.022 11.022 0 00-11.01 11.01v57.813a11.022 11.022 0 0011.01 11.01z"/><path d="M7481.134-2629.48h42.07a1 1 0 011 1v14.592a1 1 0 01-1 1h-42.07a1 1 0 01-1-1v-14.592a1 1 0 011-1zm41.07 2h-40.07v12.592h40.07z"/><path d="M7488.68-2711.446h49.59a13.01 13.01 0 0113.01 13.01v57.813a13.01 13.01 0 01-13.01 13.01h-49.59a13.01 13.01 0 01-13.01-13.01v-57.813a13.01 13.01 0 0113.01-13.01zm49.59 81.833a11.022 11.022 0 0011.01-11.01v-57.813a11.022 11.022 0 00-11.01-11.01h-49.59a11.022 11.022 0 00-11.01 11.01v57.813a11.022 11.022 0 0011.01 11.01z"/><path d="M7493.148-2708.308h40.648a13.01 13.01 0 0113.01 13.01v51.537a13.01 13.01 0 01-13.01 13.01h-40.648a13.01 13.01 0 01-13.01-13.01v-51.537a13.01 13.01 0 0113.01-13.01zm40.648 75.557a11.022 11.022 0 0011.01-11.01v-51.537a11.022 11.022 0 00-11.01-11.01h-40.648a11.022 11.022 0 00-11.01 11.01v51.537a11.022 11.022 0 0011.01 11.01zM7467.346-2614.879h51.9a34.03 34.03 0 0124.065 9.968l30.99 30.975a69.87 69.87 0 0120.472 49.41v149.482a1 1 0 01-1 1h-139.71a1 1 0 01-1-1V-2600.6a14.283 14.283 0 0114.283-14.279zm125.427 238.835v-148.482a67.43 67.43 0 00-19.88-48l-30.99-30.975a31.821 31.821 0 00-22.653-9.378h-51.9a12.3 12.3 0 00-12.283 12.279v224.556z"/><path d="M7454.063-2376.044h172.591a28.837 28.837 0 0128.86 28.86 1 1 0 01-1 1h-200.451a1 1 0 01-1-1v-27.86a1 1 0 011-1zm199.432 27.86a26.892 26.892 0 00-26.842-25.86h-171.59v25.86z"/><path d="M7481.134-2374.042a1 1 0 01-1-1v-213.654a16.515 16.515 0 0116.517-16.517h45.963a1 1 0 010 2h-45.963a14.515 14.515 0 00-14.517 14.516v213.655a1 1 0 01-1 1z"/><path d="M7496.336-2374.048a1 1 0 01-1-1v-220.7a1 1 0 011-1 1 1 0 011 1v220.7a1 1 0 01-1 1zM7536.542-2545.379h43.806a1 1 0 011 1v82.612a1 1 0 01-1 1h-43.806a1 1 0 01-1-1v-82.612a1 1 0 011-1zm42.806 2h-41.806v80.612h41.806zM7454.064-2460.77a1 1 0 01-.758-.347 104.992 104.992 0 01-11.294-15.082 75.645 75.645 0 01-8.084-19.771c-2.2-8.3-3.776-18.392-4.807-30.864-1.072-12.959-1.593-28.836-1.593-48.536a269.643 269.643 0 014.007-48.88 135.625 135.625 0 018.847-29.928 65.574 65.574 0 018.919-15.047 24.058 24.058 0 014.19-4.214 1 1 0 011.147 1.639 23.38 23.38 0 00-3.91 3.99 64.285 64.285 0 00-8.624 14.685c-5.737 13.027-12.576 37.092-12.576 77.755 0 79.893 8.673 93.675 25.293 112.955a1 1 0 01-.757 1.653zM7465.213-2348.184h23.836a1 1 0 011 .966c0 .138.007.277.007.414a12.922 12.922 0 11-25.844 0v-.009-.371a1 1 0 011.001-1zm22.826 2h-21.81a10.922 10.922 0 0021.81 0zM7616.356-2348.184h23.834a1 1 0 011 .966c0 .141.007.28.007.413a12.922 12.922 0 11-25.844 0v-.01-.37a1 1 0 011.003-.999zm22.826 2h-21.81a10.922 10.922 0 0021.81 0zM7579.119-2348.184h23.837a1 1 0 011 .965c0 .135.007.274.007.414a12.922 12.922 0 11-25.844 0v-.009-.371a1 1 0 011-.999zm22.826 2h-21.81a10.922 10.922 0 0021.81 0zM7499.365-2348.184h23.836a1 1 0 011 .965c0 .138.007.277.007.414a12.922 12.922 0 11-25.844 0v-.008-.371a1 1 0 011.001-1zm22.826 2h-21.81a10.922 10.922 0 0021.81 0z"/></g><path d="M7893.773-2611.905h-302.942a13.01 13.01 0 01-13.01-13.01v-137.682a13.01 13.01 0 0113.01-13.01h302.942a13.01 13.01 0 0113.01 13.01v137.682a13.01 13.01 0 01-13.01 13.01zm-302.942-161.7a11.022 11.022 0 00-11.01 11.01v137.68a11.022 11.022 0 0011.01 11.01h302.942a11.023 11.023 0 0011.01-11.01v-137.682a11.022 11.022 0 00-11.01-11.008z" fill="#fff"/><rect width="313.361" height="149.299" rx="12.01" transform="rotate(180 3949.492 -1309.552)" fill="url(#a)"/><g opacity=".87"><path d="M1526.531 31.44l-39.909 149.3h-90.292l39.907-149.3z" transform="translate(6301.059 -2799.844)" fill="url(#b)"/><path d="M1955.508 31.44l-39.907 149.3h-20.9l39.909-149.3z" transform="translate(5911.375 -2799.844)" fill="url(#c)"/></g><g transform="translate(7490.017 -2731.003)"><g fill-rule="evenodd"><path d="M224.732 365.705s2.262 9.993 13.944 18.263c3.789 6.179 3.97 11.668.213 11.964s-22.365-.907-29.022-9.094-13.278-23.644-8.808-26.311 23.673 5.178 23.673 5.178z" fill="#213337"/><path d="M239.026 385.689c3.789 6.179 3.612 9.95-.135 10.235s-22.365-.907-29.022-9.091-13.278-23.646-8.808-26.311c10.458-6.244-1.3 3.022 4.684 10.015 3.813 4.449 9.14 16.878 17.739 19.887 4.269 1.504 14.338-5.586 15.542-4.735z" fill="#f8f7e6"/><path d="M157.425 375.961s6.543 19.206 2.127 20.447c-4.233 1.2-21.322-.413-26.618-8.537-1.758-1.692.719-5.017 2.525-6.422s6.127-7.827 6.127-7.827z" fill="#213337"/><path d="M160.877 390.015s1.419 5.069-1.329 6.392c-3.962 1.911-22.325-1.126-26.433-8.046-1.726-2.9-.524-3.767.769-5.349 2.438-2.986 4.658 3.773 4.658 3.773z" fill="#f8f7e6"/><path d="M203.835 367.873s12.879 21.4 17.7 23.3 18.063 3.661 20.031.313c.849-1.142-1.182-4.142-2.966-6.492s-19.066-3.412-22.277-1.575c-1.606-.857-12.488-15.546-12.488-15.546zM133.279 383.781s-.58 5.82 15.014 9.132c12.788 2.711 12.858-.128 12.7-2.127-.134-1.738-2.766-3.5-5.541-5s-17.942-5.419-20.728-3.749a9.9 9.9 0 00-1.445 1.744z" fill="#4a6b70"/></g><path d="M193.965 184.411s-5.955 4.283 2.834 38.63 26.476 102.372 29.7 118.257c3.117 15.393 3.454 27.192 2.81 28.444s-17.611 7.5-39.246-9.966c-1.419-22.331-7.123-45.537-9.6-63.52-1.339-9.716-6.547-41.343-7.506-46.113-.642-3.189-4.482-29.207-3.911-33.966a18.7 18.7 0 00-1.826-1.762s-.472 55.542.018 64.339 5.66 90.2 8.247 99.6c-2.348 5.365-38.15 2.007-43.508-6.338-4.415-6.884-4.851-41.279-2.161-60.208 2.736-19.247 11.751-92.833 12.559-99.406.616-5.017 1.587-37.6 9.36-45.291 4.096-4.064 42.23 17.3 42.23 17.3z" fill="#2dc8e2" fill-rule="evenodd"/><path d="M171.922 367.997s-24.156 8.562-42.441-9.661c-3.311-5.577 11.624 9.073 22.311 9.774 8.376.548 17.56.394 20.13-.113zM191.432 351.306s11.554 14.25 30.534 12.644c4.965-.417 6.551-.855 6.308-1.3-.739-1.359-16.206 1.112-22.891-2.762-8.801-5.092-13.951-8.582-13.951-8.582zM132.886 118.741s15.809-30.574 19.608-31.93 19.8-6.254 27.887-5.318 17.111 1.63 25.316 4.512l7.161 2.517s9.651 3.1 11.725 10.488c2.163 7.707 8.63 22.913 9.477 24.467s-17.46 14.621-17.46 14.621-5.051 15.351-10.091 22.407a80.786 80.786 0 00-6.721 11.1s-10.041.767-44.648-15.987c1.284-6.882 2.007-16.076 2.864-24.645-1.288 2.37-1.371 2.035-2.471 4.15-9.077-14.211-22.647-16.382-22.647-16.382z" fill="#00a1c6" fill-rule="evenodd"/><path d="M156.659 131.363s-2.109-12.995-20.377-15.3c-2.254-.285 1.1 0 .478-.215-4.428-1.526 21.333 1.158 19.899 15.515zM155.739 86.064s14.348 1.122 15.494 17.936c.423 3.97-1.214 9.35-1.214 9.35s9.109-25.837-14.28-27.286zM169.669 114.027a14.362 14.362 0 00-2.278 2.495c-3.257 4.474-8.4 12.941-10.637 16.615-2.599 4.247 9.067-18.857 12.915-19.11z" fill="#00a1c6" fill-rule="evenodd"/><path d="M172.687 118.123s-6.623.628-6.87.3 4.516 1.794 5.862.789 1.008-1.089 1.008-1.089zM212.357 98.415a73.49 73.49 0 014.014 39.35c-2.324 5.419 9.545-20.136-4.014-39.35z" fill="#00a1c6" fill-rule="evenodd"/><path d="M219.11 100.125s-1.042 8.4-2.18 8.134 1.273-2.884 2.18-8.134zM197.17 85.523s6.856 5.172 4.616 10.3-7.494 6.494-13.477 4.18-13.489-12.042-10.683-16.914-8.819 6.137 8.63 16.74c5.684 3.454 12.242 1.883 14.071-.319 2.192-2.639 2.535-5.068 2.428-5.993-.168-1.562-1.677-6.72-5.585-7.994z" fill="#00a1c6" fill-rule="evenodd"/><path d="M180.129 83.22a11.681 11.681 0 004.463 9.671c5.084 4.143-8.755-4.712-4.463-9.671z" fill="#97ab54" fill-rule="evenodd"/><path d="M233.127 128.385s-11.763 1.445-15.253 5.407 2.659-6.495 15.253-5.407z" fill="#00a1c6" fill-rule="evenodd"/><path d="M293.048 134.791c-10.446 7.161-37.056 26.54-42.5 28.8-6.958 2.89-16.5 6.609-19.774 4.451-4-2.631-15.171-15.586-15.112-16.752.064-1.214.719-9 .4-11.841 5.678-9.031 16.927-14.633 16.927-14.633s6.84 11.4 7.426 12.042c.666.739 1.919 1.052 5.8-1.365 5.09-3.165 20.728-9.39 29.853-12.3z" fill="#f8f7e6" fill-rule="evenodd"/><path d="M234.943 150.268c-1.359 3.761-.283-8.068 7.339-6.422a9.316 9.316 0 00-7.339 6.422z" fill="#ecb2c5" fill-rule="evenodd"/><path d="M239.553 135.585c.566.656-6.525-10.769-6.525-10.769s-10.414 1.822-17.482 9.81c-.141 2.856-2.184 11.7-2.443 12.885-.247 1.14 13.966 19.429 16.961 19.744a53.645 53.645 0 01-5.389-10.021c-3.857-8.955-6.944-20.639-.2-26.176 4.6-3.777 8.6-2.43 11.207.106a54.661 54.661 0 013.94 4.524z" fill="#ecb2c5" fill-rule="evenodd"/><path d="M180.314 83.712s13.446-38.7 12.531-41.331c-2.037-.423-3.382-5.1-3.193-7.438.141-1.738 1.4-7.225 4.427-6.276 1.794.672 2.842 1.838 2.434 4.285-.363 2.178 1.25-.9 1.25-.9l.893-5.158 1.927-.6 1.717-10.02 13.812-3.061 14.386 5.419-.241 2.326s2.156 24.364-5.573 42.792c-6.039 10.6-22.145 6.422-23.134 5.375-.56 2-4.415 12.644-4.118 17.812 2.117 3.773 2.956 8.429-1.048 10.332-4.376 2.075-19.352-7.863-16.07-13.557z" fill="#f8f7e6" fill-rule="evenodd"/><path d="M191.663 55.212s2.434 11.255 9.858 14.049c-1.345 4.5-1.923 6.623-2.721 9.2s-2.774 14.111-2.609 13.246c2.609-14.348-4.447-32.312-4.447-32.312s-.571-4.565-.081-4.183z" fill="#ecb2c5" fill-rule="evenodd"/><path d="M230.335 31.795c-.179-1.313-5.935-3.307-5.935-3.307l.349-2.826a67.092 67.092 0 016 3.7s-.235 3.749-.414 2.436zm-8.132 11.383c-2.125-4.064-.225-8.69-.225-8.69-2.115 4.726-.747 7.626-.666 8.028s-2.3-.379-2.3-.379-.66.57-.337.815 3.775 1.2 3.524.219zm-8.6-8.732c-.263 1.132-1 1.925-1.678 1.772s-.991-1.2-.731-2.328 1-1.925 1.678-1.77.991 1.2.731 2.326zm-6.623-7.117l11.273.514c.4-.879.177-1.864.682-2.691.423-.558-9.507-.084-10.711.387zm-13.226 4.09c.48.012.747 2.057.855 3.133-.29-1.292-1.408-3.15-.861-3.132zm.911 3.783a2.03 2.03 0 00-.056-.65c.039.386.053.651.053.651zm30.728.1c.664.153.987 1.2.727 2.328s-1 1.925-1.674 1.772-.987-1.2-.727-2.328 1-1.927 1.668-1.772z" fill="#151e21" fill-rule="evenodd"/><path d="M155.538 134.939s-1.563 2.81-3.484 6.27a18.253 18.253 0 00-5.361-11.518c-6.4-6.222-21.025 13.906-25.857 14.558 4.082-13.541 12.4-25.562 12.4-25.562 17.865 1.21 22.302 16.252 22.302 16.252z" fill="#f8f7e6" fill-rule="evenodd"/><path d="M155.781 151.725s-12.409 27.333-12.066 37.544 44.052 16.658 52.654 13.593c0 0-1.947-17.984 3.424-31.258z" fill="#00a1c6" fill-rule="evenodd"/><path d="M176.816 235.627c-.5 1.174-2.81 1.2-5.8.068-2.238-.845-4.849-7.414-4.849-7.414s-.8 13.746 1.174 19.2.879 8.291-1.887 5.443c-4.106-4.231-9.758-3.645-13.709-8.831-3.791-4.973-5.4-20.549-5.523-21.821-3.568-7.382-18.58-38.565-25.706-54.865-8.124-18.578 12.728-48.716 12.728-48.716 17.862 1.2 22.3 16.256 22.3 16.256s-9.411 16.858-10.368 19a3.627 3.627 0 00.235 2.483c8.564 13.007 12.321 54.545 12.69 58.85a20.892 20.892 0 006.077 3.952c5.92 2.782 5.619 6.647 7.55 11.01s5.581 4.215 5.088 5.385z" fill="#f8f7e6" fill-rule="evenodd"/><path d="M145.333 156.233c-.716-.518-6.334-4.508-9.214-4.65-3.081-.154 3.685-1.965 7.359.4a7.046 7.046 0 011.875 1.581zM155.538 134.939s-1.563 2.81-3.484 6.27a18.253 18.253 0 00-5.361-11.518c-6.4-6.222-21.025 13.906-25.857 14.558 4.082-13.541 12.4-25.562 12.4-25.562 17.865 1.21 22.302 16.252 22.302 16.252zM164.333 251.916s-3.115-7.458-3.129-10.739c0 0-1.128 0-.446 3.29a20.57 20.57 0 003.109 7.1zM156.353 241.301s.733 6.308 3.472 8.114a22.921 22.921 0 01-2.944-8.186zM152.801 240.334s.706 4.353 2.5 6.94l.638.383s-2.563-3.625-2.535-7.4c.009-.009-.015-.718-.603.077z" fill="#ecb2c5" fill-rule="evenodd"/><path d="M176.811 235.627c-.5 1.174-2.81 1.2-5.8.068-2.238-.845-4.849-7.414-4.849-7.414s-.8 13.745 1.174 19.2.879 8.289-1.886 5.441a11.852 11.852 0 00-1.118-1l-.076-.058a6.247 6.247 0 00-.353-.265l-.036-.03a20.378 20.378 0 00-4.04-2.147c-1.294-.554-2.609-1.072-3.871-1.766l-.62-.359h-.016a12.55 12.55 0 01-3.56-3.177c-3.791-4.973-5.4-20.549-5.523-21.821l-.959-1.987c-4.758-9.88-18.135-37.771-24.746-52.885-2.994-6.844-2.053-15.253.327-23.154.064-.2.128-.423.2-.632s.112-.361.173-.542c.094-.3.2-.6.291-.891l.155-.451c.132-.387.267-.775.4-1.158.05-.138.1-.277.151-.411a86.067 86.067 0 012.093-5.174q.337-.769.68-1.511l.026-.06.317-.678c.056-.122.114-.243.173-.363q.658-1.385 1.315-2.673c.2-.377.385-.749.574-1.112l.337-.638c.337-.632.666-1.242.991-1.822l.159-.287a110.514 110.514 0 011.927-3.323c.068-.108.132-.217.2-.323l.191-.309c.08-.133.159-.257.235-.381l.375-.6.157-.249c.028-.04.052-.082.078-.12s.076-.124.114-.183l.3-.466c.028-.042.052-.082.08-.122.333-.514.564-.853.66-1l.018-.022.036-.054c17.862 1.2 22.3 16.256 22.3 16.256s-.2.349-.532.955a3.195 3.195 0 00-.062.114c-.048.082-.1.171-.148.265l-.132.235c-.305.55-.678 1.224-1.1 1.979l-.141.253c-.419.759-.883 1.591-1.369 2.469-2.577 4.658-5.792 10.508-6.705 12.361-.076.15-.136.273-.179.367a3.365 3.365 0 00.159 2.3c.046.118.076.187.076.187 8.028 12.208 11.841 49.541 12.583 57.647.048.532.084.937.106 1.2a20.889 20.889 0 006.077 3.952c5.92 2.781 5.619 6.647 7.55 11.01s5.561 4.189 5.063 5.359z" fill="#f8f7e6" fill-rule="evenodd"/><path d="M145.333 156.233c-.716-.518-6.334-4.508-9.214-4.65-3.081-.154 3.685-1.965 7.359.4a7.046 7.046 0 011.875 1.581zM155.538 134.939s-1.563 2.81-3.484 6.27a18.253 18.253 0 00-5.361-11.518c-6.4-6.222-21.025 13.906-25.857 14.558 4.082-13.541 12.4-25.562 12.4-25.562 17.865 1.21 22.302 16.252 22.302 16.252zM164.333 251.916l-.076-.058-.353-.265-.036-.03a20.407 20.407 0 01-3.109-7.1c-.682-3.279.446-3.285.446-3.285.011 3.281 3.128 10.738 3.128 10.738zM159.825 249.413c-2.737-1.806-3.47-8.112-3.47-8.112l.532-.072a22.868 22.868 0 002.938 8.184zM155.94 247.645l-.62-.359h-.016c-1.794-2.585-2.5-6.942-2.5-6.942.588-.8.6-.082.6-.082-.017 3.704 2.468 7.273 2.536 7.383z" fill="#ecb2c5" fill-rule="evenodd"/><path d="M155.658 203.27c-3.765.369-12.353 1.553-16.122 4.9a1.806 1.806 0 00-.4 2.155 30.449 30.449 0 002.906 4.8c1.943 2.517 4.277 8.088 4.277 8.088l13.045-6.824s-.9-3.1-1.706-11.472a1.82 1.82 0 00-2-1.644z" fill="#67ebf9" fill-rule="evenodd"/><path d="M159.351 216.379s-1.73-.022-3.438-5.529c-1.678-5.407-12.616-1.543-13.019-1.4.347-.2 9.868-5.6 14.823-3.813a70.648 70.648 0 001.634 10.742z" fill="#67ebf9" fill-rule="evenodd"/><path d="M176.812 235.628c-.5 1.174-2.81 1.2-5.8.068-2.238-.845-4.849-7.414-4.849-7.414s-.8 13.745 1.174 19.2.879 8.289-1.886 5.441a11.875 11.875 0 00-1.118-1l-.076-.058-.353-.265-.036-.03a20.379 20.379 0 00-4.04-2.147c-1.294-.554-2.609-1.072-3.871-1.766l-.62-.359h-.016a12.547 12.547 0 01-3.56-3.177c-3.791-4.973-5.4-20.549-5.523-21.821l-.959-1.987 12.734-6.221c.048.532.084.937.106 1.2a20.892 20.892 0 006.077 3.952c5.92 2.782 5.62 6.647 7.55 11.01s5.564 4.203 5.066 5.374z" fill="#67ebf9" fill-rule="evenodd"/><g fill="#00a1c6" fill-rule="evenodd"><path d="M164.333 251.916l-.076-.058-.353-.265-.036-.03a20.407 20.407 0 01-3.109-7.1c-.682-3.279.446-3.285.446-3.285.011 3.281 3.128 10.738 3.128 10.738zM159.825 249.413c-2.737-1.806-3.47-8.112-3.47-8.112l.532-.072a22.868 22.868 0 002.938 8.184zM155.94 247.645l-.62-.359h-.016c-1.794-2.585-2.5-6.942-2.5-6.942.588-.8.6-.082.6-.082-.017 3.704 2.468 7.273 2.536 7.383z"/></g><path d="M159.351 216.379s-1.73-.022-3.438-5.529c-1.678-5.407-12.616-1.543-13.019-1.4.347-.2 9.868-5.6 14.823-3.813a70.648 70.648 0 001.634 10.742z" fill="#00a1c6" fill-rule="evenodd" opacity=".28"/><path d="M274.951 123.556s10.007-3.34 15.485-8.1c10.165-8.831 21.382 2.364 24.521 2.161s4.1 4.136-2.665 5.742l10.48 4.215-12.577 12.708s-12.931-11.522-17.153-5.483z" fill="#f8f7e6"/><path d="M322.691 132.81a2.494 2.494 0 01-3.169-.674c-.963-1-5.565-3.863-5.961-7.536.951 1.652 4.184 6.681 9.13 8.21zM310.956 133.926c-.743-1.339-1.042-2.579-.492-3.364.309-.444.949-.52 1.746-.373-2.554.865-1.335 3.58-1.254 3.737zM316.635 121.172s-4.636 3.159-11.363.146c0 0 4.969 3.165 7.907 1.909s1.684-.54 3.456-2.055zM297.377 121.049s5.166 2.509 4.214 9.232a22.73 22.73 0 00-4.214-9.232zM295.954 133.079s-1.545-3.647-1.031-5.228c0 0-.911.9-.4 3.167l.5 2.268zM294.276 133.628s-1.345-2.81-1.132-4.16a4.507 4.507 0 00.068 3.562c.819 2.177.365 1.134.365 1.134z" fill="#ecb2c5"/><path d="M315.058 137.755s-5.435-4.859-7.151-3.729.379 5.112 2.45 7.3 3.586.819 4.616-.229 2.145-1.672.085-3.342z" fill="#f8f7e6"/><path d="M314.97 141.089c-1.026 1.048-2.541 2.408-4.616.229-1.473-1.555-2.958-4.014-3.075-5.716.522 1.379 2.33 5.607 5.017 6.332 0 0 .56.253 1.638-.454s2.3-2.007 2.154-2.579c.433.893-.37 1.433-1.118 2.188z" fill="#ecb2c5"/><path d="M307.463 136.596c-.335-1.128-.283-2.1.433-2.571a1.978 1.978 0 011.722.06 2.05 2.05 0 00-2.155 2.511z" fill="#ecb2c5"/><path d="M324.549 130.434l-5.134 8.208a.333.333 0 00-.034.279.333.333 0 00.6.072l5.134-8.21a.333.333 0 00-.359-.5.335.335 0 00-.209.15z" fill="#e24b27"/><path d="M322.05 137.239l2.457-4.012-.64-.45-2.5 4z" fill="#a82309"/><path d="M324.506 133.227l14.771 8.973-2.607 4.275-14.621-9.236z" fill="#fde48b"/><path d="M338.062 141.462l-2.6 4.251 1.206.763 2.607-4.275z" fill="#e24b27"/><path d="M332.072 137.823l-2.448 4.2 5.84 3.689 2.6-4.251z" fill="#ecb2c5"/><path d="M322.434 136.613l13.438 8.435.652-1.07-13.559-8.234z" fill="#fde48b"/><path d="M338.862 142.883l-1.754 2.876 1.094.731 1.69-2.928z" fill="#a82309"/><path d="M321.996 125.603s-8.006-6.125-8.439-1.985 4.915 7.416 5.967 8.517 3.179 1.921 4.311-.933-.254-4.489-1.839-5.599z" fill="#f8f7e6"/><path d="M322.691 132.81a2.494 2.494 0 01-3.169-.674c-.963-1-5.565-3.863-5.961-7.536.951 1.652 4.184 6.681 9.13 8.21z" fill="#ecb2c5"/><path d="M318.979 133.418s-7.207-4.734-8.52-2.856 2.228 6.368 5.1 8.6 3.894.1 4.542-1.489 1.551-2.682-1.122-4.255z" fill="#f8f7e6"/><path d="M320.106 137.677c-.648 1.593-1.674 3.721-4.542 1.491-2.039-1.581-4.415-4.311-5.15-6.422 1.021 1.606 4.363 6.488 7.325 6.705 0 0 .652.173 1.479-1s1.578-3.145 1.226-3.813c.739.978.129 1.869-.338 3.039z" fill="#ecb2c5"/><path d="M310.956 133.926c-.743-1.339-1.042-2.579-.492-3.364.309-.444.949-.52 1.746-.373-2.554.865-1.335 3.58-1.254 3.737z" fill="#ecb2c5"/><path d="M338.894 145.29l13.916 8.674.281-.4-13.926-8.738z" fill="#e24b27"/><path d="M322.777 127.566l-12.576 12.72s-11.811-10.235-16.68-6.282a4.072 4.072 0 00-.787.853 87.411 87.411 0 00-7.38 6.6c-2.533 2.745-4.066 1.9-4.066 1.9-7.426-3.92-6.422-19.668-6.422-19.668.034-1.3 2.1-1.806 3.091-1.989.315-.056.522-.076.522-.076a72.265 72.265 0 007.7-3.179 29.183 29.183 0 004.251-3c5.138-4.467 10.548-3.813 15.052-2.1 4.4 1.676 7.925 4.363 9.477 4.263 3.139-.2 4.1 4.136-2.665 5.742z" fill="#67ebf9"/><path d="M293.525 133.994l.056.173s-.319.253-.843.68a4.074 4.074 0 01.787-.853z" fill="#67ebf9"/><path d="M308.724 126.104s-.259 4.094-2.43 4.881-.2 5.459 3.574 5.692 10.055-4.415 8.287-7.7-7.962-6.425-9.431-2.873z" fill="#00a1c6" opacity=".28"/><path d="M323.074 132.772l-9.954-6.276-1.511 2.84 9.447 6.685z" fill="#e24b27"/><path d="M322.691 132.81a2.494 2.494 0 01-3.169-.674c-.963-1-5.565-3.863-5.961-7.536.951 1.652 4.184 6.681 9.13 8.21zM310.956 133.926c-.743-1.339-1.042-2.579-.492-3.364.309-.444.949-.52 1.746-.373-2.554.865-1.335 3.58-1.254 3.737z" fill="#ecb2c5"/><path d="M314.143 124.458l-3.659 7.123-1.325-.781 4.1-6.747z" fill="#e24b27"/><path d="M315.058 137.755s-5.435-4.859-7.151-3.729.379 5.112 2.45 7.3 3.586.819 4.616-.229 2.145-1.672.085-3.342zM321.996 125.603s-8.006-6.125-8.439-1.985 4.915 7.416 5.967 8.517 3.179 1.921 4.311-.933-.254-4.489-1.839-5.599z" fill="#67ebf9"/><path d="M318.979 133.418s-7.207-4.734-8.52-2.856 2.228 6.368 5.1 8.6 3.894.1 4.542-1.489 1.551-2.682-1.122-4.255z" fill="#67ebf9"/><path d="M316.635 121.172s-4.636 3.159-11.363.146c0 0 4.969 3.165 7.907 1.909s1.684-.54 3.456-2.055zM297.377 121.049s5.166 2.509 4.214 9.232a22.73 22.73 0 00-4.214-9.232zM314.97 141.089c-1.026 1.048-2.541 2.408-4.616.229-1.473-1.555-2.958-4.014-3.075-5.716.522 1.379 2.33 5.607 5.017 6.332 0 0 .56.253 1.638-.454s2.3-2.007 2.154-2.579c.433.893-.37 1.433-1.118 2.188z" fill="#00a1c6"/><path d="M307.463 136.596c-.335-1.128-.283-2.1.433-2.571a1.978 1.978 0 011.722.06 2.05 2.05 0 00-2.155 2.511zM322.691 132.81a2.494 2.494 0 01-3.169-.674c-.963-1-5.565-3.863-5.961-7.536.951 1.652 4.184 6.681 9.13 8.21zM320.106 137.677c-.648 1.593-1.674 3.721-4.542 1.491-2.039-1.581-4.415-4.311-5.15-6.422 1.021 1.606 4.363 6.488 7.325 6.705 0 0 .652.173 1.479-1s1.578-3.145 1.226-3.813c.739.978.129 1.869-.338 3.039z" fill="#00a1c6"/><path d="M310.956 133.926c-.743-1.339-1.042-2.579-.492-3.364.309-.444.949-.52 1.746-.373-2.554.865-1.335 3.58-1.254 3.737zM295.482 132.123a16.248 16.248 0 01-.99-3.914c.058-1.088-.568 1.84.058 2.91s.932 1.004.932 1.004zM294.087 132.34s-1.883-1.02-1.989-2.182.2 2.39 1.347 2.633.642-.451.642-.451z" fill="#00a1c6"/><path d="M295.4 134.538c-.014.014-.07.056-.165.124-.118.004-.196-.076.165-.124z" fill="#ecb2c5" fill-rule="evenodd"/><path d="M230.309 48.671a2.268 2.268 0 00-.873-2.27c-2.029-1.5-6.27-4.385-9-4.54-3.685-.211-14.765-1.076-16.876-2.137 0 0-6.258 17.557-10.821 18.97 0 0-2.609 10.157 17.523 12.768 17.901 2.322 17.032-7.841 20.047-22.791z" fill="#67ebf9" fill-rule="evenodd"/><path d="M207.195 43.351a25.482 25.482 0 008.461.863 12.973 12.973 0 019.394 2.551 13.3 13.3 0 003.771 2.043 20.188 20.188 0 01-5.6-1.951c-3.364-1.654-3.586-1.194-9.375-1.766s-6.651-1.74-6.651-1.74zM204.544 45.759s6.274 2.294 10.2 1.846a12.961 12.961 0 019.394 2.551c2.784 1.86 3.771 2.041 3.771 2.041a20.1 20.1 0 01-5.6-1.951c-3.364-1.656-3.584-1.192-9.374-1.764s-8.391-2.723-8.391-2.723zM198.342 56.396s7.325 5.184 11.271 5.039 7.046.614 9.677 2.683 3.879 1.748 3.879 1.748a11.27 11.27 0 01-5.706-1.806c-3.225-1.919-3.99-.879-9.718-1.9s-9.403-5.764-9.403-5.764zM202.886 48.922s7.259 2.442 11.183 1.995a12.964 12.964 0 019.395 2.551c2.786 1.86 3.769 2.041 3.769 2.041a20.1 20.1 0 01-5.593-1.951c-3.364-1.656-3.586-1.192-9.375-1.764a22.942 22.942 0 01-9.379-2.872zM201.547 51.497s7.364 3.671 11.287 3.223a12.964 12.964 0 019.394 2.551c2.786 1.86 3.771 2.041 3.771 2.041a20.13 20.13 0 01-5.6-1.949c-3.364-1.654-3.586-1.194-9.374-1.766a17.3 17.3 0 01-9.478-4.1zM200.018 54.399s7.773 4.323 11.7 3.873a12.964 12.964 0 019.395 2.551 13.293 13.293 0 003.771 2.043 20.187 20.187 0 01-5.6-1.951c-3.364-1.654-3.586-1.194-9.374-1.766a17.849 17.849 0 01-9.892-4.75z" fill="#00a1c6" opacity=".28"/><path d="M203.564 39.724l-7.05-6.771.014.979 6.5 7.245zM192.6 42.305l.142 16.389 1.226-.616-1.034-15.474-.09-.223z" fill="#00a1c6" fill-rule="evenodd"/><path d="M305.487 113.35a9.565 9.565 0 01-1.744-.11c-8.028-1.164-14.273 6.071-20.535 7.99s-.975 16.351-.975 16.351c-4.331-2.637-4.271-15.879-4.271-15.879.315-.056.522-.076.522-.076a72.277 72.277 0 007.7-3.179 29.18 29.18 0 004.251-3c5.146-4.463 10.556-3.808 15.052-2.097z" fill="#00a1c6" fill-rule="evenodd" opacity=".28"/><path d="M234.248 21.124s5.493-1.02 6.153-9.872-11.496-13.688-21.414-10.011-11.44 5.567-16.686 6.623-10.807.739-10.129 10.753l.678 10.015 1.044.058s2.639-.333 2.653 4.038-.044 3.5-.044 3.5a4.738 4.738 0 001.3.245c.243-.078.532-7.5 1.766-8.821s1.76-.564 2.424-2.294 1.387-5.981 3.412-7.024 19 4.014 25.087 2.96c0 0-.4 6.623.2 9.433-.002-.006 5.414-2.794 3.556-9.603z" fill="#151e21" fill-rule="evenodd"/><path d="M236.892 7.81a13.537 13.537 0 01-7.365 10.518s4.857-.413 6.5-3.974 1.581-4.541.865-6.544zM232.907 7.669s1.327 6.135-5.5 9.433a7.671 7.671 0 005.485-3.978 6.692 6.692 0 00.015-5.455z" fill="#3a2115" fill-rule="evenodd" opacity=".46"/><path d="M167.211 213.365s6.117 4.1 8.375 4.072.155 1.537-2.683.038-3.914-1.06-5.88-3.536.188-.574.188-.574zM171.118 218.4s4.5 3.671 5.973 6.892-1.583-.765-3.183-2.705-3.794-3.533-2.79-4.187z" fill="#00a1c6" fill-rule="evenodd"/><path d="M302.665 206.641l37.841-37.841s11.759-11.917 25.41-9.212 85.446 10.8 85.446 10.8 13.621 4.449 8.467 16.766-81.7 93.865-81.7 93.865-13.115 12.517-24.426 12.517H13.6s-13.6 0-13.6-17.3c0-8.652 2.577-14.91 19.511-14.91s280.526-11.7 280.526-11.7z" fill="#6a465c"/><path d="M459.823 187.16c-5.154 12.319-81.7 93.865-81.7 93.865s-13.117 12.517-24.428 12.517H110.787c-5.872-.311-17.426-2.46-17.426-14.542 0-16.2 20.768-13.565 20.768-13.565l10.665-8.19c79.728-3.366 175.248-7.612 175.248-7.612l2.609-42.993 37.836-37.84s11.761-11.917 25.41-9.212 85.464 10.8 85.464 10.8 13.616 4.455 8.462 16.772z" fill="#909ea7"/><path d="M417.958 166.51a62.892 62.892 0 01-4.415 10.695c-2.346 4.415-19.052 6.623-25.328 7.446s-8.082-1.234-11.4-1.1-2.761 10.035-2.761 10.035c7.594 8.51 9.124 22.9 9.124 22.9s-20.307-1.17-20.294-1.128-29.7-10.811-32.179-14.115-4.279-6.36 4.415-14.077 22.612-3.743 22.612-3.743l8.6-10.215 9.834-11.987c10.885 1.542 27.161 3.549 41.792 5.289z" fill="#4a2e40"/><path d="M459.823 187.16c-5.154 12.319-81.7 93.865-81.7 93.865s-13.117 12.517-24.429 12.517H114.119a27.947 27.947 0 01-3.342 0c-5.872-.311-17.426-2.46-17.426-14.542 0-16.2 20.768-13.565 20.768-13.565l10.665-8.19c79.734-3.366 175.254-7.612 175.254-7.612l2.609-42.993 37.841-37.84s11.761-11.917 25.41-9.212 85.464 10.8 85.464 10.8 13.615 4.455 8.461 16.772z" fill="#6a465c"/><path d="M459.823 187.16c-5.154 12.319-81.7 93.865-81.7 93.865s-13.117 12.517-24.429 12.517H114.119a28 28 0 01-3.342 0c-5.872-.311-17.426-2.461-17.426-14.542 0-16.2 20.768-13.565 20.768-13.565l10.665-8.19c79.734-3.366 175.254-7.612 175.254-7.612l.893-14.651c18.6-.793 30.632-1.315 30.632-1.315l31.792 22.606s7.225 3.613 16.256-7.225 15.293-19.241 17.5-23.521c2.164-4.176 39.272-60.515 55.251-54.735.327.142.72.325 1.156.552.478.247 1 .546 1.557.9 3.602 2.318 8.065 6.987 4.748 14.916z" fill="#4a2e40"/><path d="M417.958 166.51a62.892 62.892 0 01-4.415 10.695c-2.346 4.415-19.052 6.623-25.328 7.446s-8.082-1.234-11.4-1.1-2.761 10.035-2.761 10.035c7.594 8.51 9.124 22.9 9.124 22.9s-20.307-1.17-20.294-1.128-29.7-10.811-32.179-14.115-4.279-6.36 4.415-14.077 22.612-3.743 22.612-3.743l8.6-10.215 9.834-11.987c10.885 1.542 27.161 3.549 41.792 5.289z" fill="#4a2e40"/><g fill-rule="evenodd"><path d="M311.889 199.115s14.773-8.808 19.1-11.239c6-3.382 15.052-3.952 22.891-.64 2.208.853 1.752-.036 7.8 2.358 6.946 2.752 5.286-.2 5.6 5.858.2 1.393 3.612-.044 3.612-.044s5.914 3.667 8.887 12.521c2.493 7.426-2.037 17.529-9.156 22.765-6.292 4.616-10.235 6.932-10.235 6.932a31.729 31.729 0 00-14.143 4.233c-5.513 1.154-13.824-1.333-19.527-6.1-9.989-7.982-4.843-21.512-4.843-21.512s.568-3.161-2.34-7.9c-1.944-3.17-7.646-7.232-7.646-7.232z" fill="#00a1c6"/><path d="M341.082 202.647a4.922 4.922 0 01-2.039-3.263c-.163-.933 1.092-4.558 2.182-5.961 2.137-2.75 3.365-5.218 10.753-8.662a17.241 17.241 0 0111.819 2.81c4.415 2.751 7.126 1.072 8.13 8.134a11.581 11.581 0 01-.056 2.063s-1.373 7.442-3.785 10.015c-3.2.433-4.817.313-12.146 3.891a11.978 11.978 0 00-6.581-3.881 2.854 2.854 0 00-3.107 1.517c-.151.2-7.626 9.342-9.377 12.862-.893-.791-3.783-1.339-4.433-2.852 2.768-7.783 8.447-12.393 10.284-15.237.351-.533-1.644-1.436-1.644-1.436z" fill="#2dc8e2"/><path d="M355.189 213.539a17.661 17.661 0 01-1.929 2.629c-2.77 2.707-8.857 4.887-8.857 4.887a55.96 55.96 0 008.387-5.218c.834-.711 2.054-2.43 2.399-2.298zM351.285 239.68s15.419-9.5 17.85-10.958c4-2.398-11.592 8.977-17.85 10.958z" fill="#00a1c6"/><path d="M369.697 230.598s-3.382.56-3.211-.024-.73.536-.73.536a6.423 6.423 0 003.941-.512zM353.694 215.345s2.978-4.911 7.368-6.85a12.543 12.543 0 019.031-.482c.459.414-6.318-2.753-16.399 7.332zM347.821 218.875s8.391 4.136 7.847 18.865c.739-.391.749-.544.987-.6.968-.255-.108-15.122-8.834-18.265zM314.927 197.198s8.216 4.178 9.288 10.563a16.271 16.271 0 00.628-2.079c-1.433-2.929-5.906-7.87-9.916-8.484z" fill="#00a1c6"/><path d="M332.361 195.85s-2.645 3.175-5.459 7.426c-2.737 4.132-5.922 14.687-6.071 16.32-.308 3.318.214-15.186 11.53-23.746z" fill="#00a1c6"/><path d="M327.854 195.677s-.094 5.164.484 5.346-1.909 1.454-.484-5.346zM344.518 206.641s-2.248 2.751-4.347 5.559c-2.075 2.776-4 5.62-4 5.62l-.534-.644c-.458-.123 6.966-9.628 8.881-10.535zM357.746 187.16a7.956 7.956 0 00-2.667 2.438c-.326.645 2.338-2.077 2.667-2.438zM368.829 193.584s-1.184 3.512-2.274 4.323 2.387-1.593 2.274-4.323z" fill="#00a1c6"/></g><path d="M325.915 231.539s-2.567-3.909-4.066-4.068 2.773 2.408 4.066 4.068z" fill="#00a1c6" fill-rule="evenodd"/><path d="M400.323 156.176c-4.839 1.714-10.731 7.024-10.731 7.024l-4.014 4.455s-10.394 11.494-16.377 20.808c-3.743 5.82-2.047 8.307-2.047 8.307s-6.623 9.26-13.111 8.67c-7.586-.692-7.512.959-8.411.293.825-.745 2.553-8.247 4.676-12.959.706-1.569 2.34-5.274 3.574-6.021.664-.4-.06.144.853-.765 3.946-3.924 8.65-10.637 11.9-16.2-3.028-1.748-14.049-4.943-7.51-22.554 5.218-10.7 8.552-21.428 10.5-21.362l5.1-2.483s14.962 7.554 23.024 14.964c1.148 1.056-.55 9.579-1.513 11.257 4.957-5.521 8.337-2.007 8.586-.963.541 1.93-.585 4.559-4.499 7.529z" fill="#ecc298" fill-rule="evenodd"/><path d="M376.358 179.421s-8.688 8.566-9.455 14.777c-1.756-6.24 1.281-8.939 2.274-16.9.753-6.021-5.017-3.271-2.541-7.514a25.191 25.191 0 009.758.979 25.688 25.688 0 006.221-2.007c2.113-1.1 3.679-3.177 3.869-2.892.548.819-5.914 7.827-6.954 9.2-1.346 1.764-3.172 4.357-3.172 4.357z" fill="#c37e57" fill-rule="evenodd"/><path d="M396.646 165.681l-8.738 2.5-2.174.616s0 .012-.02.016 0 0 0 .012c-11.062 6.537-22.026.526-22.026.526l-.8-.536c-3.358-2.585-11.1-4.616-2.115-29.153s20.607-16.87 20.607-16.87 25.775 29.8 26.014 30.437-10.748 12.452-10.748 12.452z" fill="#ecc298" fill-rule="evenodd"/><path d="M388.793 167.923l-3.085.889a6.13 6.13 0 013.085-.889z" fill="#c37e57" fill-rule="evenodd"/><path d="M374.56 141.978s-1.768 3.845-5.868 4.074 1.981 2.89 2.876 2.577-2.306-.11-1.327-1.578a1.373 1.373 0 011.068-.614 5.081 5.081 0 003.251-4.459zM366.799 150.254c.3.09 4.839 3.837 10.53 1.08 0 0 .532-.516-.293-1.529s1.553-.771 1.65 1.2.7 1.664-.482 1.07-4.839 3.629-11.616-1.345c0-.008-.923-.811.211-.476z" fill="#c37e57"/><path d="M369.478 136.104s1.79-2.942 6.484-.829l-.785 1.746s-3.351-2.89-5.5-.827zM384.203 142.733s1.016-3.289-3.681-5.4l-.785 1.746s4.387.59 4.267 3.568z" fill="#3c3427"/><path d="M418.895 150.589c.63 9.605-6.824 12.816-6.824 12.816a5.791 5.791 0 01.343.853c.616 1.87 1.427 6.551-3.49 11.309-6.352 6.147-15.518 4.54-15.518 4.54-11.439 5.26-15.132-3.35-15.132-3.35s3.613-6.139 5.768-7.04c.1-.042.2-.092.323-.149 2.332-1.182 7.273-5.437 7.273-5.437.716 1.979 2.717 1.17 3.524.678s1.606-2.657 3.44-5.507-1.158-4.415-2.669-5.724-.054-7.426-3.085-9.166-.841-8.895-4.188-10.047-6.5-5.218-7.815-6.388-4.3.4-7.01-.817-7.157 1.136-7.157 1.136l-6.623 13.481c-2.262-2.408-3.769-7.934-3.117-13.419a9.9 9.9 0 01.638-2.466 18.038 18.038 0 015.7-7.024s-.646-4.654 5.485-7.966 10.4-.749 10.4-.749a13.754 13.754 0 0113.184-4.3c7.068 1.411 11.323 8.08 11.323 8.08s9.35.09 11.765 8.762a17.976 17.976 0 01-1.939 14.673s4.769 3.618 5.401 13.221z" fill="#67ebf9"/><path d="M418.895 150.589c.63 9.605-6.823 12.816-6.823 12.816a5.77 5.77 0 01.343.853 7.648 7.648 0 00-2.619 1.63c-4.136 3.629-9.624-2.051-10.673-3.37s2.007-6.167-.128-7.875-2.129-2.942-2.408-6a8.584 8.584 0 00-3.711-6c-1.254-.867-1.429-6.645-1.549-7.919s-3.785-2.673-5.009-3.235-5.056-4.576-5.65-5.318-2.768.383-6.222-.275-5.864 1.232-7.961 1.184-2.956 7.6-6.422 10.344c-2.768 2.2-2.639-7.363-2.5-11.536a18.039 18.039 0 015.7-7.024s-.646-4.654 5.485-7.966 10.4-.749 10.4-.749a13.753 13.753 0 0113.184-4.3c7.068 1.411 11.323 8.08 11.323 8.08s9.351.09 11.765 8.762a17.976 17.976 0 01-1.939 14.673s4.782 3.622 5.414 13.225z" fill="#00a1c6" fill-rule="evenodd" opacity=".28"/><path d="M378.84 122.992s-1.9-8.883.479-11.048-1.128-.353.168 10.986c.001.003.557 2.539-.647.062zM401.684 114.82s-8.871 1.949-10.6 15.887c0 0-.263 3.077.911.839s1.716-7.281 3.083-9.445 8.363-7.171 6.606-7.281zM412.312 137.197s-3.8-1.114-9.031 1.23-6.946 5.72-6.515 6.384 3.01-4.295 7.271-5.162 10.713-1.118 8.275-2.452zM400.763 159.753a12.774 12.774 0 0110.259 2.912s1.194 1.864-.287.877-3.211-3.089-9.906-3.1c0-.01-1.76-.028-.066-.689zM363.026 120.483s-.875 4.429 1.886 6.91-1.054-1.776-1.064-2.978.115-6.732-.822-3.932zM391.185 166.659a15.011 15.011 0 00.514 11.415s1.4 1.656.839-.387a24.312 24.312 0 01-.885-10.085c.668-3.948-.468-.943-.468-.943zM406.566 118.824a5.181 5.181 0 00-7.163 1.816c-2.972 4.415.076-.743 3.01-.959s5.751-.241 4.153-.857z" fill="#00a1c6"/><path d="M377.755 144.059s1.585 2.788 4.455 2.332-1.337 1.513-2.87.456-2.291-2.656-1.585-2.788zM367.656 139.885s1.585 2.788 4.455 2.332-2.007 1.15-3.542.094-1.619-2.29-.913-2.426z" fill="#3c3427"/><path d="M288.799 217.836s-12.042 16.371-65.607 15.482-48.871-4.793-71.236-3.946-45.283 10.787-58.537 5.541-50.254-24.021-57.708-1.1-17.948 28.438-4.971 30.648 264.886 0 264.886 0h34.816s28.137.538 43.047-14.825-56.794-47.737-56.794-47.737-24.416 5.762-27.896 15.937z" fill="#2dc8e2"/><path d="M304.373 192.347s14.187-7.45 34.014.3 29.749 6.789 39.135 18.038 20.37 13.3 9.633 22.63-10.436 21.751-16.8 13.744-40.049-44.064-63.795-37.357-17.661 12.8-17.394 5.886 9.682-23.56 15.207-23.241z" fill="#67ebf9"/><path fill="#6a465c" d="M215.931 293.59h30.026v32.862h-30.026z"/><path fill="#4a2e40" d="M215.931 293.59h15.576v32.862h-15.576z"/><path fill="#6a465c" d="M215.931 350.196h30.026v32.862h-30.026z"/><path fill="#4a2e40" d="M215.931 350.196h15.576v32.862h-15.576z"/><ellipse cx="23.086" cy="26.124" rx="23.086" ry="26.124" transform="translate(202.258 310.458)" fill="#4a2e40"/><ellipse cx="23.086" cy="26.124" rx="23.086" ry="26.124" transform="translate(212.776 311.47)" fill="#6a465c"/><ellipse cx="15.257" cy="17.264" rx="15.257" ry="17.264" transform="translate(220.605 320.331)" fill="#4a2e40"/><ellipse cx="9.246" cy="10.462" rx="9.246" ry="10.462" transform="translate(226.616 327.132)" fill="#6a465c"/><path d="M180.932 382.708h102.956a12.644 12.644 0 0112.644 12.644H168.288a12.644 12.644 0 0112.644-12.644z" fill="#6a465c"/></g></g></svg>