<svg xmlns="http://www.w3.org/2000/svg" width="103" height="103" viewBox="0 0 103 103"><g transform="translate(-972 -363)"><path d="M46.5,2A44.512,44.512,0,0,0,29.179,87.5,44.512,44.512,0,0,0,63.821,5.5,44.219,44.219,0,0,0,46.5,2m0-2A46.5,46.5,0,1,1,0,46.5,46.5,46.5,0,0,1,46.5,0Z" transform="translate(977 368)" fill="#1eb5f0"/><circle cx="42.5" cy="42.5" r="42.5" transform="translate(981 372)" fill="#1eb5f0"/><path d="M51.5,2A49.514,49.514,0,0,0,32.233,97.111,49.513,49.513,0,0,0,70.767,5.889,49.188,49.188,0,0,0,51.5,2m0-2A51.5,51.5,0,1,1,0,51.5,51.5,51.5,0,0,1,51.5,0Z" transform="translate(972 363)" fill="rgba(30,181,240,0.29)"/><path d="M8,0l8,13H0Z" transform="translate(1031 407) rotate(90)" fill="#fff"/></g></svg>