<svg xmlns="http://www.w3.org/2000/svg" width="116.73" height="116.73" viewBox="0 0 116.73 116.73"><g transform="translate(258.905 -42.082)"><rect width="116.73" height="116.73" rx="21.166" transform="translate(-258.905 42.082)" fill="#ce809d"/><rect width="75.927" height="40.358" rx="14.955" transform="translate(-238.503 49.63)" fill="#fff"/><path d="M-199.149,63.785l8.348-10.429h-16.685Z" transform="translate(-1.396 -0.306)" fill="#25847b"/><g transform="translate(-202.233 66.143)"><path d="M-198.963,77.432a1.689,1.689,0,0,1-1.688-1.689V68.5a1.689,1.689,0,0,1,1.688-1.689,1.689,1.689,0,0,1,1.688,1.689v7.239A1.689,1.689,0,0,1-198.963,77.432Z" transform="translate(200.651 -66.815)" fill="#70678f"/></g><g transform="translate(-219.33 72.332)"><path d="M-211.128,81.973a1.684,1.684,0,0,1-1.195-.5l-5.41-5.421a1.688,1.688,0,0,1,0-2.387,1.689,1.689,0,0,1,2.387,0l5.41,5.421a1.688,1.688,0,0,1,0,2.387A1.683,1.683,0,0,1-211.128,81.973Z" transform="translate(218.226 -73.177)" fill="#70678f"/></g><g transform="translate(-189.093 72.332)"><path d="M-185.456,81.973a1.682,1.682,0,0,1-1.194-.5,1.686,1.686,0,0,1,0-2.386l5.421-5.421a1.688,1.688,0,0,1,2.387,0,1.688,1.688,0,0,1,0,2.386l-5.422,5.421A1.681,1.681,0,0,1-185.456,81.973Z" transform="translate(187.145 -73.177)" fill="#70678f"/></g><g transform="translate(-209.713 71.633)"><path d="M-205.164,79.242a1.688,1.688,0,0,1-1.548-1.014L-208.2,74.82a1.685,1.685,0,0,1,.872-2.221,1.686,1.686,0,0,1,2.221.872l1.488,3.408a1.687,1.687,0,0,1-.873,2.221A1.671,1.671,0,0,1-205.164,79.242Z" transform="translate(208.34 -72.458)" fill="#70678f"/></g><g transform="translate(-195.817 71.29)"><path d="M-192.369,79.234a1.68,1.68,0,0,1-.769-.187,1.687,1.687,0,0,1-.733-2.272l1.92-3.751a1.688,1.688,0,0,1,2.272-.733,1.687,1.687,0,0,1,.733,2.272l-1.92,3.751A1.687,1.687,0,0,1-192.369,79.234Z" transform="translate(194.056 -72.106)" fill="#70678f"/></g><g transform="translate(-220.554 80.725)"><path d="M-213.518,86.759a1.686,1.686,0,0,1-.584-.105l-4.278-1.578a1.689,1.689,0,0,1-1-2.167,1.688,1.688,0,0,1,2.168-1l4.277,1.578a1.69,1.69,0,0,1,1,2.168A1.688,1.688,0,0,1-213.518,86.759Z" transform="translate(219.483 -81.803)" fill="#70678f"/></g><g transform="translate(-186.028 80.725)"><path d="M-182.305,87.1a1.686,1.686,0,0,1-1.559-1.042,1.686,1.686,0,0,1,.913-2.205l4.632-1.919a1.684,1.684,0,0,1,2.2.913,1.686,1.686,0,0,1-.913,2.205l-4.632,1.919A1.681,1.681,0,0,1-182.305,87.1Z" transform="translate(183.994 -81.804)" fill="#70678f"/></g></g></svg>