<svg xmlns="http://www.w3.org/2000/svg" width="93.936" height="123.173" viewBox="0 0 93.936 123.173"><g transform="translate(-350.694 -33.065)"><path d="M363.241,120.676s-25.12-26.052-4.27-55.243c3.237-4.532,7.668-10.842,17.786-13.135,9.794-28.565,33.328-18.132,38.611-13.553,6.254,5.421,9.634,10.008,6.693,18.348,0,0,19.021,4.078,22.079,23.932s-9.166,39.651-9.166,39.651-5.714,13.837-7.236,13.7-56.851,2.424-56.851,1.559S363.241,120.676,363.241,120.676Z" transform="translate(0 0)" fill="#ce809d"/><path d="M396.485,152.783A8.953,8.953,0,0,0,401.2,153.9a8.831,8.831,0,0,0,3.892-1.114l6.256-7.21,13.778-13.853,2.169-5.351a77.066,77.066,0,0,0,2.3-20.8c-.395-.929-.981-2.261-1.734-3.852-6.3-13.243-16.323-23.779-30.341-28.737l-1.071,4.606a40.328,40.328,0,0,0-8.307,4.816,44.706,44.706,0,0,0-12.346,14.907,54.918,54.918,0,0,0-3.71,8.375,78.271,78.271,0,0,0,2.676,20.936l1.491,5.158Z" transform="translate(-1.939 -3.62)" fill="#fff"/><path d="M403.462,142.935l-.078,0a16.216,16.216,0,0,1-7.286-2.194l-1.263-.74.884-1.166c.373-.492.77-1.018,1.158-1.549a4.975,4.975,0,0,1,2.493-1.8l.023-.007a4.511,4.511,0,0,1,1.032-.187c.164-.013.326-.02.48-.02a5.268,5.268,0,0,1,1.776.315,2.641,2.641,0,0,0,.868.179h.029a2.549,2.549,0,0,0,.834-.161,5.26,5.26,0,0,1,1.691-.289c.179,0,.368.009.56.027a4.671,4.671,0,0,1,1.269.289l.032.013a5.076,5.076,0,0,1,2.116,1.636l0,0,2.045,2.738-1.284.727a17.207,17.207,0,0,1-7.3,2.184Zm-4.744-3.769a13.611,13.611,0,0,0,4.729,1.164,14.606,14.606,0,0,0,4.786-1.182l-.23-.308a2.474,2.474,0,0,0-1.014-.789,2.073,2.073,0,0,0-.55-.122h-.016c-.113-.011-.221-.016-.32-.016a2.793,2.793,0,0,0-.923.173,4.967,4.967,0,0,1-1.665.277,5.123,5.123,0,0,1-1.636-.306,2.8,2.8,0,0,0-.973-.188c-.089,0-.184,0-.284.012l-.031,0a1.905,1.905,0,0,0-.432.076,2.388,2.388,0,0,0-1.185.86Z" transform="translate(-4.178 -9.387)" fill="#70678f"/><path d="M402.254,148.109c-.094,0-.187,0-.28-.009l-.023,0a6.092,6.092,0,0,1-2.3-.649,1.3,1.3,0,0,1-.191-.119l-1.115-.837a1.3,1.3,0,0,1,1.562-2.079l1.018.765a3.5,3.5,0,0,0,1.215.326,1.989,1.989,0,0,0,.231,0l.079,0H405a3.063,3.063,0,0,0,.5-.041h.008a3.4,3.4,0,0,0,1.145-.4l.615-.487a1.3,1.3,0,1,1,1.615,2.038l-.687.545a1.3,1.3,0,0,1-.141.1,5.993,5.993,0,0,1-2.133.775,5.661,5.661,0,0,1-.958.075h-2.474Q402.373,148.109,402.254,148.109Z" transform="translate(-4.393 -10.194)" fill="#70678f"/><path d="M403.433,130.507a6.009,6.009,0,0,1-3.082-.851q-.04-.024-.079-.051c-.3-.212-.555-.38-.758-.515-.749-.5-1.34-.893-1.461-1.813a1.3,1.3,0,0,1,2.51-.617c.1.073.254.174.393.266.2.136.457.3.765.519a3.41,3.41,0,0,0,3.427,0c.312-.216.567-.385.774-.522.165-.11.334-.222.437-.3a1.3,1.3,0,0,1,2.475.77c-.191.842-.73,1.2-1.475,1.693-.205.136-.46.305-.768.519q-.037.026-.075.049A6.009,6.009,0,0,1,403.433,130.507Z" transform="translate(-4.412 -8.53)" fill="#70678f"/><path d="M388.686,115.474a9.5,9.5,0,0,1-1.827-.177l-.05-.011a9.149,9.149,0,0,1-3.87-1.985,2.111,2.111,0,0,0-2.479-.015,1.3,1.3,0,0,1-1.524-2.106,4.7,4.7,0,0,1,5.616.08q.034.026.066.054a6.538,6.538,0,0,0,2.767,1.436,6.918,6.918,0,0,0,2.188.067,17.364,17.364,0,0,0,3.224-.779l.072-.023,2.019-.569a1.3,1.3,0,1,1,.706,2.5l-1.983.559a19.969,19.969,0,0,1-3.681.884l-.015,0A9.565,9.565,0,0,1,388.686,115.474Z" transform="translate(-2.63 -7.122)" fill="#70678f"/><path d="M384.375,116.958a1.3,1.3,0,0,1-1.15-1.9,4.434,4.434,0,0,1,3.55-2.366,1.3,1.3,0,1,1,.229,2.59,1.845,1.845,0,0,0-1.477.984A1.3,1.3,0,0,1,384.375,116.958Z" transform="translate(-3.055 -7.339)" fill="#70678f"/><path d="M417.093,115.456a9.583,9.583,0,0,1-1.058-.059l-.037,0a19.932,19.932,0,0,1-3.737-.9l-1.973-.559a1.3,1.3,0,1,1,.709-2.5l2.01.569.073.023a17.326,17.326,0,0,0,3.262.79,6.9,6.9,0,0,0,2.2-.112,6.566,6.566,0,0,0,2.782-1.435l.049-.041a4.564,4.564,0,0,1,5.64-.025,1.3,1.3,0,0,1-1.594,2.054A1.969,1.969,0,0,0,423,113.25a9.176,9.176,0,0,1-3.877,1.986l-.024.006A9.477,9.477,0,0,1,417.093,115.456Z" transform="translate(-5.437 -7.118)" fill="#70678f"/><path d="M422.91,116.968a1.3,1.3,0,0,1-1.152-.7,1.841,1.841,0,0,0-1.476-.984,1.3,1.3,0,1,1,.227-2.59,4.43,4.43,0,0,1,3.551,2.366,1.3,1.3,0,0,1-1.15,1.9Z" transform="translate(-6.322 -7.34)" fill="#70678f"/><path d="M369.513,135.451l-2.221-3.283L365.919,129l-.67-2.068v-7.648c.159-1.868.912-4.379.327-5.762a4.192,4.192,0,0,0-2.093-2.19c-.453-.2-2.036-.258-2.036.11l-1.7,15.629a81.123,81.123,0,0,0,.59,10.493,8.371,8.371,0,0,0,1.985,4.647,238.831,238.831,0,0,0,16.406,21.113H393.9a8.687,8.687,0,0,0,1.39-5.96c-.427-2.763-.589-4.736-4.529-8.428,0,0-4.727-5.142-6.327-6.943,0,0-.31-.365-.694-.837s-1.03-1.173-1.675-1.868a29.189,29.189,0,0,0-5.452-5.268,4.313,4.313,0,0,0-5.653.267l4.424,9.413c.837,1.865-.734-.766.1,1.1" transform="translate(-0.82 -7.084)" fill="#25847b"/><path d="M428.845,144.8c.837-1.865-.733.766.1-1.1l4.423-9.413a4.313,4.313,0,0,0-5.653-.267,29.184,29.184,0,0,0-5.451,5.268c-.645.695-1.29,1.394-1.675,1.868s-.695.837-.695.837c-1.6,1.8-6.326,6.943-6.326,6.943-3.941,3.693-4.1,5.665-4.529,8.428a8.681,8.681,0,0,0,1.389,5.96h15.173a238.653,238.653,0,0,0,16.406-21.113A8.372,8.372,0,0,0,444,137.562a81.286,81.286,0,0,0,.589-10.493l-1.7-15.629c0-.368-1.584-.31-2.037-.11a4.192,4.192,0,0,0-2.093,2.19c-.585,1.383.168,3.895.327,5.762v7.648l-.67,2.068-1.373,3.171-2.22,3.283" transform="translate(-5.285 -7.084)" fill="#25847b"/><g transform="translate(423.325 79.002)"><path d="M444.118,89.78a18.148,18.148,0,0,0-12.211-4.858" transform="translate(-430.691 -83.705)" fill="#fff"/><path d="M445.209,89.552a1.217,1.217,0,0,1-1.84,1.15c-2.149-1.295-8.421-4.661-11.592-4.686a1.216,1.216,0,0,1,.019-2.432c4.484.035,12.49,4.83,12.829,5.034A1.22,1.22,0,0,1,445.209,89.552Z" transform="translate(-430.57 -83.584)" fill="#fff"/></g><path d="M414.432,67.778a1.338,1.338,0,0,1-.319-2.637c8.134-2,10.142-4.791,10.159-4.818a1.338,1.338,0,1,1,2.285,1.391c-.229.375-2.5,3.734-11.8,6.024A1.341,1.341,0,0,1,414.432,67.778Z" transform="translate(-5.781 -2.535)" fill="#fff"/><path d="M358.034,98.992a1.338,1.338,0,0,1-1.187-1.952,26.221,26.221,0,0,1,7.6-8.476,19.855,19.855,0,0,1,5.961-2.87,1.338,1.338,0,0,1,.73,2.574c-7.812,2.214-11.876,9.923-11.916,10A1.338,1.338,0,0,1,358.034,98.992Z" transform="translate(-0.666 -4.89)" fill="#fff"/><path d="M392.585,69.6a1.341,1.341,0,0,1-.31-.037,17.267,17.267,0,0,1-8.653-4.865,18.416,18.416,0,0,1-3.252-4.736c-.054-.108-.12-.24-.15-.294a1.338,1.338,0,0,1,2.175-1.557,4.252,4.252,0,0,1,.369.657,14.62,14.62,0,0,0,10.129,8.192,1.338,1.338,0,0,1-.308,2.639Z" transform="translate(-2.778 -2.345)" fill="#fff"/><path d="M384.891,73.012a1.348,1.348,0,0,1-.183-.012c-1.04-.142-8.465-1.55-8.78-1.61a1.338,1.338,0,1,1,.5-2.628c2.131.4,7.837,1.477,8.644,1.587a1.338,1.338,0,0,1-.18,2.663Z" transform="translate(-2.311 -3.357)" fill="#fff"/></g></svg>