<svg xmlns="http://www.w3.org/2000/svg" xmlns:xlink="http://www.w3.org/1999/xlink" width="105.834" height="98.72" viewBox="0 0 105.834 98.72"><defs><linearGradient id="a" x1="1.863" y1="-0.776" x2="-0.548" y2="1.437" gradientUnits="objectBoundingBox"><stop offset="0" stop-color="#69c373"/><stop offset="1" stop-color="#205026"/></linearGradient><linearGradient id="b" x1="2.234" y1="-0.942" x2="-2.351" y2="2.871" xlink:href="#a"/><linearGradient id="c" x1="7.149" y1="-18.857" x2="-10.888" y2="33.653" xlink:href="#a"/><linearGradient id="d" x1="10.729" y1="-11.318" x2="-4.652" y2="6.453" xlink:href="#a"/><linearGradient id="e" x1="2.141" y1="-18.292" x2="-2.444" y2="34.218" xlink:href="#a"/><linearGradient id="f" x1="2.039" y1="-32.998" x2="-0.373" y2="19.512" xlink:href="#a"/><linearGradient id="g" x1="1.594" y1="-0.829" x2="-0.726" y2="1.802" xlink:href="#a"/><linearGradient id="h" x1="1.934" y1="-22.315" x2="-1.367" y2="30.194" xlink:href="#a"/><linearGradient id="i" x1="2.018" y1="-23.655" x2="-1.282" y2="28.854" xlink:href="#a"/><linearGradient id="j" x1="3.672" y1="-26.524" x2="-2.491" y2="25.986" xlink:href="#a"/><linearGradient id="k" x1="2.215" y1="-1.14" x2="-1.51" y2="3.351" xlink:href="#a"/><linearGradient id="l" x1="4.025" y1="-1.655" x2="-3.354" y2="2.836" xlink:href="#a"/><linearGradient id="m" x1="19.188" y1="-14.856" x2="-14.808" y2="13.078" xlink:href="#a"/><linearGradient id="n" x1="15.917" y1="-12.168" x2="-18.079" y2="15.765" xlink:href="#a"/><linearGradient id="o" x1="1.869" y1="-3.146" x2="-0.98" y2="5.195" xlink:href="#a"/><linearGradient id="p" x1="26.068" y1="-28.521" x2="-20.193" y2="23.989" xlink:href="#a"/><linearGradient id="q" x1="21.495" y1="-23.269" x2="-24.8" y2="29.143" xlink:href="#a"/><linearGradient id="r" x1="1.568" y1="-2.213" x2="-1.28" y2="3.96" xlink:href="#a"/><linearGradient id="s" x1="21.501" y1="-23.28" x2="-24.817" y2="29.164" xlink:href="#a"/><linearGradient id="t" x1="26.068" y1="-28.485" x2="-20.193" y2="23.959" xlink:href="#a"/></defs><g transform="translate(883.01 -23.148)"><g transform="translate(-857.243 59.885)"><path d="M-837.388,141.372a6.326,6.326,0,0,1-6.172-6.484V80.722a1.329,1.329,0,0,1,1.306-1.333,1.284,1.284,0,0,1,1.307,1.28v54.243a3.715,3.715,0,0,0,3.6,3.847h37.8A3.668,3.668,0,0,0-797,137.6a3.668,3.668,0,0,0,1-2.645V118.314a1.306,1.306,0,0,1,1.307-1.306,1.307,1.307,0,0,1,1.306,1.306v16.6a6.237,6.237,0,0,1-1.714,4.476,6.279,6.279,0,0,1-4.405,1.982Z" transform="translate(843.563 -79.389)" fill="url(#a)"/></g><g transform="translate(-833.457 36.199)"><path d="M-782.06,79.107a1.306,1.306,0,0,1-1.306-1.306V49.589a3.7,3.7,0,0,0-1.011-2.7,3.666,3.666,0,0,0-2.583-1.153h-18.883a1.307,1.307,0,0,1-1.306-1.306,1.306,1.306,0,0,1,1.306-1.306h18.917A6.279,6.279,0,0,1-782.48,45.1a6.264,6.264,0,0,1,1.726,4.516V77.8A1.306,1.306,0,0,1-782.06,79.107Z" transform="translate(807.15 -43.128)" fill="url(#b)"/></g><g transform="translate(-833.461 41.863)"><path d="M-801.752,54.411h-4.1a1.307,1.307,0,0,1-1.306-1.306,1.307,1.307,0,0,1,1.306-1.306h4.1a1.306,1.306,0,0,1,1.306,1.306A1.306,1.306,0,0,1-801.752,54.411Z" transform="translate(807.155 -51.798)" fill="url(#c)"/></g><g transform="translate(-836.088 109.809)"><path d="M-807.244,163.537a3.9,3.9,0,0,1-3.934-3.86,3.9,3.9,0,0,1,3.934-3.86,3.9,3.9,0,0,1,3.934,3.86A3.9,3.9,0,0,1-807.244,163.537Zm0-5.107a1.287,1.287,0,0,0-1.321,1.248,1.287,1.287,0,0,0,1.321,1.247,1.288,1.288,0,0,0,1.321-1.247A1.288,1.288,0,0,0-807.244,158.43Z" transform="translate(811.178 -155.817)" fill="url(#d)"/></g><g transform="translate(-833.461 47.92)"><path d="M-782.068,63.685h-23.781a1.307,1.307,0,0,1-1.306-1.306,1.307,1.307,0,0,1,1.306-1.306h23.781a1.307,1.307,0,0,1,1.306,1.306A1.307,1.307,0,0,1-782.068,63.685Z" transform="translate(807.155 -61.072)" fill="url(#e)"/></g><g transform="translate(-857.241 105.754)"><path d="M-794.693,152.222h-47.562a1.306,1.306,0,0,1-1.307-1.306,1.306,1.306,0,0,1,1.307-1.306h47.562a1.307,1.307,0,0,1,1.306,1.306A1.306,1.306,0,0,1-794.693,152.222Z" transform="translate(843.561 -149.609)" fill="url(#f)"/></g><g transform="translate(-883.01 23.148)"><path d="M-842.543,75.307a1.307,1.307,0,0,1-1.011-.478l-10.079-12.3h-23.975a5.408,5.408,0,0,1-5.4-5.4V28.557a5.412,5.412,0,0,1,5.4-5.409h41.355a5.411,5.411,0,0,1,5.409,5.4V57.115a5.411,5.411,0,0,1-5.409,5.4h-4.984V74a1.307,1.307,0,0,1-.867,1.231A1.313,1.313,0,0,1-842.543,75.307Zm-35.065-49.546a2.8,2.8,0,0,0-2.789,2.8V57.122a2.793,2.793,0,0,0,2.789,2.79h24.594A1.306,1.306,0,0,1-852,60.39l8.153,9.954V61.211a1.306,1.306,0,0,1,1.306-1.306h6.29a2.8,2.8,0,0,0,2.8-2.789V28.55a2.8,2.8,0,0,0-2.8-2.789Z" transform="translate(883.01 -23.148)" fill="url(#g)"/></g><g transform="translate(-875.131 34.386)"><path d="M-835.589,42.965h-34.053a1.307,1.307,0,0,1-1.306-1.306,1.307,1.307,0,0,1,1.306-1.306h34.053a1.306,1.306,0,0,1,1.306,1.306A1.306,1.306,0,0,1-835.589,42.965Z" transform="translate(870.948 -40.352)" fill="url(#h)"/></g><g transform="translate(-875.131 40.611)"><path d="M-835.589,52.495h-34.053a1.307,1.307,0,0,1-1.306-1.306,1.307,1.307,0,0,1,1.306-1.306h34.053a1.306,1.306,0,0,1,1.306,1.306A1.306,1.306,0,0,1-835.589,52.495Z" transform="translate(870.948 -49.882)" fill="url(#i)"/></g><g transform="translate(-875.131 46.427)"><path d="M-852.619,61.4h-17.023a1.307,1.307,0,0,1-1.306-1.306,1.307,1.307,0,0,1,1.306-1.306h17.023a1.307,1.307,0,0,1,1.306,1.306A1.306,1.306,0,0,1-852.619,61.4Z" transform="translate(870.948 -58.785)" fill="url(#j)"/></g><g transform="translate(-809.674 69.565)"><path d="M-742.025,124.759h-27.409a1.307,1.307,0,0,1-1.306-1.306v-.262a1.307,1.307,0,0,1,1.306-1.306H-742.8c.034,0,.068,0,.1,0l-11.557-11.6a1.307,1.307,0,0,1,0-1.844L-742.7,96.823c-.034,0-.067,0-.1,0a1.307,1.307,0,0,1-1.306-1.306,1.307,1.307,0,0,1,1.306-1.306h.777a3.786,3.786,0,0,1,3.782,3.782v22.987A3.787,3.787,0,0,1-742.025,124.759Zm-9.464-15.4,10.633,10.676V98.675Z" transform="translate(770.74 -94.208)" fill="url(#k)"/></g><g transform="translate(-821.569 69.565)"><path d="M-775.749,124.759h-9.426a3.784,3.784,0,0,1-3.776-3.783V97.99a3.783,3.783,0,0,1,3.776-3.782h.784a1.306,1.306,0,0,1,1.306,1.306,1.306,1.306,0,0,1-1.306,1.306c-.033,0-.067,0-.1,0l11.563,11.6a1.306,1.306,0,0,1,.381.939,1.308,1.308,0,0,1-.4.929l-.007.007-11.527,11.58c.032,0,.064,0,.1,0h8.642a1.307,1.307,0,0,1,1.306,1.306v.262A1.307,1.307,0,0,1-775.749,124.759Zm-10.589-26.086v21.365L-775.7,109.35Z" transform="translate(788.95 -94.208)" fill="url(#l)"/></g><g transform="translate(-821.569 93.99)"><path d="M-786.7,136.511a1.3,1.3,0,0,1-.924-.382,4.588,4.588,0,0,1-1.33-3.223,1.306,1.306,0,0,1,1.306-1.306,1.307,1.307,0,0,1,1.306,1.306,1.954,1.954,0,0,0,.564,1.374,1.307,1.307,0,0,1,0,1.848A1.3,1.3,0,0,1-786.7,136.511Z" transform="translate(788.95 -131.599)" fill="url(#m)"/></g><g transform="translate(-821.569 70.519)"><path d="M-787.644,100.58a1.306,1.306,0,0,1-1.306-1.306,4.591,4.591,0,0,1,1.329-3.223,1.308,1.308,0,0,1,1.848,0,1.307,1.307,0,0,1,0,1.848,1.956,1.956,0,0,0-.565,1.376A1.307,1.307,0,0,1-787.644,100.58Z" transform="translate(788.95 -95.668)" fill="url(#n)"/></g><g transform="translate(-820.608 83.407)"><path d="M-748.607,131.846h-35.274A4.5,4.5,0,0,1-787.1,130.5a1.306,1.306,0,0,1,0-1.84l12.823-12.882a1.309,1.309,0,0,1,.926-.384h0a1.305,1.305,0,0,1,.926.385l4.808,4.827a1.962,1.962,0,0,0,2.758,0l4.8-4.822a1.3,1.3,0,0,1,.926-.385h0a1.306,1.306,0,0,1,.926.385l12.829,12.881a1.306,1.306,0,0,1,0,1.84A4.566,4.566,0,0,1-748.607,131.846Zm-35.37-2.615c.032,0,.064,0,.1,0h35.274c.034,0,.068,0,.1,0l-10.63-10.674-3.875,3.9a4.583,4.583,0,0,1-6.453.005l-3.887-3.9Z" transform="translate(787.48 -115.398)" fill="url(#o)"/></g><g transform="translate(-820.615 96.288)"><path d="M-786.177,137.731h-.007a1.306,1.306,0,0,1-1.306-1.306,1.306,1.306,0,0,1,1.306-1.306,1.31,1.31,0,0,1,1.31,1.306A1.3,1.3,0,0,1-786.177,137.731Z" transform="translate(787.49 -135.118)" fill="url(#p)"/></g><g transform="translate(-807.792 83.401)"><path d="M-766.552,118.006a1.3,1.3,0,0,1-.919-.381l-.007-.007a1.306,1.306,0,0,1,0-1.847,1.3,1.3,0,0,1,1.847,0,1.31,1.31,0,0,1,0,1.851A1.307,1.307,0,0,1-766.552,118.006Z" transform="translate(767.86 -115.389)" fill="url(#q)"/></g><g transform="translate(-820.615 69.565)"><path d="M-766.246,116.436a4.555,4.555,0,0,1-3.222-1.326l-4.812-4.831a1.314,1.314,0,0,1-.1-.116L-787.109,97.39a1.307,1.307,0,0,1,0-1.847,4.59,4.59,0,0,1,3.223-1.336h35.274a4.566,4.566,0,0,1,3.227,1.341,1.306,1.306,0,0,1,0,1.841l-17.63,17.715A4.565,4.565,0,0,1-766.246,116.436Zm-6.073-7.891,4.7,4.718a1.962,1.962,0,0,0,2.758,0l16.354-16.434c-.034,0-.067,0-.1,0h-35.274c-.033,0-.067,0-.1,0l11.563,11.6A1.433,1.433,0,0,1-772.319,108.544Z" transform="translate(787.49 -94.208)" fill="url(#r)"/></g><g transform="translate(-807.773 83.398)"><path d="M-766.524,118a1.3,1.3,0,0,1-.5-.1,1.321,1.321,0,0,1-.425-.287,1.278,1.278,0,0,1-.379-.921,1.122,1.122,0,0,1,.026-.255,1.079,1.079,0,0,1,.072-.248,1.476,1.476,0,0,1,.118-.223,1.577,1.577,0,0,1,.163-.2,1.178,1.178,0,0,1,.2-.157,1.108,1.108,0,0,1,.229-.123,1.133,1.133,0,0,1,.242-.072,1.147,1.147,0,0,1,.516,0,1.13,1.13,0,0,1,.242.072.92.92,0,0,1,.222.123,1.237,1.237,0,0,1,.2.157,2.47,2.47,0,0,1,.163.2,1.477,1.477,0,0,1,.118.223,1.575,1.575,0,0,1,.078.248,1.693,1.693,0,0,1,.026.255,1.3,1.3,0,0,1-.385.921A1.3,1.3,0,0,1-766.524,118Z" transform="translate(767.83 -115.385)" fill="url(#s)"/></g><g transform="translate(-820.615 96.288)"><path d="M-786.184,137.734a1.3,1.3,0,0,1-1.306-1.3,1.312,1.312,0,0,1,1.306-1.313,1.31,1.31,0,0,1,1.31,1.306,1.307,1.307,0,0,1-.788,1.2A1.311,1.311,0,0,1-786.184,137.734Z" transform="translate(787.49 -135.118)" fill="url(#t)"/></g></g></svg>