<svg xmlns="http://www.w3.org/2000/svg" width="481.458" height="457.265" viewBox="0 0 481.458 457.265"><g transform="translate(-7478.871 3303.755)"><g transform="translate(7612.7 -2994.403)"><path d="M487.443,703.278c-2.875,0-5.22-.035-7.171-.106-5-.177-8.479-.535-11.275-.822a60.458,60.458,0,0,0-6.243-.439,32.775,32.775,0,0,0-5.953.574,1.5,1.5,0,0,1-1.525-.665,11.822,11.822,0,0,1-1.466-3,4.119,4.119,0,0,1-.156-1.8,2.643,2.643,0,0,1,1.164-1.832c1.069-.714,1.229-3.757.333-6.382a2.979,2.979,0,0,1,.324-2.821c1.037-1.45,3.426-2.068,7.99-2.068,2.806,0,6.439.234,11.107.716,2.363.244,4.624.487,6.81.723,8.979.967,16.733,1.8,23.866,1.8,1.837,0,3.552-.053,5.242-.163,2.913-.188,5.839-.413,8.668-.63,5.279-.4,9.839-.755,12.748-.755a11.723,11.723,0,0,1,2.915.25c1,.28,2.236,1.137,2.4,3.631a20.356,20.356,0,0,1-.282,3.942,15.581,15.581,0,0,0-.18,1.646,7.734,7.734,0,0,0,.3,1.4c.4,1.5.941,3.555.089,5.441a1.5,1.5,0,0,1-1.367.882c-1.016,0-2.281,0-3.864-.14-.774-.067-2.136-.1-4.046-.1-4.036,0-10.185.15-16.7.308C503.345,703.062,494.475,703.278,487.443,703.278Zm-24.689-4.367a62.571,62.571,0,0,1,6.55.454c2.752.283,6.177.635,11.077.808,1.889.069,4.264.1,7.063.1,7,0,15.846-.216,23.656-.406,6.529-.159,12.7-.309,16.769-.309,2.025,0,3.434.037,4.307.112.907.08,1.712.11,2.422.121a9.512,9.512,0,0,0-.44-2.549,8.79,8.79,0,0,1-.395-2.173,16.488,16.488,0,0,1,.208-2.053,21.908,21.908,0,0,0,.274-2.919,2.5,2.5,0,0,0-.232-1.354,9.289,9.289,0,0,0-2.106-.139c-2.794,0-7.3.346-12.519.746-2.838.218-5.772.443-8.7.632-1.755.114-3.533.169-5.435.169-7.294,0-15.123-.843-24.187-1.819-2.183-.235-4.441-.478-6.8-.721-4.565-.471-8.1-.7-10.8-.7-4.305,0-5.321.617-5.513.778a.95.95,0,0,0,.038.142,13.931,13.931,0,0,1,.724,5.139,5.879,5.879,0,0,1-2.1,4.617,4.853,4.853,0,0,0,.685,1.769A34.747,34.747,0,0,1,462.753,698.911Z" transform="translate(-375.68 -677.708)" fill="#fff"/><path d="M456.935,716.416a62.572,62.572,0,0,1,6.55.454c2.752.283,6.177.634,11.077.808,1.889.069,4.264.1,7.063.1,6.995,0,15.845-.216,23.653-.406,6.528-.159,12.7-.309,16.768-.309h0c2.026,0,3.435.037,4.309.112,1.455.128,2.646.128,3.6.128h.017c1.423.016,2.9.032,3.949.977,1.072.96,1.337,2.518,1.4,4.562.1,3.216.056,5.369.018,7.1-.025,1.109-.046,2.068-.022,3.043a14.774,14.774,0,0,1-.472,5.172,1.5,1.5,0,0,1-1.611,1.016,100.125,100.125,0,0,0-11.38-.493c-3.836,0-6.935.106-6.966.107H444.384a1.5,1.5,0,0,1-1.418-1.989c.61-1.77,1.512-5.127.7-7.715l0-.007c-.73-2.373-1.518-5.837.056-8.506a7.187,7.187,0,0,1,5.014-3.207l.007,0c.519-.106,1.129-.229,1.717-.331A36.136,36.136,0,0,1,456.935,716.416Zm24.69,4.367c-2.875,0-5.221-.035-7.171-.106-5-.177-8.479-.535-11.275-.822a60.443,60.443,0,0,0-6.243-.439,32.78,32.78,0,0,0-5.953.574h-.007c-.548.1-1.129.212-1.626.314a4.306,4.306,0,0,0-3.044,1.794c-.729,1.236-.655,3.231.226,6.1a14.319,14.319,0,0,1-.134,7.6h68.421c.315-.01,3.343-.108,7.043-.108,4.284,0,7.769.124,10.391.368a19.843,19.843,0,0,0,.074-2.971s0-.007,0-.011c-.026-1.049,0-2.042.022-3.192.038-1.693.085-3.8-.017-6.934-.065-1.97-.329-2.355-.408-2.426a5.854,5.854,0,0,0-1.972-.211c-1.015,0-2.277,0-3.856-.14-.774-.067-2.136-.1-4.048-.1h0c-4.036,0-10.185.15-16.7.308C497.526,720.567,488.656,720.783,481.625,720.783Z" transform="translate(-369.861 -695.212)" fill="#fff"/><path d="M434.963,758.176h0a101.342,101.342,0,0,1,11.752.516c2.357.292,3.7.679,4.467,1.295.975.766,1.56,2.417,1.956,5.517a80.3,80.3,0,0,1,.506,8.119c.114,5.365-.076,10.561-.093,11.008V842.49a1.5,1.5,0,0,1-1.5,1.5H283.023a1.5,1.5,0,0,1-1.5-1.5V783.939c-.006-.326-.106-5.69-.047-11.14.036-3.3.122-5.993.257-8,.242-3.6.595-4.6,1.161-5.152.549-.544,1.458-.98,7.339-1.234,3.629-.157,8.1-.189,11.205-.189a1.5,1.5,0,0,1,.42.06H427.919C428.235,758.273,431.262,758.176,434.963,758.176Zm14.337,4.147a8.378,8.378,0,0,0-2.954-.654,100.069,100.069,0,0,0-11.381-.493h0c-3.838,0-6.936.106-6.967.107H301.677a2.033,2.033,0,0,1-.486-.06c-11.735.006-15.145.436-16.111.646-.185.815-.54,3.43-.611,11.581-.046,5.327.052,10.393.053,10.443,0,.01,0,.02,0,.03V840.99h166.03V784.6q0-.03,0-.059c0-.051.2-5.141.1-10.5-.059-3.122-.205-5.719-.436-7.717C449.857,763.207,449.383,762.437,449.3,762.323Z" transform="translate(-282.957 -717.704)" fill="#fff"/><path d="M331.2,761.34h-7.95a2.021,2.021,0,0,1-.942-.234,1.5,1.5,0,0,1,.7-2.826c4.51,0,8.178.059,8.215.06a1.5,1.5,0,0,1-.025,3Z" transform="translate(-304.53 -717.76)" fill="#fff"/><path d="M631.44,937.66h8.305a1.5,1.5,0,0,1,1.5,1.5v7.71a3.1,3.1,0,0,1-.9,2.184,3.06,3.06,0,0,1-2.174.9h-5.149a3.078,3.078,0,0,1-3.078-3.087V939.16A1.5,1.5,0,0,1,631.44,937.66Zm6.805,3H632.94v6.21a.081.081,0,0,0,.023.06.078.078,0,0,0,.055.023h5.148a.08.08,0,0,0,.056-.023.077.077,0,0,0,.022-.055Z" transform="translate(-470.649 -814.374)" fill="#fff"/><path d="M283.12,937.66h8.314a1.5,1.5,0,0,1,1.5,1.5v7.71a3.1,3.1,0,0,1-.9,2.181,3.057,3.057,0,0,1-2.176.9h-5.149a3.065,3.065,0,0,1-2.181-.9,3.1,3.1,0,0,1-.906-2.183v-7.71A1.5,1.5,0,0,1,283.12,937.66Zm6.814,3H284.62v6.21a.083.083,0,0,0,.082.083h5.149a.08.08,0,0,0,.059-.023.079.079,0,0,0,.023-.056Z" transform="translate(-283.045 -814.374)" fill="#fff"/><path d="M450.6,835.143a.674.674,0,0,1-.674.674H287.208a.678.678,0,1,1,0-1.356H449.921a.674.674,0,0,1,.674.683Z" transform="translate(-284.881 -757.983)" fill="#fff"/><path d="M460.1,860.757H421.9a3.128,3.128,0,1,0,0,6.252h38.2a3.128,3.128,0,0,0,0-6.252Zm0,4.9H421.9a1.776,1.776,0,1,1,0-3.548h38.2a1.776,1.776,0,0,1,0,3.548Z" transform="translate(-356.04 -772.145)" fill="#fff"/><path d="M460.1,772.117H421.9a3.128,3.128,0,1,0,0,6.252h38.2a3.128,3.128,0,0,0,0-6.252Zm0,4.9H421.9a1.776,1.776,0,0,1,0-3.553h38.2a1.776,1.776,0,1,1,0,3.553Z" transform="translate(-356.041 -724.404)" fill="#fff"/><path d="M483.346,706.28c-9.27,0-20.906-3.262-21.021-3.294a.678.678,0,1,1,.369-1.3c.115.032,11.572,3.23,20.648,3.23h.461a102.157,102.157,0,0,0,14.387-1.523c4.559-.7,9.27-1.421,14.765-1.744a114.33,114.33,0,0,1,22,1.006.675.675,0,0,1-.212,1.333A112.86,112.86,0,0,0,513.028,703c-5.435.323-10.114,1.038-14.64,1.735a103.443,103.443,0,0,1-14.576,1.536Z" transform="translate(-379.271 -686.371)" fill="#fff"/><path d="M533.345,735.94c.369.923.706,1.758.221,2.468-.623.923-2.192,1.1-7.572,1.1-1.495,0-3.276,0-5.4-.032h-1.624c-6.709-.051-15.3-.669-23.61-1.269-10.012-.72-19.476-1.384-25.248-1.1a125.926,125.926,0,0,1-18.027-.226.683.683,0,0,1-.6-.748.674.674,0,0,1,.747-.6,124.93,124.93,0,0,0,17.806.222c5.855-.319,15.36.374,25.423,1.1,8.282.6,16.85,1.209,23.531,1.26h1.62c7.156.055,11.48.092,11.849-.461a3.5,3.5,0,0,0-.36-1.2,3.608,3.608,0,0,1,.415-3.539c.378-.646.378-.646-.143-.969-1.209-.7-12.919-.392-23.236-.125-7.719.208-15.688.415-21.6.328-14.585-.221-35.717,0-35.929,0h0a.678.678,0,0,1,0-1.356c.217,0,21.358-.221,35.962,0,5.869.088,13.842-.115,21.543-.318,15.688-.411,22.669-.5,23.993.328,1.643,1.02.983,2.136.591,2.8A2.283,2.283,0,0,0,533.345,735.94Z" transform="translate(-373.427 -701.811)" fill="#fff"/><path d="M333.265,677.39h6.372a2.017,2.017,0,0,1,1.436.595,2.043,2.043,0,0,1,.595,1.443v7.356a1.5,1.5,0,0,1-1.5,1.5H332.73a1.5,1.5,0,0,1-1.5-1.5v-7.359s0-.008,0-.013a2.049,2.049,0,0,1,2.022-2.023Zm5.4,3H334.23v4.895h4.438Z" transform="translate(-309.765 -674.193)" fill="#fff"/><path d="M322.845,694.49h15.938a2.109,2.109,0,0,1,2.084,2.083s0,.008,0,.012v28.289a2.1,2.1,0,0,1-2.1,2.109H322.84a2.019,2.019,0,0,1-.892-.209,2.083,2.083,0,0,1-1.2-1.9V696.585A2.1,2.1,0,0,1,322.845,694.49Zm15.023,3H323.75v26.493h14.118Z" transform="translate(-304.12 -683.403)" fill="#fff"/><path d="M0-1.5H2.45A1.5,1.5,0,0,1,3.95,0V2.238a1.5,1.5,0,0,1-1.5,1.5H0a1.5,1.5,0,0,1-1.5-1.5V0A1.5,1.5,0,0,1,0-1.5Z" transform="translate(25.461 2.459)" fill="#fff"/><path d="M317.151,667.21h0l11.886,0a1.5,1.5,0,0,1,1.5,1.5v2.436a1.5,1.5,0,0,1-1.5,1.5H317.151a1.964,1.964,0,0,1-1.961-1.961v-1.518A1.964,1.964,0,0,1,317.151,667.21Z" transform="translate(-301.126 -668.71)" fill="#fff"/><path d="M0-1.5H9.366a1.5,1.5,0,0,1,1.5,1.5V6.252a1.5,1.5,0,0,1-1.5,1.5H0a1.5,1.5,0,0,1-1.5-1.5V0A1.5,1.5,0,0,1,0-1.5Zm7.866,3H1.5V4.752H7.866Z" transform="translate(21.936 18.557)" fill="#fff"/><path d="M382.586,668.84h5.67a2.4,2.4,0,0,1,2.382,2.383s0,.005,0,.008v3.059a1.5,1.5,0,0,1-1.5,1.5H381.7a1.5,1.5,0,0,1-1.5-1.5v-3.059a2.4,2.4,0,0,1,2.378-2.391Zm5.052,3H383.2v.95h4.438Z" transform="translate(-336.14 -669.588)" fill="#fff"/><path d="M373.411,677.38h7.5a7.724,7.724,0,0,1,7.4,7.444l1.13,31.374a1.5,1.5,0,0,1-1.5,1.554H366.31a1.5,1.5,0,0,1-1.5-1.554l1.139-31.372a7.706,7.706,0,0,1,7.4-7.446Zm7.405,3h-7.374a4.723,4.723,0,0,0-4.493,4.547v.005l-1.083,29.821H386.39l-1.074-29.821A4.746,4.746,0,0,0,380.816,680.38ZM377.125,697.5c4.5,0,8.033,2.459,8.033,5.6s-3.527,5.593-8.029,5.593h0c-4.507,0-8.038-2.457-8.038-5.593a5.033,5.033,0,0,1,2.618-4.161A10.3,10.3,0,0,1,377.125,697.5Zm0,8.19c2.878,0,5.029-1.369,5.029-2.593s-2.153-2.6-5.033-2.6a7.389,7.389,0,0,0-3.824.976,2.169,2.169,0,0,0-1.214,1.621c0,1.224,2.155,2.593,5.038,2.593Z" transform="translate(-327.851 -674.187)" fill="#fff"/><path d="M6.533-1.5c4.5,0,8.033,2.459,8.033,5.6s-3.529,5.6-8.033,5.6S-1.5,7.236-1.5,4.1,2.029-1.5,6.533-1.5Zm0,8.194c2.881,0,5.033-1.371,5.033-2.6S9.414,1.5,6.533,1.5,1.5,2.871,1.5,4.1,3.653,6.694,6.533,6.694Z" transform="translate(42.745 24.809)" fill="#fff"/><path d="M6.533-1.5c4.5,0,8.033,2.459,8.033,5.6s-3.529,5.6-8.033,5.6S-1.5,7.236-1.5,4.1,2.029-1.5,6.533-1.5Zm0,8.194c2.881,0,5.033-1.371,5.033-2.6S9.414,1.5,6.533,1.5,1.5,2.871,1.5,4.1,3.653,6.694,6.533,6.694Z" transform="translate(42.745 24.809)" fill="#fff"/></g><g transform="translate(7486.311 -3077.603)"><path d="M161.823,510.935h-30.66a1.5,1.5,0,0,1-.971-.357,5.112,5.112,0,0,1-1.511-2.2c-.957-2.613-.208-5.8.813-7.914a8.151,8.151,0,0,1,1.8-2.531,4.638,4.638,0,0,1,3.189-1.271,5.164,5.164,0,0,1,.991.1A5.447,5.447,0,0,1,138,498l.059-.086a34.319,34.319,0,0,1,5.621-6.779c1.125-.994,5.126-4.241,9.344-4.241a6.671,6.671,0,0,1,5.138,2.292,8.062,8.062,0,0,1,1.836,5.1,14.3,14.3,0,0,1-.4,3.839,3.38,3.38,0,0,1,1.5,1.568,3.5,3.5,0,0,1,.359,1.572,4.464,4.464,0,0,0,.926.231,3.467,3.467,0,0,1,3.211,2.649c.552,2.079-.437,4.358-2.787,6.417A1.5,1.5,0,0,1,161.823,510.935Zm-30.022-3h29.432c.691-.683,1.751-1.945,1.466-3.02a.737.737,0,0,0-.116-.283,2.973,2.973,0,0,0-.726-.182,6.7,6.7,0,0,1-1.7-.482,2.974,2.974,0,0,1-1.416-1.189,2.528,2.528,0,0,1-.28-1.366.714.714,0,0,0-.061-.418l-.016-.033a.37.37,0,0,0-.3-.213l-.067-.009a1.847,1.847,0,0,0-.274-.02h-.025a1.5,1.5,0,0,1-1.419-1.987c.813-2.368,1.2-5.77-.387-7.562a3.654,3.654,0,0,0-2.891-1.279c-2.517,0-5.537,1.88-7.358,3.49a31.878,31.878,0,0,0-5.132,6.226,3.848,3.848,0,0,1-2.389,1.939,1.5,1.5,0,0,1-1.615-.693,2.448,2.448,0,0,0-1.63-1.144,2.168,2.168,0,0,0-.415-.043c-.312,0-1.263,0-2.291,2.111-.775,1.6-1.291,3.955-.693,5.579l.008.024A2.109,2.109,0,0,0,131.8,507.935Z" transform="translate(-70.572 -488.391)" fill="#fff"/><path d="M128.44,532.5h35.7a1.5,1.5,0,0,1,1.5,1.5v9.283a7.959,7.959,0,0,1-7.96,7.959H134.9a7.969,7.969,0,0,1-7.96-7.959V534A1.5,1.5,0,0,1,128.44,532.5Zm34.2,3h-32.7v7.783a4.965,4.965,0,0,0,4.96,4.959h22.779a4.959,4.959,0,0,0,4.96-4.959Z" transform="translate(-69.87 -512.956)" fill="#fff"/><path d="M149.052,521.624a.573.573,0,0,1-.245-.055.563.563,0,0,1-.263-.752l2.907-6a.56.56,0,0,1,1.01.484l-2.9,6A.563.563,0,0,1,149.052,521.624Z" transform="translate(-80.668 -502.454)" fill="#fff"/><path d="M164.881,510.6a.567.567,0,0,1-.461-.867l4.688-7.272a.558.558,0,0,1,.923.609l-4.683,7.272A.558.558,0,0,1,164.881,510.6Z" transform="translate(-89.202 -495.867)" fill="#fff"/><path d="M177.045,511.522a.544.544,0,0,1-.254-.065.558.558,0,0,1-.245-.757l1.5-2.93a.554.554,0,0,1,.752-.245.567.567,0,0,1,.249.757l-1.5,2.93a.572.572,0,0,1-.5.309Z" transform="translate(-95.746 -498.664)" fill="#fff"/><path d="M0-1.5H111.345a1.5,1.5,0,0,1,1.5,1.5V9.671a1.5,1.5,0,0,1-1.5,1.5H0a1.5,1.5,0,0,1-1.5-1.5V0A1.5,1.5,0,0,1,0-1.5Zm109.845,3H1.5V8.171H109.845Z" transform="translate(0 36.801)" fill="#fff"/><path d="M12.1,587.61H113.664a1.5,1.5,0,0,1,1.5,1.5v41.337a1.5,1.5,0,0,1-3,0A1.168,1.168,0,0,0,111,629.28h-3.479a1.162,1.162,0,0,0-1.162,1.164v1.848a1.5,1.5,0,0,1-1.5,1.5H20.908a1.5,1.5,0,0,1-1.5-1.5v-1.846a1.162,1.162,0,0,0-1.16-1.167H14.767a1.173,1.173,0,0,0-1.167,1.169,1.5,1.5,0,0,1-1.5,1.5h0a1.5,1.5,0,0,1-1.5-1.5V589.11A1.5,1.5,0,0,1,12.1,587.61Zm100.064,3H13.6v35.838a4.151,4.151,0,0,1,1.164-.168H18.25a4.162,4.162,0,0,1,4.158,4.169v.343h80.947v-.346a4.163,4.163,0,0,1,4.162-4.167H111a4.155,4.155,0,0,1,1.167.166Zm-49.828,2.708h.007a4.956,4.956,0,0,1,.006,9.912h-.007a4.956,4.956,0,0,1-.006-9.912Z" transform="translate(-7.209 -542.638)" fill="#fff"/><path d="M116.941,600.04h.009a4.956,4.956,0,1,1-.009,0Zm0,6.9a1.951,1.951,0,0,0,0-3.9h0a1.951,1.951,0,0,0,0,3.9Z" transform="translate(-61.817 -549.333)" fill="#fff"/><path d="M215.792,671.42h3.479a4.172,4.172,0,0,1,4.167,4.167v126.1a4.162,4.162,0,0,1-4.163,4.162h-3.483a4.167,4.167,0,0,1-4.162-4.162v-126.1a4.162,4.162,0,0,1,4.162-4.167Zm3.479,131.43a1.158,1.158,0,0,0,.826-.34,1.17,1.17,0,0,0,.341-.822v-126.1a1.168,1.168,0,0,0-1.167-1.167h-3.479a1.162,1.162,0,0,0-1.162,1.164v126.1a1.164,1.164,0,0,0,1.162,1.162Z" transform="translate(-115.484 -587.778)" fill="#fff"/><path d="M14.764,671.42h3.486a4.162,4.162,0,0,1,4.158,4.169v126.1a4.158,4.158,0,0,1-4.158,4.162H14.767a4.173,4.173,0,0,1-4.167-4.16v-126.1A4.18,4.18,0,0,1,14.764,671.42ZM18.25,802.85a1.15,1.15,0,0,0,.819-.34,1.165,1.165,0,0,0,.338-.82v-126.1a1.162,1.162,0,0,0-1.16-1.167H14.77a1.174,1.174,0,0,0-1.17,1.169v126.1a1.168,1.168,0,0,0,1.167,1.162Z" transform="translate(-7.209 -587.778)" fill="#fff"/><path d="M0-1.5H83.947a1.5,1.5,0,0,1,1.5,1.5V112.407a1.5,1.5,0,0,1-1.5,1.5H0a1.5,1.5,0,0,1-1.5-1.5V0A1.5,1.5,0,0,1,0-1.5Zm82.447,3H1.5V110.907H82.447Z" transform="translate(13.699 89.641)" fill="#fff"/><rect width="83.947" height="1.121" transform="translate(13.699 145.295)" fill="#fff"/><rect width="83.947" height="1.126" transform="translate(13.699 194.194)" fill="#fff"/><path d="M116.941,609.922a4.951,4.951,0,1,1,4.951-4.953A4.957,4.957,0,0,1,116.941,609.922Zm0-6.9a1.951,1.951,0,1,0,1.953,1.951A1.953,1.953,0,0,0,116.939,603.02Z" transform="translate(-61.817 -549.322)" fill="#fff"/><path d="M3.451-1.5A4.951,4.951,0,1,1-1.5,3.451,4.957,4.957,0,0,1,3.451-1.5Zm0,6.9A1.951,1.951,0,1,0,1.5,3.451,1.953,1.953,0,0,0,3.451,5.4Z" transform="translate(51.672 94.813)" fill="#fff"/><path d="M3.451-1.5A4.951,4.951,0,1,1-1.5,3.451,4.957,4.957,0,0,1,3.451-1.5Zm0,6.9A1.951,1.951,0,1,0,1.5,3.451,1.953,1.953,0,0,0,3.451,5.4Z" transform="translate(51.672 150.407)" fill="#fff"/><path d="M0-1.5H18.179a1.5,1.5,0,0,1,1.5,1.5V22.872a1.5,1.5,0,0,1-1.5,1.5H0a1.5,1.5,0,0,1-1.5-1.5V0A1.5,1.5,0,0,1,0-1.5Zm16.679,3H1.5V21.372H16.679Z" transform="translate(8.111 13.929)" fill="#fff"/><path d="M37.958,495.85h.008a3.011,3.011,0,0,1,2.612,1.532,4.644,4.644,0,0,1,.116,4.307l0,.005a8.679,8.679,0,0,1-1.582,1.944,9.986,9.986,0,0,0-.736.788,3.811,3.811,0,0,1-2.809,1.519,2.58,2.58,0,0,1-2.353-1.553c-.517-1.047-.35-2.35.5-3.873.176-.316.353-.619.525-.912.34-.582.662-1.133.944-1.727A3.015,3.015,0,0,1,37.958,495.85Zm.1,4.411a1.852,1.852,0,0,0-.044-1.335,1.731,1.731,0,0,0-.108.206l-.011.023c-.339.715-.71,1.351-1.069,1.965-.164.28-.333.57-.494.858a4.936,4.936,0,0,0-.252.516,13.066,13.066,0,0,1,.909-.976A6.3,6.3,0,0,0,38.056,500.261Z" transform="translate(-19.23 -493.216)" fill="#fff"/><path d="M0-1.5H11.272a1.5,1.5,0,0,1,1.5,1.5V7.087a1.5,1.5,0,0,1-1.5,1.5H0a1.5,1.5,0,0,1-1.5-1.5V0A1.5,1.5,0,0,1,0-1.5Zm9.772,3H1.5V5.587H9.772Z" transform="translate(29.941 29.714)" fill="#fff"/><path d="M78.1,535.026h0a2.05,2.05,0,0,1,1.453.6,1.5,1.5,0,0,1,.122.137,3.949,3.949,0,0,1,.444,3.5,1.5,1.5,0,0,1-.055.176,4.92,4.92,0,0,1-.967,1.575,10.239,10.239,0,0,1-.651,1.008,1.5,1.5,0,0,1-.149.174,2.227,2.227,0,0,1-1.6.7,2.3,2.3,0,0,1-1.693-.8,4.037,4.037,0,0,1-1-2.8v-.011a4.043,4.043,0,0,1,1.4-2.7A12.931,12.931,0,0,1,77,535.349q.037-.024.075-.046A2.065,2.065,0,0,1,78.1,535.026Z" transform="translate(-41.357 -514.317)" fill="#fff"/></g><g transform="translate(7501.306 -3302.255)"><path d="M0-1.5H392.724a1.5,1.5,0,0,1,1.5,1.5V190.342a1.5,1.5,0,0,1-1.5,1.5H0a1.5,1.5,0,0,1-1.5-1.5V0A1.5,1.5,0,0,1,0-1.5Zm391.224,3H1.5V188.842H391.224Z" fill="#fff"/><path d="M0-1.5H374.785a1.5,1.5,0,0,1,1.5,1.5V177.644a1.5,1.5,0,0,1-1.5,1.5H0a1.5,1.5,0,0,1-1.5-1.5V0A1.5,1.5,0,0,1,0-1.5Zm373.285,3H1.5V176.144H373.285Z" transform="translate(8.97 6.349)" fill="#fff"/><path d="M0,93.55a1.493,1.493,0,0,1-.764-.21,1.5,1.5,0,0,1-.525-2.055L53.3-.765a1.5,1.5,0,0,1,2.055-.525A1.5,1.5,0,0,1,55.879.765L1.29,92.815A1.5,1.5,0,0,1,0,93.55Z" transform="translate(281.268 31.74)" fill="#fff"/><path d="M0,25.83a1.493,1.493,0,0,1-.779-.219,1.5,1.5,0,0,1-.5-2.061L13.534-.78a1.5,1.5,0,0,1,2.061-.5A1.5,1.5,0,0,1,16.1.78L1.281,25.11A1.5,1.5,0,0,1,0,25.83Z" transform="translate(325.276 76.39)" fill="#fff"/></g><g transform="translate(7767.422 -3206.195)"><path d="M1154.139,436.078q-4.554-69.805-9.1-139.625c-.212-3.378-.877-7.419-3.978-8.767-2.145-.923-4.72-.1-6.46,1.435-5.075,4.453-5.634,11.351-6.653,17.584q-1.786,11-2.542,22.147a236.924,236.924,0,0,0,1.177,44.484c3.576,29.553,12.707,58.2,16.8,87.7a130.826,130.826,0,0,0,2.446,14.553c.461,1.823,1.767,4.056,3.566,3.534a1.509,1.509,0,0,0,.346-.148,4.021,4.021,0,0,0,1.629-2.385c2.768-7.844,3.525-16.149,3.493-24.533C1154.827,446.709,1154.481,441.366,1154.139,436.078Z" transform="translate(-1085.971 -251.492)" fill="#70678f"/><path d="M1213.859,222.172c-.461-4.222-1.476-9.463-5.537-11.789-7.11-4.074-11.073,11.009-11.895,15.577-1.467,7.987.766,16.177,1.384,24.131,1.066,13.487-2.413,26.951-2.2,40.479.2,12-.743,28.856,0,40.82.4,6.344,4.254,8.01,7.553,13.441a.085.085,0,0,0,.023.046c.923,1.532,3,3,4.309,1.776a3.23,3.23,0,0,0,.775-1.624c2.2-8.365,2.856-17.072,3.433-25.682q2-29.631,2.925-59.313c.088-2.722.166-5.458.222-8.19A221.055,221.055,0,0,0,1213.859,222.172Z" transform="translate(-1123.917 -209.693)" fill="#70678f"/><path d="M1348.589,393.788a6.426,6.426,0,0,0-4.933-4.369,8.287,8.287,0,0,0-4.277.923c-9.32,4.254-13,13.275-16.375,22.286a292.932,292.932,0,0,0-9.532,32.1c-5.431,21.875-9.976,44.294-19.951,64.656-2.335,4.776-5,9.542-5.8,14.8-.424,2.8.189,6.243,2.1,8.024a4.319,4.319,0,0,0,2.367,1.154c4.019.591,6.51-4.153,7.766-8.019a595.012,595.012,0,0,1,33.092-81.147c6.921-13.939,14.534-28.072,16.043-43.556.037-.369.069-.748.092-1.112a14.053,14.053,0,0,0-.59-5.74Z" transform="translate(-1173.615 -306.473)" fill="#70678f"/><path d="M1090.138,541.551a51.426,51.426,0,0,0-3.83-14.922c-2.981-7.318-7.023-14.16-10.211-21.381-6.386-14.5-9.256-30.263-12.352-45.808-1.933-9.731-4.189-19.863-10.524-27.518a12.816,12.816,0,0,0-5.537-4.254c-11.074-3.756-6.289,14.788-4.836,19.808,2.768,9.51,7.512,18.267,11.466,27.287,11.023,25.082,15.711,52.937,29.765,76.44.618,1.047,1.43,2.178,2.644,2.27,1.384.1,2.307-1.19,2.768-2.6h0a7.458,7.458,0,0,0,.291-1.112A32.126,32.126,0,0,0,1090.138,541.551Z" transform="translate(-1040.568 -326.826)" fill="#70678f"/><path d="M1291.979,276.733a9.909,9.909,0,0,0-3.691-5.708c-3.188-2.146-7.687-1.144-10.663,1.278-6,4.932-7.954,13.275-9.888,20.385-2.4,8.8-4.411,17.686-6.289,26.609-3.691,17.575-6.81,35.27-11.042,52.724-3.022,12.458-6.621,24.773-10.211,37.083a207.364,207.364,0,0,0-6.068,24.454c-.332,2.067-.586,4.254.212,6.187a4.785,4.785,0,0,0,3.313,2.824,3.17,3.17,0,0,0,1.689-.148,5.616,5.616,0,0,0,1.776-1.255c9.689-8.974,14.3-22.018,18.285-34.605q7.243-22.95,13.14-46.283c5.136-20.343,9.477-40.917,16.2-60.79,1.887-5.588,3.977-11.457,3.977-17.233A20.05,20.05,0,0,0,1291.979,276.733Z" transform="translate(-1144.648 -242.092)" fill="#70678f"/><path d="M1250.957,721.7a.558.558,0,0,1-.558-.545c0-.161-.277-16.444,8.1-41.277s27.684-67.826,27.873-68.26a.558.558,0,0,1,1.015.461c-.194.434-19.508,43.441-27.836,68.158-8.305,24.63-8.038,40.737-8.038,40.894a.558.558,0,0,1-.54.572Z" transform="translate(-1153.582 -426.008)" fill="#547672"/><path d="M1235,610.127a.559.559,0,0,1-.549-.461c0-.125-2.178-12.606-1.869-41.383.323-30.452,1.781-50.823,8.255-64.859,6.561-14.225,25.331-93.9,25.52-94.7a.555.555,0,1,1,1.08.254c-.189.807-18.982,80.588-25.589,94.915-6.391,13.842-7.844,34.107-8.158,64.4-.3,28.653,1.846,41.065,1.846,41.18a.549.549,0,0,1-.462.641Z" transform="translate(-1143.972 -316.659)" fill="#547672"/><path d="M1160.377,744.16a.563.563,0,0,1-.554-.493c0-.157-1.938-16.1-9.943-37.028s-22.775-57.989-22.927-58.386a.556.556,0,0,1,1.034-.411c.148.374,14.894,37.374,22.927,58.386s9.989,37.138,10.012,37.3a.558.558,0,0,1-.489.614Z" transform="translate(-1087.074 -445.492)" fill="#547672"/><path d="M1178.4,614.092a.558.558,0,0,1-.535-.4c-.134-.461-13.727-47.658-14.442-64.753-.71-17.012-11.184-121.307-11.29-122.359a.554.554,0,1,1,1.1-.111c.106,1.052,10.612,105.38,11.3,122.424.706,16.961,14.262,64.019,14.4,64.495a.548.548,0,0,1-.535.706Z" transform="translate(-1100.657 -326.179)" fill="#547672"/><path d="M1214.079,569.725a.558.558,0,0,1-.554-.489c-.042-.392-4.462-39.178-5.924-63.175s4.5-157.85,4.554-159.183a.526.526,0,0,1,.582-.531.554.554,0,0,1,.531.581c-.06,1.347-6.021,135.131-4.559,159.087s5.874,62.7,5.925,63.092a.563.563,0,0,1-.489.618Z" transform="translate(-1130.407 -283.293)" fill="#547672"/><path d="M1221.72,817.456l-.055,1.592-.046,1.107-.1,2.515-.069,1.73c-.055,1.384-.11,2.769-.157,4.153,0,.388-.032.78-.042,1.168l-.069,1.767c0,.364-.032.743-.042,1.107q-.318,8.365-.623,16.735c0,.374-.032.752-.046,1.13l-.568,15.3c0,.411-.032.807-.055,1.218-.064,1.869-.129,3.747-.207,5.611a10.991,10.991,0,0,1-.047,1.237c-.046,1.31-.088,2.63-.143,3.94-.056,1.5-.979,2.667-2.091,2.667h-40.142c-1.121,0-2.03-1.167-2.1-2.667a9.66,9.66,0,0,0-.042-1.1c-.041-.364-.023-.655-.032-.987-.06-1.633-.125-3.267-.18-4.9,0-.332-.032-.678-.046-1.011-.032-1.08-.074-2.145-.12-3.23,0-.378,0-.771-.032-1.144q-.369-9.565-.724-19.134c0-.374,0-.743-.032-1.121-.143-3.82-.291-7.655-.434-11.475l-.055-1.223-.046-1.1-.042-1.144-.125-3.488-.041-1.034-.314-8.245c-.055-1.61.923-2.953,2.1-2.953h44.682C1220.83,814.5,1221.784,815.846,1221.72,817.456Z" transform="translate(-1111.818 -535.43)" fill="#cbd4e6"/><path d="M1221.653,841.472c0,.388-.032.78-.042,1.167-2.39-.157-4.78-.235-7.235-.332-2.367-.092-4.73-.323-7.087-.591-2.145-.235-4.277-.5-6.409-.711-1.043-.111-2.076-.2-3.123-.267-5.3-.346-10.432-1.144-15.72-1.154-.632,0-1.278,0-1.92.032-.461,0-3.377.055-6.556,0l-.042-1.034c2.542,0,5.075-.079,7.641-.134h.646c5.731,0,11.263.886,17,1.218.632.037,1.264.079,1.9.134,2.224.189,4.425.461,6.635.724,2.967.341,5.934.664,8.91.711C1218.068,841.278,1219.882,841.357,1221.653,841.472Z" transform="translate(-1112.176 -548.34)" fill="#fff"/><path d="M1221.736,849.878c0,.365-.032.743-.042,1.108-3.156-.2-6.289-.461-9.491-.388-4.208.125-8.264.189-12.485,0a56.431,56.431,0,0,0-6.487.18,59.876,59.876,0,0,1-6.432-.166c-1.209-.046-2.413-.046-3.613-.069-1.107,0-2.21-.032-3.308-.12-1.989-.157-3.968-.5-5.957-.678l-.042-1.144c3.041.175,6.077.461,9.117.7,1.269.079,2.533.157,3.8.2a58.626,58.626,0,0,0,6.432.166,55.28,55.28,0,0,1,6.487-.18c4.222.189,8.277.134,12.485,0C1215.415,849.389,1218.571,849.675,1221.736,849.878Z" transform="translate(-1112.37 -553.807)" fill="#fff"/><path d="M1208.969,882.37a60.482,60.482,0,0,1-8.633.166c-1.753,0-3.5.088-5.255.134s-3.511.434-5.255.388a45.9,45.9,0,0,1-9.1-.812,28.277,28.277,0,0,0-5.564-.245c0-.374,0-.743-.032-1.121a40.5,40.5,0,0,1,5.3.032c1.989.323,3.58.969,5.68.923,1.509-.023,3.031.12,4.531.032,3.23-.189,6.46-.462,9.69-.462a58.394,58.394,0,0,0,8.333-.12C1209.37,881.194,1209.675,882.273,1208.969,882.37Z" transform="translate(-1113.043 -571.147)" fill="#fff"/><path d="M1254.271,890c0,.374-.032.752-.046,1.13-2.533.268-5.075.4-7.608.766a92.655,92.655,0,0,1-10.543.711.554.554,0,0,1,0-1.107,92.7,92.7,0,0,0,11.231-.826C1249.606,890.327,1251.95,890.24,1254.271,890Z" transform="translate(-1145.569 -576.105)" fill="#fff"/><path d="M1259.808,823.86l-.046,1.107c-2.1,0-4.254-.245-6.321-.374a59.312,59.312,0,0,0-7.585.129l-1.647.1c-.71.046-.71-1.066,0-1.112.614-.032,1.2-.078,1.79-.1a55.417,55.417,0,0,1,7.443-.134C1255.517,823.615,1257.667,823.846,1259.808,823.86Z" transform="translate(-1149.961 -540.243)" fill="#fff"/><path d="M1221.972,923.107c0,.411-.032.807-.055,1.218-1.73.134-3.5.314-5.311.392a30.672,30.672,0,0,1-7.95-1.01c-2.718-.586-5.311-.461-8.024-.789-1.846-.235-3.654-.757-5.537-.858a26.919,26.919,0,0,0-5.4.461c-2.768.411-5.509.988-8.305,1.154-.891.055-2.768.258-4.665.226,0-.378,0-.77-.032-1.144,5.154.074,13.141-1.384,14.3-1.546a19.166,19.166,0,0,1,6-.088c1.578.244,3.119.7,4.72.807,1.167.069,2.335-.1,3.488,0,2.566.235,5.02,1.167,7.567,1.523a34.54,34.54,0,0,0,8.222-.254C1221.331,923.162,1221.654,923.126,1221.972,923.107Z" transform="translate(-1113.883 -592.764)" fill="#fff"/><path d="M1222.193,940.45a11.075,11.075,0,0,1-.046,1.236,28,28,0,0,1-7,2.769c-2.03.433-4.079-.125-6.077-.462-2.612-.411-5.366-.923-8-1.135s-5.3-.12-7.955-.346c-2.478-.2-4.859-.743-7.313-.041a63.1,63.1,0,0,1-7.221,1.919c-.3.046-.632.078-.964.1,0-.332-.023-.655-.032-.987a48.66,48.66,0,0,0,7.276-1.9c3.987-1.223,7.885-.046,11.95.1,5.191.189,10.151,1.034,15.3,1.652C1215.826,943.864,1219.005,942.088,1222.193,940.45Z" transform="translate(-1114.367 -603.278)" fill="#fff"/><path d="M1190.72,932.607a47.871,47.871,0,0,0-8.185.844,31.584,31.584,0,0,1-5.389.369c0-.332-.032-.678-.046-1.01a13.547,13.547,0,0,0,2.122.042c1.435-.111,2.8-.489,4.213-.72a45.388,45.388,0,0,1,7.286-.632.554.554,0,1,1,0,1.107Z" transform="translate(-1114.104 -598.457)" fill="#fff"/></g><path d="M752.506,890.405c4.72,3.4-4.153,19.992-12.366,28.469s-29.068,8.015-33.221,7.322-3.428-6.792,1.384-13.311c13.842-8.088,17.312-19.005,17.312-19.005S747.786,887,752.506,890.405Z" transform="translate(6937.811 -3782.008)" fill="#f1b6b6" fill-rule="evenodd"/><path d="M724.328,919.471c9.874-2.519,17.021-15.854,21.686-20.445,7.35-7.216-4.859-18.682,6.192-10.709,4.72,3.4-4.153,19.993-12.365,28.468s-29.068,8.015-33.221,7.322-3.982-4.909.84-11.429C708.894,911.858,719.423,920.74,724.328,919.471Z" transform="translate(6938.103 -3779.934)" fill="#414141" fill-rule="evenodd"/><path d="M922.24,935.66s4.194,7.571,6.072,9.306,4.319,5.675,2.191,7.382c-6.686,8.541-25.889,8.679-30.489,6.921-4.8-1.813,4.346-22.581,4.346-22.581Z" transform="translate(6833.098 -3806.892)" fill="#f1b6b6" fill-rule="evenodd"/><path d="M924.126,962.524s3.128-7.318,5.537-3.755c1.287,1.892,2.542,2.971.341,6.04-5.251,7.313-26.014,8.919-30.24,6.4-2.935-1.74-.863-7.253-.863-7.253Z" transform="translate(6833.33 -3818.812)" fill="#414141" fill-rule="evenodd"/><path d="M733.287,924.777c-3.4-2.358-22.756-2.852-24.976-.4s-4.766,5.592-3.931,6.949c1.873,3.922,16.8,3.23,22.355,1.592s21.977-24.256,21.977-24.256S735.165,923.978,733.287,924.777Z" transform="translate(6937.803 -3792.35)" fill="#606060" fill-rule="evenodd"/><path d="M929.322,956.5c-2.944-2.127-20.223.757-23.462,2.169s-6.349,3.115-6.663,5.038c-.369,2.215-.563,5.384,13.953,3.6,17.7-2.178,17.616-8.725,17.616-8.725A11.21,11.21,0,0,0,929.322,956.5Z" transform="translate(6832.845 -3817.707)" fill="#606060" fill-rule="evenodd"/><path d="M834.278,418.43c21.621,20.131,16.214,52.6,16.417,58.257.263,7.382,3.184,90.287,4.365,112,1.167,21.367-2.653,59.659-8.241,66.9-6.782,8.794-43.063,4.107-45.157-2.1,3.793-10.225,8.854-73.824,8.767-112.517,0-9.856-1.26-60.748-1.26-60.748-.775.544,4.808.715,4.111,1.357.175,5.357-7.161,32.985-8.185,36.451-1.532,5.223-4.522,37.946-6.958,48.641-4.508,19.8-9.92,49.831-13.662,74.567-25.806,17.367-45.351,3.825-45.932,2.367s.923-14.576,5.9-31.431c5.126-17.39,11.143-89.512,24.265-126.936s11.406-59.013,11.406-59.013S830.107,413.511,834.278,418.43Z" transform="translate(6919.38 -3527.703)" fill="#606060" fill-rule="evenodd"/><path d="M900.134,908.35c12,.254,30.047-14.631,25.811-8.734-22.147,18.539-48.235,6.658-48.235,6.658C880.529,907.086,890.763,908.152,900.134,908.35Z" transform="translate(6844.361 -3786.734)" fill="#414141" fill-rule="evenodd"/><path d="M768.457,879.463c-7.844,3.691-24.824-.581-25.779.863-.314.461,1.384,1.112,6.921,2.063,21,3.617,35.256-11.138,35.256-11.138S778.755,874.641,768.457,879.463Z" transform="translate(6917.108 -3772.201)" fill="#414141" fill-rule="evenodd"/><path d="M908.93,542.339s-7.216,3.982-9.731,3.728-.318,1.7,2.99.3,4.462-.8,6.894-3.373S908.93,542.339,908.93,542.339Z" transform="translate(6833.373 -3594.681)" fill="#f1b6b6" fill-rule="evenodd"/><path d="M901.879,554.48s-5.371,3.654-7.322,7.1,1.846-.7,3.811-2.7S902.936,555.306,901.879,554.48Z" transform="translate(6835.579 -3601.589)" fill="#f1b6b6" fill-rule="evenodd"/><path d="M420,627.84H832.562A18.862,18.862,0,0,1,813.7,646.7H438.848A18.862,18.862,0,0,1,420,627.84Z" transform="translate(7090.882 -3641.101)" fill="#414141"/><path d="M537.507,457.012c3.174,3.516,9.786,6.653,9.786,6.653l5.214,1.846a127.408,127.408,0,0,0,20.809,6.04c6.289,1.126,12.227-3.811,12.227-3.811s8.531,5.537,10.322,11.249c2.1,6.7,3.479,6.058,3.23,7.059-.923-.438,16.407,10.732,11.637,10.612-16.855,0-20.325-.84-30.729-7.092a6.8,6.8,0,0,0-3.17-5.075c-4.743-1.97-9.906-2.768-15.8-3.562-.415,3.2.766,13.722-16.55,14.386-10.968-.66-21.284.309-21.921-1.384l-3.917-3.465s1.13-15.42,4.586-24.916c.494-1.356,8.356-2.925,10.123-2.7-6.46-2.265-4.669-6.386-3.862-6.967C530.955,454.7,533.594,454.733,537.507,457.012Z" transform="translate(7037.756 -3548.07)" fill="#ecc298" fill-rule="evenodd"/><path d="M598.383,496.624s9.1,3.317,13.865,8.379c-9.1-3.539-8.854-2.819-12.993-2.021-5.389,1.49-1.144,5.948-5.638,5.338A23.336,23.336,0,0,0,591,499.66a23.94,23.94,0,0,0-3.913-4.582c-1.684-1.412-4.01-2.007-3.834-2.27.5-.757,8.767,2.266,10.308,2.662C595.536,495.988,598.383,496.624,598.383,496.624Z" transform="translate(7002.962 -3568.308)" fill="#c37e57" fill-rule="evenodd" opacity="0.5"/><path d="M543.483,454.205l5.228,6.575,1.3,1.638h.023c9.5,7.129,8.264,18.576,8.264,18.576l-.171.877c-1.01,3.774,0,11.074-24.085,12.13s-21.686-11.577-21.686-11.577S528.6,449.909,529.06,449.48,543.483,454.205,543.483,454.205Z" transform="translate(7041.178 -3545.023)" fill="#ecc298" fill-rule="evenodd"/><path d="M590.07,472.53l1.846,2.307A5.6,5.6,0,0,1,590.07,472.53Z" transform="translate(6999.283 -3557.451)" fill="#c37e57" fill-rule="evenodd"/><path d="M481.975,469.922s17.681-5.426,22.715-24.588l7.595-5.029s2.505,1.255.669,3.23c0,0,4.277,1.477,6.081,3.391l15.194,5.255s3.53-19.619-7.747-27.9-29.71-.341-39.6,4.96-14.765,9.994-21.87,12.841-11.789,6.6-9.8,16.989,6,15.226,14.3,14.719c0,0,3.447,9.689,13.381,10.963s15.909.2,22.193-6.39C505.1,478.366,483.036,480.193,481.975,469.922Z" transform="translate(7072.164 -3529.535)" fill="#75432a" fill-rule="evenodd"/><path d="M547.01,424.288c11.286,8.273,7.751,27.892,7.751,27.892L539.6,446.925c-1.8-1.91-6.081-3.387-6.081-3.387,1.846-1.984-.674-3.23-.674-3.23l-7.586,5.025c-5.034,19.162-22.71,24.583-22.71,24.583,1.057,10.275,23.13,8.448,23.13,8.448-4.25,4.452-8.347,6.4-13.621,6.787.461-.2,8.305-3.664,7.2-4.766s-14.6,1.2-17.533-6.852c0,0-.489-2.215-4.111-2.653s-4.692-1.573-4.692-1.573,13.907-1.043,21.021-10.109,7.272-14.525,10-16.477,12.425-3.843,11.327-9.588c-1.02-5.325-10.409-9.025-18.456-8.305C526.575,420.865,538.733,418.2,547.01,424.288Z" transform="translate(7051.608 -3529.534)" fill="#75432a" fill-rule="evenodd"/><path d="M553.1,518.451a6.761,6.761,0,0,1,5.537,3.557c1.633,3.414,1.763-2.713,1.177-3.364s.724,2-.877,1.689a1.269,1.269,0,0,1-.9-.692A4.7,4.7,0,0,0,553.1,518.451Z" transform="translate(7019.195 -3582.055)" fill="#c37e57"/><path d="M568.941,513.683c-.028-.286,1.555-5.477-2.81-9.348,0,0-.628-.272-1.2.789s-1.209-1.052.434-1.846,1.172-1.19,1.084.028,4.8,2.838,2.971,10.372C569.421,513.7,569.057,514.767,568.941,513.683Z" transform="translate(7013.154 -3573.61)" fill="#c37e57"/><path d="M542.658,526.538s-3.142-.461-3-5.228l1.763.051s-1.273,3.876,1.246,4.974Z" transform="translate(7026.44 -3583.724)" fill="#3c3427"/><path d="M543.239,500.35s-3.161.3-3.3,5.048l1.767.051s-1.052-3.945,1.527-4.9Z" transform="translate(7026.283 -3572.435)" fill="#3c3427"/><path d="M547.01,424.288c11.286,8.273,7.751,27.892,7.751,27.892l-13.8-4.153c-1.809-1.915-7.447-4.494-7.447-4.494,1.846-1.984-.674-3.23-.674-3.23l-7.586,5.029c-5.034,19.162-22.71,24.583-22.71,24.583,1.057,10.275,23.13,8.448,23.13,8.448-4.25,4.452-8.347,6.4-13.621,6.787.461-.2,8.305-3.664,7.2-4.766s-14.6,1.2-17.533-6.852c0,0-.489-2.215-4.111-2.653s-4.692-1.573-4.692-1.573,13.907-1.043,21.021-10.109,7.272-14.525,10-16.477,12.425-3.843,11.327-9.588c-1.02-5.325-10.409-9.025-18.456-8.305C526.575,420.865,538.733,418.2,547.01,424.288Z" transform="translate(7051.608 -3529.534)" fill="#58311d"/><path d="M678.181,506.257s294.033,7.669,293.451-.24-17.875-2.731-24.759-8.767-10.9-13.164-25.234-7.844-22.3.964-22.3.964c-34.979-16.938-53.015-11.235-61.62-10.049s-46.837-32.667-86.494-16.989c-27.472,10.852-25.7,5.975-50.5-.89-23.227-6.437-42.809,8.347-42.809,8.347L655,488.7l23.167,17.561" transform="translate(6964.313 -3550.261)" fill="#ecc298"/><rect width="349.258" height="35.888" rx="17.944" transform="translate(7611.071 -3044.244)" fill="#789592"/><rect width="133.322" height="35.888" rx="17.944" transform="translate(7478.871 -3044.244)" fill="#789592"/><path d="M499.076,544.6s1.629-5.14-25.636-8.6-52.526-13.533-64.25,8.527Z" transform="translate(7096.705 -3588.778)" fill="#f2e4e4"/><path d="M659.42,505.668s10.151-11.42,33.281-8.453,26.383,7.415,34.222,7.382,13.117,0,13.117,0l6.75,10.871s-73.972-6.986-76.459-7.41S659.42,505.668,659.42,505.668Z" transform="translate(6961.932 -3570.482)" fill="#c37e57" opacity="0.5"/><path d="M928.628,544.206c-1.144,1.573-10.036,3.3-19.688-.166s-52,2.03-61.463-.549l-.323-.083H847.1a15.431,15.431,0,0,0-6.46,0c-5.537.978-8.933,2.768-8.933-11.964,0-20.071-15.3-52.092-17.953-55.442-3.926-4.969-2.478-6.976-2.478-6.976.572-1.707,5.712-2.385,5.712-2.385,19.859-6.884,31.634-10.423,51.137-9s48.078,18.83,49.605,19.789a11.609,11.609,0,0,1,4.208,4.106c1.476,2.284,3.23,6.307-1.624,15.771S929.781,542.628,928.628,544.206Z" transform="translate(6880.283 -3549.263)" fill="#368c84"/><path d="M1230.88,549s4.886-1.97,6.46-4.849C1237.335,544.15,1237.459,549.571,1230.88,549Z" transform="translate(6654.144 -3596.026)" fill="#c37e57" opacity="0.5"/><path d="M976,473.7s4.614,10.072,4.716,15.688S984.388,478.955,976,473.7Z" transform="translate(6791.422 -3558.081)" fill="#368c84" opacity="0.5"/><path d="M995.011,493.34s.669,8.693-.461,10.9C994.55,504.257,997.927,496.759,995.011,493.34Z" transform="translate(6781.431 -3568.659)" fill="#368c84" opacity="0.5"/><path d="M822.647,482.06s-1.818,2.39.955,5.735,4.683,8.914,4.683,8.914a21.674,21.674,0,0,0-3.11-9.772C822.324,482.7,821.881,483.781,822.647,482.06Z" transform="translate(6874.333 -3562.584)" fill="#368c84" opacity="0.5"/><path d="M1006.37,557.763s-4.485-1.135-4.531-2.275-15.609,2.275-15.609,2.275Z" transform="translate(6785.913 -3602.007)" fill="#368c84" opacity="0.5"/><path d="M649.093,518.161s-.711,12.033,13.842,12.033h145.6c8.194,0,11.276-5.278,11.276-5.278s.461-3.959-13.542-.738a9.711,9.711,0,0,1-2.768-1.513c-2.907-3.4-6.8-3.59-9.431-3.867-4.125-.434-7.1,1.49-9.053,1.214-18.917-2.681-35.556-14.276-59.115-8.767-13.085,3.059-27.606-9.906-57.454-6.644,0,0-9.274,1.246-13.427,4.153S649.093,514.991,649.093,518.161Z" transform="translate(6967.497 -3574.438)" fill="#ecc298"/><path d="M805.3,525.57s2.39,5.408,1.721,9.011C807.007,534.581,810.569,528.467,805.3,525.57Z" transform="translate(6883.361 -3586.018)" fill="#c37e57"/><path d="M994.614,551.3s4.374-3.59,6.815-.84c0,0,1.338.628-.826,1.68-2.049.992-2.2,2.482-14.373,2.482Z" transform="translate(6785.913 -3598.865)" fill="#ecc298"/><path d="M1006.206,550.8s-2.768-.807-8.056,2.238C998.15,553.034,1004.693,550.8,1006.206,550.8Z" transform="translate(6779.492 -3599.553)" fill="#c37e57"/><path d="M794.221,551.453H663.677c-8.822,0-12.029-4.425-13.187-7.913,0,0,4.185,7.336,21.852,5.5,27.975-2.9,37,.877,51.585.826,18.055-.06,11.281-6.33,52.669-.687C785.6,550.406,791.033,550.9,794.221,551.453Z" transform="translate(6966.741 -3595.697)" fill="#c37e57" opacity="0.5"/><path d="M905.82,573s2.69,23.707,21.46,27.338C927.28,600.343,911.287,591.165,905.82,573Z" transform="translate(6829.221 -3611.564)" fill="#368c84" opacity="0.5"/><path d="M1015.387,597.45s-1.638,15.872,4.669,19.31C1020.056,616.76,1015.88,610.069,1015.387,597.45Z" transform="translate(6770.311 -3624.733)" fill="#368c84" opacity="0.5"/><path d="M911.478,567.968c-.351-.544,2.621,7.189,10.732,12.043C922.21,579.988,914.011,571.876,911.478,567.968Z" transform="translate(6826.188 -3608.839)" fill="#368c84" opacity="0.5"/><path d="M879.985,635.242a15.435,15.435,0,0,0-6.46,0c-2.408-4.577-1.093-7.382-1.093-7.382C873.045,631.925,879.182,634.956,879.985,635.242Z" transform="translate(6847.397 -3641.111)" fill="#368c84" opacity="0.5"/><path d="M1070.842,541.1s-1.338,5.841-3.562,7.788C1067.266,548.9,1072.609,548.076,1070.842,541.1Z" transform="translate(6742.259 -3594.383)" fill="#c37e57" opacity="0.5"/><path d="M552.66,522.67s1.527,2.385,0,4.06C552.66,526.73,556.531,524.912,552.66,522.67Z" transform="translate(7019.433 -3584.456)" fill="#3c3427"/><path d="M553.75,498.74s1.527,2.39,0,4.06C553.75,502.8,557.621,500.987,553.75,498.74Z" transform="translate(7018.845 -3571.567)" fill="#3c3427"/><rect width="13.893" height="131.721" transform="translate(7545.529 -2994.399)" fill="#414141"/><rect width="13.893" height="131.721" transform="translate(7868.432 -2994.399)" fill="#414141"/><rect width="336.795" height="4.014" transform="translate(7545.529 -2982.545)" fill="#414141"/><path d="M763.11,375.056c-.231,4.2-.383,8.038-.531,11.512-.747,17.856-1.131,26.138-8.693,25.645-9.034-.586-8.375-2.335-11.36-5.814-1.643-1.915-1.421-11.212-.886-19.194.429-6.515,1.071-12.149,1.071-12.149C744.192,368.149,763.11,375.056,763.11,375.056Z" transform="translate(6917.859 -3503.299)" fill="#edc298"/><path d="M763.569,375.052c-.231,4.2-.383,8.038-.531,11.512a31.282,31.282,0,0,0-7.29-5.375c-5.957-3.059-13.648,6-13.648,6,.429-6.515,1.07-12.149,1.07-12.149C744.651,368.145,763.569,375.052,763.569,375.052Z" transform="translate(6917.4 -3503.294)" fill="#c37e57" opacity="0.5"/><path d="M813.73,376.615a52.665,52.665,0,0,1,6.958,16.749s24.583,5.348,40.516-9.754c0,0-3.76-13.722-3.95-24.26S813.984,367.7,813.73,376.615Z" transform="translate(6878.82 -3494.816)" fill="#f1b6b6"/><path d="M789.9,252.471s-23.725-1.569-33.825,10.442-17.935,17.45-15.808,31.5c1.638,10.8,1.015,15.877,1.015,15.877s12,6.7,21.972-.2c0,0,9.3,18.968,33.262,12.347s23.6-27.767,21.414-37.59l.1,1.49s2.768,1.287,7.844-1.384,4.185-3.871,4.185-3.871a55.553,55.553,0,0,0-12.753-19.7C808.447,252.97,789.9,252.471,789.9,252.471Z" transform="translate(6918.574 -3438.892)" fill="#f8e6e6"/><path d="M784.881,358.736s-12.4-12.384-13.2-25.926C771.68,332.828,778.961,351.838,784.881,358.736Z" transform="translate(6901.468 -3482.198)" fill="#f1b6b6"/><path d="M759.38,337.86s5.694,9.205,8.693,8.568S769.014,348.86,759.38,337.86Z" transform="translate(6908.093 -3484.918)" fill="#f1b6b6"/><path d="M763.89,358.25l4.748-1.31.244.881S765.786,358.91,763.89,358.25Z" transform="translate(6905.664 -3495.194)" fill="#f1b6b6"/><path d="M751.86,371.781s4.978,3.354,15.291-3.465c0,0,.674-.231-.461.849S759.727,376.616,751.86,371.781Z" transform="translate(6912.143 -3501.31)" fill="#f1b6b6"/><path d="M906.07,309.551s7.156-1.62,9.735-4.531c0,0-.378,2.718-4.416,3.894S906.07,309.551,906.07,309.551Z" transform="translate(6829.086 -3467.23)" fill="#f1b6b6"/><path d="M901.333,296.293a17.608,17.608,0,0,0,2.044-4.323s1.384,2.888-2.187,5.472Z" transform="translate(6831.714 -3460.201)" fill="#f1b6b6"/><path d="M797.336,188.4c1.131,4.614,3.091,8.236,4.019,11.027,3.23,9.819,16.3,34.494,2.8,43.035s-27.223-19.559-27.79-32.856c-.332-8.024-2.542-17.842-4.24-24.376-1.121-4.3-2.021-7.17-2.021-7.17l-2.695-12.218s25.866-22.558,25.146-11.535C792.04,162.221,794.494,176.779,797.336,188.4Z" transform="translate(6903.769 -3384.423)" fill="#edc298"/><path d="M793,152.064c-.512,7.895,1.384,23.172,4.217,34.794-3.516,1.426-8.559-1.947-17.533-4.72-5.2-1.61-7.027,0-7.586,1.938-1.121-4.3-2.021-7.17-2.021-7.17l-2.695-12.218S793.717,141.022,793,152.064Z" transform="translate(6903.785 -3383.267)" fill="#c57c59"/><path d="M729.185,99.406s-8.342,2.7-6.109,22.4,6.584,29.271,22.54,28.381c18.382-1.024,19.753-26.7,22.429-27.177s5.352-3.35,3.751-10.123-7.382-8.767-7.115-2.044.166,7.53.166,7.53l-3.654-9.689s-.812,2.538-1.476,2.722-1.952-4.808-1.929-.535-.346,2.944-3.76-1.384-8.453-.6-17.75-5.878S729.185,99.406,729.185,99.406Z" transform="translate(6927.852 -3356.439)" fill="#edc298"/><path d="M729.36,47.011s-22.72,5.32-21.774,27.121,8.079,24.339,8.079,24.339-4-21.866,4.849-26.987A35.961,35.961,0,0,0,737.056,78.4c9.92,1.384,10.091,5.9,11.66,8.67,0,0,.254,1.384,1.024-1.62a27.143,27.143,0,0,0,.461-3.747c0-1.209.461,2.422,1.412,1.984s1.476-3.142,1.476-3.142,2.976,9.689,3.544,9.6-1.278-10.755,1.786-11.6,4.872,4.051,5.468,6.663a10.192,10.192,0,0,1-3.8,9.477,117.142,117.142,0,0,0,2.768,26.166s16.661-7.41,14.871-23.07a15.445,15.445,0,0,0-3.6-5.288c-2.528-2.376-4.314-20.454-7.558-27.846S753.4,41.174,729.36,47.011Z" transform="translate(6936.004 -3327.594)" fill="#3b3328"/><path d="M750.25,63.89a35.963,35.963,0,0,0,7.382,2.768c2.967.544,11.646,1.181,14.539,6.51s4.448,8.153,4.406,15.946c0,0,1.421-9.3-3.16-16.412s-12.135-6.27-15.582-6.921S750.25,63.89,750.25,63.89Z" transform="translate(6913.011 -3337.358)" fill="#bbb"/><path d="M735.594,64s-4.079,5.108-3.756,9.689,2.049,6.529,5.6,9.523c0,0-4.014-6.137-3.751-10.783A27.488,27.488,0,0,1,735.594,64Z" transform="translate(6922.937 -3337.417)" fill="#bbb"/><path d="M705.988,78.439s-1.763-3.267-4.268.411-.623,3.825-.623,3.825-2.768.494-2.967,2.69a2.506,2.506,0,0,0,1.818,2.7s-2.768,1.338-1.292,2.9,3.359.877,5.827-.508a1.942,1.942,0,0,0,2.053.332c1.047-.558,3.982-3.816,3.659-7.419,0,0-.161-.711-1.241-.434,0,0,1.786-1.587,1.357-2.985s-2.164-3.114-3.428-2.57S705.988,78.439,705.988,78.439Z" transform="translate(6941.091 -3344.474)" fill="#faf9e7"/><path d="M704.156,84.6a4.342,4.342,0,0,1,1.643.923,17.981,17.981,0,0,1,1.6-1.56,10.612,10.612,0,0,1,1.223-3.5,10.931,10.931,0,0,0-.8,3.562s.821-.074,1.1.974a4.381,4.381,0,0,1,2.381-.245,4.538,4.538,0,0,0-2.275.72s.461,1.721-2.159,4.273a4.718,4.718,0,0,0,.24,2.247,2.935,2.935,0,0,1-.761-1.882,1.227,1.227,0,0,1-1.347-.78c-.568-.355-1.846.5-1.846.5a2.334,2.334,0,0,1,1.633-1.057c-.175-.637-.245-1.509.826-3.082a8.549,8.549,0,0,0-1.453-1.094Z" transform="translate(6938.379 -3346.283)" fill="#e34b28"/><path d="M813.456,147.87s-3.05.042-3.322,1.846.923,2.565,1.564,2.307a3.323,3.323,0,0,0,.923-.461s-.438,2.4,1.112,2.187a1.978,1.978,0,0,0,1.993-1.846s.461,1.061,1.343.609,1.915-1.564,1.541-2.8-2.081-1.412-2.482-1.384A19.759,19.759,0,0,1,813.456,147.87Z" transform="translate(6880.778 -3382.589)" fill="#faf9e7"/><ellipse cx="1.587" cy="1.846" rx="1.587" ry="1.846" transform="translate(7693.458 -3235.703) rotate(-15.44)" fill="#e34b28"/><path d="M818.612,152.872a8.762,8.762,0,0,0-.632-1.8c-.2-.148-1.435-.12-2.27,1.615a8.644,8.644,0,0,1,1.14-2.169c.411-.291,1.573.212,1.573.212A4.639,4.639,0,0,1,818.612,152.872Z" transform="translate(6877.754 -3383.965)" fill="#e34b28"/><path d="M734.68,131.37s1.707-2.833,6.183-2.039c0,0,.978.7.821-1.052S736.041,128.233,734.68,131.37Z" transform="translate(6921.396 -3371.659)" fill="#3b3328"/><path d="M739.07,144.476s.923-2.616,4.1-1.458c0,0,.738.766.461-.955S739.744,141.542,739.07,144.476Z" transform="translate(6919.032 -3379.034)" fill="#3b3328"/><path d="M770.356,138.859s-2.15-1.763-4.268.854c0,0-.24,1.038-.923-.577S768.275,136.685,770.356,138.859Z" transform="translate(6905.021 -3377.029)" fill="#3b3328"/><path d="M767.162,123.2s-2.921-1.55-6.353,1.426c0,0-.462,1.1-1.246-.461S764.385,121.219,767.162,123.2Z" transform="translate(6908.035 -3368.775)" fill="#3b3328"/><path d="M753.508,140.5a11.208,11.208,0,0,1-1.19,7.682c-1.892,3.359,2.768,1.43,3.691-.125.462-.771-2.625,1.846-2.63.023,0-.217.392-1.509.531-2.178A10.808,10.808,0,0,0,753.508,140.5Z" transform="translate(6912.138 -3378.62)" fill="#c37e57"/><path d="M760.432,158.138a7.264,7.264,0,0,0,5.887-4.614s.568-.923-1.31-1.02c-1.384-.065.378-1.693,2.565-.249,1.952,1.287.646,1.181.12,1.066-1.3-.291-1.347,4.937-7.175,5.463C760.519,158.765,759.287,158.493,760.432,158.138Z" transform="translate(6907.789 -3384.631)" fill="#c37e57"/><path d="M820,258.847s-4.476,23.144-9.556,25.377-8.767,5.052-20.163-.083-15.618-38.352-15.618-38.352-3.917-9.689-3.9-11.752,4.5-3.8,4.5-3.8l.817,3.724,3.041,1.5c1.412.664,1.952.355,5.339,4.522l.148.18c3.521,4.356,4.822,14.548,4.822,14.548l2.432,2.353,4.789,15.074,6.81,3.373,1.417-6.8s-4.8-8.651-5.906-11.374-.65-3.654-.65-3.654-1.126-3.742-2.505-10.04,3.94-13.473,3.94-13.473L798.43,225l2.588-.2c2.7-.212,5.145,8.305,5.537,9.325a10.864,10.864,0,0,1,.272,3.23C809.2,238.31,820,258.847,820,258.847Z" transform="translate(6901.964 -3424.019)" fill="#f8e6e6"/><path d="M787.842,249.519a17.024,17.024,0,0,0-5.431-3.779,22.74,22.74,0,0,1-5.361-3.29,9.311,9.311,0,0,0,1.845.789v.028l3.627,1.73C783.916,245.661,784.455,245.352,787.842,249.519Z" transform="translate(6898.577 -3433.53)" fill="#f1b6b6"/><path d="M825.181,248.044s-1.237-7.262,1.6-10.538,3.373-9.016,3.373-9.016-1.785,5.329-3.811,7.479S823.534,242.743,825.181,248.044Z" transform="translate(6873.132 -3426.011)" fill="#f1b6b6"/><path d="M781.64,269.79l13.644,9.182,2.432,2.353.171.609S784.574,273.117,781.64,269.79Z" transform="translate(6896.104 -3448.255)" fill="#f1b6b6"/><path d="M830.26,270.1s2.552-3.553,7.692-14.834c0,0,.641-.461-.6,2.362s-4.383,11.023-7.036,14.3A2.247,2.247,0,0,1,830.26,270.1Z" transform="translate(6870.019 -3440.418)" fill="#f1b6b6"/><path d="M741.59,436.7c.212,7.258,3.055,12.458,7.692,14.608s7.249,3,8.107,7.3,10.151,5.814,11.309.683,0-1.559,0-1.559,4.614,2.875,5.182-.143-3.318-1.624-8.711-9.422-3.35-11.466-3.35-11.466Z" transform="translate(6917.675 -3538.153)" fill="#edc298"/><path d="M767.864,438.831a16.879,16.879,0,0,0-13.764-3.484s8.36-3.811,11.1-.346S768.016,436.524,767.864,438.831Z" transform="translate(6910.938 -3536.454)" fill="#c37e57" opacity="0.5"/><path d="M865.405,362.58c-1.435,6.118-14.3,14.668-35.339,23.462-9.528,3.982-15.194,7.742-20.519,9.463a33.222,33.222,0,0,1-11.535,1.693l-7.073-11.964s11.535-.258,23.961-11.733,28.146-17.856,28.146-17.856l-1.786-9.616c7.295-8.96,4.268-24.823,4.268-24.823a15.527,15.527,0,0,0,11.678-4.046,70.587,70.587,0,0,1,4.153,14.825h0C863.435,343.266,866.37,358.46,865.405,362.58Z" transform="translate(6891.095 -3473.769)" fill="#edc298"/><path d="M896.82,293.45s5.7,13.985,6.46,25.3C903.275,318.753,904.567,304.736,896.82,293.45Z" transform="translate(6834.068 -3460.999)" fill="#f1b6b6"/><path d="M920.1,331.985c-5.412-2.57-11.028,4.291-13.228,8.208-2.035,3.636-5.076,15.452-5.076,15.452L900,346.03c7.295-8.96,4.268-24.823,4.268-24.823a15.528,15.528,0,0,0,11.678-4.046A71.224,71.224,0,0,1,920.1,331.985Z" transform="translate(6832.355 -3473.769)" fill="#c37e57" opacity="0.5"/><path d="M774.681,472.069s3.562-1.481,6.192-.715,3.294.189,4.254,1.2.332-.143-2.916-.24a35.177,35.177,0,0,0-7.793.383C772.886,473.074,774.681,472.069,774.681,472.069Z" transform="translate(6900.328 -3556.699)" fill="#c37e57" opacity="0.5"/><path d="M773.914,479.16c.554,3.105,0,7.059,2.035,7.073,2.238,0,1.435-6.215,1.435-6.215a19.241,19.241,0,0,1,.189,6.787c-.351,1.606.4,2,.987,2.016,1.915.055,2.408-4.739,2.122-6.363a26.41,26.41,0,0,0-.623-2.727,8.242,8.242,0,0,1,1.338,5.075c-.162,3.41-.1,3.691.812,3.825,1.08.171,3.059-2.63,1.767-7.073l-.955-2.39A9.564,9.564,0,0,1,785,485.047c-.1,1.693.134,2.981.923,2.884.374-.046.849-.383,1.306-1.13a6.032,6.032,0,0,0,.365-3.156,17.432,17.432,0,0,0-1.1-4.476l.106.083a6.159,6.159,0,0,1,1.684,2.155c.341.706.867,1.421,1.518,1.107a2.768,2.768,0,0,0,1.449-1.721s-.434,2.339-1.952,2.469a1.417,1.417,0,0,1-1.421-1.024s1.094,3.281-.715,5.592c-.747.96-1.878.923-2.256.388a2,2,0,0,1-.341-1.218l.032-1.153s-.462,3.368-2.307,3.41c-2.344.046-1.357-3.617-1.357-3.617s-.24,3.073-1.606,3.622-2.63-.148-2.533-2.445c0,0-1.417.424-2.108-.189-.522-.461-.623-.955-.789-2.39A50.636,50.636,0,0,1,773.914,479.16Z" transform="translate(6900.304 -3561.022)" fill="#c37e57" opacity="0.5"/><path d="M748.037,467.839s-5.122.521-4.642,1.975,4.48.7,5.961.72c0,0-5.883.461-5.5,1.5s3.414,1.384,7.11.655c0,0-6.284.623-5.744,1.546s3.862,1.232,6.344.374c0,0-4.083.923-3.174,1.62s5.422-.037,8.767-1.269c0,0-5.855,2.985-9.108,1.809,0,0-.849-.752.042-1.213,0,0-2.976-.411-3.281-.96s.3-1.075.849-1.227c0,0-2.362-.406-2.459-1.084s1.384-1.306,1.384-1.306-1.813-.508-1.9-1.213S743.58,467.8,748.037,467.839Z" transform="translate(6917.088 -3554.924)" fill="#c37e57" opacity="0.5"/><path d="M796.67,466.45a21.259,21.259,0,0,0,4.208,2.39,3.82,3.82,0,0,1,2.4,3.091,4.614,4.614,0,0,0-2.469-2.169C798.963,469.034,796.988,467.281,796.67,466.45Z" transform="translate(6888.009 -3554.176)" fill="#c37e57" opacity="0.5"/><path d="M763.73,469.91c.286.125,4.683,2.515,4.683,4.106s.125,2.87.125,2.87a27.915,27.915,0,0,0-1.209-3.488C767.011,472.522,763.73,469.91,763.73,469.91Z" transform="translate(6905.75 -3556.04)" fill="#c37e57" opacity="0.5"/><path d="M905.64,403.9c-1.536,0,8.937,3.53,8.937,4.549S913.106,403.83,905.64,403.9Z" transform="translate(6829.4 -3520.486)" fill="#c37e57" opacity="0.5"/><path d="M790.9,459.17l8.111.711s-3.922,2.847-6.238,1.846S790.9,459.17,790.9,459.17Z" transform="translate(6891.134 -3550.255)" fill="#edc298"/></g></svg>