<svg xmlns="http://www.w3.org/2000/svg" width="115.431" height="123.173" viewBox="0 0 115.431 123.173"><g transform="translate(567.509 -35.067)"><path d="M-509.953,35.067l3.76,21.722,2.547.732,1.208,11.421,4.327-.405,1.389-11.262,3.025-.651,3.755-21.556" transform="translate(-5.245)" fill="#70678f"/><path d="M-544.15,109.13a44.406,44.406,0,0,1,24.873,0h4.775l18.164-7.844,2.436,9.895,3.206-1.933s2.81,8.83,2.81,8.333a72.792,72.792,0,0,1,4.049-6.411l4.4,3.693,10.684,4.787s.493,6.709.493,7.329S-473.6,141.69-473.6,141.69s6.037,12.469,23.565,6.465l.086,6.784s-29.874,16.165-69.095,2.208l-2.23-1.941s-5.489-15.68-5.21-20.482S-535.651,112.035-544.15,109.13Z" transform="translate(-2.129 -6.035)" fill="#ce809d"/><path d="M-473.045,149.519a1.8,1.8,0,0,1-.62-.107,1.847,1.847,0,0,1-1.069-2.365l8.216-22.79a3.77,3.77,0,0,0-1.689-4.562l-9.861-3.494a1.786,1.786,0,0,1-1.069-.886l-1.217-2.394-2.81,7.052a1.837,1.837,0,0,1-2.391,1.014,1.837,1.837,0,0,1-1.134-1.475l-1.058-8.83c-.545.545-1.2,1.261-1.785,1.955a1.827,1.827,0,0,1-1.858.567,1.8,1.8,0,0,1-1.335-1.41l-1.71-8.54-10,4.5a1.837,1.837,0,0,1-2.4-.993,1.837,1.837,0,0,1,.842-2.329c1.442-.642,12.116-5.5,12.116-5.5a1.827,1.827,0,0,1,2.439.853,1.821,1.821,0,0,1,.146.439l1.463,7.34a7.928,7.928,0,0,1,1.239-.982,2.839,2.839,0,0,1,3.891.989,2.848,2.848,0,0,1,.383,1.148l.416,3.206.693-1.72a1.777,1.777,0,0,1,.3-.512,3.311,3.311,0,0,1,2.81-1.143,3.2,3.2,0,0,1,2.552,1.624v.085l1.41,2.725,9.3,3.3.235.107a7.479,7.479,0,0,1,3.558,9.116l-8.291,22.8a1.827,1.827,0,0,1-1.721,1.208Z" transform="translate(-5.517 -5.804)" fill="#ce809d"/><path d="M-516.254,111.486h-.118a9.173,9.173,0,0,1-2.618-.727,30.718,30.718,0,0,0-22.821-.224,1.838,1.838,0,0,1-2.357-1.1,1.837,1.837,0,0,1,1.1-2.357,34.563,34.563,0,0,1,25.353.224c.513.192,1.133.416,1.41.492a56.82,56.82,0,0,0,7.479-3,1.84,1.84,0,0,1,2.414.977,1.841,1.841,0,0,1-.9,2.378C-514.426,111.3-515.656,111.486-516.254,111.486Z" transform="translate(-2.117 -6.342)" fill="#ce809d"/><path d="M-517.505,102.934a1.785,1.785,0,0,1-1.07-.363c-10.684-7.922-21.624-11.379-32.661-10.279a34.275,34.275,0,0,0-13.494,4.072,1.832,1.832,0,0,1-2.516-.623,1.832,1.832,0,0,1,.56-2.476,36.9,36.9,0,0,1,14.884-4.6c8.28-.865,21.145.331,35.418,10.973a1.827,1.827,0,0,1,.379,2.557l-.005.007A1.805,1.805,0,0,1-517.505,102.934Z" transform="translate(0 -4.864)" fill="#25847b"/><path d="M-454.5,156.155a16.227,16.227,0,0,1-5.416-.908,19.576,19.576,0,0,1-10.449-9.53,1.837,1.837,0,0,1,.807-2.469,1.837,1.837,0,0,1,2.469.808c.02.04.039.081.056.123h0a16.2,16.2,0,0,0,8.367,7.617c3.74,1.293,8.041.747,12.756-1.635a1.837,1.837,0,0,1,2.468.812,1.837,1.837,0,0,1-.813,2.468h0a22.889,22.889,0,0,1-10.248,2.714Z" transform="translate(-8.835 -9.841)" fill="#ce809d"/><path d="M-499.284,147.5a1.217,1.217,0,0,1-1.218-1.215v-4.658a1.229,1.229,0,0,1,1.331-1.116,1.228,1.228,0,0,1,1.116,1.116v4.658A1.229,1.229,0,0,1-499.284,147.5Z" transform="translate(-6.107 -9.609)" fill="#fff"/><path d="M-505.422,127.161a1.218,1.218,0,0,1-.866-.363l-2.6-2.6a1.236,1.236,0,0,1-.015-1.749,1.236,1.236,0,0,1,1.749-.015l2.6,2.6a1.217,1.217,0,0,1,.013,1.721l-.013.013A1.262,1.262,0,0,1-505.422,127.161Z" transform="translate(-5.309 -7.93)" fill="#fff"/><path d="M-490.54,142.03a1.209,1.209,0,0,1-.865-.354l-2.426-2.425a1.228,1.228,0,0,1,.1-1.734,1.227,1.227,0,0,1,1.639,0l2.425,2.425a1.217,1.217,0,0,1,.125,1.717,1.217,1.217,0,0,1-.991.42Z" transform="translate(-6.686 -9.308)" fill="#fff"/><path d="M-507.732,133.139h-3.682a1.228,1.228,0,0,1-1.331-1.116,1.229,1.229,0,0,1,1.116-1.331,1.215,1.215,0,0,1,.215,0h3.682a1.228,1.228,0,0,1,1.115,1.331A1.228,1.228,0,0,1-507.732,133.139Z" transform="translate(-4.99 -8.714)" fill="#fff"/><path d="M-508.023,142.2a1.229,1.229,0,0,1-1.267-1.189,1.23,1.23,0,0,1,.4-.948l2.767-2.768a1.228,1.228,0,0,1,1.734.1,1.227,1.227,0,0,1,0,1.639l-2.772,2.769a1.262,1.262,0,0,1-.865.405Z" transform="translate(-5.306 -9.288)" fill="#fff"/><path d="M-492.974,127.176a1.228,1.228,0,0,1-1.267-1.188,1.228,1.228,0,0,1,.4-.949l2.426-2.425a1.217,1.217,0,0,1,1.721-.013l.013.013a1.24,1.24,0,0,1,0,1.735l-2.382,2.468A1.263,1.263,0,0,1-492.974,127.176Z" transform="translate(-6.677 -7.946)" fill="#fff"/><path d="M-486.453,132.868h-3.675a1.228,1.228,0,0,1-1.116-1.331,1.228,1.228,0,0,1,1.116-1.116h3.675a1.228,1.228,0,0,1,1.331,1.116,1.228,1.228,0,0,1-1.116,1.331A1.215,1.215,0,0,1-486.453,132.868Z" transform="translate(-6.95 -8.69)" fill="#fff"/><path d="M-499.284,127.189a1.2,1.2,0,0,1-1.218-1.174V76.155a1.214,1.214,0,0,1,1.331-1.067,1.2,1.2,0,0,1,1.116,1.067v49.86A1.214,1.214,0,0,1-499.284,127.189Z" transform="translate(-6.107 -3.647)" fill="#474747"/><path d="M-519.483,164.347a2.2,2.2,0,0,1-1.91-1.131,56.1,56.1,0,0,1-5.478-15.342c-2.841-13.643-8.723-31.414-20.591-38.515a17.932,17.932,0,0,0-13.231-2.665,2.166,2.166,0,0,1-2.7-1.444,2.166,2.166,0,0,1,1.444-2.7,22.227,22.227,0,0,1,16.649,3.1c10.606,6.37,18.206,20.28,22.624,41.341a51.785,51.785,0,0,0,5.026,14.161,2.149,2.149,0,0,1-.792,2.915,2.226,2.226,0,0,1-1.031.276Z" transform="translate(-0.366 -6.107)" fill="#25847b"/></g></svg>