<svg xmlns="http://www.w3.org/2000/svg" width="148.78" height="116.094" viewBox="0 0 148.78 116.094"><g transform="translate(-21.252 -36.252)"><path d="M172.021,44.3v62.858a8.059,8.059,0,0,1-8.058,8.058H65.236a7.937,7.937,0,0,1-2.381-.359c-.132-.038-.255-.085-.378-.132a7.789,7.789,0,0,1-2.928-1.87A8.36,8.36,0,0,1,58.161,111a7.983,7.983,0,0,1-.973-3.845V44.3a7.919,7.919,0,0,1,.973-3.835A8.2,8.2,0,0,1,59.55,38.6a7.884,7.884,0,0,1,2.928-1.861c.123-.047.246-.094.378-.132a7.937,7.937,0,0,1,2.381-.359h98.726A8.051,8.051,0,0,1,172.021,44.3Z" transform="translate(-1.989)" fill="#70678f"/><path d="M154.98,62.376v62.858a8.06,8.06,0,0,1-8.059,8.058H48.194a7.941,7.941,0,0,1-2.381-.359c-.131-.038-.255-.085-.377-.132a7.792,7.792,0,0,1-2.929-1.87,8.36,8.36,0,0,1-1.389-1.852,7.994,7.994,0,0,1-.973-3.845V62.376a7.93,7.93,0,0,1,.973-3.835,8.2,8.2,0,0,1,1.389-1.861,7.887,7.887,0,0,1,2.929-1.861c.122-.047.246-.094.377-.132a7.941,7.941,0,0,1,2.381-.359h98.726A8.052,8.052,0,0,1,154.98,62.376Z" transform="translate(-1.046 -1)" fill="#ad577a"/><path d="M136.085,83.605v62.858a8.059,8.059,0,0,1-8.058,8.058H29.3a7.932,7.932,0,0,1-2.381-.359c-.132-.038-.255-.085-.378-.132a7.781,7.781,0,0,1-2.928-1.87,8.3,8.3,0,0,1-1.389-1.852,7.983,7.983,0,0,1-.973-3.845V83.605a7.919,7.919,0,0,1,.973-3.835,8.145,8.145,0,0,1,1.389-1.861,7.876,7.876,0,0,1,2.928-1.861c.123-.047.246-.094.378-.132a7.932,7.932,0,0,1,2.381-.359h98.726A8.051,8.051,0,0,1,136.085,83.605Z" transform="translate(0 -2.175)" fill="#ce809d"/><path d="M22.282,154.687a8.3,8.3,0,0,0,1.389,1.852A7.853,7.853,0,0,1,22.282,154.687Z" transform="translate(-0.057 -6.554)" fill="#ce809d"/><path d="M22.282,79.908a7.716,7.716,0,0,1,1.389-1.861A8.145,8.145,0,0,0,22.282,79.908Z" transform="translate(-0.057 -2.313)" fill="#ce809d"/><circle cx="9" cy="9" r="9" transform="translate(43.287 92.81)" fill="#fff"/><path d="M71.734,145.339V133.458a10.784,10.784,0,0,0-10.783-10.783H45.045a10.783,10.783,0,0,0-10.783,10.783v11.881" transform="translate(-0.72 -4.783)" fill="#fff"/><line y1="9.631" transform="translate(42.242 130.926)" fill="#fff"/><line y1="9.631" transform="translate(62.331 130.926)" fill="#fff"/><rect width="42.961" height="10.053" rx="5.027" transform="translate(80.705 90.132)" fill="#25847b"/><rect width="42.961" height="10.053" rx="5.027" transform="translate(80.705 105.783)" fill="#25847b"/><rect width="11.336" height="11.336" rx="5.668" transform="translate(80.705 124.753)" fill="#fff"/><rect width="11.336" height="11.336" rx="5.668" transform="translate(96.517 124.753)" fill="#fff"/><rect width="11.336" height="11.336" rx="5.668" transform="translate(112.33 124.753)" fill="#fff"/></g></svg>