<svg xmlns="http://www.w3.org/2000/svg" xmlns:xlink="http://www.w3.org/1999/xlink" width="129.11" height="127.805" viewBox="0 0 129.11 127.805"><defs><linearGradient id="a" x1="1.907" y1="-0.595" x2="-0.472" y2="1.352" gradientUnits="objectBoundingBox"><stop offset="0" stop-color="#9b8fc4"/><stop offset="1" stop-color="#251d41"/></linearGradient><linearGradient id="b" x1="3.005" y1="-3.749" x2="-3.428" y2="7.161" xlink:href="#a"/><linearGradient id="c" x1="1.581" y1="-5.039" x2="-1.36" y2="10.026" xlink:href="#a"/><linearGradient id="d" x1="1.37" y1="-0.006" x2="-0.666" y2="1.43" xlink:href="#a"/><linearGradient id="e" x1="0.985" y1="-0.784" x2="-2.864" y2="9.408" xlink:href="#a"/><linearGradient id="f" x1="1.413" y1="-0.385" x2="-0.893" y2="1.992" xlink:href="#a"/><linearGradient id="g" x1="1.424" y1="-2.043" x2="-2.666" y2="9.211" xlink:href="#a"/></defs><g transform="translate(-36.95 -39.27)"><path d="M75.19,167.075H47.04a10.108,10.108,0,0,1-10.09-10.1V105.365A24.085,24.085,0,0,1,53.813,82.324a24.09,24.09,0,0,1,24.4,5.96,24,24,0,0,1,7.072,17.081v51.609A10.108,10.108,0,0,1,75.19,167.075Zm-14.07-81.2a19.487,19.487,0,0,0-19.49,19.491v51.609a5.422,5.422,0,0,0,5.41,5.421H75.19a5.422,5.422,0,0,0,5.41-5.421V105.365A19.448,19.448,0,0,0,61.12,85.874Z" fill="url(#a)"/><path d="M74.84,130.315v20.66a4.879,4.879,0,0,1-4.87,4.88H52.26a4.879,4.879,0,0,1-4.87-4.88v-20.66Z" fill="#867bad" opacity="0.35"/><path d="M54.52,86.894a2.341,2.341,0,0,1-2.34-2.34V73.9a2.34,2.34,0,0,1,2.34-2.34H67.71a2.34,2.34,0,0,1,2.34,2.34V84.544A2.341,2.341,0,0,1,67,86.775a19.665,19.665,0,0,0-11.774.01A2.36,2.36,0,0,1,54.52,86.894Zm2.34-10.649v5.327a24.521,24.521,0,0,1,8.51-.007v-5.32Z" fill="url(#b)"/><path d="M73.7,76.242h-34.4a2.34,2.34,0,0,1-2.34-2.34V67.481a2.34,2.34,0,0,1,2.34-2.34H73.7a2.34,2.34,0,0,1,2.34,2.34V73.9A2.34,2.34,0,0,1,73.7,76.242Zm-32.065-4.68H71.356V69.821H41.631Z" fill="url(#c)"/><path d="M128.58,167.075H90.05a9.461,9.461,0,0,1-9.45-9.451V121.575a15.427,15.427,0,0,1,2.074-7.711L100.6,82.906V52.995a2.34,2.34,0,0,1,2.34-2.34h12.71a2.34,2.34,0,0,1,2.34,2.34V82.854l17.965,31.008a14.415,14.415,0,0,1,.942,1.936,2.33,2.33,0,0,1,.163.857v3.85a2.339,2.339,0,0,1-1.674,2.243,20.241,20.241,0,0,0-1.573,38.274,2.34,2.34,0,0,1,.619,4.01A9.4,9.4,0,0,1,128.58,167.075ZM105.28,55.334v28.2a2.34,2.34,0,0,1-.315,1.172l-18.24,31.5a10.746,10.746,0,0,0-1.445,5.368v36.049a4.775,4.775,0,0,0,4.77,4.771H126.6a25.124,25.124,0,0,1-5.3-5.161,24.918,24.918,0,0,1,11.08-38.411v-1.7c-.135-.3-.295-.608-.476-.923L113.791,84.941a2.3,2.3,0,0,1-.481-1.406v-28.2Z" fill="url(#d)"/><path d="M118.56,142.144a22.529,22.529,0,0,0,4.6,13.671,3.814,3.814,0,0,1-.59.04H96.06a5.042,5.042,0,0,1-4.89-5.18V124.394a10.145,10.145,0,0,1,1.2-4.779l6.82-12.46h20.25l6.81,12.46a9.857,9.857,0,0,1,1.2,4.58A22.535,22.535,0,0,0,118.56,142.144Z" fill="#867bad" opacity="0.35"/><path d="M118.291,55.679H100.306c-3.331,0-5.94-2.258-5.94-5.14v-6.12c0-2.887,2.609-5.149,5.94-5.149h17.985c3.331,0,5.94,2.262,5.94,5.149v6.12C124.231,53.421,121.622,55.679,118.291,55.679ZM99.745,50.191a1.356,1.356,0,0,0,.561.109h17.985a1.364,1.364,0,0,0,.561-.109V44.758a1.356,1.356,0,0,0-.561-.109H100.306a1.348,1.348,0,0,0-.561.109Z" fill="url(#e)"/><path d="M141.14,167.075a24.921,24.921,0,0,1-8.76-48.252V99.075a2.34,2.34,0,0,1,2.34-2.34h12.84a2.34,2.34,0,0,1,2.34,2.34v19.749a24.921,24.921,0,0,1-8.76,48.251Zm-4.08-65.661V120.5a2.339,2.339,0,0,1-1.674,2.243,20.24,20.24,0,1,0,11.511,0,2.341,2.341,0,0,1-1.677-2.244V101.414Z" fill="url(#f)"/><path d="M155.331,142.15a14.188,14.188,0,1,1-28.376,0Z" fill="#867bad" opacity="0.35"/><path d="M149.76,101.414H132.53a5.446,5.446,0,0,1-5.44-5.44V92a5.447,5.447,0,0,1,5.44-5.441h17.23A5.447,5.447,0,0,1,155.2,92v3.979A5.446,5.446,0,0,1,149.76,101.414Zm-17.23-10.18a.761.761,0,0,0-.76.761v3.979a.752.752,0,0,0,.76.761h17.23a.761.761,0,0,0,.76-.761V92a.761.761,0,0,0-.76-.761Z" fill="url(#g)"/></g></svg>