<svg xmlns="http://www.w3.org/2000/svg" xmlns:xlink="http://www.w3.org/1999/xlink" width="156.788" height="154.901" viewBox="0 0 156.788 154.901"><defs><linearGradient id="a" x1="3.773" y1="-3.003" x2="-1.115" y2="2.229" gradientUnits="objectBoundingBox"><stop offset="0" stop-color="#d8805a"/><stop offset="1" stop-color="#7b4129"/></linearGradient><linearGradient id="b" x1="2.615" y1="-3.481" x2="0.022" y2="1.725" xlink:href="#a"/><linearGradient id="c" x1="1.72" y1="-0.407" x2="-1.413" y2="2.16" xlink:href="#a"/><linearGradient id="d" x1="2.807" y1="-0.711" x2="-6.65" y2="3.98" xlink:href="#a"/><linearGradient id="e" x1="2.915" y1="-1.55" x2="-3.37" y2="3.786" xlink:href="#a"/><linearGradient id="f" x1="5.781" y1="-5.153" x2="-8.43" y2="10.059" xlink:href="#a"/><linearGradient id="g" x1="6.053" y1="-5.443" x2="-8.159" y2="9.768" xlink:href="#a"/><linearGradient id="h" x1="1.305" y1="-0.744" x2="-0.506" y2="2.053" xlink:href="#a"/><linearGradient id="i" x1="19.859" y1="-0.885" x2="-19.236" y2="1.912" xlink:href="#a"/><linearGradient id="j" x1="1.305" y1="-18.112" x2="-0.506" y2="23.736" xlink:href="#a"/><linearGradient id="k" x1="2.499" y1="-1.463" x2="-1.541" y2="2.59" xlink:href="#a"/></defs><g transform="translate(-16.305 -11.044)"><g transform="translate(25.319 46.227)"><circle cx="59.859" cy="59.859" r="59.859" fill="#fff3dc"/></g><g transform="translate(16.305 91.637)"><g transform="translate(12.784)"><path d="M44.908,129.176a14.448,14.448,0,1,1,14.448-14.448A14.463,14.463,0,0,1,44.908,129.176Zm0-25.284a10.836,10.836,0,1,0,10.835,10.836A10.847,10.847,0,0,0,44.908,103.892Z" transform="translate(-30.46 -100.279)" fill="url(#a)"/></g><g transform="translate(0 33.602)"><path d="M68.965,166.523H18.111a1.807,1.807,0,0,1-1.806-1.806,27.233,27.233,0,0,1,54.466,0A1.806,1.806,0,0,1,68.965,166.523Zm-48.978-3.613h47.1a23.621,23.621,0,0,0-47.1,0Z" transform="translate(-16.305 -137.484)" fill="url(#b)"/></g></g><g transform="translate(62.696 11.045)"><g transform="translate(0 19.79)"><path d="M110.946,91.862H69.476a1.806,1.806,0,0,1-1.806-1.806V48.117a1.806,1.806,0,0,1,.372-1.1L78.26,33.665a1.808,1.808,0,0,1,1.434-.708h21.035a1.808,1.808,0,0,1,1.434.708L112.38,47.02a1.806,1.806,0,0,1,.372,1.1V90.056A1.807,1.807,0,0,1,110.946,91.862ZM71.283,88.249h37.857V48.73l-9.3-12.16H80.586l-9.3,12.16Z" transform="translate(-67.67 -32.957)" fill="url(#c)"/></g><g transform="translate(15.567)"><path d="M89.966,43.272a1.809,1.809,0,0,1-1.718-1.247c-.84-2.581-7.938-25.353,1.529-30.13,3.59-1.814,5.908-.321,6.971.734,4.118,4.08,3.687,15.857,1.242,20.811a1.806,1.806,0,1,1-3.24-1.6c2.058-4.173,2.125-14-.546-16.647-.323-.321-.994-.985-2.8-.075-5.073,2.56-2.521,17.175.279,25.786a1.809,1.809,0,0,1-1.718,2.366Z" transform="translate(-84.906 -11.045)" fill="url(#d)"/></g><g transform="translate(11.245 39.002)"><path d="M81.926,82.559a1.807,1.807,0,0,1-1.434-2.9L99.353,54.94a1.806,1.806,0,1,1,2.871,2.19L83.363,81.848A1.8,1.8,0,0,1,81.926,82.559Z" transform="translate(-80.121 -54.228)" fill="url(#e)"/></g><g transform="translate(9.489 37.127)"><path d="M83.145,62.091a4.969,4.969,0,1,1,4.969-4.969A4.975,4.975,0,0,1,83.145,62.091Zm0-6.326A1.357,1.357,0,1,0,84.5,57.122,1.358,1.358,0,0,0,83.145,55.766Z" transform="translate(-78.176 -52.153)" fill="url(#f)"/></g><g transform="translate(26.084 58.034)"><path d="M101.52,85.239a4.969,4.969,0,1,1,4.969-4.969A4.975,4.975,0,0,1,101.52,85.239Zm0-6.326a1.357,1.357,0,1,0,1.357,1.357A1.358,1.358,0,0,0,101.52,78.914Z" transform="translate(-96.551 -75.301)" fill="url(#g)"/></g></g><g transform="translate(95.106 100.015)"><path d="M179.736,163.617H105.361a1.806,1.806,0,0,1-1.806-1.806v-50.45a1.806,1.806,0,0,1,1.806-1.806h74.375a1.806,1.806,0,0,1,1.806,1.806v50.45A1.806,1.806,0,0,1,179.736,163.617ZM107.168,160H177.93V113.168H107.168Z" transform="translate(-103.555 -109.555)" fill="url(#h)"/><g transform="translate(21.907)"><path d="M129.617,163.617a1.806,1.806,0,0,1-1.806-1.806v-50.45a1.806,1.806,0,1,1,3.613,0v50.45A1.806,1.806,0,0,1,129.617,163.617Z" transform="translate(-127.811 -109.555)" fill="url(#i)"/></g><g transform="translate(0 25.224)"><path d="M179.736,141.1H105.361a1.806,1.806,0,1,1,0-3.613h74.375a1.806,1.806,0,0,1,0,3.613Z" transform="translate(-103.555 -137.484)" fill="url(#j)"/></g><g transform="translate(7.468 7.838)"><path d="M144.973,155.533a1.806,1.806,0,0,1-1.7-1.189,28.891,28.891,0,0,0-13.6-16.083,1.806,1.806,0,0,1-1.154.916c-.052.014-6.917,2.035-11.742,13.685a1.806,1.806,0,1,1-3.337-1.383c3.3-7.979,7.552-12.02,10.536-14.006-4.293-2.234-11.1-6.479-12.037-11.336a6.326,6.326,0,0,1,2.009-5.871c2.2-2.2,4.288-2.224,5.648-1.849,3.979,1.091,6.889,7.119,8.59,11.8,1.97-4.83,5.32-11.111,9.629-11.874,1.584-.277,3.959.049,6.309,3.2a6.835,6.835,0,0,1,1.281,6.576c-1.461,4.2-7.193,7.054-11.228,8.592a33.071,33.071,0,0,1,12.5,16.4,1.807,1.807,0,0,1-1.7,2.424Zm-26.709-33.69a2.609,2.609,0,0,0-1.764.975,2.755,2.755,0,0,0-1.016,2.63c.574,2.971,5.766,6.534,10.252,8.869-1.618-5.3-4.5-11.707-7.1-12.418A1.332,1.332,0,0,0,118.263,121.844Zm20.433.038a1.4,1.4,0,0,0-.254.023c-2.716.48-5.96,6.836-7.883,12.242,4.336-1.363,10.372-4.172,11.431-7.219.224-.644.388-1.678-.766-3.224C140.323,122.494,139.473,121.882,138.7,121.882Z" transform="translate(-111.823 -118.233)" fill="url(#k)"/></g></g></g></svg>