<svg xmlns="http://www.w3.org/2000/svg" xmlns:xlink="http://www.w3.org/1999/xlink" width="172.432" height="119.977" viewBox="0 0 172.432 119.977"><defs><linearGradient id="a" x1="1.378" y1="-2.802" x2="-0.943" y2="5.786" gradientUnits="objectBoundingBox"><stop offset="0" stop-color="#1cabe0"/><stop offset="1" stop-color="#107aa3"/></linearGradient><linearGradient id="b" x1="1.463" y1="-1.582" x2="-0.858" y2="3.139" xlink:href="#a"/><linearGradient id="c" x1="1.627" y1="-1.869" x2="-0.694" y2="2.738" xlink:href="#a"/><linearGradient id="d" x1="1.791" y1="-2.142" x2="-0.53" y2="2.356" xlink:href="#a"/><linearGradient id="e" x1="9.735" y1="-9.25" x2="-8.827" y2="10.348" xlink:href="#a"/><linearGradient id="f" x1="10.638" y1="-10.203" x2="-7.925" y2="9.394" xlink:href="#a"/><linearGradient id="g" x1="13.582" y1="-13.312" x2="-4.98" y2="6.285" xlink:href="#a"/><linearGradient id="h" x1="16.076" y1="-15.946" x2="-2.486" y2="3.653" xlink:href="#a"/><linearGradient id="i" x1="11.085" y1="-10.676" x2="-7.477" y2="8.921" xlink:href="#a"/><linearGradient id="j" x1="12.436" y1="-12.103" x2="-6.126" y2="7.496" xlink:href="#a"/><linearGradient id="k" x1="5.81" y1="-6.231" x2="-4.144" y2="6.388" xlink:href="#a"/><linearGradient id="l" x1="8.101" y1="-8.952" x2="-1.93" y2="3.521" xlink:href="#a"/><linearGradient id="m" x1="5.909" y1="-31.25" x2="-2.412" y2="17.591" xlink:href="#a"/><linearGradient id="n" x1="8.821" y1="-8.285" x2="-9.741" y2="11.314" xlink:href="#a"/><linearGradient id="o" x1="5.876" y1="-5.176" x2="-12.686" y2="14.421" xlink:href="#a"/><linearGradient id="p" x1="3.383" y1="-2.543" x2="-15.181" y2="17.054" xlink:href="#a"/><linearGradient id="q" x1="5.088" y1="-5.317" x2="-4.866" y2="7.302" xlink:href="#a"/><linearGradient id="r" x1="2.874" y1="-2.451" x2="-7.158" y2="10.022" xlink:href="#a"/><linearGradient id="s" x1="3.365" y1="-16.318" x2="-4.956" y2="32.523" xlink:href="#a"/></defs><g transform="translate(-615.784 4034.874)"><path d="M702.2-4006.156c-19.745,0-38.321-5.491-39.754-11.749a3.972,3.972,0,0,1-.1-.873c0-7.995,25.049-10.127,39.85-10.127s39.859,2.132,39.859,10.127a3.975,3.975,0,0,1-.1.875C740.533-4011.647,721.953-4006.156,702.2-4006.156Zm0-18.749c-22.307,0-35.2,4.017-35.855,6.171.588,2.5,15.126,8.578,35.855,8.578,20.647,0,35.151-6.025,35.854-8.608C737.289-4020.925,724.409-4024.905,702.2-4024.905Zm35.863,6.171h0Z" fill="url(#a)"/><path d="M702.2-3979.4c-18.625,0-37.513-5.679-39.626-11.915a3.951,3.951,0,0,1-.224-1.3v-26.16a2,2,0,0,1,2-2,2,2,0,0,1,2,2c.583,2.545,15.121,8.622,35.85,8.622,20.7,0,35.221-6.054,35.859-8.627a1.909,1.909,0,0,1,.034-.364,1.991,1.991,0,0,1,1.967-1.641,2.007,2.007,0,0,1,2,2.01v26.16a3.984,3.984,0,0,1-.233,1.322C739.724-3985.082,720.833-3979.4,702.2-3979.4Zm-35.85-34.111v20.9c.965,2.826,15.492,9.215,35.85,9.215s34.893-6.389,35.845-9.2l.011-20.91c-6.7,4.226-20.945,7.356-35.856,7.356S673.052-4009.286,666.353-4013.514Z" fill="url(#b)"/><path d="M702.2-3952.217c-19.935,0-37.678-6.968-39.639-12.961a4.155,4.155,0,0,1-.211-1.273v-26.167a2,2,0,0,1,2-2,2,2,0,0,1,2,2c.965,2.826,15.492,9.215,35.85,9.215s34.893-6.389,35.845-9.2a2,2,0,0,1,.459-1.275,2,2,0,0,1,1.555-.741,2,2,0,0,1,2,2v26.17a4.115,4.115,0,0,1-.212,1.271C739.89-3959.185,722.145-3952.217,702.2-3952.217Zm-35.85-35.038v20.8c1,3.058,15.964,10.234,35.85,10.234s34.854-7.176,35.844-10.2l.012-20.824c-6.815,4.428-21.414,7.842-35.856,7.842S673.169-3982.816,666.353-3987.255Z" fill="url(#c)"/><path d="M702.2-3925.023c-20.525,0-39.85-8.6-39.85-15.268v-26.16a2,2,0,0,1,2-2,2,2,0,0,1,2,2c1,3.058,15.964,10.234,35.85,10.234s34.854-7.176,35.844-10.2a2.007,2.007,0,0,1,.2-.877,2,2,0,0,1,1.813-1.153,2,2,0,0,1,2,2v26.163C742.062-3933.624,722.733-3925.023,702.2-3925.023Zm-35.85-35.894v20.626c.312,2.8,15.225,11.268,35.85,11.268s35.545-8.468,35.859-11.281v-20.614c-6.588,4.61-20.58,8.7-35.859,8.7S672.939-3956.308,666.353-3960.917Z" fill="url(#d)"/><path d="M673.411-3996.87a4.991,4.991,0,0,1-4.984-4.985,4.99,4.99,0,0,1,4.984-4.984,4.991,4.991,0,0,1,4.985,4.984A4.991,4.991,0,0,1,673.411-3996.87Zm0-5.969a.985.985,0,0,0-.984.984.985.985,0,0,0,.984.985.986.986,0,0,0,.985-.985A.986.986,0,0,0,673.411-4002.839Z" fill="url(#e)"/><path d="M624.778-4024.905a4.991,4.991,0,0,1-4.984-4.985,4.99,4.99,0,0,1,4.984-4.984,4.991,4.991,0,0,1,4.985,4.984A4.992,4.992,0,0,1,624.778-4024.905Zm0-5.969a.985.985,0,0,0-.984.984.985.985,0,0,0,.984.985.986.986,0,0,0,.985-.985A.985.985,0,0,0,624.778-4030.874Z" fill="url(#f)"/><path d="M620.769-3969.9a4.992,4.992,0,0,1-4.985-4.985,4.991,4.991,0,0,1,4.985-4.984,4.99,4.99,0,0,1,4.984,4.984A4.991,4.991,0,0,1,620.769-3969.9Zm0-5.969a.985.985,0,0,0-.985.984.986.986,0,0,0,.985.985.986.986,0,0,0,.984-.985A.984.984,0,0,0,620.769-3975.869Z" fill="url(#g)"/><path d="M626.281-3914.9a4.99,4.99,0,0,1-4.984-4.984,4.99,4.99,0,0,1,4.984-4.984,4.991,4.991,0,0,1,4.985,4.984A4.991,4.991,0,0,1,626.281-3914.9Zm0-5.968a.984.984,0,0,0-.984.984.985.985,0,0,0,.984.984.985.985,0,0,0,.985-.984A.985.985,0,0,0,626.281-3920.865Z" fill="url(#h)"/><path d="M673.411-3969.9a4.991,4.991,0,0,1-4.984-4.985,4.99,4.99,0,0,1,4.984-4.984,4.991,4.991,0,0,1,4.985,4.984A4.992,4.992,0,0,1,673.411-3969.9Zm0-5.969a.984.984,0,0,0-.984.984.986.986,0,0,0,.984.985.986.986,0,0,0,.985-.985A.985.985,0,0,0,673.411-3975.869Z" fill="url(#i)"/><path d="M673.411-3942.932a4.99,4.99,0,0,1-4.984-4.984,4.99,4.99,0,0,1,4.984-4.984,4.991,4.991,0,0,1,4.985,4.984A4.991,4.991,0,0,1,673.411-3942.932Zm0-5.968a.984.984,0,0,0-.984.984.985.985,0,0,0,.984.984.986.986,0,0,0,.985-.984A.985.985,0,0,0,673.411-3948.9Z" fill="url(#j)"/><path d="M651.3-4008.641a1.992,1.992,0,0,1-1.237-.428l-14.59-11.483a2,2,0,0,1-.334-2.808,2,2,0,0,1,2.808-.334l14.591,11.482a2,2,0,0,1,.334,2.809A2,2,0,0,1,651.3-4008.641Z" fill="url(#k)"/><path d="M634.964-3927.127a2,2,0,0,1-1.558-.744,2,2,0,0,1,.3-2.813l14.447-11.663a2,2,0,0,1,2.813.3,2,2,0,0,1-.3,2.813l-14.447,11.663A2,2,0,0,1,634.964-3927.127Z" fill="url(#l)"/><path d="M651.306-3972.885H633.067a2,2,0,0,1-2-2,2,2,0,0,1,2-2h18.239a2,2,0,0,1,2,2A2,2,0,0,1,651.306-3972.885Z" fill="url(#m)"/><path d="M779.223-3914.9a4.991,4.991,0,0,1-4.985-4.984,4.991,4.991,0,0,1,4.985-4.984,4.99,4.99,0,0,1,4.984,4.984A4.99,4.99,0,0,1,779.223-3914.9Zm0-5.968a.985.985,0,0,0-.985.984.985.985,0,0,0,.985.984.985.985,0,0,0,.984-.984A.984.984,0,0,0,779.223-3920.865Z" fill="url(#n)"/><path d="M783.231-3969.9a4.991,4.991,0,0,1-4.984-4.985,4.99,4.99,0,0,1,4.984-4.984,4.991,4.991,0,0,1,4.985,4.984A4.992,4.992,0,0,1,783.231-3969.9Zm0-5.969a.984.984,0,0,0-.984.984.986.986,0,0,0,.984.985.986.986,0,0,0,.985-.985A.985.985,0,0,0,783.231-3975.869Z" fill="url(#o)"/><path d="M777.719-4024.905a4.991,4.991,0,0,1-4.984-4.985,4.99,4.99,0,0,1,4.984-4.984,4.99,4.99,0,0,1,4.984,4.984A4.991,4.991,0,0,1,777.719-4024.905Zm0-5.969a.985.985,0,0,0-.984.984.986.986,0,0,0,.984.985.985.985,0,0,0,.984-.985A.985.985,0,0,0,777.719-4030.874Z" fill="url(#p)"/><path d="M767.284-3925.648a1.991,1.991,0,0,1-1.236-.428l-14.59-11.483a2,2,0,0,1-.334-2.808,2,2,0,0,1,2.809-.334l14.589,11.482a2,2,0,0,1,.334,2.809A1.994,1.994,0,0,1,767.284-3925.648Z" fill="url(#q)"/><path d="M754.592-4006.981a2,2,0,0,1-1.558-.744,2,2,0,0,1,.3-2.811l14.446-11.663a2,2,0,0,1,2.812.3,2,2,0,0,1-.3,2.812l-14.446,11.663A1.987,1.987,0,0,1,754.592-4006.981Z" fill="url(#r)"/><path d="M770.933-3972.885H752.7a2,2,0,0,1-2-2,2,2,0,0,1,2-2h18.238a2,2,0,0,1,2,2A2,2,0,0,1,770.933-3972.885Z" fill="url(#s)"/></g></svg>