<svg xmlns="http://www.w3.org/2000/svg" width="503.637" height="377.398"><path d="M118.177 183.876h384.961a.5.5 0 01.5.5v5.545a.5.5 0 01-.5.5H118.177a.5.5 0 01-.5-.5v-5.545a.5.5 0 01.5-.5zm384.461 1H118.677v4.545h383.961z" fill="#7160b1"/><path d="M296.806 189.401h18.878a.5.5 0 01.5.5v42.791a.5.5 0 01-.5.5h-18.878a.5.5 0 01-.5-.5v-42.791a.5.5 0 01.5-.5zm18.378 1h-17.878v41.791h17.878zM459.181 183.876h19.668a.5.5 0 01.5.5v48.315a.5.5 0 01-.5.5h-19.668a.5.5 0 01-.5-.5v-48.315a.5.5 0 01.5-.5zm19.168 1h-18.668v47.315h18.668z" fill="#7160b1"/><path d="M315.655 225.332h143.517a.5.5 0 01.5.5v6.86a.5.5 0 01-.5.5H315.655a.5.5 0 01-.5-.5v-6.86a.5.5 0 01.5-.5zm143.017 1H316.155v5.86h142.517zM463.799 192.063h9.371a.5.5 0 01.5.5v34.188a.5.5 0 01-.5.5h-9.371a.5.5 0 01-.5-.5v-34.188a.5.5 0 01.5-.5zm8.871 1h-8.371v33.188h8.371zM478.849 168.64a.5.5 0 01-.5-.5V52.892a.5.5 0 01.5-.5.5.5 0 01.5.5V168.14a.5.5 0 01-.5.5z" fill="#7160b1"/><path d="M478.849 53.393a.5.5 0 01-.375-.169 53.3 53.3 0 00-4.607-4.408 92.22 92.22 0 00-13.564-9.661 101.616 101.616 0 00-51.506-13.754h-.964c-19.277.173-32.731 3.557-45.741 6.829-7 1.762-14.248 3.584-22.226 4.841a146.629 146.629 0 01-27.5 1.665 162.39 162.39 0 01-22.646-2.332 197.922 197.922 0 01-20.444-4.708 324.359 324.359 0 01-32.136-11.349c-4.4-1.751-8.2-3.265-11.118-4.211-.7-.227-1.488-.486-2.322-.759-8.86-2.909-25.351-8.323-43.362-11.12-22-3.418-39.549-1.875-52.149 4.587a.5.5 0 11-.456-.89c8.395-4.305 18.927-6.464 31.454-6.464a139.421 139.421 0 0121.3 1.778c18.092 2.81 34.634 8.24 43.521 11.157.833.274 1.62.532 2.319.759 2.947.957 6.762 2.475 11.179 4.233 16.327 6.5 43.654 17.377 74.885 18.318q2.57.078 5 .077c18.4 0 31.083-3.19 44.447-6.552 13.067-3.287 26.58-6.686 45.976-6.859h.982a104.6 104.6 0 0129.672 4.225 100.405 100.405 0 0122.368 9.688 93.168 93.168 0 0113.7 9.771 52.968 52.968 0 014.675 4.478.5.5 0 01-.375.831z" fill="#7160b1"/><path d="M471.456 184.877H128.625a.5.5 0 01-.5-.5l-.66-175.973a.5.5 0 01.5-.5.5.5 0 01.5.5l.658 175.475h341.833v-9a.5.5 0 01.493-.5l4.175-.062-1-1.628a.5.5 0 11.854-.521l1.452 2.376a.5.5 0 01-.419.761l-4.559.068v9.01a.5.5 0 01-.496.494z" fill="#7160b1"/><path d="M475.059 172.925a.5.5 0 01-.462-.3 1.912 1.912 0 01-.007-1.455 1.638 1.638 0 011.079-.863 5.588 5.588 0 001.827-1.075c.65-.557.855-.962.853-1.071a.5.5 0 01.484-.516h.016a.5.5 0 01.5.484c.022.669-.639 1.38-1.2 1.859a6.549 6.549 0 01-2.194 1.277.683.683 0 00-.459.324.917.917 0 00.019.646.5.5 0 01-.459.7z" fill="#7160b1"/><g opacity=".5"><path d="M144.337 184.377l.526-162.772c32.911-9.506 79.23 9.181 92.671 15.578 12.69 6.04 40.673 14.883 76.3 14.918 37.758.036 51.807-12.413 89.065-12.746 42.531-.38 64.463 20.8 64.463 20.8l.264 124.229z" fill="#a697df" fill-rule="evenodd"/><path d="M467.628 184.881H144.336a.5.5 0 01-.5-.5l.526-162.772a.5.5 0 01.361-.479 74.952 74.952 0 0120.713-2.665 126.674 126.674 0 0122.174 2.132 189.22 189.22 0 0120.936 5.073 216.274 216.274 0 0129.2 11.066c5.2 2.476 33.314 14.827 76.088 14.87h.161c18.988 0 32.194-3.228 44.966-6.349 6.261-1.53 12.735-3.112 19.822-4.3a152.277 152.277 0 0124.112-2.094h1.134a115.444 115.444 0 0127.647 3.265 99.5 99.5 0 0119.912 7.188 81.443 81.443 0 0112.05 7.2 42.1 42.1 0 014.071 3.294.5.5 0 01.153.359l.264 124.229a.5.5 0 01-.5.5zm-322.79-1h322.289l-.262-123.51a69.756 69.756 0 00-15.758-10.191c-9.625-4.712-25.606-10.329-47.076-10.329h-1.125c-18.318.164-31.224 3.318-43.7 6.368-6.411 1.567-13.041 3.188-20.322 4.383a151.867 151.867 0 01-24.881 1.994h-.162a216.985 216.985 0 01-25.227-1.5 207.866 207.866 0 01-21.637-3.72 177.285 177.285 0 01-17.333-4.851 115.524 115.524 0 01-12.32-4.9c-3.909-1.86-39.135-18.174-71.882-18.174a74.355 74.355 0 00-20.075 2.523z" fill="#7160b1"/></g><g fill="#7160b1"><path d="M471.456 174.373h25.477a.5.5 0 01.5.5v9.5a.5.5 0 01-.5.5h-25.477a.5.5 0 01-.5-.5v-9.5a.5.5 0 01.5-.5zm24.977 1h-24.477v8.5h24.477z"/><path d="M486.108 175.768a.5.5 0 01-.5-.48c-.041-1.033 1.2-1.926 2.409-2.789.442-.317.86-.616 1.171-.892a1.41 1.41 0 00.422-.494c-.2-.42-.256-1.3.911-4.228.381-.957.791-1.872 1.056-2.447a6.391 6.391 0 01-1-.286c-1.551-.6-1.838-1.549-1.8-2.242.141-2.963-.4-4.615-1.645-5.048a.383.383 0 00-.123-.02c-.71 0-1.856 1.83-2.706 3.186-1.153 1.84-2.241 3.578-3.5 3.848a.9.9 0 00-.575.3c-.157.273.036.864.207 1.386a2.916 2.916 0 01.2 1.98 7.046 7.046 0 01-2.087 2.3 8.355 8.355 0 01-2.895 1.56.158.158 0 00-.06.021s-.179.315.45 1.584a13.854 13.854 0 00.847 1.45.5.5 0 01-.825.564 14.758 14.758 0 01-.854-1.444c-.6-1.168-.773-1.969-.55-2.52a1.046 1.046 0 01.793-.636 8.675 8.675 0 004.259-3.268 2.509 2.509 0 00-.225-1.281 2.753 2.753 0 01-.123-2.195 1.753 1.753 0 011.232-.779c.848-.182 1.919-1.892 2.865-3.4 1.315-2.1 2.557-4.079 4-3.58a3.416 3.416 0 012.1 2.7 12.491 12.491 0 01.212 3.342c-.063 1.327 2.553 1.588 2.579 1.591a.5.5 0 01.408.716 52.554 52.554 0 00-1.3 2.957c-1.139 2.852-.97 3.414-.947 3.468.227.453.065.957-.482 1.495a12.647 12.647 0 01-1.435 1.127c-.8.574-2.012 1.441-1.992 1.937a.5.5 0 01-.48.519z"/><path d="M489.012 175.634a.5.5 0 01-.474-.657c.188-.56 1.109-1.418 2.6-2.772a15.608 15.608 0 002.684-2.774c.057-.165-.091-.712-1-1.718a15.114 15.114 0 00-1.351-1.3.5.5 0 11.638-.77 15.857 15.857 0 011.454 1.4c1.044 1.152 1.439 2.04 1.208 2.713s-1.271 1.656-2.958 3.191a15.868 15.868 0 00-2.322 2.351.5.5 0 01-.479.336zM490.201 164.018a.5.5 0 01-.181-.034c-2.573-1-4.255-2.375-5-4.093a4.709 4.709 0 01-.169-3.425.5.5 0 01.928.372 3.7 3.7 0 00.167 2.677c.639 1.453 2.131 2.643 4.434 3.536a.5.5 0 01-.181.966z"/><path d="M477.792 175.505a.5.5 0 01-.424-.764c.006-.009.577-.93 1.053-1.713l.063-.105a2.767 2.767 0 011.327-1.186c.786-.436 2.174-1.083 5.3-2.471 3.022-1.34 4.325-2.86 4.886-3.9a3.508 3.508 0 00.5-1.911l.5-.069.495-.073c.024.162.513 3.992-5.968 6.866-5.763 2.557-5.85 2.7-6.176 3.252l-.069.115a225.18 225.18 0 01-1.058 1.721.5.5 0 01-.429.238z"/></g><g fill="#7160b1"><path d="M453.371 185.141a.506.506 0 01-.071 0 .5.5 0 01-.424-.565 4.772 4.772 0 00-.567-3.061 1.621 1.621 0 00-1.216-.594c-2.749-.19-7.935-.016-8.367 0-.193.035-1.827.428-1.529 3.68a.5.5 0 01-.452.543h-.046a.5.5 0 01-.5-.455 4.913 4.913 0 01.992-3.99 2.516 2.516 0 011.431-.777h.038c.227-.009 5.594-.2 8.5 0a2.6 2.6 0 011.926.965c1.114 1.378.793 3.729.778 3.829a.5.5 0 01-.493.425z"/><path d="M448.75 180.785h-2.9a.5.5 0 01-.5-.5v-29.173a.5.5 0 011 0v28.675h1.9l-.26-29.2a.5.5 0 01.5-.5.5.5 0 01.5.5l.264 29.7a.5.5 0 01-.5.5zM451.786 150.021a.5.5 0 01-.5-.5v-2.9a.5.5 0 01.5-.5.5.5 0 01.5.5v2.9a.5.5 0 01-.5.5z"/><path d="M445.706 151.639c-1.273 0-2.285-.027-2.383-.029a.5.5 0 01-.474-.39c0-.019-.106-.47-.175-.954-.128-.9-.065-1.315.231-1.537.143-.107.292-.219 2.292-.308.447-.02.889-.034 1.226-.043a3.113 3.113 0 01.322-2.178 1.492 1.492 0 011.189-.606c.435-.02.877-.069 1.3-.118 1.113-.126 2.074-.235 2.637.242a1.184 1.184 0 01.408.875.5.5 0 01-.473.526h-.027a.5.5 0 01-.5-.473c-.007-.125-.042-.154-.055-.166-.234-.2-1.146-.094-1.878-.011-.444.05-.9.1-1.373.123a.491.491 0 00-.424.2 2.949 2.949 0 00-.04 1.942.5.5 0 01-.473.633c-1.318.023-2.862.093-3.432.174a7.248 7.248 0 00.136 1.08 43.537 43.537 0 006.859-.256c.711-.182.706-.625.687-.756v.009l.984-.181a1.683 1.683 0 01-1.424 1.9 28.954 28.954 0 01-5.14.302z"/><path d="M461.328 149.785a7.653 7.653 0 01-1.417-.171 6.236 6.236 0 00-.758-.114c-1.355-.069-7.443-.13-7.5-.13a.5.5 0 010-1h.005c.251 0 6.169.062 7.545.131a6.966 6.966 0 01.891.13c1.437.271 2.43.335 3.117-1.158.91-1.979-1.517-3.253-1.621-3.307a.5.5 0 01.454-.891 5.6 5.6 0 011.495 1.177 3.013 3.013 0 01.581 3.438 2.967 2.967 0 01-2.063 1.819 3.38 3.38 0 01-.729.076zM432.513 151.213a.505.505 0 01-.189-.037l-16.765-6.864a.5.5 0 01.379-.926l16.641 6.813 10.428-1.434a.5.5 0 01.136.991l-10.561 1.452a.532.532 0 01-.069.005z"/><path d="M415.748 144.351a.5.5 0 01-.393-.191 57.113 57.113 0 01-2.148-2.95c-1.956-2.9-2-3.769-1.795-4.238a.833.833 0 01.74-.485h.05a3.306 3.306 0 011.448.613.5.5 0 01-.558.83 4.271 4.271 0 00-.752-.406 10.718 10.718 0 001.765 3.231c.989 1.456 2.025 2.775 2.035 2.789a.5.5 0 01-.393.809z"/><path d="M424.329 145.01a.513.513 0 01-.077-.006l-7.657-1.188a.5.5 0 01-.358-.247l-3.3-5.809a.5.5 0 01.87-.494l3.181 5.6 7.034 1.091.639-1.492a.5.5 0 01.919.394l-.792 1.849a.5.5 0 01-.459.302z"/><path d="M428.752 144.642a.579.579 0 01-.415-.171 10.275 10.275 0 00-3.335-1.325.5.5 0 01.236-.972 12.76 12.76 0 013.588 1.4c.217-.138.6-.444.952-.72a24.976 24.976 0 0110.989-5.431c6.665-1.261 13.843.716 21.336 5.878a.5.5 0 11-.567.823c-16.981-11.7-27.636-3.259-31.137-.486-.407.322-.729.577-.981.743a1.3 1.3 0 01-.666.261z"/><path d="M441.592 140.639h-.227a4.089 4.089 0 01-2.708-.828c-.211-.241-.613-.9.213-1.835a.5.5 0 01.748.664c-.22.248-.29.42-.209.513a3.217 3.217 0 001.982.486h.224a4.257 4.257 0 001.839-.3c.779-.523 2.4-.422 4.271-.3a28.3 28.3 0 002.98.087 3.881 3.881 0 00.4-.037 4.6 4.6 0 00-.733-.471.5.5 0 01.458-.89 6.41 6.41 0 01.69.421c.381.27.874.69.758 1.222-.149.688-1.111.734-1.521.753a29.639 29.639 0 01-3.091-.088c-1.478-.092-3.153-.2-3.65.136a5.072 5.072 0 01-2.424.467zM432.513 151.478h-.03a.5.5 0 01-.47-.528 8.274 8.274 0 00-3.217-6.952.5.5 0 01.567-.824 8.883 8.883 0 011.945 2 9 9 0 011.7 5.83.5.5 0 01-.495.474z"/><path d="M434.361 151.215a.422.422 0 01-.049 0 .5.5 0 01-.449-.546 7.319 7.319 0 00-1.686-5.923 5.8 5.8 0 00-2.075-1.478.5.5 0 01.332-.943 6.776 6.776 0 012.479 1.745 8.286 8.286 0 011.945 6.7.5.5 0 01-.497.445z"/><path d="M420.143 137.221c.352 0 .637.252 2.25 1.823.887.863 1.99 1.936 3.036 2.827.155.112 1.45 1.043 2.853 1.962 2.689 1.762 3.35 1.9 3.473 1.9a.5.5 0 01.479.167c1.071 1.262 1.286 4.666 1.306 5.049a.5.5 0 01-.841.393c-.057-.054-5.78-5.388-8.789-6.358-1.452-.469-2.65-1.8-3.465-3.855a12.859 12.859 0 01-.841-3.333.553.553 0 01.15-.412.533.533 0 01.389-.163zm11.455 9.5c-.467-.066-1.4-.44-3.867-2.055a75.66 75.66 0 01-2.9-2l-.03-.024c-1.076-.915-2.2-2.007-3.1-2.885-.3-.291-.614-.6-.894-.863a12.835 12.835 0 00.573 1.864c.489 1.232 1.38 2.8 2.843 3.272 2.468.8 6.391 4.1 8.2 5.706a8.675 8.675 0 00-.825-3.013z"/><path d="M421.819 144.616a.5.5 0 01-.253-.069c-2.7-1.587-4.075-6.471-4.323-7.435a.64.64 0 01.239-.731c.373-.251.892-.085 2.054.658.646.413 1.236.849 1.261.867a.5.5 0 11-.595.8 20.067 20.067 0 00-1.805-1.19c.456 1.509 1.693 5 3.676 6.165a.5.5 0 01-.254.931z"/><path d="M419.312 144.217a.5.5 0 01-.32-.116c-2.318-1.934-3.857-6.773-3.741-7.831a.7.7 0 01.433-.6c.4-.16.94.031 1.854.664.546.378 1.02.775 1.04.792a.5.5 0 11-.643.766 10.428 10.428 0 00-1.658-1.163 13.871 13.871 0 00.845 2.715 10.308 10.308 0 002.512 3.886.5.5 0 01-.321.884z"/><path d="M416.935 143.82a.5.5 0 01-.372-.166c-1.356-1.51-3.9-5.543-3.956-7.314a.744.744 0 01.356-.685c.4-.241 1.037-.13 2.132.365.676.306 1.272.648 1.3.663a.5.5 0 01-.5.867 9.984 9.984 0 00-2.26-1c.258 1.457 2.264 4.867 3.673 6.437a.5.5 0 01-.372.834z"/></g><g fill="#7160b1"><path d="M413.834 184.405c-4.519 0-10.639-.053-11.028-.056a.5.5 0 01-.159-.027 6.518 6.518 0 01-2.3-1.529 5.957 5.957 0 01-1.454-5.646 7.322 7.322 0 013.292-5.176 5.723 5.723 0 012.83-.769h.049a.5.5 0 01-.005 1h-.044c-1.008 0-4.159.395-5.143 5.147a4.985 4.985 0 001.166 4.718 5.687 5.687 0 001.871 1.281c5.034.042 14.641.1 15.562 0 3.026-.32 4.386-2.224 4.043-5.658a5.564 5.564 0 00-2.793-4.584 6.238 6.238 0 00-2.415-.775.5.5 0 01.029-1h.03a7.215 7.215 0 012.849.9 6.557 6.557 0 013.3 5.355c.254 2.536-.343 4.409-1.773 5.567a6.005 6.005 0 01-3.16 1.184c-.428.054-2.366.068-4.747.068z"/><path d="M404.657 174.372h.01l13.069.265a.5.5 0 01.49.5v6.073a.5.5 0 01-.5.5h-13.2a.5.5 0 01-.5-.51l.132-6.337a.5.5 0 01.499-.491zm12.569 1.255l-12.08-.245-.111 5.327h12.191zM417.465 172.336h-.005l-12.541-.133a.5.5 0 01-.495-.5v-5.544a.5.5 0 01.495-.5l12.673-.132h.005a.5.5 0 01.5.511l-.132 5.809a.5.5 0 01-.5.489zm-12.041-1.127l11.552.122.109-4.8-11.661.121z"/><path d="M417.332 170.883h-12.145a.5.5 0 01-.5-.5.5.5 0 01.5-.5h12.145a.5.5 0 01.5.5.5.5 0 01-.5.5z"/><path d="M415.22 170.751a.5.5 0 01-.5-.5v-3.828a.5.5 0 01.5-.5.5.5 0 01.5.5v3.828a.5.5 0 01-.5.5zM413.108 170.619a.5.5 0 01-.5-.5v-3.828a.5.5 0 01.5-.5.5.5 0 01.5.5v3.828a.5.5 0 01-.5.5zM410.996 170.623a.5.5 0 01-.5-.5v-3.7a.5.5 0 01.5-.5.5.5 0 01.5.5v3.7a.5.5 0 01-.5.5zM408.751 170.487a.5.5 0 01-.5-.5v-3.564a.5.5 0 01.5-.5.5.5 0 01.5.5v3.564a.5.5 0 01-.5.5zM406.771 170.619a.5.5 0 01-.5-.5v-3.564a.5.5 0 01.5-.5.5.5 0 01.5.5v3.564a.5.5 0 01-.5.5z"/></g><g fill="#7160b1"><path d="M243.257 156.392h4.884a.5.5 0 01.5.5l.132 21.569a.5.5 0 01-.5.5h-5.017a.5.5 0 01-.5-.5v-21.569a.5.5 0 01.501-.5zm4.387 1h-3.887v20.569h4.013zM248.475 154.645h-5.553a.5.5 0 01-.5-.5.5.5 0 01.5-.5h5.553a.5.5 0 01.5.5.5.5 0 01-.5.5z"/><path d="M241.804 155.769a.5.5 0 01-.5-.5 1.621 1.621 0 011.618-1.619.5.5 0 010 1 .619.619 0 00-.618.619.5.5 0 01-.5.5z"/><path d="M241.803 156.169a.5.5 0 01-.5-.5v-.405a.5.5 0 01.5-.5.5.5 0 01.5.5v.405a.5.5 0 01-.5.5z"/><path d="M242.922 157.287a1.62 1.62 0 01-1.618-1.618.5.5 0 011 0 .619.619 0 00.618.618.5.5 0 010 1z"/><path d="M248.475 157.288h-5.553a.5.5 0 01-.5-.5.5.5 0 01.5-.5h5.553a.5.5 0 01.5.5.5.5 0 01-.5.5z"/><path d="M248.475 157.287a.5.5 0 010-1 .619.619 0 00.619-.618.5.5 0 011 0 1.621 1.621 0 01-1.619 1.618z"/><path d="M249.594 156.169a.5.5 0 01-.5-.5v-.405a.5.5 0 01.5-.5.5.5 0 01.5.5v.405a.5.5 0 01-.5.5z"/><path d="M249.594 155.769a.5.5 0 01-.5-.5.62.62 0 00-.619-.619.5.5 0 010-1 1.621 1.621 0 011.619 1.619.5.5 0 01-.5.5zM244.711 150.022h2.111a.5.5 0 01.5.5v3.652a.5.5 0 01-.5.5h-2.111a.5.5 0 01-.5-.5v-3.652a.5.5 0 01.5-.5zm1.611 1h-1.111v2.652h1.111zM258.612 116.363h-26.351a.5.5 0 01-.5-.5.5.5 0 01.5-.5h26.351a.5.5 0 01.5.5.5.5 0 01-.5.5z"/><path d="M230.586 118.041a.5.5 0 01-.5-.5 2.177 2.177 0 012.175-2.175.5.5 0 010 1 1.176 1.176 0 00-1.175 1.175.5.5 0 01-.5.5z"/><path d="M230.587 149.272a.5.5 0 01-.5-.5v-31.235a.5.5 0 01.5-.5.5.5 0 01.5.5v31.235a.5.5 0 01-.5.5z"/><path d="M232.261 150.947a2.177 2.177 0 01-2.175-2.174.5.5 0 011 0 1.176 1.176 0 001.175 1.174.5.5 0 010 1z"/><path d="M258.612 150.947h-26.351a.5.5 0 01-.5-.5.5.5 0 01.5-.5h26.351a.5.5 0 01.5.5.5.5 0 01-.5.5z"/><path d="M258.612 150.947a.5.5 0 010-1 1.176 1.176 0 001.174-1.174.5.5 0 011 0 2.177 2.177 0 01-2.174 2.174z"/><path d="M260.286 149.272a.5.5 0 01-.5-.5v-31.235a.5.5 0 01.5-.5.5.5 0 01.5.5v31.235a.5.5 0 01-.5.5z"/><path d="M260.286 118.041a.5.5 0 01-.5-.5 1.176 1.176 0 00-1.174-1.175.5.5 0 010-1 2.177 2.177 0 012.174 2.175.5.5 0 01-.5.5zM255.445 119.66h-20.678a.5.5 0 01-.5-.5.5.5 0 01.5-.5h20.678a.5.5 0 01.5.5.5.5 0 01-.5.5z"/><path d="M233.091 121.334a.5.5 0 01-.5-.5 2.177 2.177 0 012.174-2.175.5.5 0 010 1 1.176 1.176 0 00-1.174 1.175.5.5 0 01-.5.5z"/><path d="M233.093 146.5a.5.5 0 01-.5-.5v-25.166a.5.5 0 01.5-.5.5.5 0 01.5.5V146a.5.5 0 01-.5.5z"/><path d="M234.767 148.175a2.177 2.177 0 01-2.174-2.174.5.5 0 011 0 1.176 1.176 0 001.174 1.174.5.5 0 010 1z"/><path d="M255.445 148.174h-20.678a.5.5 0 01-.5-.5.5.5 0 01.5-.5h20.678a.5.5 0 01.5.5.5.5 0 01-.5.5z"/><path d="M255.445 148.175a.5.5 0 010-1 1.176 1.176 0 001.174-1.174.5.5 0 011 0 2.177 2.177 0 01-2.174 2.174z"/><path d="M257.119 146.5a.5.5 0 01-.5-.5v-25.166a.5.5 0 01.5-.5.5.5 0 01.5.5V146a.5.5 0 01-.5.5z"/><path d="M257.119 121.334a.5.5 0 01-.5-.5 1.176 1.176 0 00-1.174-1.175.5.5 0 010-1 2.177 2.177 0 012.174 2.175.5.5 0 01-.5.5zM237.317 184.902a.5.5 0 01-.5-.5v-2.666a.5.5 0 01.5-.5.5.5 0 01.5.5v2.666a.5.5 0 01-.5.5z"/><path d="M253.915 184.953a.544.544 0 01-.093-.008c-.441-.079-.473-.557-.494-.873-.027-.4-.03-1.056-.011-1.947a3.281 3.281 0 00-1.844-3.184c-.986.006-8.7.057-11.527 0h-.073a1.9 1.9 0 00-1.494.564 3.2 3.2 0 00-.566 2.179.5.5 0 01-.438.555.483.483 0 01-.059 0 .5.5 0 01-.5-.441 4.15 4.15 0 01.819-2.968 2.879 2.879 0 012.236-.892h.092c3 .062 11.518 0 11.6 0a.507.507 0 01.175.031 4.086 4.086 0 011.325.9 4.353 4.353 0 011.245 3.277c-.026 1.174-.006 1.7.014 1.936a.5.5 0 01.091.485.541.541 0 01-.498.386z"/><path d="M253.95 184.902h-16.633a.5.5 0 01-.5-.5.5.5 0 01.5-.5h16.633a.5.5 0 01.5.5.5.5 0 01-.5.5z"/></g><g fill="#7160b1"><path d="M218.572 153.38h3.692a.5.5 0 01.5.5v30.525a.5.5 0 01-.5.5h-3.692a.5.5 0 01-.5-.5V153.88a.5.5 0 01.5-.5zm3.192 1h-2.692v29.525h2.692z"/><path d="M218.572 164.735h3.692a.5.5 0 01.5.5v1.982a.5.5 0 01-.5.5h-3.692a.5.5 0 01-.5-.5v-1.982a.5.5 0 01.5-.5zm3.192 1h-2.692v.982h2.692zM211.572 153.38h3.7a.5.5 0 01.5.5v30.525a.5.5 0 01-.5.5h-3.7a.5.5 0 01-.5-.5V153.88a.5.5 0 01.5-.5zm3.2 1h-2.7v29.525h2.7z"/><path d="M211.572 164.735h3.7a.5.5 0 01.5.5v1.982a.5.5 0 01-.5.5h-3.7a.5.5 0 01-.5-.5v-1.982a.5.5 0 01.5-.5zm3.2 1h-2.7v.982h2.7z"/></g><g fill="#7160b1"><path d="M206.294 177.616h-10.165a.5.5 0 01-.5-.5.5.5 0 01.5-.5h10.165a.5.5 0 01.5.5.5.5 0 01-.5.5z"/><path d="M195.336 184.902a.5.5 0 01-.5-.478c0-.067-.071-1.69 0-5.322a2.873 2.873 0 01.53-2.109 1.109 1.109 0 01.75-.377h.013a.5.5 0 01.051 1c-.111.038-.393.374-.344 1.459v.033c-.07 3.605 0 5.259 0 5.275a.5.5 0 01-.478.521z"/><path d="M206.69 184.903h-11.353a.5.5 0 010-1h10.853v-4.408a.5.5 0 011 0v4.911a.5.5 0 01-.5.497z"/><path d="M206.69 179.992a.472.472 0 01-.069 0 .5.5 0 01-.427-.563 3.7 3.7 0 00-.1-1.852.5.5 0 01.391-.92c.493.2.744.77.767 1.744a8.117 8.117 0 01-.064 1.165.5.5 0 01-.498.426zM196.656 177.749a.5.5 0 01-.5-.437l-5.149-40.66a.5.5 0 01.5-.563h.007l17.954.264a.5.5 0 01-.007 1h-.008l-17.378-.255 5.077 40.089a.5.5 0 01-.433.559.464.464 0 01-.063.003z"/><path d="M205.235 177.749a.5.5 0 01-.5-.459c-.111-1.315 3.782-36.486 4.226-40.493a.5.5 0 01.5-.445h.056a.5.5 0 01.442.552c-1.732 15.621-4.286 39.244-4.223 40.3a.5.5 0 01-.457.54z"/><path d="M209.33 140.652h-.008l-17.558-.264a.5.5 0 01-.492-.508.5.5 0 01.508-.492l17.558.264a.5.5 0 01-.007 1zM203.654 157.946h-.024l-5.676-.264a.5.5 0 01-.477-.523.5.5 0 01.523-.477l5.677.264a.5.5 0 01-.023 1zM203.258 159.798h-.035l-5.808-.4a.5.5 0 01-.466-.534.5.5 0 01.534-.466l5.808.4a.5.5 0 01-.034 1z"/><path d="M206.69 140.124a.5.5 0 01-.5-.5v-3.168a.5.5 0 01.5-.5.5.5 0 01.5.5v3.168a.5.5 0 01-.5.5zM204.313 140.388a.5.5 0 01-.5-.5v-3.3a.5.5 0 01.5-.5.5.5 0 01.5.5v3.3a.5.5 0 01-.5.5zM201.541 140.256a.5.5 0 01-.5-.5v-3.3a.5.5 0 01.5-.5.5.5 0 01.5.5v3.3a.5.5 0 01-.5.5zM198.901 140.124a.5.5 0 01-.5-.5v-3.036a.5.5 0 01.5-.5.5.5 0 01.5.5v3.036a.5.5 0 01-.5.5zM196.129 140.124a.5.5 0 01-.5-.5v-3.168a.5.5 0 01.5-.5.5.5 0 01.5.5v3.168a.5.5 0 01-.5.5zM193.62 140.256a.5.5 0 01-.5-.5v-3.564a.5.5 0 01.5-.5.5.5 0 01.5.5v3.564a.5.5 0 01-.5.5z"/></g><g fill="#7160b1"><path d="M182.664 146.461h-2.244a.5.5 0 01-.5-.5.5.5 0 01.5-.5h2.244a.5.5 0 01.5.5.5.5 0 01-.5.5z"/><path d="M190.448 184.904a.5.5 0 01-.5-.5c-.005-1.025-.123-25.146 0-27.774a4.655 4.655 0 00-2.763-4.679c-1.509-.765-4.077-2.239-4.546-2.941a7.641 7.641 0 01-.48-3.053.5.5 0 01.5-.5.5.5 0 01.5.5 7.084 7.084 0 00.311 2.491 19.953 19.953 0 004.167 2.6 5.653 5.653 0 013.31 5.619c-.122 2.6 0 27.472 0 27.723a.5.5 0 01-.5.5z"/><path d="M190.453 184.903h-11.485a.5.5 0 01-.5-.5l.264-28.277v-4.88a.5.5 0 01.012-.11l1.188-5.281a.5.5 0 11.976.22l-1.176 5.227v4.829l-.26 27.777h10.98a.5.5 0 010 1z"/><path d="M179.368 157.737h.006c.386 0 9.482.11 11.13.267a.5.5 0 01.453.5v1.71a.5.5 0 01-.5.5h-.022c-.092 0-9.2-.4-10.89-.4h-.177a.5.5 0 01-.485-.378 6.373 6.373 0 01-.011-1.765.5.5 0 01.496-.434zm10.587 1.23c-2.1-.117-8.369-.2-10.13-.225a6.68 6.68 0 00-.013.578c1.915.027 8.254.293 10.143.374-.004-.216-.004-.476-.004-.726zM186.096 178.541h-6.733a.5.5 0 010-1h6.233v-11.674h-5.969a.5.5 0 010-1h6.469a.5.5 0 01.5.5v12.674a.5.5 0 01-.5.5z"/></g><g fill="#7160b1"><path d="M174.875 184.866l-20.2-.026a.5.5 0 01-.5-.5l.132-23.461a.5.5 0 01.5-.5l19.933.131a.5.5 0 01.5.5l.133 23.356a.5.5 0 01-.5.5zm-19.695-1.025l19.192.025-.127-22.359-18.938-.124z"/><path d="M168.671 161.512a.49.49 0 01-.08-.006.5.5 0 01-.415-.572l2.508-15.71a.5.5 0 01.556-.417l2.112.264a.5.5 0 01.435.551l-1.716 15.446a.5.5 0 01-.994-.11l1.662-14.956-1.143-.143-2.432 15.232a.5.5 0 01-.493.421z"/><path d="M172.103 153.322a.5.5 0 01-.432-.248 2.519 2.519 0 00-1.023-.155c-.079 0-.157 0-.233.006h-.029a.5.5 0 01-.028-1c.544-.033 1.846-.027 2.192.672a.5.5 0 01-.226.67.5.5 0 01-.221.055zM171.311 146.196a.5.5 0 01-.438-.259c-.455-.825-.659-3.667-.751-5.905a54.119 54.119 0 01.032-6.276 5.227 5.227 0 01.691-2.009 2.738 2.738 0 011.652-1.354c.771-.18 1.974.035 3.324 2.092 2.705 4.122-2.019 13.068-2.221 13.447a.5.5 0 01-.882-.471 33.772 33.772 0 002.056-4.929c1.1-3.435 1.176-6.028.211-7.5-.806-1.229-1.609-1.823-2.26-1.667-.813.191-1.452 1.451-1.579 2.508a53.275 53.275 0 00-.026 6.117c.141 3.448.426 5.1.627 5.463a.5.5 0 01-.437.741z"/><path d="M172.631 146.197a.5.5 0 01-.484-.627c.019-.07 1.849-7.063 1.964-9.8a.5.5 0 01.5-.479h.021a.5.5 0 01.479.521c-.119 2.84-1.919 9.716-2 10.007a.5.5 0 01-.48.378z"/><path d="M172.367 146.197h-.052a.5.5 0 01-.446-.549c0-.027.284-2.728.6-5.464.655-5.633.823-5.927.914-6.085a.5.5 0 01.88.475c-.241.651-.986 7.192-1.4 11.179a.5.5 0 01-.496.444z"/><path d="M171.97 146.066a.5.5 0 01-.5-.5c0-.34.026-8.343.271-9.724a.5.5 0 01.985.175c-.191 1.076-.25 7.26-.256 9.552a.5.5 0 01-.5.497zM162.069 161.512a.5.5 0 01-.5-.5V149.79a.5.5 0 01.5-.5h.018l3.564.131a.5.5 0 01.482.5v10.984a.5.5 0 01-1 0v-10.5l-2.564-.094v10.7a.5.5 0 01-.5.501z"/><path d="M165.37 155.042h-3.036a.5.5 0 01-.5-.5.5.5 0 01.5-.5h3.036a.5.5 0 01.5.5.5.5 0 01-.5.5zM165.634 150.949a.5.5 0 01-.384-.819 30.033 30.033 0 002.282-3.227c1.253-2.08 1.708-3.67 1.25-4.363-.314-.475-1.485-1.081-3.391-1.364a9.663 9.663 0 00-4.859.374 2.2 2.2 0 00-1.536 2.721c.89 4.178 3.541 5.588 3.568 5.6a.5.5 0 11-.458.889c-.126-.065-3.1-1.646-4.088-6.282a3.188 3.188 0 012.127-3.851 10.689 10.689 0 015.394-.441c2 .3 3.529.971 4.078 1.8.721 1.089.318 2.869-1.232 5.44a30.5 30.5 0 01-2.364 3.34.5.5 0 01-.387.183z"/><path d="M165.634 150.95h-.02l-3.3-.132a.5.5 0 01-.48-.52.5.5 0 01.52-.48l3.3.132a.5.5 0 01-.02 1zM164.973 149.234a.5.5 0 01-.386-.817c.767-.935 2-5.229 2.411-6.806a.5.5 0 01.968.252c-.157.6-1.562 5.916-2.606 7.188a.5.5 0 01-.387.183z"/><path d="M164.05 149.234a.5.5 0 01-.447-.723c.645-1.3.657-6.082.608-7.816a.5.5 0 111-.028c.019.664.16 6.534-.712 8.29a.5.5 0 01-.449.277z"/><path d="M163.126 149.365a.5.5 0 01-.455-.293c-.087-.19-.317-.7-.407-4.518-.044-1.845-.033-3.6-.033-3.612a.5.5 0 01.5-.5.5.5 0 01.5.5 46.568 46.568 0 00.351 7.71.5.5 0 01-.248.662.5.5 0 01-.208.051z"/><path d="M162.334 149.365a.5.5 0 01-.356-.149c-.291-.3-.752-1.055-1.4-4.23a68.468 68.468 0 01-.585-3.309.5.5 0 01.422-.567.467.467 0 01.073-.005.5.5 0 01.494.427c0 .016.236 1.592.577 3.258.617 3.015 1.023 3.614 1.133 3.726a.5.5 0 01-.356.851zM159.693 161.405a.5.5 0 01-.486-.384l-5.412-22.6a.5.5 0 01.37-.6.5.5 0 01.6.37l5.416 22.598a.5.5 0 01-.487.617z"/><path d="M157.581 161.405a.5.5 0 01-.484-.378c-.2-.808-4.973-19.8-5.162-22.288a.5.5 0 01.022-.188c.248-.784.639-1.23 1.163-1.324a1.074 1.074 0 01.2-.018 2 2 0 011.361.789.5.5 0 01-.788.616 1.082 1.082 0 00-.57-.4h-.022c-.068.012-.214.144-.355.548.293 2.782 5.077 21.829 5.125 22.023a.5.5 0 01-.485.622z"/><path d="M159.693 161.405h-2.112a.5.5 0 01-.5-.5.5.5 0 01.5-.5h2.112a.5.5 0 01.5.5.5.5 0 01-.5.5zM151.641 140.917a.5.5 0 01-.485-.379.5.5 0 01.364-.606l3.7-.924a.5.5 0 01.606.364.5.5 0 01-.364.606l-3.7.924a.5.5 0 01-.121.015zM152.301 143.425a.5.5 0 01-.484-.374.5.5 0 01.359-.61l3.564-.924a.5.5 0 01.61.359.5.5 0 01-.359.61l-3.565.923a.5.5 0 01-.125.016zM152.829 146.065a.5.5 0 01-.483-.371.5.5 0 01.354-.612l3.961-1.056a.5.5 0 01.612.354.5.5 0 01-.354.612l-3.961 1.056a.5.5 0 01-.129.017zM153.225 148.705a.5.5 0 01-.484-.375.5.5 0 01.359-.609l4.092-1.056a.5.5 0 01.609.359.5.5 0 01-.359.609l-4.092 1.056a.5.5 0 01-.125.016zM154.017 150.818a.5.5 0 01-.481-.363.5.5 0 01.344-.618l3.7-1.056a.5.5 0 01.618.343.5.5 0 01-.343.618l-3.701 1.057a.5.5 0 01-.137.019zM154.413 153.326a.5.5 0 01-.482-.367.5.5 0 01.349-.615l3.833-1.056a.5.5 0 01.615.349.5.5 0 01-.349.615l-3.833 1.056a.5.5 0 01-.133.018z"/></g><g fill="#7160b1"><path d="M463.799 206.585h9.371a.5.5 0 01.5.5v4.223a.5.5 0 01-.5.5h-9.371a.5.5 0 01-.5-.5v-4.223a.5.5 0 01.5-.5zm8.871 1h-8.371v3.223h8.371zM301.424 192.063h9.377a.5.5 0 01.5.5v34.188a.5.5 0 01-.5.5h-9.377a.5.5 0 01-.5-.5v-34.188a.5.5 0 01.5-.5zm8.877 1h-8.377v33.188h8.377z"/><path d="M301.424 206.585h9.377a.5.5 0 01.5.5v4.223a.5.5 0 01-.5.5h-9.377a.5.5 0 01-.5-.5v-4.223a.5.5 0 01.5-.5zm8.877 1h-8.377v3.223h8.377zM466.638 204.678a1.754 1.754 0 111.753-1.753 1.755 1.755 0 01-1.753 1.753zm0-2.507a.754.754 0 10.753.754.755.755 0 00-.753-.754zM468.619 200.058a2.024 2.024 0 111.886-2.02 1.958 1.958 0 01-1.886 2.02zm0-3.038a1.029 1.029 0 10.886 1.019.96.96 0 00-.886-1.017zM470.466 204.678a1.754 1.754 0 111.753-1.753 1.755 1.755 0 01-1.753 1.753zm0-2.507a.754.754 0 10.753.754.755.755 0 00-.753-.754zM470.466 220.447a1.753 1.753 0 11-1.754 1.753 1.755 1.755 0 011.754-1.753zm0 2.506a.753.753 0 10-.754-.752.754.754 0 00.754.752zM468.619 219.331a2.021 2.021 0 111.886-2.016 1.956 1.956 0 01-1.886 2.016zm0-3.032a1.026 1.026 0 10.886 1.017.959.959 0 00-.886-1.018zM466.638 220.447a1.753 1.753 0 11-1.753 1.753 1.755 1.755 0 011.753-1.753zm0 2.506a.753.753 0 10-.753-.752.754.754 0 00.753.752zM304.001 203.887a1.754 1.754 0 111.756-1.754 1.757 1.757 0 01-1.756 1.754zm0-2.507a.754.754 0 10.756.753.756.756 0 00-.756-.754zM305.983 199.267a2.023 2.023 0 111.886-2.019 1.958 1.958 0 01-1.886 2.019zm0-3.037a1.029 1.029 0 10.886 1.018.96.96 0 00-.886-1.018zM307.829 200.379a1.754 1.754 0 11-1.756 1.753 1.756 1.756 0 011.756-1.753zm0 2.507a.754.754 0 10-.756-.754.756.756 0 00.756.755zM307.829 219.651a1.753 1.753 0 11-1.756 1.753 1.756 1.756 0 011.756-1.753zm0 2.507a.753.753 0 10-.756-.754.756.756 0 00.756.753zM305.983 214.501a2.023 2.023 0 11-1.886 2.019 1.958 1.958 0 011.886-2.019zm0 3.037a1.029 1.029 0 10-.886-1.019.96.96 0 00.886 1.019zM304.001 219.651a1.753 1.753 0 11-1.756 1.753 1.756 1.756 0 011.756-1.753zm0 2.507a.753.753 0 10-.756-.754.756.756 0 00.756.753z"/></g><g fill="#7160b1"><path d="M98.359 8.167a.5.5 0 01.5.494l.924 74.72a.5.5 0 01-.5.506l-71.814.264a.5.5 0 01-.5-.495l-.792-74.851a.5.5 0 01.5-.505l71.682-.132zm.418 74.722l-.912-73.721-70.683.13.782 73.85z"/><path d="M74.333 60.916a.5.5 0 01-.267-.077l-10.587-6.693a.5.5 0 01-.155-.69.5.5 0 01.69-.155L74.6 59.993a.5.5 0 01-.268.923z"/><path d="M77.799 62.188a5.168 5.168 0 01-1.445-.22 7.847 7.847 0 01-2.325-1.154.502.502 0 01.607-.8 6.909 6.909 0 002.022 1 2.949 2.949 0 003.361-.915c.758-.929.824-2.972.172-5.332-.912-3.3-3.315-7.371-6.437-8.5-1.847-.668-3.175-.571-3.946.29a4.827 4.827 0 00-.786 3.559 13.073 13.073 0 001.242 4.475c.316.374.185.644.074.776-.294.348-.712.129-1.017-.032-.23-.121-.555-.309-.965-.558-.68-.414-1.612-1.007-2.769-1.763-1.967-1.284-3.935-2.613-3.955-2.626a.5.5 0 11.56-.829c1.729 1.168 4.957 3.31 6.7 4.375-1.087-2.85-1.371-6.323.17-8.044.736-.822 2.206-1.585 5.031-.562a9.878 9.878 0 014.431 3.662 17.69 17.69 0 012.63 5.512c.759 2.749.627 5.02-.362 6.231a3.739 3.739 0 01-2.993 1.455zM62.453 58.012a.5.5 0 01-.441-.263L46.435 28.838a.5.5 0 01.2-.677.5.5 0 01.677.2l15.58 28.914a.5.5 0 01-.44.737z"/><path d="M65.72 70.195a9.519 9.519 0 01-4.943-1.359 9.414 9.414 0 01-2.953-2.872 13.785 13.785 0 01-1.935-4.92c-.513-2.54-.211-4.217.9-4.987.87-.6 2.15-.6 3.8.007a12.794 12.794 0 012.124 1.023.5.5 0 01-.529.849c-.931-.58-3.616-1.9-4.83-1.057-.74.514-.909 1.886-.489 3.967.68 3.363 2.169 5.764 4.427 7.136a8.646 8.646 0 006.563.933 1.6 1.6 0 001.095-.8c.437-.922-.218-2.446-.609-3.356a6.646 6.646 0 01-.3-.778c-.181-.668-4.184-8.918-6.83-14.3a.5.5 0 01-.036-.342 16.226 16.226 0 00.3-4.368 15.581 15.581 0 00-3.245-8.8c-4.646-5.86-9.423-7.083-11.074-7.083-.088 0-.167 0-.237.01h-.046a.5.5 0 01-.045-1 10.146 10.146 0 014.932 1.308 22.276 22.276 0 017.255 6.14 16.579 16.579 0 013.461 9.4 17.59 17.59 0 01-.29 4.449c.964 1.96 6.565 13.376 6.82 14.322a6.745 6.745 0 00.256.644c.458 1.066 1.225 2.849.594 4.18a2.563 2.563 0 01-1.723 1.332 8.874 8.874 0 01-2.413.322zM72.957 49.181a4.9 4.9 0 013.508 2.243 11.827 11.827 0 011.765 3.574 2.662 2.662 0 01-.106 1.886 1.309 1.309 0 01-.526.546l-.033.015a2.781 2.781 0 01-1.045.189 3.6 3.6 0 01-2.193-.8 7.96 7.96 0 01-2.3-3.362c-.7-1.716-.813-2.95-.33-3.669a1.464 1.464 0 011.26-.622zm4.195 7.352a.609.609 0 00.167-.345c.1-.486.011-1.679-1.684-4.207a4.007 4.007 0 00-2.677-1.8.46.46 0 00-.435.184c-.1.15-.368.792.426 2.732 1.259 3.077 2.777 3.537 3.57 3.537a1.9 1.9 0 00.633-.101z"/><path d="M64.818 67.059a5.368 5.368 0 01-2.947-1.4 15.23 15.23 0 01-1.777-1.617c-1.161-1.354-1.6-3-1.1-4.091a1.731 1.731 0 011.641-1.025 5.365 5.365 0 013.35 1.787c1.96 1.86 2.836 3.449 2.605 4.722a2.109 2.109 0 01-1.171 1.514l-.014.006a1.62 1.62 0 01-.587.104zm-4.183-7.133a.732.732 0 00-.732.443c-.276.6-.1 1.8.949 3.022.4.471 2.729 2.668 3.966 2.668a.648.648 0 00.215-.033 1.1 1.1 0 00.576-.786c.087-.518-.1-1.7-2.312-3.8-1.387-1.317-2.263-1.514-2.662-1.514zM57.122 51.473a24.734 24.734 0 01-5.419-.594 24.079 24.079 0 01-7.739-3.244c-2.249-1.441-4.17-4.072-5.711-7.819a32.026 32.026 0 01-1.636-5.168c-.123-.531-.056-.879.205-1.064a.6.6 0 01.684.006c3.022 1.939 19.284 12.682 19.448 12.791a.5.5 0 11-.551.834c-.153-.1-14.4-9.514-18.7-12.306a32.7 32.7 0 001.482 4.543c1 2.438 2.741 5.689 5.319 7.341a23.366 23.366 0 0014.349 3.619h.035a.5.5 0 01.034 1q-.903.061-1.8.061z"/><path d="M60.301 51.469a.862.862 0 01-.524-.161 3.56 3.56 0 01-1.041-2.791 1.212 1.212 0 011.161-.879.7.7 0 01.078 0c.617 0 1.011.648 1.253 1.136a7.459 7.459 0 01.371.9 1.175 1.175 0 01-.087 1.13 1.523 1.523 0 01-1.211.665zm-.355-2.83c-.207.029-.231.1-.242.134-.137.4.389 1.4.637 1.692a.545.545 0 00.333-.205.186.186 0 000-.2.5.5 0 01-.02-.051 3.691 3.691 0 00-.708-1.367zM46.217 62.5a.5.5 0 01-.3-.1l-2.64-1.98a.5.5 0 01-.094-.707l7.618-9.777a.5.5 0 11.789.614l-7.305 9.375 1.832 1.374 8.038-10.759a.5.5 0 01.8.6l-8.338 11.161a.5.5 0 01-.4.2zM60.758 39.997a.5.5 0 01-.334-.128.5.5 0 01-.038-.706L76.47 21.27a.5.5 0 01.706-.038.5.5 0 01.038.706L61.13 39.832a.5.5 0 01-.372.165z"/><path d="M86.219 31.874a.5.5 0 01-.393-.19c-.068-.085-6.785-8.582-7.627-9.471a.847.847 0 00-.746-.325.8.8 0 00-.3.114.5.5 0 01-.61-.793 1.751 1.751 0 012.384.317c.873.921 7.408 9.187 7.686 9.539a.5.5 0 01-.392.81z"/><path d="M72.881 44.415a.5.5 0 01-.326-.121l-6.245-5.371-4.04 4.124a.5.5 0 01-.714-.7l4.368-4.458a.5.5 0 01.683-.029l5.972 5.136-4.084-6.607a.5.5 0 01.733-.657l5.4 4.211-3.868-5.373a.5.5 0 01.725-.677l5.113 4.243-3.741-5.832a.5.5 0 01.744-.651l4.88 4.137-3.639-5.458a.5.5 0 01.744-.655l4.339 3.774-3.368-5.1a.5.5 0 01.754-.645l4.9 4.47-3.425-6.1a.5.5 0 01.763-.623l6.387 5.51a.5.5 0 01.636.766l-.264.264a.5.5 0 01-.68.025l-4.575-3.947 2.83 5.04a.5.5 0 01-.158.661l-.4.264a.5.5 0 01-.615-.047l-3.1-2.831 2.4 3.638a.5.5 0 01-.063.628l-.264.265a.5.5 0 01-.682.024l-3.262-2.837 2.423 3.634a.5.5 0 01-.063.631l-.4.4a.5.5 0 01-.677.027l-3.525-2.988 2.685 4.185a.5.5 0 01-.067.623l-.4.4a.5.5 0 01-.673.032l-3.193-2.649 2.465 3.424a.5.5 0 01-.052.646l-.4.4a.5.5 0 01-.661.041l-4.4-3.433 3.021 4.888a.5.5 0 01-.072.616l-.528.528a.5.5 0 01-.341.134zM65.753 37.681a.5.5 0 01-.369-.837c.087-.1 8.764-9.621 10.291-11.348a4.659 4.659 0 011.932-1.464 1.163 1.163 0 01.949.049.5.5 0 01-.469.881h-.017c-.116 0-.649.071-1.646 1.2-1.532 1.732-10.213 11.263-10.3 11.359a.5.5 0 01-.371.16z"/></g><path d="M497.105 354.849H63.241a.5.5 0 01-.5-.5.5.5 0 01.5-.5h433.864a.5.5 0 01.5.5.5.5 0 01-.5.5z" fill="#7160b1"/><g fill-rule="evenodd"><path d="M217.757 350.641s4.051 8.395 16.1 13.333c4.625 4.7 5.91 9.53 2.64 10.562s-20.013 3.78-27.59-2.112-16.615-18.239-13.2-21.519 22.05-.264 22.05-.264z" fill="#b8d170"/><path d="M234.522 365.427c4.624 4.7 5.25 8.077 1.98 9.109s-20.013 3.779-27.59-2.113-16.615-18.239-13.2-21.519c7.992-7.677-.537 2.947 6.205 7.922 4.288 3.164 11.561 13.089 19.8 13.992 4.088.45 11.563-7.901 12.805-7.391z" fill="#f8f7e6"/><path d="M159.013 357.638s9.728 15.681 6.073 17.69c-3.507 1.927-18.986 4-25.346-2.113-1.905-1.138-.391-4.594.924-6.2s3.828-8.185 3.828-8.185z" fill="#b8d170"/><path d="M164.953 369.387s2.3 4.2.132 5.941c-3.12 2.5-20.021 3.577-25.082-1.716-2.124-2.221-1.236-3.231-.415-4.9 1.549-3.147 4.9 2.391 4.9 2.391z" fill="#f8f7e6"/><path d="M199.671 356.846s15.8 16.332 20.461 17.029 16.759-.459 17.822-3.83c.519-1.187-1.9-3.429-3.961-5.147s-17.6.884-20.066 3.168c-1.6-.429-14.256-11.22-14.256-11.22zM139.211 369.519s.68 5.28 15.181 5.016c11.892-.215 11.373-2.747 10.825-4.488-.476-1.512-3.168-2.531-5.94-3.3s-17.013-1.125-19.141.923a9.043 9.043 0 00-.925 1.849z" fill="#97ab54"/><path d="M151.677 179.683s-2.941 5.513 10.9 34.323c13.969 29.076 44.453 85.324 50.561 98.747 5.918 13.006 9.81 39.287 9.5 40.528s-14.073 10.258-36.831-.792c-5.835-19.505-16.822-54.8-22.706-70.23-3.18-8.341-14.277-35.312-16.105-39.341-1.222-2.695-9.955-24.973-10.428-29.307a16.8 16.8 0 00-1.98-1.188s10.964 49.332 13.2 57.03 23.5 78.8 27.722 86.6c-.983 5.236-33.4 9.607-39.867 3.3-5.325-5.2-12.761-35.6-14.257-52.937-1.521-17.623-8.608-84.7-9.241-90.694-.484-4.584-5.614-32.272-1.823-40.226.273-.571.616-3.016 1.339-3.181 8.724-1.978 40.016 7.368 40.016 7.368z" fill="#69485e"/><path d="M132.214 210.835l12.541 3.7s-3.867 2.141-12.541-3.7zM140.002 215.987s5.287 5.84 6.336 5.676-4.939-5.588-6.336-5.676zM170.232 347.604s-19.659 12.54-39.6.133c-4.08-4.266 12.165 5.659 21.781 4.092 7.535-1.23 15.647-3.249 17.819-4.225zM185.282 344.7s13.161 10.263 29.659 4.955c4.315-1.388 5.631-2.1 5.324-2.446-.934-1.054-14.139 4.306-20.858 2.244-8.843-2.714-14.125-4.753-14.125-4.753z" fill="#4a2e40"/><path d="M154.522 166.958s-2.046 9.953-3.014 13.561c-1.511 2.4-26.1-1.016-40.849-6.193.778-3.021.5-12.891.5-12.891z" fill="#382012"/><path d="M135.909 167.669a7.725 7.725 0 11-7.787 7.724 7.755 7.755 0 017.787-7.724z" fill="#bcbcbd"/><path d="M135.842 169.068a6.141 6.141 0 11-6.14 6.141 6.14 6.14 0 016.14-6.141z" fill="#69485e"/><path d="M135.975 172.394a2.692 2.692 0 11-2.179 2.642 2.444 2.444 0 012.179-2.642z" fill="#4a2e40"/><path d="M84.544 134.65s7.749-30.344 10.839-32.325 16.272-9.6 23.63-10.429 15.5-2.062 23.366-1.188c6.864.762 12.409 1.848 12.409 1.848s3.646-.31 7 5.809c3.5 6.389 15.033 25.068 16.105 26.271s-15.163 10.015-15.163 10.015-1.332 14.642-4.353 21.931a73.252 73.252 0 00-3.683 11.217s-9.421 2.237-43.527-5.525c-.271-6.364-.852-14.157-1.842-21.931-.656 2.365-.8 2.085-1.339 4.186-10.968-10.736-23.442-9.879-23.442-9.879z" fill="#b8d170"/><path d="M108.208 140.963s-4.532-11.088-21.2-9.391c-2.055.21.975-.226.379-.288-4.238-.441 19.15-3.335 20.821 9.679zM98.104 100.998s12.948-1.945 17.411 12.725c1.19 3.432.837 8.537.837 8.537s2.784-24.771-18.248-21.262zM116.185 122.931a13.118 13.118 0 00-1.507 2.678c-1.971 4.632-4.79 13.192-6.027 16.909-1.431 4.296 4.176-18.574 7.534-19.587z" fill="#97ab54"/><path d="M119.7 125.943s-5.737 1.914-6.027 1.674 4.369.668 5.358-.5.669-1.174.669-1.174zM150.827 100.343a66.808 66.808 0 0111.617 34.06c-.945 5.279 4.342-19.807-11.617-34.06z" fill="#97ab54"/><path d="M157.164 100.476s.8 7.656-.264 7.657.535-2.813.264-7.657zM134.722 92.026s7.139 3.181 6.2 8.184-5.311 7.293-11.089 6.469-14.423-7.9-12.937-12.805-6.559 7.248 11.089 13.069c5.747 1.9 11.238-.84 12.409-3.168a8.131 8.131 0 00.924-5.809c-.476-1.35-2.872-5.611-6.596-5.94z" fill="#97ab54"/><path d="M119.145 93.479a10.628 10.628 0 005.94 7.657c5.353 2.632-8.727-2.383-5.94-7.657zM175.381 122.654s-10.132 3.691-12.409 7.92 1.021-6.304 12.409-7.92z" fill="#97ab54"/><path d="M253.464 81.411s-1.9-.148-2.512 2.344-5.022 25.28-5.022 25.28l-9.375 31.139s-.889 2.219 1 2.511 7.869.335 7.869.335a1.929 1.929 0 001.172-2.01c-.265-5.423 6.737-29.955 7.031-31.138l8.036.167.167-.669-7.7-2.176 8.036-.167.167-.67-7.7-2.008 8.036.168.167-.838-7.868-2.176 8.2.335.168-.837-7.868-1.842 8.036.335.167-.837-7.7-2.177 7.868.669.168-.836-7.534-2.344 7.868.335.167-.836-7.366-2.01 7.533.669.167-1-7.2-2.008 7.366.67.167-.837-7.031-2.177 7.2.5.168-.669-7.031-2.009s4.351.4 7.031.5a5.313 5.313 0 00.335-.837z" fill="#fde48b"/><path d="M250.952 83.757c-.822 2.428-5.022 25.28-5.022 25.28l-9.208 30.468s-.722 1.216 1.172 1.506 7.2.335 7.2.335 1.681-.1 1.507-1.674c-.15-1.36 6.737-28.616 7.031-29.8 0 0-1.211-.151-1.842-.167-.266-.007 5.173-25.226 4.855-25.279-.353-.06-4.99 25.432-5.357 25.279-1.629-.675-3.846-2.6-3.013-7.031 1.6-8.517 3.986-22.786 2.677-18.917z" fill="#e24b27"/><path d="M177.625 124.369s-9.126 2.479-14.9 10.279c.1 2.6-1.032 9.618-1.172 10.715-.135 1.052 9.108 13.575 12.556 16.239 2.824 2.182 11.738-.536 18.249-2.678s42.331-22.768 42.691-23.271a6.632 6.632 0 002.678.837c2.375-6.944 6.969-16.542 7.178-23.258.016-.5-1 .1-1.486.155 2-1.084 4.064-3 4.018-4.854-.927-8.377-3.041-2.784-5.525-.837a16.622 16.622 0 00-5.524 6.864c-2.07 4.048-7.845 7.729-10.213 8.705-1.186.49-29.582 6.623-35.826 9.877-3.689 1.923-4.8 1.556-5.357.837-.482-.626-7.367-9.61-7.367-9.61zM246.599 135.151c-.034.869 1.077 1.136 1.842 1 3.671-.629 8.388-1.761 9.208-3.181 1.536-2.664 1.62-5.949-2.344-4.856 1.358-1.247 1.291-4.476 1.172-5.859a8.814 8.814 0 003.683-2.512c1.665-1.859 1.956-6.194-.168-7.2-1.553-.508-4.149-.269-6.194 0-.27-.044-.676-.085-.837.167-.4.624-.366 2.129-.837 3.181-.171.381-2.709.562-4.018 2.847-.78 1.363-1.778 4.183.335 4.52-4.741 1.236-5.8 2.078-6.7 4.352-.815 2.067-1.592 3.111 7.2 2.847a4.864 4.864 0 00-2.342 4.694z" fill="#f8f7e6"/><path d="M260.493 119.581s-1.132 2.474-6.7 3.516c-3.584.7-6.133.228-6.53-.334-.628-.894-.311-3.216 1-4.688a4.576 4.576 0 011.842-1.507 37.866 37.866 0 016.195-1.506 42.543 42.543 0 00-5.86 1.842 4.128 4.128 0 00-1.674 1.507c-.932 1.189-1.6 3.929-1 4.353.568.4 2.848.524 4.688.167 3.638-.707 7.7-1.449 9.04-6.528.35 1.061-1 3.18-1 3.18zm-16.45-6.7a6.508 6.508 0 002.89-4.015c.245-1.951-.227-4.213-1-5.022.81.048 1.674 2.679 1.674 2.679.506 6.555-5.413 7-3.56 6.358zm-3.806 12.225c6.458-4.353 3.348-11.719 3.348-11.719a24.8 24.8 0 010 6.194c-.243 1.352-4.1 7.1-7.2 6.864.516.367 1.967-.07 3.85-1.339zm-8.966 8.551c.125.3 2.262 2.818 2.262 2.818-1.757-.591-2.388-3.112-2.262-2.818zm-49.8 8.022c-.433 3.612-1.9-7.095 5.189-7.2a8.479 8.479 0 00-5.189 7.2zm3.013-8.2c.567.552-6.864-9.109-6.864-9.109s-9.294 2.48-15.067 10.28c.1 2.6-1.032 9.786-1.172 10.881-.135 1.053 11.324 16.693 14.063 16.741-.742-.779-.726-3.756-2.824-7.855-4.207-7.812-7.931-18.157-2.26-23.71 3.867-3.787 7.6-2.885 10.165-.792a46.321 46.321 0 013.96 3.564z" fill="#d5d0a7"/><path d="M256.142 113.387s-1.313 1.807-1.172 2.009-.514-.2-.335-.67 1.251-1.381 1.507-1.339zM249.446 123.264s-6.047.906-7.366 4.019c-.769 1.813-.169 2.476 0 2.51s7.565 2.185 12.891-1.841a17.286 17.286 0 001.506-2.511s-.2 2.024-1 2.679c-.705.577-7.535 4.5-14.062 1.842a4.074 4.074 0 01.836-3.851 9.651 9.651 0 017.195-2.847z" fill="#ebe7c8"/><path d="M248.102 136.155a1.24 1.24 0 01-.837-.5c-.615-.819-.968-2.56 1.339-4.854.6-.841-1.013.787-1.506 1.339-.415.466-1.662 4.599 1.004 4.015z" fill="#ecb2c5"/><path d="M232.37 132.641s2.471 3.091 3.684 3.181-2.522 1.059-3.684-3.181z" fill="#ebe7c8"/><path d="M84.878 134.649c.714-.609 14.494-1.821 23.1 9.835-2.274 9.863-7.778 23.66-11.717 27.665-8.9 9.049-18.151 5.653-23.27 2.679s-31.626-28.476-35.659-33.316c-1.233-1.293-1.91-1.152-3.683-1.507-7.475-1.852-14.216-5.519-18.248-7.533-.82-.626-10.333-9.311-11.217-11.719a2.9 2.9 0 01-.67-1.507 29.376 29.376 0 01-3.516-3.516c2.485-4.861 8.54 1.342 9.71.67 1.669-.959 15.375 2.375 19.754 2.009-.714-1.966-.845-2.138-2.678-2.511-5.636-1.235-5.079-11.632-1.841-11.385a10.233 10.233 0 004.185 5.86c2.267 1.682 6.148 2.7 7.2 3.181 2.226 1.02 4.955 1.736 8.2 9.542 1.512 3.635-.062 4.908 1.841 6.7 1.57 1.477 7.333 4.254 14.732 8.372 6.685 3.719 16.323 7.152 18.583 10.044a.883.883 0 001.172-.5c2.137-4.719 3.43-11.598 4.022-13.063z" fill="#f8f7e6"/><path d="M86.107 155.501c-.513-2.407-6.419-7.293-6.419-7.293 6.3 2.176 6.931 9.7 6.419 7.293zm-63.841-26.88c-4.028.2 13.055-3.977 19.276 5.1-.426-.579-4.694-5.807-19.276-5.1zm19.313 5.153l-.037-.053c.012.019.025.035.037.053zm-12.282-15.365c.194.012-.348 2.037.67 3.684a12.308 12.308 0 003.85 3.348 11.124 11.124 0 01-3.348-3.348c-.533-1.093-.837-5.19-.837-5.19a2.849 2.849 0 00-2.176-1c-.289.046 1.965.695 1.842 2.511zm-15.57 1.172c-3.586-3.149-10.151-5.738-9.543-5.691 1.027.079 6.286 2.288 9.71 5.022a47.588 47.588 0 007.534 5.692s-3.169-1.042-7.7-5.023zm-3.94-.434c-4.321-3.733-7.077 1.219-5.77.1 2.051-1.757 3.839-.716 5.19.167.269.175 3.839 3.674 5.022 4.854 1.688 1.684 6.7 3.851 6.7 3.851-.159-.184-5.252-3.134-6.7-4.52-1.69-1.621-4.239-4.275-4.442-4.452zM45.369 128.621s.675 2.5 0 2.846-.116-2.038 0-2.846zM35.826 140.341s3.706-.59 3.85-1.172a2.731 2.731 0 01-3.85 1.172z" fill="#d5d0a7"/><path d="M22.768 120.921a11.167 11.167 0 00-1.841 3.348 5.8 5.8 0 000 3.517c.944 2.551-3.457-3.07 1.841-6.865z" fill="#d5d0a7"/><path d="M119.409 93.874s4-37.061 2.64-39.208c-1.893.042-4.044-3.825-4.356-5.94-.231-1.568-.241-6.7 2.641-6.469a3.107 3.107 0 013.036 3.3c.125 2.005.924-1.056.924-1.056l-.264-4.752 1.584-.924-.528-9.241 11.617-5.544 13.861 1.848.264 2.112s6.9 21.155 3.828 39.076c-3.18 10.636-18.313 10.232-19.406 9.5-.086 1.885-1.327 12.118 0 16.634 2.651 2.909 4.347 6.864 1.188 9.373-3.46 2.752-18.77-2.987-17.029-8.709z" fill="#f8f7e6"/><path d="M123.633 66.284s4.465 9.481 11.617 10.43c-.27 4.263-.347 6.268-.528 8.713s.434 13.076.4 12.278c-.635-13.252-10.561-27.724-10.561-27.724s-1.444-3.936-.928-3.697z" fill="#d5d0a7"/><path d="M124.029 48.462c-.011-.053-.734-6.845-3.856-6.143-.2-1.415-.9-9.962-.9-9.962s-.757-3.6 1.452-5.81c2.325-2.324 9.077-4.686 10.3-4.884a14.076 14.076 0 01-.924-14.257C133.764.039 142.77-.072 145.678.013c3.011.087 14.735 1.076 14.653 13.729-.062 9.6-3.658 12.453-5.94 13.6.247.978.659 6.933-1.188 9.242-.67-1.646-2.112-8.317-2.112-8.317s-8.971 1-14.521 0c-4.5-.814-9.878 1.969-10.825 3.96-.461.97 1.939 5.548-.132 7.393s-.243 6.931-.4 8.448c-.07.741-1.184.394-1.184.394z" fill="#724527"/><path d="M131.818 21.795s13.291 4.957 12.937-5.413a4.787 4.787 0 00-3.433-3.3s6.173.971 4.753 5.412-5.354 8.434-14.257 3.301z" fill="#3a2115"/><path d="M153.599 40.145c-.428-1.129-5.94-1.716-5.94-1.716l.528-2.772a31.9 31.9 0 015.281 2.244s.56 3.372.132 2.245zm-5.544 7c-2.715-3.167-1.98-7.656-1.98-7.656-.907 4.622.9 6.909 1.056 7.261s-2.112.131-2.112.131-.469.643-.132.793 3.591.29 3.168-.529zm-10.38 2.908a3.706 3.706 0 00-.841.657c-.131.275-.264-.66-.264-.66s1.771-1.368 2.376-.792c0 0-.654.389-1.235.771.368.956 2.03 4.3 6.648 2.133.417.145.4.923.4.923s-5.985 2.412-7.08-3.033zm1.139-6.667c0 1.056-.5 1.914-1.123 1.914s-1.124-.858-1.124-1.914.5-1.914 1.124-1.914 1.123.856 1.123 1.914zm-7.261-.994l8.977-4.356a22.525 22.525 0 01-.132-2.641c.069-.634-7.994 4.085-8.713 5.016l-.132 1.98zm-10.957 2.376c.428-.085 1.084 1.67 1.4 2.6-.518-1.087-1.891-2.5-1.4-2.6zm1.584 3.169a1.846 1.846 0 00-.184-.565c.114.334.184.565.184.565zm27.261-6.207c.618 0 1.12.856 1.12 1.914s-.5 1.913-1.12 1.913-1.121-.856-1.121-1.913.503-1.917 1.122-1.917z" fill="#724527"/></g><g><g transform="translate(245.625 34.257)"><path d="M142.148 255.456s-5.983-.9-6.137 6.71-.287 48.671-.287 48.671l35.684 1 .14-50.1s.377-6.1-4.851-6.291-24.549.01-24.549.01z" fill="#6a465c" fill-rule="evenodd"/><path d="M145.72 217.899v37.55l15.839.433.287-40.122zM179.115 270.869v3.837h-52.38l-.14-4.571zM188.967 319.687l-70.815.454s-2.132-10.953 7.689-11.7 57.094-.287 57.094-.287 7.563 2.656 6.032 11.533z" fill="#4a2e40" fill-rule="evenodd"/><path d="M64.678 194.916h56.968a11.631 11.631 0 0111.631 11.631 11.631 11.631 0 01-11.631 11.631H64.678a11.631 11.631 0 01-11.631-11.631 11.631 11.631 0 0111.631-11.631z" fill="#246f68"/><path d="M117.634 194.874h82.9a11.68 11.68 0 0111.68 11.673 11.673 11.673 0 01-11.68 11.673h-82.9a11.673 11.673 0 01-11.673-11.673 11.673 11.673 0 0111.673-11.673z" fill="#368c84"/><path d="M142.708 133.244l-.629 9.59-76.016 12.281-6.291-1.51s.266-15.322 18.46-17.705c8.248-.4 24.241 1.4 38.375.329 14.285-1.105 26.094-3.005 26.101-2.985z" fill="#6a465c" fill-rule="evenodd"/><path d="M84.061 137.38c8.276-1.1 20.851 1.5 32.58 1.027 11.925-.482 21.865-2.628 23.766-2.5.993 3.691-2.1 16.937-2.1 16.93l-72.245 2.279s1.929-15.609 17.999-17.736z" fill="#4a2e40" fill-rule="evenodd"/><path d="M212.215 189.429s-2.377 5.214-5.976 5.431c-2.684.161-13.281.042-20.634 0 7.256-.384 12.016-7.095 13.029-8.87 1.8-8.346 30.015-78.986 27.876-89.779-1.216-1.111-1.4-1.272-.182-1.81 4.292-1.9 13.365 2.8 12.128 7.969-16.008 57.296-26.241 87.059-26.241 87.059z" fill="#246f68" fill-rule="evenodd"/><path d="M121.716 194.874c4.243 1.363 66.125 0 66.125 0a12.952 12.952 0 0010.792-8.884c1.747-4.683 18.174-46.833 24.982-73.31 7.332-22.2 2.719-18.279 2.719-18.279a51.725 51.725 0 01-22.452 7.374c-13.693 1.035-36.215-4.124-38.549-5.054-3.2-.363-11.764-1.992-14.12 5.054-6.332 18.943-4.347 14.891-29.497 93.099z" fill="#368c84" fill-rule="evenodd"/><path d="M231.941 141.297l-15.021 12.484s-39.207 5.962-56.115 10.135c-2.055-.559-6.878-1.636-6.878-1.636s4.641-20.9 32.405-21.9c15.944-.573 15.329 0 25.52-.7 4.495-.335 8.248-1.922 9.954-2.174a11.484 11.484 0 0110.135 3.791z" fill="#6a465c" fill-rule="evenodd"/><path d="M220.358 141.478s10.324-4 11.582.363c-1.007 5.732-5.068 16.468-5.068 16.468l-66.061 5.59a39.148 39.148 0 0121.536-18.649c7.85-2.866 18.873-2.377 27.331-2.349a40.856 40.856 0 0010.68-1.423z" fill="#4a2e40" fill-rule="evenodd"/><g fill-rule="evenodd"><path d="M114.286 120.665s11.589-12.708 15.021-16.294c4.767-4.977 13.281-8.143 21.725-7.242 2.363.182 1.664-.538 8.143 0 7.444.622 5-1.72 7.06 3.984.608 1.272 3.439-1.083 3.439-1.083s6.724 1.8 12.128 9.408c4.536 6.4 3.124 17.37-2.167 24.465-4.683 6.249-7.787 9.6-7.787 9.6a31.728 31.728 0 00-12.309 8.143c-4.942 2.7-13.616 2.726-20.453-.182-11.883-4.746-10.862-19.187-10.862-19.187s-.37-3.187-4.522-6.878c-2.755-2.5-9.416-4.734-9.416-4.734z" fill="#f8e6e6"/><path d="M143.245 115.591a4.942 4.942 0 01-2.894-2.537c-.426-.846-.273-4.676.363-6.333 1.251-3.25 1.713-5.969 7.78-11.408a17.173 17.173 0 0112.128-.7c5.026 1.356 7.13-1.042 10.135 5.431a10.914 10.914 0 01.517 2.006s.839 7.514-.7 10.674c-2.936 1.342-4.522 1.7-10.485 7.242a11.981 11.981 0 00-7.43-1.838 2.866 2.866 0 00-2.533 2.363c-.084.238-4.578 11.142-5.249 15.021-1.083-.5-4.005-.182-5.068-1.447.4-8.248 4.5-14.3 5.431-17.559.172-.624-1.995-.915-1.995-.915z" fill="#f5d1d1"/><path d="M159.902 121.928a17.118 17.118 0 01-1.09 3.076c-1.866 3.39-7.06 7.242-7.06 7.242a55.618 55.618 0 006.522-7.423c.594-.917 1.265-2.925 1.628-2.895zM163.733 148.078s12-13.56 13.91-15.65c3.131-3.454-8.465 11.945-13.91 15.65z" fill="#f1b6b6"/><path d="M178.725 134.056s-3.076 1.517-3.076.9-.545.7-.545.7a6.445 6.445 0 003.621-1.6zM158.994 124.101s1.4-5.592 5.068-8.688a13.1 13.1 0 018.502-3.071c.564.247-6.839-.815-13.57 11.759zM154.394 129.17s9.227 1.531 12.973 15.79c.594-.594.559-.741.769-.867.853-.513-4.48-14.441-13.742-14.923zM116.642 117.941s9.087 1.622 11.946 7.423a16.114 16.114 0 000-2.174c-2.223-2.38-7.927-5.819-11.946-5.249z" fill="#f1b6b6"/><path d="M132.935 111.611s-1.615 3.8-3.076 8.689c-1.4 4.746-1.4 15.769-1.09 17.377.671 3.264-4.187-14.603 4.166-26.066z" fill="#f1b6b6"/><path d="M128.573 112.75s1.4 4.97 2.006 4.977-1.398 1.936-2.006-4.977zM147.694 118.419s-1.356 3.285-2.551 6.578-2.2 6.529-2.2 6.529l-.7-.461c-.472.02 3.868-11.227 5.451-12.646zM154.716 95.946a8 8 0 00-1.852 3.1c-.127.717 1.635-2.66 1.852-3.1zM167.179 98.889s-.112 3.7-.923 4.788 1.825-2.216.923-4.788z" fill="#f1b6b6"/></g><g fill-rule="evenodd"><path d="M56.731 262.754s-2.887 11.743-7.081 16.287c-2.1 2.293-8.514 2.621-11.044 2.621-2.027 0-.7-5.592-2.174-4.439-1.95 1.594-.482 4.194-2.859 4.355-15.783 1.258-30.441-12.218-31.07-13.1s-3.621-3.754-2.055-5.592 4.117-6.99 6.906-5.8c3.013.86 4.278 1.852 7.353 1.852 2.831-.9 16.126-3.858 18.649-8.87s23.375 12.686 23.375 12.686zM94.491 266.724s5.816 29.316 2.16 36.473c-2.244 2.607-8.248 3.684-8.248 3.684s-3.628-3.537-4.194-3.02a21.1 21.1 0 00-3.537 7.074c-.7 2.978-6.7 4.495-8.7 5.382-2.146.965-12.2 2.705-12.2 2.705s-11.645-.979-13.623-2.328c-.811-1.447-4.984-11.785 7.9-12.889 6.158-.531 10.946-13.484 12.792-17.384s-1.031-12.218-1.031-12.218z" fill="#fde48b"/><path d="M84.054 289.629c-.65 0-1.111-1.265-1.111-1.265l-3.411-9.29.426-.154s3.453 8.682 3.495 9 .217 1.146.7 1.146a20.687 20.687 0 003.2-1.4c.433-.21.5-.9.37-1.6-.58-2.95-2.943-9.723-2.943-9.723l.7-.287s1.908 6.99 2.53 9.429c.552 2.153-.329 2.4-.329 2.4a21.357 21.357 0 01-3.6 1.761zm1.153-1.81l.923-.426-2.929-10.17-.895.594zm11.925 2.845c-.629.349-15.077 8.563-17.775 11.1s-9.422 8.388-12.854 9.136-6.4 2.649-13.756.7c-2.852-.51-5.375-3.642-7.479-3.642 1.328-.28 4.04 1.587 7.06 2.614 11.184 3.558 20.774-4.7 26.639-9.583 2.978-2.642 18.174-10.352 18.174-10.352zm-9.506 11.47c-.28-.629-3.341 1.629-3.341 1.629s.545-.2 2.23-.7 1.936 3.565 1.936 3.565a8.835 8.835 0 00-.825-4.473zM5.501 256.917s-1.4 2.467 2.174 5.655c5.431 4.893 17.1 12.267 43 11.729 7.605-.154-27.156 2.922-41.821-8.877-6.191-4.984-5.338-6.382-3.353-8.507zM37.068 277.216s3.131-.37 3.131 0-1.538 4.446-1.538 4.446 1.265-3.8.818-3.977a10.156 10.156 0 00-2.411-.469z" fill="#3f2112"/></g><path d="M114.467 120.299a16.261 16.261 0 0113.574 12.309 34.868 34.868 0 01-6.333 6.151s-9.849 8.591-12.309 9.954c-1.251.643-3.187 2.1-5.969 1.09-12.155-4.46-25.709-25.912-37.151-46.134a3.877 3.877 0 00-1.573-2.027c-2.167-2.412-7.27-4.893-11.834-11.184-3.7-5.131-3.348-14.8-1.768-15.287a1.951 1.951 0 00.629-.7 5.068 5.068 0 01.454-3.614c.217-.322 2.628-.559 3.243 2.726.7 3.726 2.1 8.793 4.592 10.695.937.7.79-.091.44-.7-.294-.538-3.229-6.291-3.495-9.471-.377-3.893 2.321-3.719 3.264-.147a21.738 21.738 0 003.817 8.143 10.771 10.771 0 001.768 2.048c2.167 1.454 2.363 1.887 2.544 1.908.923.133 2.1-2.055 1.761-3.131-2.356-4.515 3.152-7.8 2.565-6.34-1.664 4.124 1.489 3.7 2.866 8.073 1.035 3.32-.468 7.423-.119 9.583.3 1.873 2.342 4.46 2.719 4.8 18.684 17.2 25.352 20.907 28.016 25.814 1.014 1.2 1.153 2.558 1.643 2.593a95.262 95.262 0 016.656-7.152z" fill="#ecc298" fill-rule="evenodd"/><path d="M114.656 120.299a20.7 20.7 0 017.787 3.257 16.14 16.14 0 015.788 8.688 5.243 5.243 0 01-1.272 1.964c-3.572 3.32-11.268 10.177-15.93 12.673-3.425 1.824-6.564 2.572-9.786 1.629-3.362-.986-6.564-4.46-8.143-5.976 3.991 1.866 21.347 4.25 26.065-8.507 3.495-9.388-3.74-12.281-7.444-11.058 2.236-2.041 2.935-2.67 2.935-2.67zM69.844 81.826s1.908 1.4-1.035 5.361c-.916 1.237-.643 3.851-.643 3.851s-.923-2.908.377-4.655c3.118-4.187.623-3.991 1.301-4.557zM64.427 84.301s-7.046 4.264-7.591 6.99-.895-4.362 7.591-6.99z" fill="#c37e57" fill-rule="evenodd"/><path d="M51.838 75.004a1.58 1.58 0 011.307 1.622c.147 2.845.35 10.352 4.984 12.414-2.859-2.761-4.536-9.031-4.418-11.505.133-2.342-1.468-3.628-1.873-2.531z" fill="#c37e57" fill-rule="evenodd"/><g fill-rule="evenodd"><path d="M130.425 147.063l-1.4 8.206a1.678 1.678 0 01-1.852.273c-1.09-.5-28.386-9.611-46.581-2.845-8.6 3.558-15.3 18.363-18.286 23.9-2.863 5.311-34.605 57.476-33.121 64.432.343 1.118 4.893 23.717 26.939 26.3 1.1.126 9.394-17.552 9.367-16.412 0 1.44-3.495 18.873-2.551 20.229 10.757 15.616 41.08 6.6 41.1 8.206 0 1.768-1.118-16.238-1.118-16.238s9.786-33.705 1.2-64.8c-1.873-5.634 9.255-3.152 15.2-3.439 8.136.168 34.677 4.816 47.063-.9 4.012-1.852 15.07-7.151 6.151-31.14-3.872.308-8.975.881-11.764.909-2.244-.7-5.145-1.188-5.976-1.629.042-3.775 2.37-7.857 6.34-12.128a26.212 26.212 0 01-20.7 2.153s-7.026-2.554-10.011-5.077z" fill="#5f3d53"/><path d="M131.125 154.144s8.017 6.291 22.445 5.068c7.457-.63-12.317 4.871-22.445-5.068zm-30.057-3.8c4.676-6.99 52.494 17.733 52.494 17.733-10.744-8.577-43.282-20.55-47.427-20.816-13.4-.839-13.763 8.353-5.068 3.076zm-69.5 84.515c13.637 26.911 27.261 24.465 27.261 24.465-11.94 3.953-26.535-19.071-27.262-24.461zm73.492-40.185c4.522-.391 14.861-.545 15.567.182.091.1-15.951-.28-15.93 1.81.035 3.446 2.712 18.279 2.712 18.279s-3.761-16.5-3.984-18.642c0-.2-1.566-7.032-.7-7.242.7-.168.091 5.592 1.265 5.795.433 0 2.2-5.4 2.712-5.431.811-.049-2.53 5.326-1.629 5.249zm-40.612 73.51a82.6 82.6 0 0034.7 4.257c-16.995 6.116-37.111-4.532-34.7-4.257z" fill="#3f2112"/><path d="M158.455 166.635s-9.52-3.642-12.128-3.257-2.174-1.083-2.174-1.083 8.102-.267 14.302 4.34zM83.9 176.05s33.013 17.475 51.586 20.089c1.747.252 5.592.433 7.78.545 5.326.266 3.984-.363 3.984-.363s-11.883-.7-20.97-3.621c-16-5.145-34.202-14.148-42.38-16.65zM82.789 177.679s-7.123 2.2-8.325 12.309-9.786 67.97-9.786 67.97 8.206-67.131 9.436-70.689c.595-3.047 1.664-8.185 8.675-9.59z" fill="#3f2112"/></g><path d="M164.069 147.63s-10.394 9.555-18.286 15.028c-1.545.7-5.543 5.27-16.832 3.076a240.709 240.709 0 00-46.134-4.711c-.888 0-2.887 1.279-3.8 1.272-11.883 0-13.728 9.541-15.567 12.484-.559-.419-.315.2-.545-1.447-.147-1.055.056-.979.182-1.81-.077-.5-1.174-.1-.182-3.439-.538-.923-1.069-1.048-.363-4.341a21.082 21.082 0 013.439-6.878c.622-1.181 2.1-2.8 3.257-3.076a25.977 25.977 0 013.076-1.992c1.761-1.132 7.116-2.8 13.56-3.439 5.431-.377 10.163-1.1 13.777-1.629 14.448-2.1 22.731-3.97 32.944-1.81.8.5 2.922-1.4 7.06-4.194s12.155-8.905 14.3-9.045c6.136 1.209 10.854 11.848 10.114 15.951z" fill="#ecc298" fill-rule="evenodd"/><path d="M148.138 161.033s10.771-10.177 11.03-15.378c.531-10.485-9.786-11.806-9.786-11.806s2.5-2.027 3.621-2.712c0 0 8.919 1.4 11.4 16.077-4.026 4.145-16.287 13.763-16.287 13.763zm-78.217.175c-.7.7-.811 1.58-1.265 2.174-3.194 4.117-4.634 5.711-5.592 8.507.7-2.474 1.314-4.292 5.068-8.688.839-.979.552-1.908 1.447-2.53a2.509 2.509 0 012.719-.363 3.446 3.446 0 00-2.377.9z" fill="#c37e57" fill-rule="evenodd"/><path d="M137.096 147.63s-3.586-3-5.068-2.712 3.353 1.496 5.068 2.712z" fill="#e3c1ce" fill-rule="evenodd"/><path d="M57.751 90.172s5.382 2.537 8.521 2.53 3.81 3.593 3.572 4.327 1.908-4.257-2.8-5.054-5.127-.203-9.293-1.803zM107.226 126.45s3.3 4.725 0 9.052c-1.957 2.579 2.083-6.13 0-9.052z" fill="#c37e57" fill-rule="evenodd"/><path d="M64.644 101.587l2.957-.259a5.1 5.1 0 01-1.859.6 2.8 2.8 0 01-1.098-.341zM70.305 156.682s-1.985-.294-2.537.7a2.4 2.4 0 00-.3 1.5 23.472 23.472 0 00-4.585 9.178c.175-.056.9-2.335 1.992-4.522s2.558-4.3 3.076-4.348a2.048 2.048 0 01.182-1.629 2.446 2.446 0 012.172-.879zM66.503 155.961l1.447-1.272c.8-.7 3.7-1.573 3.621-1.629-.259-.175-1.657.119-3.439 1.09-.308.161-.469.413-1.629 1.811z" fill="#e3c1ce" fill-rule="evenodd"/><path d="M186.492 53.971c-4.138 3.041-8.229 9.824-8.229 9.824l-2.558 5.41s-6.619 13.98-9.653 24.653c-1.894 6.661.447 8.549.447 8.549s-3.67 10.778-10.038 12.093c-7.458 1.531-6.913 3.09-7.969 2.712.573-.951.063-8.633.7-13.756.224-1.706.7-5.725 1.678-6.8.517-.58 0 .154.594-.979 2.642-4.893 5.2-12.68 6.7-18.95-3.4-.8-14.875-.7-13.714-19.411 1.908-11.757 1.985-22.983 3.872-23.486l4.194-3.851s16.5 2.894 26.366 7.689c1.4.7 2.244 9.325 1.81 11.184 3.166-6.71 7.36-4.334 7.934-3.411 1.067 1.708.753 4.554-2.134 8.53z" fill="#ecc298" fill-rule="evenodd"/><path d="M170.286 83.182s-5.837 10.716-4.767 16.881c-3.495-5.466-1.363-8.926-2.719-16.839-1.021-5.969-5.753-1.678-4.606-6.452 1.5 0 6.326-.294 9.625-1.887a25.787 25.787 0 005.361-3.719c1.706-1.664 2.6-4.1 2.866-3.886.762.622-3.39 9.206-3.991 10.82-.78 2.049-1.769 5.082-1.769 5.082z" fill="#c37e57" fill-rule="evenodd"/><path d="M185.723 64.128l-7.64 4.893-1.913 1.251c-8.7 9.457-20.93 6.878-20.93 6.878l-.923-.28c-3.963-1.5-11.96-1.2-10.485-27.261s14.861-22.1 14.861-22.1 33.293 21.061 33.705 21.6-6.675 15.019-6.675 15.019z" fill="#ecc298" fill-rule="evenodd"/><path d="M178.859 68.546l-2.7 1.747a6.089 6.089 0 012.7-1.747z" fill="#c37e57" fill-rule="evenodd"/><path d="M155.401 27.822s3.928 19.656 24.038 27.17l4.6 8.737s-1.629 2.558-3.558.37c0 0-2.1 4.446-4.32 6.186l-7.311 15.79s20.767 5.934 30.923-5.326 3.6-31.993-1.048-43.233-9.171-17.006-11.463-24.982S181.418-.897 170.003.121s-17.083 4.816-17.426 13.861c0 0-10.792 2.67-13.281 13.281s-1.943 17.139 4.481 24.633c0-.05.426-24.046 11.624-24.074z" fill="#75432a" fill-rule="evenodd"/><path d="M199.765 80.75c-10.149 11.268-30.916 5.326-30.916 5.326l7.318-15.783c2.258-1.74 4.313-6.193 4.313-6.193 1.943 2.188 3.572-.37 3.572-.37l-4.6-8.744c-20.121-7.508-24.045-27.164-24.045-27.164-11.184 0-11.624 24.024-11.624 24.024-4.341-5.061-6-9.7-5.837-15.42.161.517 3.041 9.373 4.355 8.283s.294-15.874 9.3-18.174c0 0 2.439-.287 3.306-4.145s2.209-4.893 2.209-4.893-.395 15.113 8.615 23.771 14.868 9.415 16.671 12.582 2.8 13.819 9.087 13.281c5.851-.524 10.862-10.247 10.967-19.006 3.223 10.956 4.775 24.363-2.691 32.625z" fill="#75432a" fill-rule="evenodd"/><path d="M157.729 47.834s-.58 4.194-4.439 5.592 2.733 2.195 3.495 1.636-2.237.559-1.727-1.125a1.4 1.4 0 01.839-.888 5.024 5.024 0 001.832-5.215zM152.695 58.019c.308 0 5.739 2.272 10.387-2.013 0 0 .363-.65-.7-1.4s1.265-1.188 1.922.7 1.153 1.4-.147 1.16-3.586 4.893-11.512 2.1c-.02-.051-1.136-.547.05-.547z" fill="#c37e57"/><ellipse cx="1.74" cy="1.286" rx="1.74" ry="1.286" transform="rotate(-82.61 103.952 -61.76)" fill="#3c3427"/><ellipse cx="1.74" cy="1.286" rx="1.74" ry="1.286" transform="rotate(-82.61 110.764 -67.746)" fill="#3c3427"/><path d="M151.151 43.689s.86-3.334 5.969-2.67l-.245 1.9s-4.047-1.8-5.508.8zM167.171 45.772s0-3.446-5.082-4.11l-.252 1.9s4.369-.7 5.117 2.181z" fill="#3c3427"/><path d="M199.765 80.75c-10.149 11.268-30.916 5.326-30.916 5.326l5.976-14.434c2.258-1.74 5.648-7.542 5.648-7.542 1.943 2.188 3.572-.37 3.572-.37l-4.6-8.744C159.328 47.479 155.4 27.823 155.4 27.823c-11.184 0-11.624 24.024-11.624 24.024-4.341-5.061-6-9.7-5.837-15.42.161.517 3.041 9.373 4.355 8.283s.294-15.874 9.3-18.174c0 0 2.439-.287 3.306-4.145s2.209-4.893 2.209-4.893-.395 15.112 8.615 23.77 14.868 9.415 16.671 12.582 2.8 13.819 9.087 13.281c5.851-.524 10.862-10.247 10.967-19.006 3.23 10.956 4.785 24.363-2.684 32.625z" fill="#58311d"/></g></g></svg>