<svg xmlns="http://www.w3.org/2000/svg" xmlns:xlink="http://www.w3.org/1999/xlink" width="118.958" height="140.961" viewBox="0 0 118.958 140.961"><defs><linearGradient id="a" x1="1.756" y1="-0.511" x2="-0.336" y2="1.258" gradientUnits="objectBoundingBox"><stop offset="0" stop-color="#34a096"/><stop offset="1" stop-color="#14645d"/></linearGradient><linearGradient id="b" x1="2.663" y1="-3.338" x2="-3.135" y2="6.95" xlink:href="#a"/><linearGradient id="c" x1="1.403" y1="-4.53" x2="-1.193" y2="9.934" xlink:href="#a"/><linearGradient id="d" x1="1.285" y1="0.031" x2="-0.502" y2="1.333" xlink:href="#a"/><linearGradient id="e" x1="0.848" y1="-0.498" x2="-2.65" y2="9.53" xlink:href="#a"/><linearGradient id="f" x1="0.957" y1="-0.131" x2="-0.285" y2="1.592" xlink:href="#a"/></defs><g transform="translate(-39.521 -29.934)"><path d="M77.424,156.7H49.273a9.765,9.765,0,0,1-9.75-9.759V95.334A23.743,23.743,0,0,1,56.149,72.619,23.753,23.753,0,0,1,80.2,78.494a23.637,23.637,0,0,1,6.963,16.473,2.008,2.008,0,0,1-.27,1.03l-5.8,10.01a10.8,10.8,0,0,0-.52,1.017v3.026a2.006,2.006,0,0,1,.037.671,7.093,7.093,0,0,0-.037.823V147.6a5.007,5.007,0,0,0,2.2,4.187,2,2,0,0,1-.017,3.338A9.727,9.727,0,0,1,77.424,156.7ZM63.354,75.5a19.827,19.827,0,0,0-19.831,19.83v51.611a5.761,5.761,0,0,0,5.75,5.759H77.424a5.8,5.8,0,0,0,.7-.041,9.108,9.108,0,0,1-1.548-5.068V111.544c0-.22,0-.488.02-.782a2.085,2.085,0,0,1-.02-.287v-3.851a2.01,2.01,0,0,1,.138-.731A14.055,14.055,0,0,1,77.631,104l5.518-9.523A19.782,19.782,0,0,0,63.354,75.5Z" fill="url(#a)"/><path d="M56.75,76.53a2,2,0,0,1-2-2V63.879a2,2,0,0,1,2-2H69.94a2,2,0,0,1,2,2V74.52a2,2,0,0,1-2.605,1.906,19.994,19.994,0,0,0-11.98.01A2.026,2.026,0,0,1,56.75,76.53Zm2-10.651v6.077a24.059,24.059,0,0,1,9.19-.006V65.879Z" fill="url(#b)"/><path d="M75.926,65.876H41.521a2,2,0,0,1-2-2V57.455a2,2,0,0,1,2-2H75.926a2,2,0,0,1,2,2v6.421A2,2,0,0,1,75.926,65.876Zm-32.405-4H73.926V59.455H43.521Z" fill="url(#c)"/><path d="M123.244,156.7H85.684a8.953,8.953,0,0,1-5.169-1.622,8.565,8.565,0,0,1-.849-.655,9.15,9.15,0,0,1-3.092-6.832V111.544c0-.22,0-.488.02-.782a2.085,2.085,0,0,1-.02-.287v-3.851a2.01,2.01,0,0,1,.138-.731A14.055,14.055,0,0,1,77.631,104l18.013-31.09V42.964a2,2,0,0,1,2-2h13.64a2,2,0,0,1,2,2V72.915L131.294,104a14.108,14.108,0,0,1,.921,1.892,1.99,1.99,0,0,1,.139.731v3.851a1.938,1.938,0,0,1-.021.287c.018.294.021.562.021.782V147.6a9.121,9.121,0,0,1-9.11,9.109ZM80.574,110.05a2.006,2.006,0,0,1,.037.671,7.093,7.093,0,0,0-.037.823V147.6a5.137,5.137,0,0,0,1.73,3.826,5.3,5.3,0,0,0,3.38,1.283h37.56a5.122,5.122,0,0,0,5.11-5.109V111.544a7.091,7.091,0,0,0-.038-.823,2.007,2.007,0,0,1,.038-.671v-3.026a10.911,10.911,0,0,0-.523-1.021L109.706,74.719a1.963,1.963,0,0,1-.422-1.215V44.964h-9.64V73.5a1.991,1.991,0,0,1-.453,1.267l-18.1,31.236a10.8,10.8,0,0,0-.52,1.017Z" fill="url(#d)"/><path d="M118.694,145.8a.18.18,0,0,0,.1-.02v.01A.34.34,0,0,1,118.694,145.8Z" fill="#867bad" opacity="0.35"/><path d="M122.164,110.149a9.755,9.755,0,0,1,.75,2.35A10.727,10.727,0,0,0,122.164,110.149Z" fill="#867bad" opacity="0.35"/><path d="M123.084,114.169l-.01.01a2.167,2.167,0,0,0-.01-.36C123.074,113.939,123.084,114.049,123.084,114.169Z" fill="#867bad" opacity="0.35"/><g opacity="0.35"><path d="M86.8,114.169c0-.12.01-.23.02-.35a2.167,2.167,0,0,0-.01.36Z" fill="#867bad"/></g><g opacity="0.35"><path d="M86.974,112.5a9.755,9.755,0,0,1,.75-2.35A10.727,10.727,0,0,0,86.974,112.5Z" fill="#867bad"/></g><g opacity="0.35"><path d="M91.094,145.779a.18.18,0,0,0,.1.02.34.34,0,0,1-.1-.01Z" fill="#867bad"/></g><path d="M113.926,44.964H95.941c-2.944,0-5.251-1.955-5.251-4.45v-6.12c0-2.5,2.307-4.46,5.251-4.46h17.985c2.944,0,5.251,1.959,5.251,4.46v6.12C119.177,43.009,116.87,44.964,113.926,44.964ZM95.941,33.934a1.482,1.482,0,0,0-1.254.488l0,6.092a1.624,1.624,0,0,0,1.251.45h17.985a1.5,1.5,0,0,0,1.256-.485l0-6.066a1.516,1.516,0,0,0-1.251-.479Z" fill="url(#e)"/><path d="M150.329,114.645h-39.96a8.145,8.145,0,0,0-8.15,8.149v39.951a8.151,8.151,0,0,0,8.15,8.15h39.96a8.151,8.151,0,0,0,8.15-8.15V122.794A8.145,8.145,0,0,0,150.329,114.645Zm-5.46,32.049h-10.66v10.35h-7.72v-10.35h-10.67v-7.68h10.67v-10.53h7.72v10.53h10.66Z" fill="#d0e4e2"/><path d="M126.491,146.7H115.823v-7.685h10.668V128.488H134.2v10.524h10.668V146.7H134.2v10.352h-7.713Z" fill="url(#f)"/></g></svg>