<svg xmlns="http://www.w3.org/2000/svg" xmlns:xlink="http://www.w3.org/1999/xlink" width="75.886" height="124.78" viewBox="0 0 75.886 124.78"><defs><clipPath id="a"><path d="M102.538,159.55a2.934,2.934,0,1,1-2.936-2.935A2.935,2.935,0,0,1,102.538,159.55Z" transform="translate(-96.67 -156.615)" fill="none"/></clipPath><linearGradient id="b" x1="1.027" y1="-0.155" x2="-0.24" y2="1.432" gradientUnits="objectBoundingBox"><stop offset="0" stop-color="#d8805a"/><stop offset="1" stop-color="#7b4129"/></linearGradient><linearGradient id="c" x1="1.334" y1="-4.734" x2="0.067" y2="3.039" xlink:href="#b"/><linearGradient id="d" x1="0.728" y1="-1.015" x2="-0.538" y2="8.14" xlink:href="#b"/><linearGradient id="e" x1="1.939" y1="-1.792" x2="-3.334" y2="6.605" xlink:href="#b"/><linearGradient id="f" x1="0" y1="0.5" x2="1" y2="0.5" xlink:href="#b"/></defs><g transform="translate(-56.904 -29.137)"><g transform="translate(91.915 141.373)"><g clip-path="url(#a)"><path d="M96.67,156.615v0Z" transform="translate(-96.67 -156.615)" fill="#d8805a"/><rect width="0.063" height="5.867" transform="translate(0 0)" fill="#d8805a"/><rect width="0.063" height="5.867" transform="translate(0.063 0)" fill="#d77f59"/><rect width="0.063" height="5.867" transform="translate(0.126 0)" fill="#d67f59"/><rect width="0.063" height="5.867" transform="translate(0.189 0)" fill="#d57e58"/><rect width="0.063" height="5.867" transform="translate(0.253 0)" fill="#d47d58"/><rect width="0.063" height="5.867" transform="translate(0.316 0)" fill="#d37d57"/><rect width="0.063" height="5.867" transform="translate(0.379 0)" fill="#d27c57"/><rect width="0.063" height="5.867" transform="translate(0.442 0)" fill="#d17b56"/><rect width="0.063" height="5.867" transform="translate(0.505 0)" fill="#d07b56"/><rect width="0.063" height="5.867" transform="translate(0.568 0)" fill="#cf7a55"/><rect width="0.063" height="5.867" transform="translate(0.631 0)" fill="#ce7955"/><rect width="0.063" height="5.867" transform="translate(0.694 0)" fill="#cd7854"/><rect width="0.063" height="5.867" transform="translate(0.757 0)" fill="#cc7854"/><rect width="0.063" height="5.867" transform="translate(0.82 0)" fill="#cb7753"/><rect width="0.063" height="5.867" transform="translate(0.883 0)" fill="#ca7653"/><rect width="0.063" height="5.867" transform="translate(0.947 0)" fill="#c97652"/><rect width="0.063" height="5.867" transform="translate(1.01 0)" fill="#c87551"/><rect width="0.063" height="5.867" transform="translate(1.073 0)" fill="#c77451"/><rect width="0.063" height="5.867" transform="translate(1.136 0)" fill="#c67450"/><rect width="0.063" height="5.867" transform="translate(1.199 0)" fill="#c57350"/><rect width="0.063" height="5.867" transform="translate(1.262 0)" fill="#c4724f"/><rect width="0.063" height="5.867" transform="translate(1.325 0)" fill="#c3724f"/><rect width="0.063" height="5.867" transform="translate(1.388 0)" fill="#c2714e"/><rect width="0.063" height="5.867" transform="translate(1.451 0)" fill="#c1704e"/><rect width="0.063" height="5.867" transform="translate(1.514 0)" fill="#c0704d"/><rect width="0.063" height="5.867" transform="translate(1.577 0)" fill="#bf6f4d"/><rect width="0.063" height="5.867" transform="translate(1.641 0)" fill="#be6e4c"/><rect width="0.063" height="5.867" transform="translate(1.704 0)" fill="#bd6e4c"/><rect width="0.063" height="5.867" transform="translate(1.767 0)" fill="#bc6d4b"/><rect width="0.063" height="5.867" transform="translate(1.83 0)" fill="#bb6c4b"/><rect width="0.063" height="5.867" transform="translate(1.893 0)" fill="#ba6b4a"/><rect width="0.063" height="5.867" transform="translate(1.956 0)" fill="#b96b49"/><rect width="0.063" height="5.867" transform="translate(2.019 0)" fill="#b86a49"/><rect width="0.063" height="5.867" transform="translate(2.082 0)" fill="#b76948"/><rect width="0.063" height="5.867" transform="translate(2.145 0)" fill="#b66948"/><rect width="0.063" height="5.867" transform="translate(2.208 0)" fill="#b56847"/><rect width="0.063" height="5.867" transform="translate(2.271 0)" fill="#b46747"/><rect width="0.063" height="5.867" transform="translate(2.335 0)" fill="#b36746"/><rect width="0.063" height="5.867" transform="translate(2.398 0)" fill="#b26646"/><rect width="0.063" height="5.867" transform="translate(2.461 0)" fill="#b16545"/><rect width="0.063" height="5.867" transform="translate(2.524 0)" fill="#b06545"/><rect width="0.063" height="5.867" transform="translate(2.587 0)" fill="#af6444"/><rect width="0.063" height="5.867" transform="translate(2.65 0)" fill="#ae6344"/><rect width="0.063" height="5.867" transform="translate(2.713 0)" fill="#ad6343"/><rect width="0.063" height="5.867" transform="translate(2.776 0)" fill="#ac6243"/><rect width="0.063" height="5.867" transform="translate(2.839 0)" fill="#ab6142"/><rect width="0.063" height="5.867" transform="translate(2.902 0)" fill="#aa6142"/><rect width="0.063" height="5.867" transform="translate(2.965 0)" fill="#a86041"/><rect width="0.063" height="5.867" transform="translate(3.029 0)" fill="#a75f40"/><rect width="0.063" height="5.867" transform="translate(3.092 0)" fill="#a65e40"/><rect width="0.063" height="5.867" transform="translate(3.155 0)" fill="#a55e3f"/><rect width="0.063" height="5.867" transform="translate(3.218 0)" fill="#a45d3f"/><rect width="0.063" height="5.867" transform="translate(3.281 0)" fill="#a35c3e"/><rect width="0.063" height="5.867" transform="translate(3.344 0)" fill="#a25c3e"/><rect width="0.063" height="5.867" transform="translate(3.407 0)" fill="#a15b3d"/><rect width="0.063" height="5.867" transform="translate(3.47 0)" fill="#a05a3d"/><rect width="0.063" height="5.867" transform="translate(3.533 0)" fill="#9f5a3c"/><rect width="0.063" height="5.867" transform="translate(3.596 0)" fill="#9e593c"/><rect width="0.063" height="5.867" transform="translate(3.659 0)" fill="#9d583b"/><rect width="0.063" height="5.867" transform="translate(3.723 0)" fill="#9c583b"/><rect width="0.063" height="5.867" transform="translate(3.786 0)" fill="#9b573a"/><rect width="0.063" height="5.867" transform="translate(3.849 0)" fill="#9a563a"/><rect width="0.063" height="5.867" transform="translate(3.912 0)" fill="#995639"/><rect width="0.063" height="5.867" transform="translate(3.975 0)" fill="#985538"/><rect width="0.063" height="5.867" transform="translate(4.038 0)" fill="#975438"/><rect width="0.063" height="5.867" transform="translate(4.101 0)" fill="#965337"/><rect width="0.063" height="5.867" transform="translate(4.164 0)" fill="#955337"/><rect width="0.063" height="5.867" transform="translate(4.227 0)" fill="#945236"/><rect width="0.063" height="5.867" transform="translate(4.29 0)" fill="#935136"/><rect width="0.063" height="5.867" transform="translate(4.353 0)" fill="#925135"/><rect width="0.063" height="5.867" transform="translate(4.417 0)" fill="#915035"/><rect width="0.063" height="5.867" transform="translate(4.48 0)" fill="#904f34"/><rect width="0.063" height="5.867" transform="translate(4.543 0)" fill="#8f4f34"/><rect width="0.063" height="5.867" transform="translate(4.606 0)" fill="#8e4e33"/><rect width="0.063" height="5.867" transform="translate(4.669 0)" fill="#8d4d33"/><rect width="0.063" height="5.867" transform="translate(4.732 0)" fill="#8c4d32"/><rect width="0.063" height="5.867" transform="translate(4.795 0)" fill="#8b4c32"/><rect width="0.063" height="5.867" transform="translate(4.858 0)" fill="#8a4b31"/><rect width="0.063" height="5.867" transform="translate(4.921 0)" fill="#894b30"/><rect width="0.063" height="5.867" transform="translate(4.984 0)" fill="#884a30"/><rect width="0.063" height="5.867" transform="translate(5.047 0)" fill="#87492f"/><rect width="0.063" height="5.867" transform="translate(5.111 0)" fill="#86492f"/><rect width="0.063" height="5.867" transform="translate(5.174 0)" fill="#85482e"/><rect width="0.063" height="5.867" transform="translate(5.237 0)" fill="#84472e"/><rect width="0.063" height="5.867" transform="translate(5.3 0)" fill="#83462d"/><rect width="0.063" height="5.867" transform="translate(5.363 0)" fill="#82462d"/><rect width="0.063" height="5.867" transform="translate(5.426 0)" fill="#81452c"/><rect width="0.063" height="5.867" transform="translate(5.489 0)" fill="#80442c"/><rect width="0.063" height="5.867" transform="translate(5.552 0)" fill="#7f442b"/><rect width="0.063" height="5.867" transform="translate(5.615 0)" fill="#7e432b"/><rect width="0.063" height="5.867" transform="translate(5.678 0)" fill="#7d422a"/><rect width="0.063" height="5.867" transform="translate(5.741 0)" fill="#7c422a"/><rect width="0.063" height="5.867" transform="translate(5.805 0)" fill="#7b4129"/><path d="M103.335,162.482v0Z" transform="translate(-97.467 -156.615)" fill="#7b4129"/></g></g><g transform="translate(56.917 41.374)"><path d="M131.031,139.414H58.68a1.76,1.76,0,0,1-1.761-1.761v-91.9a1.761,1.761,0,0,1,1.761-1.761h70.772a1.761,1.761,0,0,1,3.325.712c.011.194.016.391.016.584v92.364A1.761,1.761,0,0,1,131.031,139.414Zm-70.59-3.522H129.27V47.515H60.441Z" transform="translate(-56.919 -43.036)" fill="url(#b)"/></g><g transform="translate(56.917 134.231)"><path d="M124.629,168.189H65.081a8.17,8.17,0,0,1-8.162-8.158v-9.768A1.761,1.761,0,0,1,58.68,148.5h72.351a1.762,1.762,0,0,1,1.761,1.761v9.768A8.17,8.17,0,0,1,124.629,168.189ZM60.441,152.025v8.007a4.644,4.644,0,0,0,4.64,4.636h59.549a4.644,4.644,0,0,0,4.641-4.636v-8.007Z" transform="translate(-56.919 -148.503)" fill="url(#c)"/></g><g transform="translate(56.904 29.137)"><path d="M131.016,45.853H58.665A1.761,1.761,0,0,1,56.9,44.092V37.3a8.169,8.169,0,0,1,8.162-8.158h59.549a8.169,8.169,0,0,1,8.162,8.158v6.8A1.76,1.76,0,0,1,131.016,45.853Zm-70.59-3.522h68.829V37.3a4.643,4.643,0,0,0-4.64-4.636H65.066A4.644,4.644,0,0,0,60.426,37.3Z" transform="translate(-56.904 -29.137)" fill="url(#d)"/></g><g transform="translate(86.285 50.777)"><path d="M99.387,71.939a9.112,9.112,0,1,1,9.112-9.112A9.122,9.122,0,0,1,99.387,71.939Zm0-14.7a5.59,5.59,0,1,0,5.591,5.59A5.6,5.6,0,0,0,99.387,57.238Z" transform="translate(-90.275 -53.716)" fill="url(#e)"/></g><rect width="53.903" height="11.864" transform="translate(68.445 75.685)" opacity="0.3" fill="url(#f)"/><rect width="53.903" height="11.864" transform="translate(68.445 92.984)" opacity="0.3" fill="url(#f)"/><rect width="36.044" height="11.864" transform="translate(77.375 110.283)" opacity="0.3" fill="url(#f)"/></g></svg>