<svg xmlns="http://www.w3.org/2000/svg" width="473.388" height="499.599"><defs><clipPath id="a"><path d="M1246.079 509.679a83.4 83.4 0 00-11.432 34.538c-36.523-7.729-59.171-5.218-70.845-2.381-.135-10.8-1.7-23.194-6.766-33.34 0 0 18.419-11.655 22.865-31.552a7.788 7.788 0 003.546 1.237s-4.938 16.719 10.563 17.327 20.652-17.5 20.652-17.5h3.314s9.462 29.719 28.103 31.671z" transform="translate(-1157.036 -476.944)" fill="none"/></clipPath></defs><g transform="translate(-929.2 -288.528)"><path d="M1320.478 642.708a332.4 332.4 0 01-13.039-.255c-.272 0-.546-.017-.811-.028a22.738 22.738 0 00-.989-.029h-.038a358.056 358.056 0 01-6.482-.328h-.008l-.377-.025a13.085 13.085 0 01-4.223-.715 4.75 4.75 0 01-2.78-3.493v-.007a26.555 26.555 0 01-.31-6.633c.039-1.225.077-2.382.034-3.418v-.614c-.01-.128-.023-.258-.037-.394-.028-.273-.058-.555-.06-.867a166.984 166.984 0 01-.483-12.659v-3.055c-.017-3.524-.077-7.127-.135-10.612l-.03-1.8v-1.854c-.057-2.6-.057-5.238-.057-7.791a.957.957 0 01.816-.947 71.358 71.358 0 0110.548-.7c4.229 0 8.535.262 12.7.515 3.394.206 6.9.42 10.28.483 2.2.041 4.467.1 6.662.153 4.361.11 8.87.224 13.328.224 5.926 0 10.772-.2 15.252-.624a.957.957 0 011.036 1.1c-.114.728-.214 1.5-.325 2.5.055 1.485.135 3.008.212 4.482l.055 1.058v.019c.008.237.023.478.04.732.023.36.047.731.048 1.109v.083c.207 3.921.422 7.976.489 11.968v1.866a109.5 109.5 0 01-.464 11.792v.834a17.184 17.184 0 00.086 1.821c.029.239.055.478.083.73.037.33.074.672.118 1.014v.009l.022.192a41.073 41.073 0 01.4 5.726 9.02 9.02 0 01-1.478 5.266c-2.02 2.712-5.979 3.026-8.781 3.026-.81 0-1.7-.029-2.8-.092h-.005l-1.829-.118h-.006a46.842 46.842 0 00-3.272-.143l-3.085.1c-3.937.124-8.008.253-12 .34h-1.879l-3.327.048h-.005c-1.031.006-2.07.011-3.094.011zm-14.819-2.228c.357 0 .711.016 1.053.031.268.012.521.023.771.027h.022c4.263.169 8.628.254 12.974.254 1.017 0 2.048 0 3.065-.014l3.333-.048h1.868c3.983-.087 8.045-.215 11.974-.339l3.1-.1h.03c.892 0 1.978.047 3.418.147l1.827.115a46.46 46.46 0 002.686.089c3.8 0 6.1-.717 7.247-2.256 1.591-2.131 1.105-6.286.715-9.625l-.022-.188c-.045-.356-.084-.7-.121-1.039-.028-.251-.054-.488-.082-.721v-.018a19.094 19.094 0 01-.1-2.032v-.869-.09a107.585 107.585 0 00.46-11.637v-1.861c-.067-3.955-.28-7.99-.486-11.892l-.006-.108v-.051c0-.325-.022-.658-.045-1.011-.016-.255-.034-.519-.042-.785l-.055-1.047c-.079-1.5-.161-3.061-.216-4.583a.95.95 0 01.005-.139c.059-.534.115-1.007.172-1.443-4.205.357-8.764.524-14.224.524-4.483 0-9-.114-13.376-.224-2.192-.055-4.458-.113-6.649-.153-3.417-.063-6.947-.278-10.361-.486-4.136-.252-8.412-.512-12.583-.512a71.421 71.421 0 00-9.45.563c0 2.285.006 4.627.057 6.927V597.752l.03 1.791c.058 3.49.118 7.1.135 10.639v3.06c0 4.165.157 8.27.48 12.549v.072a6.865 6.865 0 00.05.706c.016.158.033.321.045.493V627.718c.044 1.1.006 2.285-.034 3.538a25.4 25.4 0 00.257 6.119c.587 2.355 2.04 2.548 5.269 2.757l.377.025c1.762.095 4.075.229 6.432.323z" fill="#ffd580"/><path d="M1328.692 642.684h-1.865a.957.957 0 01-.956-.912c-.164-3.451-.348-6.947-.526-10.329l-.114-2.163a2071.01 2071.01 0 00-17.1-.288c-.021 3.808 0 8.179.224 12.513a.957.957 0 01-.971 1.006c-.279 0-.561-.017-.833-.028a22.29 22.29 0 00-.98-.029.957.957 0 01-.956-.906c-.225-4.238-.241-8.5-.242-12.64l-2.863-.042c-3.016-.043-6.135-.088-9.187-.156a.957.957 0 01-.936-.957v-.575c-.01-.127-.023-.256-.037-.392a8.561 8.561 0 01-.06-.909.957.957 0 01.976-.957c4.048.081 8.137.15 12.17.206l.022-1.631c.04-2.993.082-6.088.082-9.092v-1.344c-2.073.034-4.112.052-6.075.052-2.272 0-4.527-.023-6.7-.069a.957.957 0 01-.937-.957v-1.855a.957.957 0 01.957-.957h.014c1.981.029 4.03.044 6.266.044 1.965 0 4.028-.011 6.426-.034-.081-3.573-.239-7.153-.4-10.642-4.156.071-8.379.071-12.472.071a.957.957 0 01-.957-.957v-1.845a.957.957 0 01.957-.957h1.726c3.527 0 7.109-.043 10.6-.088-.123-2.828-.2-5.189-.247-7.366a.957.957 0 01.982-.977l1.875.048a.957.957 0 01.932.94c.044 2.493.143 4.957.247 7.3 5.415-.091 11.16-.18 16.892-.228.034-2.013.071-4.074.11-6.142a.957.957 0 01.957-.939h1.855a.957.957 0 01.957.977c-.013.649-.029 1.307-.044 1.943-.032 1.34-.065 2.717-.077 4.086h2.673c1.508 0 2.664-.005 3.746-.005 4.009 0 7.182.025 10.111.081v-.072c-.045-1.91-.045-3.833 0-5.717a.957.957 0 01.957-.934h1.846a.957.957 0 01.957.992 78.702 78.702 0 000 5.624q.016.109.029.218c2.191.077 4.278.155 6.448.309 1.867.127 3.739.327 5.161.487a.957.957 0 01.849.919c.008.235.023.473.039.724.024.371.049.754.049 1.144a.957.957 0 01-1.075.95 67.538 67.538 0 00-3.432-.343h-.006c-2.3-.186-4.751-.318-7.854-.419.1 1.912.216 3.839.331 5.713.106 1.723.214 3.5.307 5.256 1.2.04 2.405.04 3.582.04h1.182c2.173 0 4.3-.037 6.517-.112a.957.957 0 01.99.957v1.855a.957.957 0 01-.921.956c-2.578.1-5.216.1-7.768.1h-.006c-.678 0-1.353-.019-2.006-.034-.459-.01-.928-.02-1.4-.027.118 4.278.126 8.59.127 12.785 1.543-.006 2.984-.028 4.379-.065 1.963-.065 3.842-.1 5.587-.1h.611a.957.957 0 01.946.842c.03.25.058.5.087.763.036.323.073.657.115.991a.957.957 0 01-.917 1.076q-.833.029-1.663.054a257.27 257.27 0 00-3.094.11c-2.036.127-4.111.144-6.14.147 0 4.3.034 8 .2 11.736a.957.957 0 01-1.016 1l-1.837-.115a.957.957 0 01-.9-.909c-.188-3.906-.2-7.866-.2-11.719-3.612-.041-7.244-.143-10.766-.242l-2.1-.058c-.729-.018-1.474-.032-2.195-.045-.623-.012-1.261-.024-1.9-.038l.087 1.753c.172 3.453.349 7.025.547 10.537a.957.957 0 01-.956 1.011zm18.288-14.822a.9.9 0 001.749 0 .733.733 0 00-1.464-.044l-.03.009a.956.956 0 01-.255.035zm-20.625-.453a.531.531 0 10.966.321.558.558 0 10-.281-.989.957.957 0 01-.685.668zm-20.793-.373a.514.514 0 10.949.3.563.563 0 10-.2-1.018.957.957 0 01-.75.714zm23.321-1.477l2.544.05h.008q1.522.043 3.048.089c3.8.113 7.71.23 11.569.247v-.061c.012-3.7.024-7.527-.1-11.288v-.008c-.008-.32-.024-.654-.04-.977-.008-.169-.017-.34-.024-.513a1975.39 1975.39 0 01-3.076-.08c-4.2-.111-8.54-.226-12.8-.226h-1.614v.161c.111 4.201.298 8.463.485 12.606zm-20.676-.381c5.671.074 11.35.182 16.91.321-.185-4.121-.37-8.357-.486-12.523v-.147c-5.011.03-10.084.1-15 .175l-1.309.019c0 2.137-.031 4.3-.058 6.4-.021 1.892-.051 3.834-.058 5.755zm38.813-13.951a.715.715 0 101.412.066.562.562 0 10-1.024-.306.958.958 0 01-.388.24zm-41.3-.075a.735.735 0 001.47-.015.536.536 0 10-1.034-.242.958.958 0 01-.438.258zm19.969-.238a.74.74 0 001.476 0 .534.534 0 10-.968-.272.957.957 0 01-.511.273zm2.657-1.882h1.7c4.948.017 9.963.149 14.812.278l.86.023c-.094-1.82-.207-3.657-.318-5.442a506.303 506.303 0 01-.321-5.511c-4.109-.071-8.272-.071-12.308-.071h-.678c-.78 0-1.58.013-2.354.026-.461.008-.932.015-1.4.02a521.31 521.31 0 00.004 10.678zm-20.44-10.428c.175 3.846.308 7.189.337 10.613 1.8-.022 3.624-.051 5.391-.078 3.575-.056 7.262-.113 10.912-.122-.042-3.534-.042-7.1 0-10.639-4.467.051-8.99.116-13.374.179zm-2.694-1.874a.727.727 0 001.454 0 .549.549 0 10-1.022-.26.957.957 0 01-.435.261zm40.937-.235a.57.57 0 101.044.308.527.527 0 10-.336-.96.957.957 0 01-.709.652zm-20.425-.019a.775.775 0 001.54-.028h.03a.956.956 0 01.172 0c.674 0 1.362-.011 2.034-.022h-2.073a.864.864 0 00-1.7.055z" fill="#ffd580"/><path d="M1344.928 589.796c-4.488 0-9.014-.114-13.391-.225-2.185-.055-4.445-.112-6.63-.153-3.417-.063-6.947-.278-10.361-.486-4.136-.252-8.412-.512-12.583-.512a69.484 69.484 0 00-10.266.679c-.963.144-1.814.3-2.677.481a2.522 2.522 0 01-3.01-1.824c0-.016-.008-.033-.011-.05a74.027 74.027 0 01-1.271-20.491v-.009a2.508 2.508 0 011.633-2.127 2.373 2.373 0 012.008-1.106h.086c2.374 0 4.761.119 7.07.233 3.312.167 6.617.4 9.814.629 2.418.17 5.16.363 7.813.512 3.732.21 6.828.308 9.745.308.517 0 1.036 0 1.54-.01h.012c2.413 0 4.882-.108 7.27-.213l.612-.027c1.75-.078 3.536-.169 5.265-.257 1.293-.066 2.629-.135 3.941-.2 3.126-.153 7.258-.329 11.486-.329 1.144 0 2.27.013 3.349.038 2.3.063 4.38.177 6.358.35a2.554 2.554 0 012.394 2.5c.079 1.277.156 2.576.231 3.831.146 2.444.3 4.971.463 7.446a25.46 25.46 0 00.4 2.694c.395 2.157.842 4.6.229 6.395a.957.957 0 01-.764.637c-1.592.239-3.281.443-5.316.643-4.548.442-9.453.643-15.439.643zm-42.964-3.29c4.229 0 8.535.262 12.7.515 3.394.206 6.9.42 10.28.483 2.191.041 4.454.1 6.643.153 4.365.11 8.879.224 13.342.224 5.926 0 10.774-.2 15.256-.625 1.731-.17 3.208-.343 4.585-.539a16.348 16.348 0 00-.434-4.886 26.7 26.7 0 01-.43-2.912c-.166-2.48-.317-5.01-.464-7.457-.076-1.263-.154-2.569-.233-3.852v-.055a.638.638 0 00-.6-.633h-.032c-1.943-.17-3.989-.283-6.253-.345a140.79 140.79 0 00-3.3-.038c-4.186 0-8.288.175-11.393.327-1.31.062-2.645.13-3.935.2-1.731.089-3.521.18-5.278.258l-.612.027c-2.406.106-4.894.215-7.348.215-.51.006-1.034.01-1.558.01-2.953 0-6.084-.1-9.852-.311-2.667-.149-5.416-.343-7.841-.513-3.187-.227-6.482-.461-9.77-.627-2.295-.113-4.664-.231-7-.231h-.066a.461.461 0 00-.437.315.957.957 0 01-.791.646.581.581 0 00-.506.521 72.107 72.107 0 001.234 19.925.608.608 0 00.583.437.616.616 0 00.141-.017h.02c.9-.192 1.8-.352 2.8-.5a71.362 71.362 0 0110.546-.715z" fill="#ffd580"/><path d="M1402.234 483.629a140.168 140.168 0 00-20.3 24.372c-5.8 9.257-9.461 19.328-13.191 29.542-2.9 7.967-5.8 16.283-9.771 23.79a32.07 32.07 0 01-2.686 4.291c-4.928-.115-9.848 0-14.766.29 3.547-7.827 5.228-17.751 6.262-23.057 1.4-7.239 2.9-14.5 4.147-21.826 4.968-12.292 9.906-24.845 19.027-34.7a1.063 1.063 0 011.662 1.285c-5.537 8.64-7.4 18.922-9.3 28.846q-.793 4.2-1.643 8.4c.464-.8.967-1.613 1.411-2.4 9.276-15.463 21.163-32.278 37.541-40.82a1.286 1.286 0 011.594 1.991zM1305.267 565.805c-3.256-.233-6.522-.464-9.79-.629-7.983-5.8-12.166-18.361-16.65-25.88-9.6-16.08-16.922-33.823-32.442-45.159-1.073-.782-.474-2.9.967-2.339l.309.136c14.245 5.576 25.522 15.308 34.182 27.851.531.773 1.053 1.556 1.575 2.348a103.832 103.832 0 019.364 17.559c3.681 8.955 6.116 18.619 12.485 26.113z" fill="#25847b"/><path d="M1310.803 559.534a78 78 0 01-.966-6.088 45.851 45.851 0 01-1.7-3.121c-5.054-10.031-6.939-21.637-9.151-32.548-2.116-10.457-4.417-20.874-6.767-31.262-2.02-8.7-5.373-17.578-6.766-26.537a104.944 104.944 0 00-.637-7.625c-.165-1.31-2.116-1.4-2.126 0a49.987 49.987 0 00.744 8.417c.966 17-.889 34.266-.426 51.218.088 3.274.213 6.677.426 10.157a103.84 103.84 0 019.365 17.559c3.662 8.948 6.1 18.613 12.467 26.092 2.609.184 5.218.367 7.827.512a31.2 31.2 0 01-2.292-6.774z" fill="#53968e"/><path d="M1334.887 538.162c-.126 5.179-.291 10.359-.309 15.53 0 4.416-.309 8.745-2.213 12.669-2.647.116-5.287.212-7.924.241-3.8.048-7.577-.088-11.349-.3a31.177 31.177 0 01-2.292-6.766 77.48 77.48 0 01-.966-6.089c-.967-8.861-.437-18.187-.309-26.9.2-13.23.908-26.459.4-39.689-.483-12.408-1.363-24.778.735-37.1a1.063 1.063 0 012.038 0c1.247 8.311 6.766 51.489 9.931 77.8.29-5.412.655-10.824.792-16.245.4-15.588-1.082-31.64 2.5-46.947a1.063 1.063 0 012.038 0c2.074 6.766 2.116 13.761 2.619 20.767.589 8.069 2.3 16.022 3.354 24.033 1.303 9.62 1.196 19.303.955 28.996z" fill="#25847b"/><path d="M1354.678 499.024a201.3 201.3 0 01-2.7 21.994c-1.256 7.312-2.745 14.583-4.147 21.826-1.034 5.306-2.715 15.23-6.262 23.058-3.063.145-6.146.319-9.209.454 1.933-3.928 2.194-8.254 2.213-12.669 0-5.17.184-10.35.309-15.53 1.637-8.861 3.044-17.752 4.513-26.633 1.865-11.249 3.1-22.71 5.933-33.766 1.309-5.035 2.9-9.954 4.136-15.017a39.883 39.883 0 014.118-11.21c.512-.85 2.074-.546 1.933.531-1.253 15.642.08 31.315-.837 46.962z" fill="#53968e"/><path d="M929.2 718.394s5.442-1.208 24.314 24.314 45.42 45.42 45.42 45.42h390.583s-30.808-25.637-51.9-38.318a112.279 112.279 0 01-33.23-31.416z" fill="#d7a848"/><g opacity=".4" fill="#fff"><path d="M958.191 726.026s231.516-4.986 328.927-3.165c0-.004-300.293 5.804-328.927 3.165zM972.388 742.126s231.516-4.986 328.927-3.179c0 .001-300.322 5.807-328.927 3.179zM1301.315 730.058s-231.516 4.987-328.927 3.165c0 .004 300.322-5.804 328.927-3.165zM1309.78 748.429s-231.516 4.986-328.927 3.165c0 0 300.322-5.809 328.927-3.165zM996.536 769.678s231.516-4.977 328.927-3.165c0-.005-300.322 5.803-328.927 3.165zM1325.463 757.621s-231.515 4.938-328.927 3.165c0 .001 300.323-5.807 328.927-3.165zM1333.926 775.99s-231.516 4.986-328.927 3.165c.004.004 300.335-5.805 328.927-3.165z"/></g><path d="M1173.965 385.328c-4.693 3.82-9.142 12.052-9.142 12.052l-2.7 6.548s-1.309 4.542-4.262 17.269c-1.855 7.967 5.635 14.5 5.635 14.5s3.4 17.906-4.038 19.811c-8.7 2.241-25.387 6.977-26.653 6.59.619-1.16-5.151-10.272-4.658-16.35a26.6 26.6 0 013.493-8.7c.579-.715 0 .184.647-1.188 4.445-4.9 8.223-14.583 9.663-22.052-4.058-.744-17.578.067-17.288-22.1 1.575-13.969 1.025-27.2 3.218-27.909l4.687-4.774s19.627 2.474 31.523 7.508c1.692.725 3.179 10.872 2.774 13.114 3.324-8.1 8.465-5.537 9.161-4.465 1.332 1.926 1.115 5.295-2.06 10.146z" fill="#ecc298" fill-rule="evenodd"/><path d="M1139.706 379.744s-.443 4.977-4.911 6.861 3.344 2.426 4.214 1.72-2.6.792-2.1-1.227a1.6 1.6 0 01.968-1.1 6.021 6.021 0 001.827-6.252zM1134.367 392.026c.368 0 6.891 2.348 12.129-2.976 0 0 .386-.782-.966-1.585s1.419-1.468 2.3.677 1.449 1.575-.109 1.382-3.942 5.953-13.442 3.1c.032.003-1.309-.531.088-.598z" fill="#c37e57"/><path d="M1131.725 375.23s.822-3.972 6.88-3.492l-.183 2.251s-4.832-1.885-6.446 1.266zM1150.723 376.767s-.173-4.059-6.233-4.552l-.174 2.251s5.1-1.073 6.156 2.281zM1144.085 380.835s2.9 2.474 5.875.822-.889 2.213-3 1.652-3.581-2.088-2.875-2.474zM1131.203 380.158s2.9 2.474 5.876.831-1.778 2.074-3.865 1.507-2.745-1.912-2.011-2.338z" fill="#3c3427"/><path d="M1141.919 413.789s13.969 1.2 22.449-15.308l-2.242 5.441-4.117 16.661a9.922 9.922 0 00-.338 4.735s-5.692-12.089-16.09-9.93z" fill="#c37e57" fill-rule="evenodd"/><circle cx="20.69" cy="20.69" r="20.69" transform="translate(1162.543 319.76)" fill="#75432a"/><path d="M1203.922 340.46a20.69 20.69 0 01-39.949 7.567 20.69 20.69 0 0034.287-21.8 20.672 20.672 0 015.662 14.235z" fill="#58311d" fill-rule="evenodd"/><path d="M1183.753 383.643c-4.6 13.742-20.835 18.361-20.835 18.361l4.291-11.954c2.03-.348 4.572-2.561 5.885-3.819.546-.546.88-.9.88-.9 1.218-1.547 2.975-5.5 2.792-7.9s-1.575-2.9-1.575-2.9c-6-2.609-8.36 5.129-8.36 5.129-4.707-3.556-5.866-10.272-5.866-10.272-18.516-13.432-34.392-2.444-34.392-2.444 0-12.824 19.206-27.589 35.969-21.694 11.307 3.972 20 11.142 22.439 21.424a30.461 30.461 0 01-1.228 16.969z" fill="#75432a" fill-rule="evenodd"/><path d="M1183.75 383.654c-4.6 13.742-20.834 18.361-20.834 18.361l4.291-11.954c2.03-.348 4.572-2.562 5.885-3.82 0 1.933.067 3.527 3.692 3.334 4.136-.233 8.253-17.017 8.194-22.922a30.577 30.577 0 01-1.228 17.001z" fill="#58311d"/><path d="M1148.854 288.854v34.789a14.111 14.111 0 01-.309 2.106.7.7 0 01-.048.26.654.654 0 010 .145c-.967 4.272-4.126 13.3-14.583 22.429a134.65 134.65 0 00-4.522 4.108l-.3.281c-16.254 15.21-44.879 45.255-44.879 46.221s23.647 23.434 44.524 35.437c2.088 1.2 1.246 4.165 1.246 4.165l-16.428 34.529-52.32-48.552s-14.979-13.3-11.065-28.991 78.373-64.834 79.991-68.86 11.546-42.302 18.693-38.067zM1236.451 424.776l-41.555 42.521-4.281 4.377-27.658-28.991s-.908-5.421 3.865-7.025c18.825-6.369 46.685-35.756 46.685-36.5 0-1.015-35.248-37.93-49.662-50.513s-14.979-24.971-14.979-24.971v-34.791c7.141-4.233 17.057 34.027 18.671 38.057 1.469 3.662 63.25 44.685 77.31 63.867a15.318 15.318 0 012.657 4.977c3.925 15.695-11.053 28.992-11.053 28.992z" fill="#ecc298"/><path d="M1171.346 377.357s4.783-.25-.86 7.548c0 0 4.079-1.71 4.584-5.74s-3.724-1.808-3.724-1.808z" fill="#c37e57" fill-rule="evenodd"/><path d="M1185.677 527.069s-25.706 16.709-75.242-1.411a137.97 137.97 0 002.165-26.161c-.135-10.795-1.7-23.193-6.766-33.34 0 0 18.419-11.655 22.865-31.553a7.783 7.783 0 003.546 1.238s-4.938 16.718 10.563 17.327 20.652-17.5 20.652-17.5h3.314s9.413 29.715 28.025 31.668a83.4 83.4 0 00-11.428 34.537 67.916 67.916 0 002.31 25.194z" fill="#ecc298"/><path d="M1194.877 467.336a83.4 83.4 0 00-11.432 34.538c-36.523-7.729-59.171-5.218-70.845-2.381-.135-10.795-1.7-23.194-6.766-33.34 0 0 18.419-11.655 22.865-31.552a7.791 7.791 0 003.546 1.237s-4.938 16.719 10.563 17.327 20.652-17.5 20.652-17.5h3.314s9.462 29.719 28.103 31.671z" fill="#f8e6e6"/><g transform="translate(1105.834 434.601)" clip-path="url(#a)"><g transform="translate(4.292 -.981)" fill="#f5d1d1"><circle cx=".985" cy=".985" r=".985" transform="translate(73.29)"/><circle cx=".985" cy=".985" r=".985" transform="translate(73.29 7.044)"/><circle cx=".985" cy=".985" r=".985" transform="translate(73.29 14.1)"/><path d="M74.275 21.144a.985.985 0 11-.985.985.985.985 0 01.985-.985z"/><circle cx=".985" cy=".985" r=".985" transform="translate(73.29 28.189)"/><circle cx=".985" cy=".985" r=".985" transform="translate(73.29 35.243)"/><path d="M74.275 42.289a.985.985 0 11-.985.985.985.985 0 01.985-.985z"/><circle cx=".985" cy=".985" r=".985" transform="translate(73.29 49.334)"/><circle cx=".985" cy=".985" r=".985" transform="translate(73.29 56.378)"/><circle cx=".985" cy=".985" r=".985" transform="translate(73.29 63.433)"/><circle cx=".985" cy=".985" r=".985" transform="translate(78.528 3.527)"/><path d="M79.513 10.572a.985.985 0 11-.985.985.985.985 0 01.985-.985z"/><circle cx=".985" cy=".985" r=".985" transform="translate(78.528 17.617)"/><circle cx=".985" cy=".985" r=".985" transform="translate(78.528 24.672)"/><path d="M79.513 31.716a.985.985 0 11-.985.985.985.985 0 01.985-.985z"/><circle cx=".985" cy=".985" r=".985" transform="translate(78.528 38.762)"/><circle cx=".985" cy=".985" r=".985" transform="translate(78.528 45.816)"/><circle cx=".985" cy=".985" r=".985" transform="translate(78.528 52.861)"/><circle cx=".985" cy=".985" r=".985" transform="translate(78.528 59.905)"/><circle cx=".985" cy=".985" r=".985" transform="translate(78.528 66.951)"/><circle cx=".985" cy=".985" r=".985" transform="translate(62.824)"/><circle cx=".985" cy=".985" r=".985" transform="translate(62.824 7.044)"/><circle cx=".985" cy=".985" r=".985" transform="translate(62.824 14.1)"/><path d="M63.81 21.144a.985.985 0 11-.985.985.985.985 0 01.985-.985z"/><circle cx=".985" cy=".985" r=".985" transform="translate(62.824 28.189)"/><circle cx=".985" cy=".985" r=".985" transform="translate(62.824 35.243)"/><path d="M63.81 42.289a.985.985 0 11-.985.985.985.985 0 01.985-.985z"/><circle cx=".985" cy=".985" r=".985" transform="translate(62.824 49.334)"/><circle cx=".985" cy=".985" r=".985" transform="translate(62.824 56.378)"/><circle cx=".985" cy=".985" r=".985" transform="translate(62.824 63.433)"/><circle cx=".985" cy=".985" r=".985" transform="translate(68.062 3.527)"/><path d="M69.046 10.572a.985.985 0 11-.985.985.985.985 0 01.985-.985z"/><circle cx=".985" cy=".985" r=".985" transform="translate(68.062 17.617)"/><circle cx=".985" cy=".985" r=".985" transform="translate(68.062 24.672)"/><path d="M69.046 31.716a.985.985 0 11-.985.985.985.985 0 01.985-.985z"/><circle cx=".985" cy=".985" r=".985" transform="translate(68.062 38.762)"/><circle cx=".985" cy=".985" r=".985" transform="translate(68.062 45.816)"/><circle cx=".985" cy=".985" r=".985" transform="translate(68.062 52.861)"/><circle cx=".985" cy=".985" r=".985" transform="translate(68.062 59.905)"/><circle cx=".985" cy=".985" r=".985" transform="translate(68.062 66.951)"/><circle cx=".985" cy=".985" r=".985" transform="translate(52.349)"/><circle cx=".985" cy=".985" r=".985" transform="translate(52.349 7.044)"/><circle cx=".985" cy=".985" r=".985" transform="translate(52.349 14.1)"/><path d="M53.334 21.144a.985.985 0 11-.985.985.985.985 0 01.985-.985z"/><circle cx=".985" cy=".985" r=".985" transform="translate(52.349 28.189)"/><circle cx=".985" cy=".985" r=".985" transform="translate(52.349 35.243)"/><path d="M53.334 42.289a.985.985 0 11-.985.985.985.985 0 01.985-.985z"/><circle cx=".985" cy=".985" r=".985" transform="translate(52.349 49.334)"/><circle cx=".985" cy=".985" r=".985" transform="translate(52.349 56.378)"/><circle cx=".985" cy=".985" r=".985" transform="translate(52.349 63.433)"/><circle cx=".985" cy=".985" r=".985" transform="translate(57.586 3.527)"/><path d="M58.571 10.572a.985.985 0 11-.985.985.985.985 0 01.985-.985z"/><circle cx=".985" cy=".985" r=".985" transform="translate(57.586 17.617)"/><circle cx=".985" cy=".985" r=".985" transform="translate(57.586 24.672)"/><path d="M58.571 31.716a.985.985 0 11-.985.985.985.985 0 01.985-.985z"/><circle cx=".985" cy=".985" r=".985" transform="translate(57.586 38.762)"/><circle cx=".985" cy=".985" r=".985" transform="translate(57.586 45.816)"/><circle cx=".985" cy=".985" r=".985" transform="translate(57.586 52.861)"/><circle cx=".985" cy=".985" r=".985" transform="translate(57.586 59.905)"/><circle cx=".985" cy=".985" r=".985" transform="translate(57.586 66.951)"/><path d="M42.868 0a.985.985 0 11-.985.985.985.985 0 01.985-.985zM42.868 7.044a.986.986 0 11-.985.985.986.986 0 01.985-.985zM42.868 14.1a.985.985 0 11-.985.985.985.985 0 01.985-.985zM42.868 21.144a.985.985 0 11-.985.985.985.985 0 01.985-.985zM42.868 28.189a.985.985 0 11-.985.985.985.985 0 01.985-.985zM42.868 35.244a.985.985 0 11-.985.985.985.985 0 01.985-.985zM42.868 42.289a.985.985 0 11-.985.985.985.985 0 01.985-.985zM42.868 49.334a.985.985 0 11-.985.985.985.985 0 01.985-.985zM42.868 56.379a.985.985 0 11-.985.985.985.985 0 01.985-.985zM42.868 63.434a.986.986 0 11-.985.985.985.985 0 01.985-.985zM48.106 3.527a.985.985 0 11-.985.985.985.985 0 01.985-.985zM48.106 10.572a.985.985 0 11-.985.985.985.985 0 01.985-.985zM48.106 17.615a.986.986 0 11-.985.986.986.986 0 01.985-.986zM48.106 24.67a.985.985 0 11-.985.985.985.985 0 01.985-.985zM48.106 31.716a.985.985 0 11-.985.985.985.985 0 01.985-.985zM48.106 38.762a.985.985 0 11-.985.985.985.985 0 01.985-.985zM48.106 45.816a.985.985 0 11-.985.985.985.985 0 01.985-.985zM48.106 52.861a.985.985 0 11-.985.985.985.985 0 01.985-.985zM48.106 59.906a.985.985 0 11-.985.985.985.985 0 01.985-.985zM48.106 66.951a.985.985 0 11-.985.985.985.985 0 01.985-.985z"/><circle cx=".985" cy=".985" r=".985" transform="translate(31.407)"/><circle cx=".985" cy=".985" r=".985" transform="translate(31.407 7.044)"/><circle cx=".985" cy=".985" r=".985" transform="translate(31.407 14.1)"/><path d="M32.393 21.144a.985.985 0 11-.985.985.985.985 0 01.985-.985z"/><circle cx=".985" cy=".985" r=".985" transform="translate(31.407 28.189)"/><circle cx=".985" cy=".985" r=".985" transform="translate(31.407 35.243)"/><path d="M32.393 42.289a.985.985 0 11-.985.985.985.985 0 01.985-.985z"/><circle cx=".985" cy=".985" r=".985" transform="translate(31.407 49.334)"/><circle cx=".985" cy=".985" r=".985" transform="translate(31.407 56.378)"/><circle cx=".985" cy=".985" r=".985" transform="translate(31.407 63.433)"/><path d="M37.63 3.527a.985.985 0 11-.985.985.985.985 0 01.985-.985zM37.63 10.572a.985.985 0 11-.985.985.985.985 0 01.985-.985zM37.63 17.615a.986.986 0 11-.985.986.986.986 0 01.985-.986zM37.63 24.67a.985.985 0 11-.985.985.985.985 0 01.985-.985zM37.63 31.716a.985.985 0 11-.985.985.985.985 0 01.985-.985zM37.63 38.762a.985.985 0 11-.985.985.985.985 0 01.985-.985zM37.63 45.816a.985.985 0 11-.985.985.985.985 0 01.985-.985zM37.63 52.861a.985.985 0 11-.985.985.985.985 0 01.985-.985zM37.63 59.906a.985.985 0 11-.985.985.985.985 0 01.985-.985zM37.63 66.951a.985.985 0 11-.985.985.985.985 0 01.985-.985z"/><circle cx=".985" cy=".985" r=".985" transform="translate(20.942)"/><circle cx=".985" cy=".985" r=".985" transform="translate(20.942 7.044)"/><circle cx=".985" cy=".985" r=".985" transform="translate(20.942 14.1)"/><path d="M21.927 21.144a.985.985 0 11-.985.985.985.985 0 01.985-.985z"/><circle cx=".985" cy=".985" r=".985" transform="translate(20.942 28.189)"/><circle cx=".985" cy=".985" r=".985" transform="translate(20.942 35.243)"/><path d="M21.927 42.289a.985.985 0 11-.985.985.985.985 0 01.985-.985z"/><circle cx=".985" cy=".985" r=".985" transform="translate(20.942 49.334)"/><circle cx=".985" cy=".985" r=".985" transform="translate(20.942 56.378)"/><circle cx=".985" cy=".985" r=".985" transform="translate(20.942 63.433)"/><circle cx=".985" cy=".985" r=".985" transform="translate(26.179 3.527)"/><path d="M27.164 10.572a.985.985 0 11-.985.985.985.985 0 01.985-.985z"/><circle cx=".985" cy=".985" r=".985" transform="translate(26.179 17.617)"/><circle cx=".985" cy=".985" r=".985" transform="translate(26.179 24.672)"/><path d="M27.164 31.716a.985.985 0 11-.985.985.985.985 0 01.985-.985z"/><circle cx=".985" cy=".985" r=".985" transform="translate(26.179 38.762)"/><circle cx=".985" cy=".985" r=".985" transform="translate(26.179 45.816)"/><circle cx=".985" cy=".985" r=".985" transform="translate(26.179 52.861)"/><circle cx=".985" cy=".985" r=".985" transform="translate(26.179 59.905)"/><circle cx=".985" cy=".985" r=".985" transform="translate(26.179 66.951)"/><path d="M11.45 0a.985.985 0 11-.985.985A.985.985 0 0111.45 0zM11.45 7.044a.986.986 0 11-.985.985.985.985 0 01.985-.985zM11.45 14.1a.985.985 0 11-.985.985.985.985 0 01.985-.985zM11.45 21.144a.985.985 0 11-.985.985.985.985 0 01.985-.985zM11.45 28.189a.985.985 0 11-.985.985.985.985 0 01.985-.985zM11.45 35.244a.985.985 0 11-.985.985.985.985 0 01.985-.985zM11.45 42.289a.985.985 0 11-.985.985.985.985 0 01.985-.985zM11.45 49.334a.985.985 0 11-.985.985.985.985 0 01.985-.985zM11.45 56.379a.985.985 0 11-.985.985.985.985 0 01.985-.985zM11.45 63.434a.986.986 0 11-.985.985.985.985 0 01.985-.985z"/><circle cx=".985" cy=".985" r=".985" transform="translate(15.704 3.527)"/><path d="M16.689 10.572a.985.985 0 11-.985.985.985.985 0 01.985-.985z"/><circle cx=".985" cy=".985" r=".985" transform="translate(15.704 17.617)"/><circle cx=".985" cy=".985" r=".985" transform="translate(15.704 24.672)"/><path d="M16.689 31.716a.985.985 0 11-.985.985.985.985 0 01.985-.985z"/><circle cx=".985" cy=".985" r=".985" transform="translate(15.704 38.762)"/><circle cx=".985" cy=".985" r=".985" transform="translate(15.704 45.816)"/><circle cx=".985" cy=".985" r=".985" transform="translate(15.704 52.861)"/><circle cx=".985" cy=".985" r=".985" transform="translate(15.704 59.905)"/><circle cx=".985" cy=".985" r=".985" transform="translate(15.704 66.951)"/><circle cx=".985" cy=".985" r=".985"/><circle cx=".985" cy=".985" r=".985" transform="translate(0 7.044)"/><circle cx=".985" cy=".985" r=".985" transform="translate(0 14.1)"/><path d="M.985 21.144a.985.985 0 11-.985.985.985.985 0 01.985-.985z"/><circle cx=".985" cy=".985" r=".985" transform="translate(0 28.189)"/><circle cx=".985" cy=".985" r=".985" transform="translate(0 35.243)"/><path d="M.985 42.289a.985.985 0 11-.985.985.985.985 0 01.985-.985z"/><circle cx=".985" cy=".985" r=".985" transform="translate(0 49.334)"/><circle cx=".985" cy=".985" r=".985" transform="translate(0 56.378)"/><circle cx=".985" cy=".985" r=".985" transform="translate(0 63.433)"/><circle cx=".985" cy=".985" r=".985" transform="translate(5.237 3.527)"/><path d="M6.223 10.572a.985.985 0 11-.986.985.986.986 0 01.986-.985z"/><circle cx=".985" cy=".985" r=".985" transform="translate(5.237 17.617)"/><circle cx=".985" cy=".985" r=".985" transform="translate(5.237 24.672)"/><path d="M6.223 31.716a.985.985 0 11-.986.985.986.986 0 01.986-.985z"/><circle cx=".985" cy=".985" r=".985" transform="translate(5.237 38.762)"/><circle cx=".985" cy=".985" r=".985" transform="translate(5.237 45.816)"/><circle cx=".985" cy=".985" r=".985" transform="translate(5.237 52.861)"/><circle cx=".985" cy=".985" r=".985" transform="translate(5.237 59.905)"/><circle cx=".985" cy=".985" r=".985" transform="translate(5.237 66.951)"/></g></g><path d="M1242.328 402.82s-2.024 4.638-7.055 4.233c.004 0 6.449 4.628 7.055-4.233z" fill="#c37e57"/><path d="M1112.455 495.708s30.1-8.978 71.415 2.377l.493-1.034s-26.836-14.37-72-3.025z" fill="#f1b6b6"/><path d="M1060.273 401.013s1.506 5.286 6.494 5.286c.016 0-6.931 3.923-6.494-5.286z" fill="#c37e57"/><path d="M1255.723 624.218c-19.917 16.922-63.781 25.445-63.781 25.445-9.664-5.064-15.192-21.58-15.192-21.58 19.241-19.7 35.282-21.825 35.282-21.825-19.82-6.243-53.354-22.014-53.354-22.014-6.948 0-9.276 1.516-9.276 1.516a283.388 283.388 0 00-5.209 61.845c0 .967 0 2.02.078 3.034a172.419 172.419 0 01-2.194 30.741c-1.936 12.851-4.432 22.563-4.432 22.563-15.824 3.624-33.089 0-33.089 0-1.72-10.872-3.189-17.22-1.74-32.78s-3.614-39.864-3.614-39.864c-14.4-70.836 11.6-107.6 11.6-107.6 44.454 15.781 74.894 3.344 74.894 3.344s43.486 24.981 60.486 42.192 29.465 38.071 9.541 54.983z" fill="#5f3d53"/><path d="M1142.074 681.381c-.58 1.507-1.566 1.151-1.566 1.151a2.764 2.764 0 01-3.633 1.444 2.6 2.6 0 01-.314-.161c-1.507 1.585-2.8 3.266-6.156 1.73-3.71-1.682-.531-18.824-.966-22.855a93.373 93.373 0 010-11.895l14.834-3.2c0 .967 0 2.02.078 3.034a172.421 172.421 0 01-2.277 30.752z" fill="#3f2112" opacity=".54" style="isolation:isolate"/><path d="M1092.97 759.724c-.308 0-5.8.589-4.281 2.03s10.215 3.556 14.4 3.2 10.881-1.31 16.206-4.63a8.866 8.866 0 013.672-.6c2.271 0 10.119-1.662 8.7-4.987s-16.3-1.256-16.3-1.256z" opacity=".36" style="isolation:isolate"/><path d="M1132.692 726.23a53.391 53.391 0 00-1.111 12.069c.88 9.113.309 12.563-.754 14.4a5.05 5.05 0 01-.654.9 13.209 13.209 0 01-4.117 2.976h-.078l-.376.165c-2.038.724-5.74-.126-8.475 1.855a25.92 25.92 0 01-7.325 3.12l-1.015.271-.26.068c-2.648.609-4.513.966-4.735.966s-1.246-.155-2.589-.387l-3.981-.715-.705-.126c-2.251-.405-4.136-.764-4.136-.764s-1.43.183-3.12-2a1.487 1.487 0 01-.109-.7c.126-3.2 4.436-4.3 4.436-4.3 8.234-2.464 17.916-9.713 17.916-9.713-1.933-6.766-4.436-23.193-5.8-32.857-.647-4.474-1.044-7.519-1.044-7.519 13.665 2.9 33.079 0 33.079 0s-3.23 12.23-5.047 22.291zM1191.988 649.663l-5.876 1.15c-10.465 2.039-31.4 6.194-33.32 6.253-4.91.154-5.8 2.647-5.8 2.647-1.4 3.247-.968 11.548-2.146 16.526a1.085 1.085 0 01-.088.367 12.552 12.552 0 01-.821 2.417c-.474.609-1.209 0-1.209 0a2.251 2.251 0 01-.967 1.449.832.832 0 01-1.147-.259l-.013-.022s.109.84-1.236 1.537a2.329 2.329 0 01-2.182 0 1.933 1.933 0 01-.426-.26 4.362 4.362 0 01-.532.86 2.9 2.9 0 01-1.865 1.073h-.174a4.3 4.3 0 01-2.369-.58c-1.309-.782-.8-3.866-.965-7.857 0-3.595.967-9.094.193-14.689-.261-1.932-1.2-4.911-1.334-6.339v-.715a9.119 9.119 0 00-.088-.909c-.967-9.663 9.51-9.209 9.51-9.209 5.306-.7 16.941-5.518 25.908-9.519 6.687-2.986 11.9-5.5 11.9-5.5a48.524 48.524 0 0015.046 21.579z" fill="#ecc298"/><path d="M1147.4 585.003s-5.129-6.514-10.872-8.562c-.001 0 5.431 5.773 10.872 8.562zM1160.059 583.214a19.331 19.331 0 018.3-9.064s-3.247 3.929-6.339 7.934a48.754 48.754 0 015.441 1.13c2.01.562-7.402 0-7.402 0z" fill="#3f2112" opacity=".38" style="isolation:isolate"/><path d="M1211.21 606.409s8.968-5.441 9.364-5.441-7.142 5.441-7.142 5.441l8.456 2.436-10.07-1.74zM1108.27 648.088s9.664 4.63 16.1-5.441c0 .002-.599 13.694-16.1 5.441z" fill="#3f2112" opacity=".54" style="isolation:isolate"/><path d="M1191.989 649.663l-5.875 1.15-.165-.078c-2.838-13.954-20.625-17.076-21.062-17.153 6.688-2.986 11.895-5.5 11.895-5.5a48.53 48.53 0 0015.2 21.58zM1140.784 648.523s-4.233.376-3.4 3.093c0 .018 2.129-3.006 3.4-3.093zM1137.088 681.718a1.955 1.955 0 01-.426-.26 4.4 4.4 0 01-.531.86 27.182 27.182 0 00.967-5.7c-.049-.003 1.343 1.07-.01 5.1zM1140.48 680.23l.291-3.334a7.071 7.071 0 01.368 1.845 6.585 6.585 0 01-.193 1.855.79.79 0 01-.464-.367zM1142.703 679.021c0-.136.348-2.406.348-2.406a5.833 5.833 0 01.173 1.309 5.67 5.67 0 01-.173 1.31zM1137.639 703.965s-3.131 12.186-4.948 22.226c-.686-20.478-27.064-14.732-27.064-14.732-.647-4.474-1.044-7.519-1.044-7.519 13.671 2.942 33.056.025 33.056.025zM1111.43 744.339s3.779 1.933 5.692 1.933c0 0-3.72.1-5.334-.967l-1.662 1.6a7.881 7.881 0 001.304-2.566zM1127.488 747.286s.966 3.865-1.614 4.484c.004 0 4.285-.706 1.614-4.484zM1130.816 752.698a5.149 5.149 0 01-.654.9 13.2 13.2 0 01-4.117 2.977h-.078l-.376.165c-2.039.724-5.74-.126-8.475 1.855a25.92 25.92 0 01-7.325 3.12 20.736 20.736 0 005.517-3.624c2.51-2.367 5.537-2.02 9.771-2.51s5.737-2.883 5.737-2.883zM1091.707 756.263a4.447 4.447 0 00-.764.271c.522-.493.764-.271.764-.271z" fill="#c37e57"/><path d="M1095.157 760.768c.109.512.654.85 1.285 1.043-2.251-.405-4.136-.764-4.136-.764s-1.43.183-3.121-2a5.324 5.324 0 01.358-1.3 2.9 2.9 0 011.4-1.218 5.429 5.429 0 00-.873 1.188c-1.14 1.933 1.2 2.648 1.45 2.728s-.219-1.035 0-2.193 2.348-1.6 2.348-1.6l-1.035.58c-1.507.85-1.053 2.609-.654 3.314s2.728.782 2.464.5 0-1.855 0-1.855a2.639 2.639 0 012.116-2.194 3.693 3.693 0 00-1.6 3.769zM1101.196 762.671l-3.981-.714c.965.1 1.787-.155 1.333-.754-.88-1.16.7-3.865 2.571-3.972a31.213 31.213 0 004.629-.966c-1.16 1.161-4.552 1.517-4.552 1.517-4.014 1.71-.413 4.773 0 4.889z" fill="#c37e57"/><path d="M1112.455 531.494s13.433 15.839 14.245 20.874c-.048.002-3.75-17.317-14.245-20.874zM1186.247 532.653s-11.022 16.158-11.683 21.261c0 .028 3.034-17.637 11.683-21.261z" fill="#3f2112" opacity=".38" style="isolation:isolate"/><path d="M1148.714 324.292s-3.624-23.483-1.43-25.9 3.391 4.755 4.3 8.833c0 0-1.053-10.794-3.247-10.495s-.965.377-.965.377-.546-2.9 1.506-2.339 5.045 7.653 5.422 10.9c0 0-2.031-11.655-5.422-12.114 0 0-1.807.3-1.884.968 0 0 .512-4.3 2.9-3.314s6.455 12.64 6.455 12.64-3.653-14.5-6.968-14.077c0 0-2.838-.251-2.745 5.286s-.715 8.173 2.078 29.235z" fill="#c37e57"/><path d="M1140.267 313.962s-2.58 12.186.822 11.422 2.715-1.449 2.715-1.449-1.14 3.344-4.038 1.933.126-10.979.5-12.234" fill="#c37e57" opacity=".46" style="isolation:isolate"/><path d="M1141.708 294.942s3.914-3.952 2.1 3.75-2.1 9.364-2.1 9.364 5.876-16.428 1.16-14.708c0 0 1.228-2.658 2.04-2.58 1.324.116 1.637 2.106 1.643 4.832 0 0 1.652-7.161-1.643-5.47a14.566 14.566 0 00-3.2 4.813zM1144.345 308.511s2.194-7.731 2.213-9.287l.087 1.768a37.392 37.392 0 01-2.3 7.519z" fill="#c37e57"/></g></svg>