<svg xmlns="http://www.w3.org/2000/svg" width="116" height="125.25" viewBox="0 0 116 125.25"><g transform="translate(-571 -5149.343)"><circle cx="36.5" cy="36.5" r="36.5" transform="translate(571 5195)" fill="#ededed" opacity="0.8"/><circle cx="21.5" cy="21.5" r="21.5" transform="translate(644 5157)" fill="#ededed" opacity="0.8"/><g transform="translate(-2.648 80)"><g transform="translate(309.868 4978.98)"><path d="M331.745,108.563l8.1.059.253,3.782-4.282,1.95-4.282-2.675Z" transform="translate(6.081 6.238)" fill="#ffcec8"/><path d="M326.465,126.629s-.419,51.5,9.354,68.871h3.722l.107-56.462h1.706l20.409,9s-12.289-.268-16.709,2.293v2.932c2.107.354,24.958,1.857,26.011.332a5.844,5.844,0,0,0-.37-7.147c-3.963-4.573-11.7-12.343-21.05-15.763l-.41-4.053Z" transform="translate(3.488 15.476)" fill="#ce809d"/><path d="M339.1,172.2l.97,2.7a1.486,1.486,0,0,1-1.415,1.938h-10.8a.54.54,0,0,1-.175-1.05,5.674,5.674,0,0,1,1.688-.284c2.565-.083,6.012-3.3,6.012-3.3Z" transform="translate(3.925 38.777)" fill="#ffcec8"/><path d="M340.333,142.829l-2.7-1.463a1.485,1.485,0,0,0-1.936,1.415v10.8a.54.54,0,0,0,1.05.177,5.737,5.737,0,0,0,.283-1.688c.083-2.566,3.3-6.311,3.3-6.311Z" transform="translate(8.209 22.975)" fill="#ffcec8"/><path d="M343.158,108.622c-1.381,4.894-4.236,4.266-4.236,4.266s-2.483.568-3.864-4.325l-7.38.725-2.184.455-.44,12.071,1.641,16.732,12.227,2.083,11.875-2.083,1.995-17.3.562-9.78a2.052,2.052,0,0,0-1.882-2.163Z" transform="translate(2.768 6.238)" fill="#1eb5f0"/><path d="M328.662,118.8a13.513,13.513,0,0,0,1.035-1.377h-7.182l-2.787,10.21a2.864,2.864,0,0,0,3.236,3.521l15.685-2.541v-2.974H326.6Z" transform="translate(0 10.77)" fill="#ffcec8"/><path d="M351.838,117.425h-7.176a13.583,13.583,0,0,0,1.029,1.377l2.066,6.84H335.7v2.974l15.685,2.541a2.864,2.864,0,0,0,3.236-3.521Z" transform="translate(8.214 10.77)" fill="#ffcec8"/><path d="M333.8,127.957,336,125.69v-6.36a.615.615,0,0,0-1.208-.165l-1.545,5.562-4.127.275,1.238,2.908Z" transform="translate(4.849 11.429)" fill="#ffcec8"/><path d="M336.742,127.957l-3.065-2.267v-6.36a.615.615,0,0,1,1.208-.165l1.544,5.562,4.129.275-1.238,2.908Z" transform="translate(7.177 11.429)" fill="#ffcec8"/><path d="M348.156,112.542l3.251,10.575-10.161.768L341.79,109l1.968.109A4.877,4.877,0,0,1,348.156,112.542Z" transform="translate(11.047 6.46)" fill="#1eb5f0"/><path d="M323.625,112.624,320.374,123.2l10.159.768-.543-14.888-1.969.109A4.875,4.875,0,0,0,323.625,112.624Z" transform="translate(0.375 6.502)" fill="#1eb5f0"/><g transform="translate(335.128 96.363)"><path d="M338.406,110.447s0,3.02-2.879,3.02a3.29,3.29,0,0,1-3.251-2.9l.617-4.3,4.877.154Z" transform="translate(-328.668 -91.3)" fill="#ffcec8"/><path d="M337.831,107.746l-.475.426a1.824,1.824,0,0,1-1.081.367h-2.049a1.842,1.842,0,0,1-1.2-.462l-.455-.509.172-1.3,4.877.154Z" transform="translate(-328.517 -91.3)" fill="#ffa69c"/><path d="M340.268,105.825V99.233H331.53v7.23a4.613,4.613,0,0,0,1.286,3.313l.978,1.2a1.561,1.561,0,0,0,1.079.461h1.836a1.539,1.539,0,0,0,.976-.369l1.12-1.123a4.517,4.517,0,0,0,1.463-3.47Z" transform="translate(-329.049 -94.895)" fill="#ffcec8"/><path d="M332.312,103.3c0,.725.1,1.315-.426,1.315s-1.477-.589-1.477-1.315.426-1.316.951-1.316S332.312,102.577,332.312,103.3Z" transform="translate(-329.622 -93.487)" fill="#ffcec8"/><path d="M337.149,103.3c0,.725-.1,1.315.426,1.315s1.477-.589,1.477-1.315-.426-1.316-.952-1.316S337.149,102.577,337.149,103.3Z" transform="translate(-326.18 -93.487)" fill="#ffcec8"/><path d="M343.03,100.078c-.074-.091-.174-.159-.245-.254a.992.992,0,0,1,.026-.955,1.447,1.447,0,0,0,.19-.961.356.356,0,0,0-.128-.19c-.107-.071-.255-.044-.372-.1-.351-.174-.041-.783-.3-1.078a.561.561,0,0,0-.361-.16,1.594,1.594,0,0,0-1.014.2,5.628,5.628,0,0,1-.591.373.572.572,0,0,1-.648-.082c-.13-.148-.154-.4-.339-.465a.422.422,0,0,0-.225,0,1.975,1.975,0,0,0-.852.407c-.222.183-.4.414-.633.583a.837.837,0,0,1-.807.156c-.334-.148-.437-.565-.67-.846a.247.247,0,0,0-.159-.106.27.27,0,0,0-.215.128c-.3.367-.485.818-.763,1.206a1.427,1.427,0,0,1-1.177.692c-.688-.051-1.072-.807-1.653-1.179a.382.382,0,0,0-.29-.08c-.113.029-.181.139-.239.24l-.544.969c-.21.03-.307-.307-.518-.329s-.3.295-.287.521l.184,3.033a.32.32,0,0,0-.449.139.859.859,0,0,0-.045.524,7.745,7.745,0,0,0,.617,2.154,1.377,1.377,0,0,0,.29.5l.006.363a.848.848,0,0,1,1.549.136v-2.38l.145.021a1.9,1.9,0,0,0,.8.485,1.615,1.615,0,0,0,1.115.063,1.412,1.412,0,0,1,.659-.183,1.238,1.238,0,0,1,.485.278,1.984,1.984,0,0,0,1.644.219,4.135,4.135,0,0,0,1.48-.839c.187-.154.437-.325.651-.209a.444.444,0,0,1,.2.376c.008.148-.024.295-.026.443-.011.666,1.5,1.681,1.59,1.724a.96.96,0,0,1,1.318-.443v-.323c.178-.411.339-.8.493-1.2a1.36,1.36,0,0,0,.091-1.115,2.261,2.261,0,0,1-.2-.349.657.657,0,0,1-.006-.311,7.511,7.511,0,0,1,.316-.9A.975.975,0,0,0,343.03,100.078Z" transform="translate(-329.888 -96.363)" fill="#fda74c"/></g></g><g transform="translate(189.817 4805.424)"><g transform="translate(386.831 337.496)"><path d="M389.087,326.7a5.437,5.437,0,0,1,2.782-1.111.777.777,0,0,1,.5.107l7.926,4.9a1.908,1.908,0,0,1,.515.468,1.952,1.952,0,0,1-.852,3.015L394.39,336.2a5.158,5.158,0,0,1-1.371.333,5.53,5.53,0,0,1-4.938-2.114,5.4,5.4,0,0,1-.987-2.06A5.514,5.514,0,0,1,389.087,326.7Z" transform="translate(-386.78 -308.426)" fill="#ffcec8"/><path d="M399.536,316.7c.109.765.728,1.574.3,2.217-.4.594-1.315.439-1.944.775a2.224,2.224,0,0,0-.767,2.419c.2,1.079.736,2.331.034,3.344a3.455,3.455,0,0,1-2.248,1.129c-2.007.427-4.442.758-6.03,2.173-1.467,1.307-1.929,3.474-2.029,5.368a18.69,18.69,0,0,0,.534,5.268,4.384,4.384,0,0,0,1.633,2.535,6.12,6.12,0,0,0,6.465.9l-.584-7.89c8.69,5.493,17.048-6.292,17.682-7.233l-11.452-13.787C400.288,314.651,399.377,315.6,399.536,316.7Z" transform="translate(-386.831 -313.924)" fill="#1eb5f0"/><path d="M393.3,329.443c.767.121,1.336.544,1.433-.074s-.313-2.045-1.08-2.166a1.16,1.16,0,1,0-.353,2.239Z" transform="translate(-384.359 -307.674)" fill="#ffcec8"/></g><path d="M408.536,308.318l-8.271,10.071,10.644,11.068,7.363-11.369Z" transform="translate(6.333 20.929)" fill="#ffcec8"/><path d="M401.586,315.162l-4.124,4.594s8.546,10.16,3.165,14.174l4.186.215a5.025,5.025,0,0,0,2.547-.544l.681-.349a5.037,5.037,0,0,0,2.366-2.572l1.823-4.449Z" transform="translate(5.011 24.156)" fill="#ce809d"/><path d="M399.3,318.284l-3.509,3.948a8.854,8.854,0,0,0-2.228,6.261l.024.524a11.034,11.034,0,0,0,3.044,6.662l25.209,24.146,1.455-1.114-.065-1.689-19.077-24.227a5.236,5.236,0,0,0,.824-6.211A77.945,77.945,0,0,0,399.3,318.284Z" transform="translate(3.171 25.628)" fill="#ffcec8"/><path d="M403.664,329.441s.9-6.359,6.465-8.044c.275-9.12,1.295-18.9,3.949-26.005,0,0-5.647-9.426,1.443-23.438h3.4l2.126,54.774s4.713,3.948,2.42,30.7a30.684,30.684,0,0,1-2.129,23.124h-2.8l-.8-21.215s-4.8-13.062-4.8-19.459Z" transform="translate(7.935 3.788)" fill="#ce809d"/><path d="M415.129,276l-.049-1.87A2.069,2.069,0,0,0,416.548,272c-.051-2.185-1.757-2.142-1.757-2.142l-1.863-5.653c-.213-.491-.843-.306-.83.244l-.375,11.294Z" transform="translate(11.734 0)" fill="#ffcec8"/><path d="M419.135,345.759l1.4,2.582a1.42,1.42,0,0,1-1.352,1.853H408.85a.517.517,0,0,1-.168-1.005,5.45,5.45,0,0,1,1.614-.271c2.453-.079,6.036-3.159,6.036-3.159Z" transform="translate(10.136 38.579)" fill="#ffcec8"/></g></g></g></svg>