<svg xmlns="http://www.w3.org/2000/svg" width="100" height="108" viewBox="0 0 100 108"><g transform="translate(-377 -5170)"><circle cx="36.5" cy="36.5" r="36.5" transform="translate(377 5170)" fill="#ededed" opacity="0.8"/><circle cx="21.5" cy="21.5" r="21.5" transform="translate(434 5235)" fill="#ededed" opacity="0.8"/><g transform="translate(357.846 5049.944)"><path d="M56.724,142.05h.847s-1.638,5.527-1.638,6.119-8.5,1.428-8.5,1.428-2.558-3.179-2.519-3.6a42.78,42.78,0,0,1,1.95-3.949Z" transform="translate(16.617 13.955)" fill="#ffcec8"/><path d="M66.007,173.255l-1.128-5.794-28.072-2.024c-4.037.271-7.072,4.676-6.661,9.671s4.1,8.545,8.1,7.8Z" transform="translate(1.006 38.619)" fill="#ce809d"/><path d="M31.983,170.78l15.89-9.505H83.839l16.5,12.566L62.11,171.581Z" transform="translate(2.983 34.23)" fill="#ce809d"/><path d="M47.105,169.065l2.369-.7s-.027-2.749,2.408-3.472a2.655,2.655,0,0,1,3.591,2.036l8.467.635a.8.8,0,0,1-.033,1.531l-15.856,4.837Z" transform="translate(18.932 37.868)" fill="#ffa69c"/><path d="M46.931,167.223l-12.6-.335a.614.614,0,0,1-.6-.631.579.579,0,0,1,.631-.6l12.587.335a.615.615,0,0,1-.014,1.231Z" transform="translate(4.824 38.848)" fill="#c67392"/><path d="M86.17,148.964a12.329,12.329,0,0,0-7.341-5.334c-.023-.006-9.3-1.58-9.3-1.58-1.792,6.41-5.348,6.279-5.348,6.279s-3.571.132-5.363-6.279l-9.217,1.566a11.6,11.6,0,0,0-7.162,5.038l-8.876,13.2,10.366,9.924L46.2,168.21V181.55l17.984,3.113,17.982-3.113V168.21l2.776,3.828L94.97,161.76Z" transform="translate(4.654 13.955)" fill="#1eb5f0"/><path d="M59.236,169.065l-2.369-.7s.027-2.749-2.408-3.472a2.655,2.655,0,0,0-3.591,2.036l-8.467.635a.8.8,0,0,0,.033,1.531l15.856,4.837Z" transform="translate(13.386 37.868)" fill="#ffcec8"/><path d="M40.132,152.589,32.252,183a3.872,3.872,0,0,0-2.983,4.769c.818,3.976,1.843,3.976,1.843,3.976l17.475-31.08Z" transform="translate(0 25.069)" fill="#ffcec8"/><path d="M49.787,171.874l1.075-4.941,27.781-.187c4.009.651,6.766,5.334,6.049,10.273s-4.617,8.132-8.558,7.008Z" transform="translate(21.76 40)" fill="#ce809d"/><path d="M70.211,167.822l-11.826-.281a.616.616,0,0,1,.014-1.233l11.826.284a.615.615,0,0,1-.014,1.231Z" transform="translate(30.192 39.538)" fill="#c67392"/><path d="M66.622,152.589,75.529,183a3.872,3.872,0,0,1,2.981,4.769c-.818,3.976-1.843,3.976-1.843,3.976l-18.1-30.824Z" transform="translate(31.025 25.069)" fill="#ffcec8"/><g transform="translate(59.109 128.818)"><path d="M55.19,145.474s0,4.389-4.181,4.389c-4.212,0-4.724-4.216-4.724-4.216l.894-6.246,7.086.222Z" transform="translate(-41.042 -117.658)" fill="#ffcec8"/><path d="M54.242,141.551l-.69.618a2.646,2.646,0,0,1-1.57.534H49a2.689,2.689,0,0,1-1.746-.672l-.66-.74.249-1.892,7.086.222Z" transform="translate(-40.711 -117.658)" fill="#ffa69c"/><path d="M58.183,141.462v-9.577h-12.7v10.5a6.7,6.7,0,0,0,1.87,4.814l1.42,1.748a2.266,2.266,0,0,0,1.568.67h2.667a2.221,2.221,0,0,0,1.42-.536l1.627-1.631a6.554,6.554,0,0,0,2.124-5.04Z" transform="translate(-41.884 -125.584)" fill="#ffcec8"/><path d="M47.053,136.74c0,1.056.144,1.911-.62,1.911s-2.143-.855-2.143-1.911.618-1.911,1.381-1.911S47.053,135.686,47.053,136.74Z" transform="translate(-43.146 -122.479)" fill="#ffcec8"/><path d="M51.495,136.74c0,1.056-.146,1.911.618,1.911s2.145-.855,2.145-1.911-.618-1.911-1.383-1.911S51.495,135.686,51.495,136.74Z" transform="translate(-35.56 -122.479)" fill="#ffcec8"/><path d="M62.824,134.215c-.107-.132-.253-.232-.355-.37a1.433,1.433,0,0,1,.039-1.387,2.1,2.1,0,0,0,.275-1.4.522.522,0,0,0-.185-.277c-.158-.1-.374-.066-.542-.15-.507-.253-.06-1.136-.431-1.566a.823.823,0,0,0-.526-.232,2.321,2.321,0,0,0-1.473.3,8,8,0,0,1-.857.542.834.834,0,0,1-.943-.119c-.187-.214-.224-.577-.493-.674a.582.582,0,0,0-.325,0,2.83,2.83,0,0,0-1.239.59c-.323.265-.584.6-.92.847a1.222,1.222,0,0,1-1.173.228c-.485-.216-.633-.822-.972-1.233a.375.375,0,0,0-.23-.154.4.4,0,0,0-.312.189c-.44.532-.7,1.19-1.107,1.753a2.079,2.079,0,0,1-1.712,1c-1-.074-1.557-1.171-2.4-1.714a.566.566,0,0,0-.423-.115c-.164.041-.265.2-.347.349l-.791,1.407c-.3.043-.446-.446-.752-.479-.329-.035-.436.427-.417.758q.136,2.2.267,4.405a.465.465,0,0,0-.651.2,1.272,1.272,0,0,0-.068.764,11.36,11.36,0,0,0,.9,3.127,2.035,2.035,0,0,0,.423.733l.01.526a1.23,1.23,0,0,1,2.248.2v-3.456l.212.031a2.757,2.757,0,0,0,1.159.7,2.349,2.349,0,0,0,1.621.095,2.06,2.06,0,0,1,.957-.267,1.808,1.808,0,0,1,.7.4,2.878,2.878,0,0,0,2.387.316,5.974,5.974,0,0,0,2.149-1.218c.273-.224.637-.471.947-.3a.643.643,0,0,1,.286.547c.012.216-.035.429-.039.643-.012.97,2.184,2.441,2.311,2.5a1.394,1.394,0,0,1,1.915-.641v-.473c.257-.6.491-1.165.715-1.74a1.992,1.992,0,0,0,.134-1.621,3.153,3.153,0,0,1-.3-.507.951.951,0,0,1-.008-.45,10.792,10.792,0,0,1,.46-1.3A1.413,1.413,0,0,0,62.824,134.215Z" transform="translate(-43.733 -128.818)" fill="#fda74c"/></g></g></g></svg>