<svg xmlns="http://www.w3.org/2000/svg" xmlns:xlink="http://www.w3.org/1999/xlink" width="88" height="97.761" viewBox="0 0 88 97.761"><defs><linearGradient id="a" y1="0.689" x2="1" y2="0.403" gradientUnits="objectBoundingBox"><stop offset="0" stop-color="#9b4a69"/><stop offset="1" stop-color="#f388b0"/></linearGradient></defs><g transform="translate(-50 -27.2)"><g transform="translate(50 27.2)"><path d="M137.616,49.157l-21.573-21.53a.021.021,0,0,1-.021-.021,1.274,1.274,0,0,0-.94-.406.591.591,0,0,0-.192.021H84.709a9.827,9.827,0,0,0-9.825,9.825v5.318H59.825A9.827,9.827,0,0,0,50,52.19v62.946a9.827,9.827,0,0,0,9.825,9.825h43.466a9.827,9.827,0,0,0,9.825-9.825v-5.318h15.058A9.827,9.827,0,0,0,138,99.992V50.076A1.277,1.277,0,0,0,137.616,49.157ZM116.363,31.579l17.3,17.258H123.625a7.256,7.256,0,0,1-7.262-7.262Zm-5.81,83.536a7.256,7.256,0,0,1-7.262,7.262H59.825a7.256,7.256,0,0,1-7.262-7.262V52.169a7.256,7.256,0,0,1,7.262-7.262H88.938V56.718a9.827,9.827,0,0,0,9.825,9.825h11.812v48.571ZM91.5,56.718v-10l17.3,17.258H98.763A7.283,7.283,0,0,1,91.5,56.718Zm43.936,43.252a7.256,7.256,0,0,1-7.262,7.262H113.117V65.219a1.2,1.2,0,0,0-.384-.9L91.159,42.771a.021.021,0,0,1-.021-.021,1.274,1.274,0,0,0-.94-.406.591.591,0,0,0-.192.021H77.425v-5.34a7.256,7.256,0,0,1,7.262-7.262H113.8V41.575a9.827,9.827,0,0,0,9.825,9.825h11.812Z" transform="translate(-50 -27.2)" fill="url(#a)"/><path d="M152.984,385h-29.9a1.282,1.282,0,0,0,0,2.563h29.9a1.282,1.282,0,0,0,0-2.563Z" transform="translate(-106.464 -308.577)" fill="url(#a)"/><path d="M152.984,275.1h-29.9a1.282,1.282,0,0,0,0,2.563h29.9a1.282,1.282,0,1,0,0-2.563Z" transform="translate(-106.464 -222.15)" fill="url(#a)"/><path d="M152.984,330h-29.9a1.282,1.282,0,0,0,0,2.563h29.9a1.282,1.282,0,1,0,0-2.563Z" transform="translate(-106.464 -265.324)" fill="url(#a)"/></g></g></svg>