<svg xmlns="http://www.w3.org/2000/svg" xmlns:xlink="http://www.w3.org/1999/xlink" width="104.049" height="98.72" viewBox="0 0 104.049 98.72"><defs><linearGradient id="a" x1="1.203" y1="-0.206" x2="-0.358" y2="1.311" gradientUnits="objectBoundingBox"><stop offset="0" stop-color="#9b8fc4"/><stop offset="1" stop-color="#251d41"/></linearGradient><linearGradient id="b" x1="2.145" y1="-1.05" x2="-2.718" y2="3.531" xlink:href="#a"/><linearGradient id="c" x1="1.853" y1="-1.637" x2="-0.83" y2="3.056" xlink:href="#a"/><linearGradient id="d" x1="2.494" y1="-2.821" x2="-0.189" y2="1.872" xlink:href="#a"/><linearGradient id="e" x1="3.346" y1="-2.181" x2="-1.517" y2="2.4" xlink:href="#a"/><linearGradient id="f" x1="3.038" y1="-1.891" x2="-1.825" y2="2.69" xlink:href="#a"/><linearGradient id="g" x1="2.346" y1="-2.497" x2="-0.337" y2="2.194" xlink:href="#a"/></defs><g transform="translate(-28.873 -37.35)"><g transform="translate(48.909 38.873)" opacity="0.2"><path d="M113.148,90.6a9.269,9.269,0,0,1-2.71-6.532V77.482a9.212,9.212,0,0,1,1.507-5.04,17.933,17.933,0,0,0-24.718,3.235A17.918,17.918,0,0,0,62.448,72.5a9.238,9.238,0,0,1,1.477,4.986v6.585A9.277,9.277,0,0,1,55.193,93.3v4.507a18.048,18.048,0,0,1,17.486,17.981v2.154a17.933,17.933,0,0,1,29,.107v-2.261A18.035,18.035,0,0,1,119.253,97.8V93.3A9.224,9.224,0,0,1,113.148,90.6Zm-16.763,6.3a9.246,9.246,0,0,1-18.491,0V90.309a9.246,9.246,0,0,1,18.491,0Zm4.872-57.544A9.272,9.272,0,0,0,92.015,48.6v6.585a9.246,9.246,0,0,0,18.491,0V48.6A9.279,9.279,0,0,0,101.257,39.35Zm-28.075,0A9.272,9.272,0,0,0,63.94,48.6v6.585a9.246,9.246,0,0,0,18.491,0V48.6A9.279,9.279,0,0,0,73.182,39.35Z" transform="translate(-55.193 -39.35)" fill="#9b8fc4" fill-rule="evenodd"/></g><g transform="translate(47.387 37.35)"><path d="M102.728,122.262l-2.754-3.8a16.435,16.435,0,0,0-26.547-.1l-2.747,3.725v-6.783a16.452,16.452,0,0,0-16.01-16.458l-1.476-.046V91.386l1.435-.083a7.762,7.762,0,0,0,7.3-7.718V77a7.713,7.713,0,0,0-1.233-4.159l-.77-1.192,1.134-.852a19.438,19.438,0,0,1,25.693,2.09,19.453,19.453,0,0,1,25.625-2.149l1.158.857-.792,1.2a7.691,7.691,0,0,0-1.257,4.208v6.579a7.734,7.734,0,0,0,7.365,7.713l1.45.069v7.435l-1.484.037a16.514,16.514,0,0,0-16.086,16.471Zm-16.067-13.65a19.625,19.625,0,0,1,13.092,5.077,19.56,19.56,0,0,1,17.5-17.795V94.176a10.756,10.756,0,0,1-5.659-2.979l0,0a10.754,10.754,0,0,1-3.154-7.6V77a10.79,10.79,0,0,1,1.022-4.565,16.409,16.409,0,0,0-21.518,3.707l-1.189,1.5-1.193-1.5a16.4,16.4,0,0,0-21.595-3.661,10.793,10.793,0,0,1,1,4.509v6.591a10.819,10.819,0,0,1-8.732,10.574v1.745a19.47,19.47,0,0,1,17.41,17.708A19.446,19.446,0,0,1,86.661,108.612Zm14.123-43.141a10.789,10.789,0,0,1-10.769-10.76V48.122a10.823,10.823,0,0,1,10.76-10.772h.009a10.827,10.827,0,0,1,10.768,10.767v6.589A10.824,10.824,0,0,1,100.784,65.471Zm0-25.076a7.77,7.77,0,0,0-7.719,7.731v6.58a7.743,7.743,0,0,0,7.724,7.719,7.768,7.768,0,0,0,7.723-7.723V48.122A7.773,7.773,0,0,0,100.779,40.4ZM72.709,65.471A10.789,10.789,0,0,1,61.94,54.712v-6.59A10.823,10.823,0,0,1,72.7,37.35h.009A10.825,10.825,0,0,1,83.476,48.117v6.589A10.822,10.822,0,0,1,72.709,65.471Zm0-25.076a7.769,7.769,0,0,0-7.719,7.731v6.58a7.723,7.723,0,0,0,15.446,0V48.122A7.772,7.772,0,0,0,72.7,40.4Z" transform="translate(-53.193 -37.35)" fill="url(#a)"/></g><g transform="translate(102.632 66.24)"><path d="M136.532,103.421c-.18,0-.355-.008-.521-.018a10.78,10.78,0,0,1-10.247-10.748V86.063a10.768,10.768,0,0,1,21.536,0v6.589A10.826,10.826,0,0,1,136.532,103.421Zm-.009-25.076a7.748,7.748,0,0,0-7.715,7.725v6.579a7.734,7.734,0,0,0,7.365,7.713c.126.007.24.014.354.014a7.772,7.772,0,0,0,7.727-7.731V86.066A7.768,7.768,0,0,0,136.523,78.345Z" transform="translate(-125.763 -75.3)" fill="url(#b)"/></g><g transform="translate(93.877 95.792)"><path d="M153.308,141.571H117l-.375-.978a16.081,16.081,0,0,0-2.066-3.791l-.3-.4v-2.761a19.556,19.556,0,0,1,19.054-19.51c.12-.008.292-.008.465-.008a19.626,19.626,0,0,1,19.526,19.514Zm-34.245-3.045h31.2v-4.885a16.573,16.573,0,0,0-16.486-16.476c-.113,0-.228,0-.34.005a16.515,16.515,0,0,0-16.13,16.473v1.769A19.056,19.056,0,0,1,119.063,138.526Z" transform="translate(-114.263 -114.12)" fill="url(#c)"/></g><g transform="translate(28.873 95.792)"><path d="M65.105,141.571H28.873v-7.932A19.574,19.574,0,0,1,48.4,114.12c.209,0,.407,0,.6.018a19.486,19.486,0,0,1,18.919,19.5V136.3l-.3.4a16.123,16.123,0,0,0-2.136,3.889Zm-33.187-3.045H63.042a19.1,19.1,0,0,1,1.831-3.228v-1.657a16.454,16.454,0,0,0-16.01-16.461l-.094-.006c-.122-.011-.244-.009-.37-.009a16.529,16.529,0,0,0-16.481,16.478Z" transform="translate(-28.873 -114.12)" fill="url(#d)"/></g><g transform="translate(37.628 66.24)"><path d="M51.145,103.421A10.8,10.8,0,0,1,40.373,92.654v-6.59a10.768,10.768,0,0,1,21.536-.005v6.591A10.814,10.814,0,0,1,51.743,103.4C51.537,103.413,51.345,103.421,51.145,103.421Zm0-25.076a7.767,7.767,0,0,0-7.724,7.723v6.581a7.756,7.756,0,0,0,7.731,7.727c.145,0,.288-.007.432-.014a7.759,7.759,0,0,0,7.283-7.718V86.068a7.756,7.756,0,0,0-7.722-7.723Z" transform="translate(-40.373 -75.3)" fill="url(#e)"/></g><g transform="translate(70.088 79.067)"><path d="M93.789,120.271A10.8,10.8,0,0,1,83.013,109.5v-6.589A10.833,10.833,0,0,1,93.78,92.15h.009a10.818,10.818,0,0,1,10.76,10.76V109.5A10.822,10.822,0,0,1,93.789,120.271Zm0-25.076a7.779,7.779,0,0,0-7.727,7.726V109.5a7.723,7.723,0,1,0,15.446,0v-6.58A7.765,7.765,0,0,0,93.785,95.2Z" transform="translate(-83.013 -92.15)" fill="url(#f)"/></g><g transform="translate(61.341 108.612)"><path d="M110.561,158.419H71.523v-7.933a19.447,19.447,0,0,1,1.3-6.964,19.147,19.147,0,0,1,2.538-4.619,19.526,19.526,0,0,1,15.679-7.942,19.612,19.612,0,0,1,15.776,8.066,19.172,19.172,0,0,1,2.452,4.5,19.459,19.459,0,0,1,1.295,6.956Zm-35.992-3.045h32.947v-4.885a16.418,16.418,0,0,0-1.093-5.873,16.111,16.111,0,0,0-2.068-3.793,16.434,16.434,0,0,0-26.552-.105,16.174,16.174,0,0,0-2.141,3.9,16.445,16.445,0,0,0-1.094,5.877Z" transform="translate(-71.523 -130.96)" fill="url(#g)"/></g></g></svg>