<svg xmlns="http://www.w3.org/2000/svg" xmlns:xlink="http://www.w3.org/1999/xlink" width="86.161" height="86.468" viewBox="0 0 86.161 86.468"><defs><linearGradient id="a" x1="0.556" y1="0.549" x2="0" y2="0.635" gradientUnits="objectBoundingBox"><stop offset="0" stop-color="#c59d48"/><stop offset="1" stop-color="#9d7d3a"/></linearGradient></defs><g transform="translate(-74.379 -86.488)"><path d="M73.286,1.639a210.972,210.972,0,0,0-59.41,0C2.021,3.356.5,5.544.5,7.253a2.538,2.538,0,0,0,.828,1.824L33.82,58.229V75.913a1.346,1.346,0,0,0,.727,1.191l16.828,8.751a1.346,1.346,0,0,0,1.966-1.191V58.229L85.833,9.091a2.551,2.551,0,0,0,.828-1.838C86.661,5.544,85.139,3.356,73.286,1.639ZM50.648,82.449,36.512,75.1V72.035l14.136,7.351Zm0-6.018L36.512,69.074V59.084H50.648Zm.794-20.194H35.718L25.655,41c5.607.384,11.739.586,17.925.586S55.9,41.388,61.506,41ZM63.377,38.163c-6.078.478-12.9.727-19.8.727s-13.718-.256-19.8-.734l-7.62-11.511A227.878,227.878,0,0,0,43.58,28.12,227.875,227.875,0,0,0,71,26.639Zm9.592-14.506a213.917,213.917,0,0,1-29.389,1.77,214.017,214.017,0,0,1-29.389-1.777L6.02,11.292a60.729,60.729,0,0,0,7.855,1.575A217.1,217.1,0,0,0,43.58,14.658a217.1,217.1,0,0,0,29.705-1.791,60.729,60.729,0,0,0,7.855-1.575ZM43.58,11.965c-23.56,0-38.469-2.733-40.3-4.712C5.111,5.274,20,2.541,43.58,2.541s38.469,2.733,40.3,4.712C82.05,9.232,67.153,11.965,43.58,11.965Z" transform="translate(73.879 86.95)" fill="url(#a)"/></g></svg>