<svg xmlns="http://www.w3.org/2000/svg" width="112.676" height="131.053" viewBox="0 0 112.676 131.053"><g transform="translate(-773 -5148.947)"><circle cx="36.5" cy="36.5" r="36.5" transform="translate(773 5207)" fill="#ededed" opacity="0.8"/><circle cx="21.5" cy="21.5" r="21.5" transform="translate(825 5157)" fill="#ededed" opacity="0.8"/><g transform="translate(691.861 4874.777)"><path d="M118.664,320.219l-.6-8.755,13.556-1.265.177,8.91Z" transform="translate(13.629 24.65)" fill="#ffcec8"/><g transform="translate(136.073 274.17)"><path d="M124.064,325.795a5.2,5.2,0,0,1-3.367-4.729,31.631,31.631,0,0,1,.68-8.177l7.483-34.457,2.142.731-1.032,42.229C129.79,324.628,126.917,326.77,124.064,325.795Z" transform="translate(-120.663 -271.255)" fill="#ffa69c"/><path d="M125.369,283.148l2.5.478.355-9.214c0-.264-.4-.338-.465-.088l-.955,4.163-.077-1.539a.144.144,0,0,0-.243-.094,3.947,3.947,0,0,0-.9,4.662Z" transform="translate(-117.564 -274.171)" fill="#ffa69c"/></g><path d="M129.022,309.793l.391-4.8h-7.232s.278,4.682.741,4.8S129.022,309.793,129.022,309.793Z" transform="translate(16.449 21.087)" fill="#ff6652"/><path d="M111,345.7l1.388,3.015a1.659,1.659,0,0,1-1.58,2.164H98.743a.6.6,0,0,1-.2-1.174,6.361,6.361,0,0,1,1.886-.317c2.865-.093,6.312-3.688,6.312-3.688Z" transform="translate(0 48.939)" fill="#ffcec8"/><path d="M159.3,345.7l1.388,3.015a1.659,1.659,0,0,1-1.58,2.164H147.044a.6.6,0,0,1-.2-1.174,6.351,6.351,0,0,1,1.886-.317c2.865-.093,6.312-3.688,6.312-3.688Z" transform="translate(33.046 48.939)" fill="#ffcec8"/><path d="M129.389,322.528l-20.047,10.831a10.184,10.184,0,0,0-5.336,8.594l-.871,24.446h4.539s6.917-4.98,5.4-24.217c0,0,10.866,1.949,26.646-7.995,0,0,8.007,14.792,23.934,19.451L184.622,366.4h4.434s-2.488-13.627-19.132-17.084L150.644,328.78s1.037-8.091-8.34-11.778l-.253-1.561-13.231.564Z" transform="translate(3.419 28.237)" fill="#ce809d"/><path d="M118.259,318.28l-.493-8.53a5,5,0,0,1,1.415-3.485l6.634-6.029-.3,3.485c-.544,2.745-.217,4.781,2.206,6.181l4.327,3.144-.2,5.238Z" transform="translate(13.428 17.834)" fill="#ce809d"/><path d="M121.9,302.37a1.914,1.914,0,0,1-.758,0l2.36-2.134-.12,1.41-.724.438A2.076,2.076,0,0,1,121.9,302.37Z" transform="translate(15.74 17.834)" fill="#ff6652"/><path d="M123.718,295.153s-2.112,7.535-1.947,8.647l-.337-.13S122.977,296.436,123.718,295.153Z" transform="translate(15.938 14.356)" fill="#ffa69c"/><g transform="translate(134.066 304.541)"><path d="M133.28,301.28a.912.912,0,0,1-.387.472l-9.431,5.676a2.076,2.076,0,0,1-.758.286,1.913,1.913,0,0,1-.758,0,2.1,2.1,0,0,1-.775-.253l-.152-.1a2.236,2.236,0,0,1-1.027-2.173l.792-6.989a5.679,5.679,0,0,1,.387-1.617,6.492,6.492,0,0,1,4.884-4.042,6.34,6.34,0,0,1,2.695.067,5.915,5.915,0,0,1,1.229.438c.46.243.842.505,1.229.758a6.41,6.41,0,0,1,2.408,3.958A6.511,6.511,0,0,1,133.28,301.28Z" transform="translate(-119.128 -292.051)" fill="#ffcec8"/><path d="M130.674,323.78l.2-5.238L126.55,315.4c-2.425-1.4-2.745-3.436-2.206-6.181l.185-2.075-.724.438a2.076,2.076,0,0,1-.758.286,1.913,1.913,0,0,1-.758,0l-1.836,1.667a10.906,10.906,0,0,1,.909-2.021,10.12,10.12,0,0,1,3.166-3.453,11.756,11.756,0,0,1,2.846-1.381l-7.9-3s-.337-5.844,4.648-7.107c1.179-.286,3.789-.623,4.884-.084q.657.328,1.314.707c.46.243.842.505,1.229.758a18.4,18.4,0,0,1,2.644,2.038c1.65,1.516,3.267,3.57,3.352,5.895.084,2.509-1.448,4.968-2.577,7.107a4.052,4.052,0,0,0-.674,2.9c.387,1.4,1.937,1.869,3.065,2.493.926.522,1.836,1.482,1.617,2.526-.168.825-1.011,1.549-.758,2.358.253.859,1.448.909,2.24,1.4,1.112.691,1.3,2.223,1.314,3.537h-11.1Z" transform="translate(-119.471 -292.203)" fill="#1eb5f0"/><path d="M123.209,299.071c-.49.775-1.216,1.194-.591,1.588s2.363.618,2.853-.155a1.37,1.37,0,1,0-2.262-1.433Z" transform="translate(-117.483 -288.091)" fill="#ffcec8"/></g><g transform="translate(137.341 274.279)"><path d="M124.7,325.727a5.213,5.213,0,0,1-3.276-4.8,31.615,31.615,0,0,1,.834-8.162l8.128-34.3,2.129.775-1.826,42.2C130.452,324.676,127.538,326.759,124.7,325.727Z" transform="translate(-121.416 -271.338)" fill="#ffcec8"/><path d="M126.538,283.158l2.489.529.527-9.206c.008-.263-.389-.347-.461-.1l-1.034,4.141-.047-1.539a.146.146,0,0,0-.243-.1,3.953,3.953,0,0,0-.99,4.645Z" transform="translate(-117.989 -274.235)" fill="#ffcec8"/></g><path d="M127.407,309.3l0-3.577a4.4,4.4,0,0,1-2.866,1.6Z" transform="translate(18.064 21.585)" fill="#d183a0"/></g></g></svg>