<svg xmlns="http://www.w3.org/2000/svg" width="86" height="125.592" viewBox="0 0 86 125.592"><g transform="translate(-1183 -5149)"><circle cx="36.5" cy="36.5" r="36.5" transform="translate(1183 5198)" fill="#ededed" opacity="0.8"/><circle cx="21.5" cy="21.5" r="21.5" transform="translate(1226 5149)" fill="#ededed" opacity="0.8"/><g transform="translate(817.328 5143.06)"><path d="M383.767,31.555l-1.038-2.039a2.139,2.139,0,0,1-2.59-.68c-1.439-1.745-.075-2.864-.075-2.864L377.7,20.29c-.164-.53.454-.811.816-.371l7.91,8.723Z" transform="translate(0 0.64)" fill="#ffcec8"/><path d="M416.953,26.889A7.61,7.61,0,1,0,403.9,32.44a10.582,10.582,0,1,0,13.055-5.552Z" transform="translate(14.966 0.53)" fill="#1eb5f0"/><path d="M401.3,29.085,399.639,36.8l14.573-.313-.038-8.658Z" transform="translate(13.661 5.695)" fill="#ffcec8"/><path d="M415.872,37.441l-.342,7.61s-13.914,11.449-15.847,5.56l-.329-12.72Z" transform="translate(13.483 11.672)" fill="#ffcec8"/><path d="M426.013,63.6a94.442,94.442,0,0,1-4.073,34.178s5.879,13.968-1.259,25.183h-3.656L416.07,99.83l-4.378-27.618-3.94-2.52s-7.449-5.477-8.075-20.652c0,0-10.8-3.614-18.248-20.913l2.658-2.915,16.229,15.014,10.654,14.128.029,2.83S411.672,62.541,426.013,63.6Z" transform="translate(2.337 4.068)" fill="#ce809d"/><path d="M401.585,29.089l-2.4.232.266,14.55,16.519-.449.493-13.694a1.835,1.835,0,0,0-2.013-1.894l.007,1.619a4.8,4.8,0,0,1-4.666,4.817l-3.305.091A4.8,4.8,0,0,1,401.585,29.089Z" transform="translate(13.381 5.692)" fill="#ce809d"/><path d="M405.17,28.747l-.743.073a5.188,5.188,0,0,0-3.648,2.048L390.75,44.2a5.905,5.905,0,0,0-1.117,4.4c.514,3.578,2.06,9.908,6.661,12.537l1.768.271s-3.072-7.7-3.395-13.565l10.656-10.781Z" transform="translate(7.4 6.266)" fill="#ffcec8"/><path d="M403.791,85.484l-.941,2.619a1.441,1.441,0,0,0,1.372,1.88H414.7a.524.524,0,0,0,.17-1.02,5.556,5.556,0,0,0-1.638-.274c-2.488-.081-5.834-3.2-5.834-3.2Z" transform="translate(15.615 41.55)" fill="#ffcec8"/><rect width="6.067" height="3.283" transform="translate(417.638 31.583) rotate(-5.551)" fill="#ffcec8"/><path d="M401.7,24.735c.054.548.329.968-.114,1.012s-1.435-.308-1.489-.856a.824.824,0,1,1,1.6-.156Z" transform="translate(13.94 3.2)" fill="#ffcec8"/><path d="M406.518,31.784a5.27,5.27,0,0,0,4.734-5.756l-.182-1.857a5.269,5.269,0,0,0-10.489,1.023l.18,1.857A5.269,5.269,0,0,0,406.518,31.784Z" transform="translate(14.231 0.461)" fill="#ffcec8"/><path d="M408.4,26.737l-1.426,1.312a2.348,2.348,0,0,1-2.736.323l-1.875-1.046-.045-.467,6.037-.589Z" transform="translate(15.324 4.725)" fill="#ffa69c"/><path d="M408.351,26.27l-1.426,1.31a2.352,2.352,0,0,1-2.736.324l-1.875-1.046Z" transform="translate(15.324 4.725)" fill="#ffcec8"/><path d="M404.432,18.873l1.828-.178a4.407,4.407,0,0,1,4.922,3.807l.211,2.173-.041,1.413a11.589,11.589,0,0,1-6.168-.808,11.344,11.344,0,0,1-2.616-1.529,3,3,0,0,1-.547,1.838A6.45,6.45,0,0,1,400.852,27l-.294-1.27-.213-2.173A4.4,4.4,0,0,1,404.432,18.873Z" transform="translate(14.089)" fill="#1eb5f0"/><path d="M399.6,44.094l-.068-2.61,16.063.336-.707,11.666s-12.141,2.616-15.564-6.069Z" transform="translate(13.464 14.187)" fill="#ce809d"/></g></g></svg>