<svg xmlns="http://www.w3.org/2000/svg" width="114.616" height="127.981" viewBox="0 0 114.616 127.981"><g transform="translate(-39.542 -12.52)"><path d="M9.266,0H80.738A9.266,9.266,0,0,1,90,9.266V25.777A22.932,22.932,0,0,1,67.072,48.709H22.932A22.932,22.932,0,0,1,0,25.777V9.266A9.266,9.266,0,0,1,9.266,0Z" transform="translate(39.542 91.792)" fill="#ce809d"/><path d="M9.455,0H59.547A9.455,9.455,0,0,1,69,9.455v0a0,0,0,0,1,0,0H0a0,0,0,0,1,0,0v0A9.455,9.455,0,0,1,9.455,0Z" transform="translate(50.044 82.337)" fill="#25847b"/><rect width="51.143" height="9.944" transform="translate(58.973 109.394)" fill="#fff"/><rect width="73.866" height="14.795" rx="7.397" transform="matrix(0.943, -0.333, 0.333, 0.943, 79.585, 37.135)" fill="#70678f"/><path d="M104.1,39.09,93.116,43.243a10.35,10.35,0,0,0-5.97,8.977v18.7a4.862,4.862,0,0,0,4.861,4.861h0a4.861,4.861,0,0,0,4.861-4.861V66.456a3.2,3.2,0,0,1,3.2-3.2h.135a3.068,3.068,0,0,1,3.068,3.068h0a3.3,3.3,0,0,0,3.3,3.3h0a3.3,3.3,0,0,0,3.3-3.3V49.626a2.732,2.732,0,0,0-2.732-2.731h0a3.079,3.079,0,0,1-3.079-3.079V39.523Z" transform="translate(-11.596 -6.473)" fill="#25847b" fill-rule="evenodd"/></g></svg>