<svg xmlns="http://www.w3.org/2000/svg" width="102.49" height="116.094" viewBox="0 0 102.49 116.094"><g transform="translate(-945.361 -39.974)"><g transform="translate(964.798 106.213)"><path d="M973.9,139.511a5.29,5.29,0,0,1-5.08-5.349v-8.879a5.086,5.086,0,1,1,10.159,0v8.879A5.29,5.29,0,0,1,973.9,139.511Zm0-17.091a2.811,2.811,0,0,0-2.595,2.863v8.879a2.607,2.607,0,1,0,5.189,0v-8.879A2.811,2.811,0,0,0,973.9,122.42Z" transform="translate(-968.824 -119.935)" fill="#70678f"/></g><path d="M1022.736,81.112l-40.051,6.071V42.749l40.051,6.072Z" transform="translate(-6.405 -0.476)" fill="#ce809d"/><path d="M982.428,88.169a1.243,1.243,0,0,1-1.243-1.243V42.491a1.243,1.243,0,0,1,1.428-1.229l40.051,6.072a1.242,1.242,0,0,1,1.057,1.229V80.855a1.241,1.241,0,0,1-1.057,1.228l-40.051,6.072A1.165,1.165,0,0,1,982.428,88.169Zm1.243-44.232V85.481l37.566-5.694V49.631Z" transform="translate(-6.148 -0.219)" fill="#70678f"/><g transform="translate(1015.089 43.895)"><path d="M1034.616,85.9a5.089,5.089,0,0,1-5.083-5.083V49.79a5.083,5.083,0,0,1,10.166,0V80.815A5.089,5.089,0,0,1,1034.616,85.9Zm0-38.706a2.6,2.6,0,0,0-2.6,2.6V80.815a2.6,2.6,0,0,0,5.2,0V49.79A2.6,2.6,0,0,0,1034.616,47.192Z" transform="translate(-1029.533 -44.707)" fill="#70678f"/></g><path d="M972.519,119.15h0a11.8,11.8,0,0,1-11.764-11.763V94.906a11.8,11.8,0,0,1,11.764-11.763h0a11.8,11.8,0,0,1,11.763,11.763v12.481A11.8,11.8,0,0,1,972.519,119.15Z" transform="translate(-2.642 -7.408)" fill="#ce809d"/><path d="M972.262,120.136a13.021,13.021,0,0,1-13.006-13.007V94.649a13.006,13.006,0,0,1,26.012,0v12.481A13.021,13.021,0,0,1,972.262,120.136Zm0-36.008a10.532,10.532,0,0,0-10.521,10.521v12.481a10.533,10.533,0,0,0,10.521,10.521h0a10.532,10.532,0,0,0,10.521-10.521V94.649A10.532,10.532,0,0,0,972.262,84.128Z" transform="translate(-2.384 -7.151)" fill="#70678f"/><rect width="9.112" height="19.053" rx="4.556" transform="translate(965.307 83.906)" fill="#fff"/><path d="M973.729,114.125a6.175,6.175,0,0,1-5.923-6.25V97.045a5.932,5.932,0,1,1,11.846,0v10.83A6.176,6.176,0,0,1,973.729,114.125Zm0-20.847a3.662,3.662,0,0,0-3.438,3.767v10.83a3.452,3.452,0,1,0,6.876,0V97.045A3.662,3.662,0,0,0,973.729,93.278Z" transform="translate(-3.852 -8.721)" fill="#70678f"/><circle cx="23.274" cy="23.274" r="23.274" transform="translate(946.603 41.216)" fill="#fff"/><path d="M969.877,89.007A24.517,24.517,0,1,1,994.394,64.49,24.544,24.544,0,0,1,969.877,89.007Zm0-46.548A22.032,22.032,0,1,0,991.908,64.49,22.056,22.056,0,0,0,969.877,42.459Z" transform="translate(0)" fill="#70678f"/><path d="M972.952,77.24a9.675,9.675,0,1,1,9.675-9.675A9.686,9.686,0,0,1,972.952,77.24Zm0-16.864a7.19,7.19,0,1,0,7.19,7.19A7.2,7.2,0,0,0,972.952,60.375Z" transform="translate(-3.074 -3.075)" fill="#70678f"/><g transform="translate(968.635 123.304)"><path d="M973.456,141.85a1.243,1.243,0,1,1,2.485,0" transform="translate(-973.456 -140.566)" fill="#70678f"/></g><g transform="translate(1027.375 50.849)"><g transform="translate(0)"><path d="M1059.308,59.734a6.135,6.135,0,0,1-4.415-2.117,5.734,5.734,0,0,0-4.457-2,4.157,4.157,0,0,0-3.082.943,1.945,1.945,0,0,0-.506,1.274,1.243,1.243,0,0,1-2.477.2,4.39,4.39,0,0,1,1.155-3.162,6.393,6.393,0,0,1,4.911-1.744,8.139,8.139,0,0,1,6.144,2.659c1.035.957,1.625,1.455,2.727,1.455,2.486,0,3.043-2.991,3.065-3.118a1.243,1.243,0,0,1,2.45.414C1064.524,56.34,1062.986,59.734,1059.308,59.734Z" transform="translate(-1044.365 -53.101)" fill="#70678f"/></g></g><g transform="translate(1027.375 62.471)"><g transform="translate(0)"><path d="M1059.308,73.765a6.133,6.133,0,0,1-4.415-2.117,5.734,5.734,0,0,0-4.457-2,4.157,4.157,0,0,0-3.082.943,1.945,1.945,0,0,0-.506,1.274,1.243,1.243,0,0,1-2.477.2,4.391,4.391,0,0,1,1.155-3.162,6.393,6.393,0,0,1,4.911-1.744,8.139,8.139,0,0,1,6.144,2.659c1.035.957,1.625,1.456,2.727,1.456,2.486,0,3.043-2.991,3.065-3.119a1.243,1.243,0,0,1,2.45.414C1064.524,70.37,1062.986,73.765,1059.308,73.765Z" transform="translate(-1044.365 -67.131)" fill="#70678f"/></g></g><g transform="translate(1027.375 74.09)"><g transform="translate(0)"><path d="M1059.308,87.794a6.133,6.133,0,0,1-4.415-2.117,5.734,5.734,0,0,0-4.457-2,4.157,4.157,0,0,0-3.082.942,1.948,1.948,0,0,0-.506,1.274,1.243,1.243,0,1,1-2.477.2,4.39,4.39,0,0,1,1.155-3.161,6.39,6.39,0,0,1,4.911-1.744,8.136,8.136,0,0,1,6.144,2.659c1.035.956,1.625,1.455,2.727,1.455,2.516,0,3.043-2.986,3.064-3.113a1.243,1.243,0,0,1,2.451.408C1064.524,84.4,1062.986,87.794,1059.308,87.794Z" transform="translate(-1044.365 -81.157)" fill="#70678f"/></g></g><path d="M975.944,173.6V142.117h-2.485v30.675Z" transform="translate(-4.822 -17.528)" fill="#70678f"/><circle cx="14.706" cy="14.706" r="14.706" transform="translate(954.742 49.733)" fill="#25847b"/></g></svg>