<svg xmlns="http://www.w3.org/2000/svg" xmlns:xlink="http://www.w3.org/1999/xlink" width="119.824" height="130.133" viewBox="0 0 119.824 130.133"><defs><linearGradient id="a" y1="0.498" x2="1.012" y2="0.498" gradientUnits="objectBoundingBox"><stop offset="0" stop-color="#998ec4"/><stop offset="1" stop-color="#241d41"/></linearGradient><linearGradient id="b" y1="0.5" x2="1" y2="0.5" xlink:href="#a"/></defs><g transform="translate(-1918.75 -1249.183)"><g transform="translate(1918.75 1278.72)"><path d="M1921.574,1280.19v.1c0-.028-.014-.069-.014-.1Z" transform="translate(-1917.67 -1266.804)" fill="url(#a)"/><path d="M1940.811,1301.469l-15.241-15.74h.014Z" transform="translate(-1916.129 -1264.675)" fill="url(#b)"/><path d="M2038.547,1283.422c-.014-.138-.042-.277-.069-.415-1.952-8.472-31.312-12-52.617-12.445-.761-.014-1.509-.014-2.257-.028s-1.467-.014-2.173-.014v3.89c1.107,0,2.187.014,3.267.014,32.212.346,48.893,5.814,49.931,9.15a.051.051,0,0,0,.014.042,1.05,1.05,0,0,1,.042.291c0,.831-2.6,3.53-14.494,5.994-10.964,2.242-25.706,3.475-41.529,3.475-16.238,0-31.77-1.357-42.609-3.724-9.994-2.187-13.1-4.568-13.4-5.648,0-.028-.014-.069-.014-.1a.713.713,0,0,1,.111-.374c1-1.952,9.51-6.063,31.949-8.1l-.166-1.855-.194-2.007c-10.2,1-33.32,4.015-35.438,11.254a3.107,3.107,0,0,0-.083.346,4.256,4.256,0,0,0-.069.734,1.878,1.878,0,0,0,.014.277.3.3,0,0,0,0,.111v3.128l22.716,23.45,21.941,22.661,3.281,37.583h23.935l3.281-37.583,22.273-22.993,22.384-23.1v-3.53C2038.574,1283.74,2038.56,1283.588,2038.547,1283.422Zm-51.468,83.8h-16.819l-1.177-13.511a54.281,54.281,0,0,0,8.818.692,45.874,45.874,0,0,0,10.382-1.066Zm1.564-18.01c-4.637,1.454-13.109,1.717-19.671.54a1.288,1.288,0,0,0-.249-.222l-1.384-15.864a62.376,62.376,0,0,0,9.8.526,80.944,80.944,0,0,0,12.9-.941Zm4.651-20.626a67.36,67.36,0,0,1-16.155,1.717c-4.25,0-9.51,0-12.888-1.509l-16.127-16.639a168.165,168.165,0,0,0,28.7,2.464c13.026,0,23.325-.789,32.434-2.519Zm20.861-21.553c-10.216,2.547-21.775,3.7-37.334,3.7a164.662,164.662,0,0,1-33.375-3.419h-.014l-15.241-15.74h.014a65.9,65.9,0,0,0,7.018,1.883c11.1,2.423,26.938,3.807,43.439,3.807,16.072,0,31.1-1.26,42.318-3.558a72.073,72.073,0,0,0,8.154-2.118Z" transform="translate(-1918.75 -1270.52)" fill="url(#b)"/></g><g transform="translate(1922.751 1278.761)"><path d="M1953.589,1274.07c-20.972,2.035-30.8,6.1-31.949,8.1C1922.637,1280.216,1931.15,1276.1,1953.589,1274.07Z" transform="translate(-1921.64 -1269.197)" fill="url(#b)"/><path d="M1944.78,1274.585h-.014l-.166-1.855Z" transform="translate(-1912.817 -1269.712)" fill="url(#b)"/><path d="M2019.847,1282.995c-1.952-8.472-31.312-12-52.617-12.445C1987.98,1270.91,2018.006,1273.845,2019.847,1282.995Z" transform="translate(-1904.12 -1270.55)" fill="url(#b)"/></g><g transform="translate(1918.902 1279.758)"><path d="M1954.491,1273.291l-.194-2.007c-10.2,1-33.32,4.014-35.438,11.254,1.9-7.143,22.772-10.119,35.452-11.268Z" transform="translate(-1918.86 -1271.27)" fill="url(#b)"/><path d="M2016.321,1282.49c-1.26-3.211-20.335-8.762-49.931-9.15C1998.6,1273.686,2015.283,1279.154,2016.321,1282.49Z" transform="translate(-1900.595 -1270.475)" fill="url(#b)"/></g><g transform="translate(1958.143 1271.415)"><path d="M1957.065,1284.955a9.856,9.856,0,1,1,9.856-9.856A9.868,9.868,0,0,1,1957.065,1284.955Zm0-15.821a5.966,5.966,0,1,0,5.966,5.965A5.971,5.971,0,0,0,1957.065,1269.134Z" transform="translate(-1947.207 -1265.243)" fill="url(#b)"/></g><g transform="translate(1982.193 1249.183)"><path d="M1974.437,1268.9a9.857,9.857,0,1,1,9.857-9.856A9.868,9.868,0,0,1,1974.437,1268.9Zm0-15.824a5.966,5.966,0,1,0,5.968,5.968A5.972,5.972,0,0,0,1974.437,1253.073Z" transform="translate(-1964.581 -1249.183)" fill="url(#b)"/></g><g transform="translate(2017.692 1258.105)"><path d="M2000.081,1275.34a9.856,9.856,0,1,1,9.856-9.856A9.867,9.867,0,0,1,2000.081,1275.34Zm0-15.823a5.966,5.966,0,1,0,5.965,5.966A5.972,5.972,0,0,0,2000.081,1259.518Z" transform="translate(-1990.225 -1255.628)" fill="url(#b)"/></g><g transform="translate(1919.917 1257.172)"><path d="M1929.449,1274.668a9.857,9.857,0,1,1,9.858-9.858A9.867,9.867,0,0,1,1929.449,1274.668Zm0-15.822a5.966,5.966,0,1,0,5.966,5.965A5.971,5.971,0,0,0,1929.449,1258.845Z" transform="translate(-1919.593 -1254.954)" fill="url(#b)"/></g><g transform="translate(1948.983 1252.364)"><path d="M1947.217,1264.736a6.627,6.627,0,1,1,6.626-6.626A6.634,6.634,0,0,1,1947.217,1264.736Zm0-9.363a2.736,2.736,0,1,0,2.737,2.737A2.74,2.74,0,0,0,1947.217,1255.372Z" transform="translate(-1940.59 -1251.481)" fill="url(#b)"/></g></g></svg>