<svg xmlns="http://www.w3.org/2000/svg" xmlns:xlink="http://www.w3.org/1999/xlink" width="143.037" height="112.37" viewBox="0 0 143.037 112.37"><defs><clipPath id="a"><path d="M2,0A2,2,0,0,0,2,4H25.512L36.119,38.654a2,2,0,0,0,3.825-1.17L28.9,1.415A2,2,0,0,0,26.992,0Z" fill="none"/></clipPath><clipPath id="b"><path d="M37.784,30.409H138.335L126.157,75.695H51.639Zm-2.7-4a2,2,0,0,0-1.912,2.585L48.248,78.28a2,2,0,0,0,1.913,1.415h77.528a2,2,0,0,0,1.932-1.48l13.255-49.287a2,2,0,0,0-1.932-2.519Z" fill="none"/></clipPath><clipPath id="c"><path d="M42.385,50.272a2,2,0,0,0,0,4h91.937a2,2,0,1,0,0-4Z" fill="none"/></clipPath><clipPath id="d"><path d="M70.454,28.409V77.7a2,2,0,0,0,4,0V28.409a2,2,0,1,0-4,0" fill="none"/></clipPath><clipPath id="e"><path d="M103.1,28.409V77.7a2,2,0,0,0,4,0V28.409a2,2,0,0,0-4,0" fill="none"/></clipPath><clipPath id="f"><path d="M121.912,96.063a2,2,0,1,0,0,4h11.122a2,2,0,1,0,0-4Z" fill="none"/></clipPath><clipPath id="g"><path d="M48.305,76.945l-8.218,20.37a2,2,0,0,0,1.855,2.747h12.89a2,2,0,1,0,0-4H44.906l7.108-17.621a2,2,0,1,0-3.709-1.5" fill="none"/></clipPath><clipPath id="h"><path d="M79.427,96.063a2,2,0,1,0,0,4H97.313a2,2,0,0,0,0-4Z" fill="none"/></clipPath><clipPath id="i"><rect width="143.037" height="112.369" fill="none"/></clipPath><clipPath id="j"><path d="M59.84,105.348a10.305,10.305,0,0,1,.012-14.565,10.368,10.368,0,0,1,7.273-3.01h.012A10.314,10.314,0,0,1,77.428,98.064h2l-2,.016a10.311,10.311,0,0,1-10.3,10.29h-.007a10.236,10.236,0,0,1-7.282-3.021m7.284-21.575a14.4,14.4,0,0,0-10.1,4.18,14.3,14.3,0,0,0,10.1,24.416h.008a14.317,14.317,0,0,0,14.3-14.289v-.017h0A14.321,14.321,0,0,0,67.141,83.773Z" fill="none"/></clipPath><clipPath id="k"><path d="M99.312,98.064a10.3,10.3,0,0,1,20.6,0h2l-2,.008a10.3,10.3,0,1,1-20.6-.007m.19-10.1a14.3,14.3,0,1,0,24.41,10.11v-.008h0a14.3,14.3,0,0,0-24.41-10.1" fill="none"/></clipPath></defs><g transform="translate(0 0.001)"><g clip-path="url(#a)"><path d="M40.267,4.318,35.007,0h5.26Z" fill="#298b82"/><path d="M40.267,9.251,29,0h6.008l5.26,4.318Z" fill="#288a81"/><path d="M40.267,14.184,22.991,0H29L40.267,9.251Z" fill="#288980"/><path d="M40.267,19.116,16.983,0h6.008L40.267,14.183Z" fill="#27887f"/><path d="M40.267,24.049,10.975,0h6.008L40.267,19.116Z" fill="#26877e"/><path d="M40.267,28.981,4.967,0h6.008L40.267,24.048Z" fill="#26867d"/><path d="M40.267,33.914,0,.855V0H4.967l35.3,28.981Z" fill="#25857c"/><path d="M40.267,38.847,0,5.788V.855L40.267,33.914Z" fill="#25847b"/><path d="M35.749,40.07,0,10.72V5.787L40.267,38.846V40.07Z" fill="#24837a"/><path d="M29.741,40.07,0,15.652V10.72L35.749,40.07Z" fill="#248179"/><path d="M23.733,40.07,0,20.585V15.652L29.741,40.07Z" fill="#238078"/><path d="M17.725,40.07,0,25.518V20.585L23.733,40.07Z" fill="#237f77"/><path d="M11.717,40.07,0,30.45V25.518L17.725,40.07Z" fill="#227e76"/><path d="M5.709,40.07,0,35.383V30.45l11.717,9.62Z" fill="#227d75"/><path d="M0,35.383,5.709,40.07H0Z" fill="#217c74"/></g><g clip-path="url(#b)"><path d="M138.335,30.575l-.2-.166h.2Z" fill="#2f968c"/><path d="M138.335,35.507l-6.21-5.1h6.008l.2.165Z" fill="#2e958b"/><path d="M138.335,40.44,126.117,30.409h6.008l6.21,5.1Z" fill="#2d948a"/><path d="M138.335,45.373,120.109,30.409h6.008L138.335,40.44Z" fill="#2d9389"/><path d="M138.335,50.305,114.1,30.409h6.008l18.226,14.963Z" fill="#2c9288"/><path d="M138.335,55.238,108.093,30.409H114.1l24.234,19.9Z" fill="#2c9188"/><path d="M138.335,60.171l-36.25-29.762h6.008l30.242,24.829Z" fill="#2b9087"/><path d="M138.335,64.013l-.535.651L96.077,30.409h6.008l36.25,29.761Z" fill="#2b8f86"/><path d="M137.8,64.664l-2.419,2.946-45.312-37.2h6.008Z" fill="#2a8e85"/><path d="M135.381,67.611l-2.419,2.947-48.9-40.149h6.008Z" fill="#2a8d84"/><path d="M132.962,70.557,130.543,73.5,78.053,30.409h6.008Z" fill="#298c83"/><path d="M130.543,73.5l-1.8,2.191H127.2L72.045,30.409h6.008Z" fill="#298b82"/><path d="M121.2,75.7,66.037,30.409h6.008L127.2,75.7Z" fill="#288a81"/><path d="M115.188,75.7,60.029,30.409h6.008L121.2,75.7Z" fill="#288980"/><path d="M109.18,75.7,54.021,30.409h6.008L115.188,75.7Z" fill="#27887f"/><path d="M103.172,75.7,48.013,30.409h6.008L109.18,75.7Z" fill="#26877e"/><path d="M97.164,75.7,42.005,30.409h6.008L103.172,75.7Z" fill="#26867d"/><path d="M91.156,75.7,37.784,31.876V30.409h4.221L97.164,75.7Z" fill="#25857c"/><path d="M85.148,75.7,37.785,36.808V31.876L91.156,75.7Z" fill="#25847b"/><path d="M79.141,75.7,37.785,41.741V36.808L85.148,75.7Z" fill="#24837a"/><path d="M73.132,75.7,37.785,46.674V41.741L79.14,75.7Z" fill="#248179"/><path d="M67.124,75.7,37.784,51.606V46.674L73.132,75.7Z" fill="#238078"/><path d="M61.117,75.7,37.785,56.539V51.606L67.125,75.7Z" fill="#237f77"/><path d="M55.109,75.7,37.785,61.471V56.539L61.117,75.7Z" fill="#227e76"/><path d="M49.1,75.7,37.785,66.4V61.471L55.109,75.7Z" fill="#227d75"/><path d="M43.093,75.7l-5.308-4.358V66.4L49.1,75.7Z" fill="#217c74"/><path d="M37.784,71.337l5.308,4.358H37.784Z" fill="#207b73"/><path d="M143.037,29.5l-3.768-3.094h3.768Z" fill="#2f978d"/><path d="M143.037,34.435l-9.776-8.026h6.008l3.768,3.093Z" fill="#2f968c"/><path d="M143.037,39.368,127.253,26.409h6.008l9.776,8.026Z" fill="#2e958b"/><path d="M143.037,44.3,121.245,26.409h6.008l15.784,12.959Z" fill="#2d948a"/><path d="M143.037,49.233l-27.8-22.824h6.008L143.037,44.3Z" fill="#2d9389"/><path d="M143.037,54.166,109.229,26.409h6.008l27.8,22.824Z" fill="#2c9288"/><path d="M143.037,59.1,103.221,26.41h6.008l33.808,27.756Z" fill="#2c9188"/><path d="M143.037,64.031,97.213,26.409h6.008L143.037,59.1Z" fill="#2b9087"/><path d="M143.037,65.612l-1.644,2L91.205,26.409h6.008l45.824,37.622Z" fill="#2b8f86"/><path d="M141.393,67.614l-2.419,2.947L85.2,26.409h6.008Z" fill="#2a8e85"/><path d="M138.974,70.561l-2.419,2.946-57.366-47.1H85.2Z" fill="#2a8d84"/><path d="M136.555,73.507l-2.419,2.947L73.181,26.409h6.008Z" fill="#298c83"/><path d="M134.136,76.454,131.717,79.4,67.173,26.409h6.008Z" fill="#298b82"/><path d="M131.717,79.4l-.242.295h-5.407l-64.9-53.286h6.008Z" fill="#288a81"/><path d="M120.06,79.7l-64.9-53.286h6.008l64.9,53.286Z" fill="#288980"/><path d="M114.052,79.7l-64.9-53.286h6.008L120.06,79.7Z" fill="#27887f"/><path d="M108.044,79.7l-64.9-53.286h6.008l64.9,53.286Z" fill="#26877e"/><path d="M102.036,79.7l-64.9-53.286h6.008l64.9,53.286Z" fill="#26867d"/><path d="M96.029,79.7,32.984,27.934V26.409h4.15l64.9,53.286Z" fill="#25857c"/><path d="M90.021,79.7,32.984,32.867V27.934L96.028,79.7Z" fill="#25847b"/><path d="M84.012,79.7,32.983,37.8V32.867L90.02,79.7Z" fill="#24837a"/><path d="M78,79.7,32.984,42.732V37.8L84.012,79.7Z" fill="#248179"/><path d="M72,79.7,32.984,47.665V42.732L78,79.7Z" fill="#238078"/><path d="M65.989,79.7,32.984,52.6V47.665L72,79.7Z" fill="#237f77"/><path d="M59.981,79.7l-27-22.165V52.6l33,27.1Z" fill="#227e76"/><path d="M53.973,79.7,32.984,62.463V57.53l27,22.165Z" fill="#227d75"/><path d="M47.965,79.7,32.984,67.4V62.463L53.973,79.7Z" fill="#217c74"/><path d="M41.957,79.7l-8.973-7.367V67.4L47.965,79.7Z" fill="#207b73"/><path d="M35.949,79.7,32.984,77.26V72.328L41.957,79.7Z" fill="#207a72"/><path d="M32.983,77.261,35.948,79.7H32.983Z" fill="#1f7971"/></g><g clip-path="url(#c)"><path d="M136.322,53.586l-4.037-3.314h4.037Z" fill="#2c9188"/><path d="M131.15,54.271l-4.872-4h6.008l4.037,3.314v.686Z" fill="#2b9087"/><path d="M125.142,54.271l-4.872-4h6.008l4.872,4Z" fill="#2b8f86"/><path d="M119.134,54.271l-4.872-4h6.008l4.872,4Z" fill="#2a8e85"/><path d="M113.126,54.271l-4.872-4h6.008l4.872,4Z" fill="#2a8d84"/><path d="M107.118,54.271l-4.872-4h6.008l4.872,4Z" fill="#298c83"/><path d="M101.11,54.271l-4.872-4h6.008l4.872,4Z" fill="#298b82"/><path d="M95.1,54.271l-4.872-4h6.008l4.872,4Z" fill="#288a81"/><path d="M89.094,54.271l-4.872-4H90.23l4.872,4Z" fill="#288980"/><path d="M83.086,54.271l-4.872-4h6.008l4.872,4Z" fill="#27887f"/><path d="M77.078,54.271l-4.872-4h6.008l4.872,4Z" fill="#26877e"/><path d="M71.07,54.271l-4.872-4h6.008l4.872,4Z" fill="#26867d"/><path d="M65.062,54.271l-4.872-4H66.2l4.872,4Z" fill="#25857c"/><path d="M59.054,54.271l-4.872-4H60.19l4.872,4Z" fill="#25847b"/><path d="M53.046,54.271l-4.872-4h6.008l4.872,4Z" fill="#24837a"/><path d="M47.038,54.271l-4.872-4h6.008l4.872,4Z" fill="#248179"/><path d="M41.03,54.271l-.644-.529V50.271h1.78l4.872,4Z" fill="#238078"/><path d="M40.386,53.742l.644.529h-.644Z" fill="#237f77"/></g><g clip-path="url(#d)"><path d="M74.454,27.454l-1.273-1.045h1.273Z" fill="#298c83"/><path d="M74.454,32.387l-4-3.284V26.409h2.727l1.273,1.045Z" fill="#298b82"/><path d="M74.454,37.319l-4-3.284V29.1l4,3.284Z" fill="#288a81"/><path d="M74.454,42.252l-4-3.284V34.035l4,3.284Z" fill="#288980"/><path d="M74.454,47.185l-4-3.284V38.968l4,3.284Z" fill="#27887f"/><path d="M74.454,52.117l-4-3.284V43.9l4,3.284Z" fill="#26877e"/><path d="M74.454,57.05l-4-3.284V48.833l4,3.284Z" fill="#26867d"/><path d="M74.454,61.982l-4-3.284V53.765l4,3.284Z" fill="#25857c"/><path d="M74.454,66.915l-4-3.284V58.7l4,3.284Z" fill="#25847b"/><path d="M74.454,71.848l-4-3.284V63.631l4,3.284Z" fill="#24837a"/><path d="M74.454,76.78l-4-3.284V68.563l4,3.284Z" fill="#248179"/><path d="M72,79.7l-1.542-1.266V73.5l4,3.284V79.7Z" fill="#238078"/><path d="M70.454,78.429,72,79.695H70.454Z" fill="#237f77"/></g><g clip-path="url(#e)"><path d="M107.1,29.6l-3.882-3.188H107.1Z" fill="#2c9188"/><path d="M107.1,34.529l-4-3.284V26.409h.118L107.1,29.6Z" fill="#2b9087"/><path d="M107.1,39.462l-4-3.284V31.245l4,3.284Z" fill="#2b8f86"/><path d="M107.1,44.394l-4-3.284V36.177l4,3.284Z" fill="#2a8e85"/><path d="M107.1,49.327l-4-3.284V41.11l4,3.284Z" fill="#2a8d84"/><path d="M107.1,54.26l-4-3.284V46.043l4,3.284Z" fill="#298c83"/><path d="M107.1,59.192l-4-3.284V50.975l4,3.284Z" fill="#298b82"/><path d="M107.1,64.125l-4-3.284V55.908l4,3.284Z" fill="#288a81"/><path d="M107.1,69.058l-4-3.284V60.841l4,3.284Z" fill="#288980"/><path d="M107.1,73.99l-4-3.284V65.773l4,3.284Z" fill="#27887f"/><path d="M107.1,78.923l-4-3.284V70.706l4,3.284Z" fill="#26877e"/><path d="M103.1,75.639l4,3.284V79.7h-4Z" fill="#26867d"/></g><g clip-path="url(#f)"><path d="M135.034,96.922l-1.046-.859h1.046Z" fill="#27887f"/><path d="M132.852,100.062l-4.872-4h6.008l1.046.859v3.141Z" fill="#26877e"/><path d="M126.844,100.062l-4.872-4h6.008l4.872,4Z" fill="#26867d"/><path d="M120.836,100.062l-.924-.758V96.062h2.06l4.872,4Z" fill="#25857c"/><path d="M119.912,99.3l.924.758h-.924Z" fill="#25847b"/></g><g clip-path="url(#g)"><path d="M56.832,77.11l-2.053-1.685h2.053Z" fill="#227e76"/><path d="M56.832,82.043l-8.061-6.618h6.008l2.053,1.685Z" fill="#227d75"/><path d="M56.832,86.975l-11.814-9.7,1.519-1.851h2.234l8.061,6.618Z" fill="#217c74"/><path d="M56.832,91.908,42.6,80.222l2.419-2.946,11.814,9.7Z" fill="#207b73"/><path d="M56.832,96.841,40.179,83.169l2.42-2.946L56.832,91.908Z" fill="#207a72"/><path d="M54.748,100.062,39.838,87.82V83.584l.341-.416L56.832,96.84v3.222Z" fill="#1f7971"/><path d="M48.74,100.062l-8.9-7.309V87.82l14.91,12.242Z" fill="#1f7870"/><path d="M42.732,100.062l-2.894-2.376V92.753l8.9,7.309Z" fill="#1e776f"/><path d="M39.838,97.686l2.894,2.376H39.838Z" fill="#1e766e"/></g><g clip-path="url(#h)"><path d="M99.313,97.189l-1.373-1.127h1.373Z" fill="#248179"/><path d="M96.8,100.062l-4.872-4H97.94l1.372,1.127v2.873Z" fill="#238078"/><path d="M90.8,100.062l-4.872-4h6.008l4.872,4Z" fill="#237f77"/><path d="M84.788,100.062l-4.872-4h6.008l4.872,4Z" fill="#227e76"/><path d="M78.78,100.062l-1.353-1.111V96.062h2.489l4.872,4Z" fill="#227d75"/><path d="M77.427,98.951l1.353,1.111H77.427Z" fill="#217c74"/></g><g clip-path="url(#i)"><path d="M74.556,98.066v.011a7.428,7.428,0,1,1,0-.011" fill="#d0e4e2"/><path d="M116.875,98.066v0a7.263,7.263,0,0,1-14.525,0v0a7.263,7.263,0,0,1,14.525,0" fill="#d0e4e2"/></g><g clip-path="url(#j)"><path d="M79.428,90.723l-3.592-2.949h3.592Z" fill="#237f77"/><path d="M79.428,95.655l-9.6-7.882h6.008l3.592,2.95Z" fill="#227e76"/><path d="M79.428,100.587,63.82,87.773h6.008l9.6,7.882Z" fill="#227d75"/><path d="M79.428,104.465l-.517.63L58.753,88.546l.635-.773H63.82l15.608,12.814Z" fill="#217c74"/><path d="M78.91,105.1l-2.419,2.946L56.828,91.9V90.89l1.925-2.344Z" fill="#207b73"/><path d="M76.491,108.041l-.269.328h-5.34L56.828,96.83V91.9Z" fill="#207a72"/><path d="M64.875,108.369l-8.047-6.607V96.83l14.055,11.539Z" fill="#1f7971"/><path d="M58.867,108.369,56.828,106.7v-4.933l8.047,6.607Z" fill="#1f7870"/><path d="M56.828,106.695l2.039,1.674H56.828Z" fill="#1e776f"/><path d="M81.428,87.432l-4.456-3.659h4.456Z" fill="#238078"/><path d="M81.428,92.365,70.964,83.774h6.008l4.456,3.659Z" fill="#237f77"/><path d="M81.428,97.3,64.956,83.773h6.008l10.464,8.592Z" fill="#227e76"/><path d="M81.428,102.229,58.948,83.773h6.008L81.428,97.3Z" fill="#227d75"/><path d="M81.428,107.162,55.595,85.953l1.79-2.179h1.563l22.48,18.456Z" fill="#217c74"/><path d="M81.428,109.106l-1.466,1.785L53.176,88.9l2.419-2.947,25.833,21.209Z" fill="#207b73"/><path d="M79.962,110.891l-1.214,1.478H75.755L52.827,93.545V89.324l.349-.425Z" fill="#207a72"/><path d="M69.747,112.369,52.827,98.478V93.545l22.928,18.824Z" fill="#1f7971"/><path d="M63.739,112.369,52.827,103.41V98.478l16.92,13.891Z" fill="#1f7870"/><path d="M57.732,112.369l-4.9-4.027V103.41l10.912,8.959Z" fill="#1e776f"/><path d="M52.827,108.342l4.9,4.027h-4.9Z" fill="#1e766e"/></g><g clip-path="url(#k)"><path d="M121.912,91.081l-4.028-3.307h4.028Z" fill="#26877e"/><path d="M121.912,96.013l-10.036-8.24h6.008l4.028,3.307Z" fill="#26867d"/><path d="M121.912,100.946,105.868,87.773h6.008l10.036,8.24Z" fill="#25857c"/><path d="M121.912,104.466l-.693.844-20.16-16.551.809-.985h4l16.044,13.172Z" fill="#25847b"/><path d="M121.219,105.31l-2.419,2.947-19.488-16V90.886l1.747-2.127Z" fill="#24837a"/><path d="M118.8,108.256l-.093.113h-5.778L99.312,97.189V92.256Z" fill="#248179"/><path d="M106.922,108.369l-7.609-6.247V97.189l13.617,11.18Z" fill="#238078"/><path d="M100.914,108.369l-1.6-1.315v-4.932l7.609,6.247Z" fill="#237f77"/><path d="M99.313,107.055l1.6,1.315h-1.6Z" fill="#227e76"/><path d="M123.912,87.79l-4.893-4.017h4.893Z" fill="#27887f"/><path d="M123.912,92.723l-10.9-8.949h6.008l4.893,4.016Z" fill="#26877e"/><path d="M123.912,97.655,107,83.773h6.007l10.9,8.949Z" fill="#26867d"/><path d="M123.912,102.588,101,83.773H107l16.908,13.882Z" fill="#25857c"/><path d="M123.912,107.521,97.9,86.166l1.964-2.392H101l22.916,18.814Z" fill="#25847b"/><path d="M123.912,109.107l-1.641,2L95.482,89.112,97.9,86.166l26.011,21.355Z" fill="#24837a"/><path d="M122.271,111.106l-1.037,1.263H117.8L95.313,93.9V89.319l.169-.207Z" fill="#248179"/><path d="M111.794,112.369,95.313,98.838V93.9L117.8,112.369Z" fill="#238078"/><path d="M105.786,112.369l-10.473-8.6V98.838l16.481,13.531Z" fill="#237f77"/><path d="M99.778,112.369,95.313,108.7V103.77l10.473,8.6Z" fill="#227e76"/><path d="M95.313,108.7l4.465,3.666H95.313Z" fill="#227d75"/></g></g></svg>