<svg xmlns="http://www.w3.org/2000/svg" xmlns:xlink="http://www.w3.org/1999/xlink" width="83.703" height="139.394" viewBox="0 0 83.703 139.394"><defs><linearGradient id="a" y1="0.5" x2="1" y2="0.5" gradientUnits="objectBoundingBox"><stop offset="0" stop-color="#33a096"/><stop offset="1" stop-color="#16655e"/></linearGradient></defs><g transform="translate(-5909.602 278.285)"><g transform="translate(5935.413 -271.469)"><path d="M5995.81-270.8v6.306h.009v-6.142A.973.973,0,0,0,5995.81-270.8Zm-57.883.164v6.142h.009V-270.8A.973.973,0,0,0,5937.927-270.641Z" transform="translate(-5937.927 270.805)" fill="url(#a)"/></g><g transform="translate(5909.602 -278.285)"><path d="M5938.722-191.245v.027a.3.3,0,0,0,.027.082A.245.245,0,0,1,5938.722-191.245Zm33.415,13.222h.01c.018-.128.027-.246.036-.374C5972.173-178.269,5972.155-178.15,5972.137-178.023ZM5916.9-162.331a.309.309,0,0,0-.1-.064l1.777,1.476Z" transform="translate(-5910.241 270.56)" fill="url(#a)"/><path d="M5986.7-278.285H5942.02a6.617,6.617,0,0,0-6.6,6.616v42.81l-11.1,14.644a21.626,21.626,0,0,0-4.383,13.641l.611,21.97-3.162,6.114a3.419,3.419,0,0,0-2-.419,3.537,3.537,0,0,0-2.406,1.239l-2.552,3.034a3.5,3.5,0,0,0-.82,2.579,3.536,3.536,0,0,0,1.239,2.406l28.385,23.929a3.512,3.512,0,0,0,2.278.829,3.542,3.542,0,0,0,2.707-1.258l2.551-3.025a3.517,3.517,0,0,0,.82-2.588,3.45,3.45,0,0,0-.8-1.95l16.594-19.61a35.514,35.514,0,0,0,7.664-15.755H5986.7a6.608,6.608,0,0,0,6.6-6.6v-81.994A6.617,6.617,0,0,0,5986.7-278.285ZM5944.744-144.9l-2.561,3.034a.854.854,0,0,1-.592.3.868.868,0,0,1-.638-.2l-28.376-23.929a.829.829,0,0,1-.31-.592.908.908,0,0,1,.2-.638l2.561-3.025a.855.855,0,0,1,.666-.31.937.937,0,0,1,.464.128v.009a.31.31,0,0,1,.1.064l1.677,1.412,26.7,22.517A.879.879,0,0,1,5944.744-144.9Zm24.385-45.38a32.517,32.517,0,0,1-.492,5.641l-.027.137a32.66,32.66,0,0,1-7.263,15.455l-16.4,19.391-25.433-21.15,3.718-7.19-.628-22.663a18.953,18.953,0,0,1,3.845-11.946l8.966-11.828v25.324a1.322,1.322,0,0,0,.009.191.587.587,0,0,0,.009.182,3.647,3.647,0,0,0,1.467,2.57,3.667,3.667,0,0,0,2.907.629l8.73-1.823a3.7,3.7,0,0,0,2.633-2.214l8.848-22.089a4.519,4.519,0,0,1,.957-1.485,3.1,3.1,0,0,1,.246-.246,1.742,1.742,0,0,1,.146-.128,4.689,4.689,0,0,1,.41-.31,4.856,4.856,0,0,1,.6-.337,4.737,4.737,0,0,1,2.825-.4,4.651,4.651,0,0,1,2.807,1.613,4.723,4.723,0,0,1,1.121,3.053Zm21.505.6a3.935,3.935,0,0,1-3.936,3.927h-15.2c.019-.128.037-.246.046-.374.037-.246.055-.5.082-.756s.045-.519.063-.775c.028-.337.046-.665.055-1a.644.644,0,0,0,.01-.137c.027-.492.036-.993.036-1.485v-5.112h18.844Zm0-8.383H5971.79V-219.9a7.376,7.376,0,0,0-1.741-4.766,7.363,7.363,0,0,0-4.41-2.533,7.451,7.451,0,0,0-8.1,4.547l-8.839,22.089a1,1,0,0,1-.72.6l-8.721,1.813a.968.968,0,0,1-.783-.164.837.837,0,0,1-.255-.283.433.433,0,0,1-.073-.146.464.464,0,0,1-.036-.118.3.3,0,0,1-.027-.082v-66.22h52.551Zm0-69.774h-52.551V-271.3a3.943,3.943,0,0,1,3.937-3.937H5986.7a3.937,3.937,0,0,1,3.936,3.937Z" transform="translate(-5909.602 278.285)" fill="url(#a)"/></g><g transform="translate(5942.038 -259.956)"><path d="M5951.909-244.746a6.721,6.721,0,0,1-6.712-6.712,6.72,6.72,0,0,1,6.712-6.712,6.72,6.72,0,0,1,6.713,6.712A6.721,6.721,0,0,1,5951.909-244.746Zm0-10.761a4.053,4.053,0,0,0-4.048,4.049,4.053,4.053,0,0,0,4.048,4.048,4.052,4.052,0,0,0,4.048-4.048A4.053,4.053,0,0,0,5951.909-255.507Z" transform="translate(-5945.197 258.171)" fill="url(#a)"/></g><g transform="translate(5959.909 -257.327)"><path d="M5987.778-247.12H5969.56c-2.62,0-4.75-1.833-4.75-4.084a3.853,3.853,0,0,1,1.5-2.983,5.2,5.2,0,0,1,3.253-1.1h18.219c2.621,0,4.752,1.831,4.752,4.081a3.853,3.853,0,0,1-1.5,2.985A5.185,5.185,0,0,1,5987.778-247.12Zm-18.219-5.5a2.56,2.56,0,0,0-1.583.511,1.231,1.231,0,0,0-.5.906c0,.77.956,1.42,2.087,1.42h18.219a2.564,2.564,0,0,0,1.584-.511,1.231,1.231,0,0,0,.5-.909c0-.768-.957-1.417-2.088-1.417Z" transform="translate(-5964.809 255.286)" fill="url(#a)"/></g><g transform="translate(5942.038 -242.774)"><path d="M5951.909-225.89a6.72,6.72,0,0,1-6.712-6.712,6.721,6.721,0,0,1,6.712-6.712,6.721,6.721,0,0,1,6.713,6.712A6.72,6.72,0,0,1,5951.909-225.89Zm0-10.76a4.053,4.053,0,0,0-4.048,4.048,4.053,4.053,0,0,0,4.048,4.049,4.053,4.053,0,0,0,4.048-4.049A4.052,4.052,0,0,0,5951.909-236.651Z" transform="translate(-5945.197 239.315)" fill="url(#a)"/></g><g transform="translate(5959.909 -240.144)"><path d="M5987.778-228.263H5969.56c-2.62,0-4.75-1.833-4.75-4.085a3.852,3.852,0,0,1,1.5-2.982,5.19,5.19,0,0,1,3.253-1.1h18.219c2.621,0,4.752,1.831,4.752,4.081a3.854,3.854,0,0,1-1.5,2.986A5.19,5.19,0,0,1,5987.778-228.263Zm-18.219-5.5a2.565,2.565,0,0,0-1.583.51,1.233,1.233,0,0,0-.5.906c0,.77.956,1.421,2.087,1.421h18.219a2.559,2.559,0,0,0,1.584-.512,1.229,1.229,0,0,0,.5-.909c0-.768-.957-1.416-2.088-1.416Z" transform="translate(-5964.809 236.429)" fill="url(#a)"/></g></g></svg>