<svg xmlns="http://www.w3.org/2000/svg" xmlns:xlink="http://www.w3.org/1999/xlink" width="107.75" height="132.577" viewBox="0 0 107.75 132.577"><defs><clipPath id="a"><rect width="107.75" height="132.577" fill="none"/></clipPath><clipPath id="c"><rect width="24.989" height="37.467" transform="translate(2 93.111)" fill="none"/></clipPath><clipPath id="d"><path d="M26.989,130.577V126.13A12.495,12.495,0,1,0,2,126.13v4.447ZM14.495,93.111h0a6.44,6.44,0,0,1,6.416,6.416V104.1a6.416,6.416,0,1,1-12.832,0V99.527a6.44,6.44,0,0,1,6.416-6.416" fill="none" clip-rule="evenodd"/></clipPath><linearGradient id="e" x1="-0.08" y1="1.053" x2="-0.04" y2="1.053" gradientUnits="objectBoundingBox"><stop offset="0" stop-color="#c59d48"/><stop offset="1" stop-color="#9d7d3a"/></linearGradient><clipPath id="f"><rect width="25.016" height="37.467" transform="translate(82.734 93.111)" fill="none"/></clipPath><clipPath id="g"><path d="M107.75,130.577V126.13a12.508,12.508,0,0,0-25.016,0v4.447ZM95.256,93.111h0a6.44,6.44,0,0,1,6.416,6.416V104.1a6.416,6.416,0,1,1-12.832,0V99.527a6.44,6.44,0,0,1,6.416-6.416" fill="none" clip-rule="evenodd"/></clipPath><linearGradient id="h" x1="-3.307" y1="1.053" x2="-3.267" y2="1.053" xlink:href="#e"/><clipPath id="i"><rect width="25.016" height="37.467" transform="translate(41.093 93.111)" fill="none"/></clipPath><clipPath id="j"><path d="M66.109,130.577V126.13a12.508,12.508,0,0,0-25.016,0v4.447ZM53.615,93.111h0a6.44,6.44,0,0,1,6.416,6.416V104.1a6.416,6.416,0,1,1-12.832,0V99.527a6.438,6.438,0,0,1,6.416-6.416" fill="none" clip-rule="evenodd"/></clipPath><linearGradient id="k" x1="-1.643" y1="1.053" x2="-1.603" y2="1.053" xlink:href="#e"/><clipPath id="l"><path d="M4,126.136a10.495,10.495,0,1,1,20.989-.007v2.448H4Zm6.079-22.031V99.534a4.416,4.416,0,1,1,8.832-.007v4.57a4.416,4.416,0,1,1-8.832.008m4.408-13a8.465,8.465,0,0,0-8.408,8.417v4.584a8.465,8.465,0,0,0,5.417,7.845A14.581,14.581,0,0,0,0,126.129v4.448a2,2,0,0,0,2,2H26.989a2,2,0,0,0,2-2v-4.453A14.578,14.578,0,0,0,17.5,111.958a8.47,8.47,0,0,0,5.416-7.853V99.52A8.463,8.463,0,0,0,14.5,91.11Z" fill="none"/></clipPath><clipPath id="m"><path d="M82.72,126.136a10.508,10.508,0,0,1,21.015-.007v2.448H82.72Zm6.106-22.031V99.534a4.416,4.416,0,1,1,8.831-.007v4.57a4.416,4.416,0,1,1-8.831.008m4.408-13a8.465,8.465,0,0,0-8.409,8.417v4.584a8.464,8.464,0,0,0,5.407,7.841,14.574,14.574,0,0,0-11.513,14.177v4.448a2,2,0,0,0,2,2h25.016a2,2,0,0,0,2-2v-4.451a14.56,14.56,0,0,0-11.489-14.17,8.476,8.476,0,0,0,5.411-7.851V99.519a8.464,8.464,0,0,0-8.408-8.409Z" fill="none"/></clipPath><clipPath id="n"><path d="M43.093,126.135a10.509,10.509,0,0,1,21.017-.006v2.448H43.093Zm6.106-22.03v-4.57a4.416,4.416,0,1,1,8.831-.008v4.57a4.416,4.416,0,1,1-8.831.008m4.408-13A8.467,8.467,0,0,0,45.2,99.527v4.585a8.465,8.465,0,0,0,5.4,7.838,14.56,14.56,0,0,0-11.51,14.179v4.448a2,2,0,0,0,2,2H66.109a2,2,0,0,0,2-2v-4.451a14.561,14.561,0,0,0-11.489-14.17,8.474,8.474,0,0,0,5.411-7.851V99.52a8.463,8.463,0,0,0-8.409-8.41Z" fill="none"/></clipPath><clipPath id="o"><path d="M37.151,56.4v-4.7A16.844,16.844,0,0,1,53.978,34.888h0A16.824,16.824,0,0,1,70.8,51.707v4.7ZM53.975,30.889A20.845,20.845,0,0,0,33.152,51.707v6.7a2,2,0,0,0,2,2l37.653,0a2,2,0,0,0,2-2v-6.7A20.844,20.844,0,0,0,53.978,30.889Zm-7.668-12.33V11.636a7.668,7.668,0,0,1,15.336.022v6.921a7.668,7.668,0,0,1-15.336-.02M53.969,0A11.743,11.743,0,0,0,42.306,11.619v6.945a11.668,11.668,0,0,0,23.336.029V11.649A11.729,11.729,0,0,0,53.98,0Z" fill="none"/></clipPath><clipPath id="p"><path d="M51.975,58.408v27.2a2,2,0,0,0,4,0v-27.2a2,2,0,0,0-4,0" fill="none"/></clipPath><clipPath id="q"><path d="M14.5,73.843a2,2,0,0,0-2,2V85.61a2,2,0,0,0,4,0V77.843H91.242V85.61a2,2,0,0,0,4,0V75.843a2,2,0,0,0-2-2Z" fill="none"/></clipPath></defs><g clip-path="url(#a)"><g clip-path="url(#a)"><g opacity="0.35"><g clip-path="url(#c)"><g clip-path="url(#d)"><rect width="24.989" height="37.466" transform="translate(2 93.111)" fill="url(#e)"/></g></g></g><g opacity="0.35"><g clip-path="url(#f)"><g clip-path="url(#g)"><rect width="25.016" height="37.466" transform="translate(82.734 93.111)" fill="url(#h)"/></g></g></g><g opacity="0.35"><g clip-path="url(#i)"><g clip-path="url(#j)"><rect width="25.016" height="37.466" transform="translate(41.093 93.111)" fill="url(#k)"/></g></g></g></g><g clip-path="url(#l)"><path d="M18.911,100.053,12,95.11h6.913Z" fill="#a9873e"/><path d="M18.911,105.857l-8.832-6.314V95.111H12l6.913,4.942Z" fill="#a8863e"/><path d="M14.519,108.52l-4.44-3.174v-5.8l8.832,6.314v2.664Z" fill="#a7853e"/><path d="M10.079,105.346l4.44,3.174h-4.44Z" fill="#a6843d"/><path d="M24.989,116.006l-.518-.37h.518Z" fill="#a7853e"/><path d="M24.989,121.81l-8.636-6.174h8.118l.518.37Z" fill="#a6843d"/><path d="M24.989,127.613,8.235,115.635h8.118l8.636,6.174Z" fill="#a5843d"/><path d="M18.219,128.577,4,118.412v-1.463l.939-1.313h3.3l16.754,11.978v.963Z" fill="#a4833d"/><path d="M10.1,128.577,4,124.215v-5.8l14.219,10.165Z" fill="#a3823c"/><path d="M4,124.215l6.1,4.362H4Z" fill="#a2813c"/><path d="M28.989,95.65l-6.35-4.54h6.35Z" fill="#ab883f"/><path d="M28.989,101.454,14.521,91.11h8.118l6.35,4.54Z" fill="#aa883f"/><path d="M28.989,107.258,6.4,91.11h8.118l14.468,10.344Z" fill="#a9873e"/><path d="M28.989,113.062,3.62,94.925l2.726-3.814H6.4l22.586,16.147Z" fill="#a8863e"/><path d="M28.989,118.865.874,98.765,3.62,94.924l25.369,18.137Z" fill="#a7853e"/><path d="M28.989,124.669,0,103.944V99.987l.874-1.222,28.115,20.1Z" fill="#a6843d"/><path d="M28.989,130.473,0,109.748v-5.8l28.989,20.725Z" fill="#a5843d"/><path d="M23.814,132.577,0,115.552v-5.8l28.989,20.725v2.1Z" fill="#a4833d"/><path d="M15.7,132.577,0,121.356v-5.8l23.814,17.025Z" fill="#a3823c"/><path d="M7.578,132.577,0,127.16v-5.8l15.7,11.221Z" fill="#a2813c"/><path d="M0,127.16l7.578,5.417H0Z" fill="#a1803b"/></g><g clip-path="url(#m)"><path d="M97.657,98.312l-4.478-3.2h4.478Z" fill="#b48f42"/><path d="M97.657,104.116,88.825,97.8V95.111h4.354l4.478,3.2Z" fill="#b38e42"/><path d="M95.7,108.52l-6.875-4.915V97.8l8.832,6.314v4.4Z" fill="#b28d41"/><path d="M88.825,103.605,95.7,108.52H88.825Z" fill="#b08d41"/><path d="M103.735,120.069l-6.2-4.433h6.2Z" fill="#b08d41"/><path d="M103.735,125.873,89.416,115.636h8.118l6.2,4.433Z" fill="#af8c40"/><path d="M99.4,128.577,82.854,116.748l.8-1.112h5.766l14.319,10.237v2.7Z" fill="#ae8b40"/><path d="M91.282,128.577l-8.562-6.121v-5.52l.134-.188L99.4,128.577Z" fill="#ad8a40"/><path d="M83.164,128.577l-.444-.317v-5.8l8.562,6.121Z" fill="#ac893f"/><path d="M82.72,128.259l.444.317H82.72Z" fill="#ab883f"/><path d="M107.735,93.909l-3.915-2.8h3.915Z" fill="#b69143"/><path d="M107.735,99.713,95.7,91.11h8.118l3.915,2.8Z" fill="#b59042"/><path d="M107.735,105.517,87.584,91.11H95.7l12.033,8.6Z" fill="#b48f42"/><path d="M107.735,111.321,83.189,93.773l1.9-2.663h2.492l20.151,14.407Z" fill="#b38e42"/><path d="M107.735,117.125,80.443,97.614l2.746-3.841,24.546,17.548Z" fill="#b28d41"/><path d="M107.735,122.928,78.719,102.184v-2.16l1.724-2.411,27.292,19.511Z" fill="#b08d41"/><path d="M107.735,128.732,78.719,107.988v-5.8l29.016,20.744Z" fill="#af8c40"/><path d="M105,132.577,78.72,113.792v-5.8l29.015,20.744v3.845Z" fill="#ae8b40"/><path d="M96.877,132.577,78.72,119.6v-5.8l26.275,18.785Z" fill="#ad8a40"/><path d="M88.759,132.577,78.72,125.4v-5.8l18.157,12.981Z" fill="#ac893f"/><path d="M80.641,132.577,78.72,131.2v-5.8l10.039,7.177Z" fill="#ab883f"/><path d="M78.72,131.2l1.921,1.373H78.72Z" fill="#aa883f"/></g><g clip-path="url(#n)"><path d="M58.03,99,52.588,95.11H58.03Z" fill="#ae8b40"/><path d="M58.03,104.8,49.2,98.491v-3.38h3.39L58.03,99Z" fill="#ad8a40"/><path d="M55.11,108.52,49.2,104.294v-5.8l8.832,6.314v3.716Z" fill="#ac893f"/><path d="M49.2,104.294l5.911,4.226H49.2Z" fill="#ab883f"/><path d="M64.109,120.758l-7.165-5.123h7.165Z" fill="#ab883f"/><path d="M64.109,126.562,48.825,115.635h8.119l7.165,5.123Z" fill="#aa883f"/><path d="M58.809,128.577,43.092,117.341v-.417l.922-1.288h4.811l15.284,10.926v2.015Z" fill="#a9873e"/><path d="M50.691,128.577l-7.6-5.432v-5.8l15.717,11.236Z" fill="#a8863e"/><path d="M43.093,123.145l7.6,5.432h-7.6Z" fill="#a7853e"/><path d="M68.109,94.6l-4.88-3.489h4.88Z" fill="#b08d41"/><path d="M68.109,100.4l-13-9.292h8.118l4.88,3.488Z" fill="#af8c40"/><path d="M68.109,106.206,46.993,91.11h8.118l13,9.292Z" fill="#ae8b40"/><path d="M68.109,112.01,43.237,94.228l2.229-3.118h1.527l21.116,15.1Z" fill="#ad8a40"/><path d="M68.109,117.814,40.491,98.069l2.746-3.84L68.109,112.01Z" fill="#ac893f"/><path d="M68.109,123.618,39.092,102.873v-2.847l1.4-1.957,27.618,19.745Z" fill="#ab883f"/><path d="M68.109,129.422,39.092,108.677v-5.8l29.017,20.745Z" fill="#aa883f"/><path d="M64.4,132.577l-25.312-18.1v-5.8l29.017,20.745v3.155Z" fill="#a9873e"/><path d="M56.286,132.577,39.092,120.285v-5.8l25.312,18.1Z" fill="#a8863e"/><path d="M48.168,132.577l-9.075-6.488v-5.8l17.193,12.292Z" fill="#a7853e"/><path d="M40.05,132.577l-.957-.684v-5.8l9.075,6.488Z" fill="#a6843d"/><path d="M39.093,131.893l.957.684h-.957Z" fill="#a5843d"/></g><g clip-path="url(#o)"><path d="M61.643,8.722,55.038,4h6.605Z" fill="#bf9846"/><path d="M61.643,14.525,46.92,4h8.118l6.605,4.722Z" fill="#be9745"/><path d="M61.643,20.329,46.307,9.365V4.049L46.342,4h.578L61.643,14.525Z" fill="#bd9645"/><path d="M61.643,26.133,46.307,15.169v-5.8L61.643,20.329Z" fill="#bc9645"/><path d="M61.643,26.183l-.024.034H53.642l-7.335-5.244v-5.8L61.643,26.134Z" fill="#bb9544"/><path d="M46.307,20.973l7.335,5.244H46.307Z" fill="#ba9444"/><path d="M65.643,5.777,57.562,0h8.081Z" fill="#c09946"/><path d="M65.643,11.581,49.443,0h8.119l8.081,5.778Z" fill="#bf9846"/><path d="M65.643,17.385,42.854,1.093,43.635,0h5.808l16.2,11.581Z" fill="#be9745"/><path d="M65.643,23.189,42.307,6.506V1.858l.547-.765L65.643,17.385Z" fill="#bd9645"/><path d="M65.643,28.375l-.292.409L42.307,12.309v-5.8L65.643,23.189Z" fill="#bc9645"/><path d="M65.35,28.784l-1.024,1.433h-5.09l-16.93-12.1v-5.8Z" fill="#bb9544"/><path d="M51.118,30.217l-8.811-6.3v-5.8l16.929,12.1Z" fill="#ba9444"/><path d="M43,30.217l-.693-.5v-5.8l8.811,6.3Z" fill="#b99344"/><path d="M42.307,29.721l.693.5h-.693Z" fill="#b89243"/><path d="M70.8,38.487l-5.033-3.6H70.8Z" fill="#bb9544"/><path d="M70.8,44.29l-13.151-9.4h8.118l5.033,3.6Z" fill="#ba9444"/><path d="M70.8,50.094,49.535,34.888h8.118L70.8,44.29Z" fill="#b99344"/><path d="M70.8,55.9,41.417,34.888h8.118L70.8,50.094Z" fill="#b89243"/><path d="M63.4,56.408,37.792,38.1l2.3-3.213h1.328L70.8,55.9v.51Z" fill="#b79243"/><path d="M55.281,56.408,37.152,43.447V39l.64-.9L63.4,56.408Z" fill="#b69143"/><path d="M47.163,56.408,37.152,49.251v-5.8L55.281,56.408Z" fill="#b59042"/><path d="M39.044,56.408l-1.893-1.353v-5.8l10.011,7.157Z" fill="#b48f42"/><path d="M37.151,55.055l1.893,1.353H37.151Z" fill="#b38e42"/><path d="M74.8,35.542l-6.51-4.654H74.8Z" fill="#bc9645"/><path d="M74.8,41.346,60.176,30.888h8.118l6.51,4.654Z" fill="#bb9544"/><path d="M74.8,47.15,52.058,30.888h8.118L74.8,41.346Z" fill="#ba9444"/><path d="M74.8,52.954,43.94,30.889h8.118L74.8,47.15Z" fill="#b99344"/><path d="M74.8,58.758,36.847,31.622l.525-.733H43.94L74.8,52.954Z" fill="#b89243"/><path d="M68.994,60.408,34.1,35.462l2.746-3.84L74.8,58.758v1.65Z" fill="#b79243"/><path d="M60.876,60.408,33.152,40.587v-3.8l.95-1.329L68.994,60.408Z" fill="#b69143"/><path d="M52.758,60.408,33.152,46.391v-5.8L60.876,60.408Z" fill="#b59042"/><path d="M44.639,60.408,33.151,52.2v-5.8L52.757,60.408Z" fill="#b48f42"/><path d="M36.521,60.408,33.151,58V52.2l11.488,8.213Z" fill="#b38e42"/><path d="M33.151,58l3.37,2.409h-3.37Z" fill="#b28d41"/></g><g clip-path="url(#p)"><path d="M55.975,56.9l-.694-.5h.694Z" fill="#b69143"/><path d="M55.975,62.708l-4-2.86v-3.44h3.306l.694.5Z" fill="#b59042"/><path d="M55.975,68.512l-4-2.86v-5.8l4,2.86Z" fill="#b48f42"/><path d="M55.975,74.316l-4-2.86v-5.8l4,2.86Z" fill="#b38e42"/><path d="M55.975,80.119l-4-2.86v-5.8l4,2.86Z" fill="#b28d41"/><path d="M55.975,85.923l-4-2.86v-5.8l4,2.86Z" fill="#b08d41"/><path d="M51.975,83.064l4,2.86v1.687h-4Z" fill="#af8c40"/></g><g clip-path="url(#q)"><path d="M95.242,79.174l-7.457-5.331h7.457Z" fill="#b79243"/><path d="M95.242,84.977,79.667,73.842h8.118l7.457,5.331Z" fill="#b69143"/><path d="M90.807,87.61,71.549,73.842h8.118L95.243,84.977V87.61Z" fill="#b59042"/><path d="M82.688,87.61,63.431,73.842h8.118L90.806,87.61Z" fill="#b48f42"/><path d="M74.57,87.61,55.313,73.842h8.118L82.688,87.61Z" fill="#b38e42"/><path d="M66.452,87.61,47.2,73.842h8.118L74.57,87.61Z" fill="#b28d41"/><path d="M58.334,87.61,39.077,73.842h8.118L66.452,87.61Z" fill="#b08d41"/><path d="M50.216,87.61,30.959,73.842h8.118L58.334,87.61Z" fill="#af8c40"/><path d="M42.1,87.61,22.841,73.842h8.118L50.216,87.61Z" fill="#ae8b40"/><path d="M33.98,87.61,14.723,73.842h8.118L42.1,87.61Z" fill="#ad8a40"/><path d="M25.862,87.61,12.5,78.055V73.842h2.226L33.98,87.61Z" fill="#ac893f"/><path d="M17.743,87.61,12.5,83.859v-5.8L25.861,87.61Z" fill="#ab883f"/><path d="M12.5,83.859l5.246,3.751H12.5Z" fill="#aa883f"/></g></g></svg>