<svg xmlns="http://www.w3.org/2000/svg" xmlns:xlink="http://www.w3.org/1999/xlink" width="148.907" height="127.773" viewBox="0 0 148.907 127.773"><defs><clipPath id="a"><rect width="148.907" height="127.773" transform="translate(0 0)" fill="none"/></clipPath><clipPath id="b"><path d="M53.967,31.214a7,7,0,0,1-2.055-4.939V19.909A6.989,6.989,0,0,1,65.89,19.9v6.4a6.981,6.981,0,0,1-11.923,4.917M58.894,8.926A11.043,11.043,0,0,0,47.912,19.9v6.382a10.989,10.989,0,0,0,21.977.026V19.9A11.028,11.028,0,0,0,58.9,8.926Z" fill="none"/></clipPath><clipPath id="c"><path d="M43.406,57.161a15.5,15.5,0,0,1,30.99,0v8.183c-1.078-.472-2.1-1.025-3.15-1.6a37.565,37.565,0,0,0-4.752-2.286,23.064,23.064,0,0,0-8.42-1.467H51.058a25.915,25.915,0,0,0-7.652,1.241Zm1.725-13.777a19.387,19.387,0,0,0-5.725,13.773v6.929a2,2,0,0,0,2.766,1.848,23.627,23.627,0,0,1,8.886-1.94h7.016A19.245,19.245,0,0,1,65.079,65.2a34.372,34.372,0,0,1,4.259,2.061A28.412,28.412,0,0,0,75.889,70.1a2.025,2.025,0,0,0,.507.064,2,2,0,0,0,2-2V57.153A19.472,19.472,0,0,0,45.131,43.384" fill="none"/></clipPath><clipPath id="d"><path d="M106.753,78.257a2.016,2.016,0,0,0,1.433-2.425c-.033-.139-.2-.794-.455-1.589-.039-.135-.077-.272-.117-.408l1.883-.646a1.961,1.961,0,0,0,.218-.09,54.781,54.781,0,0,0,18.573-14.655,13,13,0,0,1,7.248-4.621c3.89-.9,6.8-.346,8.854,1.7a178,178,0,0,1-16.024,25.443c-.238.268-.561.656-.966,1.141-12.052,14.439-23.756,21.758-34.791,21.758l-39.328,0a10.055,10.055,0,0,0-6.615,2.294l-24.3-24.306c1.994-1.867,5.092-4.809,8.2-7.924a36.175,36.175,0,0,1,11.6-8,23.627,23.627,0,0,1,8.886-1.94h7.016A19.245,19.245,0,0,1,65.079,65.2a34.372,34.372,0,0,1,4.259,2.061A28.4,28.4,0,0,0,75.89,70.1a20.57,20.57,0,0,0,5.261.649l14.961,0c.061.005.122.009.184.01,3.116.024,5.578,1.109,6.93,3.053a8.029,8.029,0,0,1,.684,1.629c.054.189.1.361.144.505.053.187.115.4.193.628.018.068.034.136.05.2l.022,0c.3.774.807,1.577,1.829,1.577a2.413,2.413,0,0,0,.6-.083m27.881-28.33a17.005,17.005,0,0,0-9.469,6.019,50.74,50.74,0,0,1-17.08,13.5l-1.816.623c-.034.011-.068.024-.1.038l-.606.245a12.48,12.48,0,0,0-9.175-3.6c-.075,0-.153,0-.226,0H81.151a16.6,16.6,0,0,1-4.249-.52,24.789,24.789,0,0,1-5.656-2.478,37.565,37.565,0,0,0-4.752-2.286,23.064,23.064,0,0,0-8.42-1.467H51.058a27.421,27.421,0,0,0-10.419,2.244A40.173,40.173,0,0,0,27.74,71.1c-4.046,4.051-8.071,7.806-9.614,9.233a2,2,0,0,0-.056,2.883l27.195,27.2a2,2,0,0,0,1.413.586c.044,0,.086,0,.128,0a2,2,0,0,0,1.456-.775,6.236,6.236,0,0,1,4.974-2.358H92.609c18.5,0,33.072-17.458,37.86-23.2.4-.481.716-.857.935-1.1.037-.041.073-.084.106-.128a182.051,182.051,0,0,0,17.054-27.292,2,2,0,0,0-.178-2.1,11.338,11.338,0,0,0-9.544-4.637,18.663,18.663,0,0,0-4.208.514" fill="none"/></clipPath><clipPath id="e"><path d="M108.865,31.211a6.955,6.955,0,0,1-2.052-4.936V19.909a6.986,6.986,0,0,1,13.972-.008v6.4a6.977,6.977,0,0,1-11.92,4.911M113.79,8.926A11.04,11.04,0,0,0,102.812,19.9v6.378a10.987,10.987,0,0,0,21.973.03V19.9A11.028,11.028,0,0,0,113.8,8.926Z" fill="none"/></clipPath><clipPath id="f"><path d="M98.312,66.883V57.21a15.458,15.458,0,0,1,4.555-10.949c.331-.33.674-.643,1.035-.939a15.447,15.447,0,0,1,24.709,7.332,16.658,16.658,0,0,0-3.446,3.292,50.74,50.74,0,0,1-17.08,13.5l-2.552.876a11.828,11.828,0,0,0-7.221-3.438m3.036-24.64c-.446.367-.887.768-1.308,1.19a19.429,19.429,0,0,0-5.728,13.772V68.75a2,2,0,0,0,1.984,2c3.116.024,5.578,1.109,6.932,3.056a2,2,0,0,0,2.293.749l3.976-1.367a1.961,1.961,0,0,0,.218-.09,54.781,54.781,0,0,0,18.573-14.655,12.857,12.857,0,0,1,3.63-3.171,2,2,0,0,0,.947-2.145,19.451,19.451,0,0,0-31.517-10.885" fill="none"/></clipPath><clipPath id="g"><path d="M78.395,66.538V57.153a19.491,19.491,0,0,0-5.51-13.562c.118-.125.237-.249.357-.369a18.485,18.485,0,0,1,26.61.4,19.43,19.43,0,0,0-5.54,13.582v9.541H81.151a17.6,17.6,0,0,1-2.756-.208m7.961-32.771a22.477,22.477,0,0,0-15.942,6.627,23.066,23.066,0,0,0-1.873,2.122,2,2,0,0,0,.292,2.762A15.516,15.516,0,0,1,74.4,57.157v11A2,2,0,0,0,75.89,70.1a20.57,20.57,0,0,0,5.261.649l14.961,0c.066.006.133.01.2.01a2,2,0,0,0,2-2V57.21a15.458,15.458,0,0,1,4.555-10.949c.331-.33.674-.643,1.022-.927a2,2,0,0,0,.312-2.768,22.492,22.492,0,0,0-17.833-8.8Zm-6.044-7.632a8.528,8.528,0,0,1-2.521-6.045V12.574a8.562,8.562,0,1,1,17.124-.005v7.515a8.545,8.545,0,0,1-14.6,6.051M86.356,0A12.624,12.624,0,0,0,73.791,12.569V20.1a12.562,12.562,0,0,0,25.124-.006V12.568A12.6,12.6,0,0,0,86.365,0Z" fill="none"/></clipPath><clipPath id="h"><path d="M104.365,70.729a2,2,0,0,0,.971,3.881l.02,0a2,2,0,0,0-.991-3.876" fill="none"/></clipPath><clipPath id="i"><path d="M18.116,80.344l-.443.411a2,2,0,0,0-.054,2.905l27.485,27a1.994,1.994,0,0,0,1.4.574c.053,0,.1,0,.158-.006a2.007,2.007,0,0,0,1.451-.806l.167-.224a1.958,1.958,0,0,0-.435-2.759,1.908,1.908,0,0,0-.63-.31L21.483,81.85a2,2,0,0,0-3.367-1.506" fill="none"/></clipPath><clipPath id="j"><path d="M106.022,74.317a2,2,0,0,0-1.766,2.209,5.944,5.944,0,0,1-1.481,4.612c-1.457,1.628-3.743,2.488-6.614,2.488H65.787a2,2,0,0,0,0,4H96.161a12.578,12.578,0,0,0,9.595-3.823,9.934,9.934,0,0,0,2.474-7.722,2,2,0,0,0-1.97-1.78,1.913,1.913,0,0,0-.238.015" fill="none"/></clipPath><clipPath id="n"><path d="M35.078,121.57,7.328,93.82a7.532,7.532,0,0,1,5.314-12.865,7.66,7.66,0,0,1,5.428,2.263L45.748,110.9a7.552,7.552,0,0,1,0,10.665l1.414,1.414-1.419-1.409a7.55,7.55,0,0,1-10.665,0M4.5,80.327a11.554,11.554,0,0,0,0,16.321L32.25,124.4a11.553,11.553,0,0,0,16.321,0l.006-.005a11.555,11.555,0,0,0,0-16.321L20.831,80.321A11.568,11.568,0,0,0,4.5,80.327" fill="none"/></clipPath></defs><g clip-path="url(#a)"><path d="M58.9,10.926A9.012,9.012,0,0,0,49.912,19.9v6.375a8.989,8.989,0,0,0,17.978.034V19.9A9.006,9.006,0,0,0,58.9,10.926" fill="#fff3dc" fill-rule="evenodd"/><path d="M76.4,57.157v11c-4.079-1.068-6.727-3.359-10.608-4.828a21.146,21.146,0,0,0-7.713-1.338H51.058a25.642,25.642,0,0,0-9.651,2.092v-6.93a17.495,17.495,0,0,1,34.989,0" fill="#fff3dc" fill-rule="evenodd"/><path d="M113.8,10.926a9.008,9.008,0,0,0-8.984,8.974v6.375a8.987,8.987,0,0,0,17.973.034V19.9a9,9,0,0,0-8.989-8.974" fill="#fff3dc" fill-rule="evenodd"/><path d="M130.909,53.547a14.9,14.9,0,0,0-4.195,3.663A52.376,52.376,0,0,1,108.847,71.3l-1.928.662-2.049.705c-1.561-2.242-4.412-3.88-8.559-3.914V57.205a17.494,17.494,0,0,1,5.142-12.357c.372-.372.759-.725,1.165-1.058a17.45,17.45,0,0,1,28.291,9.757" fill="#fff3dc" fill-rule="evenodd"/></g><g clip-path="url(#b)"><path d="M65.89,15.1,63.5,12.927H65.89Z" fill="#bb6c4b"/><path d="M65.89,18.431l-6.04-5.5H63.5L65.89,15.1Z" fill="#ba6b4a"/><path d="M65.89,21.759,56.2,12.926H59.85l6.04,5.505Z" fill="#b96b49"/><path d="M65.89,25.087,52.547,12.926H56.2l9.691,8.833Z" fill="#b86a49"/><path d="M65.89,28.415,51.912,15.676V13.119l.176-.193h.459L65.89,25.087Z" fill="#b76948"/><path d="M65.89,31.743,51.912,19V15.676L65.89,28.415Z" fill="#b66948"/><path d="M65.89,33.076l-.172.188h-1.81l-12-10.932V19L65.89,31.743Z" fill="#b56847"/><path d="M60.256,33.264l-8.344-7.6V22.332l12,10.932Z" fill="#b46747"/><path d="M56.6,33.264l-4.692-4.276V25.66l8.344,7.6Z" fill="#b36746"/><path d="M52.953,33.264l-1.04-.948V28.988L56.6,33.264Z" fill="#b26646"/><path d="M51.912,32.316l1.04.948h-1.04Z" fill="#b16545"/><path d="M69.89,12.092,66.416,8.926H69.89Z" fill="#bd6e4c"/><path d="M69.89,15.42,62.765,8.926h3.651l3.474,3.166Z" fill="#bc6d4b"/><path d="M69.89,18.748,59.113,8.926h3.652L69.89,15.42Z" fill="#bb6c4b"/><path d="M69.89,22.076,55.461,8.926h3.652L69.89,18.748Z" fill="#ba6b4a"/><path d="M69.89,25.4,51.81,8.926h3.651L69.89,22.076Z" fill="#b96b49"/><path d="M69.89,28.732,49.017,9.708l.713-.782h2.08L69.89,25.4Z" fill="#b86a49"/><path d="M69.89,32.06,47.912,12.03V10.92l1.1-1.212L69.89,28.732Z" fill="#b76948"/><path d="M69.89,35.273l-.058.063L47.912,15.359V12.031L69.89,32.061Z" fill="#b66948"/><path d="M69.832,35.336l-1.657,1.818L47.912,18.686V15.358Z" fill="#b56847"/><path d="M68.175,37.154l-.1.11h-3.43L47.912,22.014V18.686Z" fill="#b46747"/><path d="M60.993,37.264,47.912,25.342V22.014l16.733,15.25Z" fill="#b36746"/><path d="M57.341,37.264,47.912,28.67V25.342L60.993,37.264Z" fill="#b26646"/><path d="M53.69,37.264,47.912,32V28.67l9.43,8.594Z" fill="#b16545"/><path d="M50.038,37.264l-2.126-1.938V32l5.778,5.266Z" fill="#b06545"/><path d="M47.912,35.326l2.126,1.938H47.912Z" fill="#af6444"/></g><g clip-path="url(#c)"><path d="M74.4,42.823l-1.28-1.166H74.4Z" fill="#b56847"/><path d="M74.4,46.151l-4.931-4.494h3.651l1.28,1.166Z" fill="#b46747"/><path d="M74.4,49.479l-8.583-7.822h3.652L74.4,46.151Z" fill="#b36746"/><path d="M74.4,52.807,62.161,41.657h3.651L74.4,49.479Z" fill="#b26646"/><path d="M74.4,56.135,58.509,41.657h3.652L74.4,52.807Z" fill="#b16545"/><path d="M74.4,59.463,54.857,41.657h3.652L74.4,56.135Z" fill="#b06545"/><path d="M74.4,62.791,51.207,41.657h3.651L74.4,59.463Z" fill="#af6444"/><path d="M73.544,65.343l-25.123-22.9.719-.79h2.066L74.4,62.791v2.552Z" fill="#ae6344"/><path d="M69.893,65.343,46.764,44.264l1.657-1.818,25.124,22.9Z" fill="#ad6343"/><path d="M66.241,65.343,45.107,46.082l1.657-1.818L69.893,65.343Z" fill="#ac6243"/><path d="M62.589,65.343,43.45,47.9l1.657-1.818L66.241,65.343Z" fill="#ab6142"/><path d="M58.938,65.343,43.406,51.188v-3.24l.044-.048L62.59,65.343Z" fill="#aa6142"/><path d="M55.286,65.343,43.406,54.516V51.188L58.938,65.343Z" fill="#a86041"/><path d="M51.635,65.343l-8.228-7.5V54.516l11.88,10.827Z" fill="#a75f40"/><path d="M47.983,65.343l-4.577-4.171V57.844l8.229,7.5Z" fill="#a65e40"/><path d="M44.332,65.343l-.925-.843V61.172l4.577,4.171Z" fill="#a55e3f"/><path d="M43.406,64.5l.925.843h-.925Z" fill="#a45d3f"/><path d="M78.4,39.813,76.03,37.657H78.4Z" fill="#b76948"/><path d="M78.4,43.141l-6.017-5.484H76.03L78.4,39.813Z" fill="#b66948"/><path d="M78.4,46.469l-9.669-8.812h3.652L78.4,43.141Z" fill="#b56847"/><path d="M78.4,49.8l-13.32-12.14h3.651L78.4,46.469Z" fill="#b46747"/><path d="M78.4,53.125,61.424,37.657h3.652L78.4,49.8Z" fill="#b36746"/><path d="M78.4,56.453l-20.623-18.8h3.651L78.4,53.125Z" fill="#b26646"/><path d="M78.4,59.781,54.12,37.657h3.652L78.4,56.453Z" fill="#b16545"/><path d="M78.4,63.109,50.469,37.657H54.12L78.4,59.781Z" fill="#b06545"/><path d="M78.4,66.437,47.087,37.9l.225-.246h3.157L78.4,63.109Z" fill="#af6444"/><path d="M78.4,69.765,45.431,39.721,47.087,37.9,78.4,66.437Z" fill="#ae6344"/><path d="M75.178,70.161l-31.4-28.622,1.657-1.817L78.4,69.765v.4Z" fill="#ad6343"/><path d="M71.527,70.161l-29.409-26.8,1.656-1.818,31.4,28.622Z" fill="#ac6243"/><path d="M67.875,70.161,40.46,45.175l1.657-1.818,29.41,26.8Z" fill="#ab6142"/><path d="M64.224,70.161,39.407,47.543V46.332l1.054-1.157L67.876,70.161Z" fill="#aa6142"/><path d="M60.572,70.161,39.406,50.871V47.543L64.224,70.161Z" fill="#a86041"/><path d="M56.92,70.161,39.406,54.2V50.871l21.166,19.29Z" fill="#a75f40"/><path d="M53.269,70.161,39.406,57.527V54.2L56.921,70.161Z" fill="#a65e40"/><path d="M49.617,70.161,39.406,60.855V57.527L53.269,70.161Z" fill="#a55e3f"/><path d="M45.966,70.161l-6.559-5.978V60.855l10.211,9.306Z" fill="#a45d3f"/><path d="M42.314,70.161l-2.908-2.65V64.183l6.56,5.978Z" fill="#a35c3e"/><path d="M39.406,67.511l2.908,2.65H39.406Z" fill="#a25c3e"/></g><g clip-path="url(#d)"><path d="M144.39,53.367l-.488-.445h.488Z" fill="#c57350"/><path d="M144.39,56.695l-4.139-3.773H143.9l.488.445Z" fill="#c4724f"/><path d="M144.39,60.023l-7.791-7.1h3.652L144.39,56.7Z" fill="#c3724f"/><path d="M144.39,63.351,132.948,52.922H136.6l7.791,7.1Z" fill="#c2714e"/><path d="M144.39,66.679,129.3,52.922h3.652L144.39,63.351Z" fill="#c1704e"/><path d="M144.39,67.65l-1.173,1.287L125.644,52.922H129.3L144.39,66.679Z" fill="#c0704d"/><path d="M143.216,68.938l-1.657,1.818L121.992,52.923h3.652Z" fill="#bf6f4d"/><path d="M141.559,70.756,139.9,72.574,118.341,52.923h3.651Z" fill="#be6e4c"/><path d="M139.9,72.574l-1.657,1.818L114.689,52.923h3.651Z" fill="#bd6e4c"/><path d="M138.246,74.392l-1.657,1.818L111.038,52.923h3.652Z" fill="#bc6d4b"/><path d="M136.589,76.209l-1.657,1.818-27.546-25.1h3.652Z" fill="#bb6c4b"/><path d="M134.932,78.027l-1.657,1.818-29.54-26.923h3.651Z" fill="#ba6b4a"/><path d="M133.275,79.845l-1.657,1.818L100.083,52.922h3.652Z" fill="#b96b49"/><path d="M131.618,81.663l-1.657,1.818L96.431,52.922h3.652Z" fill="#b86a49"/><path d="M129.961,83.481,128.3,85.3,92.78,52.922h3.651Z" fill="#b76948"/><path d="M128.3,85.3l-1.657,1.818L89.128,52.922h3.651Z" fill="#b66948"/><path d="M126.647,87.117l-1.657,1.818L85.476,52.922h3.652Z" fill="#b56847"/><path d="M124.991,88.935l-1.657,1.818L81.825,52.922h3.652Z" fill="#b46747"/><path d="M123.334,90.753l-1.657,1.818-43.5-39.649h3.651Z" fill="#b36746"/><path d="M121.677,92.571l-1.657,1.818-45.5-41.467h3.652Z" fill="#b26646"/><path d="M120.02,94.389l-1.657,1.818L70.87,52.922h3.652Z" fill="#b16545"/><path d="M118.363,96.207l-1.657,1.818-49.487-45.1H70.87Z" fill="#b06545"/><path d="M116.706,98.025l-1.657,1.818L63.567,52.923h3.652Z" fill="#af6444"/><path d="M115.049,99.843l-1.657,1.818L59.915,52.923h3.652Z" fill="#ae6344"/><path d="M113.393,101.661l-1.657,1.818L56.265,52.923h3.651Z" fill="#ad6343"/><path d="M111.736,103.479l-1.657,1.818L52.613,52.923h3.651Z" fill="#ac6243"/><path d="M110.079,105.3l-.788.865h-1.915L48.961,52.923h3.652Z" fill="#ab6142"/><path d="M103.725,106.162,45.7,53.28l.326-.357h2.933l58.416,53.239Z" fill="#aa6142"/><path d="M100.073,106.162,44.045,55.1,45.7,53.28l58.024,52.882Z" fill="#a86041"/><path d="M96.422,106.162,42.388,56.916,44.045,55.1l56.029,51.064Z" fill="#a75f40"/><path d="M92.77,106.162,40.731,58.734l1.657-1.818,54.034,49.246Z" fill="#a65e40"/><path d="M89.118,106.162,39.074,60.552l1.657-1.818L92.77,106.162Z" fill="#a55e3f"/><path d="M85.467,106.162,37.417,62.37l1.657-1.818,50.045,45.61Z" fill="#a45d3f"/><path d="M81.815,106.162,35.76,64.188l1.657-1.818,48.05,43.792Z" fill="#a35c3e"/><path d="M78.164,106.162,34.1,66.006l1.657-1.818,46.055,41.974Z" fill="#a25c3e"/><path d="M74.512,106.162,32.446,67.824,34.1,66.006l44.061,40.156Z" fill="#a15b3d"/><path d="M70.86,106.162,30.789,69.642l1.657-1.818,42.066,38.338Z" fill="#a05a3d"/><path d="M67.209,106.162,29.133,71.46l1.657-1.818,40.071,36.52Z" fill="#9f5a3c"/><path d="M63.557,106.162,27.476,73.278l1.656-1.818,38.077,34.7Z" fill="#9e593c"/><path d="M59.906,106.162,25.819,75.1l1.657-1.818,36.082,32.884Z" fill="#9d583b"/><path d="M56.254,106.162,24.162,76.914,25.819,75.1l34.087,31.066Z" fill="#9c583b"/><path d="M52.6,106.162l-30.1-27.43,1.657-1.818,32.092,29.248Z" fill="#9b573a"/><path d="M48.951,106.162,22.364,81.931V78.886l.141-.154,30.1,27.43Z" fill="#9a563a"/><path d="M45.3,106.162l-22.935-20.9V81.931l26.587,24.231Z" fill="#995639"/><path d="M41.648,106.162,22.364,88.587V85.259l22.936,20.9Z" fill="#985538"/><path d="M38,106.162,22.364,91.915V88.587l19.284,17.575Z" fill="#975438"/><path d="M34.345,106.162,22.365,95.243V91.915L38,106.162Z" fill="#965337"/><path d="M30.693,106.162l-8.329-7.591V95.243l11.981,10.919Z" fill="#955337"/><path d="M27.042,106.162,22.365,101.9V98.571l8.329,7.591Z" fill="#945236"/><path d="M23.39,106.162l-1.026-.935V101.9l4.678,4.263Z" fill="#935136"/><path d="M22.364,105.227l1.026.935H22.364Z" fill="#925135"/><path d="M148.907,50.828l-2.9-2.644h2.9Z" fill="#c77451"/><path d="M148.907,54.156l-6.553-5.972h3.652l2.9,2.644Z" fill="#c67450"/><path d="M148.907,57.484l-10.2-9.3h3.651l6.553,5.972Z" fill="#c57350"/><path d="M148.907,60.812,135.051,48.184H138.7l10.2,9.3Z" fill="#c4724f"/><path d="M148.907,64.14,131.4,48.184h3.651l13.856,12.628Z" fill="#c3724f"/><path d="M148.907,67.468,127.748,48.184H131.4L148.907,64.14Z" fill="#c2714e"/><path d="M148.907,69.362l-.714.783L124.1,48.184h3.652l21.159,19.284Z" fill="#c1704e"/><path d="M148.193,70.146l-1.657,1.818L120.445,48.185H124.1Z" fill="#c0704d"/><path d="M146.536,71.964l-1.657,1.818-28.086-25.6h3.652Z" fill="#bf6f4d"/><path d="M144.88,73.782,143.222,75.6,113.141,48.185h3.652Z" fill="#be6e4c"/><path d="M143.223,75.6l-1.657,1.818L109.491,48.185h3.651Z" fill="#bd6e4c"/><path d="M141.566,77.417l-1.657,1.818-34.07-31.051h3.652Z" fill="#bc6d4b"/><path d="M139.909,79.235l-1.657,1.818L102.187,48.184h3.652Z" fill="#bb6c4b"/><path d="M138.252,81.053l-1.657,1.818L98.536,48.184h3.651Z" fill="#ba6b4a"/><path d="M136.6,82.871l-1.657,1.818L94.884,48.184h3.651Z" fill="#b96b49"/><path d="M134.938,84.689l-1.657,1.818L91.232,48.184h3.652Z" fill="#b86a49"/><path d="M133.281,86.507l-1.657,1.818L87.58,48.184h3.652Z" fill="#b76948"/><path d="M131.625,88.325l-1.657,1.818L83.93,48.184h3.651Z" fill="#b66948"/><path d="M129.968,90.143l-1.657,1.818L80.278,48.184H83.93Z" fill="#b56847"/><path d="M128.311,91.961l-1.657,1.818-50.028-45.6h3.652Z" fill="#b46747"/><path d="M126.654,93.779,125,95.6,72.975,48.184h3.651Z" fill="#b36746"/><path d="M125,95.6l-1.657,1.818L69.323,48.184h3.652Z" fill="#b26646"/><path d="M123.34,97.415l-1.657,1.818L65.671,48.184h3.652Z" fill="#b16545"/><path d="M121.683,99.233l-1.657,1.818L62.02,48.184h3.651Z" fill="#b06545"/><path d="M120.026,101.051l-1.657,1.818-60-54.685h3.651Z" fill="#af6444"/><path d="M118.37,102.869l-1.657,1.818-62-56.5h3.652Z" fill="#ae6344"/><path d="M116.713,104.687l-1.657,1.818L51.065,48.184h3.652Z" fill="#ad6343"/><path d="M115.056,106.5l-1.657,1.818L47.414,48.184h3.651Z" fill="#ac6243"/><path d="M113.4,108.323l-1.657,1.818L44.253,48.632l.408-.448h2.753Z" fill="#ab6142"/><path d="M111.742,110.141l-.785.862h-1.921L42.6,50.45l1.657-1.818Z" fill="#aa6142"/><path d="M105.385,111,40.939,52.268,42.6,50.45,109.037,111Z" fill="#a86041"/><path d="M101.733,111,39.282,54.086l1.657-1.818L105.385,111Z" fill="#a75f40"/><path d="M98.081,111,37.625,55.9l1.657-1.818L101.733,111Z" fill="#a65e40"/><path d="M94.43,111,35.969,57.722,37.625,55.9,98.082,111Z" fill="#a55e3f"/><path d="M90.778,111,34.311,59.54l1.657-1.818L94.43,111Z" fill="#a45d3f"/><path d="M87.127,111,32.655,61.358l1.657-1.818L90.779,111Z" fill="#a35c3e"/><path d="M83.475,111,31,63.176l1.657-1.818L87.127,111Z" fill="#a25c3e"/><path d="M79.824,111,29.34,64.994,31,63.176,83.475,111Z" fill="#a15b3d"/><path d="M76.172,111,27.684,66.812l1.657-1.818L79.824,111Z" fill="#a05a3d"/><path d="M72.52,111,26.027,68.629l1.657-1.817L76.172,111Z" fill="#9f5a3c"/><path d="M68.869,111l-44.5-40.556,1.656-1.818L72.521,111Z" fill="#9e593c"/><path d="M65.217,111l-42.5-38.738,1.657-1.818L68.869,111Z" fill="#9d583b"/><path d="M61.566,111,21.057,74.083l1.657-1.818L65.218,111Z" fill="#9c583b"/><path d="M57.914,111,19.4,75.9l1.657-1.818L61.566,111Z" fill="#9b573a"/><path d="M54.263,111,17.743,77.719,19.4,75.9,57.914,111Z" fill="#9a563a"/><path d="M50.611,111,17.474,80.8V78.015l.269-.3L54.263,111Z" fill="#995639"/><path d="M46.959,111,17.473,84.13V80.8L50.611,111Z" fill="#985538"/><path d="M43.308,111,17.474,87.458V84.13L46.96,111Z" fill="#975438"/><path d="M39.656,111,17.473,90.786V87.458L43.308,111Z" fill="#965337"/><path d="M36,111,17.474,94.114V90.786L39.657,111Z" fill="#955337"/><path d="M32.353,111,17.474,97.442V94.114L36,111Z" fill="#945236"/><path d="M28.7,111,17.473,100.77V97.442L32.353,111Z" fill="#935136"/><path d="M25.05,111l-7.576-6.9V100.77L28.7,111Z" fill="#925135"/><path d="M21.4,111l-3.925-3.577V104.1L25.05,111Z" fill="#915035"/><path d="M17.747,111l-.273-.249v-3.328L21.4,111Z" fill="#904f34"/><path d="M17.474,110.754l.273.249h-.273Z" fill="#8f4f34"/></g><g clip-path="url(#e)"><path d="M120.785,15.214l-2.51-2.288h2.51Z" fill="#ca7653"/><path d="M120.785,18.542l-6.162-5.616h3.652l2.51,2.288Z" fill="#c97652"/><path d="M120.785,21.87l-9.813-8.944h3.651l6.162,5.616Z" fill="#c87551"/><path d="M120.785,25.2,107.32,12.926h3.652l9.813,8.944Z" fill="#c77451"/><path d="M120.785,28.526,106.812,15.791V13.118l.175-.192h.333L120.785,25.2Z" fill="#c67450"/><path d="M120.785,31.854,106.812,19.119V15.791l13.973,12.735Z" fill="#c57350"/><path d="M120.785,33.081l-.167.183h-1.937L106.812,22.447V19.119l13.973,12.735Z" fill="#c4724f"/><path d="M115.029,33.264l-8.217-7.489V22.447l11.869,10.817Z" fill="#c3724f"/><path d="M111.378,33.264,106.813,29.1V25.775l8.217,7.489Z" fill="#c2714e"/><path d="M107.726,33.264l-.914-.833V29.1l4.566,4.161Z" fill="#c1704e"/><path d="M106.813,32.432l.914.833h-.914Z" fill="#c0704d"/><path d="M124.785,12.2l-3.6-3.277h3.6Z" fill="#cc7854"/><path d="M124.785,15.531l-7.247-6.6h3.651l3.6,3.277Z" fill="#cb7753"/><path d="M124.785,18.859l-10.9-9.933h3.652l7.247,6.605Z" fill="#ca7653"/><path d="M124.785,22.188,110.235,8.927h3.651l10.9,9.933Z" fill="#c97652"/><path d="M124.785,25.516l-18.2-16.589h3.652l14.55,13.261Z" fill="#c87551"/><path d="M124.785,28.844,103.859,9.772l.77-.845h1.954l18.2,16.589Z" fill="#c77451"/><path d="M124.785,32.172,102.812,12.146V10.92l1.047-1.148,20.926,19.072Z" fill="#c67450"/><path d="M124.785,35.279l-.11.12L102.812,15.474V12.146l21.973,20.025Z" fill="#c57350"/><path d="M124.675,35.4l-1.657,1.818L102.812,18.8V15.474Z" fill="#c4724f"/><path d="M123.019,37.218l-.043.047h-3.557L102.813,22.13V18.8Z" fill="#c3724f"/><path d="M115.767,37.264,102.813,25.458V22.13l16.606,15.134Z" fill="#c2714e"/><path d="M112.115,37.264l-9.3-8.478V25.458l12.955,11.806Z" fill="#c1704e"/><path d="M108.464,37.264l-5.651-5.15V28.786l9.3,8.478Z" fill="#c0704d"/><path d="M104.812,37.264l-2-1.822V32.114l5.651,5.15Z" fill="#bf6f4d"/><path d="M102.813,35.442l2,1.822h-2Z" fill="#be6e4c"/></g><g clip-path="url(#f)"><path d="M128.611,42.315l-.668-.609h.668Z" fill="#c4724f"/><path d="M128.611,45.643l-4.32-3.937h3.652l.668.609Z" fill="#c3724f"/><path d="M128.611,48.971l-7.971-7.265h3.651l4.32,3.937Z" fill="#c2714e"/><path d="M128.611,52.3,116.988,41.706h3.652l7.971,7.265Z" fill="#c1704e"/><path d="M128.611,55.627,113.336,41.706h3.652L128.611,52.3Z" fill="#c0704d"/><path d="M128.611,55.726,127,57.49,109.685,41.705h3.651l15.275,13.921Z" fill="#bf6f4d"/><path d="M127,57.49l-1.657,1.818-19.313-17.6h3.651Z" fill="#be6e4c"/><path d="M125.347,59.308l-1.657,1.818L103.3,42.539l.76-.833h1.977Z" fill="#bd6e4c"/><rect width="2.46" height="27.593" transform="translate(101.64 44.357) rotate(-47.653)" fill="#bc6d4b"/><rect width="2.46" height="27.593" transform="translate(99.983 46.175) rotate(-47.653)" fill="#bb6c4b"/><rect width="2.46" height="27.593" transform="translate(98.326 47.992) rotate(-47.653)" fill="#ba6b4a"/><path d="M118.72,66.58,117.063,68.4,98.312,51.308v-3.3l.014-.016Z" fill="#b96b49"/><path d="M117.063,68.4l-1.657,1.818L98.312,54.636V51.308Z" fill="#b86a49"/><path d="M115.406,70.216l-.1.106h-3.438L98.312,57.964V54.636Z" fill="#b76948"/><path d="M108.219,70.322l-9.908-9.03V57.964l13.56,12.358Z" fill="#b66948"/><path d="M104.568,70.322l-6.256-5.7V61.292l9.908,9.03Z" fill="#b56847"/><path d="M100.916,70.322l-2.605-2.374V64.62l6.257,5.7Z" fill="#b46747"/><path d="M98.312,67.948l2.6,2.374h-2.6Z" fill="#b36746"/><path d="M133.046,39.7l-2.189-1.995h2.189Z" fill="#c67450"/><path d="M133.046,43.028l-5.84-5.323h3.651l2.189,2Z" fill="#c57350"/><path d="M133.046,46.356l-9.492-8.651h3.652l5.84,5.323Z" fill="#c4724f"/><path d="M133.046,49.684,119.9,37.705h3.651l9.492,8.651Z" fill="#c3724f"/><path d="M133.046,53.012l-16.8-15.307H119.9l13.143,11.979Z" fill="#c2714e"/><path d="M133.046,56.34,112.6,37.705h3.651l16.8,15.307Z" fill="#c1704e"/><path d="M133.046,57.388l-1.136,1.246L108.948,37.706H112.6l20.446,18.635Z" fill="#c0704d"/><path d="M131.91,58.634l-1.657,1.818L105.3,37.706h3.651Z" fill="#bf6f4d"/><path d="M130.253,60.452,128.6,62.27,101.963,38l.265-.291H105.3Z" fill="#be6e4c"/><rect width="2.46" height="36.035" transform="translate(100.307 39.814) rotate(-47.653)" fill="#bd6e4c"/><rect width="2.46" height="36.035" transform="translate(98.65 41.632) rotate(-47.653)" fill="#bc6d4b"/><rect width="2.46" height="36.035" transform="translate(96.993 43.45) rotate(-47.653)" fill="#bb6c4b"/><rect width="2.46" height="36.035" transform="translate(95.336 45.268) rotate(-47.653)" fill="#ba6b4a"/><path d="M121.969,69.541l-1.657,1.818-26-23.7v-1.27l1.025-1.124Z" fill="#b96b49"/><path d="M120.312,71.359l-1.657,1.818L94.311,50.99V47.662Z" fill="#b86a49"/><path d="M118.655,73.177,117.3,74.664h-.664L94.311,54.318V50.99Z" fill="#b76948"/><path d="M112.984,74.665,94.311,57.647V54.319l22.325,20.346Z" fill="#b66948"/><path d="M109.333,74.665,94.312,60.975V57.647l18.673,17.018Z" fill="#b56847"/><path d="M105.681,74.665,94.311,64.3V60.975l15.022,13.69Z" fill="#b46747"/><path d="M102.03,74.665l-7.718-7.034V64.3l11.37,10.362Z" fill="#b36746"/><path d="M98.378,74.665l-4.066-3.706V67.631l7.718,7.034Z" fill="#b26646"/><path d="M94.726,74.665l-.415-.378V70.959l4.067,3.706Z" fill="#b16545"/><path d="M94.312,74.287l.415.378h-.415Z" fill="#b06545"/></g><g clip-path="url(#g)"><path d="M94.915,4.948,93.874,4h1.041Z" fill="#c67450"/><path d="M94.915,8.276,90.223,4h3.651l1.041.949Z" fill="#c57350"/><path d="M94.915,11.6,86.571,4h3.652l4.692,4.277Z" fill="#c4724f"/><path d="M94.915,14.932,82.92,4h3.651L94.915,11.6Z" fill="#c3724f"/><path d="M94.915,18.26,79.268,4H82.92l12,10.933Z" fill="#c2714e"/><path d="M94.915,21.588,77.791,5.981V4.9l.824-.9h.653L94.915,18.26Z" fill="#c1704e"/><path d="M94.915,24.916,77.791,9.309V5.981L94.915,21.588Z" fill="#c0704d"/><path d="M94.915,27.751l-.246.27L77.791,12.638V9.31L94.915,24.916Z" fill="#bf6f4d"/><path d="M94.669,28.02l-.577.633H91.713L77.791,15.965V12.637Z" fill="#be6e4c"/><path d="M88.061,28.654l-10.27-9.36V15.966L91.713,28.654Z" fill="#bd6e4c"/><path d="M84.41,28.654l-6.619-6.032V19.294l10.271,9.36Z" fill="#bc6d4b"/><path d="M80.758,28.654l-2.967-2.7V22.622l6.619,6.032Z" fill="#bb6c4b"/><path d="M77.791,25.95l2.967,2.7H77.791Z" fill="#ba6b4a"/><path d="M98.915,1.938,96.788,0h2.127Z" fill="#c87551"/><path d="M98.915,5.266,93.137,0h3.651l2.127,1.938Z" fill="#c77451"/><path d="M98.915,8.594,89.485,0h3.652l5.778,5.266Z" fill="#c67450"/><path d="M98.915,11.922,85.834,0h3.651l9.43,8.594Z" fill="#c57350"/><path d="M98.915,15.25,82.182,0h3.652L98.915,11.922Z" fill="#c4724f"/><path d="M98.915,18.578,78.531,0h3.651L98.915,15.25Z" fill="#c3724f"/><path d="M98.915,21.906,75.631.685,76.255,0h2.276L98.915,18.578Z" fill="#c2714e"/><path d="M98.915,25.234,73.974,2.5,75.631.685,98.915,21.906Z" fill="#c1704e"/><path d="M98.915,28.562,73.791,5.664V2.7l.183-.2L98.915,25.234Z" fill="#c0704d"/><path d="M98.915,29.948l-.967,1.061L73.791,8.992V5.664l25.124,22.9Z" fill="#bf6f4d"/><path d="M97.948,31.009l-1.5,1.645H96.1L73.791,12.32V8.992Z" fill="#be6e4c"/><path d="M92.45,32.654,73.791,15.648V12.32L96.1,32.654Z" fill="#bd6e4c"/><path d="M88.8,32.654,73.791,18.976V15.648l18.66,17.006Z" fill="#bc6d4b"/><path d="M85.147,32.654,73.791,22.3V18.976L88.8,32.654Z" fill="#bb6c4b"/><path d="M81.5,32.654l-7.7-7.022V22.3l11.356,10.35Z" fill="#ba6b4a"/><path d="M77.844,32.654,73.791,28.96V25.632l7.7,7.022Z" fill="#b96b49"/><path d="M74.192,32.654l-.4-.366V28.96l4.053,3.694Z" fill="#b86a49"/><path d="M73.791,32.288l.4.366h-.4Z" fill="#b76948"/><path d="M99.853,39.4,98.06,37.767h1.792Z" fill="#bd6e4c"/><path d="M99.853,42.728,94.41,37.767H98.06L99.853,39.4Z" fill="#bc6d4b"/><path d="M99.853,46.056l-9.1-8.289H94.41l5.443,4.961Z" fill="#bb6c4b"/><path d="M99.853,49.384,87.105,37.767h3.652l9.1,8.289Z" fill="#ba6b4a"/><path d="M99.853,52.712l-16.4-14.945h3.651L99.853,49.384Z" fill="#b96b49"/><path d="M99.853,56.04,79.8,37.767h3.652l16.4,14.945Z" fill="#b86a49"/><path d="M99.853,59.368l-23.7-21.6H79.8L99.853,56.04Z" fill="#b76948"/><path d="M99.853,62.7,74.131,39.254l1.355-1.487h.666l23.7,21.6Z" fill="#b66948"/><path d="M99.853,63.635l-1.19,1.305L72.884,41.446v-.825l1.246-1.367L99.853,62.7Z" fill="#b56847"/><path d="M98.663,64.94l-1.645,1.805h-.026L72.885,44.774V41.446Z" fill="#b46747"/><path d="M93.341,66.746,72.885,48.1V44.775L96.993,66.746Z" fill="#b36746"/><path d="M89.689,66.746l-16.8-15.315V48.1L93.341,66.746Z" fill="#b26646"/><path d="M86.038,66.746,72.885,54.759V51.431l16.8,15.315Z" fill="#b16545"/><path d="M82.386,66.746l-9.5-8.659V54.759L86.038,66.746Z" fill="#b06545"/><path d="M78.734,66.746l-5.85-5.331V58.087l9.5,8.659Z" fill="#af6444"/><path d="M75.083,66.746l-2.2-2V61.415l5.85,5.331Z" fill="#ae6344"/><path d="M72.885,64.742l2.2,2h-2.2Z" fill="#ad6343"/><path d="M104.861,33.981l-.235-.214h.235Z" fill="#c0704d"/><path d="M104.861,37.309l-3.886-3.542h3.651l.235.214Z" fill="#bf6f4d"/><path d="M104.861,40.637l-7.538-6.87h3.652l3.886,3.542Z" fill="#be6e4c"/><path d="M104.861,43.965l-11.19-10.2h3.652l7.538,6.87Z" fill="#bd6e4c"/><path d="M104.861,47.293,90.02,33.767h3.651l11.19,10.2Z" fill="#bc6d4b"/><path d="M104.861,50.621,86.368,33.767H90.02l14.841,13.526Z" fill="#bb6c4b"/><path d="M104.861,53.949,82.717,33.767h3.651l18.493,16.854Z" fill="#ba6b4a"/><path d="M104.861,57.277l-25.8-23.51h3.652l22.144,20.182Z" fill="#b96b49"/><path d="M104.861,60.605,75.414,33.767h3.651l25.8,23.51Z" fill="#b86a49"/><path d="M104.861,63.933,72.815,34.726l.874-.959h1.725l29.447,26.838Z" fill="#b76948"/><path d="M104.861,65.374l-.94,1.031L71.158,36.544l1.657-1.817,32.046,29.206Z" fill="#b66948"/><rect width="2.459" height="44.33" transform="translate(69.502 38.362) rotate(-47.653)" fill="#b56847"/><path d="M102.265,68.223l-1.657,1.818L67.879,40.212v-.069L69.5,38.362Z" fill="#b46747"/><path d="M100.608,70.041l-.647.71H97.735L67.879,43.54V40.212Z" fill="#b36746"/><path d="M94.083,70.751l-26.2-23.883V43.54L97.735,70.751Z" fill="#b26646"/><path d="M90.432,70.751,67.879,50.2V46.868l26.2,23.883Z" fill="#b16545"/><path d="M86.78,70.751l-18.9-17.227V50.2L90.432,70.751Z" fill="#b06545"/><path d="M83.129,70.751l-15.25-13.9V53.524l18.9,17.227Z" fill="#af6444"/><path d="M79.477,70.751l-11.6-10.57V56.852l15.25,13.9Z" fill="#ae6344"/><path d="M75.826,70.751l-7.947-7.242V60.181l11.6,10.57Z" fill="#ad6343"/><path d="M72.174,70.751l-4.3-3.914V63.509l7.947,7.242Z" fill="#ac6243"/><path d="M68.522,70.751l-.643-.586V66.837l4.295,3.914Z" fill="#ab6142"/><path d="M67.879,70.164l.643.586h-.643Z" fill="#aa6142"/></g><g clip-path="url(#h)"><path d="M107.068,72.6l-2.35-2.141h2.35Z" fill="#b56847"/><path d="M105.687,74.67,102.642,71.9V70.46h2.076l2.35,2.141V74.67Z" fill="#b46747"/><path d="M102.643,71.9l3.044,2.774h-3.044Z" fill="#b36746"/></g><g clip-path="url(#i)"><path d="M48.942,82.858l-3.585-3.267h3.585Z" fill="#a15b3d"/><path d="M48.942,86.186l-7.237-6.6h3.652l3.585,3.267Z" fill="#a05a3d"/><path d="M48.942,89.514,38.054,79.591h3.651l7.237,6.6Z" fill="#9f5a3c"/><path d="M48.942,92.842,34.4,79.591h3.652l10.888,9.923Z" fill="#9e593c"/><path d="M48.942,96.17,30.751,79.591H34.4l14.54,13.251Z" fill="#9d583b"/><path d="M48.942,99.5,27.1,79.591h3.652L48.942,96.17Z" fill="#9c583b"/><path d="M48.942,102.826,23.448,79.591H27.1L48.942,99.5Z" fill="#9b573a"/><path d="M48.942,106.154,19.8,79.591h3.652l25.494,23.235Z" fill="#9a563a"/><path d="M48.942,109.482,17.01,80.38v-.789H19.8l29.146,26.563Z" fill="#995639"/><path d="M47.214,111.235,17.01,83.708V80.38l31.932,29.1v1.753Z" fill="#985538"/><path d="M43.563,111.235l-26.552-24.2V83.708l30.2,27.527Z" fill="#975438"/><path d="M39.911,111.235l-22.9-20.871V87.036l26.552,24.2Z" fill="#965337"/><path d="M36.26,111.235,17.011,93.692V90.364l22.9,20.871Z" fill="#955337"/><path d="M32.608,111.235,17.011,97.02V93.692L36.26,111.235Z" fill="#945236"/><path d="M28.956,111.235,17.01,100.348V97.02l15.6,14.215Z" fill="#935136"/><path d="M25.3,111.235l-8.294-7.559v-3.328l11.946,10.887Z" fill="#925135"/><path d="M21.653,111.235,17.01,107v-3.328l8.3,7.559Z" fill="#915035"/><path d="M18,111.235l-.991-.9V107l4.643,4.231Z" fill="#904f34"/><path d="M17.011,110.332l.991.9h-.991Z" fill="#8f4f34"/></g><g clip-path="url(#j)"><path d="M108.544,77.274l-3.391-3.091h3.391Z" fill="#b46747"/><path d="M108.544,80.6,101.5,74.183h3.652l3.391,3.091Z" fill="#b36746"/><path d="M108.544,83.761l-.084.092L97.85,74.184H101.5l7.043,6.418Z" fill="#b26646"/><path d="M108.46,83.853,106.8,85.671,94.2,74.183H97.85Z" fill="#b16545"/><path d="M106.8,85.671l-1.657,1.818-14.6-13.306H94.2Z" fill="#b06545"/><path d="M105.146,87.489l-.125.138h-3.376L86.9,74.183h3.652Z" fill="#af6444"/><path d="M97.994,87.627,83.244,74.184h3.651l14.751,13.443Z" fill="#ae6344"/><path d="M94.342,87.627,79.592,74.184h3.651L97.994,87.627Z" fill="#ad6343"/><path d="M90.691,87.627,75.941,74.184h3.651L94.343,87.627Z" fill="#ac6243"/><path d="M87.039,87.627,72.289,74.184H75.94L90.691,87.627Z" fill="#ab6142"/><path d="M83.387,87.627,69.656,75.113l.847-.929h1.785L87.039,87.627Z" fill="#aa6142"/><path d="M79.736,87.627,68,76.931l1.657-1.818L83.388,87.627Z" fill="#a86041"/><path d="M76.084,87.627l-9.741-8.878L68,76.931l11.736,10.7Z" fill="#a75f40"/><path d="M72.433,87.627l-7.747-7.06,1.657-1.818,9.742,8.878Z" fill="#a65e40"/><path d="M68.781,87.627l-4.994-4.552V81.553l.9-.986,7.747,7.06Z" fill="#a55e3f"/><path d="M65.13,87.627,63.788,86.4V83.075l4.994,4.552Z" fill="#a45d3f"/><path d="M63.787,86.4l1.342,1.224H63.787Z" fill="#a35c3e"/></g><g clip-path="url(#h)"><path d="M107.068,72.6l-2.35-2.141h2.35Z" fill="#b56847"/><path d="M105.687,74.67,102.642,71.9V70.46h2.076l2.35,2.141V74.67Z" fill="#b46747"/><path d="M102.643,71.9l3.044,2.774h-3.044Z" fill="#b36746"/></g><g clip-path="url(#i)"><path d="M48.942,82.858l-3.585-3.267h3.585Z" fill="#a15b3d"/><path d="M48.942,86.186l-7.237-6.6h3.652l3.585,3.267Z" fill="#a05a3d"/><path d="M48.942,89.514,38.054,79.591h3.651l7.237,6.6Z" fill="#9f5a3c"/><path d="M48.942,92.842,34.4,79.591h3.652l10.888,9.923Z" fill="#9e593c"/><path d="M48.942,96.17,30.751,79.591H34.4l14.54,13.251Z" fill="#9d583b"/><path d="M48.942,99.5,27.1,79.591h3.652L48.942,96.17Z" fill="#9c583b"/><path d="M48.942,102.826,23.448,79.591H27.1L48.942,99.5Z" fill="#9b573a"/><path d="M48.942,106.154,19.8,79.591h3.652l25.494,23.235Z" fill="#9a563a"/><path d="M48.942,109.482,17.01,80.38v-.789H19.8l29.146,26.563Z" fill="#995639"/><path d="M47.214,111.235,17.01,83.708V80.38l31.932,29.1v1.753Z" fill="#985538"/><path d="M43.563,111.235l-26.552-24.2V83.708l30.2,27.527Z" fill="#975438"/><path d="M39.911,111.235l-22.9-20.871V87.036l26.552,24.2Z" fill="#965337"/><path d="M36.26,111.235,17.011,93.692V90.364l22.9,20.871Z" fill="#955337"/><path d="M32.608,111.235,17.011,97.02V93.692L36.26,111.235Z" fill="#945236"/><path d="M28.956,111.235,17.01,100.348V97.02l15.6,14.215Z" fill="#935136"/><path d="M25.3,111.235l-8.294-7.559v-3.328l11.946,10.887Z" fill="#925135"/><path d="M21.653,111.235,17.01,107v-3.328l8.3,7.559Z" fill="#915035"/><path d="M18,111.235l-.991-.9V107l4.643,4.231Z" fill="#904f34"/><path d="M17.011,110.332l.991.9h-.991Z" fill="#8f4f34"/></g><g clip-path="url(#j)"><path d="M108.544,77.274l-3.391-3.091h3.391Z" fill="#b46747"/><path d="M108.544,80.6,101.5,74.183h3.652l3.391,3.091Z" fill="#b36746"/><path d="M108.544,83.761l-.084.092L97.85,74.184H101.5l7.043,6.418Z" fill="#b26646"/><path d="M108.46,83.853,106.8,85.671,94.2,74.183H97.85Z" fill="#b16545"/><path d="M106.8,85.671l-1.657,1.818-14.6-13.306H94.2Z" fill="#b06545"/><path d="M105.146,87.489l-.125.138h-3.376L86.9,74.183h3.652Z" fill="#af6444"/><path d="M97.994,87.627,83.244,74.184h3.651l14.751,13.443Z" fill="#ae6344"/><path d="M94.342,87.627,79.592,74.184h3.651L97.994,87.627Z" fill="#ad6343"/><path d="M90.691,87.627,75.941,74.184h3.651L94.343,87.627Z" fill="#ac6243"/><path d="M87.039,87.627,72.289,74.184H75.94L90.691,87.627Z" fill="#ab6142"/><path d="M83.387,87.627,69.656,75.113l.847-.929h1.785L87.039,87.627Z" fill="#aa6142"/><path d="M79.736,87.627,68,76.931l1.657-1.818L83.388,87.627Z" fill="#a86041"/><path d="M76.084,87.627l-9.741-8.878L68,76.931l11.736,10.7Z" fill="#a75f40"/><path d="M72.433,87.627l-7.747-7.06,1.657-1.818,9.742,8.878Z" fill="#a65e40"/><path d="M68.781,87.627l-4.994-4.552V81.553l.9-.986,7.747,7.06Z" fill="#a55e3f"/><path d="M65.13,87.627,63.788,86.4V83.075l4.994,4.552Z" fill="#a45d3f"/><path d="M63.787,86.4l1.342,1.224H63.787Z" fill="#a35c3e"/></g><g clip-path="url(#n)"><path d="M48.688,82.625l-1.833-1.671h1.833Z" fill="#a15b3d"/><path d="M48.688,85.953l-5.485-5h3.652l1.833,1.671Z" fill="#a05a3d"/><path d="M48.688,89.281l-9.136-8.327H43.2l5.485,5Z" fill="#9f5a3c"/><path d="M48.688,92.609,35.9,80.954h3.652l9.136,8.327Z" fill="#9e593c"/><path d="M48.688,95.937,32.249,80.954H35.9L48.688,92.609Z" fill="#9d583b"/><path d="M48.688,99.266,28.6,80.955h3.652L48.688,95.938Z" fill="#9c583b"/><path d="M48.688,102.594,24.944,80.955H28.6L48.688,99.266Z" fill="#9b573a"/><path d="M48.688,105.922,21.294,80.955h3.651l23.743,21.639Z" fill="#9a563a"/><path d="M48.688,109.25,17.642,80.955h3.652l27.394,24.967Z" fill="#995639"/><path d="M48.688,112.578l-34.7-31.623h3.651L48.688,109.25Z" fill="#985538"/><path d="M48.688,115.906,10.339,80.955h3.652l34.7,31.623Z" fill="#975438"/><path d="M48.688,119.234l-42-38.279h3.652l38.349,34.951Z" fill="#965337"/><path d="M48.688,122.562,4.855,82.614l1.512-1.659h.319l42,38.279Z" fill="#955337"/><path d="M48.688,124.275l-.215.236h-1.3L4.389,85.517v-2.39l.467-.513,43.832,39.948Z" fill="#945236"/><path d="M43.522,124.51,4.389,88.844V85.516L47.174,124.51Z" fill="#935136"/><path d="M39.871,124.51,4.389,92.172V88.844L43.523,124.51Z" fill="#925135"/><path d="M36.219,124.51,4.388,95.5V92.172L39.871,124.51Z" fill="#915035"/><path d="M32.568,124.51,4.389,98.828V95.5L36.22,124.51Z" fill="#904f34"/><path d="M28.916,124.51,4.388,102.156V98.828l28.18,25.682Z" fill="#8f4f34"/><path d="M25.265,124.51,4.389,105.484v-3.328L28.917,124.51Z" fill="#8e4e33"/><path d="M21.613,124.51l-17.224-15.7v-3.328L25.265,124.51Z" fill="#8d4d33"/><path d="M17.962,124.51,4.389,112.14v-3.328l17.225,15.7Z" fill="#8c4d32"/><path d="M14.31,124.51l-9.921-9.042V112.14l13.573,12.37Z" fill="#8b4c32"/><path d="M10.658,124.51,4.388,118.8v-3.328l9.922,9.042Z" fill="#8a4b31"/><path d="M7.007,124.51l-2.618-2.386V118.8l6.27,5.714Z" fill="#894b30"/><path d="M4.389,122.124l2.618,2.386H4.389Z" fill="#884a30"/><path d="M53.076,76.641l-.9-.816h.9Z" fill="#a45d3f"/><path d="M53.076,79.969l-4.547-4.144H52.18l.9.816Z" fill="#a35c3e"/><path d="M53.076,83.3l-8.2-7.472h3.652l4.547,4.144Z" fill="#a25c3e"/><path d="M53.076,86.625l-11.85-10.8h3.651l8.2,7.472Z" fill="#a15b3d"/><path d="M53.076,89.953l-15.5-14.128h3.652l11.85,10.8Z" fill="#a05a3d"/><path d="M53.076,93.281,33.922,75.825h3.652l15.5,14.128Z" fill="#9f5a3c"/><path d="M53.076,96.609,30.271,75.825h3.651L53.076,93.281Z" fill="#9e593c"/><path d="M53.076,99.937,26.619,75.825h3.652L53.076,96.609Z" fill="#9d583b"/><path d="M53.076,103.265,22.968,75.824h3.651L53.076,99.937Z" fill="#9c583b"/><path d="M53.076,106.593,19.316,75.824h3.652l30.108,27.441Z" fill="#9b573a"/><path d="M53.076,109.921l-37.411-34.1h3.651l33.76,30.769Z" fill="#9a563a"/><path d="M53.076,113.249,12.013,75.824h3.652l37.411,34.1Z" fill="#995639"/><path d="M53.076,116.577,8.361,75.824h3.652l41.063,37.425Z" fill="#985538"/><path d="M53.076,119.905,5.14,76.217l.358-.393H8.361l44.715,40.753Z" fill="#975438"/><path d="M53.076,122.862l-.185.2L3.484,78.035,5.14,76.217l47.936,43.688Z" fill="#965337"/><rect width="2.46" height="66.849" transform="matrix(0.674, -0.739, 0.739, 0.674, 1.827, 79.852)" fill="#955337"/><rect width="2.46" height="66.849" transform="translate(0.17 81.67) rotate(-47.653)" fill="#945236"/><path d="M49.578,126.7l-.977,1.072H47.1L0,84.844V81.858l.17-.187Z" fill="#935136"/><path d="M43.451,127.773,0,88.172V84.844l47.1,42.929Z" fill="#925135"/><path d="M39.8,127.773,0,91.5V88.172l43.451,39.6Z" fill="#915035"/><path d="M36.148,127.773,0,94.828V91.5l39.8,36.273Z" fill="#904f34"/><path d="M32.5,127.773,0,98.156V94.828l36.148,32.945Z" fill="#8f4f34"/><path d="M28.844,127.773,0,101.484V98.156l32.5,29.617Z" fill="#8e4e33"/><path d="M25.193,127.773,0,104.812v-3.328l28.845,26.289Z" fill="#8d4d33"/><path d="M21.541,127.773,0,108.14v-3.328l25.193,22.961Z" fill="#8c4d32"/><path d="M17.89,127.773,0,111.468V108.14l21.542,19.633Z" fill="#8b4c32"/><path d="M14.238,127.773,0,114.8v-3.328l17.89,16.305Z" fill="#8a4b31"/><path d="M10.587,127.773,0,118.124V114.8l14.239,12.977Z" fill="#894b30"/><path d="M6.935,127.773,0,121.452v-3.328l10.587,9.649Z" fill="#884a30"/><path d="M3.283,127.773,0,124.78v-3.328l6.935,6.321Z" fill="#87492f"/><path d="M0,124.78l3.283,2.993H0Z" fill="#86492f"/><path d="M48.688,82.625l-1.833-1.671h1.833Z" fill="#a15b3d"/><path d="M48.688,85.953l-5.485-5h3.652l1.833,1.671Z" fill="#a05a3d"/><path d="M48.688,89.281l-9.136-8.327H43.2l5.485,5Z" fill="#9f5a3c"/><path d="M48.688,92.609,35.9,80.954h3.652l9.136,8.327Z" fill="#9e593c"/><path d="M48.688,95.937,32.249,80.954H35.9L48.688,92.609Z" fill="#9d583b"/><path d="M48.688,99.266,28.6,80.955h3.652L48.688,95.938Z" fill="#9c583b"/><path d="M48.688,102.594,24.944,80.955H28.6L48.688,99.266Z" fill="#9b573a"/><path d="M48.688,105.922,21.294,80.955h3.651l23.743,21.639Z" fill="#9a563a"/><path d="M48.688,109.25,17.642,80.955h3.652l27.394,24.967Z" fill="#995639"/><path d="M48.688,112.578l-34.7-31.623h3.651L48.688,109.25Z" fill="#985538"/><path d="M48.688,115.906,10.339,80.955h3.652l34.7,31.623Z" fill="#975438"/><path d="M48.688,119.234l-42-38.279h3.652l38.349,34.951Z" fill="#965337"/><path d="M48.688,122.562,4.855,82.614l1.512-1.659h.319l42,38.279Z" fill="#955337"/><path d="M48.688,124.275l-.215.236h-1.3L4.389,85.517v-2.39l.467-.513,43.832,39.948Z" fill="#945236"/><path d="M43.522,124.51,4.389,88.844V85.516L47.174,124.51Z" fill="#935136"/><path d="M39.871,124.51,4.389,92.172V88.844L43.523,124.51Z" fill="#925135"/><path d="M36.219,124.51,4.388,95.5V92.172L39.871,124.51Z" fill="#915035"/><path d="M32.568,124.51,4.389,98.828V95.5L36.22,124.51Z" fill="#904f34"/><path d="M28.916,124.51,4.388,102.156V98.828l28.18,25.682Z" fill="#8f4f34"/><path d="M25.265,124.51,4.389,105.484v-3.328L28.917,124.51Z" fill="#8e4e33"/><path d="M21.613,124.51l-17.224-15.7v-3.328L25.265,124.51Z" fill="#8d4d33"/><path d="M17.962,124.51,4.389,112.14v-3.328l17.225,15.7Z" fill="#8c4d32"/><path d="M14.31,124.51l-9.921-9.042V112.14l13.573,12.37Z" fill="#8b4c32"/><path d="M10.658,124.51,4.388,118.8v-3.328l9.922,9.042Z" fill="#8a4b31"/><path d="M7.007,124.51l-2.618-2.386V118.8l6.27,5.714Z" fill="#894b30"/><path d="M4.389,122.124l2.618,2.386H4.389Z" fill="#884a30"/><path d="M53.076,76.641l-.9-.816h.9Z" fill="#a45d3f"/><path d="M53.076,79.969l-4.547-4.144H52.18l.9.816Z" fill="#a35c3e"/><path d="M53.076,83.3l-8.2-7.472h3.652l4.547,4.144Z" fill="#a25c3e"/><path d="M53.076,86.625l-11.85-10.8h3.651l8.2,7.472Z" fill="#a15b3d"/><path d="M53.076,89.953l-15.5-14.128h3.652l11.85,10.8Z" fill="#a05a3d"/><path d="M53.076,93.281,33.922,75.825h3.652l15.5,14.128Z" fill="#9f5a3c"/><path d="M53.076,96.609,30.271,75.825h3.651L53.076,93.281Z" fill="#9e593c"/><path d="M53.076,99.937,26.619,75.825h3.652L53.076,96.609Z" fill="#9d583b"/><path d="M53.076,103.265,22.968,75.824h3.651L53.076,99.937Z" fill="#9c583b"/><path d="M53.076,106.593,19.316,75.824h3.652l30.108,27.441Z" fill="#9b573a"/><path d="M53.076,109.921l-37.411-34.1h3.651l33.76,30.769Z" fill="#9a563a"/><path d="M53.076,113.249,12.013,75.824h3.652l37.411,34.1Z" fill="#995639"/><path d="M53.076,116.577,8.361,75.824h3.652l41.063,37.425Z" fill="#985538"/><path d="M53.076,119.905,5.14,76.217l.358-.393H8.361l44.715,40.753Z" fill="#975438"/><path d="M53.076,122.862l-.185.2L3.484,78.035,5.14,76.217l47.936,43.688Z" fill="#965337"/><rect width="2.46" height="66.849" transform="matrix(0.674, -0.739, 0.739, 0.674, 1.827, 79.852)" fill="#955337"/><rect width="2.46" height="66.849" transform="translate(0.17 81.67) rotate(-47.653)" fill="#945236"/><path d="M49.578,126.7l-.977,1.072H47.1L0,84.844V81.858l.17-.187Z" fill="#935136"/><path d="M43.451,127.773,0,88.172V84.844l47.1,42.929Z" fill="#925135"/><path d="M39.8,127.773,0,91.5V88.172l43.451,39.6Z" fill="#915035"/><path d="M36.148,127.773,0,94.828V91.5l39.8,36.273Z" fill="#904f34"/><path d="M32.5,127.773,0,98.156V94.828l36.148,32.945Z" fill="#8f4f34"/><path d="M28.844,127.773,0,101.484V98.156l32.5,29.617Z" fill="#8e4e33"/><path d="M25.193,127.773,0,104.812v-3.328l28.845,26.289Z" fill="#8d4d33"/><path d="M21.541,127.773,0,108.14v-3.328l25.193,22.961Z" fill="#8c4d32"/><path d="M17.89,127.773,0,111.468V108.14l21.542,19.633Z" fill="#8b4c32"/><path d="M14.238,127.773,0,114.8v-3.328l17.89,16.305Z" fill="#8a4b31"/><path d="M10.587,127.773,0,118.124V114.8l14.239,12.977Z" fill="#894b30"/><path d="M6.935,127.773,0,121.452v-3.328l10.587,9.649Z" fill="#884a30"/><path d="M3.283,127.773,0,124.78v-3.328l6.935,6.321Z" fill="#87492f"/><path d="M0,124.78l3.283,2.993H0Z" fill="#86492f"/></g></svg>