<svg xmlns="http://www.w3.org/2000/svg" xmlns:xlink="http://www.w3.org/1999/xlink" width="125.442" height="117.833" viewBox="0 0 125.442 117.833"><defs><clipPath id="a"><rect width="125.442" height="117.833" fill="none"/></clipPath><clipPath id="b"><path d="M5.368,80.219h13.8v33.614H5.368Zm-2-4a2,2,0,0,0-2,2v37.613a2,2,0,0,0,2,2h17.8a2,2,0,0,0,2-2V78.22a2,2,0,0,0-2-2Z" fill="none"/></clipPath><clipPath id="c"><path d="M39,46.628H52.8v67.206H39Zm-2-4a2,2,0,0,0-2,2v71.205a2,2,0,0,0,2,2h17.8a2,2,0,0,0,2-2V44.628a2,2,0,0,0-2-2Z" fill="none"/></clipPath><clipPath id="d"><path d="M72.639,76.621h13.8v37.212h-13.8Zm-2-4a2,2,0,0,0-2,2v41.212a2,2,0,0,0,2,2h17.8a2,2,0,0,0,2-2V74.621a2,2,0,0,0-2-2Z" fill="none"/></clipPath><clipPath id="e"><path d="M106.274,61.024h13.8v52.809h-13.8Zm-2-4a2,2,0,0,0-2,2v56.809a2,2,0,0,0,2,2h17.8a2,2,0,0,0,2-2V59.024a2,2,0,0,0-2-2Z" fill="none"/></clipPath><clipPath id="f"><rect width="125.442" height="117.833" transform="translate(0 0)" fill="none"/></clipPath><clipPath id="g"><rect width="121.443" height="54.692" transform="translate(2 2)" fill="none"/></clipPath><clipPath id="h"><path d="M4,46.423a8.269,8.269,0,1,1,8.269,8.27A8.277,8.277,0,0,1,4,46.423m-4,0A12.269,12.269,0,1,0,12.269,34.156,12.282,12.282,0,0,0,0,46.423m71.27-3.607a8.269,8.269,0,1,1,8.269,8.269,8.278,8.278,0,0,1-8.269-8.269m-4,0A12.268,12.268,0,1,0,79.539,30.549,12.282,12.282,0,0,0,67.271,42.816m37.635-15.534a8.268,8.268,0,1,1,8.269,8.268,8.278,8.278,0,0,1-8.269-8.268m-4,0a12.268,12.268,0,1,0,12.269-12.268,12.284,12.284,0,0,0-12.269,12.268M37.635,12.267A8.269,8.269,0,1,1,45.9,20.536a8.278,8.278,0,0,1-8.269-8.269M45.9,0A12.268,12.268,0,1,0,58.172,12.267,12.281,12.281,0,0,0,45.9,0Z" fill="none"/></clipPath><clipPath id="i"><path d="M35.923,20.011,20.051,35.672a2,2,0,1,0,2.808,2.848L38.732,22.859a2,2,0,1,0-2.809-2.848" fill="none"/></clipPath><clipPath id="j"><path d="M53.7,19.311a2,2,0,0,0,.125,2.826L69.843,36.8a2,2,0,0,0,2.7-2.952L56.524,19.186a2,2,0,0,0-2.826.125" fill="none"/></clipPath><clipPath id="k"><path d="M100.846,30.772,88.774,36.641a2,2,0,0,0,1.751,3.6L102.6,34.37a2,2,0,0,0-1.75-3.6" fill="none"/></clipPath></defs><g clip-path="url(#a)"><g clip-path="url(#b)"><path d="M19.169,80.689l-.533-.469h.533Z" fill="#4c436c"/><path d="M19.169,82.933l-3.083-2.714h2.55l.533.469Z" fill="#4b426b"/><path d="M19.169,85.178,13.535,80.22h2.551l3.083,2.713Z" fill="#4a416a"/><path d="M19.169,87.423l-8.185-7.2h2.551l5.634,4.958Z" fill="#494069"/><path d="M19.169,89.667,8.434,80.219h2.55l8.185,7.2Z" fill="#483f68"/><path d="M19.169,91.912,5.883,80.22H8.434l10.735,9.447Z" fill="#473e67"/><path d="M19.169,94.157,5.368,82.011V80.22h.515L19.169,91.912Z" fill="#473d66"/><path d="M19.169,96.4,5.368,84.256V82.012l13.8,12.145Z" fill="#463d65"/><path d="M19.169,98.646,5.368,86.5V84.256L19.169,96.4Z" fill="#453c64"/><path d="M19.169,100.891,5.368,88.745V86.5l13.8,12.145Z" fill="#443b63"/><path d="M19.169,103.136,5.368,90.99V88.746l13.8,12.145Z" fill="#433a62"/><path d="M19.169,105.38,5.368,93.234V90.99l13.8,12.145Z" fill="#423961"/><path d="M19.169,107.625,5.368,95.479V93.235l13.8,12.145Z" fill="#413860"/><path d="M19.169,109.87,5.368,97.724V95.48l13.8,12.145Z" fill="#40375f"/><path d="M19.169,112.114,5.368,99.968V97.724l13.8,12.145Z" fill="#3f365e"/><path d="M18.572,113.833l-13.2-11.62V99.968l13.8,12.146v1.719Z" fill="#3e365d"/><path d="M16.021,113.833,5.368,104.458v-2.245l13.2,11.62Z" fill="#3e355c"/><path d="M13.47,113.833l-8.1-7.131v-2.244l10.653,9.375Z" fill="#3d345b"/><path d="M10.92,113.833l-5.552-4.886V106.7l8.1,7.131Z" fill="#3c335a"/><path d="M8.369,113.833l-3-2.641v-2.245l5.552,4.886Z" fill="#3b3259"/><path d="M5.819,113.833l-.451-.4v-2.244l3,2.641Z" fill="#3a3158"/><path d="M5.368,113.437l.451.4H5.368Z" fill="#393057"/><path d="M23.169,77.475,21.743,76.22h1.426Z" fill="#4f456f"/><path d="M23.169,79.72l-3.977-3.5h2.551l1.426,1.255Z" fill="#4e446e"/><path d="M23.169,81.964l-6.527-5.745h2.55l3.977,3.5Z" fill="#4d446d"/><path d="M23.169,84.209,14.091,76.22h2.551l6.527,5.744Z" fill="#4c436c"/><path d="M23.169,86.454,11.54,76.22h2.551l9.078,7.989Z" fill="#4b426b"/><path d="M23.169,88.7,8.99,76.219h2.55L23.169,86.453Z" fill="#4a416a"/><path d="M23.169,90.943,6.439,76.22H8.99L23.169,88.7Z" fill="#494069"/><path d="M23.169,93.188,3.889,76.22h2.55l16.73,14.723Z" fill="#483f68"/><path d="M23.169,95.432,1.368,76.246v-.027H3.889l19.28,16.968Z" fill="#473e67"/><path d="M23.169,97.677,1.368,78.491V76.246l21.8,19.186Z" fill="#473d66"/><path d="M23.169,99.922,1.368,80.736V78.491l21.8,19.186Z" fill="#463d65"/><path d="M23.169,102.166,1.368,82.98V80.735l21.8,19.186Z" fill="#453c64"/><path d="M23.169,104.411,1.368,85.225V82.98l21.8,19.186Z" fill="#443b63"/><path d="M23.169,106.656,1.368,87.47V85.225l21.8,19.186Z" fill="#433a62"/><path d="M23.169,108.9,1.368,89.714V87.469l21.8,19.186Z" fill="#423961"/><path d="M23.169,111.145,1.368,91.959V89.714l21.8,19.186Z" fill="#413860"/><path d="M23.169,113.39,1.368,94.2V91.959l21.8,19.186Z" fill="#40375f"/><path d="M23.169,115.635,1.368,96.449V94.2l21.8,19.186Z" fill="#3f365e"/><path d="M23.117,117.833,1.369,98.693V96.448l21.8,19.186v2.2Z" fill="#3e365d"/><path d="M20.566,117.833l-19.2-16.9V98.693l21.749,19.14Z" fill="#3e355c"/><path d="M18.015,117.833,1.368,103.182v-2.245l19.2,16.9Z" fill="#3d345b"/><path d="M15.465,117.833l-14.1-12.406v-2.245l16.648,14.651Z" fill="#3c335a"/><path d="M12.914,117.833,1.368,107.672v-2.245l14.1,12.406Z" fill="#3b3259"/><path d="M10.364,117.833l-9-7.917v-2.244l11.547,10.161Z" fill="#3a3158"/><path d="M7.813,117.833l-6.445-5.672v-2.245l9,7.917Z" fill="#393057"/><path d="M5.263,117.833l-3.895-3.427v-2.245l6.446,5.672Z" fill="#382f56"/><path d="M2.712,117.833,1.368,116.65v-2.244l3.9,3.427Z" fill="#372f55"/><path d="M1.368,116.65l1.344,1.183H1.368Z" fill="#362e54"/></g><g clip-path="url(#c)"><path d="M52.8,47.44l-.923-.812H52.8Z" fill="#655b89"/><path d="M52.8,49.685l-3.473-3.057h2.55l.923.812Z" fill="#655a88"/><path d="M52.8,51.929l-6.024-5.3h2.551L52.8,49.684Z" fill="#645a87"/><path d="M52.8,54.174l-8.574-7.546h2.55l6.024,5.3Z" fill="#635986"/><path d="M52.8,56.419,41.68,46.628h2.551L52.8,54.174Z" fill="#625885"/><path d="M52.8,58.663,39.13,46.628h2.55L52.8,56.418Z" fill="#615784"/><path d="M52.8,60.908,39,48.761V46.628h.127L52.8,58.663Z" fill="#605683"/><path d="M52.8,63.153,39,51.006V48.762L52.8,60.908Z" fill="#5f5581"/><path d="M52.8,65.4,39,53.25V51.006L52.8,63.152Z" fill="#5e5480"/><path d="M52.8,67.642,39,55.495V53.251L52.8,65.4Z" fill="#5d537f"/><path d="M52.8,69.887,39,57.74V55.5L52.8,67.642Z" fill="#5c527e"/><path d="M52.8,72.131,39,59.984V57.74L52.8,69.886Z" fill="#5b527d"/><path d="M52.8,74.376,39,62.229V59.985L52.8,72.131Z" fill="#5b517c"/><path d="M52.8,76.621,39,64.474V62.23L52.8,74.376Z" fill="#5a507b"/><path d="M52.8,78.865,39,66.718V64.474L52.8,76.62Z" fill="#594f7a"/><path d="M52.8,81.11,39,68.963V66.719L52.8,78.865Z" fill="#584e79"/><path d="M52.8,83.355,39,71.208V68.964L52.8,81.11Z" fill="#574d78"/><path d="M52.8,85.6,39,73.452V71.208L52.8,83.354Z" fill="#564c77"/><path d="M52.8,87.844,39,75.7V73.453L52.8,85.6Z" fill="#554b76"/><path d="M52.8,90.089,39,77.942V75.7L52.8,87.844Z" fill="#544b75"/><path d="M52.8,92.333,39,80.186V77.942L52.8,90.088Z" fill="#534a74"/><path d="M52.8,94.578,39,82.431V80.187L52.8,92.333Z" fill="#524973"/><path d="M52.8,96.823,39,84.676V82.432L52.8,94.578Z" fill="#514872"/><path d="M52.8,99.067,39,86.92V84.676L52.8,96.822Z" fill="#514771"/><path d="M52.8,101.312,39,89.165V86.921L52.8,99.067Z" fill="#504670"/><path d="M52.8,103.557,39,91.41V89.166l13.8,12.146Z" fill="#4f456f"/><path d="M52.8,105.8,39,93.654V91.41l13.8,12.146Z" fill="#4e446e"/><path d="M52.8,108.046,39,95.9V93.655L52.8,105.8Z" fill="#4d446d"/><path d="M52.8,110.291,39,98.144V95.9l13.8,12.146Z" fill="#4c436c"/><path d="M52.8,112.535,39,100.388V98.144L52.8,110.29Z" fill="#4b426b"/><path d="M51.729,113.833,39,102.633v-2.244l13.8,12.146v1.3Z" fill="#4a416a"/><path d="M49.178,113.833,39,104.878v-2.245l12.726,11.2Z" fill="#494069"/><path d="M46.627,113.833,39,107.123v-2.245l10.176,8.955Z" fill="#483f68"/><path d="M44.077,113.833,39,109.367v-2.244l7.625,6.71Z" fill="#473e67"/><path d="M41.526,113.833,39,111.612v-2.245l5.074,4.466Z" fill="#473d66"/><path d="M39,111.612l2.523,2.221H39Z" fill="#463d65"/><path d="M56.8,44.226l-1.816-1.6H56.8Z" fill="#685e8c"/><path d="M56.8,46.471l-4.367-3.843h2.551l1.816,1.6Z" fill="#675d8b"/><path d="M56.8,48.716l-6.917-6.088h2.55L56.8,46.471Z" fill="#665c8a"/><path d="M56.8,50.96l-9.468-8.332h2.551L56.8,48.715Z" fill="#655b89"/><path d="M56.8,53.2,44.787,42.628h2.55L56.8,50.96Z" fill="#655a88"/><path d="M56.8,55.45,42.236,42.628h2.551L56.8,53.2Z" fill="#645a87"/><path d="M56.8,57.694,39.686,42.628h2.55L56.8,55.449Z" fill="#635986"/><path d="M56.8,59.939,37.135,42.628h2.551L56.8,57.694Z" fill="#625885"/><path d="M56.8,62.184,35,43v-.369h2.132L56.8,59.939Z" fill="#615784"/><path d="M56.8,64.428,35,45.241V43L56.8,62.183Z" fill="#605683"/><path d="M56.8,66.673,35,47.486V45.241L56.8,64.428Z" fill="#5f5581"/><path d="M56.8,68.918,35,49.731V47.486L56.8,66.673Z" fill="#5e5480"/><path d="M56.8,71.162,35,51.975V49.73L56.8,68.917Z" fill="#5d537f"/><path d="M56.8,73.407,35,54.22V51.975L56.8,71.162Z" fill="#5c527e"/><path d="M56.8,75.652,35,56.465V54.22L56.8,73.407Z" fill="#5b527d"/><path d="M56.8,77.9,35,58.709V56.464L56.8,75.651Z" fill="#5b517c"/><path d="M56.8,80.141,35,60.954V58.709L56.8,77.9Z" fill="#5a507b"/><path d="M56.8,82.386,35,63.2V60.954L56.8,80.141Z" fill="#594f7a"/><path d="M56.8,84.63,35,65.443V63.2L56.8,82.385Z" fill="#584e79"/><path d="M56.8,86.875,35,67.688V65.443L56.8,84.63Z" fill="#574d78"/><path d="M56.8,89.12,35,69.933V67.688L56.8,86.875Z" fill="#564c77"/><path d="M56.8,91.364,35,72.177V69.932L56.8,89.119Z" fill="#554b76"/><path d="M56.8,93.609,35,74.422V72.177L56.8,91.364Z" fill="#544b75"/><path d="M56.8,95.854,35,76.667V74.422L56.8,93.609Z" fill="#534a74"/><path d="M56.8,98.1,35,78.911V76.666L56.8,95.853Z" fill="#524973"/><path d="M56.8,100.343,35,81.156V78.911L56.8,98.1Z" fill="#514872"/><path d="M56.8,102.588,35,83.4V81.156l21.8,19.187Z" fill="#514771"/><path d="M56.8,104.832,35,85.645V83.4l21.8,19.187Z" fill="#504670"/><path d="M56.8,107.077,35,87.89V85.645l21.8,19.187Z" fill="#4f456f"/><path d="M56.8,109.322,35,90.135V87.89l21.8,19.187Z" fill="#4e446e"/><path d="M56.8,111.566,35,92.379V90.134l21.8,19.187Z" fill="#4d446d"/><path d="M56.8,113.811,35,94.624V92.379l21.8,19.187Z" fill="#4c436c"/><path d="M56.8,116.056,35,96.869V94.624l21.8,19.187Z" fill="#4b426b"/><path d="M56.274,117.833,35,99.113V96.868l21.8,19.188v1.777Z" fill="#4a416a"/><path d="M53.723,117.833,35,101.358V99.113l21.271,18.72Z" fill="#494069"/><path d="M51.173,117.833,35,103.6v-2.245l18.721,16.475Z" fill="#483f68"/><path d="M48.622,117.833,35,105.847V103.6l16.17,14.23Z" fill="#473e67"/><path d="M46.071,117.833,35,108.092v-2.245l13.62,11.986Z" fill="#473d66"/><path d="M43.521,117.833,35,110.337v-2.245l11.069,9.741Z" fill="#463d65"/><path d="M40.97,117.833,35,112.581v-2.244l8.518,7.5Z" fill="#453c64"/><path d="M38.42,117.833,35,114.826v-2.245l5.968,5.252Z" fill="#443b63"/><path d="M35.869,117.833,35,117.071v-2.245l3.417,3.007Z" fill="#433a62"/><path d="M35,117.071l.866.762H35Z" fill="#423961"/></g><g clip-path="url(#d)"><path d="M86.439,77.041l-.477-.42h.477Z" fill="#655b89"/><path d="M86.439,79.286l-3.028-2.665h2.551l.477.42Z" fill="#655a88"/><path d="M86.439,81.53l-5.578-4.909h2.55l3.028,2.664Z" fill="#645a87"/><path d="M86.439,83.775,78.31,76.621h2.551l5.578,4.909Z" fill="#635986"/><path d="M86.439,86.02l-10.679-9.4h2.55l8.129,7.154Z" fill="#625885"/><path d="M86.439,88.264,73.209,76.621H75.76l10.679,9.4Z" fill="#615784"/><path d="M86.439,90.509l-13.8-12.146V76.621h.571l13.23,11.643Z" fill="#605683"/><path d="M86.439,92.754l-13.8-12.146V78.364l13.8,12.145Z" fill="#5f5581"/><path d="M86.439,95l-13.8-12.146V80.608l13.8,12.145Z" fill="#5e5480"/><path d="M86.439,97.243,72.638,85.1V82.853L86.439,95Z" fill="#5d537f"/><path d="M86.439,99.488l-13.8-12.146V85.1l13.8,12.145Z" fill="#5c527e"/><path d="M86.439,101.732l-13.8-12.146V87.342l13.8,12.145Z" fill="#5b527d"/><path d="M86.439,103.977l-13.8-12.146V89.587l13.8,12.145Z" fill="#5b517c"/><path d="M86.439,106.222l-13.8-12.146V91.832l13.8,12.145Z" fill="#5a507b"/><path d="M86.439,108.466,72.638,96.32V94.076l13.8,12.145Z" fill="#594f7a"/><path d="M86.439,110.711l-13.8-12.146V96.321l13.8,12.145Z" fill="#584e79"/><path d="M86.439,112.956l-13.8-12.146V98.566l13.8,12.145Z" fill="#574d78"/><path d="M84.886,113.833,72.639,103.055V100.81l13.8,12.146v.877Z" fill="#564c77"/><path d="M82.335,113.833l-9.7-8.534v-2.244l12.248,10.778Z" fill="#554b76"/><path d="M79.785,113.833l-7.146-6.289V105.3l9.7,8.534Z" fill="#544b75"/><path d="M77.234,113.833l-4.6-4.044v-2.245l7.146,6.289Z" fill="#534a74"/><path d="M74.684,113.833l-2.045-1.8v-2.244l4.6,4.044Z" fill="#524973"/><path d="M72.639,112.033l2.045,1.8H72.639Z" fill="#514872"/><path d="M90.439,73.827l-1.37-1.206h1.37Z" fill="#685e8c"/><path d="M90.439,76.072l-3.921-3.451h2.551l1.37,1.206Z" fill="#675d8b"/><path d="M90.439,78.317l-6.472-5.695h2.551l3.921,3.45Z" fill="#665c8a"/><path d="M90.439,80.561l-9.022-7.94h2.55l6.472,5.695Z" fill="#655b89"/><path d="M90.439,82.806,78.866,72.621h2.551l9.022,7.94Z" fill="#655a88"/><path d="M90.439,85.051,76.316,72.622h2.55L90.439,82.806Z" fill="#645a87"/><path d="M90.439,87.3,73.765,72.621h2.551L90.439,85.05Z" fill="#635986"/><path d="M90.439,89.54,71.215,72.621h2.55L90.439,87.295Z" fill="#625885"/><path d="M90.439,91.785,68.664,72.621h2.551L90.439,89.54Z" fill="#615784"/><path d="M90.439,94.029l-21.8-19.186V72.621h.026L90.439,91.784Z" fill="#605683"/><path d="M90.439,96.274l-21.8-19.186V74.843l21.8,19.186Z" fill="#5f5581"/><path d="M90.439,98.519l-21.8-19.186V77.088l21.8,19.186Z" fill="#5e5480"/><path d="M90.439,100.763l-21.8-19.186V79.332l21.8,19.186Z" fill="#5d537f"/><path d="M90.439,103.008l-21.8-19.186V81.577l21.8,19.186Z" fill="#5c527e"/><path d="M90.439,105.253l-21.8-19.186V83.822l21.8,19.186Z" fill="#5b527d"/><path d="M90.439,107.5l-21.8-19.186V86.066l21.8,19.186Z" fill="#5b517c"/><path d="M90.439,109.742l-21.8-19.186V88.311l21.8,19.186Z" fill="#5a507b"/><path d="M90.439,111.987,68.638,92.8V90.556l21.8,19.186Z" fill="#594f7a"/><path d="M90.439,114.231l-21.8-19.186V92.8l21.8,19.186Z" fill="#584e79"/><path d="M90.439,116.476,68.638,97.29V95.045l21.8,19.186Z" fill="#574d78"/><path d="M89.431,117.833l-20.792-18.3V97.29l21.8,19.186v1.357Z" fill="#564c77"/><path d="M86.88,117.833,68.638,101.779V99.534l20.793,18.3Z" fill="#554b76"/><path d="M84.33,117.833,68.639,104.024v-2.245l18.242,16.054Z" fill="#544b75"/><path d="M81.779,117.833,68.638,106.268v-2.244L84.33,117.833Z" fill="#534a74"/><path d="M79.229,117.833l-10.59-9.32v-2.245L81.78,117.833Z" fill="#524973"/><path d="M76.678,117.833l-8.039-7.075v-2.245l10.59,9.32Z" fill="#514872"/><path d="M74.128,117.833,68.638,113v-2.244l8.04,7.075Z" fill="#514771"/><path d="M71.577,117.833l-2.938-2.586V113l5.489,4.831Z" fill="#504670"/><path d="M69.026,117.833l-.388-.341v-2.245l2.939,2.586Z" fill="#4f456f"/><path d="M68.639,117.492l.388.341h-.388Z" fill="#4e446e"/></g><g clip-path="url(#e)"><path d="M120.075,61.749l-.824-.725h.824Z" fill="#786d9d"/><path d="M120.075,63.994l-3.374-2.97h2.55l.824.725Z" fill="#776c9c"/><path d="M120.075,66.239l-5.925-5.214H116.7l3.374,2.969Z" fill="#766b9b"/><path d="M120.075,68.484,111.6,61.025h2.55l5.925,5.214Z" fill="#756a9a"/><path d="M120.075,70.728l-11.026-9.7H111.6l8.475,7.459Z" fill="#746999"/><path d="M120.075,72.973,106.5,61.025h2.551l11.026,9.7Z" fill="#736898"/><path d="M120.075,75.218l-13.8-12.147V61.025h.225l13.577,11.948Z" fill="#726897"/><path d="M120.075,77.462l-13.8-12.147V63.071l13.8,12.146Z" fill="#716796"/><path d="M120.075,79.707l-13.8-12.147V65.316l13.8,12.146Z" fill="#706695"/><path d="M120.075,81.952,106.273,69.8V67.561l13.8,12.146Z" fill="#6f6594"/><path d="M120.075,84.2l-13.8-12.147V69.805l13.8,12.146Z" fill="#6f6493"/><path d="M120.075,86.441l-13.8-12.147V72.05l13.8,12.146Z" fill="#6e6392"/><path d="M120.075,88.686l-13.8-12.147V74.295l13.8,12.146Z" fill="#6d6291"/><path d="M120.075,90.93l-13.8-12.147V76.539l13.8,12.146Z" fill="#6c6190"/><path d="M120.075,93.175l-13.8-12.147V78.784l13.8,12.146Z" fill="#6b618f"/><path d="M120.075,95.42l-13.8-12.147V81.029l13.8,12.146Z" fill="#6a608e"/><path d="M120.075,97.664l-13.8-12.147V83.273l13.8,12.146Z" fill="#695f8d"/><path d="M120.075,99.909l-13.8-12.147V85.518l13.8,12.146Z" fill="#685e8c"/><path d="M120.075,102.154l-13.8-12.147V87.763l13.8,12.146Z" fill="#675d8b"/><path d="M120.075,104.4l-13.8-12.147V90.007l13.8,12.146Z" fill="#665c8a"/><path d="M120.075,106.643,106.273,94.5V92.252l13.8,12.146Z" fill="#655b89"/><path d="M120.075,108.888l-13.8-12.147V94.5l13.8,12.146Z" fill="#655a88"/><path d="M120.075,111.132l-13.8-12.147V96.741l13.8,12.146Z" fill="#645a87"/><path d="M120.075,113.377l-13.8-12.147V98.986l13.8,12.146Z" fill="#635986"/><path d="M118.043,113.833l-11.769-10.358V101.23l13.8,12.147v.456Z" fill="#625885"/><path d="M115.492,113.833l-9.219-8.113v-2.245l11.77,10.358Z" fill="#615784"/><path d="M112.942,113.833l-6.668-5.869V105.72l9.219,8.113Z" fill="#605683"/><path d="M110.391,113.833l-4.118-3.624v-2.245l6.669,5.869Z" fill="#5f5581"/><path d="M107.841,113.833l-1.567-1.379v-2.245l4.118,3.624Z" fill="#5e5480"/><path d="M106.273,112.454l1.567,1.379h-1.567Z" fill="#5d537f"/><path d="M124.075,58.536l-1.717-1.511h1.717Z" fill="#7a6fa0"/><path d="M124.075,60.78l-4.268-3.756h2.551l1.717,1.511Z" fill="#796f9f"/><path d="M124.075,63.025l-6.818-6h2.55l4.268,3.756Z" fill="#796e9e"/><path d="M124.075,65.27l-9.369-8.245h2.551l6.818,6Z" fill="#786d9d"/><path d="M124.075,67.514l-11.919-10.49h2.55l9.369,8.245Z" fill="#776c9c"/><path d="M124.075,69.759l-14.47-12.735h2.551l11.919,10.49Z" fill="#766b9b"/><path d="M124.075,72,107.054,57.025h2.551l14.47,12.734Z" fill="#756a9a"/><path d="M124.075,74.248,104.5,57.024h2.55L124.075,72Z" fill="#746999"/><path d="M124.075,76.493l-21.8-19.187v-.282H104.5l19.571,17.224Z" fill="#736898"/><path d="M124.075,78.738l-21.8-19.187V57.306l21.8,19.187Z" fill="#726897"/><path d="M124.075,80.982,102.273,61.8V59.55l21.8,19.187Z" fill="#716796"/><path d="M124.075,83.227l-21.8-19.187V61.8l21.8,19.187Z" fill="#706695"/><path d="M124.075,85.472l-21.8-19.187V64.04l21.8,19.187Z" fill="#6f6594"/><path d="M124.075,87.717l-21.8-19.187V66.285l21.8,19.187Z" fill="#6f6493"/><path d="M124.075,89.961l-21.8-19.187V68.529l21.8,19.187Z" fill="#6e6392"/><path d="M124.075,92.206l-21.8-19.187V70.774l21.8,19.187Z" fill="#6d6291"/><path d="M124.075,94.451l-21.8-19.187V73.019l21.8,19.187Z" fill="#6c6190"/><path d="M124.075,96.7l-21.8-19.187V75.263l21.8,19.187Z" fill="#6b618f"/><path d="M124.075,98.94l-21.8-19.187V77.508l21.8,19.187Z" fill="#6a608e"/><path d="M124.075,101.185,102.273,82V79.753l21.8,19.187Z" fill="#695f8d"/><path d="M124.075,103.429l-21.8-19.187V82l21.8,19.187Z" fill="#685e8c"/><path d="M124.075,105.674l-21.8-19.187V84.242l21.8,19.187Z" fill="#675d8b"/><path d="M124.075,107.919l-21.8-19.187V86.487l21.8,19.187Z" fill="#665c8a"/><path d="M124.075,110.163l-21.8-19.187V88.731l21.8,19.187Z" fill="#655b89"/><path d="M124.075,112.408l-21.8-19.187V90.976l21.8,19.187Z" fill="#655a88"/><path d="M124.075,114.653l-21.8-19.187V93.221l21.8,19.187Z" fill="#645a87"/><path d="M124.075,116.9l-21.8-19.187V95.465l21.8,19.187Z" fill="#635986"/><path d="M122.588,117.833,102.273,99.955V97.71l21.8,19.187v.936Z" fill="#625885"/><path d="M120.037,117.833,102.273,102.2V99.955l20.315,17.878Z" fill="#615784"/><path d="M117.487,117.833l-15.213-13.389V102.2l17.764,15.634Z" fill="#605683"/><path d="M114.936,117.833l-12.663-11.144v-2.245l15.214,13.389Z" fill="#5f5581"/><path d="M112.386,117.833l-10.112-8.9v-2.244l12.663,11.144Z" fill="#5e5480"/><path d="M109.835,117.833l-7.562-6.655v-2.245l10.113,8.9Z" fill="#5d537f"/><path d="M107.285,117.833l-5.011-4.41v-2.245l7.562,6.655Z" fill="#5c527e"/><path d="M104.734,117.833l-2.461-2.166v-2.244l5.012,4.41Z" fill="#5b527d"/><path d="M102.273,115.667l2.461,2.166h-2.461Z" fill="#5b517c"/></g><g clip-path="url(#f)"><g opacity="0.29"><g clip-path="url(#g)"><path d="M12.268,36.157A10.268,10.268,0,1,0,22.537,46.424,10.268,10.268,0,0,0,12.268,36.157M45.9,2A10.268,10.268,0,1,0,56.172,12.268,10.27,10.27,0,0,0,45.9,2M79.539,32.549A10.268,10.268,0,1,0,89.807,42.816,10.269,10.269,0,0,0,79.539,32.549m33.635-15.534a10.267,10.267,0,1,0,10.268,10.267,10.269,10.269,0,0,0-10.268-10.267" fill="#6a6199"/></g></g></g><g clip-path="url(#h)"><path d="M54.172,5.994,51.906,4h2.266Z" fill="#776c9c"/><path d="M54.172,8.239,49.355,4h2.551l2.266,1.994Z" fill="#766b9b"/><path d="M54.172,10.484,46.8,4h2.55l4.817,4.239Z" fill="#756a9a"/><path d="M54.172,12.728,44.254,4H46.8l7.367,6.483Z" fill="#746999"/><path d="M54.172,14.973,41.7,4h2.55l9.918,8.728Z" fill="#736898"/><path d="M54.172,17.218,39.153,4H41.7L54.172,14.973Z" fill="#726897"/><path d="M54.172,19.462,37.636,4.909V4.681l.6-.681h.917L54.172,17.217Z" fill="#716796"/><path d="M54.172,19.854l-.6.682h-.73L37.636,7.154V4.909L54.172,19.462Z" fill="#706695"/><path d="M50.291,20.536,37.636,9.4V7.154L52.842,20.536Z" fill="#6f6594"/><path d="M47.74,20.536l-10.1-8.893V9.4L50.291,20.536Z" fill="#6f6493"/><path d="M45.19,20.536l-7.554-6.648V11.643l10.1,8.893Z" fill="#6e6392"/><path d="M42.639,20.536l-5-4.4V13.888l7.554,6.648Z" fill="#6d6291"/><path d="M40.089,20.536l-2.453-2.159V16.133l5,4.4Z" fill="#6c6190"/><path d="M37.636,18.377l2.453,2.159H37.636Z" fill="#6b618f"/><path d="M58.172.536,57.563,0h.609Z" fill="#7a6fa0"/><path d="M58.172,2.781,55.012,0h2.551l.609.536Z" fill="#796f9f"/><path d="M58.172,5.025,52.462,0h2.55l3.16,2.78Z" fill="#796e9e"/><path d="M58.172,7.27,49.911,0h2.551l5.71,5.025Z" fill="#786d9d"/><path d="M58.172,9.515,47.361,0h2.55l8.261,7.27Z" fill="#776c9c"/><path d="M58.172,11.759,44.81,0h2.551L58.172,9.514Z" fill="#766b9b"/><path d="M58.172,14,42.26,0h2.55L58.172,11.759Z" fill="#756a9a"/><path d="M58.172,16.249,39.709,0H42.26L58.172,14Z" fill="#746999"/><path d="M58.172,18.493,37.159,0h2.55L58.172,16.248Z" fill="#736898"/><path d="M58.172,20.738,35.288.6l.527-.6h1.344L58.172,18.493Z" fill="#726897"/><path d="M58.172,22.06l-.458.52L34.175,1.864,35.288.6,58.172,20.738Z" fill="#716796"/><path d="M57.714,22.58,56.6,23.845,33.636,3.634V2.476l.539-.612Z" fill="#706695"/><path d="M56.6,23.845l-.609.691H54.836L33.636,5.879V3.634Z" fill="#6f6594"/><path d="M52.285,24.536,33.635,8.123V5.878l21.2,18.658Z" fill="#6f6493"/><path d="M49.735,24.536l-16.1-14.168V8.123l18.65,16.413Z" fill="#6e6392"/><path d="M47.184,24.536,33.635,12.612V10.368l16.1,14.168Z" fill="#6d6291"/><path d="M44.634,24.536l-11-9.679V12.612L47.185,24.536Z" fill="#6c6190"/><path d="M42.083,24.536,33.636,17.1V14.857l11,9.679Z" fill="#6b618f"/><path d="M39.533,24.536l-5.9-5.19V17.1l8.448,7.434Z" fill="#6a608e"/><path d="M36.982,24.536l-3.346-2.945V19.346l5.9,5.19Z" fill="#695f8d"/><path d="M34.431,24.536l-.8-.7V21.591l3.347,2.945Z" fill="#685e8c"/><path d="M33.636,23.836l.8.7h-.8Z" fill="#675d8b"/><path d="M121.442,20.3l-1.465-1.289h1.465Z" fill="#897db0"/><path d="M121.442,22.549l-4.015-3.534h2.55l1.465,1.289Z" fill="#887daf"/><path d="M121.442,24.793l-6.566-5.779h2.551l4.015,3.534Z" fill="#877cae"/><path d="M121.442,27.038l-9.117-8.023h2.551l6.566,5.778Z" fill="#867bad"/><path d="M121.442,29.283,109.775,19.015h2.55l9.117,8.023Z" fill="#857aac"/><path d="M121.442,31.527,107.224,19.014h2.551l11.667,10.268Z" fill="#8479ab"/><path d="M121.442,33.772l-16.3-14.345.363-.412h1.718l14.218,12.512Z" fill="#8378aa"/><path d="M121.442,34.869l-.569.647L104.906,21.464V19.7l.237-.269,16.3,14.345Z" fill="#8277a9"/><path d="M120.873,35.516l-.031.035h-2.48L104.906,23.709V21.464Z" fill="#8276a8"/><path d="M115.812,35.551l-10.906-9.6V23.708l13.457,11.843Z" fill="#8176a7"/><path d="M113.261,35.551,104.906,28.2V25.953l10.906,9.6Z" fill="#8075a6"/><path d="M110.711,35.551l-5.805-5.109V28.2l8.356,7.353Z" fill="#7f74a5"/><path d="M108.16,35.551l-3.254-2.864V30.442l5.805,5.109Z" fill="#7e73a4"/><path d="M105.61,35.551l-.7-.619V32.687l3.255,2.864Z" fill="#7d72a3"/><path d="M104.906,34.932l.7.619h-.7Z" fill="#7c71a2"/><path d="M125.442,17.09l-2.358-2.076h2.358Z" fill="#8c80b3"/><path d="M125.442,19.335l-4.909-4.32h2.551l2.358,2.075Z" fill="#8b7fb2"/><path d="M125.442,21.58l-7.459-6.565h2.55l4.909,4.32Z" fill="#8a7eb1"/><path d="M125.442,23.824l-10.01-8.81h2.551l7.459,6.565Z" fill="#897db0"/><path d="M125.442,26.069,112.881,15.015h2.551l10.01,8.809Z" fill="#887daf"/><path d="M125.442,28.314l-15.111-13.3h2.55l12.561,11.054Z" fill="#877cae"/><path d="M125.442,30.558,107.78,15.014h2.551l15.111,13.3Z" fill="#867bad"/><path d="M125.442,32.8,105.23,15.015h2.55l17.662,15.543Z" fill="#857aac"/><path d="M125.442,35.048,102.908,15.216l.177-.2h2.145L125.442,32.8Z" fill="#8479ab"/><path d="M125.442,37.074l-.108.123L101.794,16.48l1.114-1.264,22.534,19.831Z" fill="#8378aa"/><path d="M125.334,37.2l-1.113,1.265L100.906,17.943V17.49l.889-1.009Z" fill="#8277a9"/><path d="M124.221,38.462l-.958,1.089h-.355l-22-19.363V17.943Z" fill="#8276a8"/><path d="M120.357,39.551,100.906,22.433V20.188l22,19.363Z" fill="#8176a7"/><path d="M117.807,39.551l-16.9-14.873V22.433l19.451,17.118Z" fill="#8075a6"/><path d="M115.256,39.551l-14.35-12.629V24.678l16.9,14.873Z" fill="#7f74a5"/><path d="M112.705,39.551l-11.8-10.384V26.922l14.35,12.629Z" fill="#7e73a4"/><path d="M110.155,39.551l-9.249-8.139V29.167l11.8,10.384Z" fill="#7d72a3"/><path d="M107.6,39.551l-6.7-5.895V31.412l9.249,8.139Z" fill="#7c71a2"/><path d="M105.054,39.551l-4.148-3.65V33.656l6.7,5.895Z" fill="#7b70a1"/><path d="M102.5,39.551l-1.6-1.4V35.9l4.148,3.65Z" fill="#7a6fa0"/><path d="M100.906,38.145l1.6,1.405h-1.6Z" fill="#796f9f"/><path d="M87.808,35.6l-1.19-1.047h1.19Z" fill="#776c9c"/><path d="M87.808,37.841l-3.741-3.292h2.551l1.19,1.047Z" fill="#766b9b"/><path d="M87.808,40.086l-6.291-5.537h2.55l3.741,3.292Z" fill="#756a9a"/><path d="M87.808,42.33l-8.842-7.781h2.551l6.291,5.536Z" fill="#746999"/><path d="M87.808,44.575,76.416,34.549h2.55l8.842,7.781Z" fill="#736898"/><path d="M87.808,46.82,73.865,34.549h2.551L87.808,44.575Z" fill="#726897"/><path d="M87.808,49.064l-16.18-14.24.243-.275h1.994l13.943,12.27Z" fill="#716796"/><path d="M87.808,50.4l-.449.51L71.271,36.755V35.23l.357-.406,16.18,14.24Z" fill="#706695"/><path d="M87.358,50.914l-.151.171H85L71.27,39V36.755Z" fill="#6f6594"/><path d="M82.452,51.085,71.271,41.244V39L85,51.085Z" fill="#6f6493"/><path d="M79.9,51.085l-8.631-7.6V41.244l11.182,9.841Z" fill="#6e6392"/><path d="M77.351,51.085l-6.08-5.351V43.489l8.631,7.6Z" fill="#6d6291"/><path d="M74.8,51.085l-3.53-3.107V45.734l6.081,5.351Z" fill="#6c6190"/><path d="M72.25,51.085l-.979-.862V47.978l3.53,3.107Z" fill="#6b618f"/><path d="M71.271,50.223l.979.862h-.979Z" fill="#6a608e"/><path d="M91.808,32.383l-2.084-1.834h2.084Z" fill="#796f9f"/><path d="M91.808,34.627l-4.634-4.078h2.55l2.084,1.833Z" fill="#796e9e"/><path d="M91.808,36.872l-7.185-6.323h2.551l4.634,4.078Z" fill="#786d9d"/><path d="M91.808,39.117l-9.735-8.568h2.55l7.185,6.323Z" fill="#776c9c"/><path d="M91.808,41.361,79.522,30.549h2.551l9.735,8.567Z" fill="#766b9b"/><path d="M91.808,43.606,76.972,30.549h2.55L91.808,41.361Z" fill="#756a9a"/><path d="M91.808,45.851l-17.387-15.3h2.551L91.808,43.606Z" fill="#746999"/><path d="M91.808,48.1,71.871,30.549h2.55l17.387,15.3Z" fill="#736898"/><path d="M91.808,50.34,69.393,30.613l.057-.064h2.421L91.808,48.095Z" fill="#726897"/><path d="M91.808,52.585,68.28,31.878l1.113-1.264L91.808,50.34Z" fill="#716796"/><path d="M91.808,52.608l-1.1,1.252L67.271,33.234v-.21l1.009-1.146L91.808,52.584Z" fill="#706695"/><path d="M90.706,53.86l-1.078,1.225h-.081L67.27,35.48V33.235Z" fill="#6f6594"/><path d="M87,55.085,67.27,37.724V35.48l22.278,19.6Z" fill="#6f6493"/><path d="M84.447,55.085,67.271,39.969V37.724L87,55.085Z" fill="#6e6392"/><path d="M81.9,55.085,67.271,42.214V39.969L84.447,55.085Z" fill="#6d6291"/><path d="M79.345,55.085,67.27,44.458V42.214L81.9,55.085Z" fill="#6c6190"/><path d="M76.795,55.085,67.271,46.7V44.458L79.346,55.085Z" fill="#6b618f"/><path d="M74.244,55.085,67.27,48.948V46.7L76.8,55.085Z" fill="#6a608e"/><path d="M71.694,55.085l-4.423-3.893V48.948l6.974,6.137Z" fill="#695f8d"/><path d="M69.143,55.085,67.27,53.437V51.192l4.424,3.893Z" fill="#685e8c"/><path d="M67.271,53.437l1.873,1.648H67.271Z" fill="#675d8b"/><path d="M20.537,39.244,19.3,38.156h1.236Z" fill="#5d537f"/><path d="M20.537,41.489,16.75,38.157H19.3l1.236,1.087Z" fill="#5c527e"/><path d="M20.537,43.733,14.2,38.156h2.55l3.787,3.332Z" fill="#5b527d"/><path d="M20.537,45.978l-8.888-7.822H14.2l6.337,5.577Z" fill="#5b517c"/><path d="M20.537,48.223,9.1,38.156h2.55l8.888,7.822Z" fill="#5a507b"/><path d="M20.537,50.467,6.548,38.156H9.1L20.537,48.222Z" fill="#594f7a"/><path d="M20.537,52.712,4.337,38.455l.263-.3H6.548L20.537,50.467Z" fill="#584e79"/><path d="M20.537,54.011l-.469.533L4,40.4V38.838l.337-.383,16.2,14.257Z" fill="#574d78"/><path d="M20.068,54.544l-.131.149H17.686L4,42.648V40.4Z" fill="#564c77"/><path d="M15.136,54.692,4,44.892V42.647L17.687,54.692Z" fill="#554b76"/><path d="M12.585,54.692,4,47.137V44.892l11.136,9.8Z" fill="#544b75"/><path d="M10.035,54.692,4,49.381V47.137l8.585,7.555Z" fill="#534a74"/><path d="M7.484,54.692,4,51.626V49.381l6.035,5.311Z" fill="#524973"/><path d="M4.933,54.692,4,53.871V51.626l3.484,3.066Z" fill="#514872"/><path d="M4,53.871l.933.821H4Z" fill="#514771"/><path d="M24.537,36.03l-2.129-1.874h2.129Z" fill="#605683"/><path d="M24.537,38.275l-4.68-4.119h2.551l2.129,1.874Z" fill="#5f5581"/><path d="M24.537,40.52l-7.231-6.363h2.551l4.68,4.118Z" fill="#5e5480"/><path d="M24.537,42.764l-9.781-8.608h2.55l7.231,6.363Z" fill="#5d537f"/><path d="M24.537,45.009,12.205,34.156h2.551l9.781,8.608Z" fill="#5c527e"/><path d="M24.537,47.254,9.655,34.157h2.55L24.537,45.009Z" fill="#5b527d"/><path d="M24.537,49.5,7.1,34.156H9.655l14.882,13.1Z" fill="#5b517c"/><path d="M24.537,51.743,4.554,34.156H7.1L24.537,49.5Z" fill="#5a507b"/><path d="M24.537,53.988,2.1,34.244l.077-.087H4.554L24.537,51.743Z" fill="#594f7a"/><path d="M24.537,56.216l-.008.009L.989,35.508,2.1,34.244,24.537,53.988Z" fill="#584e79"/><path d="M24.529,56.225,23.416,57.49,0,36.882v-.25l.989-1.124Z" fill="#574d78"/><path d="M23.416,57.49l-1.058,1.2h-.126L0,39.127V36.883Z" fill="#564c77"/><path d="M19.681,58.692,0,41.372V39.127L22.232,58.692Z" fill="#554b76"/><path d="M17.13,58.692,0,43.616V41.372l19.681,17.32Z" fill="#544b75"/><path d="M14.58,58.692,0,45.861V43.616L17.131,58.692Z" fill="#534a74"/><path d="M12.029,58.692,0,48.106V45.861L14.58,58.692Z" fill="#524973"/><path d="M9.479,58.692,0,50.35V48.106L12.03,58.692Z" fill="#514872"/><path d="M6.928,58.692,0,52.6V50.35l9.479,8.342Z" fill="#514771"/><path d="M4.377,58.692,0,54.84V52.6l6.928,6.1Z" fill="#504670"/><path d="M1.827,58.692,0,57.084V54.84l4.378,3.852Z" fill="#4f456f"/><path d="M0,57.085l1.827,1.608H0Z" fill="#4e446e"/></g><g clip-path="url(#i)"><path d="M39.526,20.041l-.917-.807h.917Z" fill="#6c6190"/><path d="M39.526,22.286l-3.467-3.052h2.55l.917.807Z" fill="#6b618f"/><path d="M39.526,24.531l-6.018-5.3h2.551l3.467,3.051Z" fill="#6a608e"/><path d="M39.526,25.1l-.831.944L31.4,19.626l.346-.392h1.759l6.018,5.3Z" fill="#695f8d"/><rect width="1.685" height="9.714" transform="matrix(0.661, -0.751, 0.751, 0.661, 30.29, 20.892)" fill="#685e8c"/><rect width="1.685" height="9.714" transform="matrix(0.661, -0.751, 0.751, 0.661, 29.177, 22.157)" fill="#675d8b"/><rect width="1.685" height="9.714" transform="matrix(0.661, -0.751, 0.751, 0.661, 28.064, 23.422)" fill="#665c8a"/><rect width="1.685" height="9.714" transform="matrix(0.661, -0.751, 0.751, 0.661, 26.95, 24.687)" fill="#655b89"/><rect width="1.685" height="9.714" transform="matrix(0.661, -0.751, 0.751, 0.661, 25.837, 25.952)" fill="#655a88"/><rect width="1.685" height="9.714" transform="matrix(0.661, -0.751, 0.751, 0.661, 24.724, 27.217)" fill="#645a87"/><rect width="1.685" height="9.714" transform="matrix(0.661, -0.751, 0.751, 0.661, 23.611, 28.482)" fill="#635986"/><rect width="1.685" height="9.714" transform="matrix(0.661, -0.751, 0.751, 0.661, 22.497, 29.746)" fill="#625885"/><rect width="1.685" height="9.714" transform="matrix(0.661, -0.751, 0.751, 0.661, 21.384, 31.011)" fill="#615784"/><rect width="1.685" height="9.714" transform="matrix(0.661, -0.751, 0.751, 0.661, 20.271, 32.276)" fill="#605683"/><path d="M27.563,38.694l-.354.4h-1.74l-6.213-5.469v-.2l1.015-1.154Z" fill="#5f5581"/><path d="M22.919,39.1l-3.663-3.224V33.627L25.47,39.1Z" fill="#5e5480"/><path d="M20.368,39.1l-1.113-.979V35.872L22.919,39.1Z" fill="#5d537f"/><path d="M19.256,38.117l1.113.979H19.256Z" fill="#5c527e"/></g><g clip-path="url(#j)"><path d="M73.414,18.44Z" fill="#796e9e"/><path d="M73.414,20.684l-2.551-2.245h2.551Z" fill="#786d9d"/><path d="M73.414,22.929l-5.1-4.489h2.55l2.551,2.244Z" fill="#776c9c"/><path d="M73.414,25.174,65.762,18.44h2.551l5.1,4.489Z" fill="#766b9b"/><path d="M73.414,27.418l-10.2-8.979h2.55l7.652,6.734Z" fill="#756a9a"/><path d="M73.414,29.663,60.661,18.44h2.551l10.2,8.978Z" fill="#746999"/><path d="M73.414,31.908,58.111,18.44h2.55L73.414,29.663Z" fill="#736898"/><path d="M73.414,34.152,55.56,18.439h2.551l15.3,13.468Z" fill="#726897"/><path d="M73.414,36.4,53.01,18.44h2.55L73.414,34.152Z" fill="#716796"/><path d="M71.918,37.325,52.952,20.633V18.439h.057L73.414,36.4v.928Z" fill="#706695"/><path d="M69.368,37.325,52.952,22.878V20.633L71.919,37.325Z" fill="#6f6594"/><path d="M66.817,37.325l-13.865-12.2V22.878L69.368,37.325Z" fill="#6f6493"/><path d="M64.267,37.325,52.953,27.367V25.123l13.865,12.2Z" fill="#6e6392"/><path d="M61.716,37.325l-8.764-7.713V27.367l11.315,9.958Z" fill="#6d6291"/><path d="M59.166,37.325l-6.213-5.468V29.612l8.764,7.713Z" fill="#6c6190"/><path d="M56.615,37.325,52.952,34.1V31.857l6.214,5.468Z" fill="#6b618f"/><path d="M54.064,37.325l-1.112-.979V34.1l3.663,3.224Z" fill="#6a608e"/><path d="M52.952,36.346l1.112.979H52.952Z" fill="#695f8d"/></g><g clip-path="url(#k)"><path d="M104,31.891l-1.818-1.6H104Z" fill="#7e73a4"/><path d="M104,34.136l-4.369-3.845h2.551l1.818,1.6Z" fill="#7d72a3"/><path d="M104,36.38l-6.919-6.089h2.55L104,34.135Z" fill="#7c71a2"/><path d="M104,36.445l-1.081,1.229-8.389-7.383h2.551L104,36.381Z" fill="#7b70a1"/><path d="M102.921,37.673l-1.113,1.265-9.826-8.647h2.551Z" fill="#7a6fa0"/><path d="M101.807,38.938,100.694,40.2,90.389,31.134l.742-.843h.85Z" fill="#796f9f"/><path d="M100.694,40.2l-.209.237H98.413L89.276,32.4l1.113-1.265Z" fill="#796e9e"/><path d="M95.862,40.44l-7.7-6.776L89.276,32.4l9.137,8.041Z" fill="#786d9d"/><path d="M93.312,40.44l-5.944-5.231v-.642l.795-.9,7.7,6.776Z" fill="#776c9c"/><path d="M90.761,40.44l-3.393-2.986V35.209l5.944,5.231Z" fill="#766b9b"/><path d="M88.211,40.44l-.843-.742V37.454l3.394,2.986Z" fill="#756a9a"/><path d="M87.368,39.7l.843.742h-.843Z" fill="#746999"/></g></g></svg>