<svg xmlns="http://www.w3.org/2000/svg" xmlns:xlink="http://www.w3.org/1999/xlink" width="147.091" height="126.879" viewBox="0 0 147.091 126.879"><defs><linearGradient id="a" x1="1.768" y1="-0.484" x2="-0.229" y2="1.066" gradientUnits="objectBoundingBox"><stop offset="0" stop-color="#34a096"/><stop offset="1" stop-color="#14645d"/></linearGradient><linearGradient id="b" x1="1.61" y1="-0.371" x2="-0.336" y2="1.156" xlink:href="#a"/><clipPath id="c"><path d="M111.54,76.621V84.2h-56.6V76.621Z" fill="none"/></clipPath><clipPath id="d"><path d="M72.806,90.873v7.576H54.943V90.873Z" fill="none"/></clipPath><clipPath id="e"><path d="M97.776,90.873v7.576H79.913V90.873Z" fill="none"/></clipPath><clipPath id="f"><path d="M111.54,105.127V112.7h-56.6v-7.576Z" fill="none"/></clipPath><clipPath id="g"><path d="M65.537,119.379v7.576H54.943v-7.576Z" fill="none"/></clipPath><clipPath id="h"><path d="M111.539,119.379v7.576H72.807v-7.576Z" fill="none"/></clipPath><clipPath id="i"><rect width="61.449" height="5.313" transform="translate(54.806 52.361)" fill="none"/></clipPath><clipPath id="j"><rect width="42.501" height="5.313" transform="translate(54.806 64.632)" fill="none"/></clipPath><linearGradient id="k" x1="1.836" y1="-0.825" x2="-0.853" y2="1.843" xlink:href="#a"/><linearGradient id="l" x1="2.899" y1="-1.88" x2="-1.832" y2="2.813" xlink:href="#a"/><linearGradient id="m" x1="22.402" y1="-6.332" x2="-20.94" y2="7.188" xlink:href="#a"/><linearGradient id="n" x1="2.549" y1="-2.434" x2="-1.564" y2="3.425" xlink:href="#a"/></defs><g transform="translate(-31.392 -37.12)"><path d="M118.222,159.46H31.392v-111h14.54v97.27h72.29Zm-82.83-4h78.83v-5.73H41.932V52.46h-6.54Z" fill="url(#a)"/><path d="M131.012,149.73H41.932V37.12h89.08V73.87l-2.8-1.227a27.932,27.932,0,0,0-11.287-2.353,28.23,28.23,0,0,0,0,56.46A27.977,27.977,0,0,0,128.21,124.4l2.8-1.226Zm-85.08-4h81.08V129.137a32.23,32.23,0,1,1,0-61.234V41.12H45.932Z" fill="url(#b)"/><g opacity="0.22"><g clip-path="url(#c)"><path d="M54.944,76.621v0Z" fill="#34a096"/><rect width="0.943" height="7.576" transform="translate(54.944 76.621)" fill="#34a096"/><rect width="0.943" height="7.576" transform="translate(55.888 76.621)" fill="#339f95"/><rect width="0.943" height="7.576" transform="translate(56.831 76.621)" fill="#339e94"/><rect width="0.943" height="7.576" transform="translate(57.774 76.621)" fill="#329d93"/><rect width="0.943" height="7.576" transform="translate(58.717 76.621)" fill="#329c92"/><rect width="0.943" height="7.576" transform="translate(59.661 76.621)" fill="#319b91"/><rect width="0.943" height="7.576" transform="translate(60.604 76.621)" fill="#319a90"/><rect width="0.943" height="7.576" transform="translate(61.547 76.621)" fill="#30998f"/><rect width="0.943" height="7.576" transform="translate(62.49 76.621)" fill="#30988e"/><rect width="0.943" height="7.576" transform="translate(63.434 76.621)" fill="#2f978d"/><rect width="0.943" height="7.576" transform="translate(64.377 76.621)" fill="#2f968c"/><rect width="0.943" height="7.576" transform="translate(65.32 76.621)" fill="#2e958b"/><rect width="0.943" height="7.576" transform="translate(66.263 76.621)" fill="#2d948a"/><rect width="0.943" height="7.576" transform="translate(67.207 76.621)" fill="#2d9389"/><rect width="0.943" height="7.576" transform="translate(68.15 76.621)" fill="#2c9288"/><rect width="0.943" height="7.576" transform="translate(69.093 76.621)" fill="#2c9188"/><rect width="0.943" height="7.576" transform="translate(70.036 76.621)" fill="#2b9087"/><rect width="0.943" height="7.576" transform="translate(70.98 76.621)" fill="#2b8f86"/><rect width="0.943" height="7.576" transform="translate(71.923 76.621)" fill="#2a8e85"/><rect width="0.943" height="7.576" transform="translate(72.866 76.621)" fill="#2a8d84"/><rect width="0.943" height="7.576" transform="translate(73.809 76.621)" fill="#298c83"/><rect width="0.943" height="7.576" transform="translate(74.753 76.621)" fill="#298b82"/><rect width="0.943" height="7.576" transform="translate(75.696 76.621)" fill="#288a81"/><rect width="0.943" height="7.576" transform="translate(76.639 76.621)" fill="#288980"/><rect width="0.943" height="7.576" transform="translate(77.582 76.621)" fill="#27887f"/><rect width="0.943" height="7.576" transform="translate(78.526 76.621)" fill="#26877e"/><rect width="0.943" height="7.576" transform="translate(79.469 76.621)" fill="#26867d"/><rect width="0.943" height="7.576" transform="translate(80.412 76.621)" fill="#25857c"/><rect width="0.943" height="7.576" transform="translate(81.355 76.621)" fill="#25847b"/><rect width="0.943" height="7.576" transform="translate(82.299 76.621)" fill="#24837a"/><rect width="0.943" height="7.576" transform="translate(83.242 76.621)" fill="#248179"/><rect width="0.943" height="7.576" transform="translate(84.185 76.621)" fill="#238078"/><rect width="0.943" height="7.576" transform="translate(85.128 76.621)" fill="#237f77"/><rect width="0.943" height="7.576" transform="translate(86.072 76.621)" fill="#227e76"/><rect width="0.943" height="7.576" transform="translate(87.015 76.621)" fill="#227d75"/><rect width="0.943" height="7.576" transform="translate(87.958 76.621)" fill="#217c74"/><rect width="0.943" height="7.576" transform="translate(88.901 76.621)" fill="#207b73"/><rect width="0.943" height="7.576" transform="translate(89.845 76.621)" fill="#207a72"/><rect width="0.943" height="7.576" transform="translate(90.788 76.621)" fill="#1f7971"/><rect width="0.943" height="7.576" transform="translate(91.731 76.621)" fill="#1f7870"/><rect width="0.943" height="7.576" transform="translate(92.674 76.621)" fill="#1e776f"/><rect width="0.943" height="7.576" transform="translate(93.618 76.621)" fill="#1e766e"/><rect width="0.943" height="7.576" transform="translate(94.561 76.621)" fill="#1d756d"/><rect width="0.943" height="7.576" transform="translate(95.504 76.621)" fill="#1d746c"/><rect width="0.943" height="7.576" transform="translate(96.447 76.621)" fill="#1c736b"/><rect width="0.943" height="7.576" transform="translate(97.391 76.621)" fill="#1c726b"/><rect width="0.943" height="7.576" transform="translate(98.334 76.621)" fill="#1b716a"/><rect width="0.943" height="7.576" transform="translate(99.277 76.621)" fill="#1b7069"/><rect width="0.943" height="7.576" transform="translate(100.22 76.621)" fill="#1a6f68"/><rect width="0.943" height="7.576" transform="translate(101.164 76.621)" fill="#196e67"/><rect width="0.943" height="7.576" transform="translate(102.107 76.621)" fill="#196d66"/><rect width="0.943" height="7.576" transform="translate(103.05 76.621)" fill="#186c65"/><rect width="0.943" height="7.576" transform="translate(103.993 76.621)" fill="#186b64"/><rect width="0.943" height="7.576" transform="translate(104.937 76.621)" fill="#176a63"/><rect width="0.943" height="7.576" transform="translate(105.88 76.621)" fill="#176962"/><rect width="0.943" height="7.576" transform="translate(106.823 76.621)" fill="#166861"/><rect width="0.943" height="7.576" transform="translate(107.767 76.621)" fill="#166760"/><rect width="0.943" height="7.576" transform="translate(108.71 76.621)" fill="#15665f"/><rect width="0.943" height="7.576" transform="translate(109.653 76.621)" fill="#15655e"/><rect width="0.943" height="7.576" transform="translate(110.596 76.621)" fill="#14645d"/><path d="M111.54,84.2v0Z" fill="#14645d"/></g></g><g opacity="0.22"><g clip-path="url(#d)"><path d="M54.943,90.873v0Z" fill="#34a096"/><rect width="0.298" height="7.576" transform="translate(54.943 90.873)" fill="#34a096"/><rect width="0.298" height="7.576" transform="translate(55.241 90.873)" fill="#339f95"/><rect width="0.298" height="7.576" transform="translate(55.539 90.873)" fill="#339e94"/><rect width="0.298" height="7.576" transform="translate(55.837 90.873)" fill="#329d93"/><rect width="0.298" height="7.576" transform="translate(56.134 90.873)" fill="#329c92"/><rect width="0.298" height="7.576" transform="translate(56.432 90.873)" fill="#319b91"/><rect width="0.298" height="7.576" transform="translate(56.73 90.873)" fill="#319a90"/><rect width="0.298" height="7.576" transform="translate(57.027 90.873)" fill="#30998f"/><rect width="0.298" height="7.576" transform="translate(57.325 90.873)" fill="#30988e"/><rect width="0.298" height="7.576" transform="translate(57.623 90.873)" fill="#2f978d"/><rect width="0.298" height="7.576" transform="translate(57.921 90.873)" fill="#2f968c"/><rect width="0.298" height="7.576" transform="translate(58.218 90.873)" fill="#2e958b"/><rect width="0.298" height="7.576" transform="translate(58.516 90.873)" fill="#2d948a"/><rect width="0.298" height="7.576" transform="translate(58.814 90.873)" fill="#2d9389"/><rect width="0.298" height="7.576" transform="translate(59.111 90.873)" fill="#2c9288"/><rect width="0.298" height="7.576" transform="translate(59.409 90.873)" fill="#2c9188"/><rect width="0.298" height="7.576" transform="translate(59.707 90.873)" fill="#2b9087"/><rect width="0.298" height="7.576" transform="translate(60.005 90.873)" fill="#2b8f86"/><rect width="0.298" height="7.576" transform="translate(60.302 90.873)" fill="#2a8e85"/><rect width="0.298" height="7.576" transform="translate(60.6 90.873)" fill="#2a8d84"/><rect width="0.298" height="7.576" transform="translate(60.898 90.873)" fill="#298c83"/><rect width="0.298" height="7.576" transform="translate(61.195 90.873)" fill="#298b82"/><rect width="0.298" height="7.576" transform="translate(61.493 90.873)" fill="#288a81"/><rect width="0.298" height="7.576" transform="translate(61.791 90.873)" fill="#288980"/><rect width="0.298" height="7.576" transform="translate(62.089 90.873)" fill="#27887f"/><rect width="0.298" height="7.576" transform="translate(62.386 90.873)" fill="#26877e"/><rect width="0.298" height="7.576" transform="translate(62.684 90.873)" fill="#26867d"/><rect width="0.298" height="7.576" transform="translate(62.982 90.873)" fill="#25857c"/><rect width="0.298" height="7.576" transform="translate(63.279 90.873)" fill="#25847b"/><rect width="0.298" height="7.576" transform="translate(63.577 90.873)" fill="#24837a"/><rect width="0.298" height="7.576" transform="translate(63.875 90.873)" fill="#248179"/><rect width="0.298" height="7.576" transform="translate(64.173 90.873)" fill="#238078"/><rect width="0.298" height="7.576" transform="translate(64.47 90.873)" fill="#237f77"/><rect width="0.298" height="7.576" transform="translate(64.768 90.873)" fill="#227e76"/><rect width="0.298" height="7.576" transform="translate(65.066 90.873)" fill="#227d75"/><rect width="0.298" height="7.576" transform="translate(65.363 90.873)" fill="#217c74"/><rect width="0.298" height="7.576" transform="translate(65.661 90.873)" fill="#207b73"/><rect width="0.298" height="7.576" transform="translate(65.959 90.873)" fill="#207a72"/><rect width="0.298" height="7.576" transform="translate(66.257 90.873)" fill="#1f7971"/><rect width="0.298" height="7.576" transform="translate(66.554 90.873)" fill="#1f7870"/><rect width="0.298" height="7.576" transform="translate(66.852 90.873)" fill="#1e776f"/><rect width="0.298" height="7.576" transform="translate(67.15 90.873)" fill="#1e766e"/><rect width="0.298" height="7.576" transform="translate(67.447 90.873)" fill="#1d756d"/><rect width="0.298" height="7.576" transform="translate(67.745 90.873)" fill="#1d746c"/><rect width="0.298" height="7.576" transform="translate(68.043 90.873)" fill="#1c736b"/><rect width="0.298" height="7.576" transform="translate(68.341 90.873)" fill="#1c726b"/><rect width="0.298" height="7.576" transform="translate(68.638 90.873)" fill="#1b716a"/><rect width="0.298" height="7.576" transform="translate(68.936 90.873)" fill="#1b7069"/><rect width="0.298" height="7.576" transform="translate(69.234 90.873)" fill="#1a6f68"/><rect width="0.298" height="7.576" transform="translate(69.532 90.873)" fill="#196e67"/><rect width="0.298" height="7.576" transform="translate(69.829 90.873)" fill="#196d66"/><rect width="0.298" height="7.576" transform="translate(70.127 90.873)" fill="#186c65"/><rect width="0.298" height="7.576" transform="translate(70.425 90.873)" fill="#186b64"/><rect width="0.298" height="7.576" transform="translate(70.722 90.873)" fill="#176a63"/><rect width="0.298" height="7.576" transform="translate(71.02 90.873)" fill="#176962"/><rect width="0.298" height="7.576" transform="translate(71.318 90.873)" fill="#166861"/><rect width="0.298" height="7.576" transform="translate(71.616 90.873)" fill="#166760"/><rect width="0.298" height="7.576" transform="translate(71.913 90.873)" fill="#15665f"/><rect width="0.298" height="7.576" transform="translate(72.211 90.873)" fill="#15655e"/><rect width="0.298" height="7.576" transform="translate(72.509 90.873)" fill="#14645d"/><path d="M72.806,98.449v0Z" fill="#14645d"/></g></g><g opacity="0.22"><g clip-path="url(#e)"><path d="M79.913,90.873v0Z" fill="#34a096"/><rect width="0.298" height="7.576" transform="translate(79.913 90.873)" fill="#34a096"/><rect width="0.298" height="7.576" transform="translate(80.21 90.873)" fill="#339f95"/><rect width="0.298" height="7.576" transform="translate(80.508 90.873)" fill="#339e94"/><rect width="0.298" height="7.576" transform="translate(80.806 90.873)" fill="#329d93"/><rect width="0.298" height="7.576" transform="translate(81.103 90.873)" fill="#329c92"/><rect width="0.298" height="7.576" transform="translate(81.401 90.873)" fill="#319b91"/><rect width="0.298" height="7.576" transform="translate(81.699 90.873)" fill="#319a90"/><rect width="0.298" height="7.576" transform="translate(81.997 90.873)" fill="#30998f"/><rect width="0.298" height="7.576" transform="translate(82.294 90.873)" fill="#30988e"/><rect width="0.298" height="7.576" transform="translate(82.592 90.873)" fill="#2f978d"/><rect width="0.298" height="7.576" transform="translate(82.89 90.873)" fill="#2f968c"/><rect width="0.298" height="7.576" transform="translate(83.187 90.873)" fill="#2e958b"/><rect width="0.298" height="7.576" transform="translate(83.485 90.873)" fill="#2d948a"/><rect width="0.298" height="7.576" transform="translate(83.783 90.873)" fill="#2d9389"/><rect width="0.298" height="7.576" transform="translate(84.081 90.873)" fill="#2c9288"/><rect width="0.298" height="7.576" transform="translate(84.378 90.873)" fill="#2c9188"/><rect width="0.298" height="7.576" transform="translate(84.676 90.873)" fill="#2b9087"/><rect width="0.298" height="7.576" transform="translate(84.974 90.873)" fill="#2b8f86"/><rect width="0.298" height="7.576" transform="translate(85.271 90.873)" fill="#2a8e85"/><rect width="0.298" height="7.576" transform="translate(85.569 90.873)" fill="#2a8d84"/><rect width="0.298" height="7.576" transform="translate(85.867 90.873)" fill="#298c83"/><rect width="0.298" height="7.576" transform="translate(86.165 90.873)" fill="#298b82"/><rect width="0.298" height="7.576" transform="translate(86.462 90.873)" fill="#288a81"/><rect width="0.298" height="7.576" transform="translate(86.76 90.873)" fill="#288980"/><rect width="0.298" height="7.576" transform="translate(87.058 90.873)" fill="#27887f"/><rect width="0.298" height="7.576" transform="translate(87.356 90.873)" fill="#26877e"/><rect width="0.298" height="7.576" transform="translate(87.653 90.873)" fill="#26867d"/><rect width="0.298" height="7.576" transform="translate(87.951 90.873)" fill="#25857c"/><rect width="0.298" height="7.576" transform="translate(88.249 90.873)" fill="#25847b"/><rect width="0.298" height="7.576" transform="translate(88.546 90.873)" fill="#24837a"/><rect width="0.298" height="7.576" transform="translate(88.844 90.873)" fill="#248179"/><rect width="0.298" height="7.576" transform="translate(89.142 90.873)" fill="#238078"/><rect width="0.298" height="7.576" transform="translate(89.44 90.873)" fill="#237f77"/><rect width="0.298" height="7.576" transform="translate(89.737 90.873)" fill="#227e76"/><rect width="0.298" height="7.576" transform="translate(90.035 90.873)" fill="#227d75"/><rect width="0.298" height="7.576" transform="translate(90.333 90.873)" fill="#217c74"/><rect width="0.298" height="7.576" transform="translate(90.63 90.873)" fill="#207b73"/><rect width="0.298" height="7.576" transform="translate(90.928 90.873)" fill="#207a72"/><rect width="0.298" height="7.576" transform="translate(91.226 90.873)" fill="#1f7971"/><rect width="0.298" height="7.576" transform="translate(91.524 90.873)" fill="#1f7870"/><rect width="0.298" height="7.576" transform="translate(91.821 90.873)" fill="#1e776f"/><rect width="0.298" height="7.576" transform="translate(92.119 90.873)" fill="#1e766e"/><rect width="0.298" height="7.576" transform="translate(92.417 90.873)" fill="#1d756d"/><rect width="0.298" height="7.576" transform="translate(92.714 90.873)" fill="#1d746c"/><rect width="0.298" height="7.576" transform="translate(93.012 90.873)" fill="#1c736b"/><rect width="0.298" height="7.576" transform="translate(93.31 90.873)" fill="#1c726b"/><rect width="0.298" height="7.576" transform="translate(93.608 90.873)" fill="#1b716a"/><rect width="0.298" height="7.576" transform="translate(93.905 90.873)" fill="#1b7069"/><rect width="0.298" height="7.576" transform="translate(94.203 90.873)" fill="#1a6f68"/><rect width="0.298" height="7.576" transform="translate(94.501 90.873)" fill="#196e67"/><rect width="0.298" height="7.576" transform="translate(94.798 90.873)" fill="#196d66"/><rect width="0.298" height="7.576" transform="translate(95.096 90.873)" fill="#186c65"/><rect width="0.298" height="7.576" transform="translate(95.394 90.873)" fill="#186b64"/><rect width="0.298" height="7.576" transform="translate(95.692 90.873)" fill="#176a63"/><rect width="0.298" height="7.576" transform="translate(95.989 90.873)" fill="#176962"/><rect width="0.298" height="7.576" transform="translate(96.287 90.873)" fill="#166861"/><rect width="0.298" height="7.576" transform="translate(96.585 90.873)" fill="#166760"/><rect width="0.298" height="7.576" transform="translate(96.882 90.873)" fill="#15665f"/><rect width="0.298" height="7.576" transform="translate(97.18 90.873)" fill="#15655e"/><rect width="0.298" height="7.576" transform="translate(97.478 90.873)" fill="#14645d"/><path d="M97.776,98.449v0Z" fill="#14645d"/></g></g><g opacity="0.22"><g clip-path="url(#f)"><path d="M54.944,105.127v0Z" fill="#34a096"/><rect width="0.943" height="7.576" transform="translate(54.944 105.127)" fill="#34a096"/><rect width="0.943" height="7.576" transform="translate(55.888 105.127)" fill="#339f95"/><rect width="0.943" height="7.576" transform="translate(56.831 105.127)" fill="#339e94"/><rect width="0.943" height="7.576" transform="translate(57.774 105.127)" fill="#329d93"/><rect width="0.943" height="7.576" transform="translate(58.717 105.127)" fill="#329c92"/><rect width="0.943" height="7.576" transform="translate(59.661 105.127)" fill="#319b91"/><rect width="0.943" height="7.576" transform="translate(60.604 105.127)" fill="#319a90"/><rect width="0.943" height="7.576" transform="translate(61.547 105.127)" fill="#30998f"/><rect width="0.943" height="7.576" transform="translate(62.49 105.127)" fill="#30988e"/><rect width="0.943" height="7.576" transform="translate(63.434 105.127)" fill="#2f978d"/><rect width="0.943" height="7.576" transform="translate(64.377 105.127)" fill="#2f968c"/><rect width="0.943" height="7.576" transform="translate(65.32 105.127)" fill="#2e958b"/><rect width="0.943" height="7.576" transform="translate(66.263 105.127)" fill="#2d948a"/><rect width="0.943" height="7.576" transform="translate(67.207 105.127)" fill="#2d9389"/><rect width="0.943" height="7.576" transform="translate(68.15 105.127)" fill="#2c9288"/><rect width="0.943" height="7.576" transform="translate(69.093 105.127)" fill="#2c9188"/><rect width="0.943" height="7.576" transform="translate(70.036 105.127)" fill="#2b9087"/><rect width="0.943" height="7.576" transform="translate(70.98 105.127)" fill="#2b8f86"/><rect width="0.943" height="7.576" transform="translate(71.923 105.127)" fill="#2a8e85"/><rect width="0.943" height="7.576" transform="translate(72.866 105.127)" fill="#2a8d84"/><rect width="0.943" height="7.576" transform="translate(73.809 105.127)" fill="#298c83"/><rect width="0.943" height="7.576" transform="translate(74.753 105.127)" fill="#298b82"/><rect width="0.943" height="7.576" transform="translate(75.696 105.127)" fill="#288a81"/><rect width="0.943" height="7.576" transform="translate(76.639 105.127)" fill="#288980"/><rect width="0.943" height="7.576" transform="translate(77.582 105.127)" fill="#27887f"/><rect width="0.943" height="7.576" transform="translate(78.526 105.127)" fill="#26877e"/><rect width="0.943" height="7.576" transform="translate(79.469 105.127)" fill="#26867d"/><rect width="0.943" height="7.576" transform="translate(80.412 105.127)" fill="#25857c"/><rect width="0.943" height="7.576" transform="translate(81.355 105.127)" fill="#25847b"/><rect width="0.943" height="7.576" transform="translate(82.299 105.127)" fill="#24837a"/><rect width="0.943" height="7.576" transform="translate(83.242 105.127)" fill="#248179"/><rect width="0.943" height="7.576" transform="translate(84.185 105.127)" fill="#238078"/><rect width="0.943" height="7.576" transform="translate(85.128 105.127)" fill="#237f77"/><rect width="0.943" height="7.576" transform="translate(86.072 105.127)" fill="#227e76"/><rect width="0.943" height="7.576" transform="translate(87.015 105.127)" fill="#227d75"/><rect width="0.943" height="7.576" transform="translate(87.958 105.127)" fill="#217c74"/><rect width="0.943" height="7.576" transform="translate(88.901 105.127)" fill="#207b73"/><rect width="0.943" height="7.576" transform="translate(89.845 105.127)" fill="#207a72"/><rect width="0.943" height="7.576" transform="translate(90.788 105.127)" fill="#1f7971"/><rect width="0.943" height="7.576" transform="translate(91.731 105.127)" fill="#1f7870"/><rect width="0.943" height="7.576" transform="translate(92.674 105.127)" fill="#1e776f"/><rect width="0.943" height="7.576" transform="translate(93.618 105.127)" fill="#1e766e"/><rect width="0.943" height="7.576" transform="translate(94.561 105.127)" fill="#1d756d"/><rect width="0.943" height="7.576" transform="translate(95.504 105.127)" fill="#1d746c"/><rect width="0.943" height="7.576" transform="translate(96.447 105.127)" fill="#1c736b"/><rect width="0.943" height="7.576" transform="translate(97.391 105.127)" fill="#1c726b"/><rect width="0.943" height="7.576" transform="translate(98.334 105.127)" fill="#1b716a"/><rect width="0.943" height="7.576" transform="translate(99.277 105.127)" fill="#1b7069"/><rect width="0.943" height="7.576" transform="translate(100.22 105.127)" fill="#1a6f68"/><rect width="0.943" height="7.576" transform="translate(101.164 105.127)" fill="#196e67"/><rect width="0.943" height="7.576" transform="translate(102.107 105.127)" fill="#196d66"/><rect width="0.943" height="7.576" transform="translate(103.05 105.127)" fill="#186c65"/><rect width="0.943" height="7.576" transform="translate(103.993 105.127)" fill="#186b64"/><rect width="0.943" height="7.576" transform="translate(104.937 105.127)" fill="#176a63"/><rect width="0.943" height="7.576" transform="translate(105.88 105.127)" fill="#176962"/><rect width="0.943" height="7.576" transform="translate(106.823 105.127)" fill="#166861"/><rect width="0.943" height="7.576" transform="translate(107.767 105.127)" fill="#166760"/><rect width="0.943" height="7.576" transform="translate(108.71 105.127)" fill="#15665f"/><rect width="0.943" height="7.576" transform="translate(109.653 105.127)" fill="#15655e"/><rect width="0.943" height="7.576" transform="translate(110.596 105.127)" fill="#14645d"/><path d="M111.54,112.7v0Z" fill="#14645d"/></g></g><g opacity="0.22"><g clip-path="url(#g)"><path d="M54.943,119.379v0Z" fill="#34a096"/><rect width="0.177" height="7.576" transform="translate(54.943 119.379)" fill="#34a096"/><rect width="0.177" height="7.576" transform="translate(55.12 119.379)" fill="#339f95"/><rect width="0.177" height="7.576" transform="translate(55.296 119.379)" fill="#339e94"/><rect width="0.177" height="7.576" transform="translate(55.473 119.379)" fill="#329d93"/><rect width="0.177" height="7.576" transform="translate(55.649 119.379)" fill="#329c92"/><rect width="0.177" height="7.576" transform="translate(55.826 119.379)" fill="#319b91"/><rect width="0.177" height="7.576" transform="translate(56.003 119.379)" fill="#319a90"/><rect width="0.177" height="7.576" transform="translate(56.179 119.379)" fill="#30998f"/><rect width="0.177" height="7.576" transform="translate(56.356 119.379)" fill="#30988e"/><rect width="0.177" height="7.576" transform="translate(56.532 119.379)" fill="#2f978d"/><rect width="0.177" height="7.576" transform="translate(56.709 119.379)" fill="#2f968c"/><rect width="0.177" height="7.576" transform="translate(56.885 119.379)" fill="#2e958b"/><rect width="0.177" height="7.576" transform="translate(57.062 119.379)" fill="#2d948a"/><rect width="0.177" height="7.576" transform="translate(57.239 119.379)" fill="#2d9389"/><rect width="0.177" height="7.576" transform="translate(57.415 119.379)" fill="#2c9288"/><rect width="0.177" height="7.576" transform="translate(57.592 119.379)" fill="#2c9188"/><rect width="0.177" height="7.576" transform="translate(57.768 119.379)" fill="#2b9087"/><rect width="0.177" height="7.576" transform="translate(57.945 119.379)" fill="#2b8f86"/><rect width="0.177" height="7.576" transform="translate(58.121 119.379)" fill="#2a8e85"/><rect width="0.177" height="7.576" transform="translate(58.298 119.379)" fill="#2a8d84"/><rect width="0.177" height="7.576" transform="translate(58.474 119.379)" fill="#298c83"/><rect width="0.177" height="7.576" transform="translate(58.651 119.379)" fill="#298b82"/><rect width="0.177" height="7.576" transform="translate(58.828 119.379)" fill="#288a81"/><rect width="0.177" height="7.576" transform="translate(59.004 119.379)" fill="#288980"/><rect width="0.177" height="7.576" transform="translate(59.181 119.379)" fill="#27887f"/><rect width="0.177" height="7.576" transform="translate(59.357 119.379)" fill="#26877e"/><rect width="0.177" height="7.576" transform="translate(59.534 119.379)" fill="#26867d"/><rect width="0.177" height="7.576" transform="translate(59.71 119.379)" fill="#25857c"/><rect width="0.177" height="7.576" transform="translate(59.887 119.379)" fill="#25847b"/><rect width="0.177" height="7.576" transform="translate(60.064 119.379)" fill="#24837a"/><rect width="0.177" height="7.576" transform="translate(60.24 119.379)" fill="#248179"/><rect width="0.177" height="7.576" transform="translate(60.417 119.379)" fill="#238078"/><rect width="0.177" height="7.576" transform="translate(60.593 119.379)" fill="#237f77"/><rect width="0.177" height="7.576" transform="translate(60.77 119.379)" fill="#227e76"/><rect width="0.177" height="7.576" transform="translate(60.946 119.379)" fill="#227d75"/><rect width="0.177" height="7.576" transform="translate(61.123 119.379)" fill="#217c74"/><rect width="0.177" height="7.576" transform="translate(61.299 119.379)" fill="#207b73"/><rect width="0.177" height="7.576" transform="translate(61.476 119.379)" fill="#207a72"/><rect width="0.177" height="7.576" transform="translate(61.653 119.379)" fill="#1f7971"/><rect width="0.177" height="7.576" transform="translate(61.829 119.379)" fill="#1f7870"/><rect width="0.177" height="7.576" transform="translate(62.006 119.379)" fill="#1e776f"/><rect width="0.177" height="7.576" transform="translate(62.182 119.379)" fill="#1e766e"/><rect width="0.177" height="7.576" transform="translate(62.359 119.379)" fill="#1d756d"/><rect width="0.177" height="7.576" transform="translate(62.535 119.379)" fill="#1d746c"/><rect width="0.177" height="7.576" transform="translate(62.712 119.379)" fill="#1c736b"/><rect width="0.177" height="7.576" transform="translate(62.889 119.379)" fill="#1c726b"/><rect width="0.177" height="7.576" transform="translate(63.065 119.379)" fill="#1b716a"/><rect width="0.177" height="7.576" transform="translate(63.242 119.379)" fill="#1b7069"/><rect width="0.177" height="7.576" transform="translate(63.418 119.379)" fill="#1a6f68"/><rect width="0.177" height="7.576" transform="translate(63.595 119.379)" fill="#196e67"/><rect width="0.177" height="7.576" transform="translate(63.771 119.379)" fill="#196d66"/><rect width="0.177" height="7.576" transform="translate(63.948 119.379)" fill="#186c65"/><rect width="0.177" height="7.576" transform="translate(64.124 119.379)" fill="#186b64"/><rect width="0.177" height="7.576" transform="translate(64.301 119.379)" fill="#176a63"/><rect width="0.177" height="7.576" transform="translate(64.478 119.379)" fill="#176962"/><rect width="0.177" height="7.576" transform="translate(64.654 119.379)" fill="#166861"/><rect width="0.177" height="7.576" transform="translate(64.831 119.379)" fill="#166760"/><rect width="0.177" height="7.576" transform="translate(65.007 119.379)" fill="#15665f"/><rect width="0.177" height="7.576" transform="translate(65.184 119.379)" fill="#15655e"/><rect width="0.177" height="7.576" transform="translate(65.36 119.379)" fill="#14645d"/><path d="M65.537,126.955v0Z" fill="#14645d"/></g></g><g opacity="0.22"><g clip-path="url(#h)"><path d="M72.807,119.379v0Z" fill="#34a096"/><rect width="0.646" height="7.576" transform="translate(72.807 119.379)" fill="#34a096"/><rect width="0.646" height="7.576" transform="translate(73.452 119.379)" fill="#339f95"/><rect width="0.646" height="7.576" transform="translate(74.098 119.379)" fill="#339e94"/><rect width="0.646" height="7.576" transform="translate(74.744 119.379)" fill="#329d93"/><rect width="0.646" height="7.576" transform="translate(75.389 119.379)" fill="#329c92"/><rect width="0.646" height="7.576" transform="translate(76.035 119.379)" fill="#319b91"/><rect width="0.646" height="7.576" transform="translate(76.68 119.379)" fill="#319a90"/><rect width="0.646" height="7.576" transform="translate(77.326 119.379)" fill="#30998f"/><rect width="0.646" height="7.576" transform="translate(77.971 119.379)" fill="#30988e"/><rect width="0.646" height="7.576" transform="translate(78.617 119.379)" fill="#2f978d"/><rect width="0.646" height="7.576" transform="translate(79.262 119.379)" fill="#2f968c"/><rect width="0.646" height="7.576" transform="translate(79.908 119.379)" fill="#2e958b"/><rect width="0.646" height="7.576" transform="translate(80.553 119.379)" fill="#2d948a"/><rect width="0.646" height="7.576" transform="translate(81.199 119.379)" fill="#2d9389"/><rect width="0.646" height="7.576" transform="translate(81.844 119.379)" fill="#2c9288"/><rect width="0.646" height="7.576" transform="translate(82.49 119.379)" fill="#2c9188"/><rect width="0.646" height="7.576" transform="translate(83.135 119.379)" fill="#2b9087"/><rect width="0.646" height="7.576" transform="translate(83.781 119.379)" fill="#2b8f86"/><rect width="0.646" height="7.576" transform="translate(84.427 119.379)" fill="#2a8e85"/><rect width="0.646" height="7.576" transform="translate(85.072 119.379)" fill="#2a8d84"/><rect width="0.646" height="7.576" transform="translate(85.718 119.379)" fill="#298c83"/><rect width="0.646" height="7.576" transform="translate(86.363 119.379)" fill="#298b82"/><rect width="0.646" height="7.576" transform="translate(87.009 119.379)" fill="#288a81"/><rect width="0.646" height="7.576" transform="translate(87.654 119.379)" fill="#288980"/><rect width="0.646" height="7.576" transform="translate(88.3 119.379)" fill="#27887f"/><rect width="0.646" height="7.576" transform="translate(88.945 119.379)" fill="#26877e"/><rect width="0.646" height="7.576" transform="translate(89.591 119.379)" fill="#26867d"/><rect width="0.646" height="7.576" transform="translate(90.236 119.379)" fill="#25857c"/><rect width="0.646" height="7.576" transform="translate(90.882 119.379)" fill="#25847b"/><rect width="0.646" height="7.576" transform="translate(91.527 119.379)" fill="#24837a"/><rect width="0.646" height="7.576" transform="translate(92.173 119.379)" fill="#248179"/><rect width="0.646" height="7.576" transform="translate(92.819 119.379)" fill="#238078"/><rect width="0.646" height="7.576" transform="translate(93.464 119.379)" fill="#237f77"/><rect width="0.646" height="7.576" transform="translate(94.11 119.379)" fill="#227e76"/><rect width="0.646" height="7.576" transform="translate(94.755 119.379)" fill="#227d75"/><rect width="0.646" height="7.576" transform="translate(95.401 119.379)" fill="#217c74"/><rect width="0.646" height="7.576" transform="translate(96.046 119.379)" fill="#207b73"/><rect width="0.646" height="7.576" transform="translate(96.692 119.379)" fill="#207a72"/><rect width="0.646" height="7.576" transform="translate(97.337 119.379)" fill="#1f7971"/><rect width="0.646" height="7.576" transform="translate(97.983 119.379)" fill="#1f7870"/><rect width="0.646" height="7.576" transform="translate(98.628 119.379)" fill="#1e776f"/><rect width="0.646" height="7.576" transform="translate(99.274 119.379)" fill="#1e766e"/><rect width="0.646" height="7.576" transform="translate(99.919 119.379)" fill="#1d756d"/><rect width="0.646" height="7.576" transform="translate(100.565 119.379)" fill="#1d746c"/><rect width="0.646" height="7.576" transform="translate(101.21 119.379)" fill="#1c736b"/><rect width="0.646" height="7.576" transform="translate(101.856 119.379)" fill="#1c726b"/><rect width="0.646" height="7.576" transform="translate(102.502 119.379)" fill="#1b716a"/><rect width="0.646" height="7.576" transform="translate(103.147 119.379)" fill="#1b7069"/><rect width="0.646" height="7.576" transform="translate(103.793 119.379)" fill="#1a6f68"/><rect width="0.646" height="7.576" transform="translate(104.438 119.379)" fill="#196e67"/><rect width="0.646" height="7.576" transform="translate(105.084 119.379)" fill="#196d66"/><rect width="0.646" height="7.576" transform="translate(105.729 119.379)" fill="#186c65"/><rect width="0.646" height="7.576" transform="translate(106.375 119.379)" fill="#186b64"/><rect width="0.646" height="7.576" transform="translate(107.02 119.379)" fill="#176a63"/><rect width="0.646" height="7.576" transform="translate(107.666 119.379)" fill="#176962"/><rect width="0.646" height="7.576" transform="translate(108.311 119.379)" fill="#166861"/><rect width="0.646" height="7.576" transform="translate(108.957 119.379)" fill="#166760"/><rect width="0.646" height="7.576" transform="translate(109.602 119.379)" fill="#15665f"/><rect width="0.646" height="7.576" transform="translate(110.248 119.379)" fill="#15655e"/><rect width="0.646" height="7.576" transform="translate(110.894 119.379)" fill="#14645d"/><path d="M111.539,126.955v0Z" fill="#14645d"/></g></g><g opacity="0.22"><g clip-path="url(#i)"><path d="M54.806,52.361v0Z" fill="#34a096"/><rect width="1.024" height="5.313" transform="translate(54.806 52.361)" fill="#34a096"/><rect width="1.024" height="5.313" transform="translate(55.83 52.361)" fill="#339f95"/><rect width="1.024" height="5.313" transform="translate(56.854 52.361)" fill="#339e94"/><rect width="1.024" height="5.313" transform="translate(57.879 52.361)" fill="#329d93"/><rect width="1.024" height="5.313" transform="translate(58.903 52.361)" fill="#329c92"/><rect width="1.024" height="5.313" transform="translate(59.927 52.361)" fill="#319b91"/><rect width="1.024" height="5.313" transform="translate(60.951 52.361)" fill="#319a90"/><rect width="1.024" height="5.313" transform="translate(61.975 52.361)" fill="#30998f"/><rect width="1.024" height="5.313" transform="translate(62.999 52.361)" fill="#30988e"/><rect width="1.024" height="5.313" transform="translate(64.024 52.361)" fill="#2f978d"/><rect width="1.024" height="5.313" transform="translate(65.048 52.361)" fill="#2f968c"/><rect width="1.024" height="5.313" transform="translate(66.072 52.361)" fill="#2e958b"/><rect width="1.024" height="5.313" transform="translate(67.096 52.361)" fill="#2d948a"/><rect width="1.024" height="5.313" transform="translate(68.12 52.361)" fill="#2d9389"/><rect width="1.024" height="5.313" transform="translate(69.144 52.361)" fill="#2c9288"/><rect width="1.024" height="5.313" transform="translate(70.168 52.361)" fill="#2c9188"/><rect width="1.024" height="5.313" transform="translate(71.193 52.361)" fill="#2b9087"/><rect width="1.024" height="5.313" transform="translate(72.217 52.361)" fill="#2b8f86"/><rect width="1.024" height="5.313" transform="translate(73.241 52.361)" fill="#2a8e85"/><rect width="1.024" height="5.313" transform="translate(74.265 52.361)" fill="#2a8d84"/><rect width="1.024" height="5.313" transform="translate(75.289 52.361)" fill="#298c83"/><rect width="1.024" height="5.313" transform="translate(76.313 52.361)" fill="#298b82"/><rect width="1.024" height="5.313" transform="translate(77.338 52.361)" fill="#288a81"/><rect width="1.024" height="5.313" transform="translate(78.362 52.361)" fill="#288980"/><rect width="1.024" height="5.313" transform="translate(79.386 52.361)" fill="#27887f"/><rect width="1.024" height="5.313" transform="translate(80.41 52.361)" fill="#26877e"/><rect width="1.024" height="5.313" transform="translate(81.434 52.361)" fill="#26867d"/><rect width="1.024" height="5.313" transform="translate(82.458 52.361)" fill="#25857c"/><rect width="1.024" height="5.313" transform="translate(83.482 52.361)" fill="#25847b"/><rect width="1.024" height="5.313" transform="translate(84.507 52.361)" fill="#24837a"/><rect width="1.024" height="5.313" transform="translate(85.531 52.361)" fill="#248179"/><rect width="1.024" height="5.313" transform="translate(86.555 52.361)" fill="#238078"/><rect width="1.024" height="5.313" transform="translate(87.579 52.361)" fill="#237f77"/><rect width="1.024" height="5.313" transform="translate(88.603 52.361)" fill="#227e76"/><rect width="1.024" height="5.313" transform="translate(89.627 52.361)" fill="#227d75"/><rect width="1.024" height="5.313" transform="translate(90.651 52.361)" fill="#217c74"/><rect width="1.024" height="5.313" transform="translate(91.676 52.361)" fill="#207b73"/><rect width="1.024" height="5.313" transform="translate(92.7 52.361)" fill="#207a72"/><rect width="1.024" height="5.313" transform="translate(93.724 52.361)" fill="#1f7971"/><rect width="1.024" height="5.313" transform="translate(94.748 52.361)" fill="#1f7870"/><rect width="1.024" height="5.313" transform="translate(95.772 52.361)" fill="#1e776f"/><rect width="1.024" height="5.313" transform="translate(96.796 52.361)" fill="#1e766e"/><rect width="1.024" height="5.313" transform="translate(97.821 52.361)" fill="#1d756d"/><rect width="1.024" height="5.313" transform="translate(98.845 52.361)" fill="#1d746c"/><rect width="1.024" height="5.313" transform="translate(99.869 52.361)" fill="#1c736b"/><rect width="1.024" height="5.313" transform="translate(100.893 52.361)" fill="#1c726b"/><rect width="1.024" height="5.313" transform="translate(101.917 52.361)" fill="#1b716a"/><rect width="1.024" height="5.313" transform="translate(102.941 52.361)" fill="#1b7069"/><rect width="1.024" height="5.313" transform="translate(103.965 52.361)" fill="#1a6f68"/><rect width="1.024" height="5.313" transform="translate(104.99 52.361)" fill="#196e67"/><rect width="1.024" height="5.313" transform="translate(106.014 52.361)" fill="#196d66"/><rect width="1.024" height="5.313" transform="translate(107.038 52.361)" fill="#186c65"/><rect width="1.024" height="5.313" transform="translate(108.062 52.361)" fill="#186b64"/><rect width="1.024" height="5.313" transform="translate(109.086 52.361)" fill="#176a63"/><rect width="1.024" height="5.313" transform="translate(110.11 52.361)" fill="#176962"/><rect width="1.024" height="5.313" transform="translate(111.134 52.361)" fill="#166861"/><rect width="1.024" height="5.313" transform="translate(112.159 52.361)" fill="#166760"/><rect width="1.024" height="5.313" transform="translate(113.183 52.361)" fill="#15665f"/><rect width="1.024" height="5.313" transform="translate(114.207 52.361)" fill="#15655e"/><rect width="1.024" height="5.313" transform="translate(115.231 52.361)" fill="#14645d"/><path d="M116.255,57.673v0Z" fill="#14645d"/></g></g><g opacity="0.22"><g clip-path="url(#j)"><path d="M54.806,64.632v0Z" fill="#34a096"/><rect width="0.708" height="5.313" transform="translate(54.806 64.632)" fill="#34a096"/><rect width="0.708" height="5.313" transform="translate(55.515 64.632)" fill="#339f95"/><rect width="0.708" height="5.313" transform="translate(56.223 64.632)" fill="#339e94"/><rect width="0.708" height="5.313" transform="translate(56.931 64.632)" fill="#329d93"/><rect width="0.708" height="5.313" transform="translate(57.64 64.632)" fill="#329c92"/><rect width="0.708" height="5.313" transform="translate(58.348 64.632)" fill="#319b91"/><rect width="0.708" height="5.313" transform="translate(59.056 64.632)" fill="#319a90"/><rect width="0.708" height="5.313" transform="translate(59.765 64.632)" fill="#30998f"/><rect width="0.708" height="5.313" transform="translate(60.473 64.632)" fill="#30988e"/><rect width="0.708" height="5.313" transform="translate(61.181 64.632)" fill="#2f978d"/><rect width="0.708" height="5.313" transform="translate(61.89 64.632)" fill="#2f968c"/><rect width="0.708" height="5.313" transform="translate(62.598 64.632)" fill="#2e958b"/><rect width="0.708" height="5.313" transform="translate(63.306 64.632)" fill="#2d948a"/><rect width="0.708" height="5.313" transform="translate(64.015 64.632)" fill="#2d9389"/><rect width="0.708" height="5.313" transform="translate(64.723 64.632)" fill="#2c9288"/><rect width="0.708" height="5.313" transform="translate(65.431 64.632)" fill="#2c9188"/><rect width="0.708" height="5.313" transform="translate(66.14 64.632)" fill="#2b9087"/><rect width="0.708" height="5.313" transform="translate(66.848 64.632)" fill="#2b8f86"/><rect width="0.708" height="5.313" transform="translate(67.556 64.632)" fill="#2a8e85"/><rect width="0.708" height="5.313" transform="translate(68.265 64.632)" fill="#2a8d84"/><rect width="0.708" height="5.313" transform="translate(68.973 64.632)" fill="#298c83"/><rect width="0.708" height="5.313" transform="translate(69.681 64.632)" fill="#298b82"/><rect width="0.708" height="5.313" transform="translate(70.39 64.632)" fill="#288a81"/><rect width="0.708" height="5.313" transform="translate(71.098 64.632)" fill="#288980"/><rect width="0.708" height="5.313" transform="translate(71.806 64.632)" fill="#27887f"/><rect width="0.708" height="5.313" transform="translate(72.515 64.632)" fill="#26877e"/><rect width="0.708" height="5.313" transform="translate(73.223 64.632)" fill="#26867d"/><rect width="0.708" height="5.313" transform="translate(73.932 64.632)" fill="#25857c"/><rect width="0.708" height="5.313" transform="translate(74.64 64.632)" fill="#25847b"/><rect width="0.708" height="5.313" transform="translate(75.348 64.632)" fill="#24837a"/><rect width="0.708" height="5.313" transform="translate(76.057 64.632)" fill="#248179"/><rect width="0.708" height="5.313" transform="translate(76.765 64.632)" fill="#238078"/><rect width="0.708" height="5.313" transform="translate(77.473 64.632)" fill="#237f77"/><rect width="0.708" height="5.313" transform="translate(78.182 64.632)" fill="#227e76"/><rect width="0.708" height="5.313" transform="translate(78.89 64.632)" fill="#227d75"/><rect width="0.708" height="5.313" transform="translate(79.598 64.632)" fill="#217c74"/><rect width="0.708" height="5.313" transform="translate(80.307 64.632)" fill="#207b73"/><rect width="0.708" height="5.313" transform="translate(81.015 64.632)" fill="#207a72"/><rect width="0.708" height="5.313" transform="translate(81.723 64.632)" fill="#1f7971"/><rect width="0.708" height="5.313" transform="translate(82.432 64.632)" fill="#1f7870"/><rect width="0.708" height="5.313" transform="translate(83.14 64.632)" fill="#1e776f"/><rect width="0.708" height="5.313" transform="translate(83.848 64.632)" fill="#1e766e"/><rect width="0.708" height="5.313" transform="translate(84.557 64.632)" fill="#1d756d"/><rect width="0.708" height="5.313" transform="translate(85.265 64.632)" fill="#1d746c"/><rect width="0.708" height="5.313" transform="translate(85.973 64.632)" fill="#1c736b"/><rect width="0.708" height="5.313" transform="translate(86.682 64.632)" fill="#1c726b"/><rect width="0.708" height="5.313" transform="translate(87.39 64.632)" fill="#1b716a"/><rect width="0.708" height="5.313" transform="translate(88.098 64.632)" fill="#1b7069"/><rect width="0.708" height="5.313" transform="translate(88.807 64.632)" fill="#1a6f68"/><rect width="0.708" height="5.313" transform="translate(89.515 64.632)" fill="#196e67"/><rect width="0.708" height="5.313" transform="translate(90.224 64.632)" fill="#196d66"/><rect width="0.708" height="5.313" transform="translate(90.932 64.632)" fill="#186c65"/><rect width="0.708" height="5.313" transform="translate(91.64 64.632)" fill="#186b64"/><rect width="0.708" height="5.313" transform="translate(92.349 64.632)" fill="#176a63"/><rect width="0.708" height="5.313" transform="translate(93.057 64.632)" fill="#176962"/><rect width="0.708" height="5.313" transform="translate(93.765 64.632)" fill="#166861"/><rect width="0.708" height="5.313" transform="translate(94.474 64.632)" fill="#166760"/><rect width="0.708" height="5.313" transform="translate(95.182 64.632)" fill="#15665f"/><rect width="0.708" height="5.313" transform="translate(95.89 64.632)" fill="#15655e"/><rect width="0.708" height="5.313" transform="translate(96.599 64.632)" fill="#14645d"/><path d="M97.307,69.944v0Z" fill="#14645d"/></g></g><path d="M116.922,130.75a32.23,32.23,0,0,1,0-64.46,32.23,32.23,0,1,1,0,64.46Zm0-60.46a28.23,28.23,0,0,0,0,56.46,28.23,28.23,0,1,0,0-56.46Z" fill="url(#k)"/><path d="M171.475,164a6.051,6.051,0,0,1-4.308-1.785l-23.54-23.539a6.1,6.1,0,0,1,0-8.617l.92-.918a6.09,6.09,0,0,1,8.616,0L176.7,152.68a6.1,6.1,0,0,1,0,8.617l-.917.917A6.054,6.054,0,0,1,171.475,164Zm-22.622-32.644a2.071,2.071,0,0,0-1.478.614l-.92.918a2.1,2.1,0,0,0,0,2.96L170,159.386a2.143,2.143,0,0,0,2.96,0l.917-.917a2.1,2.1,0,0,0,0-2.961l-23.539-23.539A2.079,2.079,0,0,0,148.853,131.355Z" fill="url(#l)"/><rect width="4" height="12.719" transform="translate(135.758 122.595) rotate(-40.235)" fill="url(#m)"/><path d="M98.959,114.094,95.8,111.645,106.439,97.9l6.169,5.487,9.034-12.5,4.021,4.68L134.9,84.742l3.041,2.6L125.67,101.708l-3.757-4.373-8.657,11.98-6.276-5.583Z" fill="url(#n)"/></g></svg>