<svg xmlns="http://www.w3.org/2000/svg" xmlns:xlink="http://www.w3.org/1999/xlink" width="97.592" height="97.444" viewBox="0 0 97.592 97.444"><defs><linearGradient id="a" x1="-0.331" y1="0.257" x2="0.806" y2="1" gradientUnits="objectBoundingBox"><stop offset="0" stop-color="#9b4a69"/><stop offset="1" stop-color="#f388b0"/></linearGradient><linearGradient id="c" x1="0.5" y1="0.627" x2="0.19" y2="0.223" gradientUnits="objectBoundingBox"><stop offset="0" stop-color="#e27ca2"/><stop offset="1" stop-color="#b25a7b"/></linearGradient></defs><g transform="translate(-0.475 -0.475)"><g transform="translate(0.475 0.475)"><path d="M60.333,15.8A31.517,31.517,0,0,0,15.762,60.369,31.517,31.517,0,0,0,60.333,15.8ZM58.267,58.3a28.595,28.595,0,1,1,0-40.439A28.5,28.5,0,0,1,58.267,58.3Z" transform="translate(2.428 2.392)" fill="url(#a)"/><path d="M81.094,68.4a5.194,5.194,0,0,0-.886-6.2l-3.247-3.247A40.387,40.387,0,1,0,58.956,76.962L62.2,80.209a5.1,5.1,0,0,0,6.2.886L82.57,95.263a9.079,9.079,0,0,0,12.84-12.84ZM14.385,67.369a37.465,37.465,0,1,1,52.984,0A37.5,37.5,0,0,1,14.385,67.369ZM64.269,78.29l-2.657-2.657A39.048,39.048,0,0,0,75.486,61.76l2.657,2.657a2.14,2.14,0,0,1,0,3.1L67.221,78.438A2.449,2.449,0,0,1,64.269,78.29ZM93.2,93.2a6.057,6.057,0,0,1-8.56,0L70.616,79.176l8.56-8.56L93.2,84.636A6.057,6.057,0,0,1,93.2,93.2Z" transform="translate(-0.475 -0.475)" fill="url(#a)"/><path d="M42.306,39.119V28.849c3.754.478,4.278,2.61,4.33,2.9a1.572,1.572,0,1,0,3.117-.419c-.029-.21-.723-4.995-7.447-5.647V23.141a1.572,1.572,0,0,0-3.144,0v2.595a8.736,8.736,0,0,0-5.4,2.469A7.154,7.154,0,0,0,31.9,33.7c.275,4.421,3.821,6.462,7.25,7.693V51.568a5.416,5.416,0,0,1-5.06-4.523,1.572,1.572,0,1,0-3.108.476c.363,2.36,1.924,6.273,8.175,7.242v3.3a1.572,1.572,0,0,0,3.144,0V54.915a7.8,7.8,0,0,0,7.77-6.152C51.062,42.07,46.5,40.442,42.306,39.119Zm-7.254-5.613a4.039,4.039,0,0,1,1.006-3.144,5.414,5.414,0,0,1,3.1-1.467v9.122C35.779,36.552,35.144,34.994,35.052,33.506ZM46.966,48.3a4.689,4.689,0,0,1-4.66,3.465V42.427C45.933,43.642,47.5,44.659,46.966,48.3Z" transform="translate(-0.058 0.886)" fill="url(#c)"/></g></g></svg>