<svg xmlns="http://www.w3.org/2000/svg" xmlns:xlink="http://www.w3.org/1999/xlink" width="144.679" height="155.96" viewBox="0 0 144.679 155.96"><defs><linearGradient id="a" x1="-0.1" y1="1.039" x2="1.437" y2="-0.341" gradientUnits="objectBoundingBox"><stop offset="0" stop-color="#9b4a69"/><stop offset="1" stop-color="#f388b0"/></linearGradient><linearGradient id="b" x1="-0.2" y1="1.136" x2="1.298" y2="-0.224" xlink:href="#a"/><linearGradient id="c" x1="0.953" y1="-3.995" x2="0.05" y2="4.964" xlink:href="#a"/><linearGradient id="d" x1="2.709" y1="-6.424" x2="-0.149" y2="2.535" xlink:href="#a"/><linearGradient id="e" x1="2.204" y1="-4.841" x2="-0.654" y2="4.118" xlink:href="#a"/><linearGradient id="f" x1="1.195" y1="-6.398" x2="0.292" y2="2.561" xlink:href="#a"/><linearGradient id="g" x1="5.642" y1="-9.058" x2="0.822" y2="-0.099" xlink:href="#a"/><linearGradient id="h" x1="1.608" y1="-7.033" x2="0.29" y2="1.926" xlink:href="#a"/><linearGradient id="i" x1="0.942" y1="-3.707" x2="-0.399" y2="9.069" xlink:href="#a"/><linearGradient id="j" x1="1.015" y1="-4.982" x2="-0.186" y2="7.794" xlink:href="#a"/><linearGradient id="k" x1="-0.732" y1="1.913" x2="0.822" y2="0.13" xlink:href="#a"/><linearGradient id="l" x1="-1.402" y1="2.857" x2="0.987" y2="-0.015" xlink:href="#a"/></defs><g transform="translate(-34.47 -18.019)"><path d="M119.3,173.979H36.47a2,2,0,0,1-2-2v-107a2,2,0,0,1,2-2H47.01a2,2,0,0,1,2,2v95.26H119.3a2,2,0,0,1,2,2v9.74A2,2,0,0,1,119.3,173.979Zm-80.83-4H117.3v-5.74H47.01a2,2,0,0,1-2-2V66.979H38.47Z" fill="url(#a)"/><path d="M132.09,164.239H47.01a2,2,0,0,1-2-2V53.629a2,2,0,0,1,2-2h48.9a2,2,0,0,1,1.968,2.355,39.451,39.451,0,0,0-.627,6.985c0,1.253.063,2.536.189,3.813a38.931,38.931,0,0,0,34.849,34.947,2,2,0,0,1,1.8,1.99v60.52A2,2,0,0,1,132.09,164.239Zm-83.08-4h81.08V103.491A42.933,42.933,0,0,1,93.459,65.172c-.139-1.4-.209-2.82-.209-4.2a43.252,43.252,0,0,1,.332-5.34H49.01Z" fill="url(#b)"/><path d="M114.618,94.434v4.278h-56.6V91.136H107.78Z" opacity="0.32" fill="url(#c)"/><path d="M75.885,105.388v7.576H58.022v-7.576Z" opacity="0.32" fill="url(#d)"/><path d="M100.854,105.388v7.576H82.991v-7.576Z" opacity="0.32" fill="url(#e)"/><path d="M114.618,119.641v7.576h-56.6v-7.576Z" opacity="0.32" fill="url(#f)"/><path d="M68.615,133.893v7.576H58.022v-7.576Z" opacity="0.32" fill="url(#g)"/><path d="M114.618,133.894v7.576H75.885v-7.576Z" opacity="0.32" fill="url(#h)"/><rect width="38.074" height="5.313" transform="translate(57.885 66.875)" opacity="0.32" fill="url(#i)"/><rect width="42.501" height="5.313" transform="translate(57.885 79.146)" opacity="0.32" fill="url(#j)"/><path d="M136.2,103.919c-1.41,0-2.857-.07-4.3-.209A42.789,42.789,0,0,1,93.25,60.969a43.391,43.391,0,0,1,.691-7.7A42.951,42.951,0,1,1,136.2,103.919Zm0-81.9A38.9,38.9,0,0,0,97.877,53.985a39.431,39.431,0,0,0-.627,6.984A38.95,38.95,0,1,0,136.2,22.019Z" fill="url(#k)"/><g transform="translate(-0.002 4.701)"><path d="M152.228,82.931a2.009,2.009,0,0,1-.93-.23l-15.1-7.936-15.1,7.936a2,2,0,0,1-2.9-2.108l2.883-16.811-12.212-11.9a2,2,0,0,1,1.107-3.412l16.878-2.453,7.549-15.293A2,2,0,0,1,136.2,29.6h0A2,2,0,0,1,138,30.721l7.547,15.293,16.879,2.453a2,2,0,0,1,1.107,3.412l-12.212,11.9L154.2,80.593a2,2,0,0,1-1.972,2.338ZM136.2,70.5a2,2,0,0,1,.931.229l12.439,6.54L147.2,63.422a2.007,2.007,0,0,1,.576-1.771l10.064-9.808-13.909-2.022a2,2,0,0,1-1.506-1.094l-6.219-12.6-6.221,12.6a2,2,0,0,1-1.505,1.094l-13.908,2.022,10.064,9.808a2.007,2.007,0,0,1,.576,1.771l-2.376,13.852,12.439-6.54A2,2,0,0,1,136.2,70.5Z" fill="url(#l)"/></g></g></svg>