<svg xmlns="http://www.w3.org/2000/svg" xmlns:xlink="http://www.w3.org/1999/xlink" width="144.38" height="127.496" viewBox="0 0 144.38 127.496"><defs><linearGradient id="a" y1="0.5" x2="1" y2="0.5" gradientUnits="objectBoundingBox"><stop offset="0" stop-color="#34a096"/><stop offset="1" stop-color="#14645d"/></linearGradient><linearGradient id="d" x1="0" y1="0.5" x2="1" y2="0.5" xlink:href="#a"/></defs><g transform="translate(-21.091 -38.217)"><path d="M149.285,132.8H27.668a6.584,6.584,0,0,1-6.577-6.577V44.793a6.583,6.583,0,0,1,6.577-6.576H149.285a6.582,6.582,0,0,1,6.576,6.576v81.431A6.583,6.583,0,0,1,149.285,132.8ZM27.668,41.722A3.075,3.075,0,0,0,24.6,44.793v81.431a3.075,3.075,0,0,0,3.072,3.072H149.285a3.074,3.074,0,0,0,3.071-3.072V44.793a3.074,3.074,0,0,0-3.071-3.071Z" fill="url(#a)"/><path d="M149.605,116.467H29.406V45.583h120.2ZM32.27,113.6H146.741V48.446H32.27Z" transform="translate(-1.029 -0.912)" fill="url(#a)"/><path d="M119.056,162.547H70.008V142.166h49.048Zm-45.544-3.5h42.039V145.671H73.513Z" transform="translate(-6.056 -12.87)" fill="url(#a)"/><path d="M128.419,164.932H56.988a1.752,1.752,0,1,1,0-3.5h71.431a1.752,1.752,0,1,1,0,3.5Z" transform="translate(-4.227 -15.254)" fill="url(#d)"/><g transform="translate(120.838 92.879)"><g transform="translate(19.179 63.723)"><path d="M161.857,176.674a1.692,1.692,0,1,1-1.694-1.694A1.693,1.693,0,0,1,161.857,176.674Z" transform="translate(-157.026 -173.534)" fill="#fff"/><path d="M159.959,179.606a3.138,3.138,0,1,1,3.139-3.137A3.14,3.14,0,0,1,159.959,179.606Zm0-3.384a.246.246,0,1,0,.248.247A.246.246,0,0,0,159.959,176.222Z" transform="translate(-156.822 -173.33)" fill="url(#a)"/></g><g transform="translate(0.007 7.61)"><path d="M178.324,110.593V163.87H136.591V110.861h41.726v-.551C178.322,110.4,178.324,110.5,178.324,110.593Z" transform="translate(-135.145 -109.415)" fill="#fff"/><path d="M179.566,165.189H134.941v-55.9h43.172v.856l1.443-.04c.007.119.011.243.011.363ZM137.832,162.3h38.842V112.18H137.832Z" transform="translate(-134.941 -109.288)" fill="url(#a)"/></g><g transform="translate(0.007 60.618)"><path d="M136.591,171.438v5.634a3.692,3.692,0,0,0,3.692,3.69h34.349a3.691,3.691,0,0,0,3.691-3.69v-5.634Zm20.863,6.488a1.692,1.692,0,1,1,1.694-1.691A1.691,1.691,0,0,1,157.454,177.926Z" transform="translate(-135.145 -169.991)" fill="#fff"/><path d="M174.428,182H140.079a5.143,5.143,0,0,1-5.138-5.135v-7.081h44.625v7.081A5.143,5.143,0,0,1,174.428,182Zm-16.587-2.891h16.587a2.248,2.248,0,0,0,2.247-2.244v-4.188H137.832v4.188a2.248,2.248,0,0,0,2.247,2.244h16.58a3.139,3.139,0,1,1,1.182,0Zm-.591-3.328a.246.246,0,1,0,.248.247A.246.246,0,0,0,157.25,175.784Z" transform="translate(-134.941 -169.787)" fill="url(#a)"/></g><g transform="translate(19.179 63.723)"><path d="M161.857,176.674a1.692,1.692,0,1,1-1.694-1.694A1.693,1.693,0,0,1,161.857,176.674Z" transform="translate(-157.026 -173.534)" fill="#fff"/><path d="M159.959,179.606a3.138,3.138,0,1,1,3.139-3.137A3.14,3.14,0,0,1,159.959,179.606Zm0-3.384a.246.246,0,1,0,.248.247A.246.246,0,0,0,159.959,176.222Z" transform="translate(-156.822 -173.33)" fill="url(#a)"/></g><g transform="translate(0 0)"><path d="M178.316,105.943v3.921H136.583v-3.921a3.692,3.692,0,0,1,3.692-3.69h34.348A3.692,3.692,0,0,1,178.316,105.943Z" transform="translate(-135.137 -100.807)" fill="#fff"/><path d="M179.557,111.105H134.933v-5.367a5.142,5.142,0,0,1,5.138-5.135h34.348a5.143,5.143,0,0,1,5.138,5.135Zm-41.733-2.892h38.842v-2.474a2.248,2.248,0,0,0-2.247-2.244H140.071a2.248,2.248,0,0,0-2.247,2.244Z" transform="translate(-134.933 -100.603)" fill="url(#a)"/></g><g transform="translate(19.179 63.723)"><path d="M161.857,176.674a1.692,1.692,0,1,1-1.694-1.694A1.693,1.693,0,0,1,161.857,176.674Z" transform="translate(-157.026 -173.534)" fill="#fff"/><path d="M159.959,179.606a3.138,3.138,0,1,1,3.139-3.137A3.14,3.14,0,0,1,159.959,179.606Zm0-3.384a.246.246,0,1,0,.248.247A.246.246,0,0,0,159.959,176.222Z" transform="translate(-156.822 -173.33)" fill="url(#a)"/></g></g><path d="M95.639,86.181a7.88,7.88,0,0,1-7.862-7.852V73.751A7.9,7.9,0,0,1,95.629,65.9h.009a7.89,7.89,0,0,1,7.847,7.847v4.578A7.894,7.894,0,0,1,95.639,86.181Zm-.005-17.419a5.028,5.028,0,0,0-4.993,4.994v4.568a4.99,4.99,0,1,0,9.981,0V73.751A5.019,5.019,0,0,0,95.634,68.762Z" transform="translate(-8.256 -3.427)" fill="url(#a)"/><path d="M108.709,109.142H80.843v-5.883a13.917,13.917,0,0,1,.926-4.973,14.122,14.122,0,0,1,3.164-4.871,13.883,13.883,0,0,1,21.1,1.663,13.7,13.7,0,0,1,1.749,3.211,13.9,13.9,0,0,1,.925,4.964Zm-25-2.863h22.137v-3.018a11.041,11.041,0,0,0-.734-3.945,10.906,10.906,0,0,0-1.388-2.551,11.042,11.042,0,0,0-17.841-.072,10.844,10.844,0,0,0-1.439,2.62,11.011,11.011,0,0,0-.735,3.949Z" transform="translate(-7.398 -6.327)" fill="url(#a)"/><path d="M159.738,138.012a4.761,4.761,0,0,1-4.752-4.747v-2.759a4.777,4.777,0,0,1,4.746-4.747h.006a4.771,4.771,0,0,1,4.744,4.745v2.759A4.771,4.771,0,0,1,159.738,138.012Zm0-10.5a3.018,3.018,0,0,0-3,3v2.752a3.01,3.01,0,0,0,3,3,3.013,3.013,0,0,0,2.992-3v-2.754A3.014,3.014,0,0,0,159.735,127.51Z" transform="translate(-16.577 -10.838)" fill="url(#a)"/><path d="M167.63,151.856H150.8v-3.561a8.379,8.379,0,0,1,.559-3,8.271,8.271,0,0,1,1.093-1.992,8.386,8.386,0,0,1,13.558.054,8.292,8.292,0,0,1,1.057,1.939,8.377,8.377,0,0,1,.558,3ZM152.557,150.1h13.321v-1.808a6.632,6.632,0,0,0-.442-2.372,6.494,6.494,0,0,0-.835-1.533,6.641,6.641,0,0,0-10.735-.044A6.537,6.537,0,0,0,153,145.92a6.652,6.652,0,0,0-.442,2.377Z" transform="translate(-16.06 -12.587)" fill="url(#a)"/></g></svg>