<svg xmlns="http://www.w3.org/2000/svg" xmlns:xlink="http://www.w3.org/1999/xlink" width="106.221" height="96" viewBox="0 0 106.221 96"><defs><linearGradient id="a" x1="3.722" y1="-1.187" x2="-6.286" y2="4.068" gradientUnits="objectBoundingBox"><stop offset="0" stop-color="#d8805a"/><stop offset="1" stop-color="#7b4129"/></linearGradient><linearGradient id="b" x1="15.933" y1="-2.076" x2="-17.189" y2="3.442" xlink:href="#a"/><linearGradient id="c" x1="1.24" y1="-4.174" x2="-0.163" y2="4.69" xlink:href="#a"/><linearGradient id="d" x1="1.623" y1="-0.662" x2="-1.87" y2="2.953" xlink:href="#a"/><linearGradient id="e" x1="9.693" y1="-9.014" x2="-2.274" y2="3.372" xlink:href="#a"/><linearGradient id="f" x1="7.72" y1="-6.974" x2="-4.246" y2="5.412" xlink:href="#a"/><linearGradient id="g" x1="5.75" y1="-4.933" x2="-6.217" y2="7.453" xlink:href="#a"/><linearGradient id="h" x1="17.966" y1="-4.264" x2="-15.155" y2="4.755" xlink:href="#a"/></defs><g transform="translate(-27.64 -31.9)"><path d="M101.04,53.317V45.923c2.707.345,3.08,1.875,3.123,2.115a1.135,1.135,0,0,0,2.249-.261v-.042c0-.148-.522-3.595-5.364-4.06V41.841a1.128,1.128,0,1,0-2.256-.078.141.141,0,0,0,0,.078v1.868A6.288,6.288,0,0,0,94.9,45.486a5.132,5.132,0,0,0-1.339,3.954c.2,3.179,2.756,4.652,5.223,5.533v7.3a3.884,3.884,0,0,1-3.644-3.25,1.135,1.135,0,1,0-2.249.268.254.254,0,0,0,0,.07c.261,1.7,1.41,4.518,5.879,5.216v2.368a1.135,1.135,0,0,0,2.263,0V64.687a5.639,5.639,0,0,0,5.6-4.434C107.342,55.439,104.064,54.3,101.04,53.317Zm-5.216-4.046a2.925,2.925,0,0,1,.7-2.263,3.891,3.891,0,0,1,2.235-1.05v6.563C96.346,51.477,95.888,50.342,95.824,49.271ZM104.4,59.936a3.376,3.376,0,0,1-3.355,2.488V55.707C103.656,56.567,104.783,57.3,104.4,59.936Z" transform="translate(-19.25 -2.589)" fill="url(#a)"/><path d="M102.115,122.162A2.115,2.115,0,0,1,100,120.047V97.97a2.115,2.115,0,0,1,4.187,0v22.091a2.115,2.115,0,0,1-2.072,2.1Z" transform="translate(-21.354 -18.961)" fill="url(#b)"/><path d="M129.616,134.6a2.115,2.115,0,0,1-2.115-2.115V122.6H37.077v9.911a2.115,2.115,0,0,1-4.187,0V120.525A2.115,2.115,0,0,1,35,118.41h94.611a2.115,2.115,0,0,1,2.115,2.115v11.983A2.115,2.115,0,0,1,129.616,134.6Z" transform="translate(-1.549 -25.529)" fill="url(#c)"/><path d="M94.4,71.6A19.85,19.85,0,1,1,114.24,51.752,19.85,19.85,0,0,1,94.4,71.6Zm0-35.506a15.663,15.663,0,1,0,15.656,15.658A15.663,15.663,0,0,0,94.4,36.094Z" transform="translate(-13.84)" fill="url(#d)"/><path d="M33.434,163.238a5.794,5.794,0,1,1,5.794-5.794,5.794,5.794,0,0,1-5.794,5.794Zm0-7.4a1.607,1.607,0,1,0,1.607,1.607,1.607,1.607,0,0,0-1.607-1.607Z" transform="translate(0 -35.339)" fill="url(#e)"/><path d="M100.574,163.238a5.794,5.794,0,1,1,5.794-5.794,5.794,5.794,0,0,1-5.794,5.794Zm0-7.4a1.607,1.607,0,1,0,1.607,1.607,1.607,1.607,0,0,0-1.607-1.607Z" transform="translate(-19.813 -35.339)" fill="url(#f)"/><path d="M167.684,163.238a5.794,5.794,0,1,1,5.794-5.794,5.794,5.794,0,0,1-5.794,5.794Zm0-7.4a1.607,1.607,0,1,0,1.607,1.607,1.607,1.607,0,0,0-1.607-1.607Z" transform="translate(-39.618 -35.339)" fill="url(#g)"/><path d="M102.115,134.718A2.115,2.115,0,0,1,100,132.6V120.62a2.115,2.115,0,0,1,4.187,0V132.6a2.115,2.115,0,0,1-2.073,2.115Z" transform="translate(-21.354 -25.645)" fill="url(#h)"/></g></svg>