<svg xmlns="http://www.w3.org/2000/svg" xmlns:xlink="http://www.w3.org/1999/xlink" width="547.664" height="353.695" viewBox="0 0 547.664 353.695"><defs><filter id="a" x="299.87" y="36.882" width="227.656" height="183.065" filterUnits="userSpaceOnUse"><feOffset dy="7" input="SourceAlpha"/><feGaussianBlur stdDeviation="2.5" result="b"/><feFlood flood-color="#231f20" flood-opacity="0.2"/><feComposite operator="in" in2="b"/><feComposite in="SourceGraphic"/></filter><filter id="c" x="0" y="0" width="282.931" height="290.286" filterUnits="userSpaceOnUse"><feOffset dy="7" input="SourceAlpha"/><feGaussianBlur stdDeviation="2.5" result="d"/><feFlood flood-color="#231f20" flood-opacity="0.2"/><feComposite operator="in" in2="d"/><feComposite in="SourceGraphic"/></filter><clipPath id="e"><circle cx="14.949" cy="14.949" r="14.949" fill="none"/></clipPath></defs><g transform="translate(-12748.013 -4279.608)"><g transform="translate(12755.513 4318.087)"><path d="M12957.465,4581h251.58V4313.663a12.731,12.731,0,0,0-12.83-12.637H12794.67a12.731,12.731,0,0,0-12.832,12.637V4581h175.627Zm38.525-275.392a2.944,2.944,0,1,1-2.943,2.943A2.943,2.943,0,0,1,12995.99,4305.613Zm-203.531,10.619h406.207v254.4h-406.207Z" transform="translate(-12725.842 -4294.511)" fill="none"/><rect width="399.934" height="247.877" transform="translate(69.753 25.101)" fill="none"/><path d="M13289.43,4584.457h-44.438V4317.115a19.2,19.2,0,0,0-19.106-19.152h-401.544a19.2,19.2,0,0,0-19.107,19.152v267.342h-43.344a6.432,6.432,0,0,0-6.377,6.389v5.614a11.866,11.866,0,0,0,9.276,11.6l13.432,3.04a84.05,84.05,0,0,0,18.7,2.082H13254.4a83.918,83.918,0,0,0,18.684-2.082l13.38-3.052a11.794,11.794,0,0,0,9.211-11.585v-5.614A6.32,6.32,0,0,0,13289.43,4584.457Zm-509.786,20.5-13.467-3.062a5.624,5.624,0,0,1-4.389-5.437v-5.728h219.027a6.1,6.1,0,0,0,1.139,3.673l1.982,2.878a12.865,12.865,0,0,0,10.509,5.517h60.455a12.839,12.839,0,0,0,10.511-5.488l1.979-2.9a6.09,6.09,0,0,0,1.14-3.677H13289.4v5.728a5.568,5.568,0,0,1-4.322,5.439l-13.409,3.061a77.409,77.409,0,0,1-17.268,1.945h-457.485A77.493,77.493,0,0,1,12779.644,4604.96Zm275.257-8.436h-60.455a6.583,6.583,0,0,1-5.329-2.865l-1.981-2.927h75.078l-1.986,2.927A6.575,6.575,0,0,1,13054.9,4596.524Zm-243.392-279.41a12.731,12.731,0,0,1,12.832-12.637h401.544a12.731,12.731,0,0,1,12.83,12.637v267.342h-427.206Z" transform="translate(-12755.513 -4297.962)" fill="#444545"/><path d="M13193.038,4308.175H12786.83v254.4h406.208Zm-3.136,251.257h-399.935V4311.556H13189.9Z" transform="translate(-12720.214 -4286.453)" fill="#444545"/></g><rect width="399.934" height="247.348" transform="translate(12825.266 4343.188)" fill="#e7e8e9"/><rect width="399.934" height="17.689" transform="translate(12825.266 4343.188)" fill="#33a96a"/><g transform="translate(13055.383 4316.99)"><g transform="matrix(1, 0, 0, 1, -307.37, -37.38)" filter="url(#a)"><rect width="212.655" height="168.065" rx="6.383" transform="translate(307.37 37.38)" fill="#fff"/></g><rect width="15.779" height="52.177" transform="translate(38.236 91.119)" fill="#f28e26"/><rect width="15.779" height="108.356" transform="translate(59.872 34.94)" fill="#cc809c"/><rect width="15.779" height="26.366" transform="translate(81.508 116.93)" fill="#ffe180"/><rect width="15.779" height="36.615" transform="translate(103.145 106.681)" fill="#26847c"/><rect width="15.779" height="83.683" transform="translate(124.781 59.613)" fill="#a2d1f0"/><rect width="15.779" height="29.782" transform="translate(146.417 113.514)" fill="#cc809c"/><rect width="15.779" height="22.95" transform="translate(168.054 120.346)" fill="#15b4e9"/></g><g transform="translate(12755.513 4280.108)"><g transform="matrix(1, 0, 0, 1, -7.5, -0.5)" filter="url(#c)"><rect width="267.931" height="275.286" rx="5.027" transform="translate(7.5 0.5)" fill="#fff"/></g><g transform="translate(22.771 20.229)"><g clip-path="url(#e)"><g transform="translate(5.293 6.847)"><circle cx="5.493" cy="5.493" r="5.493" transform="translate(4.163)" fill="#32ac6a" stroke="#32ac6a" stroke-miterlimit="10" stroke-width="0.581"/><path d="M12786.92,4309.424a1.087,1.087,0,0,0,1.091-1.2,9.723,9.723,0,0,0-19.3,0,1.086,1.086,0,0,0,1.086,1.2Z" transform="translate(-12768.707 -4285.098)" fill="#32ac6a" stroke="#32ac6a" stroke-miterlimit="10" stroke-width="0.581"/></g></g><circle cx="14.949" cy="14.949" r="14.949" fill="none" stroke="#444545" stroke-miterlimit="10" stroke-width="0.554"/></g><g transform="translate(22.771 62.283)"><g clip-path="url(#e)"><g transform="translate(5.293 6.848)"><circle cx="5.493" cy="5.493" r="5.493" transform="translate(4.163)" fill="#32ac6a" stroke="#32ac6a" stroke-miterlimit="10" stroke-width="0.581"/><path d="M12786.92,4329.194a1.088,1.088,0,0,0,1.091-1.2,9.723,9.723,0,0,0-19.3,0,1.086,1.086,0,0,0,1.086,1.2Z" transform="translate(-12768.707 -4304.869)" fill="#32ac6a" stroke="#32ac6a" stroke-miterlimit="10" stroke-width="0.581"/></g></g><circle cx="14.949" cy="14.949" r="14.949" fill="none" stroke="#444545" stroke-miterlimit="10" stroke-width="0.554"/></g><g transform="translate(22.771 104.337)"><g clip-path="url(#e)"><g transform="translate(5.293 6.847)"><circle cx="5.493" cy="5.493" r="5.493" transform="translate(4.163)" fill="#32ac6a" stroke="#32ac6a" stroke-miterlimit="10" stroke-width="0.581"/><path d="M12786.92,4348.967a1.088,1.088,0,0,0,1.091-1.2,9.723,9.723,0,0,0-19.3,0,1.086,1.086,0,0,0,1.086,1.2Z" transform="translate(-12768.707 -4324.641)" fill="#32ac6a" stroke="#32ac6a" stroke-miterlimit="10" stroke-width="0.581"/></g></g><circle cx="14.949" cy="14.949" r="14.949" fill="none" stroke="#444545" stroke-miterlimit="10" stroke-width="0.554"/></g><g transform="translate(22.771 146.39)"><g clip-path="url(#e)"><g transform="translate(5.293 6.848)"><circle cx="5.493" cy="5.493" r="5.493" transform="translate(4.163)" fill="#32ac6a" stroke="#32ac6a" stroke-miterlimit="10" stroke-width="0.581"/><path d="M12786.92,4368.736a1.087,1.087,0,0,0,1.091-1.2,9.723,9.723,0,0,0-19.3,0,1.086,1.086,0,0,0,1.086,1.2Z" transform="translate(-12768.707 -4344.412)" fill="#32ac6a" stroke="#32ac6a" stroke-miterlimit="10" stroke-width="0.581"/></g></g><circle cx="14.949" cy="14.949" r="14.949" fill="none" stroke="#444545" stroke-miterlimit="10" stroke-width="0.554"/></g><g transform="translate(22.771 188.444)"><g clip-path="url(#e)"><g transform="translate(5.293 6.848)"><circle cx="5.493" cy="5.493" r="5.493" transform="translate(4.163)" fill="#32ac6a" stroke="#32ac6a" stroke-miterlimit="10" stroke-width="0.581"/><path d="M12786.92,4388.506a1.086,1.086,0,0,0,1.091-1.2,9.723,9.723,0,0,0-19.3,0,1.085,1.085,0,0,0,1.086,1.2Z" transform="translate(-12768.707 -4364.181)" fill="#32ac6a" stroke="#32ac6a" stroke-miterlimit="10" stroke-width="0.581"/></g></g><circle cx="14.949" cy="14.949" r="14.949" fill="none" stroke="#444545" stroke-miterlimit="10" stroke-width="0.554"/></g><g transform="translate(22.771 230.498)"><g clip-path="url(#e)"><g transform="translate(5.293 6.847)"><circle cx="5.493" cy="5.493" r="5.493" transform="translate(4.163)" fill="#32ac6a" stroke="#32ac6a" stroke-miterlimit="10" stroke-width="0.581"/><path d="M12786.92,4408.278a1.088,1.088,0,0,0,1.091-1.2,9.723,9.723,0,0,0-19.3,0,1.087,1.087,0,0,0,1.086,1.2Z" transform="translate(-12768.707 -4383.952)" fill="#32ac6a" stroke="#32ac6a" stroke-miterlimit="10" stroke-width="0.581"/></g></g><circle cx="14.949" cy="14.949" r="14.949" fill="none" stroke="#444545" stroke-miterlimit="10" stroke-width="0.554"/></g><rect width="15.391" height="15.391" rx="3.618" transform="translate(65.551 27.166)" fill="#f28e26"/><rect width="143.625" height="22.111" rx="5.197" transform="translate(90.698 23.805)" fill="#e7e8e9"/><rect width="15.391" height="15.391" rx="3.618" transform="translate(65.551 69.219)" fill="#cc809c"/><rect width="143.625" height="22.111" rx="5.197" transform="translate(90.698 65.86)" fill="#e7e8e9"/><rect width="15.391" height="15.391" rx="3.618" transform="translate(65.551 111.273)" fill="#26847c"/><rect width="143.625" height="22.111" rx="5.197" transform="translate(90.698 107.913)" fill="#e7e8e9"/><rect width="15.391" height="15.391" rx="3.618" transform="translate(65.551 153.327)" fill="#a2d1f0"/><rect width="143.625" height="22.111" rx="5.197" transform="translate(90.698 149.967)" fill="#e7e8e9"/><rect width="15.391" height="15.391" rx="3.618" transform="translate(65.551 195.381)" fill="#ffe180"/><rect width="143.625" height="22.111" rx="5.197" transform="translate(90.698 192.021)" fill="#e7e8e9"/><rect width="15.391" height="15.391" rx="3.618" transform="translate(65.551 237.435)" fill="#cc809c"/><rect width="143.625" height="22.111" rx="5.197" transform="translate(90.698 234.074)" fill="#e7e8e9"/></g><g transform="translate(13055.383 4519.787)"><rect width="157.437" height="62.449" rx="5.088" fill="#fff"/><rect width="112.667" height="8.292" transform="translate(30.521 12.058)" fill="#e7e8e9"/><rect width="112.667" height="8.292" transform="translate(30.521 27.829)" fill="#e7e8e9"/><rect width="83.295" height="8.292" transform="translate(30.521 43.517)" fill="#e7e8e9"/><circle cx="5.446" cy="5.446" r="5.446" transform="translate(11.986 10.758)" fill="#e7e8e9"/><circle cx="5.446" cy="5.446" r="5.446" transform="translate(11.986 26.528)" fill="#e7e8e9"/><circle cx="5.446" cy="5.446" r="5.446" transform="translate(11.986 42.298)" fill="#e7e8e9"/></g></g></svg>