<svg xmlns="http://www.w3.org/2000/svg" xmlns:xlink="http://www.w3.org/1999/xlink" width="550" height="371.782" viewBox="0 0 550 371.782"><defs><clipPath id="a"><circle cx="26.947" cy="26.947" r="26.947" fill="none"/></clipPath><filter id="b" x="413.224" y="33.922" width="128.986" height="123.531" filterUnits="userSpaceOnUse"><feOffset dy="4.258" input="SourceAlpha"/><feGaussianBlur stdDeviation="1.521" result="c"/><feFlood flood-color="#231f20" flood-opacity="0.2"/><feComposite operator="in" in2="c"/><feComposite in="SourceGraphic"/></filter><filter id="d" x="412.477" y="206.197" width="130.481" height="165.585" filterUnits="userSpaceOnUse"><feOffset dy="4.956" input="SourceAlpha"/><feGaussianBlur stdDeviation="1.77" result="e"/><feFlood flood-color="#231f20" flood-opacity="0.2"/><feComposite operator="in" in2="e"/><feComposite in="SourceGraphic"/></filter><filter id="f" x="170.342" y="12.769" width="231.528" height="186.125" filterUnits="userSpaceOnUse"><feOffset dy="7" input="SourceAlpha"/><feGaussianBlur stdDeviation="2.5" result="g"/><feFlood flood-color="#231f20" flood-opacity="0.2"/><feComposite operator="in" in2="g"/><feComposite in="SourceGraphic"/></filter></defs><g transform="translate(-316.536 -335.428)"><g transform="translate(316.536 335.428)"><path d="M522.8,623.7H778.964V351.488A12.963,12.963,0,0,0,765.9,338.622H357.041a12.962,12.962,0,0,0-13.065,12.866V623.7H522.8Zm39.231-280.409a3,3,0,1,1-3,3A3,3,0,0,1,562.029,343.289ZM354.789,354.1H768.4V613.13H354.789Z" transform="translate(-286.962 -331.986)" fill="none"/><rect width="407.217" height="252.391" transform="translate(71.022 25.559)" fill="none"/><path d="M860.175,627.14H814.928V354.93a19.556,19.556,0,0,0-19.456-19.5H386.615a19.553,19.553,0,0,0-19.454,19.5V627.14H323.029a6.55,6.55,0,0,0-6.493,6.508v5.714a12.078,12.078,0,0,0,9.443,11.808l13.676,3.1a85.678,85.678,0,0,0,19.039,2.119H824.51a85.547,85.547,0,0,0,19.024-2.119l13.624-3.108a12.007,12.007,0,0,0,9.377-11.8v-5.714A6.435,6.435,0,0,0,860.175,627.14ZM341.1,648.016,327.392,644.9a5.725,5.725,0,0,1-4.467-5.535V633.53H545.942a6.2,6.2,0,0,0,1.157,3.74l2.02,2.932a13.1,13.1,0,0,0,10.7,5.616h61.554a13.063,13.063,0,0,0,10.7-5.587l2.02-2.957a6.209,6.209,0,0,0,1.157-3.744h224.9v5.832a5.668,5.668,0,0,1-4.4,5.537l-13.651,3.117A78.862,78.862,0,0,1,824.51,650H358.694A78.9,78.9,0,0,1,341.1,648.016Zm280.27-8.587H559.82a6.706,6.706,0,0,1-5.427-2.917l-2.019-2.982h76.448l-2.02,2.982A6.706,6.706,0,0,1,621.374,639.428ZM373.55,354.93a12.962,12.962,0,0,1,13.065-12.866H795.471a12.963,12.963,0,0,1,13.067,12.866V627.14H373.55Z" transform="translate(-316.536 -335.428)" fill="#444545"/><path d="M762.788,346.073H349.18V605.1H762.788Zm-3.2,255.833H352.376V349.514H759.592Z" transform="translate(-281.353 -323.955)" fill="#444545"/></g><rect width="407.217" height="251.852" transform="translate(387.558 360.987)" fill="#e7e8e9"/><rect width="94.445" height="251.852" transform="translate(387.558 360.987)" fill="#fff"/><g transform="translate(407.834 380.366)"><g clip-path="url(#a)"><circle cx="9.901" cy="9.901" r="9.901" transform="translate(17.046 12.343)" fill="#32ac6a" stroke="#32ac6a" stroke-miterlimit="10" stroke-width="0.581"/><path d="M397.9,393.191a1.96,1.96,0,0,0,1.961-2.167,17.526,17.526,0,0,0-34.782,0,1.961,1.961,0,0,0,1.961,2.167Z" transform="translate(-355.527 -336.997)" fill="#32ac6a" stroke="#32ac6a" stroke-miterlimit="10" stroke-width="0.581"/></g><circle cx="26.947" cy="26.947" r="26.947" fill="none" stroke="#444545" stroke-miterlimit="10" stroke-width="0.554"/></g><circle cx="6.456" cy="6.456" r="6.456" transform="translate(402.459 454.124)" fill="#e7e8e9"/><rect width="46.351" height="5.628" transform="translate(420.752 457.766)" fill="#e7e8e9"/><circle cx="6.456" cy="6.456" r="6.456" transform="translate(402.459 471.69)" fill="#e7e8e9"/><rect width="46.351" height="5.628" transform="translate(420.752 475.332)" fill="#e7e8e9"/><circle cx="6.456" cy="6.456" r="6.456" transform="translate(402.459 489.256)" fill="#e7e8e9"/><rect width="46.351" height="5.628" transform="translate(420.752 492.898)" fill="#e7e8e9"/><circle cx="6.456" cy="6.456" r="6.456" transform="translate(402.459 506.822)" fill="#e7e8e9"/><circle cx="6.456" cy="6.456" r="6.456" transform="translate(428.325 558.47)" fill="#e7e8e9"/><rect width="46.351" height="5.628" transform="translate(420.752 510.464)" fill="#e7e8e9"/><g transform="translate(734.323 369.655)"><g transform="matrix(1, 0, 0, 1, -417.79, -34.23)" filter="url(#b)"><rect width="119.86" height="114.406" rx="4.048" transform="translate(417.79 34.23)" fill="#fff"/></g><g transform="matrix(1, 0, 0, 1, -417.79, -34.23)" filter="url(#d)"><rect width="119.86" height="154.965" rx="4.711" transform="translate(417.79 206.55)" fill="#fff"/></g><rect width="20.181" height="27.963" transform="translate(21.552 70.813)" fill="#a2d1f0"/><rect width="20.181" height="77.874" transform="translate(49.223 20.902)" fill="#cc809c"/><rect width="20.181" height="55.643" transform="translate(76.895 43.133)" fill="#ffe180"/><path d="M565.482,482.373,587.1,512.715a37.261,37.261,0,1,1,3.553-57.74Z" transform="translate(-506.162 -251.408)" fill="#a2d1f0"/><path d="M585.472,476.794a36.79,36.79,0,0,1-1.45,10.308l-35.779-10.308,25.166-27.4A36.957,36.957,0,0,1,585.472,476.794Z" transform="translate(-484.594 -246.822)" fill="#cc809c"/><path d="M584.986,474.923a37.231,37.231,0,0,1-14.164,20.034l-21.615-30.344Z" transform="translate(-483.554 -230.421)" fill="#ffe180"/><rect width="89.723" height="9.932" rx="2.39" transform="translate(14.908 278.152)" fill="#e7e8e9"/><rect width="62.616" height="9.932" rx="2.39" transform="translate(14.908 298.265)" fill="#e7e8e9"/></g><g transform="translate(494.378 542.691)"><rect width="216.528" height="52.698" rx="3.692" fill="#fff"/><rect width="187.971" height="7.102" transform="translate(13.906 12.125)" fill="#e7e8e9"/><rect width="140.626" height="7.102" transform="translate(13.906 12.125)" fill="#ffe180"/><rect width="187.971" height="7.102" transform="translate(13.906 31.641)" fill="#e7e8e9"/><rect width="98.414" height="7.102" transform="translate(13.906 31.641)" fill="#ffe180"/><line y2="13.022" transform="translate(154.533 9.553)" fill="none" stroke="#ffe180" stroke-linecap="round" stroke-linejoin="round" stroke-width="0.386"/><line y2="13.022" transform="translate(112.32 28.166)" fill="none" stroke="#ffe180" stroke-linecap="round" stroke-linejoin="round" stroke-width="0.386"/></g><g transform="translate(494.378 348.697)"><g transform="matrix(1, 0, 0, 1, -177.84, -13.27)" filter="url(#f)"><rect width="216.528" height="171.125" rx="6.653" transform="translate(177.84 13.27)" fill="#fff"/></g><rect width="76.463" height="10.895" rx="2.622" transform="translate(23.759 28.883)" fill="#e7e8e9"/><rect width="76.463" height="10.895" rx="2.622" transform="translate(23.759 44.347)" fill="#e7e8e9"/><rect width="33.108" height="10.895" rx="2.622" transform="translate(23.759 62.278)" fill="#e7e8e9"/><path d="M432.264,445.641,480.6,401.8l46.682,14.659L569.993,368.4l21.851,17.931V453.45H411.571v-6.07Z" transform="translate(-391.951 -313.159)" fill="#21aee4"/><circle cx="4.056" cy="4.056" r="4.056" transform="translate(15.647 130.111)" fill="#ffe180"/><circle cx="4.056" cy="4.056" r="4.056" transform="translate(84.678 84.533)" fill="#ffe180"/><circle cx="4.056" cy="4.056" r="4.056" transform="translate(174.235 51.187)" fill="#ffe180"/><circle cx="4.056" cy="4.056" r="4.056" transform="translate(195.838 69.118)" fill="#ffe180"/><circle cx="4.056" cy="4.056" r="4.056" transform="translate(36.257 128.427)" fill="#ffe180"/><circle cx="4.056" cy="4.056" r="4.056" transform="translate(130.946 98.376)" fill="#ffe180"/></g></g></svg>