<svg xmlns="http://www.w3.org/2000/svg" xmlns:xlink="http://www.w3.org/1999/xlink" width="509.051" height="400" viewBox="0 0 509.051 400"><defs><clipPath id="a"><circle cx="12.612" cy="12.612" r="12.612" transform="translate(14416.366 1608.532)" fill="none"/></clipPath><linearGradient id="b" x1="0.5" y1="0.053" x2="0.5" y2="0.966" gradientUnits="objectBoundingBox"><stop offset="0" stop-color="#96d4ea"/><stop offset="0.495" stop-color="#ffecbf"/><stop offset="1" stop-color="#e6ba8a"/></linearGradient></defs><g transform="translate(-767.449 -222)"><line x2="230" transform="translate(814.5 595.5)" fill="none" stroke="#707070" stroke-width="1" opacity="0.5"/><line x2="75" transform="translate(1029.5 621.5)" fill="none" stroke="#707070" stroke-width="1" opacity="0.5"/><line x2="121" transform="translate(1062.5 595.5)" fill="none" stroke="#707070" stroke-width="1" opacity="0.5"/><g transform="translate(-13628.087 -1323.161)"><g opacity="0.28" style="mix-blend-mode:multiply;isolation:isolate"><path d="M14903.108,1597.375v203.736a6.915,6.915,0,0,1-6.944,6.882h-493.686a6.914,6.914,0,0,1-6.942-6.882V1597.375a6.915,6.915,0,0,1,6.942-6.883h493.686A6.916,6.916,0,0,1,14903.108,1597.375Z" fill="#70678e"/></g><path d="M0,0H125.123a6.913,6.913,0,0,1,6.913,6.913V210.587a6.913,6.913,0,0,1-6.913,6.913H0a0,0,0,0,1,0,0V0A0,0,0,0,1,0,0Z" transform="translate(14771.072 1582.987)" fill="#70678e"/><path d="M14771.071,1582.991v217.5h-368.62a6.914,6.914,0,0,1-6.91-6.92V1589.9a6.905,6.905,0,0,1,6.91-6.91Z" fill="#eed3df"/><rect width="29.428" height="14.35" rx="1.687" transform="translate(14832.553 1639.537)" fill="#fffffd"/><text transform="translate(14836.116 1648.971)" fill="#70678e" font-size="6.473" font-family="OpenSans-Bold, Open Sans" font-weight="700"><tspan x="0" y="0">3:30pm</tspan></text><g opacity="0.43" style="mix-blend-mode:multiply;isolation:isolate"><rect width="29.428" height="14.35" rx="1.687" transform="translate(14798.836 1605.178)" fill="#70678e"/><rect width="21.302" height="3.922" rx="1.961" transform="translate(14803.007 1610.365)" fill="#70678e"/><rect width="29.428" height="14.35" rx="1.687" transform="translate(14832.553 1605.178)" fill="#70678e"/><rect width="21.302" height="3.922" rx="1.961" transform="translate(14836.724 1610.365)" fill="#70678e"/><rect width="29.428" height="14.35" rx="1.687" transform="translate(14866.271 1605.178)" fill="#70678e"/><rect width="21.302" height="3.922" rx="1.961" transform="translate(14870.441 1610.365)" fill="#70678e"/><rect width="29.428" height="14.35" rx="1.687" transform="translate(14798.836 1623.678)" fill="#70678e"/><rect width="21.302" height="3.922" rx="1.961" transform="translate(14803.007 1628.865)" fill="#70678e"/><rect width="29.428" height="14.35" rx="1.687" transform="translate(14832.553 1623.678)" fill="#70678e"/><rect width="21.302" height="3.922" rx="1.961" transform="translate(14836.724 1628.865)" fill="#70678e"/><rect width="29.428" height="14.35" rx="1.687" transform="translate(14866.271 1623.678)" fill="#70678e"/><rect width="21.302" height="3.922" rx="1.961" transform="translate(14870.441 1628.865)" fill="#70678e"/><rect width="29.428" height="14.35" rx="1.687" transform="translate(14798.836 1642.177)" fill="#70678e"/><rect width="21.302" height="3.922" rx="1.961" transform="translate(14803.007 1647.364)" fill="#70678e"/><rect width="29.428" height="14.35" rx="1.687" transform="translate(14798.836 1660.677)" fill="#70678e"/><rect width="21.302" height="3.922" rx="1.961" transform="translate(14803.007 1665.863)" fill="#70678e"/><rect width="29.428" height="14.35" rx="1.687" transform="translate(14832.553 1660.677)" fill="#70678e"/><rect width="21.302" height="3.922" rx="1.961" transform="translate(14836.724 1665.863)" fill="#70678e"/><rect width="29.428" height="14.35" rx="1.687" transform="translate(14866.271 1660.677)" fill="#70678e"/><rect width="21.302" height="3.922" rx="1.961" transform="translate(14870.441 1665.863)" fill="#70678e"/><rect width="29.428" height="14.35" rx="1.687" transform="translate(14798.836 1679.176)" fill="#70678e"/><rect width="21.302" height="3.922" rx="1.961" transform="translate(14803.007 1684.363)" fill="#70678e"/><rect width="29.428" height="14.35" rx="1.687" transform="translate(14832.553 1679.176)" fill="#70678e"/><rect width="21.302" height="3.922" rx="1.961" transform="translate(14836.724 1684.363)" fill="#70678e"/><rect width="29.428" height="14.35" rx="1.687" transform="translate(14866.271 1679.176)" fill="#70678e"/><rect width="21.302" height="3.922" rx="1.961" transform="translate(14870.441 1684.363)" fill="#70678e"/><rect width="29.428" height="14.35" rx="1.687" transform="translate(14798.836 1697.676)" fill="#70678e"/><rect width="21.302" height="3.922" rx="1.961" transform="translate(14803.007 1702.862)" fill="#70678e"/><rect width="29.428" height="14.35" rx="1.687" transform="translate(14832.553 1697.676)" fill="#70678e"/><rect width="21.302" height="3.922" rx="1.961" transform="translate(14836.724 1702.862)" fill="#70678e"/><rect width="29.428" height="14.35" rx="1.687" transform="translate(14866.271 1697.676)" fill="#70678e"/><rect width="21.302" height="3.922" rx="1.961" transform="translate(14870.441 1702.862)" fill="#70678e"/><rect width="29.428" height="14.35" rx="1.687" transform="translate(14798.836 1716.175)" fill="#70678e"/><rect width="21.302" height="3.922" rx="1.961" transform="translate(14803.007 1721.362)" fill="#70678e"/><rect width="29.428" height="14.35" rx="1.687" transform="translate(14832.553 1716.175)" fill="#70678e"/><rect width="21.302" height="3.922" rx="1.961" transform="translate(14836.724 1721.362)" fill="#70678e"/><rect width="29.428" height="14.35" rx="1.687" transform="translate(14866.271 1716.175)" fill="#70678e"/><rect width="21.302" height="3.922" rx="1.961" transform="translate(14870.441 1721.362)" fill="#70678e"/><rect width="29.428" height="14.35" rx="1.687" transform="translate(14798.836 1734.675)" fill="#70678e"/><rect width="21.302" height="3.922" rx="1.961" transform="translate(14803.007 1739.861)" fill="#70678e"/></g><rect width="29.428" height="14.35" rx="1.687" transform="translate(14798.836 1602.538)" fill="#ffecbf"/><rect width="21.302" height="3.922" rx="1.961" transform="translate(14803.007 1607.725)" fill="#e6ba8a"/><rect width="29.428" height="14.35" rx="1.687" transform="translate(14832.553 1602.538)" fill="#ffecbf"/><rect width="21.302" height="3.922" rx="1.961" transform="translate(14836.724 1607.725)" fill="#e6ba8a"/><rect width="29.428" height="14.35" rx="1.687" transform="translate(14866.271 1602.538)" fill="#ffecbf"/><rect width="21.302" height="3.922" rx="1.961" transform="translate(14870.441 1607.725)" fill="#e6ba8a"/><rect width="29.428" height="14.35" rx="1.687" transform="translate(14798.836 1621.037)" fill="#ffecbf"/><rect width="21.302" height="3.922" rx="1.961" transform="translate(14803.007 1626.224)" fill="#e6ba8a"/><rect width="29.428" height="14.35" rx="1.687" transform="translate(14832.553 1621.037)" fill="#ffecbf"/><rect width="21.302" height="3.922" rx="1.961" transform="translate(14836.724 1626.224)" fill="#e6ba8a"/><rect width="29.428" height="14.35" rx="1.687" transform="translate(14866.271 1621.037)" fill="#ffecbf"/><rect width="21.302" height="3.922" rx="1.961" transform="translate(14870.441 1626.224)" fill="#e6ba8a"/><rect width="29.428" height="14.35" rx="1.687" transform="translate(14798.836 1639.537)" fill="#ffecbf"/><rect width="21.302" height="3.922" rx="1.961" transform="translate(14803.007 1644.724)" fill="#e6ba8a"/><rect width="29.428" height="14.35" rx="1.687" transform="translate(14798.836 1658.036)" fill="#ffecbf"/><rect width="21.302" height="3.922" rx="1.961" transform="translate(14803.007 1663.223)" fill="#e6ba8a"/><rect width="29.428" height="14.35" rx="1.687" transform="translate(14832.553 1658.036)" fill="#ffecbf"/><rect width="21.302" height="3.922" rx="1.961" transform="translate(14836.724 1663.223)" fill="#e6ba8a"/><rect width="29.428" height="14.35" rx="1.687" transform="translate(14866.271 1658.036)" fill="#ffecbf"/><rect width="21.302" height="3.922" rx="1.961" transform="translate(14870.441 1663.223)" fill="#e6ba8a"/><rect width="29.428" height="14.35" rx="1.687" transform="translate(14798.836 1676.536)" fill="#ffecbf"/><rect width="21.302" height="3.922" rx="1.961" transform="translate(14803.007 1681.723)" fill="#e6ba8a"/><rect width="29.428" height="14.35" rx="1.687" transform="translate(14832.553 1676.536)" fill="#ffecbf"/><rect width="21.302" height="3.922" rx="1.961" transform="translate(14836.724 1681.723)" fill="#e6ba8a"/><rect width="29.428" height="14.35" rx="1.687" transform="translate(14866.271 1676.536)" fill="#ffecbf"/><rect width="21.302" height="3.922" rx="1.961" transform="translate(14870.441 1681.723)" fill="#e6ba8a"/><rect width="29.428" height="14.35" rx="1.687" transform="translate(14798.836 1695.035)" fill="#ffecbf"/><rect width="21.302" height="3.922" rx="1.961" transform="translate(14803.007 1700.222)" fill="#e6ba8a"/><rect width="29.428" height="14.35" rx="1.687" transform="translate(14832.553 1695.035)" fill="#ffecbf"/><rect width="21.302" height="3.922" rx="1.961" transform="translate(14836.724 1700.222)" fill="#e6ba8a"/><rect width="29.428" height="14.35" rx="1.687" transform="translate(14866.271 1695.035)" fill="#ffecbf"/><rect width="21.302" height="3.922" rx="1.961" transform="translate(14870.441 1700.222)" fill="#e6ba8a"/><rect width="29.428" height="14.35" rx="1.687" transform="translate(14798.836 1713.535)" fill="#ffecbf"/><rect width="21.302" height="3.922" rx="1.961" transform="translate(14803.007 1718.722)" fill="#e6ba8a"/><rect width="29.428" height="14.35" rx="1.687" transform="translate(14832.553 1713.535)" fill="#ffecbf"/><rect width="21.302" height="3.922" rx="1.961" transform="translate(14836.724 1718.722)" fill="#e6ba8a"/><rect width="29.428" height="14.35" rx="1.687" transform="translate(14866.271 1713.535)" fill="#ffecbf"/><rect width="21.302" height="3.922" rx="1.961" transform="translate(14870.441 1718.722)" fill="#e6ba8a"/><rect width="29.428" height="14.35" rx="1.687" transform="translate(14798.836 1732.034)" fill="#ffecbf"/><rect width="21.302" height="3.922" rx="1.961" transform="translate(14803.007 1737.221)" fill="#e6ba8a"/><path d="M0,0H351.663a0,0,0,0,1,0,0V20.092a6.75,6.75,0,0,1-6.75,6.75H6.75A6.75,6.75,0,0,1,0,20.092V0A0,0,0,0,1,0,0Z" transform="translate(14408.503 1695.534)" fill="#e6ba8a" opacity="0.41" style="mix-blend-mode:multiply;isolation:isolate"/><rect width="351.663" height="95.685" rx="7.386" transform="translate(14408.503 1603.558)" fill="#fff"/><path d="M0,0H351.663a0,0,0,0,1,0,0V20.092a6.75,6.75,0,0,1-6.75,6.75H6.75A6.75,6.75,0,0,1,0,20.092V0A0,0,0,0,1,0,0Z" transform="translate(14408.503 1689.791)" fill="#ffecbf"/><path d="M7,0H344.666a7,7,0,0,1,7,7V35.054a0,0,0,0,1,0,0H0a0,0,0,0,1,0,0V7A7,7,0,0,1,7,0Z" transform="translate(14408.503 1603.558)" fill="#e3f0f6"/><circle cx="12.612" cy="12.612" r="12.612" transform="translate(14416.366 1608.532)" fill="#fff"/><g clip-path="url(#a)"><path d="M14429.745,1651.269l-1.7,1a4.017,4.017,0,0,0-.167,2.005c.231.889,1.42,1.214,1.42,1.214l1.958-1.373Z" fill="#eed3df" fill-rule="evenodd"/><path d="M14429.94,1650.662a5.291,5.291,0,0,0-.821,3.038c.228,1.382.293,1.792.293,1.792l1.846-1.374Z" fill="#eebbce" fill-rule="evenodd"/><path d="M14445.965,1653.7l.592,1.644c.4.166.19.387.578.481a5.068,5.068,0,0,0,1.491.056l1.031-1.471-.473-1.672Z" fill="#eed3df" fill-rule="evenodd"/><path d="M14446.042,1653.787a15.094,15.094,0,0,1,2,.209c.637.166,1.2,1.331,1.2,1.331l.382-.992-.444-1.669Z" fill="#eebbce" fill-rule="evenodd"/><path d="M14424.358,1637.849a1.687,1.687,0,0,1-.395.788c-2.635,3.053-2.036,7.744,2.329,8.226a18.56,18.56,0,0,0,5.967-.723,14.051,14.051,0,0,0-1.231,1.171,18.076,18.076,0,0,0-1.644,2.267c.009,3.019.843,5.155,3.154,5.847,1.224-1.27,2.469-2.5,4.172-4.074a34.471,34.471,0,0,0,3.151-3.565,63.666,63.666,0,0,0,2.105,6.325,15.094,15.094,0,0,0,7.688-1.478c-.649-2.036-5.71-10.187-7.818-13.109a1.3,1.3,0,0,0-.953-.591,35.973,35.973,0,0,0-8.51.558c-.156.035.06-.411-.164-.394a3.17,3.17,0,0,0-.92.23s-.834-2.092-2.629-2.267C14425.448,1636.748,14424.358,1637.849,14424.358,1637.849Z" fill="#714d63" fill-rule="evenodd"/><path d="M14449.59,1653.98s-2.213,1.079-3,.859c-.1-.027-.268-.109-.281-.07-.037.113.233.68.413,2.2.025.209-.268.449-.205.678.053.189.169.639.244.859.621,1.812.787,1.733.912,1.789a1.668,1.668,0,0,0,.541-.005l-.682-2.232s.522-.141.694.141.644,1.522,1.244,1.726,3.354.444,3.964-.387a1.443,1.443,0,0,0,.151-.906,1.78,1.78,0,0,0-.865-.222,1.957,1.957,0,0,1-1.217-.441A14,14,0,0,1,14449.59,1653.98Z" fill="#714d63" fill-rule="evenodd"/><path d="M14429.451,1655.492c-.261.006-2.108-.59-1.249-3.319-.252.162-1.284.552-2.2,1.058a12.8,12.8,0,0,0-2.3,1.678l-.084.625.494.209c.025-.011,1.375-1.011,1.78-1.257.131-.08-1.441,1.1-1.773,1.353a4.845,4.845,0,0,0-1.075,1.343c-1.4,2.473.84,3.253,1.347,3.468.488.206.985-.756.985-.756a1.53,1.53,0,0,0,.1-.559c-.05-.433.368-.914,1.512-1.938C14427.8,1656.666,14429.451,1655.492,14429.451,1655.492Z" fill="#714d63" fill-rule="evenodd"/><path d="M14451.562,1659.993s-.713,0-.849-.011a3.191,3.191,0,0,1-.433-.062c.266-.527,1.413-.88,1.413-.88l-.132.953Zm-2.858-1.183c-.186-.217-.25-.789-.69-.92l1.619-.164s-.828,1.013-.929,1.083Zm-1.559.367-.163-.518.5.2-.342.317Zm1.11-2.964s-1.185,1.078-1.479,1.057a1.446,1.446,0,0,0-.012-.934s.934-.1,1.49-.123Zm-21.56-1.017c.4.341,1.408,1.051,1.408,1.051l-.36.329s-.236-.224-.46-.394-.99-1.327-.588-.986Zm-2.506,2.769c1.565-.178,1.714.261,1.714.261l-.463.552-.911-.488s-.677-.286-.34-.325Zm-1.421.993s-.125-.764.046-.805c.4-.1.713.612.713.612l-.759.194Zm1.53-4.386a1.544,1.544,0,0,1,.256-.2l-.063.4S14424.246,1654.638,14424.3,1654.572Zm-.828,2.272a3.063,3.063,0,0,1,.479-.7,3.516,3.516,0,0,1,1.264.837s-1.333.18-1.742-.141Zm3.976-.038s-1.5-.928-2.042-.565a6.4,6.4,0,0,1,1.057,1.353l.986-.788Zm-1.332-2.861c-.366.006-.354-.4-.354-.4a7.259,7.259,0,0,1,.93-.469c.049.02-.209.859-.574.865Zm1,.757a4.553,4.553,0,0,0,1.335,1.315l.341-.211a4.086,4.086,0,0,1-1.315-1.3,5.126,5.126,0,0,1-.131-1.807l-.394.23a4.678,4.678,0,0,0,.164,1.774Zm19.548,1.019a1.813,1.813,0,0,1-.065-.362c0-.024.867.446,3.035-.723a3.132,3.132,0,0,1,.119.362s-1.934,1.08-3.088.723Zm2.428.532a3.009,3.009,0,0,0,1.088-.3l-.263-.559s-1.1.8-.825.861Zm.715,2.448c.032.132,1.261-1.146,1.261-1.146l-.452-.816S14449.629,1657.948,14449.809,1658.7Zm1.038-.122.449-.688c0,.034.107.146.26.3.1.1.345.175.33.222-.034.121-1.039.162-1.039.162Zm1.569.394.027-.427.4.023Z" fill="#80779c" fill-rule="evenodd"/><path d="M14424.818,1660.387s-.149-.944-.428-.723-.2.723-.2.723S14424.557,1660.691,14424.818,1660.387Z" fill="#80779c" fill-rule="evenodd"/><path d="M14438.911,1641.195a6.355,6.355,0,0,0-1.544.9,2.106,2.106,0,0,0-.609,1.887.8.8,0,0,0,.447.568Z" fill="#714d63" fill-rule="evenodd"/><path d="M14427.085,1646.72c-.528-.452-2.009-2.149-2.009-2.149a6.443,6.443,0,0,1-.192-1.564,14.609,14.609,0,0,1,1.348-.69s-.105-.124,1.215-.723c1.295-.587,3.674.36,3.674.36a10.466,10.466,0,0,1-.021,3.246,13.287,13.287,0,0,1-2.142,1.092C14428.719,1646.358,14427.276,1646.883,14427.085,1646.72Z" fill="#714d63" fill-rule="evenodd"/><path d="M14439.86,1647.781c.5,1.692,1.142,3.756,2.107,6.331,1.915.435,6.3-.616,7.688-1.478-.622-2.111-5.71-10.188-7.818-13.109a1.3,1.3,0,0,0-.953-.592,36.039,36.039,0,0,0-8.51.559c-.156.034.06-.412-.164-.394a3.172,3.172,0,0,0-.92.229s-.834-2.092-2.629-2.267c-3.214-.313-4.3.789-4.3.789a1.669,1.669,0,0,1-.395.788c-2.635,3.053-2.036,7.744,2.329,8.226a18.507,18.507,0,0,0,5.924-.712m17.373,7.829s-2.213,1.079-3,.859c-.1-.027-.268-.109-.281-.07-.037.113.233.68.413,2.2.025.21-.268.45-.205.679.053.189.169.639.244.859.621,1.812.787,1.732.912,1.789a1.668,1.668,0,0,0,.541-.005l-.682-2.232s.522-.141.694.141.644,1.522,1.244,1.726,3.354.444,3.964-.387a1.443,1.443,0,0,0,.151-.906,1.78,1.78,0,0,0-.865-.222,1.957,1.957,0,0,1-1.217-.441,14.013,14.013,0,0,1-1.91-3.993Zm-20.14,1.512c-.261.006-2.107-.59-1.248-3.319-.253.162-1.284.553-2.2,1.058a12.731,12.731,0,0,0-2.3,1.678l-.084.625.494.21c.025-.012,1.375-1.012,1.78-1.258.131-.08-1.441,1.1-1.773,1.353a4.845,4.845,0,0,0-1.075,1.343c-1.4,2.473.84,3.253,1.347,3.468.488.206.985-.756.985-.756a1.528,1.528,0,0,0,.1-.558c-.05-.433.367-.915,1.512-1.939.816-.731,2.464-1.906,2.464-1.906Zm6.72-12.513a38.021,38.021,0,0,0-5.143,4.332,18.193,18.193,0,0,0-1.644,2.267c.01,3.019.844,5.155,3.154,5.847,1.224-1.27,2.47-2.5,4.173-4.074a35.2,35.2,0,0,0,5.224-6.571,3,3,0,0,0-2.069-4.238,28.393,28.393,0,0,0-11.544.566,3.523,3.523,0,0,0-1.423.747m21.777,8.637c-.4.233-5.072,2.019-7.516,1.375m-7.351,2.263c-1.314-.326-3.01-2.336-3.051-6.506m-2.207-6.58a3.521,3.521,0,0,0-1.537.176m7.325,3.121a3.328,3.328,0,0,1,1.063-1.595m-11.784,12.787a15.952,15.952,0,0,1,2.19-1.487,1.514,1.514,0,0,0,.09.436" fill="none" stroke="#fcfcfc" stroke-linecap="round" stroke-linejoin="round" stroke-width="0.131"/><path d="M14430.616,1632.576a26.2,26.2,0,0,1,2.8,2.66c-1.94,1.359-2.28,2.15-1.869,3.079a4.8,4.8,0,0,1-1.327-1.4,14.6,14.6,0,0,0-1.341-1.945S14428.9,1632.378,14430.616,1632.576Z" fill="#e2c0cd" fill-rule="evenodd"/><path d="M14433.62,1635.149a4.005,4.005,0,0,0-.518.769,4.126,4.126,0,0,0-.121.866c-.136-.066-.011-.94-.011-.94S14433.392,1635.189,14433.62,1635.149Z" fill="#e2c0cd" fill-rule="evenodd"/><path d="M14424.621,1633.709l2,1.676c-.729-.378-1.823.47-2.037.69a1.645,1.645,0,0,0-.064,2.07,5.566,5.566,0,0,1-.986-.723C14422.795,1636.767,14424.245,1633.71,14424.621,1633.709Z" fill="#e2c0cd" fill-rule="evenodd"/><path d="M14426.815,1635.186s-.7,1.023-.567,1.368C14426.358,1636.839,14425.854,1636.052,14426.815,1635.186Z" fill="#e2c0cd" fill-rule="evenodd"/><path d="M14433.525,1634.6s-.432.488-.889.92c-.75.71-2.145,1.907-2.2,1.939C14430.345,1637.505,14432.765,1635.152,14433.525,1634.6Z" fill="#e2c0cd" fill-rule="evenodd"/><path d="M14421.861,1631.541s-2.253,2.5,1.841,6.045c-.214-1.035.744-2.978,2.036-2.99a10.786,10.786,0,0,1-1.248-1.084,4.68,4.68,0,0,0-1.38-1.709A1.716,1.716,0,0,0,14421.861,1631.541Z" fill="#5b5474" fill-rule="evenodd"/><path d="M14427.709,1630.292a2.422,2.422,0,0,0,.953.723,4.642,4.642,0,0,1,1.873,1.018,5.036,5.036,0,0,1,.788,1.084s-.169.092-.525.263a10.235,10.235,0,0,1-1.117.427Z" fill="#70678d" fill-rule="evenodd"/><path d="M14424.752,1629.307a1.727,1.727,0,0,0-.328.361c-.248.392-2.061,1.126-2.693,2.1.458-.128.981-.59,2.1.723a5.723,5.723,0,0,1,.592.92,27.96,27.96,0,0,0,2.2,1.971,6.157,6.157,0,0,1,2.464-1.315c1.031-.427,1.514-.532,1.479-.953-.056-.657-1.3-1.477-2.433-2.332-.227-.172-.179-.364-.427-.526-.191-.033-.228-.163-.328-.065C14426.713,1630.841,14425.48,1629.649,14424.752,1629.307Z" fill="#70678d" fill-rule="evenodd"/><path d="M14429.812,1633.775a4.637,4.637,0,0,0-.623-1.511c.2.032.706,1,.787,1.413C14430.007,1633.651,14429.886,1633.742,14429.812,1633.775Z" fill="#5b5474" fill-rule="evenodd"/><path d="M14429.911,1632.231s-.112.856-.2.788-.153-.1-.131-.2A3.519,3.519,0,0,0,14429.911,1632.231Z" fill="#5b5474" fill-rule="evenodd"/><path d="M14425.311,1634.349a2.7,2.7,0,0,0-1.347.707c-.766.682-.648,1.855-.723,1.61A2,2,0,0,1,14425.311,1634.349Z" fill="#70678d" fill-rule="evenodd"/><path d="M14424.654,1632.658s.077,1-.033.986-.089-.117-.132-.165S14424.7,1632.809,14424.654,1632.658Z" fill="#5b5474" fill-rule="evenodd"/><path d="M14424.654,1630.259s1.221,2.454,2.957,1.709a1.126,1.126,0,0,0,.394-1.15.993.993,0,0,1-1.117,1.183C14425.828,1632.015,14424.9,1630.589,14424.654,1630.259Z" fill="#5b5474" fill-rule="evenodd"/><path d="M14424.721,1634.707a.114.114,0,1,1-.13.1l.006-.022A.1.1,0,0,1,14424.721,1634.707Zm-.46-1.249a.114.114,0,1,1-.13.1l.006-.022A.1.1,0,0,1,14424.261,1633.458Zm-.559,2.169a.114.114,0,1,1-.129.1l.006-.022A.1.1,0,0,1,14423.7,1635.627Zm-.274-1.644a.115.115,0,0,1-.1-.13.113.113,0,0,1,.13-.095.111.111,0,0,1,.095.129l0,.022A.1.1,0,0,1,14423.428,1633.983Zm-.054,1.33a.113.113,0,0,1,.034-.224.114.114,0,0,1,.1.129l-.006.022A.1.1,0,0,1,14423.374,1635.313Zm-.034,1.4a.114.114,0,0,1-.033.225.114.114,0,0,1-.1-.129l.006-.022A.1.1,0,0,1,14423.34,1636.711Zm-.071-2.289a.113.113,0,1,1-.129.095l0-.021A.1.1,0,0,1,14423.269,1634.422Zm-.284,1.788a.12.12,0,1,1-.136.1.073.073,0,0,1,.007-.025A.106.106,0,0,1,14422.984,1636.21Zm-.295-1.315a.11.11,0,0,1,.05.144.1.1,0,1,1-.18-.065A.109.109,0,0,1,14422.689,1634.9Zm-.047-1.7a.114.114,0,1,1-.13.1l.006-.023A.1.1,0,0,1,14422.643,1633.2Zm-.912,1.572a.114.114,0,0,1-.033.225.114.114,0,0,1-.1-.129l.007-.022A.1.1,0,0,1,14421.73,1634.772Zm-.217-.666a.114.114,0,1,1-.033.225.113.113,0,0,1-.1-.129l0-.022A.1.1,0,0,1,14421.514,1634.106Zm-.154-.931a.114.114,0,0,1-.1-.129.116.116,0,0,1,.13-.1.114.114,0,0,1,.1.13l0,.021A.1.1,0,0,1,14421.359,1633.175Zm.259.326a.116.116,0,0,1,.1.13.114.114,0,1,1-.225-.034l0-.022A.1.1,0,0,1,14421.618,1633.5Zm.015-1.353a.115.115,0,0,1-.1-.13.114.114,0,0,1,.225.034l0,.022A.1.1,0,0,1,14421.633,1632.148Zm.1.728a.114.114,0,0,1,.032-.226.116.116,0,0,1,.1.13l-.006.022A.1.1,0,0,1,14421.737,1632.876Zm.27,2.446a.113.113,0,0,1,.1.129.114.114,0,0,1-.226-.033l.006-.022A.1.1,0,0,1,14422.007,1635.322Zm.082-1.479a.113.113,0,0,1,.1.129.114.114,0,0,1-.226-.033l.006-.022A.1.1,0,0,1,14422.089,1633.843Zm-.039-1.883a.115.115,0,0,1-.1-.13.113.113,0,0,1,.13-.095.112.112,0,0,1,.095.129l-.006.022A.1.1,0,0,1,14422.05,1631.96Zm0,1.379a.113.113,0,1,1,.129-.095l-.006.021A.1.1,0,0,1,14422.05,1633.339Zm.065,1.479a.114.114,0,1,1,.034-.225.114.114,0,0,1,.095.129l0,.022A.1.1,0,0,1,14422.115,1634.818Zm.272,1.072a.114.114,0,1,1-.032.225.115.115,0,0,1-.1-.13l0-.022A.1.1,0,0,1,14422.388,1635.89Zm.063-3.619a.114.114,0,0,1,.1.129.114.114,0,1,1-.225-.033l0-.022A.1.1,0,0,1,14422.451,1632.271Zm0-.958a.113.113,0,0,1-.1-.129.114.114,0,1,1,.226.034l-.006.021A.1.1,0,0,1,14422.454,1631.313Zm.118.505a.114.114,0,0,1-.1-.129.116.116,0,0,1,.131-.1.114.114,0,0,1,.095.13l0,.022A.1.1,0,0,1,14422.572,1631.818Zm.093,2.372a.113.113,0,0,1-.1-.129.114.114,0,0,1,.226.033l-.006.022A.1.1,0,0,1,14422.665,1634.19Zm.3,1.442a.1.1,0,0,1-.134.032.1.1,0,0,1,.084-.176A.109.109,0,0,1,14422.969,1635.632Zm.127-3a.114.114,0,1,1-.129.1l.006-.022A.1.1,0,0,1,14423.1,1632.634Zm-.062-.6a.114.114,0,0,1,.034-.225.114.114,0,0,1,.1.129l-.006.022A.1.1,0,0,1,14423.034,1632.029Zm.105,1.44a.114.114,0,0,1,.033-.225.113.113,0,0,1,.1.129l-.006.022A.1.1,0,0,1,14423.14,1633.469Zm.267-2.475a.114.114,0,1,1-.129.1l.006-.022A.1.1,0,0,1,14423.406,1630.994Zm-.014-.3a.113.113,0,0,1-.095-.129.114.114,0,1,1,.225.034l-.006.021A.1.1,0,0,1,14423.393,1630.69Zm.11,1.056a.114.114,0,0,1,.034-.226.116.116,0,0,1,.1.13l-.006.022A.1.1,0,0,1,14423.5,1631.746Zm.09.9a.113.113,0,1,1,.034-.224.112.112,0,0,1,.095.129l0,.022A.1.1,0,0,1,14423.593,1632.649Zm.269,1.955a.093.093,0,1,1-.047-.136A.1.1,0,0,1,14423.861,1634.6Zm0-1.457a.114.114,0,1,1,.129-.1l-.006.022A.1.1,0,0,1,14423.86,1633.147Zm.009.972a.114.114,0,0,1,.033-.225.114.114,0,0,1,.1.129l0,.022A.1.1,0,0,1,14423.869,1634.119Zm.419-3.194a.093.093,0,1,1-.047-.136A.1.1,0,0,1,14424.288,1630.925Zm.008-.583a.114.114,0,1,1,.129-.1l0,.023A.1.1,0,0,1,14424.3,1630.342Zm.046,2.009a.114.114,0,1,1,.129-.1l-.006.022A.1.1,0,0,1,14424.342,1632.351Zm.382,1.9a.093.093,0,0,1-.128.031.093.093,0,0,1,.08-.167A.1.1,0,0,1,14424.724,1634.246Zm.025-3.021a.112.112,0,0,1-.1-.129.114.114,0,1,1,.225.033l-.006.022A.1.1,0,0,1,14424.749,1631.225Zm.012,2.054a.116.116,0,0,1-.1-.13.114.114,0,1,1,.225.034l0,.022A.1.1,0,0,1,14424.761,1633.279Zm.346-1.493a.115.115,0,0,1-.1-.13.114.114,0,0,1,.226.034l-.006.022A.1.1,0,0,1,14425.106,1631.786Zm.63,1a.114.114,0,0,1,.032-.226.116.116,0,0,1,.1.13l-.006.022A.1.1,0,0,1,14425.736,1632.79Zm.04,1.438a.114.114,0,1,1,.13-.1l-.006.022A.1.1,0,0,1,14425.776,1634.228Zm.666-.708a.115.115,0,0,1-.1-.13.114.114,0,0,1,.226.034l0,.022A.1.1,0,0,1,14426.442,1633.52Zm.153,1.005a.114.114,0,0,1,.034-.225.111.111,0,0,1,.095.129l0,.022A.1.1,0,0,1,14426.6,1634.525Zm.231-1.772a.113.113,0,0,1-.1-.129.114.114,0,1,1,.225.034l0,.021A.1.1,0,0,1,14426.827,1632.753Zm.438.935a.114.114,0,1,1,.13-.095l-.006.021A.1.1,0,0,1,14427.265,1633.688Zm.2,1a.114.114,0,0,1,.033-.225.114.114,0,0,1,.1.129l0,.022A.1.1,0,0,1,14427.465,1634.688Zm.474-1.727a.114.114,0,0,1-.033.225.113.113,0,0,1-.1-.129l.006-.022A.1.1,0,0,1,14427.938,1632.961Zm.011-.924a.114.114,0,1,1,.129-.1l-.006.022A.1.1,0,0,1,14427.949,1632.037Zm.253,1.925a.114.114,0,1,1,.129-.1l0,.022A.1.1,0,0,1,14428.2,1633.962Zm.313-2.539a.116.116,0,0,1-.1-.13.114.114,0,1,1,.225.034l0,.022A.1.1,0,0,1,14428.516,1631.423Zm.217,1.34a.093.093,0,1,1-.159-.1.092.092,0,0,1,.11-.039A.1.1,0,0,1,14428.732,1632.763Zm.008-.828a.114.114,0,0,1-.1-.129.116.116,0,0,1,.131-.1.114.114,0,0,1,.1.129l-.006.022A.1.1,0,0,1,14428.74,1631.935Zm.167,1.807a.113.113,0,0,1-.1-.129.114.114,0,1,1,.226.034l-.006.022A.1.1,0,0,1,14428.907,1633.742Zm.38-.811a.114.114,0,1,1,.034-.225.113.113,0,0,1,.095.129l0,.022A.1.1,0,0,1,14429.287,1632.931Zm.4.684a.112.112,0,0,1,.05.144.108.108,0,0,1-.13.078.111.111,0,0,1-.051-.144A.109.109,0,0,1,14429.688,1633.615Zm-.08-1.815a.111.111,0,0,1-.051-.143.109.109,0,0,1,.131-.078.111.111,0,0,1,.05.143.108.108,0,0,1-.13.077Zm.45,1.054a.094.094,0,0,1-.128.031.092.092,0,0,1-.03-.128.091.091,0,0,1,.11-.039A.1.1,0,0,1,14430.059,1632.854Zm-.006-.79a.114.114,0,1,1,.129-.1l0,.022A.1.1,0,0,1,14430.053,1632.064Zm.559.567a.114.114,0,1,1,.129-.1l-.006.022A.1.1,0,0,1,14430.611,1632.631Zm.308.469a.093.093,0,0,1-.128.031.093.093,0,0,1,.08-.167.1.1,0,0,1,.048.135Z" fill="#5b5474" fill-rule="evenodd"/><path d="M14436.734,1622.863s2.258.268,1.392,2.847c-.676,2.01-3.541,3.778-10.81,2.409-7.609-1.432-7.679-4.268-7.463-4.942.284-.889,1.438-3.1,3.418-1.72.032-.079-1.483-.815.105-2.032.6-.427,1.045-.606,1.388-.147.186.247-.352-1.353,2.066-1.372,2.794-.023,6.845.2,7.8,1.486.362.627.479.745.13,1.56C14434.624,1621.129,14436.648,1620.256,14436.734,1622.863Z" fill="#db4427" fill-rule="evenodd"/><path d="M14438.105,1623.74a2.36,2.36,0,0,1,.021,1.969c-.676,2.011-3.541,3.779-10.81,2.41-7.609-1.432-7.624-4.253-7.463-4.942-.765,3.254,8.826,5.707,13.531,4.907A5.7,5.7,0,0,0,14438.105,1623.74Z" fill="#c03f28" fill-rule="evenodd"/><path d="M14428.981,1617.775s-2.6-1.058-1.581-2.284,2.843-2.441,2.835-3.369.057.958,1.926,2.909c1.512,1.578.629,2.84-.83,3.076A3.165,3.165,0,0,1,14428.981,1617.775Z" fill="#db4427" fill-rule="evenodd"/><path d="M14428.981,1617.776s-2.6-1.059-1.581-2.285c-.264,2.8,5.053,2.308,4.761-.46,1.512,1.578.629,2.84-.83,3.077A3.176,3.176,0,0,1,14428.981,1617.776Z" fill="#c03f28" fill-rule="evenodd"/><path d="M14428.781,1617.631l-.126.345,2.748.213.046-.227A21.383,21.383,0,0,0,14428.781,1617.631Z" fill="#714d63" fill-rule="evenodd"/><path d="M14426.41,1621.843c-.44.108-.895,1.013-.152,1.4s.418.435.418.435l-.379,2.078-1.574,3.839a3.462,3.462,0,0,0,1.016,1.423c.745.53,2.212.958,1.938-.23a10.833,10.833,0,0,1,.395-4.074c.33.04,2.672,1.363,3.949-1.03a6.118,6.118,0,0,0,.6-3.42l-.219-.789s-4.64-1.346-5.207-.555c-.138.19-.2.715-.368.8A.984.984,0,0,1,14426.41,1621.843Z" fill="#eed3df" fill-rule="evenodd"/><path d="M14426.017,1626.452s1.292.495,1.627,4.037a13.566,13.566,0,0,1,.428-3.745c-.139-.26-.942-.625-1.185-1.082-.274-.521-.487-.147-.644.245C14426.135,1626.18,14426.017,1626.452,14426.017,1626.452Z" fill="#e2c0cd" fill-rule="evenodd"/><path d="M14428.561,1622.167c-.279.1-.414.331-.336.173.153-.3.726-.5.726-.5l.227.271a1.645,1.645,0,0,0-.616.056Zm.943,1.334a.292.292,0,1,1,.193-.365.33.33,0,0,1,.013.069A.258.258,0,0,1,14429.5,1623.5Zm.548,1.358a2.733,2.733,0,0,1-.59-.453,2.028,2.028,0,0,1-.364-.589l-.136-.045-.036-.064.354.018-.056.064-.071.009a2.014,2.014,0,0,0,1.081,1.014l-.183.046Zm.126-.753c.039.045.852.071.59-.092a1.407,1.407,0,0,1-.4-.7,1.26,1.26,0,0,0,.246.735s-.475.009-.437.055Zm.959-.38a.292.292,0,1,1,.194-.366.284.284,0,0,1,.012.069A.258.258,0,0,1,14431.137,1623.726Zm.81-.666-.2-.326s-.009-.059.117-.1.082.426.082.426Z" fill="#804c33" fill-rule="evenodd"/><path d="M14427.1,1623.411a1.248,1.248,0,1,1-1.7.547A1.262,1.262,0,0,1,14427.1,1623.411Z" fill="#fae58d" fill-rule="evenodd"/><path d="M14427.235,1620.962s-.167.659-.371,1.2.028.762.028.762l-.419-1.115-.836-1.006s1.185-1.269,1.668-1.209,2.4.178,2.4.178l3.293.622.364.906-.309.436s-.224,1.261-.707.1c-.15.928-1.322,1.108-1.322,1.108s-2.2-.162-2.288-1.729C14428.683,1621.451,14427.894,1622.385,14427.235,1620.962Z" fill="#db4427" fill-rule="evenodd"/><path d="M14427.244,1620.99s-.166.659-.37,1.2.028.762.028.762l-.328-.934.6-1.38s.324.743.936.715c.458-.02.494-.665.916-.473a2.7,2.7,0,0,1,.218.653c.09.35.38.522.726.725,1.124.655,1.919.639,2.233-.157a2.162,2.162,0,0,0,.135-.454,3.766,3.766,0,0,0,.282.526c.15.245.452-.4.453-.409s-.226,1.261-.707.1a1.321,1.321,0,0,1-1.324,1.108s-2.2-.162-2.288-1.729C14428.692,1621.478,14427.9,1622.412,14427.244,1620.99Z" fill="#c03f28" fill-rule="evenodd"/></g><rect width="40.197" height="5.965" rx="2.982" transform="translate(14448.701 1613.748)" fill="#96d4ea"/><rect width="29.305" height="8.866" rx="3.105" transform="translate(14416.366 1642.534)" fill="#e3f0f6"/><rect width="51.868" height="16.94" rx="5.709" transform="translate(14697.925 1612.615)" fill="#cd809c"/><rect width="28.095" height="5.965" rx="2.982" transform="translate(14448.701 1623.945)" fill="#96d4ea"/><rect width="40.197" height="5.965" rx="2.982" transform="translate(14418.358 1664.651)" fill="#aeb9c1"/><rect width="20.099" height="5.965" rx="2.982" transform="translate(14509.688 1669.75)" fill="#aeb9c1"/><rect width="5.965" height="5.965" rx="2.982" transform="translate(14616.666 1669.75)" fill="#aeb9c1"/><rect width="5.965" height="5.965" rx="2.982" transform="translate(14746.811 1669.75)" fill="#aeb9c1"/><rect width="21.1" height="8.356" rx="2.557" transform="translate(14474.022 1668.554)" fill="#e3f0f6"/><rect width="28.095" height="5.965" rx="2.982" transform="translate(14418.358 1674.849)" fill="#d5dce0"/><rect width="40.197" height="5.965" rx="2.982" transform="translate(14552.177 1664.651)" fill="#aeb9c1"/><rect width="26.107" height="5.965" rx="2.982" transform="translate(14640.179 1669.75)" fill="#aeb9c1"/><rect width="23.081" height="2.982" rx="1.491" transform="translate(14703.198 1659.948)" fill="#aeb9c1"/><rect width="28.095" height="5.965" rx="2.982" transform="translate(14552.177 1674.849)" fill="#d5dce0"/><rect width="40.197" height="5.965" rx="2.982" transform="translate(14616.666 1613.748)" fill="#96d4ea"/><rect width="28.095" height="5.965" rx="2.982" transform="translate(14616.666 1623.945)" fill="#96d4ea"/><rect width="40.197" height="5.965" rx="2.982" transform="translate(14601.711 1619.712) rotate(-180)" fill="#96d4ea"/><rect width="28.095" height="5.965" rx="2.982" transform="translate(14601.711 1629.91) rotate(180)" fill="#96d4ea"/><rect width="33.195" height="2.669" transform="translate(14707.261 1619.75)" fill="#fff"/><rect width="20.661" height="2.161" transform="translate(14420.605 1645.646)" fill="#fff"/><rect width="29.305" height="8.866" rx="3.105" transform="translate(14450.469 1642.534)" fill="#e3f0f6"/><rect width="20.661" height="2.161" transform="translate(14454.709 1645.646)" fill="#fff"/><rect width="14.746" height="2.161" transform="translate(14477.199 1671.652)" fill="#fff"/><rect width="35.187" height="8.866" rx="3.402" transform="translate(14484.572 1642.534)" fill="#e3f0f6"/><rect width="26.15" height="2.161" transform="translate(14488.812 1645.646)" fill="#fff"/><rect width="24.9" height="8.866" rx="2.862" transform="translate(14525.548 1642.534)" fill="#e3f0f6"/><rect width="17.116" height="2.161" transform="translate(14529.787 1645.646)" fill="#fff"/><line x2="351.663" transform="translate(14408.503 1655.674)" fill="none" stroke="#e3f0f6" stroke-linecap="round" stroke-linejoin="round" stroke-width="1.131"/><line y2="22.995" transform="translate(14608.886 1609.598)" fill="none" stroke="#fff" stroke-linecap="round" stroke-linejoin="round" stroke-width="1.131"/><circle cx="3.717" cy="3.717" r="3.717" transform="translate(14418.79 1699.243)" fill="#e6ba8a"/><circle cx="3.717" cy="3.717" r="3.717" transform="translate(14740.456 1699.243)" fill="#e6ba8a"/><rect width="106.588" height="5.619" rx="2.809" transform="translate(14431.278 1700.151)" fill="#e6ba8a"/><line y2="34.117" transform="translate(14540.766 1655.674)" fill="none" stroke="#e3f0f6" stroke-linecap="round" stroke-linejoin="round" stroke-width="1.131"/><line y2="34.117" transform="translate(14633.35 1655.674)" fill="none" stroke="#e3f0f6" stroke-linecap="round" stroke-linejoin="round" stroke-width="1.131"/><line y2="34.117" transform="translate(14697.925 1655.674)" fill="none" stroke="#e3f0f6" stroke-linecap="round" stroke-linejoin="round" stroke-width="1.131"/><path d="M14686.9,1675.715l-1.634-2.829-1.634-2.83h6.534l-1.633,2.83Z" fill="#aeb9c1"/><line y2="34.117" transform="translate(14740.456 1655.674)" fill="none" stroke="#e3f0f6" stroke-linecap="round" stroke-linejoin="round" stroke-width="1.131"/><rect width="42.531" height="22.157" transform="translate(14697.925 1667.634)" fill="#e3f0f6"/><rect width="20.479" height="4.679" rx="2.34" transform="translate(14703.198 1675.492)" fill="#fff"/><path d="M14734.868,1680.051l-1.282-2.22-1.281-2.22h5.126l-1.281,2.22Z" fill="#fff"/><rect width="8.299" height="146.487" rx="4.149" transform="translate(14782.512 1602.538)" fill="url(#b)"/><circle cx="1.636" cy="1.636" r="1.636" transform="translate(14785.025 1608.839)" fill="#fff"/><path d="M14788.621,1741.822a1.958,1.958,0,0,1-3.725.848,2.009,2.009,0,0,0,.735.142,1.962,1.962,0,0,0,1.962-1.962,1.921,1.921,0,0,0-.194-.844A1.957,1.957,0,0,1,14788.621,1741.822Z" fill="#fff"/><line y2="0.715" transform="translate(14786.661 1607.176)" fill="none" stroke="#fff" stroke-linecap="round" stroke-linejoin="round" stroke-width="0.623"/><line y2="0.715" transform="translate(14786.661 1613.059)" fill="none" stroke="#fff" stroke-linecap="round" stroke-linejoin="round" stroke-width="0.623"/><line x1="0.623" y1="0.35" transform="translate(14788.915 1611.739)" fill="none" stroke="#fff" stroke-linecap="round" stroke-linejoin="round" stroke-width="0.623"/><line x1="0.623" y1="0.35" transform="translate(14783.784 1608.861)" fill="none" stroke="#fff" stroke-linecap="round" stroke-linejoin="round" stroke-width="0.623"/><line y1="0.388" x2="0.6" transform="translate(14783.891 1611.877)" fill="none" stroke="#fff" stroke-linecap="round" stroke-linejoin="round" stroke-width="0.623"/><line y1="0.388" x2="0.6" transform="translate(14788.832 1608.684)" fill="none" stroke="#fff" stroke-linecap="round" stroke-linejoin="round" stroke-width="0.623"/><path d="M14800.175,1594.151l2.179-1.258,2.179-1.258v5.032l-2.179-1.258Z" fill="#e6ba8a"/><rect width="38.533" height="4.495" rx="2.248" transform="translate(14812.411 1591.903)" fill="#e6ba8a"/><circle cx="3.112" cy="3.112" r="3.112" transform="translate(14876.058 1590.866)" fill="#e6ba8a"/><rect width="88.632" height="19.783" rx="2.05" transform="translate(14802.951 1663.237)" fill="#70678e" opacity="0.43" style="mix-blend-mode:multiply;isolation:isolate"/><rect width="88.632" height="19.699" rx="2.046" transform="translate(14802.951 1660.837)" fill="#fff"/><path d="M14848.188,1656.062l1.378,2.388,1.379,2.388h-5.515l1.379-2.388Z" fill="#70678e"/><text transform="translate(14809.382 1673.893)" fill="#70678e" font-size="9.997" font-family="OpenSans-Bold, Open Sans" font-weight="700"><tspan x="0" y="0">Recommended</tspan></text><rect width="114.115" height="17.894" rx="5.214" transform="translate(14780.978 1772.693)" fill="#cd809c"/><text transform="translate(14808.011 1784.118)" fill="#fffff9" font-size="6.786" font-family="OpenSans-Bold, Open Sans" font-weight="700"><tspan x="0" y="0">Review &amp; Confirm</tspan></text><path d="M14904.5,1795.8a27.035,27.035,0,0,1-10.2-6.024h0a4.188,4.188,0,0,0-2.358.722v-1.818a4.213,4.213,0,1,0-8.426,0v6.4a4.224,4.224,0,0,0,.064.716h-.064v3.938a4.212,4.212,0,0,0-6.852,4.839l3.2,5.546a4.206,4.206,0,0,0,3.649,2.1v0h13.08a7.983,7.983,0,0,0,7.983-7.983V1795.8Z" fill="#c1c1c1" opacity="0.32"/><rect width="8.426" height="14.829" rx="4.213" transform="translate(14883.522 1781.64)" fill="#fff"/><rect width="8.426" height="14.829" rx="4.213" transform="translate(14890.095 1786.948)" fill="#fff"/><rect width="8.426" height="14.829" rx="4.213" transform="translate(14896.161 1789.602)" fill="#fff"/><rect width="8.426" height="14.829" rx="4.213" transform="translate(14874.565 1798.102) rotate(-30)" fill="#fff"/><path d="M0,0H21.064a0,0,0,0,1,0,0V8.447a7.983,7.983,0,0,1-7.983,7.983H0a0,0,0,0,1,0,0V0A0,0,0,0,1,0,0Z" transform="translate(14883.522 1792.972)" fill="#fff"/><line y2="5.856" transform="translate(14891.948 1789.602)" fill="none" stroke="#c1c1c1" stroke-linecap="round" stroke-linejoin="round" stroke-width="2.205"/><line y1="3.876" transform="translate(14898.1 1791.582)" fill="none" stroke="#c1c1c1" stroke-linecap="round" stroke-linejoin="round" stroke-width="2.205"/><line y2="4.55" transform="translate(14883.522 1798.344)" fill="none" stroke="#c1c1c1" stroke-linecap="round" stroke-linejoin="round" stroke-width="2.205"/><path d="M14684.561,1667.121a5.337,5.337,0,0,0,2.851,1.36c.76.1.771-.79.98-.74a8.3,8.3,0,0,0,2.05.3,5.658,5.658,0,0,0,3.39-1.17,12.849,12.849,0,0,1,2.88-.65,2.906,2.906,0,0,0,1.87-.98c-.04.15.09.02.51-.42,1.67,1.24,8.87,2.03,10.551,1.81,1.709-.23,13.079.1,11.119-13.1-1.359-9.2-10.54-9.52-11.739-9.64-.421-.04-6.211-.53-11.511-.98-4.18-.54-7.59-.69-8.72-.73-.09-.01-.149-.02-.149-.02l-.011.01a2.393,2.393,0,0,1-.239-.01s-.021.06-.051.13c-8.68.37-21.08,1.85-21.08,1.85-.05-.27-8.96.72-15.81.37-2.49-.13-4.98-.13-7.46-.06-.01-.1-.021-.19-.03-.28-.069-2.12-.11-4.09-.04-4.98.18-2.47.261-4.49.53-8.79a.01.01,0,0,0-.01-.01c0-.04.01-.09.01-.13,1.1.73,16.38,1.14,19.59-9.6,1.61-9.35.52-19.57-.9-27.27-.041-.67-.291-2.19-.291-2.19a1.368,1.368,0,0,1-.159-.07c-.2-1-.41-1.94-.61-2.81.19.66.36,1.22.5,1.56,1.22-1.53,1.46-4.65,1.41-6.89h-3.21c.09.39.189.84.3,1.33-.13-.5-.26-.94-.37-1.33h-32.439a8.451,8.451,0,0,0,.05,2.62s.689,8.44.9,10a2.025,2.025,0,0,0-.76.13,26.855,26.855,0,0,0-9.819,1.44c-.3-.56.029-3.58-3.71-6.56-4.811-2.75-11.5-3.7-13.74,0-.71,1.18-.78-3.97-4.51-7.63h-47.211a10.954,10.954,0,0,0,5.08,2.01l.521,1.44c-6.5,2.1-11.45,4.41-14.45,7.04-2.63,3.8-3.61,6.1-3.7,12.66,1.18,1.23-10.029-5.73-12.42,13.96,0,0-12.74,3.57-14.89,15.69-1.13,3.28-1.03,7.75,1.7,13.79a.153.153,0,0,1,.021.05c3.82,10.24,16.24,18.43,40.851,17.51a142.47,142.47,0,0,0,26.739-3.71c-.02,1.07-.06,2.13-.12,3.14a14.991,14.991,0,0,0-6.939,5.3,20.657,20.657,0,0,0-1.29,2.39c-11.84,6.01-15.8,7.75-17.75,13.15-1.75,4.85-5.55,15.07-6.37,17.29h-.02a70.735,70.735,0,0,1-5.091,8.58,9.222,9.222,0,0,1-2.18-1.02c-2.17-1.95-5.26-2.32-11.62-5.38-7.02-3.38-11.71-7.44-18.31-16.85-3.08-4.4.92-11.58-.58-15.4a16.146,16.146,0,0,0-4.94-7.42c-1.99-1.63-3.069-1.17-4.21-2.32a16.538,16.538,0,0,1-2.62-5.09,5.129,5.129,0,0,0-1.6,1.17,2.58,2.58,0,0,0-.42,1.08c-3.97-8.39-7.391-15.65-7.54-16.07a2.78,2.78,0,0,0-1.8-1.94l-.051-.01-15.62-.05a1.32,1.32,0,0,0-.39-.06,1.352,1.352,0,0,0-.8.27,1.313,1.313,0,0,0-.52,1.19l.01.07-.87,1.01a1.069,1.069,0,0,0-.17,1.39c.229.44,1.55,3.17,3.359,6.96a44.181,44.181,0,0,1-3.38-2.85c-.51-.62-3.54-1.86-4.06-1.46-1.221.96-.96,2.95,2.319,5.53,2.94,2.31,5.471,4.07,7,5.09a2.683,2.683,0,0,0-.319.57.854.854,0,0,1-.03.13,3.355,3.355,0,0,0,.74,3.77,1.02,1.02,0,0,0,.229.16c-.02,0-.039.01-.06.01-.21.06.47.55,1.23,1.12-.32.48-.37.77-.21.54.02-.03.05-.05.069-.08a3.429,3.429,0,0,0,.7,3.32.362.362,0,0,1-.05.04s5.689,12.6,11.92,19.18c1.62,1.71,3.85,2.11,6.1,5.52,9.98,15.18,29.25,35.25,39.23,40.54,3.49,1.85,11.52,3.37,14.819,2.33,3.021-.96,6.3-5.53,6.1-4.65,0,0,7.9-10.88,10.029-17.44-.149-.22-.279-.44-.419-.67a34.7,34.7,0,0,0,3.18,3,22.915,22.915,0,0,0,4.64,2.96c.24,1.48.141,2.77-.72,3.57-10.61,12.15-12.44,35.29-12.79,39.82-.271,3.58-1.5,24.41-2.34,35.63h25.479c3.21-17.08,5.94-34.66,7.99-39.91.05-.12.11-.25.18-.39a6.726,6.726,0,0,1,1.53-1.87c.1-.06.2-.11.29-.16v.01c.17,2.29-1.45,12.94-3.49,32.4-.27,2.54-.479,6.22-.649,9.92h34.93a28.257,28.257,0,0,1,.74-5.27,33.558,33.558,0,0,0,1.62-3.57c.289,2.78.6,5.75.92,8.84h26.609c-3.529-15.41-7.21-31.95-7.21-31.95a16.872,16.872,0,0,1,1.98,1.19c.47,4.33,9.189,26.56,10.41,29.25.16.34.38.86.66,1.51h30.649c-5.88-11.32-11.45-22.03-15.76-30.37-12.71-24.54-11.71-31.3-11.17-32.72.03-.03.08-.05.1-.08.86-3.19,3.5-12.48,4.1-14.59l.86-.02a24.593,24.593,0,0,1,.38-5.24,16.809,16.809,0,0,0,2.19-1.15c2.02-.58,4.99.21,6.69.58,2.149.48,3.919,1.16,6.789,1.73a4.658,4.658,0,0,0,3.171-.95,20.183,20.183,0,0,0,7.079-2.23,15.914,15.914,0,0,0,4.09,1.32c.421.13.78.22.98.26a3.513,3.513,0,0,0,1.391-.05c.21-.01.3-.04.26-.07,1.05-.33,2.31-1.25,3.54-3.46.68-1.52-1.98-4.2-1.98-4.2a13.292,13.292,0,0,1-.49,1.85c-.119.05-.229.09-.329.13,2.1-5.84,9.859-27.54,11.449-33.12.83-2.91.71-4.27.33-4.89l.04-.05a24.336,24.336,0,0,0-2.71-2.47c-.6-.36-1.58-.99-5.07-.25-1.42.31-23.26,3.89-31.68,5.27a43.115,43.115,0,0,0-2.91-9.96c1.15-.03,2.74-.15,4.521-.31s3.76-.4,5.689-.64c-.46,2.8-.649,5.16.29,6.02a2.781,2.781,0,0,0,3.38.55c-.38.1,1.271-.58,1.19-1.42a11.624,11.624,0,0,1,.72-3.71c0,.08.03-.01.061-.23.029-.08.05-.17.079-.26C14684.392,1666.051,14684.151,1666.631,14684.561,1667.121Zm-211.439-6.74-.11-.26c.04.09.08.17.12.26Zm.04.09-.01-.03c.01.01.02.01.02.03Zm131.03-4.22c-1.28.82-2.381,7.15-3.24,14.32-.29-.17-.53-.32-.71-.43a6.808,6.808,0,0,0-.34-1.03,9.186,9.186,0,0,0-5.63-3.56c-.16-.87-.32-1.87-.48-3.07-.12-.94-.23-1.89-.31-2.86.22-.07.439-.12.67-.19.4-.12.78-.24,1.17-.36q4.815-1.455,9.06-3.02c.15-.05.29-.11.44-.16C14604.581,1656.021,14604.361,1656.141,14604.191,1656.251Zm24.479-10.6c-.2.03-.41.05-.61.07a3.7,3.7,0,0,0-1.97.89c-.06-.08-.159.01-.28.24a9.429,9.429,0,0,0-.8.87c-2.09.68-4.47,1.53-6.85,2.43a86.6,86.6,0,0,0,10.7-6.32C14628.791,1644.521,14628.731,1645.131,14628.671,1645.651Zm.91-50.01a1.851,1.851,0,0,1,1.21.37A4.165,4.165,0,0,0,14629.581,1595.641Zm61.62,119.67c.04.02.07.04.109.06a3.33,3.33,0,0,0-.359.13C14691.051,1715.431,14691.131,1715.371,14691.2,1715.311Z" fill="#5b5474" opacity="0.27"/><path d="M14657.748,1913.425s9.712,15.652,6.063,17.656c-3.5,1.923-18.953,4-25.3-2.108-1.9-1.136-.39-4.585.922-6.192s3.822-8.171,3.822-8.171Z" fill="#c2d168" fill-rule="evenodd"/><path d="M14663.679,1925.153s2.293,4.192.132,5.928c-3.114,2.5-19.986,3.571-25.039-1.712-2.119-2.216-1.233-3.226-.414-4.891,1.546-3.139,4.895,2.387,4.895,2.387Z" fill="#faf8ea" fill-rule="evenodd"/><path d="M14637.981,1925.285s.679,5.269,15.154,5.005c11.872-.215,11.354-2.741,10.807-4.478-.476-1.509-3.162-2.528-5.931-3.3s-16.983-1.122-19.108.923A9,9,0,0,0,14637.981,1925.285Z" fill="#a0ad4b" fill-rule="evenodd"/><path d="M14716.368,1906.5s4.045,8.377,16.078,13.307c4.617,4.694,5.9,9.511,2.637,10.541s-19.979,3.772-27.544-2.108-16.585-18.2-13.178-21.476S14716.368,1906.5,14716.368,1906.5Z" fill="#c2d168" fill-rule="evenodd"/><path d="M14733.105,1921.255c4.616,4.693,5.241,8.061,1.978,9.091s-19.979,3.772-27.544-2.108-16.585-18.2-13.178-21.476c7.978-7.664-.536,2.94,6.192,7.9,4.282,3.159,11.543,13.065,19.769,13.968C14724.405,1929.082,14731.867,1920.748,14733.105,1921.255Z" fill="#faf8ea" fill-rule="evenodd"/><path d="M14698.314,1912.69s15.776,16.3,20.426,17,16.731-.455,17.792-3.82c.517-1.185-1.894-3.423-3.954-5.139s-17.568.882-20.032,3.161C14710.949,1923.461,14698.314,1912.69,14698.314,1912.69Z" fill="#a0ad4b" fill-rule="evenodd"/><path d="M14650.28,1737.068s-3.8,4.467,11,33.058,44.377,85.159,50.474,98.556c5.907,12.981,9.794,39.212,9.488,40.45s-14.049,10.239-36.769-.791c-5.824-19.467-16.793-54.693-22.667-70.1-3.175-8.324-14.253-35.243-16.077-39.264-1.222-2.69-9.938-24.925-10.411-29.252a17.008,17.008,0,0,0-1.978-1.185s10.946,49.238,13.18,56.922,23.462,78.647,27.675,86.433c-.981,5.228-33.349,9.59-39.8,3.295-5.317-5.188-12.739-35.532-14.233-52.837-1.518-17.587-8.593-84.538-9.225-90.52-.483-4.573-5.178-37.455-.791-40.319S14650.28,1737.068,14650.28,1737.068Z" fill="#734e63" fill-rule="evenodd"/><path d="M14630.972,1766.962l12.521,3.69S14639.631,1772.79,14630.972,1766.962Z" fill="#553b47" fill-rule="evenodd"/><path d="M14638.748,1772.1s5.278,5.827,6.326,5.665S14640.142,1772.188,14638.748,1772.1Z" fill="#553b47" fill-rule="evenodd"/><path d="M14668.927,1903.467s-19.626,12.516-39.536.132c-4.072-4.258,12.145,5.65,21.745,4.084C14658.659,1906.456,14666.753,1904.441,14668.927,1903.467Z" fill="#553b47" fill-rule="evenodd"/><path d="M14683.95,1900.568s13.139,10.245,29.607,4.946c4.31-1.385,5.622-2.1,5.315-2.442-.931-1.051-14.114,4.3-20.821,2.241C14689.223,1902.6,14683.95,1900.568,14683.95,1900.568Z" fill="#553b47" fill-rule="evenodd"/><path d="M14654.43,1722.3s-3.251,11.421-4.217,15.022c-1.509,2.4-37.612-5.392-39.8-6.325s8.7-10.673,8.7-10.673Z" fill="#443228" fill-rule="evenodd"/><path d="M14634.662,1723.875a7.71,7.71,0,1,1-7.774,7.711A7.742,7.742,0,0,1,14634.662,1723.875Z" fill="#c7c5c5" fill-rule="evenodd"/><path d="M14634.594,1724.271a6.128,6.128,0,1,1-6.129,6.128A6.129,6.129,0,0,1,14634.594,1724.271Z" fill="#734e63" fill-rule="evenodd"/><path d="M14589,1692.91s2.078-34.655,5.2-36.656c2.551-1.635,13.427-6.146,20.818-8.533a4.682,4.682,0,0,1,3.043-2,143.585,143.585,0,0,1,23.4-1.215c6.849.355,15.763-.64,15.813-.371,0,0,12.57-1.5,21.25-1.853-2.018,9.542-1.451,19.417-.368,20.631.652.732-14.372,2.7-19.77,2.843a50.913,50.913,0,0,1,3.4,23.953s-.243,14.482-4.534,21.193a32.059,32.059,0,0,0-2.078,11.809l-46.04.856Z" fill="#c2d168" fill-rule="evenodd"/><path d="M14613.921,1690.114s-7.971-9.1-23.327-2c-1.892.874.856-.537.267-.4C14586.672,1688.684,14608.051,1678.234,14613.921,1690.114Z" fill="#a0ad4b" fill-rule="evenodd"/><path d="M14605.661,1654.124s15.069,4.3,7.465,38.922c-.09,2.947,3.065-14.929,3.065-14.929S14618.008,1657.026,14605.661,1654.124Z" fill="#a0ad4b" fill-rule="evenodd"/><path d="M14650.181,1654.258a67.473,67.473,0,0,1,11.729,34.39C14660.955,1693.979,14666.295,1668.65,14650.181,1654.258Z" fill="#a0ad4b" fill-rule="evenodd"/><path d="M14656.577,1654.391s.8,7.732-.266,7.732S14656.853,1659.275,14656.577,1654.391Z" fill="#a0ad4b" fill-rule="evenodd"/><path d="M14633.918,1645.858s7.208,3.213,6.264,8.264-5.361,7.364-11.2,6.532-14.564-7.979-13.063-12.929-6.623,7.317,11.2,13.2c5.8,1.914,11.345-.848,12.529-3.2,1.416-2.816,1.222-5.06.934-5.866C14640.1,1650.495,14637.68,1646.189,14633.918,1645.858Z" fill="#a0ad4b" fill-rule="evenodd"/><path d="M14618.19,1647.327a10.726,10.726,0,0,0,6,7.732C14629.592,1657.713,14615.376,1652.649,14618.19,1647.327Z" fill="#a0ad4b" fill-rule="evenodd"/><path d="M14674.287,1642.6s-2.4,10.62-.055,14.865S14669.441,1653.15,14674.287,1642.6Z" fill="#a0ad4b" fill-rule="evenodd"/><path d="M14700.754,1673.172a24.939,24.939,0,0,0-2.717-2.472c-.592-.36-1.575-.989-5.065-.247-1.762.377-34.961,5.807-34.961,5.807a5.292,5.292,0,0,0-3.337,3.336c-.932,2.57-10.006,31.01-10.006,31.01l29.281,3.212,14.7-1.236,2.965-28.538Z" fill="#c13f28" fill-rule="evenodd"/><path d="M14650.223,1707.889l8.153-24.091a5.841,5.841,0,0,1,4.45-4.077c3.832-1.017,36.568-6.918,36.568-6.918s2.833-1.148.986,5.312-11.98,34.593-11.98,34.593Z" fill="#dc4427" fill-rule="evenodd"/><path d="M14677.419,1690.713c-1.047-3.043-4.877-1.969-4.874,1.682,0,1.818,1.666,2.25,2.718,2.773a3.5,3.5,0,0,1,1.7,1.547,7.274,7.274,0,0,1,1.911-2.06c1.054-.822,2.619-1.591,2.875-3.3C14682.257,1687.929,14678.816,1687.7,14677.419,1690.713Z" fill="#fdfdfd" fill-rule="evenodd"/><path d="M14693.736,1676.055c1.132-.141,1.882.711,1.589,1.984a3.293,3.293,0,0,1-2.866,2.529c-1.148,0-1.681-1.037-1.284-2.251a3.423,3.423,0,0,1,2.562-2.263Z" fill="#63364a" fill-rule="evenodd"/><path d="M14678.641,1642.165s-1.663,2.021-1.607,9.142c-.395.534-4.928,1.148-6.055,2.224-1.174,1.124-.89,1.978-1.112,3.83-.608,5.106-2.724,11.879-.986,13.466,1.5,1.373,2.538.836,3.58.494-.965.314,1.07-.418.99-1.359a13.631,13.631,0,0,1,.863-4.2c.08.292-.162.867.251,1.359a5.279,5.279,0,0,0,2.843,1.359c.763.1.778-.792.985-.742a5.9,5.9,0,0,0,5.437-.865c3.072-1.1,3.355.005,5.189-2.1,1.539,1.267,8.92,2.081,10.624,1.853s13.081.108,11.118-13.1c-1.364-9.2-10.543-9.522-11.735-9.636C14698.231,1643.816,14678.641,1642.165,14678.641,1642.165Z" fill="#faf8ea" fill-rule="evenodd"/><path d="M14683.705,1665.638c.427.357.977.735.123,1.236.617-.777-.323-1.113-.369-.989-.152.428.029.586-.125.743-.13.132.135-.284-.123-.247a1.956,1.956,0,0,0-.92.423c.423-.457,2.152-2.648,2.152-2.648-.042.239-.7,1.039-.742,1.484Zm-1.413,1.166c-.081.066-.111.1-.071.07A.788.788,0,0,0,14682.292,1666.8Zm-1.307-10.679c.19-.3-.7,1.552,0,2.472a34.924,34.924,0,0,0-2.5,6.308,4.838,4.838,0,0,0-.094,2.834c-.334-.675-.41-1.241-.491-.8-.569,3.219.181-3.624,2.592-8.22a4.046,4.046,0,0,1,.492-2.594Zm8.773-8.9a72.391,72.391,0,0,0-8.393,2.684,1.2,1.2,0,0,1-.255.158,9.281,9.281,0,0,1-4.078,1.235c-.878-4.091,1.358-9.142,1.358-9.142s3.98.087,9.143.743c-6.2,1.63-5.019,5.257-5.9,6.7a30.919,30.919,0,0,1,8.246-3.238,10.514,10.514,0,0,1,7.678,1.311c5.981,3.57-1.678-1.559-7.8-.448Z" fill="#ebe7c8" fill-rule="evenodd"/><path d="M14689.263,1657.608s1.71,5.253-.123,7.166S14690.6,1663.249,14689.263,1657.608Z" fill="#ebe7c8" fill-rule="evenodd"/><path d="M14675.229,1657.9s-.934-1.5-.006-1.993-.2-.72-.844.234.274,2.125.423,2.311-.6,6.188-.637,7.679S14675.192,1658.251,14675.229,1657.9Z" fill="#ebe7c8" fill-rule="evenodd"/><path d="M14612.294,1695.41c-.43-1.83-9.229-11.2-23.227-2.718-.771,10.055-1.8,31.324-.494,35.211s4.725,9.129,10.625,8.153c6.06-1,53.307-16.122,58.54-19.735,2.026-.576,4.988.209,6.689.585,2.152.475,3.923,1.154,6.794,1.73a4.542,4.542,0,0,0,3.215-.989s5.967-1.345,6.917-2.471a31,31,0,0,0,5.19,1.856c1.139.193,3.2-.011,5.188-3.584.682-1.517-1.977-4.2-1.977-4.2a13.478,13.478,0,0,1-.5,1.853c-2.665,1.1-2.227.617-2.227.617s-3.295-1.946-5.927-3.211a13.024,13.024,0,0,1-2.6-1.485,35.923,35.923,0,0,0-4.2-3.83c-.5-.3.75-1.467,2.1-1.482,2.356-.025,5.3.808,6.794-.125,2.018-1.376,4.059-2.81,2.965-4.324-.533-.743-1.765,1.2-3.46.864-1.294-.254-2.681-1.825-4.075-2.1-3.219-.633-8.059-1.38-10.5-.989s-4.686,3.146-9.265,7.536c-2.868,2.752-9.2,3-12.477,3.459-3.369.47-26.937-2.171-35.212,1.114C14611.876,1701.506,14612.511,1696.334,14612.294,1695.41Z" fill="#faf8ea" fill-rule="evenodd"/><path d="M14687.906,1712.832a14.04,14.04,0,0,0-2.472-1.977C14687.723,1711.389,14688.865,1713.9,14687.906,1712.832Zm-76.723-5.93s-5.431,3.026-6.581,5.228-.131-4.812,6.582-5.228Zm69.311,8.771c-6.69,2.653-8.65.988-8.65.988,1.142,2.622,8.44-.475,9.627-1.209,4.49,2.161,8.795,1.455,5.7,1.333-4.078-.161-9.761-4.324-9.761-4.324a13.048,13.048,0,0,0,3.9,2.912c-.185.06-.451.156-.815.3Zm-8.4-13.714a.6.6,0,0,1,.233.1c-.245-.041-.394-.083-.232-.1Zm6.423,0a15.838,15.838,0,0,0,4.2-.126c3.247-.867,4.8-4.515,3.214-4.818-.85-.162-1.357.776-1.853.865-1.7.3-3.094-.911-5.067-1.729-.349-.145.376.445,1.468,1.045,1.473.806,3.613,1.626,4.709.684.317-.271.632.292.617.123.069.863-.334,3.01-3.706,3.583-1.729.295-3.491-.092-4.94,0-2.383.151-2.506.175-3.089,1.235-.01.015-.014.027-.02.037l-.721-.653s-.621-.078-1-.149c1.206.711,6.315,4.966,6.315,4.966l-4.589-4.162a2.6,2.6,0,0,1,1.5-1.027,18.778,18.778,0,0,1,2.959.128Z" fill="#ebe7c8" fill-rule="evenodd"/><path d="M14618.455,1647.723s4.036-37.419,2.665-39.589c-1.911.042-4.082-3.862-4.4-6-.232-1.583-.243-6.761,2.666-6.531a3.139,3.139,0,0,1,3.066,3.333c.125,2.025.934-1.066.934-1.066l-.267-4.8,1.6-.933-.534-9.331,11.729-5.6,14,1.866.268,2.132s6.97,21.361,3.865,39.455c-3.211,10.741-18.492,10.332-19.594,9.6-.088,1.9-1.342,12.235,0,16.8,2.676,2.937,4.39,6.93,1.2,9.463C14632.157,1659.3,14616.7,1653.5,14618.455,1647.723Z" fill="#faf8ea" fill-rule="evenodd"/><path d="M14622.721,1619.866s4.508,9.572,11.731,10.53c-.272,4.305-.351,6.329-.534,8.8s.436,13.2.4,12.4c-.645-13.38-10.666-27.992-10.666-27.992S14622.2,1619.628,14622.721,1619.866Z" fill="#ebe7c8" fill-rule="evenodd"/><path d="M14623.12,1601.873c-.012-.053-.742-6.91-3.895-6.2-.2-1.427-.9-10.057-.9-10.057s-.766-3.637,1.467-5.865c2.347-2.346,9.166-4.732,10.4-4.932a14.214,14.214,0,0,1-.932-14.4c3.7-7.437,12.792-7.55,15.729-7.464,3.04.089,14.879,1.087,14.8,13.862-.065,9.7-3.7,12.574-6,13.731.251.988.666,7-1.2,9.33-.676-1.661-2.133-8.4-2.133-8.4s-9.059,1.014-14.662,0c-4.544-.821-9.975,1.989-10.932,4-.466.98,1.958,5.6-.132,7.465s-.247,7-.4,8.529C14624.245,1602.22,14623.12,1601.873,14623.12,1601.873Z" fill="#7e4e31" fill-rule="evenodd"/><path d="M14630.984,1574.947s13.422,5.006,13.064-5.464a4.828,4.828,0,0,0-3.466-3.333s6.23.98,4.8,5.465S14639.974,1580.128,14630.984,1574.947Z" fill="#463329" fill-rule="evenodd"/><path d="M14621.255,1601.337s-.071-.232-.186-.57a1.9,1.9,0,0,1,.186.571Zm-1.6-3.2c-.5.1.891,1.532,1.413,2.629C14620.751,1599.825,14620.089,1598.052,14619.656,1598.138Zm11.063-2.4.133-2c.725-.94,8.868-5.7,8.8-5.065a22.715,22.715,0,0,0,.136,2.666l-9.064,4.4Zm6.181,7.735a3.58,3.58,0,0,0-.848.663c-.133.278-.269-.668-.269-.668s1.789-1.379,2.4-.8c0,0-.659.393-1.248.779.371.965,2.05,4.34,6.714,2.153.421.146.4.933.4.933s-6.044,2.435-7.149-3.063Zm10.48-2.936c.427.827-2.856.685-3.2.533s.133-.8.133-.8,2.293.222,2.133-.133-1.979-2.665-1.064-7.332c0,0-.742,4.533,2,7.731Zm5.6-7.066c.434,1.139-.132-2.267-.132-2.267a32.232,32.232,0,0,0-5.333-2.266l-.533,2.8s5.566.593,6,1.732Z" fill="#7e4e31" fill-rule="evenodd"/><path d="M14647.137,1595.216s1.788,2.22,3.211.988c.393-.463.618.494.618.494s-1.572,1.852-3.583-.617C14646.745,1594.982,14647.137,1595.216,14647.137,1595.216Z" fill="#7e4e31" fill-rule="evenodd"/><path d="M14638.361,1595.338l.25.988s-1.763,2.983-4.2.865c-.12-.516.368-.371.368-.371a1.94,1.94,0,0,0,2.227.126,3.345,3.345,0,0,0,1.356-1.608Z" fill="#7e4e31" fill-rule="evenodd"/><path d="M14576.41,1905.758a63.062,63.062,0,0,0-2.454,10.709c-1.084,6.942-1.7,12.209,1.692,14.754,3.728,2.8,22.679,2.235,25.3-.814,1.334-1.55,1.648-5.472-.081-8.136-4.069-6.266-3.771-16.824-3.771-16.824S14584.812,1907.407,14576.41,1905.758Z" fill="#b8d170" fill-rule="evenodd"/><path d="M14600.138,1923.166s4.395,6.021-21.4,1.79c0,0-3.254-.651-4.149-1.79s-1.383,2.8,11.229,3.68S14603.176,1927.1,14600.138,1923.166Z" fill="#3f2112" fill-rule="evenodd"/><path d="M14576.19,1903.419a39.042,39.042,0,0,0-1.55,4.911S14576.853,1904.879,14576.19,1903.419Z" fill="#3f2112" fill-rule="evenodd"/><path d="M14547.826,1904.7s2.4,9.925,1.062,14.951c-.676,2.529-5.352,5.277-7.251,6.265-1.514.788-2.735-3.927-3.356-2.479-.842,1.954,1.266,3.308-.44,4.376-11.335,7.093-27.559,2.713-28.375,2.3s-4.174-1.4-3.709-3.379c.483-2.057.351-6.852,2.91-7.035,2.591-.529,3.926-.28,6.23-1.479,1.766-1.782,10.569-9.173,10.506-13.907S14547.826,1904.7,14547.826,1904.7Z" fill="#b8d170" fill-rule="evenodd"/><path d="M14507.191,1920.3s-.067,2.38,3.831,3.388c5.971,1.544,17.589,2.52,36.769-7.967,5.638-3.082-19.2,12.766-34.776,9.647C14506.438,1924.045,14506.528,1922.663,14507.191,1920.3Z" fill="#3f2112" fill-rule="evenodd"/><path d="M14538.718,1923.215s2.2-1.5,2.344-1.22.582,3.925.582,3.925-.529-3.336-.939-3.3A8.412,8.412,0,0,0,14538.718,1923.215Z" fill="#3f2112" fill-rule="evenodd"/><path d="M14619.105,1766.6c-.06.967-2.948,19.691-7.7,28.624-1.621,5.422-.562,26.646-4.358,25.575.1.13.07-.722-.291-.437-.418.334-.635.785-1.017,1.018-.564.341-.9.464-1.89-1.018-.342-.515.145.5-.581.727s-1.407-.792-1.889-1.889c-9.654-22.013-10-86.076-4.069-84.856,2.567-3.739-.945-18.963-.726-22.23s15.121-6.507,19.906-1.6c.549,3.763.193,13.219.145,18.163-.015,1.495.334,5.056.872,6.1C14622.554,1746.576,14619.105,1766.6,14619.105,1766.6Z" fill="#efd4e0" fill-rule="evenodd"/><path d="M14592.515,1715.312s11.055,8.711,14.386,21.5,2.3,43.061-1.744,56.666c-3.387,11.373-4.214,31.385-4.214,31.385s4.759,49.431,4.936,82.347a74.4,74.4,0,0,1-40-.9c-.363,2.493,1.82-47.494,9.2-92.2.237-1.434.585-16.677,1.3-23.542,2.036-19.467,3.658-30.116,3.488-32.4-.219-.594-1.57,1.315-2,2.405-2.444,6.246-5.832,29.922-9.87,49.463-2.9,14.041-5.634,89.825-6.259,96.538-26.175,9.291-40.461.1-40.461.1,2.394-33.059,21.542-91.836,22.554-99.834.689-5.435,2.561-37.463,2.906-41.991s2.177-27.661,12.784-39.812c2.872-2.665-2.659-10.681-1.189-13.033C14559.48,1710.2,14592.515,1715.312,14592.515,1715.312Z" fill="#70678e" fill-rule="evenodd"/><path d="M14560.694,1725.771c-.427.6,1.1,2.531,4.5,3.487,7.221,2.031,20.728,2.628,29.786-7.99,3.52-4.124-7.462,9.986-25.719,7.7C14561.343,1727.978,14561.12,1725.173,14560.694,1725.771Z" fill="#5b5474" fill-rule="evenodd"/><path d="M14584.523,1756.432s-7.52.347-10.026,2.616a11.447,11.447,0,0,0,2.615-.582l-4.794,21.649s3.19-13.634,5.376-19.179a6.644,6.644,0,0,1,1.89-2.614C14580.852,1757.592,14581.043,1757.56,14584.523,1756.432Z" fill="#5b5474" fill-rule="evenodd"/><path d="M14581.121,1758.434s5.873-.686,7.3.151S14583.366,1758.212,14581.121,1758.434Z" fill="#5b5474" fill-rule="evenodd"/><path d="M14536.283,1705.14s4.573-12.267,6.539-17.726,5.985-7.176,18.163-13.367c1.692-1.225,8.032-8.751,14.676-5.086,8.105,4.471,8.809-6.083,12.2-.436a2.937,2.937,0,0,0,1.889,1.309s3.066,2.023,10.461,5.81c10.287,5.268,11.371,9.135,12.933,12.2,1.679,3.3,3.34,22.957,3.34,22.957a15.875,15.875,0,0,1-7.99,2.906c-4.954.229-11.914-1.6-11.914-1.6l.145-1.308a15.364,15.364,0,0,1-4.358,5.667c-4.6,3.872-23.126,13.234-36.761,2.034a34.141,34.141,0,0,1-3.924-3.777l-11.262-6.3Z" fill="#fce78e" fill-rule="evenodd"/><path d="M14560.985,1691.484s-5.556,4.572-9.588,1.017c-.711-.625,2.857-2.675,3.052-3.34.992-3.423,5.872-15.054,7.412-17.29s5.5-6.193,13.077-6.539c8.1-.371,11.653-.336,14.966,3.777a25.907,25.907,0,0,1,1.162,10.752c-.053,2.571-1.216,8.519-1.162,12.059.021,1.437,1.013,1.88,1.162,2.471.515,2.042-2.472,2.615-2.472,2.615a13.95,13.95,0,0,1-7.265-1.162c-3.834-1.722-3.562-2.925-4.794-2.325-2.621,1.276-2.034,1.6-2.034,1.6-.15-.208-.786,12.936-.291,17.146-1.912-.309-3.861.084-5.376-.87.751-8.137,2.039-12.6,1.018-16.129C14567.689,1687.788,14560.985,1691.484,14560.985,1691.484Z" fill="#ec701e" fill-rule="evenodd"/><path d="M14597.76,1708.112s8.244,4.338,18.791-1.985c-6.191,2.2-9.089,2.862-14.521,2.394C14600.118,1708.355,14598.241,1708.066,14597.76,1708.112Z" fill="#d3b151" fill-rule="evenodd"/><path d="M14599.78,1690.32c-.02-1.373.646,14.914-3.2,20.922C14596.2,1711.836,14599.893,1698.68,14599.78,1690.32Z" fill="#d3b151" fill-rule="evenodd"/><path d="M14599.489,1696.713s2.677-2.953,2.325-4.068S14601.642,1693.976,14599.489,1696.713Z" fill="#d3b151" fill-rule="evenodd"/><path d="M14549.07,1692.645a67.21,67.21,0,0,0-.582,10.9c.229,5.882,2.446,9.7,2.325,9.154C14549.584,1707.244,14549.308,1711.1,14549.07,1692.645Z" fill="#d3b151" fill-rule="evenodd"/><path d="M14546.455,1692.5s1.85,5.165,2.47,4.941S14547.409,1699.431,14546.455,1692.5Z" fill="#d3b151" fill-rule="evenodd"/><path d="M14548.925,1704.27s-2.323-3.257-10.315-3.34c-1.792-.018,1.712-1.748,7.7.87A10.868,10.868,0,0,1,14548.925,1704.27Z" fill="#d3b151" fill-rule="evenodd"/><path d="M14571.915,1695.447s-.141,3.856-.119,7.671c.023,3.769.207,7.495.207,7.495l-.87-.214C14570.676,1710.586,14570.875,1697.478,14571.915,1695.447Z" fill="#804c32" fill-rule="evenodd"/><path d="M14567.9,1669.639a8.642,8.642,0,0,0-1.314,3.7C14566.607,1674.124,14567.77,1670.157,14567.9,1669.639Z" fill="#804c32" fill-rule="evenodd"/><path d="M14586.3,1668.687s.3,4.082-.478,5.37S14587.6,1671.4,14586.3,1668.687Z" fill="#804c32" fill-rule="evenodd"/><path d="M14514.5,1620.1s-21.833,6.082-13.186,29.475c5.531,14.965,29.39,25.6,82.839,9.845,55.954-16.495,54.81-45.174,52.684-50.064-2.8-6.443-11.37-17.688-28.2-12.176-.3-.567.031-3.583-3.706-6.564-4.816-2.745-11.507-3.7-13.737,0-1.2,1.986-.587-13.866-18.519-10.623-20.459,3.7-35.67,7.864-42.052,13.487-2.632,3.8-3.618,6.1-3.706,12.653C14528.105,1607.367,14516.892,1600.413,14514.5,1620.1Z" fill="#dc4427" fill-rule="evenodd"/><path d="M14499.977,1634.826c-1.488,3.36-1.676,8.111,1.335,14.758,6.583,14.536,29.434,25.779,82.839,9.845,59.122-17.639,53.415-45.439,52.684-50.184,3.5,22.7-62.329,56.942-98.2,54.518C14513.337,1662.053,14504.748,1645.238,14499.977,1634.826Z" fill="#c13f28" fill-rule="evenodd"/><path d="M14563.72,1580.356s7.81-11.652,1.554-17.783c-7.037-6.9-19.627-11.642-22.408-16.064-3.133-4.979,4.1,4.369-3.875,19.287-6.447,12.062.3,20.122,9.208,19.289S14563.123,1581.16,14563.72,1580.356Z" fill="#dc4427" fill-rule="evenodd"/><path d="M14563.958,1580.119s7.9-11.475,1.075-17.783c5.307,16.977-23.876,22.615-26.387,5.146-6.447,12.062.647,18.438,9.552,17.6S14562.669,1581.4,14563.958,1580.119Z" fill="#c13f28" fill-rule="evenodd"/><path d="M14564.795,1579.165l1.075,2.148-20.753,5.249-.595-1.634S14558.1,1580.235,14564.795,1579.165Z" fill="#fce78e" fill-rule="evenodd"/><path d="M14589.3,1616.478c-3.157,4.6-4.948,13.024-4.948,13.024l-.681,6.477s-1.434,14.841.119,26.5c.994,7.457,2.007,7.835,2.041,9.968s-3.711,9.1-7.846,13.66c-2.446,2.7-5.178,9.311-6.393,9.3.248-1.182-6.009-10.18-5.842-15.26a31.245,31.245,0,0,1,1.314-7.4c.324-.778.972.424,1.194-.954.965-5.97.815-14.874.12-21.844-3.776.4-21.134,5.23-26.62-14.429-2.234-12.747-.533-24.908,1.227-26.095l2.9-5.438s17.97-2.912,29.784-1.546c1.685.195,5.627,8.772,5.856,10.861.834-8.02,6.039-7.094,6.929-6.326C14590.159,1608.344,14590.845,1611.37,14589.3,1616.478Z" fill="#efd4e0" fill-rule="evenodd"/><path d="M14583.073,1652.211s-5.49,8.592-17.323,29.486a49.7,49.7,0,0,1,.478-5.61,21.662,21.662,0,0,1,.838-3.581c.16-.348.423-.015.837-.12.332-.084.3-.9.477-1.91.852-4.951.665-13.866,0-20.53,1.558-.5,6.383-2.559,9.2-5.371a27.9,27.9,0,0,0,4.182-5.729c1.156-2.315,1.2-5.142,1.554-5.013,1,.37-.2,10.66-.239,12.533C14583.028,1648.773,14583.073,1652.211,14583.073,1652.211Z" fill="#e3c1ce" fill-rule="evenodd"/><path d="M14563.094,1626.495l.549.035a15.219,15.219,0,0,1-7.65,8.141l1.388.254a20.505,20.505,0,0,0,4.228-3.686,15.3,15.3,0,0,0,2.454-4.6l1-.406.242-.494-2.655.306Zm4.222-12.505c2.15.623,3.281,2.282,2.607,1.134-1.3-2.216-5.7-3.4-5.7-3.4l-1.58,2.15a12.436,12.436,0,0,1,4.673.115Zm-6.462,10.477a2.2,2.2,0,1,0-1.694-2.127,1.956,1.956,0,0,0,1.694,2.127Zm-4.784,4.865c-.269.361-6.376.948-4.484-.4s2.676-5.435,2.676-5.435a9.569,9.569,0,0,1-1.5,5.634s3.575-.159,3.307.2Zm-7.408-2.385a2.2,2.2,0,1,0-1.694-2.126A1.955,1.955,0,0,0,14548.661,1626.947Zm-5.257-6.663a3.176,3.176,0,0,1,.869-.869s-.482-.508-1.018-1.018c-.972-.245-1.007,3.948-1.007,3.948a17.7,17.7,0,0,1,1.152-2.059Z" fill="#804c33" fill-rule="evenodd"/><path d="M14583.919,1616.724a9.39,9.39,0,1,0,11.608,6.79,9.5,9.5,0,0,0-11.6-6.792Z" fill="#fbe68e" fill-rule="evenodd"/><path d="M14575.186,1601.472a35.6,35.6,0,0,1,3.484,6.894,27,27,0,0,1,1.743,5.979l1.074-5.1s4.639-6.24,9.761-5.022-9.172-9.3-12.8-8.747-18.068,1.839-18.068,1.839l-24.676,5.356-2.557,6.9,2.406,3.214s1.945,9.437,5.349.612c1.329,6.951,10.187,8.063,10.187,8.063s15.909-4.3,16.23-16.108C14567.751,1607.059,14571.314,1608.477,14575.186,1601.472Z" fill="#dc4427" fill-rule="evenodd"/><path d="M14573.693,1604.053s4.322,2.5,5.6,6.644,1.6,4.794,1.6,4.794l1.308-5.811-9.431-13.579s1.945,9.841-2.659,9.763c-3.454-.059-.445-6.314-3.573-4.772-.27.133-1.686,6.838-2.267,9.363-.608,2.651-2.751,4.007-5.323,5.6-8.324,5.161-14.32,5.2-16.836-.722a15.885,15.885,0,0,1-1.113-3.386,29.1,29.1,0,0,1-2.015,4.012c-1.09,1.876-3.49-2.917-3.5-2.98,0,0,1.945,9.436,5.348.612,1.594,8.457,10.188,8.064,10.188,8.064s16.218-2.733,16.539-14.537C14568.045,1608.886,14573.14,1608.352,14573.693,1604.053Z" fill="#c13f28" fill-rule="evenodd"/><path d="M14542.825,1733.616c.2-.876-3.081,3.7-6.1,4.65-3.3,1.041-11.334-.474-14.819-2.323-9.979-5.3-29.253-25.362-39.23-40.54-2.246-3.415-4.48-3.807-6.1-5.521-6.226-6.582-11.915-19.18-11.915-19.18s1.657-1.259,1.163-2.325c-.347-.742-3.314-2.5-2.906-2.615,4.469-1.23,19.481,3.025,19.481,3.025s3.21.412,3.751-.626c.874-1.67-2.547-4.722-.857-7.194a4.943,4.943,0,0,1,1.6-1.162,16.424,16.424,0,0,0,2.615,5.086c1.143,1.15,2.224.686,4.213,2.323a16.248,16.248,0,0,1,4.941,7.412c1.5,3.822-2.5,11.007.582,15.4,6.593,9.408,11.282,13.475,18.307,16.856,6.36,3.058,9.455,3.424,11.625,5.376a8.979,8.979,0,0,0,2.179,1.017,70.843,70.843,0,0,0,5.086-8.573c3.49-.537,8-.7,12.786,4.214a34.212,34.212,0,0,0,3.632,7.265C14550.721,1722.74,14542.825,1733.616,14542.825,1733.616Z" fill="#efd4e0" fill-rule="evenodd"/><path d="M14460.568,1645.36l-1.649-.793-1.635,1.89a1.08,1.08,0,0,0-.175,1.4c.884,1.65,17.529,36.717,17.529,36.717a4.521,4.521,0,0,0,2.933,2.414c2.073.429,14.218-1.784,14.218-1.784s1.1-.119,1.354-.92c.214-.663.479-2.114.479-2.114l-29.418-37.36Z" fill="#31726c" fill-rule="evenodd"/><path d="M14475.419,1644.469l-15.64-.048a.885.885,0,0,0-1.2.915l18,38.152a2.751,2.751,0,0,0,2.341,1.595l13.735-1.967c.861-.121,1.326-.759.865-1.778,0,0-16.253-34.221-16.606-35.212A2.4,2.4,0,0,0,14475.419,1644.469Z" fill="#eee" fill-rule="evenodd"/><path d="M14459.46,1643.925h0a1.3,1.3,0,0,1,.393.06l15.621.045.052.013a2.751,2.751,0,0,1,1.793,1.934c.273.765,10.974,23.341,16.593,35.172l0,.008a1.733,1.733,0,0,1,.046,1.616,1.62,1.62,0,0,1-1.251.773l-13.729,1.967a1.421,1.421,0,0,1-.235.019,2.739,2.739,0,0,1-1.556-.629,3.274,3.274,0,0,1-1.016-1.241l-18.022-38.209-.008-.074a1.32,1.32,0,0,1,1.316-1.454Zm15.9.981-15.663-.049-.075-.029a.466.466,0,0,0-.162-.03h0a.454.454,0,0,0-.274.092.447.447,0,0,0-.177.339l17.969,38.1a2.488,2.488,0,0,0,1.768,1.334.63.63,0,0,0,.1-.008h.009l13.736-1.967a.819.819,0,0,0,.608-.331,1,1,0,0,0-.077-.832c-.69-1.454-16.265-34.251-16.624-35.247A2.11,2.11,0,0,0,14475.36,1644.906Z" fill="#378e87"/><path d="M14475.17,1646.967l-13.16.113,16.532,35.2,12.722-1.4Z" fill="#378e87" fill-rule="evenodd"/><path d="M14460.728,1655.011s-3.1-2.4-3.632-3.051c-.512-.621-3.546-1.861-4.068-1.454-1.222.953-.961,2.942,2.324,5.522,4.83,3.8,8.556,6.11,8.556,6.11Z" fill="#efd4e0" fill-rule="evenodd"/><path d="M14466.105,1663.585a9.01,9.01,0,0,0-.1,1.82c.017.117-2.577.933-3.265.183-.864-.943-2.9-4.077,2.8-6.464,1.578-.661,3.86-1.252,4.777-1.062,2.172.45-.138,4.048-.728,4.359a9.883,9.883,0,0,1-3.486,1.163Z" fill="#efd4e0" fill-rule="evenodd"/><path d="M14471.771,1667.215a8.539,8.539,0,0,0-3.034,1.668c-.4.337-.5,1.232-.545,2.235-.971.5-1.476.645-2.185.4a3.414,3.414,0,0,1,.068-6.384c2.815-1.134,5.913-2.768,6.422-1.693C14473.028,1664.566,14473.188,1666.484,14471.771,1667.215Z" fill="#efd4e0" fill-rule="evenodd"/><path d="M14606.317,1817.747c.24,1.833.41,2.275.5,2.354,0-.061.026-.086.08-.028,0,0-.028.073-.08.028-.013.175.137.648.225.262.045-.206-.172-1.567-.146-1.889.04-.5-.113-1.738-.146-2.325-.087-1.592-.516-6.18-.582-9.3-.029-1.3.728-2.814.291-2.471a8.653,8.653,0,0,0-.582,3.343c.137,3.718.17,8.013.437,10.025Zm-68.019-99.155c0,.02.013.041.02.062a.286.286,0,0,0-.02-.062Zm-1.289-.229c-1.546-3.3-2.837-3.041-5.521-5.085,0,0,5.831,1.592,6.81,5.314-.063-.128,1.037,5.729,1.037,5.729a41.906,41.906,0,0,0-2.325-5.958Zm-39-31.876a1.646,1.646,0,0,0,.039-.317s-.012.12-.039.318Zm-1.793,3.406c-1.4.1,1.424-1.678,1.793-3.406-.125.884-.576,3.321-1.793,3.407Zm-6.424-19.478c-1.422.494.686,4.48.436,3.777A7.775,7.775,0,0,1,14489.789,1670.415Zm0-.146c1.479.909-4.742-2.333-4.941-7.7a28.973,28.973,0,0,0,1.89,3.632c1.2,1.941,2.262,3.583,3.051,4.068Zm-23.393,1.744c1.794.385,1.889-1.6,1.889-1.6-.326,1.392-2.6,1.443-1.893,1.6Zm-.44-8.438s-.85.566-1.443.312.732.968,1.443-.316Z" fill="#e3c1ce" fill-rule="evenodd"/><path d="M14603.557,1819.926s-.983-12.083-.726-13.222a19.74,19.74,0,0,1,.726-2.616c-.056.552-.438,2.55-.436,3.34.007,1.457.727,12.642.727,12.642Z" fill="#e3c1ce" fill-rule="evenodd"/><path d="M14488.481,1685.526a3.211,3.211,0,0,0-.581,2.325C14486.909,1686.764,14488.192,1685.676,14488.481,1685.526Z" fill="#e3c1ce" fill-rule="evenodd"/><path d="M14485.574,1686.4s3.218,2.673,3.194,3.923S14488.79,1686.648,14485.574,1686.4Z" fill="#e3c1ce" fill-rule="evenodd"/><path d="M14467.491,1664.589a18.14,18.14,0,0,0-2.258,1.464,7.3,7.3,0,0,0-1.3,1.369C14463.548,1667.991,14464.331,1665.455,14467.491,1664.589Z" fill="#e3c1ce" fill-rule="evenodd"/><path d="M14469.156,1668.526a4.74,4.74,0,0,1-2.616,1.89A22.887,22.887,0,0,1,14469.156,1668.526Z" fill="#e3c1ce" fill-rule="evenodd"/><path d="M14463.342,1660.242a2.759,2.759,0,0,0-1.308,1.454C14461.806,1662.592,14462.554,1660.965,14463.342,1660.242Z" fill="#e3c1ce" fill-rule="evenodd"/><path d="M14524.219,1899.635s8.859,1.54,16.451,2.916,11.587-1.264,17.221-1.871,0,.22,0,.22a27.078,27.078,0,0,1-8.857,3.191C14544.136,1904.862,14532.417,1905.027,14524.219,1899.635Z" fill="#5b5474" fill-rule="evenodd"/><path d="M14603.1,1900.1s.338.208-7.256,1.583-19.467.59-26.416-.537v.22a57.973,57.973,0,0,0,9.368,2.382C14583.7,1904.52,14600.744,1903.75,14603.1,1900.1Z" fill="#5b5474" fill-rule="evenodd"/></g></g></svg>