<svg xmlns="http://www.w3.org/2000/svg" xmlns:xlink="http://www.w3.org/1999/xlink" width="102.307" height="88.322" viewBox="0 0 102.307 88.322"><defs><linearGradient id="a" x1="1.15" y1="-0.407" x2="0.03" y2="1.155" gradientUnits="objectBoundingBox"><stop offset="0" stop-color="#9b4a69"/><stop offset="1" stop-color="#f388b0"/></linearGradient><linearGradient id="b" x1="2.593" y1="-0.995" x2="-2.438" y2="2.599" xlink:href="#a"/><linearGradient id="c" x1="4.252" y1="-3.134" x2="-5.075" y2="5.901" xlink:href="#a"/><linearGradient id="d" x1="4.591" y1="-3.463" x2="-1.78" y2="2.709" xlink:href="#a"/><linearGradient id="e" x1="2.949" y1="-3.255" x2="-0.33" y2="1.779" xlink:href="#a"/><linearGradient id="f" x1="40.695" y1="-7.941" x2="-8.905" y2="2.474" xlink:href="#a"/><linearGradient id="g" x1="37.203" y1="-7.121" x2="-12.957" y2="3.295" xlink:href="#a"/><linearGradient id="h" x1="2.967" y1="-27.014" x2="-1.402" y2="21.703" xlink:href="#a"/><linearGradient id="i" x1="2.254" y1="-24.622" x2="-1.138" y2="23.956" xlink:href="#a"/><linearGradient id="j" x1="3.92" y1="-24.986" x2="-2.618" y2="23.73" xlink:href="#a"/><linearGradient id="k" x1="4.047" y1="-25.865" x2="-2.49" y2="22.721" xlink:href="#a"/><linearGradient id="l" x1="1.68" y1="-20.71" x2="-1.023" y2="27.869" xlink:href="#a"/></defs><g transform="translate(-286 -2773.461)"><g transform="translate(286 2773.461)"><path d="M117.369,127.93H33.592a9.252,9.252,0,0,1-9.252-9.252V66.136a9.239,9.239,0,0,1,9.246-9.246H65.445a1.3,1.3,0,0,1,1.3,1.3v7.8A2.159,2.159,0,0,0,68.9,68.151H82.792a2.159,2.159,0,0,0,2.159-2.159v-7.8a1.3,1.3,0,0,1,1.3-1.3H117.4a9.246,9.246,0,0,1,9.246,9.246v52.548a9.246,9.246,0,0,1-9.278,9.246ZM26.635,65.837v53.147a6.651,6.651,0,0,0,6.651,6.651h84.388a6.645,6.645,0,0,0,6.645-6.645V65.83a6.645,6.645,0,0,0-6.645-6.645H87.187v6.5a4.759,4.759,0,0,1-4.759,4.759H69.184A4.779,4.779,0,0,1,64.431,65.7V59.2H33.287a6.671,6.671,0,0,0-6.651,6.638Z" transform="translate(-24.34 -39.608)" fill="url(#a)"/><path d="M104.023,61.168H90.746A4.772,4.772,0,0,1,86,56.409V35.069a4.759,4.759,0,0,1,4.759-4.759h13.277a4.759,4.759,0,0,1,4.72,4.759V56.409a4.759,4.759,0,0,1-4.733,4.759ZM88.282,34.77V56.708a2.165,2.165,0,0,0,2.165,2.165h13.882a2.159,2.159,0,0,0,2.159-2.159V34.764a2.159,2.159,0,0,0-2.159-2.159H90.447A2.172,2.172,0,0,0,88.282,34.77Z" transform="translate(-45.909 -30.31)" fill="url(#b)"/><path d="M101.247,51.953a6.138,6.138,0,1,1,5.006-5.006,6.138,6.138,0,0,1-5.006,5.006Zm-.163-9.753a3.843,3.843,0,0,0-4.616,4.616,3.8,3.8,0,0,0,2.861,2.861,3.843,3.843,0,0,0,4.616-4.616,3.8,3.8,0,0,0-2.861-2.893Z" transform="translate(-48.731 -33.618)" fill="url(#c)"/><path d="M64,100.792a8.986,8.986,0,1,1,7.737-7.737A8.986,8.986,0,0,1,64,100.792Zm0-15.5a5.439,5.439,0,1,1-.033,0Z" transform="translate(-34.659 -48.706)" fill="url(#d)"/><path d="M73.44,137.856v-17.77a1.248,1.248,0,0,0-1.268-1.3H44.35a1.248,1.248,0,0,0-1.255,1.3v17.8a.2.2,0,0,1-.052.137c-1.008,1.073-2.243.377-2.243-.611V118.136a1.6,1.6,0,0,1,1.6-1.606H74.09a1.6,1.6,0,0,1,1.625,1.606v19.246c0,.988-1.235,1.684-2.237.611a.176.176,0,0,1-.039-.137Z" transform="translate(-30.098 -60.471)" fill="url(#e)"/><path d="M52.45,143.4v-8.212a1.209,1.209,0,0,1,1.008-1.2,1.151,1.151,0,0,1,1.3,1.138v8.355a1.151,1.151,0,0,1-1.3,1.138A1.209,1.209,0,0,1,52.45,143.4Z" transform="translate(-34.173 -66.577)" fill="url(#f)"/><path d="M79.35,143.4v-8.212a1.209,1.209,0,0,1,.982-1.2,1.151,1.151,0,0,1,1.3,1.138v8.355a1.151,1.151,0,0,1-1.3,1.138,1.209,1.209,0,0,1-.982-1.222Z" transform="translate(-43.583 -66.577)" fill="url(#g)"/><path d="M127.264,126.445H103.434a1.209,1.209,0,0,1-1.229-.975,1.157,1.157,0,0,1,1.138-1.3h23.829a1.209,1.209,0,0,1,1.222.982,1.144,1.144,0,0,1-1.131,1.294Z" transform="translate(-51.575 -63.143)" fill="url(#h)"/><path d="M134.812,115.662H103.434a1.209,1.209,0,0,1-1.229-.982,1.151,1.151,0,0,1,1.138-1.3h31.378a1.209,1.209,0,0,1,1.222.982,1.144,1.144,0,0,1-1.131,1.3Z" transform="translate(-51.574 -59.368)" fill="url(#i)"/><path d="M118.57,104.885H103.434a1.209,1.209,0,0,1-1.229-.975,1.157,1.157,0,0,1,1.138-1.3h15.136a1.209,1.209,0,0,1,1.222.982,1.144,1.144,0,0,1-1.131,1.294Z" transform="translate(-51.575 -55.601)" fill="url(#j)"/><path d="M156.054,150.442H140.917a1.209,1.209,0,0,1-1.222-.982,1.151,1.151,0,0,1,1.138-1.3h15.136a1.216,1.216,0,0,1,1.222.982,1.151,1.151,0,0,1-1.138,1.3Z" transform="translate(-64.689 -71.535)" fill="url(#k)"/><path d="M143.407,94.1H103.434a1.209,1.209,0,0,1-1.229-.982,1.151,1.151,0,0,1,1.138-1.3h39.974a1.209,1.209,0,0,1,1.222.982,1.144,1.144,0,0,1-1.131,1.3Z" transform="translate(-51.574 -51.827)" fill="url(#l)"/></g></g></svg>