<svg xmlns="http://www.w3.org/2000/svg" xmlns:xlink="http://www.w3.org/1999/xlink" width="100.61" height="79.092" viewBox="0 0 100.61 79.092"><defs><linearGradient id="a" x1="0.5" x2="0.5" y2="1" gradientUnits="objectBoundingBox"><stop offset="0" stop-color="#c59d48"/><stop offset="1" stop-color="#9d7d3a"/></linearGradient></defs><g transform="translate(0.013 -5.131)"><path d="M51.193,79.057a82.312,82.312,0,0,1-18.942,2.029c-18.043,0-29.12-4.507-29.12-7.739V71.018c5.477,3.9,17.339,5.93,29.12,5.93a93.1,93.1,0,0,0,15.092-1.18,1.572,1.572,0,1,0-.52-3.1A89.809,89.809,0,0,1,32.245,73.8C14.2,73.8,3.125,69.3,3.125,66.065c0-1.153,1.564-2.515,4.221-3.723,4.84,4.481,17.563,6.812,30.2,6.812,2.071,0,4.146-.063,6.162-.184a1.574,1.574,0,0,0,1.467-1.664,1.612,1.612,0,0,0-1.664-1.467c-1.956.117-3.966.178-5.974.178-15.752,0-26.19-3.435-28.588-6.458-.029-.038-.048-.084-.08-.119a2.031,2.031,0,0,1-.451-1.161V55.952c5.477,3.9,17.339,5.93,29.118,5.93q2.345,0,4.611-.1A1.574,1.574,0,0,0,42,58.635c-1.453.065-2.934.1-4.458.1-18.041,0-29.118-4.507-29.118-7.739,0-.809.857-1.771,2.306-2.691A82.193,82.193,0,0,0,32.251,50.9a97.311,97.311,0,0,0,11.155-.629,1.572,1.572,0,1,0-.361-3.123,94.41,94.41,0,0,1-10.795.6,75.85,75.85,0,0,1-21.185-2.612,1.517,1.517,0,0,0-.235-.071c-4.961-1.526-7.7-3.444-7.7-5.049v-2.32c5.477,3.9,17.339,5.94,29.12,5.94a93.064,93.064,0,0,0,15.075-1.176,1.573,1.573,0,0,0-.52-3.1,89.74,89.74,0,0,1-14.555,1.134c-18.043,0-29.12-4.517-29.12-7.755,0-1.258,2.079-3.28,7.755-5.031,5.11,4.255,17.5,6.464,29.81,6.464,16.033,0,32.262-3.737,32.262-10.881V16.014c0-7.145-16.23-10.883-32.262-10.883S8.436,8.879,8.436,16.024V23.3a4.632,4.632,0,0,0,.4,1.775c-5.779,1.964-8.847,4.59-8.847,7.657v7.273c0,2.951,2.8,5.311,7.177,7.076a5.4,5.4,0,0,0-1.876,3.909v7.273a4.63,4.63,0,0,0,.256,1.467c-4.515,2.2-5.557,4.618-5.557,6.328v7.273c0,7.145,16.23,10.883,32.264,10.883A84.431,84.431,0,0,0,51.942,82.1a1.572,1.572,0,0,0-.748-3.054ZM40.7,31.034c-18.041,0-29.118-4.507-29.118-7.737V20.975c5.475,3.9,17.339,5.93,29.118,5.93s23.641-2.025,29.114-5.93V23.3C69.813,26.527,58.739,31.034,40.7,31.034Zm0-22.748c18.041,0,29.118,4.507,29.118,7.739S58.739,23.761,40.7,23.761,11.58,19.254,11.58,16.024,22.652,8.286,40.7,8.286Z" transform="translate(0)" fill="url(#a)"/><path d="M49.208,17.489A26.595,26.595,0,1,0,75.8,44.083,26.6,26.6,0,0,0,49.208,17.489Zm0,50.043A23.451,23.451,0,1,1,72.656,44.083,23.451,23.451,0,0,1,49.208,67.532Z" transform="translate(24.797 13.545)" fill="url(#a)"/><path d="M42.306,39.119V28.849c3.754.478,4.278,2.61,4.33,2.9a1.572,1.572,0,1,0,3.117-.419c-.029-.21-.723-4.995-7.447-5.647V23.141a1.572,1.572,0,0,0-3.144,0v2.595a8.736,8.736,0,0,0-5.4,2.469A7.154,7.154,0,0,0,31.9,33.7c.275,4.421,3.821,6.462,7.25,7.693V51.568a5.416,5.416,0,0,1-5.06-4.523,1.572,1.572,0,1,0-3.108.476c.363,2.36,1.924,6.273,8.175,7.242v3.3a1.572,1.572,0,0,0,3.144,0V54.915a7.8,7.8,0,0,0,7.77-6.152C51.062,42.07,46.5,40.442,42.306,39.119Zm-7.254-5.613a4.039,4.039,0,0,1,1.006-3.144,5.414,5.414,0,0,1,3.1-1.467v9.122C35.779,36.552,35.144,34.994,35.052,33.506ZM46.966,48.3a4.689,4.689,0,0,1-4.66,3.465V42.427C45.933,43.642,47.5,44.659,46.966,48.3Z" transform="translate(33.956 18.017)" fill="url(#a)"/></g></svg>