<svg xmlns="http://www.w3.org/2000/svg" xmlns:xlink="http://www.w3.org/1999/xlink" width="142.114" height="132.563" viewBox="0 0 142.114 132.563"><defs><linearGradient id="a" x1="1.863" y1="-0.776" x2="-0.548" y2="1.437" gradientUnits="objectBoundingBox"><stop offset="0" stop-color="#69c373"/><stop offset="1" stop-color="#205026"/></linearGradient><linearGradient id="b" x1="2.234" y1="-0.942" x2="-2.351" y2="2.871" xlink:href="#a"/><linearGradient id="c" x1="7.149" y1="-18.857" x2="-10.888" y2="33.653" xlink:href="#a"/><linearGradient id="d" x1="10.728" y1="-11.319" x2="-4.652" y2="6.453" xlink:href="#a"/><linearGradient id="e" x1="2.141" y1="-18.292" x2="-2.444" y2="34.218" xlink:href="#a"/><linearGradient id="f" x1="2.039" y1="-32.998" x2="-0.373" y2="19.512" xlink:href="#a"/><linearGradient id="g" x1="1.594" y1="-0.829" x2="-0.726" y2="1.802" xlink:href="#a"/><linearGradient id="h" x1="1.934" y1="-22.315" x2="-1.367" y2="30.194" xlink:href="#a"/><linearGradient id="i" x1="2.018" y1="-23.655" x2="-1.282" y2="28.854" xlink:href="#a"/><linearGradient id="j" x1="3.672" y1="-26.524" x2="-2.491" y2="25.986" xlink:href="#a"/><linearGradient id="k" x1="2.215" y1="-1.14" x2="-1.51" y2="3.351" xlink:href="#a"/><linearGradient id="l" x1="4.025" y1="-1.655" x2="-3.354" y2="2.836" xlink:href="#a"/><linearGradient id="m" x1="19.185" y1="-14.854" x2="-14.806" y2="13.077" xlink:href="#a"/><linearGradient id="n" x1="15.915" y1="-12.167" x2="-18.077" y2="15.763" xlink:href="#a"/><linearGradient id="o" x1="1.869" y1="-3.146" x2="-0.98" y2="5.195" xlink:href="#a"/><linearGradient id="p" x1="26.068" y1="-28.521" x2="-20.193" y2="23.988" xlink:href="#a"/><linearGradient id="q" x1="21.491" y1="-23.267" x2="-24.796" y2="29.141" xlink:href="#a"/><linearGradient id="r" x1="1.568" y1="-2.213" x2="-1.28" y2="3.96" xlink:href="#a"/><linearGradient id="s" x1="21.501" y1="-23.284" x2="-24.817" y2="29.169" xlink:href="#a"/><linearGradient id="t" x1="26.068" y1="-28.485" x2="-20.193" y2="23.959" xlink:href="#a"/></defs><g transform="translate(34.601 49.33)"><path d="M671.222,164.57a8.494,8.494,0,0,1-8.288-8.707V83.127a1.785,1.785,0,0,1,1.754-1.789,1.725,1.725,0,0,1,1.754,1.719V155.9a4.99,4.99,0,0,0,4.831,5.167h50.754a4.968,4.968,0,0,0,4.781-5.112V133.607a1.754,1.754,0,0,1,3.509,0V155.9a8.475,8.475,0,0,1-8.217,8.674Z" transform="translate(-662.93 -81.338)" fill="url(#a)"/></g><g transform="translate(66.54 17.525)"><path d="M733.034,93.391a1.755,1.755,0,0,1-1.754-1.754V53.753a4.977,4.977,0,0,0-1.357-3.62,4.927,4.927,0,0,0-3.469-1.547H701.1a1.754,1.754,0,0,1,0-3.509h25.4a8.469,8.469,0,0,1,8.288,8.707V91.637A1.754,1.754,0,0,1,733.034,93.391Z" transform="translate(-699.343 -45.078)" fill="url(#b)"/></g><g transform="translate(66.536 25.13)"><path d="M706.594,57.257h-5.5a1.754,1.754,0,1,1,0-3.509h5.5a1.754,1.754,0,1,1,0,3.509Z" transform="translate(-699.338 -53.748)" fill="url(#c)"/></g><g transform="translate(63.007 116.37)"><path d="M700.6,168.133a5.184,5.184,0,1,1,5.283-5.183A5.239,5.239,0,0,1,700.6,168.133Zm0-6.857a1.677,1.677,0,1,0,1.774,1.674A1.729,1.729,0,0,0,700.6,161.276Z" transform="translate(-695.315 -157.767)" fill="url(#d)"/></g><g transform="translate(66.536 33.265)"><path d="M733.025,66.531H701.092a1.754,1.754,0,1,1,0-3.509h31.933a1.754,1.754,0,1,1,0,3.509Z" transform="translate(-699.338 -63.022)" fill="url(#e)"/></g><g transform="translate(34.602 110.924)"><path d="M728.553,155.068H664.686a1.754,1.754,0,0,1,0-3.509h63.866a1.754,1.754,0,0,1,0,3.509Z" transform="translate(-662.932 -151.559)" fill="url(#f)"/></g><g transform="translate(0 0)"><path d="M677.823,95.138a1.755,1.755,0,0,1-1.358-.643L662.931,77.972H630.737a7.262,7.262,0,0,1-7.254-7.254V32.361a7.267,7.267,0,0,1,7.254-7.263h55.532a7.266,7.266,0,0,1,7.263,7.254V70.709a7.266,7.266,0,0,1-7.263,7.254h-6.693v15.42a1.752,1.752,0,0,1-1.753,1.754ZM630.737,28.607a3.754,3.754,0,0,0-3.745,3.754V70.718a3.75,3.75,0,0,0,3.745,3.745h33.024a1.755,1.755,0,0,1,1.358.643l10.948,13.367V76.209a1.754,1.754,0,0,1,1.754-1.754h8.447a3.754,3.754,0,0,0,3.754-3.745V32.352a3.754,3.754,0,0,0-3.754-3.745Z" transform="translate(-623.483 -25.098)" fill="url(#g)"/></g><g transform="translate(10.58 15.089)"><path d="M683.026,45.81H637.3a1.754,1.754,0,0,1,0-3.509h45.726a1.754,1.754,0,0,1,0,3.509Z" transform="translate(-635.545 -42.301)" fill="url(#h)"/></g><g transform="translate(10.58 23.45)"><path d="M683.026,55.341H637.3a1.754,1.754,0,0,1,0-3.509h45.726a1.754,1.754,0,0,1,0,3.509Z" transform="translate(-635.545 -51.832)" fill="url(#i)"/></g><g transform="translate(10.58 31.259)"><path d="M660.158,64.244H637.3a1.754,1.754,0,0,1,0-3.509h22.858a1.754,1.754,0,0,1,0,3.509Z" transform="translate(-635.545 -60.735)" fill="url(#j)"/></g><g transform="translate(98.477 62.33)"><path d="M774.312,137.182h-36.8a1.754,1.754,0,0,1-1.754-1.754v-.351a1.754,1.754,0,0,1,1.754-1.754h35.762c.045,0,.09,0,.135,0l-15.518-15.582a1.754,1.754,0,0,1,0-2.475L773.405,99.67c-.045,0-.09,0-.136,0a1.754,1.754,0,0,1,0-3.509h1.043a5.084,5.084,0,0,1,5.079,5.079V132.1A5.084,5.084,0,0,1,774.312,137.182ZM761.605,116.5l14.277,14.336V102.156Z" transform="translate(-735.753 -96.158)" fill="url(#k)"/></g><g transform="translate(82.504 62.33)"><path d="M735.27,137.182H722.613a5.08,5.08,0,0,1-5.07-5.079V101.237a5.08,5.08,0,0,1,5.07-5.079h1.053a1.754,1.754,0,0,1,0,3.509c-.046,0-.091,0-.136,0l15.526,15.582a1.756,1.756,0,0,1-.032,2.509l-.009.008-15.479,15.55c.043,0,.086,0,.13,0h11.6a1.754,1.754,0,0,1,1.754,1.754v.351A1.754,1.754,0,0,1,735.27,137.182Zm-14.218-35.028v28.689l14.285-14.353Z" transform="translate(-717.543 -96.158)" fill="url(#l)"/></g><g transform="translate(82.504 95.126)"><path d="M720.569,140.144a1.751,1.751,0,0,1-1.24-.513,6.161,6.161,0,0,1-1.786-4.329,1.754,1.754,0,0,1,3.509,0,2.625,2.625,0,0,0,.758,1.846,1.754,1.754,0,0,1-1.24,3Z" transform="translate(-717.543 -133.548)" fill="url(#m)"/></g><g transform="translate(82.504 63.61)"><path d="M719.3,104.214a1.754,1.754,0,0,1-1.754-1.754,6.161,6.161,0,0,1,1.786-4.328,1.754,1.754,0,1,1,2.481,2.481,2.626,2.626,0,0,0-.759,1.847A1.754,1.754,0,0,1,719.3,104.214Z" transform="translate(-717.543 -97.618)" fill="url(#n)"/></g><g transform="translate(83.794 80.916)"><path d="M771.213,139.434H723.847a6.042,6.042,0,0,1-4.327-1.8,1.754,1.754,0,0,1,0-2.471l17.219-17.3a1.754,1.754,0,0,1,1.242-.516h0a1.753,1.753,0,0,1,1.242.517l6.456,6.482a2.636,2.636,0,0,0,3.7-.006l6.44-6.475a1.753,1.753,0,0,1,1.244-.518h0a1.753,1.753,0,0,1,1.243.517l17.227,17.3a1.754,1.754,0,0,1,0,2.471A6.129,6.129,0,0,1,771.213,139.434Zm-47.5-3.512c.043,0,.086,0,.13,0h47.366c.045,0,.09,0,.135,0l-14.275-14.333-5.2,5.232a6.154,6.154,0,0,1-8.665.007l-5.218-5.24Z" transform="translate(-719.013 -117.348)" fill="url(#o)"/></g><g transform="translate(83.785 98.214)"><path d="M720.766,140.577h-.009a1.754,1.754,0,1,1,.009,0Z" transform="translate(-719.003 -137.068)" fill="url(#p)"/></g><g transform="translate(101.003 80.908)"><path d="M740.39,120.854a1.737,1.737,0,0,1-1.234-.512l-.009-.009a1.747,1.747,0,1,1,1.243.521Z" transform="translate(-738.633 -117.338)" fill="url(#q)"/></g><g transform="translate(83.785 62.33)"><path d="M747.529,126.005a6.12,6.12,0,0,1-4.327-1.781l-6.461-6.488a1.643,1.643,0,0,1-.138-.155l-17.089-17.15a1.756,1.756,0,0,1,0-2.48,6.166,6.166,0,0,1,4.329-1.794h47.366a6.132,6.132,0,0,1,4.333,1.8,1.756,1.756,0,0,1,0,2.473l-23.674,23.787A6.134,6.134,0,0,1,747.529,126.005Zm-8.155-10.6,6.308,6.335a2.636,2.636,0,0,0,3.7-.006l21.96-22.067c-.045,0-.09,0-.136,0H723.846c-.046,0-.091,0-.136,0l15.526,15.582A1.789,1.789,0,0,1,739.375,115.409Z" transform="translate(-719.003 -96.158)" fill="url(#r)"/></g><g transform="translate(101.029 80.905)"><path d="M740.417,120.847a1.748,1.748,0,0,1-.675-.131,1.786,1.786,0,0,1-.57-.386,1.718,1.718,0,0,1-.509-1.238,1.5,1.5,0,0,1,.035-.341,1.46,1.46,0,0,1,.1-.333,1.945,1.945,0,0,1,.158-.3,2.185,2.185,0,0,1,.219-.272,1.625,1.625,0,0,1,.263-.211,1.488,1.488,0,0,1,.307-.166,1.778,1.778,0,0,1,1.342,0,1.235,1.235,0,0,1,.3.166,1.7,1.7,0,0,1,.272.211,3.448,3.448,0,0,1,.219.272,1.944,1.944,0,0,1,.158.3,2.1,2.1,0,0,1,.105.333,2.254,2.254,0,0,1,.035.341,1.766,1.766,0,0,1-1.754,1.754Z" transform="translate(-738.663 -117.335)" fill="url(#s)"/></g><g transform="translate(83.785 98.214)"><path d="M720.757,140.581a1.759,1.759,0,1,1,.7-.146A1.751,1.751,0,0,1,720.757,140.581Z" transform="translate(-719.003 -137.068)" fill="url(#t)"/></g></svg>