<svg xmlns="http://www.w3.org/2000/svg" xmlns:xlink="http://www.w3.org/1999/xlink" width="148.918" height="148.917" viewBox="0 0 148.918 148.917"><defs><linearGradient id="a" x1="0.86" y1="0.019" x2="-0.044" y2="1.226" gradientUnits="objectBoundingBox"><stop offset="0" stop-color="#d8805a"/><stop offset="1" stop-color="#7b4129"/></linearGradient><clipPath id="b"><circle cx="11.089" cy="11.089" r="11.089" transform="translate(-1786.555 4026.998)" fill="none"/></clipPath><clipPath id="c"><path d="M-1753.161,4078.777h-44.608a22.306,22.306,0,0,1,22.3-22.3A22.306,22.306,0,0,1-1753.161,4078.777Z" fill="none"/></clipPath><linearGradient id="d" x1="1.797" y1="-1.232" x2="-2.303" y2="4.243" xlink:href="#a"/><linearGradient id="e" x1="1.563" y1="-1.841" x2="-0.644" y2="3.607" xlink:href="#a"/><linearGradient id="f" x1="2.546" y1="-20.837" x2="-0.889" y2="14.991" xlink:href="#a"/><linearGradient id="g" x1="1.192" y1="-6.722" x2="-2.243" y2="29.106" xlink:href="#a"/><linearGradient id="h" x1="4.135" y1="-0.122" x2="-22.693" y2="4.466" xlink:href="#a"/><linearGradient id="i" x1="18.25" y1="-2.535" x2="-8.578" y2="2.052" xlink:href="#a"/></defs><g transform="translate(1849.938 -3982.015)"><path d="M-1775.468,4115.8a59.4,59.4,0,0,1-59.328-59.328,59.4,59.4,0,0,1,59.328-59.327,59.4,59.4,0,0,1,59.328,59.327A59.4,59.4,0,0,1-1775.468,4115.8Zm0-114.655a55.39,55.39,0,0,0-55.328,55.327,55.391,55.391,0,0,0,55.328,55.328,55.39,55.39,0,0,0,55.328-55.328A55.39,55.39,0,0,0-1775.468,4001.146Z" fill="url(#a)"/><g opacity="0.3"><g clip-path="url(#b)"><path d="M-1786.555,4027v0Z" fill="#d8805a"/><rect width="0.238" height="22.179" transform="translate(-1786.555 4026.998)" fill="#d8805a"/><rect width="0.238" height="22.179" transform="translate(-1786.317 4026.998)" fill="#d77f59"/><rect width="0.238" height="22.179" transform="translate(-1786.078 4026.998)" fill="#d67f59"/><rect width="0.238" height="22.179" transform="translate(-1785.84 4026.998)" fill="#d57e58"/><rect width="0.238" height="22.179" transform="translate(-1785.601 4026.998)" fill="#d47d58"/><rect width="0.238" height="22.179" transform="translate(-1785.363 4026.998)" fill="#d37d57"/><rect width="0.238" height="22.179" transform="translate(-1785.124 4026.998)" fill="#d27c57"/><rect width="0.238" height="22.179" transform="translate(-1784.886 4026.998)" fill="#d17b56"/><rect width="0.238" height="22.179" transform="translate(-1784.647 4026.998)" fill="#d07b56"/><rect width="0.238" height="22.179" transform="translate(-1784.409 4026.998)" fill="#cf7a55"/><rect width="0.238" height="22.179" transform="translate(-1784.171 4026.998)" fill="#ce7955"/><rect width="0.238" height="22.179" transform="translate(-1783.932 4026.998)" fill="#cd7854"/><rect width="0.238" height="22.179" transform="translate(-1783.694 4026.998)" fill="#cc7854"/><rect width="0.238" height="22.179" transform="translate(-1783.455 4026.998)" fill="#cb7753"/><rect width="0.238" height="22.179" transform="translate(-1783.217 4026.998)" fill="#ca7653"/><rect width="0.238" height="22.179" transform="translate(-1782.978 4026.998)" fill="#c97652"/><rect width="0.238" height="22.179" transform="translate(-1782.74 4026.998)" fill="#c87551"/><rect width="0.238" height="22.179" transform="translate(-1782.501 4026.998)" fill="#c77451"/><rect width="0.238" height="22.179" transform="translate(-1782.263 4026.998)" fill="#c67450"/><rect width="0.238" height="22.179" transform="translate(-1782.024 4026.998)" fill="#c57350"/><rect width="0.238" height="22.179" transform="translate(-1781.786 4026.998)" fill="#c4724f"/><rect width="0.238" height="22.179" transform="translate(-1781.547 4026.998)" fill="#c3724f"/><rect width="0.238" height="22.179" transform="translate(-1781.309 4026.998)" fill="#c2714e"/><rect width="0.238" height="22.179" transform="translate(-1781.07 4026.998)" fill="#c1704e"/><rect width="0.238" height="22.179" transform="translate(-1780.832 4026.998)" fill="#c0704d"/><rect width="0.238" height="22.179" transform="translate(-1780.593 4026.998)" fill="#bf6f4d"/><rect width="0.238" height="22.179" transform="translate(-1780.355 4026.998)" fill="#be6e4c"/><rect width="0.238" height="22.179" transform="translate(-1780.116 4026.998)" fill="#bd6e4c"/><rect width="0.238" height="22.179" transform="translate(-1779.878 4026.998)" fill="#bc6d4b"/><rect width="0.238" height="22.179" transform="translate(-1779.639 4026.998)" fill="#bb6c4b"/><rect width="0.238" height="22.179" transform="translate(-1779.401 4026.998)" fill="#ba6b4a"/><rect width="0.238" height="22.179" transform="translate(-1779.162 4026.998)" fill="#b96b49"/><rect width="0.238" height="22.179" transform="translate(-1778.924 4026.998)" fill="#b86a49"/><rect width="0.238" height="22.179" transform="translate(-1778.686 4026.998)" fill="#b76948"/><rect width="0.238" height="22.179" transform="translate(-1778.447 4026.998)" fill="#b66948"/><rect width="0.238" height="22.179" transform="translate(-1778.208 4026.998)" fill="#b56847"/><rect width="0.238" height="22.179" transform="translate(-1777.97 4026.998)" fill="#b46747"/><rect width="0.238" height="22.179" transform="translate(-1777.732 4026.998)" fill="#b36746"/><rect width="0.238" height="22.179" transform="translate(-1777.493 4026.998)" fill="#b26646"/><rect width="0.238" height="22.179" transform="translate(-1777.255 4026.998)" fill="#b16545"/><rect width="0.238" height="22.179" transform="translate(-1777.016 4026.998)" fill="#b06545"/><rect width="0.238" height="22.179" transform="translate(-1776.778 4026.998)" fill="#af6444"/><rect width="0.238" height="22.179" transform="translate(-1776.539 4026.998)" fill="#ae6344"/><rect width="0.238" height="22.179" transform="translate(-1776.301 4026.998)" fill="#ad6343"/><rect width="0.238" height="22.179" transform="translate(-1776.062 4026.998)" fill="#ac6243"/><rect width="0.238" height="22.179" transform="translate(-1775.824 4026.998)" fill="#ab6142"/><rect width="0.238" height="22.179" transform="translate(-1775.585 4026.998)" fill="#aa6142"/><rect width="0.238" height="22.179" transform="translate(-1775.347 4026.998)" fill="#a86041"/><rect width="0.238" height="22.179" transform="translate(-1775.108 4026.998)" fill="#a75f40"/><rect width="0.238" height="22.179" transform="translate(-1774.87 4026.998)" fill="#a65e40"/><rect width="0.238" height="22.179" transform="translate(-1774.631 4026.998)" fill="#a55e3f"/><rect width="0.238" height="22.179" transform="translate(-1774.393 4026.998)" fill="#a45d3f"/><rect width="0.238" height="22.179" transform="translate(-1774.154 4026.998)" fill="#a35c3e"/><rect width="0.238" height="22.179" transform="translate(-1773.916 4026.998)" fill="#a25c3e"/><rect width="0.238" height="22.179" transform="translate(-1773.677 4026.998)" fill="#a15b3d"/><rect width="0.238" height="22.179" transform="translate(-1773.439 4026.998)" fill="#a05a3d"/><rect width="0.238" height="22.179" transform="translate(-1773.2 4026.998)" fill="#9f5a3c"/><rect width="0.238" height="22.179" transform="translate(-1772.962 4026.998)" fill="#9e593c"/><rect width="0.238" height="22.179" transform="translate(-1772.724 4026.998)" fill="#9d583b"/><rect width="0.238" height="22.179" transform="translate(-1772.485 4026.998)" fill="#9c583b"/><rect width="0.238" height="22.179" transform="translate(-1772.247 4026.998)" fill="#9b573a"/><rect width="0.238" height="22.179" transform="translate(-1772.008 4026.998)" fill="#9a563a"/><rect width="0.238" height="22.179" transform="translate(-1771.77 4026.998)" fill="#995639"/><rect width="0.238" height="22.179" transform="translate(-1771.531 4026.998)" fill="#985538"/><rect width="0.238" height="22.179" transform="translate(-1771.293 4026.998)" fill="#975438"/><rect width="0.238" height="22.179" transform="translate(-1771.054 4026.998)" fill="#965337"/><rect width="0.238" height="22.179" transform="translate(-1770.816 4026.998)" fill="#955337"/><rect width="0.238" height="22.179" transform="translate(-1770.577 4026.998)" fill="#945236"/><rect width="0.238" height="22.179" transform="translate(-1770.339 4026.998)" fill="#935136"/><rect width="0.238" height="22.179" transform="translate(-1770.1 4026.998)" fill="#925135"/><rect width="0.238" height="22.179" transform="translate(-1769.862 4026.998)" fill="#915035"/><rect width="0.238" height="22.179" transform="translate(-1769.623 4026.998)" fill="#904f34"/><rect width="0.238" height="22.179" transform="translate(-1769.385 4026.998)" fill="#8f4f34"/><rect width="0.238" height="22.179" transform="translate(-1769.146 4026.998)" fill="#8e4e33"/><rect width="0.238" height="22.179" transform="translate(-1768.908 4026.998)" fill="#8d4d33"/><rect width="0.238" height="22.179" transform="translate(-1768.669 4026.998)" fill="#8c4d32"/><rect width="0.238" height="22.179" transform="translate(-1768.431 4026.998)" fill="#8b4c32"/><rect width="0.238" height="22.179" transform="translate(-1768.192 4026.998)" fill="#8a4b31"/><rect width="0.238" height="22.179" transform="translate(-1767.954 4026.998)" fill="#894b30"/><rect width="0.238" height="22.179" transform="translate(-1767.715 4026.998)" fill="#884a30"/><rect width="0.238" height="22.179" transform="translate(-1767.477 4026.998)" fill="#87492f"/><rect width="0.238" height="22.179" transform="translate(-1767.239 4026.998)" fill="#86492f"/><rect width="0.238" height="22.179" transform="translate(-1767 4026.998)" fill="#85482e"/><rect width="0.238" height="22.179" transform="translate(-1766.762 4026.998)" fill="#84472e"/><rect width="0.238" height="22.179" transform="translate(-1766.523 4026.998)" fill="#83462d"/><rect width="0.238" height="22.179" transform="translate(-1766.285 4026.998)" fill="#82462d"/><rect width="0.238" height="22.179" transform="translate(-1766.046 4026.998)" fill="#81452c"/><rect width="0.238" height="22.179" transform="translate(-1765.808 4026.998)" fill="#80442c"/><rect width="0.238" height="22.179" transform="translate(-1765.569 4026.998)" fill="#7f442b"/><rect width="0.238" height="22.179" transform="translate(-1765.331 4026.998)" fill="#7e432b"/><rect width="0.238" height="22.179" transform="translate(-1765.092 4026.998)" fill="#7d422a"/><rect width="0.238" height="22.179" transform="translate(-1764.854 4026.998)" fill="#7c422a"/><rect width="0.238" height="22.179" transform="translate(-1764.615 4026.998)" fill="#7b4129"/><path d="M-1764.377,4049.177v0Z" fill="#7b4129"/></g><g clip-path="url(#c)"><path d="M-1797.769,4056.473v0Z" fill="#d8805a"/><rect width="0.48" height="22.304" transform="translate(-1797.769 4056.473)" fill="#d8805a"/><rect width="0.48" height="22.304" transform="translate(-1797.289 4056.473)" fill="#d77f59"/><rect width="0.48" height="22.304" transform="translate(-1796.809 4056.473)" fill="#d67f59"/><rect width="0.48" height="22.304" transform="translate(-1796.33 4056.473)" fill="#d57e58"/><rect width="0.48" height="22.304" transform="translate(-1795.85 4056.473)" fill="#d47d58"/><rect width="0.48" height="22.304" transform="translate(-1795.37 4056.473)" fill="#d37d57"/><rect width="0.48" height="22.304" transform="translate(-1794.891 4056.473)" fill="#d27c57"/><rect width="0.48" height="22.304" transform="translate(-1794.411 4056.473)" fill="#d17b56"/><rect width="0.48" height="22.304" transform="translate(-1793.932 4056.473)" fill="#d07b56"/><rect width="0.48" height="22.304" transform="translate(-1793.452 4056.473)" fill="#cf7a55"/><rect width="0.48" height="22.304" transform="translate(-1792.972 4056.473)" fill="#ce7955"/><rect width="0.48" height="22.304" transform="translate(-1792.493 4056.473)" fill="#cd7854"/><rect width="0.48" height="22.304" transform="translate(-1792.013 4056.473)" fill="#cc7854"/><rect width="0.48" height="22.304" transform="translate(-1791.533 4056.473)" fill="#cb7753"/><rect width="0.48" height="22.304" transform="translate(-1791.054 4056.473)" fill="#ca7653"/><rect width="0.48" height="22.304" transform="translate(-1790.574 4056.473)" fill="#c97652"/><rect width="0.48" height="22.304" transform="translate(-1790.094 4056.473)" fill="#c87551"/><rect width="0.48" height="22.304" transform="translate(-1789.615 4056.473)" fill="#c77451"/><rect width="0.48" height="22.304" transform="translate(-1789.135 4056.473)" fill="#c67450"/><rect width="0.48" height="22.304" transform="translate(-1788.655 4056.473)" fill="#c57350"/><rect width="0.48" height="22.304" transform="translate(-1788.176 4056.473)" fill="#c4724f"/><rect width="0.48" height="22.304" transform="translate(-1787.696 4056.473)" fill="#c3724f"/><rect width="0.48" height="22.304" transform="translate(-1787.216 4056.473)" fill="#c2714e"/><rect width="0.48" height="22.304" transform="translate(-1786.737 4056.473)" fill="#c1704e"/><rect width="0.48" height="22.304" transform="translate(-1786.257 4056.473)" fill="#c0704d"/><rect width="0.48" height="22.304" transform="translate(-1785.777 4056.473)" fill="#bf6f4d"/><rect width="0.48" height="22.304" transform="translate(-1785.298 4056.473)" fill="#be6e4c"/><rect width="0.48" height="22.304" transform="translate(-1784.818 4056.473)" fill="#bd6e4c"/><rect width="0.48" height="22.304" transform="translate(-1784.338 4056.473)" fill="#bc6d4b"/><rect width="0.48" height="22.304" transform="translate(-1783.859 4056.473)" fill="#bb6c4b"/><rect width="0.48" height="22.304" transform="translate(-1783.379 4056.473)" fill="#ba6b4a"/><rect width="0.48" height="22.304" transform="translate(-1782.899 4056.473)" fill="#b96b49"/><rect width="0.48" height="22.304" transform="translate(-1782.42 4056.473)" fill="#b86a49"/><rect width="0.48" height="22.304" transform="translate(-1781.94 4056.473)" fill="#b76948"/><rect width="0.48" height="22.304" transform="translate(-1781.46 4056.473)" fill="#b66948"/><rect width="0.48" height="22.304" transform="translate(-1780.981 4056.473)" fill="#b56847"/><rect width="0.48" height="22.304" transform="translate(-1780.501 4056.473)" fill="#b46747"/><rect width="0.48" height="22.304" transform="translate(-1780.021 4056.473)" fill="#b36746"/><rect width="0.48" height="22.304" transform="translate(-1779.542 4056.473)" fill="#b26646"/><rect width="0.48" height="22.304" transform="translate(-1779.062 4056.473)" fill="#b16545"/><rect width="0.48" height="22.304" transform="translate(-1778.583 4056.473)" fill="#b06545"/><rect width="0.48" height="22.304" transform="translate(-1778.103 4056.473)" fill="#af6444"/><rect width="0.48" height="22.304" transform="translate(-1777.623 4056.473)" fill="#ae6344"/><rect width="0.48" height="22.304" transform="translate(-1777.144 4056.473)" fill="#ad6343"/><rect width="0.48" height="22.304" transform="translate(-1776.664 4056.473)" fill="#ac6243"/><rect width="0.48" height="22.304" transform="translate(-1776.184 4056.473)" fill="#ab6142"/><rect width="0.48" height="22.304" transform="translate(-1775.705 4056.473)" fill="#aa6142"/><rect width="0.48" height="22.304" transform="translate(-1775.225 4056.473)" fill="#a86041"/><rect width="0.48" height="22.304" transform="translate(-1774.745 4056.473)" fill="#a75f40"/><rect width="0.48" height="22.304" transform="translate(-1774.266 4056.473)" fill="#a65e40"/><rect width="0.48" height="22.304" transform="translate(-1773.786 4056.473)" fill="#a55e3f"/><rect width="0.48" height="22.304" transform="translate(-1773.306 4056.473)" fill="#a45d3f"/><rect width="0.48" height="22.304" transform="translate(-1772.827 4056.473)" fill="#a35c3e"/><rect width="0.48" height="22.304" transform="translate(-1772.347 4056.473)" fill="#a25c3e"/><rect width="0.48" height="22.304" transform="translate(-1771.867 4056.473)" fill="#a15b3d"/><rect width="0.48" height="22.304" transform="translate(-1771.388 4056.473)" fill="#a05a3d"/><rect width="0.48" height="22.304" transform="translate(-1770.908 4056.473)" fill="#9f5a3c"/><rect width="0.48" height="22.304" transform="translate(-1770.428 4056.473)" fill="#9e593c"/><rect width="0.48" height="22.304" transform="translate(-1769.949 4056.473)" fill="#9d583b"/><rect width="0.48" height="22.304" transform="translate(-1769.469 4056.473)" fill="#9c583b"/><rect width="0.48" height="22.304" transform="translate(-1768.989 4056.473)" fill="#9b573a"/><rect width="0.48" height="22.304" transform="translate(-1768.51 4056.473)" fill="#9a563a"/><rect width="0.48" height="22.304" transform="translate(-1768.03 4056.473)" fill="#995639"/><rect width="0.48" height="22.304" transform="translate(-1767.55 4056.473)" fill="#985538"/><rect width="0.48" height="22.304" transform="translate(-1767.071 4056.473)" fill="#975438"/><rect width="0.48" height="22.304" transform="translate(-1766.591 4056.473)" fill="#965337"/><rect width="0.48" height="22.304" transform="translate(-1766.111 4056.473)" fill="#955337"/><rect width="0.48" height="22.304" transform="translate(-1765.632 4056.473)" fill="#945236"/><rect width="0.48" height="22.304" transform="translate(-1765.152 4056.473)" fill="#935136"/><rect width="0.48" height="22.304" transform="translate(-1764.672 4056.473)" fill="#925135"/><rect width="0.48" height="22.304" transform="translate(-1764.193 4056.473)" fill="#915035"/><rect width="0.48" height="22.304" transform="translate(-1763.713 4056.473)" fill="#904f34"/><rect width="0.48" height="22.304" transform="translate(-1763.233 4056.473)" fill="#8f4f34"/><rect width="0.48" height="22.304" transform="translate(-1762.754 4056.473)" fill="#8e4e33"/><rect width="0.48" height="22.304" transform="translate(-1762.274 4056.473)" fill="#8d4d33"/><rect width="0.48" height="22.304" transform="translate(-1761.794 4056.473)" fill="#8c4d32"/><rect width="0.48" height="22.304" transform="translate(-1761.315 4056.473)" fill="#8b4c32"/><rect width="0.48" height="22.304" transform="translate(-1760.835 4056.473)" fill="#8a4b31"/><rect width="0.48" height="22.304" transform="translate(-1760.355 4056.473)" fill="#894b30"/><rect width="0.48" height="22.304" transform="translate(-1759.876 4056.473)" fill="#884a30"/><rect width="0.48" height="22.304" transform="translate(-1759.396 4056.473)" fill="#87492f"/><rect width="0.48" height="22.304" transform="translate(-1758.917 4056.473)" fill="#86492f"/><rect width="0.48" height="22.304" transform="translate(-1758.437 4056.473)" fill="#85482e"/><rect width="0.48" height="22.304" transform="translate(-1757.957 4056.473)" fill="#84472e"/><rect width="0.48" height="22.304" transform="translate(-1757.478 4056.473)" fill="#83462d"/><rect width="0.48" height="22.304" transform="translate(-1756.998 4056.473)" fill="#82462d"/><rect width="0.48" height="22.304" transform="translate(-1756.518 4056.473)" fill="#81452c"/><rect width="0.48" height="22.304" transform="translate(-1756.039 4056.473)" fill="#80442c"/><rect width="0.48" height="22.304" transform="translate(-1755.559 4056.473)" fill="#7f442b"/><rect width="0.48" height="22.304" transform="translate(-1755.079 4056.473)" fill="#7e432b"/><rect width="0.48" height="22.304" transform="translate(-1754.6 4056.473)" fill="#7d422a"/><rect width="0.48" height="22.304" transform="translate(-1754.12 4056.473)" fill="#7c422a"/><rect width="0.48" height="22.304" transform="translate(-1753.64 4056.473)" fill="#7b4129"/><path d="M-1753.161,4078.777v0Z" fill="#7b4129"/></g></g><path d="M-1775.466,4051.177a13.105,13.105,0,0,1-13.09-13.089,13.105,13.105,0,0,1,13.09-13.09,13.1,13.1,0,0,1,13.089,13.09A13.1,13.1,0,0,1-1775.466,4051.177Zm0-22.179a9.1,9.1,0,0,0-9.09,9.09,9.1,9.1,0,0,0,9.09,9.089,9.1,9.1,0,0,0,9.089-9.089A9.1,9.1,0,0,0-1775.466,4029Z" fill="url(#d)"/><path d="M-1753.16,4080.778h-44.609a2,2,0,0,1-2-2,24.332,24.332,0,0,1,24.3-24.305,24.332,24.332,0,0,1,24.3,24.305A2,2,0,0,1-1753.16,4080.778Zm-42.511-4h40.413a20.332,20.332,0,0,0-20.207-18.305A20.332,20.332,0,0,0-1795.671,4076.778Z" fill="url(#e)"/><path d="M-1820.7,4058.473h-27.238a2,2,0,0,1-2-2,2,2,0,0,1,2-2h27.238a2,2,0,0,1,2,2A2,2,0,0,1-1820.7,4058.473Z" fill="url(#f)"/><path d="M-1703.02,4058.473h-27.239a2,2,0,0,1-2-2,2,2,0,0,1,2-2h27.239a2,2,0,0,1,2,2A2,2,0,0,1-1703.02,4058.473Z" fill="url(#g)"/><path d="M-1775.479,4013.253a2,2,0,0,1-2-2v-27.238a2,2,0,0,1,2-2,2,2,0,0,1,2,2v27.238A2,2,0,0,1-1775.479,4013.253Z" fill="url(#h)"/><path d="M-1775.479,4130.932a2,2,0,0,1-2-2v-27.238a2,2,0,0,1,2-2,2,2,0,0,1,2,2v27.238A2,2,0,0,1-1775.479,4130.932Z" fill="url(#i)"/></g></svg>