<svg xmlns="http://www.w3.org/2000/svg" xmlns:xlink="http://www.w3.org/1999/xlink" width="148.829" height="142.435" viewBox="0 0 148.829 142.435"><defs><linearGradient id="a" y1="0.5" x2="1" y2="0.5" gradientUnits="objectBoundingBox"><stop offset="0" stop-color="#1cabe0"/><stop offset="1" stop-color="#107aa3"/></linearGradient><linearGradient id="d" x1="0" y1="0.5" x2="1" y2="0.5" xlink:href="#a"/><linearGradient id="g" x1="0" y1="0.5" x2="1" y2="0.5" xlink:href="#a"/></defs><g transform="translate(0 0)"><path d="M-1645.636,671.717h-9.676v-6.883a6.867,6.867,0,0,0-7.053-6.654,6.865,6.865,0,0,0-7.043,6.654v6.883h-14.525v-6.883a6.865,6.865,0,0,0-7.043-6.654,6.867,6.867,0,0,0-7.053,6.654v6.883h-13.218v-6.674a6.865,6.865,0,0,0-7.043-6.654,6.867,6.867,0,0,0-7.053,6.654v6.674H-1738.6v-6.883a6.865,6.865,0,0,0-7.043-6.654,6.867,6.867,0,0,0-7.053,6.654v6.883h-8.629a10,10,0,0,0-9.916,9.936v92.226a9.991,9.991,0,0,0,9.926,9.926h72.694a2,2,0,0,0,2-2,2,2,0,0,0-2-2h-72.684a5.986,5.986,0,0,1-5.946-5.945V681.663a5.993,5.993,0,0,1,5.936-5.956h8.619v7.641a6.384,6.384,0,0,0,2.115,4.749,7.208,7.208,0,0,0,4.938,1.905,6.865,6.865,0,0,0,7.043-6.654v-7.641h13.258v7.861a6.378,6.378,0,0,0,2.115,4.738,7.207,7.207,0,0,0,4.938,1.905,6.863,6.863,0,0,0,7.043-6.644v-7.861h13.218v7.641a6.384,6.384,0,0,0,2.115,4.749,7.208,7.208,0,0,0,4.938,1.905,6.865,6.865,0,0,0,7.043-6.654v-7.641h14.525v7.641a6.405,6.405,0,0,0,2.115,4.759,7.21,7.21,0,0,0,4.928,1.9,6.868,6.868,0,0,0,7.053-6.654v-7.641h9.667a6,6,0,0,1,5.956,5.946V733a2,2,0,0,0,2,2,2,2,0,0,0,2-2V681.643A10.012,10.012,0,0,0-1645.636,671.717Zm-96.955,11.632a2.881,2.881,0,0,1-3.053,2.664,3.173,3.173,0,0,1-2.225-.848,2.45,2.45,0,0,1-.838-1.816V664.834a2.884,2.884,0,0,1,3.063-2.664,2.881,2.881,0,0,1,3.053,2.664Zm27.354.22a2.873,2.873,0,0,1-3.053,2.654,3.173,3.173,0,0,1-2.225-.848,2.429,2.429,0,0,1-.838-1.806V665.043a2.884,2.884,0,0,1,3.063-2.664,2.881,2.881,0,0,1,3.053,2.664Zm27.314-.22a2.881,2.881,0,0,1-3.053,2.664,3.173,3.173,0,0,1-2.225-.848,2.45,2.45,0,0,1-.838-1.816V664.834a2.884,2.884,0,0,1,3.063-2.664,2.881,2.881,0,0,1,3.053,2.664Zm28.621,0a2.891,2.891,0,0,1-3.063,2.664,3.236,3.236,0,0,1-2.225-.848,2.408,2.408,0,0,1-.828-1.816V664.834a2.881,2.881,0,0,1,3.053-2.664,2.891,2.891,0,0,1,3.063,2.664Z" transform="translate(1771.241 -658.18)" fill="url(#a)"/></g><path d="M-1686.968,730h9.213a3.853,3.853,0,0,1,3.841,3.841v9.119a3.841,3.841,0,0,1-3.841,3.829h-9.187a3.841,3.841,0,0,1-3.841-3.829v-9.152a3.853,3.853,0,0,1,3.841-3.841Z" transform="translate(1771.046 -658.354)" fill="#e1f7ff"/><path d="M-1677.76,748.782h-9.188a5.847,5.847,0,0,1-5.837-5.817v-9.16a5.865,5.865,0,0,1,5.83-5.835l4.054-.013-.036.046h5.176a5.865,5.865,0,0,1,5.835,5.83v9.125A5.848,5.848,0,0,1-1677.76,748.782Zm-9.525-16.788a1.863,1.863,0,0,0-1.51,1.819v9.146a1.848,1.848,0,0,0,1.847,1.833h9.188a1.848,1.848,0,0,0,1.844-1.841V733.84a1.861,1.861,0,0,0-1.852-1.845Z" transform="translate(1771.051 -658.349)" fill="url(#a)"/><path d="M-1750.2,706.453h9.189a3.84,3.84,0,0,1,3.835,3.829v9.165a3.839,3.839,0,0,1-3.841,3.828h-9.188a3.841,3.841,0,0,1-3.841-3.828v-9.218A3.842,3.842,0,0,1-1750.2,706.453Z" transform="translate(1771.199 -658.297)" fill="#e1f7ff"/><path d="M-1741.02,725.265h-9.189a5.847,5.847,0,0,1-5.836-5.817v-9.224a5.869,5.869,0,0,1,5.836-5.771h9.193a5.847,5.847,0,0,1,5.831,5.817v9.172A5.847,5.847,0,0,1-1741.02,725.265Zm-9.189-16.821a1.853,1.853,0,0,0-1.845,1.813v9.185a1.847,1.847,0,0,0,1.845,1.833h9.189a1.848,1.848,0,0,0,1.844-1.84v-9.158a1.847,1.847,0,0,0-1.842-1.834h-9.191Z" transform="translate(1771.204 -658.292)" fill="url(#a)"/><path d="M-1725.807,711.283h3.937a1.653,1.653,0,0,1,1.666,1.64h0v3.937a1.653,1.653,0,0,1-1.653,1.641h-3.95a1.653,1.653,0,0,1-1.688-1.617v-3.961a1.652,1.652,0,0,1,1.64-1.64Z" transform="translate(1771.135 -658.308)" fill="url(#d)"/><path d="M-1705.337,711.283h3.938a1.652,1.652,0,0,1,1.665,1.64h0v3.937a1.653,1.653,0,0,1-1.653,1.641h-3.949a1.654,1.654,0,0,1-1.689-1.617v-3.961a1.653,1.653,0,0,1,1.64-1.64Z" transform="translate(1771.086 -658.308)" fill="url(#a)"/><path d="M-1725.807,734.679h3.937a1.653,1.653,0,0,1,1.666,1.64h0v3.938a1.653,1.653,0,0,1-1.653,1.64h-3.95a1.653,1.653,0,0,1-1.688-1.617v-3.961a1.652,1.652,0,0,1,1.64-1.64Z" transform="translate(1771.135 -658.365)" fill="url(#d)"/><path d="M-1747.558,734.679h3.937a1.653,1.653,0,0,1,1.666,1.64h0v3.938a1.653,1.653,0,0,1-1.653,1.64h-3.95a1.653,1.653,0,0,1-1.688-1.617v-3.961a1.654,1.654,0,0,1,1.641-1.64Z" transform="translate(1771.188 -658.365)" fill="url(#g)"/><path d="M-1747.558,758.116h3.937a1.653,1.653,0,0,1,1.666,1.64h0v3.937a1.653,1.653,0,0,1-1.653,1.641h-3.95a1.654,1.654,0,0,1-1.688-1.617v-3.961a1.654,1.654,0,0,1,1.641-1.64Z" transform="translate(1771.188 -658.422)" fill="url(#g)"/><path d="M-1705.337,734.679h3.938a1.652,1.652,0,0,1,1.665,1.64h0v3.938a1.652,1.652,0,0,1-1.653,1.64h-3.949a1.654,1.654,0,0,1-1.689-1.617v-3.961a1.653,1.653,0,0,1,1.64-1.64Z" transform="translate(1771.086 -658.365)" fill="url(#a)"/><path d="M-1725.807,758.116h3.937a1.653,1.653,0,0,1,1.666,1.64h0v3.937a1.653,1.653,0,0,1-1.653,1.641h-3.95a1.653,1.653,0,0,1-1.688-1.617v-3.961a1.652,1.652,0,0,1,1.64-1.64Z" transform="translate(1771.135 -658.422)" fill="url(#d)"/><path d="M-1705.337,758.116h3.938a1.653,1.653,0,0,1,1.665,1.64h0v3.937a1.652,1.652,0,0,1-1.653,1.641h-3.949a1.654,1.654,0,0,1-1.689-1.617v-3.961a1.653,1.653,0,0,1,1.64-1.64Z" transform="translate(1771.086 -658.422)" fill="url(#a)"/><path d="M-1684.868,711.283h3.937a1.653,1.653,0,0,1,1.666,1.64h0v3.937a1.653,1.653,0,0,1-1.653,1.641h-3.95a1.653,1.653,0,0,1-1.688-1.617v-3.961a1.652,1.652,0,0,1,1.64-1.64Z" transform="translate(1771.036 -658.308)" fill="url(#d)"/><path d="M-1664.4,711.283h3.938a1.653,1.653,0,0,1,1.665,1.64h0v3.937a1.653,1.653,0,0,1-1.653,1.641h-3.95a1.654,1.654,0,0,1-1.689-1.617v-3.961a1.653,1.653,0,0,1,1.641-1.64Z" transform="translate(1770.987 -658.308)" fill="url(#a)"/><path d="M-1664.4,734.679h3.938a1.653,1.653,0,0,1,1.665,1.64h0v3.938a1.653,1.653,0,0,1-1.653,1.64h-3.95a1.654,1.654,0,0,1-1.689-1.617v-3.961a1.653,1.653,0,0,1,1.641-1.64Z" transform="translate(1770.987 -658.365)" fill="url(#a)"/><g transform="translate(92.246 88.964)"><path d="M-1629.092,767.072a1.431,1.431,0,0,0-.868.279,21.568,21.568,0,0,0-9.168-8.629v-4.24a3.735,3.735,0,0,0,2.215-3.4,3.725,3.725,0,0,0-3.711-3.721,3.727,3.727,0,0,0-3.721,3.721,3.728,3.728,0,0,0,2.225,3.4v2.963a25.517,25.517,0,0,0-8.36-1.4,25.592,25.592,0,0,0-7.8,1.207v-2.773a3.728,3.728,0,0,0,2.225-3.4,3.727,3.727,0,0,0-3.721-3.721,3.725,3.725,0,0,0-3.711,3.721,3.735,3.735,0,0,0,2.215,3.4v3.96a21.753,21.753,0,0,0-9.737,8.908,1.432,1.432,0,0,0-.868-.279,6.91,6.91,0,0,0-6.893,6.9v4.589a6.91,6.91,0,0,0,6.893,6.9,1.438,1.438,0,0,0,.838-.259,21.722,21.722,0,0,0,11.163,9.507v4.619a1.511,1.511,0,0,0,.658,1.237,1.485,1.485,0,0,0,.838.259,1.493,1.493,0,0,0,.549-.11l11.412-4.549a22.614,22.614,0,0,0,16.49-10.963,1.439,1.439,0,0,0,.838.259,6.918,6.918,0,0,0,6.9-6.9v-4.589A6.918,6.918,0,0,0-1629.092,767.072Zm-30.686-16.719a.732.732,0,0,1,.728.728.724.724,0,0,1-.728.718.715.715,0,0,1-.718-.718A.724.724,0,0,1-1659.777,750.353Zm-12.52,32.1a3.913,3.913,0,0,1-3.481-3.891v-4.589a3.909,3.909,0,0,1,3.511-3.891,17.875,17.875,0,0,0-1.107,6.185A18.126,18.126,0,0,0-1672.3,782.455Zm31.673-32.1a.73.73,0,0,1,.718.728.722.722,0,0,1-.718.718.723.723,0,0,1-.728-.718A.732.732,0,0,1-1640.624,750.353Zm-6.584,42.916a1.464,1.464,0,0,0-.619.239l-9.058,3.611v-3.442a1.506,1.506,0,0,0-1.007-1.417c-7.582-2.634-12.49-8.918-12.49-15.991,0-9.5,8.928-17.228,19.9-17.228s19.892,7.731,19.892,17.228C-1630.588,784.729-1637.581,791.882-1647.208,793.269Zm22.027-14.7a3.922,3.922,0,0,1-3.5,3.891,18.091,18.091,0,0,0,1.087-6.185,17.862,17.862,0,0,0-1.1-6.185,3.924,3.924,0,0,1,3.511,3.891Z" transform="translate(1678.771 -747.36)" fill="url(#a)"/><g transform="translate(14.917 21.183)"><path d="M-1652.867,775.554a1.5,1.5,0,0,1-1.472-1.238,3.3,3.3,0,0,0-3.254-2.729,3.3,3.3,0,0,0-3.254,2.729,1.489,1.489,0,0,1-1.732,1.216,1.5,1.5,0,0,1-1.216-1.732,6.283,6.283,0,0,1,6.2-5.206,6.283,6.283,0,0,1,6.2,5.206,1.5,1.5,0,0,1-1.216,1.732A1.545,1.545,0,0,1-1652.867,775.554Z" transform="translate(1663.817 -768.594)" fill="url(#a)"/></g><g transform="translate(29.774 21.183)"><path d="M-1637.975,775.554a1.5,1.5,0,0,1-1.473-1.238,3.294,3.294,0,0,0-3.253-2.729,3.293,3.293,0,0,0-3.253,2.729,1.488,1.488,0,0,1-1.732,1.216,1.5,1.5,0,0,1-1.216-1.732,6.281,6.281,0,0,1,6.2-5.206,6.282,6.282,0,0,1,6.2,5.206,1.5,1.5,0,0,1-1.215,1.732A1.55,1.55,0,0,1-1637.975,775.554Z" transform="translate(1648.925 -768.594)" fill="url(#a)"/></g><g transform="translate(14.918 34.312)"><path d="M-1650.722,787.087a28.105,28.105,0,0,1-12.3-2.512,1.494,1.494,0,0,1-.627-2.02,1.5,1.5,0,0,1,2.016-.629h0c.094.049,9.6,4.842,23.106-.08a1.5,1.5,0,0,1,1.919.893,1.5,1.5,0,0,1-.893,1.918A38.48,38.48,0,0,1-1650.722,787.087Z" transform="translate(1663.817 -781.755)" fill="url(#a)"/></g></g></svg>