<svg xmlns="http://www.w3.org/2000/svg" width="126.184" height="113.723" viewBox="0 0 126.184 113.723"><g transform="translate(-340.356 -42.89)"><path d="M354.148,131.612l-.032-.06a1.49,1.49,0,0,1-.161-.614v-.122a1.5,1.5,0,0,1,.161-.624l.032-.062a1.39,1.39,0,0,1,.164-.227,102.191,102.191,0,0,1,12.523-12.641c12.384-10.389,25.545-15.566,38.715-15.6h.154l.721.014c13.04.191,26.014,5.419,38.172,15.621A102.148,102.148,0,0,1,457.1,129.9a1.694,1.694,0,0,1,.153.228l.033.061a1.493,1.493,0,0,1,.163.615v.121a1.478,1.478,0,0,1-.163.625l-.033.06a1.494,1.494,0,0,1-.153.229,102.238,102.238,0,0,1-12.5,12.61c-12.355,10.365-25.549,15.6-38.8,15.626s-26.5-5.148-38.954-15.6a102.3,102.3,0,0,1-12.525-12.643A1.373,1.373,0,0,1,354.148,131.612Z" transform="translate(-0.802 -3.467)" fill="#ce809d" fill-rule="evenodd"/><path d="M357.625,131.184a98.162,98.162,0,0,0,11.351,11.322c11.9,10,24.5,14.938,37.034,14.916s25.079-5.029,36.884-14.938A97.63,97.63,0,0,0,454.22,131.19,97.959,97.959,0,0,0,442.9,119.9a64.7,64.7,0,0,0-23.045-12.879q.751.627,1.442,1.317a21.737,21.737,0,1,1-37.106,15.377,1.5,1.5,0,0,1,2.895-.534,6.511,6.511,0,0,0,6.375,3.812,7.9,7.9,0,0,0,2.969-.769,10.106,10.106,0,0,0,4.936-5.566,8.369,8.369,0,0,0-1.733-9.179,10.423,10.423,0,0,0-3.744-2.461,13.851,13.851,0,0,0-8.823-.263,67.878,67.878,0,0,0-18.089,11.133A98.3,98.3,0,0,0,357.625,131.184Z" transform="translate(-1.019 -3.783)" fill="#fff" fill-rule="evenodd"/><path d="M422.965,108.214c-.456-.446-.922-.882-1.42-1.3a.124.124,0,0,1-.032-.021,52.176,52.176,0,0,0-15.433-1.846,63.843,63.843,0,0,0-14.759,3.07,13.771,13.771,0,0,1,6.233.778,10.5,10.5,0,0,1,3.744,2.458,8.385,8.385,0,0,1,1.732,9.179,10.131,10.131,0,0,1-4.937,5.57,8,8,0,0,1-2.966.768,6.509,6.509,0,0,1-6.378-3.817,1.5,1.5,0,0,0-2.894.539,21.738,21.738,0,1,0,37.109-15.381Zm-31.955.01s.1-.041.311-.1a7.6,7.6,0,0,0-.83.1Zm-1.981.311-.3.093a13.139,13.139,0,0,1,1.763-.4h-1.058Z" transform="translate(-2.684 -3.663)" fill="#ce809d" fill-rule="evenodd"/><path d="M394.911,94.181c-.188.056-.282.094-.282.094h-.47A6.853,6.853,0,0,1,394.911,94.181Z" transform="translate(-3.174 -3.026)" fill="#fff" fill-rule="evenodd"/><path d="M355.309,85.926l-.336.459a8.471,8.471,0,0,1-8.5,3.767,7.641,7.641,0,0,1-3.294-1.475h0a7.277,7.277,0,0,1-2.233-2.886c-1.137-2.673-.777-6.26,2.372-10.013A92.639,92.639,0,0,1,355.56,63.69a90.6,90.6,0,0,1,49.62-20.509,69.474,69.474,0,0,1,51,15.951,76.9,76.9,0,0,1,10.07,10.229,1.357,1.357,0,0,1-1.845,1.953l-.518-.376C444.729,57.085,424.228,51.734,405.2,54.4c-18.993,2.66-36.553,13.32-49.872,31.492Z" fill="#70678f" fill-rule="evenodd"/><path d="M394.058,94.281a11.911,11.911,0,0,0-1.6.367l.273-.085.367-.282Z" transform="translate(-3.074 -3.032)" fill="#fff" fill-rule="evenodd"/><path d="M422.965,138.954a21.738,21.738,0,0,1-37.109-15.36,1.5,1.5,0,0,1,2.894-.539,6.509,6.509,0,0,0,6.378,3.817,8,8,0,0,0,2.966-.768,10.131,10.131,0,0,0,4.937-5.57,8.385,8.385,0,0,0-1.732-9.179,10.5,10.5,0,0,0-3.744-2.458,13.771,13.771,0,0,0-6.233-.778,63.843,63.843,0,0,1,14.759-3.07,52.176,52.176,0,0,1,15.433,1.846.124.124,0,0,0,.032.021c.5.415.964.851,1.42,1.3A21.746,21.746,0,0,1,422.965,138.954Z" transform="translate(-2.684 -3.663)" fill="#25847b" fill-rule="evenodd"/></g></svg>