<svg xmlns="http://www.w3.org/2000/svg" xmlns:xlink="http://www.w3.org/1999/xlink" width="153.813" height="127.21" viewBox="0 0 153.813 127.21"><defs><linearGradient id="a" x1="0.98" y1="-0.242" x2="-0.114" y2="1.448" gradientUnits="objectBoundingBox"><stop offset="0" stop-color="#9b8fc4"/><stop offset="1" stop-color="#251d41"/></linearGradient><linearGradient id="b" x1="1.016" y1="-0.449" x2="-0.211" y2="1.807" xlink:href="#a"/><linearGradient id="c" x1="2.368" y1="-4.376" x2="-0.638" y2="3.47" xlink:href="#a"/><linearGradient id="d" x1="1.779" y1="-29.159" x2="-0.189" y2="16.472" xlink:href="#a"/><linearGradient id="e" x1="1.702" y1="-19.253" x2="-1.074" y2="26.378" xlink:href="#a"/><linearGradient id="f" x1="6.128" y1="-14.001" x2="-11.582" y2="31.63" xlink:href="#a"/><linearGradient id="g" x1="2.801" y1="-2.707" x2="-6.527" y2="9.812" xlink:href="#a"/><linearGradient id="h" x1="1.895" y1="-22.44" x2="-0.88" y2="23.19" xlink:href="#a"/><linearGradient id="i" x1="7.366" y1="-17.189" x2="-10.345" y2="28.442" xlink:href="#a"/><linearGradient id="j" x1="3.453" y1="-3.582" x2="-5.876" y2="8.938" xlink:href="#a"/></defs><g transform="translate(-23.502 -37.217)"><path d="M169.81,145.166H31.007a7.514,7.514,0,0,1-7.5-7.506V44.722a7.513,7.513,0,0,1,7.5-7.505h138.8a7.513,7.513,0,0,1,7.505,7.505V137.66A7.514,7.514,0,0,1,169.81,145.166ZM31.007,41.217a3.509,3.509,0,0,0-3.5,3.505V137.66a3.509,3.509,0,0,0,3.5,3.506h138.8a3.509,3.509,0,0,0,3.505-3.506V44.722a3.509,3.509,0,0,0-3.505-3.505Z" fill="url(#a)"/><path d="M169,125.483H31.816v-80.9H169ZM35.085,122.216H165.731V47.851H35.085Z" fill="url(#b)"/><path d="M128.4,164.427H72.419V141.166H128.4Zm-51.979-4H124.4V145.166H76.419Z" fill="url(#c)"/><path d="M141.17,164.427H59.646a2,2,0,1,1,0-4H141.17a2,2,0,0,1,0,4Z" fill="url(#d)"/><path d="M108.436,72.4H51.8a2,2,0,0,1,0-4h56.637a2,2,0,0,1,0,4Z" fill="url(#e)"/><path d="M125.022,72.4h-5.5a2,2,0,0,1,0-4h5.5a2,2,0,0,1,0,4Z" fill="url(#f)"/><path d="M144.633,79.3a2,2,0,0,1-1.414-.586l-3.463-3.463a2,2,0,1,1,2.828-2.828l2.049,2.049,9.165-9.165a2,2,0,0,1,2.828,2.828L146.047,78.718A2,2,0,0,1,144.633,79.3Z" fill="url(#g)"/><path d="M108.436,95.994H51.8a2,2,0,0,1,0-4h56.637a2,2,0,0,1,0,4Z" fill="url(#h)"/><path d="M125.022,95.994h-5.5a2,2,0,0,1,0-4h5.5a2,2,0,0,1,0,4Z" fill="url(#i)"/><path d="M144.633,102.9a2,2,0,0,1-1.414-.585l-3.463-3.463a2,2,0,1,1,2.828-2.828l2.049,2.048L153.8,88.9a2,2,0,0,1,2.828,2.828l-10.579,10.58A1.993,1.993,0,0,1,144.633,102.9Z" fill="url(#j)"/></g></svg>