<svg xmlns="http://www.w3.org/2000/svg" width="42.093" height="41.789" viewBox="0 0 42.093 41.789"><g transform="translate(0 0)"><path d="M2769.852,2363.377h-7.816v5.166h7.816v-5.166Zm-9.981,0h-7.816v5.166h7.816v-5.166Zm-17.8,0v5.166h7.816v-5.166Zm4.92,13.125h2.9v-5.794h-7.816v.875a4.929,4.929,0,0,0,4.92,4.919Zm5.062,0h7.816v-5.794h-7.816v5.794Zm9.981,0h7.816v-5.794h-7.816v5.794Zm17.8-4.919v-.875h-7.815v5.794h2.9a4.929,4.929,0,0,0,4.92-4.919Zm0-3.04v-5.166h-7.815v5.166Zm0-7.332v-5.166h-7.815v5.166Zm-32.841-20.319h2.894v-2.93a1.083,1.083,0,0,1,2.166,0v2.93h17.8v-2.93a1.083,1.083,0,0,1,2.166,0v2.93h2.893a7.064,7.064,0,0,1,5,2.08l.023.024a7.069,7.069,0,0,1,2.061,4.982v23.605a7.059,7.059,0,0,1-2.08,5l-.024.024a7.063,7.063,0,0,1-4.981,2.061h-27.921a7.066,7.066,0,0,1-5-2.08l-.023-.024a7.061,7.061,0,0,1-2.062-4.981v-23.605a7.065,7.065,0,0,1,2.08-5l.025-.023a7.061,7.061,0,0,1,4.981-2.061Zm22.859,15.153h-7.816v5.166h7.816v-5.166Zm-9.981,0h-7.816v5.166h7.816v-5.166Zm-17.8,0v5.166h7.816v-5.166Z" transform="translate(-2739.907 -2336.88)" fill="#fff" fill-rule="evenodd"/><path d="M2775.321,2344.218h-2.894v4.575a1.083,1.083,0,1,1-2.166,0v-4.575h-17.8v4.575a1.083,1.083,0,1,1-2.166,0v-4.575H2747.4a4.93,4.93,0,0,0-4.919,4.921v5.9h37.76v-5.9a4.93,4.93,0,0,0-4.919-4.921Z" transform="translate(-2740.314 -2338.04)" fill="#aecd64" fill-rule="evenodd"/></g></svg>