<svg xmlns="http://www.w3.org/2000/svg" xmlns:xlink="http://www.w3.org/1999/xlink" width="127.042" height="137.36" viewBox="0 0 127.042 137.36"><defs><linearGradient id="a" x1="0.711" y1="0.246" x2="-0.055" y2="1.846" gradientUnits="objectBoundingBox"><stop offset="0" stop-color="#998ec4"/><stop offset="1" stop-color="#241d41"/></linearGradient><linearGradient id="b" x1="1.553" y1="-0.295" x2="-0.918" y2="2.108" xlink:href="#a"/><linearGradient id="c" x1="3.248" y1="-3.422" x2="-1.336" y2="3.12" xlink:href="#a"/><linearGradient id="d" x1="0.829" y1="0.065" x2="-0.292" y2="1.548" xlink:href="#a"/><linearGradient id="e" x1="1.115" y1="-2.105" x2="-1.086" y2="7.207" xlink:href="#a"/><linearGradient id="f" x1="0.767" y1="-0.547" x2="-0.468" y2="5.142" xlink:href="#a"/><linearGradient id="g" x1="1.548" y1="-5.39" x2="-1.256" y2="9.342" xlink:href="#a"/></defs><g transform="translate(0 0)"><path d="M1244.081,107.687l-1.288-.073c-12.291-.689-13.986-8.986-13.986-17.849,0-6.268.752-12.48,6.061-15.7v-2.1c0-28.175,22.378-51.1,49.884-51.1h13.662c27.514,0,49.9,22.922,49.9,51.1v1.857c4.935,2.82,7.537,8.215,7.537,15.658,0,11.116-5.55,17.3-16.049,17.873l-1.286.07V72.833c-.712-23.249-18.9-41.491-41.411-41.491h-11.152a42.456,42.456,0,0,0-41.87,42.913Zm40.67-84.385c-26.161,0-47.445,21.828-47.445,48.658v3.552l-.652.343c-4.49,2.356-5.409,7.265-5.409,13.91,0,8.922,1.742,14.355,10.4,15.309V74.27A44.9,44.9,0,0,1,1285.936,28.9H1297.1c23.834,0,43.094,19.279,43.848,43.892v32.013c8.268-.907,12.458-6.059,12.458-15.333,0-6.887-2.31-11.544-6.867-13.841l-.67-.338V71.96c0-26.83-21.29-48.658-47.46-48.658Z" transform="translate(-1228.807 -20.863)" fill="url(#a)"/></g><g transform="translate(72.746 68.902)"><path d="M1312.942,158.062l-.312-2.419c23.473-3.024,36.936-16.252,36.936-36.291v-19.1H1352v19.1c0,11.078-3.763,20.158-11.186,26.987C1334.1,152.525,1324.456,156.578,1312.942,158.062Z" transform="translate(-1312.63 -100.256)" fill="url(#b)"/></g><g transform="translate(52.98 116.131)"><path d="M1300.466,175.9a10.614,10.614,0,1,1,10.519-12.021,10.8,10.8,0,0,1,.094,1.4A10.627,10.627,0,0,1,1300.466,175.9Zm0-18.79a8.176,8.176,0,1,0,8.174,8.173,8.276,8.276,0,0,0-.072-1.083A8.193,8.193,0,0,0,1300.466,157.115Z" transform="translate(-1289.854 -154.676)" fill="url(#c)"/></g><g transform="translate(19.343 15.938)"><path d="M1294.507,132.854a43.462,43.462,0,0,1-43.412-43.414v-6.8a43.412,43.412,0,1,1,86.825,0v6.8A43.463,43.463,0,0,1,1294.507,132.854Zm0-91.188a41.02,41.02,0,0,0-40.973,40.975v6.8a40.974,40.974,0,1,0,81.948,0v-6.8A41.021,41.021,0,0,0,1294.507,41.667Z" transform="translate(-1251.095 -39.228)" fill="url(#d)"/></g><g transform="translate(41.449 53.052)"><path d="M1284.025,96.908h-.009a7.458,7.458,0,0,1,0-14.915h.015a7.458,7.458,0,0,1-.007,14.915Zm-.007-12.476a5.019,5.019,0,0,0,0,10.038h.005a5.019,5.019,0,0,0,.005-10.038Zm29.334,12.386a7.412,7.412,0,1,1,7.412-7.412A7.42,7.42,0,0,1,1313.353,96.818Zm0-12.386a4.974,4.974,0,1,0,4.974,4.974A4.979,4.979,0,0,0,1313.353,84.432Z" transform="translate(-1276.567 -81.993)" fill="url(#e)"/></g><g transform="translate(21.481 28.801)"><path d="M1254.049,78.462l-.49-2.388a38.615,38.615,0,0,0,26.83-20.5l.773-1.528,1.191,1.231a41.421,41.421,0,0,0,29.625,12.565h.031a36.37,36.37,0,0,0,19.134-4.69l1.2,2.122a38.772,38.772,0,0,1-20.373,5.006h-.036a43.856,43.856,0,0,1-30.153-12.132A41.018,41.018,0,0,1,1254.049,78.462Z" transform="translate(-1253.559 -54.049)" fill="url(#f)"/></g><g transform="translate(46.171 78.864)"><path d="M1299.355,121.163c-8.332,0-15.466-3.527-17.347-8.576l2.285-.851c1.507,4.049,7.843,6.989,15.062,6.989s13.558-2.939,15.063-6.988l2.286.85C1314.826,117.636,1307.692,121.163,1299.355,121.163Z" transform="translate(-1282.008 -111.735)" fill="url(#g)"/></g></svg>