<svg xmlns="http://www.w3.org/2000/svg" xmlns:xlink="http://www.w3.org/1999/xlink" width="169.036" height="101.532" viewBox="0 0 169.036 101.532"><defs><linearGradient id="a" x1="0.869" y1="-0.147" x2="-0.112" y2="1.648" gradientUnits="objectBoundingBox"><stop offset="0" stop-color="#1cabe0"/><stop offset="1" stop-color="#107aa3"/></linearGradient><linearGradient id="b" x1="0.919" y1="-5.572" x2="0.13" y2="5.34" xlink:href="#a"/><linearGradient id="c" x1="3.023" y1="-10.878" x2="-1.445" y2="9.617" xlink:href="#a"/><linearGradient id="d" x1="0.922" y1="-0.251" x2="-0.185" y2="1.717" xlink:href="#a"/><linearGradient id="e" x1="1.503" y1="-0.724" x2="-0.471" y2="1.685" xlink:href="#a"/><linearGradient id="f" x1="0.951" y1="-0.05" x2="-1.023" y2="2.358" xlink:href="#a"/><linearGradient id="g" x1="2.581" y1="-3.317" x2="-1.618" y2="3.962" xlink:href="#a"/><linearGradient id="h" x1="1.64" y1="-0.891" x2="-3.417" y2="5.28" xlink:href="#a"/></defs><g transform="translate(-15.482 -54.79)"><path d="M167.928,145.42H32.067V119.7l3.5,3.99a30.122,30.122,0,0,0,7.25,6.03,29.765,29.765,0,1,0,0-51.23,30.111,30.111,0,0,0-7.247,6.028l-3.5,3.99V62.93a8.151,8.151,0,0,1,8.141-8.14h119.58a8.15,8.15,0,0,1,8.14,8.14V79.542l-2.95-1.592a30.246,30.246,0,0,0-7.25-2.786,29.766,29.766,0,1,0,7.245,55.1l2.955-1.6Zm-131.861-4H163.928V135.2a33.093,33.093,0,0,1-5.268,1.732,33.764,33.764,0,1,1,.009-65.659,34.087,34.087,0,0,1,5.259,1.737V62.93a4.145,4.145,0,0,0-4.14-4.14H40.208a4.145,4.145,0,0,0-4.141,4.14V78.423A33.766,33.766,0,1,1,58,137.87a33.688,33.688,0,0,1-17.223-4.711,34.124,34.124,0,0,1-4.708-3.372Z" fill="url(#a)"/><path d="M171.607,156.322H28.388a12.92,12.92,0,0,1-12.906-12.9v-2H184.513v2A12.92,12.92,0,0,1,171.607,156.322Zm-151.9-10.9a8.922,8.922,0,0,0,8.679,6.9H171.607a8.922,8.922,0,0,0,8.679-6.9Z" fill="url(#b)"/><path d="M114.915,156.322H85.08v-3.116a4.825,4.825,0,0,1,4.819-4.82h20.2a4.825,4.825,0,0,1,4.819,4.82Z" fill="url(#c)"/><path d="M160.2,145.42H39.8v-17.5l3.022,1.8a29.765,29.765,0,1,0,0-51.23L39.8,80.281V62.79H160.2V75.763l-2.471-.6a29.766,29.766,0,1,0,0,57.883l2.471-.6Zm-116.4-4H156.2v-3.987a33.765,33.765,0,1,1,0-66.657V66.79H43.8v6.671a33.764,33.764,0,1,1,0,61.291Z" fill="url(#d)"/><path d="M89.758,104.11A31.776,31.776,0,0,1,41.8,131.44a32.1,32.1,0,0,1-7.73-6.43,31.791,31.791,0,0,1,0-41.81,32.1,32.1,0,0,1,7.73-6.43,31.776,31.776,0,0,1,47.96,27.34Z" fill="#1cabe0" opacity="0.15"/><path d="M182.518,104.11a31.776,31.776,0,0,1-16.59,27.91,31.743,31.743,0,0,1-15.18,3.85,31.765,31.765,0,1,1,7.45-62.65,32.227,32.227,0,0,1,7.73,2.97A31.78,31.78,0,0,1,182.518,104.11Z" fill="#1cabe0" opacity="0.15"/><path d="M58,137.87a33.688,33.688,0,0,1-17.223-4.711,34.125,34.125,0,0,1-8.211-6.829,33.793,33.793,0,0,1,0-44.447A33.768,33.768,0,1,1,58,137.87Zm0-63.53a29.779,29.779,0,0,0-15.181,4.151,30.111,30.111,0,0,0-7.247,6.028,29.8,29.8,0,0,0,0,39.175,30.131,30.131,0,0,0,7.248,6.027A29.768,29.768,0,1,0,58,74.34Z" fill="url(#e)"/><path d="M150.748,137.87a33.765,33.765,0,1,1,7.921-66.594,34.207,34.207,0,0,1,8.209,3.154,33.781,33.781,0,0,1,.008,59.346,33.776,33.776,0,0,1-16.138,4.094Zm0-63.53a29.765,29.765,0,1,0,6.978,58.706,29.467,29.467,0,0,0,7.247-2.784,29.78,29.78,0,0,0,0-52.316,30.216,30.216,0,0,0-7.242-2.782A29.576,29.576,0,0,0,150.748,74.34Z" fill="url(#f)"/><path d="M54.724,117.522a1.99,1.99,0,0,1-1.414-.586l-9.4-9.4a2,2,0,1,1,2.828-2.828l7.988,7.987,16.929-16.93a2,2,0,0,1,2.828,2.828L56.138,116.936A1.994,1.994,0,0,1,54.724,117.522Z" fill="url(#g)"/><path d="M162.585,116.973a1.992,1.992,0,0,1-1.414-.586L138.814,94.03a2,2,0,1,1,2.829-2.828L164,113.559a2,2,0,0,1-1.414,3.414Z" fill="url(#h)"/><path d="M140.229,116.973a2,2,0,0,1-1.415-3.414L161.171,91.2A2,2,0,0,1,164,94.03l-22.356,22.357A1.994,1.994,0,0,1,140.229,116.973Z" fill="url(#h)"/></g></svg>