<svg xmlns="http://www.w3.org/2000/svg" xmlns:xlink="http://www.w3.org/1999/xlink" width="166.333" height="132.896" viewBox="0 0 166.333 132.896"><defs><linearGradient id="a" x1="13.234" y1="-1.484" x2="-11.871" y2="2.427" gradientUnits="objectBoundingBox"><stop offset="0" stop-color="#1cabe0"/><stop offset="1" stop-color="#107aa3"/></linearGradient><linearGradient id="b" x1="1.095" y1="-3.049" x2="0.031" y2="3.298" xlink:href="#a"/><linearGradient id="c" x1="8.573" y1="-7.391" x2="-0.501" y2="1.479" xlink:href="#a"/><linearGradient id="d" x1="6.485" y1="-5.35" x2="-2.589" y2="3.519" xlink:href="#a"/><linearGradient id="e" x1="4.397" y1="-3.309" x2="-4.677" y2="5.56" xlink:href="#a"/><linearGradient id="f" x1="14.537" y1="-3.049" x2="-10.568" y2="3.298" xlink:href="#a"/><linearGradient id="g" x1="1.361" y1="-14.075" x2="-0.793" y2="22.383" xlink:href="#a"/><linearGradient id="h" x1="5.814" y1="-2.446" x2="-5.911" y2="4.054" xlink:href="#a"/><linearGradient id="i" x1="4.827" y1="-0.884" x2="-6.895" y2="2.865" xlink:href="#a"/><linearGradient id="j" x1="4.454" y1="-1.532" x2="-7.269" y2="4.493" xlink:href="#a"/><linearGradient id="k" x1="3.642" y1="-0.727" x2="-8.083" y2="3.852" xlink:href="#a"/></defs><g transform="translate(-23.687 -41.257)"><g transform="translate(103.574 94.309)"><path d="M99.343,135.915a3.279,3.279,0,0,1-3.28-3.279v-34.6a3.28,3.28,0,1,1,6.56,0v34.6A3.279,3.279,0,0,1,99.343,135.915Z" transform="translate(-96.063 -94.757)" fill="url(#a)"/></g><g transform="translate(29.482 119.305)"><path d="M180.4,142.765a3.28,3.28,0,0,1-3.28-3.28V123.963H35.5v15.521a3.28,3.28,0,1,1-6.56,0v-18.8a3.28,3.28,0,0,1,3.28-3.28H180.4a3.279,3.279,0,0,1,3.279,3.28v18.8A3.279,3.279,0,0,1,180.4,142.765Z" transform="translate(-28.937 -117.402)" fill="url(#b)"/></g><g transform="translate(23.687 156.004)"><path d="M32.762,168.8a9.075,9.075,0,1,1,9.074-9.074A9.085,9.085,0,0,1,32.762,168.8Zm0-11.589a2.514,2.514,0,1,0,2.514,2.514A2.518,2.518,0,0,0,32.762,157.212Z" transform="translate(-23.687 -150.651)" fill="url(#c)"/></g><g transform="translate(97.78 156.004)"><path d="M99.888,168.8a9.075,9.075,0,1,1,9.073-9.074A9.085,9.085,0,0,1,99.888,168.8Zm0-11.589a2.514,2.514,0,1,0,2.513,2.514A2.518,2.518,0,0,0,99.888,157.212Z" transform="translate(-90.813 -150.651)" fill="url(#d)"/></g><g transform="translate(171.872 156.004)"><path d="M167.013,168.8a9.075,9.075,0,1,1,9.074-9.074A9.084,9.084,0,0,1,167.013,168.8Zm0-11.589a2.514,2.514,0,1,0,2.514,2.514A2.517,2.517,0,0,0,167.013,157.212Z" transform="translate(-157.939 -150.651)" fill="url(#e)"/></g><g transform="translate(103.574 119.305)"><path d="M99.343,142.765a3.28,3.28,0,0,1-3.28-3.28v-18.8a3.28,3.28,0,1,1,6.56,0v18.8A3.279,3.279,0,0,1,99.343,142.765Z" transform="translate(-96.063 -117.402)" fill="url(#f)"/></g><g transform="translate(65.34 79.923)"><path d="M135.684,80.7H63.632a2.208,2.208,0,0,1,0-4.415h72.053a2.208,2.208,0,0,1,0,4.415Z" transform="translate(-61.424 -76.287)" fill="url(#g)"/></g><g transform="translate(69.253 59.433)"><path d="M76.807,82.49H67.177a2.207,2.207,0,0,1-2.208-2.208V59.932a2.207,2.207,0,0,1,2.208-2.208h9.631a2.207,2.207,0,0,1,2.208,2.208v20.35A2.207,2.207,0,0,1,76.807,82.49Zm-7.423-4.415H74.6V62.139H69.384Z" transform="translate(-64.969 -57.724)" fill="url(#h)"/></g><g transform="translate(87.451 41.257)"><path d="M93.3,84.2H83.664a2.208,2.208,0,0,1-2.208-2.208V43.465a2.208,2.208,0,0,1,2.208-2.208H93.3A2.208,2.208,0,0,1,95.5,43.465V81.991A2.208,2.208,0,0,1,93.3,84.2Zm-7.425-4.415h5.218V45.672H85.871Z" transform="translate(-81.456 -41.257)" fill="url(#i)"/></g><g transform="translate(105.65 57.485)"><path d="M109.783,82.673h-9.633a2.208,2.208,0,0,1-2.208-2.208v-22.3a2.208,2.208,0,0,1,2.208-2.208h9.633a2.208,2.208,0,0,1,2.208,2.208v22.3A2.208,2.208,0,0,1,109.783,82.673Zm-7.425-4.415h5.218V60.374h-5.218Z" transform="translate(-97.943 -55.959)" fill="url(#j)"/></g><g transform="translate(123.85 49.046)"><path d="M126.27,83.466H116.64a2.207,2.207,0,0,1-2.208-2.208V50.522a2.208,2.208,0,0,1,2.208-2.208h9.631a2.208,2.208,0,0,1,2.208,2.208V81.259A2.207,2.207,0,0,1,126.27,83.466Zm-7.423-4.415h5.215V52.729h-5.215Z" transform="translate(-114.432 -48.314)" fill="url(#k)"/></g></g></svg>