<svg xmlns="http://www.w3.org/2000/svg" xmlns:xlink="http://www.w3.org/1999/xlink" width="473.447" height="423.192" viewBox="0 0 473.447 423.192"><defs><clipPath id="a"><circle cx="28.608" cy="28.608" r="28.608" fill="none"/></clipPath><clipPath id="b"><circle cx="50.813" cy="50.813" r="50.813" fill="none"/></clipPath></defs><g transform="translate(-775.052 -233.473)"><line x2="74" transform="translate(810.5 632.5)" fill="none" stroke="#084d46" stroke-width="1"/><line x2="74" transform="translate(980.5 644.5)" fill="none" stroke="#084d46" stroke-width="1"/><g transform="translate(-8170.22 455.862)"><path d="M9001.4-50.9c-3.014-1.666-4.366-4.557-5-8.246-.718,3.5-1.866,6.542-4.956,8.122,3.469,1.928,4.359,5.362,4.956,8.7A12.085,12.085,0,0,1,9001.4-50.9Z" transform="translate(96.34 225.82)" fill="#f0ff83"/><path d="M9011.926-52.706c-3.016-1.664-4.364-4.555-5-8.244-.716,3.5-1.866,6.54-4.958,8.122,3.471,1.928,4.359,5.36,4.958,8.7A12.1,12.1,0,0,1,9011.926-52.706Z" transform="translate(110.893 223.323)" fill="#f0ff83"/><path d="M8941.607-106.03c-3.018-1.666-4.368-4.557-5-8.246-.716,3.5-1.866,6.54-4.954,8.122,3.467,1.928,4.359,5.362,4.954,8.7A12.077,12.077,0,0,1,8941.607-106.03Z" transform="translate(13.62 149.556)" fill="#f0ff83"/><path d="M9123.489-98.713c-3.014-1.666-4.364-4.557-5-8.246-.716,3.5-1.866,6.54-4.954,8.122,3.467,1.928,4.357,5.362,4.954,8.7A12.092,12.092,0,0,1,9123.489-98.713Z" transform="translate(265.228 159.678)" fill="#f0ff83"/><path d="M9063.248-118.175c-3.3-1.821-4.772-4.984-5.467-9.018-.781,3.825-2.039,7.155-5.418,8.885,3.794,2.109,4.766,5.863,5.418,9.519A13.238,13.238,0,0,1,9063.248-118.175Z" transform="translate(180.605 131.686)" fill="#f0ff83"/><g transform="translate(9117.461 -147.126)"><path d="M9021.559-171.234c-3.018-1.664-4.366-4.555-5-8.244-.716,3.5-1.865,6.54-4.957,8.122,3.472,1.928,4.36,5.363,4.957,8.7A12.089,12.089,0,0,1,9021.559-171.234Z" transform="translate(-8993.239 206.486)" fill="#f0ff83"/><path d="M9013.85-176.522c-3.016-1.664-4.364-4.555-5-8.244-.714,3.5-1.864,6.54-4.952,8.122,3.465,1.928,4.357,5.363,4.952,8.7A12.1,12.1,0,0,1,9013.85-176.522Z" transform="translate(-9003.898 199.171)" fill="#f0ff83"/><path d="M9026.262-179.916c-3.982-2.2-5.765-6.018-6.6-10.894-.947,4.621-2.468,8.642-6.547,10.732,4.583,2.545,5.759,7.081,6.547,11.495A15.963,15.963,0,0,1,9026.262-179.916Z" transform="translate(-8991.149 190.81)" fill="#f0ff83"/></g><g transform="translate(8953.323 137.653)"><path d="M9335.431-70.273h-399.88a.523.523,0,0,1-.522-.524.522.522,0,0,1,.522-.524h399.88a.522.522,0,0,1,.521.524A.524.524,0,0,1,9335.431-70.273Z" transform="translate(-8935.028 71.322)" fill="#084d46"/></g><path d="M9030.47-62.617h-80.016A7.453,7.453,0,0,1,8943-70.07h0a7.453,7.453,0,0,1,7.451-7.45h80.016a7.453,7.453,0,0,1,7.451,7.45h0A7.453,7.453,0,0,1,9030.47-62.617Z" transform="translate(29.324 200.402)" fill="#ffeb97"/><path d="M9102.554-62.617h-80.018a7.453,7.453,0,0,1-7.452-7.453h0a7.453,7.453,0,0,1,7.452-7.45h80.018A7.451,7.451,0,0,1,9110-70.07h0A7.452,7.452,0,0,1,9102.554-62.617Z" transform="translate(129.038 200.402)" fill="#f4d576"/><path d="M9102.554-80.72h-80.018a7.453,7.453,0,0,1-7.452-7.45h0a7.453,7.453,0,0,1,7.452-7.453h80.018A7.452,7.452,0,0,1,9110-88.17h0A7.451,7.451,0,0,1,9102.554-80.72Z" transform="translate(129.038 175.359)" fill="#f4d576"/><rect width="94.92" height="14.905" rx="3.127" transform="translate(9144.122 65.615)" fill="#ffeb97"/><rect width="94.92" height="14.905" rx="3.127" transform="translate(9144.122 94.64)" fill="#f4d576"/><path d="M9102.554-68.211h-80.018a7.453,7.453,0,0,1-7.452-7.453h0a7.453,7.453,0,0,1,7.452-7.453h80.018A7.452,7.452,0,0,1,9110-75.663h0A7.452,7.452,0,0,1,9102.554-68.211Z" transform="translate(129.038 192.66)" fill="#f4d576"/><rect width="94.92" height="14.905" rx="3.127" transform="translate(8972.327 107.976)" fill="#f4d576"/><g transform="translate(9237.496 35.513)"><circle cx="43.324" cy="43.324" r="43.324" transform="translate(0 78.389) rotate(-64.782)" fill="#f4d576"/><circle cx="36.844" cy="36.844" r="36.844" transform="translate(20.81 20.809)" fill="#ffeb97"/><path d="M9088.123-78.129c-.04-.017-.082-.031-.123-.048a22.049,22.049,0,0,1-5.151-2.507,4.521,4.521,0,0,1-2.044-3.906,4.768,4.768,0,0,1,2.044-3.954,7.291,7.291,0,0,1,4.289-1.206c.339,0,.665.012.985.033a14.676,14.676,0,0,1,6.759,2.155l1.724-5a18.689,18.689,0,0,0-8.482-2.329v-6.43h-5.274v6.974c-5.446,1.468-8.613,5.653-8.613,10.544,0,4.216,2.768,7.753,8.613,10.177.449.186.911.365,1.4.539a22.349,22.349,0,0,1,3.878,1.783c2.237,1.358,3.161,2.917,3.161,5.179a5.11,5.11,0,0,1-3.161,4.836,10.009,10.009,0,0,1-4.19.794c-.36,0-.722-.017-1.084-.048a18.308,18.308,0,0,1-7.984-2.688L9073.139-58a21.169,21.169,0,0,0,9.71,2.564V-49.4h5.274v-6.437c6.291-1.282,9.809-5.436,9.809-10.925C9097.932-72.354,9094.611-75.631,9088.123-78.129Z" transform="translate(-9028.148 131.957)" fill="#f4d576"/></g><g transform="translate(9355.735 -222.389)"><circle cx="20.877" cy="20.877" r="20.877" fill="#f4d576"/><circle cx="17.755" cy="17.755" r="17.755" transform="translate(3.121 3.122)" fill="#ffeb97"/><path d="M9117.293-207.915l-.057-.021a10.56,10.56,0,0,1-2.484-1.208,2.177,2.177,0,0,1-.986-1.883,2.3,2.3,0,0,1,.986-1.907,3.526,3.526,0,0,1,2.068-.579c.158,0,.318,0,.473.014a7.066,7.066,0,0,1,3.256,1.039l.83-2.412a8.986,8.986,0,0,0-4.086-1.123v-3.1h-2.541v3.361a5.232,5.232,0,0,0-4.15,5.081c0,2.031,1.334,3.737,4.15,4.9.215.088.439.174.672.257a10.877,10.877,0,0,1,1.869.86,2.7,2.7,0,0,1,1.525,2.5,2.465,2.465,0,0,1-1.525,2.331,4.83,4.83,0,0,1-2.021.381c-.17,0-.344-.007-.52-.021a8.863,8.863,0,0,1-3.85-1.3l-.828,2.524a10.194,10.194,0,0,0,4.678,1.237v2.91h2.541v-3.1c3.031-.617,4.727-2.619,4.727-5.265C9122.02-205.131,9120.418-206.709,9117.293-207.915Z" transform="translate(-9095.3 226.948)" fill="#f4d576"/></g><g transform="translate(9391.525 -112.093)"><circle cx="13.597" cy="13.597" r="13.597" fill="#f4d576"/><circle cx="11.563" cy="11.563" r="11.563" transform="translate(2.034 2.034)" fill="#ffeb97"/><path d="M9127.632-166.683l-.04-.017a6.886,6.886,0,0,1-1.615-.786,1.416,1.416,0,0,1-.641-1.225,1.5,1.5,0,0,1,.641-1.242,2.29,2.29,0,0,1,1.347-.379c.1,0,.208,0,.309.012a4.62,4.62,0,0,1,2.12.674l.54-1.571a5.862,5.862,0,0,0-2.66-.729v-2.019h-1.655v2.188a3.412,3.412,0,0,0-2.7,3.31c0,1.323.869,2.433,2.7,3.194.14.057.286.114.438.169a7.193,7.193,0,0,1,1.218.558,1.756,1.756,0,0,1,.993,1.625,1.609,1.609,0,0,1-.993,1.518,3.126,3.126,0,0,1-1.316.25c-.113,0-.226,0-.339-.014a5.754,5.754,0,0,1-2.507-.846l-.543,1.645a6.629,6.629,0,0,0,3.05.806v1.895h1.655v-2.019a3.444,3.444,0,0,0,3.078-3.43C9130.71-164.872,9129.667-165.9,9127.632-166.683Z" transform="translate(-9113.305 179.08)" fill="#f4d576"/></g><g transform="translate(9262.507 -192.828)"><circle cx="7.53" cy="7.53" r="7.53" fill="#f4d576"/><circle cx="6.404" cy="6.404" r="6.404" transform="translate(1.124 1.126)" fill="#ffeb97"/><path d="M9069.6-204.764l-.021-.01a3.747,3.747,0,0,1-.9-.436.779.779,0,0,1-.354-.677.828.828,0,0,1,.354-.689,1.258,1.258,0,0,1,.744-.21c.061,0,.119,0,.172.007a2.53,2.53,0,0,1,1.175.374l.3-.87a3.236,3.236,0,0,0-1.475-.405V-208.8h-.916v1.213a1.885,1.885,0,0,0-1.5,1.833c0,.732.481,1.347,1.5,1.768q.116.046.24.093a3.96,3.96,0,0,1,.676.31.975.975,0,0,1,.552.9.888.888,0,0,1-.552.839,1.723,1.723,0,0,1-.726.138c-.065,0-.13,0-.19-.007a3.2,3.2,0,0,1-1.389-.467l-.3.91a3.69,3.69,0,0,0,1.687.446v1.049h.916v-1.118a1.911,1.911,0,0,0,1.707-1.9C9071.3-203.761,9070.722-204.331,9069.6-204.764Z" transform="translate(-9061.663 211.63)" fill="#f4d576"/></g><g transform="translate(9183.901 -210.894)"><path d="M9070.354-160.2a2.421,2.421,0,0,1-2.1-1.778c-.089-.355-.18-.71-.269-1.065-.121.825-.145,1.964-.978,2.41a3.444,3.444,0,0,1-1.228.389,3.3,3.3,0,0,1,1.822,1.323c.353.615.214,1.4.528,1.988a7.3,7.3,0,0,1,.375-1.883,2.362,2.362,0,0,1,1.947-1.361Z" transform="translate(-8984.738 292.994)" fill="#f0ff83"/><path d="M9065.917-172.775a2.427,2.427,0,0,1-2.1-1.778q-.133-.533-.268-1.065c-.121.825-.146,1.964-.976,2.41a3.444,3.444,0,0,1-1.233.388,3.3,3.3,0,0,1,1.828,1.323c.351.615.213,1.4.527,1.988a7.3,7.3,0,0,1,.375-1.883,2.356,2.356,0,0,1,1.945-1.361Z" transform="translate(-8990.878 275.594)" fill="#f0ff83"/><path d="M9036.351-143.849a2.425,2.425,0,0,1-2.1-1.778c-.089-.355-.18-.71-.268-1.068-.121.827-.149,1.966-.978,2.412a3.467,3.467,0,0,1-1.229.388,3.282,3.282,0,0,1,1.821,1.323c.355.615.214,1.4.528,1.988a7.409,7.409,0,0,1,.375-1.883,2.365,2.365,0,0,1,1.949-1.361Z" transform="translate(-9031.775 315.604)" fill="#f0ff83"/><path d="M9114.254-158.67a2.425,2.425,0,0,1-2.1-1.778c-.088-.355-.18-.71-.266-1.065-.123.825-.148,1.964-.979,2.41a3.433,3.433,0,0,1-1.232.388,3.309,3.309,0,0,1,1.828,1.323c.35.615.213,1.4.527,1.988a7.144,7.144,0,0,1,.375-1.883,2.359,2.359,0,0,1,1.945-1.361Z" transform="translate(-8924.011 295.106)" fill="#f0ff83"/><path d="M9122.358-158.963c-1.679-.365-2.977-1.142-3.414-2.891-.147-.577-.291-1.156-.437-1.733-.2,1.342-.236,3.191-1.585,3.918a5.653,5.653,0,0,1-2,.632,5.328,5.328,0,0,1,2.963,2.15c.574,1,.349,2.267.862,3.227a11.821,11.821,0,0,1,.607-3.06c.72-1.473,1.637-1.864,3.166-2.212Z" transform="translate(-8916.76 292.237)" fill="#f0ff83"/><path d="M9091.135-212.945c-1.68-.365-2.978-1.139-3.419-2.889-.143-.579-.29-1.156-.436-1.733-.2,1.339-.237,3.191-1.586,3.918a5.632,5.632,0,0,1-2,.629,5.364,5.364,0,0,1,2.963,2.15c.573,1,.35,2.269.861,3.229a11.879,11.879,0,0,1,.6-3.06c.726-1.473,1.639-1.864,3.167-2.212Z" transform="translate(-8959.952 217.566)" fill="#f0ff83"/><path d="M9130.084-194.439c-2.641-.574-4.685-1.8-5.374-4.55q-.341-1.362-.685-2.727c-.311,2.112-.375,5.024-2.5,6.166a8.918,8.918,0,0,1-3.15.994,8.41,8.41,0,0,1,4.664,3.382c.9,1.573.549,3.57,1.357,5.081.344-1.652.171-3.22.953-4.814,1.137-2.321,2.574-2.936,4.98-3.482Z" transform="translate(-8911.974 239.493)" fill="#f0ff83"/><path d="M9059.345-181.328c-2.638-.574-4.682-1.8-5.373-4.55q-.343-1.362-.687-2.727c-.309,2.112-.373,5.024-2.493,6.166a8.909,8.909,0,0,1-3.152.994,8.4,8.4,0,0,1,4.664,3.382c.9,1.573.552,3.57,1.356,5.081.347-1.652.177-3.22.957-4.814,1.133-2.321,2.576-2.936,4.98-3.482Z" transform="translate(-9009.831 257.63)" fill="#f0ff83"/><path d="M9108.377-178.746c-2.641-.574-4.685-1.795-5.372-4.547q-.344-1.362-.687-2.727c-.311,2.109-.375,5.024-2.5,6.166a8.865,8.865,0,0,1-3.15.991,8.422,8.422,0,0,1,4.664,3.384c.9,1.573.548,3.568,1.356,5.081.345-1.652.173-3.222.953-4.817,1.137-2.319,2.574-2.934,4.98-3.48C9108.544-178.71,9108.459-178.727,9108.377-178.746Z" transform="translate(-8942.004 261.205)" fill="#f0ff83"/></g><g transform="translate(8985.819 -122.547)"><path d="M8983.749-71.033,8972.5-64.391s-2.646,7.36-1.106,13.285c1.53,5.884,9.407,8.041,9.407,8.041l12.965-9.095Z" transform="translate(-8917.883 331.922)" fill="#efd4e0" fill-rule="evenodd"/><path d="M8980.123-72.72s-6.948,10.963-5.437,20.12,1.933,11.867,1.933,11.867l12.228-9.092Z" transform="translate(-8912.961 329.589)" fill="#efbccf" fill-rule="evenodd"/><path d="M9021.373-60.577l3.924,10.9c2.629,1.094,1.256,2.555,3.828,3.184a33.635,33.635,0,0,0,9.876.367l6.831-9.741-3.126-11.075Z" transform="translate(-8848.081 337.578)" fill="#efd4e0" fill-rule="evenodd"/><path d="M9021.591-59.725s9.6.427,13.265,1.382c4.213,1.1,7.926,8.816,7.926,8.816l2.525-6.568-2.937-11.056Z" transform="translate(-8847.785 337.293)" fill="#efbccf" fill-rule="evenodd"/><path d="M8968.905-105.08a11.136,11.136,0,0,1-2.611,5.222c-17.452,20.22-13.483,51.289,15.423,54.483,11.165,1.232,26.18-1.42,39.523-4.793a93.881,93.881,0,0,0-8.164,7.755A120.416,120.416,0,0,0,9002.194-27.4c.064,20,5.589,34.144,20.892,38.732,8.105-8.413,16.354-16.564,27.635-26.982,5.678-5.243,13.848-14.684,20.868-23.612,3.437,11.035,7.034,25.218,13.946,41.889,17.314,2.884,43.951-5.52,50.917-9.791-4.295-13.485-37.819-67.472-51.786-86.82a8.6,8.6,0,0,0-6.311-3.918c-4.83-1.223-38.31-.286-56.357,3.7-1.038.229.393-2.727-1.091-2.61a20.952,20.952,0,0,0-6.093,1.521s-5.52-13.857-17.407-15.015C8976.122-112.373,8968.905-105.08,8968.905-105.08Z" transform="translate(-8938.715 277.086)" fill="#714d63" fill-rule="evenodd"/><path d="M9044.091-63.5s-14.662,7.148-19.9,5.689c-.651-.181-1.771-.725-1.858-.465-.244.748,1.546,4.5,2.735,14.588.163,1.389-1.771,2.974-1.354,4.493.339,1.251,1.116,4.235,1.614,5.694,4.108,12,5.213,11.471,6.039,11.843s3.586-.029,3.586-.029l-4.523-14.781s3.467-.932,4.61.932,4.253,10.081,8.235,11.433,22.209,2.941,26.252-2.562c1.6-2.169,1.006-6,1.006-6a11.83,11.83,0,0,0-5.73-1.466c-2,0-6.68-1.07-8.062-2.917S9044.921-55.739,9044.091-63.5Z" transform="translate(-8846.788 342.344)" fill="#714d63" fill-rule="evenodd"/><path d="M9001.86-46.543c-1.733.041-13.961-3.909-8.272-21.977-1.669,1.068-8.5,3.658-14.6,7A84.936,84.936,0,0,0,8963.784-50.4l-.556,4.135,3.273,1.389c.169-.076,9.106-6.7,11.793-8.327.867-.529-9.552,7.276-11.745,8.961-3.2,2.455-5.926,6.79-7.121,8.895-9.29,16.378,5.562,21.545,8.917,22.966,3.235,1.37,6.529-5,6.529-5-.1-.107.864-1.861.65-3.7-.328-2.87,2.438-6.058,10.012-12.839C8990.947-38.766,9001.86-46.543,9001.86-46.543Z" transform="translate(-8937.94 335.399)" fill="#714d63" fill-rule="evenodd"/><path d="M9147.78-18.752s-4.723,0-5.618-.067a21.95,21.95,0,0,1-2.87-.412c1.764-3.494,9.354-5.83,9.354-5.83Zm-18.931-7.834c-1.232-1.432-1.659-5.222-4.57-6.092L9135-33.762s-5.486,6.707-6.149,7.176Zm-10.318,2.431-1.089-3.427,3.342,1.332-2.255,2.095Zm7.343-19.632s-7.845,7.143-9.8,7c.853-1.146.445-4.18-.07-6.187C9116.008-42.972,9122.189-43.644,9125.874-43.787Zm-142.79-6.733c2.664,2.255,9.33,6.964,9.33,6.964l-2.393,2.176s-1.566-1.485-3.05-2.612-6.551-8.783-3.888-6.528Zm-16.593,18.34c10.366-1.182,11.348,1.728,11.348,1.728l-3.065,3.651-6.031-3.229s-4.479-1.895-2.251-2.15Zm-9.407,6.578s-.824-5.065.3-5.336c2.662-.639,4.725,4.052,4.725,4.052l-5.025,1.285Zm10.139-29.053a9.823,9.823,0,0,1,1.7-1.306l-.428,2.612s-1.618-.868-1.268-1.306Zm-5.488,15.046a20.444,20.444,0,0,1,3.166-4.6s6.081,2.4,8.371,5.544c0,0-8.826,1.192-11.537-.941Zm26.33-.25S8978.159-46,8974.535-43.6c2.508,1.6,7,8.966,7,8.966l6.528-5.222ZM8979.242-58.8c-2.429.038-2.343-2.626-2.343-2.626,2.614-1.37,5.83-3.234,6.15-3.1S8981.671-58.842,8979.242-58.8Zm6.647,5.017c2.114,4.319,8.841,8.7,8.841,8.7l2.255-1.394s-6.831-4.316-8.7-8.616c-1.623-3.723-.871-11.969-.871-11.969l-2.61,1.525s-.677,8.149,1.089,11.75ZM9115.36-47.04a11.436,11.436,0,0,1-.437-2.393c-.024-.162,5.741,2.953,20.1-4.79a20.934,20.934,0,0,1,.788,2.4S9123.006-44.671,9115.36-47.04Zm16.079,3.525c1.851.439,7.2-2,7.2-2l-1.742-3.7s-7.316,5.265-5.462,5.7Zm4.732,16.216c.212.87,8.345-7.589,8.345-7.589l-3-5.405S9134.982-32.285,9136.172-27.3Zm6.878-.808,2.971-4.557c-.019.226.707.968,1.724,2.016.665.686,2.277,1.156,2.185,1.473-.226.8-6.879,1.068-6.879,1.068Zm10.393,2.612.173-2.831,2.657.155Z" transform="translate(-8937.419 337.418)" fill="#81779d" fill-rule="evenodd"/><path d="M8965.049-42.787s-.987-6.254-2.828-4.788-1.306,4.788-1.306,4.788S8963.321-40.773,8965.049-42.787Z" transform="translate(-8931.814 364.065)" fill="#81779d" fill-rule="evenodd"/><path d="M9010.256-99.028c-.739.615-7.108,2.729-10.229,5.97-3.144,3.265-5.261,8.561-4.031,12.5,1,3.184,2.957,3.758,2.957,3.758Z" transform="translate(-8883.68 293.196)" fill="#714d63" fill-rule="evenodd"/><path d="M8977.47-63.235c-3.5-2.989-13.307-14.228-13.307-14.228s-2.034-9.583-1.272-10.36,8.922-4.569,8.922-4.569-.689-.82,8.05-4.788c8.575-3.89,24.329,2.386,24.329,2.386s2.042,15.382-.133,21.5c-.58,1.633-12.092,5.9-14.185,7.233C8988.288-65.628,8978.736-62.151,8977.47-63.235Z" transform="translate(-8929.218 293.992)" fill="#714d63" fill-rule="evenodd"/><path d="M9071.579-39.3c3.321,11.206,7.564,24.877,13.958,41.928,12.685,2.881,41.7-4.083,50.917-9.793-4.116-13.973-37.817-67.47-51.786-86.82a8.591,8.591,0,0,0-6.311-3.916c-4.827-1.225-38.306-.288-56.357,3.7-1.036.229.395-2.727-1.089-2.612a21.141,21.141,0,0,0-6.095,1.521s-5.52-13.857-17.407-15.013c-21.287-2.071-28.5,5.222-28.5,5.222a11.136,11.136,0,0,1-2.611,5.222c-17.452,20.22-13.483,51.289,15.423,54.483,11.089,1.225,25.962-1.382,39.235-4.719M9136.019,1.759s-14.661,7.148-19.9,5.689c-.65-.181-1.771-.725-1.858-.467-.244.751,1.546,4.5,2.735,14.591.163,1.389-1.771,2.974-1.354,4.493.339,1.249,1.117,4.235,1.614,5.694,4.108,12,5.213,11.471,6.039,11.843s3.586-.029,3.586-.029l-4.523-14.781s3.467-.934,4.61.932,4.253,10.081,8.235,11.433,22.209,2.939,26.252-2.562c1.6-2.169,1.006-6,1.006-6a11.83,11.83,0,0,0-5.73-1.466c-2,0-6.68-1.073-8.062-2.92S9136.85,9.521,9136.019,1.761Zm-133.383,10.01c-1.733.041-13.961-3.909-8.272-21.977-1.669,1.068-8.5,3.656-14.6,7A84.936,84.936,0,0,0,8964.56,7.913L8964,12.048l3.273,1.389c.169-.076,9.106-6.7,11.793-8.33.867-.529-9.552,7.276-11.745,8.964-3.2,2.455-5.926,6.79-7.121,8.895-9.29,16.376,5.562,21.545,8.917,22.966,3.235,1.368,6.529-5,6.529-5-.1-.107.864-1.861.65-3.7-.328-2.87,2.438-6.058,10.012-12.839,5.41-4.843,16.323-12.622,16.323-12.622Zm44.5-82.873c-8.008,5.05-27.757,21.638-34.061,28.691A120.416,120.416,0,0,0,9002.2-27.4c.064,20,5.587,34.144,20.892,38.732,8.105-8.413,16.354-16.564,27.635-26.982,11.02-10.177,31.428-36.167,34.595-43.52,1.6-3.72,6.759-22.606-13.706-28.068-5.19-1.387-42.918-5.946-76.458,3.749,0,0-6.354,1.647-9.427,4.945m144.239,57.2c-2.665,1.542-33.595,13.37-49.774,9.107M9031.508,2.753C9022.8.591,9011.575-12.722,9011.3-40.336M8996.682-83.92a23.269,23.269,0,0,0-10.182,1.17m48.521,20.668c.716-3.2,2.936-6.695,7.035-10.568M8964,12.048A104.751,104.751,0,0,1,8978.521,2.2a9.761,9.761,0,0,0,.589,2.889" transform="translate(-8938.715 277.087)" fill="none" stroke="#fdfdfd" stroke-linecap="round" stroke-linejoin="round" stroke-width="0.168"/><path d="M8985.379-102.487s14.892,10.72,18.976,14.939c1.618,1.966,1.961.748,3.986-1.513,3.439-3.849,23.374-13.545,29.773-15.992,3.5-1.337,8.608-4.359,10.046-7.743,1.364-3.227-.284-10.637,2.758-13.008,5.636-4.4,5.855-4.016,7.117-5.567s.812-6.244,2.306-4.936c1.972,1.726,2.378,5.718,1.47,7.474s2.362,6.2-.492,7.762c-2.87,1.575,14.473-.35,14.473-.35L9064.9-105.764l-6.926,6.714s-33.982,30.559-38.243,33.116c-3.614,2.166-15.71,8.192-28.931-2-12.513-12.339-17.974-19.674-17.974-19.674S8973.982-103.8,8985.379-102.487Z" transform="translate(-8915.233 241.309)" fill="#efd4e0" fill-rule="evenodd"/><path d="M8985.388-122.937s15.422,12.946,18.561,17.62c-12.848,9-15.1,14.236-12.376,20.387-.428-.424-5.823-3.89-8.792-9.269a96.533,96.533,0,0,0-8.877-12.879S8974.023-124.253,8985.388-122.937Z" transform="translate(-8913.749 260.022)" fill="#e3c1ce" fill-rule="evenodd"/><path d="M8989.766-115.83s-3.233,3.966-3.427,5.1c-.343,2.045-.949,4.319-.8,5.734-.9-.434-.07-6.228-.07-6.228S8988.252-115.565,8989.766-115.83Z" transform="translate(-8898.235 269.953)" fill="#e3c1ce" fill-rule="evenodd"/><path d="M9020.021-132.379l16.252.775s2.8,3.461-1.129,3.535c-3.95.071-16.512.865-16.512.865Z" transform="translate(-8851.878 247.061)" fill="#efd4e0" fill-rule="evenodd"/><path d="M8969.59-98.139l13.869,10.723s3.7-5.239,20.455-10.663c7.014-2.271,15.467-7.131,22.846-13.056,1.922-1.542,3.316-1.954,5-3.7,6.715-6.919,11.373-15.88,12.281-16.416a30.5,30.5,0,0,1,13.4-3.82c2.752,0,5.078-.3,8.268,2.176.168.131-.486,1.256-1.523,1.959-1.066.727-5.336.179-6.307.436a25.779,25.779,0,0,0-5.008,1.74c3.977.572,7.348,3.925,5.443,6.311-2.371,2.958-.832,3.184-3.486,5.222-1.918.91-2.975,1.227-2.826,1.959-1.186,2.519-5.25,9.576-11.1,12.4-6.809,3.291-31.453,30.671-45.7,39.385-11.7,7.16-16.475,1.266-19.361-.641-1.85-1.22-8.105-6.278-13.48-10.761-2.578-2.152-3.432-8.087-5.021-9.488C8952.434-88.706,8967.1-98.13,8969.59-98.139Z" transform="translate(-8938.035 243.32)" fill="#efd4e0" fill-rule="evenodd"/><path d="M8967.028-119.831l13.276,11.1c-4.829-2.5-12.075,3.11-13.49,4.569-3.812,3.932-3.068,8.945-.436,13.709a36.435,36.435,0,0,1-6.528-4.788C8954.936-99.575,8964.541-119.821,8967.028-119.831Z" transform="translate(-8935.101 264.419)" fill="#e3c1ce" fill-rule="evenodd"/><path d="M8970.478-115.725s-4.634,6.769-3.755,9.059C8967.448-104.778,8964.114-109.988,8970.478-115.725Z" transform="translate(-8924.017 270.099)" fill="#e3c1ce" fill-rule="evenodd"/><path d="M8998.687-117.366s-2.848,3.229-5.878,6.094c-4.966,4.7-14.2,12.632-14.579,12.839C8977.629-98.1,8993.653-113.686,8998.687-117.366Z" transform="translate(-8907.786 267.829)" fill="#e3c1ce" fill-rule="evenodd"/><path d="M9004.553-129.085l-10.131,1.056S9000.171-130.446,9004.553-129.085Z" transform="translate(-8885.365 251.043)" fill="#e3c1ce" fill-rule="evenodd"/><path d="M9000.206-127.409l-5,1.242A7.032,7.032,0,0,0,9000.206-127.409Z" transform="translate(-8884.285 253.936)" fill="#e3c1ce" fill-rule="evenodd"/><path d="M9002.3-131.713s-5.585-1.9-7.4-.653S8995.419-132.328,9002.3-131.713Z" transform="translate(-8885.512 246.49)" fill="#e3c1ce" fill-rule="evenodd"/><path d="M9049.136-134.214l1.773.262.822,3.063a1.432,1.432,0,0,1-.337,1.6c-.974.808-30.634,28.562-30.634,28.562a3.214,3.214,0,0,1-3.687.579c-2-1.1-10.226-12.062-10.226-12.062a4.8,4.8,0,0,1-.868-1.959,17.619,17.619,0,0,1-.144-3.351l40.255-19.61Z" transform="translate(-8869.604 240.483)" fill="#31726c" fill-rule="evenodd"/><path d="M9036.635-140.16l13.622,9.793a1.345,1.345,0,0,1,.762,1.742l-31.4,29.417a2.017,2.017,0,0,1-2.771.071l-10.6-12.365a1.739,1.739,0,0,1,.037-2.46.8.8,0,0,1,.095-.086s27.874-24.83,28.386-25.4A1.716,1.716,0,0,1,9036.635-140.16Z" transform="translate(-8869.685 236.178)" fill="#eee" fill-rule="evenodd"/><path d="M9036.635-140.16l13.622,9.793a1.345,1.345,0,0,1,.762,1.742l-31.4,29.417a2.017,2.017,0,0,1-2.771.071l-10.6-12.365a1.739,1.739,0,0,1,.037-2.46.8.8,0,0,1,.095-.086s27.874-24.83,28.386-25.4A1.716,1.716,0,0,1,9036.635-140.16Z" transform="translate(-8869.685 236.178)" fill="none" stroke="#378e87" stroke-width="0.365"/><path d="M9034.37-139.119l11.39,8.489-28.85,26.951-10.04-10.844Z" transform="translate(-8868.144 237.737)" fill="#378e87" fill-rule="evenodd"/><path d="M9030.711-129.17a3.253,3.253,0,0,1,.488,2.6,5.445,5.445,0,0,1-3.972,3.27,15.282,15.282,0,0,1-3.975,0c-.434-.145,1.845-.777,1.449-.891a34.127,34.127,0,0,0-5.051-.8c-2.209-.16-5.126-.732-5.664-1.342s-2.425-3.761,5.95-3.4C9027.449-129.394,9028.5-130.085,9030.711-129.17Z" transform="translate(-8859.083 250.694)" fill="#efd4e0" fill-rule="evenodd"/><path d="M9022.784-125.848c.592.036,1.745-.817,2.025-.949a14.41,14.41,0,0,1,.576,2.112c-.086,1.046-1.014,3.265-2.372,3.268-1.709,0-2.707-.288-6.664-1.018s-6.534-3.339-2.737-3.468C9016.922-126.018,9021.561-125.92,9022.784-125.848Z" transform="translate(-8861.386 254.782)" fill="#efd4e0" fill-rule="evenodd"/><path d="M8956.769-125.757s-14.918,16.567,12.187,40.038c-1.415-6.854,4.932-19.727,13.49-19.8-2.643-2.3-6.99-5.327-8.27-7.179,0,0-3.529-7.658-9.138-11.316A11.366,11.366,0,0,0,8956.769-125.757Z" transform="translate(-8943.119 255.985)" fill="#5b5474" fill-rule="evenodd"/><path d="M8970.645-129.326a16.02,16.02,0,0,0,6.309,4.788c3.2,1.347,7.041,1.811,12.4,6.745,3.008,2.765,4.425,6.182,5.221,7.181,0,0-1.123.61-3.483,1.74a68.811,68.811,0,0,1-7.4,2.829Z" transform="translate(-8918.26 251.284)" fill="#70678e" fill-rule="evenodd"/><path d="M8974.043-132.065a11.511,11.511,0,0,0-2.173,2.393c-1.643,2.6-13.652,7.46-17.843,13.928,3.031-.846,6.5-3.909,13.924,4.786,1.8,2.107,2.189,3.248,3.919,6.094,2.979,4.214,9.472,7.858,14.579,13.056,4.058-3.99,8.3-5.772,16.316-8.7,6.833-2.831,10.026-3.523,9.794-6.311-.364-4.352-8.621-9.786-16.1-15.451-1.5-1.137-1.189-2.41-2.828-3.482-1.266-.219-1.512-1.08-2.177-.436C8987.029-121.9,8978.86-129.794,8974.043-132.065Z" transform="translate(-8941.245 247.495)" fill="#70678e" fill-rule="evenodd"/><path d="M8978.889-113.837s-1.307-6.178-4.137-10.01c1.318.214,4.687,6.647,5.223,9.357C8980.179-114.662,8979.38-114.056,8978.889-113.837Z" transform="translate(-8912.576 258.863)" fill="#5b5474" fill-rule="evenodd"/><path d="M8978.042-123.939s-.737,5.672-1.306,5.222-1.021-.686-.873-1.306S8976.78-120.831,8978.042-123.939Z" transform="translate(-8911.077 258.736)" fill="#5b5474" fill-rule="evenodd"/><path d="M8972.127-118.042s-4.172.458-8.925,4.686c-5.071,4.512-4.3,12.284-4.787,10.661C8956.645-108.594,8962.284-118.559,8972.127-118.042Z" transform="translate(-8935.624 266.867)" fill="#70678e" fill-rule="evenodd"/><path d="M8962.8-122.752s.51,6.6-.222,6.528-.589-.772-.869-1.089S8963.136-121.751,8962.8-122.752Z" transform="translate(-8930.651 260.378)" fill="#5b5474" fill-rule="evenodd"/><path d="M8962.153-129.417s8.085,16.257,19.584,11.314c3.205-2.314,3.089-6.909,2.608-7.615s2.224,7.71-7.4,7.834C8969.928-117.793,8963.79-127.231,8962.153-129.417Z" transform="translate(-8930.004 251.158)" fill="#5b5474" fill-rule="evenodd"/><path d="M8975.631-99.409a.756.756,0,0,1,.637.856.754.754,0,0,1-.854.636.754.754,0,0,1-.637-.856.687.687,0,0,1,.038-.145A.675.675,0,0,1,8975.631-99.409Zm-3.046-8.268a.753.753,0,0,1,.637.853.757.757,0,0,1-.856.639.754.754,0,0,1-.635-.856.765.765,0,0,1,.034-.148A.683.683,0,0,1,8972.585-107.676Zm-3.7,14.362a.753.753,0,0,1,.637.853.753.753,0,0,1-.856.636.752.752,0,0,1-.635-.853.7.7,0,0,1,.034-.148A.679.679,0,0,1,8968.887-93.314Zm-1.814-10.889a.751.751,0,0,1-.633-.856.756.756,0,0,1,.856-.636.756.756,0,0,1,.635.858.682.682,0,0,1-.036.145A.682.682,0,0,1,8967.072-104.2Zm-.354,8.814a.748.748,0,0,1-.629-.858.751.751,0,0,1,.856-.629.751.751,0,0,1,.631.856.831.831,0,0,1-.036.143A.682.682,0,0,1,8966.718-95.39Zm-.226,9.254a.754.754,0,0,1,.637.856.754.754,0,0,1-.856.634.75.75,0,0,1-.633-.853.7.7,0,0,1,.034-.148A.68.68,0,0,1,8966.492-86.136Zm-.472-15.16a.752.752,0,0,1,.633.858.753.753,0,0,1-.856.632.749.749,0,0,1-.629-.858.692.692,0,0,1,.034-.143A.679.679,0,0,1,8966.021-101.3Zm-1.885,11.848a.793.793,0,0,1,.677.9.8.8,0,0,1-.9.679.8.8,0,0,1-.678-.9.854.854,0,0,1,.043-.162A.71.71,0,0,1,8964.136-89.449Zm-1.957-8.706a.722.722,0,0,1,.33.951.713.713,0,0,1-.856.517.731.731,0,0,1-.331-.953.717.717,0,0,1,.857-.517Zm-.307-11.228a.755.755,0,0,1,.637.856.757.757,0,0,1-.856.639.754.754,0,0,1-.637-.856.6.6,0,0,1,.036-.148A.683.683,0,0,1,8961.872-109.383Zm-6.041,10.408a.754.754,0,0,1,.635.856.754.754,0,0,1-.853.636.755.755,0,0,1-.639-.856.532.532,0,0,1,.04-.148A.678.678,0,0,1,8955.831-98.975Zm-1.436-4.414a.759.759,0,0,1,.638.858.76.76,0,0,1-.859.636.756.756,0,0,1-.635-.858.746.746,0,0,1,.036-.145A.682.682,0,0,1,8954.4-103.389Zm-1.027-6.163a.753.753,0,0,1-.631-.856.752.752,0,0,1,.856-.634.755.755,0,0,1,.633.858.752.752,0,0,1-.038.145A.681.681,0,0,1,8953.368-109.552Zm1.715,2.162a.757.757,0,0,1,.64.858.755.755,0,0,1-.857.634.749.749,0,0,1-.635-.856.741.741,0,0,1,.034-.145A.684.684,0,0,1,8955.083-107.39Zm.1-8.966a.755.755,0,0,1-.633-.858.752.752,0,0,1,.857-.634.755.755,0,0,1,.635.858.515.515,0,0,1-.039.145A.678.678,0,0,1,8955.182-116.357Zm.688,4.819a.75.75,0,0,1-.635-.856.755.755,0,0,1,.854-.636.758.758,0,0,1,.64.858.64.64,0,0,1-.041.145A.677.677,0,0,1,8955.869-111.537Zm1.792,16.2a.754.754,0,0,1,.635.856.759.759,0,0,1-.858.636.755.755,0,0,1-.633-.858.742.742,0,0,1,.034-.145A.683.683,0,0,1,8957.661-95.333Zm.542-9.8a.755.755,0,0,1,.634.858.752.752,0,0,1-.857.634.75.75,0,0,1-.635-.856.6.6,0,0,1,.036-.145A.686.686,0,0,1,8958.2-105.131Zm-.266-12.472a.751.751,0,0,1-.629-.858.748.748,0,0,1,.854-.629.755.755,0,0,1,.633.856.628.628,0,0,1-.036.143A.683.683,0,0,1,8957.938-117.6Zm0,9.14a.754.754,0,0,1-.631-.858.751.751,0,0,1,.854-.632.754.754,0,0,1,.635.856.7.7,0,0,1-.036.143A.685.685,0,0,1,8957.938-108.463Zm.436,9.791a.754.754,0,0,1-.633-.856.753.753,0,0,1,.858-.634.753.753,0,0,1,.631.856.913.913,0,0,1-.034.145A.682.682,0,0,1,8958.373-98.672Zm1.808,7.1a.749.749,0,0,1,.635.856.753.753,0,0,1-.853.636.754.754,0,0,1-.637-.856.858.858,0,0,1,.036-.145A.682.682,0,0,1,8960.181-91.575Zm.422-23.964a.749.749,0,0,1,.633.856.75.75,0,0,1-.854.634.754.754,0,0,1-.638-.856.64.64,0,0,1,.041-.145A.673.673,0,0,1,8960.6-115.539Zm.018-6.344a.754.754,0,0,1-.633-.858.753.753,0,0,1,.854-.634.762.762,0,0,1,.64.858.9.9,0,0,1-.041.143A.682.682,0,0,1,8960.62-121.883Zm.78,3.344a.755.755,0,0,1-.633-.856.752.752,0,0,1,.858-.632.753.753,0,0,1,.631.856.682.682,0,0,1-.036.145A.683.683,0,0,1,8961.4-118.54Zm.614,15.709a.754.754,0,0,1-.635-.856.755.755,0,0,1,.854-.636.757.757,0,0,1,.638.856.848.848,0,0,1-.036.148A.684.684,0,0,1,8962.015-102.831Zm2.021,9.548a.714.714,0,0,1-.859.517.8.8,0,0,1-.677-.9.8.8,0,0,1,.9-.677.8.8,0,0,1,.678.9A.632.632,0,0,1,8964.035-93.283Zm.84-19.853a.755.755,0,0,1,.64.856.755.755,0,0,1-.855.639.757.757,0,0,1-.641-.856.8.8,0,0,1,.04-.15A.68.68,0,0,1,8964.875-113.137Zm-.407-4.009a.755.755,0,0,1-.635-.856.755.755,0,0,1,.858-.634.754.754,0,0,1,.632.858.954.954,0,0,1-.035.143A.682.682,0,0,1,8964.468-117.145Zm.7,9.538a.753.753,0,0,1-.635-.856.755.755,0,0,1,.854-.634.753.753,0,0,1,.636.856.663.663,0,0,1-.037.145A.68.68,0,0,1,8965.163-107.607Zm1.764-16.39a.753.753,0,0,1,.638.856.756.756,0,0,1-.856.636.753.753,0,0,1-.634-.856.818.818,0,0,1,.034-.145A.685.685,0,0,1,8966.927-124Zm-.082-2.014a.754.754,0,0,1-.633-.858.754.754,0,0,1,.856-.632.752.752,0,0,1,.631.858.887.887,0,0,1-.034.143A.683.683,0,0,1,8966.845-126.011Zm.731,6.99a.753.753,0,0,1-.637-.856.756.756,0,0,1,.856-.636.756.756,0,0,1,.637.858.829.829,0,0,1-.038.145A.682.682,0,0,1,8967.576-119.021Zm.591,5.987a.752.752,0,0,1-.631-.858.751.751,0,0,1,.854-.632.756.756,0,0,1,.635.858.873.873,0,0,1-.04.141A.677.677,0,0,1,8968.167-113.034Zm1.777,12.941a.617.617,0,0,1-.849.2.617.617,0,0,1-.205-.846.622.622,0,0,1,.739-.26A.683.683,0,0,1,8969.944-100.093Zm-.012-9.645a.758.758,0,0,1-.635-.858.755.755,0,0,1,.858-.634.751.751,0,0,1,.633.858.657.657,0,0,1-.034.143A.685.685,0,0,1,8969.933-109.738ZM8970-103.3a.754.754,0,0,1-.639-.856.756.756,0,0,1,.856-.636.756.756,0,0,1,.639.856.708.708,0,0,1-.038.148A.678.678,0,0,1,8970-103.3Zm2.775-21.154a.614.614,0,0,1-.847.2.613.613,0,0,1-.205-.846.616.616,0,0,1,.735-.26A.674.674,0,0,1,8972.772-124.455Zm.055-3.861a.757.757,0,0,1-.641-.856.755.755,0,0,1,.854-.639.76.76,0,0,1,.643.856c-.012.05-.024.1-.04.148A.679.679,0,0,1,8972.827-128.316Zm.3,13.3a.755.755,0,0,1-.637-.858.752.752,0,0,1,.856-.634.753.753,0,0,1,.638.856,1.242,1.242,0,0,1-.039.148A.679.679,0,0,1,8973.127-115.012Zm2.53,12.558a.618.618,0,0,1-.849.2.618.618,0,0,1-.2-.848.615.615,0,0,1,.734-.257A.679.679,0,0,1,8975.657-102.455Zm.165-20.015a.75.75,0,0,1-.635-.853.752.752,0,0,1,.853-.636.755.755,0,0,1,.637.856.924.924,0,0,1-.038.145A.678.678,0,0,1,8975.822-122.47Zm.081,13.6a.755.755,0,0,1-.638-.856.756.756,0,0,1,.857-.636.755.755,0,0,1,.635.858.628.628,0,0,1-.036.145A.685.685,0,0,1,8975.9-108.868Zm2.287-9.886a.753.753,0,0,1-.633-.856.752.752,0,0,1,.856-.634.756.756,0,0,1,.633.858.853.853,0,0,1-.036.143A.685.685,0,0,1,8978.19-118.754Zm4.167,6.649a.758.758,0,0,1-.636-.856.758.758,0,0,1,.859-.636.758.758,0,0,1,.635.858.988.988,0,0,1-.036.145A.683.683,0,0,1,8982.357-112.1Zm.271,9.526a.753.753,0,0,1-.637-.856.753.753,0,0,1,.856-.636.751.751,0,0,1,.635.856.7.7,0,0,1-.034.148A.684.684,0,0,1,8982.629-102.578Zm4.408-4.69a.754.754,0,0,1-.633-.858.749.749,0,0,1,.854-.634.758.758,0,0,1,.637.856.651.651,0,0,1-.038.145A.685.685,0,0,1,8987.037-107.269Zm1.022,6.654a.755.755,0,0,1-.633-.856.753.753,0,0,1,.856-.634.751.751,0,0,1,.633.856.628.628,0,0,1-.036.145A.685.685,0,0,1,8988.06-100.615Zm1.529-11.733a.756.756,0,0,1-.633-.858.752.752,0,0,1,.856-.632.754.754,0,0,1,.633.856.934.934,0,0,1-.038.143A.679.679,0,0,1,8989.589-112.348Zm2.9,6.192a.754.754,0,0,1-.635-.858.752.752,0,0,1,.854-.634.759.759,0,0,1,.64.858,1.21,1.21,0,0,1-.041.145A.682.682,0,0,1,8992.491-106.156Zm1.318,6.621a.75.75,0,0,1-.633-.856.753.753,0,0,1,.854-.636.756.756,0,0,1,.64.858.64.64,0,0,1-.041.145A.676.676,0,0,1,8993.81-99.535Zm3.139-11.438a.754.754,0,0,1,.633.858.752.752,0,0,1-.854.634.756.756,0,0,1-.637-.858.516.516,0,0,1,.04-.145A.68.68,0,0,1,8996.948-110.973Zm.068-6.12a.75.75,0,0,1-.635-.853.755.755,0,0,1,.854-.636.753.753,0,0,1,.635.856.682.682,0,0,1-.036.145A.678.678,0,0,1,8997.017-117.093Zm1.675,12.751a.754.754,0,0,1-.631-.858.754.754,0,0,1,.857-.632.751.751,0,0,1,.631.856.931.931,0,0,1-.034.143A.683.683,0,0,1,8998.691-104.342Zm2.083-16.819a.751.751,0,0,1-.636-.856.756.756,0,0,1,.857-.636.755.755,0,0,1,.635.858.66.66,0,0,1-.036.145A.686.686,0,0,1,9000.774-121.161Zm1.435,8.876a.616.616,0,0,1-.849.2.613.613,0,0,1-.2-.846.618.618,0,0,1,.735-.26A.684.684,0,0,1,9002.209-112.286Zm.051-5.482a.75.75,0,0,1-.633-.856.754.754,0,0,1,.856-.636.756.756,0,0,1,.635.858.746.746,0,0,1-.036.145A.682.682,0,0,1,9002.26-117.767Zm1.1,11.969a.754.754,0,0,1-.631-.858.755.755,0,0,1,.858-.632.753.753,0,0,1,.631.858.746.746,0,0,1-.036.145A.683.683,0,0,1,9003.36-105.8Zm2.516-5.374a.758.758,0,0,1-.636-.856.758.758,0,0,1,.859-.636.752.752,0,0,1,.633.858.784.784,0,0,1-.034.145A.688.688,0,0,1,9005.876-111.173Zm2.652,4.533a.732.732,0,0,1,.332.953.712.712,0,0,1-.856.515.719.719,0,0,1-.328-.951.71.71,0,0,1,.853-.517ZM9008-118.664a.718.718,0,0,1-.328-.949.706.706,0,0,1,.853-.512.719.719,0,0,1,.332.946A.713.713,0,0,1,9008-118.664Zm2.983,6.981a.613.613,0,0,1-.845.2.615.615,0,0,1-.205-.846.614.614,0,0,1,.735-.26A.679.679,0,0,1,9010.987-111.683Zm-.036-5.229a.756.756,0,0,1-.642-.853.756.756,0,0,1,.857-.639.749.749,0,0,1,.639.853.913.913,0,0,1-.036.15A.683.683,0,0,1,9010.951-116.912Zm3.694,3.754a.754.754,0,0,1-.637-.856.751.751,0,0,1,.854-.636.757.757,0,0,1,.639.856.708.708,0,0,1-.038.148A.68.68,0,0,1,9014.646-113.158Zm2.04,3.105a.621.621,0,0,1-.851.207.618.618,0,0,1-.206-.848.619.619,0,0,1,.738-.26.688.688,0,0,1,.318.9Z" transform="translate(-8943.041 250.603)" fill="#5b5474" fill-rule="evenodd"/><path d="M9060.82-130.91s14.958,1.778,9.215,18.855c-4.477,13.311-23.445,25.025-71.59,15.961-50.4-9.49-50.853-28.266-49.423-32.737,1.878-5.887,9.521-20.537,22.631-11.385.216-.527-9.821-5.4.706-13.461,3.971-2.829,6.909-4.016,9.189-.975,1.222,1.635-2.332-8.966,13.684-9.09,18.5-.148,45.336,1.335,51.68,9.841,2.4,4.157,3.173,4.938.856,10.334C9046.846-142.39,9060.249-148.174,9060.82-130.91Z" transform="translate(-8948.665 203.661)" fill="#dc4427" fill-rule="evenodd"/><path d="M9069.859-145.368c1.6,2.812,2.181,6.957.135,13.044-4.477,13.311-23.446,25.025-71.59,15.961-50.4-9.49-50.5-28.169-49.424-32.737-5.067,21.552,58.454,37.8,89.614,32.5C9060.577-120.338,9066.6-135.822,9069.859-145.368Z" transform="translate(-8948.622 223.93)" fill="#c13f28" fill-rule="evenodd"/><path d="M8981.171-141.439s-17.244-7.009-10.472-15.127,18.83-16.164,18.775-22.315.381,6.344,12.76,19.267c10.007,10.449,4.16,18.812-5.5,20.375S8982.015-140.788,8981.171-141.439Z" transform="translate(-8920.362 180.497)" fill="#dc4427" fill-rule="evenodd"/><path d="M8981.171-153.56s-17.244-7.009-10.472-15.127c-1.741,18.53,33.464,15.287,31.535-3.048,10.007,10.449,4.16,18.812-5.5,20.375S8982.015-152.909,8981.171-153.56Z" transform="translate(-8920.362 192.618)" fill="#c13f28" fill-rule="evenodd"/><path d="M8974.109-164.512l-.838,2.286,18.2,1.416.3-1.5S8980.068-164.479,8974.109-164.512Z" transform="translate(-8914.624 202.61)" fill="#714d63" fill-rule="evenodd"/><path d="M8973.519-148.29c-2.917.713-5.925,6.709-1.01,9.254s2.767,2.881,2.767,2.881l-2.507,13.764-10.421,25.428s2.308,6.287,6.718,9.421c4.935,3.511,14.652,6.349,12.836-1.523-.905-3.933-.468-16.261,2.614-26.982,2.183.265,17.693,9.028,26.161-6.819,4.354-10.527,5.221-21.3,3.938-22.656l-1.451-5.224s-30.725-8.914-34.488-3.677c-.9,1.258-1.334,4.738-2.435,5.277A6.514,6.514,0,0,1,8973.519-148.29Z" transform="translate(-8929.737 214.287)" fill="#efd4e0" fill-rule="evenodd"/><path d="M8965.941-135.976s8.552,3.277,10.771,26.739a89.927,89.927,0,0,1,2.83-24.806c-.918-1.721-6.243-4.137-7.841-7.169-1.822-3.449-3.231-.972-4.266,1.628C8966.719-137.778,8965.941-135.976,8965.941-135.976Z" transform="translate(-8924.764 232.499)" fill="#e3c1ce" fill-rule="evenodd"/><path d="M8974.385-150.649c-1.849.67-2.745,2.19-2.222,1.144,1.01-2.021,4.8-3.31,4.8-3.31l1.5,1.8a10.821,10.821,0,0,0-4.082.367Zm6.246,8.837a1.718,1.718,0,0,1-1.586-1.792,1.718,1.718,0,0,1,1.364-1.964,1.721,1.721,0,0,1,1.589,1.79,1.723,1.723,0,0,1-1.367,1.966Zm3.629,8.992a18.1,18.1,0,0,1-3.911-3,13.534,13.534,0,0,1-2.406-3.9l-.9-.3-.239-.422,2.344.117-.36.422-.48.06a13.369,13.369,0,0,0,7.158,6.721l-1.2.3Zm.834-4.988c.258.3,5.638.47,3.9-.608s-2.646-4.621-2.646-4.621a8.4,8.4,0,0,0,1.627,4.864s-3.137.062-2.885.365Zm6.354-2.519a1.718,1.718,0,0,1-1.586-1.79,1.716,1.716,0,0,1,1.366-1.964,1.714,1.714,0,0,1,1.582,1.79,1.716,1.716,0,0,1-1.362,1.966Zm5.352-4.407-1.318-2.162s-.061-.391.78-.663.538,2.824.538,2.824Z" transform="translate(-8916.363 218.791)" fill="#804c33" fill-rule="evenodd"/><path d="M8976-147.91a8.261,8.261,0,0,1,3.444,11.171,8.265,8.265,0,0,1-11.169,3.444,8.266,8.266,0,0,1-3.535-10.994A8.364,8.364,0,0,1,8976-147.91Z" transform="translate(-8927.637 224.296)" fill="#fbe68e" fill-rule="evenodd"/><path d="M8975.463-149.98s-1.1,4.364-2.453,7.934.188,5.046.188,5.046l-2.773-7.386-5.537-6.661s7.841-8.406,11.046-8.006,15.922,1.18,15.922,1.18l21.813,4.116,2.409,6-2.038,2.889s-1.487,8.351-4.683.667c-1,6.149-8.762,7.341-8.762,7.341s-14.593-1.072-15.155-11.454C8985.058-146.745,8979.831-140.556,8975.463-149.98Z" transform="translate(-8926.223 210.143)" fill="#dc4427" fill-rule="evenodd"/><path d="M8971.924-153.818s-1.1,4.361-2.451,7.934.184,5.046.184,5.046l-2.169-6.185,3.955-9.138s2.145,4.917,6.194,4.736c3.031-.133,3.275-4.412,6.063-3.132a17.485,17.485,0,0,1,1.447,4.323c.6,2.317,2.514,3.458,4.812,4.8,7.438,4.34,12.713,4.233,14.778-1.042a14.09,14.09,0,0,0,.9-3.005A25.533,25.533,0,0,0,9007.5-146c1,1.623,3-2.653,3-2.707,0,0-1.487,8.351-4.684.667-1.2,7.479-8.765,7.343-8.765,7.343s-14.587-1.075-15.151-11.457C8981.519-150.584,8976.288-144.4,8971.924-153.818Z" transform="translate(-8922.623 214.162)" fill="#c13f28" fill-rule="evenodd"/></g><path d="M9092.55-201.938" transform="translate(236.194 28.29)" fill="#6c79d8"/><g transform="translate(9191.584 -86.562)"><g clip-path="url(#a)"><circle cx="28.608" cy="28.608" r="28.608" fill="#ffe180"/><g transform="translate(8.647 6.989)"><path d="M9041.413-145.263l-2.786,14.143,9.095,1.406s.076-7.846.4-10.541C9045.738-143.03,9045.091-144.562,9041.413-145.263Z" transform="translate(-9038.627 186.264)" fill="#ecc298"/><path d="M9039.74-137.553l6.837,4.526s.127,1.509-.28-4.092c.244,1.068-1.048,2.529,1.36,8.23.865,3.43.248,9.793.226,10.646-.016.61,14.346.064,20.461.6,1.635.145,2.377-6.383,2.114-11.476.581-2.233-1.4-4.638-1.286-4.757.649-.653,5.088-1.513,6.569-.753a36.894,36.894,0,0,0-1.586-6.8c-.847-2.579-1.752-4.226-6.793-4.831s-5.956-2.207-6.043-2.493-.661-1.847-1.887-1.735-7.4.346-7.549,1.811a7.375,7.375,0,0,0-6.42,1.661C9041.86-146.3,9041.521-143.974,9039.74-137.553Z" transform="translate(-9037.087 179.035)" fill="#e64c2a"/><path d="M9044.917-149.337c.121-.329-.655,4.891,5.283,4.078,4.545-.622,4.229-4.078,4.229-4.078s1.03,3.06-3.926,4.454C9045.207-144.042,9044.383-147.9,9044.917-149.337Z" transform="translate(-9030.118 180.607)" fill="#b5432a"/><path d="M9051.836-143.177s3.9-2.147,6.646-1.132C9058.066-143.882,9056.871-145.1,9051.836-143.177Z" transform="translate(-9020.353 187.207)" fill="#b5432a"/><path d="M9043.519-147.445s-.877,6.464-.979,8.08C9042.425-137.547,9042.025-145.715,9043.519-147.445Z" transform="translate(-9033.404 183.245)" fill="#b5432a"/><path d="M9051.521-146.368s1.854,9.192,1.582,11.476c-.18,1.509-.246,6.761-.3,6.947a53.783,53.783,0,0,1-.3-7.1C9052.639-136.971,9051.7-144.545,9051.521-146.368Z" transform="translate(-9020.791 184.735)" fill="#b5432a"/><path d="M9051.171-146.019s.972,1.154,1.135,1.056S9052.2-144.277,9051.171-146.019Z" transform="translate(-9021.274 185.218)" fill="#b5432a"/><path d="M9042.309-147.508l.832,1.509-.153.679A5.4,5.4,0,0,1,9042.309-147.508Z" transform="translate(-9033.553 183.158)" fill="#b5432a"/><path d="M9052.791-157.1s.185,2.97.266,4.252c.022.355-7.907,9.762-7.907,9.762.2-.155.048,2.746-.061,5.615,1.229,3.136,4.164,2.972,6.16,2.04a3.235,3.235,0,0,0,1.542-2.34c.459-1.754,1.247-10.177,1.358-11.025s.1-3.821.3-4.076a4.63,4.63,0,0,0,.23-4.607C9053.551-158,9052.867-157.514,9052.791-157.1Z" transform="translate(-9029.688 169.048)" fill="#ecc298"/><path d="M9045.271-145.7l-.149,2.943a11.236,11.236,0,0,1,7.7,1.964c.616-3.451,1.662-14.951,1.662-14.951s-.862,1.211-1.358.832c-.362-.279-.939,2.593-2.721,5.057C9048.5-147.22,9045.564-145.12,9045.271-145.7Z" transform="translate(-9029.643 171.764)" fill="#c57c59"/><path d="M9044.092-150.07s-.7-7.558,1.356-9.135,5.069-3.43,6.115-3.248,4.116,3.646,4.455,5.286a22.543,22.543,0,0,1-.072,6.116c-.5-.164-.888.536-.833.906.081.531.236,2.062.3,3.7-.411,3.349-1.985,8.206-4.608,10.723-3.488,3.477-5.6-.357-5.888-1.056s-1.37-4.593-.9-10.8A17.229,17.229,0,0,0,9044.092-150.07Z" transform="translate(-9031.333 162.466)" fill="#6d3f27"/><path d="M9044.048-153.14a29.293,29.293,0,0,1,.139-6.363c.212-1.23-.387,4.192,1.068.172,1.169,1.69,2.275,1.478,3.322,1.661a8.691,8.691,0,0,0,4.907-1.661c.492-.355-.189,4.192.375,4.3,2.415.47,2.061-5.477,2.114-5.21a22.583,22.583,0,0,1-.072,6.116c-.5-.164-.887.536-.832.906.08.531.235,2.062.3,3.7a23.4,23.4,0,0,1-1.813,6.495,15.166,15.166,0,0,1-3.548,4.755,3.99,3.99,0,0,1-2.87.682c-1.657-.31-2.1-2.381-2.187-2.267-.145.193,2.528,3.246,5.209.906,3.465-3.024,4.352-9.929,4.3-9.588-.224,1.58-3.249,4.49-3.924,4.531-1.248.074-1.959-2.424-2.417-3.02-3.491,3.475-2.131,3.944-2.415,3.246s-1.624-.541-1.735-6.871A17.181,17.181,0,0,0,9044.048-153.14Z" transform="translate(-9031.287 165.536)" fill="#512d1a"/><path d="M9045.778-159.238s-3.064,2.912-1.51,9.591c1.317,5.329,1.584,3.7,1.584,3.7l2.188-2.793h.682s1.449,3.432,2.489,2.717a7.7,7.7,0,0,0,3.249-6.945c-.915-.01-.872-.765-1.058-2.569a23.452,23.452,0,0,1,0-3.849S9048.573-156.385,9045.778-159.238Z" transform="translate(-9031.434 166.724)" fill="#ecc298"/><path d="M9051.962-143.02s.851,4.04.528,4.833c-1.248,3.108.867,7.963,1.438,10.041s4.3.076,4.3.076,2.057-6.857,1.737-10.117a40.439,40.439,0,0,0-1.133-5.589S9055.008-144.727,9051.962-143.02Z" transform="translate(-9020.178 187.956)" fill="#ecc298"/><path d="M9044.519-156.114a1.534,1.534,0,0,1,2.264-.829,5.049,5.049,0,0,0,.077-.756S9044.533-158,9044.519-156.114Z" transform="translate(-9030.477 169.036)" fill="#75432a"/><path d="M9046.639-157.075s-1.616,2.965-1.06,3.7c.3.4,1.209-.377,1.209-.377s-.782,1.058-1.36.679S9045.585-156.341,9046.639-157.075Z" transform="translate(-9029.499 169.924)" fill="#c57c59"/><path d="M9045.026-154.781a2.927,2.927,0,0,0,3.775-.679c-.107.01.266.148.3.15C9048.356-154.5,9046.548-153.456,9045.026-154.781Z" transform="translate(-9029.774 172.158)" fill="#c57c59"/><path d="M9046.615-155.713l-.229.3s1.041.534,1.21.906S9046.964-155.682,9046.615-155.713Z" transform="translate(-9027.891 171.808)" fill="#c57c59"/><path d="M9046.286-157.1s1.731-.236,2.268,1.058c.3.729-.248-1.828-2.19-1.661C9046.149-157.681,9046.286-157.1,9046.286-157.1Z" transform="translate(-9028.094 169.042)" fill="#75432a"/><ellipse cx="0.405" cy="0.54" rx="0.405" ry="0.54" transform="translate(14.868 13.389)" fill="#75432a"/><ellipse cx="0.405" cy="0.54" rx="0.405" ry="0.54" transform="translate(18.915 13.659)" fill="#75432a"/></g></g></g><g transform="translate(9276.086 -166.05)"><g clip-path="url(#b)"><g transform="translate(-19.797 -17.659)"><rect width="162.129" height="156.016" fill="#729268"/><g transform="translate(35.766 32.665)"><path d="M9090.863-166.96a9.488,9.488,0,0,1-5.067-8.063c-.464-6.061,2.967-8.947,5.412-10.134-.362-.122-.937-7.183,9.1-7.257,5.577-.663,6.7,7.143,8.981,9.445,1.966,1.992,12.677,17.958,5.412,26.26-6.424,4.369-12.869,3.53-14.74.574S9090.863-166.96,9090.863-166.96Z" transform="translate(-9065.257 192.454)" fill="#75432a"/><path d="M9090.838-172.4a9.487,9.487,0,0,1-5.067-8.06c.813,2.55,2.858,6.2,2.879,4.49-.409-3.37-.322-6.118,1.231-7.314,2.853-2.19.691-2.429,2.338-5.239.72,3.67,4.634,8.3,5.757,9.214,4.8,3.9,7.982,2.674,10.945,9.214,2.891,3.983,5.555.56,6.448-3.11a11.838,11.838,0,0,0-.232-5.184c.5.379,1.58,3.017,2.074,8.637-.187-2.116.637,4.4-2.533,7.6-6.424,4.369-12.87,3.53-14.741.574S9090.838-172.4,9090.838-172.4Z" transform="translate(-9065.233 197.892)" fill="#58311d"/><path d="M9109-163.443c.063.024-.9,5.648.794,6.678,1.985,1.208,5.692,6.74,4.386,11.29s-28.444,3.456-28.444,3.456a17.891,17.891,0,0,1,.345-8.408c1.31-3.956,4.109-3.847,4.49-5.758a29.537,29.537,0,0,0,.345-6.912Z" transform="translate(-9065.773 232.585)" fill="#75432a"/><path d="M9083.595-157.869s1.356-8.942,5.876-11.976c4.105-2.758,9.032-5.224,14.28-4.607s5.3,3.57,5.3,3.57,1.94-1.134,5.986,0,9.713,3.935,11.864,4.261-5.457,9.445-4.723,10.711c-.718-.5-6.563-1.382-6.563-1.382s.521,9.607-8.409,11.862c-8.784,2.219-13.615-1.1-15.78-4.376a22.047,22.047,0,0,1-2.534-4.607S9086.052-153.653,9083.595-157.869Z" transform="translate(-9068.242 217.223)" fill="#f87501"/><path d="M9093.889-174.727a5.88,5.88,0,0,0-4.61,3.225c-1.705,3.127-3.062,11-1.036,10.711,2.205-.312,5.164-4.037,6.221-4.261,1.131-.236,4.741,6.795,6.8,5.875,2.027-.91,4.02-4.864,4.374-7.946s-.47-7.484-4.723-7.717A43.192,43.192,0,0,0,9093.889-174.727Z" transform="translate(-9063.215 216.69)" fill="#75432a"/><path d="M9094.516-169.556s-3.895,1.142-5.3-.229C9088.3-170.686,9090.748-166.994,9094.516-169.556Z" transform="translate(-9060.736 223.612)" fill="#75432a"/><path d="M9097.527-169.1s1,5.305-.462,8.637S9098.025-162.308,9097.527-169.1Z" transform="translate(-9050.271 224.765)" fill="#75432a"/><path d="M9099.037-168.661l-1.959,1.382v.689S9099.043-168.094,9099.037-168.661Z" transform="translate(-9049.593 225.367)" fill="#75432a"/><path d="M9103.238-171.367s-5.21,3.044-4.031,10.134c.1.6-1.521-4.073.575-7.026C9101.719-170.983,9103.238-171.367,9103.238-171.367Z" transform="translate(-9047.346 221.623)" fill="#75432a"/><path d="M9086.146-170.014s-.643,7.3.458,9.9S9084.094-163.689,9086.146-170.014Z" transform="translate(-9065.609 223.495)" fill="#75432a"/><path d="M9085.152-169.676s.311,2.045.923,1.842.113.806.113.806A2.761,2.761,0,0,1,9085.152-169.676Z" transform="translate(-9066.115 223.963)" fill="#75432a"/><path d="M9083.838-168.13s2.908,2.8,4.146,2.3S9086.13-164.262,9083.838-168.13Z" transform="translate(-9067.908 226.101)" fill="#75432a"/><path d="M9090.778-186.831s-3.713,1.163-3.453,7.372c.271,6.478-.729,12.5,6.217,14.51.792.674-.706,11.142-1.381,13.592s4.317,2.853,6.221,1.151,4.416-3.582,4.146-5.067-.451-12.064.23-13.821,1.417-2.207,1.38-3.225a.914.914,0,0,0,1.615-.229c-.416-.732-2.536-3.57-2.536-3.57a17.679,17.679,0,0,1-9.788-6.566C9091.224-185.623,9091.03-185.947,9090.778-186.831Z" transform="translate(-9063.104 200.232)" fill="#ecc298"/><path d="M9104.592-151.321s-5.852,2.705-4.833,10.942c3.888,1.354,12.771,1.928,19-2.65,6.134-4.507,15.146-18.287,16.355-20.73a24.709,24.709,0,0,0,2.3-5.758,11.553,11.553,0,0,1,.919-2.879s.606-2.135.807-2.648c.813-2.093,2.61-2.81,3.454-3.8.634-.748.569-2.934-1.152-1.037a25.915,25.915,0,0,0-2.189,1.614,4.536,4.536,0,0,0-1.61,1.957c-1.171-.391,1.939-2.877,3.917-4.607,1.058-.927,2.177-5.477-.46-3.11-.764.684-3.092,2.827-3.687,3.456-1.936,2.042-1.7,2.886-2.419,2.419-.572-.143.387-1.018,3.34-4.838.75-1.216.7-3.032-.462-2.648-.756.25-1.014,1.444-2.878,2.993a19.281,19.281,0,0,0-2.764,3.11,13.154,13.154,0,0,0-1.266,3c-.623.982,1.131-3.828-1.5-3.573-.416,1.247-.4,2.536-2.189,4.493-1.089,1.683-.6,4.054.228,5.875a2.97,2.97,0,0,1-.341,1.611,58.516,58.516,0,0,1-7.373,6.681c-2.895,1.964-9,6.392-9.9,10.365C9108.75-150.732,9104.592-151.321,9104.592-151.321Z" transform="translate(-9046.052 201.806)" fill="#ecc298"/><path d="M9092.015-159.442c-.157.217,2.419,3,5.2,3.592a21.474,21.474,0,0,0,1.247,2.617c-.61,4.5-2.477,12.427-7.026,12.677-5.854.327-11.281-15.094-11.979-25.8-2.216-1.563-1.843-7.14-1.843-7.14l6.1.229,4.725,2.533s-.536,2.538-1.614,3.456c-.8.679.307,3.155.574,3.685,4.237,8.163,3.658,8.125,3.685,7.486C9091.507-157.807,9092.015-159.442,9092.015-159.442Z" transform="translate(-9076.544 218.681)" fill="#ecc298"/><path d="M9090.967-184.462v.922s-2-.8-2.3.46S9088.224-184.555,9090.967-184.462Z" transform="translate(-9061.449 203.506)" fill="#3c3427"/><path d="M9090.362-184.386l.228.92s.506.064.923.114c0-.2-.562-.348-.923-1.151C9090.419-184.534,9090.473-184.527,9090.362-184.386Z" transform="translate(-9058.883 203.431)" fill="#3c3427"/><path d="M9088.188-159.519s8.748,3.4,16.125-.92C9107.17-162.181,9098.424-154.485,9088.188-159.519Z" transform="translate(-9061.893 236.378)" fill="#3c3427"/><ellipse cx="0.617" cy="0.823" rx="0.617" ry="0.823" transform="translate(27.876 21.183)" fill="#3c3427"/><ellipse cx="0.617" cy="0.823" rx="0.617" ry="0.823" transform="translate(33.227 21.183)" fill="#3c3427"/><path d="M9090.9-183.255s.377,2.1-.8,2.765.53.234.919.346c.354.1-1.923.732-1.957.114S9090.463-180.085,9090.9-183.255Z" transform="translate(-9060.688 205.178)" fill="#c37e57"/><path d="M9089.009-180.059s3.521.5,4.952-1.842c.184-.026.229.231.229.231A4.164,4.164,0,0,1,9089.009-180.059Z" transform="translate(-9060.758 207.049)" fill="#c37e57"/><path d="M9091.142-182.144l-.347.346s1.455.677,1.5,1.037S9092.009-181.748,9091.142-182.144Z" transform="translate(-9058.282 206.715)" fill="#c37e57"/><path d="M9089.975-175.445s4.866,1.826,8.869-3.8c-.186,2.467-.341,11.209-.231,11.4s-6.628-7.148-8.519-5.413A21.3,21.3,0,0,0,9089.975-175.445Z" transform="translate(-9059.42 210.727)" fill="#c37e57"/><path d="M9105.46-172.237s-1.722,4.76-1.036,5.758-1.086-2.252-.691-2.879S9104.229-171.238,9105.46-172.237Z" transform="translate(-9040.467 220.42)" fill="#c37e57"/><path d="M9084.141-173.3s-.489,2.138-1.152,2.417-2.4.064-3.226,1.959.057-1.7,1.959-2.073S9083.076-171.222,9084.141-173.3Z" transform="translate(-9073.97 218.95)" fill="#c37e57"/><path d="M9078.377-170.5a6.634,6.634,0,0,0,2.189.46C9080.951-170.212,9079.064-169.192,9078.377-170.5Z" transform="translate(-9075.463 222.826)" fill="#b57551"/><path d="M9082.7-170.739s-1.29,1.084-2.073.92.229.231.229.231S9081.521-169.488,9082.7-170.739Z" transform="translate(-9072.76 222.492)" fill="#b57551"/><path d="M9083.209-166.149a7.579,7.579,0,0,1,2.3,5.761C9085.294-158.148,9085.656-162.9,9083.209-166.149Z" transform="translate(-9068.776 228.842)" fill="#b57551"/><path d="M9112.89-183.062s.869,2.622.231,3.916c-.31.627,1.371,2.469.92,3.687s-.261,1.106-.46-.574-1.159-2.615-.921-3.341A9.794,9.794,0,0,0,9112.89-183.062Z" transform="translate(-9028.088 205.445)" fill="#b57551"/><path d="M9111.332-178.906s2.417,1.947,2.65,1.728a3.133,3.133,0,0,1-2.188-.806A6.034,6.034,0,0,1,9111.332-178.906Z" transform="translate(-9029.871 211.195)" fill="#b57551"/><path d="M9114.273-182.736s4.213,2.51,4.6,3.225c-.58-.386-3.431-2.309-4.376-2.879C9113.951-182.719,9113.336-183.1,9114.273-182.736Z" transform="translate(-9026.476 205.694)" fill="#b57551"/><g transform="translate(0 41.965)"><path d="M9081.334-173.812a1.485,1.485,0,0,0-2.65-.229c-1.533,1.709-1.4,2.069-1.5,2.993-.1.989-.051,2.221,1.613,1.382.139,1.068-.258,2.381,2.072,1.728,1.295-.765,1.154-1.268,1.154-1.268a3.571,3.571,0,0,0,3.223-1.611c.814.41,3.686,2.3,3.686,2.3s1.008-2.3,1.5-3.453c-2.127-1.561-2.836.951-3.109.806-.178-.1-.131-3.677-3.223-3.685a2.925,2.925,0,0,0-1.615,1.151A1.132,1.132,0,0,0,9081.334-173.812Z" transform="translate(-9077.15 174.846)" fill="#ecc298"/><path d="M9083.646-172.4s-2.748,3.987-4.145,2.765-.045-4.03.689-4.724-2.107,2.943-.574,4.378C9080.656-169.014,9083.256-171.793,9083.646-172.4Z" transform="translate(-9074.743 175.396)" fill="#c37e57"/><path d="M9081.821-173.3a7.128,7.128,0,0,0-.459,1.266.472.472,0,0,1-.23,0A3.345,3.345,0,0,1,9081.821-173.3Z" transform="translate(-9071.649 176.985)" fill="#c37e57"/><path d="M9080.293-174.363s-2.395,2.109-2.3,4.03c.089,1.847.962,2.135,1.959,1.5,1.492-.958.92-1.151.92-1.151l.347.114s-.958,1.571-1.843,1.614c-.741.038-1.788-.145-1.5-2.419A5.591,5.591,0,0,1,9080.293-174.363Z" transform="translate(-9076.227 175.514)" fill="#c37e57"/><path d="M9077.188-172.962s.432,1.2,1.5.689c.735-.35-.714.925-1.383-.114A.557.557,0,0,1,9077.188-172.962Z" transform="translate(-9077.153 177.452)" fill="#c37e57"/></g></g></g></g><path d="M9104.592-151.321s-5.852,2.705-4.833,10.942c3.888,1.354,12.771,1.928,19-2.65,6.134-4.507,15.146-18.287,16.355-20.73a24.709,24.709,0,0,0,2.3-5.758,11.553,11.553,0,0,1,.919-2.879s.606-2.135.807-2.648c.813-2.093,2.61-2.81,3.454-3.8.634-.748.569-2.934-1.152-1.037a25.915,25.915,0,0,0-2.189,1.614,4.536,4.536,0,0,0-1.61,1.957c-1.171-.391,1.939-2.877,3.917-4.607,1.058-.927,2.177-5.477-.46-3.11-.764.684-3.092,2.827-3.687,3.456-1.936,2.042-1.7,2.886-2.419,2.419-.572-.143.387-1.018,3.34-4.838.75-1.216.7-3.032-.462-2.648-.756.25-1.014,1.444-2.878,2.993a19.281,19.281,0,0,0-2.764,3.11,13.154,13.154,0,0,0-1.266,3c-.623.982,1.131-3.828-1.5-3.573-.416,1.247-.4,2.536-2.189,4.493-1.089,1.683-.6,4.054.228,5.875a2.97,2.97,0,0,1-.341,1.611,58.516,58.516,0,0,1-7.373,6.681c-2.895,1.964-9,6.392-9.9,10.365C9108.75-150.732,9104.592-151.321,9104.592-151.321Z" transform="translate(-9030.083 216.813)" fill="#ecc298"/><path d="M9112.89-183.062s.869,2.622.231,3.916c-.31.627,1.371,2.469.92,3.687s-.261,1.106-.46-.574-1.159-2.615-.921-3.341A9.794,9.794,0,0,0,9112.89-183.062Z" transform="translate(-9012.12 220.452)" fill="#b57551"/><path d="M9111.332-178.906s2.417,1.947,2.65,1.728a3.133,3.133,0,0,1-2.188-.806A6.034,6.034,0,0,1,9111.332-178.906Z" transform="translate(-9013.901 226.201)" fill="#b57551"/><path d="M9114.273-182.736s4.213,2.51,4.6,3.225c-.58-.386-3.431-2.309-4.376-2.879C9113.951-182.719,9113.336-183.1,9114.273-182.736Z" transform="translate(-9010.507 220.701)" fill="#b57551"/></g></g></g></svg>