<svg xmlns="http://www.w3.org/2000/svg" xmlns:xlink="http://www.w3.org/1999/xlink" width="90" height="17.929" viewBox="0 0 90 17.929"><defs><clipPath id="a"><rect width="90" height="17.929" fill="none"/></clipPath><clipPath id="b"><path d="M21.358,17.193h2.328V7.105H21.358Zm19.032,0h2.33V7.105h-2.33ZM63.1,7.105v5.789q0,2.506-1.977,2.506c-1.315,0-1.977-.836-1.977-2.506V7.105H56.811v5.847a5.667,5.667,0,0,0,.3,2.094,3.592,3.592,0,0,0,1.02,1.412,4.915,4.915,0,0,0,6,0,3.542,3.542,0,0,0,1-1.418,6.5,6.5,0,0,0,.3-2.094V7.1Zm12.513,0-2.287,2.941-2.25-2.941H68.3l3.63,4.626L67.44,17.193h2.852l3.032-3.773,2.96,3.773h2.774l-4.316-5.462,3.729-4.626ZM30.25,8.037V7.105H27.909V17.193H30.25V12.329a5.265,5.265,0,0,1,.479-2.64,1.8,1.8,0,0,1,1.648-.762,1.657,1.657,0,0,1,1.464.578,3.67,3.67,0,0,1,.42,2.06V17.2H36.6V11.008a4.548,4.548,0,0,0-.845-3.075,3.487,3.487,0,0,0-2.746-1.109,3.821,3.821,0,0,0-2.757,1.213m52.909,1.977a2.292,2.292,0,0,1,.524-.585,2.354,2.354,0,0,1,.674-.372,2.481,2.481,0,0,1,.8-.13,2.237,2.237,0,0,1,2.354,1.867H82.834a2.634,2.634,0,0,1,.334-.78m-1.6-1.733a5.6,5.6,0,0,0-1.325,3.874,5.493,5.493,0,0,0,1.362,3.87,4.764,4.764,0,0,0,3.63,1.449,5.886,5.886,0,0,0,1.46-.167,4.3,4.3,0,0,0,1.252-.52,5.019,5.019,0,0,0,1.083-.914A7.439,7.439,0,0,0,90,14.547h0l-1.966-1.1a5.85,5.85,0,0,1-1.278,1.529,2.339,2.339,0,0,1-1.425.422,2.465,2.465,0,0,1-1.834-.723,3.073,3.073,0,0,1-.81-1.979h7.233v-.546A5.609,5.609,0,0,0,88.629,8.24a5.055,5.055,0,0,0-7.062.043M21.44,1.852a1.45,1.45,0,0,0-.433,1.059,1.516,1.516,0,0,0,1.5,1.531h.015A1.442,1.442,0,0,0,23.606,4a1.484,1.484,0,0,0,.433-1.083,1.445,1.445,0,0,0-.433-1.065A1.5,1.5,0,0,0,22.523,1.4a1.463,1.463,0,0,0-1.083.45m19.036,0a1.462,1.462,0,0,0-.448,1.059,1.481,1.481,0,0,0,.448,1.083,1.464,1.464,0,0,0,1.083.446,1.434,1.434,0,0,0,1.068-.446,1.466,1.466,0,0,0,.446-1.083,1.428,1.428,0,0,0-.446-1.065,1.516,1.516,0,0,0-2.144,0h0m6.908-.65v16h7.114v-2.27h-4.7V1.2ZM14.54,0,8.853,12.429,3.363,0,0,17.193H2.493L4.212,7.53l4.6,10.4,4.736-10.4,1.54,9.654h2.478Z" fill="none"/></clipPath><linearGradient id="c" x1="-0.214" y1="4.602" x2="-0.211" y2="4.602" gradientUnits="objectBoundingBox"><stop offset="0" stop-color="#4c3041"/><stop offset="1" stop-color="#4c3041"/></linearGradient></defs><g transform="translate(0 0)"><g transform="translate(0 0)" clip-path="url(#a)"><g transform="translate(0 0)"><g clip-path="url(#b)"><g transform="translate(0 0)"><rect width="90" height="17.929" fill="url(#c)"/></g></g><g transform="translate(0 0)"><g clip-path="url(#a)"><g opacity="0.2"><g clip-path="url(#a)"><g transform="translate(0 0)"><path d="M21.358,17.193h2.328V7.105H21.358Zm19.032,0h2.33V7.105h-2.33ZM63.1,7.105V12.9q0,2.5-1.977,2.5c-1.315,0-1.977-.836-1.977-2.5V7.105H56.811v5.847a5.667,5.667,0,0,0,.3,2.094,3.592,3.592,0,0,0,1.02,1.412,4.915,4.915,0,0,0,6,0,3.542,3.542,0,0,0,1-1.418,6.5,6.5,0,0,0,.3-2.094V7.1Zm12.513,0-2.287,2.941-2.25-2.941H68.3l3.63,4.626L67.44,17.193h2.85l3.032-3.773,2.96,3.773h2.774l-4.314-5.462,3.729-4.626ZM30.25,8.037V7.105H27.909V17.193H30.25V12.329a5.249,5.249,0,0,1,.479-2.638,1.913,1.913,0,0,1,1.648-.764,1.488,1.488,0,0,1,1.464.578,3.783,3.783,0,0,1,.418,2.062V17.2H36.6V11.008a4.548,4.548,0,0,0-.845-3.075,3.487,3.487,0,0,0-2.746-1.109,3.821,3.821,0,0,0-2.757,1.213m52.909,1.977a2.292,2.292,0,0,1,.524-.585,2.354,2.354,0,0,1,.674-.372,2.481,2.481,0,0,1,.8-.13,2.237,2.237,0,0,1,2.354,1.867H82.834a2.634,2.634,0,0,1,.334-.78m-1.6-1.733a5.61,5.61,0,0,0-1.328,3.874,5.474,5.474,0,0,0,1.364,3.87,4.772,4.772,0,0,0,3.63,1.449,5.886,5.886,0,0,0,1.46-.167,4.3,4.3,0,0,0,1.252-.52,5.071,5.071,0,0,0,1.083-.914A7.439,7.439,0,0,0,90,14.547l-1.966-1.1a5.89,5.89,0,0,1-1.278,1.531,2.352,2.352,0,0,1-1.425.42,2.465,2.465,0,0,1-1.834-.723,3.073,3.073,0,0,1-.81-1.979h7.231v-.546A5.609,5.609,0,0,0,88.627,8.24a5.055,5.055,0,0,0-7.062.043M21.44,1.852a1.45,1.45,0,0,0-.433,1.059,1.516,1.516,0,0,0,1.5,1.531h.015A1.434,1.434,0,0,0,23.606,4a1.478,1.478,0,0,0,.433-1.083,1.438,1.438,0,0,0-.433-1.065A1.486,1.486,0,0,0,22.523,1.4a1.463,1.463,0,0,0-1.083.45m19.036,0a1.462,1.462,0,0,0-.448,1.059,1.481,1.481,0,0,0,.448,1.083,1.464,1.464,0,0,0,1.083.446,1.434,1.434,0,0,0,1.068-.446,1.466,1.466,0,0,0,.446-1.083,1.428,1.428,0,0,0-.446-1.065,1.516,1.516,0,0,0-2.144,0h0m6.908-.65v16h7.114v-2.27h-4.7V1.2ZM8.842,12.424,3.363,0,0,17.193H2.493L4.212,7.53l4.6,10.4L13.55,7.53l1.538,9.652h2.478L14.54,0Z" fill="#ea504b"/></g></g></g></g></g></g></g></g></svg>