<svg xmlns="http://www.w3.org/2000/svg" xmlns:xlink="http://www.w3.org/1999/xlink" width="89.149" height="89.149" viewBox="0 0 89.149 89.149"><defs><linearGradient id="a" x1="1.051" x2="1.942" y2="4.962" gradientUnits="objectBoundingBox"><stop offset="0" stop-color="#34a096"/><stop offset="1" stop-color="#14645d"/></linearGradient><linearGradient id="e" x1="0.5" x2="0.794" y2="0.937" gradientUnits="objectBoundingBox"><stop offset="0" stop-color="#23766e"/><stop offset="1" stop-color="#2e968c"/></linearGradient></defs><g transform="translate(-530 -3083)"><g transform="translate(530 3083)"><path d="M21.331,62.481H61.474a1.114,1.114,0,1,0,0-2.229H21.331a1.114,1.114,0,1,0,0,2.229Z" transform="translate(-8.832 -4.253)" fill="url(#a)"/><path d="M62.589,71.419A1.114,1.114,0,0,0,61.474,70.3H21.331a1.114,1.114,0,1,0,0,2.229H61.474A1.114,1.114,0,0,0,62.589,71.419Z" transform="translate(-8.832 -3.104)" fill="url(#a)"/><path d="M41.078,55.165A17.864,17.864,0,1,0,23.059,37.3,17.963,17.963,0,0,0,41.078,55.165Zm0-33.5A15.636,15.636,0,1,1,25.287,37.3,15.731,15.731,0,0,1,41.078,21.666Z" transform="translate(-8.507 -8.921)" fill="url(#a)"/><path d="M98.035,17.127H75.142V11.114A1.114,1.114,0,0,0,74.028,10H11.114A1.114,1.114,0,0,0,10,11.114V90.907a1.114,1.114,0,0,0,1.114,1.114H34.007v6.013a1.114,1.114,0,0,0,1.114,1.114H98.035a1.114,1.114,0,0,0,1.114-1.114V18.242A1.114,1.114,0,0,0,98.035,17.127Zm-85.806-4.9H72.913V89.793H12.229ZM96.92,96.92H36.235v-4.9H74.028a1.114,1.114,0,0,0,1.114-1.114V19.356H96.92Z" transform="translate(-10 -10)" fill="url(#a)"/></g><path d="M37.54,31.742V25.789c2.176.277,2.48,1.513,2.51,1.681a.911.911,0,1,0,1.807-.243c-.017-.121-.419-2.9-4.317-3.273V22.48a.911.911,0,1,0-1.822,0v1.5a5.064,5.064,0,0,0-3.131,1.431A4.147,4.147,0,0,0,31.51,28.6c.159,2.562,2.215,3.746,4.2,4.459v5.9a3.139,3.139,0,0,1-2.933-2.622.911.911,0,1,0-1.8.276c.21,1.368,1.115,3.636,4.738,4.2V42.72a.911.911,0,0,0,1.822,0V40.9a4.522,4.522,0,0,0,4.5-3.566C42.615,33.452,39.971,32.508,37.54,31.742Zm-4.2-3.254a2.341,2.341,0,0,1,.583-1.822,3.138,3.138,0,0,1,1.8-.85V31.1C33.756,30.253,33.388,29.351,33.335,28.488Zm6.906,8.573a2.718,2.718,0,0,1-2.7,2.008v-5.41C39.642,34.364,40.55,34.953,40.241,37.061Z" transform="translate(526.013 3078.886)" fill="url(#e)"/></g></svg>