<svg xmlns="http://www.w3.org/2000/svg" xmlns:xlink="http://www.w3.org/1999/xlink" width="135.027" height="105.066" viewBox="0 0 135.027 105.066">
  <defs>
    <linearGradient id="linear-gradient" y1="0.5" x2="1" y2="0.5" gradientUnits="objectBoundingBox">
      <stop offset="0" stop-color="#9b4a69"/>
      <stop offset="1" stop-color="#f288af"/>
    </linearGradient>
  </defs>
  <g id="customized-experience" transform="translate(-2576.08 -811.039)">
    <path id="Path_62004" data-name="Path 62004" d="M2709.085,838.18H2599.3a2,2,0,0,1-2-2,2.053,2.053,0,0,1,2-2.061h109.786a2,2,0,0,1,2,2v.061A2,2,0,0,1,2709.085,838.18Z" fill="url(#linear-gradient)"/>
    <path id="Path_62005" data-name="Path 62005" d="M2702.6,916.1H2584.56a8.492,8.492,0,0,1-8.48-8.485V836.18a2,2,0,0,1,2-2h131a2,2,0,0,1,2,2v71.44A8.495,8.495,0,0,1,2702.6,916.1ZM2580.08,838.18v69.44a4.488,4.488,0,0,0,4.48,4.485H2702.6a4.49,4.49,0,0,0,4.484-4.485V838.18Z" fill="url(#linear-gradient)"/>
    <path id="Path_62006" data-name="Path 62006" d="M2709.085,838.18h-131a2,2,0,0,1-2-2,2.054,2.054,0,0,1,2-2.061h131a2,2,0,0,1,2,2v.061A2,2,0,0,1,2709.085,838.18Z" fill="url(#linear-gradient)"/>
    <path id="Path_62007" data-name="Path 62007" d="M2709.107,838.18a2.03,2.03,0,0,1-.5-.061H2578.08a2,2,0,0,1-2-2V818.333a7.3,7.3,0,0,1,7.273-7.294h120.466a7.333,7.333,0,0,1,7.288,7.287V836.18A2,2,0,0,1,2709.107,838.18Zm-129.027-4.061h127.027V818.336a3.32,3.32,0,0,0-3.3-3.3H2583.356a3.3,3.3,0,0,0-3.276,3.294Z" fill="url(#linear-gradient)"/>
    <path id="Path_62008" data-name="Path 62008" d="M2709.085,838.18h-131a2,2,0,0,1-2-2,2.054,2.054,0,0,1,2-2.061h131a2,2,0,0,1,2,2v.061A2,2,0,0,1,2709.085,838.18Z" fill="url(#linear-gradient)"/>
    <path id="Path_62009" data-name="Path 62009" d="M2664.868,831.16a6.58,6.58,0,1,1,6.58-6.58A6.588,6.588,0,0,1,2664.868,831.16Zm0-9.161a2.58,2.58,0,1,0,2.58,2.581A2.583,2.583,0,0,0,2664.868,822Z" fill="url(#linear-gradient)"/>
    <path id="Path_62010" data-name="Path 62010" d="M2679.324,831.16a6.58,6.58,0,1,1,6.58-6.58A6.588,6.588,0,0,1,2679.324,831.16Zm0-9.161a2.58,2.58,0,1,0,2.58,2.581A2.583,2.583,0,0,0,2679.324,822Z" fill="url(#linear-gradient)"/>
    <path id="Path_62011" data-name="Path 62011" d="M2693.779,831.16a6.58,6.58,0,1,1,6.58-6.58A6.588,6.588,0,0,1,2693.779,831.16Zm0-9.161a2.58,2.58,0,1,0,2.58,2.581A2.583,2.583,0,0,0,2693.779,822Z" fill="url(#linear-gradient)"/>
    <path id="Path_62012" data-name="Path 62012" d="M2602.631,874.955a16.99,16.99,0,1,1,16.99-16.991A17.01,17.01,0,0,1,2602.631,874.955Zm0-29.98a12.99,12.99,0,1,0,12.99,12.989A13,13,0,0,0,2602.631,844.975Z" fill="url(#linear-gradient)"/>
    <path id="Path_62013" data-name="Path 62013" d="M2617.637,906.068h-29.995a2,2,0,0,1-2-2v-24.94a2,2,0,0,1,2-2h29.995a2,2,0,0,1,2,2v24.94A2,2,0,0,1,2617.637,906.068Zm-27.995-4h25.995v-20.94h-25.995Z" fill="url(#linear-gradient)"/>
    <path id="Path_62014" data-name="Path 62014" d="M2674.759,906.068h-46.177a2,2,0,0,1-2-2v-24.94a2,2,0,0,1,2-2h46.177a2,2,0,0,1,2,2v24.94A2,2,0,0,1,2674.759,906.068Zm-44.177-4h42.177v-20.94h-42.177Z" fill="url(#linear-gradient)"/>
    <path id="Path_62015" data-name="Path 62015" d="M2699.847,906.068h-14.99a2,2,0,0,1-2-2v-24.94a2,2,0,0,1,2-2h14.99a2,2,0,0,1,2,2v24.94A2,2,0,0,1,2699.847,906.068Zm-12.99-4h10.99v-20.94h-10.99Z" fill="url(#linear-gradient)"/>
    <path id="Path_62016" data-name="Path 62016" d="M2700.22,871.506h-71.682a2,2,0,0,1-2-2V842.975a2,2,0,0,1,2-2h71.682a2,2,0,0,1,2,2v26.531A2,2,0,0,1,2700.22,871.506Zm-69.682-4h67.682V844.975h-67.682Z" fill="url(#linear-gradient)"/>
  </g>
</svg>
