<svg xmlns="http://www.w3.org/2000/svg" xmlns:xlink="http://www.w3.org/1999/xlink" width="88.419" height="86.321" viewBox="0 0 88.419 86.321"><defs><linearGradient id="a" x1="0.292" y1="1.692" x2="-0.496" y2="1.498" gradientUnits="objectBoundingBox"><stop offset="0" stop-color="#d8805a"/><stop offset="1" stop-color="#7b4129"/></linearGradient></defs><g transform="translate(-6 -12)"><g transform="translate(6 12)"><path d="M176.9,65.59h.012A9.295,9.295,0,0,0,176.9,47h0a9.295,9.295,0,0,0,0,18.59Zm-4.788-14.111a6.741,6.741,0,0,1,4.792-2h0a6.816,6.816,0,1,1,0,13.632H176.9a6.825,6.825,0,0,1-4.788-11.632Z" transform="translate(-138.996 -40.803)" fill="url(#a)"/><path d="M305.74,30.59h.128a9.068,9.068,0,0,0,6.481-2.748A9.333,9.333,0,0,0,305.74,12h0a9.3,9.3,0,0,0,0,18.59Zm0-16.111h0a6.811,6.811,0,0,1,6.769,6.817,6.73,6.73,0,0,1-1.932,4.788,6.642,6.642,0,0,1-4.734,2.027h-.11a6.816,6.816,0,1,1,0-13.632Z" transform="translate(-245.063 -12)" fill="url(#a)"/><path d="M48.524,30.59h0a9.361,9.361,0,0,0,9.288-9.243v-.031A9.353,9.353,0,0,0,48.524,12h0a9.3,9.3,0,0,0,0,18.59Zm0-16.111h0a6.816,6.816,0,0,1,0,13.632h0a6.816,6.816,0,1,1,0-13.632Z" transform="translate(-33.385 -12)" fill="url(#a)"/><path d="M81.775,150.139V143.06A12.985,12.985,0,0,0,68.829,130H64.742a13.237,13.237,0,0,0-12.122,8.048,12.932,12.932,0,0,0-6.645-1.851H41.867a12.964,12.964,0,0,0-6.635,1.834A13.138,13.138,0,0,0,23.168,130H19.1A13.107,13.107,0,0,0,6,143.019v12.806a1.325,1.325,0,0,0,1.313,1.264H28.839v4.976a1.226,1.226,0,0,0,1.243,1.22H47.607a24.1,24.1,0,1,0,34.168-13.146Zm-17.034-17.66h4.085A10.506,10.506,0,0,1,79.3,143.057v5.91a23.446,23.446,0,0,0-9.008-1.75,23.86,23.86,0,0,0-11.352,2.849V149.3a12.944,12.944,0,0,0-3.777-9.217c-.162-.163-.317-.326-.487-.479a10.788,10.788,0,0,1,10.069-7.125ZM8.479,154.609V143.02A10.627,10.627,0,0,1,19.1,132.479h4.064a10.67,10.67,0,0,1,10,7.1c-.167.15-.333.308-.493.467a12.926,12.926,0,0,0-3.833,9.21v5.35Zm22.839,6.2V149.261A10.6,10.6,0,0,1,41.87,138.675h4.1A10.435,10.435,0,0,1,53.4,141.8a10.543,10.543,0,0,1,3.054,7.493v2.3a23.8,23.8,0,0,0-7.815,9.21Zm39.023,32.149a21.63,21.63,0,1,1,21.63-21.63A21.63,21.63,0,0,1,70.341,192.955Z" transform="translate(-6 -109.109)" fill="url(#a)"/><path d="M322.652,289.033v-2.561a7.968,7.968,0,1,0-15.934,0v2.561A4.816,4.816,0,0,0,303,293.675V303.9a4.838,4.838,0,0,0,4.779,4.843h13.812a4.838,4.838,0,0,0,4.779-4.843V293.676A4.816,4.816,0,0,0,322.652,289.033Zm-7.967-8.2a5.545,5.545,0,0,1,5.488,5.641v2.441H309.2v-2.441A5.545,5.545,0,0,1,314.685,280.832Zm9.206,23.13a2.3,2.3,0,0,1-2.3,2.3H307.78a2.3,2.3,0,0,1-2.3-2.3V293.693a2.3,2.3,0,0,1,2.3-2.3h13.81a2.3,2.3,0,0,1,2.3,2.3Z" transform="translate(-250.418 -231.196)" fill="url(#a)"/><path d="M355.35,378.05a2.89,2.89,0,0,0-1.379,5.43v1.643a1.239,1.239,0,1,0,2.479,0v-1.511a2.89,2.89,0,0,0-1.1-5.562Zm0,2.479a.411.411,0,0,1,.227.755,1.243,1.243,0,0,0-.367-.055,1.219,1.219,0,0,0-.145.009.411.411,0,0,1,.284-.708Z" transform="translate(-291.12 -313.243)" fill="url(#a)"/></g></g></svg>