<svg xmlns="http://www.w3.org/2000/svg" xmlns:xlink="http://www.w3.org/1999/xlink" width="82" height="86.661" viewBox="0 0 82 86.661"><defs><linearGradient id="a" x1="1.981" y1="8.88" x2="-0.754" y2="9" gradientUnits="objectBoundingBox"><stop offset="0" stop-color="#69c373"/><stop offset="1" stop-color="#205026"/></linearGradient></defs><g transform="translate(-3.721 -2)"><g transform="translate(3.721 2)"><path d="M14.208,5.095a4.554,4.554,0,1,0,4.553,4.553A4.558,4.558,0,0,0,14.208,5.095Zm0,6.4a1.846,1.846,0,1,1,1.845-1.846A1.848,1.848,0,0,1,14.208,11.494Z" transform="translate(-1.62 -0.904)" fill="url(#a)"/><path d="M3.721,81.742a6.926,6.926,0,0,0,6.918,6.918H78.8a6.926,6.926,0,0,0,6.918-6.918V8.918A6.926,6.926,0,0,0,78.8,2H10.639A6.926,6.926,0,0,0,3.721,8.918Zm79.292,0a4.215,4.215,0,0,1-4.21,4.21H10.639a4.215,4.215,0,0,1-4.21-4.21V19.489H83.013ZM6.429,8.918a4.215,4.215,0,0,1,4.21-4.21H78.8a4.215,4.215,0,0,1,4.21,4.21V16.78H6.429Z" transform="translate(-3.721 -2)" fill="url(#a)"/><path d="M23.207,5.095A4.554,4.554,0,1,0,27.76,9.648,4.558,4.558,0,0,0,23.207,5.095Zm0,6.4a1.846,1.846,0,1,1,1.845-1.846A1.848,1.848,0,0,1,23.207,11.494Z" transform="translate(1.566 -0.904)" fill="url(#a)"/><path d="M32.2,5.095a4.554,4.554,0,1,0,4.553,4.553A4.558,4.558,0,0,0,32.2,5.095Zm0,6.4A1.846,1.846,0,1,1,34.05,9.648,1.848,1.848,0,0,1,32.2,11.494Z" transform="translate(4.752 -0.904)" fill="url(#a)"/><path d="M64.565,7.458H38.308a1.354,1.354,0,0,0,0,2.708H64.565a1.354,1.354,0,1,0,0-2.708Z" transform="translate(8.046 -0.068)" fill="url(#a)"/><path d="M39.471,60.83A20.9,20.9,0,0,0,60.345,39.956c0-.153-.009-.3-.02-.455l-.013-.215h0A20.853,20.853,0,1,0,39.471,60.83Zm0-2.708a18,18,0,0,1-12.181-4.7L40.032,40.684h17.59A18.187,18.187,0,0,1,39.471,58.122ZM57.509,37.975H40.825V21.819A18.065,18.065,0,0,1,57.509,37.975ZM38.117,21.82V38.768l-12.7,12.7a18.158,18.158,0,0,1,12.7-29.645Z" transform="translate(1.539 4.041)" fill="url(#a)"/><path d="M18.224,55.082H61.907a1.354,1.354,0,1,0,0-2.708H18.224a1.354,1.354,0,0,0,0,2.708Z" transform="translate(0.935 15.836)" fill="url(#a)"/><path d="M18.224,60.561H61.907a1.354,1.354,0,1,0,0-2.708H18.224a1.354,1.354,0,1,0,0,2.708Z" transform="translate(0.935 17.776)" fill="url(#a)"/></g></g></svg>