<svg xmlns="http://www.w3.org/2000/svg" xmlns:xlink="http://www.w3.org/1999/xlink" width="159.947" height="110.4" viewBox="0 0 159.947 110.4"><defs><linearGradient id="a" x1="1.051" y1="-0.378" x2="0.036" y2="1.19" gradientUnits="objectBoundingBox"><stop offset="0" stop-color="#33a096"/><stop offset="1" stop-color="#16655e"/></linearGradient><linearGradient id="b" x1="0.876" y1="-1.267" x2="-0.138" y2="3.689" xlink:href="#a"/><linearGradient id="c" x1="3.81" y1="-2.582" x2="-8.021" y2="8.432" xlink:href="#a"/><linearGradient id="d" x1="3.133" y1="-1.951" x2="-8.699" y2="9.063" xlink:href="#a"/><linearGradient id="e" x1="2.454" y1="-1.319" x2="-9.377" y2="9.695" xlink:href="#a"/><linearGradient id="f" x1="3.223" y1="-2.035" x2="-0.968" y2="1.867" xlink:href="#a"/><linearGradient id="g" x1="2.891" y1="-2.155" x2="0.163" y2="0.874" xlink:href="#a"/><linearGradient id="h" x1="2.263" y1="-1.141" x2="-0.527" y2="1.456" xlink:href="#a"/><linearGradient id="i" x1="1.404" y1="-2.238" x2="-1.416" y2="6.305" xlink:href="#a"/><linearGradient id="j" x1="0.91" y1="-0.941" x2="-0.334" y2="3.428" xlink:href="#a"/><linearGradient id="k" x1="38.279" y1="-5.147" x2="-21.428" y2="3.778" xlink:href="#a"/><linearGradient id="l" x1="6.573" y1="-34.671" x2="-3.024" y2="20.911" xlink:href="#a"/><linearGradient id="m" x1="20.243" y1="-2.454" x2="-39.464" y2="6.479" xlink:href="#a"/><linearGradient id="n" x1="3.67" y1="-17.881" x2="-5.917" y2="37.701" xlink:href="#a"/><linearGradient id="o" x1="52.835" y1="-7.322" x2="-6.873" y2="1.602" xlink:href="#a"/><linearGradient id="p" x1="8.911" y1="-48.218" x2="-0.685" y2="7.365" xlink:href="#a"/></defs><g transform="translate(-2828.26 -558.661)"><g transform="translate(2839.797 579.767)"><path d="M2958.841,660.722h-24.287V634.338h-40.181v26.384h-18.74V634.338h-31.722V587.293h121.9v8.343h-73.656v22.207h73.656v14.805h-10.6a4.666,4.666,0,0,0,0,9.332h10.6v11.773A6.976,6.976,0,0,1,2958.841,660.722Zm-22.215-2.071h22.215a4.9,4.9,0,0,0,4.9-4.9v-9.7h-8.53a6.738,6.738,0,0,1,0-13.475h8.53V619.915h-73.656v-26.35h73.656v-4.2H2845.982v42.9H2877.7V658.65h14.6V632.267h44.324Z" transform="translate(-2843.911 -587.293)" fill="url(#a)"/></g><g transform="translate(2839.798 558.661)"><path d="M2965.881,581.893H2843.912V564.528a5.874,5.874,0,0,1,5.867-5.867h110.238a5.866,5.866,0,0,1,5.863,5.8v17.43Zm-119.9-2.071H2963.81v-15.3a3.8,3.8,0,0,0-3.8-3.785H2849.779a3.8,3.8,0,0,0-3.8,3.8Z" transform="translate(-2843.912 -558.661)" fill="url(#b)"/></g><g transform="translate(2915.022 565.016)"><path d="M2951.184,577.734a5.226,5.226,0,1,1,5.226-5.226A5.232,5.232,0,0,1,2951.184,577.734Zm0-8.381a3.155,3.155,0,1,0,3.155,3.155A3.159,3.159,0,0,0,2951.184,569.353Z" transform="translate(-2945.957 -567.282)" fill="url(#c)"/></g><g transform="translate(2928.248 565.016)"><path d="M2969.125,577.734a5.226,5.226,0,1,1,5.226-5.226A5.232,5.232,0,0,1,2969.125,577.734Zm0-8.381a3.155,3.155,0,1,0,3.154,3.155A3.159,3.159,0,0,0,2969.125,569.353Z" transform="translate(-2963.899 -567.282)" fill="url(#d)"/></g><g transform="translate(2941.488 565.016)"><path d="M2987.086,577.734a5.226,5.226,0,1,1,5.227-5.226A5.232,5.232,0,0,1,2987.086,577.734Zm0-8.381a3.155,3.155,0,1,0,3.155,3.155A3.159,3.159,0,0,0,2987.086,569.353Z" transform="translate(-2981.86 -567.282)" fill="url(#e)"/></g><g transform="translate(2848.548 586.04)"><path d="M2870.533,625.3a14.751,14.751,0,1,1,14.752-14.751A14.768,14.768,0,0,1,2870.533,625.3Zm0-27.431a12.68,12.68,0,1,0,12.681,12.68A12.694,12.694,0,0,0,2870.533,597.873Z" transform="translate(-2855.782 -595.802)" fill="url(#f)"/></g><g transform="translate(2828.26 624.742)"><path d="M2873.591,686.31H2828.26V648.3h45.331Zm-43.26-2.071h41.188V650.374h-41.188Z" transform="translate(-2828.26 -648.303)" fill="url(#g)"/></g><g transform="translate(2888.188 624.742)"><path d="M2953.88,692.623h-44.324V648.3h44.324Zm-42.252-2.071h40.181V650.374h-40.181Z" transform="translate(-2909.556 -648.303)" fill="url(#h)"/></g><g transform="translate(2944.359 623.051)"><path d="M3022.863,659.485H2992.49a6.738,6.738,0,0,1,0-13.475h30.373a6.738,6.738,0,1,1,0,13.475Zm-30.373-11.4a4.666,4.666,0,0,0,0,9.332h30.373a4.666,4.666,0,1,0,0-9.332Z" transform="translate(-2985.755 -646.01)" fill="url(#i)"/></g><g transform="translate(2885.968 586.039)"><path d="M3005.994,622.151h-99.45V595.8h99.45Zm-97.379-2.071h95.308V597.872h-95.308Z" transform="translate(-2906.544 -595.801)" fill="url(#j)"/></g><g transform="translate(2909.321 640.688)"><rect width="2.071" height="12.9" fill="url(#k)"/></g><g transform="translate(2903.906 646.104)"><rect width="12.887" height="2.071" fill="url(#l)"/></g><g transform="translate(2934.658 593.008)"><rect width="2.071" height="12.887" fill="url(#m)"/></g><g transform="translate(2929.242 598.422)"><rect width="12.9" height="2.071" transform="translate(0 0)" fill="url(#n)"/></g><g transform="translate(2849.882 637.287)"><rect width="2.071" height="12.9" transform="translate(0 0)" fill="url(#o)"/></g><g transform="translate(2844.481 642.702)"><rect width="12.887" height="2.071" fill="url(#p)"/></g></g></svg>