<svg xmlns="http://www.w3.org/2000/svg" xmlns:xlink="http://www.w3.org/1999/xlink" width="127.535" height="142.435" viewBox="0 0 127.535 142.435"><defs><linearGradient id="a" x1="2.263" y1="-3.747" x2="-0.125" y2="1.64" gradientUnits="objectBoundingBox"><stop offset="0" stop-color="#d8805a"/><stop offset="1" stop-color="#7b4129"/></linearGradient><linearGradient id="b" x1="1.255" y1="-0.242" x2="-2.923" y2="4.572" xlink:href="#a"/><linearGradient id="c" x1="0.941" y1="0.05" x2="0.186" y2="1.2" xlink:href="#a"/><linearGradient id="d" x1="1.908" y1="-1.338" x2="-1.477" y2="2.897" xlink:href="#a"/><linearGradient id="e" x1="17.323" y1="-4.703" x2="-10.365" y2="3.86" xlink:href="#a"/><linearGradient id="f" x1="0.794" y1="0.137" x2="-1.29" y2="2.713" xlink:href="#a"/></defs><g transform="translate(-4117.914 -489.804)"><g transform="translate(4161.574 610.13)"><path d="M4206.968,630.086v.734a18.447,18.447,0,0,1-36.878,0v-.734Z" transform="translate(-4168.35 -628.346)" fill="#fff3dc"/><path d="M4188.286,650.195q-.308,0-.616-.01a20.217,20.217,0,0,1-19.579-19.573v-.786a1.74,1.74,0,0,1,1.74-1.74h36.879a1.74,1.74,0,0,1,1.74,1.74v.734a20.187,20.187,0,0,1-20.163,19.635Zm-16.655-18.628a16.71,16.71,0,0,0,33.273,0Z" transform="translate(-4168.09 -628.086)" fill="url(#a)"/></g><g transform="translate(4170.223 489.804)"><path d="M4199.354,514.544a1.7,1.7,0,0,1-.373-.041,44.635,44.635,0,0,0-18.839-.037,1.739,1.739,0,0,1-2.106-1.7v-11.1a11.535,11.535,0,0,1,23.058-.714v.017c.006.242.006.489,0,.736v11.1a1.74,1.74,0,0,1-1.741,1.74ZM4189.461,510q1.055,0,2.11.045a48.127,48.127,0,0,1,6.042.648v-9.026c0-.23,0-.42,0-.607a8.054,8.054,0,0,0-16.1.547v9.052A47.964,47.964,0,0,1,4189.461,510Z" transform="translate(-4178.029 -489.804)" fill="url(#b)"/></g><g transform="translate(4117.914 509.997)"><path d="M4125.055,616.624a7.14,7.14,0,0,1-5.823-11.273l14.672-20.774V558.823a47.835,47.835,0,0,1,58.017-44.7,47.182,47.182,0,0,1,12.967,4.9,1.741,1.741,0,0,1,.581,2.516,19.645,19.645,0,0,0,21.232,30.183,1.74,1.74,0,0,1,2.171,1.4,48.258,48.258,0,0,1,.58,5.632v25.829l14.672,20.76a7.151,7.151,0,0,1-1.66,9.955h0a7.083,7.083,0,0,1-4.044,1.333H4125.055Zm56.6-100.131a44.29,44.29,0,0,0-44.272,42.406l0,26.232a1.745,1.745,0,0,1-.319,1l-14.993,21.226a3.661,3.661,0,0,0,2.987,5.784H4238.4a3.612,3.612,0,0,0,2.043-.682h0a3.668,3.668,0,0,0,.849-5.108l-15-21.219a1.742,1.742,0,0,1-.319-1V558.823c-.048-1.076-.14-2.193-.276-3.318a23.133,23.133,0,0,1-27.225-22.754,22.984,22.984,0,0,1,3.091-11.559,43.772,43.772,0,0,0-10.383-3.674,44.381,44.381,0,0,0-7.564-.982C4182.96,516.505,4182.308,516.492,4181.655,516.492Z" transform="translate(-4117.914 -513.011)" fill="url(#c)"/></g><g transform="translate(4145.238 521.758)"><path d="M4151.057,554.654a1.763,1.763,0,0,1-.51-.077,1.741,1.741,0,0,1-1.155-2.173,38.542,38.542,0,0,1,26.169-25.809,1.741,1.741,0,0,1,.972,3.343,35.068,35.068,0,0,0-23.812,23.484A1.742,1.742,0,0,1,4151.057,554.654Z" transform="translate(-4149.315 -526.527)" fill="url(#d)"/></g><g transform="translate(4143.972 553.344)"><path d="M4149.6,576.737a1.741,1.741,0,0,1-1.74-1.74v-10.43a1.74,1.74,0,1,1,3.48,0V575A1.741,1.741,0,0,1,4149.6,576.737Z" transform="translate(-4147.861 -562.826)" fill="url(#e)"/></g><g transform="translate(4198.471 506.62)"><path d="M4255.249,532.507a21.381,21.381,0,1,1-21.377-21.378A21.379,21.379,0,0,1,4255.249,532.507Z" transform="translate(-4210.753 -509.389)" fill="#fff3dc"/><path d="M4233.612,555.365a23.1,23.1,0,1,1,6.016-.793A23.145,23.145,0,0,1,4233.612,555.365Zm0-42.756a19.639,19.639,0,1,0,19.637,19.637A19.67,19.67,0,0,0,4233.612,512.61Z" transform="translate(-4210.493 -509.129)" fill="url(#f)"/></g></g></svg>