<svg xmlns="http://www.w3.org/2000/svg" xmlns:xlink="http://www.w3.org/1999/xlink" width="301.098" height="480.614" viewBox="0 0 301.098 480.614">
  <defs>
    <clipPath id="clip-path">
      <circle id="Ellipse_8888" data-name="Ellipse 8888" cx="25.512" cy="25.512" r="25.512" fill="none"/>
    </clipPath>
  </defs>
  <g id="Group_7657" data-name="Group 7657" transform="translate(-12478.113 -1073.092)">
    <g id="Group_7760" data-name="Group 7760" transform="translate(1966.783 -3828.785)">
      <g id="Group_7758" data-name="Group 7758" transform="translate(10511.33 4901.877)">
        <g id="Group_7752" data-name="Group 7752">
          <rect id="Rectangle_19488" data-name="Rectangle 19488" width="193.892" height="351.45" rx="22.01" fill="#25837b"/>
          <rect id="Rectangle_19489" data-name="Rectangle 19489" width="188.378" height="345.936" rx="17.137" transform="translate(2.757 2.757)" fill="#fff"/>
          <path id="Rectangle_19490" data-name="Rectangle 19490" d="M2.822,0H171.616a2.822,2.822,0,0,1,2.822,2.822V307.491a2.823,2.823,0,0,1-2.823,2.823H2.823A2.823,2.823,0,0,1,0,307.491V2.822A2.822,2.822,0,0,1,2.822,0Z" transform="translate(9.726 9.727)" fill="#c7ded9"/>
          <path id="Path_61993" data-name="Path 61993" d="M10677.965,5481.126a6.136,6.136,0,1,1-6.136,6.136A6.135,6.135,0,0,1,10677.965,5481.126Z" transform="translate(-10581.019 -5153.387)" fill="#d8d8d8" fill-rule="evenodd"/>
        </g>
        <g id="Group_7757" data-name="Group 7757" transform="translate(29.758 27.535)">
          <circle id="Ellipse_8883" data-name="Ellipse 8883" cx="25.512" cy="25.512" r="25.512" fill="#fbfaf3"/>
          <g id="Group_7756" data-name="Group 7756">
            <g id="Group_7755" data-name="Group 7755" clip-path="url(#clip-path)">
              <g id="Group_7754" data-name="Group 7754" transform="translate(0.597 2.327)">
                <path id="bag_strap_back" data-name="bag strap_back" d="M10571.738,5060.759a208.928,208.928,0,0,1,7.5-27l.35.8s-5.2,18.265-6.692,25.741Z" transform="translate(-10567.914 -4989.001)" fill="#729368"/>
                <g id="left_upper_arm" transform="translate(23.604 42.746)">
                  <path id="Path_61994" data-name="Path 61994" d="M10613.063,5031.3a3.729,3.729,0,1,1-5.273,5.273,3.2,3.2,0,0,1-.237-.262,3.728,3.728,0,0,1,4.274-5.831c.048.02.1.039.144.061h0A3.684,3.684,0,0,1,10613.063,5031.3Z" transform="translate(-10606.698 -5030.206)" fill="#efd4e0"/>
                  <circle id="Ellipse_8884" data-name="Ellipse 8884" cx="3.729" cy="3.729" r="3.729" transform="translate(9.969 9.97)" fill="#efd4e0"/>
                  <path id="Path_61995" data-name="Path 61995" d="M10617.793,5035.865h0c2.9,2.914,5.886,6.24,5.886,6.24l-5.273,5.273c-4.11-3.173-10.221-10.22-10.221-10.22l.012-.011,5.277-4.8.234-.214A41,41,0,0,1,10617.793,5035.865Z" transform="translate(-10607.345 -5031.044)" fill="#efd4e0"/>
                </g>
                <g id="left_lower_arm" transform="translate(33.423 52.885)">
                  <path id="Path_61996" data-name="Path 61996" d="M10630.418,5049.216a3.726,3.726,0,0,1,.729,1.033c.028.061.056.121.081.182h0a3.729,3.729,0,0,1-5.872,4.253l-.012-.011c-.061-.05-.117-.1-.174-.159l-.027-.026a3.727,3.727,0,0,1,2.645-6.364,3.869,3.869,0,0,1,.411.024A3.706,3.706,0,0,1,10630.418,5049.216Z" transform="translate(-10624.052 -5048.125)" fill="#efd4e0"/>
                  <path id="Path_61997" data-name="Path 61997" d="M10637.379,5056.666c1.436,2.264,6.516,8.134,6.516,8.134l-3.058,3.057c-4.906-3.456-13.21-11.023-14.641-12.335l-.013-.011c-.083-.077-.141-.131-.173-.159l-.028-.026,5.273-5.273c.729.505,1.345.97,1.877,1.4.152.125.3.247.437.365A17.015,17.015,0,0,1,10637.379,5056.666Z" transform="translate(-10624.89 -5048.962)" fill="#efd4e0"/>
                  <circle id="Ellipse_8885" data-name="Ellipse 8885" cx="2.162" cy="2.162" r="2.162" transform="translate(15.313 15.205)" fill="#efd4e0"/>
                  <path id="Path_61998" data-name="Path 61998" d="M10632.346,5049.273c.959.388,3.972,2.2,3.986,2.208q-.208-.178-.437-.366c-.532-.432-1.149-.9-1.877-1.4A8.115,8.115,0,0,0,10632.346,5049.273Z" transform="translate(-10627.653 -5048.624)" fill="#e3c1ce"/>
                </g>
                <g id="hair" transform="translate(3.512)">
                  <path id="Path_61999" data-name="Path 61999" d="M10609.168,4985.006s7.1.145,6.3,7.92c-.511,4.975-6.92,10.066-24.368,9.45-18.266-.645-20.156-9.44-19.893-11.09a6.759,6.759,0,0,1,7.6-5.9,2.965,2.965,0,0,1,.612-2.282c1.247-1.208,3.2-2.021,4.168-1.071.519.51-.9-4.256,4.791-4.669,6.5-.472,11.438-.4,13.813.814a5.78,5.78,0,0,1,2.11,3.553C10604.045,4982.2,10606.906,4979.214,10609.168,4985.006Z" transform="translate(-10571.188 -4964.4)" fill="#dc4427" fill-rule="evenodd"/>
                  <path id="Path_62000" data-name="Path 62000" d="M10614.732,4996.969c.713.9,1.141,2.332.746,4.584-.863,4.927-6.919,10.122-24.367,9.45-19.316-.744-19.754-9.629-19.9-11.126.709,7.164,23.356,12.425,34.049,8.893C10612.8,5006.277,10614.1,5000.5,10614.732,4996.969Z" transform="translate(-10571.197 -4973.028)" fill="#c13f28" fill-rule="evenodd"/>
                  <path id="Path_62001" data-name="Path 62001" d="M10604.734,4967.032s-3.278-2.928-1.857-5.278c1.6-2.643,5.046-5.065,5.545-6.625.563-1.756-.9,1.646,2.681,5.553,2.9,3.159,1.478,6.133-1.288,6.575A10.109,10.109,0,0,1,10604.734,4967.032Z" transform="translate(-10584.791 -4954.655)" fill="#dc4427" fill-rule="evenodd"/>
                  <path id="Path_62002" data-name="Path 62002" d="M10604.631,4971.977s-3.293-2.867-1.714-5.316c-.286,5.568,9.01,5,8.409-.5,2.9,3.159,1.24,5.648-1.525,6.09A9.591,9.591,0,0,1,10604.631,4971.977Z" transform="translate(-10584.777 -4959.653)" fill="#c13f28" fill-rule="evenodd"/>
                  <path id="Path_62003" data-name="Path 62003" d="M10605.572,4976l-.158.736,6.707-.025.054-.543A55.1,55.1,0,0,0,10605.572,4976Z" transform="translate(-10586.048 -4963.896)" fill="#fce78e" fill-rule="evenodd"/>
                </g>
                <g id="chest" transform="translate(10.765 41.552)">
                  <path id="Path_62004" data-name="Path 62004" d="M10588.141,5051.405a14.823,14.823,0,0,1,1,5.853h11.839a9.044,9.044,0,0,1,2.345-6.709C10605.877,5048.048,10589.965,5049.07,10588.141,5051.405Z" transform="translate(-10585.801 -5037.214)" fill="#efd4e0"/>
                  <g id="Group_7753" data-name="Group 7753">
                    <path id="Path_62005" data-name="Path 62005" d="M10612.938,5029.718a2.369,2.369,0,0,1,1,.348c.8.444.824,2.749,1.3,5.861C10616.121,5041.771,10611.483,5032.685,10612.938,5029.718Z" transform="translate(-10596.444 -5028.799)" fill="#efd4e0"/>
                    <path id="Path_62006" data-name="Path 62006" d="M10602.677,5040.458c-.017.038-.034.076-.052.113a6.756,6.756,0,0,1-1.517,1.306l-15.647-2.844-.973-3.314,2.521-5.734a18.187,18.187,0,0,1,1.876-.758c.271-.095.54-.181.8-.259.109-.033.215-.062.322-.093q.444-.125.861-.224l.479-.108a19.128,19.128,0,0,1,3.381-.445,17.593,17.593,0,0,1,1.8.067,20.378,20.378,0,0,1,2.464.378h.006l.017,0,.061.014c.117.025.229.052.341.078.018,0,.035.007.052.013a.273.273,0,0,1,.027.006.068.068,0,0,1,.014,0h.009c.293.071.563.142.808.211l.036.01.017,0h0a.175.175,0,0,1,.028.009l.021.005c.094.027.186.054.271.08a.143.143,0,0,0,0,.029,28.6,28.6,0,0,0,1.119,3.409c.155,1.014.3,1.752.3,1.752C10603.373,5037.154,10603.25,5039.146,10602.677,5040.458Z" transform="translate(-10584.215 -5028.095)" fill="#efd4e0" fill-rule="evenodd"/>
                    <path id="Path_62007" data-name="Path 62007" d="M10612.527,5029.486l-.034-.01.032.007.018,0Z" transform="translate(-10596.374 -5028.694)" fill="#70678e"/>
                    <path id="Path_62008" data-name="Path 62008" d="M10612.581,5029.5h0Z" transform="translate(-10596.413 -5028.704)" fill="#70678e"/>
                    <path id="Path_62009" data-name="Path 62009" d="M10603.424,5040.8c-.016.038-.033.075-.051.113a4.378,4.378,0,0,1-1.979,2.229h-13.919l-1.266-3.767c2.211.113,9.953.793,4.227-10.066-.008-.016-.015-.029-.021-.044l1.207-.272.477-.108s1.881,6.2,5.7,6.073c4.781-.156,1.992-5.973,1.944-6.072h0l.017,0,.061.013.341.078.053.013.026.006.016,0h.007c.359.1.528.14.807.211l0,0-.033-.007c.024.007.047.013.068.018a.05.05,0,0,0,.016,0l.031.009.02,0a1.637,1.637,0,0,0,.27.058.086.086,0,0,0,0,.022.145.145,0,0,0,0,.029,28.833,28.833,0,0,0,1.119,3.409c.482,1.222.883,2.014.883,2.014A6.59,6.59,0,0,1,10603.424,5040.8Z" transform="translate(-10584.963 -5028.438)" fill="#70678e"/>
                    <path id="Path_62010" data-name="Path 62010" d="M10584.279,5037.168s-1.5-4.432,2.52-5.734" transform="translate(-10584.005 -5029.544)" fill="#efd4e0"/>
                  </g>
                </g>
                <g id="neck" transform="translate(18.953 26.686)">
                  <path id="Path_62011" data-name="Path 62011" d="M10607.85,5005.418a2.87,2.87,0,1,1-2.053-3.5A2.871,2.871,0,0,1,10607.85,5005.418Z" transform="translate(-10600.094 -5001.82)" fill="#efd4e0" fill-rule="evenodd"/>
                  <path id="Path_62012" data-name="Path 62012" d="M10604.57,5020.436l-.072-.019c-2.134-.556-1.634-.392-2.646-.69l-3.088-1.065a17.376,17.376,0,0,0,1.08-3.3,35.228,35.228,0,0,0,.8-5.352V5010c.136-1.672.153-2.894.153-2.894v-.092l.008-1.4c.036.3,2.043.491,2.1.764.023.117.023.114.025.112a.361.361,0,0,1,.029.1c.393,1.488,3.648-.467,3.4.478-.607,2.326-1,3.819-1.174,4.494l-.109.42a17.868,17.868,0,0,0-.516,5.261c.023.438.082,2.011.1,2.323a2.927,2.927,0,0,1-.045.646c-.006.042-.015.087-.025.139h0C10604.58,5020.377,10604.575,5020.406,10604.57,5020.436Z" transform="translate(-10598.603 -5003.468)" fill="#efd4e0" fill-rule="evenodd"/>
                  <circle id="Ellipse_8886" data-name="Ellipse 8886" cx="3.033" cy="3.033" r="3.033" transform="translate(0 13.168)" fill="#efd4e0"/>
                  <path id="Path_62013" data-name="Path 62013" d="M10605.771,5018.77c-.057-.145-.132-.392-.214-.557a27.118,27.118,0,0,0-3.863-7.678s.131-1.07.2-1.823c.006-.078.014-.2.018-.355a.016.016,0,0,1,0-.006c.136-1.672.153-2.895.153-2.895v-.066a2.871,2.871,0,1,1,5.563.029c-.606,2.326-1,3.82-1.174,4.495-.121.241-.169.393-.108.42a17.833,17.833,0,0,0-.516,5.261c.022.438.081,2.011.095,2.322a2.867,2.867,0,0,1-.045.646l-.027.014q0,.073,0,.126h0C10605.859,5018.954,10605.824,5018.914,10605.771,5018.77Z" transform="translate(-10599.874 -5001.82)" fill="#e3c1ce" fill-rule="evenodd"/>
                </g>
                <g id="head" transform="translate(16.857 17.371)">
                  <path id="Path_62014" data-name="Path 62014" d="M10613.568,4998.56c-.811,6.347-6.408,5.634-7.6,5.682,0,0-3.72,0-5.741-5.08l-.138-.535a14.121,14.121,0,0,0-2.125-3.814c-.71-1.516-.635-2.486-.167-2.987.241-.279,1.813-.8,2.436,1.648-.025-.658.809-3.5,1.32-3.633a43,43,0,0,1,9.3-.874l1.145,1.555C10612.6,4990.811,10613.683,4994.5,10613.568,4998.56Z" transform="translate(-10595.932 -4986.923)" fill="#efd4e0" fill-rule="evenodd"/>
                  <path id="Path_62015" data-name="Path 62015" d="M10613.568,4998.56c-.811,6.347-6.408,5.634-7.6,5.682,0,0-3.72,0-5.741-5.08l-.138-.535a14.121,14.121,0,0,0-2.125-3.814c-.71-1.516-.635-2.486-.167-2.987.241-.279,1.813-.8,2.436,1.648-.025-.658.809-3.5,1.32-3.633a43,43,0,0,1,9.3-.874l1.145,1.555C10612.6,4990.811,10613.683,4994.5,10613.568,4998.56Z" transform="translate(-10595.932 -4986.923)" fill="#efd4e0" fill-rule="evenodd"/>
                  <path id="Path_62016" data-name="Path 62016" d="M10607.849,4995.158c-.614.335-.849.918-.72.521.247-.765,1.514-1.423,1.514-1.423l.625.554a3.871,3.871,0,0,0-1.419.348Zm2.677,2.776a.689.689,0,1,1,.375-.765.61.61,0,0,1-.375.765Zm1.762,2.971a6.416,6.416,0,0,1-1.539-.845,4.844,4.844,0,0,1-1.059-1.245l-.333-.058-.106-.135.83-.084-.1.168-.166.047a4.767,4.767,0,0,0,2.883,1.981l-.406.17Zm.025-1.8c.105.091,2.011-.137,1.343-.423s-1.182-1.485-1.182-1.485a3,3,0,0,0,.835,1.625s-1.1.191-1,.283Zm2.1-1.227a.689.689,0,1,1,.376-.765.613.613,0,0,1-.376.765Zm1.649-1.84-.583-.689s-.04-.134.239-.275S10616.064,4996.039,10616.064,4996.039Z" transform="translate(-10600.123 -4989.221)" fill="#804c33" fill-rule="evenodd"/>
                  <path id="Path_62017" data-name="Path 62017" d="M10598.8,4998.991a2.943,2.943,0,1,1-3.29,2.632A2.978,2.978,0,0,1,10598.8,4998.991Z" transform="translate(-10595.088 -4991.271)" fill="#fbe68e" fill-rule="evenodd"/>
                  <path id="Path_62018" data-name="Path 62018" d="M10599.852,4987.646a11.233,11.233,0,0,0-.6,2.345,8.488,8.488,0,0,0-.131,1.948l-.673-1.49s-1.838-1.6-3.324-.881,2.182-3.464,3.33-3.539,5.652-.652,5.652-.652l7.911-.019,1.247,1.938-.521,1.146s.039,3.02-1.6.547c.061,2.217-2.574,3.153-2.574,3.153s-5.158-.247-6.051-3.84C10602.5,4988.857,10601.508,4989.531,10599.852,4987.646Z" transform="translate(-10594.772 -4985.357)" fill="#dc4427" fill-rule="evenodd"/>
                  <path id="Path_62019" data-name="Path 62019" d="M10603.258,4988.705a6.21,6.21,0,0,0-1.151,2.476,5.016,5.016,0,0,0-.181,1.35l-.763-1.59,1.843-4.731s.066,3.144,1.47,2.81c1.054-.25-.288-1.962.772-1.7.092.022.977,1.981,1.322,2.715.365.771,1.111,1.042,2.007,1.356,2.894,1.021,4.732.631,5.1-1.352a4.958,4.958,0,0,0,.113-1.112,9.145,9.145,0,0,0,.887,1.093c.459.5.871-1.128.868-1.148,0,0,.04,3.02-1.595.547a3.111,3.111,0,0,1-2.575,3.153s-5.146.255-6.038-3.338C10605.311,4989.807,10603.716,4989.984,10603.258,4988.705Z" transform="translate(-10597.547 -4985.727)" fill="#c13f28" fill-rule="evenodd"/>
                </g>
                <g id="right_upper_arm" transform="translate(0 43.903)">
                  <path id="Path_62020" data-name="Path 62020" d="M10588.967,5038.615a3.684,3.684,0,0,1-1.354.865,3.729,3.729,0,0,1-3.919-6.138,3.406,3.406,0,0,1,.261-.239,3.73,3.73,0,0,1,5.832,4.276c-.02.048-.039.1-.061.143h0A3.689,3.689,0,0,1,10588.967,5038.615Z" transform="translate(-10572.632 -5032.25)" fill="#efd4e0"/>
                  <circle id="Ellipse_8887" data-name="Ellipse 8887" cx="3.729" cy="3.729" r="3.729" transform="translate(0 9.969)" fill="#efd4e0"/>
                  <path id="Path_62021" data-name="Path 62021" d="M10578.426,5043.344h0c-2.913,2.9-6.24,5.885-6.24,5.885l-5.272-5.273c3.172-4.11,10.22-10.22,10.22-10.22l.011.012,4.8,5.277.214.234A40.864,40.864,0,0,1,10578.426,5043.344Z" transform="translate(-10565.819 -5032.896)" fill="#efd4e0"/>
                  <path id="Path_62022" data-name="Path 62022" d="M10587.262,5046.745a9.279,9.279,0,0,1,2.375-3.219c.332-.34.71-.708,1.14-1.1q.447-.409.972-.857a3.687,3.687,0,0,1-.758,1.092A40.868,40.868,0,0,1,10587.262,5046.745Z" transform="translate(-10574.655 -5036.296)" fill="#e3c1ce"/>
                  <path id="Path_62023" data-name="Path 62023" d="M10589.393,5045.742a2.225,2.225,0,0,1,.492-2.53A13.849,13.849,0,0,0,10589.393,5045.742Z" transform="translate(-10575.492 -5037.009)" fill="#e3c1ce"/>
                </g>
              </g>
            </g>
          </g>
        </g>
        <rect id="Rectangle_19491" data-name="Rectangle 19491" width="56.925" height="9.434" rx="3.806" transform="translate(88.693 29.914)" fill="#fbfaf3"/>
        <rect id="Rectangle_19492" data-name="Rectangle 19492" width="42.165" height="9.434" rx="3.806" transform="translate(88.693 45.108)" fill="#fbfaf3"/>
        <circle id="Ellipse_8889" data-name="Ellipse 8889" cx="8.33" cy="8.33" r="8.33" transform="translate(88.693 61.899)" fill="#e1f4ef"/>
        <circle id="Ellipse_8890" data-name="Ellipse 8890" cx="8.33" cy="8.33" r="8.33" transform="translate(113.047 61.899)" fill="#e1f4ef"/>
        <circle id="Ellipse_8891" data-name="Ellipse 8891" cx="8.33" cy="8.33" r="8.33" transform="translate(137.4 61.899)" fill="#e1f4ef"/>
        <path id="Line_1073" data-name="Line 1073" d="M170.737.155H0V-.155H170.737Z" transform="translate(10.547 90.662)" fill="#036c56"/>
        <circle id="Ellipse_8892" data-name="Ellipse 8892" cx="7.85" cy="7.85" r="7.85" transform="translate(21.518 123.016)" fill="#fbfaf3"/>
        <rect id="Rectangle_19493" data-name="Rectangle 19493" width="118.989" height="10.886" rx="4.392" transform="translate(47.109 126.06)" fill="#e1f4ef"/>
        <circle id="Ellipse_8893" data-name="Ellipse 8893" cx="7.85" cy="7.85" r="7.85" transform="translate(21.518 147.716)" fill="#fbfaf3"/>
        <rect id="Rectangle_19494" data-name="Rectangle 19494" width="91.146" height="10.886" rx="4.392" transform="translate(47.109 150.759)" fill="#e1f4ef"/>
        <circle id="Ellipse_8894" data-name="Ellipse 8894" cx="7.85" cy="7.85" r="7.85" transform="translate(21.518 172.416)" fill="#fbfaf3"/>
        <rect id="Rectangle_19495" data-name="Rectangle 19495" width="106.101" height="10.886" rx="4.147" transform="translate(47.109 175.459)" fill="#e1f4ef"/>
        <circle id="Ellipse_8895" data-name="Ellipse 8895" cx="7.85" cy="7.85" r="7.85" transform="translate(21.518 197.116)" fill="#f9f8e6"/>
        <rect id="Rectangle_19496" data-name="Rectangle 19496" width="110.935" height="10.886" rx="4.241" transform="translate(47.109 200.159)" fill="#e1f4ef"/>
      </g>
      <g id="Group_7759" data-name="Group 7759" transform="translate(10580.618 5143.816)">
        <ellipse id="Ellipse_8896" data-name="Ellipse 8896" cx="27.658" cy="27.882" rx="27.658" ry="27.882" fill="#32ac6a"/>
        <path id="Path_62024" data-name="Path 62024" d="M10665.131,5382.547l-12.038-12.135a2.39,2.39,0,0,1,0-3.361,2.344,2.344,0,0,1,3.335,0l8.7,8.772,17.5-17.643a2.344,2.344,0,0,1,3.334,0,2.39,2.39,0,0,1,0,3.361Z" transform="translate(-10641.871 -5341.642)" fill="#fff"/>
      </g>
    </g>
    <g id="Group_7656" data-name="Group 7656" transform="translate(12587.243 1101.635)">
      <path id="Path_61837" data-name="Path 61837" d="M12611.28,1440.043a23.626,23.626,0,0,0-.236,5.236c.555,4.789,54.92,1.181,68.064-3.094.7-3.047.27-4.522.713-6.9-1.865-3.792-45.693,3.808-45.693,3.808Z" transform="translate(-12508.126 -995.485)" fill="#faf8ea" fill-rule="evenodd"/>
      <path id="Path_61838" data-name="Path 61838" d="M12640.213,1418.49a68.9,68.9,0,0,1-33.318,11.423c-5.57,5.663,2.725,5.9,6.664,7.14s25.143,2.561,34.27-4.046c9.367-6.777,13.633-8.189,9.52-12.137S12640.213,1418.49,12640.213,1418.49Z" transform="translate(-12509.929 -1000.347)" fill="#c2d168" fill-rule="evenodd"/>
      <path id="Path_61839" data-name="Path 61839" d="M12604.822,1435.982c6.379,4.208,10.1,3.741,13.564,3.569,4.826-.24,14.127-5.119,16.658-3.808-3.848-1.994-10.006.7-13.8-1.19-7.273-3.61-11.67-10.735-15.707-5.473C12605.008,1429.769,12604.715,1433.81,12604.822,1435.982Z" transform="translate(-12509.997 -997.611)" fill="#faf8ea" fill-rule="evenodd"/>
      <path id="Path_61840" data-name="Path 61840" d="M12647.1,1425.358a70.317,70.317,0,0,1-16.9,10.709c-8.4,3.667-16.02,4.479-17.611,6.187-1.314,1.414-1.7,6.285,24.988,2.618,2.863-.622,42.67-4.465,41.887-6.664-.809-2.273,1.189-11.423,1.189-11.423Z" transform="translate(-12507.777 -998.172)" fill="#c2d168" fill-rule="evenodd"/>
      <path id="Path_61841" data-name="Path 61841" d="M12634.05,1435.253s-13.934,1.035-19.516,0c-4.232-.786-8.219-.912-9.518-4.283-.828-3.038,5.865-6.643,11.184-4.76,3.051,1.08,3.693,5.816,6.666,8.568.59-.16,4.146,1.185,11.184.476,2.373-1.083,13.916-9.05,15.23-9.044C12651.749,1426.223,12634.05,1435.253,12634.05,1435.253Z" transform="translate(-12509.954 -998.072)" fill="#a0ad4b" fill-rule="evenodd"/>
      <path id="Path_61842" data-name="Path 61842" d="M12620.051,1443.7c-4.592-.265-7.937-.814-8.937-3.218-.348-.835,3.619-3,7.746-4.4,4.582-1.55,9.9-2.368,11.662-2.855,2.58-.714,8.156,4.369,11.424,7.377.213.2,7.393-.648,17.135-1.665,9.691-1.014,20.287-3.027,20.467-2.856.219.207-6.773,1.733-15.555,3.082-9.768,1.5-20.549,2.708-20.381,2.868C12636.014,1443.036,12631.105,1444.336,12620.051,1443.7Z" transform="translate(-12508.091 -995.807)" fill="#a0ad4b" fill-rule="evenodd"/>
      <path id="Path_61843" data-name="Path 61843" d="M12641.236,1267.252l.477,39.269s-10.5,36.914-14.756,55.927c-.908,4.065-2.1,10.684-1.664,13.327,1.338,8.2,6.635,71.5.951,88.77,3.977,2.649,10.9,3.635,15.707,3.332.01,2.463-2.068,4.939-2.617,5.95,1.184,6.309,34.814,9.024,42.6,1.428,1.436-1.4.158-9.265,1.666-18.8,2.336-14.776,7.879-30.674,7.379-47.835-.418-14.291-1.973-21.6-6.9-33.556a35.826,35.826,0,0,1-.949-13.328c1.83-21.226,2.568-48.711,3.33-55.927.2-1.912,10.066-6.3,9.281-17.373-.859-12.161-10.814-26.692-13.088-29.034C12678.244,1254.863,12641.236,1267.252,12641.236,1267.252Z" transform="translate(-12503.813 -1048.783)" fill="#734e63" fill-rule="evenodd"/>
      <path id="Path_61844" data-name="Path 61844" d="M12652.187,1287.837l-11.158,11S12640.935,1293.519,12652.187,1287.837Z" transform="translate(-12499.016 -1039.859)" fill="#553b47" fill-rule="evenodd"/>
      <path id="Path_61845" data-name="Path 61845" d="M12646.519,1295.65s-4.627,8.285-5.9,8.378S12644.9,1296.131,12646.519,1295.65Z" transform="translate(-12499.196 -1037.491)" fill="#553b47" fill-rule="evenodd"/>
      <path id="Path_61846" data-name="Path 61846" d="M12642.873,1297.771s-1.014.108-.951-3.807c.135-8.718-2.006-24.066-1.666-24.752.244-.5,2.881,22.63,2.617,25.942-.129,1.608.123,2.118.951,2.141S12642.873,1297.771,12642.873,1297.771Z" transform="translate(-12499.262 -1045.507)" fill="#553b47" fill-rule="evenodd"/>
      <path id="Path_61847" data-name="Path 61847" d="M12648.359,1290.944s-2.035,71.43-2.143,76.155.408,79.237-7.615,90.436c-1.217,1.7-1.027,2.218.713-4.046,4.6-16.538,6.232-70.429,5.711-82.105Z" transform="translate(-12499.987 -1038.918)" fill="#553b47" fill-rule="evenodd"/>
      <path id="Path_61848" data-name="Path 61848" d="M12641.16,1414.035s11.992,8.731,34.27,2.141c4.916-5.138-5.158,1.29-16.9,1.428A39.828,39.828,0,0,1,12641.16,1414.035Z" transform="translate(-12498.976 -1001.604)" fill="#553b47" fill-rule="evenodd"/>
      <path id="Path_61849" data-name="Path 61849" d="M12628.2,1406.729c-.684-.09,11.314,5.734,15.707,3.809,3-1.319-4.932-.757-7.141-1.19C12634.084,1408.822,12629.313,1406.875,12628.2,1406.729Z" transform="translate(-12502.913 -1003.819)" fill="#553b47" fill-rule="evenodd"/>
      <path id="Path_61850" data-name="Path 61850" d="M12679.605,1268.385s-2.5-18.258.477-30.7-2.1-32.812-3.572-37.126c-2.408-7.075-10.465-14.676-17.133-18.325-.348-.6-.881-2.53-1.666-2.618-8.865-1-12.178.165-19.754,5.95-4.289,3.275-8.807,7.377-8.807,7.377s-3.357,2.968-5.711,13.09c-2.018,8.681-4.426,18.562-5.473,21.42a3.6,3.6,0,0,1,3.807.951,32.59,32.59,0,0,0-2.141,3.332c13.451-3.936,24.273,15.231,24.273,15.231a37.581,37.581,0,0,0-4.045,6.663c.217,12.766.475,22.134.475,22.134a83.187,83.187,0,0,0,20.23-.714A78.76,78.76,0,0,0,12679.605,1268.385Z" transform="translate(-12506.008 -1072.762)" fill="#c2d168" fill-rule="evenodd"/>
      <path id="Path_61851" data-name="Path 61851" d="M12632.576,1190.632l4.76-2.142A7.68,7.68,0,0,0,12632.576,1190.632Z" transform="translate(-12501.578 -1069.975)" fill="#919f48" fill-rule="evenodd"/>
      <path id="Path_61852" data-name="Path 61852" d="M12621.034,1217.453s13.584-4.684,25.055,11.723c1.414,2.025-.557-1.06-.035-.571C12649.765,1232.085,12634.13,1208.659,12621.034,1217.453Z" transform="translate(-12505.077 -1061.798)" fill="#a0ad4b" fill-rule="evenodd"/>
      <path id="Path_61853" data-name="Path 61853" d="M12619.245,1211.5s5.309,1.577,5,2.38S12626.454,1211.581,12619.245,1211.5Z" transform="translate(-12505.619 -1063)" fill="#a0ad4b" fill-rule="evenodd"/>
      <path id="Path_61854" data-name="Path 61854" d="M12637.69,1238.817s12.9-25.289,14.992-31.176C12654.687,1202.014,12644.267,1233.16,12637.69,1238.817Z" transform="translate(-12500.027 -1064.375)" fill="#a0ad4b" fill-rule="evenodd"/>
      <path id="Path_61855" data-name="Path 61855" d="M12629.892,1190.5s-5.977,3.455-4.76,24.989C12626.271,1221.847,12619.888,1196.16,12629.892,1190.5Z" transform="translate(-12504.129 -1069.366)" fill="#a0ad4b" fill-rule="evenodd"/>
      <path id="Path_61856" data-name="Path 61856" d="M12635.25,1186.167a20.2,20.2,0,0,0-4.047,7.378c-.168.8.928,1.823,2.617,1.427,6.611-1.543,18.24-7.677,20.469-13.326,2.264-5.743-2.328,10.876-19.754,14.517-1.941.066-5.391.076-4.283-3.332A18.849,18.849,0,0,1,12635.25,1186.167Z" transform="translate(-12502.348 -1072.412)" fill="#a0ad4b" fill-rule="evenodd"/>
      <path id="Path_61857" data-name="Path 61857" d="M12635.557,1194.685a7.958,7.958,0,0,0-3.094,4.045c-3.758,14.377-13.232,27.885-12.85,28.558.451.8,9.445-13.073,13.6-27.583a8.1,8.1,0,0,1,5.516-5.512,24.707,24.707,0,0,1,17.168,2.149c4.018,2.15-1.123-2.2-8.2-3.56C12643.609,1192,12638.895,1192.3,12635.557,1194.685Z" transform="translate(-12505.511 -1068.791)" fill="#a0ad4b" fill-rule="evenodd"/>
      <path id="Path_61858" data-name="Path 61858" d="M12645,1218.507s4.67.627,8.09-1.19S12649.529,1217.931,12645,1218.507Z" transform="translate(-12497.814 -1061.438)" fill="#919f48" fill-rule="evenodd"/>
      <path id="Path_61859" data-name="Path 61859" d="M12568.046,1184.694s-23.986,1.836-31.063,1.891c-1.095.468-5.547,2.875-4.858,4.627l17.56,42.966c.545,1.387,1.469,2.329,2.946,2.069l33.934-5.944c1.344-.236,6.143-2.346,5.607-3.659l-20.734-39.916A3.466,3.466,0,0,0,12568.046,1184.694Z" transform="translate(-12532.052 -1071.131)" fill="#b94628" fill-rule="evenodd"/>
      <path id="Path_61860" data-name="Path 61860" d="M12571.295,1183.027l-34.2,3.795a1.941,1.941,0,0,0-1.748,2.731l16.809,43.041a3.452,3.452,0,0,0,3.661,2.046l33.958-5.952a1.95,1.95,0,0,0,1.467-2.81l-16.555-40.815A3.457,3.457,0,0,0,12571.295,1183.027Z" transform="translate(-12531.103 -1071.636)" fill="#de4528" fill-rule="evenodd"/>
      <path id="Path_61861" data-name="Path 61861" d="M12570.229,1184.491l-31.689,3.513a1.8,1.8,0,0,0-1.621,2.528l15.564,39.889a3.2,3.2,0,0,0,3.393,1.9l31.488-5.52a1.809,1.809,0,0,0,1.359-2.6l-15.355-37.817A3.2,3.2,0,0,0,12570.229,1184.491Z" transform="translate(-12530.621 -1071.192)" fill="#fdfdfd" fill-rule="evenodd"/>
      <path id="Path_61862" data-name="Path 61862" d="M12632.824,1221.9a4.558,4.558,0,0,1,3.568.476c.008.724-1.693,2.373-2.141,3.569-.068,1.815,18,9,20.467,19.039.307,1.256-.646-.018-.713,1.428.633-13.476-6.432,18.63-15.709,19.514-2.719.26-28.721-9.51-54.975-30.7-1.5-1.208-10.24-7.376-10.947-8.091.055-.33,1.551-.511,4.045-1.19,1.461-.4,4.1-1.764,4.283-2.618.307-1.42-1.2-5.657-1.664-5.95-1.234-.77-6.189-2.329-4.285-9.043-3.449-.657-4.053-2.443-4.52-3.809s-1.166-6.51.949-6.9c.99,1.946,1.727,3.844,4.285,5.236,1.975,1.014,3.727.753,4.76,1.19a2.239,2.239,0,0,1,.951,1.428,58.874,58.874,0,0,0,4.523,9.519c.9,1.626,2.676,3.169,12.375,7.616,1.922.882,13.3,4.909,23.084,8.568,2.744,1.027,4.941,1.882,6.664,3.569a6.274,6.274,0,0,0,2.617-3.569C12631.023,1230.425,12632.824,1221.9,12632.824,1221.9Z" transform="translate(-12520.627 -1067.207)" fill="#ecc298" fill-rule="evenodd" style="isolation: isolate"/>
      <path id="Path_61863" data-name="Path 61863" d="M12644.234,1244.044c-2-7.312-4.975-12.831-11.186-9.282,1.084-.62,4.521-13.089,4.521-13.089a4.334,4.334,0,0,1,4.047.714c-2.252,3.684-4.693,7.008-4.523,8.33.162,1.268,11.293,10.118,7.141,13.327Zm-65.209-35.222c-.708-.549-3.342-1.721-3.808-3.332a13.749,13.749,0,0,1-.477-5.949c.277-1.319,1.216-2.211,1.427-1.905.147.215-1.152,1.285-1.189,2.381a13.5,13.5,0,0,0,.953,5.473,6,6,0,0,0,3.807,2.856c-1.92,7.973,9.572,9.91,5.238,9.281-6.2-.9-6.291-7.433-5.951-8.805Zm-25.7-4.046c.1-.189,1.338,3.032,3.568,5,1.758,1.547,4.712,2.463,5,3.332a73.827,73.827,0,0,0,3.809,7.854c1.925,3.383,4.269,6.5,4.045,6.426a27.126,27.126,0,0,1-4.521-5.95c-2.059-3.584-3.507-7.715-4.046-8.33-1.192-1.359-3.982-2.162-4.76-2.855C12554.341,1208.4,12553.1,1205.213,12553.322,1204.775Z" transform="translate(-12525.61 -1067.221)" fill="#cca27d" fill-rule="evenodd" style="isolation: isolate"/>
      <path id="Path_61864" data-name="Path 61864" d="M12552.853,1203.538c-.1.366-1.15,6.352-.128,7.732.985,1.334,2.854,3.332,2.854,3.332a7.324,7.324,0,0,1,.953,2.381,6.112,6.112,0,0,1-.239,3.332c-.285.348,0-1.214-.237-2.856a4.678,4.678,0,0,0-.953-2.379c-.515-.506-1.532-1.422-2.378-2.381-2.635-2.984-.835-8.5,0-9.758.148-.224,1.221-.031,1.189.238-.006.042-.188-.074-.476,0A1.492,1.492,0,0,0,12552.853,1203.538Z" transform="translate(-12526.202 -1065.624)" fill="#ebe7c8" fill-rule="evenodd"/>
      <path id="Path_61865" data-name="Path 61865" d="M12557.545,1215.217s-9.22.5-10.947,0,10.533,1.823,11.185.477S12557.545,1215.217,12557.545,1215.217Z" transform="translate(-12527.691 -1061.957)" fill="#ebe7c8" fill-rule="evenodd"/>
      <path id="Path_61866" data-name="Path 61866" d="M12643.788,1224.187c15.449-2.407,22.963,11.3,24.988,14.755-1.668,2.493-13.457,22.956-16.9,26.417-1.4,1.963-5.652,6.259-9.518,5.71-15.945-3.052-18.16-5.1-71.4-24.75-.885-.326-3.576-1.431-4.521-1.665-5.419-1.348-14.88-4.465-18.8-7.14-.752-1.63-1.411-2.274,1.189-3.808.139.435-2.361-2.028-2.379-7.616-1.947-1.482-5.335-1.586-6.9-2.855a4.679,4.679,0,0,1,1.189-5.713c1.128-.907,10.078,2.692,19.517,1.905.046-2.607-.222-4.2-.953-4.522-3.524-3.418-3.37-4.725-3.332-6.9-.021,1.19-.027-3.494.478-4.284a.983.983,0,0,1,1.428,0c.726,1.364.738,4.057,6.9,7.14,3.1,1.577,2.645,8.964,10.234,15.707,15.222,8,24.69,9.45,29.747,8.807s14.229-1.693,24.273,1.9c1.746.623,5.352,2.514,6.428.713C12635.524,1237.881,12644.614,1222.594,12643.788,1224.187Z" transform="translate(-12529.926 -1065.452)" fill="#ecc298" fill-rule="evenodd" style="isolation: isolate"/>
      <path id="Path_61867" data-name="Path 61867" d="M12660.726,1233.575c-3.352,6.084-4.818,8.752-9.043,15.469a116.922,116.922,0,0,1-9.043,12.613c2.559-3.279,18.086-28.083,18.086-28.083Zm-29.5-7.07a6.616,6.616,0,0,1,.707-1.022s-.268.4-.707,1.022Zm-44.986,3.5c5.2,1.082,18.988,1.07,20.705.953,2.26-.156,15.619-.03,20.467,2.855,3.18,1.892,2.627,3.387,2.855,2.38.094-.414-1.172-2.08-3.332-3.332a56.792,56.792,0,0,0,4.291-6.355c-1.129,1.587-3.4,4.591-5.242,5.88-1.914-.487-6.168-2.592-33.32-2.618-11.215-.01-24.873-8.044-26.653-9.281-1.047-.727.2,1.258,1.667,2.142A53.689,53.689,0,0,0,12586.237,1230.006Z" transform="translate(-12521.875 -1060.323)" fill="#cca27d" fill-rule="evenodd" style="isolation: isolate"/>
      <path id="Path_61868" data-name="Path 61868" d="M12555.481,1215.7s-.246,2.063-1.19,2.141S12555.153,1216.5,12555.481,1215.7Z" transform="translate(-12525.391 -1061.726)" fill="#ebe7c8" fill-rule="evenodd"/>
      <path id="Path_61869" data-name="Path 61869" d="M12552.768,1216.942a11.156,11.156,0,0,0,3.333-1.19C12557.057,1215.033,12554.255,1216.284,12552.768,1216.942Z" transform="translate(-12525.771 -1061.776)" fill="#cca27d" fill-rule="evenodd" style="isolation: isolate"/>
      <path id="Path_61870" data-name="Path 61870" d="M12544,1220.45s1.7.453,2.143,1.19a2.562,2.562,0,0,0,2.143,1.19c.583-.13-1.793.5-2.143-.476A3.89,3.89,0,0,0,12544,1220.45Z" transform="translate(-12528.428 -1060.287)" fill="#cca27d" fill-rule="evenodd" style="isolation: isolate"/>
      <path id="Path_61871" data-name="Path 61871" d="M12545.28,1224.285a17.684,17.684,0,0,0,1.428,3.332c.579.947,1.7,1.239,1.667.951-.112-.941-.962-1.069-1.429-1.666C12546.409,1226.219,12545.979,1225.313,12545.28,1224.285Z" transform="translate(-12528.04 -1059.124)" fill="#cca27d" fill-rule="evenodd" style="isolation: isolate"/>
      <path id="Path_61872" data-name="Path 61872" d="M12662.067,1199.925s-9.437-39.96-9.043-43.076c-1.494-7.625-4.76-23.322-4.76-23.322l-22.609-13.09,1.664-5-17.135,8.567-1.9,16.661a55.056,55.056,0,0,0-4.523,3.808,3.259,3.259,0,0,0-.951,2.141,9.558,9.558,0,0,0,4.76,1.428c-.023,3.825-.828,12.95.953,23.323,3,10.034,17.766,9.939,24.512,10.233,1.867.081,2.959,2.312,3.57,2.855.1,2.269,6.84,21.166,6.9,25.7-.309,1.423-.414.937-.24,1.428C12653.292,1207.744,12659.257,1204.291,12662.067,1199.925Z" transform="translate(-12510.602 -1092.119)" fill="#ecc298" fill-rule="evenodd" style="isolation: isolate"/>
      <path id="Path_61873" data-name="Path 61873" d="M12646.121,1157.079s-11.139,10.519-19.754,11.662c.188.663,2.328,1.708,2.617,2.855,1.625,6.419,5.934,19.38,5.949,19.04.766-15.962,4.285-23.085,4.285-23.085S12646.742,1156.794,12646.121,1157.079Z" transform="translate(-12503.46 -1079.498)" fill="#cca27d" fill-rule="evenodd" style="isolation: isolate"/>
      <path id="Path_61874" data-name="Path 61874" d="M12659.093,1176.553c-.42.134-6.018-42.363-4.758-49.5.795-7.08-2.381-9.281-2.381-9.281s-8.395-5.994-12.375-5.712c-7.293.519-6.664,2.038-12.611,3.571a20.913,20.913,0,0,1-5.713.951c.664-.787,2.4-2.331,2.855-7.377.789-8.624-9.27-11.148-12.613-11.425-3.617-.3-15.611-2.043-19.277,11.425-3.408,12.527,4.76,21.636,10.947,22.847,15.2,2.971,21.42-5.236,21.42-5.236s2.355,15.012,9.043,13.8c.27,1.876.049,6.646,1.189,9.044.557,1.169,1.16-.046,1.666-.238-.781-7.982,4.164-10.91,5.475-10.946s8.3,1.555,3.807,14.755c.518,1.109,1.371,2.045,1.953,3.232C12652.3,1165.817,12659.093,1176.553,12659.093,1176.553Z" transform="translate(-12514.055 -1097.544)" fill="#7e4e31" fill-rule="evenodd"/>
      <path id="Path_61875" data-name="Path 61875" d="M12618.926,1112.9s-12.119,12.05-16.885.5c-.65-3.208,2.123-5.328,2.123-5.328s-6.291,4.135-2.521,8.3S12611.711,1122.958,12618.926,1112.9Z" transform="translate(-12511.319 -1094.354)" fill="#463329" fill-rule="evenodd"/>
      <path id="Path_61876" data-name="Path 61876" d="M12616.871,1120.661a11.3,11.3,0,0,1,3.094-2.38,4.662,4.662,0,0,1,3.33-.239c.852.38-1.1.4-3.094.951A11.954,11.954,0,0,0,12616.871,1120.661Z" transform="translate(-12506.339 -1091.392)" fill="#463329" fill-rule="evenodd"/>
      <path id="Path_61877" data-name="Path 61877" d="M12620.253,1135.2l-7.377-4.283s-.156-2.093-.24-2.855,6.277,4.113,7.141,5.235l.477,1.9Zm-7.139,2.975c0-1.248.584-2.261,1.307-2.261s1.311,1.012,1.311,2.261-.586,2.261-1.311,2.261-1.307-1.011-1.307-2.261Zm-5.877,12.936s-.148-.936.322-1.174c5.8,1.891,7.234-2.4,7.518-3.6-.746-.37-1.582-.736-1.582-.736.625-.788,2.936.584,2.936.584s-.012,1.147-.209.837a4.415,4.415,0,0,0-1.1-.663c-.437,6.72-7.883,4.754-7.883,4.754Zm-3.881-7.819c3.582.619,5.236,0,5.236,0s.643.77.236.951S12604.206,1143.9,12603.356,1143.291Z" transform="translate(-12510.436 -1088.318)" fill="#7e4e31" fill-rule="evenodd"/>
      <path id="Path_61878" data-name="Path 61878" d="M12626.976,1137.4s2.166-4.663,4.045-4.046-2.691,1.969-2.619,3.095,4.053.658,1.43,4.283c-1.5,1.923-2.863-.189-3.094-.239s1.7.778,2.141,0S12630.192,1137.775,12626.976,1137.4Z" transform="translate(-12503.354 -1086.707)" fill="#7e4e31" fill-rule="evenodd"/>
      <path id="Path_61879" data-name="Path 61879" d="M12635.132,1140.459s-4.035,6.84-7.377,3.569c-3.635-3.556,1.477,4.478,4.521.953S12633.878,1143.261,12635.132,1140.459Z" transform="translate(-12503.42 -1084.535)" fill="#7e4e31" fill-rule="evenodd"/>
      <path id="Path_61880" data-name="Path 61880" d="M12635.316,1254.875s5.5,11.362,6.662,15.707c18.7,1.332,35.916-6.014,38.555-7.139-3.969-4.332-6.057-16.131-6.4-16.027Z" transform="translate(-12500.747 -1052.112)" fill="#443228" fill-rule="evenodd"/>
      <path id="Path_61881" data-name="Path 61881" d="M12637.473,1251.509c-3.334,1.492-3.883,7.589-2.748,12.182,1.1,4.434,3.736,7.911,6.334,8.318,2.885.455,5.576-2.979,5.1-9.291C12645.613,1255.607,12641.178,1249.85,12637.473,1251.509Z" transform="translate(-12501.09 -1050.959)" fill="#553b47" fill-rule="evenodd"/>
      <path id="Path_61882" data-name="Path 61882" d="M12636.561,1251.509c-3.334,1.492-3.883,7.589-2.746,12.182,1.1,4.434,3.734,7.911,6.33,8.318,2.887.455,5.578-2.979,5.1-9.291C12644.7,1255.607,12640.266,1249.85,12636.561,1251.509Z" transform="translate(-12501.367 -1050.959)" fill="#c7c5c5" fill-rule="evenodd"/>
      <path id="Path_61883" data-name="Path 61883" d="M12636.563,1252.557c-2.662,1.13-3.221,6.106-2.307,10.029.895,3.834,3.113,6.766,5.262,6.938,2.264.18,4.354-2.836,3.83-8.13C12642.791,1255.751,12639.424,1251.344,12636.563,1252.557Z" transform="translate(-12501.192 -1050.615)" fill="#734e63" fill-rule="evenodd"/>
      <path id="Path_61884" data-name="Path 61884" d="M12636.917,1256.568c-.875.2-1.227,1.993-.848,3.911.359,1.817,1.273,3.206,2.094,3.189.859-.02,1.355-1.569,1.055-3.563C12638.9,1257.99,12637.839,1256.357,12636.917,1256.568Z" transform="translate(-12500.565 -1049.344)" fill="#553b47" fill-rule="evenodd"/>
    </g>
  </g>
</svg>
