<svg xmlns="http://www.w3.org/2000/svg" xmlns:xlink="http://www.w3.org/1999/xlink" width="125.442" height="117.833" viewBox="0 0 125.442 117.833"><defs><linearGradient id="a" x1="5.833" y1="-2.392" x2="-0.141" y2="0.848" gradientUnits="objectBoundingBox"><stop offset="0" stop-color="#1cabe0"/><stop offset="1" stop-color="#107aa3"/></linearGradient><linearGradient id="b" x1="4.703" y1="-0.761" x2="-1.271" y2="1.031" xlink:href="#a"/><linearGradient id="c" x1="4.302" y1="-1.398" x2="-1.672" y2="1.584" xlink:href="#a"/><linearGradient id="d" x1="3.379" y1="-0.568" x2="-2.595" y2="1.649" xlink:href="#a"/><linearGradient id="e" x1="0.993" y1="-0.463" x2="-0.045" y2="1.834" xlink:href="#a"/><linearGradient id="f" x1="3.825" y1="-18.688" x2="-2.016" y2="15.021" xlink:href="#a"/><linearGradient id="g" x1="14.795" y1="-2.226" x2="-17.76" y2="3.982" xlink:href="#a"/><linearGradient id="h" x1="3.872" y1="-11.21" x2="-5.832" y2="22.491" xlink:href="#a"/></defs><g transform="translate(-260.559 -43.559)"><path d="M281.728,161.392h-17.8a2,2,0,0,1-2-2V121.778a2,2,0,0,1,2-2h17.8a2,2,0,0,1,2,2v37.614A2,2,0,0,1,281.728,161.392Zm-15.8-4h13.8V123.778h-13.8Z" fill="url(#a)"/><path d="M315.363,161.392h-17.8a2,2,0,0,1-2-2V88.187a2,2,0,0,1,2-2h17.8a2,2,0,0,1,2,2v71.205A2,2,0,0,1,315.363,161.392Zm-15.8-4h13.8V90.187h-13.8Z" fill="url(#b)"/><path d="M349,161.392H331.2a2,2,0,0,1-2-2V118.18a2,2,0,0,1,2-2H349a2,2,0,0,1,2,2v41.212A2,2,0,0,1,349,161.392Zm-15.8-4H347V120.18H333.2Z" fill="url(#c)"/><path d="M382.634,161.392h-17.8a2,2,0,0,1-2-2V102.583a2,2,0,0,1,2-2h17.8a2,2,0,0,1,2,2v56.809A2,2,0,0,1,382.634,161.392Zm-15.8-4h13.8V104.583h-13.8Z" fill="url(#d)"/><path d="M272.827,102.251A12.268,12.268,0,1,1,285.1,89.982,12.283,12.283,0,0,1,272.827,102.251Zm0-20.536a8.268,8.268,0,1,0,8.269,8.267A8.277,8.277,0,0,0,272.827,81.715ZM340.1,98.644a12.268,12.268,0,1,1,12.268-12.269A12.283,12.283,0,0,1,340.1,98.644Zm0-20.537a8.268,8.268,0,1,0,8.268,8.268A8.278,8.278,0,0,0,340.1,78.107Zm33.635,5A12.267,12.267,0,1,1,386,70.841,12.282,12.282,0,0,1,373.733,83.108Zm0-20.535A8.267,8.267,0,1,0,382,70.841,8.277,8.277,0,0,0,373.733,62.573ZM306.463,68.1A12.268,12.268,0,1,1,318.73,55.826,12.283,12.283,0,0,1,306.463,68.1Zm0-20.536a8.268,8.268,0,1,0,8.267,8.267A8.277,8.277,0,0,0,306.463,47.559Z" fill="url(#e)"/><rect width="22.298" height="4" transform="translate(280.608 79.229) rotate(-44.604)" fill="url(#f)"/><rect width="4.001" height="21.718" transform="translate(314.381 65.695) rotate(-47.531)" fill="url(#g)"/><rect width="13.422" height="4.001" transform="translate(349.334 80.201) rotate(-25.94)" fill="url(#h)"/></g></svg>