<svg xmlns="http://www.w3.org/2000/svg" xmlns:xlink="http://www.w3.org/1999/xlink" width="148.574" height="112.815" viewBox="0 0 148.574 112.815"><defs><linearGradient id="a" x1="1.01" y1="0.5" x2="0.01" y2="0.5" gradientUnits="objectBoundingBox"><stop offset="0" stop-color="#34a096"/><stop offset="1" stop-color="#14645d"/></linearGradient><linearGradient id="b" x1="0.846" y1="0.5" x2="-0.154" y2="0.5" xlink:href="#a"/><linearGradient id="c" x1="0.967" y1="0.5" x2="-0.033" y2="0.5" xlink:href="#a"/><linearGradient id="d" x1="0.97" y1="0.5" x2="-0.03" y2="0.5" xlink:href="#a"/><linearGradient id="e" x1="0.912" y1="0.5" x2="-0.088" y2="0.5" xlink:href="#a"/><linearGradient id="f" x1="-0.001" y1="0.501" x2="1" y2="0.498" xlink:href="#a"/><linearGradient id="g" x1="0" y1="0.5" x2="1" y2="0.5" xlink:href="#a"/></defs><g transform="translate(30.142 26.653)"><path d="M127.754,104.3H69.039a8.711,8.711,0,0,1-8.7-8.7V81.5a8.711,8.711,0,0,1,8.7-8.7h58.715a8.711,8.711,0,0,1,8.7,8.7V95.6A8.711,8.711,0,0,1,127.754,104.3ZM69.039,75.7a5.81,5.81,0,0,0-5.8,5.8V95.6a5.811,5.811,0,0,0,5.8,5.8h58.715a5.812,5.812,0,0,0,5.8-5.8V81.5a5.811,5.811,0,0,0-5.8-5.8Z" transform="translate(-60.337 -72.804)" fill="url(#a)"/></g><g transform="translate(45.38 36.884)"><path d="M85.545,90.925a2.47,2.47,0,0,0-1.57-.913v-.08a1.966,1.966,0,0,0,1.286-.789,2.815,2.815,0,0,0,.479-1.694,2.409,2.409,0,0,0-1.1-2.208,6.922,6.922,0,0,0-3.547-.7H77.519V96.025h4.292a4.91,4.91,0,0,0,3.086-.878,3.3,3.3,0,0,0,.647-4.221Zm-5.6-4.39h1.286a3.046,3.046,0,0,1,1.525.293,1.006,1.006,0,0,1,.479.94,1.133,1.133,0,0,1-.443,1.02,2.571,2.571,0,0,1-1.428.3H79.949Zm3.077,7.095a2.358,2.358,0,0,1-1.49.39H79.949v-3h1.508c1.366,0,2.049.479,2.049,1.428A1.42,1.42,0,0,1,83.026,93.63Z" transform="translate(-77.519 -84.363)" fill="url(#b)"/><path d="M98.654,85.865A5.2,5.2,0,0,0,94.61,84.34a5.278,5.278,0,0,0-4.062,1.517,6.134,6.134,0,0,0-1.419,4.372,6.258,6.258,0,0,0,1.41,4.4,6.12,6.12,0,0,0,8.106,0,7.492,7.492,0,0,0,.009-8.762Zm-4.062,8.257a2.562,2.562,0,0,1-2.182-.976,4.788,4.788,0,0,1-.727-2.9,4.725,4.725,0,0,1,.736-2.9,2.556,2.556,0,0,1,2.191-.976c1.933,0,2.9,1.286,2.9,3.876S96.534,94.122,94.592,94.122Z" transform="translate(-78.833 -84.34)" fill="url(#c)"/><path d="M113.093,85.865a5.218,5.218,0,0,0-4.053-1.525,5.291,5.291,0,0,0-4.062,1.517,7.486,7.486,0,0,0,0,8.771,6.12,6.12,0,0,0,8.106,0,7.53,7.53,0,0,0,.009-8.762Zm-4.062,8.257a2.54,2.54,0,0,1-2.182-.976,6.081,6.081,0,0,1,0-5.8,2.567,2.567,0,0,1,2.191-.976c1.933,0,2.9,1.286,2.9,3.876S110.973,94.122,109.031,94.122Z" transform="translate(-80.466 -84.34)" fill="url(#d)"/><path d="M127.81,96.025h-2.767l-3.007-4.833-1.028.736v4.1h-2.439V84.54h2.439V89.8l.957-1.348,3.113-3.911h2.7l-4,5.082Z" transform="translate(-82.164 -84.363)" fill="url(#e)"/></g><g transform="translate(0 0)"><path d="M167.189,108.829a21.115,21.115,0,0,0-4.434-2.838V49.4a6.661,6.661,0,0,0-6.66-6.651H33A6.654,6.654,0,0,0,26.349,49.4v82.423A6.661,6.661,0,0,0,33,138.485H69.725v13.533H58.4a1.774,1.774,0,0,0,0,3.547h72.3a1.774,1.774,0,1,0,0-3.547H119.37V138.485h17.24a21.424,21.424,0,1,0,30.578-29.656Zm-51.366,43.189H73.272V138.485h42.551ZM33,134.938a3.115,3.115,0,0,1-3.1-3.113V49.4A3.107,3.107,0,0,1,33,46.3H156.094a3.109,3.109,0,0,1,3.113,3.1v55.268a20.949,20.949,0,0,0-3.822-.683V49.277H33.719v71.746h98.812a21.465,21.465,0,0,0,1.845,13.915Zm119.485-82.76v51.756a21.4,21.4,0,0,0-15.467,7.716,21.178,21.178,0,0,0-3.689,6.483H36.619V52.177Zm14.784,84.552a17.885,17.885,0,0,1-25.169,2.35c-.231-.2-.452-.39-.674-.594a17.349,17.349,0,0,1-2.98-3.547,17.945,17.945,0,0,1-2.279-13.915,17.37,17.37,0,0,1,.984-2.891,17.8,17.8,0,0,1,15.334-10.642,17.6,17.6,0,0,1,2.9.062,17.326,17.326,0,0,1,3.822.834,17.9,17.9,0,0,1,5.711,3.175A17.886,17.886,0,0,1,167.269,136.729Z" transform="translate(-26.349 -42.75)" fill="url(#f)"/><path d="M177.348,141.609c-.124.177-.266.355-.408.523a11.689,11.689,0,0,1-16.478,1.534.878.878,0,0,1-.1-.089,11.632,11.632,0,0,1-4.1-7.822,1.777,1.777,0,0,1,3.539-.328,8.152,8.152,0,0,0,14.1,4.78c.106-.106.2-.222.3-.337a8.1,8.1,0,0,0,1.845-5.968c-.018-.222-.053-.443-.089-.665a4.964,4.964,0,0,0-.106-.5,3.986,3.986,0,0,0-.151-.532,3.51,3.51,0,0,0-.133-.4c-.044-.133-.1-.257-.151-.381a8.1,8.1,0,0,0-.364-.736,4.234,4.234,0,0,0-.222-.381c-.062-.106-.133-.2-.2-.31-.1-.133-.2-.275-.3-.4-.124-.16-.257-.319-.39-.461-.009-.018-.027-.027-.035-.035a8.273,8.273,0,0,0-3.822-2.324,7.989,7.989,0,0,0-2.12-.284l1.073.913a1.774,1.774,0,0,1,.381,2.253,2.508,2.508,0,0,1-.177.248,1.768,1.768,0,0,1-2.483.222.031.031,0,0,0-.018-.009l-.541-.461-3.405-2.891-1.2-1.02,4.186-5.9a1.778,1.778,0,1,1,2.9,2.057l-.745,1.046a11.486,11.486,0,0,1,5.968,1.65,11.693,11.693,0,0,1,3.441,17Z" transform="translate(-41.049 -51.39)" fill="url(#g)"/></g></svg>