<svg xmlns="http://www.w3.org/2000/svg" xmlns:xlink="http://www.w3.org/1999/xlink" width="194.871" height="29.521" viewBox="0 0 194.871 29.521"><defs><clipPath id="a"><path d="M969,30h15.295V47.605H969Zm0,0" transform="translate(-969 -30)"/></clipPath><clipPath id="b"><path d="M0,0H29.651V29.521H0ZM0,0"/></clipPath></defs><path d="M408.156,33.024V49.474H413.4V32.719Zm0,0" transform="translate(-332.516 -26.655)" fill="#5d727c" fill-rule="evenodd"/><path d="M407.841,48.948h5.06V32.384l-5.06.3Zm5.246.185h-5.431V32.5l5.431-.316" transform="translate(-332.109 -26.222)" fill="#fff"/><path d="M635.121,39.975V30.86l5.245-.313V47.727h-5.245V46.82c-2.447,2.2-5.985,1.257-5.985,1.257-3.6-1.144-3.43-5.447-3.43-5.447V30.86l5.246-.313v9.428s-.193,3.187,2.051,3.213c2.345.027,2.119-3.213,2.119-3.213" transform="translate(-509.748 -24.886)" fill="#5d727c" fill-rule="evenodd"/><path d="M625.4,30.514V42.2c0,.046-.123,4.25,3.364,5.359a7.761,7.761,0,0,0,1.779.2,6.1,6.1,0,0,0,4.117-1.433l.155-.139V47.2h5.059V30.213l-5.059.3v9.028a4.128,4.128,0,0,1-.761,2.722,1.863,1.863,0,0,1-1.422.584h-.03a1.821,1.821,0,0,1-1.369-.579,4.2,4.2,0,0,1-.773-2.732V30.213Zm5.143,17.423a7.783,7.783,0,0,1-1.83-.2c-3.627-1.153-3.5-5.5-3.5-5.541V30.34l5.43-.324v9.527a4.1,4.1,0,0,0,.724,2.6,1.643,1.643,0,0,0,1.236.52h.027a1.684,1.684,0,0,0,1.287-.526,4.024,4.024,0,0,0,.711-2.589V30.34l5.43-.324V47.387h-5.43v-.8a6.357,6.357,0,0,1-4.086,1.347" transform="translate(-509.345 -24.453)" fill="#fff"/><path d="M452.6,31.4V29.914l-5.245.305V46.669H452.6V37.335c.433-1.021,1.483-2.311,4.035-2.722V29.3s-1.955-.41-4.035,2.1" transform="translate(-364.448 -23.85)" fill="#5d727c" fill-rule="evenodd"/><path d="M447.037,46.167H452.1v-9.26l.007-.018c.434-1.025,1.486-2.332,4.028-2.764V28.971a2.159,2.159,0,0,0-.236-.012,4.864,4.864,0,0,0-3.635,2.092l-.164.2V29.6l-5.059.3Zm5.245.185h-5.43V29.722l5.43-.316V30.74a4.935,4.935,0,0,1,3.614-1.967,1.9,1.9,0,0,1,.348.027l.073.016v5.467l-.077.012c-2.5.4-3.533,1.658-3.958,2.65" transform="translate(-364.041 -23.441)" fill="#fff"/><path d="M919.988,29.195V27.669l-5.246.313V44.85h5.246V35.279c.433-1.048,1.483-2.369,4.035-2.791V27.04s-1.956-.421-4.035,2.154" transform="translate(-745.221 -22.008)" fill="#5d727c" fill-rule="evenodd"/><path d="M914.427,44.351h5.06v-9.5l.007-.017A4.87,4.87,0,0,1,923.523,32v-5.29a2.168,2.168,0,0,0-.236-.012c-.572,0-2.071.209-3.635,2.145l-.165.2V27.361l-5.06.3Zm5.245.185h-5.431V27.489l5.431-.324v1.367a4.889,4.889,0,0,1,3.615-2.016,1.785,1.785,0,0,1,.348.028l.073.015v5.6l-.078.012c-2.5.413-3.532,1.7-3.958,2.719" transform="translate(-744.814 -21.602)" fill="#fff"/><path d="M238.129,34.455v5.312h-4.438V34.148l-5.246.306V50.9h5.246V44.363h4.438V50.9h5.245V34.148" transform="translate(-186.109 -27.82)" fill="#5d727c" fill-rule="evenodd"/><path d="M237.814,50.378h5.06V33.817l-5.06.295V39.43h-4.623V33.817l-5.061.295V50.378h5.061V43.841h4.623Zm5.246.185h-5.431V44.026h-4.252v6.538h-5.432V33.937l5.432-.316v5.623h4.252V33.937l5.431-.316" transform="translate(-185.702 -27.39)" fill="#fff"/><path d="M322.822,43.445a2.252,2.252,0,0,1-2.425-2.023,2.465,2.465,0,0,1,4.85,0,2.251,2.251,0,0,1-2.425,2.023m-5.85-13.056v4.6c8.4-2.555,7.453,1.158,7.453,1.158l-.012.317a7.121,7.121,0,0,0-3.1-.469c-3.971-.1-6.2,2.524-6.277,5.635-.1,3.929,2.81,5.635,6.277,5.635a6.838,6.838,0,0,0,2.835-.606c.2-.408.6.079.6.079h5.447V33.964c0-6.845-13.214-3.575-13.214-3.575" transform="translate(-256.648 -24.121)" fill="#5d727c" fill-rule="evenodd"/><path d="M322.414,39.086a2.163,2.163,0,0,0-2.332,1.931,2.374,2.374,0,0,0,4.664,0,2.163,2.163,0,0,0-2.332-1.931m0,4.046a2.345,2.345,0,0,1-2.517-2.115,2.555,2.555,0,0,1,5.035,0,2.346,2.346,0,0,1-2.518,2.115m-1.735-7.456a5.548,5.548,0,0,0-5.962,5.547,5.076,5.076,0,0,0,1.339,3.83,7.392,7.392,0,0,0,7.614,1.126.315.315,0,0,1,.281-.184.663.663,0,0,1,.423.242h5.313V33.558c0-2.829-2.268-4.263-6.74-4.263a30.463,30.463,0,0,0-6.288.761v4.4c3.816-1.147,6.28-1.144,7.157-.018a1.641,1.641,0,0,1,.3,1.313l-.017.453-.129-.067a6.189,6.189,0,0,0-2.723-.452l-.342-.007c-.074,0-.148,0-.22,0m.222,11.273a6.849,6.849,0,0,1-4.979-1.766,5.255,5.255,0,0,1-1.391-3.964,5.725,5.725,0,0,1,6.147-5.728c.074,0,.149,0,.224,0l.342.007a6.672,6.672,0,0,1,2.673.41l.009-.195a1.476,1.476,0,0,0-.262-1.166c-.827-1.059-3.3-1.03-7.074.12l-.119.036v-4.8l.07-.017a30.7,30.7,0,0,1,6.4-.783c4.531,0,6.926,1.538,6.926,4.448V46.421h-5.584l-.028-.035c-.043-.054-.194-.207-.308-.207-.019,0-.076,0-.131.111l-.015.03-.03.014a6.9,6.9,0,0,1-2.873.614" transform="translate(-256.24 -23.715)" fill="#fff"/><path d="M721.312,22.546h-2.49v-4.82l-5.244,2.689v2.131h-1.144V27.3h1.144v9.987h5.244V27.3h2.49" transform="translate(-580.405 -14.441)" fill="#5d727c" fill-rule="evenodd"/><path d="M713.264,36.525h5.059V26.539h2.489V21.974h-2.489v-4.76l-5.059,2.594v2.167h-1.144v4.565h1.144Zm5.244.185h-5.429V26.724h-1.144V21.789h1.144V19.694l5.429-2.783v4.878H721v4.936h-2.489" transform="translate(-579.998 -13.776)" fill="#fff"/><path d="M775.019,22.546h-2.488v-4.82l-5.245,2.689v2.131h-1.144V27.3h1.144v9.987h5.245V27.3h2.488" transform="translate(-624.159 -14.441)" fill="#5d727c" fill-rule="evenodd"/><path d="M766.971,36.525h5.06V26.539h2.488V21.974h-2.488v-4.76l-5.06,2.594v2.167h-1.144v4.565h1.144Zm5.245.185h-5.431V26.724h-1.144V21.789h1.144V19.694l5.431-2.783v4.878H774.7v4.936h-2.488" transform="translate(-623.752 -13.776)" fill="#fff"/><path d="M556.427,40.17A3.8,3.8,0,0,1,552.88,42.5a3.627,3.627,0,1,1,0-7.246,3.8,3.8,0,0,1,3.547,2.332V30.906a9.617,9.617,0,0,0-3.762-.765,9.066,9.066,0,0,0-9.274,8.841,9.065,9.065,0,0,0,9.274,8.84,9.616,9.616,0,0,0,3.762-.765" transform="translate(-442.689 -24.555)" fill="#5d727c" fill-rule="evenodd"/><path d="M552.257,29.826a8.982,8.982,0,0,0-9.181,8.748,8.982,8.982,0,0,0,9.181,8.748,9.489,9.489,0,0,0,3.67-.734V40.177a3.943,3.943,0,0,1-3.454,2.01,3.72,3.72,0,1,1,0-7.431,3.942,3.942,0,0,1,3.454,2.01V30.56a9.492,9.492,0,0,0-3.67-.734m0,17.682a9.168,9.168,0,0,1-9.366-8.933,9.168,9.168,0,0,1,9.366-8.934,9.683,9.683,0,0,1,3.8.772l.056.024V37.66l-.179-.446a3.727,3.727,0,0,0-3.461-2.273,3.534,3.534,0,1,0,0,7.06,3.726,3.726,0,0,0,3.461-2.272l.179-.446V46.71l-.056.024a9.672,9.672,0,0,1-3.8.773" transform="translate(-442.282 -24.148)" fill="#fff"/><path d="M821.691,36.65a3.446,3.446,0,0,1,6.446-.035Zm11.9,2.366a8.675,8.675,0,1,0-8.669,9c2.395,0,4.763-.379,6.433-2.009l-2.325-4.6C828.3,42.614,826.4,43,824.923,43a3.484,3.484,0,0,1-3.278-2.251h11.771a8.559,8.559,0,0,0,.176-1.731" transform="translate(-664.985 -24.45)" fill="#5d727c" fill-rule="evenodd"/><path d="M824.516,34.09a3.369,3.369,0,0,0-3.077,2.06l6.134-.034a3.369,3.369,0,0,0-3.057-2.026m-3.386,2.246.071-.136a3.537,3.537,0,0,1,6.61-.037l.073.135Zm3.386-6.639a8.918,8.918,0,0,0,0,17.822c1.844,0,4.5-.2,6.319-1.935l-2.222-4.4c-.983,1.387-3.371,1.5-4.1,1.5a3.545,3.545,0,0,1-3.36-2.3l-.067-.134h11.843a8.34,8.34,0,0,0,.16-1.639,8.758,8.758,0,0,0-8.576-8.911m0,18.007a9.1,9.1,0,1,1,8.762-9.1,8.6,8.6,0,0,1-.178,1.75l-.015.075h-11.7a3.33,3.33,0,0,0,3.127,2.065c1.494,0,3.338-.406,4.028-1.546l.087-.143,2.431,4.812-.048.048c-1.87,1.824-4.6,2.035-6.5,2.035" transform="translate(-664.578 -24.043)" fill="#fff"/><path d="M984.752,31.175l-5.849-.628-.736,1.945-.007,0L976.683,36.2l-2-5.2-.092-.04h-4.873l4.438,12.048-2.018,4.82H978.2" transform="translate(-790.013 -24.886)" fill="#5d727c" fill-rule="evenodd"/><g transform="translate(179.576 5.56)" clip-path="url(#a)"><path d="M971.7,47.3h5.849l6.49-16.486-5.658-.607-.743,1.968-.009,0L976.1,36.018l-2.067-5.383-.038-.017h-4.721l4.4,11.957Zm5.977.185h-6.256l2.057-4.915-4.471-12.138,5.042.007.127.055L976.1,35.51l1.423-3.583.007,0,.727-1.922,6.041.649" transform="translate(-969.007 -30.006)" fill="#fff"/></g><path d="M1029.325,107.784a1.487,1.487,0,1,1,1.256-1.475,1.355,1.355,0,0,1-1.256,1.475m0-3.257a1.8,1.8,0,1,0,1.61,1.782,1.685,1.685,0,0,0-1.61-1.782" transform="translate(-837.246 -85.156)" fill="#5d727c" fill-rule="evenodd"/><path d="M1033.4,109.548v-.6h.36c.178,0,.391.035.391.284,0,.294-.195.318-.417.318Zm.573.265a.5.5,0,0,0,.48-.558c0-.418-.222-.587-.667-.587h-.686v2.041h.3v-.882h.289l.471.882h.324" transform="translate(-841.645 -88.53)" fill="#5d727c" fill-rule="evenodd"/><g clip-path="url(#b)"><path d="M14.761,0A14.761,14.761,0,1,0,29.521,14.761,14.761,14.761,0,0,0,14.761,0m0,2.224A12.537,12.537,0,1,1,2.224,14.761,12.551,12.551,0,0,1,14.761,2.224" fill="#e78125"/></g><path d="M26.188,34.455v5.312H21.75V34.148l-5.246.306V50.9H21.75V44.363h4.438V50.9h5.246V34.148" transform="translate(-13.445 -27.82)" fill="#5d727c" fill-rule="evenodd"/><path d="M25.559,49.853h4.875V33.483l-4.875.284V39.09H20.75V33.483l-4.876.284V49.853H20.75V43.315h4.809Zm5.245.371H25.188V43.686H21.121v6.538H15.5V33.417l5.617-.327v5.629h4.068v-5.3L30.8,33.09" transform="translate(-12.631 -26.958)" fill="#fff"/><path d="M85.579,40.17A3.8,3.8,0,0,1,82.031,42.5a3.627,3.627,0,1,1,0-7.246,3.8,3.8,0,0,1,3.548,2.332V30.906a9.621,9.621,0,0,0-3.763-.765,9.065,9.065,0,0,0-9.273,8.841,9.065,9.065,0,0,0,9.273,8.84,9.62,9.62,0,0,0,3.763-.765" transform="translate(-59.099 -24.555)" fill="#5d727c" fill-rule="evenodd"/><path d="M81,29.511a8.89,8.89,0,0,0-9.088,8.656A8.889,8.889,0,0,0,81,46.822a9.4,9.4,0,0,0,3.578-.7V40.1a4.057,4.057,0,0,1-3.363,1.77,3.812,3.812,0,1,1,0-7.616,4.057,4.057,0,0,1,3.363,1.77V30.215a9.4,9.4,0,0,0-3.578-.7m0,17.682a9.26,9.26,0,0,1-9.459-9.026A9.261,9.261,0,0,1,81,29.141a9.78,9.78,0,0,1,3.834.78l.114.048v7.765l-.358-.892a3.632,3.632,0,0,0-3.376-2.215,3.442,3.442,0,1,0,0,6.875,3.634,3.634,0,0,0,3.376-2.214l.358-.891v7.969l-.114.048a9.768,9.768,0,0,1-3.834.78" transform="translate(-58.285 -23.74)" fill="#fff"/></svg>