<svg xmlns="http://www.w3.org/2000/svg" xmlns:xlink="http://www.w3.org/1999/xlink" width="109.134" height="122.374" viewBox="0 0 109.134 122.374"><defs><linearGradient id="a" y1="0.5" x2="1" y2="0.5" gradientUnits="objectBoundingBox"><stop offset="0" stop-color="#9b4a69"/><stop offset="1" stop-color="#f288af"/></linearGradient><linearGradient id="i" x1="0" x2="1" xlink:href="#a"/><linearGradient id="j" x1="0" x2="1" xlink:href="#a"/></defs><g transform="translate(85.671 -1261.02)"><g transform="translate(-85.671 1261.02)"><g transform="translate(4.329 51.402)"><path d="M-67.521,1342.281v.007l-11.961-7.778Z" transform="translate(79.481 -1334.51)" fill="url(#a)"/><path d="M-24.689,1370.123l-33.692-21.886v-.007Z" transform="translate(73.139 -1338.634)" fill="url(#a)"/><path d="M-9.552,1383.68l-.671.434-.028-.021Z" transform="translate(58.674 -1349.288)" fill="url(#a)"/></g><g transform="translate(3.518 54.214)"><path d="M-67.226,1347.245l-.643-.413-12.772-8.3,12.772,8.309.636.413.581.378,1.581,1.028v-.007Z" transform="translate(80.641 -1338.53)" fill="url(#a)"/></g><g transform="translate(16.926 60.998)"><path d="M-61.464,1350.16l-.007.007.581.378,1.581,1.021Zm2.154,1.406v.007l5.365,3.483Zm0-3.336v.007l33.692,21.886Zm33.664,25.208.028.021.671-.434Z" transform="translate(61.471 -1348.23)" fill="url(#a)"/></g><g transform="translate(16.29 62.516)"><path d="M-59.583,1352.219l-2.154-1.406-.643-.413v.007l.636.413.581.378,1.581,1.028,5.365,3.483Zm33.664,21.872.028.021.671-.434Z" transform="translate(62.381 -1350.4)" fill="url(#a)"/></g><path d="M19.175,1312.044l-.014-.783h-.79L3.7,1296.873v-26.635h-27.18l-9.407-9.219-9.407,9.219H-69.381v26.544l-14.772,14.478h-.8v.79l-.72.72.72.567v49.583a13.379,13.379,0,0,0,13.366,13.366h64.1a1.4,1.4,0,0,0,1.4-1.4,1.394,1.394,0,0,0-1.4-1.4h-64.1a10.582,10.582,0,0,1-10.569-10.569v-47.688l12.772,8.3.643.413,2.154,1.406,5.365,3.49,1.476.958,4.071,2.644.741.483,19.4,12.6v.007l-25.285,15.08a1.4,1.4,0,0,0-.49,1.917,1.4,1.4,0,0,0,1.2.685,1.373,1.373,0,0,0,.72-.2l26.467-15.786.7-.413.042-.028a.252.252,0,0,0,.07-.049l30.95-20.116,17.542-11.4v32.629a1.4,1.4,0,1,0,2.8,0v-34.427l.853-.531Zm-88.556,8.156-11.96-7.778,11.96-11.723Zm36.49-55.263,5.407,5.3H-38.3Zm33.79,57-33.79,21.969-33.692-21.885v-48.989H.9Zm2.8-1.812v-19.34l11.863,11.632Z" transform="translate(85.671 -1261.02)" fill="url(#a)"/><g transform="translate(58.975 87.292)"><path d="M22.469,1400.723a1.4,1.4,0,0,1-.663-.168l-22.425-12.1a1.4,1.4,0,0,1-.566-1.9,1.4,1.4,0,0,1,1.9-.567l22.425,12.1a1.4,1.4,0,0,1-.666,2.63Z" transform="translate(1.354 -1385.822)" fill="url(#a)"/></g><g transform="translate(29.919 24.747)"><path d="M-.047,1299.2H-41.5a1.4,1.4,0,0,1-1.4-1.4,1.4,1.4,0,0,1,1.4-1.4H-.047a1.4,1.4,0,0,1,1.4,1.4A1.4,1.4,0,0,1-.047,1299.2Z" transform="translate(42.895 -1296.401)" fill="url(#i)"/></g><g transform="translate(29.919 36.397)"><path d="M-.047,1315.856H-41.5a1.4,1.4,0,0,1-1.4-1.4,1.4,1.4,0,0,1,1.4-1.4H-.047a1.4,1.4,0,0,1,1.4,1.4A1.4,1.4,0,0,1-.047,1315.856Z" transform="translate(42.895 -1313.058)" fill="url(#j)"/></g><g transform="translate(29.919 59.786)"><path d="M-32.209,1349.295H-41.5a1.4,1.4,0,0,1-1.4-1.4,1.4,1.4,0,0,1,1.4-1.4h9.287a1.4,1.4,0,0,1,1.4,1.4A1.4,1.4,0,0,1-32.209,1349.295Z" transform="translate(42.895 -1346.497)" fill="url(#a)"/></g><g transform="translate(29.919 48.05)"><path d="M-26.748,1332.516H-41.5a1.4,1.4,0,0,1-1.4-1.4,1.4,1.4,0,0,1,1.4-1.4h14.748a1.4,1.4,0,0,1,1.4,1.4A1.4,1.4,0,0,1-26.748,1332.516Z" transform="translate(42.895 -1329.718)" fill="url(#j)"/></g><g transform="translate(49.478 59.786)"><path d="M1.215,1349.295H-13.533a1.4,1.4,0,0,1-1.4-1.4,1.4,1.4,0,0,1,1.4-1.4H1.215a1.4,1.4,0,1,1,0,2.8Z" transform="translate(14.932 -1346.497)" fill="url(#a)"/></g><g transform="translate(52.636 48.05)"><path d="M-2.678,1332.516h-6.34a1.4,1.4,0,0,1-1.4-1.4,1.4,1.4,0,0,1,1.4-1.4h6.34a1.4,1.4,0,0,1,1.4,1.4A1.4,1.4,0,0,1-2.678,1332.516Z" transform="translate(10.417 -1329.718)" fill="url(#j)"/></g></g><g transform="translate(-1.724 1353.004)"><g transform="translate(0 0)"><path d="M55.486,1414.828a3.97,3.97,0,0,0-2.4.8l-7.743-5.176a5.725,5.725,0,0,0-.287-4.966l8.4-5.414a3.987,3.987,0,0,0,2.028.553,4.046,4.046,0,1,0-4.043-4.05,3.944,3.944,0,0,0,.224,1.322l-8.575,5.526a5.66,5.66,0,0,0-3.029-.874,5.714,5.714,0,1,0,3.609,10.149l7.876,5.274a3.839,3.839,0,0,0-.1.9,4.046,4.046,0,1,0,4.043-4.043Zm0-19.5a1.248,1.248,0,1,1-1.245,1.245A1.249,1.249,0,0,1,55.486,1395.328Zm-15.423,15.849a2.917,2.917,0,1,1,2.917-2.917A2.919,2.919,0,0,1,40.063,1411.177Zm15.423,8.946a1.248,1.248,0,1,1,1.252-1.252A1.249,1.249,0,0,1,55.486,1420.123Z" transform="translate(-34.349 -1392.53)" fill="url(#a)"/></g></g></g></svg>