<svg xmlns="http://www.w3.org/2000/svg" xmlns:xlink="http://www.w3.org/1999/xlink" width="127.34" height="100.108" viewBox="0 0 127.34 100.108"><defs><linearGradient id="a" x1="1.633" y1="-10.748" x2="1.633" y2="-10.761" gradientUnits="objectBoundingBox"><stop offset="0" stop-color="#c59d48"/><stop offset="1" stop-color="#9d7d3a"/></linearGradient><linearGradient id="b" x1="1.3" y1="-16.588" x2="1.3" y2="-16.607" xlink:href="#a"/><linearGradient id="c" x1="1.75" y1="-23.604" x2="1.75" y2="-23.63" xlink:href="#a"/></defs><g transform="translate(-32.376 -41.247)"><path d="M97.185,134.815a104.181,104.181,0,0,1-23.975,2.568c-22.837,0-36.858-5.7-36.858-9.8V124.64c6.933,4.936,21.946,7.505,36.858,7.505a117.775,117.775,0,0,0,19.1-1.493,1.99,1.99,0,0,0-.576-3.938l-.083.014A113.647,113.647,0,0,1,73.2,128.162c-22.84,0-36.857-5.7-36.857-9.79,0-1.459,1.979-3.183,5.342-4.712,6.126,5.671,22.23,8.621,38.224,8.621,2.621,0,5.248-.079,7.8-.233a1.991,1.991,0,0,0,1.857-2.106,2.039,2.039,0,0,0-2.106-1.857c-2.476.148-5.02.225-7.561.225-19.938,0-33.149-4.348-36.184-8.174-.037-.048-.061-.107-.1-.151a2.571,2.571,0,0,1-.571-1.47v-2.945c6.932,4.937,21.946,7.506,36.854,7.506q2.969,0,5.836-.127a1.994,1.994,0,1,0-.186-3.983c-1.839.082-3.713.126-5.642.126-22.835,0-36.855-5.7-36.855-9.795,0-1.024,1.085-2.242,2.919-3.406a104.1,104.1,0,0,0,27.24,3.285,123.148,123.148,0,0,0,14.118-.8,1.99,1.99,0,0,0-.411-3.958l-.046.005a119.415,119.415,0,0,1-13.663.759A95.993,95.993,0,0,1,46.4,91.882a1.963,1.963,0,0,0-.3-.09c-6.279-1.932-9.746-4.359-9.746-6.391V82.465C43.284,87.4,58.3,89.983,73.209,89.983A117.711,117.711,0,0,0,92.29,88.494a1.991,1.991,0,0,0-.658-3.923,113.594,113.594,0,0,1-18.423,1.435c-22.837,0-36.857-5.717-36.857-9.816,0-1.592,2.631-4.151,9.816-6.367C52.635,75.208,68.317,78,83.9,78c20.293,0,40.834-4.73,40.834-13.772V55.022c0-9.044-20.543-13.775-40.834-13.775s-40.83,4.744-40.83,13.787v9.21a5.863,5.863,0,0,0,.506,2.246c-7.314,2.486-11.2,5.81-11.2,9.691v9.206c0,3.735,3.544,6.721,9.085,8.956a6.832,6.832,0,0,0-2.375,4.947V108.5a5.846,5.846,0,0,0,.324,1.857c-5.715,2.785-7.034,5.845-7.034,8.01v9.205c0,9.043,20.543,13.775,40.837,13.775a106.889,106.889,0,0,0,24.92-2.676,1.99,1.99,0,0,0-.946-3.866ZM83.9,74.032c-22.835,0-36.855-5.7-36.855-9.793V61.3C53.979,66.237,69,68.806,83.9,68.806s29.923-2.563,36.849-7.505v2.943C120.753,68.328,106.737,74.032,83.9,74.032Zm0-28.792c22.834,0,36.854,5.7,36.854,9.8S106.737,64.827,83.9,64.827s-36.857-5.7-36.857-9.793S61.061,45.241,83.9,45.241Z" fill="url(#a)"/><path d="M134.181,78.469a33.662,33.662,0,1,0,33.657,33.665v0A33.668,33.668,0,0,0,134.181,78.469Zm0,63.34a29.682,29.682,0,1,1,29.678-29.686v.006A29.682,29.682,0,0,1,134.181,141.809Z" transform="translate(-8.122 -4.437)" fill="url(#b)"/><path d="M140.037,112.972v-13c4.751.605,5.414,3.3,5.48,3.67a1.99,1.99,0,1,0,3.945-.53c-.036-.266-.915-6.322-9.425-7.148V92.748a1.99,1.99,0,0,0-3.979,0h0v3.285a11.063,11.063,0,0,0-6.835,3.125,9.054,9.054,0,0,0-2.356,6.956c.348,5.6,4.836,8.178,9.176,9.736v12.879a6.855,6.855,0,0,1-6.4-5.725,1.99,1.99,0,1,0-3.934.6c.459,2.988,2.435,7.94,10.347,9.166v4.177a1.99,1.99,0,1,0,3.979,0v-3.985a9.872,9.872,0,0,0,9.834-7.786C151.119,116.706,145.346,114.646,140.037,112.972Zm-9.181-7.1a5.109,5.109,0,0,1,1.274-3.979,6.848,6.848,0,0,1,3.923-1.857v11.546C131.776,109.723,130.972,107.751,130.856,105.867Zm15.079,18.725a5.935,5.935,0,0,1-5.9,4.385V117.158C144.628,118.7,146.612,119.984,145.935,124.592Z" transform="translate(-11.122 -5.902)" fill="url(#c)"/></g></svg>