<svg xmlns="http://www.w3.org/2000/svg" xmlns:xlink="http://www.w3.org/1999/xlink" width="114.62" height="145.06" viewBox="0 0 114.62 145.06"><defs><linearGradient id="a" x1="1.545" y1="-0.602" x2="-1.543" y2="2.654" gradientUnits="objectBoundingBox"><stop offset="0" stop-color="#d8805a"/><stop offset="1" stop-color="#7b4129"/></linearGradient><linearGradient id="b" x1="1.453" y1="-1.368" x2="-0.237" y2="1.974" xlink:href="#a"/><linearGradient id="c" x1="1.562" y1="-0.982" x2="-0.395" y2="1.749" xlink:href="#a"/></defs><g transform="translate(-38.164 -20.515)"><g transform="translate(55.638 20.515)"><path d="M77.605,74.234a20.351,20.351,0,0,1-20.291-20.27V40.8A20.382,20.382,0,0,1,77.593,20.515H77.6A20.392,20.392,0,0,1,97.884,40.793V53.957A20.4,20.4,0,0,1,77.605,74.234ZM77.6,24.165A16.723,16.723,0,0,0,60.964,40.8V53.957a16.635,16.635,0,0,0,33.27-.006V40.8A16.732,16.732,0,0,0,77.6,24.165Z" transform="translate(-57.314 -20.515)" fill="url(#a)"/></g><g transform="translate(38.164 79.507)"><path d="M91.756,137.514h0l-51.767-.054a1.826,1.826,0,0,1-1.823-1.825V122.868a37.732,37.732,0,0,1,6.5-21.062,38.481,38.481,0,0,1,4.609-5.567A37.622,37.622,0,0,1,75.918,85.164a38.065,38.065,0,0,1,36.269,27.316,1.825,1.825,0,0,1-1.4,2.3,21.355,21.355,0,0,0-17.2,20.914,1.824,1.824,0,0,1-1.825,1.823Zm-49.942-3.7,48.185.05a25.031,25.031,0,0,1,18.1-22.193,34.417,34.417,0,0,0-32.18-22.855A33.985,33.985,0,0,0,51.854,98.82a34.861,34.861,0,0,0-4.168,5.035,34.091,34.091,0,0,0-5.872,19.022Z" transform="translate(-38.164 -85.164)" fill="url(#b)"/></g><g transform="translate(88.753 101.532)"><path d="M155.986,141.492a30.191,30.191,0,1,1-60.382,0v-.024a30.2,30.2,0,0,1,24.35-29.6,29.577,29.577,0,0,1,5.841-.571A30.194,30.194,0,0,1,155.986,141.492Z" transform="translate(-93.779 -109.476)" fill="#fff3dc"/><path d="M125.62,173.344a32.021,32.021,0,0,1-6.191-63.437,31.423,31.423,0,0,1,6.191-.606,32.021,32.021,0,0,1,0,64.043Zm0-60.393a27.706,27.706,0,0,0-5.48.537,28.355,28.355,0,1,0,5.48-.537Z" transform="translate(-93.604 -109.301)" fill="url(#c)"/></g><g transform="translate(111.54 116.358)"><path d="M125.787,160.156v-4.029a17.063,17.063,0,0,1-7.211-1.823l1.272-4.962a14.979,14.979,0,0,0,7.04,1.866c2.418,0,4.072-.933,4.072-2.629,0-1.612-1.358-2.63-4.5-3.69-4.538-1.527-7.634-3.647-7.634-7.761,0-3.732,2.629-6.659,7.167-7.549v-4.03h4.156v3.732a15.272,15.272,0,0,1,6.15,1.4l-1.231,4.792a14.064,14.064,0,0,0-6.106-1.442c-2.757,0-3.647,1.187-3.647,2.374,0,1.4,1.485,2.29,5.089,3.648,5.047,1.78,7.083,4.114,7.083,7.931,0,3.774-2.672,7-7.549,7.846v4.325Z" transform="translate(-118.576 -125.549)" fill="#a86041"/></g></g></svg>