<svg xmlns="http://www.w3.org/2000/svg" xmlns:xlink="http://www.w3.org/1999/xlink" width="170.626" height="132.492" viewBox="0 0 170.626 132.492"><defs><linearGradient id="a" x1="1.429" y1="-0.057" x2="-1.909" y2="1.679" gradientUnits="objectBoundingBox"><stop offset="0" stop-color="#1cabe0"/><stop offset="0.975" stop-color="#107ba5"/><stop offset="1" stop-color="#107aa3"/></linearGradient><linearGradient id="b" x1="2.275" y1="-0.997" x2="-4.44" y2="4.664" xlink:href="#a"/><linearGradient id="c" x1="2.878" y1="-0.764" x2="-0.452" y2="0.973" xlink:href="#a"/><linearGradient id="d" x1="5.008" y1="-3.3" x2="-1.707" y2="2.361" xlink:href="#a"/><linearGradient id="e" x1="1.424" y1="-0.072" x2="-0.448" y2="0.987" xlink:href="#a"/><linearGradient id="f" x1="2.406" y1="-1.107" x2="-1.871" y2="2.499" xlink:href="#a"/></defs><g transform="translate(-16.269 -44.162)"><path d="M159.532,149.079a1.867,1.867,0,0,1-1.321-.533l1.29-1.33-1.371,1.246A132.854,132.854,0,0,1,145.664,132.3a104.763,104.763,0,0,1-8.481-15.437,1.848,1.848,0,0,1-.041-1.379,80.877,80.877,0,0,0,5.3-24.934c.019-.636.029-1.277.029-1.908a40.646,40.646,0,0,0-1.673-11.573,1.853,1.853,0,0,1,.547-1.914A27.375,27.375,0,0,1,186.9,95.636c0,.4,0,.809-.011,1.224a53.417,53.417,0,0,1-4.1,17.814,100.888,100.888,0,0,1-9.4,17.628,135.234,135.234,0,0,1-12.428,16.12c-.013.014-.076.078-.088.092a1.887,1.887,0,0,1-1.325.565Zm-18.655-33.02a102.161,102.161,0,0,0,7.884,14.21,136.348,136.348,0,0,0,10.761,14.192,136.208,136.208,0,0,0,10.762-14.194,97.263,97.263,0,0,0,9.057-16.97,49.773,49.773,0,0,0,3.839-16.546c.008-.366.008-.74.008-1.115a23.668,23.668,0,0,0-38.51-18.445,44.4,44.4,0,0,1,1.5,11.455c0,.668-.009,1.346-.03,2.026A83.921,83.921,0,0,1,140.877,116.059Z" fill="url(#a)"/><path d="M159.519,107.471a12.4,12.4,0,1,1,12.4-12.4A12.41,12.41,0,0,1,159.519,107.471Zm0-21.085a8.689,8.689,0,1,0,8.689,8.688A8.7,8.7,0,0,0,159.519,86.386Z" fill="url(#b)"/><path d="M43.643,149.076a1.829,1.829,0,0,1-.692-.135,1.676,1.676,0,0,1-.2-.093h0a2.09,2.09,0,0,1-.51-.389l-.069-.075A134.835,134.835,0,0,1,29.792,132.3a100.34,100.34,0,0,1-9.411-17.629,53.441,53.441,0,0,1-4.091-17.8c-.021-.4-.021-.821-.021-1.241A27.374,27.374,0,0,1,62.025,75.342a1.852,1.852,0,0,1,.535,1.895,40.539,40.539,0,0,0-1.625,11.409c0,.631.009,1.272.029,1.913a80.58,80.58,0,0,0,5.189,24.623,1.853,1.853,0,0,1-.038,1.364A102.416,102.416,0,0,1,57.5,132.3a133.388,133.388,0,0,1-12.427,16.118c-.012.014-.075.078-.088.092A1.886,1.886,0,0,1,43.643,149.076Zm0-77.117A23.7,23.7,0,0,0,19.975,95.636c0,.359,0,.718.018,1.087a49.806,49.806,0,0,0,3.83,16.577,96.593,96.593,0,0,0,9.066,16.967,135.881,135.881,0,0,0,10.755,14.19,136.457,136.457,0,0,0,10.76-14.19,99.769,99.769,0,0,0,8.015-14.515,83.617,83.617,0,0,1-5.16-25.075q-.031-1.028-.03-2.031a44.337,44.337,0,0,1,1.453-11.3A23.635,23.635,0,0,0,43.642,71.959Z" fill="url(#c)"/><path d="M43.642,107.471a12.4,12.4,0,1,1,12.4-12.4A12.411,12.411,0,0,1,43.642,107.471Zm0-21.085a8.689,8.689,0,1,0,8.689,8.688A8.7,8.7,0,0,0,43.642,86.386Z" fill="url(#d)"/><path d="M101.686,176.654a1.818,1.818,0,0,1-1.262-.5c-.017-.015-.063-.061-.079-.077l-.027-.029c-.036-.033-.07-.069-.1-.1A223.393,223.393,0,0,1,79.6,149.193a165.761,165.761,0,0,1-15.592-29.219c-.468-1.169-.915-2.348-1.342-3.528a84.257,84.257,0,0,1-5.41-25.769q-.031-1.028-.03-2.031a44.473,44.473,0,1,1,88.945,0c0,.668-.009,1.346-.03,2.026a84.584,84.584,0,0,1-5.523,26.093c-.4,1.077-.8,2.142-1.229,3.209A165.853,165.853,0,0,1,123.8,149.2a223.261,223.261,0,0,1-20.611,26.751l-.146.15A1.919,1.919,0,0,1,101.686,176.654Zm-1.226-.483,0,0Zm1.242-128.3a40.941,40.941,0,0,0-39.14,29.363,40.529,40.529,0,0,0-1.627,11.414c0,.631.009,1.272.029,1.913a80.58,80.58,0,0,0,5.189,24.623c.414,1.143.847,2.285,1.3,3.415A162.186,162.186,0,0,0,82.7,147.156a223.683,223.683,0,0,0,19,24.9,224,224,0,0,0,19-24.9A162.211,162.211,0,0,0,135.951,118.6c.413-1.034.807-2.068,1.191-3.111a80.854,80.854,0,0,0,5.3-24.931c.019-.637.029-1.278.029-1.909A40.762,40.762,0,0,0,101.7,47.869Z" fill="url(#e)"/><path d="M101.7,107.171a19.458,19.458,0,1,1,19.458-19.459A19.481,19.481,0,0,1,101.7,107.171Zm0-35.21a15.751,15.751,0,1,0,15.752,15.751A15.769,15.769,0,0,0,101.7,71.961Z" fill="url(#f)"/></g></svg>