<svg xmlns="http://www.w3.org/2000/svg" xmlns:xlink="http://www.w3.org/1999/xlink" width="179.238" height="141.762" viewBox="0 0 179.238 141.762"><defs><linearGradient id="a" y1="0.5" x2="1" y2="0.5" gradientUnits="objectBoundingBox"><stop offset="0" stop-color="#998ec4"/><stop offset="1" stop-color="#241d41"/></linearGradient></defs><g transform="translate(-1252.603 -789.684)"><path d="M1296.493,838.122l-13.6-44.437H1252.6v-4h33.249l14.466,47.268Z" fill="url(#a)"/><path d="M1413.914,889.91H1312.345l-20.393-66.654h139.889Zm-98.61-4h95.544l15.774-58.654H1297.358Z" fill="url(#a)"/><rect width="116.873" height="4" transform="translate(1303.94 853.591)" fill="url(#a)"/><rect width="4" height="62.653" transform="translate(1340.165 825.256)" fill="url(#a)"/><rect width="4" height="62.653" transform="translate(1381.67 825.256)" fill="url(#a)"/><rect width="14.139" height="4" transform="translate(1405.037 911.801)" fill="url(#a)"/><path d="M1319.763,915.8h-19.35l11.556-28.643,3.709,1.5-9.337,23.146h13.422Z" fill="url(#a)"/><rect width="22.735" height="4" transform="translate(1351.029 911.801)" fill="url(#a)"/><path d="M1335.394,931.446h-.01a17.637,17.637,0,0,1-12.45-30.113,17.748,17.748,0,0,1,12.452-5.154h.024a17.658,17.658,0,0,1,17.619,17.621v.024A17.655,17.655,0,0,1,1335.394,931.446Zm-.007-31.267a13.715,13.715,0,0,0-9.626,3.985,13.633,13.633,0,0,0,9.625,23.282h.008a13.65,13.65,0,0,0,13.635-13.623l2-.022h-2a13.651,13.651,0,0,0-13.623-13.623Z" fill="url(#a)"/><path d="M1389.4,931.446a17.633,17.633,0,1,1,17.639-17.646v.012A17.656,17.656,0,0,1,1389.4,931.446Zm0-31.267a13.633,13.633,0,1,0,13.639,13.633l2-.011h-2A13.652,13.652,0,0,0,1389.4,900.179Z" fill="url(#a)"/></g></svg>