<svg xmlns="http://www.w3.org/2000/svg" xmlns:xlink="http://www.w3.org/1999/xlink" width="115.07" height="141.56" viewBox="0 0 115.07 141.56"><defs><linearGradient id="a" x1="0.754" y1="1.008" x2="-0.208" y2="0.284" gradientUnits="objectBoundingBox"><stop offset="0" stop-color="#34a096"/><stop offset="1" stop-color="#14645d"/></linearGradient><linearGradient id="b" x1="0.936" y1="0.832" x2="-0.001" y2="0.119" xlink:href="#a"/><linearGradient id="c" x1="1.336" y1="9.408" x2="-1.08" y2="-16.347" xlink:href="#a"/><linearGradient id="d" x1="3.875" y1="2.341" x2="-3.633" y2="-1.703" xlink:href="#a"/><linearGradient id="e" x1="3.556" y1="1.455" x2="-4.028" y2="-0.881" xlink:href="#a"/><linearGradient id="f" x1="3.41" y1="18.252" x2="-0.812" y2="-7.503" xlink:href="#a"/><linearGradient id="g" x1="5.307" y1="15.44" x2="-2.979" y2="-10.315" xlink:href="#a"/><linearGradient id="h" x1="5.239" y1="17.666" x2="-1.871" y2="-8.089" xlink:href="#a"/><linearGradient id="i" x1="3.946" y1="15.221" x2="-2.083" y2="-10.535" xlink:href="#a"/><linearGradient id="j" x1="1.773" y1="1.64" x2="-1.659" y2="-1.432" xlink:href="#a"/><linearGradient id="k" x1="1.209" y1="1.184" x2="-2.223" y2="-2.125" xlink:href="#a"/><linearGradient id="l" x1="1.611" y1="12.884" x2="0.082" y2="-4.166" xlink:href="#a"/><linearGradient id="m" x1="2.077" y1="12.663" x2="-0.134" y2="-4.388" xlink:href="#a"/></defs><g transform="translate(562.62 -332.976)"><g transform="translate(-562.62 346.205)"><path d="M-462.461,475.981H-562.62V347.65h15.885V461.025h84.274Zm-96.553-3.606h92.947v-7.744h-84.274V351.256h-8.673Z" transform="translate(562.62 -347.65)" fill="url(#a)"/></g><g transform="translate(-550.338 332.976)"><path d="M-446.208,463.187H-549V332.976h102.788Zm-99.181-3.606h95.575v-123H-545.39Z" transform="translate(548.996 -332.976)" fill="url(#b)"/></g><g transform="translate(-533.846 434.849)"><path d="M-492.637,449.583H-528.9a1.8,1.8,0,0,1-1.8-1.8,1.8,1.8,0,0,1,1.8-1.8h36.263a1.8,1.8,0,0,1,1.8,1.8A1.8,1.8,0,0,1-492.637,449.583Z" transform="translate(530.703 -445.977)" fill="url(#c)"/></g><g transform="translate(-530.259 416.061)"><path d="M-514.287,447.4h-12.437V426.94a1.8,1.8,0,0,1,1.8-1.8h8.831a1.8,1.8,0,0,1,1.8,1.8Zm-8.831-3.606h5.225V428.743h-5.225Z" transform="translate(526.724 -425.137)" fill="url(#d)"/></g><g transform="translate(-513.572 399.395)"><path d="M-495.777,445.582h-12.437V408.454a1.8,1.8,0,0,1,1.8-1.8h8.831a1.8,1.8,0,0,1,1.8,1.8Zm-8.831-3.606h5.225V410.257h-5.225Z" transform="translate(508.214 -406.651)" fill="url(#e)"/></g><g transform="translate(-533.846 377.491)"><path d="M-509.69,385.96H-528.9a1.8,1.8,0,0,1-1.8-1.8,1.8,1.8,0,0,1,1.8-1.8h19.21a1.8,1.8,0,0,1,1.8,1.8A1.8,1.8,0,0,1-509.69,385.96Z" transform="translate(530.703 -382.354)" fill="url(#f)"/></g><g transform="translate(-507.956 377.491)"><path d="M-492.162,385.96h-8.019a1.8,1.8,0,0,1-1.8-1.8,1.8,1.8,0,0,1,1.8-1.8h8.019a1.8,1.8,0,0,1,1.8,1.8A1.8,1.8,0,0,1-492.162,385.96Z" transform="translate(501.984 -382.354)" fill="url(#g)"/></g><g transform="translate(-533.846 386.688)"><path d="M-518.958,396.161H-528.9a1.8,1.8,0,0,1-1.8-1.8,1.8,1.8,0,0,1,1.8-1.8h9.942a1.8,1.8,0,0,1,1.8,1.8A1.8,1.8,0,0,1-518.958,396.161Z" transform="translate(530.703 -392.555)" fill="url(#h)"/></g><g transform="translate(-517.414 386.688)"><path d="M-498.3,396.161h-12.372a1.8,1.8,0,0,1-1.8-1.8,1.8,1.8,0,0,1,1.8-1.8H-498.3a1.8,1.8,0,0,1,1.8,1.8A1.8,1.8,0,0,1-498.3,396.161Z" transform="translate(512.476 -392.555)" fill="url(#i)"/></g><g transform="translate(-490.151 377.491)"><path d="M-455.97,412.589h-24.462a1.8,1.8,0,0,1-1.8-1.8V384.157a1.8,1.8,0,0,1,1.8-1.8h24.462a1.8,1.8,0,0,1,1.8,1.8v26.629A1.8,1.8,0,0,1-455.97,412.589Zm-22.659-3.606h20.856V385.96h-20.856Z" transform="translate(482.235 -382.354)" fill="url(#j)"/></g><g transform="translate(-490.151 410.259)"><path d="M-455.97,446.769h-24.462a1.8,1.8,0,0,1-1.8-1.8V420.5a1.8,1.8,0,0,1,1.8-1.8h24.462a1.8,1.8,0,0,1,1.8,1.8v24.462A1.8,1.8,0,0,1-455.97,446.769Zm-22.659-3.606h20.856V422.307h-20.856Z" transform="translate(482.235 -418.701)" fill="url(#k)"/></g><rect width="63.005" height="5.447" transform="translate(-534.013 348.755)" opacity="0.35" fill="url(#l)"/><rect width="43.577" height="5.447" transform="translate(-534.013 361.337)" opacity="0.35" fill="url(#m)"/></g></svg>