<svg xmlns="http://www.w3.org/2000/svg" xmlns:xlink="http://www.w3.org/1999/xlink" width="105.301" height="105.301" viewBox="0 0 105.301 105.301"><defs><linearGradient id="a" x1="-0.223" y1="0.824" x2="1.436" y2="-0.229" gradientUnits="objectBoundingBox"><stop offset="0" stop-color="#9b8fc4"/><stop offset="1" stop-color="#251d41"/></linearGradient></defs><g transform="translate(360.829 -55.171)"><g transform="translate(-360.829 55.171)"><path d="M73.99,993.68a32.674,32.674,0,1,0,32.68,32.674A32.741,32.741,0,0,0,73.99,993.68Zm0,2.194a30.48,30.48,0,1,1-30.486,30.48A30.521,30.521,0,0,1,73.99,995.874Z" transform="translate(-1.369 -953.727)" fill="url(#a)"/><path d="M47.725,966.375A33.075,33.075,0,0,0,23.272,976.2a32.765,32.765,0,0,0,33.548,54.015,1.105,1.105,0,1,0-.686-2.1A30.537,30.537,0,0,1,20.8,1015.226q0-.023,0-.045a30.509,30.509,0,1,1,55.076-7.266,1.1,1.1,0,1,0,2.1.594,32.926,32.926,0,0,0-14.672-37.655,32.363,32.363,0,0,0-15.586-4.478Z" transform="translate(-14 -966.362)" fill="url(#a)"/><path d="M74.784,1007.428a1.1,1.1,0,0,0-.686,1.919,14.192,14.192,0,0,1,3.474,16.588c0,.015,0,.03,0,.045a13.945,13.945,0,0,1-15.129,7.906,1.1,1.1,0,1,0-.366,2.148,16.161,16.161,0,0,0,17.46-9.139,16.385,16.385,0,0,0-3.976-19.148A1.1,1.1,0,0,0,74.784,1007.428Z" transform="translate(7.756 -947.369)" fill="url(#a)"/><path d="M65.964,1021.868a1.1,1.1,0,0,0-.731.411l-4.845,5.8a1.1,1.1,0,0,0,.183,1.554l5.942,4.844a1.106,1.106,0,0,0,1.371-1.737l-5.073-4.158,4.114-4.89a1.1,1.1,0,0,0-.96-1.828Z" transform="translate(7.343 -940.695)" fill="url(#a)"/><path d="M66.1,1005.092a16.486,16.486,0,0,0-12.158,9.14c0,.015,0,.03,0,.045a16.45,16.45,0,0,0,4.479,19.33,1.1,1.1,0,1,0,1.371-1.691,13.992,13.992,0,0,1,11.244-24.631,1.112,1.112,0,1,0,.366-2.194,15.986,15.986,0,0,0-5.3,0Z" transform="translate(3.822 -948.551)" fill="url(#a)"/><path d="M62.572,1001.368a1.1,1.1,0,0,0-.594,1.965l4.982,4.159-4.022,4.935a1.106,1.106,0,0,0,1.737,1.371l4.662-5.8a1.1,1.1,0,0,0-.137-1.508l-5.8-4.844a1.1,1.1,0,0,0-.823-.274Z" transform="translate(7.992 -950.173)" fill="url(#a)"/><path d="M22.992,979.67a1.135,1.135,0,0,0-.96,1.1c-.034,8.1,0,16.046,0,24.174a1.14,1.14,0,0,0,1.1,1.1H62.756a1.14,1.14,0,0,0,1.1-1.1c.019-8.076,0-16.125,0-24.174a1.14,1.14,0,0,0-1.1-1.1H23.129a1.028,1.028,0,0,0-.137,0Zm1.234,2.193H61.659v4.89H24.226Zm0,7.083H61.659v14.9H24.226Z" transform="translate(-10.292 -960.208)" fill="url(#a)"/><path d="M26.531,989.587a1.1,1.1,0,1,0,0,2.194H41.34a1.1,1.1,0,1,0,0-2.194H26.531Z" transform="translate(-8.712 -955.621)" fill="url(#a)"/><path d="M41.408,989.577a1.066,1.066,0,0,0-.876,1.188,1.009,1.009,0,0,0,1.035,1.006h5.057a1.107,1.107,0,0,0,0-2.194H41.567a.868.868,0,0,0-.159,0Z" transform="translate(-1.73 -955.627)" fill="url(#a)"/><path d="M44.951,989.577a1.1,1.1,0,0,0-1.006,1.1v4.844a1.1,1.1,0,0,0,2.194,0v-4.844a1.1,1.1,0,0,0-1.188-1.1Z" transform="translate(-0.15 -955.627)" fill="url(#a)"/><path d="M41.488,989.59a1.1,1.1,0,0,0-.96,1.1v4.844a1.1,1.1,0,0,0,1.1,1.1h4.982a1.1,1.1,0,1,0,0-2.194H42.722v-3.747a1.1,1.1,0,0,0-1.234-1.1Z" transform="translate(-1.73 -955.623)" fill="url(#a)"/></g></g></svg>