<svg xmlns="http://www.w3.org/2000/svg" xmlns:xlink="http://www.w3.org/1999/xlink" width="116.565" height="143.843" viewBox="0 0 116.565 143.843"><defs><linearGradient id="a" x1="3.962" y1="-2.564" x2="0.097" y2="1.044" gradientUnits="objectBoundingBox"><stop offset="0" stop-color="#1aaade"/><stop offset="1" stop-color="#0e7aa3"/></linearGradient><linearGradient id="b" x1="2.95" y1="-1.621" x2="-0.91" y2="1.986" xlink:href="#a"/><linearGradient id="c" x1="3.458" y1="-2.096" x2="-0.403" y2="1.512" xlink:href="#a"/><linearGradient id="d" x1="1.587" y1="-0.338" x2="-1.056" y2="2.108" xlink:href="#a"/><linearGradient id="e" x1="24.786" y1="-2.437" x2="-18.965" y2="2.854" xlink:href="#a"/><linearGradient id="f" x1="1.273" y1="-7.26" x2="-0.032" y2="5.848" xlink:href="#a"/></defs><g transform="translate(-799.014 -556.4)"><g transform="translate(799.014 656.444)"><path d="M829.112,705.927h-30.1v-6.213a15.049,15.049,0,0,1,30.1,0Zm-27.439-2.659h24.78v-3.554a12.39,12.39,0,1,0-24.78,0ZM814.068,683.9a8.425,8.425,0,0,1-8.379-8.37V670.5a8.424,8.424,0,0,1,8.37-8.374h.009a8.422,8.422,0,0,1,8.37,8.37v5.031A8.423,8.423,0,0,1,814.068,683.9Zm0-19.117a5.758,5.758,0,0,0-5.716,5.721v5.021a5.716,5.716,0,1,0,11.431,0V670.5A5.754,5.754,0,0,0,814.063,664.787Z" transform="translate(-799.014 -662.128)" fill="url(#a)"/></g><g transform="translate(885.452 656.444)"><path d="M920.49,705.927H890.363v-6.213a15.064,15.064,0,0,1,30.127,0Zm-27.468-2.659h24.809v-3.554a12.4,12.4,0,0,0-24.809,0ZM905.446,683.9a8.425,8.425,0,0,1-8.379-8.37V670.5a8.424,8.424,0,0,1,8.37-8.374h.009a8.424,8.424,0,0,1,8.37,8.37v5.031A8.425,8.425,0,0,1,905.446,683.9Zm0-19.117a5.757,5.757,0,0,0-5.716,5.721v5.021a5.716,5.716,0,1,0,11.432,0V670.5A5.756,5.756,0,0,0,905.441,664.787Z" transform="translate(-890.363 -662.128)" fill="url(#b)"/></g><g transform="translate(841.94 656.444)"><path d="M874.506,705.927H844.379v-6.213a15.1,15.1,0,0,1,15.078-15.049h0a15.11,15.11,0,0,1,15.049,15.046Zm-27.468-2.659h24.81v-3.554a12.405,12.405,0,0,0-24.81,0ZM859.462,683.9a8.425,8.425,0,0,1-8.379-8.37V670.5a8.424,8.424,0,0,1,8.37-8.374h.009a8.424,8.424,0,0,1,8.37,8.37v5.031A8.425,8.425,0,0,1,859.462,683.9Zm0-19.117a5.755,5.755,0,0,0-5.715,5.72v5.022a5.716,5.716,0,1,0,11.431,0V670.5A5.756,5.756,0,0,0,859.457,664.787Z" transform="translate(-844.379 -662.128)" fill="url(#c)"/></g><g transform="translate(835.416 556.4)"><path d="M881.487,621l-44,0v-8.682a22.023,22.023,0,0,1,22-21.994h0a22,22,0,0,1,22,21.993Zm-41.344-2.662,38.685,0v-6.027a19.337,19.337,0,0,0-19.339-19.335h0a19.362,19.362,0,0,0-19.342,19.335Zm19.341-30.49a11.994,11.994,0,0,1-11.947-11.93v-7.624A12.021,12.021,0,0,1,859.477,556.4h.009a12.009,12.009,0,0,1,11.94,11.928v7.62A12,12,0,0,1,859.484,587.845Zm0-28.787a9.352,9.352,0,0,0-9.287,9.244v7.61a9.287,9.287,0,0,0,18.574.028v-7.606A9.345,9.345,0,0,0,859.482,559.058Z" transform="translate(-837.484 -556.4)" fill="url(#d)"/></g><g transform="translate(856.084 619.668)"><rect width="2.659" height="29.87" fill="url(#e)"/></g><g transform="translate(812.735 637.483)"><path d="M902.641,654.144h-2.659v-9.4H816.174v9.4h-2.659V642.09h89.126Z" transform="translate(-813.515 -642.09)" fill="url(#f)"/></g></g></svg>