<svg xmlns="http://www.w3.org/2000/svg" xmlns:xlink="http://www.w3.org/1999/xlink" width="106.62" height="126.05" viewBox="0 0 106.62 126.05"><defs><clipPath id="a"><path d="M51.305,9.3V14.43a2,2,0,1,0,4,0V9.3a2,2,0,1,0-4,0" fill="none"/></clipPath><clipPath id="b"><path d="M51.305,36.773v5.12a2,2,0,1,0,4,0v-5.12a2,2,0,1,0-4,0" fill="none"/></clipPath><clipPath id="c"><rect width="106.62" height="126.05" fill="none"/></clipPath><clipPath id="d"><path d="M31.714,25.6A21.629,21.629,0,0,1,53.306,4l0-2,0,2h.009a21.6,21.6,0,0,1,.01,43.2h-.01a21.629,21.629,0,0,1-21.6-21.6M53.3,0a25.6,25.6,0,0,0,.012,51.2h.012A25.6,25.6,0,0,0,53.315,0Z" fill="none"/></clipPath><clipPath id="e"><path d="M43.874,16.957a5.9,5.9,0,0,0-.381,6.178C45,25.974,48.578,27.6,53.31,27.6h.05c3.642,0,5.586,1.219,6.191,2.36a1.909,1.909,0,0,1-.141,2.07c-.782,1.152-2.921,2.237-6.486,1.856a31.917,31.917,0,0,1-6.255-1.646,2,2,0,0,0-1.4,3.744A35.9,35.9,0,0,0,52.4,37.851a17.471,17.471,0,0,0,1.871.1c3.767,0,6.852-1.318,8.452-3.677a5.923,5.923,0,0,0,.364-6.189c-1.511-2.852-5.056-4.487-9.729-4.487h-.044c-3.718,0-5.685-1.209-6.287-2.342a1.906,1.906,0,0,1,.157-2.053c.805-1.184,2.992-2.3,6.6-1.9a31.576,31.576,0,0,1,6.232,1.665,2,2,0,0,0,1.421-3.739,35.532,35.532,0,0,0-7.115-1.888,17.141,17.141,0,0,0-1.932-.111c-3.784,0-6.887,1.337-8.511,3.726" fill="none"/></clipPath><clipPath id="f"><path d="M51.305,10.45v4.524a2,2,0,1,0,4,0V10.45a2,2,0,0,0-4,0" fill="none"/></clipPath><clipPath id="g"><path d="M51.305,35.968v4.513a2,2,0,0,0,4,0V35.968a2,2,0,1,0-4,0" fill="none"/></clipPath><clipPath id="i"><path d="M4,116.959a17.895,17.895,0,0,1,31.067-12.107A21.618,21.618,0,0,0,31.41,116.97v5.08H4Zm2.416-15.483A21.758,21.758,0,0,0,0,116.97v7.08a2,2,0,0,0,2,2H33.41a2,2,0,0,0,2-2v-7.091a17.665,17.665,0,0,1,3.766-10.969,2,2,0,0,0,0-2.456,21.891,21.891,0,0,0-32.765-2.058m9.679-13.75a8.221,8.221,0,0,1-2.425-5.807V74.614a8.22,8.22,0,0,1,16.44.075v7.3a8.2,8.2,0,0,1-14.015,5.733m5.792-25.247A12.3,12.3,0,0,0,9.67,74.589v7.338a12.22,12.22,0,0,0,24.44.091V74.682a12.27,12.27,0,0,0-12.216-12.2Z" fill="none"/></clipPath><clipPath id="j"><path d="M75.21,116.97a21.577,21.577,0,0,0-3.667-12.123c.166-.18.339-.359.519-.541A17.905,17.905,0,0,1,102.62,116.97v5.08H75.21Zm-5.974-15.494a20.037,20.037,0,0,0-1.821,2.075,2,2,0,0,0,.02,2.442A17.63,17.63,0,0,1,71.21,116.97v7.08a2,2,0,0,0,2,2h31.41a2,2,0,0,0,2-2v-7.08a21.9,21.9,0,0,0-37.384-15.494M78.918,87.82a8.233,8.233,0,0,1-2.418-5.8V74.692a8.215,8.215,0,0,1,16.43,0v7.323A8.2,8.2,0,0,1,78.918,87.82m5.788-25.341A12.252,12.252,0,0,0,72.5,74.689v7.337a12.216,12.216,0,0,0,24.431-.008V74.685A12.258,12.258,0,0,0,84.714,62.479Z" fill="none"/></clipPath><clipPath id="k"><path d="M47.505,87.815a8.2,8.2,0,0,1-2.415-5.8V74.692a8.215,8.215,0,0,1,16.43,0v7.323a8.2,8.2,0,0,1-14.015,5.8M53.3,62.479A12.252,12.252,0,0,0,41.09,74.689v7.338a12.216,12.216,0,0,0,24.431-.009V74.685A12.259,12.259,0,0,0,53.3,62.479Z" fill="none"/></clipPath><clipPath id="l"><path d="M35.411,116.959a17.685,17.685,0,0,1,3.784-10.992,15.849,15.849,0,0,1,1.457-1.661,17.893,17.893,0,0,1,26.783,1.687A17.63,17.63,0,0,1,71.21,116.97v5.08h-35.8Zm2.415-15.483a19.714,19.714,0,0,0-1.8,2.052A21.642,21.642,0,0,0,31.41,116.97v7.08a2,2,0,0,0,2,2h39.8a2,2,0,0,0,2-2v-7.08a21.9,21.9,0,0,0-37.384-15.494" fill="none"/></clipPath></defs><g clip-path="url(#a)"><path d="M51.3,16.048l.539.382H51.3Z" fill="#e37da3"/><path d="M51.3,13.39l4,2.837v.2H51.844l-.539-.382Z" fill="#e47da4"/><path d="M51.3,10.732l4,2.837v2.658l-4-2.837Z" fill="#e57ea5"/><path d="M51.3,8.074l4,2.837v2.658l-4-2.837Z" fill="#e67fa5"/><path d="M53.96,7.3l1.345.954v2.658l-4-2.837V7.3Z" fill="#e77fa6"/><path d="M55.3,8.253,53.96,7.3H55.3Z" fill="#e880a7"/></g><g clip-path="url(#b)"><path d="M51.3,42.627l1.785,1.266H51.3Z" fill="#d9759b"/><path d="M51.3,39.969l4,2.837v1.087H53.09L51.3,42.627Z" fill="#da769c"/><path d="M51.3,37.311l4,2.837v2.658l-4-2.837Z" fill="#db779c"/><path d="M51.474,34.773,55.3,37.49v2.658l-4-2.837V34.773Z" fill="#dc789d"/><path d="M55.221,34.773l.084.059V37.49l-3.832-2.717Z" fill="#dd789e"/><path d="M55.3,34.832l-.084-.059H55.3Z" fill="#de799f"/></g><g clip-path="url(#c)"><path d="M53.305,2a23.6,23.6,0,1,1-23.59,23.612V25.6A23.6,23.6,0,0,1,53.305,2" fill="#ffebfc"/></g><g clip-path="url(#d)"><path d="M31.714,44.68,35.271,47.2H31.714Z" fill="#d37196"/><path d="M31.714,42.022l7.3,5.181H35.271L31.714,44.68Z" fill="#d47297"/><path d="M31.714,39.364,42.766,47.2H39.019l-7.3-5.181Z" fill="#d57398"/><path d="M31.714,36.706l14.8,10.5H42.766L31.714,39.364Z" fill="#d67398"/><path d="M31.714,34.048,50.261,47.2H46.514l-14.8-10.5Z" fill="#d77499"/><path d="M31.714,31.39,54.009,47.2H50.261L31.714,34.048Z" fill="#d8759a"/><path d="M31.714,28.732,57.757,47.2H54.009L31.714,31.39Z" fill="#d9759b"/><path d="M31.714,26.074,61.5,47.2H57.757L31.714,28.732Z" fill="#da769c"/><path d="M31.714,23.416,65.252,47.2H61.5L31.714,26.074Z" fill="#db779c"/><path d="M31.714,20.758,69,47.2H65.252L31.714,23.416Z" fill="#dc789d"/><path d="M31.714,18.1,71.247,46.139,70.493,47.2H69L31.714,20.759Z" fill="#dd789e"/><path d="M31.714,15.443,72.5,44.371l-1.255,1.768L31.714,18.1Z" fill="#de799f"/><path d="M31.714,12.785,73.756,42.6,72.5,44.371,31.714,15.443Z" fill="#df7aa0"/><path d="M31.714,10.24l.053-.075L74.921,40.771v.188L73.756,42.6,31.714,12.785Z" fill="#e07aa0"/><path d="M31.767,10.165,33.021,8.4l41.9,29.716v2.658Z" fill="#e17ba1"/><path d="M33.021,8.4l1.254-1.768L74.92,35.455v2.657Z" fill="#e27ca2"/><path d="M34.276,6.628,35.53,4.86,74.921,32.8v2.658Z" fill="#e37da3"/><path d="M35.53,4.86l1.254-1.768L74.921,30.139V32.8Z" fill="#e47da4"/><path d="M36.784,3.091,37.558,2h1.435L74.921,27.481v2.658Z" fill="#e57ea5"/><path d="M42.741,2l32.18,22.823v2.658L38.993,2Z" fill="#e67fa5"/><path d="M46.489,2,74.921,22.165v2.658L42.741,2Z" fill="#e77fa6"/><path d="M50.236,2,74.921,19.507v2.658L46.488,2Z" fill="#e880a7"/><path d="M53.984,2,74.921,16.849v2.658L50.236,2Z" fill="#e981a8"/><path d="M57.731,2l17.19,12.191v2.658L53.983,2Z" fill="#ea82a9"/><path d="M61.479,2l13.442,9.534v2.657L57.731,2Z" fill="#eb82a9"/><path d="M65.227,2l9.694,6.876v2.658L61.479,2Z" fill="#ec83aa"/><path d="M68.974,2l5.947,4.218V8.876L65.226,2Z" fill="#ed84ab"/><path d="M72.722,2l2.2,1.56V6.218L68.974,2Z" fill="#ee84ac"/><path d="M74.921,3.56,72.722,2h2.2Z" fill="#ef85ad"/><path d="M27.714,49.816,29.67,51.2H27.714Z" fill="#d06f93"/><path d="M27.714,47.158l5.7,4.045H29.67l-1.956-1.387Z" fill="#d17094"/><path d="M27.714,44.5l9.451,6.7H33.417l-5.7-4.045Z" fill="#d27095"/><path d="M27.714,41.843l13.2,9.361H37.165l-9.451-6.7Z" fill="#d37196"/><path d="M27.714,39.185,44.66,51.2H40.912l-13.2-9.361Z" fill="#d47297"/><path d="M27.714,36.527,48.408,51.2H44.66L27.714,39.185Z" fill="#d57398"/><path d="M27.714,33.869,52.155,51.2H48.408L27.714,36.527Z" fill="#d67398"/><path d="M27.714,31.211,55.9,51.2H52.155L27.714,33.869Z" fill="#d77499"/><path d="M27.714,28.553,59.65,51.2H55.9L27.714,31.211Z" fill="#d8759a"/><path d="M27.714,25.9,63.4,51.2H59.65L27.714,28.553Z" fill="#d9759b"/><path d="M27.714,23.237,67.145,51.2H63.4L27.714,25.9Z" fill="#da769c"/><path d="M27.714,20.579,70.893,51.2H67.145L27.714,23.237Z" fill="#db779c"/><path d="M27.714,17.921,73.695,50.532l-.475.671H70.893L27.714,20.579Z" fill="#dc789d"/><path d="M27.714,15.264l47.236,33.5-1.255,1.768L27.714,17.922Z" fill="#dd789e"/><path d="M27.714,12.606,76.2,47,74.95,48.765l-47.236-33.5Z" fill="#de799f"/><path d="M27.714,9.948l49.744,35.28L76.2,47l-48.49-34.39Z" fill="#df7aa0"/><path d="M27.714,8.035l.352-.5,50.646,35.92-1.254,1.769L27.714,9.948Z" fill="#e07aa0"/><path d="M28.066,7.539l1.254-1.768,49.6,35.179v2.213l-.21.3Z" fill="#e17ba1"/><path d="M29.32,5.771,30.574,4l48.348,34.29v2.658Z" fill="#e27ca2"/><path d="M30.574,4l1.254-1.768,47.094,33.4v2.658Z" fill="#e37da3"/><path d="M31.828,2.234,33.082.466l45.84,32.511v2.657Z" fill="#e47da4"/><path d="M33.082.466,33.412,0h2.761L78.922,30.319v2.658Z" fill="#e57ea5"/><path d="M39.921,0l39,27.661v2.658L36.173,0Z" fill="#e67fa5"/><path d="M43.669,0,78.922,25v2.658L39.921,0Z" fill="#e77fa6"/><path d="M47.416,0,78.922,22.345V25L43.668,0Z" fill="#e880a7"/><path d="M51.164,0,78.922,19.687v2.658L47.416,0Z" fill="#e981a8"/><path d="M54.911,0l24.01,17.029v2.658L51.163,0Z" fill="#ea82a9"/><path d="M58.659,0,78.922,14.371v2.658L54.911,0Z" fill="#eb82a9"/><path d="M62.407,0,78.922,11.713v2.658L58.659,0Z" fill="#ec83aa"/><path d="M66.154,0,78.922,9.055v2.658L62.406,0Z" fill="#ed84ab"/><path d="M69.9,0l9.02,6.4V9.055L66.154,0Z" fill="#ee84ac"/><path d="M73.649,0l5.273,3.74V6.4L69.9,0Z" fill="#ef85ad"/><path d="M77.4,0l1.525,1.082V3.74L73.649,0Z" fill="#f086ae"/><path d="M78.922,1.082,77.4,0h1.525Z" fill="#f187ae"/></g><g clip-path="url(#e)"><path d="M42.444,36.343l2.273,1.612H42.444Z" fill="#d9759b"/><path d="M42.444,33.685l6.02,4.27H44.717l-2.273-1.612Z" fill="#da769c"/><path d="M42.444,31.027l9.768,6.928H48.464l-6.02-4.27Z" fill="#db779c"/><path d="M42.444,28.369l13.515,9.586H52.212l-9.768-6.928Z" fill="#dc789d"/><path d="M42.444,25.711,59.707,37.954H55.959L42.444,28.369Z" fill="#dd789e"/><path d="M42.444,23.053,62.911,37.569l-.273.385H59.707L42.444,25.711Z" fill="#de799f"/><path d="M42.444,20.4,64.137,35.781v.059l-1.226,1.729L42.444,23.053Z" fill="#df7aa0"/><path d="M42.444,17.737,64.137,33.123v2.658L42.444,20.4Z" fill="#e07aa0"/><path d="M42.444,15.4l.151-.214L64.137,30.465v2.658L42.444,17.737Z" fill="#e17ba1"/><path d="M42.6,15.187l1.254-1.768L64.138,27.807v2.658Z" fill="#e27ca2"/><path d="M43.85,13.418l.427-.6h2.472L64.138,25.149v2.658Z" fill="#e37da3"/><path d="M50.5,12.817l13.641,9.675V25.15L46.749,12.817Z" fill="#e47da4"/><path d="M54.244,12.817l9.893,7.017v2.658L50.5,12.817Z" fill="#e57ea5"/><path d="M57.992,12.817l6.146,4.359v2.658l-9.894-7.017Z" fill="#e67fa5"/><path d="M61.739,12.817l2.4,1.7v2.658l-6.146-4.359Z" fill="#e77fa6"/><path d="M64.138,14.518l-2.4-1.7h2.4Z" fill="#e880a7"/></g><g clip-path="url(#f)"><path d="M51.3,16.048l1.306.926H51.3Z" fill="#e37da3"/><path d="M51.3,13.39l4,2.837v.747H52.611L51.3,16.048Z" fill="#e47da4"/><path d="M51.3,10.732l4,2.837v2.658l-4-2.837Z" fill="#e57ea5"/><path d="M51.836,8.45,55.3,10.91v2.658l-4-2.837V8.45Z" fill="#e67fa5"/><path d="M55.3,10.911l-3.469-2.46H55.3Z" fill="#e77fa6"/></g><g clip-path="url(#g)"><path d="M51.3,39.969l3.542,2.512H51.3Z" fill="#da769c"/><path d="M51.3,37.311l4,2.837v2.333h-.458L51.3,39.969Z" fill="#db779c"/><path d="M51.3,34.653l4,2.837v2.658l-4-2.837Z" fill="#dc789d"/><path d="M54.087,33.968l1.218.864V37.49l-4-2.837v-.685Z" fill="#dd789e"/><path d="M55.3,34.832l-1.218-.864H55.3Z" fill="#de799f"/></g><g clip-path="url(#c)"><path d="M21.9,97.069A19.888,19.888,0,0,0,2,116.959v7.09H33.41v-7.09a19.748,19.748,0,0,1,4.19-12.2,19.817,19.817,0,0,0-15.7-7.69m-.01-32.59a10.242,10.242,0,0,0-10.22,10.11v7.33a10.22,10.22,0,0,0,20.44.1v-7.33a10.236,10.236,0,0,0-10.22-10.21" fill="#ffebfc" fill-rule="evenodd"/><path d="M84.72,97.069a19.863,19.863,0,0,0-14.07,5.82,18.138,18.138,0,0,0-1.64,1.87,19.724,19.724,0,0,1,4.2,12.21v7.08h31.41v-7.08a19.9,19.9,0,0,0-19.9-19.9m-.01-32.59A10.228,10.228,0,0,0,74.5,74.689v7.33a10.215,10.215,0,0,0,20.43,0v-7.33a10.23,10.23,0,0,0-10.22-10.21" fill="#ffebfc" fill-rule="evenodd"/></g><g clip-path="url(#i)"><path d="M13.67,87.7l3.443,2.442H13.67Z" fill="#bd6285"/><path d="M13.67,85.04l7.19,5.1H17.113L13.67,87.7Z" fill="#be6386"/><path d="M13.67,82.382,24.608,90.14H20.86l-7.19-5.1Z" fill="#bf6486"/><path d="M13.67,79.724,28.355,90.139H24.608L13.67,82.382Z" fill="#c06487"/><path d="M13.67,77.066l16.44,11.66v1.121l-.207.292H28.355L13.67,79.725Z" fill="#c16588"/><path d="M13.67,74.409l16.44,11.66v2.658L13.67,77.067Z" fill="#c26689"/><path d="M13.67,71.751l16.44,11.66v2.658L13.67,74.409Z" fill="#c3678a"/><path d="M13.67,69.093l16.44,11.66v2.658L13.67,71.751Z" fill="#c4678a"/><path d="M13.67,66.759l.153-.216L30.11,78.1v2.658L13.67,69.093Z" fill="#c5688b"/><path d="M13.823,66.543l.045-.064h3.613L30.11,75.437V78.1Z" fill="#c6698c"/><path d="M21.228,66.48l8.882,6.3v2.657L17.48,66.48Z" fill="#c8698d"/><path d="M24.976,66.48l5.135,3.642V72.78l-8.883-6.3Z" fill="#c96a8e"/><path d="M28.723,66.48l1.387.984v2.658L24.975,66.48Z" fill="#ca6b8f"/><path d="M30.11,67.463l-1.387-.984H30.11Z" fill="#cb6b8f"/><path d="M9.67,92.835l1.84,1.305H9.67Z" fill="#ba6082"/><path d="M9.67,90.177l5.587,3.963H11.51l-1.84-1.3Z" fill="#bb6183"/><path d="M9.67,87.519,19,94.14H15.257L9.67,90.177Z" fill="#bc6284"/><path d="M9.67,84.861,22.753,94.14H19L9.67,87.519Z" fill="#bd6285"/><path d="M9.67,82.2,26.5,94.14H22.753L9.67,84.861Z" fill="#be6386"/><path d="M9.67,79.545,30.248,94.139H26.5L9.67,82.2Z" fill="#bf6486"/><path d="M9.67,76.888l23.406,16.6-.463.652H30.248L9.67,79.546Z" fill="#c06487"/><path d="M9.67,74.23,34.11,91.564v.465l-1.034,1.459L9.67,76.888Z" fill="#c16588"/><path d="M9.67,71.572,34.11,88.906v2.658L9.67,74.23Z" fill="#c26689"/><path d="M9.67,68.914,34.11,86.248v2.658L9.67,71.572Z" fill="#c3678a"/><path d="M9.67,66.256,34.11,83.59v2.658L9.67,68.914Z" fill="#c4678a"/><path d="M9.67,64.574l.46-.649L34.11,80.932V83.59L9.67,66.256Z" fill="#c5688b"/><path d="M10.13,63.925l1.025-1.445h.685l22.27,15.8v2.657Z" fill="#c6698c"/><path d="M15.588,62.48,34.11,75.616v2.658L11.84,62.48Z" fill="#c8698d"/><path d="M19.336,62.48,34.11,72.959v2.657L15.588,62.48Z" fill="#c96a8e"/><path d="M23.083,62.48,34.111,70.3v2.658L19.335,62.48Z" fill="#ca6b8f"/><path d="M26.831,62.48l7.279,5.163V70.3L23.083,62.48Z" fill="#cb6b8f"/><path d="M30.579,62.48l3.532,2.505v2.658l-7.28-5.163Z" fill="#cc6c90"/><path d="M34.11,64.985l-3.532-2.5H34.11Z" fill="#cd6d91"/><path d="M4,120.709l1.892,1.342H4Z" fill="#ae5879"/><path d="M4,118.051l5.639,4H5.892L4,120.709Z" fill="#af5879"/><path d="M4,115.393l9.387,6.657H9.639l-5.639-4Z" fill="#b0597a"/><path d="M4,112.735l13.134,9.315H13.387L4,115.393Z" fill="#b15a7b"/><path d="M4,110.077,20.882,122.05H17.134L4,112.735Z" fill="#b25a7c"/><path d="M4,107.419,24.629,122.05H20.882L4,110.077Z" fill="#b35b7d"/><path d="M4,106.854l.988-1.393L28.377,122.05H24.629L4,107.419Z" fill="#b45c7d"/><path d="M4.988,105.462l1.254-1.768L32.125,122.05H28.377Z" fill="#b55d7e"/><path d="M6.242,103.693,7.5,101.925,34.535,121.1l-.673.949H32.125Z" fill="#b65d7f"/><path d="M7.5,101.925l1.254-1.768,26.316,18.664v1.531l-.531.75Z" fill="#b75e80"/><path d="M8.75,100.156l.771-1.087h1.444l24.1,17.093v2.658Z" fill="#b85f81"/><path d="M14.713,99.07,35.066,113.5v2.658L10.965,99.07Z" fill="#b95f81"/><path d="M18.461,99.07l16.606,11.777V113.5L14.713,99.07Z" fill="#ba6082"/><path d="M22.208,99.07l12.858,9.12v2.657L18.46,99.07Z" fill="#bb6183"/><path d="M25.956,99.07l9.111,6.462v2.658L22.208,99.07Z" fill="#bc6284"/><path d="M29.7,99.07l5.363,3.8v2.658L25.955,99.07Z" fill="#bd6285"/><path d="M33.451,99.07l1.616,1.146v2.658L29.7,99.07Z" fill="#be6386"/><path d="M35.066,100.215,33.45,99.069h1.616Z" fill="#bf6486"/><path d="M0,125.845l.289.205H0Z" fill="#ab5576"/><path d="M0,123.187l4.036,2.863H.289l-.289-.2Z" fill="#ac5677"/><path d="M0,120.529l7.784,5.521H4.036L0,123.187Z" fill="#ad5778"/><path d="M0,117.872l11.531,8.178H7.784L0,120.53Z" fill="#ae5879"/><path d="M0,115.214,15.279,126.05H11.531L0,117.872Z" fill="#af5879"/><path d="M0,112.556,19.027,126.05H15.279L0,115.214Z" fill="#b0597a"/><path d="M0,109.9,22.774,126.05H19.027L0,112.556Z" fill="#b15a7b"/><path d="M0,107.24l26.522,18.81H22.774L0,109.9Z" fill="#b25a7c"/><path d="M0,105.368l.371-.523,29.9,21.2H26.522L0,107.24Z" fill="#b35b7d"/><path d="M.371,104.845l1.254-1.768L34.017,126.05H30.27Z" fill="#b45c7d"/><path d="M1.625,103.077l1.254-1.768L37.407,125.8l-.18.253h-3.21Z" fill="#b55d7e"/><rect width="2.168" height="42.33" transform="translate(2.88 101.308) rotate(-54.653)" fill="#b65d7f"/><path d="M4.133,99.54l1.254-1.768,34.355,24.365v.367l-1.081,1.524Z" fill="#b75e80"/><path d="M5.387,97.771,6.641,96l33.1,23.476v2.657Z" fill="#b85f81"/><path d="M6.642,96,7.3,95.07H9.073l30.669,21.751v2.658Z" fill="#b95f81"/><path d="M12.821,95.07l26.922,19.094v2.658L9.073,95.07Z" fill="#ba6082"/><path d="M16.568,95.07l23.174,16.436v2.658L12.82,95.07Z" fill="#bb6183"/><path d="M20.316,95.07l19.426,13.778v2.658L16.568,95.07Z" fill="#bc6284"/><path d="M24.063,95.07l15.679,11.12v2.658L20.315,95.07Z" fill="#bd6285"/><path d="M27.811,95.07l11.931,8.462v2.658L24.063,95.07Z" fill="#be6386"/><path d="M31.559,95.07l8.184,5.8v2.658L27.81,95.07Z" fill="#bf6486"/><path d="M35.306,95.07l4.436,3.146v2.658l-8.184-5.8Z" fill="#c06487"/><path d="M39.054,95.07l.689.488v2.658L35.306,95.07Z" fill="#c16588"/><path d="M39.742,95.558l-.689-.488h.689Z" fill="#c26689"/></g><g clip-path="url(#j)"><path d="M76.5,89.733l.7.5h-.7Z" fill="#ce6e92"/><path d="M76.5,87.075l4.448,3.155H77.2l-.7-.5Z" fill="#cf6e93"/><path d="M76.5,84.417l8.2,5.813H80.948L76.5,87.075Z" fill="#d06f93"/><path d="M76.5,81.759,88.443,90.23H84.7l-8.2-5.813Z" fill="#d17094"/><path d="M76.5,79.1,92.191,90.229H88.443L76.5,81.759Z" fill="#d27095"/><path d="M76.5,76.443,92.931,88.1V89.96l-.191.269h-.549L76.5,79.1Z" fill="#d37196"/><path d="M76.5,73.786,92.931,85.439V88.1L76.5,76.444Z" fill="#d47297"/><path d="M76.5,71.128,92.931,82.781v2.658L76.5,73.786Z" fill="#d57398"/><path d="M76.5,68.47,92.931,80.123v2.658L76.5,71.128Z" fill="#d67398"/><path d="M76.5,66.727l.175-.247h.767L92.931,77.465v2.658L76.5,68.47Z" fill="#d77499"/><path d="M81.189,66.48,92.93,74.807v2.658L77.441,66.48Z" fill="#d8759a"/><path d="M84.937,66.48l7.994,5.669v2.658L81.189,66.48Z" fill="#d9759b"/><path d="M88.685,66.48l4.246,3.012v2.657L84.937,66.48Z" fill="#da769c"/><path d="M92.432,66.48l.5.354v2.658L88.684,66.48Z" fill="#db779c"/><path d="M92.931,66.833l-.5-.354h.5Z" fill="#dc789d"/><path d="M72.5,92.212l2.845,2.018H72.5Z" fill="#cc6c90"/><path d="M72.5,89.554l6.593,4.676H75.345L72.5,92.212Z" fill="#cd6d91"/><path d="M72.5,86.9,82.84,94.23H79.093L72.5,89.554Z" fill="#ce6e92"/><path d="M72.5,84.238,86.588,94.23H82.84L72.5,86.9Z" fill="#cf6e93"/><path d="M72.5,81.58,90.336,94.23H86.588L72.5,84.238Z" fill="#d06f93"/><path d="M72.5,78.922,94.083,94.229H90.336L72.5,81.58Z" fill="#d17094"/><path d="M72.5,76.264,96.252,93.11l-.794,1.119H94.083L72.5,78.922Z" fill="#d27095"/><path d="M72.5,73.606,96.931,90.933v1.22l-.679.957L72.5,76.264Z" fill="#d37196"/><path d="M72.5,70.949,96.931,88.275v2.658L72.5,73.607Z" fill="#d47297"/><path d="M72.5,68.291,96.931,85.618v2.658L72.5,70.949Z" fill="#d57398"/><path d="M72.5,65.633,96.931,82.96v2.658L72.5,68.291Z" fill="#d67398"/><path d="M72.5,64.526l.732-1.032L96.931,80.3v2.657L72.5,65.632Z" fill="#d77499"/><path d="M73.232,63.494l.719-1.014h1.6L96.931,77.644V80.3Z" fill="#d8759a"/><path d="M79.3,62.48,96.931,74.986v2.658L75.549,62.48Z" fill="#d9759b"/><path d="M83.045,62.48l13.886,9.848v2.658L79.3,62.48Z" fill="#da769c"/><path d="M86.792,62.48,96.93,69.671v2.657L83.044,62.48Z" fill="#db779c"/><path d="M90.54,62.48l6.391,4.533v2.658L86.792,62.48Z" fill="#dc789d"/><path d="M94.287,62.48l2.643,1.875v2.658L90.539,62.48Z" fill="#dd789e"/><path d="M96.931,64.354l-2.643-1.875h2.643Z" fill="#de799f"/><path d="M71.543,120.77l1.8,1.28h-1.8Z" fill="#c06487"/><path d="M71.543,118.112l5.552,3.938H73.348l-1.8-1.28Z" fill="#c16588"/><path d="M71.543,115.454l9.3,6.6H77.095l-5.552-3.938Z" fill="#c26689"/><path d="M71.543,112.8l13.048,9.254H80.843l-9.3-6.6Z" fill="#c3678a"/><path d="M71.543,110.138,88.338,122.05H84.591L71.543,112.8Z" fill="#c4678a"/><path d="M71.543,107.48l20.543,14.57H88.338L71.543,110.138Z" fill="#c5688b"/><path d="M71.543,104.823l24.29,17.227H92.086L71.543,107.48Z" fill="#c6698c"/><path d="M71.543,102.165,99.581,122.05H95.833l-24.29-17.227Z" fill="#c8698d"/><path d="M71.543,101.39l.889-1.253,30.188,21.411v.5H99.581L71.543,102.165Z" fill="#c96a8e"/><path d="M72.432,100.137l.757-1.067h1.486l27.946,19.82v2.658Z" fill="#ca6b8f"/><path d="M78.422,99.07l24.2,17.162v2.658L74.674,99.07Z" fill="#cb6b8f"/><path d="M82.169,99.07l20.451,14.5v2.658L78.421,99.07Z" fill="#cc6c90"/><path d="M85.917,99.07l16.7,11.847v2.657L82.169,99.07Z" fill="#cd6d91"/><path d="M89.664,99.07l12.956,9.189v2.658L85.916,99.07Z" fill="#ce6e92"/><path d="M93.412,99.07l9.208,6.531v2.658L89.664,99.07Z" fill="#cf6e93"/><path d="M97.16,99.07l5.461,3.873V105.6L93.412,99.07Z" fill="#d06f93"/><path d="M100.907,99.07l1.713,1.215v2.658L97.159,99.07Z" fill="#d17094"/><path d="M102.62,100.284l-1.713-1.215h1.713Z" fill="#d27095"/><path d="M66.867,125.427l.878.623h-.878Z" fill="#bd6285"/><path d="M66.867,122.77l4.625,3.28H67.745l-.878-.622Z" fill="#be6386"/><path d="M66.867,120.112l8.373,5.938H71.492l-4.625-3.28Z" fill="#bf6486"/><path d="M66.867,117.454l12.121,8.6H75.24l-8.373-5.938Z" fill="#c06487"/><path d="M66.867,114.8,82.735,126.05H78.988l-12.121-8.6Z" fill="#c16588"/><path d="M66.867,112.138,86.483,126.05H82.735L66.867,114.8Z" fill="#c26689"/><path d="M66.867,109.48,90.23,126.05H86.483L66.867,112.138Z" fill="#c3678a"/><path d="M66.867,106.822,93.978,126.05H90.23L66.867,109.48Z" fill="#c4678a"/><path d="M66.867,104.164,97.725,126.05H93.978L66.867,106.822Z" fill="#c5688b"/><path d="M66.867,101.506l34.606,24.544H97.725L66.867,104.164Z" fill="#c6698c"/><path d="M66.867,100.818l.93-1.311,37.424,26.543h-3.748L66.867,101.506Z" fill="#c8698d"/><path d="M67.8,99.508l1.254-1.768,37.569,26.645v1.665h-1.4Z" fill="#c96a8e"/><path d="M69.051,97.739l1.254-1.768,36.315,25.755v2.658Z" fill="#ca6b8f"/><path d="M70.305,95.971l.639-.9h1.838l33.838,24v2.658Z" fill="#cb6b8f"/><path d="M76.529,95.07l30.091,21.341v2.658l-33.839-24Z" fill="#cc6c90"/><path d="M80.277,95.07l26.343,18.683v2.658L76.529,95.07Z" fill="#cd6d91"/><path d="M84.024,95.07l22.6,16.026v2.657L80.276,95.07Z" fill="#ce6e92"/><path d="M87.772,95.07l18.848,13.368V111.1L84.024,95.07Z" fill="#cf6e93"/><path d="M91.52,95.07l15.1,10.71v2.658L87.772,95.07Z" fill="#d06f93"/><path d="M95.267,95.07l11.353,8.052v2.658l-15.1-10.71Z" fill="#d17094"/><path d="M99.015,95.07l7.6,5.394v2.658L95.267,95.07Z" fill="#d27095"/><path d="M102.762,95.07l3.858,2.736v2.658L99.014,95.07Z" fill="#d37196"/><path d="M106.51,95.07l.11.078v2.658l-3.858-2.736Z" fill="#d47297"/><path d="M106.62,95.148l-.11-.078h.11Z" fill="#d57398"/></g><g clip-path="url(#k)"><path d="M45.09,88.719l2.13,1.511H45.09Z" fill="#c5688b"/><path d="M45.09,86.061l5.878,4.169H47.22l-2.13-1.511Z" fill="#c6698c"/><path d="M45.09,83.4l9.625,6.827H50.968L45.09,86.061Z" fill="#c8698d"/><path d="M45.09,80.745l13.373,9.484H54.715L45.09,83.4Z" fill="#c96a8e"/><path d="M45.09,78.087,61.521,89.74v.22l-.191.269H58.463L45.09,80.745Z" fill="#ca6b8f"/><path d="M45.09,75.429,61.521,87.082V89.74L45.09,78.087Z" fill="#cb6b8f"/><path d="M45.09,72.771,61.521,84.424v2.658L45.09,75.43Z" fill="#cc6c90"/><path d="M45.09,70.114,61.521,81.767v2.658L45.09,72.772Z" fill="#cd6d91"/><path d="M45.09,67.456,61.521,79.109v2.658L45.09,70.114Z" fill="#ce6e92"/><path d="M45.09,66.728l.176-.249h2.195l14.06,9.972v2.658L45.09,67.455Z" fill="#cf6e93"/><path d="M51.209,66.48l10.312,7.313v2.658L47.461,66.48Z" fill="#d06f93"/><path d="M54.956,66.48l6.564,4.656v2.657L51.208,66.48Z" fill="#d17094"/><path d="M58.7,66.48l2.817,2v2.658L54.956,66.48Z" fill="#d27095"/><path d="M61.521,68.477l-2.817-2h2.817Z" fill="#d37196"/><path d="M41.09,93.856l.527.374H41.09Z" fill="#c26689"/><path d="M41.09,91.2l4.275,3.032H41.617l-.527-.374Z" fill="#c3678a"/><path d="M41.09,88.54l8.022,5.69H45.365L41.09,91.2Z" fill="#c4678a"/><path d="M41.09,85.882,52.86,94.23H49.112L41.09,88.54Z" fill="#c5688b"/><path d="M41.09,83.224,56.608,94.23H52.86L41.09,85.882Z" fill="#c6698c"/><path d="M41.09,80.566,60.355,94.229H56.608l-15.518-11Z" fill="#c8698d"/><path d="M41.09,77.908,64.066,94.2l-.018.025H60.355L41.09,80.566Z" fill="#c96a8e"/><path d="M41.09,75.25,65.321,92.435,64.066,94.2,41.09,77.908Z" fill="#ca6b8f"/><path d="M41.09,72.592,65.521,89.92v2.234l-.2.282L41.09,75.251Z" fill="#cb6b8f"/><path d="M41.09,69.935,65.521,87.262V89.92L41.09,72.593Z" fill="#cc6c90"/><path d="M41.09,67.277,65.521,84.6v2.658L41.09,69.935Z" fill="#cd6d91"/><path d="M41.09,64.619,65.521,81.946V84.6L41.09,67.277Z" fill="#ce6e92"/><path d="M41.09,64.528,42.3,62.82l23.22,16.468v2.658L41.09,64.619Z" fill="#cf6e93"/><path d="M42.3,62.82l.241-.34h3.027L65.52,76.63v2.658Z" fill="#d06f93"/><path d="M49.317,62.48l16.2,11.492V76.63L45.569,62.48Z" fill="#d17094"/><path d="M53.064,62.48,65.52,71.315v2.657L49.316,62.48Z" fill="#d27095"/><path d="M56.812,62.48l8.709,6.177v2.658L53.064,62.48Z" fill="#d37196"/><path d="M60.559,62.48,65.52,66v2.658L56.811,62.48Z" fill="#d47297"/><path d="M64.307,62.48l1.214.861V66L60.559,62.48Z" fill="#d57398"/><path d="M65.521,63.341l-1.214-.861h1.214Z" fill="#d67398"/></g><g clip-path="url(#l)"><path d="M35.41,121.722l.462.328H35.41Z" fill="#b65d7f"/><path d="M35.41,119.065l4.21,2.986H35.872l-.462-.328Z" fill="#b75e80"/><path d="M35.41,116.407l7.957,5.643H39.62l-4.21-2.985Z" fill="#b85f81"/><path d="M35.41,113.749l11.7,8.3H43.367l-7.957-5.643Z" fill="#b95f81"/><path d="M35.41,111.091,50.862,122.05H47.115l-11.7-8.3Z" fill="#ba6082"/><path d="M35.41,108.433l19.2,13.617H50.862L35.41,111.091Z" fill="#bb6183"/><path d="M35.41,107.526l.826-1.165L58.357,122.05H54.61l-19.2-13.617Z" fill="#bc6284"/><path d="M36.237,106.361l1.254-1.768L62.106,122.05H58.358Z" fill="#bd6285"/><path d="M37.491,104.593l1.254-1.768L65.853,122.05H62.1Z" fill="#be6386"/><path d="M38.745,102.824,40,101.056,69.6,122.05H65.853Z" fill="#bf6486"/><path d="M40,101.056l1.254-1.768L71.21,120.534v1.516H69.6Z" fill="#c06487"/><path d="M41.253,99.288l.155-.218h3.285L71.21,117.876v2.658Z" fill="#c16588"/><path d="M48.441,99.07,71.21,115.218v2.658L44.693,99.07Z" fill="#c26689"/><path d="M52.189,99.07,71.21,112.561v2.657L48.441,99.07Z" fill="#c3678a"/><path d="M55.936,99.07,71.21,109.9v2.658L52.188,99.07Z" fill="#c4678a"/><path d="M59.684,99.07l11.526,8.175V109.9L55.936,99.07Z" fill="#c5688b"/><path d="M63.431,99.07l7.779,5.517v2.658L59.683,99.07Z" fill="#c6698c"/><path d="M67.179,99.07l4.031,2.859v2.658L63.431,99.07Z" fill="#c8698d"/><path d="M70.927,99.07l.283.2v2.658L67.179,99.07Z" fill="#c96a8e"/><path d="M71.21,99.271l-.283-.2h.283Z" fill="#ca6b8f"/><path d="M31.41,124.2l2.607,1.849H31.41Z" fill="#b45c7d"/><path d="M31.41,121.543l6.354,4.507H34.017L31.41,124.2Z" fill="#b55d7e"/><path d="M31.41,118.885l10.1,7.165H37.764l-6.354-4.507Z" fill="#b65d7f"/><path d="M31.41,116.228l13.849,9.822H41.512l-10.1-7.164Z" fill="#b75e80"/><path d="M31.41,113.57l17.6,12.48H45.259L31.41,116.228Z" fill="#b85f81"/><path d="M31.41,110.912,52.755,126.05H49.007l-17.6-12.48Z" fill="#b95f81"/><path d="M31.41,108.254,56.5,126.05H52.755L31.41,110.912Z" fill="#ba6082"/><path d="M31.41,106.187l.279-.394L60.25,126.05H56.5l-25.092-17.8Z" fill="#bb6183"/><path d="M31.689,105.794l1.254-1.768L64,126.05H60.25Z" fill="#bc6284"/><path d="M32.944,104.026l1.254-1.768,33.548,23.793H64Z" fill="#bd6285"/><path d="M34.2,102.257l1.254-1.768L71.493,126.05H67.745Z" fill="#be6386"/><path d="M35.452,100.489l1.254-1.768,38.5,27.308v.021H71.493Z" fill="#bf6486"/><path d="M36.706,98.72l1.254-1.768L75.21,123.37v2.658Z" fill="#c06487"/><path d="M37.96,96.952l1.254-1.768,36,25.529v2.658Z" fill="#c16588"/><path d="M39.215,95.184l.081-.114H42.8l32.408,22.985v2.658Z" fill="#c26689"/><path d="M46.549,95.07,75.21,115.4v2.658L42.8,95.07Z" fill="#c3678a"/><path d="M50.3,95.07,75.21,112.74V115.4L46.548,95.07Z" fill="#c4678a"/><path d="M54.044,95.07,75.21,110.082v2.658L50.3,95.07Z" fill="#c5688b"/><path d="M57.792,95.07l17.418,12.354v2.658L54.043,95.07Z" fill="#c6698c"/><path d="M61.539,95.07l13.671,9.7v2.658L57.791,95.07Z" fill="#c8698d"/><path d="M65.287,95.07l9.923,7.038v2.658l-13.671-9.7Z" fill="#c96a8e"/><path d="M69.034,95.07l6.176,4.38v2.658L65.286,95.07Z" fill="#ca6b8f"/><path d="M72.782,95.07l2.428,1.722V99.45l-6.176-4.38Z" fill="#cb6b8f"/><path d="M75.21,96.792,72.782,95.07H75.21Z" fill="#cc6c90"/></g></svg>