<svg xmlns="http://www.w3.org/2000/svg" xmlns:xlink="http://www.w3.org/1999/xlink" width="166" height="45.126" viewBox="0 0 166 45.126"><defs><clipPath id="a"><path d="M254.553,602.981H261v32.232h-6.446ZM241.66,619.1a9.707,9.707,0,0,0,9.67,9.67v6.447A16.155,16.155,0,0,1,235.213,619.1v-29.01h6.446V602.98h9.67v6.447h-9.67v9.67Zm-25.786-9.669a9.67,9.67,0,1,0,9.669,9.669,9.706,9.706,0,0,0-9.669-9.669Zm0-6.447A16.116,16.116,0,1,1,199.757,619.1a16.071,16.071,0,0,1,16.116-16.116ZM164.3,619.1a16.116,16.116,0,0,1,32.233,0v16.116h-6.447V619.1a9.67,9.67,0,0,0-19.339,0v16.116H164.3V619.1Zm-28.457-3.21h18.234a9.664,9.664,0,0,0-18.234,0Zm20.489,14.6a16.092,16.092,0,1,1,4.744-11.385c0,2.041-.921,3.211-3.17,3.211H135.844a9.658,9.658,0,0,0,15.957,3.616l4.533,4.558Zm-40.088-21.054H95v-6.447h29.224c1.993,0,4.753,2.839,1.528,6.062q-9.883,9.875-19.765,19.724h21.245v6.446H98.008c-1.993,0-4.753-2.839-1.528-6.062q9.879-9.871,19.765-19.724Z" transform="translate(-95 -590.087)" fill="#fff"/></clipPath></defs><g transform="translate(-771 -7561)"><g transform="translate(771 7561)" clip-path="url(#a)"><rect width="167.744" height="45.127" transform="translate(-1.745 0)" fill="#fff"/></g><path d="M530.747,590.1a3.223,3.223,0,1,1-3.223,3.223,3.223,3.223,0,0,1,3.223-3.223" transform="translate(403.029 6970.907)" fill="#e43a24" fill-rule="evenodd"/></g></svg>