<svg xmlns="http://www.w3.org/2000/svg" xmlns:xlink="http://www.w3.org/1999/xlink" width="151.061" height="140.907" viewBox="0 0 151.061 140.907"><defs><linearGradient id="a" x1="1.863" y1="-0.776" x2="-0.548" y2="1.437" gradientUnits="objectBoundingBox"><stop offset="0" stop-color="#1cabe0"/><stop offset="1" stop-color="#107aa3"/></linearGradient><linearGradient id="b" x1="2.234" y1="-0.942" x2="-2.351" y2="2.871" xlink:href="#a"/><linearGradient id="c" x1="7.149" y1="-18.857" x2="-10.888" y2="33.653" xlink:href="#a"/><linearGradient id="d" x1="10.728" y1="-11.318" x2="-4.652" y2="6.453" xlink:href="#a"/><linearGradient id="e" x1="2.141" y1="-18.292" x2="-2.444" y2="34.218" xlink:href="#a"/><linearGradient id="f" x1="2.039" y1="-32.998" x2="-0.373" y2="19.512" xlink:href="#a"/><linearGradient id="g" x1="1.594" y1="-0.829" x2="-0.726" y2="1.802" xlink:href="#a"/><linearGradient id="h" x1="1.934" y1="-22.315" x2="-1.367" y2="30.194" xlink:href="#a"/><linearGradient id="i" x1="2.018" y1="-23.655" x2="-1.282" y2="28.854" xlink:href="#a"/><linearGradient id="j" x1="3.672" y1="-26.524" x2="-2.491" y2="25.986" xlink:href="#a"/><linearGradient id="k" x1="2.215" y1="-1.14" x2="-1.51" y2="3.351" xlink:href="#a"/><linearGradient id="l" x1="4.025" y1="-1.655" x2="-3.354" y2="2.836" xlink:href="#a"/><linearGradient id="m" x1="19.188" y1="-14.856" x2="-14.808" y2="13.078" xlink:href="#a"/><linearGradient id="n" x1="15.917" y1="-12.168" x2="-18.079" y2="15.765" xlink:href="#a"/><linearGradient id="o" x1="1.869" y1="-3.146" x2="-0.98" y2="5.195" xlink:href="#a"/><linearGradient id="p" x1="26.068" y1="-28.521" x2="-20.193" y2="23.989" xlink:href="#a"/><linearGradient id="q" x1="21.495" y1="-23.269" x2="-24.8" y2="29.143" xlink:href="#a"/><linearGradient id="r" x1="1.568" y1="-2.213" x2="-1.28" y2="3.96" xlink:href="#a"/><linearGradient id="s" x1="21.501" y1="-23.28" x2="-24.817" y2="29.164" xlink:href="#a"/><linearGradient id="t" x1="26.068" y1="-28.485" x2="-20.193" y2="23.959" xlink:href="#a"/></defs><g transform="translate(-18.99 -22.148)"><g transform="translate(55.769 74.585)"><path d="M67.251,166.86a9.029,9.029,0,0,1-8.81-9.255V80.291a1.9,1.9,0,0,1,1.865-1.9,1.833,1.833,0,0,1,1.865,1.827V157.64a5.3,5.3,0,0,0,5.134,5.492h53.949a5.281,5.281,0,0,0,5.082-5.434V133.948a1.865,1.865,0,0,1,3.729,0V157.64a9.008,9.008,0,0,1-8.734,9.219Z" transform="translate(-58.437 -78.389)" fill="url(#a)"/></g><g transform="translate(89.719 40.777)"><path d="M130.662,93.482a1.864,1.864,0,0,1-1.865-1.865V51.35a5.286,5.286,0,0,0-1.443-3.848,5.232,5.232,0,0,0-3.687-1.646H96.715a1.865,1.865,0,1,1,0-3.729h27a9,9,0,0,1,8.81,9.256V91.618A1.865,1.865,0,0,1,130.662,93.482Z" transform="translate(-94.85 -42.128)" fill="url(#b)"/></g><g transform="translate(89.714 48.86)"><path d="M102.557,54.527H96.71a1.865,1.865,0,0,1,0-3.729h5.848a1.865,1.865,0,1,1,0,3.729Z" transform="translate(-94.845 -50.798)" fill="url(#c)"/></g><g transform="translate(85.963 145.843)"><path d="M96.438,165.837a5.511,5.511,0,1,1,5.616-5.509A5.57,5.57,0,0,1,96.438,165.837Zm0-7.29a1.783,1.783,0,1,0,1.886,1.781A1.838,1.838,0,0,0,96.438,158.546Z" transform="translate(-90.822 -154.817)" fill="url(#d)"/></g><g transform="translate(89.714 57.507)"><path d="M130.653,63.8H96.71a1.865,1.865,0,0,1,0-3.729h33.943a1.865,1.865,0,1,1,0,3.729Z" transform="translate(-94.845 -60.072)" fill="url(#e)"/></g><g transform="translate(55.771 140.055)"><path d="M128.191,152.338H60.3a1.865,1.865,0,0,1,0-3.729h67.887a1.865,1.865,0,1,1,0,3.729Z" transform="translate(-58.439 -148.609)" fill="url(#f)"/></g><g transform="translate(18.99 22.148)"><path d="M76.75,96.6a1.865,1.865,0,0,1-1.442-.682L60.921,78.352H26.7A7.72,7.72,0,0,1,18.99,70.64V29.869A7.725,7.725,0,0,1,26.7,22.148H85.728a7.724,7.724,0,0,1,7.72,7.711V70.631a7.724,7.724,0,0,1-7.72,7.711H78.614V94.732A1.863,1.863,0,0,1,76.75,96.6ZM26.7,25.877a3.991,3.991,0,0,0-3.981,3.991V70.64A3.986,3.986,0,0,0,26.7,74.622H61.8a1.864,1.864,0,0,1,1.443.682L74.885,89.513V76.477a1.864,1.864,0,0,1,1.865-1.865h8.979a3.99,3.99,0,0,0,3.99-3.981V29.859a3.99,3.99,0,0,0-3.99-3.981Z" transform="translate(-18.99 -22.148)" fill="url(#g)"/></g><g transform="translate(30.236 38.188)"><path d="M81.522,43.081h-48.6a1.865,1.865,0,1,1,0-3.729h48.6a1.865,1.865,0,1,1,0,3.729Z" transform="translate(-31.052 -39.352)" fill="url(#h)"/></g><g transform="translate(30.236 47.074)"><path d="M81.522,52.611h-48.6a1.865,1.865,0,0,1,0-3.729h48.6a1.865,1.865,0,1,1,0,3.729Z" transform="translate(-31.052 -48.882)" fill="url(#i)"/></g><g transform="translate(30.236 55.374)"><path d="M57.214,61.514h-24.3a1.865,1.865,0,0,1,0-3.729h24.3a1.865,1.865,0,0,1,0,3.729Z" transform="translate(-31.052 -57.785)" fill="url(#j)"/></g><g transform="translate(123.666 88.401)"><path d="M172.247,136.815H133.125a1.865,1.865,0,0,1-1.865-1.865v-.374a1.865,1.865,0,0,1,1.865-1.865h38.012c.048,0,.1,0,.145,0l-16.5-16.562a1.865,1.865,0,0,1,0-2.632l16.5-16.573c-.048,0-.1,0-.145,0a1.865,1.865,0,0,1,0-3.729h1.11a5.4,5.4,0,0,1,5.4,5.4v32.81A5.4,5.4,0,0,1,172.247,136.815Zm-13.508-21.986,15.177,15.238V99.583Z" transform="translate(-131.26 -93.208)" fill="url(#k)"/></g><g transform="translate(106.688 88.401)"><path d="M131.893,136.815H118.439a5.4,5.4,0,0,1-5.389-5.4V98.606a5.4,5.4,0,0,1,5.389-5.4h1.119a1.865,1.865,0,0,1,0,3.729c-.048,0-.1,0-.145,0l16.5,16.563a1.865,1.865,0,0,1-.035,2.667l-.01.009-16.452,16.528c.046,0,.091,0,.137,0h12.335a1.865,1.865,0,0,1,1.865,1.865v.374A1.865,1.865,0,0,1,131.893,136.815ZM116.779,99.582v30.495l15.184-15.255Z" transform="translate(-113.05 -93.208)" fill="url(#l)"/></g><g transform="translate(106.688 123.263)"><path d="M116.267,137.609a1.86,1.86,0,0,1-1.318-.545,6.548,6.548,0,0,1-1.9-4.6,1.865,1.865,0,0,1,3.729,0,2.789,2.789,0,0,0,.806,1.962,1.865,1.865,0,0,1-1.318,3.184Z" transform="translate(-113.05 -130.599)" fill="url(#m)"/></g><g transform="translate(106.688 89.763)"><path d="M114.915,101.679a1.864,1.864,0,0,1-1.865-1.865,6.553,6.553,0,0,1,1.9-4.6,1.865,1.865,0,0,1,2.639,2.637,2.792,2.792,0,0,0-.806,1.964A1.865,1.865,0,0,1,114.915,101.679Z" transform="translate(-113.05 -94.669)" fill="url(#n)"/></g><g transform="translate(108.059 108.158)"><path d="M170,137.875H119.657a6.418,6.418,0,0,1-4.6-1.915,1.865,1.865,0,0,1,0-2.626l18.3-18.387a1.868,1.868,0,0,1,1.321-.548h0a1.863,1.863,0,0,1,1.321.549l6.862,6.89a2.8,2.8,0,0,0,3.936-.007l6.846-6.883a1.861,1.861,0,0,1,1.322-.55h0a1.863,1.863,0,0,1,1.321.549l18.312,18.386a1.864,1.864,0,0,1,0,2.626A6.517,6.517,0,0,1,170,137.875Zm-50.484-3.733c.046,0,.091,0,.137,0H170c.048,0,.1,0,.145,0l-15.173-15.236-5.532,5.562a6.542,6.542,0,0,1-9.211.007l-5.548-5.57Z" transform="translate(-114.52 -114.398)" fill="url(#o)"/></g><g transform="translate(108.049 126.544)"><path d="M116.384,137.847h-.009a1.865,1.865,0,1,1,.009,0Z" transform="translate(-114.51 -134.118)" fill="url(#p)"/></g><g transform="translate(126.351 108.149)"><path d="M136.008,118.125a1.849,1.849,0,0,1-1.312-.544l-.009-.009a1.859,1.859,0,1,1,1.321.553Z" transform="translate(-134.14 -114.388)" fill="url(#q)"/></g><g transform="translate(108.048 88.401)"><path d="M144.832,124.934a6.5,6.5,0,0,1-4.6-1.893l-6.868-6.9a1.881,1.881,0,0,1-.146-.166L115.054,97.75a1.865,1.865,0,0,1,0-2.636,6.552,6.552,0,0,1,4.6-1.907H170a6.517,6.517,0,0,1,4.607,1.914,1.865,1.865,0,0,1,0,2.627l-25.163,25.285A6.516,6.516,0,0,1,144.832,124.934Zm-8.668-11.264,6.706,6.733a2.8,2.8,0,0,0,3.936-.007l23.343-23.456c-.048,0-.1,0-.145,0H119.657c-.048,0-.1,0-.145,0l16.5,16.563A2.058,2.058,0,0,1,136.164,113.67Z" transform="translate(-114.509 -93.208)" fill="url(#r)"/></g><g transform="translate(126.379 108.146)"><path d="M136.035,118.119a1.859,1.859,0,0,1-.718-.14,1.885,1.885,0,0,1-.606-.41,1.824,1.824,0,0,1-.541-1.315,1.6,1.6,0,0,1,.037-.364,1.544,1.544,0,0,1,.1-.354,2.115,2.115,0,0,1,.168-.318,2.252,2.252,0,0,1,.233-.288,1.688,1.688,0,0,1,.28-.225,1.585,1.585,0,0,1,.326-.176,1.614,1.614,0,0,1,.345-.1,1.637,1.637,0,0,1,.737,0,1.614,1.614,0,0,1,.345.1,1.315,1.315,0,0,1,.317.176,1.762,1.762,0,0,1,.289.225,3.493,3.493,0,0,1,.233.288,2.115,2.115,0,0,1,.168.318,2.239,2.239,0,0,1,.112.354,2.406,2.406,0,0,1,.037.364,1.878,1.878,0,0,1-1.865,1.865Z" transform="translate(-134.17 -114.385)" fill="url(#s)"/></g><g transform="translate(108.049 126.544)"><path d="M116.375,137.852a1.87,1.87,0,1,1,.744-.155A1.861,1.861,0,0,1,116.375,137.852Z" transform="translate(-114.51 -134.118)" fill="url(#t)"/></g></g></svg>