<svg xmlns="http://www.w3.org/2000/svg" xmlns:xlink="http://www.w3.org/1999/xlink" width="106.406" height="122.374" viewBox="0 0 106.406 122.374"><defs><clipPath id="a"><path d="M-1111.83,369.388h-23.7a1.3,1.3,0,0,1-1.3-1.3,1.3,1.3,0,0,1,1.3-1.3h23.7a1.3,1.3,0,0,1,1.3,1.3A1.3,1.3,0,0,1-1111.83,369.388Z" transform="translate(1136.827 -366.796)" fill="none"/></clipPath><linearGradient id="b" y1="0.5" x2="1" y2="0.5" gradientUnits="objectBoundingBox"><stop offset="0" stop-color="#d7805b"/><stop offset="1" stop-color="#7b4129"/></linearGradient><clipPath id="e"><path d="M-1111.83,436.247h-23.7a1.3,1.3,0,0,1-1.3-1.3,1.3,1.3,0,0,1,1.3-1.3h23.7a1.3,1.3,0,0,1,1.3,1.3A1.3,1.3,0,0,1-1111.83,436.247Z" transform="translate(1136.827 -433.654)" fill="none"/></clipPath><clipPath id="g"><path d="M-1078.068,430.017a1.289,1.289,0,0,1-.916-.38,1.294,1.294,0,0,1,0-1.832l19.309-19.308a1.3,1.3,0,0,1,1.832,0,1.3,1.3,0,0,1,0,1.833l-19.309,19.307A1.288,1.288,0,0,1-1078.068,430.017Z" transform="translate(1079.364 -408.117)" fill="none"/></clipPath><clipPath id="h"><path d="M-1058.759,430.017a1.288,1.288,0,0,1-.916-.38l-19.309-19.307a1.3,1.3,0,0,1,0-1.833,1.3,1.3,0,0,1,1.832,0l19.309,19.308a1.3,1.3,0,0,1,0,1.832A1.29,1.29,0,0,1-1058.759,430.017Z" transform="translate(1079.364 -408.117)" fill="none"/></clipPath></defs><g transform="translate(17.973 24.1)"><g transform="translate(1.296 1.296)"><line x2="23.7" fill="#fff"/></g><g clip-path="url(#a)"><path d="M-1136.827,366.8v0Z" transform="translate(1136.827 -366.796)" fill="#d7805b"/><rect width="0.286" height="2.593" transform="translate(0 0)" fill="#d7805b"/><rect width="0.286" height="2.593" transform="translate(0.286 0)" fill="#d67f5a"/><rect width="0.286" height="2.593" transform="translate(0.572 0)" fill="#d57f5a"/><rect width="0.286" height="2.593" transform="translate(0.857 0)" fill="#d47e59"/><rect width="0.286" height="2.593" transform="translate(1.143 0)" fill="#d37d59"/><rect width="0.286" height="2.593" transform="translate(1.429 0)" fill="#d27d58"/><rect width="0.286" height="2.593" transform="translate(1.715 0)" fill="#d17c58"/><rect width="0.286" height="2.593" transform="translate(2.001 0)" fill="#d07b57"/><rect width="0.286" height="2.593" transform="translate(2.286 0)" fill="#cf7a57"/><rect width="0.286" height="2.593" transform="translate(2.572 0)" fill="#ce7a56"/><rect width="0.286" height="2.593" transform="translate(2.858 0)" fill="#cd7956"/><rect width="0.286" height="2.593" transform="translate(3.144 0)" fill="#cc7855"/><rect width="0.286" height="2.593" transform="translate(3.43 0)" fill="#cb7854"/><rect width="0.286" height="2.593" transform="translate(3.715 0)" fill="#ca7754"/><rect width="0.286" height="2.593" transform="translate(4.001 0)" fill="#c97653"/><rect width="0.286" height="2.593" transform="translate(4.287 0)" fill="#c87653"/><rect width="0.286" height="2.593" transform="translate(4.573 0)" fill="#c77552"/><rect width="0.286" height="2.593" transform="translate(4.858 0)" fill="#c67452"/><rect width="0.286" height="2.593" transform="translate(5.144 0)" fill="#c57451"/><rect width="0.286" height="2.593" transform="translate(5.43 0)" fill="#c47351"/><rect width="0.286" height="2.593" transform="translate(5.716 0)" fill="#c37250"/><rect width="0.286" height="2.593" transform="translate(6.002 0)" fill="#c2714f"/><rect width="0.286" height="2.593" transform="translate(6.287 0)" fill="#c1714f"/><rect width="0.286" height="2.593" transform="translate(6.573 0)" fill="#c0704e"/><rect width="0.286" height="2.593" transform="translate(6.859 0)" fill="#bf6f4e"/><rect width="0.286" height="2.593" transform="translate(7.145 0)" fill="#be6f4d"/><rect width="0.286" height="2.593" transform="translate(7.431 0)" fill="#bd6e4d"/><rect width="0.286" height="2.593" transform="translate(7.716 0)" fill="#bc6d4c"/><rect width="0.286" height="2.593" transform="translate(8.002 0)" fill="#bb6d4c"/><rect width="0.286" height="2.593" transform="translate(8.288 0)" fill="#ba6c4b"/><rect width="0.286" height="2.593" transform="translate(8.574 0)" fill="#b96b4b"/><rect width="0.286" height="2.593" transform="translate(8.86 0)" fill="#b86b4a"/><rect width="0.286" height="2.593" transform="translate(9.145 0)" fill="#b76a49"/><rect width="0.286" height="2.593" transform="translate(9.431 0)" fill="#b66949"/><rect width="0.286" height="2.593" transform="translate(9.717 0)" fill="#b56848"/><rect width="0.286" height="2.593" transform="translate(10.003 0)" fill="#b46848"/><rect width="0.286" height="2.593" transform="translate(10.289 0)" fill="#b36747"/><rect width="0.286" height="2.593" transform="translate(10.574 0)" fill="#b26647"/><rect width="0.286" height="2.593" transform="translate(10.86 0)" fill="#b16646"/><rect width="0.286" height="2.593" transform="translate(11.146 0)" fill="#b06546"/><rect width="0.286" height="2.593" transform="translate(11.432 0)" fill="#af6445"/><rect width="0.286" height="2.593" transform="translate(11.718 0)" fill="#ae6444"/><rect width="0.286" height="2.593" transform="translate(12.003 0)" fill="#ad6344"/><rect width="0.286" height="2.593" transform="translate(12.289 0)" fill="#ac6243"/><rect width="0.286" height="2.593" transform="translate(12.575 0)" fill="#ab6243"/><rect width="0.286" height="2.593" transform="translate(12.861 0)" fill="#aa6142"/><rect width="0.286" height="2.593" transform="translate(13.146 0)" fill="#a86042"/><rect width="0.286" height="2.593" transform="translate(13.432 0)" fill="#a75f41"/><rect width="0.286" height="2.593" transform="translate(13.718 0)" fill="#a65f41"/><rect width="0.286" height="2.593" transform="translate(14.004 0)" fill="#a55e40"/><rect width="0.286" height="2.593" transform="translate(14.29 0)" fill="#a45d40"/><rect width="0.286" height="2.593" transform="translate(14.575 0)" fill="#a35d3f"/><rect width="0.286" height="2.593" transform="translate(14.861 0)" fill="#a25c3e"/><rect width="0.286" height="2.593" transform="translate(15.147 0)" fill="#a15b3e"/><rect width="0.286" height="2.593" transform="translate(15.433 0)" fill="#a05b3d"/><rect width="0.286" height="2.593" transform="translate(15.719 0)" fill="#9f5a3d"/><rect width="0.286" height="2.593" transform="translate(16.004 0)" fill="#9e593c"/><rect width="0.286" height="2.593" transform="translate(16.29 0)" fill="#9d593c"/><rect width="0.286" height="2.593" transform="translate(16.576 0)" fill="#9c583b"/><rect width="0.286" height="2.593" transform="translate(16.862 0)" fill="#9b573b"/><rect width="0.286" height="2.593" transform="translate(17.148 0)" fill="#9a563a"/><rect width="0.286" height="2.593" transform="translate(17.433 0)" fill="#995639"/><rect width="0.286" height="2.593" transform="translate(17.719 0)" fill="#985539"/><rect width="0.286" height="2.593" transform="translate(18.005 0)" fill="#975438"/><rect width="0.286" height="2.593" transform="translate(18.291 0)" fill="#965438"/><rect width="0.286" height="2.593" transform="translate(18.577 0)" fill="#955337"/><rect width="0.286" height="2.593" transform="translate(18.862 0)" fill="#945237"/><rect width="0.286" height="2.593" transform="translate(19.148 0)" fill="#935236"/><rect width="0.286" height="2.593" transform="translate(19.434 0)" fill="#925136"/><rect width="0.286" height="2.593" transform="translate(19.72 0)" fill="#915035"/><rect width="0.286" height="2.593" transform="translate(20.006 0)" fill="#905035"/><rect width="0.286" height="2.593" transform="translate(20.291 0)" fill="#8f4f34"/><rect width="0.286" height="2.593" transform="translate(20.577 0)" fill="#8e4e33"/><rect width="0.286" height="2.593" transform="translate(20.863 0)" fill="#8d4d33"/><rect width="0.286" height="2.593" transform="translate(21.149 0)" fill="#8c4d32"/><rect width="0.286" height="2.593" transform="translate(21.434 0)" fill="#8b4c32"/><rect width="0.286" height="2.593" transform="translate(21.72 0)" fill="#8a4b31"/><rect width="0.286" height="2.593" transform="translate(22.006 0)" fill="#894b31"/><rect width="0.286" height="2.593" transform="translate(22.292 0)" fill="#884a30"/><rect width="0.286" height="2.593" transform="translate(22.578 0)" fill="#874930"/><rect width="0.286" height="2.593" transform="translate(22.863 0)" fill="#86492f"/><rect width="0.286" height="2.593" transform="translate(23.149 0)" fill="#85482e"/><rect width="0.286" height="2.593" transform="translate(23.435 0)" fill="#84472e"/><rect width="0.286" height="2.593" transform="translate(23.721 0)" fill="#83472d"/><rect width="0.286" height="2.593" transform="translate(24.007 0)" fill="#82462d"/><rect width="0.286" height="2.593" transform="translate(24.292 0)" fill="#81452c"/><rect width="0.286" height="2.593" transform="translate(24.578 0)" fill="#80442c"/><rect width="0.286" height="2.593" transform="translate(24.864 0)" fill="#7f442b"/><rect width="0.286" height="2.593" transform="translate(25.15 0)" fill="#7e432b"/><rect width="0.286" height="2.593" transform="translate(25.436 0)" fill="#7d422a"/><rect width="0.286" height="2.593" transform="translate(25.721 0)" fill="#7c422a"/><rect width="0.286" height="2.593" transform="translate(26.007 0)" fill="#7b4129"/><path d="M-1108.324,369.388v0Z" transform="translate(1134.617 -366.796)" fill="#7b4129"/></g></g><g transform="translate(17.973 46.519)"><line x2="47.386" transform="translate(1.296 1.296)" fill="#fff"/><path d="M-1088.146,393.691h-47.385a1.3,1.3,0,0,1-1.3-1.3,1.3,1.3,0,0,1,1.3-1.3h47.385a1.3,1.3,0,0,1,1.3,1.3A1.3,1.3,0,0,1-1088.146,393.691Z" transform="translate(1136.827 -391.099)" fill="url(#b)"/></g><g transform="translate(17.973 59.601)"><path d="M-1135.531,407.877a1.3,1.3,0,0,1-1.3-1.3,1.3,1.3,0,0,1,1.3-1.3l43,0a1.3,1.3,0,0,1,1.3,1.3,1.3,1.3,0,0,1-1.3,1.3Z" transform="translate(1136.827 -405.281)" fill="url(#b)"/></g><g transform="translate(17.973 72.689)"><path d="M-1096.029,422.063h0l-39.5,0a1.3,1.3,0,0,1-1.3-1.3,1.3,1.3,0,0,1,1.3-1.3h0l39.5,0a1.3,1.3,0,0,1,1.3,1.3A1.3,1.3,0,0,1-1096.029,422.063Z" transform="translate(1136.827 -419.469)" fill="url(#b)"/></g><g transform="translate(17.973 85.774)"><g transform="translate(1.296 1.297)"><line x2="23.7" fill="#fff"/></g><g clip-path="url(#e)"><path d="M-1136.827,433.654v0Z" transform="translate(1136.827 -433.654)" fill="#d7805b"/><rect width="0.286" height="2.593" transform="translate(0 0)" fill="#d7805b"/><rect width="0.286" height="2.593" transform="translate(0.286 0)" fill="#d67f5a"/><rect width="0.286" height="2.593" transform="translate(0.572 0)" fill="#d57f5a"/><rect width="0.286" height="2.593" transform="translate(0.857 0)" fill="#d47e59"/><rect width="0.286" height="2.593" transform="translate(1.143 0)" fill="#d37d59"/><rect width="0.286" height="2.593" transform="translate(1.429 0)" fill="#d27d58"/><rect width="0.286" height="2.593" transform="translate(1.715 0)" fill="#d17c58"/><rect width="0.286" height="2.593" transform="translate(2.001 0)" fill="#d07b57"/><rect width="0.286" height="2.593" transform="translate(2.286 0)" fill="#cf7a57"/><rect width="0.286" height="2.593" transform="translate(2.572 0)" fill="#ce7a56"/><rect width="0.286" height="2.593" transform="translate(2.858 0)" fill="#cd7956"/><rect width="0.286" height="2.593" transform="translate(3.144 0)" fill="#cc7855"/><rect width="0.286" height="2.593" transform="translate(3.43 0)" fill="#cb7854"/><rect width="0.286" height="2.593" transform="translate(3.715 0)" fill="#ca7754"/><rect width="0.286" height="2.593" transform="translate(4.001 0)" fill="#c97653"/><rect width="0.286" height="2.593" transform="translate(4.287 0)" fill="#c87653"/><rect width="0.286" height="2.593" transform="translate(4.573 0)" fill="#c77552"/><rect width="0.286" height="2.593" transform="translate(4.858 0)" fill="#c67452"/><rect width="0.286" height="2.593" transform="translate(5.144 0)" fill="#c57451"/><rect width="0.286" height="2.593" transform="translate(5.43 0)" fill="#c47351"/><rect width="0.286" height="2.593" transform="translate(5.716 0)" fill="#c37250"/><rect width="0.286" height="2.593" transform="translate(6.002 0)" fill="#c2714f"/><rect width="0.286" height="2.593" transform="translate(6.287 0)" fill="#c1714f"/><rect width="0.286" height="2.593" transform="translate(6.573 0)" fill="#c0704e"/><rect width="0.286" height="2.593" transform="translate(6.859 0)" fill="#bf6f4e"/><rect width="0.286" height="2.593" transform="translate(7.145 0)" fill="#be6f4d"/><rect width="0.286" height="2.593" transform="translate(7.431 0)" fill="#bd6e4d"/><rect width="0.286" height="2.593" transform="translate(7.716 0)" fill="#bc6d4c"/><rect width="0.286" height="2.593" transform="translate(8.002 0)" fill="#bb6d4c"/><rect width="0.286" height="2.593" transform="translate(8.288 0)" fill="#ba6c4b"/><rect width="0.286" height="2.593" transform="translate(8.574 0)" fill="#b96b4b"/><rect width="0.286" height="2.593" transform="translate(8.86 0)" fill="#b86b4a"/><rect width="0.286" height="2.593" transform="translate(9.145 0)" fill="#b76a49"/><rect width="0.286" height="2.593" transform="translate(9.431 0)" fill="#b66949"/><rect width="0.286" height="2.593" transform="translate(9.717 0)" fill="#b56848"/><rect width="0.286" height="2.593" transform="translate(10.003 0)" fill="#b46848"/><rect width="0.286" height="2.593" transform="translate(10.289 0)" fill="#b36747"/><rect width="0.286" height="2.593" transform="translate(10.574 0)" fill="#b26647"/><rect width="0.286" height="2.593" transform="translate(10.86 0)" fill="#b16646"/><rect width="0.286" height="2.593" transform="translate(11.146 0)" fill="#b06546"/><rect width="0.286" height="2.593" transform="translate(11.432 0)" fill="#af6445"/><rect width="0.286" height="2.593" transform="translate(11.718 0)" fill="#ae6444"/><rect width="0.286" height="2.593" transform="translate(12.003 0)" fill="#ad6344"/><rect width="0.286" height="2.593" transform="translate(12.289 0)" fill="#ac6243"/><rect width="0.286" height="2.593" transform="translate(12.575 0)" fill="#ab6243"/><rect width="0.286" height="2.593" transform="translate(12.861 0)" fill="#aa6142"/><rect width="0.286" height="2.593" transform="translate(13.146 0)" fill="#a86042"/><rect width="0.286" height="2.593" transform="translate(13.432 0)" fill="#a75f41"/><rect width="0.286" height="2.593" transform="translate(13.718 0)" fill="#a65f41"/><rect width="0.286" height="2.593" transform="translate(14.004 0)" fill="#a55e40"/><rect width="0.286" height="2.593" transform="translate(14.29 0)" fill="#a45d40"/><rect width="0.286" height="2.593" transform="translate(14.575 0)" fill="#a35d3f"/><rect width="0.286" height="2.593" transform="translate(14.861 0)" fill="#a25c3e"/><rect width="0.286" height="2.593" transform="translate(15.147 0)" fill="#a15b3e"/><rect width="0.286" height="2.593" transform="translate(15.433 0)" fill="#a05b3d"/><rect width="0.286" height="2.593" transform="translate(15.719 0)" fill="#9f5a3d"/><rect width="0.286" height="2.593" transform="translate(16.004 0)" fill="#9e593c"/><rect width="0.286" height="2.593" transform="translate(16.29 0)" fill="#9d593c"/><rect width="0.286" height="2.593" transform="translate(16.576 0)" fill="#9c583b"/><rect width="0.286" height="2.593" transform="translate(16.862 0)" fill="#9b573b"/><rect width="0.286" height="2.593" transform="translate(17.148 0)" fill="#9a563a"/><rect width="0.286" height="2.593" transform="translate(17.433 0)" fill="#995639"/><rect width="0.286" height="2.593" transform="translate(17.719 0)" fill="#985539"/><rect width="0.286" height="2.593" transform="translate(18.005 0)" fill="#975438"/><rect width="0.286" height="2.593" transform="translate(18.291 0)" fill="#965438"/><rect width="0.286" height="2.593" transform="translate(18.577 0)" fill="#955337"/><rect width="0.286" height="2.593" transform="translate(18.862 0)" fill="#945237"/><rect width="0.286" height="2.593" transform="translate(19.148 0)" fill="#935236"/><rect width="0.286" height="2.593" transform="translate(19.434 0)" fill="#925136"/><rect width="0.286" height="2.593" transform="translate(19.72 0)" fill="#915035"/><rect width="0.286" height="2.593" transform="translate(20.006 0)" fill="#905035"/><rect width="0.286" height="2.593" transform="translate(20.291 0)" fill="#8f4f34"/><rect width="0.286" height="2.593" transform="translate(20.577 0)" fill="#8e4e33"/><rect width="0.286" height="2.593" transform="translate(20.863 0)" fill="#8d4d33"/><rect width="0.286" height="2.593" transform="translate(21.149 0)" fill="#8c4d32"/><rect width="0.286" height="2.593" transform="translate(21.434 0)" fill="#8b4c32"/><rect width="0.286" height="2.593" transform="translate(21.72 0)" fill="#8a4b31"/><rect width="0.286" height="2.593" transform="translate(22.006 0)" fill="#894b31"/><rect width="0.286" height="2.593" transform="translate(22.292 0)" fill="#884a30"/><rect width="0.286" height="2.593" transform="translate(22.578 0)" fill="#874930"/><rect width="0.286" height="2.593" transform="translate(22.863 0)" fill="#86492f"/><rect width="0.286" height="2.593" transform="translate(23.149 0)" fill="#85482e"/><rect width="0.286" height="2.593" transform="translate(23.435 0)" fill="#84472e"/><rect width="0.286" height="2.593" transform="translate(23.721 0)" fill="#83472d"/><rect width="0.286" height="2.593" transform="translate(24.007 0)" fill="#82462d"/><rect width="0.286" height="2.593" transform="translate(24.292 0)" fill="#81452c"/><rect width="0.286" height="2.593" transform="translate(24.578 0)" fill="#80442c"/><rect width="0.286" height="2.593" transform="translate(24.864 0)" fill="#7f442b"/><rect width="0.286" height="2.593" transform="translate(25.15 0)" fill="#7e432b"/><rect width="0.286" height="2.593" transform="translate(25.436 0)" fill="#7d422a"/><rect width="0.286" height="2.593" transform="translate(25.721 0)" fill="#7c422a"/><rect width="0.286" height="2.593" transform="translate(26.007 0)" fill="#7b4129"/><path d="M-1108.324,436.247v0Z" transform="translate(1134.617 -433.654)" fill="#7b4129"/></g></g><g transform="translate(0 0)"><path d="M-1060.061,393.988a24.4,24.4,0,0,0-10.322-4.289V371.277a1.277,1.277,0,0,0-.378-.913l-.046-.046-29.261-29.27a1.359,1.359,0,0,0-.415-.277,1.109,1.109,0,0,0-.249-.074,1.3,1.3,0,0,0-.258-.028h-49.527a5.759,5.759,0,0,0-4.087,1.7,5.735,5.735,0,0,0-1.706,4.1v110.8a5.857,5.857,0,0,0,5.8,5.784h74.351a5.823,5.823,0,0,0,5.775-5.793v-19.27a24.415,24.415,0,0,0,10.322-4.3A24.557,24.557,0,0,0-1049.9,413.84,24.561,24.561,0,0,0-1060.061,393.988ZM-1099.69,345.1l24.879,24.879h-21.678a3.211,3.211,0,0,1-3.2-3.238Zm26.715,112.135a3.243,3.243,0,0,1-3.2,3.219H-1150.5a3.242,3.242,0,0,1-3.219-3.2V346.472a3.166,3.166,0,0,1,.941-2.269,3.167,3.167,0,0,1,2.26-.932h48.236v23.477a5.809,5.809,0,0,0,5.793,5.821h23.514V389.4c-.471-.028-.932-.037-1.4-.037a24.346,24.346,0,0,0-20.765,11.512,24.391,24.391,0,0,0-3.708,12.961c0,.286,0,.581.018.858a24.365,24.365,0,0,0,24.455,23.615c.47,0,.932-.009,1.4-.037Zm11.4-25.654a21.9,21.9,0,0,1-10.258,3.994,23.163,23.163,0,0,1-2.546.148,21.8,21.8,0,0,1-21.872-21.115c-.009-.258-.009-.507-.009-.766a21.825,21.825,0,0,1,3.312-11.586,21.781,21.781,0,0,1,18.569-10.295,21.094,21.094,0,0,1,2.546.148,21.891,21.891,0,0,1,10.258,3.985,21.952,21.952,0,0,1,9.077,17.748A21.948,21.948,0,0,1-1061.574,431.579Z" transform="translate(1156.311 -340.67)" fill="url(#b)"/></g><g transform="translate(70.981 62.218)"><g transform="translate(1.296 1.296)"><line x1="19.308" y2="19.308" fill="none"/></g><g clip-path="url(#g)"><rect width="0.127" height="22.027" transform="translate(-0.126 -0.126)" fill="#d7805b"/><rect width="0.238" height="22.027" transform="translate(0 -0.126)" fill="#d7805b"/><rect width="0.238" height="22.027" transform="translate(0.238 -0.126)" fill="#d67f5a"/><rect width="0.238" height="22.027" transform="translate(0.476 -0.126)" fill="#d57f5a"/><rect width="0.238" height="22.027" transform="translate(0.714 -0.126)" fill="#d47e59"/><rect width="0.238" height="22.027" transform="translate(0.952 -0.126)" fill="#d37d59"/><rect width="0.238" height="22.027" transform="translate(1.19 -0.126)" fill="#d27d58"/><rect width="0.238" height="22.027" transform="translate(1.428 -0.126)" fill="#d17c58"/><rect width="0.238" height="22.027" transform="translate(1.666 -0.126)" fill="#d07b57"/><rect width="0.238" height="22.027" transform="translate(1.904 -0.126)" fill="#cf7a57"/><rect width="0.238" height="22.027" transform="translate(2.143 -0.126)" fill="#ce7a56"/><rect width="0.238" height="22.027" transform="translate(2.381 -0.126)" fill="#cd7956"/><rect width="0.238" height="22.027" transform="translate(2.619 -0.126)" fill="#cc7855"/><rect width="0.238" height="22.027" transform="translate(2.857 -0.126)" fill="#cb7854"/><rect width="0.238" height="22.027" transform="translate(3.095 -0.126)" fill="#ca7754"/><rect width="0.238" height="22.027" transform="translate(3.333 -0.126)" fill="#c97653"/><rect width="0.238" height="22.027" transform="translate(3.571 -0.126)" fill="#c87653"/><rect width="0.238" height="22.027" transform="translate(3.809 -0.126)" fill="#c77552"/><rect width="0.238" height="22.027" transform="translate(4.047 -0.126)" fill="#c67452"/><rect width="0.238" height="22.027" transform="translate(4.285 -0.126)" fill="#c57451"/><rect width="0.238" height="22.027" transform="translate(4.523 -0.126)" fill="#c47351"/><rect width="0.238" height="22.027" transform="translate(4.761 -0.126)" fill="#c37250"/><rect width="0.238" height="22.027" transform="translate(4.999 -0.126)" fill="#c2714f"/><rect width="0.238" height="22.027" transform="translate(5.237 -0.126)" fill="#c1714f"/><rect width="0.238" height="22.027" transform="translate(5.475 -0.126)" fill="#c0704e"/><rect width="0.238" height="22.027" transform="translate(5.713 -0.126)" fill="#bf6f4e"/><rect width="0.238" height="22.027" transform="translate(5.951 -0.126)" fill="#be6f4d"/><rect width="0.238" height="22.027" transform="translate(6.189 -0.126)" fill="#bd6e4d"/><rect width="0.238" height="22.027" transform="translate(6.427 -0.126)" fill="#bc6d4c"/><rect width="0.238" height="22.027" transform="translate(6.665 -0.126)" fill="#bb6d4c"/><rect width="0.238" height="22.027" transform="translate(6.904 -0.126)" fill="#ba6c4b"/><rect width="0.238" height="22.027" transform="translate(7.142 -0.126)" fill="#b96b4b"/><rect width="0.238" height="22.027" transform="translate(7.38 -0.126)" fill="#b86b4a"/><rect width="0.238" height="22.027" transform="translate(7.618 -0.126)" fill="#b76a49"/><rect width="0.238" height="22.027" transform="translate(7.856 -0.126)" fill="#b66949"/><rect width="0.238" height="22.027" transform="translate(8.094 -0.126)" fill="#b56848"/><rect width="0.238" height="22.027" transform="translate(8.332 -0.126)" fill="#b46848"/><rect width="0.238" height="22.027" transform="translate(8.57 -0.126)" fill="#b36747"/><rect width="0.238" height="22.027" transform="translate(8.808 -0.126)" fill="#b26647"/><rect width="0.238" height="22.027" transform="translate(9.046 -0.126)" fill="#b16646"/><rect width="0.238" height="22.027" transform="translate(9.284 -0.126)" fill="#b06546"/><rect width="0.238" height="22.027" transform="translate(9.522 -0.126)" fill="#af6445"/><rect width="0.238" height="22.027" transform="translate(9.76 -0.126)" fill="#ae6444"/><rect width="0.238" height="22.027" transform="translate(9.998 -0.126)" fill="#ad6344"/><rect width="0.238" height="22.027" transform="translate(10.236 -0.126)" fill="#ac6243"/><rect width="0.238" height="22.027" transform="translate(10.474 -0.126)" fill="#ab6243"/><rect width="0.238" height="22.027" transform="translate(10.712 -0.126)" fill="#aa6142"/><rect width="0.238" height="22.027" transform="translate(10.95 -0.126)" fill="#a86042"/><rect width="0.238" height="22.027" transform="translate(11.188 -0.126)" fill="#a75f41"/><rect width="0.238" height="22.027" transform="translate(11.426 -0.126)" fill="#a65f41"/><rect width="0.238" height="22.027" transform="translate(11.664 -0.126)" fill="#a55e40"/><rect width="0.238" height="22.027" transform="translate(11.903 -0.126)" fill="#a45d40"/><rect width="0.238" height="22.027" transform="translate(12.141 -0.126)" fill="#a35d3f"/><rect width="0.238" height="22.027" transform="translate(12.379 -0.126)" fill="#a25c3e"/><rect width="0.238" height="22.027" transform="translate(12.617 -0.126)" fill="#a15b3e"/><rect width="0.238" height="22.027" transform="translate(12.855 -0.126)" fill="#a05b3d"/><rect width="0.238" height="22.027" transform="translate(13.093 -0.126)" fill="#9f5a3d"/><rect width="0.238" height="22.027" transform="translate(13.331 -0.126)" fill="#9e593c"/><rect width="0.238" height="22.027" transform="translate(13.569 -0.126)" fill="#9d593c"/><rect width="0.238" height="22.027" transform="translate(13.807 -0.126)" fill="#9c583b"/><rect width="0.238" height="22.027" transform="translate(14.045 -0.126)" fill="#9b573b"/><rect width="0.238" height="22.027" transform="translate(14.283 -0.126)" fill="#9a563a"/><rect width="0.238" height="22.027" transform="translate(14.521 -0.126)" fill="#995639"/><rect width="0.238" height="22.027" transform="translate(14.759 -0.126)" fill="#985539"/><rect width="0.238" height="22.027" transform="translate(14.997 -0.126)" fill="#975438"/><rect width="0.238" height="22.027" transform="translate(15.235 -0.126)" fill="#965438"/><rect width="0.238" height="22.027" transform="translate(15.473 -0.126)" fill="#955337"/><rect width="0.238" height="22.027" transform="translate(15.711 -0.126)" fill="#945237"/><rect width="0.238" height="22.027" transform="translate(15.949 -0.126)" fill="#935236"/><rect width="0.238" height="22.027" transform="translate(16.187 -0.126)" fill="#925136"/><rect width="0.238" height="22.027" transform="translate(16.425 -0.126)" fill="#915035"/><rect width="0.238" height="22.027" transform="translate(16.663 -0.126)" fill="#905035"/><rect width="0.238" height="22.027" transform="translate(16.902 -0.126)" fill="#8f4f34"/><rect width="0.238" height="22.027" transform="translate(17.14 -0.126)" fill="#8e4e33"/><rect width="0.238" height="22.027" transform="translate(17.378 -0.126)" fill="#8d4d33"/><rect width="0.238" height="22.027" transform="translate(17.616 -0.126)" fill="#8c4d32"/><rect width="0.238" height="22.027" transform="translate(17.854 -0.126)" fill="#8b4c32"/><rect width="0.238" height="22.027" transform="translate(18.092 -0.126)" fill="#8a4b31"/><rect width="0.238" height="22.027" transform="translate(18.33 -0.126)" fill="#894b31"/><rect width="0.238" height="22.027" transform="translate(18.568 -0.126)" fill="#884a30"/><rect width="0.238" height="22.027" transform="translate(18.806 -0.126)" fill="#874930"/><rect width="0.238" height="22.027" transform="translate(19.044 -0.126)" fill="#86492f"/><rect width="0.238" height="22.027" transform="translate(19.282 -0.126)" fill="#85482e"/><rect width="0.238" height="22.027" transform="translate(19.52 -0.126)" fill="#84472e"/><rect width="0.238" height="22.027" transform="translate(19.758 -0.126)" fill="#83472d"/><rect width="0.238" height="22.027" transform="translate(19.996 -0.126)" fill="#82462d"/><rect width="0.238" height="22.027" transform="translate(20.234 -0.126)" fill="#81452c"/><rect width="0.238" height="22.027" transform="translate(20.472 -0.126)" fill="#80442c"/><rect width="0.238" height="22.027" transform="translate(20.71 -0.126)" fill="#7f442b"/><rect width="0.238" height="22.027" transform="translate(20.948 -0.126)" fill="#7e432b"/><rect width="0.238" height="22.027" transform="translate(21.186 -0.126)" fill="#7d422a"/><rect width="0.238" height="22.027" transform="translate(21.424 -0.126)" fill="#7c422a"/><rect width="0.238" height="22.027" transform="translate(21.663 -0.126)" fill="#7b4129"/><rect width="0.127" height="22.027" transform="translate(21.901 -0.126)" fill="#7b4129"/></g></g><g transform="translate(70.981 62.218)"><g transform="translate(1.296 1.296)"><line x1="19.308" y1="19.308" fill="none"/></g><g clip-path="url(#h)"><rect width="0.127" height="22.027" transform="translate(-0.126 -0.126)" fill="#d7805b"/><rect width="0.238" height="22.027" transform="translate(0 -0.126)" fill="#d7805b"/><rect width="0.238" height="22.027" transform="translate(0.238 -0.126)" fill="#d67f5a"/><rect width="0.238" height="22.027" transform="translate(0.476 -0.126)" fill="#d57f5a"/><rect width="0.238" height="22.027" transform="translate(0.714 -0.126)" fill="#d47e59"/><rect width="0.238" height="22.027" transform="translate(0.952 -0.126)" fill="#d37d59"/><rect width="0.238" height="22.027" transform="translate(1.19 -0.126)" fill="#d27d58"/><rect width="0.238" height="22.027" transform="translate(1.428 -0.126)" fill="#d17c58"/><rect width="0.238" height="22.027" transform="translate(1.666 -0.126)" fill="#d07b57"/><rect width="0.238" height="22.027" transform="translate(1.904 -0.126)" fill="#cf7a57"/><rect width="0.238" height="22.027" transform="translate(2.143 -0.126)" fill="#ce7a56"/><rect width="0.238" height="22.027" transform="translate(2.381 -0.126)" fill="#cd7956"/><rect width="0.238" height="22.027" transform="translate(2.619 -0.126)" fill="#cc7855"/><rect width="0.238" height="22.027" transform="translate(2.857 -0.126)" fill="#cb7854"/><rect width="0.238" height="22.027" transform="translate(3.095 -0.126)" fill="#ca7754"/><rect width="0.238" height="22.027" transform="translate(3.333 -0.126)" fill="#c97653"/><rect width="0.238" height="22.027" transform="translate(3.571 -0.126)" fill="#c87653"/><rect width="0.238" height="22.027" transform="translate(3.809 -0.126)" fill="#c77552"/><rect width="0.238" height="22.027" transform="translate(4.047 -0.126)" fill="#c67452"/><rect width="0.238" height="22.027" transform="translate(4.285 -0.126)" fill="#c57451"/><rect width="0.238" height="22.027" transform="translate(4.523 -0.126)" fill="#c47351"/><rect width="0.238" height="22.027" transform="translate(4.761 -0.126)" fill="#c37250"/><rect width="0.238" height="22.027" transform="translate(4.999 -0.126)" fill="#c2714f"/><rect width="0.238" height="22.027" transform="translate(5.237 -0.126)" fill="#c1714f"/><rect width="0.238" height="22.027" transform="translate(5.475 -0.126)" fill="#c0704e"/><rect width="0.238" height="22.027" transform="translate(5.713 -0.126)" fill="#bf6f4e"/><rect width="0.238" height="22.027" transform="translate(5.951 -0.126)" fill="#be6f4d"/><rect width="0.238" height="22.027" transform="translate(6.189 -0.126)" fill="#bd6e4d"/><rect width="0.238" height="22.027" transform="translate(6.427 -0.126)" fill="#bc6d4c"/><rect width="0.238" height="22.027" transform="translate(6.665 -0.126)" fill="#bb6d4c"/><rect width="0.238" height="22.027" transform="translate(6.904 -0.126)" fill="#ba6c4b"/><rect width="0.238" height="22.027" transform="translate(7.142 -0.126)" fill="#b96b4b"/><rect width="0.238" height="22.027" transform="translate(7.38 -0.126)" fill="#b86b4a"/><rect width="0.238" height="22.027" transform="translate(7.618 -0.126)" fill="#b76a49"/><rect width="0.238" height="22.027" transform="translate(7.856 -0.126)" fill="#b66949"/><rect width="0.238" height="22.027" transform="translate(8.094 -0.126)" fill="#b56848"/><rect width="0.238" height="22.027" transform="translate(8.332 -0.126)" fill="#b46848"/><rect width="0.238" height="22.027" transform="translate(8.57 -0.126)" fill="#b36747"/><rect width="0.238" height="22.027" transform="translate(8.808 -0.126)" fill="#b26647"/><rect width="0.238" height="22.027" transform="translate(9.046 -0.126)" fill="#b16646"/><rect width="0.238" height="22.027" transform="translate(9.284 -0.126)" fill="#b06546"/><rect width="0.238" height="22.027" transform="translate(9.522 -0.126)" fill="#af6445"/><rect width="0.238" height="22.027" transform="translate(9.76 -0.126)" fill="#ae6444"/><rect width="0.238" height="22.027" transform="translate(9.998 -0.126)" fill="#ad6344"/><rect width="0.238" height="22.027" transform="translate(10.236 -0.126)" fill="#ac6243"/><rect width="0.238" height="22.027" transform="translate(10.474 -0.126)" fill="#ab6243"/><rect width="0.238" height="22.027" transform="translate(10.712 -0.126)" fill="#aa6142"/><rect width="0.238" height="22.027" transform="translate(10.95 -0.126)" fill="#a86042"/><rect width="0.238" height="22.027" transform="translate(11.188 -0.126)" fill="#a75f41"/><rect width="0.238" height="22.027" transform="translate(11.426 -0.126)" fill="#a65f41"/><rect width="0.238" height="22.027" transform="translate(11.664 -0.126)" fill="#a55e40"/><rect width="0.238" height="22.027" transform="translate(11.903 -0.126)" fill="#a45d40"/><rect width="0.238" height="22.027" transform="translate(12.141 -0.126)" fill="#a35d3f"/><rect width="0.238" height="22.027" transform="translate(12.379 -0.126)" fill="#a25c3e"/><rect width="0.238" height="22.027" transform="translate(12.617 -0.126)" fill="#a15b3e"/><rect width="0.238" height="22.027" transform="translate(12.855 -0.126)" fill="#a05b3d"/><rect width="0.238" height="22.027" transform="translate(13.093 -0.126)" fill="#9f5a3d"/><rect width="0.238" height="22.027" transform="translate(13.331 -0.126)" fill="#9e593c"/><rect width="0.238" height="22.027" transform="translate(13.569 -0.126)" fill="#9d593c"/><rect width="0.238" height="22.027" transform="translate(13.807 -0.126)" fill="#9c583b"/><rect width="0.238" height="22.027" transform="translate(14.045 -0.126)" fill="#9b573b"/><rect width="0.238" height="22.027" transform="translate(14.283 -0.126)" fill="#9a563a"/><rect width="0.238" height="22.027" transform="translate(14.521 -0.126)" fill="#995639"/><rect width="0.238" height="22.027" transform="translate(14.759 -0.126)" fill="#985539"/><rect width="0.238" height="22.027" transform="translate(14.997 -0.126)" fill="#975438"/><rect width="0.238" height="22.027" transform="translate(15.235 -0.126)" fill="#965438"/><rect width="0.238" height="22.027" transform="translate(15.473 -0.126)" fill="#955337"/><rect width="0.238" height="22.027" transform="translate(15.711 -0.126)" fill="#945237"/><rect width="0.238" height="22.027" transform="translate(15.949 -0.126)" fill="#935236"/><rect width="0.238" height="22.027" transform="translate(16.187 -0.126)" fill="#925136"/><rect width="0.238" height="22.027" transform="translate(16.425 -0.126)" fill="#915035"/><rect width="0.238" height="22.027" transform="translate(16.663 -0.126)" fill="#905035"/><rect width="0.238" height="22.027" transform="translate(16.902 -0.126)" fill="#8f4f34"/><rect width="0.238" height="22.027" transform="translate(17.14 -0.126)" fill="#8e4e33"/><rect width="0.238" height="22.027" transform="translate(17.378 -0.126)" fill="#8d4d33"/><rect width="0.238" height="22.027" transform="translate(17.616 -0.126)" fill="#8c4d32"/><rect width="0.238" height="22.027" transform="translate(17.854 -0.126)" fill="#8b4c32"/><rect width="0.238" height="22.027" transform="translate(18.092 -0.126)" fill="#8a4b31"/><rect width="0.238" height="22.027" transform="translate(18.33 -0.126)" fill="#894b31"/><rect width="0.238" height="22.027" transform="translate(18.568 -0.126)" fill="#884a30"/><rect width="0.238" height="22.027" transform="translate(18.806 -0.126)" fill="#874930"/><rect width="0.238" height="22.027" transform="translate(19.044 -0.126)" fill="#86492f"/><rect width="0.238" height="22.027" transform="translate(19.282 -0.126)" fill="#85482e"/><rect width="0.238" height="22.027" transform="translate(19.52 -0.126)" fill="#84472e"/><rect width="0.238" height="22.027" transform="translate(19.758 -0.126)" fill="#83472d"/><rect width="0.238" height="22.027" transform="translate(19.996 -0.126)" fill="#82462d"/><rect width="0.238" height="22.027" transform="translate(20.234 -0.126)" fill="#81452c"/><rect width="0.238" height="22.027" transform="translate(20.472 -0.126)" fill="#80442c"/><rect width="0.238" height="22.027" transform="translate(20.71 -0.126)" fill="#7f442b"/><rect width="0.238" height="22.027" transform="translate(20.948 -0.126)" fill="#7e432b"/><rect width="0.238" height="22.027" transform="translate(21.186 -0.126)" fill="#7d422a"/><rect width="0.238" height="22.027" transform="translate(21.424 -0.126)" fill="#7c422a"/><rect width="0.238" height="22.027" transform="translate(21.663 -0.126)" fill="#7b4129"/><rect width="0.127" height="22.027" transform="translate(21.901 -0.126)" fill="#7b4129"/></g></g></svg>