<svg xmlns="http://www.w3.org/2000/svg" xmlns:xlink="http://www.w3.org/1999/xlink" width="85.069" height="141.717" viewBox="0 0 85.069 141.717"><defs><linearGradient id="a" y1="0.5" x2="1" y2="0.5" gradientUnits="objectBoundingBox"><stop offset="0" stop-color="#998ec4"/><stop offset="1" stop-color="#241d41"/></linearGradient><linearGradient id="n" x1="0" y1="0.5" x2="1" y2="0.5" xlink:href="#a"/><linearGradient id="o" x1="0" y1="0.5" x2="1" y2="0.5" xlink:href="#a"/><linearGradient id="p" x1="0" y1="0.5" x2="1" y2="0.5" xlink:href="#a"/></defs><g transform="translate(-2431.21 -297.31)"><path d="M2511.547,297.685h-49.094a4.362,4.362,0,0,0-4.356,4.356V378.41h.086a3.411,3.411,0,0,0,1.184,1.9,3.556,3.556,0,0,0,.971.558V302.041a2.116,2.116,0,0,1,2.115-2.115h49.094a2.122,2.122,0,0,1,2.122,2.115v86.644a2.118,2.118,0,0,1-2.122,2.115h-19.805c-.093.751-.22,1.5-.366,2.241h20.171a4.363,4.363,0,0,0,4.356-4.356V302.041A4.362,4.362,0,0,0,2511.547,297.685Z" fill="url(#a)"/><path d="M2511.547,393.416h-20.171a.374.374,0,0,1-.368-.448c.153-.773.275-1.518.362-2.216a.375.375,0,0,1,.372-.328h19.805a1.745,1.745,0,0,0,1.747-1.739V302.041a1.745,1.745,0,0,0-1.747-1.74h-49.094a1.741,1.741,0,0,0-1.74,1.74v78.83a.372.372,0,0,1-.163.308.366.366,0,0,1-.347.041,3.835,3.835,0,0,1-1.073-.618,3.749,3.749,0,0,1-1.27-1.938.34.34,0,0,1-.138-.254V302.041a4.736,4.736,0,0,1,4.731-4.731h49.094a4.736,4.736,0,0,1,4.731,4.731v86.644A4.736,4.736,0,0,1,2511.547,393.416Zm-19.717-.75h19.717a3.986,3.986,0,0,0,3.981-3.981V302.041a3.986,3.986,0,0,0-3.981-3.981h-49.094a3.986,3.986,0,0,0-3.981,3.981v76.152a.29.29,0,0,1,.078.135,3,3,0,0,0,1.053,1.693,3.056,3.056,0,0,0,.36.252V302.041a2.493,2.493,0,0,1,2.49-2.49h49.094a2.5,2.5,0,0,1,2.5,2.49v86.644a2.5,2.5,0,0,1-2.5,2.489h-19.476C2492.006,391.654,2491.925,392.153,2491.83,392.666Z" fill="url(#a)"/><path d="M2492.021,378.41v2.241h21.648v8.034a2.118,2.118,0,0,1-2.122,2.115h-19.805c-.093.751-.22,1.5-.366,2.241h20.171a4.363,4.363,0,0,0,4.356-4.356V378.41Zm-33.838,0a3.411,3.411,0,0,0,1.184,1.9,3.556,3.556,0,0,0,.971.558v-.219H2464l7.023-1.47a3.393,3.393,0,0,0,1.549-.771Z" fill="url(#a)"/><path d="M2511.547,393.416h-20.171a.374.374,0,0,1-.368-.448c.153-.773.275-1.519.362-2.216a.375.375,0,0,1,.372-.328h19.805a1.745,1.745,0,0,0,1.747-1.739v-7.659h-21.273a.375.375,0,0,1-.375-.375V378.41a.375.375,0,0,1,.375-.375H2515.9a.375.375,0,0,1,.375.375v10.275A4.736,4.736,0,0,1,2511.547,393.416Zm-19.717-.75h19.717a3.986,3.986,0,0,0,3.981-3.981v-9.9H2492.4v1.491h21.273a.375.375,0,0,1,.375.375v8.034a2.5,2.5,0,0,1-2.5,2.489h-19.476C2492.006,391.654,2491.925,392.153,2491.83,392.666Zm-31.492-11.42a.357.357,0,0,1-.135-.026,3.835,3.835,0,0,1-1.073-.618,3.752,3.752,0,0,1-1.313-2.11.38.38,0,0,1,.074-.317.372.372,0,0,1,.293-.14h14.384a.375.375,0,0,1,.248.656,3.765,3.765,0,0,1-1.721.857l-7.022,1.47-3.393.007a.388.388,0,0,1-.13.154A.37.37,0,0,1,2460.338,381.246Zm-1.649-2.461a3.044,3.044,0,0,0,.914,1.236,3.15,3.15,0,0,0,.5.334.373.373,0,0,1,.231-.079H2464l6.945-1.462.128-.029Z" fill="url(#a)"/><path d="M2515.9,310.438H2458.1v-8.021a4.36,4.36,0,0,1,4.355-4.355h49.1a4.36,4.36,0,0,1,4.355,4.355Zm-55.569-2.238h53.331v-5.783a2.12,2.12,0,0,0-2.117-2.117h-49.1a2.12,2.12,0,0,0-2.117,2.117Z" fill="url(#a)"/><path d="M2515.9,310.813H2458.1a.375.375,0,0,1-.375-.375v-8.021a4.736,4.736,0,0,1,4.73-4.73h49.1a4.736,4.736,0,0,1,4.73,4.73v8.021A.375.375,0,0,1,2515.9,310.813Zm-57.432-.75h57.057v-7.646a3.984,3.984,0,0,0-3.98-3.98h-49.1a3.984,3.984,0,0,0-3.98,3.98Zm55.194-1.488h-53.331a.375.375,0,0,1-.375-.375v-5.783a2.5,2.5,0,0,1,2.492-2.492h49.1a2.5,2.5,0,0,1,2.492,2.492V308.2A.375.375,0,0,1,2513.666,308.575Zm-52.956-.75h52.581v-5.408a1.743,1.743,0,0,0-1.742-1.742h-49.1a1.743,1.743,0,0,0-1.742,1.742Z" fill="url(#a)"/><path d="M2488.25,349.593a7.248,7.248,0,0,0-7.907,4.429l-8.905,22.233a1.218,1.218,0,0,1-.878.738l-6.8,1.417-1.975.412a1.206,1.206,0,0,1-1.011-.246,1.229,1.229,0,0,1-.166-.166,1.2,1.2,0,0,1-.273-.606,1.456,1.456,0,0,1-.013-.173v-32.8l-2.228,2.939-11.213,14.8a21.573,21.573,0,0,0-4.363,13.58l.612,22.173-3.458,6.684-.9,1.743,28.99,24.114,1.07-1.263,17.019-20.125a35.575,35.575,0,0,0,7.795-16.433c.146-.738.259-1.49.345-2.241a33.992,33.992,0,0,0,.267-4.283V356.709A7.2,7.2,0,0,0,2488.25,349.593Zm3.771,36.924a32.894,32.894,0,0,1-.279,4.283c-.093.751-.22,1.5-.366,2.241a33.323,33.323,0,0,1-7.229,14.99l-16.653,19.693-25.9-21.548,3.8-7.342-.626-22.745a19.325,19.325,0,0,1,3.9-12.171l9.424-12.43v26.143a.791.791,0,0,0,.007.127,2.987,2.987,0,0,0,.086.652,3.411,3.411,0,0,0,1.184,1.9,3.556,3.556,0,0,0,.971.558,3.453,3.453,0,0,0,1.909.147l1.749-.366,7.023-1.47a3.393,3.393,0,0,0,1.549-.771,3.355,3.355,0,0,0,.951-1.324l8.905-22.233a4.976,4.976,0,0,1,9.6,1.856Z" fill="url(#a)"/><path d="M2463.934,438.651a2.457,2.457,0,0,1-1.59-.582l-29.881-25.194a2.476,2.476,0,0,1-.3-3.485l3.686-4.372a2.475,2.475,0,0,1,3.485-.3l29.881,25.194a2.473,2.473,0,0,1,.3,3.485l-3.685,4.371a2.458,2.458,0,0,1-1.681.87C2464.076,438.648,2464,438.651,2463.934,438.651Zm-26.191-32.273h-.02a.228.228,0,0,0-.16.082l-3.686,4.371a.236.236,0,0,0,.028.331l29.882,25.194a.228.228,0,0,0,.171.055.231.231,0,0,0,.16-.083l3.685-4.371a.232.232,0,0,0,.055-.171.235.235,0,0,0-.083-.16l-29.881-25.194A.232.232,0,0,0,2437.743,406.378Z" fill="url(#a)"/><path d="M2463.934,439.027a2.844,2.844,0,0,1-1.831-.671l-29.882-25.194a2.853,2.853,0,0,1-.342-4.013l3.685-4.372a2.832,2.832,0,0,1,1.938-1,2.865,2.865,0,0,1,2.076.66l29.882,25.193a2.851,2.851,0,0,1,.342,4.015l-3.686,4.371a2.829,2.829,0,0,1-1.937,1C2464.1,439.023,2464.015,439.027,2463.934,439.027Zm-26.186-34.512c-.061,0-.121,0-.183.008a2.075,2.075,0,0,0-1.426.737l-3.686,4.371a2.1,2.1,0,0,0,.251,2.956l29.882,25.2a2.1,2.1,0,0,0,2.956-.252l3.686-4.371a2.1,2.1,0,0,0-.252-2.957l-29.881-25.193A2.081,2.081,0,0,0,2437.748,404.515Zm26.188,32.273a.6.6,0,0,1-.393-.146l-29.88-25.191a.612.612,0,0,1-.073-.86l3.685-4.372a.613.613,0,0,1,.862-.072l29.881,25.193a.616.616,0,0,1,.075.857l-3.688,4.375a.612.612,0,0,1-.414.213A.51.51,0,0,1,2463.936,436.788Zm.091-.719h0Zm-29.773-25.1,29.668,25.013,3.5-4.156-29.668-25.014Zm3.4-4.247h0Z" fill="url(#a)"/><path d="M2500.524,359.247l-2.2-.407a11.649,11.649,0,0,0-22.862-4.479l-2.193-.45a13.887,13.887,0,0,1,27.256,5.336Z" fill="url(#a)"/><path d="M2500.524,359.623a.389.389,0,0,1-.068-.006l-2.2-.408a.376.376,0,0,1-.3-.437,11.274,11.274,0,0,0-22.126-4.336.365.365,0,0,1-.16.237.391.391,0,0,1-.282.055l-2.194-.449a.375.375,0,0,1-.292-.443,14.262,14.262,0,0,1,28.231,2.872,14.526,14.526,0,0,1-.237,2.608.376.376,0,0,1-.157.24A.371.371,0,0,1,2500.524,359.623Zm-1.77-1.084,1.465.271a13.826,13.826,0,0,0,.162-2.1,13.512,13.512,0,0,0-26.666-3.087l1.46.3a12.024,12.024,0,0,1,23.579,4.62Z" fill="url(#a)"/><path d="M2501.949,333.948h-29.9a3.883,3.883,0,0,1-3.879-3.879v-6.876a3.883,3.883,0,0,1,3.879-3.879h29.9a3.883,3.883,0,0,1,3.878,3.879v6.876A3.883,3.883,0,0,1,2501.949,333.948Zm-29.9-12.4a1.642,1.642,0,0,0-1.64,1.641v6.876a1.642,1.642,0,0,0,1.64,1.64h29.9a1.642,1.642,0,0,0,1.64-1.64v-6.876a1.643,1.643,0,0,0-1.64-1.641Z" fill="url(#a)"/><path d="M2501.948,334.323h-29.9a4.259,4.259,0,0,1-4.253-4.254v-6.876a4.258,4.258,0,0,1,4.253-4.254h29.9a4.258,4.258,0,0,1,4.254,4.254v6.876A4.259,4.259,0,0,1,2501.948,334.323Zm-29.9-14.634a3.507,3.507,0,0,0-3.5,3.5v6.876a3.508,3.508,0,0,0,3.5,3.5h29.9a3.509,3.509,0,0,0,3.5-3.5v-6.876a3.508,3.508,0,0,0-3.5-3.5Zm29.9,12.4h-29.9a2.017,2.017,0,0,1-2.015-2.015v-6.876a2.017,2.017,0,0,1,2.015-2.016h29.9a2.018,2.018,0,0,1,2.016,2.016v6.876A2.018,2.018,0,0,1,2501.948,332.084Zm-29.9-10.157a1.267,1.267,0,0,0-1.265,1.266v6.876a1.266,1.266,0,0,0,1.265,1.265h29.9a1.267,1.267,0,0,0,1.266-1.265v-6.876a1.268,1.268,0,0,0-1.266-1.266Z" fill="url(#a)"/><path d="M2484.693,325.87a1.522,1.522,0,0,1-.5,1.229,2.147,2.147,0,0,1-1.428.426h-.453v1.77h-1.055v-4.976h1.59a2.117,2.117,0,0,1,1.376.389A1.42,1.42,0,0,1,2484.693,325.87Zm-2.383.79h.347a1.158,1.158,0,0,0,.729-.192.673.673,0,0,0,.242-.56.691.691,0,0,0-.2-.548.95.95,0,0,0-.635-.177h-.48Z" fill="url(#n)"/><path d="M2488.678,329.3l-.36-1.185H2486.5l-.361,1.185h-1.137l1.756-5h1.29l1.763,5Zm-.612-2.07q-.5-1.609-.564-1.821c-.042-.141-.071-.252-.09-.334q-.113.436-.643,2.155Z" fill="url(#o)"/><path d="M2491.99,326.367l1.038-2.048h1.137l-1.651,3.039V329.3h-1.048v-1.9l-1.651-3.073h1.144Z" fill="url(#p)"/></g></svg>