<svg xmlns="http://www.w3.org/2000/svg" xmlns:xlink="http://www.w3.org/1999/xlink" width="127.04" height="136.584" viewBox="0 0 127.04 136.584">
  <defs>
    <linearGradient id="linear-gradient" x1="1.096" y1="-0.263" x2="-0.172" y2="1.179" gradientUnits="objectBoundingBox">
      <stop offset="0" stop-color="#9b8fc4"/>
      <stop offset="1" stop-color="#251d41"/>
    </linearGradient>
    <linearGradient id="linear-gradient-2" x1="5.858" y1="-1.813" x2="-7.907" y2="4.129" xlink:href="#linear-gradient"/>
    <linearGradient id="linear-gradient-3" x1="3.764" y1="-0.909" x2="-10.003" y2="5.033" xlink:href="#linear-gradient"/>
    <linearGradient id="linear-gradient-4" x1="1.007" y1="-17.313" x2="-0.261" y2="27.233" xlink:href="#linear-gradient"/>
    <linearGradient id="linear-gradient-5" x1="4.772" y1="-4.149" x2="-2.625" y2="3.9" xlink:href="#linear-gradient"/>
    <linearGradient id="linear-gradient-6" x1="4.063" y1="-3.378" x2="-3.333" y2="4.671" xlink:href="#linear-gradient"/>
    <linearGradient id="linear-gradient-7" x1="3.355" y1="-2.606" x2="-4.042" y2="5.442" xlink:href="#linear-gradient"/>
    <linearGradient id="linear-gradient-8" x1="5.501" y1="-4.942" x2="-1.895" y2="3.107" xlink:href="#linear-gradient"/>
    <linearGradient id="linear-gradient-9" x1="4.793" y1="-4.171" x2="-2.604" y2="3.878" xlink:href="#linear-gradient"/>
    <linearGradient id="linear-gradient-10" x1="1.789" y1="-0.903" x2="-0.714" y2="1.822" xlink:href="#linear-gradient"/>
    <linearGradient id="linear-gradient-11" x1="2.879" y1="-3.409" x2="-1.833" y2="3.91" xlink:href="#linear-gradient"/>
  </defs>
  <g id="Group_7715" data-name="Group 7715" transform="translate(-33.548 -23.446)">
    <g id="Group_7704" data-name="Group 7704" transform="translate(33.548 35.734)">
      <path id="Path_61938" data-name="Path 61938" d="M109.5,136.777H47.857a14.326,14.326,0,0,1-14.309-14.309V51.531a14.326,14.326,0,0,1,14.309-14.31h12.59a1.612,1.612,0,0,1,1.612,1.612V44.3a1.569,1.569,0,0,0,3.137,0v-5.47a1.612,1.612,0,0,1,1.612-1.612h37.484a1.612,1.612,0,0,1,1.611,1.612V44.3a1.569,1.569,0,0,0,3.137,0v-5.47a1.612,1.612,0,0,1,1.611-1.612h12.59a14.326,14.326,0,0,1,14.31,14.31v58.949a1.608,1.608,0,0,1-.5,1.17,1.572,1.572,0,0,1-1.2.44c-.533-.029-1.074-.053-1.616-.053a23.155,23.155,0,0,0-23.128,23.13A1.612,1.612,0,0,1,109.5,136.777ZM47.857,40.445A11.1,11.1,0,0,0,36.771,51.531v70.937a11.1,11.1,0,0,0,11.086,11.086h60.076a26.386,26.386,0,0,1,26.3-24.741h.093V51.531a11.1,11.1,0,0,0-11.087-11.086H112.264V44.3a4.792,4.792,0,1,1-9.584,0V40.445H68.42V44.3a4.792,4.792,0,1,1-9.585,0V40.445Z" transform="translate(-33.548 -37.221)" fill="url(#linear-gradient)"/>
    </g>
    <g id="Group_7705" data-name="Group 7705" transform="translate(58.836 23.446)">
      <path id="Path_61939" data-name="Path 61939" d="M66.687,47.609A4.8,4.8,0,0,1,61.9,42.817V28.237a4.792,4.792,0,0,1,9.584,0V42.817A4.8,4.8,0,0,1,66.687,47.609Zm0-20.94a1.571,1.571,0,0,0-1.569,1.568V42.817a1.569,1.569,0,0,0,3.137,0V28.237A1.57,1.57,0,0,0,66.687,26.669Z" transform="translate(-61.895 -23.446)" fill="url(#linear-gradient-2)"/>
    </g>
    <g id="Group_7706" data-name="Group 7706" transform="translate(102.681 23.446)">
      <path id="Path_61940" data-name="Path 61940" d="M115.836,47.609a4.8,4.8,0,0,1-4.792-4.792V28.237a4.792,4.792,0,0,1,9.584,0V42.817A4.8,4.8,0,0,1,115.836,47.609Zm0-20.94a1.571,1.571,0,0,0-1.569,1.568V42.817a1.569,1.569,0,0,0,3.137,0V28.237A1.57,1.57,0,0,0,115.836,26.669Z" transform="translate(-111.044 -23.446)" fill="url(#linear-gradient-3)"/>
    </g>
    <g id="Group_7707" data-name="Group 7707" transform="translate(33.548 56.877)">
      <path id="Path_61941" data-name="Path 61941" d="M135.941,64.144H35.159a1.612,1.612,0,0,1,0-3.223H135.941a1.612,1.612,0,1,1,0,3.223Z" transform="translate(-33.548 -60.921)" fill="url(#linear-gradient-4)"/>
    </g>
    <g id="Group_7708" data-name="Group 7708" transform="translate(49.022 71.254)">
      <path id="Path_61942" data-name="Path 61942" d="M59.813,94.876a8.919,8.919,0,1,1,8.918-8.919A8.929,8.929,0,0,1,59.813,94.876Zm0-14.614a5.7,5.7,0,1,0,5.7,5.7A5.7,5.7,0,0,0,59.813,80.262Z" transform="translate(-50.894 -77.038)" fill="url(#linear-gradient-5)"/>
    </g>
    <g id="Group_7709" data-name="Group 7709" transform="translate(76.632 71.254)">
      <path id="Path_61943" data-name="Path 61943" d="M90.763,94.876a8.919,8.919,0,1,1,8.918-8.919A8.929,8.929,0,0,1,90.763,94.876Zm0-14.614a5.7,5.7,0,1,0,5.7,5.7A5.7,5.7,0,0,0,90.763,80.262Z" transform="translate(-81.844 -77.038)" fill="url(#linear-gradient-6)"/>
    </g>
    <g id="Group_7710" data-name="Group 7710" transform="translate(104.242 71.254)">
      <path id="Path_61944" data-name="Path 61944" d="M121.713,94.876a8.919,8.919,0,1,1,8.919-8.919A8.929,8.929,0,0,1,121.713,94.876Zm0-14.614a5.7,5.7,0,1,0,5.7,5.7A5.7,5.7,0,0,0,121.713,80.262Z" transform="translate(-112.794 -77.038)" fill="url(#linear-gradient-7)"/>
    </g>
    <g id="Group_7711" data-name="Group 7711" transform="translate(49.022 97.359)">
      <path id="Path_61945" data-name="Path 61945" d="M59.813,124.139a8.919,8.919,0,1,1,8.918-8.919A8.929,8.929,0,0,1,59.813,124.139Zm0-14.614a5.7,5.7,0,1,0,5.7,5.7A5.7,5.7,0,0,0,59.813,109.525Z" transform="translate(-50.894 -106.301)" fill="url(#linear-gradient-8)"/>
    </g>
    <g id="Group_7712" data-name="Group 7712" transform="translate(76.632 97.359)">
      <path id="Path_61946" data-name="Path 61946" d="M90.763,124.139a8.919,8.919,0,1,1,8.918-8.919A8.929,8.929,0,0,1,90.763,124.139Zm0-14.614a5.7,5.7,0,1,0,5.7,5.7A5.7,5.7,0,0,0,90.763,109.525Z" transform="translate(-81.844 -106.301)" fill="url(#linear-gradient-9)"/>
    </g>
    <g id="Group_7713" data-name="Group 7713" transform="translate(107.885 107.326)">
      <path id="Path_61947" data-name="Path 61947" d="M143.229,170.178a26.352,26.352,0,0,1,0-52.7c.6,0,1.2.024,1.792.057a26.354,26.354,0,0,1-1.792,52.647Zm0-49.481a23.067,23.067,0,1,0,1.594.051C144.311,120.72,143.771,120.7,143.229,120.7Z" transform="translate(-116.878 -117.474)" fill="url(#linear-gradient-10)"/>
    </g>
    <g id="Group_7714" data-name="Group 7714" transform="translate(120.239 125.408)">
      <path id="Path_61948" data-name="Path 61948" d="M140.716,157.361a1.606,1.606,0,0,1-1.139-.473L131.2,148.51a1.612,1.612,0,0,1,2.279-2.279l7.239,7.239,15.254-15.254a1.612,1.612,0,0,1,2.279,2.279l-16.393,16.393A1.607,1.607,0,0,1,140.716,157.361Z" transform="translate(-130.726 -137.743)" fill="url(#linear-gradient-11)"/>
    </g>
  </g>
</svg>
