<svg id="Group_7378" data-name="Group 7378" xmlns="http://www.w3.org/2000/svg" xmlns:xlink="http://www.w3.org/1999/xlink" width="129.839" height="140.4" viewBox="0 0 129.839 140.4">
  <defs>
    <clipPath id="clip-path">
      <rect id="Rectangle_19535" data-name="Rectangle 19535" width="129.839" height="140.4" fill="none"/>
    </clipPath>
  </defs>
  <path id="Path_22246" data-name="Path 22246" d="M28,58.406l2.377,4.816,5.314.772-3.846,3.748.908,5.293L28,70.536l-4.753,2.5.908-5.293-3.846-3.748,5.314-.772Z" fill="#9bccc6"/>
  <path id="Path_22247" data-name="Path 22247" d="M48.443,58.406l2.377,4.816,5.314.772-3.846,3.748.908,5.293-4.753-2.5-4.753,2.5.908-5.293-3.846-3.748,5.314-.772Z" fill="#9bccc6"/>
  <path id="Path_22248" data-name="Path 22248" d="M68.884,58.406l2.377,4.816,5.314.772-3.846,3.748.908,5.293-4.753-2.5-4.753,2.5.908-5.293-3.846-3.748,5.314-.772Z" fill="#9bccc6"/>
  <path id="Path_22249" data-name="Path 22249" d="M89.326,58.406,91.7,63.222l5.314.772-3.846,3.748.908,5.293-4.753-2.5-4.753,2.5.908-5.293-3.846-3.748,5.314-.772Z" fill="#9bccc6"/>
  <g id="Group_7377" data-name="Group 7377">
    <g id="Group_7376" data-name="Group 7376" clip-path="url(#clip-path)">
      <path id="Path_22250" data-name="Path 22250" d="M119.268,140.4H10.57A10.582,10.582,0,0,1,0,129.83V24.1A10.582,10.582,0,0,1,10.57,13.53h108.7A10.583,10.583,0,0,1,129.839,24.1V129.83a10.583,10.583,0,0,1-10.571,10.57M10.57,17.53A6.577,6.577,0,0,0,4,24.1V129.83a6.577,6.577,0,0,0,6.57,6.57h108.7a6.578,6.578,0,0,0,6.571-6.57V24.1a6.578,6.578,0,0,0-6.571-6.57Z" fill="#339e94"/>
      <path id="Path_22251" data-name="Path 22251" d="M61.365,21.405A22.271,22.271,0,1,1,38.245.017a22.271,22.271,0,0,1,23.12,21.388" fill="#d0e4e2"/>
      <path id="Path_22252" data-name="Path 22252" d="M33.888,18.929a5.929,5.929,0,1,1,1.721-.257,5.879,5.879,0,0,1-1.721.257m.005-7.82a1.91,1.91,0,1,0,1.829,1.355,1.913,1.913,0,0,0-1.829-1.355" fill="#339e94"/>
      <path id="Path_22253" data-name="Path 22253" d="M49.382,25.346a5.9,5.9,0,1,1,2.582-.6,5.915,5.915,0,0,1-2.582.6m-.013-7.816A1.907,1.907,0,1,0,51.088,18.6h0a1.912,1.912,0,0,0-1.718-1.071" fill="#339e94"/>
      <path id="Path_22254" data-name="Path 22254" d="M40.839,37.941a2,2,0,0,1-1.913-1.421L33.114,17.338a2,2,0,0,1,3.829-1.16L42.754,35.36a2,2,0,0,1-1.915,2.581" fill="#339e94"/>
      <path id="Path_22255" data-name="Path 22255" d="M26.638,32.533a2,2,0,0,1-.879-3.8l19.225-9.381a2,2,0,1,1,1.754,3.6L27.513,32.331a1.985,1.985,0,0,1-.875.2" fill="#339e94"/>
      <rect id="Rectangle_19533" data-name="Rectangle 19533" width="92.355" height="13.758" transform="translate(20.309 85.675)" fill="#9bccc6"/>
      <rect id="Rectangle_19534" data-name="Rectangle 19534" width="62.699" height="13.758" transform="translate(20.309 108.169)" fill="#9bccc6"/>
    </g>
  </g>
</svg>
