<svg xmlns="http://www.w3.org/2000/svg" xmlns:xlink="http://www.w3.org/1999/xlink" width="154.788" height="127.21" viewBox="0 0 154.788 127.21">
  <defs>
    <linearGradient id="linear-gradient" x1="1.055" y1="-0.387" x2="-0.481" y2="1.906" gradientUnits="objectBoundingBox">
      <stop offset="0" stop-color="#34a096"/>
      <stop offset="1" stop-color="#14645d"/>
    </linearGradient>
    <linearGradient id="linear-gradient-2" x1="3.019" y1="-2.887" x2="-1.77" y2="3.552" xlink:href="#linear-gradient"/>
    <linearGradient id="linear-gradient-3" x1="1.925" y1="-24.78" x2="-0.602" y2="20.048" xlink:href="#linear-gradient"/>
    <linearGradient id="linear-gradient-4" x1="1.322" y1="-20.503" x2="-0.432" y2="24.325" xlink:href="#linear-gradient"/>
    <linearGradient id="linear-gradient-5" x1="1.981" y1="-0.483" x2="-2.531" y2="2.512" xlink:href="#linear-gradient"/>
    <linearGradient id="linear-gradient-6" x1="2.675" y1="-5.172" x2="-6.212" y2="17.54" xlink:href="#linear-gradient"/>
    <linearGradient id="linear-gradient-7" x1="14.467" y1="-14.971" x2="-21.38" y2="24.735" xlink:href="#linear-gradient"/>
  </defs>
  <g id="Group_7399" data-name="Group 7399" transform="translate(-337.92 -50.514)">
    <path id="Path_61449" data-name="Path 61449" d="M455.525,67v36.18h-1.806c-3.048,0-5.519,4.245-5.519,6.433v7.57H356.556c-5.209,0-9.432-3.024-9.432-6.763V67c0-3.739,4.224-6.772,9.432-6.772h89.536C451.3,60.231,455.525,63.264,455.525,67Z" transform="translate(2.27 2.397)" fill="#d0e4e2"/>
    <g id="Group_7392" data-name="Group 7392" transform="translate(337.92 50.514)">
      <path id="Path_61450" data-name="Path 61450" d="M450.47,147.992H351.409a13.5,13.5,0,0,1-13.489-13.477V64a13.5,13.5,0,0,1,13.489-13.489H455.781A13.5,13.5,0,0,1,469.27,64V105.58a2.493,2.493,0,0,1-2.493,2.493H456.9a3.945,3.945,0,0,0-3.94,3.94V145.5A2.493,2.493,0,0,1,450.47,147.992ZM351.409,55.5a8.512,8.512,0,0,0-8.5,8.5v70.512a8.505,8.505,0,0,0,8.5,8.49h96.568V112.013a8.936,8.936,0,0,1,8.926-8.926h7.38V64a8.512,8.512,0,0,0-8.5-8.5Z" transform="translate(-337.92 -50.514)" fill="url(#linear-gradient)"/>
    </g>
    <g id="Group_7393" data-name="Group 7393" transform="translate(382.52 143.009)">
      <path id="Path_61451" data-name="Path 61451" d="M413.351,159.422H376.188a2.493,2.493,0,0,1-2.493-2.493V127.2a2.493,2.493,0,0,1,2.493-2.493h37.162a2.493,2.493,0,0,1,2.493,2.493v29.728A2.493,2.493,0,0,1,413.351,159.422Zm-34.669-4.987h32.176V129.694H378.682Z" transform="translate(-373.695 -124.707)" fill="url(#linear-gradient-2)"/>
    </g>
    <g id="Group_7394" data-name="Group 7394" transform="translate(363.082 172.737)">
      <path id="Path_61452" data-name="Path 61452" d="M435.493,153.54H360.6a2.493,2.493,0,0,1,0-4.987h74.9a2.493,2.493,0,0,1,0,4.987Z" transform="translate(-358.103 -148.553)" fill="url(#linear-gradient-3)"/>
    </g>
    <g id="Group_7395" data-name="Group 7395" transform="translate(337.92 127.185)">
      <path id="Path_61453" data-name="Path 61453" d="M450.47,117H340.413a2.493,2.493,0,0,1,0-4.987H450.47a2.493,2.493,0,0,1,0,4.987Z" transform="translate(-337.92 -112.014)" fill="url(#linear-gradient-4)"/>
    </g>
    <g id="Group_7396" data-name="Group 7396" transform="translate(447.977 103.086)">
      <path id="Path_61454" data-name="Path 61454" d="M462,167.321H435.126A8.936,8.936,0,0,1,426.2,158.4V101.61a8.936,8.936,0,0,1,8.926-8.926H462a8.936,8.936,0,0,1,8.926,8.926V158.4A8.936,8.936,0,0,1,462,167.321ZM435.126,97.671a3.945,3.945,0,0,0-3.94,3.94V158.4a3.944,3.944,0,0,0,3.94,3.938H462a3.943,3.943,0,0,0,3.939-3.938V101.61A3.944,3.944,0,0,0,462,97.671Z" transform="translate(-426.2 -92.684)" fill="url(#linear-gradient-5)"/>
    </g>
    <g id="Group_7397" data-name="Group 7397" transform="translate(459.417 103.086)">
      <path id="Path_61455" data-name="Path 61455" d="M453.592,102.527H439.586a2.494,2.494,0,0,1-2.351-1.663l-1.715-4.856a2.493,2.493,0,0,1,2.351-3.324h17.723a2.494,2.494,0,0,1,2.305,3.443l-2,4.855A2.494,2.494,0,0,1,453.592,102.527Z" transform="translate(-435.377 -92.684)" fill="url(#linear-gradient-6)"/>
    </g>
    <g id="Group_7398" data-name="Group 7398" transform="translate(467.527 162.471)">
      <path id="Path_61456" data-name="Path 61456" d="M444.7,145.948a2.815,2.815,0,1,1,2.815-2.815A2.818,2.818,0,0,1,444.7,145.948Zm0-4.987a2.172,2.172,0,1,0,2.172,2.172A2.174,2.174,0,0,0,444.7,140.961Z" transform="translate(-441.882 -140.318)" fill="url(#linear-gradient-7)"/>
    </g>
    <rect id="Rectangle_19428" data-name="Rectangle 19428" width="28.205" height="43.261" transform="translate(456.272 115.39)" fill="#d0e4e2"/>
  </g>
</svg>
