<svg xmlns="http://www.w3.org/2000/svg" xmlns:xlink="http://www.w3.org/1999/xlink" width="89.19" height="117.905" viewBox="0 0 89.19 117.905">
  <defs>
    <linearGradient id="linear-gradient" y1="0.5" x2="1" y2="0.5" gradientUnits="objectBoundingBox">
      <stop offset="0" stop-color="#d7805b"/>
      <stop offset="1" stop-color="#7b4129"/>
    </linearGradient>
  </defs>
  <g id="Group_7288" data-name="Group 7288" transform="translate(-117.095 -760.938)">
    <path id="Path_20029" data-name="Path 20029" d="M118.439,863.439a1.344,1.344,0,0,1-1.344-1.344v-11.83a34.6,34.6,0,0,1,68.051-8.873,1.349,1.349,0,0,1-.094.938l-5.066,10.264a1.341,1.341,0,0,1-1.011.735l-11.113,1.624,6.3,6.135a1.345,1.345,0,0,1-.936,2.308l-54.781.045Zm33.254-45.149a32.009,32.009,0,0,0-31.909,31.975v10.483l50.133-.041-5.881-5.73a1.344,1.344,0,0,1,.743-2.293l13.108-1.915,4.527-9.173A32.027,32.027,0,0,0,151.693,818.29Zm.005-8.284a18.473,18.473,0,0,1-18.428-18.423V779.409a18.53,18.53,0,0,1,18.114-18.423.722.722,0,0,1,.317-.04,18.525,18.525,0,0,1,18.421,18.421V791.58A18.492,18.492,0,0,1,151.7,810.006Zm.3-46.368a1.391,1.391,0,0,1-.3.033,15.831,15.831,0,0,0-15.742,15.742V791.58a15.737,15.737,0,1,0,31.474,0V779.371A15.83,15.83,0,0,0,152,763.638Z" fill="url(#linear-gradient)"/>
    <path id="Path_20030" data-name="Path 20030" d="M195.295,916.491a1.344,1.344,0,0,1-1.326-1.571l2.239-13.055-9.481-9.24a1.344,1.344,0,0,1,.743-2.293l13.108-1.915,5.86-11.871a1.343,1.343,0,0,1,1.205-.75h0a1.345,1.345,0,0,1,1.205.749l5.871,11.871,13.1,1.915a1.345,1.345,0,0,1,.745,2.293l-9.479,9.241,2.238,13.054a1.344,1.344,0,0,1-1.95,1.417l-11.742-6.165-11.716,6.164A1.349,1.349,0,0,1,195.295,916.491Zm12.341-9.182a1.336,1.336,0,0,1,.625.155l9.957,5.228-1.9-11.068a1.348,1.348,0,0,1,.387-1.189l8.036-7.835-11.111-1.624a1.345,1.345,0,0,1-1.011-.733l-4.978-10.066-4.967,10.064a1.343,1.343,0,0,1-1.012.735L190.552,892.6l8.038,7.835a1.345,1.345,0,0,1,.387,1.189l-1.9,11.065,9.93-5.225A1.34,1.34,0,0,1,207.636,907.309Z" transform="translate(-22.69 -37.648)" fill="url(#linear-gradient)"/>
  </g>
</svg>
