<svg xmlns="http://www.w3.org/2000/svg" xmlns:xlink="http://www.w3.org/1999/xlink" width="136.68" height="129.68" viewBox="0 0 136.68 129.68">
  <defs>
    <linearGradient id="linear-gradient" x1="1.203" y1="-0.206" x2="-0.358" y2="1.311" gradientUnits="objectBoundingBox">
      <stop offset="0" stop-color="#9b8fc4"/>
      <stop offset="1" stop-color="#251d41"/>
    </linearGradient>
    <linearGradient id="linear-gradient-2" x1="2.145" y1="-1.05" x2="-2.718" y2="3.531" xlink:href="#linear-gradient"/>
    <linearGradient id="linear-gradient-3" x1="1.853" y1="-1.637" x2="-0.83" y2="3.056" xlink:href="#linear-gradient"/>
    <linearGradient id="linear-gradient-4" x1="2.494" y1="-2.821" x2="-0.189" y2="1.872" xlink:href="#linear-gradient"/>
    <linearGradient id="linear-gradient-5" x1="3.346" y1="-2.181" x2="-1.517" y2="2.4" xlink:href="#linear-gradient"/>
    <linearGradient id="linear-gradient-6" x1="3.038" y1="-1.891" x2="-1.825" y2="2.69" xlink:href="#linear-gradient"/>
    <linearGradient id="linear-gradient-7" x1="2.346" y1="-2.497" x2="-0.337" y2="2.194" xlink:href="#linear-gradient"/>
  </defs>
  <g id="Group_7461" data-name="Group 7461" transform="translate(-28.873 -37.35)">
    <g id="Path_1695" data-name="Path 1695">
      <path id="Path_61578" data-name="Path 61578" d="M118.263,148.891l-3.618-4.986a21.589,21.589,0,0,0-34.873-.128l-3.609,4.893v-8.91a21.612,21.612,0,0,0-21.031-21.62l-1.939-.06v-9.748l1.885-.109a10.2,10.2,0,0,0,9.585-10.139V89.439a10.132,10.132,0,0,0-1.62-5.463L62.031,82.41l1.49-1.119a25.534,25.534,0,0,1,33.751,2.745,25.553,25.553,0,0,1,33.661-2.823l1.521,1.126-1.04,1.581a10.1,10.1,0,0,0-1.651,5.528V98.09a10.16,10.16,0,0,0,9.675,10.132l1.9.091v9.767l-1.949.049a21.693,21.693,0,0,0-21.131,21.637ZM97.157,130.96a25.779,25.779,0,0,1,17.2,6.669,25.694,25.694,0,0,1,22.988-23.375V112a14.129,14.129,0,0,1-7.434-3.913l0,0a14.127,14.127,0,0,1-4.143-9.984V89.439a14.173,14.173,0,0,1,1.343-6,21.555,21.555,0,0,0-28.266,4.87l-1.562,1.969-1.567-1.964a21.541,21.541,0,0,0-28.367-4.809,14.177,14.177,0,0,1,1.319,5.923V98.09a14.212,14.212,0,0,1-11.47,13.89v2.292a25.576,25.576,0,0,1,22.87,23.262A25.544,25.544,0,0,1,97.157,130.96Zm18.552-56.67a14.173,14.173,0,0,1-14.146-14.134V51.5A14.217,14.217,0,0,1,115.7,37.35h.012a14.222,14.222,0,0,1,14.145,14.144V60.15A14.218,14.218,0,0,1,115.709,74.29ZM115.7,41.35a10.206,10.206,0,0,0-10.14,10.156V60.15a10.171,10.171,0,0,0,10.146,10.14,10.2,10.2,0,0,0,10.145-10.145V51.5A10.211,10.211,0,0,0,115.7,41.35ZM78.829,74.29A14.173,14.173,0,0,1,64.683,60.157V51.5A14.217,14.217,0,0,1,78.817,37.35h.012A14.22,14.22,0,0,1,92.973,51.494V60.15A14.216,14.216,0,0,1,78.829,74.29Zm-.006-32.94a10.206,10.206,0,0,0-10.14,10.156V60.15a10.145,10.145,0,0,0,20.29-.005V51.5A10.21,10.21,0,0,0,78.823,41.35Z" fill="url(#linear-gradient)"/>
    </g>
    <g id="Group_7456" data-name="Group 7456">
      <path id="Path_61579" data-name="Path 61579" d="M139.909,112.24c-.236,0-.466-.011-.685-.024A14.161,14.161,0,0,1,125.763,98.1V89.439a14.145,14.145,0,0,1,28.29-.005V98.09A14.221,14.221,0,0,1,139.909,112.24ZM139.9,79.3a10.177,10.177,0,0,0-10.134,10.148V98.09a10.16,10.16,0,0,0,9.675,10.132c.166.009.315.018.465.018a10.21,10.21,0,0,0,10.15-10.156V89.442A10.2,10.2,0,0,0,139.9,79.3Z" fill="url(#linear-gradient-2)"/>
    </g>
    <g id="Group_7457" data-name="Group 7457">
      <path id="Path_61580" data-name="Path 61580" d="M165.553,150.18h-47.7l-.492-1.285a21.124,21.124,0,0,0-2.714-4.98l-.388-.528V139.76a25.689,25.689,0,0,1,25.029-25.629c.158-.01.384-.011.611-.011a25.78,25.78,0,0,1,25.65,25.634Zm-44.985-4h40.985v-6.417A21.771,21.771,0,0,0,139.9,118.12c-.149,0-.3,0-.446.007a21.694,21.694,0,0,0-21.188,21.639v2.324A25.031,25.031,0,0,1,120.568,146.18Z" fill="url(#linear-gradient-3)"/>
    </g>
    <g id="Group_7458" data-name="Group 7458">
      <path id="Path_61581" data-name="Path 61581" d="M76.468,150.18h-47.6V139.76a25.713,25.713,0,0,1,25.645-25.64c.274,0,.534,0,.793.024a25.6,25.6,0,0,1,24.852,25.61v3.5l-.4.532A21.179,21.179,0,0,0,76.96,148.9Zm-43.6-4H73.758a25.087,25.087,0,0,1,2.4-4.24v-2.177A21.614,21.614,0,0,0,55.132,118.14l-.123-.008c-.16-.015-.32-.012-.486-.012a21.713,21.713,0,0,0-21.65,21.646Z" fill="url(#linear-gradient-4)"/>
    </g>
    <g id="Group_7459" data-name="Group 7459">
      <path id="Path_61582" data-name="Path 61582" d="M54.523,112.24A14.19,14.19,0,0,1,40.373,98.1V89.439a14.145,14.145,0,0,1,28.29-.007V98.09a14.2,14.2,0,0,1-13.354,14.127C55.038,112.229,54.786,112.24,54.523,112.24Zm0-32.94A10.2,10.2,0,0,0,44.373,89.445V98.09a10.188,10.188,0,0,0,10.156,10.15c.191,0,.378-.009.567-.018a10.192,10.192,0,0,0,9.567-10.138V89.445A10.189,10.189,0,0,0,54.519,79.3Z" fill="url(#linear-gradient-5)"/>
    </g>
    <g id="Path_1698" data-name="Path 1698">
      <path id="Path_61583" data-name="Path 61583" d="M97.169,129.09a14.19,14.19,0,0,1-14.156-14.144V106.29A14.231,14.231,0,0,1,97.157,92.15h.012A14.21,14.21,0,0,1,111.3,106.284v8.655A14.216,14.216,0,0,1,97.169,129.09Zm-.006-32.94A10.219,10.219,0,0,0,87.013,106.3v8.64a10.145,10.145,0,1,0,20.29-.005V106.29A10.2,10.2,0,0,0,97.163,96.15Z" fill="url(#linear-gradient-6)"/>
    </g>
    <g id="Group_7460" data-name="Group 7460">
      <path id="Path_61584" data-name="Path 61584" d="M122.8,167.03H71.523V156.609a25.545,25.545,0,0,1,1.7-9.148,25.152,25.152,0,0,1,3.334-6.068,25.649,25.649,0,0,1,20.6-10.433,25.762,25.762,0,0,1,20.724,10.6,25.185,25.185,0,0,1,3.221,5.909,25.562,25.562,0,0,1,1.7,9.138Zm-47.28-4H118.8v-6.417a21.566,21.566,0,0,0-1.436-7.715,21.163,21.163,0,0,0-2.716-4.983,21.588,21.588,0,0,0-34.879-.138A21.246,21.246,0,0,0,76.96,148.9a21.6,21.6,0,0,0-1.437,7.72Z" fill="url(#linear-gradient-7)"/>
    </g>
  </g>
</svg>
