<svg xmlns="http://www.w3.org/2000/svg" xmlns:xlink="http://www.w3.org/1999/xlink" width="113.932" height="115.049" viewBox="0 0 113.932 115.049">
  <defs>
    <linearGradient id="linear-gradient" y1="0.5" x2="1" y2="0.5" gradientUnits="objectBoundingBox">
      <stop offset="0" stop-color="#9b4a69"/>
      <stop offset="1" stop-color="#f288af"/>
    </linearGradient>
    <linearGradient id="linear-gradient-5" x1="0" y1="0.5" x2="1" y2="0.5" xlink:href="#linear-gradient"/>
    <linearGradient id="linear-gradient-7" x1="2.211" y1="-1.143" x2="-1.118" y2="2.054" xlink:href="#linear-gradient"/>
    <linearGradient id="linear-gradient-8" x1="22.256" y1="-3.991" x2="-21.252" y2="4.99" xlink:href="#linear-gradient"/>
    <linearGradient id="linear-gradient-9" x1="24.128" y1="-13.723" x2="-19.379" y2="12.466" xlink:href="#linear-gradient"/>
  </defs>
  <g id="Group_7700" data-name="Group 7700" transform="translate(-1953.388 -311.223)">
    <g id="Group_7695" data-name="Group 7695" transform="translate(1953.388 311.223)">
      <path id="Path_61924" data-name="Path 61924" d="M1991.926,412.746a51.6,51.6,0,1,1,63.184-62.223l-3.15.773a48.359,48.359,0,1,0-59.212,58.314Z" transform="translate(-1953.388 -311.223)" fill="url(#linear-gradient)"/>
      <path id="Path_61925" data-name="Path 61925" d="M2022.213,366.279a1.622,1.622,0,0,1-1.146-2.768l24.042-24.042a1.621,1.621,0,0,1,2.293,2.293L2023.359,365.8A1.615,1.615,0,0,1,2022.213,366.279Z" transform="translate(-1966.1 -316.475)" fill="url(#linear-gradient)"/>
      <path id="Path_61926" data-name="Path 61926" d="M2006,370.788a1.609,1.609,0,0,1-.809-.217l-18.24-10.535a1.621,1.621,0,1,1,1.622-2.808l18.24,10.535a1.621,1.621,0,0,1-.812,3.025Z" transform="translate(-1959.583 -319.883)" fill="url(#linear-gradient)"/>
      <path id="Path_61927" data-name="Path 61927" d="M2015.278,380.418a7.253,7.253,0,1,1,7.258-7.253A7.262,7.262,0,0,1,2015.278,380.418Zm0-11.263a4.017,4.017,0,0,0-3.657,2.362,3.972,3.972,0,0,0-.354,1.648,4.012,4.012,0,1,0,4.01-4.01Z" transform="translate(-1963.723 -321.567)" fill="url(#linear-gradient)"/>
      <path id="Path_61928" data-name="Path 61928" d="M2016.595,332.8a1.621,1.621,0,0,1-1.622-1.622V327.67a1.622,1.622,0,0,1,3.243,0v3.513A1.622,1.622,0,0,1,2016.595,332.8Z" transform="translate(-1965.037 -314.027)" fill="url(#linear-gradient-5)"/>
      <path id="Path_61929" data-name="Path 61929" d="M2076.686,379.27l-15.821-20.008,26.784-3.024Zm-9.656-17.441L2076,373.17l6.214-13.055Z" transform="translate(-1973.718 -319.737)" fill="url(#linear-gradient)"/>
    </g>
    <g id="Group_7699" data-name="Group 7699" transform="translate(2008.416 372.775)">
      <g id="Group_7696" data-name="Group 7696" transform="translate(0 0)">
        <path id="Path_61930" data-name="Path 61930" d="M2048,440.63a26.748,26.748,0,1,1,26.747-26.747A26.779,26.779,0,0,1,2048,440.63Zm0-49.4a22.655,22.655,0,1,0,22.654,22.656A22.682,22.682,0,0,0,2048,391.227Z" transform="translate(-2021.253 -387.134)" fill="url(#linear-gradient-7)"/>
      </g>
      <g id="Group_7697" data-name="Group 7697" transform="translate(24.702 12.297)">
        <path id="Path_61931" data-name="Path 61931" d="M2053.765,421.345a2.047,2.047,0,0,1-2.047-2.047V404.347a2.047,2.047,0,1,1,4.093,0V419.3A2.046,2.046,0,0,1,2053.765,421.345Z" transform="translate(-2051.718 -402.3)" fill="url(#linear-gradient-8)"/>
      </g>
      <g id="Group_7698" data-name="Group 7698" transform="translate(24.702 33.896)">
        <path id="Path_61932" data-name="Path 61932" d="M2053.765,435.468a2.047,2.047,0,0,1-2.047-2.047v-2.438a2.047,2.047,0,1,1,4.093,0v2.438A2.047,2.047,0,0,1,2053.765,435.468Z" transform="translate(-2051.718 -428.937)" fill="url(#linear-gradient-9)"/>
      </g>
    </g>
  </g>
</svg>
