<svg id="Group_7419" data-name="Group 7419" xmlns="http://www.w3.org/2000/svg" xmlns:xlink="http://www.w3.org/1999/xlink" width="247.572" height="410.189" viewBox="0 0 247.572 410.189">
  <defs>
    <clipPath id="clip-path">
      <rect id="Rectangle_19555" data-name="Rectangle 19555" width="247.572" height="410.189" fill="none"/>
    </clipPath>
  </defs>
  <g id="Group_7418" data-name="Group 7418" clip-path="url(#clip-path)">
    <path id="Path_22290" data-name="Path 22290" d="M81.057,171.871a38.148,38.148,0,1,1-38.148-38.148,38.148,38.148,0,0,1,38.148,38.148" fill="#a3d3f2" fill-rule="evenodd"/>
    <path id="Path_22291" data-name="Path 22291" d="M42.908,146.581l7.582,15.362,16.953,2.463L55.175,176.364l2.9,16.884-15.163-7.971-15.163,7.971,2.9-16.884L18.373,164.406l16.953-2.463Z" fill="#faf8ea" fill-rule="evenodd"/>
    <path id="Path_22292" data-name="Path 22292" d="M240.894,167.147A38.148,38.148,0,1,1,202.746,129a38.148,38.148,0,0,1,38.148,38.148" fill="#a3d3f2" fill-rule="evenodd"/>
    <path id="Path_22293" data-name="Path 22293" d="M202.746,141.857l7.582,15.362,16.953,2.463L215.013,171.64l2.9,16.884-15.163-7.971-15.163,7.971,2.9-16.884-12.268-11.958,16.953-2.463Z" fill="#faf8ea" fill-rule="evenodd"/>
    <path id="Path_22294" data-name="Path 22294" d="M76.3,79.678A38.148,38.148,0,1,1,38.148,41.53,38.149,38.149,0,0,1,76.3,79.678" fill="#a3d3f2" fill-rule="evenodd"/>
    <path id="Path_22295" data-name="Path 22295" d="M38.148,54.389,45.73,69.751l16.953,2.463L50.415,84.172l2.9,16.884L38.148,93.085l-15.163,7.971,2.9-16.884L13.613,72.214l16.953-2.463Z" fill="#faf8ea" fill-rule="evenodd"/>
    <path id="Path_22296" data-name="Path 22296" d="M159.013,38.149A38.148,38.148,0,1,1,120.865,0a38.148,38.148,0,0,1,38.148,38.148" fill="#a3d3f2" fill-rule="evenodd"/>
    <path id="Path_22297" data-name="Path 22297" d="M120.865,12.859l7.582,15.362L145.4,30.684,133.132,42.642l2.9,16.885-15.163-7.972L105.7,59.527l2.9-16.885L96.33,30.684l16.953-2.463Z" fill="#faf8ea" fill-rule="evenodd"/>
    <path id="Path_22298" data-name="Path 22298" d="M247.572,79.678A38.148,38.148,0,1,1,209.424,41.53a38.149,38.149,0,0,1,38.148,38.148" fill="#a3d3f2" fill-rule="evenodd"/>
    <path id="Path_22299" data-name="Path 22299" d="M209.424,54.389l7.582,15.362,16.953,2.463L221.691,84.172l2.9,16.884-15.163-7.971-15.163,7.971,2.9-16.884L184.889,72.214l16.953-2.463Z" fill="#faf8ea" fill-rule="evenodd"/>
    <path id="Path_22300" data-name="Path 22300" d="M164.6,361.036a174.584,174.584,0,0,0-1.872,18.836,69.134,69.134,0,0,0,1.009,11.214c.1,2.337-11.5,3.594-11.5,3.594l-2.3-.72-1.58,1.437-3.738.288,1.009,4.458s-9.93,6.145-13.516,5.031-2.3-.288-2.3-.288l-2.012,1.725s-17.563,6.735-34.786,1.725c-2.394-1.235-.729-7.6,0-8.913s.377-5.512,6.9-6.468,12.835-3.357,15.381-8.628a64.068,64.068,0,0,0,4.315-13.514c.571-2.408,45-9.777,45-9.777" fill="#fce78e" fill-rule="evenodd"/>
    <path id="Path_22301" data-name="Path 22301" d="M146.913,395.4c.414.241.985.018,2.018-1.293,1.118-1.433,2.917-3.982,3.592-4.744s2.443,4.888,2.443,4.888c-.754.15-.165.028-.432,0s-1.306-2.993-1.726-3.738-2.686,2.853-3.737,4.313a1.659,1.659,0,0,1-2.158.574M135.038,405c.031-.014.031-.009,0,0m-8.824,2.182c-1.975.565,2.2-.118,3.452-2.157s1.58-2.156,1.58-2.156,2.06,2.4,2.443,2.444a2.78,2.78,0,0,0,1.295-.288.365.365,0,0,1,.054-.025,1.024,1.024,0,0,1-1.063-.406c-.76-.859-2.674-2.517-2.875-2.875,0,0-2.911,4.9-4.886,5.463m10.781-23.579,2.158-10.206,1.294.432L138,384.039Zm3.452,2.3c.407-.267,2.23-10.178,2.589-10.782s-.51-1.7-.431-1.293-2.45,11.2-2.589,11.5-2.164.467-4.169,0,.717-10.5.717-10.5l-.432-.432s-2.2,9.5-1.726,10.929,5.634.84,6.041.573m-.286,8.052c-2.193,2.087-17.368,7.91-23.148,8.769-3.792.517-15.8,1.9-24.722-2.443,0,0,14.974,4.349,28.606.432,13.734-3.949,16.475-5.952,18.687-7.19,1.927-1.075,3.914-1.846,4.169-1.581s-2.115.6-3.592,2.013m21.994-11.214c.857-.943.14-.72.14-.72s-15.388,5.208-17.1,4.458l-.109-.044c1.076-6.039,2.838-12.607,2.838-12.607-.6-1.57-.656-1.918-1.294-.432-.766,1.769-1.7,8.934-2.012,10.494-2.388,11.971,1.374,14.583,0,11.933-.656-1.258-.322-4.784.34-8.652a89.032,89.032,0,0,0,17.2-4.43" fill="#4b3328" fill-rule="evenodd"/>
    <path id="Path_22302" data-name="Path 22302" d="M123.054,190.382l35.795-14.807s1.768,4.149,3.014,4.888,20.529,5.388,20.924,27.93c.231,13.335-3.6,18.586-5.4,21.384a18.009,18.009,0,0,0-1.726,3.162s-13.607,48.1-13.941,51.181-.523,4.347.644,9.152c1.039,4.27,2.844,19.9,2.516,32.4-.316,12.073,3.245,34.394,3.451,36.518.116,1.22-9.152,3.947-10.209,4.026s.79,5.515-3.446,6.756-34.586,5.377-47.008-2.3c2.845-9.377,22.11-65.854,21.417-72.028s-5.962-54.313-7.621-62.251-4.291-25.964,1.586-46.007" fill="#70678e" fill-rule="evenodd"/>
    <path id="Path_22303" data-name="Path 22303" d="M123.625,194.839c25.069,1.567,31.45-12.87,36.372-13.082-17.648,17.537-36.372,13.082-36.372,13.082m13.054,36.072a1.329,1.329,0,0,1-.547.3s.213-.113.547-.3m6.211-3.292c-.2-1.985-6.612-6.327-6.612-6.327.784,1.54,3.057,3.3,4.764,5.029a46.358,46.358,0,0,1-4.363,4.59c1.306-.733,4.57-2.6,5.014-3.21-.073,8.118-12.313,74.161-11.024,70.222,1.361-4.156,12.415-68.319,12.221-70.3m-8.915-15.671c-2.128-4.184,1.294-16.533,1.294-16.533-4.613,10.406-2.23,15.8-1.294,16.533m25.761,143.4,6.442-2.366a9.336,9.336,0,0,1-6.491,2.626c-1.112,5.992-1.987,10.6-1.987,10.6a36.608,36.608,0,0,1-.431,4.17,12.925,12.925,0,0,0-.292-3.453c-.207-1.047.833-6.93,2.018-13.01-3.708,2.01-23.386,10.02-44.857,3.377,0,0,26.594,4.732,44.133-3.306.316-.144.578-.255.778-.336,1.246-6.341,2.644-12.819,2.96-14.184.51-2.205,2.668-14.872,2.3-10.5-.231,2.714-2.722,16.384-4.576,26.377" fill="#5b5474" fill-rule="evenodd"/>
    <path id="Path_22304" data-name="Path 22304" d="M154.82,123.1s20.547,14.988,10.064,37.236c-4.3,6.977-5.9,9.92-5.9,9.92s-1.033,4,0,5.176c1.234,1.4-24.145,21.3-37.807,16.964-13.965-4.429-12.507-35.8-12.507-35.8s-5.84-8.06-10.2-6.326c-2.255.894,6.758-8.811,8.192-12.508,1.744-4.483,8-9.413,12.075-11.213A57.548,57.548,0,0,1,154.82,123.1" fill="#fce78e" fill-rule="evenodd"/>
    <path id="Path_22305" data-name="Path 22305" d="M153.671,141.933s-5.664,2.162-15.959,14.52c-.759.219-.322-.1-.14-.287s7.111-8.079,9.487-10.351c.918-.877,4.357-4.079,6.612-3.882" fill="#d3b151" fill-rule="evenodd"/>
    <path id="Path_22306" data-name="Path 22306" d="M141.887,146.246s3.5-.189,3.306,1.581-.261-1.351-3.306-1.581" fill="#d3b151" fill-rule="evenodd"/>
    <path id="Path_22307" data-name="Path 22307" d="M140.879,152.284s14.883,2.542,15.1,18.115c.121,2.507,2.9-16.962-15.1-18.115" fill="#d3b151" fill-rule="evenodd"/>
    <path id="Path_22308" data-name="Path 22308" d="M165.315,159.9s-11.061,13.028-13.51,14.952a74.683,74.683,0,0,0,13.51-14.952" fill="#d3b151" fill-rule="evenodd"/>
    <path id="Path_22309" data-name="Path 22309" d="M116.436,137.907s-7.882,13.652-7.615,19.409-2.273-11.107,7.615-19.409" fill="#d3b151" fill-rule="evenodd"/>
    <path id="Path_22310" data-name="Path 22310" d="M111.7,144.377s-2.382-3.728-1-5.032-.036,2.376,1.149,4.6-.146.431-.146.431" fill="#d3b151" fill-rule="evenodd"/>
    <path id="Path_22311" data-name="Path 22311" d="M109.253,152.715s-3.531-7.592-8.63-6.038c-1.981.606,2.941-2.615,8.63,6.038" fill="#d3b151" fill-rule="evenodd"/>
    <path id="Path_22312" data-name="Path 22312" d="M124.774,134.6a9.957,9.957,0,0,0-9.487.719c-1.458.9-2.291-.077-1-1.581,3.141-3.684,13.351-12.508,19.55-14.378,9.128-2.148,20.019-4.987,22.857.576s-3.4,11.989-6.473,15.239a11.955,11.955,0,0,0-2.874,8.051c.085,1.867-2.194,1.132-1.866,1.437,1.331,1.254-7.329-6.18-10.064-5.75-4.807.754-6.089-2.167-16.1,15.239-1.233-.008-4.162-2.012-4.162-2.012s4.327-12.011,9.626-17.54" fill="#ec701e" fill-rule="evenodd"/>
    <path id="Path_22313" data-name="Path 22313" d="M124.489,134.169c1.33.121,2.588,2.157,2.588,2.157-1.367-1.112-3.652-2.253-2.588-2.157m0,4.17c1.446-1.938,4.6-2.013,4.6-2.013-4.722-.449-6.041,3.95-4.6,2.013m1,.957c-2.99,2.766-7.785,13.189-7.9,13.419-.146.278-.577-.718-.577-.718s5.475-12.083,8.337-13.8,6.588-1.5,11.79.431c0,0-8.921-1.857-11.65.67m8.052-15.478c.614-1.023,3.738-2.156,3.738-2.156-2.917,1.56-4.351,3.179-3.738,2.156m17.108-.719c-1.021.606,1.872-2.821,2.443-3.307,0,0-1.416,2.7-2.443,3.307" fill="#804c32" fill-rule="evenodd"/>
    <path id="Path_22314" data-name="Path 22314" d="M137.141,156.741s14.415.234,14.664,17.684c-1.215,4.207-23.579,19.839-23.579,19.839-.019,0-8.508,6.211-15.953,3.021-5.233-2.241-7.153-2.417-13.8-11.5C97.718,187.153,91,191.223,80.5,187.8c-13.893-4.538-33.718-15.105-40.539-21.135S28.6,159.617,28.6,159.617l5.032-10.208,6.038-6.326s-.467-3.052.864-2.013,2.57,4.085,7.042,5.032,5.054,2.032,5.462,3.594,2.157,9.918,4.315,10.208c2.2.3,26.408,3.67,29.179,6.182-1.471-2.135-5.749-13.8-5.749-13.8s-14.3,4-20.556-.718a3.672,3.672,0,0,1-1.438-3.739c.082-.434.871-5.681,4.744-7.188-.288-1.007-9.08-.081-12.649,2.3-2.261.723-3.835-1.581-2.3-2.012s6.183-6.372,10.782-6.039c3.457-.113,9.835.694,11.354,1.294s13.23,3.451,13.23,3.451,1.762.008,2.875,2.588,9.559,10.461,10.057,10.351,1.587-2.444,1.587-2.444,4.521-1.506,10.349,6.47c-.365,3.739-.334,5.444,1,6.325s10.416,6.375,12.653,9.345c4.953-4.744,14.664-15.527,14.664-15.527" fill="#efd4e0" fill-rule="evenodd"/>
    <path id="Path_22315" data-name="Path 22315" d="M17.3,124.886l-1.714-.976-1.746,1.769a1.058,1.058,0,0,0-.2,1.448c.947,1.812,18.855,40.285,18.855,40.285s.965,2.206,2.883,2.218c1.864.014,11.464-4.988,11.464-4.988a1.551,1.551,0,0,0,.888-1.206c.083-.723.118-2.258.118-2.258L20.906,124.705Z" fill="#31726c" fill-rule="evenodd"/>
    <path id="Path_22316" data-name="Path 22316" d="M30.928,125.441l-14.446-1.584c-.722-.257-1.284.1-1.251.8L34.222,165.7c.328.832,1.484,1.722,2.222,1.373l10.807-4.76c.607-.263.871-.992.436-1.96,0,0-15.111-32.362-15.454-33.285a2.614,2.614,0,0,0-1.305-1.623" fill="#eee" fill-rule="evenodd"/>
    <path id="Path_22317" data-name="Path 22317" d="M30.928,125.441l.051-.462L16.533,123.4l-.051.461.157-.437a1.813,1.813,0,0,0-.6-.11,1.268,1.268,0,0,0-.911.357,1.31,1.31,0,0,0-.36.933c0,.025,0,.053,0,.083l.005.089L33.8,165.891l.422-.2-.431.17a3,3,0,0,0,.907,1.181,2.876,2.876,0,0,0,.646.4,1.838,1.838,0,0,0,.736.166,1.311,1.311,0,0,0,.562-.122l-.2-.42.187.425,10.809-4.76h0a1.506,1.506,0,0,0,.682-.583,1.671,1.671,0,0,0,.247-.9,2.684,2.684,0,0,0-.256-1.088v0l0-.005-.169-.363c-.831-1.779-4.571-9.794-8.144-17.47-1.788-3.839-3.531-7.593-4.851-10.442-.659-1.424-1.211-2.621-1.608-3.489-.2-.434-.357-.786-.474-1.041-.056-.128-.1-.232-.137-.309s-.056-.131-.056-.136a4.444,4.444,0,0,0-.583-1.106,2.245,2.245,0,0,0-1-.79l-.053-.02-.058-.007-.051.462-.163.435a1.339,1.339,0,0,1,.579.477,3.657,3.657,0,0,1,.455.872c.018.051.045.109.083.2.153.35.507,1.123,1.008,2.217,3.52,7.65,14.375,30.9,14.375,30.9l.422-.2-.423.19a1.752,1.752,0,0,1,.174.708.745.745,0,0,1-.1.412.573.573,0,0,1-.265.225L36.25,166.646l-.006,0a.364.364,0,0,1-.164.033.954.954,0,0,1-.365-.088,2.146,2.146,0,0,1-.638-.456,1.966,1.966,0,0,1-.423-.612l0-.013-19-41.05-.42.194.464-.025,0-.032a.366.366,0,0,1,.091-.277.333.333,0,0,1,.251-.085.876.876,0,0,1,.292.056l.051.019,14.5,1.589.051-.461-.163.435Z" fill="#378e87" fill-rule="evenodd"/>
    <path id="Path_22318" data-name="Path 22318" d="M30.847,127.7l-12.068-.943L35.906,163.9l10.111-3.678Z" fill="#378e87" fill-rule="evenodd"/>
    <path id="Path_22319" data-name="Path 22319" d="M18.542,137.332S8.9,134.546,8.048,134.744c-.79.183-3.037,2.906,3.162,4.457a71.152,71.152,0,0,1,9.345,2.875Z" fill="#efd4e0" fill-rule="evenodd"/>
    <path id="Path_22320" data-name="Path 22320" d="M26.306,154.3a6.155,6.155,0,0,1-.576-1.437c-.028-.134-4.172-1.317-4.743-.432-.841,1.3-1.391,4.762,6.324,6.757,1.944.5,2.993.938,3.882.719,2.045-.5,1.347-3.639,0-4.025-2.589-.743-4.887-1.582-4.887-1.582" fill="#efd4e0" fill-rule="evenodd"/>
    <path id="Path_22321" data-name="Path 22321" d="M26.306,145.527a32.125,32.125,0,0,1-4.458-1.438c-.559-.23-.633-.78-1-1.581a7.249,7.249,0,0,0-3.306,0c-2.38,1.342-1.537,4.921,1.869,5.9s9.426,3.287,9.342,1.581-1.332-4.457-2.442-4.457" fill="#efd4e0" fill-rule="evenodd"/>
    <path id="Path_22322" data-name="Path 22322" d="M39.674,143.083s.315,4.918,3.018,5.176a14.267,14.267,0,0,1,3.45.575Z" fill="#efd4e0" fill-rule="evenodd"/>
    <path id="Path_22323" data-name="Path 22323" d="M19.549,143.083c.674-.6,2.155.863,2.155.863-2.263-1.218-2.83-.259-2.155-.863m4.312,10.064c.727-.214,2.445,1.006,2.445,1.006-1.052-.445-3.172-.792-2.445-1.006m22.792-1.811c-.576.578-2.108,2.282-1.516,3.536.673,1.423-2.163-2.282.915-3.5a4.361,4.361,0,0,1-3.933-3.11s2.512,2.781,4.743,2.731c.673-.015.441.25-.209.346m9.364,8.167a1.863,1.863,0,0,0-.1-.318s.04.12.1.318m0,0c.26.891.873,3.395-.242,3.995-1.284.692.632-2.2.242-3.995m11.114-14.839s-7.151,4.229-7.045,6.326-1.966-3.928,7.045-6.326m-3.594-4.025a.921.921,0,0,1,.155-.143c-.116.112-.192.194-.225.229l.07-.086m-.07.086c-.023.025-.023.028,0,0m.225-.229a23.384,23.384,0,0,1,4.3-1.726,6.14,6.14,0,0,0-4.3,1.726m.8,12.291c-.231-.041-.381-.072-.381-.072a.945.945,0,0,0,.381.072m6.806.935c4.291-.885-4.837-.073-6.18-2.3a5.31,5.31,0,0,0,1.051,1.123c-.359-.054-1.106.25-1.677.242a7,7,0,0,0,2.291.2,5.957,5.957,0,0,0,4.515.737m37.235,8.051a12.991,12.991,0,0,1,1,1.007S97.967,155.1,96.6,152.428c0,0,9.748,8.082,11.935,9.345m4.309,35.8c-4.916-1.623-10.052-3.092-21.659-23.049a86.124,86.124,0,0,1-5.506-11.312c1.544,2.17,2.9,5.758,6.466,11.5,4.357,7.012,11.085,14.221,16.962,19.41,4.4,3.882,13.157,2.4,15.527,2.155-.03.569-6.089,3.171-11.79,1.3m13.516-19.7a6.272,6.272,0,0,0-3.166-5.463c-3.47-2.29,3.44,3.3,3.166,5.463" fill="#e3c1ce" fill-rule="evenodd"/>
    <path id="Path_22324" data-name="Path 22324" d="M90.182,78.607s-19.265,5.161-11.875,25.844c4.728,13.234,25.628,22.823,72.8,9.429,49.378-14.021,48.637-39.293,46.807-43.619-2.4-5.7-9.839-15.684-24.692-10.982-.261-.5.061-3.157-3.2-5.817-4.212-2.46-10.088-3.363-12.082-.125-1.075,1.739-.395-12.221-16.2-9.526-18.031,3.074-31.456,6.6-37.12,11.5-2.351,3.324-3.239,5.34-3.379,11.111,1.034,1.089-8.769-5.136-11.054,12.188" fill="#dc4427" fill-rule="evenodd"/>
    <path id="Path_22325" data-name="Path 22325" d="M77.268,91.439c-1.343,2.947-1.55,7.129,1.039,13.011,5.658,12.864,25.664,22.977,72.8,9.429,52.179-15,47.408-39.538,46.812-43.724,2.869,20.028-55.363,49.59-86.9,47.127-22.249-1.738-29.645-16.625-33.753-25.843" fill="#c13f28" fill-rule="evenodd"/>
    <path id="Path_22326" data-name="Path 22326" d="M133.853,44.044s6.977-10.193,1.525-15.652c-6.125-6.14-17.162-10.434-19.568-14.354-2.711-4.415,3.567,3.885-3.586,16.953-5.785,10.566.085,17.728,7.925,17.076s13.169-3.32,13.7-4.023" fill="#dc4427" fill-rule="evenodd"/>
    <path id="Path_22327" data-name="Path 22327" d="M134.06,43.836s7.056-10.035,1.112-15.656c4.515,15-21.216,19.7-23.264,4.292-5.785,10.567.4,16.248,8.241,15.6s12.768-3.112,13.911-4.231" fill="#c13f28" fill-rule="evenodd"/>
    <path id="Path_22328" data-name="Path 22328" d="M134.807,43l.93,1.9L117.426,49.34l-.51-1.445s12-4.005,17.891-4.892" fill="#fce78e" fill-rule="evenodd"/>
    <path id="Path_22329" data-name="Path 22329" d="M156.029,76.1c-2.82,4.019-4.473,11.425-4.473,11.425l-.656,5.7s-1.4,13.058-.14,23.342c.808,6.58.468,5.527.468,5.527s-4.582,6.036-10.21,8.915c-2.546,1.3-11.784,5.6-12.513,5.27.195-1.243.3-2.214,3.027-7,.82-1.431,5.208-6.349,5.749-7.62.291-.683-.48,4.176-.274,2.963.906-5.249.857-13.094.31-19.24-3.33.315-18.645,4.414-23.294-12.953-1.847-11.249-.243-21.945,1.319-22.974l2.6-4.764s15.837-2.4,26.217-1.089c1.483.188,4.874,7.78,5.05,9.621.809-7.056,5.379-6.194,6.157-5.509,1.489,1.22,2.066,3.895.662,8.382" fill="#efd4e0" fill-rule="evenodd"/>
    <path id="Path_22330" data-name="Path 22330" d="M150.225,107.516s-3.47-2.054-7.913,4.657c-2.509,3.8-4.047,13.611-6.672,16.57-2.4,2.705-4.267,3.886-4.54,1.4.656-1.307,2.85-3.934,3.306-4.745a16.038,16.038,0,0,1,2.735-3.45c.413.444.182,3.018.139,2.732a157.705,157.705,0,0,0,.037-19.3,23.977,23.977,0,0,0,8.137-4.647,24.441,24.441,0,0,0,3.732-5.008c1.039-2.029,1.112-4.519,1.416-4.4.875.335-.28,9.387-.322,11.037-.067,2.123-.055,5.152-.055,5.152" fill="#e3c1ce" fill-rule="evenodd"/>
    <path id="Path_22331" data-name="Path 22331" d="M116.922,78.371s-.243-3.1.589-2.816.772.675.772.675Zm5.281,4.5a1.937,1.937,0,1,1,1.616-1.765,1.714,1.714,0,0,1-1.616,1.765m2.425,1.953c-1.757,1.049,3.634.966,3.895.669s-2.88-.411-2.88-.411a8.43,8.43,0,0,0,1.707-4.841s-.972,3.533-2.722,4.583m10.24-1.325-.353-.427,2.352-.079-.249.417-.906.285a13.47,13.47,0,0,1-2.479,3.865,18.1,18.1,0,0,1-3.956,2.938l-1.2-.322a13.393,13.393,0,0,0,7.275-6.608Zm-1.811-1.941a1.937,1.937,0,1,1,1.616-1.766,1.718,1.718,0,0,1-1.616,1.766m6.393-8.743a10.847,10.847,0,0,0-4.078-.432L136.9,70.6s3.774,1.354,4.752,3.391c.5,1.056-.365-.48-2.206-1.181" fill="#804c33" fill-rule="evenodd"/>
    <path id="Path_22332" data-name="Path 22332" d="M151.295,76.265a8.27,8.27,0,1,0,10.149,6.086,8.371,8.371,0,0,0-10.149-6.086" fill="#fbe68e" fill-rule="evenodd"/>
    <path id="Path_22333" data-name="Path 22333" d="M145.443,61.653a31.516,31.516,0,0,1,2.565,6.3,23.944,23.944,0,0,1,1.1,5.375l1.306-4.4s4.517-5.147,8.923-3.711-7.384-8.822-10.606-8.6-15.976.321-15.976.321L110.73,59.875,108,65.746l1.878,2.995s1.033,8.424,4.649.919c.669,6.2,8.356,7.81,8.356,7.81s14.257-2.637,15.388-12.981c.255,1.539,3.276,3.041,7.177-2.836" fill="#dc4427" fill-rule="evenodd"/>
    <path id="Path_22334" data-name="Path 22334" d="M143.947,63.812a17.446,17.446,0,0,1,4.139,6.458c1.16,3.639,1.016,3.69,1.016,3.69l1.518-4.716L143.7,56.764s1,8.78-3.026,8.381c-3.033-.3.054-5.574-2.8-4.445-.243.1-1.969,5.884-2.655,8.059-.724,2.284-2.7,3.321-5.069,4.537-7.67,3.935-12.933,3.544-14.713-1.838a14.168,14.168,0,0,1-.736-3.052,25.129,25.129,0,0,1-2.054,3.379c-1.088,1.568-2.85-2.812-2.85-2.868,0,0,1.027,8.425,4.643.92.8,7.539,8.356,7.81,8.356,7.81s14.423-1.236,15.546-11.58c.3,1.587,4.808,1.481,5.6-2.255" fill="#c13f28" fill-rule="evenodd"/>
  </g>
</svg>
