<svg xmlns="http://www.w3.org/2000/svg" xmlns:xlink="http://www.w3.org/1999/xlink" width="117.869" height="98.979" viewBox="0 0 117.869 98.979">
  <defs>
    <linearGradient id="linear-gradient" x1="0.18" y1="-0.673" x2="0.678" y2="0.862" gradientUnits="objectBoundingBox">
      <stop offset="0" stop-color="#9b8fc4"/>
      <stop offset="1" stop-color="#251d41"/>
    </linearGradient>
    <linearGradient id="linear-gradient-2" x1="-0.279" y1="-0.63" x2="1.007" y2="1.236" xlink:href="#linear-gradient"/>
    <linearGradient id="linear-gradient-3" x1="3.36" y1="3.496" x2="-1.76" y2="-2.158" xlink:href="#linear-gradient"/>
  </defs>
  <g id="Group_7292" data-name="Group 7292" transform="translate(-38.553 -49.147)">
    <g id="Group_7283" data-name="Group 7283" transform="translate(38.553 85.492)">
      <g id="Group_7280" data-name="Group 7280" transform="translate(12.664 0)">
        <g id="Group_7279" data-name="Group 7279">
          <path id="Path_20026" data-name="Path 20026" d="M77.214,141.884a1.673,1.673,0,0,1-1.177-.481l-21.9-21.521a1.68,1.68,0,0,1,.041-2.436c.04-.037,4.065-3.735,8.024-7.693,8.023-8.023,15.715-8.889,18.65-8.889h5.594a19.913,19.913,0,0,1,10.535,3c2.353,1.277,4.386,2.379,7.858,2.379H116.8a10.1,10.1,0,0,1,7.482,2.842l2-.691a40.107,40.107,0,0,0,13.584-10.75,13.564,13.564,0,0,1,7.581-4.809c6.052-1.405,9.35,1.033,11.051,3.325a1.678,1.678,0,0,1,.2,1.662c-2.591,6.063-11.653,19.638-13.741,21.979-.171.192-.415.485-.727.86-10.25,12.3-20.429,18.532-30.256,18.532H82.595a4.309,4.309,0,0,0-3.745,1.729c-.153.165-.3.323-.448.47A1.678,1.678,0,0,1,77.214,141.884ZM57.742,118.717l19.444,19.106a7.385,7.385,0,0,1,5.408-1.989h31.381c8.783,0,18.094-5.828,27.676-17.324.344-.412.611-.733.8-.945A148.248,148.248,0,0,0,155.185,97.44c-1.613-1.608-3.9-2.044-6.972-1.332a10.243,10.243,0,0,0-5.771,3.7,43.367,43.367,0,0,1-14.816,11.67,1.633,1.633,0,0,1-.16.065l-1.366.47a7.919,7.919,0,0,1,.454,2.636c0,4.176-3.349,8.4-9.75,8.4H92.593a1.68,1.68,0,0,1,0-3.36H116.8a7.02,7.02,0,0,0,4.9-1.647,4.651,4.651,0,0,0,.76-5.9,1.665,1.665,0,0,1-.2-.283c-.982-1.309-2.768-2.257-5.468-2.257H104.836a17.958,17.958,0,0,1-9.46-2.786,16.624,16.624,0,0,0-8.932-2.594H80.849c-2.516,0-9.14.77-16.275,7.905C61.938,114.765,59.271,117.288,57.742,118.717Z" transform="translate(-53.632 -92.421)" fill="url(#linear-gradient)"/>
        </g>
      </g>
      <g id="Group_7282" data-name="Group 7282" transform="translate(0 21.951)">
        <g id="Group_7281" data-name="Group 7281">
          <path id="Path_20027" data-name="Path 20027" d="M69.951,159.239a9.26,9.26,0,0,1-6.568-2.716L41.269,134.41a9.289,9.289,0,1,1,13.136-13.137l22.113,22.113a9.285,9.285,0,0,1-6.568,15.853ZM47.837,121.915a5.927,5.927,0,0,0-4.193,10.12l22.113,22.113a5.93,5.93,0,0,0,8.385-8.386L52.03,123.648A5.911,5.911,0,0,0,47.837,121.915Z" transform="translate(-38.553 -118.557)" fill="url(#linear-gradient-2)"/>
        </g>
      </g>
    </g>
    <g id="Group_7284" data-name="Group 7284" transform="translate(84.472 49.147)">
      <path id="Path_20028" data-name="Path 20028" d="M112.1,83.96a1.673,1.673,0,0,1-1.188-.492L96.664,69.214A11.759,11.759,0,0,1,112.1,51.547a11.777,11.777,0,0,1,15.441,1.04h0a11.77,11.77,0,0,1,0,16.628L113.293,83.468A1.672,1.672,0,0,1,112.1,83.96Zm-7.126-31.455A8.395,8.395,0,0,0,99.04,66.839L112.1,79.905l13.066-13.066a8.4,8.4,0,0,0-11.879-11.878,1.679,1.679,0,0,1-2.375,0A8.375,8.375,0,0,0,104.979,52.506Z" transform="translate(-93.226 -49.147)" fill="url(#linear-gradient-3)"/>
    </g>
  </g>
</svg>
