<svg xmlns="http://www.w3.org/2000/svg" xmlns:xlink="http://www.w3.org/1999/xlink" width="125.054" height="113.33" viewBox="0 0 125.054 113.33">
  <defs>
    <linearGradient id="linear-gradient" y1="0.5" x2="1" y2="0.5" gradientUnits="objectBoundingBox">
      <stop offset="0" stop-color="#1aaade"/>
      <stop offset="1" stop-color="#0e7aa3"/>
    </linearGradient>
  </defs>
  <g id="Group_5695" data-name="Group 5695" transform="translate(-256.089 -1374.189)">
    <path id="Path_62077" data-name="Path 62077" d="M295.708,1457.085l-14.749-3.416.5-2.145c1.12-4.84.347-8.76-2.068-10.485s-6.37-1.183-10.586,1.447l-1.868,1.167-8.012-12.843,1.868-1.166c4.215-2.63,6.441-5.946,5.954-8.874s-3.67-5.343-8.511-6.464l-2.145-.5,3.415-14.749,2.146.5c4.846,1.124,8.762.347,10.486-2.068s1.181-6.37-1.448-10.586l-1.167-1.868,12.841-8.013,1.166,1.868c2.63,4.216,5.95,6.448,8.875,5.954s5.344-3.67,6.464-8.512l.5-2.145,14.749,3.415-.5,2.146c-1.122,4.841-.349,8.762,2.067,10.486s6.371,1.182,10.587-1.447l1.867-1.167,8.015,12.841-1.869,1.167c-4.216,2.629-6.44,5.946-5.953,8.873s3.67,5.344,8.51,6.465l2.145.5-3.416,14.749-2.145-.5c-4.842-1.119-8.762-.348-10.486,2.068s-1.184,6.371,1.447,10.586l1.167,1.867-12.841,8.012-1.166-1.868c-2.63-4.216-5.955-6.434-8.875-5.953s-5.344,3.67-6.466,8.512Zm-9.555-6.733,6.348,1.47c1.788-5.516,5.158-9.023,9.445-9.737s8.611,1.51,12.092,6.147l5.524-3.447c-2.635-5.161-2.733-10.023-.207-13.559s7.163-5.028,12.9-4.206l1.471-6.348c-5.515-1.788-9.021-5.157-9.736-9.444s1.509-8.612,6.147-12.092l-3.448-5.524c-5.164,2.636-10.027,2.733-13.562.207s-5.023-7.158-4.2-12.9l-6.347-1.47c-1.787,5.516-5.156,9.022-9.445,9.737s-8.611-1.508-12.091-6.147l-5.525,3.448c2.637,5.161,2.735,10.022.209,13.56s-7.163,5.024-12.9,4.206l-1.47,6.347c5.515,1.788,9.02,5.157,9.736,9.444s-1.509,8.612-6.147,12.091l3.447,5.525c5.161-2.636,10.022-2.732,13.56-.207S286.971,1444.612,286.152,1450.352Zm11.389-19.834a14.883,14.883,0,1,1,2.913-29.478l.708-.116.371.37a14.885,14.885,0,0,1-3.992,29.223Zm-.022-25.366a10.491,10.491,0,1,0,2.52.3l-.135-.03A10.606,10.606,0,0,0,297.519,1405.152Z" fill="url(#linear-gradient)"/>
    <path id="Path_62078" data-name="Path 62078" d="M345.9,1482.14l-.337-2.176c-.435-2.8-1.6-4.69-3.11-5.059s-3.415.777-5.088,3.062l-1.3,1.778-9.075-6.639,1.3-1.777c1.673-2.287,2.189-4.447,1.378-5.777s-2.955-1.863-5.758-1.427l-2.178.339-1.723-11.113,2.176-.338c2.8-.434,4.692-1.6,5.061-3.11s-.777-3.415-3.063-5.089l-1.777-1.3,6.639-9.075,1.777,1.3c2.288,1.673,4.444,2.191,5.777,1.38s1.863-2.963,1.427-5.759l-.339-2.177,11.113-1.724.338,2.177c.434,2.8,1.6,4.691,3.109,5.06s3.416-.778,5.089-3.064l1.3-1.778,9.074,6.64-1.3,1.777c-1.672,2.288-2.189,4.447-1.38,5.777s2.965,1.863,5.76,1.427l2.177-.339,1.724,11.115-2.177.337c-2.8.434-4.691,1.6-5.06,3.11s.776,3.415,3.063,5.089l1.777,1.3-6.638,9.076-1.778-1.3c-2.287-1.674-4.449-2.189-5.777-1.378s-1.863,2.961-1.426,5.758l.338,2.177Zm-4.052-11.711a6.971,6.971,0,0,1,1.647.2c2.81.685,4.908,3.013,5.942,6.51l2.689-.417c-.077-3.643,1.217-6.5,3.686-8s5.6-1.341,8.806.4l1.606-2.2c-2.629-2.526-3.732-5.461-3.048-8.271s3.012-4.909,6.51-5.942l-.417-2.687c-3.629.1-6.495-1.217-8-3.687s-1.341-5.6.4-8.806l-2.2-1.606c-2.526,2.63-5.46,3.73-8.269,3.049s-4.908-3.013-5.943-6.51l-2.686.417c.075,3.643-1.219,6.5-3.687,8s-5.6,1.34-8.806-.4l-1.607,2.2c2.63,2.527,3.733,5.461,3.049,8.269s-3.013,4.908-6.51,5.943l.417,2.688c3.633-.079,6.495,1.219,8,3.688s1.341,5.6-.4,8.8l2.2,1.606A9.339,9.339,0,0,1,341.846,1470.429Zm5.48-5.338a10.3,10.3,0,1,1,1.6-.123A10.437,10.437,0,0,1,347.325,1465.091Zm-.88-16.1a5.881,5.881,0,1,0,4.374,1.065,5.846,5.846,0,0,0-4.374-1.065Z" transform="translate(6.454 5.379)" fill="url(#linear-gradient)"/>
  </g>
</svg>
