<svg xmlns="http://www.w3.org/2000/svg" width="609.996" height="502.202" viewBox="0 0 609.996 502.202">
  <g id="Group_7400" data-name="Group 7400" transform="translate(-13082.366 -1062.418)">
    <rect id="Rectangle_19373" data-name="Rectangle 19373" width="609.996" height="501.592" transform="translate(13082.366 1062.741)" fill="none"/>
    <g id="Group_7399" data-name="Group 7399" transform="translate(13200.93 1062.741)">
      <ellipse id="Ellipse_8866" data-name="Ellipse 8866" cx="187.406" cy="186.564" rx="187.406" ry="186.564" transform="translate(5.712 39.84)" fill="#b5ebff"/>
      <g id="Group_7389" data-name="Group 7389" transform="translate(121.778)">
        <path id="Path_61449" data-name="Path 61449" d="M13306.266,1062.741a26.777,26.777,0,1,1-26.9,26.778h0A26.838,26.838,0,0,1,13306.266,1062.741Z" transform="translate(-13279.367 -1062.741)" fill="#d7ccfc" stroke="#70678f" stroke-width="0.645"/>
        <path id="Path_61450" data-name="Path 61450" d="M13293.6,1096.927l1.01,2.584,26.365-10.22-.988-2.526Z" transform="translate(-13276.238 -1057.456)" fill="#ccc" stroke="#333" stroke-linecap="round" stroke-linejoin="round" stroke-width="0.529"/>
        <path id="Path_61451" data-name="Path 61451" d="M13292.479,1084.667l6.71-2.6m-5.339,6.083,6.707-2.6m-5.34,6.079,6.708-2.6m-5.34,6.084,6.705-2.6m-15.366-10.138,11.5-4.457,2.271,1.109,6.878,17.579-2.271-1.113-11.5,4.457-6.884-17.58Zm14.85-5.756-.09.229-.822,2.117.915-2.346,11.5-4.46,6.878,17.579-11.5,4.457-1.082,2.412-6.759-17.445" transform="translate(-13277.486 -1060.67)" fill="#fff" stroke="#333" stroke-linecap="round" stroke-linejoin="round" stroke-width="0.529"/>
        <path id="Path_61452" data-name="Path 61452" d="M13302.523,1078.675l6.705-2.6m-5.343,6.1,6.707-2.6m-5.34,6.079,6.71-2.6" transform="translate(-13274.274 -1059.808)" fill="#fff" stroke="#333" stroke-linecap="round" stroke-linejoin="round" stroke-width="0.529"/>
      </g>
      <g id="Group_7390" data-name="Group 7390" transform="translate(0 85.682)">
        <ellipse id="Ellipse_8867" data-name="Ellipse 8867" cx="40.311" cy="40.129" rx="40.311" ry="40.129" fill="#dcf4ff" stroke="#707070" stroke-width="0.967"/>
        <path id="Path_61453" data-name="Path 61453" d="M13198.057,1154.577l-4.924,22.056a2.047,2.047,0,0,0,1.55,2.448l.014,0,24.149,5.324,10.1,2.224,2.365.521a2.059,2.059,0,0,0,2.461-1.556h0l4.923-22.056Z" transform="translate(-13176.572 -1128.22)" fill="#fff" stroke="#333" stroke-linecap="round" stroke-linejoin="round" stroke-width="0.793" fill-rule="evenodd"/>
        <path id="Path_61454" data-name="Path 61454" d="M13200.377,1149.039l37.357,8.228a1.673,1.673,0,0,1,1.275,2h0l-1.231,5.514-40.615-8.951,1.23-5.514A1.672,1.672,0,0,1,13200.377,1149.039Z" transform="translate(-13175.675 -1129.446)" fill="#ccc" stroke="#333" stroke-linecap="round" stroke-linejoin="round" stroke-width="0.793" fill-rule="evenodd"/>
        <ellipse id="Ellipse_8868" data-name="Ellipse 8868" cx="1.453" cy="1.446" rx="1.453" ry="1.446" transform="translate(47.745 27.282)" fill="#fff" stroke="#333" stroke-linecap="round" stroke-linejoin="round" stroke-width="0.532"/>
        <ellipse id="Ellipse_8869" data-name="Ellipse 8869" cx="1.453" cy="1.446" rx="1.453" ry="1.446" transform="translate(52.226 28.268)" fill="#fff" stroke="#333" stroke-linecap="round" stroke-linejoin="round" stroke-width="0.532"/>
        <ellipse id="Ellipse_8870" data-name="Ellipse 8870" cx="1.453" cy="1.446" rx="1.453" ry="1.446" transform="translate(56.712 29.255)" fill="#33ad6a" stroke="#333" stroke-linecap="round" stroke-linejoin="round" stroke-width="0.532"/>
        <ellipse id="Ellipse_8871" data-name="Ellipse 8871" cx="3.976" cy="3.958" rx="3.976" ry="3.958" transform="translate(23.263 30.701)" fill="#ccc"/>
        <path id="Path_61455" data-name="Path 61455" d="M13208.986,1159.9l21.514,4.791-.551,2.451-21.514-4.791Z" transform="translate(-13173.194 -1127.048)" fill="#ccc"/>
        <path id="Path_61456" data-name="Path 61456" d="M13208.045,1163.051l11.98,2.668-.551,2.451-11.981-2.668Z" transform="translate(-13173.402 -1126.355)" fill="#ccc"/>
        <path id="Path_61457" data-name="Path 61457" d="M13197.991,1165.817l32.96,7.34-.367,1.632-32.96-7.34Z" transform="translate(-13175.573 -1125.747)" fill="#ccc"/>
        <path id="Path_61458" data-name="Path 61458" d="M13197.422,1168.359l32.961,7.34-.367,1.632-32.96-7.34Z" transform="translate(-13175.698 -1125.188)" fill="#ccc"/>
        <path id="Path_61459" data-name="Path 61459" d="M13196.754,1171.136l20.174,4.493-.367,1.632-20.174-4.493Z" transform="translate(-13175.846 -1124.577)" fill="#ccc"/>
      </g>
      <g id="Group_7391" data-name="Group 7391" transform="translate(341.886 147.76)">
        <ellipse id="Ellipse_8872" data-name="Ellipse 8872" cx="49.459" cy="49.236" rx="49.459" ry="49.236" fill="#b0cf66" stroke="#707070" stroke-width="1.186"/>
        <path id="Path_61460" data-name="Path 61460" d="M13480.315,1213.5l34.439-8.438,10.949,44.291-34.437,8.438Z" transform="translate(-13455.27 -1179.192)" fill="#ccc" stroke="#333" stroke-linecap="round" stroke-linejoin="round" stroke-width="0.777"/>
        <path id="Path_61461" data-name="Path 61461" d="M13482.952,1208.811l35.377-8.669,11.115,44.955-35.377,8.668Z" transform="translate(-13454.689 -1180.274)" fill="#fff" stroke="#333" stroke-linecap="round" stroke-linejoin="round" stroke-width="0.777"/>
        <path id="Path_61462" data-name="Path 61462" d="M13488.674,1214.014l24.227-5.936.541,2.2-24.225,5.936Z" transform="translate(-13453.431 -1178.528)" fill="#ccc"/>
        <path id="Path_61463" data-name="Path 61463" d="M13489.541,1217.173l16.752-4.105.545,2.2-16.754,4.105Z" transform="translate(-13453.24 -1177.43)" fill="#ccc"/>
        <path id="Path_61464" data-name="Path 61464" d="M13491.122,1222.335l24.225-5.936.543,2.2-24.227,5.936Z" transform="translate(-13452.894 -1176.698)" fill="#ccc"/>
        <path id="Path_61465" data-name="Path 61465" d="M13491.984,1225.487l16.756-4.105.541,2.2-16.752,4.105Z" transform="translate(-13452.701 -1175.601)" fill="#ccc"/>
        <path id="Path_61466" data-name="Path 61466" d="M13493.566,1230.649l24.227-5.936.543,2.2-24.227,5.936Z" transform="translate(-13452.354 -1174.868)" fill="#ccc"/>
        <path id="Path_61467" data-name="Path 61467" d="M13494.431,1233.8l16.754-4.105.543,2.2-16.752,4.105Z" transform="translate(-13452.163 -1173.772)" fill="#ccc"/>
      </g>
      <g id="Group_7393" data-name="Group 7393" transform="translate(116.979 56.556)">
        <path id="Path_61468" data-name="Path 61468" d="M13344.365,1454.431s11.88,19.061,7.416,21.5c-4.283,2.342-23.187,4.869-30.955-2.567-2.325-1.384-.476-5.584,1.13-7.541s4.675-9.95,4.675-9.95Z" transform="translate(-13265.689 -1033.129)" fill="#c2d168" fill-rule="evenodd"/>
        <path id="Path_61469" data-name="Path 61469" d="M13351.654,1466.5s2.8,5.106.161,7.219c-3.81,3.046-24.451,4.35-30.632-2.084-2.594-2.7-1.509-3.93-.508-5.956,1.894-3.823,5.989,2.906,5.989,2.906Z" transform="translate(-13265.724 -1030.913)" fill="#faf8ea" fill-rule="evenodd"/>
        <path id="Path_61470" data-name="Path 61470" d="M13320.1,1467.011s.832,6.417,18.541,6.1c14.524-.261,13.889-3.338,13.22-5.455-.582-1.836-3.869-3.078-7.256-4.013s-20.775-1.366-23.375,1.124A10.969,10.969,0,0,0,13320.1,1467.011Z" transform="translate(-13265.608 -1031.265)" fill="#a0ad4b" fill-rule="evenodd"/>
        <path id="Path_61471" data-name="Path 61471" d="M13403.722,1447.793s4.948,10.2,19.67,16.206c5.647,5.716,7.218,11.583,3.225,12.837s-24.441,4.594-33.7-2.568-20.29-22.17-16.122-26.154S13403.722,1447.793,13403.722,1447.793Z" transform="translate(-13253.335 -1034.927)" fill="#c2d168" fill-rule="evenodd"/>
        <path id="Path_61472" data-name="Path 61472" d="M13424.2,1466.022c5.648,5.716,6.412,9.817,2.419,11.072s-24.441,4.594-33.7-2.568-20.29-22.17-16.122-26.154c9.76-9.333-.655,3.582,7.577,9.627,5.237,3.847,14.12,15.91,24.183,17.01C13413.554,1475.554,13422.682,1465.4,13424.2,1466.022Z" transform="translate(-13253.335 -1035.184)" fill="#faf8ea" fill-rule="evenodd"/>
        <path id="Path_61473" data-name="Path 61473" d="M13380.6,1453.7s19.3,19.852,24.989,20.7,20.469-.554,21.766-4.652c.633-1.443-2.314-4.169-4.837-6.259s-21.493,1.074-24.506,3.85C13396.057,1466.814,13380.6,1453.7,13380.6,1453.7Z" transform="translate(-13252.299 -1033.29)" fill="#a0ad4b" fill-rule="evenodd"/>
        <path id="Path_61474" data-name="Path 61474" d="M13341.7,1279.732s-4.649,5.44,13.461,40.26,54.29,103.711,61.749,120.026c7.225,15.81,11.98,47.754,11.605,49.263s-17.187,12.469-44.98-.964c-7.126-23.709-20.543-66.608-27.729-85.368-3.883-10.137-17.436-42.92-19.669-47.816-1.492-3.277-12.158-30.355-12.737-35.625a20.728,20.728,0,0,0-2.417-1.443s13.391,59.965,16.122,69.322,28.7,95.78,33.855,105.263c-1.2,6.366-40.8,11.679-48.688,4.013-6.5-6.318-15.583-43.273-17.411-64.349-1.857-21.418-10.513-102.955-11.285-110.24-.591-5.569-6.334-45.614-.967-49.1S13341.7,1279.732,13341.7,1279.732Z" transform="translate(-13272.157 -1073.207)" fill="#734e63" fill-rule="evenodd"/>
        <path id="Path_61475" data-name="Path 61475" d="M13313.073,1308.225l15.315,4.495S13323.666,1315.322,13313.073,1308.225Z" transform="translate(-13267.154 -1065.293)" fill="#553b47" fill-rule="evenodd"/>
        <path id="Path_61476" data-name="Path 61476" d="M13320.87,1313.356s6.457,7.1,7.737,6.9S13322.574,1313.461,13320.87,1313.356Z" transform="translate(-13265.439 -1064.164)" fill="#553b47" fill-rule="evenodd"/>
        <path id="Path_61477" data-name="Path 61477" d="M13360,1444.7s-24.01,15.244-48.365.161c-4.982-5.186,14.855,6.881,26.6,4.974C13347.436,1448.337,13357.337,1445.882,13360,1444.7Z" transform="translate(-13267.646 -1035.522)" fill="#553b47" fill-rule="evenodd"/>
        <path id="Path_61478" data-name="Path 61478" d="M13366.2,1441.6s16.074,12.477,36.221,6.023c5.272-1.686,6.88-2.552,6.5-2.973-1.139-1.28-17.266,5.234-25.472,2.728C13372.648,1444.075,13366.2,1441.6,13366.2,1441.6Z" transform="translate(-13255.468 -1035.953)" fill="#553b47" fill-rule="evenodd"/>
        <path id="Path_61479" data-name="Path 61479" d="M13346.369,1264.07s-3.977,13.909-5.158,18.294c-1.847,2.923-46.014-6.566-48.689-7.7s10.641-13,10.641-13Z" transform="translate(-13271.753 -1075.536)" fill="#443228" fill-rule="evenodd"/>
        <path id="Path_61480" data-name="Path 61480" d="M13318.488,1265.214a9.39,9.39,0,1,1-9.512,9.389A9.451,9.451,0,0,1,13318.488,1265.214Z" transform="translate(-13268.056 -1074.755)" fill="#c7c5c5" fill-rule="evenodd"/>
        <path id="Path_61481" data-name="Path 61481" d="M13318.057,1265.609a7.463,7.463,0,1,1-7.5,7.461A7.48,7.48,0,0,1,13318.057,1265.609Z" transform="translate(-13267.708 -1074.668)" fill="#734e63" fill-rule="evenodd"/>
        <g id="Group_7392" data-name="Group 7392">
          <path id="Path_61482" data-name="Path 61482" d="M13413.971,1139.538c-4.562.466-6.232.883-6.828.79.914.25,3.8,1.3,3.389,4.565a6.91,6.91,0,0,1-1.135,7.087c-2.83,3.786-3.559,5.395-6.258,5.54,0,0,1.729,22.791,3,30.765s1.033,34.854-9.832,36.732c-7.363,1.272-25.117,2.381-35.785,2.961-5.064.276-8.531.435-8.531.435s-2.191-16.047,1.674-24.674h25.471s-1.7-14.065,2.916-25.663,6.008-30.446,6.523-36.486,6.824-4.494,13.863-5.508,17-3.767,17.967-4.37S13426.24,1138.288,13413.971,1139.538Z" transform="translate(-13258.729 -1104.132)" fill="#faf8ea" fill-rule="evenodd"/>
          <path id="Path_61483" data-name="Path 61483" d="M13390.369,1140.091s6.431-1.052,8.19,0,1.7,3.549,3.4,4.6-1.093,4.4-2.973,2.7-2.56-2.3-2.56-2.3-3.447-.391-4.056.855-1.88,3.483-4.431,3.287a13.115,13.115,0,0,1-2.1-.81,8.943,8.943,0,0,0,2.893.35,4.964,4.964,0,0,0,2.771-2.081,2.834,2.834,0,0,1,2.832-1.885c1.76-.111,2-.066,2.367.218s2.811,2.915,3.458,2.474,2.509-1.446,1.538-2.387a8.337,8.337,0,0,1-1.7-2.783c-.243-.548-.951-2.125-2.346-2.257S13390.369,1140.091,13390.369,1140.091Z" transform="translate(-13251.146 -1102.384)" fill="#dbd5af" fill-rule="evenodd"/>
          <path id="Path_61484" data-name="Path 61484" d="M13400.128,1142.253s-.606,5.37-1.941,5.644a2.549,2.549,0,0,1-2.711-1.175c-.282-.612-.566,1.271.891,1.447s2.872.218,3.2-1.621S13400.815,1142.867,13400.128,1142.253Z" transform="translate(-13249.075 -1101.805)" fill="#dbd5af" fill-rule="evenodd"/>
          <path id="Path_61485" data-name="Path 61485" d="M13396.863,1138.714a3.52,3.52,0,0,1,0,2.192l.341.454S13397.957,1139.042,13396.863,1138.714Z" transform="translate(-13248.722 -1102.584)" fill="#dbd5af" fill-rule="evenodd"/>
          <path id="Path_61486" data-name="Path 61486" d="M13395.783,1144.6s-1.012,3.55-3.859-.313l-.4.2a3.312,3.312,0,0,0,1.561,1.6c1.051.426,2.414,1.213,3.027-1.2" transform="translate(-13249.897 -1101.358)" fill="#dbd5af" fill-rule="evenodd"/>
          <path id="Path_61487" data-name="Path 61487" d="M13400.461,1136.3a9.352,9.352,0,0,1,1.012,1.932S13401.634,1136.747,13400.461,1136.3Z" transform="translate(-13247.93 -1103.114)" fill="#dbd5af" fill-rule="evenodd"/>
          <path id="Path_61488" data-name="Path 61488" d="M13392.072,1138.87s6.949.125,7.281.109,4.186-.089,6.252-.976Z" transform="translate(-13249.775 -1102.74)" fill="#dbd5af" fill-rule="evenodd"/>
          <path id="Path_61489" data-name="Path 61489" d="M13374.306,1191.79c.364,0,3.221,5.074,5.615,5.919,0,0-4.868-7.632-5.788-6.958" transform="translate(-13253.722 -1091.145)" fill="#ebe7c8" fill-rule="evenodd"/>
          <path id="Path_61490" data-name="Path 61490" d="M13393.5,1153.033s-4.023-1.048-4.673-1.61C13388.831,1151.422,13388.951,1153.354,13393.5,1153.033Z" transform="translate(-13250.488 -1099.788)" fill="#ebe7c8" fill-rule="evenodd"/>
          <path id="Path_61491" data-name="Path 61491" d="M13306.1,1162.843c0,.193-.009.388-.013.592C13306.088,1163.053,13306.1,1162.843,13306.1,1162.843Z" transform="translate(-13268.691 -1097.276)" fill="#faf8ea" fill-rule="evenodd"/>
          <path id="Path_61492" data-name="Path 61492" d="M13276.393,1246.456s2.325-38.6,5.816-40.826c2.854-1.822,15.02-6.844,23.289-9.5a5.241,5.241,0,0,1,3.4-2.224c8.312-.931,17.248-1.813,26.174-1.353,7.663.4,17.634-.712,17.691-.412,0,0,14.587-.932,24.3-1.329-2.258,10.629-2.98,22.591-1.768,23.942.729.815-15.247,1.31-21.286,1.465,5.63,13.155,3.807,26.677,3.807,26.677s-.271,16.13-5.073,23.6a35.635,35.635,0,0,0-2.326,13.152l-51.507.951Z" transform="translate(-13275.224 -1091.124)" fill="#c2d168" fill-rule="evenodd"/>
          <path id="Path_61493" data-name="Path 61493" d="M13304.093,1235.014s-8.915-10.132-26.095-2.226c-2.119.975.958-.6.3-.445C13273.6,1233.424,13297.525,1221.788,13304.093,1235.014Z" transform="translate(-13275.038 -1082.801)" fill="#a0ad4b" fill-rule="evenodd"/>
          <path id="Path_61494" data-name="Path 61494" d="M13291.673,1201.011s16.859,4.795,8.351,43.349c-.1,3.282,3.431-16.626,3.431-16.626S13305.488,1204.243,13291.673,1201.011Z" transform="translate(-13271.862 -1088.879)" fill="#a0ad4b" fill-rule="evenodd"/>
          <path id="Path_61495" data-name="Path 61495" d="M13332.5,1201.132a74.955,74.955,0,0,1,13.122,38.3C13344.557,1245.371,13350.53,1217.16,13332.5,1201.132Z" transform="translate(-13262.88 -1088.853)" fill="#a0ad4b" fill-rule="evenodd"/>
          <path id="Path_61496" data-name="Path 61496" d="M13338.5,1201.255s.9,8.611-.3,8.611S13338.8,1206.695,13338.5,1201.255Z" transform="translate(-13261.717 -1088.825)" fill="#a0ad4b" fill-rule="evenodd"/>
          <path id="Path_61497" data-name="Path 61497" d="M13321.334,1193.466s8.065,3.577,7.009,9.2-6,8.2-12.526,7.275-16.293-8.885-14.614-14.4-7.408,8.151,12.527,14.7c6.49,2.131,12.691-.943,14.016-3.562,1.583-3.137,1.366-5.636,1.046-6.533C13328.249,1198.629,13325.542,1193.836,13321.334,1193.466Z" transform="translate(-13269.908 -1090.539)" fill="#a0ad4b" fill-rule="evenodd"/>
          <path id="Path_61498" data-name="Path 61498" d="M13303.238,1194.8a11.957,11.957,0,0,0,6.71,8.611C13316,1206.376,13300.089,1200.736,13303.238,1194.8Z" transform="translate(-13269.41 -1090.245)" fill="#a0ad4b" fill-rule="evenodd"/>
          <path id="Path_61499" data-name="Path 61499" d="M13356.547,1192.908s-3.694,11.556-1.485,16.491S13350.133,1204.158,13356.547,1192.908Z" transform="translate(-13258.194 -1090.662)" fill="#a0ad4b" fill-rule="evenodd"/>
          <path id="Path_61500" data-name="Path 61500" d="M13390.192,1219.017a27.493,27.493,0,0,0-3.043-2.751c-.664-.4-1.761-1.1-5.666-.276-1.974.42-39.115,6.467-39.115,6.467a5.914,5.914,0,0,0-3.733,3.716c-1.043,2.862-11.193,34.536-11.193,34.536l32.758,3.578,16.448-1.375,3.316-31.784Z" transform="translate(-13263.993 -1085.668)" fill="#c13f28" fill-rule="evenodd"/>
          <path id="Path_61501" data-name="Path 61501" d="M13332.539,1257.157l9.121-26.831a6.516,6.516,0,0,1,4.979-4.541c4.289-1.132,40.914-7.706,40.914-7.706s3.17-1.278,1.105,5.917-13.406,38.526-13.406,38.526Z" transform="translate(-13262.871 -1085.143)" fill="#dc4427" fill-rule="evenodd"/>
          <path id="Path_61502" data-name="Path 61502" d="M13358.464,1234.835c-1.174-3.388-5.457-2.194-5.453,1.872,0,2.026,1.864,2.506,3.038,3.089a3.916,3.916,0,0,1,1.9,1.721,8.093,8.093,0,0,1,2.138-2.295c1.181-.915,2.932-1.773,3.217-3.678C13363.873,1231.735,13360.022,1231.484,13358.464,1234.835Z" transform="translate(-13258.368 -1081.953)" fill="#fdfdfd" fill-rule="evenodd"/>
          <path id="Path_61503" data-name="Path 61503" d="M13372.984,1221.033c1.268-.156,2.105.793,1.781,2.211a3.68,3.68,0,0,1-3.207,2.816c-1.287,0-1.881-1.155-1.439-2.506A3.834,3.834,0,0,1,13372.984,1221.033Z" transform="translate(-13254.637 -1084.478)" fill="#63364a" fill-rule="evenodd"/>
          <path id="Path_61504" data-name="Path 61504" d="M13302.669,1239.95c-.48-2.036-10.326-12.472-25.984-3.027-.861,11.2-2.01,34.887-.553,39.215s5.286,10.167,11.888,9.081c6.779-1.115,59.638-17.955,65.491-21.981,2.27-.642,5.584.236,7.486.654,2.407.528,4.389,1.285,7.6,1.926a5.1,5.1,0,0,0,3.6-1.1s6.676-1.5,7.739-2.751a34.6,34.6,0,0,0,5.806,2.063c1.273.216,3.575-.011,5.8-3.99.764-1.688-2.213-4.677-2.213-4.677a15.015,15.015,0,0,1-.551,2.063c-2.981,1.226-2.49.688-2.49.688s-3.687-2.167-6.632-3.577a14.619,14.619,0,0,1-2.9-1.649,40.39,40.39,0,0,0-4.7-4.265c-.562-.331.84-1.635,2.352-1.65,2.638-.027,5.927.9,7.6-.137,2.257-1.532,4.539-3.129,3.317-4.816-.6-.825-1.976,1.335-3.87.964-1.446-.284-3-2.034-4.56-2.34-3.6-.7-9.016-1.536-11.751-1.1s-5.242,3.5-10.366,8.394c-3.209,3.063-10.3,3.343-13.957,3.852-3.771.523-30.137-2.418-39.395,1.238C13302.2,1246.737,13302.912,1240.979,13302.669,1239.95Z" transform="translate(-13275.436 -1081.836)" fill="#faf8ea" fill-rule="evenodd"/>
          <path id="Path_61505" data-name="Path 61505" d="M13383.982,1257.959a15.775,15.775,0,0,0-2.765-2.2C13383.776,1256.352,13385.053,1259.148,13383.982,1257.959Zm-85.833-6.6s-6.076,3.372-7.363,5.824S13290.639,1251.818,13298.149,1251.354Zm77.539,9.77c-7.485,2.955-9.676,1.1-9.676,1.1,1.275,2.921,9.442-.529,10.769-1.346,5.025,2.406,9.841,1.62,6.372,1.484-4.562-.178-10.921-4.815-10.921-4.815a14.58,14.58,0,0,0,4.369,3.243c-.207.067-.508.173-.913.334Zm-9.4-15.273a.688.688,0,0,1,.261.11C13366.275,1245.913,13366.108,1245.869,13366.29,1245.85Zm7.187,0a17.823,17.823,0,0,0,4.7-.138c3.633-.965,5.373-5.03,3.6-5.366-.951-.18-1.52.864-2.072.964-1.9.337-3.463-1.015-5.67-1.926-.39-.161.42.5,1.643,1.165,1.646.9,4.041,1.81,5.269.761.354-.3.705.326.69.137.078.96-.375,3.35-4.146,3.991-1.936.331-3.9-.1-5.527,0-2.668.168-2.8.2-3.456,1.375-.01.016-.015.027-.021.039l-.808-.728s-.693-.087-1.121-.165c1.35.792,7.065,5.531,7.065,5.531l-5.135-4.635a2.913,2.913,0,0,1,1.679-1.143,20.937,20.937,0,0,1,3.316.138Z" transform="translate(-13272.156 -1080.443)" fill="#ebe7c8" fill-rule="evenodd"/>
          <path id="Path_61506" data-name="Path 61506" d="M13322.674,1211.97c-3.912,3.093-21.205-3.364-19.236-9.8,0,0,2.93-27.064,3.268-38.837,0,2.391.582,11.423,8.879,17.045a17.285,17.285,0,0,0,5.74,2.485c-.145,2.437-1.463,13.586.008,18.564C13324.324,1204.7,13326.24,1209.149,13322.674,1211.97Z" transform="translate(-13269.31 -1097.168)" fill="#faf8ea" fill-rule="evenodd"/>
          <path id="Path_61507" data-name="Path 61507" d="M13307.342,1169.739s5.043,10.66,13.124,11.728c-.3,4.795-.391,7.049-.6,9.8s.488,14.7.448,13.807c-.719-14.9-11.932-31.176-11.932-31.176S13306.759,1169.473,13307.342,1169.739Z" transform="translate(-13268.443 -1095.761)" fill="#ebe7c8" fill-rule="evenodd"/>
          <path id="Path_61508" data-name="Path 61508" d="M13344.6,1177.594c-2,12.324-19.01,14.087-20.34,13.436,0,.042.006.088.012.14a17.324,17.324,0,0,1-6.016-1.72c-8.963-4.5-10.719-13.38-11.031-15.751v-.008c-.051-.38-.062-.589-.062-.589-.273-2.495-.576-4.18-.908-4.575-2.111.323-5.092-3.673-5.752-5.988-.488-1.715-1.252-7.433,2.008-7.6,1.973,0,3.4.747,3.887,3.234.436,2.219.881-1.311.881-1.311l-.994-5.261,1.637-1.263-1.949-10.226,12.2-7.881,15.8.035.605,2.318S13345.41,1157.164,13344.6,1177.594Z" transform="translate(-13270.018 -1104.01)" fill="#faf8ea" fill-rule="evenodd"/>
          <path id="Path_61509" data-name="Path 61509" d="M13307.673,1166.408c-.021-.057-1.827-7.524-5.223-6.284-.426-1.547-2.466-10.977-2.466-10.977s-1.379-3.9.773-6.689c2.261-2.93,9.477-6.551,10.815-6.952a15.773,15.773,0,0,1-3.13-15.761c3.021-8.75,13.092-10.191,16.361-10.521,3.385-.343,16.663-.954,18.433,13.164,1.339,10.719-2.271,14.42-4.66,16.031.423,1.054,1.759,7.633.025,10.477-.99-1.736-3.585-8.965-3.585-8.965s-9.9,2.43-16.265,2.124c-5.16-.249-10.774,3.64-11.544,6-.373,1.149,2.988,5.9.938,8.263s.745,7.764.8,9.478C13308.973,1166.633,13307.673,1166.408,13307.673,1166.408Z" transform="translate(-13270.13 -1109.099)" fill="#7e4e31" fill-rule="evenodd"/>
          <path id="Path_61510" data-name="Path 61510" d="M13310.148,1132.77s15.613,3.584,13.7-7.927c-1.068-2.863-4.328-3.177-4.328-3.177s7.055.179,6.117,5.341S13320.875,1137.192,13310.148,1132.77Z" transform="translate(-13267.798 -1106.334)" fill="#463329" fill-rule="evenodd"/>
          <path id="Path_61511" data-name="Path 61511" d="M13304.869,1158.968s-.111-.247-.289-.6A2.051,2.051,0,0,1,13304.869,1158.968Zm-2.238-3.3c-.535.182,1.209,1.563,1.949,2.7-.49-.994-1.482-2.857-1.949-2.7Zm11.924-4.252-.145-2.228c.668-1.143,9.008-7.584,9.021-6.867a25.141,25.141,0,0,0,.537,2.924l-9.414,6.169Zm7.98,7.646a4.02,4.02,0,0,0-.844.855c-.105.326-.395-.7-.395-.7s1.783-1.785,2.547-1.231c0,0-.676.528-1.271,1.041.551,1.013,2.9,4.494,7.76,1.405.486.1.58.972.58.972s-6.352,3.565-8.377-2.346Zm11.2-4.76c.592.851-3.072,1.17-3.473,1.053s.031-.9.031-.9,2.576-.085,2.346-.455-2.584-2.656-2.246-7.942c0,0-.166,5.114,3.342,8.247Zm5.182-8.612c.645,1.194-.477-2.483-.477-2.483a35.993,35.993,0,0,0-6.248-1.731l-.184,3.168s6.26-.15,6.906,1.045Z" transform="translate(-13269.473 -1101.977)" fill="#7e4e31" fill-rule="evenodd"/>
          <ellipse id="Ellipse_8873" data-name="Ellipse 8873" cx="1.235" cy="1.899" rx="1.235" ry="1.899" transform="translate(49.924 48.649) rotate(-26.8)" fill="#7e4e31"/>
          <ellipse id="Ellipse_8874" data-name="Ellipse 8874" cx="1.235" cy="1.898" rx="1.235" ry="1.898" transform="translate(64.347 45.2) rotate(-17.218)" fill="#7e4e31"/>
          <path id="Path_61512" data-name="Path 61512" d="M13365.655,1214.352c-5.064.276-8.53.436-8.53.436s-1.613-15.338,2.253-23.966l3.507-.079C13362.265,1194.6,13360.97,1205.894,13365.655,1214.352Z" transform="translate(-13257.536 -1091.138)" fill="#ebe7c8" fill-rule="evenodd"/>
        </g>
      </g>
      <g id="Group_7394" data-name="Group 7394" transform="translate(260.898 267.61)">
        <ellipse id="Ellipse_8875" data-name="Ellipse 8875" cx="34.514" cy="34.359" rx="34.514" ry="34.359" fill="#e5bfce" stroke="#707070" stroke-width="0.828"/>
        <path id="Path_61513" data-name="Path 61513" d="M13415.6,1294.454l32.752,13.734a2.236,2.236,0,0,1,1.189,2.923l-9.137,21.59a2.254,2.254,0,0,1-2.936,1.191l-32.751-13.738a2.235,2.235,0,0,1-1.2-2.922l9.143-21.591A2.248,2.248,0,0,1,13415.6,1294.454Z" transform="translate(-13391.214 -1279.415)" fill="#fff" stroke="#333" stroke-linecap="round" stroke-linejoin="round" stroke-width="0.695"/>
        <path id="Path_61514" data-name="Path 61514" d="M13421.669,1304.209l4.025,5.291,4.031,5.3-6.618.823-6.623.832,2.592-6.121,2.593-6.122Z" transform="translate(-13388.324 -1277.23)" fill="#ccc" stroke="#333" stroke-linecap="round" stroke-linejoin="round" stroke-width="0.542"/>
      </g>
      <g id="Group_7395" data-name="Group 7395" transform="translate(15.258 313.085)">
        <ellipse id="Ellipse_8876" data-name="Ellipse 8876" cx="39.972" cy="39.793" rx="39.972" ry="39.793" fill="#e8d3aa" stroke="#707070" stroke-width="0.959"/>
        <path id="Path_61515" data-name="Path 61515" d="M13215.035,1375.572l-5.492-35.135a1.548,1.548,0,0,1,1.274-1.785h0l17.912-2.765,11.489,8.584,4.139,26.55Z" transform="translate(-13188.215 -1315.736)" fill="#fff" stroke="#333" stroke-linecap="round" stroke-linejoin="round" stroke-width="0.805"/>
        <path id="Path_61516" data-name="Path 61516" d="M13236.719,1344.211l-8.384,1.294a1.537,1.537,0,0,1-1.752-1.276l-1.3-8.341Z" transform="translate(-13184.746 -1315.736)" fill="#fff" stroke="#333" stroke-linecap="round" stroke-linejoin="round" stroke-width="0.796"/>
        <path id="Path_61517" data-name="Path 61517" d="M13244.2,1345.349l2.533,1.823-9.615,13.1c-1.916,2.607-4.449.759-2.533-1.821l9.615-13.073Z" transform="translate(-13182.852 -1313.655)" fill="#fff"/>
        <path id="Path_61518" data-name="Path 61518" d="M13244.2,1345.349l2.533,1.823-9.615,13.1c-1.916,2.607-4.449.759-2.533-1.821l9.615-13.073Z" transform="translate(-13182.852 -1313.655)" fill="none" stroke="#333" stroke-linecap="round" stroke-linejoin="round" stroke-width="0.614"/>
        <path id="Path_61519" data-name="Path 61519" d="M13241.687,1354.968l3.6-4.879-4.205-3.062" transform="translate(-13181.271 -1313.286)" fill="none" stroke="#333" stroke-linecap="round" stroke-linejoin="round" stroke-width="0.614"/>
        <line id="Line_1076" data-name="Line 1076" y1="1.404" x2="1.031" transform="translate(50.487 47.618)" fill="none"/>
        <line id="Line_1077" data-name="Line 1077" y1="1.404" x2="1.031" transform="translate(50.487 47.618)" fill="none" stroke="#333" stroke-linecap="round" stroke-linejoin="round" stroke-width="0.614"/>
        <ellipse id="Ellipse_8877" data-name="Ellipse 8877" cx="3.375" cy="3.36" rx="3.375" ry="3.36" transform="translate(26.314 25.99)" fill="#ccc"/>
        <line id="Line_1078" data-name="Line 1078" y1="1.306" x2="8.482" transform="translate(27.638 36.834)" fill="none" stroke="#333" stroke-linecap="round" stroke-linejoin="round" stroke-width="0.805"/>
        <line id="Line_1079" data-name="Line 1079" y1="0.674" x2="4.358" transform="translate(39.948 35.571)" fill="none" stroke="#333" stroke-linecap="round" stroke-linejoin="round" stroke-width="0.805"/>
        <line id="Line_1080" data-name="Line 1080" y1="3.28" x2="21.25" transform="translate(28.707 41.713)" fill="none" stroke="#333" stroke-linecap="round" stroke-linejoin="round" stroke-width="0.805"/>
        <line id="Line_1081" data-name="Line 1081" y1="2.867" x2="18.576" transform="translate(29.25 45.625)" fill="none" stroke="#333" stroke-linecap="round" stroke-linejoin="round" stroke-width="0.805"/>
        <line id="Line_1082" data-name="Line 1082" y1="1.142" x2="7.372" transform="translate(29.647 51.494)" fill="none" stroke="#333" stroke-linecap="round" stroke-linejoin="round" stroke-width="0.805"/>
        <path id="Path_61520" data-name="Path 61520" d="M13224.406,1361.547l8.665-1.337,1.29-.2" transform="translate(-13184.94 -1310.43)" fill="#fff" stroke="#333" stroke-linecap="round" stroke-linejoin="round" stroke-width="0.805"/>
      </g>
      <g id="Group_7397" data-name="Group 7397" transform="translate(259.035 53.192)">
        <g id="Group_7396" data-name="Group 7396">
          <ellipse id="Ellipse_8878" data-name="Ellipse 8878" cx="25.643" cy="25.527" rx="25.643" ry="25.527" fill="#fff"/>
          <ellipse id="Ellipse_8879" data-name="Ellipse 8879" cx="25.445" cy="25.331" rx="25.445" ry="25.331" transform="translate(0.198 0.196)" fill="none" stroke="#707070" stroke-width="0.323"/>
        </g>
      </g>
      <g id="Group_7398" data-name="Group 7398" transform="translate(258.855 51.952)">
        <ellipse id="Ellipse_8880" data-name="Ellipse 8880" cx="26.898" cy="26.777" rx="26.898" ry="26.777" fill="#f3e393" stroke="#707070" stroke-width="0.645"/>
        <path id="Path_61521" data-name="Path 61521" d="M13401.449,1130.371v6.338a3.617,3.617,0,0,0,3.625,3.61h5.855l4.93,3.083-1.538-3.083h.2a3.619,3.619,0,0,0,3.626-3.61h0v-6.338a3.617,3.617,0,0,0-3.623-3.612h-9.449a3.616,3.616,0,0,0-3.629,3.606v.006Z" transform="translate(-13389.589 -1100.61)" fill="#ccc" stroke="#333" stroke-linecap="round" stroke-linejoin="round" stroke-width="0.545" fill-rule="evenodd"/>
        <path id="Path_61522" data-name="Path 61522" d="M13401.449,1119.3v3.63a2.069,2.069,0,0,0,2.074,2.065h3.352l2.824,1.766-.883-1.766h.119a2.074,2.074,0,0,0,2.078-2.065v-3.63a2.075,2.075,0,0,0-2.078-2.065h-5.408a2.07,2.07,0,0,0-2.078,2.062v0Z" transform="translate(-13389.59 -1102.705)" fill="#ccc" stroke="#333" stroke-linecap="round" stroke-linejoin="round" stroke-width="0.545" fill-rule="evenodd"/>
        <path id="Path_61523" data-name="Path 61523" d="M13432.157,1124.038v8.222a4.694,4.694,0,0,1-4.706,4.685h-7.592l-6.4,4.01,2-4h-.262a4.7,4.7,0,0,1-4.71-4.681v-8.237a4.7,4.7,0,0,1,4.706-4.686h12.262A4.7,4.7,0,0,1,13432.157,1124.038Z" transform="translate(-13387.602 -1102.239)" fill="#fff" stroke="#333" stroke-linecap="round" stroke-linejoin="round" stroke-width="0.542" fill-rule="evenodd"/>
      </g>
    </g>
  </g>
</svg>
