<svg xmlns="http://www.w3.org/2000/svg" xmlns:xlink="http://www.w3.org/1999/xlink" width="127.315" height="122.36" viewBox="0 0 127.315 122.36">
  <defs>
    <linearGradient id="linear-gradient" y1="0.5" x2="1" y2="0.5" gradientUnits="objectBoundingBox">
      <stop offset="0" stop-color="#69c373"/>
      <stop offset="1" stop-color="#205026"/>
    </linearGradient>
    <linearGradient id="linear-gradient-18" x1="0" y1="0.5" x2="1" y2="0.5" xlink:href="#linear-gradient"/>
    <linearGradient id="linear-gradient-23" x1="7.132" y1="-1.837" x2="-2.468" y2="1.463" xlink:href="#linear-gradient"/>
    <linearGradient id="linear-gradient-24" x1="4.821" y1="-1.353" x2="-2.655" y2="1.853" xlink:href="#linear-gradient"/>
    <linearGradient id="linear-gradient-25" x1="3.857" y1="-0.939" x2="-3.619" y2="2.266" xlink:href="#linear-gradient"/>
    <linearGradient id="linear-gradient-26" x1="3.363" y1="-0.568" x2="-5.486" y2="2.732" xlink:href="#linear-gradient"/>
  </defs>
  <g id="Group_7696" data-name="Group 7696" transform="translate(-3447.936 -316.085)">
    <g id="Group_7675" data-name="Group 7675">
      <g id="Group_7674" data-name="Group 7674">
        <g id="Group_7672" data-name="Group 7672">
          <path id="Path_62079" data-name="Path 62079" d="M3564.7,412.788H3458.488a9.687,9.687,0,0,1-9.676-9.676V326.637a9.687,9.687,0,0,1,9.676-9.676H3564.7a9.687,9.687,0,0,1,9.676,9.676v76.475A9.687,9.687,0,0,1,3564.7,412.788Zm-106.212-93.177a7.034,7.034,0,0,0-7.026,7.026v76.475a7.034,7.034,0,0,0,7.026,7.026H3564.7a7.034,7.034,0,0,0,7.026-7.026V326.637a7.034,7.034,0,0,0-7.026-7.026Z" fill="url(#linear-gradient)"/>
          <path id="Path_62080" data-name="Path 62080" d="M3564.7,413.289H3458.488a10.189,10.189,0,0,1-10.177-10.177V326.637a10.189,10.189,0,0,1,10.177-10.177H3564.7a10.189,10.189,0,0,1,10.177,10.177v76.475A10.189,10.189,0,0,1,3564.7,413.289ZM3458.488,317.46a9.188,9.188,0,0,0-9.177,9.177v76.475a9.188,9.188,0,0,0,9.177,9.177H3564.7a9.187,9.187,0,0,0,9.177-9.177V326.637a9.187,9.187,0,0,0-9.177-9.177ZM3564.7,410.638H3458.488a7.534,7.534,0,0,1-7.526-7.526V326.637a7.534,7.534,0,0,1,7.526-7.526H3564.7a7.535,7.535,0,0,1,7.528,7.526v76.475A7.535,7.535,0,0,1,3564.7,410.638Zm-106.211-90.527a6.534,6.534,0,0,0-6.526,6.526v76.475a6.534,6.534,0,0,0,6.526,6.526H3564.7a6.534,6.534,0,0,0,6.528-6.526V326.637a6.534,6.534,0,0,0-6.528-6.526Z" fill="url(#linear-gradient)"/>
        </g>
        <g id="Group_7673" data-name="Group 7673">
          <path id="Path_62081" data-name="Path 62081" d="M3564.7,413.164H3458.488a10.063,10.063,0,0,1-10.052-10.052V326.637a10.063,10.063,0,0,1,10.052-10.052H3564.7a10.063,10.063,0,0,1,10.052,10.052v76.475A10.063,10.063,0,0,1,3564.7,413.164Zm-106.211-95.829a9.313,9.313,0,0,0-9.3,9.3v76.475a9.313,9.313,0,0,0,9.3,9.3H3564.7a9.313,9.313,0,0,0,9.3-9.3V326.637a9.313,9.313,0,0,0-9.3-9.3ZM3564.7,410.513H3458.488a7.409,7.409,0,0,1-7.4-7.4V326.637a7.409,7.409,0,0,1,7.4-7.4H3564.7a7.41,7.41,0,0,1,7.4,7.4v76.475A7.41,7.41,0,0,1,3564.7,410.513Zm-106.211-90.527a6.658,6.658,0,0,0-6.651,6.651v76.475a6.658,6.658,0,0,0,6.651,6.651H3564.7a6.66,6.66,0,0,0,6.653-6.651V326.637a6.66,6.66,0,0,0-6.653-6.651Z" fill="url(#linear-gradient)"/>
          <path id="Path_62082" data-name="Path 62082" d="M3564.7,413.664H3458.488a10.564,10.564,0,0,1-10.552-10.552V326.637a10.564,10.564,0,0,1,10.552-10.552H3564.7a10.564,10.564,0,0,1,10.552,10.552v76.475A10.564,10.564,0,0,1,3564.7,413.664Zm-106.211-95.829a8.813,8.813,0,0,0-8.8,8.8v76.475a8.813,8.813,0,0,0,8.8,8.8H3564.7a8.812,8.812,0,0,0,8.8-8.8V326.637a8.812,8.812,0,0,0-8.8-8.8ZM3564.7,411.013H3458.488a7.911,7.911,0,0,1-7.9-7.9V326.637a7.911,7.911,0,0,1,7.9-7.9H3564.7a7.911,7.911,0,0,1,7.9,7.9v76.475A7.911,7.911,0,0,1,3564.7,411.013Zm-106.211-90.527a6.159,6.159,0,0,0-6.151,6.151v76.475a6.159,6.159,0,0,0,6.151,6.151H3564.7a6.159,6.159,0,0,0,6.153-6.151V326.637a6.159,6.159,0,0,0-6.153-6.151Z" fill="url(#linear-gradient)"/>
        </g>
      </g>
    </g>
    <g id="Group_7679" data-name="Group 7679">
      <g id="Group_7678" data-name="Group 7678">
        <g id="Group_7676" data-name="Group 7676">
          <path id="Path_62083" data-name="Path 62083" d="M3564.7,412.788H3458.488a9.687,9.687,0,0,1-9.676-9.676V389.818h125.564v13.294A9.687,9.687,0,0,1,3564.7,412.788Zm-113.238-20.32v10.644a7.034,7.034,0,0,0,7.026,7.026H3564.7a7.034,7.034,0,0,0,7.026-7.026V392.468Z" fill="url(#linear-gradient)"/>
          <path id="Path_62084" data-name="Path 62084" d="M3564.7,413.289H3458.488a10.189,10.189,0,0,1-10.177-10.177V389.318h126.565v13.794A10.188,10.188,0,0,1,3564.7,413.289Zm-115.389-22.971v12.794a9.188,9.188,0,0,0,9.177,9.177H3564.7a9.187,9.187,0,0,0,9.176-9.177V390.318Zm115.389,20.32H3458.488a7.534,7.534,0,0,1-7.526-7.526V391.967h121.265v11.145A7.535,7.535,0,0,1,3564.7,410.638Zm-112.738-17.671v10.145a6.534,6.534,0,0,0,6.526,6.526H3564.7a6.534,6.534,0,0,0,6.527-6.526V392.967Z" fill="url(#linear-gradient)"/>
        </g>
        <g id="Group_7677" data-name="Group 7677">
          <path id="Path_62085" data-name="Path 62085" d="M3564.7,413.164H3458.488a10.063,10.063,0,0,1-10.052-10.052V389.443h126.315v13.669A10.063,10.063,0,0,1,3564.7,413.164Zm-115.514-22.971v12.919a9.313,9.313,0,0,0,9.3,9.3H3564.7a9.312,9.312,0,0,0,9.3-9.3V390.193Zm115.514,20.32H3458.488a7.409,7.409,0,0,1-7.4-7.4v-11.02H3572.1v11.02A7.41,7.41,0,0,1,3564.7,410.513Zm-112.863-17.671v10.27a6.658,6.658,0,0,0,6.651,6.651H3564.7a6.659,6.659,0,0,0,6.652-6.651v-10.27Z" fill="url(#linear-gradient)"/>
          <path id="Path_62086" data-name="Path 62086" d="M3564.7,413.664H3458.488a10.564,10.564,0,0,1-10.552-10.552V388.943h127.315v14.169A10.564,10.564,0,0,1,3564.7,413.664Zm-115.014-22.971v12.419a8.813,8.813,0,0,0,8.8,8.8H3564.7a8.812,8.812,0,0,0,8.8-8.8V390.693Zm115.014,20.32H3458.488a7.911,7.911,0,0,1-7.9-7.9v-11.52H3572.6v11.52A7.911,7.911,0,0,1,3564.7,411.013Zm-112.363-17.671v9.77a6.159,6.159,0,0,0,6.151,6.151H3564.7a6.159,6.159,0,0,0,6.152-6.151v-9.77Z" fill="url(#linear-gradient)"/>
        </g>
      </g>
    </g>
    <g id="Group_7683" data-name="Group 7683">
      <g id="Group_7682" data-name="Group 7682">
        <g id="Group_7680" data-name="Group 7680">
          <path id="Path_62087" data-name="Path 62087" d="M3528.017,437.569h-32.846l4.39-27.431h24.066Zm-29.738-2.65h26.63l-3.541-22.131H3501.82Z" fill="url(#linear-gradient)"/>
          <path id="Path_62088" data-name="Path 62088" d="M3528.6,438.07h-34.018l4.549-28.432h24.92Zm-32.846-1h31.674l-4.231-26.432h-23.213Zm29.738-1.651h-27.8l3.7-23.13h20.4Zm-26.63-1h25.458l-3.382-21.13h-18.694Z" fill="url(#linear-gradient)"/>
        </g>
        <g id="Group_7681" data-name="Group 7681">
          <path id="Path_62089" data-name="Path 62089" d="M3528.456,437.945h-33.725l4.51-28.182h24.705Zm-32.846-.75h31.967l-4.269-26.682H3499.88Zm29.739-1.9H3497.84l3.661-22.88h20.186Zm-26.63-.75h25.751l-3.421-21.38H3502.14Z" fill="url(#linear-gradient)"/>
          <path id="Path_62090" data-name="Path 62090" d="M3529.042,438.445h-34.9l4.669-29.182h25.559ZM3496.2,436.7h30.795l-4.11-25.682h-22.574Zm29.739-.9h-28.681l3.82-23.88h21.04Zm-26.63-1.75h24.579l-3.262-20.38h-18.056Z" fill="url(#linear-gradient)"/>
        </g>
      </g>
    </g>
    <g id="Group_7687" data-name="Group 7687">
      <g id="Group_7686" data-name="Group 7686">
        <g id="Group_7684" data-name="Group 7684">
          <rect id="Rectangle_19434" data-name="Rectangle 19434" width="53.414" height="2.65" transform="translate(3484.938 434.919)" fill="url(#linear-gradient)"/>
          <path id="Path_62091" data-name="Path 62091" d="M3538.852,438.07h-54.415v-3.651h54.415Zm-53.415-1h52.415v-1.651h-52.415Z" fill="url(#linear-gradient)"/>
        </g>
        <g id="Group_7685" data-name="Group 7685">
          <path id="Path_62092" data-name="Path 62092" d="M3538.727,437.945h-54.165v-3.4h54.165Zm-53.415-.75h52.665v-1.9h-52.665Z" fill="url(#linear-gradient)"/>
          <path id="Path_62093" data-name="Path 62093" d="M3539.227,438.445h-55.165v-4.4h55.165Zm-53.415-1.75h51.665v-.9h-51.665Z" fill="url(#linear-gradient)"/>
        </g>
      </g>
    </g>
    <g id="Group_7690" data-name="Group 7690">
      <g id="Group_7689" data-name="Group 7689">
        <g id="Group_7688" data-name="Group 7688">
          <circle id="Ellipse_8865" data-name="Ellipse 8865" cx="2.974" cy="2.974" r="2.974" transform="translate(3508.62 397.586)" fill="url(#linear-gradient)"/>
          <path id="Path_62094" data-name="Path 62094" d="M3511.594,403.908a3.349,3.349,0,1,1,3.348-3.349A3.352,3.352,0,0,1,3511.594,403.908Zm0-5.948a2.6,2.6,0,1,0,2.6,2.6A2.6,2.6,0,0,0,3511.594,397.96Z" fill="url(#linear-gradient-18)"/>
        </g>
      </g>
    </g>
    <g id="Group_7694" data-name="Group 7694">
      <g id="Group_7693" data-name="Group 7693">
        <g id="Group_7691" data-name="Group 7691">
          <path id="Path_62095" data-name="Path 62095" d="M3539.383,371.651h-52.6a6.751,6.751,0,0,1-6.743-6.743V350.963a6.751,6.751,0,0,1,6.743-6.743h52.6a6.751,6.751,0,0,1,6.743,6.743v13.945A6.751,6.751,0,0,1,3539.383,371.651Zm-52.6-24.781a4.1,4.1,0,0,0-4.093,4.093v13.945a4.1,4.1,0,0,0,4.093,4.093h52.6a4.1,4.1,0,0,0,4.093-4.093V350.963a4.1,4.1,0,0,0-4.093-4.093Z" fill="url(#linear-gradient)"/>
          <path id="Path_62096" data-name="Path 62096" d="M3539.383,372.151h-52.6a7.251,7.251,0,0,1-7.243-7.242V350.963a7.251,7.251,0,0,1,7.243-7.243h52.6a7.251,7.251,0,0,1,7.243,7.243v13.946A7.251,7.251,0,0,1,3539.383,372.151Zm-52.6-27.431a6.251,6.251,0,0,0-6.243,6.243v13.946a6.25,6.25,0,0,0,6.243,6.242h52.6a6.25,6.25,0,0,0,6.243-6.242V350.963a6.251,6.251,0,0,0-6.243-6.243Zm52.6,24.781h-52.6a4.6,4.6,0,0,1-4.593-4.592V350.963a4.6,4.6,0,0,1,4.593-4.593h52.6a4.6,4.6,0,0,1,4.593,4.593v13.946A4.6,4.6,0,0,1,3539.383,369.5Zm-52.6-22.131a3.6,3.6,0,0,0-3.593,3.593v13.946a3.6,3.6,0,0,0,3.593,3.592h52.6a3.6,3.6,0,0,0,3.593-3.592V350.963a3.6,3.6,0,0,0-3.593-3.593Z" fill="url(#linear-gradient)"/>
        </g>
        <g id="Group_7692" data-name="Group 7692">
          <path id="Path_62097" data-name="Path 62097" d="M3539.383,372.026h-52.6a7.126,7.126,0,0,1-7.118-7.117V350.963a7.127,7.127,0,0,1,7.118-7.118h52.6a7.126,7.126,0,0,1,7.118,7.118v13.946A7.126,7.126,0,0,1,3539.383,372.026Zm-52.6-27.431a6.376,6.376,0,0,0-6.368,6.368v13.946a6.376,6.376,0,0,0,6.368,6.367h52.6a6.375,6.375,0,0,0,6.368-6.367V350.963a6.375,6.375,0,0,0-6.368-6.368Zm52.6,24.781h-52.6a4.472,4.472,0,0,1-4.468-4.467V350.963a4.473,4.473,0,0,1,4.468-4.468h52.6a4.473,4.473,0,0,1,4.468,4.468v13.946A4.472,4.472,0,0,1,3539.383,369.376Zm-52.6-22.131a3.722,3.722,0,0,0-3.718,3.718v13.946a3.722,3.722,0,0,0,3.718,3.717h52.6a3.722,3.722,0,0,0,3.718-3.717V350.963a3.722,3.722,0,0,0-3.718-3.718Z" fill="url(#linear-gradient)"/>
          <path id="Path_62098" data-name="Path 62098" d="M3539.383,372.526h-52.6a7.627,7.627,0,0,1-7.618-7.617V350.963a7.628,7.628,0,0,1,7.618-7.618h52.6a7.627,7.627,0,0,1,7.618,7.618v13.946A7.626,7.626,0,0,1,3539.383,372.526Zm-52.6-27.431a5.876,5.876,0,0,0-5.868,5.868v13.946a5.875,5.875,0,0,0,5.868,5.867h52.6a5.875,5.875,0,0,0,5.868-5.867V350.963a5.875,5.875,0,0,0-5.868-5.868Zm52.6,24.781h-52.6a4.973,4.973,0,0,1-4.968-4.967V350.963a4.973,4.973,0,0,1,4.968-4.968h52.6a4.973,4.973,0,0,1,4.968,4.968v13.946A4.973,4.973,0,0,1,3539.383,369.876Zm-52.6-22.131a3.222,3.222,0,0,0-3.218,3.218v13.946a3.221,3.221,0,0,0,3.218,3.217h52.6a3.221,3.221,0,0,0,3.218-3.217V350.963a3.222,3.222,0,0,0-3.218-3.218Z" fill="url(#linear-gradient)"/>
        </g>
      </g>
    </g>
    <g id="Group_7695" data-name="Group 7695">
      <path id="Path_62099" data-name="Path 62099" d="M3493.192,352.943h3.114a6,6,0,0,1,3.09.605,2.108,2.108,0,0,1,.961,1.927,2.429,2.429,0,0,1-.42,1.471,1.683,1.683,0,0,1-1.119.692v.068a2.212,2.212,0,0,1,1.372.794,2.589,2.589,0,0,1,.421,1.547,2.551,2.551,0,0,1-.989,2.136,4.281,4.281,0,0,1-2.687.766h-3.743Zm2.121,3.962h1.232a2.261,2.261,0,0,0,1.249-.266,1,1,0,0,0,.387-.883.885.885,0,0,0-.421-.825,2.7,2.7,0,0,0-1.331-.25h-1.116Zm0,1.684V361.2h1.382a2.054,2.054,0,0,0,1.294-.335,1.24,1.24,0,0,0,.418-1.027q0-1.246-1.78-1.246Z" fill="url(#linear-gradient-23)"/>
      <path id="Path_62100" data-name="Path 62100" d="M3511.691,357.932a5.424,5.424,0,0,1-1.232,3.819,5.338,5.338,0,0,1-7.063,0,5.451,5.451,0,0,1-1.232-3.833,5.378,5.378,0,0,1,1.235-3.815,4.623,4.623,0,0,1,3.542-1.318,4.558,4.558,0,0,1,3.529,1.328A5.445,5.445,0,0,1,3511.691,357.932Zm-7.3,0a4.185,4.185,0,0,0,.637,2.526,2.23,2.23,0,0,0,1.9.848q2.54,0,2.539-3.374t-2.526-3.381a2.241,2.241,0,0,0-1.909.852A4.161,4.161,0,0,0,3504.388,357.932Z" fill="url(#linear-gradient-24)"/>
      <path id="Path_62101" data-name="Path 62101" d="M3522.848,357.932a5.428,5.428,0,0,1-1.232,3.819,5.34,5.34,0,0,1-7.064,0,5.451,5.451,0,0,1-1.232-3.833,5.374,5.374,0,0,1,1.236-3.815,4.622,4.622,0,0,1,3.542-1.318,4.554,4.554,0,0,1,3.528,1.328A5.441,5.441,0,0,1,3522.848,357.932Zm-7.3,0a4.186,4.186,0,0,0,.636,2.526,2.23,2.23,0,0,0,1.9.848q2.54,0,2.54-3.374t-2.526-3.381a2.243,2.243,0,0,0-1.91.852A4.162,4.162,0,0,0,3515.545,357.932Z" fill="url(#linear-gradient-25)"/>
      <path id="Path_62102" data-name="Path 62102" d="M3532.971,362.949h-2.409l-2.622-4.216-.9.643v3.573h-2.122V352.943h2.122v4.579l.835-1.178,2.71-3.4h2.354l-3.49,4.428Z" fill="url(#linear-gradient-26)"/>
    </g>
  </g>
</svg>
