<svg xmlns="http://www.w3.org/2000/svg" xmlns:xlink="http://www.w3.org/1999/xlink" width="132.482" height="129.282" viewBox="0 0 132.482 129.282">
  <defs>
    <linearGradient id="linear-gradient" x1="2.243" y1="-0.562" x2="-0.684" y2="1.432" gradientUnits="objectBoundingBox">
      <stop offset="0" stop-color="#d8805a"/>
      <stop offset="1" stop-color="#7b4129"/>
    </linearGradient>
    <linearGradient id="linear-gradient-2" x1="1.824" y1="-0.5" x2="-2.405" y2="2.694" xlink:href="#linear-gradient"/>
    <linearGradient id="linear-gradient-3" x1="1.632" y1="-1.079" x2="-0.684" y2="2.199" xlink:href="#linear-gradient"/>
    <linearGradient id="linear-gradient-4" x1="2.012" y1="-1.012" x2="-1.421" y2="2.421" xlink:href="#linear-gradient"/>
    <linearGradient id="linear-gradient-5" x1="0" y1="0.5" x2="1" y2="0.5" xlink:href="#linear-gradient"/>
  </defs>
  <g id="Group_7703" data-name="Group 7703" transform="translate(-27.039 -24.5)">
    <g id="Path_1696" data-name="Path 1696" transform="translate(27.039 48.843)">
      <path id="Path_61933" data-name="Path 61933" d="M81.617,134.934h0l-52.825-.009a1.754,1.754,0,0,1-1.754-1.754v-9.4a28.134,28.134,0,0,1,43.367-23.66,1.752,1.752,0,0,1,.5,2.457,32.766,32.766,0,0,0-5.643,18.281v10.508l16.356.016a1.754,1.754,0,0,1,1.752,1.754,1.817,1.817,0,0,1-.514,1.267A1.778,1.778,0,0,1,81.617,134.934Zm-51.071-3.516,31.209.005V120.842A36.27,36.27,0,0,1,67,102.163,24.675,24.675,0,0,0,30.547,123.78Zm24.63-38.864A15.361,15.361,0,0,1,39.843,77.242V67.579A15.4,15.4,0,0,1,55.187,52.26h.006a15.363,15.363,0,0,1,15.3,15.319v9.656A15.408,15.408,0,0,1,55.176,92.554Zm.011-36.786A11.88,11.88,0,0,0,43.35,67.586v9.649a11.816,11.816,0,0,0,23.632-.006V67.579A11.849,11.849,0,0,0,55.187,55.768Z" transform="translate(-27.039 -52.26)" fill="url(#linear-gradient)"/>
    </g>
    <g id="Path_1696-2" data-name="Path 1696-2" transform="translate(78.548 24.5)">
      <path id="Path_61934" data-name="Path 61934" d="M105.28,76.123a19.554,19.554,0,0,1-19.5-19.478V43.994A19.587,19.587,0,0,1,105.268,24.5h.011a19.6,19.6,0,0,1,19.487,19.488v12.65A19.606,19.606,0,0,1,105.28,76.123Zm-.006-48.116A16.072,16.072,0,0,0,89.287,44v12.64a15.986,15.986,0,0,0,31.972-.005V43.994A16.079,16.079,0,0,0,105.273,28.008Z" transform="translate(-85.779 -24.5)" fill="url(#linear-gradient-2)"/>
    </g>
    <g id="Group_7701" data-name="Group 7701" transform="translate(61.756 81.192)">
      <path id="Path_61935" data-name="Path 61935" d="M118.129,139.458h0l-49.747-.053a1.754,1.754,0,0,1-1.752-1.754V125.384a36.258,36.258,0,0,1,6.248-20.241,36.906,36.906,0,0,1,4.43-5.351,36.142,36.142,0,0,1,25.6-10.642,36.579,36.579,0,0,1,34.853,26.25,1.754,1.754,0,0,1-1.348,2.209,20.52,20.52,0,0,0-16.533,20.1,1.753,1.753,0,0,1-1.754,1.753ZM70.137,135.9l46.3.049a24.053,24.053,0,0,1,17.392-21.327A33.072,33.072,0,0,0,102.91,92.658a32.659,32.659,0,0,0-23.124,9.615,33.539,33.539,0,0,0-4.007,4.84,32.762,32.762,0,0,0-5.642,18.279Z" transform="translate(-66.629 -89.15)" fill="url(#linear-gradient-3)"/>
    </g>
    <g id="Group_7702" data-name="Group 7702" transform="translate(111.502 105.754)">
      <path id="Path_61936" data-name="Path 61936" d="M147.369,165.188a24.014,24.014,0,0,1-4.642-47.574,23.572,23.572,0,0,1,4.642-.454,24.014,24.014,0,0,1,0,48.028Zm0-44.52a20.075,20.075,0,0,0-3.959.388,20.494,20.494,0,1,0,3.959-.388Z" transform="translate(-123.359 -117.16)" fill="url(#linear-gradient-4)"/>
    </g>
    <path id="Path_61937" data-name="Path 61937" d="M149.763,136.489a16.28,16.28,0,0,0-13.417,7.3,1.136,1.136,0,0,0,0,1.27,16.28,16.28,0,0,0,13.417,7.312h0a16.28,16.28,0,0,0,13.416-7.3,1.133,1.133,0,0,0,0-1.27,16.279,16.279,0,0,0-13.416-7.312Zm0,2.269h0a13.89,13.89,0,0,1,10.988,5.677,13.484,13.484,0,0,1-21.98-.009,13.891,13.891,0,0,1,10.988-5.668Zm0,1.135a4.538,4.538,0,1,0,4.538,4.538A4.555,4.555,0,0,0,149.765,139.892Zm0,2.269a2.269,2.269,0,1,1-2.269,2.269A2.252,2.252,0,0,1,149.765,142.162Z" transform="translate(-13.432 -13.786)" fill="url(#linear-gradient-5)"/>
  </g>
</svg>
