<svg id="Group_7175" data-name="Group 7175" xmlns="http://www.w3.org/2000/svg" xmlns:xlink="http://www.w3.org/1999/xlink" width="108.39" height="135.297" viewBox="0 0 108.39 135.297">
  <defs>
    <clipPath id="clip-path">
      <path id="Path_20600" data-name="Path 20600" d="M0,102.257v13.486a2,2,0,0,0,2,2H2l51.793-.043a2,2,0,0,0,0-4h0L4,113.74V102.259a35.88,35.88,0,0,1,66.31-19.1A2,2,0,0,0,73.7,81.03,39.881,39.881,0,0,0,0,102.257M22.432,35.381V21.517A17.576,17.576,0,0,1,39.907,4.042a2,2,0,0,0,.375-.036A17.575,17.575,0,0,1,57.368,21.467v13.91a17.468,17.468,0,1,1-34.936,0M39.9,0a1.922,1.922,0,0,0-.416.047A21.588,21.588,0,0,0,18.433,21.51V35.386a21.468,21.468,0,0,0,42.935-.005V21.461A21.586,21.586,0,0,0,39.907,0Z" fill="none"/>
    </clipPath>
    <clipPath id="clip-path-2">
      <path id="Path_20633" data-name="Path 20633" d="M74.194,117.965a2,2,0,0,0-.575-1.77l-8.483-8.271,11.729-1.714a2,2,0,0,0,1.5-1.093L83.611,94.5l5.252,10.619a2,2,0,0,0,1.5,1.092l11.729,1.714-8.483,8.271a2,2,0,0,0-.575,1.77l2,11.678-10.506-5.519a2,2,0,0,0-1.861,0l-10.478,5.513Zm9.415-29.98A2,2,0,0,0,81.817,89.1L75.247,102.4l-14.694,2.148a2,2,0,0,0-1.108,3.41l10.629,10.363-2.508,14.634a2,2,0,0,0,2.9,2.107l13.136-6.912,13.159,6.913a2,2,0,0,0,2.9-2.108l-2.509-14.634,10.629-10.363a2,2,0,0,0-1.107-3.41L91.984,102.4,85.4,89.1a2,2,0,0,0-1.794-1.113Z" fill="none"/>
    </clipPath>
  </defs>
  <g id="Group_7172" data-name="Group 7172">
    <g id="Group_7171" data-name="Group 7171" clip-path="url(#clip-path)">
      <path id="Path_20543" data-name="Path 20543" d="M57.368,5.729,55.261,4.006h2.107Z" fill="#2d9389"/>
      <path id="Path_20544" data-name="Path 20544" d="M57.368,10.845,49.007,4.006h6.254l2.107,1.723Z" fill="#2c9288"/>
      <path id="Path_20545" data-name="Path 20545" d="M57.368,15.96,42.753,4.006h6.254l8.361,6.838Z" fill="#2c9188"/>
      <path id="Path_20546" data-name="Path 20546" d="M57.368,21.076,36.5,4.006h6.254L57.368,15.96Z" fill="#2b9087"/>
      <path id="Path_20547" data-name="Path 20547" d="M57.368,26.192,30.245,4.006H36.5l20.869,17.07Z" fill="#2b8f86"/>
      <path id="Path_20548" data-name="Path 20548" d="M57.368,31.307,25.4,5.161l.945-1.155h3.9L57.368,26.191Z" fill="#2a8e85"/>
      <path id="Path_20549" data-name="Path 20549" d="M57.368,36.423,22.9,8.226,25.4,5.161,57.368,31.307Z" fill="#2a8d84"/>
      <path id="Path_20550" data-name="Path 20550" d="M57.368,41.538,22.432,12.962V8.791l.463-.566,34.473,28.2Z" fill="#298c83"/>
      <path id="Path_20551" data-name="Path 20551" d="M57.368,46.654,22.432,18.078V12.963L57.368,41.538Z" fill="#298b82"/>
      <path id="Path_20552" data-name="Path 20552" d="M57.368,48.129,55.584,50.31,22.432,23.194V18.079L57.368,46.654Z" fill="#288a81"/>
      <path id="Path_20553" data-name="Path 20553" d="M55.584,50.31l-2.077,2.539H52.434l-30-24.54V23.194Z" fill="#288980"/>
      <path id="Path_20554" data-name="Path 20554" d="M46.179,52.849,22.432,33.425V28.31l30,24.539Z" fill="#27887f"/>
      <path id="Path_20555" data-name="Path 20555" d="M39.925,52.849,22.432,38.541V33.425L46.179,52.849Z" fill="#26877e"/>
      <path id="Path_20556" data-name="Path 20556" d="M33.671,52.849,22.432,43.656V38.541L39.925,52.849Z" fill="#26867d"/>
      <path id="Path_20557" data-name="Path 20557" d="M27.417,52.849l-4.984-4.077V43.656l11.238,9.193Z" fill="#25857c"/>
      <path id="Path_20558" data-name="Path 20558" d="M22.433,48.772l4.984,4.077H22.433Z" fill="#25847b"/>
      <path id="Path_20559" data-name="Path 20559" d="M61.368,3.885,56.618,0h4.75Z" fill="#2d948a"/>
      <path id="Path_20560" data-name="Path 20560" d="M61.368,9l-11-9h6.254l4.75,3.885Z" fill="#2d9389"/>
      <path id="Path_20561" data-name="Path 20561" d="M61.368,14.117,44.11,0h6.254l11,9Z" fill="#2c9288"/>
      <path id="Path_20562" data-name="Path 20562" d="M61.368,19.232,37.856,0H44.11L61.368,14.116Z" fill="#2c9188"/>
      <path id="Path_20563" data-name="Path 20563" d="M61.368,24.348,31.6,0h6.255L61.368,19.232Z" fill="#2b9087"/>
      <path id="Path_20564" data-name="Path 20564" d="M61.368,29.463,25.347,0H31.6L61.368,24.347Z" fill="#2b8f86"/>
      <path id="Path_20565" data-name="Path 20565" d="M61.368,34.579,22,2.375,23.938,0h1.409L61.368,29.463Z" fill="#2a8e85"/>
      <path id="Path_20566" data-name="Path 20566" d="M61.368,39.695,19.489,5.439,22,2.374l39.372,32.2Z" fill="#2a8d84"/>
      <path id="Path_20567" data-name="Path 20567" d="M61.368,44.81,18.432,9.691V6.731l1.057-1.292L61.368,39.694Z" fill="#298c83"/>
      <path id="Path_20568" data-name="Path 20568" d="M61.368,49.926,18.432,14.807V9.691L61.368,44.81Z" fill="#298b82"/>
      <path id="Path_20569" data-name="Path 20569" d="M61.368,50.329l-2.309,2.823L18.432,19.922V14.807L61.368,49.926Z" fill="#288a81"/>
      <path id="Path_20570" data-name="Path 20570" d="M59.059,53.152l-2.507,3.065L18.433,25.037V19.922Z" fill="#288980"/>
      <path id="Path_20571" data-name="Path 20571" d="M56.552,56.217l-.517.632H51.07l-32.637-26.7V25.037Z" fill="#27887f"/>
      <path id="Path_20572" data-name="Path 20572" d="M44.815,56.849,18.432,35.269V30.153l32.637,26.7Z" fill="#26877e"/>
      <path id="Path_20573" data-name="Path 20573" d="M38.561,56.849,18.432,40.385V35.269l26.383,21.58Z" fill="#26867d"/>
      <path id="Path_20574" data-name="Path 20574" d="M32.307,56.849,18.432,45.5V40.385L38.561,56.849Z" fill="#25857c"/>
      <path id="Path_20575" data-name="Path 20575" d="M26.053,56.849l-7.621-6.233V45.5L32.307,56.849Z" fill="#25847b"/>
      <path id="Path_20576" data-name="Path 20576" d="M19.8,56.849l-1.366-1.118V50.616l7.62,6.233Z" fill="#24837a"/>
      <path id="Path_20577" data-name="Path 20577" d="M18.433,55.731,19.8,56.849H18.433Z" fill="#248179"/>
      <path id="Path_20578" data-name="Path 20578" d="M74.284,65.606,70.23,62.29h4.054Z" fill="#288a81"/>
      <path id="Path_20579" data-name="Path 20579" d="M74.284,70.722,63.976,62.291H70.23l4.054,3.315Z" fill="#288980"/>
      <path id="Path_20580" data-name="Path 20580" d="M74.284,75.837,57.722,62.29h6.254l10.308,8.431Z" fill="#27887f"/>
      <path id="Path_20581" data-name="Path 20581" d="M74.284,80.953,51.468,62.29h6.254L74.284,75.837Z" fill="#26877e"/>
      <path id="Path_20582" data-name="Path 20582" d="M74.284,86.068,45.214,62.29h6.254L74.284,80.952Z" fill="#26867d"/>
      <path id="Path_20583" data-name="Path 20583" d="M74.284,91.184,38.96,62.29h6.254l29.07,23.778Z" fill="#25857c"/>
      <path id="Path_20584" data-name="Path 20584" d="M74.284,96.3,32.705,62.291H38.96L74.284,91.184Z" fill="#25847b"/>
      <path id="Path_20585" data-name="Path 20585" d="M74.284,97.355l-1.99,2.432L26.451,62.29h6.254L74.284,96.3Z" fill="#24837a"/>
      <path id="Path_20586" data-name="Path 20586" d="M72.295,99.788l-2.507,3.065L20.2,62.29h6.254Z" fill="#248179"/>
      <path id="Path_20587" data-name="Path 20587" d="M69.788,102.853l-2.507,3.065L13.944,62.29H20.2Z" fill="#238078"/>
      <path id="Path_20588" data-name="Path 20588" d="M67.281,105.918l-2.507,3.065L10.363,64.477l1.788-2.187h1.793Z" fill="#237f77"/>
      <rect id="Rectangle_18820" data-name="Rectangle 18820" width="3.96" height="70.295" transform="translate(7.855 67.542) rotate(-50.719)" fill="#227e76"/>
      <rect id="Rectangle_18821" data-name="Rectangle 18821" width="3.96" height="70.295" transform="translate(5.348 70.607) rotate(-50.719)" fill="#227d75"/>
      <path id="Path_20589" data-name="Path 20589" d="M59.76,115.113l-2.151,2.63h-.888L2.842,73.672l2.507-3.065Z" fill="#217c74"/>
      <path id="Path_20590" data-name="Path 20590" d="M50.466,117.742.334,76.736l2.507-3.065L56.72,117.742Z" fill="#207b73"/>
      <path id="Path_20591" data-name="Path 20591" d="M44.212,117.742,0,81.578V77.145l.334-.409,50.132,41.006Z" fill="#207a72"/>
      <path id="Path_20592" data-name="Path 20592" d="M37.958,117.742,0,86.694V81.578l44.212,36.164Z" fill="#1f7971"/>
      <path id="Path_20593" data-name="Path 20593" d="M31.7,117.742,0,91.81V86.694l37.958,31.048Z" fill="#1f7870"/>
      <path id="Path_20594" data-name="Path 20594" d="M25.45,117.742,0,96.925V91.81l31.7,25.932Z" fill="#1e776f"/>
      <path id="Path_20595" data-name="Path 20595" d="M19.2,117.742,0,102.041V96.925l25.45,20.817Z" fill="#1e766e"/>
      <path id="Path_20596" data-name="Path 20596" d="M12.942,117.742,0,107.156v-5.115l19.2,15.7Z" fill="#1d756d"/>
      <path id="Path_20597" data-name="Path 20597" d="M6.688,117.742,0,112.272v-5.116l12.941,10.586Z" fill="#1d746c"/>
      <path id="Path_20598" data-name="Path 20598" d="M.433,117.742,0,117.388v-5.116l6.687,5.47Z" fill="#1c736b"/>
      <path id="Path_20599" data-name="Path 20599" d="M0,117.388l.433.354H0Z" fill="#1c726b"/>
    </g>
  </g>
  <path id="Path_20601" data-name="Path 20601" d="M83.61,89.984l7.046,14.248,15.733,2.3-11.381,11.1L97.7,133.3,83.6,125.9l-14.067,7.4,2.687-15.67-11.381-11.1,15.733-2.3Z" fill="#e6ffe9"/>
  <g id="Group_7174" data-name="Group 7174">
    <g id="Group_7173" data-name="Group 7173" clip-path="url(#clip-path-2)">
      <path id="Path_20602" data-name="Path 20602" d="M76.575,104.232h0Z" fill="#248179"/>
      <path id="Path_20603" data-name="Path 20603" d="M102.1,98.586l-5-4.087h5Z" fill="#27887f"/>
      <path id="Path_20604" data-name="Path 20604" d="M102.1,103.7l-11.25-9.2H97.1l5,4.086Z" fill="#26877e"/>
      <path id="Path_20605" data-name="Path 20605" d="M102.1,108.817,84.592,94.5h6.254l11.25,9.2Z" fill="#26867d"/>
      <path id="Path_20606" data-name="Path 20606" d="M102.1,113.933,78.337,94.5h6.255l17.5,14.317Z" fill="#25857c"/>
      <path id="Path_20607" data-name="Path 20607" d="M102.1,119.048,72.952,95.209l.581-.71h4.8L102.1,113.932Z" fill="#25847b"/>
      <path id="Path_20608" data-name="Path 20608" d="M102.1,124.164,70.445,98.275l2.507-3.065L102.1,119.048Z" fill="#24837a"/>
      <path id="Path_20609" data-name="Path 20609" d="M102.1,124.174l-2.5,3.059L67.938,101.339l2.507-3.065L102.1,124.163Z" fill="#248179"/>
      <path id="Path_20610" data-name="Path 20610" d="M99.594,127.233l-1.971,2.41H96.286L65.431,104.405l2.507-3.065Z" fill="#238078"/>
      <path id="Path_20611" data-name="Path 20611" d="M90.032,129.643l-24.9-20.364v-4.514l.3-.36,30.855,25.238Z" fill="#237f77"/>
      <path id="Path_20612" data-name="Path 20612" d="M83.778,129.643,65.136,114.395v-5.116l24.9,20.364Z" fill="#227e76"/>
      <path id="Path_20613" data-name="Path 20613" d="M77.523,129.643,65.135,119.51v-5.115l18.642,15.248Z" fill="#227d75"/>
      <path id="Path_20614" data-name="Path 20614" d="M71.269,129.643l-6.134-5.017V119.51l12.388,10.133Z" fill="#217c74"/>
      <path id="Path_20615" data-name="Path 20615" d="M65.136,124.626l6.134,5.017H65.136Z" fill="#207b73"/>
      <path id="Path_20616" data-name="Path 20616" d="M108.527,88.5l-.63-.515h.63Z" fill="#298b82"/>
      <path id="Path_20617" data-name="Path 20617" d="M108.527,93.615l-6.884-5.631H107.9l.63.515Z" fill="#288a81"/>
      <path id="Path_20618" data-name="Path 20618" d="M108.527,98.731,95.389,87.984h6.254l6.884,5.631Z" fill="#288980"/>
      <path id="Path_20619" data-name="Path 20619" d="M108.527,103.847,89.135,87.985h6.254l13.138,10.746Z" fill="#27887f"/>
      <path id="Path_20620" data-name="Path 20620" d="M108.527,108.962,82.881,87.984h6.254l19.392,15.862Z" fill="#26877e"/>
      <path id="Path_20621" data-name="Path 20621" d="M108.527,114.078l-31.9-26.093h6.255l25.646,20.977Z" fill="#26867d"/>
      <path id="Path_20622" data-name="Path 20622" d="M108.527,119.193,70.547,88.127l.117-.143h5.962l31.9,26.093Z" fill="#25857c"/>
      <path id="Path_20623" data-name="Path 20623" d="M108.527,124.309,68.04,91.192l2.507-3.065,37.98,31.066Z" fill="#25847b"/>
      <path id="Path_20624" data-name="Path 20624" d="M108.527,126.572l-1.4,1.709-41.6-34.024,2.507-3.065,40.487,33.117Z" fill="#24837a"/>
      <rect id="Rectangle_18822" data-name="Rectangle 18822" width="3.96" height="53.739" transform="translate(63.026 97.322) rotate(-50.719)" fill="#248179"/>
      <rect id="Rectangle_18823" data-name="Rectangle 18823" width="3.96" height="53.739" transform="translate(60.519 100.387) rotate(-50.719)" fill="#238078"/>
      <path id="Path_20625" data-name="Path 20625" d="M102.116,134.411l-.826,1.01H97.1L58.7,104.018v-1.412l1.815-2.219Z" fill="#237f77"/>
      <path id="Path_20626" data-name="Path 20626" d="M90.842,135.421,58.7,109.134v-5.116l38.392,31.4Z" fill="#227e76"/>
      <path id="Path_20627" data-name="Path 20627" d="M84.588,135.421,58.7,114.249v-5.115l32.138,26.287Z" fill="#227d75"/>
      <path id="Path_20628" data-name="Path 20628" d="M78.334,135.421,58.7,119.365v-5.116l25.884,21.172Z" fill="#217c74"/>
      <path id="Path_20629" data-name="Path 20629" d="M72.08,135.421,58.7,124.48v-5.115l19.63,16.056Z" fill="#207b73"/>
      <path id="Path_20630" data-name="Path 20630" d="M65.826,135.421,58.7,129.6V124.48l13.375,10.941Z" fill="#207a72"/>
      <path id="Path_20631" data-name="Path 20631" d="M59.571,135.421l-.867-.709V129.6l7.121,5.825Z" fill="#1f7971"/>
      <path id="Path_20632" data-name="Path 20632" d="M58.7,134.712l.867.709H58.7Z" fill="#1f7870"/>
    </g>
  </g>
</svg>
