<svg xmlns="http://www.w3.org/2000/svg" xmlns:xlink="http://www.w3.org/1999/xlink" width="140.51" height="128.251" viewBox="0 0 140.51 128.251">
  <defs>
    <linearGradient id="linear-gradient" y1="0.5" x2="1" y2="0.5" gradientUnits="objectBoundingBox">
      <stop offset="0" stop-color="#9b4a69"/>
      <stop offset="1" stop-color="#f288af"/>
    </linearGradient>
    <linearGradient id="linear-gradient-5" x1="0" y1="0.5" x2="1" y2="0.5" xlink:href="#linear-gradient"/>
  </defs>
  <g id="Group_7198" data-name="Group 7198" transform="translate(-1953.388 -311.223)">
    <path id="Path_19923" data-name="Path 19923" d="M2000.916,436.43a63.638,63.638,0,1,1,77.924-76.739l-3.885.953a59.64,59.64,0,1,0-73.025,71.917Z" fill="url(#linear-gradient)"/>
    <path id="Path_19924" data-name="Path 19924" d="M2022.591,372.644a2,2,0,0,1-1.414-3.414l29.65-29.651a2,2,0,0,1,2.828,2.828l-29.65,29.651A1.992,1.992,0,0,1,2022.591,372.644Z" fill="url(#linear-gradient)"/>
    <path id="Path_19925" data-name="Path 19925" d="M2010.635,374a1.985,1.985,0,0,1-1-.268l-22.495-12.993a2,2,0,1,1,2-3.463l22.495,12.993a2,2,0,0,1-1,3.731Z" fill="url(#linear-gradient)"/>
    <path id="Path_19926" data-name="Path 19926" d="M2016.97,383.8a8.945,8.945,0,1,1,8.951-8.945A8.956,8.956,0,0,1,2016.97,383.8Zm0-13.89a4.954,4.954,0,0,0-4.51,2.913,4.9,4.9,0,0,0-.436,2.032,4.948,4.948,0,1,0,4.946-4.945Z" fill="url(#linear-gradient)"/>
    <path id="Path_19927" data-name="Path 19927" d="M2016.973,334.38a2,2,0,0,1-2-2v-4.332a2,2,0,0,1,4,0v4.332A2,2,0,0,1,2016.973,334.38Z" fill="url(#linear-gradient-5)"/>
    <path id="Path_19928" data-name="Path 19928" d="M2080.377,384.643l-19.512-24.676,33.033-3.729Zm-11.908-21.51,11.058,13.987,7.664-16.1Z" fill="url(#linear-gradient)"/>
    <path id="Path_19929" data-name="Path 19929" d="M2037.41,414.2a10.116,10.116,0,0,1-10.1-10.093V398.34a10.093,10.093,0,0,1,20.185-.005v5.771A10.124,10.124,0,0,1,2037.41,414.2Zm-.005-21.944a6.138,6.138,0,0,0-6.09,6.09v5.756a6.093,6.093,0,1,0,12.185,0v-5.758A6.114,6.114,0,0,0,2037.405,392.26Z" fill="url(#linear-gradient)"/>
    <path id="Path_19930" data-name="Path 19930" d="M2048.106,439.474h-28.444v-7.6a17.735,17.735,0,0,1,30.691-12.123l1.048,1.12-.808,1.3a16.535,16.535,0,0,0-2.487,8.7Zm-24.444-4h20.444v-4.6a20.54,20.54,0,0,1,2.286-9.4,13.605,13.605,0,0,0-8.988-3.352,13.792,13.792,0,0,0-13.742,13.754Z" fill="url(#linear-gradient)"/>
    <path id="Path_19931" data-name="Path 19931" d="M2064.679,409.8a11.576,11.576,0,0,1-11.571-11.57v-6.833a11.568,11.568,0,1,1,23.135,0v6.833A11.58,11.58,0,0,1,2064.679,409.8Zm0-25.973a7.58,7.58,0,0,0-7.571,7.57v6.833a7.568,7.568,0,1,0,15.135,0v-6.833A7.575,7.575,0,0,0,2064.679,383.825Z" fill="url(#linear-gradient)"/>
    <path id="Path_19932" data-name="Path 19932" d="M2085.233,439.474h-41.127v-8.6a20.537,20.537,0,0,1,3.088-10.811,20.754,20.754,0,0,1,2.95-3.72,20.547,20.547,0,0,1,35.089,14.524Zm-37.127-4h33.127v-4.6a16.659,16.659,0,0,0-16.572-16.565,16.488,16.488,0,0,0-11.689,4.859,16.756,16.756,0,0,0-2.38,3,16.531,16.531,0,0,0-2.486,8.7Z" fill="url(#linear-gradient)"/>
  </g>
</svg>
