<svg xmlns="http://www.w3.org/2000/svg" xmlns:xlink="http://www.w3.org/1999/xlink" width="76.545" height="126.18" viewBox="0 0 76.545 126.18">
  <defs>
    <linearGradient id="linear-gradient" y1="0.5" x2="1" y2="0.5" gradientUnits="objectBoundingBox">
      <stop offset="0" stop-color="#d7805b"/>
      <stop offset="1" stop-color="#7b4129"/>
    </linearGradient>
    <linearGradient id="linear-gradient-9" x1="0" y1="0.5" x2="1" y2="0.5" xlink:href="#linear-gradient"/>
  </defs>
  <g id="Group_7540" data-name="Group 7540" transform="translate(-1536.998 -773.968)">
    <path id="Path_61693" data-name="Path 61693" d="M1585.3,928.489a4.52,4.52,0,1,1,4.522-4.518A4.523,4.523,0,0,1,1585.3,928.489Zm0-5.957a1.437,1.437,0,1,0,1.438,1.438A1.438,1.438,0,0,0,1585.3,922.533Z" transform="translate(-10.032 -33.331)" fill="url(#linear-gradient)"/>
    <path id="Path_61694" data-name="Path 61694" d="M1612,887.431h-73.448a1.542,1.542,0,0,1-1.542-1.542V792.6a1.542,1.542,0,0,1,1.542-1.542h72a1.543,1.543,0,0,1,1.391-.97,1.526,1.526,0,0,1,1.581,1.457c.011.193.016.391.016.583v93.765A1.542,1.542,0,0,1,1612,887.431Zm-71.906-3.084h70.365v-90.21H1540.1Z" transform="translate(-0.004 -3.692)" fill="url(#linear-gradient)"/>
    <path id="Path_61695" data-name="Path 61695" d="M1605.506,931.856h-60.453a8.046,8.046,0,0,1-8.039-8.035V913.9a1.541,1.541,0,0,1,1.542-1.542H1612a1.542,1.542,0,0,1,1.542,1.542v9.916A8.047,8.047,0,0,1,1605.506,931.856ZM1540.1,915.447v8.374a4.959,4.959,0,0,0,4.955,4.951h60.453a4.96,4.96,0,0,0,4.957-4.951v-8.374Zm35.176,11.419a4.52,4.52,0,1,1,4.522-4.518A4.523,4.523,0,0,1,1575.274,926.866Zm0-5.957a1.437,1.437,0,1,0,1.438,1.438A1.438,1.438,0,0,0,1575.274,920.909Z" transform="translate(-0.004 -31.708)" fill="url(#linear-gradient)"/>
    <path id="Path_61696" data-name="Path 61696" d="M1585.3,928.489a4.52,4.52,0,1,1,4.522-4.518A4.523,4.523,0,0,1,1585.3,928.489Zm0-5.957a1.437,1.437,0,1,0,1.438,1.438A1.438,1.438,0,0,0,1585.3,922.533Z" transform="translate(-10.032 -33.331)" fill="url(#linear-gradient)"/>
    <path id="Path_61697" data-name="Path 61697" d="M1611.987,790.446H1538.54A1.542,1.542,0,0,1,1537,788.9V782a8.047,8.047,0,0,1,8.04-8.036h60.452a8.046,8.046,0,0,1,8.039,8.036v6.9A1.541,1.541,0,0,1,1611.987,790.446Zm-71.906-3.083h70.364V782a4.959,4.959,0,0,0-4.955-4.952h-60.452a4.96,4.96,0,0,0-4.956,4.952Z" fill="url(#linear-gradient)"/>
    <path id="Path_61698" data-name="Path 61698" d="M1595.575,887.106h-32.254a10.223,10.223,0,1,1,0-20.446h32.254a10.223,10.223,0,1,1,0,20.446Zm-32.254-17.363a7.14,7.14,0,1,0,0,14.279h32.254a7.14,7.14,0,1,0,0-14.279Z" transform="translate(-3.688 -21.237)" fill="url(#linear-gradient)"/>
    <path id="Path_61699" data-name="Path 61699" d="M1585.3,928.489a4.52,4.52,0,1,1,4.522-4.518A4.523,4.523,0,0,1,1585.3,928.489Zm0-5.957a1.437,1.437,0,1,0,1.438,1.438A1.438,1.438,0,0,0,1585.3,922.533Z" transform="translate(-10.032 -33.331)" fill="url(#linear-gradient)"/>
    <path id="Path_61700" data-name="Path 61700" d="M1560,835.716a6.25,6.25,0,1,1,6.25-6.25A6.257,6.257,0,0,1,1560,835.716Zm0-9.417a3.166,3.166,0,1,0,3.167,3.167A3.17,3.17,0,0,0,1560,826.3Z" transform="translate(-3.839 -11.283)" fill="url(#linear-gradient)"/>
    <path id="Path_61701" data-name="Path 61701" d="M1608.182,833.048H1580.4a1.542,1.542,0,0,1,0-3.084h27.783a1.542,1.542,0,0,1,0,3.084Z" transform="translate(-9.59 -12.829)" fill="url(#linear-gradient-9)"/>
    <path id="Path_61702" data-name="Path 61702" d="M1560,856.314a6.25,6.25,0,1,1,6.25-6.25A6.257,6.257,0,0,1,1560,856.314Zm0-9.416a3.166,3.166,0,1,0,3.167,3.166A3.17,3.17,0,0,0,1560,846.9Z" transform="translate(-3.839 -16.002)" fill="url(#linear-gradient)"/>
    <path id="Path_61703" data-name="Path 61703" d="M1608.182,853.649H1580.4a1.542,1.542,0,0,1,0-3.084h27.783a1.542,1.542,0,0,1,0,3.084Z" transform="translate(-9.59 -17.549)" fill="url(#linear-gradient)"/>
  </g>
</svg>
