<svg xmlns="http://www.w3.org/2000/svg" xmlns:xlink="http://www.w3.org/1999/xlink" width="160.318" height="114.034" viewBox="0 0 160.318 114.034">
  <defs>
    <linearGradient id="linear-gradient" y1="0.5" x2="1" y2="0.5" gradientUnits="objectBoundingBox">
      <stop offset="0" stop-color="#1cabe0"/>
      <stop offset="1" stop-color="#107aa3"/>
    </linearGradient>
  </defs>
  <g id="Group_7227" data-name="Group 7227" transform="translate(-22.42 271.89)">
    <path id="Path_19965" data-name="Path 19965" d="M40.7-219.957H62a2.34,2.34,0,0,0,2.34-2.34,2.34,2.34,0,0,0-2.34-2.34H40.7a2.34,2.34,0,0,0-2.34,2.34A2.34,2.34,0,0,0,40.7-219.957Z" fill="url(#linear-gradient)"/>
    <path id="Path_19966" data-name="Path 19966" d="M40.7-209.183H62a2.34,2.34,0,0,0,2.34-2.339,2.34,2.34,0,0,0-2.34-2.34H40.7a2.34,2.34,0,0,0-2.34,2.34A2.34,2.34,0,0,0,40.7-209.183Z" fill="url(#linear-gradient)"/>
    <path id="Path_19967" data-name="Path 19967" d="M166.951-255.021a2.336,2.336,0,0,0-3.308,0,2.338,2.338,0,0,0,0,3.308,48.887,48.887,0,0,1,14.417,34.791,48.881,48.881,0,0,1-14.407,34.794l-.007.006,0,0a2.381,2.381,0,0,0-.037,3.343,2.366,2.366,0,0,0,1.67.7,2.258,2.258,0,0,0,1.6-.669l.1-.091a53.526,53.526,0,0,0,15.763-38.092A53.524,53.524,0,0,0,166.951-255.021Z" fill="url(#linear-gradient)"/>
    <path id="Path_19968" data-name="Path 19968" d="M157.2-245.259a2.337,2.337,0,0,0-3.308,0,2.34,2.34,0,0,0,0,3.309,35.451,35.451,0,0,1,0,50.1l3.341,3.276A40.124,40.124,0,0,0,157.2-245.259Z" fill="url(#linear-gradient)"/>
    <path id="Path_19969" data-name="Path 19969" d="M131.189-240.615V-263.1a8.835,8.835,0,0,0-8.82-8.789c-5.737,0-7.749,5.372-9.878,11.06-3.794,10.132-8.516,22.739-33.111,22.76-.014,0-.028,0-.042,0s-.032,0-.049.005H44.13a20.981,20.981,0,0,0-15.118,5.811,21.023,21.023,0,0,0-6.584,14.8,20.982,20.982,0,0,0,5.6,14.887L50.037-164.4a13.189,13.189,0,0,0,11.41,6.54,13.044,13.044,0,0,0,6.512-1.737l6.458-3.731a5.688,5.688,0,0,0,2.1-7.737L62.234-195.743H79.341c24.631,0,29.359,12.624,33.159,22.767,2.131,5.691,4.145,11.066,9.9,11.066a8.89,8.89,0,0,0,8.793-8.81v-22.01a24.668,24.668,0,0,0,19.082-23.942A24.669,24.669,0,0,0,131.189-240.615ZM32.234-228.863a16.421,16.421,0,0,1,11.835-4.527H77v32.967H58.178l-14.193,0c-.271.011-.542.009-.835,0q-.825-.022-1.634-.123a16.338,16.338,0,0,1-9.873-4.99,16.347,16.347,0,0,1-4.538-11.8A16.384,16.384,0,0,1,32.234-228.863Zm40.219,60.132a.994.994,0,0,1-.372,1.352l-.006,0-6.451,3.728a8.5,8.5,0,0,1-11.537-3.094L36.716-196.87c.03.01.062.017.092.027.126.043.254.075.381.115.471.148.947.282,1.43.4.195.047.391.088.587.129q.663.138,1.339.234c.187.027.373.057.561.079.627.073,1.258.127,1.9.144.384.016.767.014,1.066,0H56.828Zm54.057-2a4.184,4.184,0,0,1-4.129,4.145c-2.267,0-3.362-2.323-5.5-8.027-3.739-9.982-9.339-24.917-35.2-25.765v-33.049c25.864-.854,31.459-15.782,35.195-25.758,2.135-5.7,3.23-8.021,5.5-8.021a4.146,4.146,0,0,1,4.141,4.117v21.865q-.393-.011-.8-.011a24.6,24.6,0,0,0-24.568,24.567A24.6,24.6,0,0,0,125.715-192.1q.4,0,.8-.012Zm2-26.246a19.008,19.008,0,0,1-2.792.2,19.911,19.911,0,0,1-19.888-19.888,19.911,19.911,0,0,1,19.888-19.888,19.113,19.113,0,0,1,2.807.2,19.957,19.957,0,0,1,17.069,19.689A19.958,19.958,0,0,1,128.507-196.981Z" fill="url(#linear-gradient)"/>
    <path id="Path_19970" data-name="Path 19970" d="M135.138-223.556l-12.9,12.9-4.9-4.9a2,2,0,0,0-2.828,0,2,2,0,0,0,0,2.828L122.237-205l15.729-15.729a2,2,0,0,0,0-2.828A2,2,0,0,0,135.138-223.556Z" fill="url(#linear-gradient)"/>
  </g>
</svg>
