<svg xmlns="http://www.w3.org/2000/svg" xmlns:xlink="http://www.w3.org/1999/xlink" width="128.044" height="125.823" viewBox="0 0 128.044 125.823">
  <defs>
    <linearGradient id="linear-gradient" x1="1.012" y1="-0.738" x2="0.123" y2="1.413" gradientUnits="objectBoundingBox">
      <stop offset="0" stop-color="#d8805a"/>
      <stop offset="1" stop-color="#7b4129"/>
    </linearGradient>
    <linearGradient id="linear-gradient-2" x1="0.845" y1="-4.045" x2="0.036" y2="6.618" xlink:href="#linear-gradient"/>
    <linearGradient id="linear-gradient-3" x1="1.312" y1="-1.028" x2="-0.862" y2="3.546" xlink:href="#linear-gradient"/>
    <linearGradient id="linear-gradient-4" x1="1.117" y1="-0.259" x2="-2.062" y2="3.651" xlink:href="#linear-gradient"/>
    <linearGradient id="linear-gradient-5" x1="1.417" y1="-1.225" x2="-2.443" y2="7.041" xlink:href="#linear-gradient"/>
    <linearGradient id="linear-gradient-6" x1="1.709" y1="-4.578" x2="-5.88" y2="27.294" xlink:href="#linear-gradient"/>
    <linearGradient id="linear-gradient-7" x1="5.061" y1="-1.489" x2="-20.85" y2="9.812" xlink:href="#linear-gradient"/>
  </defs>
  <g id="Group_7407" data-name="Group 7407" transform="translate(-33.213 -41.118)">
    <g id="Group_7400" data-name="Group 7400">
      <path id="Path_61457" data-name="Path 61457" d="M153.544,166.941H40.926a2,2,0,0,1-2-2v-55.29a2,2,0,0,1,2-2H153.544a2,2,0,0,1,2,2v55.29A2,2,0,0,1,153.544,166.941Zm-110.618-4H151.544v-51.29H42.926Z" fill="url(#linear-gradient)"/>
    </g>
    <g id="Group_7401" data-name="Group 7401">
      <path id="Path_61458" data-name="Path 61458" d="M159.257,111.651H35.213a2,2,0,0,1-2-2v-7.956a2,2,0,0,1,2-2H159.257a2,2,0,0,1,2,2v7.956A2,2,0,0,1,159.257,111.651Zm-122.044-4H157.257v-3.956H37.213Z" fill="url(#linear-gradient-2)"/>
    </g>
    <path id="Path_61459" data-name="Path 61459" d="M119.406,93.4v8.3H75.746V93.4a15.569,15.569,0,0,1,15.57-15.57h2.1l2.153,3.737,2.776,4.8,2.776-4.8,2.154-3.737h.56A15.57,15.57,0,0,1,119.406,93.4Z" fill="#fff3dc"/>
    <circle id="Ellipse_8883" data-name="Ellipse 8883" cx="14.304" cy="14.304" r="14.304" transform="translate(84.041 43.118)" fill="#fff3dc"/>
    <g id="Group_7402" data-name="Group 7402">
      <path id="Path_61460" data-name="Path 61460" d="M119.406,103.7H75.746a2,2,0,0,1-2-2V93.4a17.589,17.589,0,0,1,17.57-17.57h2.1a2,2,0,0,1,1.733,1l3.2,5.542,3.195-5.542a2,2,0,0,1,1.733-1h.561A17.59,17.59,0,0,1,121.406,93.4v8.3A2,2,0,0,1,119.406,103.7Zm-41.66-4h39.66V93.4a13.587,13.587,0,0,0-12.983-13.558l-4.346,7.53a2,2,0,0,1-3.463,0L92.26,79.826h-.944A13.585,13.585,0,0,0,77.746,93.4Z" fill="url(#linear-gradient-3)"/>
    </g>
    <g id="Group_7403" data-name="Group 7403">
      <path id="Path_61461" data-name="Path 61461" d="M98.346,73.726a16.3,16.3,0,1,1,16.3-16.3A16.323,16.323,0,0,1,98.346,73.726Zm0-28.608a12.3,12.3,0,1,0,12.3,12.3A12.319,12.319,0,0,0,98.346,45.118Z" fill="url(#linear-gradient-4)"/>
    </g>
    <g id="Group_7404" data-name="Group 7404">
      <path id="Path_61462" data-name="Path 61462" d="M150.414,103.7h-22.85a2,2,0,0,1-2-2,13.425,13.425,0,0,1,26.85,0A2,2,0,0,1,150.414,103.7Zm-20.636-4H148.2a9.426,9.426,0,0,0-18.422,0Z" fill="url(#linear-gradient-5)"/>
    </g>
    <g id="Group_7405" data-name="Group 7405">
      <path id="Path_61463" data-name="Path 61463" d="M143.683,84.993h-9.657a2,2,0,0,1,0-4h9.657a2,2,0,0,1,0,4Z" fill="url(#linear-gradient-6)"/>
    </g>
    <g id="Group_7406" data-name="Group 7406">
      <path id="Path_61464" data-name="Path 61464" d="M138.989,92.274a2,2,0,0,1-2-2V82.993a2,2,0,0,1,4,0v7.281A2,2,0,0,1,138.989,92.274Z" fill="url(#linear-gradient-7)"/>
    </g>
  </g>
</svg>
