<svg xmlns="http://www.w3.org/2000/svg" xmlns:xlink="http://www.w3.org/1999/xlink" width="121.242" height="143.554" viewBox="0 0 121.242 143.554">
  <defs>
    <linearGradient id="linear-gradient" y1="0.5" x2="1" y2="0.5" gradientUnits="objectBoundingBox">
      <stop offset="0" stop-color="#33a096"/>
      <stop offset="1" stop-color="#16655e"/>
    </linearGradient>
  </defs>
  <g id="Group_7480" data-name="Group 7480" transform="translate(-315.83 -764.236)">
    <rect id="Rectangle_19386" data-name="Rectangle 19386" width="3.443" height="5.89" transform="translate(374.728 774.336)" fill="url(#linear-gradient)"/>
    <rect id="Rectangle_19387" data-name="Rectangle 19387" width="3.443" height="5.877" transform="translate(374.728 805.874)" fill="url(#linear-gradient)"/>
    <path id="Path_61620" data-name="Path 61620" d="M381.609,821.865a28.814,28.814,0,0,1-.012-57.628h.013a28.814,28.814,0,0,1,.013,57.628Zm-.011-55.907v1.721a25.371,25.371,0,0,0,.01,50.743h.012a25.371,25.371,0,0,0-.011-50.743H381.6Z" transform="translate(-5.148)" fill="url(#linear-gradient)"/>
    <path id="Path_61621" data-name="Path 61621" d="M385.512,809.115a19.219,19.219,0,0,1-2.091-.116,40.744,40.744,0,0,1-8.05-2.106l1.208-3.224a37.28,37.28,0,0,0,7.295,1.919c3.7.4,6.726-.483,8.009-2.374a2.772,2.772,0,0,0,.194-2.968c-1-1.888-3.847-3.016-7.615-3.016H384.4c-5.213,0-9.135-1.755-10.762-4.82a6.212,6.212,0,0,1,.4-6.5c2.051-3.016,6.326-4.481,11.449-3.9a40.349,40.349,0,0,1,8.029,2.133l-1.224,3.218a36.81,36.81,0,0,0-7.268-1.941c-4.423-.495-7.117.93-8.138,2.428a2.755,2.755,0,0,0-.212,2.95c1,1.875,3.882,2.992,7.725,2.992h.05c5.145,0,9.028,1.766,10.661,4.846a6.233,6.233,0,0,1-.386,6.513C393,807.693,389.641,809.115,385.512,809.115Z" transform="translate(-7.95 -2.458)" fill="url(#linear-gradient)"/>
    <rect id="Rectangle_19388" data-name="Rectangle 19388" width="3.443" height="5.194" transform="translate(374.728 775.657)" fill="url(#linear-gradient)"/>
    <rect id="Rectangle_19389" data-name="Rectangle 19389" width="3.443" height="5.181" transform="translate(374.728 804.951)" fill="url(#linear-gradient)"/>
    <path id="Path_61622" data-name="Path 61622" d="M342.2,882.761a13.5,13.5,0,0,1-13.464-13.443v-8.424a13.547,13.547,0,0,1,13.452-13.334h.009A13.505,13.505,0,0,1,355.638,861v8.421A13.576,13.576,0,0,1,342.2,882.761ZM342.188,851a10.084,10.084,0,0,0-10.013,9.914v8.395A10.06,10.06,0,0,0,342.2,879.318a10.109,10.109,0,0,0,10-9.925V861A10.055,10.055,0,0,0,342.188,851Z" transform="translate(-1.797 -11.605)" fill="url(#linear-gradient)"/>
    <path id="Path_61623" data-name="Path 61623" d="M364.956,925.449H315.83v-9.856a24.564,24.564,0,0,1,43.951-15.08,24.33,24.33,0,0,1,5.175,15.08Zm-45.683-3.443h42.24v-6.413A21.119,21.119,0,0,0,340.4,894.475a21.143,21.143,0,0,0-21.123,21.109Z" transform="translate(0 -17.659)" fill="url(#linear-gradient)"/>
    <path id="Path_61624" data-name="Path 61624" d="M448.741,925.449H399.615v-9.856a24.565,24.565,0,0,1,24.561-24.561,24.587,24.587,0,0,1,24.565,24.561Zm-45.683-3.443H445.3v-6.413a21.12,21.12,0,0,0-37.79-12.965,20.877,20.877,0,0,0-4.45,12.955Z" transform="translate(-11.669 -17.659)" fill="url(#linear-gradient)"/>
    <path id="Path_61625" data-name="Path 61625" d="M425.981,882.868a13.5,13.5,0,0,1-13.458-13.444V861a13.451,13.451,0,0,1,26.9-.005v8.421A13.539,13.539,0,0,1,425.981,882.868ZM425.969,851a10.055,10.055,0,0,0-10,10v8.411a10.008,10.008,0,1,0,20.015-.007V861A10.057,10.057,0,0,0,425.969,851Z" transform="translate(-13.466 -11.605)" fill="url(#linear-gradient)"/>
    <path id="Path_61626" data-name="Path 61626" d="M397.928,919.395H368.052v-9.856a20.914,20.914,0,0,0-4.449-12.965l-.823-1.057.823-1.058a24.409,24.409,0,0,1,19.385-9.481H383a24.4,24.4,0,0,1,19.38,9.481l.824,1.059-.825,1.057a20.877,20.877,0,0,0-4.449,12.954Zm-26.433-3.443h22.99v-6.413a24.278,24.278,0,0,1,4.353-13.961A20.969,20.969,0,0,0,383,888.421h-.009a20.969,20.969,0,0,0-15.844,7.158,24.31,24.31,0,0,1,4.351,13.96ZM383,882.868a13.5,13.5,0,0,1-13.458-13.446V861a13.507,13.507,0,0,1,13.446-13.441h.009A13.506,13.506,0,0,1,396.439,861v8.421A13.539,13.539,0,0,1,383,882.868ZM382.988,851a10.056,10.056,0,0,0-10.008,10v8.411A10.054,10.054,0,0,0,383,879.425a10.083,10.083,0,0,0,10-10.015V861A10.056,10.056,0,0,0,382.988,851Z" transform="translate(-6.539 -11.605)" fill="url(#linear-gradient)"/>
  </g>
</svg>
