<svg xmlns="http://www.w3.org/2000/svg" xmlns:xlink="http://www.w3.org/1999/xlink" width="108.946" height="133.542" viewBox="0 0 108.946 133.542">
  <defs>
    <linearGradient id="linear-gradient" x1="1.165" y1="1.068" x2="-0.056" y2="0.026" gradientUnits="objectBoundingBox">
      <stop offset="0" stop-color="#1cabe0"/>
      <stop offset="1" stop-color="#107aa3"/>
    </linearGradient>
    <linearGradient id="linear-gradient-2" x1="1.206" y1="13.706" x2="-0.592" y2="-19.935" xlink:href="#linear-gradient"/>
    <linearGradient id="linear-gradient-3" x1="5.604" y1="3.628" x2="-4.181" y2="-2.369" xlink:href="#linear-gradient"/>
    <linearGradient id="linear-gradient-4" x1="5.328" y1="2.207" x2="-4.456" y2="-1.252" xlink:href="#linear-gradient"/>
    <linearGradient id="linear-gradient-5" x1="4.443" y1="2.74" x2="-5.342" y2="-2.82" xlink:href="#linear-gradient"/>
    <linearGradient id="linear-gradient-6" x1="3.995" y1="2.009" x2="-5.791" y2="-2.216" xlink:href="#linear-gradient"/>
    <linearGradient id="linear-gradient-7" x1="1.574" y1="3.013" x2="-0.386" y2="-1.355" xlink:href="#linear-gradient"/>
    <linearGradient id="linear-gradient-8" x1="7.603" y1="21.476" x2="-3.79" y2="-12.168" xlink:href="#linear-gradient"/>
    <linearGradient id="linear-gradient-9" x1="18.074" y1="7.636" x2="-13.053" y2="-5.003" xlink:href="#linear-gradient"/>
    <linearGradient id="linear-gradient-10" x1="9.789" y1="17.013" x2="-9.136" y2="-16.63" xlink:href="#linear-gradient"/>
    <linearGradient id="linear-gradient-11" x1="2.711" y1="26.195" x2="-0.184" y2="-7.446" xlink:href="#linear-gradient"/>
    <linearGradient id="linear-gradient-12" x1="4.376" y1="21.742" x2="-1.762" y2="-11.899" xlink:href="#linear-gradient"/>
    <linearGradient id="linear-gradient-13" x1="4.424" y1="26.144" x2="-0.724" y2="-7.497" xlink:href="#linear-gradient"/>
    <linearGradient id="linear-gradient-14" x1="3.278" y1="22.362" x2="-0.997" y2="-11.279" xlink:href="#linear-gradient"/>
    <linearGradient id="linear-gradient-15" x1="0.829" y1="0.856" x2="-1.881" y2="-2.073" xlink:href="#linear-gradient"/>
    <linearGradient id="linear-gradient-16" x1="1.165" y1="1.237" x2="-3.892" y2="-5.792" xlink:href="#linear-gradient"/>
  </defs>
  <g id="Group_8020" data-name="Group 8020" transform="translate(-55.161 -26.43)">
    <g id="Group_8004" data-name="Group 8004" transform="translate(55.161 26.43)">
      <path id="Path_62968" data-name="Path 62968" d="M126.7,142.022H55.161V26.43h91.327v96.2l-1.953-.177c-.331-.03-.663-.038-1-.038A17,17,0,0,0,126.55,139.4c0,.238.007.476.023.714ZM58.742,138.44H122.99a20.594,20.594,0,0,1,19.917-19.6V30.011H58.742Z" transform="translate(-55.161 -26.43)" fill="url(#linear-gradient)"/>
    </g>
    <g id="Group_8005" data-name="Group 8005" transform="translate(69.755 116.562)">
      <path id="Path_62969" data-name="Path 62969" d="M131.7,130.676H73.251a1.791,1.791,0,1,1,0-3.581H131.7a1.791,1.791,0,1,1,0,3.581Z" transform="translate(-71.46 -127.095)" fill="url(#linear-gradient-2)"/>
    </g>
    <g id="Group_8006" data-name="Group 8006" transform="translate(72.928 99.94)">
      <path id="Path_62970" data-name="Path 62970" d="M84.608,128.62H76.795A1.791,1.791,0,0,1,75,126.83V110.321a1.791,1.791,0,0,1,1.791-1.791h7.813a1.791,1.791,0,0,1,1.791,1.791V126.83A1.791,1.791,0,0,1,84.608,128.62Zm-6.022-3.581h4.232V112.111H78.585Z" transform="translate(-75.004 -108.53)" fill="url(#linear-gradient-3)"/>
    </g>
    <g id="Group_8007" data-name="Group 8007" transform="translate(87.69 85.196)">
      <path id="Path_62971" data-name="Path 62971" d="M101.1,126.9H93.282a1.791,1.791,0,0,1-1.791-1.791V93.854a1.791,1.791,0,0,1,1.791-1.791H101.1a1.791,1.791,0,0,1,1.791,1.791v31.253A1.791,1.791,0,0,1,101.1,126.9Zm-6.023-3.581H99.3V95.644H95.072Z" transform="translate(-91.491 -92.063)" fill="url(#linear-gradient-4)"/>
    </g>
    <g id="Group_8008" data-name="Group 8008" transform="translate(102.453 98.36)">
      <path id="Path_62972" data-name="Path 62972" d="M117.583,128.436H109.77a1.791,1.791,0,0,1-1.791-1.791V108.557a1.791,1.791,0,0,1,1.791-1.791h7.813a1.79,1.79,0,0,1,1.791,1.791v18.088A1.791,1.791,0,0,1,117.583,128.436Zm-6.022-3.581h4.232V110.347H111.56Z" transform="translate(-107.979 -106.766)" fill="url(#linear-gradient-5)"/>
    </g>
    <g id="Group_8009" data-name="Group 8009" transform="translate(117.215 91.515)">
      <path id="Path_62973" data-name="Path 62973" d="M134.07,127.636h-7.812a1.791,1.791,0,0,1-1.791-1.791V100.912a1.791,1.791,0,0,1,1.791-1.791h7.812a1.791,1.791,0,0,1,1.791,1.791v24.933A1.791,1.791,0,0,1,134.07,127.636Zm-6.021-3.581h4.231V102.7h-4.231Z" transform="translate(-124.467 -99.121)" fill="url(#linear-gradient-6)"/>
    </g>
    <g id="Group_8010" data-name="Group 8010" transform="translate(72.328 66.488)">
      <path id="Path_62974" data-name="Path 62974" d="M80.631,98.754a6.3,6.3,0,1,1,6.3-6.3A6.305,6.305,0,0,1,80.631,98.754Zm0-9.014a2.716,2.716,0,1,0,2.716,2.716A2.718,2.718,0,0,0,80.631,89.741Zm29.525,7.43a6.3,6.3,0,1,1,6.3-6.3A6.3,6.3,0,0,1,110.156,97.17Zm0-9.013a2.716,2.716,0,1,0,2.717,2.716A2.718,2.718,0,0,0,110.156,88.158Zm14.763,2.2a6.3,6.3,0,1,1,6.3-6.3A6.305,6.305,0,0,1,124.919,90.353Zm0-9.014a2.716,2.716,0,1,0,2.716,2.717A2.72,2.72,0,0,0,124.919,81.339ZM95.393,83.763a6.3,6.3,0,1,1,6.3-6.3A6.305,6.305,0,0,1,95.393,83.763Zm0-9.013a2.716,2.716,0,1,0,2.717,2.715A2.718,2.718,0,0,0,95.393,74.75Z" transform="translate(-74.334 -71.169)" fill="url(#linear-gradient-7)"/>
    </g>
    <g id="Group_8011" data-name="Group 8011" transform="translate(81.399 75.534)">
      <rect id="Rectangle_20321" data-name="Rectangle 20321" width="9.786" height="3.581" transform="translate(0 6.872) rotate(-44.604)" fill="url(#linear-gradient-8)"/>
    </g>
    <g id="Group_8012" data-name="Group 8012" transform="translate(96.246 75.147)">
      <rect id="Rectangle_20322" data-name="Rectangle 20322" width="3.582" height="9.532" transform="matrix(0.675, -0.738, 0.738, 0.675, 0, 2.642)" fill="url(#linear-gradient-9)"/>
    </g>
    <g id="Group_8013" data-name="Group 8013" transform="translate(111.804 80.086)">
      <rect id="Rectangle_20323" data-name="Rectangle 20323" width="5.892" height="3.581" transform="translate(0 2.575) rotate(-25.914)" fill="url(#linear-gradient-10)"/>
    </g>
    <g id="Group_8014" data-name="Group 8014" transform="translate(69.755 44.41)">
      <path id="Path_62975" data-name="Path 62975" d="M108.183,50.092H73.251a1.791,1.791,0,1,1,0-3.581h34.933a1.791,1.791,0,1,1,0,3.581Z" transform="translate(-71.46 -46.511)" fill="url(#linear-gradient-11)"/>
    </g>
    <g id="Group_8015" data-name="Group 8015" transform="translate(111.917 44.41)">
      <path id="Path_62976" data-name="Path 62976" d="M134.923,50.092H120.34a1.791,1.791,0,0,1,0-3.581h14.583a1.791,1.791,0,1,1,0,3.581Z" transform="translate(-118.549 -46.511)" fill="url(#linear-gradient-12)"/>
    </g>
    <g id="Group_8016" data-name="Group 8016" transform="translate(69.755 52.546)">
      <path id="Path_62977" data-name="Path 62977" d="M91.328,59.179H73.251a1.791,1.791,0,1,1,0-3.581H91.328a1.791,1.791,0,1,1,0,3.581Z" transform="translate(-71.46 -55.598)" fill="url(#linear-gradient-13)"/>
    </g>
    <g id="Group_8017" data-name="Group 8017" transform="translate(94.717 52.546)">
      <path id="Path_62978" data-name="Path 62978" d="M123.629,59.179h-22.5a1.791,1.791,0,0,1,0-3.581h22.5a1.791,1.791,0,0,1,0,3.581Z" transform="translate(-99.339 -55.598)" fill="url(#linear-gradient-14)"/>
    </g>
    <g id="Group_8018" data-name="Group 8018" transform="translate(122.968 118.833)">
      <path id="Path_62979" data-name="Path 62979" d="M151.461,170.77a20.57,20.57,0,1,1,20.569-20.57A20.593,20.593,0,0,1,151.461,170.77Zm0-37.558A16.988,16.988,0,1,0,168.449,150.2,17.007,17.007,0,0,0,151.461,133.212Z" transform="translate(-130.892 -129.631)" fill="url(#linear-gradient-15)"/>
    </g>
    <g id="Group_8019" data-name="Group 8019" transform="translate(132.919 131.432)">
      <path id="Path_62980" data-name="Path 62980" d="M149.446,160.842l-6.916-6.917a1.79,1.79,0,1,1,2.532-2.532l4.384,4.384L161,144.227a1.79,1.79,0,0,1,2.532,2.532Z" transform="translate(-142.005 -143.702)" fill="url(#linear-gradient-16)"/>
    </g>
  </g>
</svg>
