<svg xmlns="http://www.w3.org/2000/svg" xmlns:xlink="http://www.w3.org/1999/xlink" width="128.032" height="116.862" viewBox="0 0 128.032 116.862">
  <defs>
    <linearGradient id="linear-gradient" y1="0.5" x2="1" y2="0.5" gradientUnits="objectBoundingBox">
      <stop offset="0" stop-color="#9b4a69"/>
      <stop offset="1" stop-color="#f288af"/>
    </linearGradient>
    <linearGradient id="linear-gradient-5" x1="0" y1="0.5" x2="1" y2="0.5" xlink:href="#linear-gradient"/>
  </defs>
  <g id="Group_7671" data-name="Group 7671" transform="translate(-1953.388 -311.223)">
    <path id="Path_62067" data-name="Path 62067" d="M1996.7,425.311a57.987,57.987,0,1,1,71-69.924l-3.54.868a54.344,54.344,0,1,0-66.54,65.531Z" transform="translate(0 0)" fill="url(#linear-gradient)"/>
    <path id="Path_62068" data-name="Path 62068" d="M2022.413,369.656a1.822,1.822,0,0,1-1.288-3.111l27.017-27.018a1.822,1.822,0,0,1,2.577,2.577L2023.7,369.122A1.815,1.815,0,0,1,2022.413,369.656Z" transform="translate(-5.968 -2.466)" fill="url(#linear-gradient)"/>
    <path id="Path_62069" data-name="Path 62069" d="M2008.46,372.493a1.808,1.808,0,0,1-.909-.244l-20.5-11.839a1.822,1.822,0,1,1,1.823-3.155l20.5,11.839a1.822,1.822,0,0,1-.913,3.4Z" transform="translate(-2.909 -4.066)" fill="url(#linear-gradient)"/>
    <path id="Path_62070" data-name="Path 62070" d="M2016.176,382.213a8.151,8.151,0,1,1,8.156-8.151A8.16,8.16,0,0,1,2016.176,382.213Zm0-12.657a4.515,4.515,0,0,0-4.109,2.654,4.466,4.466,0,0,0-.4,1.852,4.509,4.509,0,1,0,4.507-4.506Z" transform="translate(-4.852 -4.857)" fill="url(#linear-gradient)"/>
    <path id="Path_62071" data-name="Path 62071" d="M2016.8,333.64a1.822,1.822,0,0,1-1.822-1.822V327.87a1.822,1.822,0,0,1,3.645,0v3.947A1.822,1.822,0,0,1,2016.8,333.64Z" transform="translate(-5.469 -1.317)" fill="url(#linear-gradient-5)"/>
    <path id="Path_62072" data-name="Path 62072" d="M2078.644,382.121l-17.779-22.485,30.1-3.4Zm-10.851-19.6,10.076,12.745,6.983-14.671Z" transform="translate(-9.544 -3.997)" fill="url(#linear-gradient)"/>
    <path id="Path_62073" data-name="Path 62073" d="M2036.514,411.9a9.218,9.218,0,0,1-9.2-9.2v-5.259a9.2,9.2,0,0,1,18.393,0V402.7A9.225,9.225,0,0,1,2036.514,411.9Zm0-20a5.593,5.593,0,0,0-5.549,5.549V402.7a5.552,5.552,0,1,0,11.1,0v-5.247A5.571,5.571,0,0,0,2036.509,391.9Z" transform="translate(-6.565 -6.841)" fill="url(#linear-gradient)"/>
    <path id="Path_62074" data-name="Path 62074" d="M2045.58,437.223h-25.918V430.3a16.16,16.16,0,0,1,27.966-11.046l.955,1.021-.736,1.185a15.066,15.066,0,0,0-2.266,7.931Zm-22.273-3.645h18.629v-4.193a18.714,18.714,0,0,1,2.083-8.561,12.4,12.4,0,0,0-8.19-3.054,12.567,12.567,0,0,0-12.522,12.533Z" transform="translate(-5.885 -9.138)" fill="url(#linear-gradient)"/>
    <path id="Path_62075" data-name="Path 62075" d="M2063.652,407.136a10.548,10.548,0,0,1-10.544-10.543v-6.226a10.54,10.54,0,1,1,21.081,0v6.226A10.551,10.551,0,0,1,2063.652,407.136Zm0-23.667a6.907,6.907,0,0,0-6.9,6.9v6.226a6.9,6.9,0,1,0,13.791,0v-6.226A6.9,6.9,0,0,0,2063.652,383.47Z" transform="translate(-8.855 -6.092)" fill="url(#linear-gradient)"/>
    <path id="Path_62076" data-name="Path 62076" d="M2081.581,436.884h-37.475v-7.838a18.714,18.714,0,0,1,2.814-9.851,18.914,18.914,0,0,1,2.688-3.39,18.722,18.722,0,0,1,31.973,13.234Zm-33.83-3.645h30.185v-4.191a15.18,15.18,0,0,0-15.1-15.094,15.025,15.025,0,0,0-10.651,4.427,15.276,15.276,0,0,0-2.168,2.736,15.063,15.063,0,0,0-2.265,7.929Z" transform="translate(-8.056 -8.799)" fill="url(#linear-gradient)"/>
  </g>
</svg>
