<svg xmlns="http://www.w3.org/2000/svg" xmlns:xlink="http://www.w3.org/1999/xlink" width="117.401" height="139.006" viewBox="0 0 117.401 139.006">
  <defs>
    <linearGradient id="linear-gradient" y1="0.5" x2="1" y2="0.5" gradientUnits="objectBoundingBox">
      <stop offset="0" stop-color="#33a096"/>
      <stop offset="1" stop-color="#16655e"/>
    </linearGradient>
  </defs>
  <g id="Group_8005" data-name="Group 8005" transform="translate(-315.83 -764.236)">
    <rect id="Rectangle_20331" data-name="Rectangle 20331" width="3.334" height="5.703" transform="translate(372.862 774.016)" fill="url(#linear-gradient)"/>
    <rect id="Rectangle_20332" data-name="Rectangle 20332" width="3.334" height="5.691" transform="translate(372.862 804.555)" fill="url(#linear-gradient)"/>
    <path id="Path_63056" data-name="Path 63056" d="M380.7,820.039a27.9,27.9,0,0,1-.012-55.8h.013a27.9,27.9,0,0,1,.012,55.8Zm-.011-54.136v1.667a24.567,24.567,0,0,0,.01,49.135h.012a24.567,24.567,0,0,0-.011-49.135h-.011Z" transform="translate(-6.156 0)" fill="url(#linear-gradient)"/>
    <path id="Path_63057" data-name="Path 63057" d="M385.113,808.252a18.584,18.584,0,0,1-2.024-.113,39.448,39.448,0,0,1-7.8-2.039l1.17-3.122a36.091,36.091,0,0,0,7.064,1.858c3.585.385,6.513-.468,7.755-2.3a2.684,2.684,0,0,0,.188-2.874c-.969-1.829-3.726-2.921-7.374-2.921h-.056c-5.047,0-8.846-1.7-10.421-4.667a6.015,6.015,0,0,1,.392-6.294c1.986-2.92,6.126-4.339,11.086-3.779a39.069,39.069,0,0,1,7.774,2.065l-1.185,3.116a35.639,35.639,0,0,0-7.038-1.88c-4.283-.479-6.892.9-7.88,2.351a2.668,2.668,0,0,0-.205,2.856c.964,1.815,3.759,2.9,7.48,2.9h.048c4.982,0,8.742,1.71,10.323,4.692a6.036,6.036,0,0,1-.373,6.307C392.368,806.875,389.111,808.252,385.113,808.252Z" transform="translate(-9.506 -2.939)" fill="url(#linear-gradient)"/>
    <rect id="Rectangle_20333" data-name="Rectangle 20333" width="3.334" height="5.029" transform="translate(372.862 775.295)" fill="url(#linear-gradient)"/>
    <rect id="Rectangle_20334" data-name="Rectangle 20334" width="3.334" height="5.017" transform="translate(372.862 803.661)" fill="url(#linear-gradient)"/>
    <path id="Path_63058" data-name="Path 63058" d="M341.769,881.646a13.076,13.076,0,0,1-13.037-13.017v-8.157a13.118,13.118,0,0,1,13.025-12.912h.008a13.078,13.078,0,0,1,13.02,13.01v8.155A13.146,13.146,0,0,1,341.769,881.646Zm-.008-30.752a9.765,9.765,0,0,0-9.7,9.6v8.129a9.741,9.741,0,0,0,9.7,9.69,9.788,9.788,0,0,0,9.682-9.611v-8.126A9.736,9.736,0,0,0,341.761,850.894Z" transform="translate(-2.149 -13.877)" fill="url(#linear-gradient)"/>
    <path id="Path_63059" data-name="Path 63059" d="M363.4,924.359H315.83v-9.544a23.785,23.785,0,0,1,42.559-14.6,23.559,23.559,0,0,1,5.011,14.6Zm-44.236-3.334h40.9v-6.21a20.45,20.45,0,0,0-20.448-20.449,20.474,20.474,0,0,0-20.454,20.44Z" transform="translate(0 -21.117)" fill="url(#linear-gradient)"/>
    <path id="Path_63060" data-name="Path 63060" d="M447.185,924.359h-47.57v-9.544A23.787,23.787,0,0,1,423.4,891.032a23.808,23.808,0,0,1,23.787,23.783Zm-44.236-3.334h40.9v-6.21a20.451,20.451,0,0,0-36.593-12.554,20.216,20.216,0,0,0-4.309,12.544Z" transform="translate(-13.954 -21.117)" fill="url(#linear-gradient)"/>
    <path id="Path_63061" data-name="Path 63061" d="M425.555,881.749a13.07,13.07,0,0,1-13.032-13.018v-8.156a13.024,13.024,0,0,1,26.049-.005v8.155A13.11,13.11,0,0,1,425.555,881.749Zm-.012-30.855a9.737,9.737,0,0,0-9.686,9.687v8.145a9.691,9.691,0,1,0,19.381-.007v-8.14A9.738,9.738,0,0,0,425.543,850.894Z" transform="translate(-16.103 -13.877)" fill="url(#linear-gradient)"/>
    <path id="Path_63062" data-name="Path 63062" d="M396.814,917.119H367.885v-9.544a20.251,20.251,0,0,0-4.308-12.554l-.8-1.024.8-1.024a23.636,23.636,0,0,1,18.771-9.181h.009a23.631,23.631,0,0,1,18.766,9.181l.8,1.025-.8,1.024a20.215,20.215,0,0,0-4.308,12.543Zm-25.6-3.334H393.48v-6.21a23.509,23.509,0,0,1,4.215-13.519,20.3,20.3,0,0,0-15.338-6.93h-.009a20.3,20.3,0,0,0-15.342,6.931,23.54,23.54,0,0,1,4.213,13.518Zm11.137-32.036a13.069,13.069,0,0,1-13.032-13.02v-8.154a13.079,13.079,0,0,1,13.02-13.015h.008a13.078,13.078,0,0,1,13.02,13.01v8.155A13.11,13.11,0,0,1,382.355,881.749Zm-.007-30.855a9.737,9.737,0,0,0-9.691,9.687v8.145a9.735,9.735,0,0,0,9.7,9.691,9.763,9.763,0,0,0,9.683-9.7v-8.143A9.737,9.737,0,0,0,382.348,850.894Z" transform="translate(-7.819 -13.877)" fill="url(#linear-gradient)"/>
  </g>
</svg>
