<svg id="Group_7250" data-name="Group 7250" xmlns="http://www.w3.org/2000/svg" xmlns:xlink="http://www.w3.org/1999/xlink" width="140.327" height="140.327" viewBox="0 0 140.327 140.327">
  <defs>
    <clipPath id="clip-path">
      <path id="Path_21219" data-name="Path 21219" d="M56.8,33.75a2.28,2.28,0,0,0-1.989,1.167l1.74,2.438v-1.31A.253.253,0,0,1,56.8,35.8H88.9a.255.255,0,0,1,.258.249V54.672a.256.256,0,0,1-.258.257H69.1l1.463,2.047H88.9a2.306,2.306,0,0,0,2.3-2.3V36.045a2.3,2.3,0,0,0-2.3-2.295Z" transform="translate(-54.81 -33.75)" fill="none"/>
    </clipPath>
    <linearGradient id="linear-gradient" x1="-1.212" y1="2.754" x2="-1.189" y2="2.754" gradientUnits="objectBoundingBox">
      <stop offset="0" stop-color="#1cabe0"/>
      <stop offset="1" stop-color="#107aa3"/>
    </linearGradient>
    <clipPath id="clip-path-2">
      <path id="Path_21220" data-name="Path 21220" d="M55.262,114.224V99.985h19.01v16.668H57.691a2.432,2.432,0,0,1-2.429-2.429M76.318,99.985h3.729v16.667H76.318ZM47.44,95.558a4.436,4.436,0,0,0,4.427,4.426h1.348v14.239a4.481,4.481,0,0,0,4.475,4.475H87.372a4.48,4.48,0,0,0,4.3-3.242L89.8,112.751v1.473a2.432,2.432,0,0,1-2.429,2.429H82.094V101.592l-2.524-3.653h-27.7a2.387,2.387,0,0,1-2.381-2.381V54.373L47.44,51.409ZM97.623,38.423l.66.163a2.764,2.764,0,0,1,2.1,2.7V85.4a2.764,2.764,0,0,1-2.1,2.7l-.66.163ZM51.867,26.7a4.412,4.412,0,0,0-2.477.765l1.186,1.665a2.373,2.373,0,0,1,1.291-.383H93.186a2.389,2.389,0,0,1,2.391,2.381V92.154l2.046,2.859V90.375l1.157-.287a4.828,4.828,0,0,0,3.653-4.686V41.283A4.828,4.828,0,0,0,98.78,36.6l-1.157-.287V31.127A4.438,4.438,0,0,0,93.186,26.7Z" transform="translate(-47.44 -26.7)" fill="none"/>
    </clipPath>
    <linearGradient id="linear-gradient-2" x1="-0.189" y1="1.179" x2="-0.18" y2="1.179" xlink:href="#linear-gradient"/>
    <clipPath id="clip-path-3">
      <path id="Path_21221" data-name="Path 21221" d="M74.07,61.94l1.463,2.046h1.52a.168.168,0,0,1,.163.163v2.2L78.8,68.567a2.207,2.207,0,0,0,.459-1.348v-3.07a2.216,2.216,0,0,0-2.209-2.209Z" transform="translate(-74.07 -61.94)" fill="none"/>
    </clipPath>
    <linearGradient id="linear-gradient-3" x1="-8.228" y1="9.935" x2="-8.114" y2="9.935" xlink:href="#linear-gradient"/>
    <clipPath id="clip-path-4">
      <path id="Path_21222" data-name="Path 21222" d="M54.49,64.2v3.069a2.22,2.22,0,0,0,2.218,2.218h2.419l-1.406-2.046H56.708a.171.171,0,0,1-.172-.172v-1.54L54.758,63.15A2.2,2.2,0,0,0,54.49,64.2" transform="translate(-54.49 -63.15)" fill="none"/>
    </clipPath>
    <linearGradient id="linear-gradient-4" x1="-6.446" y1="10.554" x2="-6.324" y2="10.554" xlink:href="#linear-gradient"/>
    <clipPath id="clip-path-5">
      <path id="Path_21223" data-name="Path 21223" d="M83.266,67.218v-3.07a.17.17,0,0,1,.172-.163h6.7a.17.17,0,0,1,.172.163v3.07a.171.171,0,0,1-.172.172h-6.7a.171.171,0,0,1-.172-.172m.172-5.278a2.218,2.218,0,0,0-2.218,2.209v3.07a2.22,2.22,0,0,0,2.218,2.218h6.7a2.22,2.22,0,0,0,2.218-2.218v-3.07a2.218,2.218,0,0,0-2.218-2.209Z" transform="translate(-81.22 -61.94)" fill="none"/>
    </clipPath>
    <linearGradient id="linear-gradient-5" x1="-5.943" y1="6.295" x2="-5.869" y2="6.295" xlink:href="#linear-gradient"/>
    <clipPath id="clip-path-6">
      <path id="Path_21224" data-name="Path 21224" d="M56.708,71.451a2.217,2.217,0,0,0-2.218,2.208v3.069a2.22,2.22,0,0,0,2.218,2.219h6.7a2.225,2.225,0,0,0,1.559-.641L63.584,76.3v.429a.172.172,0,0,1-.172.173h-6.7a.172.172,0,0,1-.172-.173V73.659a.171.171,0,0,1,.172-.172h4.934l-1.406-2.036Z" transform="translate(-54.49 -71.451)" fill="none"/>
    </clipPath>
    <linearGradient id="linear-gradient-6" x1="-4.091" y1="5.815" x2="-4.014" y2="5.815" xlink:href="#linear-gradient"/>
    <clipPath id="clip-path-7">
      <path id="Path_21225" data-name="Path 21225" d="M83.455,71.451a2.22,2.22,0,0,0-1.855.994L83.283,74.8V73.659a.171.171,0,0,1,.172-.172h6.7a.171.171,0,0,1,.172.172v3.069a.172.172,0,0,1-.172.173H84.784l1.463,2.046h3.911a2.22,2.22,0,0,0,2.218-2.219V73.659a2.217,2.217,0,0,0-2.218-2.208Z" transform="translate(-81.6 -71.451)" fill="none"/>
    </clipPath>
    <linearGradient id="linear-gradient-7" x1="-6.077" y1="5.723" x2="-6.001" y2="5.723" xlink:href="#linear-gradient"/>
    <clipPath id="clip-path-8">
      <path id="Path_21226" data-name="Path 21226" d="M67.86,83.231V86.3a2.219,2.219,0,0,0,2.209,2.218h2.209l-1.415-2.045h-.794A.172.172,0,0,1,69.9,86.3V85.076L68.032,82.37a2.128,2.128,0,0,0-.172.861" transform="translate(-67.86 -82.37)" fill="none"/>
    </clipPath>
    <linearGradient id="linear-gradient-8" x1="-8.39" y1="8.464" x2="-8.264" y2="8.464" xlink:href="#linear-gradient"/>
    <clipPath id="clip-path-9">
      <path id="Path_21227" data-name="Path 21227" d="M56.536,86.238v-3.07A.172.172,0,0,1,56.708,83h6.7a.172.172,0,0,1,.172.173v3.07a.172.172,0,0,1-.172.173h-6.7a.172.172,0,0,1-.172-.173m.172-5.288a2.22,2.22,0,0,0-2.218,2.218v3.07a2.221,2.221,0,0,0,2.218,2.218h6.7a2.221,2.221,0,0,0,2.218-2.218v-3.07a2.22,2.22,0,0,0-2.218-2.218Z" transform="translate(-54.49 -80.95)" fill="none"/>
    </clipPath>
    <linearGradient id="linear-gradient-9" x1="-3.962" y1="4.931" x2="-3.888" y2="4.931" xlink:href="#linear-gradient"/>
    <clipPath id="clip-path-10">
      <path id="Path_21228" data-name="Path 21228" d="M87.64,80.95,89.1,83h1.32a.172.172,0,0,1,.172.173v1.912l1.683,2.363a2.21,2.21,0,0,0,.363-1.206v-3.07a2.22,2.22,0,0,0-2.218-2.218Z" transform="translate(-87.64 -80.95)" fill="none"/>
    </clipPath>
    <linearGradient id="linear-gradient-10" x1="-10.041" y1="7.948" x2="-9.924" y2="7.948" xlink:href="#linear-gradient"/>
    <clipPath id="clip-path-11">
      <path id="Path_21229" data-name="Path 21229" d="M71.541,90.46a3.691,3.691,0,0,0-3.681,3.691v.124a3.691,3.691,0,0,0,3.681,3.691h3.768a3.676,3.676,0,0,0,2.544-1.023l-1.2-1.731a1.649,1.649,0,0,1-1.348.708H71.541A1.651,1.651,0,0,1,69.9,94.275v-.124a1.651,1.651,0,0,1,1.645-1.645h3.242L73.368,90.46Z" transform="translate(-67.86 -90.46)" fill="none"/>
    </clipPath>
    <linearGradient id="linear-gradient-11" x1="-5.235" y1="4.513" x2="-5.157" y2="4.513" xlink:href="#linear-gradient"/>
    <clipPath id="clip-path-12">
      <path id="Path_21230" data-name="Path 21230" d="M56.536,94.275v-.124a1.645,1.645,0,0,1,1.645-1.645h3.758a1.645,1.645,0,0,1,1.645,1.645v.124a1.645,1.645,0,0,1-1.645,1.645H58.181a1.645,1.645,0,0,1-1.645-1.645m1.645-3.815a3.693,3.693,0,0,0-3.691,3.691v.124a3.693,3.693,0,0,0,3.691,3.691h3.758a3.693,3.693,0,0,0,3.691-3.691v-.124a3.693,3.693,0,0,0-3.691-3.691Z" transform="translate(-54.49 -90.46)" fill="none"/>
    </clipPath>
    <linearGradient id="linear-gradient-12" x1="-3.962" y1="4.25" x2="-3.888" y2="4.25" xlink:href="#linear-gradient"/>
    <clipPath id="clip-path-13">
      <path id="Path_21231" data-name="Path 21231" d="M62.621,39.789a1.023,1.023,0,0,0,0,2.045H77.9a1.023,1.023,0,0,0,0-2.045Z" transform="translate(-61.599 -39.789)" fill="none"/>
    </clipPath>
    <linearGradient id="linear-gradient-13" x1="-4.798" y1="7.46" x2="-4.723" y2="7.46" xlink:href="#linear-gradient"/>
    <clipPath id="clip-path-14">
      <path id="Path_21232" data-name="Path 21232" d="M62.625,43.82a1.022,1.022,0,0,0-.975.708l.956,1.329h15.3a1.018,1.018,0,1,0,0-2.037Z" transform="translate(-61.65 -43.82)" fill="none"/>
    </clipPath>
    <linearGradient id="linear-gradient-14" x1="-4.815" y1="7.215" x2="-4.74" y2="7.215" xlink:href="#linear-gradient"/>
    <clipPath id="clip-path-15">
      <path id="Path_21233" data-name="Path 21233" d="M64,47.84l1.463,2.046h4.848a1.023,1.023,0,1,0,0-2.046Z" transform="translate(-64 -47.84)" fill="none"/>
    </clipPath>
    <linearGradient id="linear-gradient-15" x1="-9.797" y1="14.019" x2="-9.645" y2="14.019" xlink:href="#linear-gradient"/>
    <clipPath id="clip-path-16">
      <rect id="Rectangle_18867" data-name="Rectangle 18867" width="140.327" height="140.327" fill="none"/>
    </clipPath>
    <linearGradient id="linear-gradient-16" x1="-0.003" y1="1.003" x2="0.003" y2="1.003" xlink:href="#linear-gradient"/>
    <linearGradient id="linear-gradient-17" x1="-0.356" y1="1.118" x2="-0.345" y2="1.118" xlink:href="#linear-gradient"/>
  </defs>
  <g id="Group_7219" data-name="Group 7219" transform="translate(52.411 32.273)">
    <g id="Group_7218" data-name="Group 7218" clip-path="url(#clip-path)">
      <rect id="Rectangle_18852" data-name="Rectangle 18852" width="41.24" height="42.786" transform="matrix(0.646, -0.763, 0.763, 0.646, -11.453, 13.536)" fill="url(#linear-gradient)"/>
    </g>
  </g>
  <g id="Group_7221" data-name="Group 7221" transform="translate(45.364 25.531)">
    <g id="Group_7220" data-name="Group 7220" clip-path="url(#clip-path-2)">
      <rect id="Rectangle_18853" data-name="Rectangle 18853" width="105.753" height="101.407" transform="matrix(0.646, -0.763, 0.763, 0.646, -45.365, 53.613)" fill="url(#linear-gradient-2)"/>
    </g>
  </g>
  <g id="Group_7223" data-name="Group 7223" transform="translate(70.828 59.229)">
    <g id="Group_7222" data-name="Group 7222" clip-path="url(#clip-path-3)">
      <rect id="Rectangle_18854" data-name="Rectangle 18854" width="8.413" height="8.244" transform="matrix(0.646, -0.763, 0.763, 0.646, -3.268, 3.862)" fill="url(#linear-gradient-3)"/>
    </g>
  </g>
  <g id="Group_7225" data-name="Group 7225" transform="translate(52.105 60.386)">
    <g id="Group_7224" data-name="Group 7224" clip-path="url(#clip-path-4)">
      <rect id="Rectangle_18855" data-name="Rectangle 18855" width="7.835" height="7.636" transform="translate(-3.126 3.695) rotate(-49.764)" fill="url(#linear-gradient-4)"/>
    </g>
  </g>
  <g id="Group_7227" data-name="Group 7227" transform="translate(77.665 59.229)">
    <g id="Group_7226" data-name="Group 7226" clip-path="url(#clip-path-5)">
      <rect id="Rectangle_18856" data-name="Rectangle 18856" width="12.919" height="13.347" transform="translate(-3.697 4.369) rotate(-49.764)" fill="url(#linear-gradient-5)"/>
    </g>
  </g>
  <g id="Group_7229" data-name="Group 7229" transform="translate(52.105 68.324)">
    <g id="Group_7228" data-name="Group 7228" clip-path="url(#clip-path-6)">
      <rect id="Rectangle_18857" data-name="Rectangle 18857" width="12.492" height="12.842" transform="translate(-3.696 4.368) rotate(-49.764)" fill="url(#linear-gradient-6)"/>
    </g>
  </g>
  <g id="Group_7231" data-name="Group 7231" transform="translate(78.028 68.324)">
    <g id="Group_7230" data-name="Group 7230" clip-path="url(#clip-path-7)">
      <rect id="Rectangle_18858" data-name="Rectangle 18858" width="12.683" height="13.069" transform="matrix(0.646, -0.763, 0.763, 0.646, -3.696, 4.368)" fill="url(#linear-gradient-7)"/>
    </g>
  </g>
  <g id="Group_7233" data-name="Group 7233" transform="translate(64.89 78.765)">
    <g id="Group_7232" data-name="Group 7232" clip-path="url(#clip-path-8)">
      <rect id="Rectangle_18859" data-name="Rectangle 18859" width="7.547" height="7.344" transform="translate(-3.032 3.583) rotate(-49.764)" fill="url(#linear-gradient-8)"/>
    </g>
  </g>
  <g id="Group_7235" data-name="Group 7235" transform="translate(52.105 77.407)">
    <g id="Group_7234" data-name="Group 7234" clip-path="url(#clip-path-9)">
      <rect id="Rectangle_18860" data-name="Rectangle 18860" width="12.926" height="13.353" transform="translate(-3.701 4.374) rotate(-49.764)" fill="url(#linear-gradient-9)"/>
    </g>
  </g>
  <g id="Group_7237" data-name="Group 7237" transform="translate(83.804 77.407)">
    <g id="Group_7236" data-name="Group 7236" clip-path="url(#clip-path-10)">
      <rect id="Rectangle_18861" data-name="Rectangle 18861" width="8.188" height="8.012" transform="matrix(0.646, -0.763, 0.763, 0.646, -3.202, 3.784)" fill="url(#linear-gradient-10)"/>
    </g>
  </g>
  <g id="Group_7239" data-name="Group 7239" transform="translate(64.89 86.501)">
    <g id="Group_7238" data-name="Group 7238" clip-path="url(#clip-path-11)">
      <rect id="Rectangle_18862" data-name="Rectangle 18862" width="12.185" height="12.477" transform="matrix(0.646, -0.763, 0.763, 0.646, -3.701, 4.374)" fill="url(#linear-gradient-11)"/>
    </g>
  </g>
  <g id="Group_7241" data-name="Group 7241" transform="translate(52.105 86.501)">
    <g id="Group_7240" data-name="Group 7240" clip-path="url(#clip-path-12)">
      <rect id="Rectangle_18863" data-name="Rectangle 18863" width="12.926" height="13.353" transform="matrix(0.646, -0.763, 0.763, 0.646, -3.701, 4.374)" fill="url(#linear-gradient-12)"/>
    </g>
  </g>
  <g id="Group_7243" data-name="Group 7243" transform="translate(58.903 38.047)">
    <g id="Group_7242" data-name="Group 7242" clip-path="url(#clip-path-13)">
      <rect id="Rectangle_18864" data-name="Rectangle 18864" width="12.754" height="14.549" transform="translate(-1.009 1.192) rotate(-49.764)" fill="url(#linear-gradient-13)"/>
    </g>
  </g>
  <g id="Group_7245" data-name="Group 7245" transform="translate(58.952 41.902)">
    <g id="Group_7244" data-name="Group 7244" clip-path="url(#clip-path-14)">
      <rect id="Rectangle_18865" data-name="Rectangle 18865" width="12.716" height="14.506" transform="matrix(0.646, -0.763, 0.763, 0.646, -1.004, 1.187)" fill="url(#linear-gradient-14)"/>
    </g>
  </g>
  <g id="Group_7247" data-name="Group 7247" transform="translate(61.199 45.746)">
    <g id="Group_7246" data-name="Group 7246" clip-path="url(#clip-path-15)">
      <rect id="Rectangle_18866" data-name="Rectangle 18866" width="6.3" height="6.921" transform="translate(-1.009 1.193) rotate(-49.764)" fill="url(#linear-gradient-15)"/>
    </g>
  </g>
  <g id="Group_7249" data-name="Group 7249">
    <g id="Group_7248" data-name="Group 7248" clip-path="url(#clip-path-16)">
      <path id="Path_21234" data-name="Path 21234" d="M70.181,1.934V3.369A66.817,66.817,0,1,0,108.383,125h0A66.813,66.813,0,0,0,70.181,3.369V.5a69.682,69.682,0,0,1,39.844,126.854h0A69.684,69.684,0,1,1,70.181.5Z" transform="translate(-0.022 -0.022)" fill="url(#linear-gradient-16)"/>
      <path id="Path_21235" data-name="Path 21235" d="M109.34,127.629,95.484,108.112h0l-5.556-7.822-1.453-2.046L40.093,30.109,30.317,16.353l2.338-1.662L42.447,28.47,90.814,96.583l1.453,2.046,5.581,7.857,13.831,19.481Z" transform="translate(-1.327 -0.643)" fill="url(#linear-gradient-17)"/>
    </g>
  </g>
</svg>
