<svg xmlns="http://www.w3.org/2000/svg" xmlns:xlink="http://www.w3.org/1999/xlink" width="129.28" height="122.659" viewBox="0 0 129.28 122.659">
  <defs>
    <linearGradient id="linear-gradient" x1="1.203" y1="-0.206" x2="-0.358" y2="1.311" gradientUnits="objectBoundingBox">
      <stop offset="0" stop-color="#9b8fc4"/>
      <stop offset="1" stop-color="#251d41"/>
    </linearGradient>
    <linearGradient id="linear-gradient-2" x1="2.145" y1="-1.05" x2="-2.718" y2="3.531" xlink:href="#linear-gradient"/>
    <linearGradient id="linear-gradient-3" x1="1.853" y1="-1.637" x2="-0.83" y2="3.056" xlink:href="#linear-gradient"/>
    <linearGradient id="linear-gradient-4" x1="2.494" y1="-2.821" x2="-0.189" y2="1.872" xlink:href="#linear-gradient"/>
    <linearGradient id="linear-gradient-5" x1="3.346" y1="-2.181" x2="-1.517" y2="2.4" xlink:href="#linear-gradient"/>
    <linearGradient id="linear-gradient-6" x1="3.038" y1="-1.891" x2="-1.825" y2="2.69" xlink:href="#linear-gradient"/>
    <linearGradient id="linear-gradient-7" x1="2.346" y1="-2.497" x2="-0.337" y2="2.194" xlink:href="#linear-gradient"/>
  </defs>
  <g id="Group_8026" data-name="Group 8026" transform="translate(-28.873 -37.35)">
    <g id="Path_1695" data-name="Path 1695" transform="translate(51.876 37.35)">
      <path id="Path_62981" data-name="Path 62981" d="M114.74,142.852l-3.422-4.716a20.42,20.42,0,0,0-32.985-.121l-3.414,4.628v-8.428a20.442,20.442,0,0,0-19.892-20.449l-1.834-.057v-9.22l1.783-.1a9.644,9.644,0,0,0,9.066-9.59V86.619a9.583,9.583,0,0,0-1.532-5.167l-.957-1.481,1.409-1.058a24.152,24.152,0,0,1,31.924,2.6,24.17,24.17,0,0,1,31.839-2.67l1.439,1.065-.984,1.5a9.555,9.555,0,0,0-1.562,5.229V94.8a9.61,9.61,0,0,0,9.151,9.583l1.8.086v9.238l-1.843.046a20.518,20.518,0,0,0-19.987,20.466Zm-19.963-16.96a24.383,24.383,0,0,1,16.267,6.308,24.3,24.3,0,0,1,21.743-22.109v-2.135a13.364,13.364,0,0,1-7.032-3.7l0,0a13.362,13.362,0,0,1-3.919-9.443V86.619a13.406,13.406,0,0,1,1.27-5.671,20.388,20.388,0,0,0-26.736,4.606l-1.477,1.862-1.482-1.858A20.374,20.374,0,0,0,66.578,81.01a13.41,13.41,0,0,1,1.248,5.6V94.8a13.443,13.443,0,0,1-10.849,13.138v2.168a24.191,24.191,0,0,1,21.632,22A24.161,24.161,0,0,1,94.777,125.892Zm17.548-53.6a13.405,13.405,0,0,1-13.38-13.369V50.734A13.447,13.447,0,0,1,112.313,37.35h.011A13.452,13.452,0,0,1,125.7,50.728v8.187A13.449,13.449,0,0,1,112.324,72.29Zm-.006-31.157a9.654,9.654,0,0,0-9.591,9.606v8.176a9.62,9.62,0,0,0,9.6,9.591,9.652,9.652,0,0,0,9.6-9.6V50.734A9.658,9.658,0,0,0,112.319,41.133ZM77.441,72.29a13.405,13.405,0,0,1-13.38-13.368V50.734A13.447,13.447,0,0,1,77.43,37.35h.011A13.45,13.45,0,0,1,90.819,50.728v8.187A13.446,13.446,0,0,1,77.441,72.29Zm-.006-31.157a9.653,9.653,0,0,0-9.591,9.606v8.176a9.6,9.6,0,0,0,19.191,0V50.734A9.657,9.657,0,0,0,77.435,41.133Z" transform="translate(-53.193 -37.35)" fill="url(#linear-gradient)"/>
    </g>
    <g id="Group_8021" data-name="Group 8021" transform="translate(120.517 73.245)">
      <path id="Path_62982" data-name="Path 62982" d="M139.143,110.24c-.223,0-.441-.01-.648-.023a13.394,13.394,0,0,1-12.732-13.355V88.673a13.379,13.379,0,0,1,26.758,0v8.187A13.451,13.451,0,0,1,139.143,110.24Zm-.011-31.157a9.626,9.626,0,0,0-9.585,9.6v8.174a9.61,9.61,0,0,0,9.151,9.583c.157.009.3.017.44.017a9.657,9.657,0,0,0,9.6-9.606V88.676A9.652,9.652,0,0,0,139.132,79.083Z" transform="translate(-125.763 -75.3)" fill="url(#linear-gradient-2)"/>
    </g>
    <g id="Group_8022" data-name="Group 8022" transform="translate(109.64 109.963)">
      <path id="Path_62983" data-name="Path 62983" d="M162.776,148.228H117.662l-.465-1.215a19.98,19.98,0,0,0-2.567-4.71l-.367-.5v-3.431a24.3,24.3,0,0,1,23.674-24.241c.149-.009.363-.01.578-.01a24.385,24.385,0,0,1,24.261,24.246Zm-42.549-3.783h38.766v-6.07A20.592,20.592,0,0,0,138.509,117.9c-.141,0-.284,0-.422.007a20.519,20.519,0,0,0-20.041,20.467v2.2A23.676,23.676,0,0,1,120.227,144.444Z" transform="translate(-114.263 -114.12)" fill="url(#linear-gradient-3)"/>
    </g>
    <g id="Group_8023" data-name="Group 8023" transform="translate(28.873 109.963)">
      <path id="Path_62984" data-name="Path 62984" d="M73.891,148.228H28.873v-9.856A24.321,24.321,0,0,1,53.13,114.12c.259,0,.505,0,.75.023a24.211,24.211,0,0,1,23.506,24.223v3.311l-.376.5a20.032,20.032,0,0,0-2.654,4.832Zm-41.235-3.783H71.328a23.729,23.729,0,0,1,2.275-4.01v-2.059A20.444,20.444,0,0,0,53.71,117.922l-.116-.008c-.151-.014-.3-.011-.46-.011a20.537,20.537,0,0,0-20.478,20.474Z" transform="translate(-28.873 -114.12)" fill="url(#linear-gradient-4)"/>
    </g>
    <g id="Group_8024" data-name="Group 8024" transform="translate(39.75 73.245)">
      <path id="Path_62985" data-name="Path 62985" d="M53.757,110.24A13.421,13.421,0,0,1,40.373,96.862V88.673a13.379,13.379,0,0,1,26.758-.007v8.189A13.436,13.436,0,0,1,54.5,110.218C54.244,110.23,54.006,110.24,53.757,110.24Zm0-31.157a9.65,9.65,0,0,0-9.6,9.6v8.177a9.637,9.637,0,0,0,9.606,9.6c.181,0,.358-.009.536-.017a9.64,9.64,0,0,0,9.049-9.589V88.679a9.637,9.637,0,0,0-9.595-9.6Z" transform="translate(-40.373 -75.3)" fill="url(#linear-gradient-5)"/>
    </g>
    <g id="Path_1698" data-name="Path 1698" transform="translate(80.082 89.183)">
      <path id="Path_62986" data-name="Path 62986" d="M96.4,127.09a13.421,13.421,0,0,1-13.39-13.378v-8.187A13.46,13.46,0,0,1,96.391,92.15H96.4a13.441,13.441,0,0,1,13.369,13.369v8.186A13.447,13.447,0,0,1,96.4,127.09ZM96.4,95.933a9.665,9.665,0,0,0-9.6,9.6v8.172a9.6,9.6,0,1,0,19.191,0v-8.176A9.647,9.647,0,0,0,96.4,95.933Z" transform="translate(-83.013 -92.15)" fill="url(#linear-gradient-6)"/>
    </g>
    <g id="Group_8025" data-name="Group 8025" transform="translate(69.214 125.892)">
      <path id="Path_62987" data-name="Path 62987" d="M120.027,165.077h-48.5V155.22a24.162,24.162,0,0,1,1.612-8.653,23.79,23.79,0,0,1,3.153-5.739,24.261,24.261,0,0,1,19.481-9.868,24.367,24.367,0,0,1,19.6,10.022,23.821,23.821,0,0,1,3.047,5.589,24.178,24.178,0,0,1,1.609,8.643Zm-44.72-3.783h40.937v-6.07a20.4,20.4,0,0,0-1.358-7.3,20.018,20.018,0,0,0-2.569-4.713,20.419,20.419,0,0,0-32.991-.131,20.1,20.1,0,0,0-2.66,4.842,20.432,20.432,0,0,0-1.359,7.3Z" transform="translate(-71.523 -130.96)" fill="url(#linear-gradient-7)"/>
    </g>
  </g>
</svg>
