<svg xmlns="http://www.w3.org/2000/svg" xmlns:xlink="http://www.w3.org/1999/xlink" width="173.515" height="104.09" viewBox="0 0 173.515 104.09">
  <defs>
    <linearGradient id="linear-gradient" x1="0.968" y1="-0.144" x2="-0.158" y2="1.462" gradientUnits="objectBoundingBox">
      <stop offset="0" stop-color="#1cabe0"/>
      <stop offset="1" stop-color="#107aa3"/>
    </linearGradient>
    <linearGradient id="linear-gradient-2" x1="1.004" y1="-5.285" x2="0.099" y2="4.66" xlink:href="#linear-gradient"/>
    <linearGradient id="linear-gradient-3" x1="3.52" y1="-10.46" x2="-1.651" y2="8.59" xlink:href="#linear-gradient"/>
    <linearGradient id="linear-gradient-4" x1="1.036" y1="-0.244" x2="-0.235" y2="1.518" xlink:href="#linear-gradient"/>
    <linearGradient id="linear-gradient-5" x1="4.268" y1="-3.081" x2="-3.162" y2="3.979" xlink:href="#linear-gradient"/>
    <linearGradient id="linear-gradient-6" x1="1.339" y1="-12.89" x2="-1.133" y2="26.55" xlink:href="#linear-gradient"/>
    <linearGradient id="linear-gradient-7" x1="4.938" y1="-3.717" x2="-2.492" y2="3.343" xlink:href="#linear-gradient"/>
    <linearGradient id="linear-gradient-8" x1="1.562" y1="-16.444" x2="-0.91" y2="22.995" xlink:href="#linear-gradient"/>
  </defs>
  <g id="Group_7365" data-name="Group 7365" transform="translate(-8.242 -43.879)">
    <g id="Group_7357" data-name="Group 7357" transform="translate(25.297 43.879)">
      <path id="Path_61417" data-name="Path 61417" d="M165.685,136.753H26.28V51.576a7.706,7.706,0,0,1,7.7-7.7H157.988a7.706,7.706,0,0,1,7.7,7.7ZM30.062,132.971H161.9V51.576a3.919,3.919,0,0,0-3.914-3.915H33.976a3.919,3.919,0,0,0-3.914,3.915Z" transform="translate(-26.28 -43.879)" fill="url(#linear-gradient)"/>
    </g>
    <g id="Group_7358" data-name="Group 7358" transform="translate(8.242 132.971)">
      <path id="Path_61418" data-name="Path 61418" d="M168.65,153.1H21.349A13.122,13.122,0,0,1,8.242,140v-1.891H181.757V140A13.122,13.122,0,0,1,168.65,153.1ZM12.217,141.888a9.341,9.341,0,0,0,9.132,7.434h147.3a9.341,9.341,0,0,0,9.132-7.434Z" transform="translate(-8.242 -138.106)" fill="url(#linear-gradient-2)"/>
    </g>
    <g id="Group_7359" data-name="Group 7359" transform="translate(79.823 140.14)">
      <path id="Path_61419" data-name="Path 61419" d="M114.3,153.518H83.949v-3.272a4.563,4.563,0,0,1,4.557-4.557h21.238a4.563,4.563,0,0,1,4.557,4.557Zm-26.379-3.782h22.4a.774.774,0,0,0-.583-.266H88.506A.774.774,0,0,0,87.923,149.736Z" transform="translate(-83.949 -145.688)" fill="url(#linear-gradient-3)"/>
    </g>
    <g id="Group_7360" data-name="Group 7360" transform="translate(33.249 52.108)">
      <path id="Path_61420" data-name="Path 61420" d="M158.191,137.227H34.69V52.582h123.5ZM38.472,133.445H154.409V56.364H38.472Z" transform="translate(-34.69 -52.582)" fill="url(#linear-gradient-4)"/>
    </g>
    <g id="Group_7361" data-name="Group 7361" transform="translate(48.471 72.786)">
      <path id="Path_61421" data-name="Path 61421" d="M61.353,95.579A10.564,10.564,0,1,1,71.916,85.015,10.576,10.576,0,0,1,61.353,95.579Zm0-17.345a6.782,6.782,0,1,0,6.781,6.781A6.789,6.789,0,0,0,61.353,78.234Z" transform="translate(-50.79 -74.452)" fill="url(#linear-gradient-5)"/>
    </g>
    <g id="Group_7362" data-name="Group 7362" transform="translate(77.378 81.458)">
      <path id="Path_61422" data-name="Path 61422" d="M142.96,87.406H83.254a1.891,1.891,0,0,1,0-3.782H142.96a1.891,1.891,0,1,1,0,3.782Z" transform="translate(-81.363 -83.624)" fill="url(#linear-gradient-6)"/>
    </g>
    <g id="Group_7363" data-name="Group 7363" transform="translate(48.471 101.115)">
      <path id="Path_61423" data-name="Path 61423" d="M61.353,125.54a10.563,10.563,0,1,1,10.563-10.563A10.575,10.575,0,0,1,61.353,125.54Zm0-17.344a6.781,6.781,0,1,0,6.781,6.781A6.788,6.788,0,0,0,61.353,108.2Z" transform="translate(-50.79 -104.414)" fill="url(#linear-gradient-7)"/>
    </g>
    <g id="Group_7364" data-name="Group 7364" transform="translate(77.378 109.787)">
      <path id="Path_61424" data-name="Path 61424" d="M142.96,117.368H83.254a1.891,1.891,0,1,1,0-3.782H142.96a1.891,1.891,0,1,1,0,3.782Z" transform="translate(-81.363 -113.586)" fill="url(#linear-gradient-8)"/>
    </g>
  </g>
</svg>
