<svg xmlns="http://www.w3.org/2000/svg" xmlns:xlink="http://www.w3.org/1999/xlink" width="142.652" height="123.118" viewBox="0 0 142.652 123.118">
  <defs>
    <linearGradient id="linear-gradient" y1="0.5" x2="1" y2="0.5" gradientUnits="objectBoundingBox">
      <stop offset="0" stop-color="#9b4a69"/>
      <stop offset="1" stop-color="#f288af"/>
    </linearGradient>
  </defs>
  <g id="Group_7716" data-name="Group 7716" transform="translate(-1003.541 -790.804)">
    <path id="Path_61949" data-name="Path 61949" d="M1068.318,828.067a10.384,10.384,0,0,1-10.368-10.358v-6.176a10.416,10.416,0,0,1,10.359-10.351h.008a10.4,10.4,0,0,1,10.361,10.346v6.207A10.414,10.414,0,0,1,1068.318,828.067Zm0-23.555a7.077,7.077,0,0,0-7.037,7.027V817.7a7.035,7.035,0,0,0,14.07.022v-6.192A7.065,7.065,0,0,0,1068.316,804.512Z" transform="translate(-9.123 -1.74)" fill="url(#linear-gradient)"/>
    <path id="Path_61950" data-name="Path 61950" d="M1085.252,866l-2.087-.548a27.19,27.19,0,0,1-6.278-2.717,33.13,33.13,0,0,0-4.156-2.009,18.849,18.849,0,0,0-6.875-1.187h-6.792a23.15,23.15,0,0,0-8.7,1.9l-2.3.955v-9.2a18.6,18.6,0,0,1,37.192,0Zm-26.188-9.79h6.792a22.086,22.086,0,0,1,8.053,1.4,36.482,36.482,0,0,1,4.565,2.2,36.125,36.125,0,0,0,3.448,1.716V853.2a15.267,15.267,0,0,0-30.533,0v4.314A25.017,25.017,0,0,1,1059.064,856.209Z" transform="translate(-7.464 -7.341)" fill="url(#linear-gradient)"/>
    <path id="Path_61951" data-name="Path 61951" d="M1050.567,908.177l-28.881-28.887,1.27-1.175c1.5-1.39,5.416-5.044,9.311-8.943a38.586,38.586,0,0,1,12.4-8.519,26.225,26.225,0,0,1,9.977-2.151h6.792a22.085,22.085,0,0,1,8.054,1.4,36.49,36.49,0,0,1,4.565,2.2,24.2,24.2,0,0,0,5.534,2.423,16.338,16.338,0,0,0,4.18.512H1098.3c.068,0,.14,0,.21,0a11.751,11.751,0,0,1,8.814,3.535l.845-.34,1.773-.608a49.349,49.349,0,0,0,16.636-13.143,16.192,16.192,0,0,1,9.015-5.734c7.156-1.656,11.036,1.2,13.031,3.89l.615.827-.467.919a175.845,175.845,0,0,1-16.479,26.372l-.087.107c-.214.239-.519.606-.91,1.074-4.614,5.529-18.656,22.353-36.434,22.353h-38.106a6.157,6.157,0,0,0-5.029,2.387Zm-24.084-28.8,23.894,23.9a9.435,9.435,0,0,1,6.412-2.316h38.069c10.762,0,22.161-7.118,33.878-21.157.394-.473.708-.849.937-1.107a172.632,172.632,0,0,0,15.627-24.842c-2.051-2.137-5.06-2.762-8.959-1.862a12.861,12.861,0,0,0-7.167,4.57,52.721,52.721,0,0,1-17.879,14.1l-.181.075-2.063.723c.065.226.132.459.2.684.255.787.41,1.418.423,1.472l.383,1.586-1.575.432c-1.183.317-1.719-.437-2.026-1.241l-.019.005c-.015-.06-.029-.121-.046-.183-.072-.207-.13-.413-.183-.6l-.147-.519c-.042-.126-.084-.25-.127-.37l-.317.129-.145-1.234a2.014,2.014,0,0,0-.111-.186c-1.362-1.957-3.823-3.048-6.93-3.074l-.161-.008-14.5,0a19.57,19.57,0,0,1-5.023-.621,27.178,27.178,0,0,1-6.279-2.717,33.14,33.14,0,0,0-4.156-2.009,18.847,18.847,0,0,0-6.875-1.187h-6.792a23.151,23.151,0,0,0-8.7,1.9,35.292,35.292,0,0,0-11.317,7.8C1031.519,874.632,1028.406,877.583,1026.484,879.38Z" transform="translate(-3.042 -9.633)" fill="url(#linear-gradient)"/>
    <path id="Path_61952" data-name="Path 61952" d="M1132.148,828.067a10.384,10.384,0,0,1-10.362-10.361v-6.173a10.413,10.413,0,0,1,10.355-10.351h.007a10.4,10.4,0,0,1,10.362,10.346v6.207A10.406,10.406,0,0,1,1132.148,828.067Zm0-23.555a7.075,7.075,0,0,0-7.032,7.027V817.7a7.033,7.033,0,0,0,14.066.024v-6.193A7.065,7.065,0,0,0,1132.147,804.512Z" transform="translate(-19.826 -1.74)" fill="url(#linear-gradient)"/>
    <path id="Path_61953" data-name="Path 61953" d="M1121.2,870.193l-.718-1.032c-1.363-1.958-3.824-3.05-6.931-3.075l-1.651-.013V853.248a18.544,18.544,0,0,1,5.465-13.137c.405-.405.826-.787,1.249-1.134a18.553,18.553,0,0,1,30.064,10.382l.252,1.178-1.04.607a12.687,12.687,0,0,0-3.591,3.137,52.721,52.721,0,0,1-17.879,14.1l-.181.075Zm-5.971-7.339a11.21,11.21,0,0,1,7.182,3.4l2.652-.911A49.35,49.35,0,0,0,1141.7,852.2a15.909,15.909,0,0,1,3.443-3.25,15.221,15.221,0,0,0-24.4-7.412c-.357.293-.687.592-1.02.925a15.233,15.233,0,0,0-4.49,10.788Z" transform="translate(-18.168 -7.351)" fill="url(#linear-gradient)"/>
    <path id="Path_61954" data-name="Path 61954" d="M1110,858.92l-1.839-.193-14.5,0a19.573,19.573,0,0,1-5.023-.621l-1.244-.325V845.85a15.282,15.282,0,0,0-5.481-11.705l-1.231-1.032.989-1.267a21.954,21.954,0,0,1,1.791-2.028,21.485,21.485,0,0,1,15.237-6.334h.011a21.5,21.5,0,0,1,17.045,8.411l.989,1.279-1.25,1.025c-.344.282-.673.581-1.006.914A15.233,15.233,0,0,0,1110,845.9Zm-19.274-3.76a17.08,17.08,0,0,0,2.937.242h13.008v-9.5a18.544,18.544,0,0,1,5.465-13.138l0,0a18.163,18.163,0,0,0-26.32-.585q-.268.27-.53.553a18.594,18.594,0,0,1,5.438,13.122Zm7.985-33.294a11.926,11.926,0,0,1-11.9-11.885V802.7A11.946,11.946,0,0,1,1098.7,790.8h.008a11.925,11.925,0,0,1,11.876,11.892v7.279A11.945,11.945,0,0,1,1098.707,821.865Zm-.006-27.732a8.608,8.608,0,0,0-8.564,8.569v7.273a8.557,8.557,0,1,0,17.114,0V802.7A8.59,8.59,0,0,0,1098.7,794.133Z" transform="translate(-12.934)" fill="url(#linear-gradient)"/>
    <path id="Path_61955" data-name="Path 61955" d="M1124.167,876.263l-.84-3.222.859,3.217Z" transform="translate(-20.084 -13.788)" fill="url(#linear-gradient)"/>
    <path id="Path_61956" data-name="Path 61956" d="M1050.333,914.42l-29.21-28.7,1.732-1.588,1.118,1.195.737-.75,26.6,26.132-.968.986,1.3.976Z" transform="translate(-2.948 -15.649)" fill="url(#linear-gradient)"/>
    <path id="Path_61957" data-name="Path 61957" d="M1107.806,889.852h-29.4v-3.329h29.4a8.545,8.545,0,0,0,6.6-2.5,6.017,6.017,0,0,0,1.5-4.673l3.308-.37a9.351,9.351,0,0,1-2.325,7.263A11.915,11.915,0,0,1,1107.806,889.852Z" transform="translate(-12.553 -14.784)" fill="url(#linear-gradient)"/>
    <path id="Path_61958" data-name="Path 61958" d="M1124.167,876.263l-.84-3.222.859,3.217Z" transform="translate(-20.084 -13.788)" fill="url(#linear-gradient)"/>
    <path id="Path_61959" data-name="Path 61959" d="M1050.333,914.42l-29.21-28.7,1.732-1.588,1.118,1.195.737-.75,26.6,26.132-.968.986,1.3.976Z" transform="translate(-2.948 -15.649)" fill="url(#linear-gradient)"/>
    <path id="Path_61960" data-name="Path 61960" d="M1107.806,889.852h-29.4v-3.329h29.4a8.545,8.545,0,0,0,6.6-2.5,6.017,6.017,0,0,0,1.5-4.673l3.308-.37a9.351,9.351,0,0,1-2.325,7.263A11.915,11.915,0,0,1,1107.806,889.852Z" transform="translate(-12.553 -14.784)" fill="url(#linear-gradient)"/>
    <path id="Path_61961" data-name="Path 61961" d="M1041.3,928.923a10.861,10.861,0,0,1-7.706-3.187l-26.857-26.857a10.9,10.9,0,0,1,0-15.412l.06-.059a10.916,10.916,0,0,1,15.361.054l.06.058,26.794,26.8a10.911,10.911,0,0,1,0,15.412l-.06.059A10.866,10.866,0,0,1,1041.3,928.923Zm-32.259-43.052a7.568,7.568,0,0,0,.05,10.654l26.857,26.857a7.568,7.568,0,0,0,10.7,0l.055-.056a7.578,7.578,0,0,0-.05-10.653l-26.845-26.849a7.586,7.586,0,0,0-10.716-.008Z" transform="translate(0 -15.001)" fill="url(#linear-gradient)"/>
    <path id="Path_61962" data-name="Path 61962" d="M1041.3,928.923a10.861,10.861,0,0,1-7.706-3.187l-26.857-26.857a10.9,10.9,0,0,1,0-15.412l.06-.059a10.916,10.916,0,0,1,15.361.054l.06.058,26.794,26.8a10.911,10.911,0,0,1,0,15.412l-.06.059A10.866,10.866,0,0,1,1041.3,928.923Zm-32.259-43.052a7.568,7.568,0,0,0,.05,10.654l26.857,26.857a7.568,7.568,0,0,0,10.7,0l.055-.056a7.578,7.578,0,0,0-.05-10.653l-26.845-26.849a7.586,7.586,0,0,0-10.716-.008Z" transform="translate(0 -15.001)" fill="url(#linear-gradient)"/>
  </g>
</svg>
