<svg xmlns="http://www.w3.org/2000/svg" xmlns:xlink="http://www.w3.org/1999/xlink" width="104.795" height="129.906" viewBox="0 0 104.795 129.906">
  <defs>
    <linearGradient id="linear-gradient" x1="-1.146" y1="-1.577" x2="5.317" y2="6.575" gradientUnits="objectBoundingBox">
      <stop offset="0" stop-color="#d8805a"/>
      <stop offset="1" stop-color="#7b4129"/>
    </linearGradient>
    <linearGradient id="linear-gradient-2" x1="-0.753" y1="-1.78" x2="2.8" y2="5.035" xlink:href="#linear-gradient"/>
    <linearGradient id="linear-gradient-3" x1="-8.4" y1="-3.662" x2="18.166" y2="8.762" xlink:href="#linear-gradient"/>
    <linearGradient id="linear-gradient-4" x1="-9.792" y1="-4.372" x2="16.774" y2="8.203" xlink:href="#linear-gradient"/>
    <linearGradient id="linear-gradient-5" x1="-0.975" y1="-1.332" x2="1.671" y2="2.005" xlink:href="#linear-gradient"/>
    <linearGradient id="linear-gradient-6" x1="-2.29" y1="-2.872" x2="2.671" y2="3.539" xlink:href="#linear-gradient"/>
    <linearGradient id="linear-gradient-7" x1="-0.565" y1="-4.031" x2="1.73" y2="5.733" xlink:href="#linear-gradient"/>
    <linearGradient id="linear-gradient-8" x1="-1.065" y1="-4.801" x2="1.818" y2="4.963" xlink:href="#linear-gradient"/>
    <linearGradient id="linear-gradient-9" x1="-1.068" y1="-22.188" x2="1.248" y2="11.321" xlink:href="#linear-gradient"/>
    <linearGradient id="linear-gradient-10" x1="-1.168" y1="-23.638" x2="1.147" y2="9.87" xlink:href="#linear-gradient"/>
    <linearGradient id="linear-gradient-11" x1="-1.991" y1="-24.387" x2="1.363" y2="9.121" xlink:href="#linear-gradient"/>
    <linearGradient id="linear-gradient-12" x1="0.03" y1="0.014" x2="0.846" y2="0.858" xlink:href="#linear-gradient"/>
    <linearGradient id="linear-gradient-13" x1="-2.025" y1="-2.802" x2="0.516" y2="0.521" xlink:href="#linear-gradient"/>
    <linearGradient id="linear-gradient-14" x1="0.203" y1="-9.141" x2="1.235" y2="24.368" xlink:href="#linear-gradient"/>
  </defs>
  <g id="Group_7242" data-name="Group 7242" transform="translate(-643.771 -323)">
    <g id="Group_7228" data-name="Group 7228" transform="translate(662.561 346.169)">
      <path id="Path_19971" data-name="Path 19971" d="M673.384,364.7a6.759,6.759,0,1,1,6.759-6.76A6.767,6.767,0,0,1,673.384,364.7Zm0-10.23a3.47,3.47,0,1,0,3.471,3.47A3.474,3.474,0,0,0,673.384,354.468Z" transform="translate(-666.625 -351.179)" fill="url(#linear-gradient)"/>
    </g>
    <g id="Group_7229" data-name="Group 7229" transform="translate(657.022 360.424)">
      <path id="Path_19972" data-name="Path 19972" d="M682.83,384.688a1.644,1.644,0,0,1-1.644-1.644V376.29a4.489,4.489,0,0,0-4.485-4.484h-9.039a4.489,4.489,0,0,0-4.485,4.484v6.753a1.644,1.644,0,1,1-3.289,0V376.29a7.782,7.782,0,0,1,7.774-7.773H676.7a7.782,7.782,0,0,1,7.774,7.773v6.753A1.645,1.645,0,0,1,682.83,384.688Z" transform="translate(-659.888 -368.517)" fill="url(#linear-gradient-2)"/>
    </g>
    <g id="Group_7230" data-name="Group 7230" transform="translate(661.333 367.93)">
      <path id="Path_19973" data-name="Path 19973" d="M666.775,386.517a1.644,1.644,0,0,1-1.644-1.644v-5.581a1.644,1.644,0,1,1,3.289,0v5.581A1.645,1.645,0,0,1,666.775,386.517Z" transform="translate(-665.131 -377.647)" fill="url(#linear-gradient-3)"/>
    </g>
    <g id="Group_7231" data-name="Group 7231" transform="translate(673.385 367.831)">
      <path id="Path_19974" data-name="Path 19974" d="M681.434,386.29a1.644,1.644,0,0,1-1.644-1.644V379.17a1.644,1.644,0,0,1,3.289,0v5.475A1.645,1.645,0,0,1,681.434,386.29Z" transform="translate(-679.79 -377.526)" fill="url(#linear-gradient-4)"/>
    </g>
    <g id="Group_7232" data-name="Group 7232" transform="translate(653.001 389.655)">
      <path id="Path_19975" data-name="Path 19975" d="M671.509,437.095a16.512,16.512,0,0,1,0-33.025,16.336,16.336,0,0,1,5.853,1.075,1.643,1.643,0,0,1,.95,2.118l-4.134,10.915c3.235-.861,8.244-2.222,11.156-3.147a1.645,1.645,0,0,1,2.079,1.121,16.239,16.239,0,0,1,.608,4.43A16.531,16.531,0,0,1,671.509,437.095Zm0-29.736A13.215,13.215,0,1,0,684.6,418.7c-4.9,1.458-12.324,3.387-12.677,3.478a1.644,1.644,0,0,1-1.95-2.174l4.648-12.27A13.136,13.136,0,0,0,671.509,407.359Z" transform="translate(-654.997 -404.07)" fill="url(#linear-gradient-5)"/>
    </g>
    <g id="Group_7233" data-name="Group 7233" transform="translate(675.302 383.807)">
      <path id="Path_19976" data-name="Path 19976" d="M683.766,414.147a1.644,1.644,0,0,1-1.538-2.226l5.266-13.9a1.643,1.643,0,0,1,2.119-.956,16.529,16.529,0,0,1,10.06,11.017,1.645,1.645,0,0,1-1.088,2.006c-4.616,1.465-14.009,3.9-14.406,4.007A1.61,1.61,0,0,1,683.766,414.147Zm6.185-13.329-3.516,9.281c2.7-.719,6.628-1.784,9.548-2.654A13.25,13.25,0,0,0,689.951,400.818Z" transform="translate(-682.121 -396.957)" fill="url(#linear-gradient-6)"/>
    </g>
    <g id="Group_7234" data-name="Group 7234" transform="translate(697.162 347.695)">
      <path id="Path_19977" data-name="Path 19977" d="M745.124,364.321H710.352a1.645,1.645,0,0,1-1.644-1.644v-8a1.645,1.645,0,0,1,1.644-1.644h34.772a1.645,1.645,0,0,1,1.644,1.644v8A1.645,1.645,0,0,1,745.124,364.321ZM712,361.032H743.48v-4.709H712Z" transform="translate(-708.708 -353.035)" fill="url(#linear-gradient-7)"/>
    </g>
    <g id="Group_7235" data-name="Group 7235" transform="translate(697.162 364.919)">
      <path id="Path_19978" data-name="Path 19978" d="M737.373,385.27H710.352a1.645,1.645,0,0,1-1.644-1.644v-8a1.645,1.645,0,0,1,1.644-1.644h27.021a1.644,1.644,0,0,1,1.644,1.644v8A1.644,1.644,0,0,1,737.373,385.27ZM712,381.981h23.732v-4.709H712Z" transform="translate(-708.708 -373.984)" fill="url(#linear-gradient-8)"/>
    </g>
    <g id="Group_7236" data-name="Group 7236" transform="translate(697.492 389.786)">
      <path id="Path_19979" data-name="Path 19979" d="M745.2,407.518H710.754a1.644,1.644,0,0,1,0-3.289H745.2a1.644,1.644,0,1,1,0,3.289Z" transform="translate(-709.11 -404.229)" fill="url(#linear-gradient-9)"/>
    </g>
    <g id="Group_7237" data-name="Group 7237" transform="translate(697.492 397.555)">
      <path id="Path_19980" data-name="Path 19980" d="M745.2,416.968H710.754a1.644,1.644,0,0,1,0-3.289H745.2a1.644,1.644,0,1,1,0,3.289Z" transform="translate(-709.11 -413.679)" fill="url(#linear-gradient-10)"/>
    </g>
    <g id="Group_7238" data-name="Group 7238" transform="translate(697.492 406.202)">
      <path id="Path_19981" data-name="Path 19981" d="M733.515,427.484H710.754a1.644,1.644,0,0,1,0-3.289h22.761a1.644,1.644,0,1,1,0,3.289Z" transform="translate(-709.11 -424.195)" fill="url(#linear-gradient-11)"/>
    </g>
    <g id="Group_7239" data-name="Group 7239" transform="translate(643.771 323)">
      <path id="Path_19982" data-name="Path 19982" d="M716.555,452.906h-71.14a1.645,1.645,0,0,1-1.644-1.644V324.644A1.645,1.645,0,0,1,645.415,323H746.921a1.645,1.645,0,0,1,1.644,1.644v96.245a1.645,1.645,0,0,1-.482,1.163l-30.366,30.373A1.645,1.645,0,0,1,716.555,452.906Zm-69.5-3.289h68.814l29.4-29.41V326.289H647.06Z" transform="translate(-643.771 -323)" fill="url(#linear-gradient-12)"/>
    </g>
    <g id="Group_7240" data-name="Group 7240" transform="translate(714.184 419.749)">
      <path id="Path_19983" data-name="Path 19983" d="M731.056,473.829a1.644,1.644,0,0,1-1.644-1.644V442.316a1.644,1.644,0,0,1,1.644-1.644h31.093a1.644,1.644,0,0,1,1.139,2.83L732.2,473.371A1.643,1.643,0,0,1,731.056,473.829Zm1.644-29.869v24.365l25.363-24.365Z" transform="translate(-729.412 -440.672)" fill="url(#linear-gradient-13)"/>
    </g>
    <g id="Group_7241" data-name="Group 7241" transform="translate(654.202 335.607)">
      <path id="Path_19984" data-name="Path 19984" d="M739.532,341.622H658.1a1.644,1.644,0,0,1,0-3.289h81.43a1.644,1.644,0,0,1,0,3.289Z" transform="translate(-656.458 -338.333)" fill="url(#linear-gradient-14)"/>
    </g>
  </g>
</svg>
