<svg id="Group_7417" data-name="Group 7417" xmlns="http://www.w3.org/2000/svg" xmlns:xlink="http://www.w3.org/1999/xlink" width="165.522" height="140.469" viewBox="0 0 165.522 140.469">
  <defs>
    <clipPath id="clip-path">
      <rect id="Rectangle_19554" data-name="Rectangle 19554" width="165.522" height="140.469" fill="none"/>
    </clipPath>
  </defs>
  <g id="Group_7416" data-name="Group 7416" clip-path="url(#clip-path)">
    <path id="Path_22271" data-name="Path 22271" d="M133.678,103.08H31.845a31.845,31.845,0,1,1,0-63.689H133.678a31.845,31.845,0,1,1,0,63.689M31.845,43.391a27.845,27.845,0,1,0,0,55.689H133.678a27.845,27.845,0,1,0,0-55.689Z" fill="#c77451"/>
    <path id="Path_22272" data-name="Path 22272" d="M19.624,15.707A15.708,15.708,0,1,0,35.331,0,15.707,15.707,0,0,0,19.624,15.707" fill="#fff3dc"/>
    <path id="Path_22273" data-name="Path 22273" d="M35.331,20.257a6.908,6.908,0,1,1,6.908-6.908,6.914,6.914,0,0,1-6.908,6.908m0-9.816a2.908,2.908,0,1,0,2.908,2.908,2.91,2.91,0,0,0-2.908-2.908" fill="#c77451"/>
    <path id="Path_22274" data-name="Path 22274" d="M44.747,28.665a2,2,0,0,1-1.941-1.526c-.058-.227-1.554-5.8-7.475-5.8s-7.415,5.574-7.476,5.811a2,2,0,0,1-3.883-.958,11.715,11.715,0,0,1,22.72,0,2,2,0,0,1-1.469,2.417,2.057,2.057,0,0,1-.476.057" fill="#c77451"/>
    <path id="Path_22275" data-name="Path 22275" d="M68.624,8.393,71,13.209l5.314.772-3.846,3.748.908,5.293-4.753-2.5-4.753,2.5.908-5.293-3.846-3.748,5.314-.772Z" fill="#efc075"/>
    <path id="Path_22276" data-name="Path 22276" d="M89.066,8.393l2.377,4.816,5.314.772-3.846,3.748.908,5.293-4.753-2.5-4.753,2.5.908-5.293-3.846-3.748,5.314-.772Z" fill="#efc075"/>
    <path id="Path_22277" data-name="Path 22277" d="M109.508,8.393l2.377,4.816,5.314.772-3.846,3.748.908,5.293-4.753-2.5-4.753,2.5.908-5.293-3.846-3.748,5.314-.772Z" fill="#efc075"/>
    <path id="Path_22278" data-name="Path 22278" d="M23.212,70.854A21.537,21.537,0,1,0,44.749,49.317,21.536,21.536,0,0,0,23.212,70.854" fill="#fff3dc"/>
    <path id="Path_22279" data-name="Path 22279" d="M44.749,76.35a8.729,8.729,0,1,1,8.729-8.73,8.739,8.739,0,0,1-8.729,8.73m0-13.459a4.729,4.729,0,1,0,4.729,4.729,4.735,4.735,0,0,0-4.729-4.729" fill="#c77451"/>
    <path id="Path_22280" data-name="Path 22280" d="M57.659,87.879a2,2,0,0,1-1.941-1.526c-.086-.34-2.252-8.521-10.969-8.521S33.866,86.013,33.778,86.36a2,2,0,0,1-3.885-.955c.977-4,5.337-11.573,14.856-11.573S58.628,81.4,59.6,85.4a2,2,0,0,1-1.469,2.417,2.056,2.056,0,0,1-.476.057" fill="#c77451"/>
    <path id="Path_22281" data-name="Path 22281" d="M92.063,60.825l3.259,6.6,7.286,1.058-5.272,5.14,1.244,7.257-6.517-3.426-6.517,3.426,1.244-7.257-5.272-5.14L88.8,67.428Z" fill="#efc075"/>
    <path id="Path_22282" data-name="Path 22282" d="M120.092,60.825l3.259,6.6,7.286,1.058-5.272,5.14,1.244,7.257-6.517-3.426-6.517,3.426,1.244-7.257-5.272-5.14,7.286-1.058Z" fill="#efc075"/>
    <path id="Path_22283" data-name="Path 22283" d="M19.624,124.761a15.708,15.708,0,1,0,15.707-15.707,15.707,15.707,0,0,0-15.707,15.707" fill="#fff3dc"/>
    <path id="Path_22284" data-name="Path 22284" d="M35.331,129.31a6.907,6.907,0,1,1,6.908-6.908,6.914,6.914,0,0,1-6.908,6.908m0-9.815a2.907,2.907,0,1,0,2.908,2.907,2.91,2.91,0,0,0-2.908-2.907" fill="#c77451"/>
    <path id="Path_22285" data-name="Path 22285" d="M44.747,137.72a2,2,0,0,1-1.941-1.526c-.058-.227-1.554-5.8-7.475-5.8s-7.415,5.574-7.476,5.811a2,2,0,0,1-3.883-.958,11.715,11.715,0,0,1,22.72,0,2,2,0,0,1-1.469,2.417,2.056,2.056,0,0,1-.476.057" fill="#c77451"/>
    <path id="Path_22286" data-name="Path 22286" d="M68.624,117.447,71,122.263l5.314.772-3.846,3.748.908,5.293-4.753-2.5-4.753,2.5.908-5.293-3.846-3.748,5.314-.772Z" fill="#efc075"/>
    <path id="Path_22287" data-name="Path 22287" d="M89.066,117.447l2.377,4.816,5.314.772-3.846,3.748.908,5.293-4.753-2.5-4.753,2.5.908-5.293-3.846-3.748,5.314-.772Z" fill="#efc075"/>
    <path id="Path_22288" data-name="Path 22288" d="M109.508,117.447l2.377,4.816,5.314.772-3.846,3.748.908,5.293-4.753-2.5-4.753,2.5.908-5.293-3.846-3.748,5.314-.772Z" fill="#efc075"/>
    <path id="Path_22289" data-name="Path 22289" d="M129.95,117.447l2.377,4.816,5.314.772-3.846,3.748.908,5.293-4.753-2.5-4.753,2.5.908-5.293-3.846-3.748,5.314-.772Z" fill="#efc075"/>
  </g>
</svg>
