<svg xmlns="http://www.w3.org/2000/svg" xmlns:xlink="http://www.w3.org/1999/xlink" width="122.85" height="136.936" viewBox="0 0 122.85 136.936">
  <defs>
    <linearGradient id="linear-gradient" x1="0.976" y1="1.241" x2="-0.3" y2="0.183" gradientUnits="objectBoundingBox">
      <stop offset="0" stop-color="#1cabe0"/>
      <stop offset="1" stop-color="#107aa3"/>
    </linearGradient>
    <linearGradient id="linear-gradient-2" x1="1.165" y1="1.068" x2="-0.056" y2="0.026" xlink:href="#linear-gradient"/>
    <linearGradient id="linear-gradient-3" x1="1.206" y1="13.706" x2="-0.592" y2="-19.935" xlink:href="#linear-gradient"/>
    <linearGradient id="linear-gradient-4" x1="5.604" y1="3.628" x2="-4.181" y2="-2.369" xlink:href="#linear-gradient"/>
    <linearGradient id="linear-gradient-5" x1="5.328" y1="2.207" x2="-4.456" y2="-1.252" xlink:href="#linear-gradient"/>
    <linearGradient id="linear-gradient-6" x1="4.443" y1="2.74" x2="-5.342" y2="-2.82" xlink:href="#linear-gradient"/>
    <linearGradient id="linear-gradient-7" x1="3.995" y1="2.009" x2="-5.791" y2="-2.216" xlink:href="#linear-gradient"/>
    <linearGradient id="linear-gradient-8" x1="1.574" y1="3.013" x2="-0.386" y2="-1.355" xlink:href="#linear-gradient"/>
    <linearGradient id="linear-gradient-9" x1="7.603" y1="21.476" x2="-3.79" y2="-12.169" xlink:href="#linear-gradient"/>
    <linearGradient id="linear-gradient-10" x1="18.074" y1="7.636" x2="-13.052" y2="-5.003" xlink:href="#linear-gradient"/>
    <linearGradient id="linear-gradient-11" x1="9.789" y1="17.012" x2="-9.136" y2="-16.629" xlink:href="#linear-gradient"/>
    <linearGradient id="linear-gradient-12" x1="2.711" y1="26.195" x2="-0.184" y2="-7.446" xlink:href="#linear-gradient"/>
    <linearGradient id="linear-gradient-13" x1="4.376" y1="21.742" x2="-1.762" y2="-11.898" xlink:href="#linear-gradient"/>
    <linearGradient id="linear-gradient-14" x1="4.424" y1="26.144" x2="-0.724" y2="-7.497" xlink:href="#linear-gradient"/>
    <linearGradient id="linear-gradient-15" x1="3.278" y1="22.362" x2="-0.997" y2="-11.279" xlink:href="#linear-gradient"/>
    <linearGradient id="linear-gradient-16" x1="0.829" y1="0.856" x2="-1.881" y2="-2.073" xlink:href="#linear-gradient"/>
    <linearGradient id="linear-gradient-17" x1="1.165" y1="1.237" x2="-3.892" y2="-5.792" xlink:href="#linear-gradient"/>
  </defs>
  <g id="Group_7445" data-name="Group 7445" transform="translate(-1245.031 4929.335)">
    <path id="Path_61484" data-name="Path 61484" d="M1327.462-4812.08l2.612,10.291h-84.131v-113.086h11.133v102.795Z" transform="translate(-0.075 -1.184)" fill="#1cabe0" opacity="0.15"/>
    <g id="Group_7428" data-name="Group 7428" transform="translate(1245.031 -4917.334)">
      <path id="Path_61485" data-name="Path 61485" d="M1334.666-4799.434h-89.635v-116.831h14.809v102.857h69.484l.072,1.762a17.164,17.164,0,0,0,3.193,9.308Zm-85.962-3.672h79.158a20.8,20.8,0,0,1-1.99-6.629h-69.7v-102.857H1248.7Z" transform="translate(-1245.031 4916.264)" fill="url(#linear-gradient)"/>
    </g>
    <g id="Group_7429" data-name="Group 7429" transform="translate(1256.168 -4929.335)">
      <path id="Path_61486" data-name="Path 61486" d="M1330.517-4810.805h-73.356v-118.53h93.648v98.644l-2-.182c-.34-.032-.679-.039-1.027-.039a17.435,17.435,0,0,0-17.416,17.416c0,.245.007.49.024.733Zm-69.683-3.672h65.88a21.119,21.119,0,0,1,20.423-20.1v-91.087h-86.3Z" transform="translate(-1257.161 4929.335)" fill="url(#linear-gradient-2)"/>
    </g>
    <g id="Group_7430" data-name="Group 7430" transform="translate(1271.132 -4836.913)">
      <path id="Path_61487" data-name="Path 61487" d="M1335.228-4825H1275.3a1.836,1.836,0,0,1-1.836-1.836,1.836,1.836,0,0,1,1.836-1.836h59.932a1.836,1.836,0,0,1,1.836,1.836A1.836,1.836,0,0,1,1335.228-4825Z" transform="translate(-1273.46 4828.67)" fill="url(#linear-gradient-3)"/>
    </g>
    <g id="Group_7431" data-name="Group 7431" transform="translate(1274.386 -4853.957)">
      <path id="Path_61488" data-name="Path 61488" d="M1286.852-4826.634h-8.011a1.836,1.836,0,0,1-1.836-1.836V-4845.4a1.836,1.836,0,0,1,1.836-1.836h8.011a1.836,1.836,0,0,1,1.836,1.836v16.927A1.836,1.836,0,0,1,1286.852-4826.634Zm-6.175-3.673h4.339v-13.255h-4.339Z" transform="translate(-1277.004 4847.234)" fill="url(#linear-gradient-4)"/>
    </g>
    <g id="Group_7432" data-name="Group 7432" transform="translate(1289.523 -4869.076)">
      <path id="Path_61489" data-name="Path 61489" d="M1303.34-4827.982h-8.012a1.836,1.836,0,0,1-1.836-1.836v-32.047a1.837,1.837,0,0,1,1.836-1.836h8.012a1.837,1.837,0,0,1,1.836,1.836v32.047A1.836,1.836,0,0,1,1303.34-4827.982Zm-6.176-3.673h4.34v-28.373h-4.34Z" transform="translate(-1293.491 4863.701)" fill="url(#linear-gradient-5)"/>
    </g>
    <g id="Group_7433" data-name="Group 7433" transform="translate(1304.661 -4855.577)">
      <path id="Path_61490" data-name="Path 61490" d="M1319.827-4826.778h-8.011a1.836,1.836,0,0,1-1.836-1.836v-18.548a1.837,1.837,0,0,1,1.836-1.836h8.011a1.836,1.836,0,0,1,1.836,1.836v18.548A1.836,1.836,0,0,1,1319.827-4826.778Zm-6.175-3.673h4.339v-14.875h-4.339Z" transform="translate(-1309.979 4848.999)" fill="url(#linear-gradient-6)"/>
    </g>
    <g id="Group_7434" data-name="Group 7434" transform="translate(1319.799 -4862.595)">
      <path id="Path_61491" data-name="Path 61491" d="M1336.314-4827.4H1328.3a1.836,1.836,0,0,1-1.836-1.836v-25.566a1.836,1.836,0,0,1,1.836-1.836h8.011a1.836,1.836,0,0,1,1.836,1.836v25.566A1.836,1.836,0,0,1,1336.314-4827.4Zm-6.174-3.673h4.338v-21.894h-4.338Z" transform="translate(-1326.467 4856.643)" fill="url(#linear-gradient-7)"/>
    </g>
    <g id="Group_7435" data-name="Group 7435" transform="translate(1273.771 -4888.259)">
      <path id="Path_61492" data-name="Path 61492" d="M1282.791-4856.31a6.464,6.464,0,0,1-6.457-6.457,6.464,6.464,0,0,1,6.457-6.457,6.464,6.464,0,0,1,6.457,6.457A6.464,6.464,0,0,1,1282.791-4856.31Zm0-9.242a2.787,2.787,0,0,0-2.785,2.785,2.787,2.787,0,0,0,2.785,2.785,2.787,2.787,0,0,0,2.785-2.785A2.787,2.787,0,0,0,1282.791-4865.551Zm30.275,7.619a6.465,6.465,0,0,1-6.457-6.458,6.465,6.465,0,0,1,6.457-6.457,6.465,6.465,0,0,1,6.458,6.457A6.465,6.465,0,0,1,1313.066-4857.933Zm0-9.243a2.788,2.788,0,0,0-2.785,2.785,2.787,2.787,0,0,0,2.785,2.785,2.788,2.788,0,0,0,2.785-2.785A2.788,2.788,0,0,0,1313.066-4867.175Zm15.138,2.251a6.465,6.465,0,0,1-6.458-6.458,6.465,6.465,0,0,1,6.458-6.457,6.464,6.464,0,0,1,6.457,6.457A6.465,6.465,0,0,1,1328.2-4864.924Zm0-9.242a2.788,2.788,0,0,0-2.786,2.784,2.788,2.788,0,0,0,2.786,2.785,2.787,2.787,0,0,0,2.785-2.785A2.787,2.787,0,0,0,1328.2-4874.166Zm-30.276,2.485a6.466,6.466,0,0,1-6.457-6.458,6.464,6.464,0,0,1,6.457-6.456,6.464,6.464,0,0,1,6.458,6.456A6.466,6.466,0,0,1,1297.928-4871.68Zm0-9.242a2.788,2.788,0,0,0-2.785,2.784,2.788,2.788,0,0,0,2.785,2.786,2.789,2.789,0,0,0,2.786-2.786A2.788,2.788,0,0,0,1297.928-4880.922Z" transform="translate(-1276.334 4884.595)" fill="url(#linear-gradient-8)"/>
    </g>
    <g id="Group_7436" data-name="Group 7436" transform="translate(1283.072 -4878.983)">
      <rect id="Rectangle_19435" data-name="Rectangle 19435" width="10.035" height="3.672" transform="translate(0 7.047) rotate(-44.604)" fill="url(#linear-gradient-9)"/>
    </g>
    <g id="Group_7437" data-name="Group 7437" transform="translate(1298.297 -4879.38)">
      <rect id="Rectangle_19436" data-name="Rectangle 19436" width="3.673" height="9.774" transform="matrix(0.675, -0.738, 0.738, 0.675, 0, 2.71)" fill="url(#linear-gradient-10)"/>
    </g>
    <g id="Group_7438" data-name="Group 7438" transform="translate(1314.25 -4874.315)">
      <rect id="Rectangle_19437" data-name="Rectangle 19437" width="6.041" height="3.672" transform="translate(0 2.64) rotate(-25.914)" fill="url(#linear-gradient-11)"/>
    </g>
    <g id="Group_7439" data-name="Group 7439" transform="translate(1271.132 -4910.898)">
      <path id="Path_61493" data-name="Path 61493" d="M1311.117-4905.581H1275.3a1.836,1.836,0,0,1-1.836-1.837,1.836,1.836,0,0,1,1.836-1.836h35.82a1.837,1.837,0,0,1,1.836,1.836A1.837,1.837,0,0,1,1311.117-4905.581Z" transform="translate(-1273.46 4909.254)" fill="url(#linear-gradient-12)"/>
    </g>
    <g id="Group_7440" data-name="Group 7440" transform="translate(1314.365 -4910.898)">
      <path id="Path_61494" data-name="Path 61494" d="M1337.339-4905.581h-14.953a1.836,1.836,0,0,1-1.836-1.837,1.836,1.836,0,0,1,1.836-1.836h14.953a1.837,1.837,0,0,1,1.836,1.836A1.837,1.837,0,0,1,1337.339-4905.581Z" transform="translate(-1320.549 4909.254)" fill="url(#linear-gradient-13)"/>
    </g>
    <g id="Group_7441" data-name="Group 7441" transform="translate(1271.132 -4902.555)">
      <path id="Path_61495" data-name="Path 61495" d="M1293.833-4896.495H1275.3a1.836,1.836,0,0,1-1.836-1.836,1.836,1.836,0,0,1,1.836-1.836h18.537a1.836,1.836,0,0,1,1.836,1.836A1.836,1.836,0,0,1,1293.833-4896.495Z" transform="translate(-1273.46 4900.167)" fill="url(#linear-gradient-14)"/>
    </g>
    <g id="Group_7442" data-name="Group 7442" transform="translate(1296.728 -4902.555)">
      <path id="Path_61496" data-name="Path 61496" d="M1326.246-4896.495h-23.07a1.836,1.836,0,0,1-1.836-1.836,1.836,1.836,0,0,1,1.836-1.836h23.07a1.837,1.837,0,0,1,1.836,1.836A1.837,1.837,0,0,1,1326.246-4896.495Z" transform="translate(-1301.339 4900.167)" fill="url(#linear-gradient-15)"/>
    </g>
    <g id="Group_7443" data-name="Group 7443" transform="translate(1325.698 -4834.583)">
      <path id="Path_61497" data-name="Path 61497" d="M1353.984-4783.948a21.116,21.116,0,0,1-21.092-21.093,21.115,21.115,0,0,1,21.092-21.091,21.115,21.115,0,0,1,21.092,21.091A21.117,21.117,0,0,1,1353.984-4783.948Zm0-38.512a17.439,17.439,0,0,0-17.419,17.419,17.44,17.44,0,0,0,17.419,17.42,17.44,17.44,0,0,0,17.419-17.42A17.439,17.439,0,0,0,1353.984-4822.46Z" transform="translate(-1332.892 4826.132)" fill="url(#linear-gradient-16)"/>
    </g>
    <g id="Group_7444" data-name="Group 7444" transform="translate(1335.901 -4821.664)">
      <path id="Path_61498" data-name="Path 61498" d="M1351.635-4794.487l-7.092-7.092a1.836,1.836,0,0,1,0-2.6,1.835,1.835,0,0,1,2.6,0l4.5,4.495,11.845-11.843a1.836,1.836,0,0,1,2.6,0,1.836,1.836,0,0,1,0,2.6Z" transform="translate(-1344.005 4812.062)" fill="url(#linear-gradient-17)"/>
    </g>
  </g>
</svg>
