<svg xmlns="http://www.w3.org/2000/svg" xmlns:xlink="http://www.w3.org/1999/xlink" width="515.959" height="390.536" viewBox="0 0 515.959 390.536">
  <defs>
    <clipPath id="clip-path">
      <circle id="Ellipse_8421" data-name="Ellipse 8421" cx="34.475" cy="34.475" r="34.475" transform="matrix(0.811, -0.585, 0.585, 0.811, 0, 40.317)" fill="none"/>
    </clipPath>
    <clipPath id="clip-path-2">
      <circle id="Ellipse_8422" data-name="Ellipse 8422" cx="35.502" cy="35.502" r="35.502" transform="translate(0 70.948) rotate(-87.715)" fill="none"/>
    </clipPath>
  </defs>
  <g id="Group_7207" data-name="Group 7207" transform="translate(-742.895 -243.976)">
    <line id="Line_1071" data-name="Line 1071" x2="72.671" transform="translate(847.297 624.487)" fill="none" stroke="#6048b8" stroke-width="1" opacity="0.62"/>
    <line id="Line_1072" data-name="Line 1072" x2="72.671" transform="translate(1032.09 624.487)" fill="none" stroke="#6048b8" stroke-width="1" opacity="0.62"/>
    <g id="Group_7204" data-name="Group 7204" transform="translate(744 243.976)">
      <g id="Group_5165" data-name="Group 5165" transform="translate(0 123.926)">
        <g id="Group_5164" data-name="Group 5164">
          <path id="Path_13177" data-name="Path 13177" d="M10175.766-201.7h457.806a21.971,21.971,0,0,1,21.826,22.1,21.963,21.963,0,0,1-21.826,21.824h-457.806a21.961,21.961,0,0,1-21.821-22.1A21.96,21.96,0,0,1,10175.766-201.7Z" transform="translate(-10142.032 371.524)" fill="none" stroke="#fff" stroke-linecap="round" stroke-linejoin="round" stroke-width="2"/>
          <path id="Path_13178" data-name="Path 13178" d="M10185.993-97.275c-65.345-41.033-39.57-169.827,47.86-169.827,63.191,0,89.059,68.346,192.848,68.346h182.1c58.773,0,71.078,72.646,31.026,101.478" transform="translate(-10149.355 267.102)" fill="none" stroke="#fff" stroke-linecap="round" stroke-linejoin="round" stroke-width="2"/>
          <path id="Path_13179" data-name="Path 13179" d="M10166.755-184.779l6.831,30.844h6.54l6.563-30.844" transform="translate(-10121.585 398.534)" fill="none" stroke="#fff" stroke-linecap="round" stroke-linejoin="round" stroke-width="2"/>
          <path id="Path_13180" data-name="Path 13180" d="M10329.976-184.779l6.8,30.683h6.537l6.525-30.683" transform="translate(-9860.99 398.534)" fill="none" stroke="#fff" stroke-linecap="round" stroke-linejoin="round" stroke-width="2"/>
          <path id="Path_13181" data-name="Path 13181" d="M10177.592-184.776l6.488,28.554,6.926-.018,5.974-28.541" transform="translate(-10104.274 398.531)" fill="none" stroke="#fff" stroke-linecap="round" stroke-linejoin="round" stroke-width="2"/>
          <path id="Path_13182" data-name="Path 13182" d="M10315-184.779l6.294,27.734,6.736-.016,6.079-27.632" transform="translate(-9884.901 398.534)" fill="none" stroke="#fff" stroke-linecap="round" stroke-linejoin="round" stroke-width="2"/>
        </g>
      </g>
      <g id="Group_5170" data-name="Group 5170" transform="translate(55.669 218.925)">
        <path id="Path_13199" data-name="Path 13199" d="M10267.886-179.3c-5.382-1.433-4.724-7.486-19.007-25.659-11.125-14.154-19.143-17.947-20.594-25.555-2.846,7.447-24.244,15.421-31.238,20.152-13.89,9.394-17.049,18.347-26.251,19.321,10.053,6.5,21.257,27.856,42.486,33.067C10237.156-152.11,10252.664-177.294,10267.886-179.3Z" transform="translate(-10170.796 230.515)" fill="#378e87" fill-rule="evenodd"/>
        <path id="Path_13200" data-name="Path 13200" d="M10214.328-203.919c-1.563.706-3.319.808-11.608-4.188-.249-.151-.466-.3.32-.3,3.295-.016,7.947-1.579,11.4-3.337-6.932,1.114-15.169,3.326-29.1-4.98a75.3,75.3,0,0,0,6.5,4.648c.522.312.049.4-.136.392-2.338-.151-6.355-.254-9.608-3.139,1.428,2.259,4.037,4.238,8.55,3.747a7.512,7.512,0,0,1,3.681.343,26.081,26.081,0,0,0,5.681,1.958,6.221,6.221,0,0,1,2.546,1.119C10205.98-205,10212.479-199.954,10214.328-203.919Z" transform="translate(-10152.747 252.527)" fill="#86c6a1" fill-rule="evenodd"/>
      </g>
      <g id="Group_5171" data-name="Group 5171" transform="translate(317.064 220.896)">
        <path id="Path_13201" data-name="Path 13201" d="M10359.021-195.728c-8.763,2.552-11.4,9.836-19.427,22.678-6.273,10.036-18.321,13.38-18.459,23.592-7.487-14.6-15.806-13.45-24.061-19.731-10.923-8.314-15.408-19.285-25.606-21,6.95-1.9,9.1-9.6,17.7-19.542,8.582-9.921,20.185-14.754,21.744-20.024,4.2,7.14,14.821,7.626,25.327,17.093C10344.99-204.783,10349.905-197.925,10359.021-195.728Z" transform="translate(-10271.468 229.756)" fill="#378e87" fill-rule="evenodd"/>
        <path id="Path_13202" data-name="Path 13202" d="M10281.75-219.791c6.409-6.587,14.9-10.791,27.471-2.191C10300.172-226.615,10290.363-226.386,10281.75-219.791Z" transform="translate(-10255.049 234.438)" fill="#86c6a1" fill-rule="evenodd"/>
      </g>
      <g id="Group_5172" data-name="Group 5172" transform="translate(384.769 214.541)">
        <path id="Path_13203" data-name="Path 13203" d="M10323.8-222.976l11.589,2.152a40.356,40.356,0,0,0-3.988-10.861A32.59,32.59,0,0,0,10323.8-222.976Zm-20.115,20.606a28.584,28.584,0,0,1-6.141-8.841,25.93,25.93,0,0,1,9.173-1.646q-1.518,5.246-3.032,10.487Z" transform="translate(-10297.542 233.032)" fill="#dc4427" fill-rule="evenodd"/>
        <path id="Path_13204" data-name="Path 13204" d="M10342.3-208.049c29.027-7.473,40.767,16.595,32.665,44.5,12.841,3.62,16.488-7.774,8.229-21.341-9.12-14.977-15.476-31.5,3.389-43.336,11.224-7.039,27.084-5.712,34.048,12.027,6.753,17.21-4.411,31.979-22.923,28.315,8.923,22.844-2.963,39.592-27.518,33.2-1.687,4.079-33.357,8.093-35.02,1.818-3.172.47-7.162.371-7.506-.226-2.049-3.552,4.127-7.364,6.127-8.2a11.252,11.252,0,0,1-3.137-2.212c-2.681,2.952-13.66,14.761-18.674,10.864-3.269-2.539.951-6.831,2.7-8.415-8.089,1.033-6.189-7.166.55-11.207a52.4,52.4,0,0,1,.446-9.942c-15.895-4.1-21.295-23.06-9.072-34.132C10317.7-226.386,10336.367-223.553,10342.3-208.049Z" transform="translate(-10293.769 232.204)" fill="#ec701e" fill-rule="evenodd"/>
        <path id="Path_13205" data-name="Path 13205" d="M10358.4-202.076c-9.561,5.3-22.619,2.732-23.957-7.971-1.1-8.771,3.89-16.143,14.048-14.065-9.557.322-12.9,5.86-11.087,13.969C10339.087-202.574,10347.179-197.955,10358.4-202.076Z" transform="translate(-10238.868 244.557)" fill="#dc4427" fill-rule="evenodd"/>
        <path id="Path_13206" data-name="Path 13206" d="M10325.875-185.862c3.4-.807,8.768-5.915,10.1-25.617C10332.953-194.539,10329.441-188.871,10325.875-185.862Z" transform="translate(-10252.308 265.291)" fill="#744630" fill-rule="evenodd"/>
        <path id="Path_13207" data-name="Path 13207" d="M10356.416-207.057c-2.992,10.687-13.506,16.324-29.344,12.292h0a13.516,13.516,0,0,0,2.281-3.067C10337.643-192.228,10352.968-196.03,10356.416-207.057Z" transform="translate(-10250.393 272.351)" fill="#dc4427" fill-rule="evenodd"/>
        <path id="Path_13208" data-name="Path 13208" d="M10341.507-211.454c-5.745-.27-13.631,2.786-15.99,9.457-2.88,8.151-.584,10.542.484,10.9-1.194-.016-1.142-.613-2.441-.343-4.668.969-7.059,3.459-7.294,5.681-.283-1.745.771-3.562,3.3-4.959.577-.319.482-.621-.139-.828a19.177,19.177,0,0,1-7.677-4.848,23.787,23.787,0,0,0,7.772,4.09,6.717,6.717,0,0,0,3.733.161.6.6,0,0,0,.539-.657.593.593,0,0,0-.087-.254c-1.316-2.822-.013-7.652.733-9.342C10326.587-207.271,10332.037-212.547,10341.507-211.454Z" transform="translate(-10274.86 265.1)" fill="#744630" fill-rule="evenodd"/>
        <path id="Path_13209" data-name="Path 13209" d="M10314.433-199.549a2.737,2.737,0,0,1,.7-1.908c.212-.2.636-.018.313.33A3.879,3.879,0,0,0,10314.433-199.549Z" transform="translate(-10270.579 281.16)" fill="#744630" fill-rule="evenodd"/>
        <path id="Path_13210" data-name="Path 13210" d="M10315.114-201.406a4.194,4.194,0,0,0-1.028,1.953,3.113,3.113,0,0,1,.653-2.262C10314.98-202,10315.38-201.728,10315.114-201.406Z" transform="translate(-10271.157 280.692)" fill="#744630" fill-rule="evenodd"/>
        <path id="Path_13211" data-name="Path 13211" d="M10314.345-201.547a3.548,3.548,0,0,0-.449,1.818,3.136,3.136,0,0,1,.094-2.08C10314.123-202.108,10314.61-202,10314.345-201.547Z" transform="translate(-10271.651 280.462)" fill="#744630" fill-rule="evenodd"/>
        <path id="Path_13212" data-name="Path 13212" d="M10310.935-200.275a2.725,2.725,0,0,1,.7-1.908c.21-.2.637-.018.312.33A3.859,3.859,0,0,0,10310.935-200.275Z" transform="translate(-10276.166 280.001)" fill="#744630" fill-rule="evenodd"/>
        <path id="Path_13213" data-name="Path 13213" d="M10311.647-202.154a4.2,4.2,0,0,0-1.029,1.953,3.116,3.116,0,0,1,.652-2.262C10311.514-202.741,10311.911-202.476,10311.647-202.154Z" transform="translate(-10276.693 279.499)" fill="#744630" fill-rule="evenodd"/>
        <path id="Path_13214" data-name="Path 13214" d="M10343.743-210.859c-3.014.153-3.751,1.914-4.925,3.565-5.85,8.254-15.084,12.7-34.352,14.478a75.811,75.811,0,0,0,17.451-2.321,23.428,23.428,0,0,1-5.608,6.585,31.458,31.458,0,0,0,7.1-6.655l.108.093-.1-.1.006-.005a23.8,23.8,0,0,0,7.722,4.045,6.685,6.685,0,0,0,3.731.161.6.6,0,0,0,.537-.654.533.533,0,0,0-.086-.257,8.6,8.6,0,0,1-.5-4.313,15.21,15.21,0,0,1-4.091-2.365,25.086,25.086,0,0,0,9.058-8.125c.267-.408.513-.841.761-1.267a13.591,13.591,0,0,0,6.613-4.308c-1.647,1.3-3.711,2.786-5.82,3.082A4.18,4.18,0,0,1,10343.743-210.859Z" transform="translate(-10286.485 263.973)" fill="#dc4427" fill-rule="evenodd"/>
        <path id="Path_13215" data-name="Path 13215" d="M10304.974-199.813a3.742,3.742,0,0,1,.957-2.617c.285-.27.873-.026.429.452A5.368,5.368,0,0,0,10304.974-199.813Z" transform="translate(-10285.688 279.559)" fill="#744630" fill-rule="evenodd"/>
        <path id="Path_13216" data-name="Path 13216" d="M10305.955-202.458a5.451,5.451,0,0,0-1.32,2.519,4.027,4.027,0,0,1,.842-2.913C10305.782-203.216,10306.3-202.873,10305.955-202.458Z" transform="translate(-10286.254 278.818)" fill="#744630" fill-rule="evenodd"/>
        <path id="Path_13217" data-name="Path 13217" d="M10304.075-203.77a3.324,3.324,0,0,1,1.607-1.893c.32-.138.734.249.213.514A4.686,4.686,0,0,0,10304.075-203.77Z" transform="translate(-10287.119 274.53)" fill="#744630" fill-rule="evenodd"/>
        <path id="Path_13218" data-name="Path 13218" d="M10305.981-205.542a5.227,5.227,0,0,0-2.247,1.589,3.905,3.905,0,0,1,2-2.145C10306.166-206.272,10306.46-205.75,10305.981-205.542Z" transform="translate(-10287.661 273.827)" fill="#744630" fill-rule="evenodd"/>
        <path id="Path_13219" data-name="Path 13219" d="M10305.069-205.934a4.159,4.159,0,0,0-1.576,1.514,3.641,3.641,0,0,1,1.4-1.994C10305.207-206.627,10305.619-206.211,10305.069-205.934Z" transform="translate(-10288.04 273.284)" fill="#744630" fill-rule="evenodd"/>
        <path id="Path_13220" data-name="Path 13220" d="M10305.757-188.378a41.047,41.047,0,0,1,.639-10.1c17.191,3.492,29.8-9.625,27.3-23.535,4.315,12.4-3.024,20.585-13.159,24.571C10315.176-195.326,10310.41-191.706,10305.757-188.378Z" transform="translate(-10284.49 248.481)" fill="#dc4427" fill-rule="evenodd"/>
        <path id="Path_13221" data-name="Path 13221" d="M10308.923-205.6a53.833,53.833,0,0,1,19.565-9.2C10321.535-211.775,10315.429-208.945,10308.923-205.6Z" transform="translate(-10279.377 259.989)" fill="#744630" fill-rule="evenodd"/>
        <path id="Path_13222" data-name="Path 13222" d="M10304.806-225.341c-4.826,5.323-6.292,11.6-3.7,19.035C10299.54-213.14,10300.475-219.538,10304.806-225.341Z" transform="translate(-10293.875 243.16)" fill="#744630" fill-rule="evenodd"/>
        <path id="Path_13223" data-name="Path 13223" d="M10305.617-227.1c8.743-2.755,16.065-1.267,21.935,4.565C10321.924-227.261,10314.731-229.014,10305.617-227.1Z" transform="translate(-10284.65 238.223)" fill="#744630" fill-rule="evenodd"/>
        <path id="Path_13224" data-name="Path 13224" d="M10309.05-207.923c-3.824-5.486,1.1-11.947,6.459-11.736,7.628.3,9.476,7.727,6.654,11.352C10318.306-203.345,10311.675-204.158,10309.05-207.923Z" transform="translate(-10281.339 252.224)" fill="#fff" fill-rule="evenodd"/>
        <path id="Path_13225" data-name="Path 13225" d="M10309.479-218.092a45.322,45.322,0,0,1,4.629,5.64c.706.942.086,3.305-2.259,3.456,2.353.247,3.43-.865,2.882-3.116,2.279.548,3.338-.857,3.139-2.542-.117,1.888-2.691,2.719-3.35,1.921a29.309,29.309,0,0,1-3.971-6.071C10310.338-218.673,10309.691-218.221,10309.479-218.092Z" transform="translate(-10278.485 253.598)" fill="#ec701e" fill-rule="evenodd"/>
        <path id="Path_13226" data-name="Path 13226" d="M10311.168-215.079c-3.7-4.583-4.043-7.475,1.7-7.3C10309.105-221.928,10308.288-220.02,10311.168-215.079Z" transform="translate(-10280.111 247.872)" fill="#744630" fill-rule="evenodd"/>
        <path id="Path_13227" data-name="Path 13227" d="M10306.05-216.958c-.482-5.32,5.5-5.242,7.466.517C10310.905-221.038,10307.184-221.118,10306.05-216.958Z" transform="translate(-10284.002 250.318)" fill="#744630" fill-rule="evenodd"/>
        <path id="Path_13228" data-name="Path 13228" d="M10312.145-216.016a10.292,10.292,0,0,1-3.6-1.083c-.173-.091-.118-.436.018-.579a6.931,6.931,0,0,1,3.482-2.173c.246-.044.478-.036.485.226A14.031,14.031,0,0,1,10312.145-216.016Z" transform="translate(-10280.155 251.892)" fill="#ee7b57" fill-rule="evenodd"/>
        <path id="Path_13229" data-name="Path 13229" d="M10310.074-219.736a2.68,2.68,0,0,0,3.046-1.213C10314.313-219.4,10310.018-217.947,10310.074-219.736Z" transform="translate(-10277.538 250.172)" fill="#714d63" fill-rule="evenodd"/>
        <path id="Path_13230" data-name="Path 13230" d="M10309.637-219.113a3.11,3.11,0,0,1-2.411,2.114C10308.065-215.644,10311.161-218.441,10309.637-219.113Z" transform="translate(-10282.084 253.103)" fill="#714d63" fill-rule="evenodd"/>
        <path id="Path_13231" data-name="Path 13231" d="M10315.088-220.684a11.452,11.452,0,0,0-3.856,5.037c-.084.252.577.675.668.428A15.055,15.055,0,0,1,10315.088-220.684Z" transform="translate(-10275.698 250.595)" fill="#744630" fill-rule="evenodd"/>
        <path id="Path_13232" data-name="Path 13232" d="M10318.718-219.472c-.634-.41-4.1-.06-6.234,1.171-.23.132.3.779.532.657A13.5,13.5,0,0,1,10318.718-219.472Z" transform="translate(-10273.782 252.268)" fill="#744630" fill-rule="evenodd"/>
        <path id="Path_13233" data-name="Path 13233" d="M10312.822-217.442c-.237.029-.44-.657-.2-.691a15.813,15.813,0,0,1,5.333.3A36.872,36.872,0,0,0,10312.822-217.442Z" transform="translate(-10273.642 254.507)" fill="#744630" fill-rule="evenodd"/>
        <path id="Path_13234" data-name="Path 13234" d="M10312.158-216.69c.374.062,1.051-.9.668-.919a13.144,13.144,0,0,0-5.736,1.311A16.714,16.714,0,0,1,10312.158-216.69Z" transform="translate(-10282.304 255.505)" fill="#744630" fill-rule="evenodd"/>
        <path id="Path_13235" data-name="Path 13235" d="M10312.4-215.755c.429-.179-.223-1.028-.722-.771a16.991,16.991,0,0,0-4.355,3.446A31.485,31.485,0,0,1,10312.4-215.755Z" transform="translate(-10281.925 257.156)" fill="#744630" fill-rule="evenodd"/>
        <path id="Path_13236" data-name="Path 13236" d="M10310.974-215.93c.3-.423,1.135-.073.771.343a19.242,19.242,0,0,0-2.786,4.469A11.935,11.935,0,0,1,10310.974-215.93Z" transform="translate(-10279.319 257.879)" fill="#744630" fill-rule="evenodd"/>
      </g>
      <g id="Group_5173" data-name="Group 5173" transform="translate(113.188 48.238)">
        <path id="Path_13237" data-name="Path 13237" d="M10228.146-189.91l-11.9,7.029s-2.8,7.787-1.172,14.055c1.621,6.232,9.957,8.511,9.957,8.511l13.719-9.625Z" transform="translate(-10158.441 466.03)" fill="#efd4e0" fill-rule="evenodd"/>
        <path id="Path_13238" data-name="Path 13238" d="M10224-191.548s-7.354,11.6-5.757,21.294,2.045,12.559,2.045,12.559l12.943-9.623Z" transform="translate(-10152.924 463.415)" fill="#e3c1ce" fill-rule="evenodd"/>
        <path id="Path_13239" data-name="Path 13239" d="M10263.584-179.2l4.151,11.534c2.783,1.158,1.33,2.706,4.053,3.37a35.6,35.6,0,0,0,10.455.389l7.232-10.311-3.31-11.721Z" transform="translate(-10080.179 472.373)" fill="#efd4e0" fill-rule="evenodd"/>
        <path id="Path_13240" data-name="Path 13240" d="M10263.793-178.28s10.159.452,14.038,1.464c4.464,1.163,8.391,9.329,8.391,9.329l2.673-6.951-3.105-11.7Z" transform="translate(-10079.842 472.054)" fill="#e3c1ce" fill-rule="evenodd"/>
        <path id="Path_13241" data-name="Path 13241" d="M10213.744-222.5a11.788,11.788,0,0,1-2.764,5.528c-18.47,21.4-14.27,54.286,16.322,57.664,11.823,1.306,27.706-1.5,41.835-5.074a98.988,98.988,0,0,0-8.642,8.21c-6.3,7.052-11.516,16.047-11.516,15.891.067,21.17,5.912,36.136,22.113,40.994,8.576-8.906,17.313-17.534,29.245-28.559,6.014-5.549,14.659-15.54,22.093-24.989,3.633,11.679,7.44,26.692,14.759,44.336,18.319,3.048,46.516-5.842,53.89-10.363-4.55-14.273-40.026-71.41-54.809-91.892a9.115,9.115,0,0,0-6.682-4.144c-5.111-1.3-40.544-.306-59.656,3.913-1.092.244.42-2.885-1.148-2.763a22.221,22.221,0,0,0-6.447,1.612s-5.843-14.665-18.428-15.891C10221.384-230.219,10213.744-222.5,10213.744-222.5Z" transform="translate(-10181.797 404.549)" fill="#714d63" fill-rule="evenodd"/>
        <path id="Path_13242" data-name="Path 13242" d="M10287.549-182.59s-15.522,7.566-21.066,6.019c-.683-.19-1.874-.766-1.965-.491-.257.795,1.637,4.767,2.895,15.442.17,1.47-1.877,3.147-1.437,4.754.364,1.322,1.186,4.484,1.716,6.027,4.351,12.7,5.515,12.141,6.389,12.534s3.795-.031,3.795-.031l-4.781-15.642s3.667-.989,4.872.984,4.506,10.669,8.718,12.1,23.508,3.111,27.789-2.711c1.688-2.3,1.065-6.354,1.065-6.354a12.584,12.584,0,0,0-6.066-1.553c-2.111,0-7.07-1.132-8.533-3.085S10288.425-174.38,10287.549-182.59Z" transform="translate(-10078.728 477.717)" fill="#714d63" fill-rule="evenodd"/>
        <path id="Path_13243" data-name="Path 13243" d="M10248.567-164.208c-1.826.044-14.772-4.136-8.75-23.26-1.768,1.129-9,3.871-15.449,7.411a89.825,89.825,0,0,0-16.093,11.767l-.589,4.378,3.462,1.47c.181-.086,9.641-7.089,12.486-8.815.915-.558-10.109,7.7-12.43,9.488-3.386,2.6-6.271,7.185-7.537,9.412-9.832,17.334,5.89,22.8,9.439,24.306,3.423,1.449,6.91-5.3,6.91-5.3-.108-.112.914-1.971.69-3.916-.348-3.035,2.577-6.411,10.591-13.585C10237.021-155.977,10248.567-164.208,10248.567-164.208Z" transform="translate(-10180.925 469.929)" fill="#714d63" fill-rule="evenodd"/>
        <path id="Path_13244" data-name="Path 13244" d="M10402.985-134.921s-5,0-5.949-.07a22.952,22.952,0,0,1-3.035-.436c1.866-3.7,9.9-6.172,9.9-6.172l-.915,6.678Zm-20.04-8.291c-1.3-1.519-1.754-5.528-4.831-6.45l11.344-1.148s-5.811,7.1-6.513,7.6Zm-10.92,2.571-1.149-3.627,3.539,1.41Zm7.771-20.778s-8.3,7.559-10.37,7.411c.9-1.213.471-4.425-.069-6.549,0,0,6.541-.711,10.439-.862Zm-151.123-7.128c2.816,2.389,9.875,7.372,9.875,7.372l-2.535,2.3s-1.655-1.571-3.228-2.765-6.933-9.3-4.112-6.907Zm-17.565,19.412c10.969-1.249,12.012,1.828,12.012,1.828l-3.245,3.866-6.382-3.42s-4.741-2-2.383-2.275Zm-9.957,6.961s-.873-5.359.318-5.648c2.819-.678,5,4.287,5,4.287l-5.312,1.358Zm10.73-30.748a10.662,10.662,0,0,1,1.794-1.384l-.449,2.765S10211.511-172.457,10211.881-172.922Zm-5.8,15.925a21.414,21.414,0,0,1,3.35-4.874s6.434,2.542,8.857,5.868C10218.283-156,10208.941-154.743,10206.076-157Zm27.864-.265s-10.482-6.5-14.318-3.962c2.653,1.7,7.408,9.49,7.408,9.49Zm-9.341-20.05c-2.572.042-2.479-2.781-2.479-2.781,2.769-1.449,6.169-3.42,6.512-3.282s-1.455,6.021-4.027,6.063Zm7.036,5.315c2.244,4.57,9.356,9.21,9.356,9.21l2.388-1.475s-7.227-4.567-9.212-9.119c-1.719-3.942-.92-12.666-.92-12.666l-2.765,1.612s-.715,8.626,1.152,12.437Zm137.029,7.138a11.949,11.949,0,0,1-.46-2.532c-.03-.171,6.074,3.124,21.275-5.071a21.838,21.838,0,0,1,.831,2.537s-13.554,7.572-21.646,5.066Zm17.018,3.731c1.961.462,7.628-2.119,7.628-2.119l-1.842-3.916s-7.747,5.572-5.784,6.034Zm5.012,17.163c.219.919,8.833-8.031,8.833-8.031l-3.173-5.723s-6.919,8.475-5.655,13.754Zm7.271-.859,3.147-4.824c-.018.244.75,1.028,1.824,2.134.7.73,2.41,1.223,2.314,1.561-.239.849-7.286,1.132-7.286,1.132Zm11,2.765.186-3,2.809.164Z" transform="translate(-10180.343 472.198)" fill="#81779d" fill-rule="evenodd"/>
        <path id="Path_13245" data-name="Path 13245" d="M10209.231-162.033s-1.045-6.619-2.994-5.068-1.381,5.068-1.381,5.068S10207.4-159.9,10209.231-162.033Z" transform="translate(-10174.061 502.07)" fill="#81779d" fill-rule="evenodd"/>
        <path id="Path_13246" data-name="Path 13246" d="M10254.056-217.106c-.782.652-7.527,2.887-10.827,6.32-3.329,3.456-5.573,9.059-4.266,13.224,1.057,3.368,3.129,3.98,3.129,3.98Z" transform="translate(-10120.093 422.611)" fill="#714d63" fill-rule="evenodd"/>
        <path id="Path_13247" data-name="Path 13247" d="M10222.212-179.275c-3.7-3.163-14.082-15.057-14.082-15.057s-2.15-10.145-1.346-10.965,9.44-4.837,9.44-4.837-.73-.867,8.521-5.066c9.075-4.116,25.749,2.524,25.749,2.524s2.16,16.28-.14,22.751c-.618,1.729-12.8,6.25-15.016,7.657C10233.662-181.807,10223.552-178.127,10222.212-179.275Z" transform="translate(-10171.15 423.505)" fill="#714d63" fill-rule="evenodd"/>
        <path id="Path_13248" data-name="Path 13248" d="M10322.413-152.876c3.521,11.861,8.007,26.329,14.777,44.375,13.427,3.048,44.134-4.321,53.892-10.363-4.36-14.793-40.026-71.41-54.815-91.892a9.088,9.088,0,0,0-6.677-4.144c-5.109-1.3-40.544-.306-59.653,3.913-1.1.241.419-2.885-1.149-2.763a22.228,22.228,0,0,0-6.447,1.612s-5.842-14.665-18.428-15.891c-22.533-2.191-30.168,5.525-30.168,5.525a11.8,11.8,0,0,1-2.767,5.528c-18.469,21.4-14.27,54.286,16.323,57.664,11.739,1.3,27.478-1.462,41.527-5m121.785,54.883s-15.515,7.566-21.063,6.019c-.683-.19-1.874-.766-1.966-.491-.256.795,1.638,4.767,2.9,15.442.17,1.47-1.877,3.147-1.436,4.754.362,1.322,1.185,4.484,1.715,6.027,4.348,12.7,5.517,12.141,6.387,12.533s3.795-.031,3.795-.031l-4.781-15.642s3.667-.989,4.876.984,4.5,10.669,8.718,12.1,23.5,3.111,27.786-2.711c1.685-2.3,1.065-6.354,1.065-6.354a12.587,12.587,0,0,0-6.069-1.553c-2.108,0-7.068-1.132-8.53-3.085s-12.514-19.778-13.386-27.991Zm-141.177,10.594c-1.826.044-14.772-4.136-8.749-23.26-1.768,1.129-9,3.871-15.45,7.411a89.911,89.911,0,0,0-16.095,11.767l-.587,4.378,3.462,1.47c.183-.086,9.641-7.089,12.484-8.815.917-.558-10.107,7.7-12.428,9.488-3.383,2.6-6.271,7.185-7.536,9.412-9.833,17.334,5.889,22.8,9.438,24.306,3.422,1.449,6.91-5.3,6.91-5.3-.108-.112.912-1.971.69-3.916-.348-3.035,2.577-6.411,10.592-13.585,5.727-5.128,17.273-13.359,17.273-13.359Zm47.1-87.711c-8.471,5.346-29.374,22.9-36.048,30.367-6.3,7.052-11.515,16.047-11.515,15.891.067,21.17,5.914,36.136,22.111,40.994,8.577-8.906,17.313-17.534,29.249-28.559,11.665-10.77,33.267-38.278,36.618-46.06,1.7-3.936,7.152-23.925-14.508-29.707-5.493-1.467-45.425-6.291-80.923,3.968,0,0-6.721,1.745-9.974,5.235m152.656,60.541c-2.819,1.628-35.555,14.151-52.681,9.638M10280-108.371c-9.214-2.288-21.1-16.379-21.389-45.606m-15.471-46.128a24.645,24.645,0,0,0-10.772,1.239m51.349,21.873c.759-3.381,3.112-7.083,7.445-11.183m-82.606,89.643a111.294,111.294,0,0,1,15.363-10.425,10.493,10.493,0,0,0,.627,3.059" transform="translate(-10181.802 404.549)" fill="none" stroke="#fdfdfd" stroke-linecap="round" stroke-linejoin="round" stroke-width="0.33"/>
        <path id="Path_13249" data-name="Path 13249" d="M10229.716-217.508s15.759,11.344,20.08,15.813c1.711,2.077,2.074.792,4.216-1.6,3.641-4.074,24.742-14.333,31.513-16.924,3.707-1.418,9.11-4.614,10.627-8.2,1.448-3.414-.3-11.256,2.918-13.767,5.966-4.656,6.2-4.25,7.532-5.892s.857-6.608,2.439-5.224c2.088,1.825,2.517,6.05,1.558,7.909s2.5,6.559-.52,8.215c-3.039,1.667,15.314-.371,15.314-.371l-11.522,16.574-7.332,7.107s-35.964,32.345-40.477,35.051c-3.825,2.293-16.63,8.667-30.621-2.121-13.245-13.061-19.021-20.827-19.021-20.827S10217.649-218.892,10229.716-217.508Z" transform="translate(-10155.475 364.435)" fill="#efd4e0" fill-rule="evenodd"/>
        <path id="Path_13250" data-name="Path 13250" d="M10229.623-240.326s16.32,13.7,19.644,18.646c-13.6,9.524-15.981,15.068-13.1,21.577-.448-.449-6.162-4.113-9.3-9.81a102.366,102.366,0,0,0-9.4-13.627S10217.6-241.72,10229.623-240.326Z" transform="translate(-10153.807 385.417)" fill="#e3c1ce" fill-rule="evenodd"/>
        <path id="Path_13251" data-name="Path 13251" d="M10233.279-233.429s-3.423,4.2-3.622,5.393c-.367,2.163-1.009,4.57-.855,6.071-.947-.46-.069-6.59-.069-6.59S10231.677-233.149,10233.279-233.429Z" transform="translate(-10136.411 396.551)" fill="#e3c1ce" fill-rule="evenodd"/>
        <path id="Path_13252" data-name="Path 13252" d="M10262.4-249.506l17.2.82s2.965,3.661-1.194,3.739c-4.185.078-17.479.917-17.479.917Z" transform="translate(-10084.435 370.883)" fill="#efd4e0" fill-rule="evenodd"/>
        <path id="Path_13253" data-name="Path 13253" d="M10214.425-213.034l14.679,11.349s3.917-5.546,21.647-11.285c7.425-2.4,16.369-7.548,24.182-13.819,2.033-1.633,3.506-2.069,5.3-3.916,7.105-7.322,12.038-16.807,13-17.376a32.255,32.255,0,0,1,14.178-4.04c2.914,0,5.373-.317,8.749,2.3.175.138-.513,1.327-1.609,2.072-1.134.771-5.649.187-6.682.46a27.406,27.406,0,0,0-5.3,1.844c4.209.6,7.778,4.154,5.757,6.678-2.5,3.129-.876,3.373-3.685,5.528-2.029.963-3.147,1.3-2.991,2.072-1.257,2.667-5.56,10.134-11.742,13.128-7.208,3.485-33.294,32.462-48.367,41.682-12.381,7.579-17.438,1.34-20.491-.675-1.957-1.293-8.579-6.645-14.263-11.388-2.735-2.277-3.636-8.561-5.316-10.043C10196.268-203.048,10211.787-213.021,10214.425-213.034Z" transform="translate(-10181.032 366.691)" fill="#efd4e0" fill-rule="evenodd"/>
        <path id="Path_13254" data-name="Path 13254" d="M10211.536-237.315l14.048,11.742c-5.113-2.646-12.78,3.292-14.276,4.837-4.035,4.162-3.246,9.467-.46,14.509a38.6,38.6,0,0,1-6.913-5.068C10198.734-215.878,10208.9-237.3,10211.536-237.315Z" transform="translate(-10177.741 390.346)" fill="#e3c1ce" fill-rule="evenodd"/>
        <path id="Path_13255" data-name="Path 13255" d="M10214.486-233.326s-4.9,7.164-3.976,9.586C10211.28-221.743,10207.751-227.255,10214.486-233.326Z" transform="translate(-10165.313 396.715)" fill="#e3c1ce" fill-rule="evenodd"/>
        <path id="Path_13256" data-name="Path 13256" d="M10243.32-234.92s-3.018,3.417-6.219,6.447c-5.259,4.98-15.031,13.372-15.428,13.588C10221.035-214.532,10238-231.025,10243.32-234.92Z" transform="translate(-10147.117 394.17)" fill="#e3c1ce" fill-rule="evenodd"/>
        <path id="Path_13257" data-name="Path 13257" d="M10248.123-246.269l-10.724,1.114S10243.483-247.71,10248.123-246.269Z" transform="translate(-10121.977 375.347)" fill="#e3c1ce" fill-rule="evenodd"/>
        <path id="Path_13258" data-name="Path 13258" d="M10243.455-244.677l-5.3,1.314A7.46,7.46,0,0,0,10243.455-244.677Z" transform="translate(-10120.768 378.593)" fill="#e3c1ce" fill-rule="evenodd"/>
        <path id="Path_13259" data-name="Path 13259" d="M10245.75-248.764s-5.908-2.015-7.827-.691S10238.463-249.416,10245.75-248.764Z" transform="translate(-10122.145 370.245)" fill="#e3c1ce" fill-rule="evenodd"/>
        <path id="Path_13260" data-name="Path 13260" d="M10294.319-251.035l1.877.275.871,3.243a1.521,1.521,0,0,1-.354,1.693c-1.029.857-32.421,30.229-32.421,30.229a3.409,3.409,0,0,1-3.906.613c-2.108-1.168-10.817-12.77-10.817-12.77a5.03,5.03,0,0,1-.92-2.072,18.341,18.341,0,0,1-.154-3.547l42.607-20.754Z" transform="translate(-10104.312 363.508)" fill="#31726c" fill-rule="evenodd"/>
        <path id="Path_13261" data-name="Path 13261" d="M10281.089-257.077l14.423,10.365a1.426,1.426,0,0,1,.807,1.844l-33.229,31.135a2.137,2.137,0,0,1-2.936.075l-11.216-13.087a1.838,1.838,0,0,1,.038-2.6,1.14,1.14,0,0,1,.1-.091s29.506-26.28,30.048-26.885A1.812,1.812,0,0,1,10281.089-257.077Z" transform="translate(-10104.396 358.702)" fill="#eee" fill-rule="evenodd"/>
        <path id="Path_13262" data-name="Path 13262" d="M10281.089-257.077l14.423,10.365a1.426,1.426,0,0,1,.807,1.844l-33.229,31.135a2.137,2.137,0,0,1-2.936.075l-11.216-13.087a1.838,1.838,0,0,1,.038-2.6,1.14,1.14,0,0,1,.1-.091s29.506-26.28,30.048-26.885A1.812,1.812,0,0,1,10281.089-257.077Z" transform="translate(-10104.396 358.702)" fill="none" stroke="#378e87" stroke-width="0.355"/>
        <path id="Path_13263" data-name="Path 13263" d="M10278.6-256.053l12.055,8.984-30.528,28.526-10.629-11.477Z" transform="translate(-10102.671 360.43)" fill="#378e87" fill-rule="evenodd"/>
        <path id="Path_13264" data-name="Path 13264" d="M10274.158-246.339a3.429,3.429,0,0,1,.51,2.76,5.743,5.743,0,0,1-4.194,3.459,16.291,16.291,0,0,1-4.21.008c-.458-.156,1.948-.823,1.534-.945a36.134,36.134,0,0,0-5.352-.844c-2.336-.171-5.421-.776-5.99-1.423s-2.567-3.978,6.3-3.6C10270.708-246.576,10271.82-247.308,10274.158-246.339Z" transform="translate(-10092.515 374.958)" fill="#efd4e0" fill-rule="evenodd"/>
        <path id="Path_13265" data-name="Path 13265" d="M10265.914-243.081c.626.039,1.847-.865,2.141-1a14.644,14.644,0,0,1,.611,2.233c-.091,1.109-1.07,3.456-2.511,3.459-1.808.005-2.865-.306-7.051-1.078s-6.92-3.531-2.9-3.669C10259.711-243.257,10264.621-243.153,10265.914-243.081Z" transform="translate(-10095.099 379.541)" fill="#efd4e0" fill-rule="evenodd"/>
        <path id="Path_13266" data-name="Path 13266" d="M10201.178-243.059s-15.791,17.537,12.9,42.378c-1.5-7.255,5.218-20.879,14.278-20.959-2.792-2.436-7.4-5.637-8.75-7.6,0,0-3.736-8.1-9.674-11.975A12.031,12.031,0,0,0,10201.178-243.059Z" transform="translate(-10186.731 380.89)" fill="#5b5474" fill-rule="evenodd"/>
        <path id="Path_13267" data-name="Path 13267" d="M10214.3-246.54a16.919,16.919,0,0,0,6.679,5.068c3.386,1.425,7.451,1.919,13.125,7.138,3.186,2.929,4.686,6.543,5.527,7.6,0,0-1.19.647-3.685,1.844a72.691,72.691,0,0,1-7.83,2.994Z" transform="translate(-10158.864 375.618)" fill="#70678e" fill-rule="evenodd"/>
        <path id="Path_13268" data-name="Path 13268" d="M10219.345-249.2a12.161,12.161,0,0,0-2.3,2.532c-1.741,2.75-14.444,7.9-18.883,14.743,3.207-.893,6.878-4.136,14.741,5.066,1.9,2.228,2.312,3.438,4.145,6.45,3.152,4.456,10.026,8.314,15.428,13.816,4.3-4.222,8.79-6.107,17.273-9.21,7.231-3,10.611-3.731,10.359-6.681-.381-4.606-9.12-10.355-17.038-16.35-1.594-1.2-1.261-2.552-3-3.687-1.338-.231-1.6-1.142-2.3-.46C10233.089-238.443,10224.442-246.8,10219.345-249.2Z" transform="translate(-10184.633 371.371)" fill="#70678e" fill-rule="evenodd"/>
        <path id="Path_13269" data-name="Path 13269" d="M10222.667-230.624s-1.381-6.538-4.375-10.594c1.394.226,4.959,7.037,5.526,9.9C10224.036-231.494,10223.188-230.855,10222.667-230.624Z" transform="translate(-10152.488 384.115)" fill="#5b5474" fill-rule="evenodd"/>
        <path id="Path_13270" data-name="Path 13270" d="M10221.678-241.307s-.778,6.006-1.381,5.528-1.076-.727-.922-1.381S10220.342-238.017,10221.678-241.307Z" transform="translate(-10150.811 383.973)" fill="#5b5474" fill-rule="evenodd"/>
        <path id="Path_13271" data-name="Path 13271" d="M10216.961-235.575s-4.415.483-9.449,4.959c-5.366,4.775-4.55,13-5.062,11.282C10200.572-225.576,10206.546-236.123,10216.961-235.575Z" transform="translate(-10178.329 393.091)" fill="#70678e" fill-rule="evenodd"/>
        <path id="Path_13272" data-name="Path 13272" d="M10206.778-240.153s.541,6.987-.229,6.909-.626-.818-.92-1.153S10207.133-239.1,10206.778-240.153Z" transform="translate(-10172.759 385.815)" fill="#5b5474" fill-rule="evenodd"/>
        <path id="Path_13273" data-name="Path 13273" d="M10206.051-246.628s8.561,17.2,20.729,11.975c3.4-2.451,3.271-7.314,2.764-8.057s2.351,8.161-7.828,8.291C10214.281-234.326,10207.786-244.317,10206.051-246.628Z" transform="translate(-10172.033 375.478)" fill="#5b5474" fill-rule="evenodd"/>
        <path id="Path_13274" data-name="Path 13274" d="M10221.138-214.832a.794.794,0,0,1,.668.9.8.8,0,0,1-.905.673.8.8,0,0,1-.67-.906.551.551,0,0,1,.041-.156A.714.714,0,0,1,10221.138-214.832Zm-3.227-8.753a.793.793,0,0,1,.669.906.794.794,0,0,1-.9.672.8.8,0,0,1-.674-.906.749.749,0,0,1,.042-.158A.718.718,0,0,1,10217.911-223.585Zm-3.913,15.2a.8.8,0,0,1,.67.906.8.8,0,0,1-.907.672.8.8,0,0,1-.673-.906.9.9,0,0,1,.045-.158A.715.715,0,0,1,10214-208.385Zm-1.919-11.521a.8.8,0,0,1-.668-.909.794.794,0,0,1,.905-.67.794.794,0,0,1,.668.909.9.9,0,0,1-.036.156A.724.724,0,0,1,10212.079-219.906Zm-.377,9.327a.794.794,0,0,1-.666-.909.8.8,0,0,1,.907-.667.8.8,0,0,1,.669.909.765.765,0,0,1-.043.153A.719.719,0,0,1,10211.7-210.579Zm-.239,9.794a.8.8,0,0,1,.671.906.794.794,0,0,1-.905.67.8.8,0,0,1-.671-.906.91.91,0,0,1,.039-.156A.719.719,0,0,1,10211.463-200.785Zm-.5-16.044a.8.8,0,0,1,.668.906.8.8,0,0,1-.909.67.794.794,0,0,1-.666-.909.751.751,0,0,1,.037-.153A.717.717,0,0,1,10210.967-216.829Zm-2,12.539a.846.846,0,0,1,.72.95.847.847,0,0,1-.954.719.849.849,0,0,1-.721-.953.645.645,0,0,1,.048-.171A.746.746,0,0,1,10208.97-204.29Zm-2.071-9.218a.768.768,0,0,1,.348,1.007.754.754,0,0,1-.905.548.767.767,0,0,1-.348-1.007.751.751,0,0,1,.905-.545Zm-.326-11.879a.8.8,0,0,1,.674.906.8.8,0,0,1-.908.675.8.8,0,0,1-.67-.906.783.783,0,0,1,.036-.161A.725.725,0,0,1,10206.572-225.387Zm-6.393,11.015a.8.8,0,0,1,.669.906.794.794,0,0,1-.9.67.8.8,0,0,1-.673-.9,1.219,1.219,0,0,1,.039-.158A.725.725,0,0,1,10200.18-214.373Zm-1.519-4.671a.8.8,0,0,1,.673.909.8.8,0,0,1-.91.67.8.8,0,0,1-.67-.906.756.756,0,0,1,.039-.153A.721.721,0,0,1,10198.661-219.044Zm-1.088-6.525a.8.8,0,0,1-.666-.909.8.8,0,0,1,.907-.667.794.794,0,0,1,.666.906.8.8,0,0,1-.036.156A.725.725,0,0,1,10197.573-225.569Zm1.817,2.285a.8.8,0,0,1,.672.909.8.8,0,0,1-.911.67.8.8,0,0,1-.668-.909.536.536,0,0,1,.042-.153A.72.72,0,0,1,10199.391-223.284Zm.1-9.488a.8.8,0,0,1-.669-.909.8.8,0,0,1,.91-.67.8.8,0,0,1,.668.909.735.735,0,0,1-.036.156A.724.724,0,0,1,10199.492-232.772Zm.727,5.1a.8.8,0,0,1-.668-.909.8.8,0,0,1,.907-.67.8.8,0,0,1,.674.909,1.167,1.167,0,0,1-.045.156A.718.718,0,0,1,10200.219-227.67Zm1.9,17.148a.8.8,0,0,1,.67.909.8.8,0,0,1-.907.67.8.8,0,0,1-.673-.909,1.024,1.024,0,0,1,.042-.156A.72.72,0,0,1,10202.116-210.522Zm.575-10.371a.793.793,0,0,1,.665.909.794.794,0,0,1-.905.67.8.8,0,0,1-.669-.909,1,1,0,0,1,.038-.156A.728.728,0,0,1,10202.691-220.893Zm-.282-13.2a.8.8,0,0,1-.668-.909.8.8,0,0,1,.91-.667.8.8,0,0,1,.668.906.626.626,0,0,1-.041.156A.721.721,0,0,1,10202.409-234.091Zm0,9.672a.8.8,0,0,1-.668-.909.8.8,0,0,1,.91-.667.8.8,0,0,1,.668.906.6.6,0,0,1-.041.156A.721.721,0,0,1,10202.409-224.419Zm.464,10.365a.8.8,0,0,1-.671-.909.8.8,0,0,1,.91-.667.792.792,0,0,1,.665.906.816.816,0,0,1-.036.156A.722.722,0,0,1,10202.873-214.053Zm1.911,7.512a.8.8,0,0,1,.674.906.8.8,0,0,1-.905.67.8.8,0,0,1-.674-.9.8.8,0,0,1,.038-.158A.721.721,0,0,1,10204.784-206.542Zm.444-25.366a.8.8,0,0,1,.673.909.8.8,0,0,1-.912.67.8.8,0,0,1-.668-.909.755.755,0,0,1,.038-.156A.723.723,0,0,1,10205.229-231.907Zm.022-6.712a.8.8,0,0,1-.673-.906.8.8,0,0,1,.907-.675.8.8,0,0,1,.67.909.819.819,0,0,1-.036.153A.725.725,0,0,1,10205.251-238.619Zm.821,3.539a.8.8,0,0,1-.664-.909.8.8,0,0,1,.907-.665.8.8,0,0,1,.669.906.834.834,0,0,1-.042.153A.721.721,0,0,1,10206.072-235.08Zm.652,16.628a.8.8,0,0,1-.67-.909.8.8,0,0,1,.907-.67.8.8,0,0,1,.67.906.53.53,0,0,1-.041.156A.722.722,0,0,1,10206.725-218.452Zm2.139,10.106a.756.756,0,0,1-.909.545.764.764,0,0,1-.354-1.007.76.76,0,0,1,.913-.548A.767.767,0,0,1,10208.863-208.346Zm.888-21.016a.8.8,0,0,1,.679.906.8.8,0,0,1-.907.675.8.8,0,0,1-.677-.906.718.718,0,0,1,.043-.161A.714.714,0,0,1,10209.751-229.363Zm-.427-4.24a.8.8,0,0,1-.668-.909.8.8,0,0,1,.907-.665.794.794,0,0,1,.668.906.65.65,0,0,1-.041.153A.718.718,0,0,1,10209.324-233.6Zm.737,10.1a.8.8,0,0,1-.67-.906.8.8,0,0,1,.9-.67.8.8,0,0,1,.673.906.923.923,0,0,1-.042.156A.72.72,0,0,1,10210.062-223.507Zm1.867-17.348a.8.8,0,0,1,.674.906.8.8,0,0,1-.908.672.8.8,0,0,1-.673-.906.813.813,0,0,1,.042-.158A.716.716,0,0,1,10211.929-240.855Zm-.084-2.132a.8.8,0,0,1-.67-.909.8.8,0,0,1,.909-.667.8.8,0,0,1,.666.909.827.827,0,0,1-.039.153A.72.72,0,0,1,10211.845-242.987Zm.77,7.4a.794.794,0,0,1-.668-.906.793.793,0,0,1,.907-.67.794.794,0,0,1,.668.906.636.636,0,0,1-.039.156A.721.721,0,0,1,10212.614-235.589Zm.627,6.336a.794.794,0,0,1-.669-.906.8.8,0,0,1,.91-.67.8.8,0,0,1,.666.909.823.823,0,0,1-.037.153A.719.719,0,0,1,10213.241-229.254Zm1.884,13.7a.65.65,0,0,1-.9.215.648.648,0,0,1-.214-.9.646.646,0,0,1,.776-.273A.718.718,0,0,1,10215.125-215.554Zm-.01-10.212a.793.793,0,0,1-.668-.909.8.8,0,0,1,.907-.67.8.8,0,0,1,.668.909.8.8,0,0,1-.039.156A.723.723,0,0,1,10215.115-225.766Zm.066,6.816a.8.8,0,0,1-.676-.906.8.8,0,0,1,.907-.672.8.8,0,0,1,.677.906.8.8,0,0,1-.045.158A.719.719,0,0,1,10215.182-218.95Zm2.938-22.39a.653.653,0,0,1-.9.215.656.656,0,0,1-.215-.9.653.653,0,0,1,.78-.273A.717.717,0,0,1,10218.119-241.34Zm.057-4.087a.8.8,0,0,1-.676-.906.8.8,0,0,1,.907-.675.8.8,0,0,1,.677.906,1.276,1.276,0,0,1-.043.161A.724.724,0,0,1,10218.176-245.427Zm.315,14.081a.8.8,0,0,1-.671-.909.8.8,0,0,1,.907-.672.8.8,0,0,1,.673.909.645.645,0,0,1-.041.158A.723.723,0,0,1,10218.491-231.346Zm2.681,13.289a.655.655,0,0,1-.9.218.653.653,0,0,1-.215-.9.65.65,0,0,1,.777-.273A.725.725,0,0,1,10221.172-218.057Zm.171-21.18a.8.8,0,0,1-.672-.906.8.8,0,0,1,.907-.67.8.8,0,0,1,.672.9.748.748,0,0,1-.042.158A.723.723,0,0,1,10221.343-239.237Zm.086,14.4a.794.794,0,0,1-.671-.906.8.8,0,0,1,.908-.673.8.8,0,0,1,.67.909.74.74,0,0,1-.04.156A.721.721,0,0,1,10221.429-224.839Zm2.424-10.464a.8.8,0,0,1-.67-.906.8.8,0,0,1,.907-.67.794.794,0,0,1,.668.906.822.822,0,0,1-.037.153A.725.725,0,0,1,10223.853-235.3Zm4.407,7.039a.8.8,0,0,1-.668-.909.8.8,0,0,1,.91-.67.8.8,0,0,1,.668.909.828.828,0,0,1-.039.156A.724.724,0,0,1,10228.26-228.264Zm.286,10.082a.793.793,0,0,1-.668-.909.8.8,0,0,1,.907-.673.8.8,0,0,1,.669.909.876.876,0,0,1-.038.158A.726.726,0,0,1,10228.546-218.182Zm4.668-4.967a.8.8,0,0,1-.668-.909.8.8,0,0,1,.907-.667.8.8,0,0,1,.672.906,1.1,1.1,0,0,1-.043.156A.72.72,0,0,1,10233.214-223.149Zm1.083,7.044a.8.8,0,0,1-.666-.906.8.8,0,0,1,.905-.667.8.8,0,0,1,.668.906,1.148,1.148,0,0,1-.039.153A.721.721,0,0,1,10234.3-216.1Zm1.618-12.419a.794.794,0,0,1-.668-.906.8.8,0,0,1,.907-.67.8.8,0,0,1,.668.909,1.149,1.149,0,0,1-.039.153A.719.719,0,0,1,10235.915-228.524Zm3.073,6.556a.8.8,0,0,1-.674-.909.8.8,0,0,1,.91-.673.8.8,0,0,1,.671.909.808.808,0,0,1-.04.158A.725.725,0,0,1,10238.988-221.968Zm1.4,7.008a.8.8,0,0,1-.674-.909.8.8,0,0,1,.908-.673.8.8,0,0,1,.676.906.884.884,0,0,1-.042.156A.725.725,0,0,1,10240.384-214.96Zm3.319-12.108a.793.793,0,0,1,.668.909.8.8,0,0,1-.907.67.8.8,0,0,1-.668-.909.88.88,0,0,1,.039-.156A.725.725,0,0,1,10243.7-227.067Zm.076-6.476a.8.8,0,0,1-.671-.906.8.8,0,0,1,.9-.67.8.8,0,0,1,.67.906,1.131,1.131,0,0,1-.038.156A.723.723,0,0,1,10243.779-233.543Zm1.771,13.492a.79.79,0,0,1-.666-.906.793.793,0,0,1,.905-.667.8.8,0,0,1,.668.906,1.017,1.017,0,0,1-.04.153A.713.713,0,0,1,10245.551-220.051Zm2.2-17.8a.8.8,0,0,1-.672-.909.8.8,0,0,1,.908-.67.8.8,0,0,1,.671.909.624.624,0,0,1-.04.156A.724.724,0,0,1,10247.753-237.851Zm1.519,9.394a.653.653,0,0,1-.9.218.651.651,0,0,1-.22-.9.655.655,0,0,1,.777-.275A.725.725,0,0,1,10249.271-228.456Zm.052-5.8a.794.794,0,0,1-.665-.909.794.794,0,0,1,.907-.67.8.8,0,0,1,.666.909,1,1,0,0,1-.037.156A.723.723,0,0,1,10249.323-234.257Zm1.167,12.666a.791.791,0,0,1-.666-.909.794.794,0,0,1,.905-.667.8.8,0,0,1,.668.909.6.6,0,0,1-.04.153A.717.717,0,0,1,10250.49-221.591Zm2.661-5.689a.8.8,0,0,1-.671-.906.8.8,0,0,1,.91-.67.8.8,0,0,1,.67.906.561.561,0,0,1-.041.156A.723.723,0,0,1,10253.151-227.28Zm2.809,4.8a.772.772,0,0,1,.351,1.007.754.754,0,0,1-.905.548.763.763,0,0,1-.35-1.007.75.75,0,0,1,.9-.548Zm-.555-12.728a.753.753,0,0,1-.35-1,.748.748,0,0,1,.9-.543.761.761,0,0,1,.351,1A.752.752,0,0,1,10255.405-235.207Zm3.156,7.392a.652.652,0,0,1-.895.215.648.648,0,0,1-.22-.9.653.653,0,0,1,.779-.273A.718.718,0,0,1,10258.562-227.815Zm-.039-5.533a.8.8,0,0,1-.676-.906.8.8,0,0,1,.9-.678.794.794,0,0,1,.675.906.873.873,0,0,1-.036.158A.726.726,0,0,1,10258.522-233.348Zm3.911,3.97a.8.8,0,0,1-.676-.906.8.8,0,0,1,.905-.673.8.8,0,0,1,.678.906.692.692,0,0,1-.041.158A.721.721,0,0,1,10262.434-229.378Zm2.157,3.287a.652.652,0,0,1-.9.218.651.651,0,0,1-.221-.9.653.653,0,0,1,.78-.275.719.719,0,0,1,.328.943Z" transform="translate(-10186.648 374.856)" fill="#5b5474" fill-rule="evenodd"/>
        <path id="Path_13275" data-name="Path 13275" d="M10311.649-245.223s15.83,1.88,9.754,19.952c-4.737,14.091-24.812,26.49-75.764,16.893-53.341-10.043-53.827-29.912-52.312-34.646,1.99-6.232,10.079-21.738,23.956-12.053.229-.556-10.4-5.712.742-14.245,4.2-2.994,7.317-4.251,9.727-1.028,1.3,1.729-2.466-9.488,14.484-9.623,19.581-.156,47.984,1.413,54.7,10.417,2.538,4.4,3.359,5.227.9,10.937C10296.853-257.378,10311.042-263.5,10311.649-245.223Z" transform="translate(-10192.948 322.225)" fill="#dc4427" fill-rule="evenodd"/>
        <path id="Path_13276" data-name="Path 13276" d="M10321.216-261.8c1.689,2.976,2.306,7.361.141,13.8-4.737,14.091-24.812,26.49-75.763,16.893-53.342-10.043-53.45-29.811-52.312-34.646-5.362,22.808,61.868,40.007,94.847,34.4C10311.393-235.307,10317.768-251.7,10321.216-261.8Z" transform="translate(-10192.902 344.947)" fill="#c13f28" fill-rule="evenodd"/>
        <path id="Path_13277" data-name="Path 13277" d="M10225.576-254.913s-18.253-7.416-11.085-16.008,19.928-17.109,19.875-23.621.4,6.717,13.5,20.393c10.591,11.056,4.4,19.91-5.825,21.567S10226.47-254.222,10225.576-254.913Z" transform="translate(-10161.223 296.252)" fill="#dc4427" fill-rule="evenodd"/>
        <path id="Path_13278" data-name="Path 13278" d="M10225.576-268.5s-18.253-7.416-11.085-16.008c-1.844,19.612,35.417,16.179,33.379-3.228,10.591,11.056,4.4,19.91-5.825,21.567S10226.47-267.813,10225.576-268.5Z" transform="translate(-10161.223 309.842)" fill="#c13f28" fill-rule="evenodd"/>
        <path id="Path_13279" data-name="Path 13279" d="M10217.742-280.722l-.891,2.42,19.271,1.5.315-1.592S10224.048-280.686,10217.742-280.722Z" transform="translate(-10154.785 321.045)" fill="#714d63" fill-rule="evenodd"/>
        <path id="Path_13280" data-name="Path 13280" d="M10218.064-264.282c-3.091.753-6.27,7.1-1.071,9.794s2.928,3.048,2.928,3.048l-2.647,14.564-11.032,26.913s2.438,6.652,7.106,9.971c5.226,3.716,15.506,6.717,13.59-1.612-.957-4.16-.5-17.212,2.766-28.557,2.312.28,18.728,9.555,27.689-7.216,4.606-11.142,5.523-22.543,4.165-23.979l-1.531-5.531s-32.523-9.433-36.508-3.892c-.951,1.332-1.407,5.014-2.571,5.585A6.976,6.976,0,0,1,10218.064-264.282Z" transform="translate(-10171.729 334.136)" fill="#efd4e0" fill-rule="evenodd"/>
        <path id="Path_13281" data-name="Path 13281" d="M10209.731-252.4s9.049,3.466,11.4,28.3a94.975,94.975,0,0,1,2.994-26.256c-.97-1.823-6.609-4.378-8.3-7.587-1.928-3.651-3.418-1.028-4.516,1.724C10210.555-254.3,10209.731-252.4,10209.731-252.4Z" transform="translate(-10166.153 354.559)" fill="#e3c1ce" fill-rule="evenodd"/>
        <path id="Path_13282" data-name="Path 13282" d="M10218.142-267.066c-1.959.709-2.907,2.319-2.352,1.213,1.066-2.14,5.081-3.505,5.081-3.505l1.591,1.906A11.457,11.457,0,0,0,10218.142-267.066Zm6.611,9.355a2.049,2.049,0,0,1-2.561-1.358,2.048,2.048,0,0,1,1.354-2.56,2.051,2.051,0,0,1,2.563,1.355,2.269,2.269,0,0,1,.089.483A1.822,1.822,0,0,1,10224.753-257.711Zm3.84,9.514a19.014,19.014,0,0,1-4.138-3.17,14.422,14.422,0,0,1-2.55-4.131l-.955-.317-.257-.444,2.489.122-.383.447-.508.065a14.154,14.154,0,0,0,7.573,7.115l-1.271.319Zm.884-5.281c.271.319,5.962.5,4.13-.639s-2.8-4.894-2.8-4.894a8.916,8.916,0,0,0,1.721,5.149s-3.32.067-3.05.384Zm6.723-2.661a2.049,2.049,0,0,1-2.561-1.358,2.045,2.045,0,0,1,1.354-2.56,2.053,2.053,0,0,1,2.563,1.355,2.3,2.3,0,0,1,.088.483A1.818,1.818,0,0,1,10236.2-256.14Zm5.667-4.666-1.4-2.288s-.063-.413.821-.7.58,2.991.58,2.991Z" transform="translate(-10156.734 339.187)" fill="#804c33" fill-rule="evenodd"/>
        <path id="Path_13283" data-name="Path 13283" d="M10220.553-264.513a8.746,8.746,0,0,1,3.646,11.822,8.746,8.746,0,0,1-11.82,3.646,8.749,8.749,0,0,1-3.741-11.638A8.852,8.852,0,0,1,10220.553-264.513Z" transform="translate(-10169.375 345.361)" fill="#fbe68e" fill-rule="evenodd"/>
        <path id="Path_13284" data-name="Path 13284" d="M10219.9-265.815s-1.164,4.619-2.6,8.4.2,5.341.2,5.341l-2.937-7.818-5.859-7.05s8.3-8.9,11.692-8.475,16.854,1.249,16.854,1.249l23.083,4.357,2.553,6.354-2.157,3.056s-1.576,8.839-4.963.706c-1.057,6.507-9.271,7.772-9.271,7.772s-15.44-1.137-16.039-12.123C10230.058-262.39,10224.522-255.842,10219.9-265.815Z" transform="translate(-10167.788 329.492)" fill="#dc4427" fill-rule="evenodd"/>
        <path id="Path_13285" data-name="Path 13285" d="M10215.93-270.132s-1.163,4.619-2.595,8.4.2,5.341.2,5.341l-2.3-6.546,4.185-9.672s2.271,5.206,6.556,5.014c3.212-.143,3.47-4.669,6.418-3.316.257.117.926,2.241,1.53,4.578.635,2.451,2.658,3.659,5.094,5.079,7.871,4.593,13.455,4.479,15.64-1.1a14.73,14.73,0,0,0,.948-3.181,27.424,27.424,0,0,0,1.978,3.687c1.061,1.714,3.171-2.807,3.173-2.867,0,0-1.571,8.839-4.953.706-1.273,7.917-9.277,7.771-9.277,7.771s-15.442-1.137-16.036-12.123C10226.083-266.7,10220.551-260.159,10215.93-270.132Z" transform="translate(-10163.755 333.998)" fill="#c13f28" fill-rule="evenodd"/>
      </g>
      <g id="Group_5178" data-name="Group 5178" transform="translate(203.344 0.008)">
        <path id="Path_13286" data-name="Path 13286" d="M10256.847-290.956a29.254,29.254,0,0,1,4.522.351,15.678,15.678,0,0,1,17.047-7.709,25.267,25.267,0,0,1,32.46-14.938,25.251,25.251,0,0,1,13.852,12.43,23.289,23.289,0,0,1,29.979,5.1,20.064,20.064,0,0,1,28.074-4.113,20.064,20.064,0,0,1,4.111,28.074,20.069,20.069,0,0,1-13.714,7.943,12.516,12.516,0,0,1-9.778,14.756,12.525,12.525,0,0,1-11.187-3.264,22.2,22.2,0,0,1-17.443,26.111,22.2,22.2,0,0,1-17.044-3.57,26.552,26.552,0,0,1-37.108,5.746,26.567,26.567,0,0,1-9.29-12.409,29.176,29.176,0,0,1-39.807-10.851,29.177,29.177,0,0,1,10.851-39.808,29.176,29.176,0,0,1,14.477-3.845Z" transform="translate(-10227.671 314.826)" fill="#fff" fill-rule="evenodd"/>
        <circle id="Ellipse_387" data-name="Ellipse 387" cx="8.502" cy="8.502" r="8.502" transform="translate(32.599 94.59)" fill="#fff"/>
        <circle id="Ellipse_388" data-name="Ellipse 388" cx="34.475" cy="34.475" r="34.475" transform="matrix(0.811, -0.585, 0.585, 0.811, 26.86, 40.627)" fill="#a2d2f1"/>
        <g id="Group_5177" data-name="Group 5177" transform="translate(26.86 0.311)">
          <g id="Group_7201" data-name="Group 7201" transform="translate(0 0)">
            <g id="Group_7200" data-name="Group 7200" clip-path="url(#clip-path)">
              <g id="Group_5176" data-name="Group 5176" transform="translate(-1.428 18.61)">
                <g id="Group_5175" data-name="Group 5175">
                  <g id="Group_5174" data-name="Group 5174">
                    <rect id="Rectangle_11171" data-name="Rectangle 11171" width="18.8" height="2.078" transform="translate(0 86.95)" fill="#c4c2c2"/>
                    <rect id="Rectangle_11172" data-name="Rectangle 11172" width="18.8" height="2.078" transform="translate(0 86.95)" fill="none" stroke="#fdfdfd" stroke-width="0.187"/>
                    <path id="Path_13287" data-name="Path 13287" d="M10264.051-283.39l13.352.574s1.406.075,1.5,2.15c.054,1.148.718,11.048.718,11.048" transform="translate(-10195.025 346.095)" fill="none" stroke="#fdfdfd" stroke-width="0.187"/>
                    <path id="Path_13288" data-name="Path 13288" d="M10264.107-282.81s6.162.226,7.1.5a2.083,2.083,0,0,1,1.217,2.223c-.045.87.363,9.257.363,9.257" transform="translate(-10194.931 347.021)" fill="none" stroke="#fdfdfd" stroke-width="0.187"/>
                    <path id="Path_13289" data-name="Path 13289" d="M10266.952-281.724a16.258,16.258,0,0,1,6.387-1.363Z" transform="translate(-10190.387 346.578)" fill="#fdfdfd" fill-rule="evenodd"/>
                    <path id="Path_13290" data-name="Path 13290" d="M10269.773-277.883l-.789-.286-3.662,12.341h5.812Z" transform="translate(-10192.991 354.43)" fill="#dc4427" fill-rule="evenodd"/>
                    <path id="Path_13291" data-name="Path 13291" d="M10265.322-265.772l3.512-12.411s9.853-.182,12.128.5a98.56,98.56,0,0,0,2.279,11.908c-3.6.031-12.646.031-12.646.031l-1.687-12.3Z" transform="translate(-10192.991 354.372)" fill="#dc4427" fill-rule="evenodd"/>
                    <path id="Path_13292" data-name="Path 13292" d="M10265.322-265.772l3.512-12.411s9.853-.182,12.128.5a98.56,98.56,0,0,0,2.279,11.908c-3.6.031-12.646.031-12.646.031l-1.687-12.3" transform="translate(-10192.991 354.372)" fill="none" stroke="#fdfdfd" stroke-width="0.187"/>
                    <path id="Path_13293" data-name="Path 13293" d="M10250.619-262.8l5.456-8.392s-1.136-1.4.574-4.232c2.007-3.342,4.994-9.1,8.966-10.542s7.428-3.046,11.051.428a9.509,9.509,0,0,1,1.942,3.8,42.925,42.925,0,0,1,6.74,4.518c2.673,2.521,3.723,6.985,1.079,17.862-1.428,5.86-8.683,6.741-8.683,6.741l-23.105.574Z" transform="translate(-10216.464 339.344)" fill="#c4d368" fill-rule="evenodd"/>
                    <path id="Path_13294" data-name="Path 13294" d="M10252.947-271.189s-1.136-1.4.574-4.232c2.007-3.342,4.994-9.1,8.968-10.542s7.426-3.046,11.051.428a9.53,9.53,0,0,1,1.94,3.8,16.165,16.165,0,0,1-.577,5.736c-4.952,9.908-7.75,6.242-7.75,6.242s-3.295,5.258-6.888,4.23c-2.385-.685-3.087-1.488-3.733-5.377C10253.981-269.53,10252.947-271.189,10252.947-271.189Z" transform="translate(-10213.335 339.344)" fill="#9eac4c" fill-rule="evenodd"/>
                    <path id="Path_13295" data-name="Path 13295" d="M10262.167-279.827s-2,4.437-2.365,5.164S10260.949-279.3,10262.167-279.827Z" transform="translate(-10201.896 351.783)" fill="#9eac4c" fill-rule="evenodd"/>
                    <path id="Path_13296" data-name="Path 13296" d="M10260.05-280.1s.456,2.7.863,2.581S10259.52-277.07,10260.05-280.1Z" transform="translate(-10201.566 351.343)" fill="#9eac4c" fill-rule="evenodd"/>
                    <path id="Path_13297" data-name="Path 13297" d="M10259.934-277.593a11.009,11.009,0,0,1,11.2,2.01C10273.268-273.763,10266.991-282.4,10259.934-277.593Z" transform="translate(-10201.595 352.992)" fill="#9eac4c" fill-rule="evenodd"/>
                    <path id="Path_13298" data-name="Path 13298" d="M10256.971-279.33s-.33,8.7-.427,9.973C10256.452-268.108,10255.854-277.388,10256.971-279.33Z" transform="translate(-10207.392 352.577)" fill="#9eac4c" fill-rule="evenodd"/>
                    <path id="Path_13299" data-name="Path 13299" d="M10255.506-280.407c-3.785,8.034-.71,15.686-2.3,13.486-.165-.379-.395-.447-.5-1A18.613,18.613,0,0,1,10255.506-280.407Z" transform="translate(-10213.455 350.857)" fill="#9eac4c" fill-rule="evenodd"/>
                    <path id="Path_13300" data-name="Path 13300" d="M10255.423-275.938s-1.8-3.121-4.233-2.8c-.521.068.288.338,1.593.727A6.636,6.636,0,0,1,10255.423-275.938Z" transform="translate(-10215.813 353.49)" fill="#9eac4c" fill-rule="evenodd"/>
                    <path id="Path_13301" data-name="Path 13301" d="M10253.428-277.078a4.175,4.175,0,0,1-.428-2.869C10253.468-281.129,10252.974-277.831,10253.428-277.078Z" transform="translate(-10212.885 351.187)" fill="#9eac4c" fill-rule="evenodd"/>
                    <path id="Path_13302" data-name="Path 13302" d="M10256.347-279.13l-.213,9.9-.65-.143.071-9.9Z" transform="translate(-10208.697 352.664)" fill="#9eac4c" fill-rule="evenodd"/>
                    <path id="Path_13303" data-name="Path 13303" d="M10255.387-279.551l-.147,10.69A47.436,47.436,0,0,1,10255.387-279.551Z" transform="translate(-10209.462 352.224)" fill="#9eac4c" fill-rule="evenodd"/>
                    <path id="Path_13304" data-name="Path 13304" d="M10279.1-268.175a76.637,76.637,0,0,0,15-2.942l-.144-7.818,2.439,7.172,7.678-2.581-1.145-4.16,2.866,3.729s6.515-7.932,3.161-18c-2.71-8.132-7.07-7.67-11.409-8.465s-32.81-1.2-40.04.719c-5.182,1.371-9.89,3.638-12.347,10.041-2.35,6.128-1.876,14.078,6.386,18.29.957-2.347,2.229-7.1,2.229-7.1l.359,8.392S10268.044-267.3,10279.1-268.175Z" transform="translate(-10227.145 316.534)" fill="#7e4d31" fill-rule="evenodd"/>
                    <path id="Path_13305" data-name="Path 13305" d="M10279.094-273.782a76.6,76.6,0,0,0,15-2.942l-.142-7.818,2.439,7.172,7.677-2.581-1.144-4.16,2.865,3.729s6.515-7.932,3.161-18c-.124-.356,1.2,11.843-2.513,14.777-1.32,1.041-2.607.6-3.729-1.22-1.026-1.651.788,2.417-.361,3.8a6.756,6.756,0,0,1-4.953,2.01c-1.774-.065-1.985-3.973-3.875-6.458-.687-.9-.706,6.515-2.008,7.533-3.287,1.067-10.623,2.506-19.946,2.869-3.649.143-12.677-.377-15.426-2.3-2.588-1.8-1.46-2.4-2.155-8.034-.9-.434-2.91,5.3-3.587,5.38-10.416-5.328-2.78-22.47-5.235-16.067-2.353,6.13-1.878,14.078,6.385,18.29.957-2.347,2.225-7.1,2.225-7.1l.36,8.392S10268.041-272.9,10279.094-273.782Z" transform="translate(-10227.144 322.14)" fill="#4b3328" fill-rule="evenodd"/>
                    <path id="Path_13306" data-name="Path 13306" d="M10259.007-294.976s-5.956-1.6-5.956-6.455c0-4.588,4.824-6.263,7.967-6.1,2.67.14,10.756-.447,10.909,7.533-.553,4.884-4.5,5.209-5.529,5.165A58.482,58.482,0,0,0,10259.007-294.976Z" transform="translate(-10212.581 307.539)" fill="#7e4d31" fill-rule="evenodd"/>
                    <path id="Path_13307" data-name="Path 13307" d="M10259.061-297.609s-6.879-2-5.956-7.172c.639-3.557.1,2.415,2.438,4.305,2.316,1.862,6.933,2.612,12.344,1.29,4.518-.667,3.948-8.07,4.091-3.944-.162,5.255-4.485,5.692-5.528,5.668A63.2,63.2,0,0,0,10259.061-297.609Z" transform="translate(-10212.636 310.172)" fill="#4b3328" fill-rule="evenodd"/>
                    <path id="Path_13308" data-name="Path 13308" d="M10256.407-296.426s-3.352-7.964,1.579-10.186c2.362-1.065-.878-.229-2.368,1.651A6.6,6.6,0,0,0,10256.407-296.426Z" transform="translate(-10210.409 308.272)" fill="#4b3328" fill-rule="evenodd"/>
                    <path id="Path_13309" data-name="Path 13309" d="M10257.1-297.662s-1.853-5.58,2.3-7.605-.959-.335-1.864.719A6.211,6.211,0,0,0,10257.1-297.662Z" transform="translate(-10207.45 309.654)" fill="#4b3328" fill-rule="evenodd"/>
                    <path id="Path_13310" data-name="Path 13310" d="M10255.132-302.416a1.717,1.717,0,0,0,.289,2.223c.788.049,2.07.086,3.585.073,2.843-.023,5.744-.215,5.744-.215s.1-2.031-5.312-2.511C10255.9-303.159,10255.132-302.416,10255.132-302.416Z" transform="translate(-10209.71 314.909)" fill="#9eac4c" fill-rule="evenodd"/>
                    <path id="Path_13311" data-name="Path 13311" d="M10251.4-292.754s-2.535,14.323,3.73,18.794c3.421,2.443,7.845,1.628,8.9,1.363,1.083-.272.045,12.334-.43,13.2s-.343,2.212,2.514.574,6.674-6.385,6.674-6.385a67.464,67.464,0,0,1-.145-17c.7.9,2.36,1.148,3.873-2.08s.436-5.159-.857-5.092-2.967.576-3.873,4.445c-.278-2.68-.5-4.56-.576-5.022-.038-.234,2.07-7.574,1.58-7.818s-3.072,2.576-3.877,2.872a10.371,10.371,0,0,1-9.756-1.436Z" transform="translate(-10216.024 323.103)" fill="#faf8ea" fill-rule="evenodd"/>
                    <path id="Path_13312" data-name="Path 13312" d="M10255.98-282.178c.386,1.6.3,1.449.36,1.579.173-3.388,4.284-1.14,5.813,0,1.6,1.194,2.513,5.811,2.513,5.811a67.375,67.375,0,0,1-.143-17C10262.464-286.076,10260.873-283.453,10255.98-282.178Z" transform="translate(-10207.905 332.687)" fill="#ebe7c8" fill-rule="evenodd"/>
                    <path id="Path_13313" data-name="Path 13313" d="M10294.183-262s5.94-2.137,12.13,2.659c-.7,3.435-2.848,8.6-3.109,8.67s-42.049-.021-42.049-.021a37.269,37.269,0,0,1-9.095-12.095,77.142,77.142,0,0,1-4.59-11.474,1.388,1.388,0,0,0-.858-1c-.152-.054-6.587-2.669-7.822-6.172-.283-.8.552-1.039,1.075-.717s-1.783-1.379-1.647-2.3,1.963-.963,4.018,1.078c1.583,1.568,2.155,1.719,2.155,1.719s.735-1.093,1-1.075a34.856,34.856,0,0,0-3.514-3.8c-.262-.171.592-2.848,3.444.286,2.817,3.1,3.949,3.189,4.447,3.157a3.147,3.147,0,0,1,.217-.647s-1.078-2.249-.071-3.155,2.572-.922,2.364,0-.416,2.29.289,2.939a4.346,4.346,0,0,1,.859,4.232,2.378,2.378,0,0,0,.217,2.153c.248.5,4.211,9.649,10.618,13.7,1.732.987,4.109,4.1,4.232,4.949.375-.714,1.938-3.659,1.938-3.659a8.917,8.917,0,0,1,4.952,2.726c.015,1.841-.273,2.319.286,3.37a1.094,1.094,0,0,0,1,.358c.165-.047,11.172-2.142,15.931-1.506C10293.714-260.848,10294.183-262,10294.183-262Z" transform="translate(-10236.271 339.121)" fill="#faf8ea" fill-rule="evenodd"/>
                    <path id="Path_13314" data-name="Path 13314" d="M10260.738-277.546s5.94-2.137,12.131,2.659c-.7,3.435-2.849,8.6-3.11,8.67-.542-1.459.272-.828-1.77-7.379-.907-2.9-6.516-3.661-8.83.428C10260.27-276.393,10260.738-277.546,10260.738-277.546Z" transform="translate(-10202.827 354.667)" fill="#ebe7c8" fill-rule="evenodd"/>
                    <path id="Path_13315" data-name="Path 13315" d="M10251.811-278.059a8.945,8.945,0,0,1,4.953,2.726,7.033,7.033,0,0,0,.718,3.729c-1.14-.314-4.713.151-6.456,0-.544-.044-.558-.836-.721-1.506-.128-.53-.471-.942-.429-1.148a6.3,6.3,0,0,1,1-2.3C10251.407-277.327,10251.811-278.059,10251.811-278.059Z" transform="translate(-10217.653 354.606)" fill="#ebe7c8" fill-rule="evenodd"/>
                    <path id="Path_13316" data-name="Path 13316" d="M10249.8-276.871s.82,2.127.215,2.513S10250.274-274.589,10249.8-276.871Z" transform="translate(-10217.792 356.503)" fill="#ebe7c8" fill-rule="evenodd"/>
                    <path id="Path_13317" data-name="Path 13317" d="M10246.113-282.12s-1-3.339-3.942-2.584C10238.708-283.816,10244.464-285.927,10246.113-282.12Z" transform="translate(-10231.692 343.82)" fill="#ebe7c8" fill-rule="evenodd"/>
                    <path id="Path_13318" data-name="Path 13318" d="M10243.173-286.179s-.684,1.737.07,2.3S10241.35-284.315,10243.173-286.179Z" transform="translate(-10229.396 341.642)" fill="#ebe7c8" fill-rule="evenodd"/>
                    <path id="Path_13319" data-name="Path 13319" d="M10243.118-285.96s-2.8,3.3-2.8,4.521c0,.608-.231.114,0-.844A6.354,6.354,0,0,1,10243.118-285.96Z" transform="translate(-10233.071 341.992)" fill="#ebe7c8" fill-rule="evenodd"/>
                    <path id="Path_13320" data-name="Path 13320" d="M10238.9-285.573a11.112,11.112,0,0,1,1.295.857c.644.5,1.363,1.192,2.222,1.794.228.158.074.288.074.288-.217.135-1.327-.971-2.3-1.867C10239.64-285,10239.04-285.4,10238.9-285.573Z" transform="translate(-10235.173 342.609)" fill="#ebe7c8" fill-rule="evenodd"/>
                    <path id="Path_13321" data-name="Path 13321" d="M10262.49-275.134a9.477,9.477,0,0,0-1.793-.717c-.89-.228-1.756-.257-1.579-.286A3.777,3.777,0,0,1,10262.49-275.134Z" transform="translate(-10202.932 357.561)" fill="#ebe7c8" fill-rule="evenodd"/>
                    <path id="Path_13322" data-name="Path 13322" d="M10261.391-275.228s-9.352-.966-12.844,1.722c-.666.514-.464.335-.577.358C10247.419-273.029,10251.346-277.038,10261.391-275.228Z" transform="translate(-10220.777 358.375)" fill="#ebe7c8" fill-rule="evenodd"/>
                    <path id="Path_13323" data-name="Path 13323" d="M10247.912-274.322s.257,1.734,4.449-.216C10255.774-276.129,10249.1-272.616,10247.912-274.322Z" transform="translate(-10220.788 359.549)" fill="#ebe7c8" fill-rule="evenodd"/>
                    <path id="Path_13324" data-name="Path 13324" d="M10253.637-275.047a11.272,11.272,0,0,0-2.8,1.506,9.276,9.276,0,0,0-2.222,2.114c-.514.857-.728.808.359-.68C10249.738-273.154,10250.675-274.1,10253.637-275.047Z" transform="translate(-10220.343 359.415)" fill="#ebe7c8" fill-rule="evenodd"/>
                    <path id="Path_13325" data-name="Path 13325" d="M10253.031-274.136s-2.856.343-3.751,1.5S10249.062-273.4,10253.031-274.136Z" transform="translate(-10219.16 360.869)" fill="#ebe7c8" fill-rule="evenodd"/>
                    <path id="Path_13326" data-name="Path 13326" d="M10254.113-295.573s-2.609,1.815-2.725,2.3S10251.338-295.121,10254.113-295.573Z" transform="translate(-10215.293 326.644)" fill="#804c33" fill-rule="evenodd"/>
                    <path id="Path_13327" data-name="Path 13327" d="M10255.98-295.57s3.281,1.42,3.446,2.368S10259.547-295.713,10255.98-295.57Z" transform="translate(-10207.905 326.641)" fill="#804c33" fill-rule="evenodd"/>
                    <path id="Path_13328" data-name="Path 13328" d="M10258.512-292.3c-.271-.262-1.494-2.4-2.871-1.433s.783-2.5,2.724,0C10258.826-292.56,10258.7-292.778,10258.512-292.3Z" transform="translate(-10209.144 328.104)" fill="#804c33" fill-rule="evenodd"/>
                    <path id="Path_13329" data-name="Path 13329" d="M10255.155-293.5s-.343.493-.572.428c-.6-.166-1.974-.717-2.513.5-.165.369-.269.27-.291,0a1.766,1.766,0,0,1,.5-1.148C10252.583-293.979,10253.553-295.031,10255.155-293.5Z" transform="translate(-10214.611 328.657)" fill="#804c33" fill-rule="evenodd"/>
                    <path id="Path_13330" data-name="Path 13330" d="M10255.156-293.916s.543,1.867-1.257,2.036c-1.361.127.737,1.773,1.334,1.768s.1.722-.432.428-2.863-1.584-1.144-2.511a1.576,1.576,0,0,0,1.287-.5C10254.7-292.376,10255.211-293.625,10255.156-293.916Z" transform="translate(-10212.608 329.289)" fill="#804c33" fill-rule="evenodd"/>
                    <path id="Path_13331" data-name="Path 13331" d="M10253.493-290.488a6.66,6.66,0,0,0,2.729-.288c.815-.275,1.819-1.213,1.795-1.506-.034-.332.606-.343.357.216a3.935,3.935,0,0,1-2.229,1.721A3.59,3.59,0,0,1,10253.493-290.488Z" transform="translate(-10211.876 331.53)" fill="#804c33" fill-rule="evenodd"/>
                    <path id="Path_13332" data-name="Path 13332" d="M10255.781-292.533s.817.436.933.932c.121.535-.285-.569-1.578-.789C10254.689-292.463,10255.321-292.78,10255.781-292.533Z" transform="translate(-10209.498 331.35)" fill="#804c33" fill-rule="evenodd"/>
                    <path id="Path_13333" data-name="Path 13333" d="M10261.877-292.535l.284.647-3.157,2.8,4.377,1.148-.646-2.08.646-.145.789,2.368s.087.846-1,.644c-.943-.171-4.811-1.361-4.811-1.361s-.949-.151-.215-.789S10261.877-292.535,10261.877-292.535Z" transform="translate(-10204.899 331.494)" fill="#9eac4c" fill-rule="evenodd"/>
                    <path id="Path_13334" data-name="Path 13334" d="M10253.419-291.69l-.073-.789-3.586,2.08s-.74.5-.074.789,4.231,1.29,4.231,1.29l-.214-1.075-3.226-.647Z" transform="translate(-10218.401 331.584)" fill="#9eac4c" fill-rule="evenodd"/>
                    <path id="Path_13335" data-name="Path 13335" d="M10254.323-295.905s-5.11,4.861-4.59,7.675c3.083.106,10.259.428,10.259.428l1.29-4.3.792,3.874s9.7.088,10.474-.574,2.3-4.521,2.3-4.521l-1.074,4.949a18.709,18.709,0,0,0,5.09-1.361,3.462,3.462,0,0,0,1.726-2.082c-.537-2.01-8.683-8.535-8.683-8.535Z" transform="translate(-10217.944 319.013)" fill="#7e4d31" fill-rule="evenodd"/>
                    <path id="Path_13336" data-name="Path 13336" d="M10254.323-298.64s-5.11,4.861-4.59,7.675c3.083.106,10.259.428,10.259.428l1.29-4.3.792,3.874s9.7.088,10.474-.574,2.3-4.521,2.3-4.521l-1.074,4.949a18.709,18.709,0,0,0,5.09-1.361,3.462,3.462,0,0,0,1.726-2.082,12.441,12.441,0,0,1-1.8,1.363c-1.338.7-3.3,1.153-3.807.932-1.312-.571.693-5.274.291-4.661-.823,1.241-2.914,4.9-3.514,4.8a19.654,19.654,0,0,1-9.112.218c-.553-.171-.466-1.615-1.293-3.446-.264-.587-1.425,4.017-2.582,3.8s-6.912,0-7.748-.358C10249.42-292.582,10254.323-298.64,10254.323-298.64Z" transform="translate(-10217.944 321.747)" fill="#4b3328" fill-rule="evenodd"/>
                  </g>
                </g>
              </g>
            </g>
          </g>
        </g>
      </g>
      <g id="Group_5183" data-name="Group 5183" transform="translate(12.137 0)">
        <path id="Path_13337" data-name="Path 13337" d="M10194.521-278.588a7.538,7.538,0,0,0-5.442,9.174,7.541,7.541,0,0,0,9.174,5.442,7.546,7.546,0,0,0,5.44-9.174l0-.008A7.538,7.538,0,0,0,10194.521-278.588Z" transform="translate(-10098.458 372.313)" fill="#fff" fill-rule="evenodd"/>
        <path id="Path_13338" data-name="Path 13338" d="M10172.3-240.295a7.956,7.956,0,0,0,7.485,8.4,7.932,7.932,0,0,0,4.39-1.028,26.191,26.191,0,0,0,33.458,15.9,26.139,26.139,0,0,0,7.288-3.993,15.9,15.9,0,0,0,20.938-8.2,15.89,15.89,0,0,0,.988-9.657,24.661,24.661,0,0,1,21.177-12.637,20.721,20.721,0,0,0,14.933-25.22,20.682,20.682,0,0,0-4.658-8.709,20.5,20.5,0,0,0-19.662-21.31,20.514,20.514,0,0,0-14.29,5.024,20.737,20.737,0,0,0-26.913-11.64,20.722,20.722,0,0,0-4.9,2.763,22.744,22.744,0,0,0-31.481,6.593,22.793,22.793,0,0,0-3.706,12.2,7.948,7.948,0,0,0-10.939,2.584,7.941,7.941,0,0,0-.939,6.151c.059.218.125.431.194.639a22.745,22.745,0,0,0-8.716,30.966,22.737,22.737,0,0,0,15.354,11.178Z" transform="translate(-10154.032 314.829)" fill="#fff" fill-rule="evenodd"/>
        <circle id="Ellipse_390" data-name="Ellipse 390" cx="35.502" cy="35.502" r="35.502" transform="translate(23.285 83.924) rotate(-87.715)" fill="#cd809c"/>
        <g id="Group_5182" data-name="Group 5182" transform="translate(23.285 12.976)">
          <g id="Group_7203" data-name="Group 7203" transform="translate(0 0)">
            <g id="Group_7202" data-name="Group 7202" transform="translate(0)" clip-path="url(#clip-path-2)">
              <g id="Group_5181" data-name="Group 5181" transform="translate(-1.164 -2.596)">
                <g id="Group_5180" data-name="Group 5180">
                  <g id="Group_5179" data-name="Group 5179">
                    <line id="Line_509" data-name="Line 509" y1="2.887" x2="5.401" transform="translate(34.153 33.496)" fill="none" stroke="#fdfdfd" stroke-width="0.133"/>
                    <path id="Path_13339" data-name="Path 13339" d="M10199.872-264.857s-2.3,8.073-2.983,10.617c-1.064,1.7-26.578-3.812-28.121-4.471s6.144-7.54,6.144-7.54Z" transform="translate(-10152.952 382.006)" fill="#443228" fill-rule="evenodd"/>
                    <path id="Path_13340" data-name="Path 13340" d="M10178.616-265.282a5.448,5.448,0,0,1,5.4,5.494,5.447,5.447,0,0,1-5.5,5.4,5.445,5.445,0,0,1-5.4-5.448,5.471,5.471,0,0,1,5.493-5.448Z" transform="translate(-10145.668 383.553)" fill="#c7c5c5" fill-rule="evenodd"/>
                    <path id="Path_13341" data-name="Path 13341" d="M10177.882-265.175a4.333,4.333,0,0,1,4.331,4.331,4.332,4.332,0,0,1-4.328,4.331,4.331,4.331,0,0,1-4.331-4.331h0A4.331,4.331,0,0,1,10177.882-265.175Z" transform="translate(-10144.984 383.724)" fill="#734e63" fill-rule="evenodd"/>
                    <path id="Path_13342" data-name="Path 13342" d="M10176.207-264.113a1.9,1.9,0,0,1,2.23,1.5,1.9,1.9,0,0,1-1.506,2.225,1.9,1.9,0,0,1-2.227-1.5,1.888,1.888,0,0,1-.035-.363A1.729,1.729,0,0,1,10176.207-264.113Z" transform="translate(-10143.213 385.363)" fill="#553b47" fill-rule="evenodd"/>
                    <path id="Path_13343" data-name="Path 13343" d="M10162.831-251.429s1.451-24.21,3.631-25.607c1.785-1.142,9.382-4.292,14.543-5.962a3.266,3.266,0,0,1,2.128-1.394,100.249,100.249,0,0,1,16.345-.849c4.784.247,11.008-.447,11.045-.257,0,0,8.782-1.046,14.844-1.293-1.408,6.665-1.013,13.564-.253,14.413.456.514-10.043,1.885-13.813,1.984a35.506,35.506,0,0,1,2.375,16.735s-.17,10.114-3.164,14.805a22.426,22.426,0,0,0-1.46,8.249l-32.162.6Z" transform="translate(-10162.102 349.213)" fill="#c2d168" fill-rule="evenodd"/>
                    <path id="Path_13344" data-name="Path 13344" d="M10179.848-271.467s-5.573-6.354-16.3-1.4c-1.324.613.6-.374.186-.28C10160.81-272.464,10175.745-279.763,10179.848-271.467Z" transform="translate(-10161.704 367.296)" fill="#a0ad4b" fill-rule="evenodd"/>
                    <path id="Path_13345" data-name="Path 13345" d="M10167.313-283.608s10.531,3.007,5.219,27.191c-.066,2.057,2.141-10.428,2.141-10.428S10175.943-281.58,10167.313-283.608Z" transform="translate(-10154.947 354.295)" fill="#a0ad4b" fill-rule="evenodd"/>
                    <path id="Path_13346" data-name="Path 13346" d="M10179.294-283.571a47.183,47.183,0,0,1,8.2,24.023C10186.82-255.824,10190.551-273.52,10179.294-283.571Z" transform="translate(-10135.82 354.354)" fill="#a0ad4b" fill-rule="evenodd"/>
                    <path id="Path_13347" data-name="Path 13347" d="M10181.286-283.536s.563,5.4-.183,5.4S10181.479-280.124,10181.286-283.536Z" transform="translate(-10133.348 354.41)" fill="#a0ad4b" fill-rule="evenodd"/>
                    <path id="Path_13348" data-name="Path 13348" d="M10182.9-285.831s5.034,2.243,4.373,5.772-3.743,5.144-7.818,4.562-10.177-5.57-9.129-9.031-4.625,5.113,7.823,9.218c4.056,1.337,7.924-.592,8.753-2.236a5.726,5.726,0,0,0,.653-4.1C10187.212-282.593,10185.523-285.6,10182.9-285.831Z" transform="translate(-10150.785 350.746)" fill="#a0ad4b" fill-rule="evenodd"/>
                    <path id="Path_13349" data-name="Path 13349" d="M10170.846-285.437a7.506,7.506,0,0,0,4.19,5.4C10178.814-278.18,10168.881-281.716,10170.846-285.437Z" transform="translate(-10149.725 351.375)" fill="#a0ad4b" fill-rule="evenodd"/>
                    <path id="Path_13350" data-name="Path 13350" d="M10186.521-286.707s-1.682,7.418-.041,10.384S10183.136-279.336,10186.521-286.707Z" transform="translate(-10126.207 349.347)" fill="#a0ad4b" fill-rule="evenodd"/>
                    <path id="Path_13351" data-name="Path 13351" d="M10217-277.165a17.615,17.615,0,0,0-1.9-1.727c-.415-.252-1.1-.693-3.537-.171-1.233.262-24.428,4.056-24.428,4.056a3.694,3.694,0,0,0-2.332,2.329c-.651,1.8-6.99,21.666-6.99,21.666l20.455,2.243,10.27-.865,2.071-19.936Z" transform="translate(-10138.192 361.162)" fill="#c13f28" fill-rule="evenodd"/>
                    <path id="Path_13352" data-name="Path 13352" d="M10179.3-254.037l5.693-16.831a4.085,4.085,0,0,1,3.11-2.848c2.675-.709,25.549-4.832,25.549-4.832s1.977-.8.682,3.71-8.37,24.171-8.37,24.171Z" transform="translate(-10135.803 362.285)" fill="#dc4427" fill-rule="evenodd"/>
                    <path id="Path_13353" data-name="Path 13353" d="M10188.718-272.859c-.732-2.127-3.41-1.374-3.408,1.174,0,1.272,1.167,1.571,1.9,1.937a2.45,2.45,0,0,1,1.187,1.08,5.078,5.078,0,0,1,1.334-1.439c.738-.574,1.833-1.114,2.013-2.308C10192.094-274.8,10189.692-274.962,10188.718-272.859Z" transform="translate(-10126.216 369.109)" fill="#fdfdfd" fill-rule="evenodd"/>
                    <path id="Path_13354" data-name="Path 13354" d="M10192.166-277.7c.79-.1,1.313.5,1.115,1.387a2.307,2.307,0,0,1-2,1.768c-.8,0-1.177-.727-.895-1.573A2.383,2.383,0,0,1,10192.166-277.7Z" transform="translate(-10118.267 363.708)" fill="#63364a" fill-rule="evenodd"/>
                    <path id="Path_13355" data-name="Path 13355" d="M10191.431-286.826s-1.16,1.412-1.124,6.387c-.273.374-3.439.8-4.227,1.555-.819.784-.621,1.381-.779,2.674-.427,3.568-1.9,8.3-.684,9.407a2.04,2.04,0,0,0,2.5.343c-.671.221.749-.291.69-.948a9.6,9.6,0,0,1,.6-2.934c.055.2-.111.6.172.948a3.714,3.714,0,0,0,1.986.95c.535.073.544-.553.683-.514a4.131,4.131,0,0,0,3.8-.6c2.14-.766,2.345,0,3.627-1.467,1.072.885,6.227,1.457,7.418,1.293s9.14.075,7.77-9.148c-.955-6.429-7.364-6.652-8.2-6.733C10205.108-285.671,10191.431-286.826,10191.431-286.826Z" transform="translate(-10128.074 349.157)" fill="#faf8ea" fill-rule="evenodd"/>
                    <path id="Path_13356" data-name="Path 13356" d="M10191.268-270.43c.3.249.684.514.084.862.428-.543-.229-.779-.256-.688-.105.3.021.405-.086.514-.092.091.094-.2-.086-.171a1.34,1.34,0,0,0-.641.293c.3-.319,1.5-1.849,1.5-1.849-.025.166-.482.727-.508,1.036Zm-.99.813c-.055.047-.072.073-.049.049Zm-.91-7.455c.131-.213-.494,1.083,0,1.727a24.443,24.443,0,0,0-1.748,4.406,3.416,3.416,0,0,0-.066,1.979c-.232-.47-.289-.867-.342-.558-.4,2.249.127-2.532,1.813-5.741a2.83,2.83,0,0,1,.344-1.815Zm6.129-6.214a50.371,50.371,0,0,0-5.861,1.872.814.814,0,0,1-.18.112,6.488,6.488,0,0,1-2.85.862c-.615-2.856.947-6.385.947-6.385s2.781.06,6.387.514c-4.33,1.137-3.5,3.672-4.119,4.679a21.63,21.63,0,0,1,5.76-2.264,7.35,7.35,0,0,1,5.365.917c4.178,2.5-1.174-1.088-5.449-.312Z" transform="translate(-10124.373 349.161)" fill="#ebe7c8" fill-rule="evenodd"/>
                    <path id="Path_13357" data-name="Path 13357" d="M10190.1-282.671s1.193,3.672-.084,5.006S10191.038-278.73,10190.1-282.671Z" transform="translate(-10119.33 355.791)" fill="#ebe7c8" fill-rule="evenodd"/>
                    <path id="Path_13358" data-name="Path 13358" d="M10186.493-281.554s-.654-1.049,0-1.392-.144-.5-.593.164.193,1.485.3,1.615-.422,4.323-.443,5.364S10186.466-281.307,10186.493-281.554Z" transform="translate(-10125.521 354.879)" fill="#ebe7c8" fill-rule="evenodd"/>
                    <path id="Path_13359" data-name="Path 13359" d="M10179.555-269.828c-.3-1.278-6.444-7.826-16.225-1.9-.538,7.024-1.256,21.881-.343,24.6s3.3,6.38,7.423,5.7c4.231-.7,37.239-11.261,40.894-13.788,1.419-.4,3.488.148,4.676.41,1.5.332,2.743.8,4.748,1.207a3.188,3.188,0,0,0,2.247-.691s4.164-.943,4.83-1.727a21.285,21.285,0,0,0,3.626,1.3c.8.135,2.228-.008,3.622-2.5.477-1.059-1.378-2.934-1.378-2.934a9.054,9.054,0,0,1-.346,1.3c-1.862.771-1.553.428-1.553.428s-2.3-1.361-4.139-2.246a9,9,0,0,1-1.817-1.033,25.1,25.1,0,0,0-2.933-2.677c-.351-.208.525-1.028,1.466-1.036,1.647-.016,3.7.566,4.746-.086,1.411-.961,2.837-1.96,2.072-3.02-.37-.514-1.233.836-2.417.6-.9-.177-1.872-1.275-2.846-1.467-2.25-.441-5.629-.963-7.337-.686s-3.272,2.2-6.475,5.266c-2,1.922-6.424,2.1-8.715,2.415-2.353.33-18.817-1.516-24.6.776A64.16,64.16,0,0,0,10179.555-269.828Z" transform="translate(-10162.55 369.36)" fill="#faf8ea" fill-rule="evenodd"/>
                    <path id="Path_13360" data-name="Path 13360" d="M10225.4-260.639a9.66,9.66,0,0,0-1.727-1.381C10225.271-261.646,10226.069-259.894,10225.4-260.639Zm-53.6-4.144s-3.8,2.114-4.6,3.653S10167.111-264.492,10171.8-264.783Zm48.418,6.128c-4.674,1.854-6.042.691-6.042.691.794,1.831,5.895-.332,6.723-.844,3.14,1.509,6.147,1.015,3.983.93-2.854-.112-6.819-3.02-6.819-3.02a9.066,9.066,0,0,0,2.726,2.033c-.129.044-.316.109-.568.21Zm-5.87-9.581a.459.459,0,0,1,.164.07C10214.343-268.195,10214.239-268.223,10214.353-268.236Zm4.486,0a11.01,11.01,0,0,0,2.936-.083c2.269-.608,3.354-3.157,2.246-3.368-.6-.112-.949.543-1.292.6-1.188.21-2.163-.636-3.544-1.207-.242-.1.264.312,1.033.73,1.026.563,2.521,1.135,3.285.478.222-.19.44.205.429.086.05.6-.234,2.1-2.59,2.5a28.3,28.3,0,0,1-3.449,0c-1.667.1-1.754.122-2.159.862l-.014.026-.506-.457s-.435-.055-.7-.1c.843.5,4.412,3.469,4.412,3.469l-3.207-2.908a1.838,1.838,0,0,1,1.048-.717,13.423,13.423,0,0,1,2.069.086Z" transform="translate(-10155.575 372.341)" fill="#ebe7c8" fill-rule="evenodd"/>
                    <path id="Path_13361" data-name="Path 13361" d="M10189.774-268.291s.77.2.866.343a1.091,1.091,0,0,0-.345-.343A1.044,1.044,0,0,0,10189.774-268.291Z" transform="translate(-10119.085 378.697)" fill="#efbccf" fill-rule="evenodd"/>
                    <path id="Path_13362" data-name="Path 13362" d="M10171.539-255.039s2.822-26.142,1.863-27.658c-1.334.031-2.851-2.7-3.072-4.191-.164-1.106-.172-4.723,1.861-4.562a2.194,2.194,0,0,1,2.147,2.236l0,.093c.085,1.415.651-.745.651-.745l-.189-3.352,1.117-.652-.375-6.52,8.2-3.91,9.775,1.3.188,1.49s4.868,14.922,2.7,27.562c-2.245,7.5-12.917,7.218-13.691,6.707-.057,1.327-.935,8.548,0,11.731,1.872,2.059,3.068,4.843.842,6.613C10181.111-246.954,10170.313-251,10171.539-255.039Z" transform="translate(-10150.233 321.258)" fill="#faf8ea" fill-rule="evenodd"/>
                    <path id="Path_13363" data-name="Path 13363" d="M10171.954-292.821s3.148,6.686,8.192,7.356c-.187,3.009-.242,4.422-.37,6.146s.307,9.225.281,8.657c-.453-9.348-7.453-19.555-7.453-19.555S10171.589-292.987,10171.954-292.821Z" transform="translate(-10147.665 339.575)" fill="#ebe7c8" fill-rule="evenodd"/>
                    <path id="Path_13364" data-name="Path 13364" d="M10174.128-276.647c-.011-.036-.511-4.83-2.722-4.334-.135-1-.63-7.029-.63-7.029a4.9,4.9,0,0,1,1.027-4.1c1.641-1.638,6.4-3.305,7.264-3.446a9.922,9.922,0,0,1-.651-10.056c2.584-5.2,8.935-5.274,10.987-5.214,2.126.062,10.4.758,10.338,9.685-.045,6.772-2.582,8.784-4.2,9.592.178.691.472,4.889-.833,6.517-.474-1.161-1.49-5.866-1.49-5.866s-6.331.706-10.244,0c-3.171-.574-6.967,1.389-7.639,2.794-.325.686,1.372,3.913-.088,5.214s-.176,4.887-.282,5.959C10174.914-276.4,10174.128-276.647,10174.128-276.647Z" transform="translate(-10149.56 310.832)" fill="#7e4e31" fill-rule="evenodd"/>
                    <path id="Path_13365" data-name="Path 13365" d="M10174.127-301.134s9.379,3.5,9.127-3.817a3.365,3.365,0,0,0-2.418-2.326s4.35.686,3.35,3.817S10180.408-297.511,10174.127-301.134Z" transform="translate(-10144.067 316.507)" fill="#463329" fill-rule="evenodd"/>
                    <path id="Path_13366" data-name="Path 13366" d="M10172.241-292.345l-.131-.4A1.335,1.335,0,0,1,10172.241-292.345Zm-1.117-2.233c-.341.068.624,1.07.988,1.836C10171.891-293.4,10171.43-294.641,10171.124-294.578Zm7.731-1.677.092-1.4c.508-.657,6.194-3.986,6.147-3.539a15.628,15.628,0,0,0,.094,1.864l-6.336,3.072Zm4.316,5.4a2.474,2.474,0,0,0-.587.462c-.095.195-.191-.465-.191-.465s1.251-.966,1.678-.558c0,0-.464.273-.873.543.256.675,1.436,3.033,4.69,1.506.293.1.279.652.279.652s-4.223,1.7-5-2.142Zm7.323-2.051c.3.576-2,.478-2.234.371s.092-.558.092-.558,1.6.156,1.49-.094a6.6,6.6,0,0,1-.745-5.12,7.315,7.315,0,0,0,1.4,5.4Zm3.909-4.936c.306.794-.091-1.584-.091-1.584a22.384,22.384,0,0,0-3.724-1.581l-.373,1.955s3.882.418,4.185,1.213Z" transform="translate(-10148.975 326.156)" fill="#7e4e31" fill-rule="evenodd"/>
                    <path id="Path_13367" data-name="Path 13367" d="M10178.524-299.448s1.251,1.553,2.245.691c.273-.322.428.343.428.343s-1.1,1.293-2.5-.428C10178.255-299.612,10178.524-299.448,10178.524-299.448Z" transform="translate(-10137.182 328.982)" fill="#7e4e31" fill-rule="evenodd"/>
                    <path id="Path_13368" data-name="Path 13368" d="M10177.821-299.424l.17.691s-1.23,2.085-2.934.6c-.087-.361.26-.257.26-.257a1.349,1.349,0,0,0,1.553.086A2.343,2.343,0,0,0,10177.821-299.424Z" transform="translate(-10142.605 329.044)" fill="#7e4e31" fill-rule="evenodd"/>
                  </g>
                </g>
              </g>
            </g>
          </g>
        </g>
      </g>
    </g>
  </g>
</svg>
