<svg xmlns="http://www.w3.org/2000/svg" xmlns:xlink="http://www.w3.org/1999/xlink" width="77.82" height="128.281" viewBox="0 0 77.82 128.281">
  <defs>
    <linearGradient id="linear-gradient" y1="0.5" x2="1" y2="0.5" gradientUnits="objectBoundingBox">
      <stop offset="0" stop-color="#d7805b"/>
      <stop offset="1" stop-color="#7b4129"/>
    </linearGradient>
    <linearGradient id="linear-gradient-9" x1="0" y1="0.5" x2="1" y2="0.5" xlink:href="#linear-gradient"/>
  </defs>
  <g id="Group_7670" data-name="Group 7670" transform="translate(-1536.998 -773.968)">
    <path id="Path_62054" data-name="Path 62054" d="M1585.377,928.64a4.6,4.6,0,1,1,4.6-4.593A4.6,4.6,0,0,1,1585.377,928.64Zm0-6.056a1.461,1.461,0,1,0,1.462,1.462A1.462,1.462,0,0,0,1585.377,922.584Z" transform="translate(-9.47 -31.463)" fill="url(#linear-gradient)"/>
    <path id="Path_62055" data-name="Path 62055" d="M1613.254,889.052h-74.671a1.567,1.567,0,0,1-1.567-1.567V792.638a1.567,1.567,0,0,1,1.567-1.567h73.2a1.569,1.569,0,0,1,1.414-.986,1.552,1.552,0,0,1,1.607,1.481c.011.2.016.4.016.593v95.327A1.568,1.568,0,0,1,1613.254,889.052Zm-73.1-3.135h71.536V794.205H1540.15Z" transform="translate(-0.004 -3.485)" fill="url(#linear-gradient)"/>
    <path id="Path_62056" data-name="Path 62056" d="M1606.647,932.18h-61.459a8.18,8.18,0,0,1-8.173-8.169V913.93a1.567,1.567,0,0,1,1.567-1.567h74.671a1.568,1.568,0,0,1,1.568,1.567v10.081A8.181,8.181,0,0,1,1606.647,932.18Zm-66.5-16.682v8.514a5.041,5.041,0,0,0,5.038,5.034h61.459a5.042,5.042,0,0,0,5.039-5.034V915.5Zm35.762,11.609a4.6,4.6,0,1,1,4.6-4.593A4.6,4.6,0,0,1,1575.911,927.107Zm0-6.056a1.461,1.461,0,1,0,1.462,1.462A1.462,1.462,0,0,0,1575.911,921.051Z" transform="translate(-0.004 -29.931)" fill="url(#linear-gradient)"/>
    <path id="Path_62057" data-name="Path 62057" d="M1585.377,928.64a4.6,4.6,0,1,1,4.6-4.593A4.6,4.6,0,0,1,1585.377,928.64Zm0-6.056a1.461,1.461,0,1,0,1.462,1.462A1.462,1.462,0,0,0,1585.377,922.584Z" transform="translate(-9.47 -31.463)" fill="url(#linear-gradient)"/>
    <path id="Path_62058" data-name="Path 62058" d="M1613.236,790.72h-74.671a1.567,1.567,0,0,1-1.567-1.567v-7.015a8.181,8.181,0,0,1,8.173-8.17h61.459a8.18,8.18,0,0,1,8.173,8.17v7.015A1.567,1.567,0,0,1,1613.236,790.72Zm-73.1-3.135h71.536v-5.448a5.042,5.042,0,0,0-5.038-5.035h-61.459a5.042,5.042,0,0,0-5.039,5.035Z" fill="url(#linear-gradient)"/>
    <path id="Path_62059" data-name="Path 62059" d="M1596.283,887.447h-32.791a10.393,10.393,0,1,1,0-20.787h32.791a10.393,10.393,0,1,1,0,20.787Zm-32.791-17.652a7.259,7.259,0,1,0,0,14.517h32.791a7.259,7.259,0,1,0,0-14.517Z" transform="translate(-3.482 -20.047)" fill="url(#linear-gradient)"/>
    <path id="Path_62060" data-name="Path 62060" d="M1585.377,928.64a4.6,4.6,0,1,1,4.6-4.593A4.6,4.6,0,0,1,1585.377,928.64Zm0-6.056a1.461,1.461,0,1,0,1.462,1.462A1.462,1.462,0,0,0,1585.377,922.584Z" transform="translate(-9.47 -31.463)" fill="url(#linear-gradient)"/>
    <path id="Path_62061" data-name="Path 62061" d="M1560.106,835.924a6.354,6.354,0,1,1,6.354-6.354A6.361,6.361,0,0,1,1560.106,835.924Zm0-9.573a3.219,3.219,0,1,0,3.219,3.22A3.223,3.223,0,0,0,1560.106,826.351Z" transform="translate(-3.623 -10.651)" fill="url(#linear-gradient)"/>
    <path id="Path_62062" data-name="Path 62062" d="M1608.67,833.1h-28.246a1.567,1.567,0,0,1,0-3.135h28.246a1.567,1.567,0,0,1,0,3.135Z" transform="translate(-9.053 -12.11)" fill="url(#linear-gradient-9)"/>
    <path id="Path_62063" data-name="Path 62063" d="M1560.106,856.522a6.354,6.354,0,1,1,6.354-6.354A6.361,6.361,0,0,1,1560.106,856.522Zm0-9.573a3.219,3.219,0,1,0,3.219,3.219A3.222,3.222,0,0,0,1560.106,846.949Z" transform="translate(-3.623 -15.106)" fill="url(#linear-gradient)"/>
    <path id="Path_62064" data-name="Path 62064" d="M1608.67,853.7h-28.246a1.568,1.568,0,0,1,0-3.135h28.246a1.568,1.568,0,0,1,0,3.135Z" transform="translate(-9.053 -16.566)" fill="url(#linear-gradient)"/>
  </g>
</svg>
