<svg id="Group_7217" data-name="Group 7217" xmlns="http://www.w3.org/2000/svg" xmlns:xlink="http://www.w3.org/1999/xlink" width="136.68" height="129.681" viewBox="0 0 136.68 129.681">
  <defs>
    <clipPath id="clip-path">
      <rect id="Rectangle_18851" data-name="Rectangle 18851" width="136.68" height="129.681" fill="none"/>
    </clipPath>
    <clipPath id="clip-path-3">
      <rect id="Rectangle_18834" data-name="Rectangle 18834" width="84.15" height="103.38" transform="translate(26.32 2.001)" fill="none"/>
    </clipPath>
    <clipPath id="clip-path-4">
      <path id="Path_20857" data-name="Path 20857" d="M69.967,50.964a21.548,21.548,0,0,1,28.266-4.87,14.185,14.185,0,0,0-1.343,6v8.657a14.128,14.128,0,0,0,4.143,9.985l0,0a14.129,14.129,0,0,0,7.434,3.913V76.9A25.694,25.694,0,0,0,85.482,100.28a25.51,25.51,0,0,0-34.292-.1A25.575,25.575,0,0,0,28.32,76.923V74.632A14.215,14.215,0,0,0,39.79,60.741V52.082a14.184,14.184,0,0,0-1.319-5.923,21.54,21.54,0,0,1,28.367,4.81L68.4,52.933Zm5.763-9.6A25.736,25.736,0,0,0,68.4,46.687a25.531,25.531,0,0,0-33.751-2.745l-1.49,1.119,1.012,1.565a10.146,10.146,0,0,1,1.62,5.464v8.645A10.2,10.2,0,0,1,26.2,70.873l-1.884.11v9.748l1.937.059A21.613,21.613,0,0,1,47.29,102.41v8.911l3.61-4.893a21.555,21.555,0,0,1,34.872.128l3.618,4.986v-9.126a21.693,21.693,0,0,1,21.131-21.637l1.948-.048V70.963l-1.9-.091a10.158,10.158,0,0,1-9.675-10.131V52.1a10.108,10.108,0,0,1,1.651-5.529l1.04-1.581-1.521-1.126a25.549,25.549,0,0,0-26.33-2.494M42.784,29.956A10.1,10.1,0,0,1,39.81,22.8V14.157A10.145,10.145,0,1,1,60.1,14.151V22.8a10.133,10.133,0,0,1-17.315,7.161M49.945,0A14.219,14.219,0,0,0,35.809,14.151v8.657A14.174,14.174,0,0,0,49.956,36.94,14.215,14.215,0,0,0,64.1,22.8V14.145A14.22,14.22,0,0,0,49.956,0ZM79.664,29.956A10.089,10.089,0,0,1,76.691,22.8V14.157a10.145,10.145,0,1,1,20.289-.006V22.8a10.134,10.134,0,0,1-17.316,7.161M86.824,0A14.216,14.216,0,0,0,72.69,14.151v8.656A14.173,14.173,0,0,0,86.836,36.94,14.217,14.217,0,0,0,100.981,22.8V14.145A14.222,14.222,0,0,0,86.836,0Z" fill="none"/>
    </clipPath>
    <clipPath id="clip-path-5">
      <path id="Path_20909" data-name="Path 20909" d="M110.565,70.872a10.158,10.158,0,0,1-9.675-10.131V52.1a10.145,10.145,0,1,1,20.29-.006v8.642a10.21,10.21,0,0,1-10.15,10.156c-.15,0-.3-.009-.465-.019M99.2,44.372A14.088,14.088,0,0,0,96.89,52.09v8.657a14.161,14.161,0,0,0,13.461,14.12c.219.013.449.024.685.024a14.222,14.222,0,0,0,14.144-14.15V52.084A14.136,14.136,0,0,0,99.2,44.372" fill="none"/>
    </clipPath>
    <clipPath id="clip-path-6">
      <path id="Path_20977" data-name="Path 20977" d="M89.39,104.74v-2.324a21.692,21.692,0,0,1,21.189-21.638c.144-.008.3-.008.445-.008a21.773,21.773,0,0,1,21.656,21.644v6.417H91.7a25.087,25.087,0,0,0-2.306-4.091m21.029-27.958a25.691,25.691,0,0,0-25.03,25.628v3.627l.389.528a21.219,21.219,0,0,1,2.715,4.98l.492,1.285h47.694V102.4A25.78,25.78,0,0,0,111.03,76.771c-.227,0-.453,0-.611.011" fill="none"/>
    </clipPath>
    <clipPath id="clip-path-7">
      <path id="Path_21046" data-name="Path 21046" d="M4,102.416A21.713,21.713,0,0,1,25.65,80.77c.166,0,.326,0,.486.012l.122.008A21.616,21.616,0,0,1,47.29,102.414v2.177a25.01,25.01,0,0,0-2.405,4.24H4ZM7.536,84.3A25.556,25.556,0,0,0,0,102.41v10.42H47.6l.492-1.284a21.2,21.2,0,0,1,2.8-5.108l.4-.532v-3.5A25.6,25.6,0,0,0,26.437,76.794c-.259-.02-.518-.023-.792-.023A25.553,25.553,0,0,0,7.536,84.3" fill="none"/>
    </clipPath>
    <clipPath id="clip-path-8">
      <path id="Path_21098" data-name="Path 21098" d="M18.484,67.907A10.118,10.118,0,0,1,15.5,60.741V52.1a10.145,10.145,0,0,1,20.29,0v8.639a10.192,10.192,0,0,1-9.568,10.137c-.188.01-.375.019-.566.019a10.118,10.118,0,0,1-7.172-2.984M11.5,52.09v8.656A14.19,14.19,0,0,0,25.65,74.891c.263,0,.515-.011.786-.024A14.2,14.2,0,0,0,39.79,60.741V52.082a14.145,14.145,0,0,0-28.29.008" fill="none"/>
    </clipPath>
    <clipPath id="clip-path-9">
      <path id="Path_21150" data-name="Path 21150" d="M61.124,84.757A10.119,10.119,0,0,1,58.14,77.59V68.95a10.145,10.145,0,0,1,20.29-.009v8.644a10.127,10.127,0,0,1-17.306,7.172M68.284,54.8a14.231,14.231,0,0,0-14.145,14.14V77.6A14.146,14.146,0,1,0,82.43,77.59V68.935A14.209,14.209,0,0,0,68.3,54.8Z" fill="none"/>
    </clipPath>
    <clipPath id="clip-path-10">
      <path id="Path_21218" data-name="Path 21218" d="M46.651,119.267a21.611,21.611,0,0,1,1.436-7.721,21.209,21.209,0,0,1,2.813-5.118,21.555,21.555,0,0,1,34.878.137,21.193,21.193,0,0,1,2.716,4.985,21.557,21.557,0,0,1,1.436,7.714v6.417H46.651Zm3.525-18.121a25.7,25.7,0,0,0-2.489,2.9,25.23,25.23,0,0,0-3.333,6.067,25.555,25.555,0,0,0-1.7,9.149v10.421H93.929V119.254a25.519,25.519,0,0,0-1.7-9.138,25.152,25.152,0,0,0-3.22-5.91,25.548,25.548,0,0,0-38.832-3.06" fill="none"/>
    </clipPath>
  </defs>
  <g id="Group_7216" data-name="Group 7216" clip-path="url(#clip-path)">
    <g id="Group_7201" data-name="Group 7201">
      <g id="Group_7200" data-name="Group 7200" clip-path="url(#clip-path)">
        <g id="Group_7199" data-name="Group 7199" opacity="0.2">
          <g id="Group_7198" data-name="Group 7198">
            <g id="Group_7197" data-name="Group 7197" clip-path="url(#clip-path-3)">
              <path id="Path_20642" data-name="Path 20642" d="M102.45,69.321a12.176,12.176,0,0,1-3.56-8.58v-8.65a12.1,12.1,0,0,1,1.98-6.62,23.557,23.557,0,0,0-32.47,4.25,23.537,23.537,0,0,0-32.55-4.18,12.136,12.136,0,0,1,1.94,6.55v8.65a12.187,12.187,0,0,1-11.47,12.13v5.92a23.707,23.707,0,0,1,22.97,23.62v2.83a23.557,23.557,0,0,1,38.1.14v-2.97a23.691,23.691,0,0,1,23.08-23.63v-5.91a12.117,12.117,0,0,1-8.02-3.55m-22.02,8.27a12.145,12.145,0,0,1-24.29,0v-8.65a12.145,12.145,0,0,1,24.29,0ZM86.83,2a12.18,12.18,0,0,0-12.14,12.15V22.8a12.145,12.145,0,0,0,24.29,0v-8.65A12.189,12.189,0,0,0,86.83,2M49.95,2a12.18,12.18,0,0,0-12.14,12.15V22.8a12.145,12.145,0,0,0,24.29,0v-8.65A12.189,12.189,0,0,0,49.95,2" fill="#9b8fc4" fill-rule="evenodd"/>
            </g>
          </g>
        </g>
      </g>
    </g>
    <g id="Group_7203" data-name="Group 7203">
      <g id="Group_7202" data-name="Group 7202" clip-path="url(#clip-path-4)">
        <path id="Path_20643" data-name="Path 20643" d="M60.1,5.751,57.947,4H60.1Z" fill="#786d9d"/>
        <path id="Path_20644" data-name="Path 20644" d="M60.1,7.9,55.308,4h2.639L60.1,5.75Z" fill="#776c9c"/>
        <path id="Path_20645" data-name="Path 20645" d="M60.1,10.042,52.669,4h2.639L60.1,7.9Z" fill="#766b9b"/>
        <path id="Path_20646" data-name="Path 20646" d="M60.1,12.188,50.03,4h2.639L60.1,10.042Z" fill="#756a9a"/>
        <path id="Path_20647" data-name="Path 20647" d="M60.1,14.333,47.391,4H50.03L60.1,12.187Z" fill="#746999"/>
        <path id="Path_20648" data-name="Path 20648" d="M60.1,16.479,44.751,4h2.64L60.1,14.333Z" fill="#736898"/>
        <path id="Path_20649" data-name="Path 20649" d="M60.1,18.624,42.112,4h2.639L60.1,16.479Z" fill="#726897"/>
        <path id="Path_20650" data-name="Path 20650" d="M60.1,20.77,40.374,4.732,40.969,4h1.143L60.1,18.624Z" fill="#716796"/>
        <path id="Path_20651" data-name="Path 20651" d="M60.1,22.916,39.81,6.42V5.426l.564-.693L60.1,20.77Z" fill="#706695"/>
        <path id="Path_20652" data-name="Path 20652" d="M60.1,25.061,39.81,8.565V6.419l20.29,16.5Z" fill="#6f6594"/>
        <path id="Path_20653" data-name="Path 20653" d="M60.1,27.207l-20.29-16.5V8.565l20.29,16.5Z" fill="#6f6493"/>
        <path id="Path_20654" data-name="Path 20654" d="M60.1,29.353l-20.29-16.5V10.711l20.29,16.5Z" fill="#6e6392"/>
        <path id="Path_20655" data-name="Path 20655" d="M60.1,31.5,39.81,15V12.856l20.29,16.5Z" fill="#6d6291"/>
        <path id="Path_20656" data-name="Path 20656" d="M60.1,31.522,59.062,32.8,39.81,17.147V15L60.1,31.5Z" fill="#6c6190"/>
        <path id="Path_20657" data-name="Path 20657" d="M59.061,32.8l-.115.141H56.6L39.809,19.294V17.148Z" fill="#6b618f"/>
        <path id="Path_20658" data-name="Path 20658" d="M53.957,32.941,39.81,21.439V19.294L56.6,32.941Z" fill="#6a608e"/>
        <path id="Path_20659" data-name="Path 20659" d="M51.318,32.941,39.81,23.585V21.439l14.147,11.5Z" fill="#695f8d"/>
        <path id="Path_20660" data-name="Path 20660" d="M48.678,32.941l-8.869-7.21V23.585l11.508,9.356Z" fill="#685e8c"/>
        <path id="Path_20661" data-name="Path 20661" d="M46.039,32.941l-6.23-5.065V25.731l8.869,7.21Z" fill="#675d8b"/>
        <path id="Path_20662" data-name="Path 20662" d="M43.4,32.941l-3.591-2.919V27.876l6.23,5.065Z" fill="#665c8a"/>
        <path id="Path_20663" data-name="Path 20663" d="M40.761,32.941l-.951-.774V30.022l3.59,2.919Z" fill="#655b89"/>
        <path id="Path_20664" data-name="Path 20664" d="M39.81,32.167l.951.774H39.81Z" fill="#655a88"/>
        <path id="Path_20665" data-name="Path 20665" d="M64.1.42,63.583,0H64.1Z" fill="#7b70a1"/>
        <path id="Path_20666" data-name="Path 20666" d="M64.1,2.566,60.944,0h2.639L64.1.42Z" fill="#7a6fa0"/>
        <path id="Path_20667" data-name="Path 20667" d="M64.1,4.712,58.3,0h2.639L64.1,2.566Z" fill="#796f9f"/>
        <path id="Path_20668" data-name="Path 20668" d="M64.1,6.857,55.666,0H58.3L64.1,4.711Z" fill="#796e9e"/>
        <path id="Path_20669" data-name="Path 20669" d="M64.1,9,53.027,0h2.639L64.1,6.857Z" fill="#786d9d"/>
        <path id="Path_20670" data-name="Path 20670" d="M64.1,11.148,50.388,0h2.639L64.1,9Z" fill="#776c9c"/>
        <path id="Path_20671" data-name="Path 20671" d="M64.1,13.294,47.749,0h2.639L64.1,11.148Z" fill="#766b9b"/>
        <path id="Path_20672" data-name="Path 20672" d="M64.1,15.44,45.11,0h2.639L64.1,13.294Z" fill="#756a9a"/>
        <path id="Path_20673" data-name="Path 20673" d="M64.1,17.585,42.471,0H45.11L64.1,15.439Z" fill="#746999"/>
        <path id="Path_20674" data-name="Path 20674" d="M64.1,19.731,39.831,0h2.64L64.1,17.585Z" fill="#736898"/>
        <path id="Path_20675" data-name="Path 20675" d="M64.1,21.877,37.94.609,38.434,0h1.4L64.1,19.73Z" fill="#726897"/>
        <path id="Path_20676" data-name="Path 20676" d="M64.1,24.022,36.89,1.9,37.94.608,64.1,21.876Z" fill="#716796"/>
        <path id="Path_20677" data-name="Path 20677" d="M64.1,26.168,35.839,3.192,36.89,1.9,64.1,24.022Z" fill="#706695"/>
        <path id="Path_20678" data-name="Path 20678" d="M64.1,28.313l-28.29-23V3.228l.029-.037L64.1,26.167Z" fill="#6f6594"/>
        <path id="Path_20679" data-name="Path 20679" d="M64.1,30.459l-28.29-23V5.313l28.29,23Z" fill="#6f6493"/>
        <path id="Path_20680" data-name="Path 20680" d="M64.1,32.6,35.81,9.6V7.459l28.29,23Z" fill="#6e6392"/>
        <path id="Path_20681" data-name="Path 20681" d="M64.1,33.719l-.505.621L35.81,11.75V9.6l28.29,23Z" fill="#6d6291"/>
        <path id="Path_20682" data-name="Path 20682" d="M63.6,34.34l-1.05,1.292L35.81,13.9V11.75Z" fill="#6c6190"/>
        <path id="Path_20683" data-name="Path 20683" d="M62.545,35.632l-1.05,1.292L35.81,16.042V13.9Z" fill="#6b618f"/>
        <path id="Path_20684" data-name="Path 20684" d="M61.494,36.924l-.014.017h-2.6L35.81,18.188V16.042Z" fill="#6a608e"/>
        <path id="Path_20685" data-name="Path 20685" d="M56.237,36.941,35.81,20.333V18.187L58.876,36.941Z" fill="#695f8d"/>
        <path id="Path_20686" data-name="Path 20686" d="M53.6,36.941,35.809,22.479V20.333L56.237,36.941Z" fill="#685e8c"/>
        <path id="Path_20687" data-name="Path 20687" d="M50.959,36.941,35.809,24.624V22.479L53.6,36.941Z" fill="#675d8b"/>
        <path id="Path_20688" data-name="Path 20688" d="M48.32,36.941,35.809,26.77V24.624l15.15,12.317Z" fill="#665c8a"/>
        <path id="Path_20689" data-name="Path 20689" d="M45.681,36.941,35.81,28.915V26.77L48.32,36.941Z" fill="#655b89"/>
        <path id="Path_20690" data-name="Path 20690" d="M43.042,36.941l-7.232-5.88V28.915l9.871,8.026Z" fill="#655a88"/>
        <path id="Path_20691" data-name="Path 20691" d="M40.4,36.941,35.81,33.207V31.061l7.232,5.88Z" fill="#645a87"/>
        <path id="Path_20692" data-name="Path 20692" d="M37.764,36.941,35.81,35.352V33.207L40.4,36.941Z" fill="#635986"/>
        <path id="Path_20693" data-name="Path 20693" d="M35.81,35.352l1.954,1.589H35.81Z" fill="#625885"/>
        <path id="Path_20694" data-name="Path 20694" d="M96.98,5.7,94.895,4H96.98Z" fill="#8479ab"/>
        <path id="Path_20695" data-name="Path 20695" d="M96.98,7.842,92.256,4h2.639L96.98,5.7Z" fill="#8378aa"/>
        <path id="Path_20696" data-name="Path 20696" d="M96.98,9.988,89.616,4h2.64L96.98,7.842Z" fill="#8277a9"/>
        <path id="Path_20697" data-name="Path 20697" d="M96.98,12.133,86.977,4h2.639L96.98,9.987Z" fill="#8276a8"/>
        <path id="Path_20698" data-name="Path 20698" d="M96.98,14.279,84.338,4h2.639l10,8.133Z" fill="#8176a7"/>
        <path id="Path_20699" data-name="Path 20699" d="M96.98,16.425,81.7,4h2.639L96.98,14.279Z" fill="#8075a6"/>
        <path id="Path_20700" data-name="Path 20700" d="M96.98,18.57,79.06,4H81.7L96.98,16.424Z" fill="#7f74a5"/>
        <path id="Path_20701" data-name="Path 20701" d="M96.98,20.716,77.281,4.7,77.85,4h1.21L96.98,18.57Z" fill="#7e73a4"/>
        <path id="Path_20702" data-name="Path 20702" d="M96.98,22.861,76.69,6.365v-.94l.59-.726,19.7,16.016Z" fill="#7d72a3"/>
        <path id="Path_20703" data-name="Path 20703" d="M96.98,25.007,76.69,8.511V6.365l20.29,16.5Z" fill="#7c71a2"/>
        <path id="Path_20704" data-name="Path 20704" d="M96.98,27.153l-20.29-16.5V8.511l20.29,16.5Z" fill="#7b70a1"/>
        <path id="Path_20705" data-name="Path 20705" d="M96.98,29.3,76.69,12.8V10.656l20.29,16.5Z" fill="#7a6fa0"/>
        <path id="Path_20706" data-name="Path 20706" d="M96.98,31.444l-20.29-16.5V12.8L96.98,29.3Z" fill="#796f9f"/>
        <path id="Path_20707" data-name="Path 20707" d="M96.98,31.522l-1.012,1.245L76.69,17.093V14.948l20.29,16.5Z" fill="#796e9e"/>
        <path id="Path_20708" data-name="Path 20708" d="M95.969,32.767l-.141.174H93.544l-16.853-13.7V17.094Z" fill="#786d9d"/>
        <path id="Path_20709" data-name="Path 20709" d="M90.9,32.941,76.69,21.385V19.239l16.853,13.7Z" fill="#776c9c"/>
        <path id="Path_20710" data-name="Path 20710" d="M88.265,32.941,76.69,23.531V21.385L90.9,32.941Z" fill="#766b9b"/>
        <path id="Path_20711" data-name="Path 20711" d="M85.626,32.941,76.69,25.676V23.531l11.575,9.41Z" fill="#756a9a"/>
        <path id="Path_20712" data-name="Path 20712" d="M82.987,32.941l-6.3-5.119V25.676l8.935,7.265Z" fill="#746999"/>
        <path id="Path_20713" data-name="Path 20713" d="M80.348,32.941l-3.657-2.973V27.822l6.3,5.119Z" fill="#736898"/>
        <path id="Path_20714" data-name="Path 20714" d="M77.709,32.941l-1.018-.828V29.968l3.657,2.973Z" fill="#726897"/>
        <path id="Path_20715" data-name="Path 20715" d="M76.69,32.113l1.018.828H76.69Z" fill="#716796"/>
        <path id="Path_20716" data-name="Path 20716" d="M100.98.366,100.531,0h.45Z" fill="#887daf"/>
        <path id="Path_20717" data-name="Path 20717" d="M100.98,2.512,97.892,0h2.639l.45.365Z" fill="#877cae"/>
        <path id="Path_20718" data-name="Path 20718" d="M100.98,4.657,95.253,0h2.639l3.089,2.511Z" fill="#867bad"/>
        <path id="Path_20719" data-name="Path 20719" d="M100.98,6.8,92.614,0h2.639l5.728,4.657Z" fill="#857aac"/>
        <path id="Path_20720" data-name="Path 20720" d="M100.98,8.949,89.975,0h2.639l8.367,6.8Z" fill="#8479ab"/>
        <path id="Path_20721" data-name="Path 20721" d="M100.98,11.094,87.335,0h2.639L100.98,8.948Z" fill="#8378aa"/>
        <path id="Path_20722" data-name="Path 20722" d="M100.98,13.24,84.7,0h2.64L100.98,11.094Z" fill="#8277a9"/>
        <path id="Path_20723" data-name="Path 20723" d="M100.98,15.385,82.057,0H84.7L100.98,13.239Z" fill="#8276a8"/>
        <path id="Path_20724" data-name="Path 20724" d="M100.98,17.531,79.417,0h2.639L100.98,15.385Z" fill="#8176a7"/>
        <path id="Path_20725" data-name="Path 20725" d="M100.98,19.677,76.779,0h2.639l21.563,17.53Z" fill="#8075a6"/>
        <path id="Path_20726" data-name="Path 20726" d="M100.98,21.822,74.846.575,75.313,0h1.465l24.2,19.676Z" fill="#7f74a5"/>
        <path id="Path_20727" data-name="Path 20727" d="M100.98,23.968,73.8,1.867,74.846.575,100.98,21.822Z" fill="#7e73a4"/>
        <path id="Path_20728" data-name="Path 20728" d="M100.98,26.114,72.745,3.159,73.8,1.867l27.184,22.1Z" fill="#7d72a3"/>
        <path id="Path_20729" data-name="Path 20729" d="M100.98,28.259l-28.29-23V3.227l.055-.069L100.98,26.113Z" fill="#7c71a2"/>
        <path id="Path_20730" data-name="Path 20730" d="M100.98,30.4,72.69,7.4V5.259l28.29,23Z" fill="#7b70a1"/>
        <path id="Path_20731" data-name="Path 20731" d="M100.98,32.55l-28.29-23V7.4l28.29,23Z" fill="#7a6fa0"/>
        <path id="Path_20732" data-name="Path 20732" d="M100.98,33.718l-.479.589L72.69,11.7V9.55l28.29,23Z" fill="#796f9f"/>
        <path id="Path_20733" data-name="Path 20733" d="M100.5,34.307,99.452,35.6,72.691,13.842V11.7Z" fill="#796e9e"/>
        <path id="Path_20734" data-name="Path 20734" d="M99.452,35.6,98.4,36.891l-25.711-20.9V13.842Z" fill="#786d9d"/>
        <path id="Path_20735" data-name="Path 20735" d="M98.4,36.89l-.041.05H95.824L72.69,18.132V15.987Z" fill="#776c9c"/>
        <path id="Path_20736" data-name="Path 20736" d="M93.185,36.941,72.69,20.279V18.133L95.824,36.941Z" fill="#766b9b"/>
        <path id="Path_20737" data-name="Path 20737" d="M90.546,36.941,72.69,22.424V20.279l20.5,16.662Z" fill="#756a9a"/>
        <path id="Path_20738" data-name="Path 20738" d="M87.907,36.941,72.691,24.57V22.424L90.546,36.941Z" fill="#746999"/>
        <path id="Path_20739" data-name="Path 20739" d="M85.268,36.941,72.691,26.716V24.57L87.907,36.941Z" fill="#736898"/>
        <path id="Path_20740" data-name="Path 20740" d="M82.629,36.941l-9.938-8.08V26.716L85.268,36.941Z" fill="#726897"/>
        <path id="Path_20741" data-name="Path 20741" d="M79.99,36.941l-7.3-5.934V28.861l9.938,8.08Z" fill="#716796"/>
        <path id="Path_20742" data-name="Path 20742" d="M77.35,36.941l-4.66-3.789V31.007l7.3,5.934Z" fill="#706695"/>
        <path id="Path_20743" data-name="Path 20743" d="M74.711,36.941,72.69,35.3V33.152l4.66,3.789Z" fill="#6f6594"/>
        <path id="Path_20744" data-name="Path 20744" d="M72.69,35.3l2.021,1.643H72.69Z" fill="#6f6493"/>
        <path id="Path_20745" data-name="Path 20745" d="M108.47,42.93l-.123-.1h.123Z" fill="#796e9e"/>
        <path id="Path_20746" data-name="Path 20746" d="M108.47,45.076l-2.762-2.246h2.639l.123.1Z" fill="#786d9d"/>
        <path id="Path_20747" data-name="Path 20747" d="M108.47,47.222l-5.4-4.391h2.639l2.762,2.245Z" fill="#776c9c"/>
        <path id="Path_20748" data-name="Path 20748" d="M108.47,49.367l-8.04-6.537h2.639l5.4,4.391Z" fill="#766b9b"/>
        <path id="Path_20749" data-name="Path 20749" d="M108.47,51.513,97.791,42.83h2.639l8.04,6.537Z" fill="#756a9a"/>
        <path id="Path_20750" data-name="Path 20750" d="M108.47,53.659,95.151,42.83h2.64l10.679,8.682Z" fill="#746999"/>
        <path id="Path_20751" data-name="Path 20751" d="M108.47,55.8,92.512,42.83h2.639L108.47,53.658Z" fill="#736898"/>
        <path id="Path_20752" data-name="Path 20752" d="M108.47,57.95l-18.6-15.119h2.639L108.47,55.8Z" fill="#726897"/>
        <path id="Path_20753" data-name="Path 20753" d="M108.47,60.1,87.234,42.83h2.639l18.6,15.119Z" fill="#716796"/>
        <path id="Path_20754" data-name="Path 20754" d="M108.47,62.241,84.595,42.83h2.639L108.47,60.1Z" fill="#706695"/>
        <path id="Path_20755" data-name="Path 20755" d="M108.47,64.387,81.956,42.831h2.639l23.875,19.41Z" fill="#6f6594"/>
        <path id="Path_20756" data-name="Path 20756" d="M108.47,66.532,79.317,42.83h2.639L108.47,64.386Z" fill="#6f6493"/>
        <path id="Path_20757" data-name="Path 20757" d="M108.47,68.678,76.678,42.831h2.639l29.153,23.7Z" fill="#6e6392"/>
        <path id="Path_20758" data-name="Path 20758" d="M108.47,70.824,74.038,42.831h2.64L108.47,68.678Z" fill="#6d6291"/>
        <path id="Path_20759" data-name="Path 20759" d="M108.47,72.969,71.4,42.83h2.639L108.47,70.823Z" fill="#6c6190"/>
        <path id="Path_20760" data-name="Path 20760" d="M108.47,75.115,68.76,42.831H71.4L108.47,72.969Z" fill="#6b618f"/>
        <path id="Path_20761" data-name="Path 20761" d="M108.47,77.26,66.121,42.83H68.76l39.71,32.284Z" fill="#6a608e"/>
        <path id="Path_20762" data-name="Path 20762" d="M108.47,79.406,63.482,42.83h2.639L108.47,77.26Z" fill="#695f8d"/>
        <path id="Path_20763" data-name="Path 20763" d="M108.47,80.075l-.723.889L60.843,42.83h2.639L108.47,79.406Z" fill="#685e8c"/>
        <path id="Path_20764" data-name="Path 20764" d="M107.747,80.964l-1.05,1.292L58.2,42.83h2.639Z" fill="#675d8b"/>
        <path id="Path_20765" data-name="Path 20765" d="M106.7,82.256l-1.05,1.292L55.565,42.831H58.2Z" fill="#665c8a"/>
        <path id="Path_20766" data-name="Path 20766" d="M105.646,83.548,104.6,84.84,52.925,42.831h2.639Z" fill="#655b89"/>
        <path id="Path_20767" data-name="Path 20767" d="M104.6,84.839l-1.05,1.292-53.26-43.3h2.639Z" fill="#655a88"/>
        <path id="Path_20768" data-name="Path 20768" d="M103.546,86.131l-1.05,1.292L47.647,42.83h2.639Z" fill="#645a87"/>
        <path id="Path_20769" data-name="Path 20769" d="M102.5,87.423l-1.05,1.292L45.008,42.831h2.639Z" fill="#635986"/>
        <path id="Path_20770" data-name="Path 20770" d="M101.446,88.715l-1.05,1.292L42.369,42.831h2.639Z" fill="#625885"/>
        <path id="Path_20771" data-name="Path 20771" d="M100.4,90.007,99.345,91.3,39.729,42.831h2.639Z" fill="#615784"/>
        <path id="Path_20772" data-name="Path 20772" d="M99.345,91.3,98.3,92.59,38,43.569l.6-.739h1.13Z" fill="#605683"/>
        <rect id="Rectangle_18836" data-name="Rectangle 18836" width="1.665" height="77.709" transform="matrix(0.631, -0.776, 0.776, 0.631, 36.944, 44.867)" fill="#5f5581"/>
        <rect id="Rectangle_18837" data-name="Rectangle 18837" width="1.665" height="77.709" transform="matrix(0.631, -0.776, 0.776, 0.631, 35.894, 46.158)" fill="#5e5480"/>
        <rect id="Rectangle_18838" data-name="Rectangle 18838" width="1.665" height="77.709" transform="matrix(0.631, -0.776, 0.776, 0.631, 34.844, 47.45)" fill="#5d537f"/>
        <rect id="Rectangle_18839" data-name="Rectangle 18839" width="1.665" height="77.709" transform="matrix(0.631, -0.776, 0.776, 0.631, 33.794, 48.742)" fill="#5c527e"/>
        <rect id="Rectangle_18840" data-name="Rectangle 18840" width="1.665" height="77.709" transform="matrix(0.631, -0.776, 0.776, 0.631, 32.744, 50.034)" fill="#5b527d"/>
        <path id="Path_20773" data-name="Path 20773" d="M93.044,99.049l-1,1.231h-.124L31.7,51.32l1.05-1.292Z" fill="#5b517c"/>
        <path id="Path_20774" data-name="Path 20774" d="M89.279,100.28,30.647,52.612,31.7,51.32l60.221,48.96Z" fill="#5a507b"/>
        <path id="Path_20775" data-name="Path 20775" d="M86.64,100.28,29.6,53.9l1.05-1.292L89.279,100.28Z" fill="#594f7a"/>
        <path id="Path_20776" data-name="Path 20776" d="M84,100.28,28.547,55.195,29.6,53.9,86.64,100.28Z" fill="#584e79"/>
        <path id="Path_20777" data-name="Path 20777" d="M81.362,100.28,28.32,57.157V55.474l.227-.279L84,100.28Z" fill="#574d78"/>
        <path id="Path_20778" data-name="Path 20778" d="M78.723,100.28,28.32,59.3V57.157L81.362,100.28Z" fill="#564c77"/>
        <path id="Path_20779" data-name="Path 20779" d="M76.084,100.28,28.32,61.448V59.3l50.4,40.978Z" fill="#554b76"/>
        <path id="Path_20780" data-name="Path 20780" d="M73.445,100.28,28.321,63.593V61.448L76.084,100.28Z" fill="#544b75"/>
        <path id="Path_20781" data-name="Path 20781" d="M70.806,100.28,28.321,65.739V63.593L73.445,100.28Z" fill="#534a74"/>
        <path id="Path_20782" data-name="Path 20782" d="M68.166,100.28,28.32,67.885V65.739L70.805,100.28Z" fill="#524973"/>
        <path id="Path_20783" data-name="Path 20783" d="M65.527,100.28,28.32,70.03V67.885l39.846,32.4Z" fill="#514872"/>
        <path id="Path_20784" data-name="Path 20784" d="M62.888,100.28,28.32,72.176V70.03l37.207,30.25Z" fill="#514771"/>
        <path id="Path_20785" data-name="Path 20785" d="M60.249,100.28,28.32,74.322V72.176l34.568,28.1Z" fill="#504670"/>
        <path id="Path_20786" data-name="Path 20786" d="M57.61,100.28,28.32,76.467V74.322L60.249,100.28Z" fill="#4f456f"/>
        <path id="Path_20787" data-name="Path 20787" d="M54.971,100.28,28.32,78.613V76.467L57.61,100.28Z" fill="#4e446e"/>
        <path id="Path_20788" data-name="Path 20788" d="M52.332,100.28,28.321,80.758V78.613l26.65,21.667Z" fill="#4d446d"/>
        <path id="Path_20789" data-name="Path 20789" d="M49.693,100.28,28.321,82.9V80.758L52.332,100.28Z" fill="#4c436c"/>
        <path id="Path_20790" data-name="Path 20790" d="M47.054,100.28,28.321,85.05V82.9L49.693,100.28Z" fill="#4b426b"/>
        <path id="Path_20791" data-name="Path 20791" d="M44.415,100.28,28.321,87.195V85.05l18.733,15.23Z" fill="#4a416a"/>
        <path id="Path_20792" data-name="Path 20792" d="M41.775,100.28,28.32,89.341V87.195L44.414,100.28Z" fill="#494069"/>
        <path id="Path_20793" data-name="Path 20793" d="M39.136,100.28,28.32,91.487V89.341L41.775,100.28Z" fill="#483f68"/>
        <path id="Path_20794" data-name="Path 20794" d="M36.5,100.28,28.32,93.632V91.487l10.816,8.793Z" fill="#473e67"/>
        <path id="Path_20795" data-name="Path 20795" d="M33.858,100.28l-5.538-4.5V93.632L36.5,100.28Z" fill="#473d66"/>
        <path id="Path_20796" data-name="Path 20796" d="M31.219,100.28l-2.9-2.357V95.778l5.538,4.5Z" fill="#463d65"/>
        <path id="Path_20797" data-name="Path 20797" d="M28.58,100.28l-.259-.211V97.923l2.9,2.357Z" fill="#453c64"/>
        <path id="Path_20798" data-name="Path 20798" d="M28.32,100.069l.259.211H28.32Z" fill="#443b63"/>
        <path id="Path_20799" data-name="Path 20799" d="M112.47,39.746l-1.126-.915h1.126Z" fill="#7b70a1"/>
        <path id="Path_20800" data-name="Path 20800" d="M112.47,41.891,108.7,38.83h2.639l1.126.915Z" fill="#7a6fa0"/>
        <path id="Path_20801" data-name="Path 20801" d="M112.47,44.037l-6.4-5.206H108.7l3.765,3.06Z" fill="#796f9f"/>
        <path id="Path_20802" data-name="Path 20802" d="M112.47,46.183l-9.043-7.352h2.639l6.4,5.206Z" fill="#796e9e"/>
        <path id="Path_20803" data-name="Path 20803" d="M112.47,48.328l-11.682-9.5h2.639l9.043,7.352Z" fill="#786d9d"/>
        <path id="Path_20804" data-name="Path 20804" d="M112.47,50.474,98.149,38.831h2.639l11.682,9.5Z" fill="#776c9c"/>
        <path id="Path_20805" data-name="Path 20805" d="M112.47,52.619,95.51,38.83h2.639L112.47,50.473Z" fill="#766b9b"/>
        <path id="Path_20806" data-name="Path 20806" d="M112.47,54.765,92.871,38.83H95.51l16.96,13.789Z" fill="#756a9a"/>
        <path id="Path_20807" data-name="Path 20807" d="M112.47,56.911,90.231,38.831h2.64l19.6,15.934Z" fill="#746999"/>
        <path id="Path_20808" data-name="Path 20808" d="M112.47,59.056,87.592,38.83h2.639L112.47,56.91Z" fill="#736898"/>
        <path id="Path_20809" data-name="Path 20809" d="M112.47,61.2,84.953,38.831h2.639L112.47,59.056Z" fill="#726897"/>
        <path id="Path_20810" data-name="Path 20810" d="M112.47,63.347,82.314,38.83h2.639L112.47,61.2Z" fill="#716796"/>
        <path id="Path_20811" data-name="Path 20811" d="M112.47,65.493,79.675,38.83h2.639L112.47,63.347Z" fill="#706695"/>
        <path id="Path_20812" data-name="Path 20812" d="M112.47,67.639,77.036,38.831h2.639L112.47,65.493Z" fill="#6f6594"/>
        <path id="Path_20813" data-name="Path 20813" d="M112.47,69.784,74.4,38.83h2.639L112.47,67.638Z" fill="#6f6493"/>
        <path id="Path_20814" data-name="Path 20814" d="M112.47,71.93,71.758,38.83H74.4L112.47,69.784Z" fill="#6e6392"/>
        <path id="Path_20815" data-name="Path 20815" d="M112.47,74.076,69.118,38.831h2.64l40.712,33.1Z" fill="#6d6291"/>
        <path id="Path_20816" data-name="Path 20816" d="M112.47,76.221,66.479,38.83h2.639L112.47,74.075Z" fill="#6c6190"/>
        <path id="Path_20817" data-name="Path 20817" d="M112.47,78.367,63.84,38.831h2.639l45.991,37.39Z" fill="#6b618f"/>
        <path id="Path_20818" data-name="Path 20818" d="M112.47,80.512,61.2,38.83H63.84l48.63,39.536Z" fill="#6a608e"/>
        <path id="Path_20819" data-name="Path 20819" d="M112.47,82.658,58.562,38.83H61.2L112.47,80.512Z" fill="#695f8d"/>
        <path id="Path_20820" data-name="Path 20820" d="M112.47,84.8,55.923,38.831h2.639L112.47,82.658Z" fill="#685e8c"/>
        <path id="Path_20821" data-name="Path 20821" d="M112.47,86.323l-.306.377L53.284,38.83h2.639L112.47,84.8Z" fill="#675d8b"/>
        <path id="Path_20822" data-name="Path 20822" d="M112.163,86.7l-1.05,1.292L50.644,38.83h2.639Z" fill="#665c8a"/>
        <path id="Path_20823" data-name="Path 20823" d="M111.113,87.992l-1.05,1.292L48.005,38.83h2.639Z" fill="#655b89"/>
        <path id="Path_20824" data-name="Path 20824" d="M110.063,89.284l-1.05,1.292L45.366,38.831H48Z" fill="#655a88"/>
        <path id="Path_20825" data-name="Path 20825" d="M109.013,90.576l-1.05,1.292L42.727,38.831h2.64Z" fill="#645a87"/>
        <path id="Path_20826" data-name="Path 20826" d="M107.962,91.867l-1.05,1.292L40.088,38.83h2.639Z" fill="#635986"/>
        <path id="Path_20827" data-name="Path 20827" d="M106.912,93.159l-1.05,1.292L37.449,38.83h2.639Z" fill="#625885"/>
        <path id="Path_20828" data-name="Path 20828" d="M105.862,94.451l-1.05,1.292-69.5-56.5.333-.409h1.8Z" fill="#615784"/>
        <rect id="Rectangle_18841" data-name="Rectangle 18841" width="1.665" height="89.57" transform="matrix(0.631, -0.776, 0.776, 0.631, 34.258, 40.538)" fill="#605683"/>
        <rect id="Rectangle_18842" data-name="Rectangle 18842" width="1.665" height="89.57" transform="matrix(0.631, -0.776, 0.776, 0.631, 33.207, 41.83)" fill="#5f5581"/>
        <rect id="Rectangle_18843" data-name="Rectangle 18843" width="1.665" height="89.569" transform="matrix(0.631, -0.776, 0.776, 0.631, 32.157, 43.122)" fill="#5e5480"/>
        <rect id="Rectangle_18844" data-name="Rectangle 18844" width="1.665" height="89.57" transform="matrix(0.631, -0.776, 0.776, 0.631, 31.107, 44.413)" fill="#5d537f"/>
        <rect id="Rectangle_18845" data-name="Rectangle 18845" width="1.665" height="89.57" transform="matrix(0.631, -0.776, 0.776, 0.631, 30.057, 45.705)" fill="#5c527e"/>
        <rect id="Rectangle_18846" data-name="Rectangle 18846" width="1.665" height="89.57" transform="matrix(0.631, -0.776, 0.776, 0.631, 29.006, 46.997)" fill="#5b527d"/>
        <rect id="Rectangle_18847" data-name="Rectangle 18847" width="1.665" height="89.57" transform="matrix(0.631, -0.776, 0.776, 0.631, 27.956, 48.289)" fill="#5b517c"/>
        <rect id="Rectangle_18848" data-name="Rectangle 18848" width="1.665" height="89.569" transform="matrix(0.631, -0.776, 0.776, 0.631, 26.906, 49.581)" fill="#5a507b"/>
        <rect id="Rectangle_18849" data-name="Rectangle 18849" width="1.665" height="89.57" transform="matrix(0.631, -0.776, 0.776, 0.631, 25.856, 50.872)" fill="#594f7a"/>
        <rect id="Rectangle_18850" data-name="Rectangle 18850" width="1.665" height="89.57" transform="matrix(0.631, -0.776, 0.776, 0.631, 24.805, 52.164)" fill="#584e79"/>
        <path id="Path_20829" data-name="Path 20829" d="M94.31,108.66l-1.05,1.292L24.321,53.9V52.761l.491-.6Z" fill="#574d78"/>
        <path id="Path_20830" data-name="Path 20830" d="M93.259,109.952l-1.05,1.292L24.32,56.05V53.9Z" fill="#564c77"/>
        <path id="Path_20831" data-name="Path 20831" d="M92.209,111.244l-.242.3H89.936L24.32,58.2V56.05Z" fill="#554b76"/>
        <path id="Path_20832" data-name="Path 20832" d="M87.3,111.541l-62.976-51.2V58.2l65.615,53.346Z" fill="#544b75"/>
        <path id="Path_20833" data-name="Path 20833" d="M84.658,111.541,24.32,62.486V60.341l62.976,51.2Z" fill="#534a74"/>
        <path id="Path_20834" data-name="Path 20834" d="M82.018,111.541,24.32,64.632V62.486l60.337,49.055Z" fill="#524973"/>
        <path id="Path_20835" data-name="Path 20835" d="M79.379,111.541,24.32,66.778V64.632l57.7,46.909Z" fill="#514872"/>
        <path id="Path_20836" data-name="Path 20836" d="M76.74,111.541,24.32,68.923V66.778l55.059,44.763Z" fill="#514771"/>
        <path id="Path_20837" data-name="Path 20837" d="M74.1,111.541,24.32,71.069V68.923l52.42,42.618Z" fill="#504670"/>
        <path id="Path_20838" data-name="Path 20838" d="M71.462,111.541,24.32,73.214V71.069L74.1,111.541Z" fill="#4f456f"/>
        <path id="Path_20839" data-name="Path 20839" d="M68.823,111.541,24.32,75.36V73.214l47.142,38.327Z" fill="#4e446e"/>
        <path id="Path_20840" data-name="Path 20840" d="M66.184,111.541,24.321,77.506V75.36l44.5,36.181Z" fill="#4d446d"/>
        <path id="Path_20841" data-name="Path 20841" d="M63.545,111.541,24.321,79.651V77.506l41.863,34.035Z" fill="#4c436c"/>
        <path id="Path_20842" data-name="Path 20842" d="M60.905,111.541,24.32,81.8V79.651l39.224,31.89Z" fill="#4b426b"/>
        <path id="Path_20843" data-name="Path 20843" d="M58.266,111.541,24.32,83.943V81.8l36.585,29.744Z" fill="#4a416a"/>
        <path id="Path_20844" data-name="Path 20844" d="M55.627,111.541,24.32,86.088V83.943l33.946,27.6Z" fill="#494069"/>
        <path id="Path_20845" data-name="Path 20845" d="M52.988,111.541,24.32,88.234V86.088l31.307,25.453Z" fill="#483f68"/>
        <path id="Path_20846" data-name="Path 20846" d="M50.349,111.541,24.32,90.379V88.234l28.668,23.307Z" fill="#473e67"/>
        <path id="Path_20847" data-name="Path 20847" d="M47.71,111.541,24.32,92.525V90.379l26.029,21.162Z" fill="#473d66"/>
        <path id="Path_20848" data-name="Path 20848" d="M45.071,111.541,24.32,94.671V92.525l23.39,19.016Z" fill="#463d65"/>
        <path id="Path_20849" data-name="Path 20849" d="M42.432,111.541,24.321,96.816V94.671l20.75,16.87Z" fill="#453c64"/>
        <path id="Path_20850" data-name="Path 20850" d="M39.793,111.541,24.321,98.962V96.816l18.111,14.725Z" fill="#443b63"/>
        <path id="Path_20851" data-name="Path 20851" d="M37.153,111.541,24.32,101.108V98.962l15.472,12.579Z" fill="#433a62"/>
        <path id="Path_20852" data-name="Path 20852" d="M34.514,111.541,24.32,103.253v-2.145l12.833,10.433Z" fill="#423961"/>
        <path id="Path_20853" data-name="Path 20853" d="M31.875,111.541,24.32,105.4v-2.146l10.194,8.288Z" fill="#413860"/>
        <path id="Path_20854" data-name="Path 20854" d="M29.236,111.541l-4.916-4V105.4l7.555,6.142Z" fill="#40375f"/>
        <path id="Path_20855" data-name="Path 20855" d="M26.6,111.541,24.32,109.69v-2.146l4.916,4Z" fill="#3f365e"/>
        <path id="Path_20856" data-name="Path 20856" d="M24.32,109.69l2.277,1.851H24.32Z" fill="#3e365d"/>
      </g>
    </g>
    <g id="Group_7205" data-name="Group 7205">
      <g id="Group_7204" data-name="Group 7204" clip-path="url(#clip-path-5)">
        <path id="Path_20858" data-name="Path 20858" d="M121.18,42.536l-.72-.585h.72Z" fill="#7d72a3"/>
        <path id="Path_20859" data-name="Path 20859" d="M121.18,44.681l-3.359-2.731h2.639l.72.585Z" fill="#7c71a2"/>
        <path id="Path_20860" data-name="Path 20860" d="M121.18,46.827l-6-4.876h2.639l3.359,2.73Z" fill="#7b70a1"/>
        <path id="Path_20861" data-name="Path 20861" d="M121.18,48.972l-8.637-7.022h2.639l6,4.876Z" fill="#7a6fa0"/>
        <path id="Path_20862" data-name="Path 20862" d="M121.18,51.118,109.9,41.95h2.639l8.637,7.022Z" fill="#796f9f"/>
        <path id="Path_20863" data-name="Path 20863" d="M121.18,53.264,107.265,41.951H109.9l11.276,9.167Z" fill="#796e9e"/>
        <path id="Path_20864" data-name="Path 20864" d="M121.18,55.409,104.626,41.95h2.639L121.18,53.263Z" fill="#786d9d"/>
        <path id="Path_20865" data-name="Path 20865" d="M121.18,57.555,102.747,42.569l.5-.618h1.376L121.18,55.409Z" fill="#776c9c"/>
        <path id="Path_20866" data-name="Path 20866" d="M121.18,59.7,101.7,43.861l1.05-1.292L121.18,57.555Z" fill="#766b9b"/>
        <path id="Path_20867" data-name="Path 20867" d="M121.18,61.846l-20.29-16.5v-.5l.807-.992L121.18,59.7Z" fill="#756a9a"/>
        <path id="Path_20868" data-name="Path 20868" d="M121.18,63.992,100.89,47.5V45.35l20.29,16.5Z" fill="#746999"/>
        <path id="Path_20869" data-name="Path 20869" d="M121.18,66.137l-20.29-16.5V47.5l20.29,16.5Z" fill="#736898"/>
        <path id="Path_20870" data-name="Path 20870" d="M121.18,68.283l-20.29-16.5V49.641l20.29,16.5Z" fill="#726897"/>
        <path id="Path_20871" data-name="Path 20871" d="M121.18,69.468l-.47.579L100.89,53.933V51.787l20.29,16.5Z" fill="#716796"/>
        <path id="Path_20872" data-name="Path 20872" d="M120.709,70.046l-.687.845h-.913l-18.22-14.813V53.932Z" fill="#706695"/>
        <path id="Path_20873" data-name="Path 20873" d="M116.47,70.891,100.89,58.224V56.078l18.219,14.813Z" fill="#6f6594"/>
        <path id="Path_20874" data-name="Path 20874" d="M113.831,70.891,100.89,60.37V58.224l15.58,12.667Z" fill="#6f6493"/>
        <path id="Path_20875" data-name="Path 20875" d="M111.192,70.891l-10.3-8.376V60.37l12.941,10.521Z" fill="#6e6392"/>
        <path id="Path_20876" data-name="Path 20876" d="M108.553,70.891l-7.663-6.23V62.515l10.3,8.376Z" fill="#6d6291"/>
        <path id="Path_20877" data-name="Path 20877" d="M105.914,70.891l-5.024-4.085V64.661l7.663,6.23Z" fill="#6c6190"/>
        <path id="Path_20878" data-name="Path 20878" d="M103.274,70.891l-2.385-1.939V66.806l5.024,4.085Z" fill="#6b618f"/>
        <path id="Path_20879" data-name="Path 20879" d="M100.89,68.952l2.385,1.939H100.89Z" fill="#6a608e"/>
        <path id="Path_20880" data-name="Path 20880" d="M125.18,39.351l-1.722-1.4h1.722Z" fill="#8075a6"/>
        <path id="Path_20881" data-name="Path 20881" d="M125.18,41.5l-4.361-3.546h2.639l1.722,1.4Z" fill="#7f74a5"/>
        <path id="Path_20882" data-name="Path 20882" d="M125.18,43.642l-7-5.692h2.64L125.18,41.5Z" fill="#7e73a4"/>
        <path id="Path_20883" data-name="Path 20883" d="M125.18,45.788l-9.64-7.837h2.639l7,5.691Z" fill="#7d72a3"/>
        <path id="Path_20884" data-name="Path 20884" d="M125.18,47.933,112.9,37.95h2.639l9.64,7.837Z" fill="#7c71a2"/>
        <path id="Path_20885" data-name="Path 20885" d="M125.18,50.079,110.262,37.951H112.9l12.279,9.982Z" fill="#7b70a1"/>
        <path id="Path_20886" data-name="Path 20886" d="M125.18,52.225,107.623,37.951h2.639L125.18,50.079Z" fill="#7a6fa0"/>
        <path id="Path_20887" data-name="Path 20887" d="M125.18,54.37l-20.2-16.42h2.639L125.18,52.224Z" fill="#796f9f"/>
        <path id="Path_20888" data-name="Path 20888" d="M125.18,56.516,102.345,37.951h2.639l20.2,16.419Z" fill="#796e9e"/>
        <path id="Path_20889" data-name="Path 20889" d="M125.18,58.661,100.6,38.678l.592-.728h1.152L125.18,56.515Z" fill="#786d9d"/>
        <path id="Path_20890" data-name="Path 20890" d="M125.18,60.807,99.551,39.97l1.05-1.292L125.18,58.661Z" fill="#776c9c"/>
        <path id="Path_20891" data-name="Path 20891" d="M125.18,62.953,98.5,41.262l1.051-1.291L125.18,60.807Z" fill="#766b9b"/>
        <path id="Path_20892" data-name="Path 20892" d="M125.18,65.1,97.45,42.553l1.05-1.291,26.68,21.69Z" fill="#756a9a"/>
        <path id="Path_20893" data-name="Path 20893" d="M125.18,67.244l-28.29-23v-1l.56-.689L125.18,65.1Z" fill="#746999"/>
        <path id="Path_20894" data-name="Path 20894" d="M125.18,69.389l-28.29-23V44.243l28.29,23Z" fill="#736898"/>
        <path id="Path_20895" data-name="Path 20895" d="M125.18,71.535l-28.29-23V46.389l28.29,23Z" fill="#726897"/>
        <path id="Path_20896" data-name="Path 20896" d="M125.18,71.665l-.987,1.214-27.3-22.2V48.535l28.29,23Z" fill="#716796"/>
        <path id="Path_20897" data-name="Path 20897" d="M124.193,72.878l-1.05,1.292L96.89,52.826V50.68Z" fill="#706695"/>
        <path id="Path_20898" data-name="Path 20898" d="M123.143,74.17l-.586.721H121.39L96.89,54.972V52.826Z" fill="#6f6594"/>
        <path id="Path_20899" data-name="Path 20899" d="M118.751,74.891,96.89,57.118V54.972l24.5,19.919Z" fill="#6f6493"/>
        <path id="Path_20900" data-name="Path 20900" d="M116.112,74.891,96.89,59.263V57.118l21.861,17.773Z" fill="#6e6392"/>
        <path id="Path_20901" data-name="Path 20901" d="M113.473,74.891,96.89,61.409V59.263l19.222,15.628Z" fill="#6d6291"/>
        <path id="Path_20902" data-name="Path 20902" d="M110.834,74.891,96.89,63.554V61.409l16.583,13.482Z" fill="#6c6190"/>
        <path id="Path_20903" data-name="Path 20903" d="M108.195,74.891,96.89,65.7V63.554l13.944,11.337Z" fill="#6b618f"/>
        <path id="Path_20904" data-name="Path 20904" d="M105.555,74.891l-8.666-7.045V65.7l11.305,9.191Z" fill="#6a608e"/>
        <path id="Path_20905" data-name="Path 20905" d="M102.916,74.891l-6.027-4.9V67.846l8.666,7.045Z" fill="#695f8d"/>
        <path id="Path_20906" data-name="Path 20906" d="M100.277,74.891,96.89,72.137V69.991l6.026,4.9Z" fill="#685e8c"/>
        <path id="Path_20907" data-name="Path 20907" d="M97.638,74.891l-.748-.608V72.137l3.387,2.754Z" fill="#675d8b"/>
        <path id="Path_20908" data-name="Path 20908" d="M96.89,74.283l.748.608H96.89Z" fill="#665c8a"/>
      </g>
    </g>
    <g id="Group_7207" data-name="Group 7207">
      <g id="Group_7206" data-name="Group 7206" clip-path="url(#clip-path-6)">
        <path id="Path_20910" data-name="Path 20910" d="M132.68,81.924l-1.419-1.154h1.419Z" fill="#706695"/>
        <path id="Path_20911" data-name="Path 20911" d="M132.68,84.07l-4.059-3.3h2.64l1.419,1.154Z" fill="#6f6594"/>
        <path id="Path_20912" data-name="Path 20912" d="M132.68,86.215l-6.7-5.445h2.639l4.059,3.3Z" fill="#6f6493"/>
        <path id="Path_20913" data-name="Path 20913" d="M132.68,88.361l-9.337-7.591h2.639l6.7,5.445Z" fill="#6e6392"/>
        <path id="Path_20914" data-name="Path 20914" d="M132.68,90.506,120.7,80.769h2.639l9.337,7.591Z" fill="#6d6291"/>
        <path id="Path_20915" data-name="Path 20915" d="M132.68,92.652,118.065,80.77H120.7l11.976,9.736Z" fill="#6c6190"/>
        <path id="Path_20916" data-name="Path 20916" d="M132.68,94.8,115.426,80.77h2.639L132.68,92.652Z" fill="#6b618f"/>
        <path id="Path_20917" data-name="Path 20917" d="M132.68,96.943,112.787,80.77h2.639L132.68,94.8Z" fill="#6a608e"/>
        <path id="Path_20918" data-name="Path 20918" d="M132.68,99.089,110.148,80.77h2.639L132.68,96.943Z" fill="#695f8d"/>
        <path id="Path_20919" data-name="Path 20919" d="M132.68,101.234,107.509,80.77h2.639L132.68,99.089Z" fill="#685e8c"/>
        <path id="Path_20920" data-name="Path 20920" d="M132.68,103.38,104.869,80.77h2.64l25.171,20.464Z" fill="#675d8b"/>
        <path id="Path_20921" data-name="Path 20921" d="M132.68,105.526,102.23,80.77h2.639l27.811,22.61Z" fill="#665c8a"/>
        <path id="Path_20922" data-name="Path 20922" d="M132.68,107.671,99.591,80.77h2.639l30.45,24.755Z" fill="#655b89"/>
        <path id="Path_20923" data-name="Path 20923" d="M131.466,108.83,97.329,81.076l.249-.307h2.013l33.088,26.9v1.159Z" fill="#655a88"/>
        <path id="Path_20924" data-name="Path 20924" d="M128.827,108.83,96.278,82.368l1.051-1.292,34.137,27.754Z" fill="#645a87"/>
        <path id="Path_20925" data-name="Path 20925" d="M126.188,108.83,95.228,83.66l1.051-1.292,32.548,26.462Z" fill="#635986"/>
        <path id="Path_20926" data-name="Path 20926" d="M123.549,108.83,94.178,84.951l1.05-1.291,30.96,25.17Z" fill="#625885"/>
        <path id="Path_20927" data-name="Path 20927" d="M120.91,108.83,93.128,86.243l1.05-1.292,29.371,23.879Z" fill="#615784"/>
        <path id="Path_20928" data-name="Path 20928" d="M118.271,108.83,92.078,87.535l1.05-1.292L120.91,108.83Z" fill="#605683"/>
        <path id="Path_20929" data-name="Path 20929" d="M115.632,108.83l-24.6-20,1.05-1.292,26.193,21.295Z" fill="#5f5581"/>
        <path id="Path_20930" data-name="Path 20930" d="M112.992,108.83,89.977,90.118l1.05-1.291,24.6,20Z" fill="#5e5480"/>
        <path id="Path_20931" data-name="Path 20931" d="M110.353,108.83,89.389,91.786v-.945l.588-.723,23.015,18.712Z" fill="#5d537f"/>
        <path id="Path_20932" data-name="Path 20932" d="M107.714,108.83l-18.325-14.9V91.786l20.964,17.044Z" fill="#5c527e"/>
        <path id="Path_20933" data-name="Path 20933" d="M105.075,108.83,89.39,96.078V93.932l18.324,14.9Z" fill="#5b527d"/>
        <path id="Path_20934" data-name="Path 20934" d="M102.436,108.83,89.39,98.223V96.078l15.685,12.752Z" fill="#5b517c"/>
        <path id="Path_20935" data-name="Path 20935" d="M99.8,108.83,89.39,100.369V98.223l13.046,10.607Z" fill="#5a507b"/>
        <path id="Path_20936" data-name="Path 20936" d="M97.158,108.83l-7.768-6.316v-2.145L99.8,108.83Z" fill="#594f7a"/>
        <path id="Path_20937" data-name="Path 20937" d="M94.519,108.83l-5.129-4.17v-2.146l7.768,6.316Z" fill="#584e79"/>
        <path id="Path_20938" data-name="Path 20938" d="M91.88,108.83l-2.49-2.024V104.66l5.129,4.17Z" fill="#574d78"/>
        <path id="Path_20939" data-name="Path 20939" d="M89.39,106.806l2.49,2.024H89.39Z" fill="#564c77"/>
        <path id="Path_20940" data-name="Path 20940" d="M136.68,78.739l-2.421-1.968h2.421Z" fill="#736898"/>
        <path id="Path_20941" data-name="Path 20941" d="M136.68,80.885l-5.06-4.114h2.639l2.421,1.968Z" fill="#726897"/>
        <path id="Path_20942" data-name="Path 20942" d="M136.68,83.03l-7.7-6.259h2.639l5.06,4.113Z" fill="#716796"/>
        <path id="Path_20943" data-name="Path 20943" d="M136.68,85.176l-10.338-8.4h2.639l7.7,6.259Z" fill="#706695"/>
        <path id="Path_20944" data-name="Path 20944" d="M136.68,87.322,123.7,76.771h2.639l10.338,8.4Z" fill="#6f6594"/>
        <path id="Path_20945" data-name="Path 20945" d="M136.68,89.467l-15.617-12.7h2.64l12.977,10.55Z" fill="#6f6493"/>
        <path id="Path_20946" data-name="Path 20946" d="M136.68,91.613,118.424,76.771h2.639l15.617,12.7Z" fill="#6e6392"/>
        <path id="Path_20947" data-name="Path 20947" d="M136.68,93.758l-20.9-16.988h2.639L136.68,91.612Z" fill="#6d6291"/>
        <path id="Path_20948" data-name="Path 20948" d="M136.68,95.9,113.146,76.771h2.639l20.9,16.987Z" fill="#6c6190"/>
        <path id="Path_20949" data-name="Path 20949" d="M136.68,98.05,110.507,76.771h2.639L136.68,95.9Z" fill="#6b618f"/>
        <path id="Path_20950" data-name="Path 20950" d="M136.68,100.2,107.868,76.771h2.639L136.68,98.049Z" fill="#6a608e"/>
        <path id="Path_20951" data-name="Path 20951" d="M136.68,102.341l-31.451-25.57h2.639l28.812,23.424Z" fill="#695f8d"/>
        <path id="Path_20952" data-name="Path 20952" d="M136.68,104.486,102.59,76.771h2.639l31.451,25.57Z" fill="#685e8c"/>
        <path id="Path_20953" data-name="Path 20953" d="M136.68,106.632,99.951,76.771h2.639l34.09,27.715Z" fill="#675d8b"/>
        <path id="Path_20954" data-name="Path 20954" d="M136.68,108.778,97.311,76.771h2.64l36.729,29.861Z" fill="#665c8a"/>
        <path id="Path_20955" data-name="Path 20955" d="M136.68,110.923,95.208,77.206l.354-.436h1.749l39.369,32.007Z" fill="#655b89"/>
        <path id="Path_20956" data-name="Path 20956" d="M136.386,112.83,94.157,78.5l1.051-1.292,41.471,33.717v1.907Z" fill="#655a88"/>
        <path id="Path_20957" data-name="Path 20957" d="M133.747,112.83,93.107,79.79l1.05-1.292,42.229,34.332Z" fill="#645a87"/>
        <path id="Path_20958" data-name="Path 20958" d="M131.108,112.83,92.057,81.081l1.05-1.291,40.64,33.04Z" fill="#635986"/>
        <path id="Path_20959" data-name="Path 20959" d="M128.469,112.83,91.007,82.373l1.05-1.292,39.051,31.749Z" fill="#625885"/>
        <path id="Path_20960" data-name="Path 20960" d="M125.83,112.83,89.957,83.665l1.05-1.292,37.462,30.457Z" fill="#615784"/>
        <path id="Path_20961" data-name="Path 20961" d="M123.191,112.83,88.907,84.957l1.05-1.292L125.83,112.83Z" fill="#605683"/>
        <path id="Path_20962" data-name="Path 20962" d="M120.551,112.83,87.856,86.248l1.05-1.291L123.19,112.83Z" fill="#5f5581"/>
        <path id="Path_20963" data-name="Path 20963" d="M117.912,112.83,86.806,87.54l1.05-1.292,32.695,26.582Z" fill="#5e5480"/>
        <path id="Path_20964" data-name="Path 20964" d="M115.273,112.83l-29.518-24,1.051-1.292,31.106,25.29Z" fill="#5d537f"/>
        <path id="Path_20965" data-name="Path 20965" d="M112.634,112.83,85.389,90.68v-1.4l.367-.45,29.517,24Z" fill="#5c527e"/>
        <path id="Path_20966" data-name="Path 20966" d="M110,112.83l-24.6-20V90.68l27.244,22.15Z" fill="#5b527d"/>
        <path id="Path_20967" data-name="Path 20967" d="M107.356,112.83,85.39,94.971V92.826l24.605,20Z" fill="#5b517c"/>
        <path id="Path_20968" data-name="Path 20968" d="M104.717,112.83,85.39,97.117V94.971l21.966,17.859Z" fill="#5a507b"/>
        <path id="Path_20969" data-name="Path 20969" d="M102.078,112.83,85.39,99.262V97.117l19.327,15.713Z" fill="#594f7a"/>
        <path id="Path_20970" data-name="Path 20970" d="M99.439,112.83,85.39,101.408V99.262l16.688,13.568Z" fill="#584e79"/>
        <path id="Path_20971" data-name="Path 20971" d="M96.8,112.83l-11.41-9.276v-2.146L99.438,112.83Z" fill="#574d78"/>
        <path id="Path_20972" data-name="Path 20972" d="M94.16,112.83,85.389,105.7v-2.145L96.8,112.83Z" fill="#564c77"/>
        <path id="Path_20973" data-name="Path 20973" d="M91.521,112.83l-6.132-4.985V105.7l8.771,7.131Z" fill="#554b76"/>
        <path id="Path_20974" data-name="Path 20974" d="M88.882,112.83l-3.493-2.839v-2.146l6.132,4.985Z" fill="#544b75"/>
        <path id="Path_20975" data-name="Path 20975" d="M86.243,112.83l-.853-.694v-2.145l3.492,2.839Z" fill="#534a74"/>
        <path id="Path_20976" data-name="Path 20976" d="M85.39,112.137l.853.694H85.39Z" fill="#524973"/>
      </g>
    </g>
    <g id="Group_7209" data-name="Group 7209">
      <g id="Group_7208" data-name="Group 7208" clip-path="url(#clip-path-7)">
        <path id="Path_20978" data-name="Path 20978" d="M47.29,81.161l-.484-.393h.484Z" fill="#534a74"/>
        <path id="Path_20979" data-name="Path 20979" d="M47.29,83.307l-3.123-2.539h2.639l.484.393Z" fill="#524973"/>
        <path id="Path_20980" data-name="Path 20980" d="M47.29,85.452l-5.762-4.685h2.639l3.123,2.539Z" fill="#514872"/>
        <path id="Path_20981" data-name="Path 20981" d="M47.29,87.6l-8.4-6.83h2.639l5.762,4.684Z" fill="#514771"/>
        <path id="Path_20982" data-name="Path 20982" d="M47.29,89.744,36.25,80.768h2.639l8.4,6.83Z" fill="#504670"/>
        <path id="Path_20983" data-name="Path 20983" d="M47.29,91.889,33.611,80.768H36.25l11.04,8.975Z" fill="#4f456f"/>
        <path id="Path_20984" data-name="Path 20984" d="M47.29,94.035,30.971,80.768h2.64L47.29,91.889Z" fill="#4e446e"/>
        <path id="Path_20985" data-name="Path 20985" d="M47.29,96.181,28.332,80.768h2.639L47.29,94.035Z" fill="#4d446d"/>
        <path id="Path_20986" data-name="Path 20986" d="M47.29,98.326l-21.6-17.558h2.639L47.29,96.18Z" fill="#4c436c"/>
        <path id="Path_20987" data-name="Path 20987" d="M47.29,100.472l-24.236-19.7h2.639l21.6,17.558Z" fill="#4b426b"/>
        <path id="Path_20988" data-name="Path 20988" d="M47.29,102.618,20.415,80.768h2.639l24.236,19.7Z" fill="#4a416a"/>
        <path id="Path_20989" data-name="Path 20989" d="M47.29,104.763l-29.514-24h2.639L47.29,102.617Z" fill="#494069"/>
        <path id="Path_20990" data-name="Path 20990" d="M47.29,106.909,15.137,80.768h2.639L47.29,104.763Z" fill="#483f68"/>
        <path id="Path_20991" data-name="Path 20991" d="M47.015,108.83,12.5,80.768h2.639l32.153,26.14v1.922Z" fill="#473e67"/>
        <path id="Path_20992" data-name="Path 20992" d="M44.375,108.83,11.263,81.909l.928-1.141H12.5L47.014,108.83Z" fill="#473d66"/>
        <path id="Path_20993" data-name="Path 20993" d="M41.736,108.83,10.212,83.2l1.05-1.292L44.375,108.83Z" fill="#463d65"/>
        <path id="Path_20994" data-name="Path 20994" d="M39.1,108.83,9.162,84.492l1.05-1.291L41.736,108.83Z" fill="#453c64"/>
        <path id="Path_20995" data-name="Path 20995" d="M36.458,108.83,8.112,85.784l1.05-1.292L39.1,108.83Z" fill="#443b63"/>
        <path id="Path_20996" data-name="Path 20996" d="M33.819,108.83,7.061,87.076l1.051-1.292L36.458,108.83Z" fill="#433a62"/>
        <path id="Path_20997" data-name="Path 20997" d="M31.18,108.83,6.011,88.368l1.051-1.292L33.819,108.83Z" fill="#423961"/>
        <path id="Path_20998" data-name="Path 20998" d="M28.541,108.83,4.961,89.659l1.05-1.291L31.18,108.83Z" fill="#413860"/>
        <path id="Path_20999" data-name="Path 20999" d="M25.9,108.83,4,91.024v-.182l.961-1.183,23.58,19.171Z" fill="#40375f"/>
        <path id="Path_21000" data-name="Path 21000" d="M23.263,108.83,4,93.169V91.024L25.9,108.83Z" fill="#3f365e"/>
        <path id="Path_21001" data-name="Path 21001" d="M20.624,108.83,4,95.315V93.169L23.263,108.83Z" fill="#3e365d"/>
        <path id="Path_21002" data-name="Path 21002" d="M17.984,108.83,4,97.461V95.315L20.623,108.83Z" fill="#3e355c"/>
        <path id="Path_21003" data-name="Path 21003" d="M15.345,108.83,4,99.606V97.461L17.984,108.83Z" fill="#3d345b"/>
        <path id="Path_21004" data-name="Path 21004" d="M12.706,108.83,4,101.752V99.606l11.345,9.224Z" fill="#3c335a"/>
        <path id="Path_21005" data-name="Path 21005" d="M10.067,108.83,4,103.9v-2.145l8.706,7.078Z" fill="#3b3259"/>
        <path id="Path_21006" data-name="Path 21006" d="M7.428,108.83,4,106.043V103.9l6.067,4.933Z" fill="#3a3158"/>
        <path id="Path_21007" data-name="Path 21007" d="M4.789,108.83,4,108.189v-2.146l3.428,2.787Z" fill="#393057"/>
        <path id="Path_21008" data-name="Path 21008" d="M4,108.189l.789.641H4Z" fill="#382f56"/>
        <path id="Path_21009" data-name="Path 21009" d="M51.29,77.977l-1.483-1.206H51.29Z" fill="#564c77"/>
        <path id="Path_21010" data-name="Path 21010" d="M51.29,80.122l-4.122-3.351h2.639l1.483,1.205Z" fill="#554b76"/>
        <path id="Path_21011" data-name="Path 21011" d="M51.29,82.268l-6.761-5.5h2.639l4.122,3.351Z" fill="#544b75"/>
        <path id="Path_21012" data-name="Path 21012" d="M51.29,84.413l-9.4-7.642h2.639l6.761,5.5Z" fill="#534a74"/>
        <path id="Path_21013" data-name="Path 21013" d="M51.29,86.559,39.251,76.771H41.89l9.4,7.642Z" fill="#524973"/>
        <path id="Path_21014" data-name="Path 21014" d="M51.29,88.7,36.612,76.771h2.639L51.29,86.559Z" fill="#514872"/>
        <path id="Path_21015" data-name="Path 21015" d="M51.29,90.85,33.972,76.771h2.64L51.29,88.7Z" fill="#514771"/>
        <path id="Path_21016" data-name="Path 21016" d="M51.29,93,31.333,76.771h2.639L51.29,90.85Z" fill="#504670"/>
        <path id="Path_21017" data-name="Path 21017" d="M51.29,95.141,28.694,76.77h2.639L51.29,93Z" fill="#4f456f"/>
        <path id="Path_21018" data-name="Path 21018" d="M51.29,97.287,26.055,76.771h2.639l22.6,18.37Z" fill="#4e446e"/>
        <path id="Path_21019" data-name="Path 21019" d="M51.29,99.433,23.416,76.771h2.639L51.29,97.287Z" fill="#4d446d"/>
        <path id="Path_21020" data-name="Path 21020" d="M51.29,101.578,20.777,76.771h2.639L51.29,99.432Z" fill="#4c436c"/>
        <path id="Path_21021" data-name="Path 21021" d="M51.29,103.724,18.138,76.771h2.639L51.29,101.578Z" fill="#4b426b"/>
        <path id="Path_21022" data-name="Path 21022" d="M51.29,105.869,15.5,76.771h2.639L51.29,103.723Z" fill="#4a416a"/>
        <path id="Path_21023" data-name="Path 21023" d="M51.29,108.015,12.86,76.771H15.5l35.791,29.1Z" fill="#494069"/>
        <path id="Path_21024" data-name="Path 21024" d="M51.29,110.161,10.22,76.771h2.64l38.43,31.244Z" fill="#483f68"/>
        <path id="Path_21025" data-name="Path 21025" d="M51.29,111.456l-.416.512L9.141,78.039l1.031-1.268h.048l41.07,33.39Z" fill="#473e67"/>
        <path id="Path_21026" data-name="Path 21026" d="M50.874,111.968l-.7.863H49.3L8.091,79.331l1.05-1.292Z" fill="#473d66"/>
        <path id="Path_21027" data-name="Path 21027" d="M46.656,112.83,7.04,80.622,8.09,79.33,49.3,112.83Z" fill="#463d65"/>
        <path id="Path_21028" data-name="Path 21028" d="M44.017,112.83,5.99,81.914l1.05-1.292L46.656,112.83Z" fill="#453c64"/>
        <path id="Path_21029" data-name="Path 21029" d="M41.378,112.83,4.94,83.206l1.05-1.292L44.017,112.83Z" fill="#443b63"/>
        <path id="Path_21030" data-name="Path 21030" d="M38.739,112.83,3.89,84.5l1.05-1.291L41.378,112.83Z" fill="#433a62"/>
        <path id="Path_21031" data-name="Path 21031" d="M36.1,112.83,2.84,85.789,3.89,84.5,38.739,112.83Z" fill="#423961"/>
        <path id="Path_21032" data-name="Path 21032" d="M33.461,112.83,1.79,87.081l1.05-1.292L36.1,112.83Z" fill="#413860"/>
        <path id="Path_21033" data-name="Path 21033" d="M30.822,112.83.74,88.373l1.05-1.292L33.461,112.83Z" fill="#40375f"/>
        <path id="Path_21034" data-name="Path 21034" d="M28.183,112.83,0,89.917v-.635l.74-.909L30.822,112.83Z" fill="#3f365e"/>
        <path id="Path_21035" data-name="Path 21035" d="M25.544,112.83,0,92.063V89.917L28.183,112.83Z" fill="#3e365d"/>
        <path id="Path_21036" data-name="Path 21036" d="M22.9,112.83,0,94.209V92.063L25.543,112.83Z" fill="#3e355c"/>
        <path id="Path_21037" data-name="Path 21037" d="M20.265,112.83,0,96.354V94.209L22.9,112.83Z" fill="#3d345b"/>
        <path id="Path_21038" data-name="Path 21038" d="M17.626,112.83,0,98.5V96.354L20.265,112.83Z" fill="#3c335a"/>
        <path id="Path_21039" data-name="Path 21039" d="M14.987,112.83,0,100.645V98.5l17.626,14.33Z" fill="#3b3259"/>
        <path id="Path_21040" data-name="Path 21040" d="M12.348,112.83,0,102.791v-2.146L14.987,112.83Z" fill="#3a3158"/>
        <path id="Path_21041" data-name="Path 21041" d="M9.709,112.83,0,104.937v-2.146L12.348,112.83Z" fill="#393057"/>
        <path id="Path_21042" data-name="Path 21042" d="M7.07,112.83,0,107.082v-2.145l9.709,7.893Z" fill="#382f56"/>
        <path id="Path_21043" data-name="Path 21043" d="M4.431,112.83,0,109.228v-2.146l7.07,5.748Z" fill="#372f55"/>
        <path id="Path_21044" data-name="Path 21044" d="M1.791,112.83,0,111.374v-2.146l4.43,3.6Z" fill="#362e54"/>
        <path id="Path_21045" data-name="Path 21045" d="M0,111.374l1.791,1.456H0Z" fill="#352d53"/>
      </g>
    </g>
    <g id="Group_7211" data-name="Group 7211">
      <g id="Group_7210" data-name="Group 7210" clip-path="url(#clip-path-8)">
        <path id="Path_21047" data-name="Path 21047" d="M35.79,43.919l-2.421-1.968H35.79Z" fill="#5f5581"/>
        <path id="Path_21048" data-name="Path 21048" d="M35.79,46.064,30.73,41.95h2.639l2.421,1.968Z" fill="#5e5480"/>
        <path id="Path_21049" data-name="Path 21049" d="M35.79,48.21l-7.7-6.259H30.73l5.06,4.113Z" fill="#5d537f"/>
        <path id="Path_21050" data-name="Path 21050" d="M35.79,50.355l-10.338-8.4h2.639l7.7,6.259Z" fill="#5c527e"/>
        <path id="Path_21051" data-name="Path 21051" d="M35.79,52.5,22.813,41.95h2.639L35.79,50.355Z" fill="#5b527d"/>
        <path id="Path_21052" data-name="Path 21052" d="M35.79,54.647l-15.616-12.7h2.639L35.79,52.5Z" fill="#5b517c"/>
        <path id="Path_21053" data-name="Path 21053" d="M35.79,56.792,17.535,41.95h2.639l15.616,12.7Z" fill="#5a507b"/>
        <path id="Path_21054" data-name="Path 21054" d="M35.79,58.938,15.954,42.811l.7-.86h.882L35.79,56.792Z" fill="#594f7a"/>
        <path id="Path_21055" data-name="Path 21055" d="M35.79,61.084,15.5,44.588V43.369l.454-.558L35.79,58.938Z" fill="#584e79"/>
        <path id="Path_21056" data-name="Path 21056" d="M35.79,63.229,15.5,46.733V44.587l20.29,16.5Z" fill="#574d78"/>
        <path id="Path_21057" data-name="Path 21057" d="M35.79,65.375,15.5,48.879V46.733l20.29,16.5Z" fill="#564c77"/>
        <path id="Path_21058" data-name="Path 21058" d="M35.79,67.521,15.5,51.024V48.879l20.29,16.5Z" fill="#554b76"/>
        <path id="Path_21059" data-name="Path 21059" d="M35.79,69.26l-.2.245L15.5,53.17V51.025l20.29,16.5Z" fill="#544b75"/>
        <path id="Path_21060" data-name="Path 21060" d="M35.591,69.5,34.541,70.8,15.5,55.315V53.17Z" fill="#534a74"/>
        <path id="Path_21061" data-name="Path 21061" d="M34.541,70.8l-.077.1H32.019L15.5,57.461V55.316Z" fill="#524973"/>
        <path id="Path_21062" data-name="Path 21062" d="M29.379,70.891,15.5,59.607V57.461l16.518,13.43Z" fill="#514872"/>
        <path id="Path_21063" data-name="Path 21063" d="M26.74,70.891,15.5,61.753V59.607L29.379,70.891Z" fill="#514771"/>
        <path id="Path_21064" data-name="Path 21064" d="M24.1,70.891,15.5,63.9V61.753l11.24,9.138Z" fill="#504670"/>
        <path id="Path_21065" data-name="Path 21065" d="M21.462,70.891,15.5,66.044V63.9l8.6,6.993Z" fill="#4f456f"/>
        <path id="Path_21066" data-name="Path 21066" d="M18.823,70.891l-3.323-2.7V66.044l5.962,4.847Z" fill="#4e446e"/>
        <path id="Path_21067" data-name="Path 21067" d="M16.184,70.891l-.684-.556V68.189l3.323,2.7Z" fill="#4d446d"/>
        <path id="Path_21068" data-name="Path 21068" d="M15.5,70.335l.684.556H15.5Z" fill="#4c436c"/>
        <path id="Path_21069" data-name="Path 21069" d="M39.79,38.588l-.784-.638h.784Z" fill="#635986"/>
        <path id="Path_21070" data-name="Path 21070" d="M39.79,40.734l-3.423-2.783h2.639l.784.637Z" fill="#625885"/>
        <path id="Path_21071" data-name="Path 21071" d="M39.79,42.879,33.727,37.95h2.64l3.423,2.783Z" fill="#615784"/>
        <path id="Path_21072" data-name="Path 21072" d="M39.79,45.025l-8.7-7.075h2.639l6.063,4.929Z" fill="#605683"/>
        <path id="Path_21073" data-name="Path 21073" d="M39.79,47.171l-11.341-9.22h2.639l8.7,7.074Z" fill="#5f5581"/>
        <path id="Path_21074" data-name="Path 21074" d="M39.79,49.316,25.81,37.95h2.639L39.79,47.17Z" fill="#5e5480"/>
        <path id="Path_21075" data-name="Path 21075" d="M39.79,51.462,23.171,37.951H25.81L39.79,49.316Z" fill="#5d537f"/>
        <path id="Path_21076" data-name="Path 21076" d="M39.79,53.607,20.532,37.951h2.639L39.79,51.462Z" fill="#5c527e"/>
        <path id="Path_21077" data-name="Path 21077" d="M39.79,55.753l-21.9-17.8h2.639L39.79,53.607Z" fill="#5b527d"/>
        <path id="Path_21078" data-name="Path 21078" d="M39.79,57.9,15.254,37.951h2.639l21.9,17.8Z" fill="#5b517c"/>
        <path id="Path_21079" data-name="Path 21079" d="M39.79,60.044,13.52,38.687l.6-.737h1.135L39.79,57.9Z" fill="#5a507b"/>
        <path id="Path_21080" data-name="Path 21080" d="M39.79,62.19,12.47,39.979l1.05-1.292L39.79,60.044Z" fill="#594f7a"/>
        <path id="Path_21081" data-name="Path 21081" d="M39.79,64.336l-28.29-23v-.164l.97-1.193L39.79,62.19Z" fill="#584e79"/>
        <path id="Path_21082" data-name="Path 21082" d="M39.79,66.481l-28.29-23V41.335l28.29,23Z" fill="#574d78"/>
        <path id="Path_21083" data-name="Path 21083" d="M39.79,68.627l-28.29-23V43.481l28.29,23Z" fill="#564c77"/>
        <path id="Path_21084" data-name="Path 21084" d="M39.79,70.772l-28.29-23V45.626l28.29,23Z" fill="#554b76"/>
        <path id="Path_21085" data-name="Path 21085" d="M39.79,71.374l-.756.929L11.5,49.918V47.772l28.29,23Z" fill="#544b75"/>
        <path id="Path_21086" data-name="Path 21086" d="M39.034,72.3,37.984,73.6,11.5,52.064V49.918Z" fill="#534a74"/>
        <path id="Path_21087" data-name="Path 21087" d="M37.984,73.6l-1.05,1.292L11.5,54.21V52.064Z" fill="#524973"/>
        <path id="Path_21088" data-name="Path 21088" d="M36.934,74.887l0,0H34.3L11.5,56.355V54.209Z" fill="#514872"/>
        <path id="Path_21089" data-name="Path 21089" d="M31.66,74.891,11.5,58.5V56.355L34.3,74.891Z" fill="#514771"/>
        <path id="Path_21090" data-name="Path 21090" d="M29.021,74.891,11.5,60.646V58.5l20.16,16.39Z" fill="#504670"/>
        <path id="Path_21091" data-name="Path 21091" d="M26.382,74.891,11.5,62.792V60.646L29.021,74.891Z" fill="#4f456f"/>
        <path id="Path_21092" data-name="Path 21092" d="M23.743,74.891,11.5,64.937V62.792l14.882,12.1Z" fill="#4e446e"/>
        <path id="Path_21093" data-name="Path 21093" d="M21.1,74.891l-9.6-7.808V64.937l12.243,9.954Z" fill="#4d446d"/>
        <path id="Path_21094" data-name="Path 21094" d="M18.465,74.891,11.5,69.229V67.083l9.6,7.808Z" fill="#4c436c"/>
        <path id="Path_21095" data-name="Path 21095" d="M15.825,74.891,11.5,71.374V69.229l6.965,5.662Z" fill="#4b426b"/>
        <path id="Path_21096" data-name="Path 21096" d="M13.186,74.891,11.5,73.52V71.374l4.325,3.517Z" fill="#4a416a"/>
        <path id="Path_21097" data-name="Path 21097" d="M11.5,73.52l1.686,1.371H11.5Z" fill="#494069"/>
      </g>
    </g>
    <g id="Group_7213" data-name="Group 7213">
      <g id="Group_7212" data-name="Group 7212" clip-path="url(#clip-path-9)">
        <path id="Path_21099" data-name="Path 21099" d="M78.43,59.274l-.582-.473h.582Z" fill="#675d8b"/>
        <path id="Path_21100" data-name="Path 21100" d="M78.43,61.42,75.209,58.8h2.639l.582.473Z" fill="#665c8a"/>
        <path id="Path_21101" data-name="Path 21101" d="M78.43,63.566,72.57,58.8h2.639L78.43,61.42Z" fill="#655b89"/>
        <path id="Path_21102" data-name="Path 21102" d="M78.43,65.711l-8.5-6.91h2.64l5.86,4.764Z" fill="#655a88"/>
        <path id="Path_21103" data-name="Path 21103" d="M78.43,67.857,67.291,58.8H69.93l8.5,6.91Z" fill="#645a87"/>
        <path id="Path_21104" data-name="Path 21104" d="M78.43,70,64.652,58.8h2.639L78.43,67.856Z" fill="#635986"/>
        <path id="Path_21105" data-name="Path 21105" d="M78.43,72.148,62.013,58.8h2.639L78.43,70Z" fill="#625885"/>
        <path id="Path_21106" data-name="Path 21106" d="M78.43,74.294,59.374,58.8h2.639L78.43,72.148Z" fill="#615784"/>
        <path id="Path_21107" data-name="Path 21107" d="M78.43,76.439,58.282,60.058,59.3,58.8h.07L78.43,74.293Z" fill="#605683"/>
        <path id="Path_21108" data-name="Path 21108" d="M78.43,78.585l-20.29-16.5V60.233l.142-.174L78.43,76.439Z" fill="#5f5581"/>
        <path id="Path_21109" data-name="Path 21109" d="M78.43,80.731l-20.29-16.5V62.089l20.29,16.5Z" fill="#5e5480"/>
        <path id="Path_21110" data-name="Path 21110" d="M78.43,82.876,58.14,66.38V64.234l20.29,16.5Z" fill="#5d537f"/>
        <path id="Path_21111" data-name="Path 21111" d="M78.43,85.022l-20.29-16.5V66.38l20.29,16.5Z" fill="#5c527e"/>
        <path id="Path_21112" data-name="Path 21112" d="M78.43,86.318l-.416.511L58.14,70.671V68.526l20.29,16.5Z" fill="#5b527d"/>
        <path id="Path_21113" data-name="Path 21113" d="M78.014,86.83l-.741.911H76.5L58.14,72.818V70.672Z" fill="#5b517c"/>
        <path id="Path_21114" data-name="Path 21114" d="M73.856,87.741,58.139,74.963V72.818L76.5,87.741Z" fill="#5a507b"/>
        <path id="Path_21115" data-name="Path 21115" d="M71.217,87.741,58.139,77.109V74.963L73.856,87.741Z" fill="#594f7a"/>
        <path id="Path_21116" data-name="Path 21116" d="M68.578,87.741,58.14,79.254V77.109L71.217,87.741Z" fill="#584e79"/>
        <path id="Path_21117" data-name="Path 21117" d="M65.939,87.741,58.14,81.4V79.254l10.438,8.487Z" fill="#574d78"/>
        <path id="Path_21118" data-name="Path 21118" d="M63.3,87.741l-5.16-4.195V81.4l7.8,6.341Z" fill="#564c77"/>
        <path id="Path_21119" data-name="Path 21119" d="M60.661,87.741l-2.521-2.05V83.546l5.16,4.195Z" fill="#554b76"/>
        <path id="Path_21120" data-name="Path 21120" d="M58.14,85.691l2.521,2.05H58.14Z" fill="#544b75"/>
        <path id="Path_21121" data-name="Path 21121" d="M82.43,56.09,80.845,54.8H82.43Z" fill="#6a608e"/>
        <path id="Path_21122" data-name="Path 21122" d="M82.43,58.235,78.206,54.8h2.639l1.585,1.288Z" fill="#695f8d"/>
        <path id="Path_21123" data-name="Path 21123" d="M82.43,60.381,75.567,54.8h2.639l4.224,3.434Z" fill="#685e8c"/>
        <path id="Path_21124" data-name="Path 21124" d="M82.43,62.526l-9.5-7.725h2.639L82.43,60.38Z" fill="#675d8b"/>
        <path id="Path_21125" data-name="Path 21125" d="M82.43,64.672,70.289,54.8h2.639l9.5,7.725Z" fill="#665c8a"/>
        <path id="Path_21126" data-name="Path 21126" d="M82.43,66.818,67.65,54.8h2.639L82.43,64.672Z" fill="#655b89"/>
        <path id="Path_21127" data-name="Path 21127" d="M82.43,68.963,65.01,54.8h2.64L82.43,66.817Z" fill="#655a88"/>
        <path id="Path_21128" data-name="Path 21128" d="M82.43,71.109,62.371,54.8H65.01L82.43,68.963Z" fill="#645a87"/>
        <path id="Path_21129" data-name="Path 21129" d="M82.43,73.255,59.732,54.8h2.639L82.43,71.109Z" fill="#635986"/>
        <path id="Path_21130" data-name="Path 21130" d="M82.43,75.4,57.093,54.8h2.639l22.7,18.453Z" fill="#625885"/>
        <path id="Path_21131" data-name="Path 21131" d="M82.43,77.546,55.848,55.935l.921-1.134h.324L82.43,75.4Z" fill="#615784"/>
        <path id="Path_21132" data-name="Path 21132" d="M82.43,79.691,54.8,57.226l1.05-1.292L82.43,77.545Z" fill="#605683"/>
        <path id="Path_21133" data-name="Path 21133" d="M82.43,81.837l-28.29-23v-.8l.658-.809L82.43,79.691Z" fill="#5f5581"/>
        <path id="Path_21134" data-name="Path 21134" d="M82.43,83.983l-28.29-23V58.837l28.29,23Z" fill="#5e5480"/>
        <path id="Path_21135" data-name="Path 21135" d="M82.43,86.128l-28.29-23V60.982l28.29,23Z" fill="#5d537f"/>
        <path id="Path_21136" data-name="Path 21136" d="M82.43,88.274l-28.29-23V63.128l28.29,23Z" fill="#5c527e"/>
        <path id="Path_21137" data-name="Path 21137" d="M82.43,88.515,81.5,89.662,54.14,67.419V65.274l28.29,23Z" fill="#5b527d"/>
        <path id="Path_21138" data-name="Path 21138" d="M81.5,89.662l-1.05,1.292L54.14,69.565V67.42Z" fill="#5b517c"/>
        <path id="Path_21139" data-name="Path 21139" d="M80.447,90.953l-.64.787H78.776L54.139,71.71V69.565Z" fill="#5a507b"/>
        <path id="Path_21140" data-name="Path 21140" d="M76.137,91.741l-22-17.884V71.711l24.637,20.03Z" fill="#594f7a"/>
        <path id="Path_21141" data-name="Path 21141" d="M73.5,91.741,54.14,76V73.857l22,17.884Z" fill="#584e79"/>
        <path id="Path_21142" data-name="Path 21142" d="M70.859,91.741,54.14,78.148V76L73.5,91.741Z" fill="#574d78"/>
        <path id="Path_21143" data-name="Path 21143" d="M68.22,91.741,54.14,80.294V78.148L70.859,91.741Z" fill="#564c77"/>
        <path id="Path_21144" data-name="Path 21144" d="M65.581,91.741l-11.441-9.3V80.294L68.22,91.741Z" fill="#554b76"/>
        <path id="Path_21145" data-name="Path 21145" d="M62.942,91.741l-8.8-7.156V82.439l11.441,9.3Z" fill="#544b75"/>
        <path id="Path_21146" data-name="Path 21146" d="M60.3,91.741l-6.163-5.01V84.585l8.8,7.156Z" fill="#534a74"/>
        <path id="Path_21147" data-name="Path 21147" d="M57.663,91.741l-3.524-2.865V86.731l6.163,5.01Z" fill="#524973"/>
        <path id="Path_21148" data-name="Path 21148" d="M55.024,91.741l-.885-.719V88.876l3.524,2.865Z" fill="#514872"/>
        <path id="Path_21149" data-name="Path 21149" d="M54.14,91.021l.885.719H54.14Z" fill="#514771"/>
      </g>
    </g>
    <g id="Group_7215" data-name="Group 7215">
      <g id="Group_7214" data-name="Group 7214" clip-path="url(#clip-path-10)">
        <path id="Path_21151" data-name="Path 21151" d="M89.93,98.663l-1.294-1.052H89.93Z" fill="#5b517c"/>
        <path id="Path_21152" data-name="Path 21152" d="M89.93,100.808,86,97.61h2.639l1.294,1.052Z" fill="#5a507b"/>
        <path id="Path_21153" data-name="Path 21153" d="M89.93,102.954l-6.572-5.343H86l3.933,3.2Z" fill="#594f7a"/>
        <path id="Path_21154" data-name="Path 21154" d="M89.93,105.1l-9.211-7.489h2.639l6.572,5.343Z" fill="#584e79"/>
        <path id="Path_21155" data-name="Path 21155" d="M89.93,107.245,78.08,97.61h2.639L89.93,105.1Z" fill="#574d78"/>
        <path id="Path_21156" data-name="Path 21156" d="M89.93,109.391,75.44,97.611h2.64l11.85,9.634Z" fill="#564c77"/>
        <path id="Path_21157" data-name="Path 21157" d="M89.93,111.536,72.8,97.61H75.44l14.49,11.78Z" fill="#554b76"/>
        <path id="Path_21158" data-name="Path 21158" d="M89.93,113.682,70.162,97.611H72.8L89.93,111.536Z" fill="#544b75"/>
        <path id="Path_21159" data-name="Path 21159" d="M89.93,115.828,67.523,97.611h2.639L89.93,113.682Z" fill="#534a74"/>
        <path id="Path_21160" data-name="Path 21160" d="M89.93,117.973,64.884,97.61h2.639L89.93,115.827Z" fill="#524973"/>
        <path id="Path_21161" data-name="Path 21161" d="M89.93,120.119,62.245,97.611h2.639L89.93,117.973Z" fill="#514872"/>
        <path id="Path_21162" data-name="Path 21162" d="M89.93,122.264,59.606,97.611h2.639L89.93,120.118Z" fill="#514771"/>
        <path id="Path_21163" data-name="Path 21163" d="M89.93,124.41l-32.963-26.8h2.639L89.93,122.264Z" fill="#504670"/>
        <path id="Path_21164" data-name="Path 21164" d="M88.854,125.681,54.988,98.147l.436-.536h1.543l32.963,26.8v1.271Z" fill="#4f456f"/>
        <path id="Path_21165" data-name="Path 21165" d="M86.215,125.681,53.938,99.439l1.05-1.292,33.866,27.534Z" fill="#4e446e"/>
        <path id="Path_21166" data-name="Path 21166" d="M83.576,125.681l-30.689-24.95,1.051-1.292,32.277,26.242Z" fill="#4d446d"/>
        <path id="Path_21167" data-name="Path 21167" d="M80.936,125.681l-29.1-23.658,1.051-1.292,30.688,24.95Z" fill="#4c436c"/>
        <path id="Path_21168" data-name="Path 21168" d="M78.3,125.681,50.786,103.314l1.05-1.291,29.1,23.658Z" fill="#4b426b"/>
        <path id="Path_21169" data-name="Path 21169" d="M75.658,125.681,49.736,104.606l1.05-1.292L78.3,125.681Z" fill="#4a416a"/>
        <path id="Path_21170" data-name="Path 21170" d="M73.019,125.681,48.686,105.9l1.05-1.292,25.922,21.075Z" fill="#494069"/>
        <path id="Path_21171" data-name="Path 21171" d="M70.38,125.681,47.636,107.19l1.05-1.292,24.333,19.783Z" fill="#483f68"/>
        <path id="Path_21172" data-name="Path 21172" d="M67.741,125.681l-21.09-17.147V108.4l.985-1.212L70.38,125.681Z" fill="#473e67"/>
        <path id="Path_21173" data-name="Path 21173" d="M65.1,125.681l-18.451-15v-2.146l21.09,17.147Z" fill="#473d66"/>
        <path id="Path_21174" data-name="Path 21174" d="M62.463,125.681,46.651,112.826V110.68l18.451,15Z" fill="#463d65"/>
        <path id="Path_21175" data-name="Path 21175" d="M59.824,125.681l-13.173-10.71v-2.145l15.812,12.855Z" fill="#453c64"/>
        <path id="Path_21176" data-name="Path 21176" d="M57.184,125.681,46.65,117.117v-2.146l13.173,10.71Z" fill="#443b63"/>
        <path id="Path_21177" data-name="Path 21177" d="M54.545,125.681l-7.9-6.419v-2.145l10.534,8.564Z" fill="#433a62"/>
        <path id="Path_21178" data-name="Path 21178" d="M51.906,125.681l-5.256-4.273v-2.146l7.9,6.419Z" fill="#423961"/>
        <path id="Path_21179" data-name="Path 21179" d="M49.267,125.681l-2.617-2.127v-2.146l5.256,4.273Z" fill="#413860"/>
        <path id="Path_21180" data-name="Path 21180" d="M46.65,123.554l2.617,2.127H46.65Z" fill="#40375f"/>
        <path id="Path_21181" data-name="Path 21181" d="M93.93,95.478l-2.3-1.867h2.3Z" fill="#5d537f"/>
        <path id="Path_21182" data-name="Path 21182" d="M93.93,97.624l-4.936-4.013h2.639l2.3,1.867Z" fill="#5c527e"/>
        <path id="Path_21183" data-name="Path 21183" d="M93.93,99.769l-7.575-6.158h2.639l4.936,4.012Z" fill="#5b527d"/>
        <path id="Path_21184" data-name="Path 21184" d="M93.93,101.915l-10.214-8.3h2.639l7.575,6.158Z" fill="#5b517c"/>
        <path id="Path_21185" data-name="Path 21185" d="M93.93,104.06,81.077,93.61h2.639l10.214,8.3Z" fill="#5a507b"/>
        <path id="Path_21186" data-name="Path 21186" d="M93.93,106.206l-15.492-12.6h2.639L93.93,104.06Z" fill="#594f7a"/>
        <path id="Path_21187" data-name="Path 21187" d="M93.93,108.352,75.8,93.611h2.639l15.492,12.6Z" fill="#584e79"/>
        <path id="Path_21188" data-name="Path 21188" d="M93.93,110.5,73.16,93.61H75.8L93.93,108.351Z" fill="#574d78"/>
        <path id="Path_21189" data-name="Path 21189" d="M93.93,112.643,70.52,93.611h2.64L93.93,110.5Z" fill="#564c77"/>
        <path id="Path_21190" data-name="Path 21190" d="M93.93,114.788,67.881,93.611H70.52l23.41,19.032Z" fill="#554b76"/>
        <path id="Path_21191" data-name="Path 21191" d="M93.93,116.934,65.242,93.611h2.639L93.93,114.788Z" fill="#544b75"/>
        <path id="Path_21192" data-name="Path 21192" d="M93.93,119.08,62.6,93.611h2.639L93.93,116.934Z" fill="#534a74"/>
        <path id="Path_21193" data-name="Path 21193" d="M93.93,121.225,59.964,93.61H62.6L93.93,119.079Z" fill="#524973"/>
        <path id="Path_21194" data-name="Path 21194" d="M93.93,123.371l-36.6-29.76h2.639L93.93,121.225Z" fill="#514872"/>
        <path id="Path_21195" data-name="Path 21195" d="M93.93,125.517,54.686,93.611h2.639l36.6,29.76Z" fill="#514771"/>
        <path id="Path_21196" data-name="Path 21196" d="M93.93,127.662l-41-33.333.584-.718h1.172l39.244,31.9Z" fill="#504670"/>
        <path id="Path_21197" data-name="Path 21197" d="M93.774,129.681,51.88,95.621l1.05-1.292,41,33.333v2.019Z" fill="#4f456f"/>
        <path id="Path_21198" data-name="Path 21198" d="M91.135,129.681,50.83,96.913l1.05-1.292,41.894,34.06Z" fill="#4e446e"/>
        <path id="Path_21199" data-name="Path 21199" d="M88.5,129.681,49.779,98.2l1.05-1.291,40.305,32.768Z" fill="#4d446d"/>
        <path id="Path_21200" data-name="Path 21200" d="M85.856,129.681,48.729,99.5l1.05-1.292L88.5,129.681Z" fill="#4c436c"/>
        <path id="Path_21201" data-name="Path 21201" d="M83.217,129.681,47.679,100.788l1.05-1.292,37.127,30.185Z" fill="#4b426b"/>
        <path id="Path_21202" data-name="Path 21202" d="M80.578,129.681l-33.95-27.6,1.051-1.292,35.538,28.893Z" fill="#4a416a"/>
        <path id="Path_21203" data-name="Path 21203" d="M77.939,129.681,45.578,103.372l1.051-1.292,33.949,27.6Z" fill="#494069"/>
        <path id="Path_21204" data-name="Path 21204" d="M75.3,129.681,44.528,104.663l1.05-1.291,32.361,26.309Z" fill="#483f68"/>
        <path id="Path_21205" data-name="Path 21205" d="M72.661,129.681,43.478,105.955l1.05-1.292L75.3,129.681Z" fill="#473e67"/>
        <path id="Path_21206" data-name="Path 21206" d="M70.022,129.681,42.651,107.428v-.455l.827-1.018,29.183,23.726Z" fill="#473d66"/>
        <path id="Path_21207" data-name="Path 21207" d="M67.383,129.681,42.651,109.574v-2.146l27.371,22.253Z" fill="#463d65"/>
        <path id="Path_21208" data-name="Path 21208" d="M64.743,129.681,42.65,111.719v-2.145l24.732,20.107Z" fill="#453c64"/>
        <path id="Path_21209" data-name="Path 21209" d="M62.1,129.681,42.65,113.865v-2.146l22.093,17.962Z" fill="#443b63"/>
        <path id="Path_21210" data-name="Path 21210" d="M59.465,129.681,42.65,116.01v-2.145L62.1,129.681Z" fill="#433a62"/>
        <path id="Path_21211" data-name="Path 21211" d="M56.826,129.681,42.65,118.156V116.01l16.815,13.671Z" fill="#423961"/>
        <path id="Path_21212" data-name="Path 21212" d="M54.187,129.681,42.65,120.3v-2.146l14.176,11.525Z" fill="#413860"/>
        <path id="Path_21213" data-name="Path 21213" d="M51.548,129.681l-8.9-7.234V120.3l11.537,9.379Z" fill="#40375f"/>
        <path id="Path_21214" data-name="Path 21214" d="M48.909,129.681l-6.258-5.088v-2.146l8.9,7.234Z" fill="#3f365e"/>
        <path id="Path_21215" data-name="Path 21215" d="M46.27,129.681l-3.619-2.943v-2.145l6.258,5.088Z" fill="#3e365d"/>
        <path id="Path_21216" data-name="Path 21216" d="M43.631,129.681l-.98-.8v-2.146l3.619,2.943Z" fill="#3e355c"/>
        <path id="Path_21217" data-name="Path 21217" d="M42.65,128.884l.98.8h-.98Z" fill="#3d345b"/>
      </g>
    </g>
  </g>
</svg>
