<svg xmlns="http://www.w3.org/2000/svg" xmlns:xlink="http://www.w3.org/1999/xlink" width="81.2" height="135.838" viewBox="0 0 81.2 135.838">
  <defs>
    <linearGradient id="linear-gradient" x1="1.332" y1="-1.054" x2="-1.023" y2="3.344" gradientUnits="objectBoundingBox">
      <stop offset="0" stop-color="#1cabe0"/>
      <stop offset="1" stop-color="#107aa3"/>
    </linearGradient>
    <linearGradient id="linear-gradient-2" x1="1.229" y1="-0.083" x2="-0.343" y2="1.027" xlink:href="#linear-gradient"/>
    <linearGradient id="linear-gradient-3" x1="4.088" y1="-5.796" x2="-3.672" y2="7.822" xlink:href="#linear-gradient"/>
    <linearGradient id="linear-gradient-4" x1="4.567" y1="-6.637" x2="-3.193" y2="6.981" xlink:href="#linear-gradient"/>
    <linearGradient id="linear-gradient-5" x1="3.609" y1="-4.956" x2="-4.151" y2="8.662" xlink:href="#linear-gradient"/>
    <linearGradient id="linear-gradient-6" x1="4.49" y1="-6.503" x2="-3.27" y2="7.115" xlink:href="#linear-gradient"/>
    <linearGradient id="linear-gradient-7" x1="4.969" y1="-7.343" x2="-2.791" y2="6.275" xlink:href="#linear-gradient"/>
    <linearGradient id="linear-gradient-8" x1="4.012" y1="-5.662" x2="-3.749" y2="7.956" xlink:href="#linear-gradient"/>
    <linearGradient id="linear-gradient-9" x1="4.893" y1="-7.209" x2="-2.867" y2="6.409" xlink:href="#linear-gradient"/>
    <linearGradient id="linear-gradient-10" x1="5.372" y1="-8.05" x2="-2.388" y2="5.569" xlink:href="#linear-gradient"/>
    <linearGradient id="linear-gradient-11" x1="4.414" y1="-6.369" x2="-3.346" y2="7.249" xlink:href="#linear-gradient"/>
    <linearGradient id="linear-gradient-12" x1="5.296" y1="-7.916" x2="-2.465" y2="5.702" xlink:href="#linear-gradient"/>
    <linearGradient id="linear-gradient-13" x1="5.774" y1="-8.756" x2="-1.986" y2="4.862" xlink:href="#linear-gradient"/>
    <linearGradient id="linear-gradient-14" x1="4.817" y1="-7.075" x2="-2.943" y2="6.543" xlink:href="#linear-gradient"/>
    <linearGradient id="linear-gradient-15" x1="2.195" y1="-16.474" x2="-2.792" y2="33.467" xlink:href="#linear-gradient"/>
    <linearGradient id="linear-gradient-16" x1="2.305" y1="-17.572" x2="-2.683" y2="32.37" xlink:href="#linear-gradient"/>
    <linearGradient id="linear-gradient-17" x1="4.113" y1="-19.597" x2="-4.865" y2="30.344" xlink:href="#linear-gradient"/>
  </defs>
  <g id="Group_7472" data-name="Group 7472" transform="translate(-52.46 -14.497)">
    <path id="Path_61591" data-name="Path 61591" d="M115.842,27.084h-47.4a3.4,3.4,0,0,0-3.4,3.4v27.5a3.4,3.4,0,0,0,3.4,3.4h47.4a3.4,3.4,0,0,0,3.4-3.4v-27.5A3.4,3.4,0,0,0,115.842,27.084Zm.378,30.9a.378.378,0,0,1-.378.377h-47.4a.378.378,0,0,1-.378-.377v-27.5a.378.378,0,0,1,.378-.377h47.4a.378.378,0,0,1,.378.377Z" transform="translate(-2.637 -2.637)" fill="url(#linear-gradient)"/>
    <path id="Path_61592" data-name="Path 61592" d="M128.262,29.114l-1.709-.427V21.039a6.549,6.549,0,0,0-6.542-6.542H59a6.549,6.549,0,0,0-6.541,6.542v95.124A6.549,6.549,0,0,0,59,122.705h1.987V143.73a6.612,6.612,0,0,0,6.6,6.6h43.825a6.613,6.613,0,0,0,6.605-6.6V122.705h1.987a6.55,6.55,0,0,0,6.542-6.542v-7.648l1.709-.428a7.116,7.116,0,0,0,5.4-6.914V36.029A7.117,7.117,0,0,0,128.262,29.114Zm-60.669,118.2a3.59,3.59,0,0,1-3.586-3.586V122.705H92.079v24.611Zm27.505,0V122.705h5.51v24.611ZM115,143.73a3.59,3.59,0,0,1-3.586,3.586h-7.791V122.705H115Zm8.529-27.567a3.527,3.527,0,0,1-3.522,3.522H59a3.527,3.527,0,0,1-3.522-3.522V21.039A3.527,3.527,0,0,1,59,17.516h61.009a3.527,3.527,0,0,1,3.522,3.523v95.124Zm7.107-14.989a4.1,4.1,0,0,1-3.111,3.985l-.976.244V31.8l.976.244a4.1,4.1,0,0,1,3.111,3.985Z" transform="translate(0)" fill="url(#linear-gradient-2)"/>
    <path id="Path_61593" data-name="Path 61593" d="M102.1,77.434h-9.9a3.275,3.275,0,0,0-3.271,3.271v4.532a3.274,3.274,0,0,0,3.271,3.271h9.9a3.274,3.274,0,0,0,3.271-3.271V80.705A3.274,3.274,0,0,0,102.1,77.434Zm.252,7.8a.252.252,0,0,1-.252.252h-9.9a.252.252,0,0,1-.252-.252V80.705a.252.252,0,0,1,.252-.252h9.9a.252.252,0,0,1,.252.252Z" transform="translate(-7.639 -13.185)" fill="url(#linear-gradient-3)"/>
    <path id="Path_61594" data-name="Path 61594" d="M78.22,77.434h-9.9a3.275,3.275,0,0,0-3.271,3.271v4.532a3.274,3.274,0,0,0,3.271,3.271h9.9a3.274,3.274,0,0,0,3.271-3.271V80.705A3.275,3.275,0,0,0,78.22,77.434Zm.252,7.8a.252.252,0,0,1-.252.252h-9.9a.252.252,0,0,1-.252-.252V80.705a.252.252,0,0,1,.252-.252h9.9a.252.252,0,0,1,.252.252Z" transform="translate(-2.637 -13.185)" fill="url(#linear-gradient-4)"/>
    <path id="Path_61595" data-name="Path 61595" d="M125.973,77.434h-9.9a3.274,3.274,0,0,0-3.271,3.271v4.532a3.274,3.274,0,0,0,3.271,3.271h9.9a3.274,3.274,0,0,0,3.27-3.271V80.705A3.274,3.274,0,0,0,125.973,77.434Zm.251,7.8a.252.252,0,0,1-.251.252h-9.9a.252.252,0,0,1-.252-.252V80.705a.252.252,0,0,1,.252-.252h9.9a.252.252,0,0,1,.251.252Z" transform="translate(-12.641 -13.185)" fill="url(#linear-gradient-5)"/>
    <path id="Path_61596" data-name="Path 61596" d="M102.1,94.417h-9.9a3.274,3.274,0,0,0-3.271,3.271v4.532a3.274,3.274,0,0,0,3.271,3.271h9.9a3.274,3.274,0,0,0,3.271-3.271V97.688A3.274,3.274,0,0,0,102.1,94.417Zm.252,7.8a.252.252,0,0,1-.252.251h-9.9a.252.252,0,0,1-.252-.251V97.688a.252.252,0,0,1,.252-.252h9.9a.252.252,0,0,1,.252.252Z" transform="translate(-7.639 -16.743)" fill="url(#linear-gradient-6)"/>
    <path id="Path_61597" data-name="Path 61597" d="M78.22,94.417h-9.9a3.274,3.274,0,0,0-3.271,3.271v4.532a3.274,3.274,0,0,0,3.271,3.271h9.9a3.274,3.274,0,0,0,3.271-3.271V97.688A3.274,3.274,0,0,0,78.22,94.417Zm.252,7.8a.252.252,0,0,1-.252.251h-9.9a.252.252,0,0,1-.252-.251V97.688a.252.252,0,0,1,.252-.252h9.9a.252.252,0,0,1,.252.252Z" transform="translate(-2.637 -16.743)" fill="url(#linear-gradient-7)"/>
    <path id="Path_61598" data-name="Path 61598" d="M125.973,94.417h-9.9a3.274,3.274,0,0,0-3.271,3.271v4.532a3.274,3.274,0,0,0,3.271,3.271h9.9a3.274,3.274,0,0,0,3.27-3.271V97.688A3.274,3.274,0,0,0,125.973,94.417Zm.251,7.8a.251.251,0,0,1-.251.251h-9.9a.252.252,0,0,1-.252-.251V97.688a.252.252,0,0,1,.252-.252h9.9a.252.252,0,0,1,.251.252Z" transform="translate(-12.641 -16.743)" fill="url(#linear-gradient-8)"/>
    <path id="Path_61599" data-name="Path 61599" d="M102.1,111.4h-9.9a3.274,3.274,0,0,0-3.271,3.271V119.2a3.274,3.274,0,0,0,3.271,3.271h9.9a3.274,3.274,0,0,0,3.271-3.271v-4.532A3.274,3.274,0,0,0,102.1,111.4Zm.252,7.8a.252.252,0,0,1-.252.251h-9.9a.252.252,0,0,1-.252-.251v-4.532a.252.252,0,0,1,.252-.252h9.9a.252.252,0,0,1,.252.252Z" transform="translate(-7.639 -20.301)" fill="url(#linear-gradient-9)"/>
    <path id="Path_61600" data-name="Path 61600" d="M78.22,111.4h-9.9a3.274,3.274,0,0,0-3.271,3.271V119.2a3.274,3.274,0,0,0,3.271,3.271h9.9a3.274,3.274,0,0,0,3.271-3.271v-4.532A3.274,3.274,0,0,0,78.22,111.4Zm.252,7.8a.252.252,0,0,1-.252.251h-9.9a.252.252,0,0,1-.252-.251v-4.532a.252.252,0,0,1,.252-.252h9.9a.252.252,0,0,1,.252.252Z" transform="translate(-2.637 -20.301)" fill="url(#linear-gradient-10)"/>
    <path id="Path_61601" data-name="Path 61601" d="M125.973,111.4h-9.9a3.274,3.274,0,0,0-3.271,3.271V119.2a3.274,3.274,0,0,0,3.271,3.271h9.9a3.274,3.274,0,0,0,3.27-3.271v-4.532A3.274,3.274,0,0,0,125.973,111.4Zm.251,7.8a.251.251,0,0,1-.251.251h-9.9a.252.252,0,0,1-.252-.251v-4.532a.252.252,0,0,1,.252-.252h9.9a.252.252,0,0,1,.251.252Z" transform="translate(-12.641 -20.301)" fill="url(#linear-gradient-11)"/>
    <path id="Path_61602" data-name="Path 61602" d="M99.922,128.383H94.369a5.451,5.451,0,0,0-5.446,5.445v.183a5.452,5.452,0,0,0,5.446,5.446h5.553a5.451,5.451,0,0,0,5.445-5.446v-.183A5.451,5.451,0,0,0,99.922,128.383Zm2.426,5.628a2.429,2.429,0,0,1-2.426,2.426H94.369a2.429,2.429,0,0,1-2.427-2.426v-.183a2.429,2.429,0,0,1,2.427-2.426h5.553a2.429,2.429,0,0,1,2.426,2.426Z" transform="translate(-7.639 -23.859)" fill="url(#linear-gradient-12)"/>
    <path id="Path_61603" data-name="Path 61603" d="M76.046,128.383H70.493a5.451,5.451,0,0,0-5.446,5.445v.183a5.452,5.452,0,0,0,5.446,5.446h5.553a5.451,5.451,0,0,0,5.445-5.446v-.183A5.451,5.451,0,0,0,76.046,128.383Zm2.426,5.628a2.429,2.429,0,0,1-2.426,2.426H70.493a2.429,2.429,0,0,1-2.427-2.426v-.183a2.429,2.429,0,0,1,2.427-2.426h5.553a2.429,2.429,0,0,1,2.426,2.426Z" transform="translate(-2.637 -23.859)" fill="url(#linear-gradient-13)"/>
    <path id="Path_61604" data-name="Path 61604" d="M123.8,128.383h-5.552a5.451,5.451,0,0,0-5.446,5.445v.183a5.452,5.452,0,0,0,5.446,5.446H123.8a5.452,5.452,0,0,0,5.446-5.446v-.183A5.451,5.451,0,0,0,123.8,128.383Zm2.427,5.628a2.429,2.429,0,0,1-2.427,2.426h-5.552a2.429,2.429,0,0,1-2.427-2.426v-.183a2.429,2.429,0,0,1,2.427-2.426H123.8a2.429,2.429,0,0,1,2.427,2.426Z" transform="translate(-12.641 -23.859)" fill="url(#linear-gradient-14)"/>
    <path id="Path_61605" data-name="Path 61605" d="M101.822,37.873H79.255a1.51,1.51,0,0,0,0,3.02h22.567a1.51,1.51,0,0,0,0-3.02Z" transform="translate(-5.297 -4.897)" fill="url(#linear-gradient-15)"/>
    <path id="Path_61606" data-name="Path 61606" d="M101.822,45.066H79.255a1.51,1.51,0,0,0,0,3.02h22.567a1.51,1.51,0,0,0,0-3.02Z" transform="translate(-5.297 -6.404)" fill="url(#linear-gradient-16)"/>
    <path id="Path_61607" data-name="Path 61607" d="M90.451,52.259h-11.2a1.51,1.51,0,0,0,0,3.02h11.2a1.51,1.51,0,0,0,0-3.02Z" transform="translate(-5.297 -7.911)" fill="url(#linear-gradient-17)"/>
  </g>
</svg>
