<svg xmlns="http://www.w3.org/2000/svg" xmlns:xlink="http://www.w3.org/1999/xlink" width="141.861" height="125.272" viewBox="0 0 141.861 125.272">
  <defs>
    <linearGradient id="linear-gradient" y1="0.5" x2="1" y2="0.5" gradientUnits="objectBoundingBox">
      <stop offset="0" stop-color="#34a096"/>
      <stop offset="1" stop-color="#14645d"/>
    </linearGradient>
    <linearGradient id="linear-gradient-4" x1="0" y1="0.5" x2="1" y2="0.5" xlink:href="#linear-gradient"/>
  </defs>
  <g id="guest-versatility" transform="translate(-21.091 -38.217)">
    <path id="Path_62076" data-name="Path 62076" d="M147.048,131.151H27.553a6.469,6.469,0,0,1-6.462-6.462V44.678a6.468,6.468,0,0,1,6.462-6.461h119.5a6.468,6.468,0,0,1,6.461,6.461v80.011A6.468,6.468,0,0,1,147.048,131.151Zm-119.5-89.49a3.021,3.021,0,0,0-3.018,3.017v80.011a3.021,3.021,0,0,0,3.018,3.018h119.5a3.021,3.021,0,0,0,3.017-3.018V44.678a3.021,3.021,0,0,0-3.017-3.017Z" fill="url(#linear-gradient)"/>
    <path id="Path_62077" data-name="Path 62077" d="M147.508,115.23H29.406V45.583h118.1ZM32.22,112.418H144.694V48.4H32.22Z" transform="translate(-1.157 -1.025)" fill="url(#linear-gradient)"/>
    <path id="Path_62078" data-name="Path 62078" d="M118.2,162.192H70.008V142.166H118.2Zm-44.749-3.444h41.305V145.61H73.452Z" transform="translate(-6.804 -14.459)" fill="url(#linear-gradient)"/>
    <path id="Path_62079" data-name="Path 62079" d="M127.142,164.871H56.958a1.722,1.722,0,0,1,0-3.444h70.184a1.722,1.722,0,0,1,0,3.444Z" transform="translate(-4.749 -17.138)" fill="url(#linear-gradient-4)"/>
    <g id="Group_7803" data-name="Group 7803" transform="translate(119.098 91.925)">
      <g id="Group_7797" data-name="Group 7797" transform="translate(18.844 62.611)">
        <path id="Path_62080" data-name="Path 62080" d="M161.8,176.644a1.663,1.663,0,1,1-1.664-1.664A1.663,1.663,0,0,1,161.8,176.644Z" transform="translate(-157.052 -173.559)" fill="#fff"/>
        <path id="Path_62081" data-name="Path 62081" d="M159.9,179.5a3.083,3.083,0,1,1,3.085-3.082A3.086,3.086,0,0,1,159.9,179.5Zm0-3.325a.241.241,0,1,0,.244.243A.242.242,0,0,0,159.9,176.172Z" transform="translate(-156.822 -173.33)" fill="url(#linear-gradient)"/>
      </g>
      <g id="Group_7798" data-name="Group 7798" transform="translate(0.007 7.477)">
        <path id="Path_62082" data-name="Path 62082" d="M177.6,110.588v52.347h-41V110.852h41v-.542C177.594,110.4,177.6,110.5,177.6,110.588Z" transform="translate(-135.171 -109.43)" fill="#fff"/>
        <path id="Path_62083" data-name="Path 62083" d="M178.788,164.214H134.941V109.288H177.36v.841l1.418-.04c.007.117.01.238.01.356Zm-41.006-2.842h38.165V112.13H137.782Z" transform="translate(-134.941 -109.288)" fill="url(#linear-gradient)"/>
      </g>
      <g id="Group_7799" data-name="Group 7799" transform="translate(0.007 59.561)">
        <path id="Path_62084" data-name="Path 62084" d="M136.591,171.438v5.536a3.627,3.627,0,0,0,3.628,3.625h33.75a3.626,3.626,0,0,0,3.627-3.625v-5.536Zm20.5,6.375a1.663,1.663,0,1,1,1.664-1.662A1.661,1.661,0,0,1,157.09,177.813Z" transform="translate(-135.171 -170.017)" fill="#fff"/>
        <path id="Path_62085" data-name="Path 62085" d="M173.739,181.79h-33.75a5.053,5.053,0,0,1-5.048-5.046v-6.957h43.847v6.957A5.053,5.053,0,0,1,173.739,181.79Zm-16.3-2.841h16.3a2.209,2.209,0,0,0,2.207-2.2v-4.115H137.782v4.115a2.209,2.209,0,0,0,2.207,2.2H156.28a3.084,3.084,0,1,1,1.161,0Zm-.581-3.27a.242.242,0,1,0,.244.243A.242.242,0,0,0,156.861,175.679Z" transform="translate(-134.941 -169.787)" fill="url(#linear-gradient)"/>
      </g>
      <g id="Group_7800" data-name="Group 7800" transform="translate(18.844 62.611)">
        <path id="Path_62086" data-name="Path 62086" d="M161.8,176.644a1.663,1.663,0,1,1-1.664-1.664A1.663,1.663,0,0,1,161.8,176.644Z" transform="translate(-157.052 -173.559)" fill="#fff"/>
        <path id="Path_62087" data-name="Path 62087" d="M159.9,179.5a3.083,3.083,0,1,1,3.085-3.082A3.086,3.086,0,0,1,159.9,179.5Zm0-3.325a.241.241,0,1,0,.244.243A.242.242,0,0,0,159.9,176.172Z" transform="translate(-156.822 -173.33)" fill="url(#linear-gradient)"/>
      </g>
      <g id="Group_7801" data-name="Group 7801" transform="translate(0 0)">
        <path id="Path_62088" data-name="Path 62088" d="M177.588,105.878v3.853h-41v-3.853a3.627,3.627,0,0,1,3.628-3.625H173.96A3.627,3.627,0,0,1,177.588,105.878Z" transform="translate(-135.163 -100.832)" fill="#fff"/>
        <path id="Path_62089" data-name="Path 62089" d="M178.779,110.922H134.933v-5.273a5.052,5.052,0,0,1,5.048-5.046h33.749a5.053,5.053,0,0,1,5.048,5.046Zm-41-2.842h38.164v-2.431a2.209,2.209,0,0,0-2.207-2.2H139.981a2.209,2.209,0,0,0-2.207,2.2Z" transform="translate(-134.933 -100.603)" fill="url(#linear-gradient)"/>
      </g>
      <g id="Group_7802" data-name="Group 7802" transform="translate(18.844 62.611)">
        <path id="Path_62090" data-name="Path 62090" d="M161.8,176.644a1.663,1.663,0,1,1-1.664-1.664A1.663,1.663,0,0,1,161.8,176.644Z" transform="translate(-157.052 -173.559)" fill="#fff"/>
        <path id="Path_62091" data-name="Path 62091" d="M159.9,179.5a3.083,3.083,0,1,1,3.085-3.082A3.086,3.086,0,0,1,159.9,179.5Zm0-3.325a.241.241,0,1,0,.244.243A.242.242,0,0,0,159.9,176.172Z" transform="translate(-156.822 -173.33)" fill="url(#linear-gradient)"/>
      </g>
    </g>
    <path id="Path_62092" data-name="Path 62092" d="M95.5,85.827a7.742,7.742,0,0,1-7.725-7.715v-4.5A7.763,7.763,0,0,1,95.492,65.9H95.5a7.752,7.752,0,0,1,7.71,7.71v4.5A7.756,7.756,0,0,1,95.5,85.827ZM95.5,68.712a4.94,4.94,0,0,0-4.905,4.907v4.488a4.9,4.9,0,1,0,9.807,0v-4.49A4.931,4.931,0,0,0,95.5,68.712Z" transform="translate(-9.276 -3.85)" fill="url(#linear-gradient)"/>
    <path id="Path_62093" data-name="Path 62093" d="M108.222,108.8H80.843v-5.78a13.674,13.674,0,0,1,.91-4.886,13.875,13.875,0,0,1,3.109-4.786,13.641,13.641,0,0,1,20.733,1.634,13.456,13.456,0,0,1,1.718,3.155,13.661,13.661,0,0,1,.909,4.878Zm-24.565-2.813h21.751v-2.966a10.849,10.849,0,0,0-.721-3.876,10.716,10.716,0,0,0-1.364-2.506,10.85,10.85,0,0,0-17.53-.071A10.655,10.655,0,0,0,84.38,99.14a10.819,10.819,0,0,0-.722,3.88Z" transform="translate(-8.311 -7.108)" fill="url(#linear-gradient)"/>
    <path id="Path_62094" data-name="Path 62094" d="M159.655,137.8a4.678,4.678,0,0,1-4.669-4.664v-2.711a4.694,4.694,0,0,1,4.664-4.664h.006a4.687,4.687,0,0,1,4.661,4.662v2.711A4.688,4.688,0,0,1,159.655,137.8Zm0-10.318a2.966,2.966,0,0,0-2.944,2.947v2.7a2.957,2.957,0,0,0,2.947,2.945,2.961,2.961,0,0,0,2.94-2.948v-2.706A2.962,2.962,0,0,0,159.652,127.48Z" transform="translate(-18.624 -12.176)" fill="url(#linear-gradient)"/>
    <path id="Path_62095" data-name="Path 62095" d="M167.337,151.647H150.805v-3.5a8.232,8.232,0,0,1,.549-2.949,8.126,8.126,0,0,1,1.074-1.957,8.24,8.24,0,0,1,13.322.053,8.146,8.146,0,0,1,1.038,1.905,8.23,8.23,0,0,1,.548,2.945Zm-14.81-1.722h13.088v-1.777a6.516,6.516,0,0,0-.435-2.33,6.38,6.38,0,0,0-.82-1.507,6.525,6.525,0,0,0-10.548-.043,6.422,6.422,0,0,0-.851,1.547,6.537,6.537,0,0,0-.435,2.336Z" transform="translate(-18.042 -14.141)" fill="url(#linear-gradient)"/>
  </g>
</svg>
