<svg id="Layer_1" data-name="Layer 1" xmlns="http://www.w3.org/2000/svg" viewBox="0 0 1116.49 1092.58"><defs><style>.cls-1,.cls-13,.cls-3{fill:none;}.cls-1{stroke:#909090;stroke-width:5px;stroke-dasharray:5 10;}.cls-1,.cls-3{stroke-linecap:round;stroke-linejoin:round;}.cls-2{fill:#d7b56d;}.cls-13,.cls-3{stroke:#fff;stroke-width:2.5px;}.cls-4{fill:#fff;}.cls-10,.cls-11,.cls-5,.cls-6,.cls-8{isolation:isolate;}.cls-11,.cls-6,.cls-8{font-size:30.01px;font-family:OpenSans-Bold, Open Sans;font-weight:700;}.cls-6,.cls-7{fill:#bf6e4b;}.cls-8,.cls-9{fill:#25847b;}.cls-10{opacity:0;}.cls-11,.cls-12{fill:#ce809d;}.cls-13{stroke-miterlimit:2.61;}.cls-14{fill:#00b6ed;}</style></defs><g id="Brainwire"><path id="Path_9750" data-name="Path 9750" class="cls-1" d="M642.66,878.73c55.79,33.32,83.81,85.4,79.82,159.08,73-79.67,85.4-169.69,35.87-270.27"/><path id="Path_9751" data-name="Path 9751" class="cls-1" d="M530.68,727.51c15.24,96.27,58.63,135.16,112.74,152.17Q654,783.25,758.61,767.46"/><path id="Path_9752" data-name="Path 9752" class="cls-1" d="M391.39,637c27.46,66.3,72.86,98.43,139.29,90.55,31.07-36.73,66.58-59.4,112.74-48.34M530.68,727.51c-37.37-67-23.79-136.11-.65-205.63"/><path id="Path_9753" data-name="Path 9753" class="cls-1" d="M643.43,679.17c68.69-9.31,100.05,29.1,114.92,88.56,78.11,47.78,141,37.55,186.25-40.22M758.45,767.64c74.85-55,81.27-137.5,63.4-229.84"/><path id="Path_9754" data-name="Path 9754" class="cls-1" d="M238.22,547.6c9.5,62.23,51.89,97.38,153.17,87.95C471.86,629.26,508.67,582.1,530,520.47"/><path id="Path_9755" data-name="Path 9755" class="cls-1" d="M530,521.88c23.41,71.79,57.29,129.5,113.39,157.28,106.76-15.83,153.42-71.42,178.42-141.34"/><path id="Path_9756" data-name="Path 9756" class="cls-1" d="M1030.2,592.58c11.79,76.9-25.64,114.83-85.6,134.93C955,648.35,898.21,590.05,821.84,537.82"/><path id="Path_9757" data-name="Path 9757" class="cls-1" d="M137.57,461.41C134.76,537,175.37,556.69,238,548.07Q385.87,609.55,530,521.88m-166.67-88.3Q358.11,521.92,238,548.07"/><path id="Path_9758" data-name="Path 9758" class="cls-1" d="M1030.4,428.12c59.3,28.23,61.08,139.66-.2,164.65-99.78,11.14-160.94-15.24-208.38-55"/><path id="Path_9759" data-name="Path 9759" class="cls-1" d="M364,434.26c37.9,67.95,94.15,95.09,166,87.62C626,581.12,723.39,580.4,821.84,537.82M513.6,273.21c-36.74,91.33-41.13,176.2,16.43,248.67,69.85-2.5,94.45-42.24,113.39-93.76"/><path id="Path_9760" data-name="Path 9760" class="cls-1" d="M643.23,427.92c41.3,75.71,102.11,109.62,178.61,109.9C883.61,495,915,439,890,358.48M739.27,332.61c-1.25,80,24.74,149.06,82.57,205.21"/><path id="Path_9761" data-name="Path 9761" class="cls-1" d="M137.57,273.57c-63,50.17-71.55,134.08,0,187.84,48.47-29.84,129-35,226.47-27.15"/><path id="Path_9762" data-name="Path 9762" class="cls-1" d="M890,358.49c63.34-11.46,108.44,15.32,140.4,69.63,21.08-109.55-15.14-177.37-115.12-198.74"/><path id="Path_9763" data-name="Path 9763" class="cls-1" d="M310.55,307.85c-9.19,60,5.37,104.4,53.49,126.78,66.31,5.23,113.71-57.38,149.56-161.42"/><path id="Path_9764" data-name="Path 9764" class="cls-1" d="M513.62,273.22c7.13,75.44,38.65,134.8,130,154.7,51.83-8,81.43-42.51,95.65-95.32"/><path id="Path_9765" data-name="Path 9765" class="cls-1" d="M364,116c-134.39-7.87-196.45,58.32-226.47,157.33,48.3,106.47,120.72,166.3,226.85,160.89M310.55,307.84c-38.45-56.65-97.61-64.55-173-34.27"/><path id="Path_9766" data-name="Path 9766" class="cls-1" d="M915.27,229.38c22.82,57.19,18.53,102.1-25.28,129.11-50.25,36.69-100.49,21.66-150.74-25.88"/><path id="Path_9767" data-name="Path 9767" class="cls-1" d="M530.48,81.57C472.72,47.4,417.32,60.53,364,116c-55.73,58.83-75.47,122.51-53.49,191.81"/><path id="Path_9768" data-name="Path 9768" class="cls-1" d="M513.61,273.21c69.5,52.86,142.7,84.3,225.66,59.4,34.58-74.33,89.12-115.59,176-103.23m-192.6-91.15c36.65,62.52,41.22,127.38,16.59,194.37"/><path id="Path_9769" data-name="Path 9769" class="cls-1" d="M310.55,307.85c53.12-58.68,124.52-58.21,203.05-34.64,52.39-61.5,57.24-125.42,17.08-191.64M364,116c85.5,11.45,134.34,65,149.58,157.17"/><path id="Path_9770" data-name="Path 9770" class="cls-1" d="M530.48,81.57C612.3,40,675.64,61.77,723.08,138.24c92-19.1,158.45,7.13,192.2,91.15M513.61,273.2c118.74,6.37,186-41.19,209.07-135"/></g><g id="icons"><g id="Bell"><circle id="Ellipse_52" data-name="Ellipse 52" class="cls-2" cx="365.5" cy="107.2" r="52.34"/><path id="Path_1458" data-name="Path 1458" class="cls-3" d="M392.9,131.07c3,0,3.07-3.62,0-4.16a11.38,11.38,0,0,1-9.41-11.17V101.13a18,18,0,0,0-13.79-17.47,5.38,5.38,0,1,0-8.33,0,18,18,0,0,0-13.8,17.47v14.61a11.38,11.38,0,0,1-9.4,11.17c-3.1.54-3,4.16,0,4.16Zm-19,0a8.44,8.44,0,0,1-16.88,0"/></g><g id="Medal"><circle id="Ellipse_50" data-name="Ellipse 50" class="cls-2" cx="921.25" cy="221.47" r="58.88"/><path id="Path_1456" data-name="Path 1456" class="cls-3" d="M921.63,228.59a17.69,17.69,0,1,1-17.69,17.68h0A17.68,17.68,0,0,1,921.63,228.59Zm0,6.18a11.51,11.51,0,1,1-11.5,11.51h0A11.5,11.5,0,0,1,921.63,234.77ZM899.32,179l14.73,45.34h14.32L913.63,179M928,223.08h1.52a2.21,2.21,0,0,1,2.2,2.2v6.07m-20.1,0v-6.07a2.21,2.21,0,0,1,2.07-2.19m7.8-21.27L928.88,179m14.31,0-14.73,45.35"/></g><g id="Smart_Inventory" data-name="Smart Inventory"><path id="Rectangle_318" data-name="Rectangle 318" class="cls-4" d="M133.3,212.65h13.34a56.68,56.68,0,0,1,56.67,56.68h0A56.68,56.68,0,0,1,146.64,326H133.3a56.68,56.68,0,0,1-56.68-56.68h0A56.68,56.68,0,0,1,133.3,212.65Z"/><g id="Smart_Inventory-2" data-name="Smart Inventory-2" class="cls-5"><text class="cls-6" transform="translate(119.22 262.66)">Smart</text><text class="cls-6" transform="translate(63.51 299.34)">Inventory</text></g><circle id="Ellipse_44" data-name="Ellipse 44" class="cls-7" cx="137.17" cy="265.82" r="104.68"/><path id="Path_1450" data-name="Path 1450" class="cls-3" d="M65.51,218.85H80.4c5.46,0,11.72,4.7,12.95,10l14.18,61.78c1.32,5.75,6,8.8,11.89,8.8h60.06m-84-61.12h98.35L184.29,276c-1.2,4.7-4,8.82-10.66,8.82H106.18m64.31,40.32a9,9,0,1,0-9-9,9,9,0,0,0,9,9Zm-48.46,0a9,9,0,1,0-9-9,9,9,0,0,0,9,9h0Z"/></g><g id="Smart_Scheduling" data-name="Smart Scheduling"><path id="Rectangle_316" data-name="Rectangle 316" class="cls-4" d="M507.54,176h13.33a47.51,47.51,0,0,1,47.51,47.51h0A47.51,47.51,0,0,1,520.87,271H507.54A47.51,47.51,0,0,1,460,223.49h0A47.51,47.51,0,0,1,507.54,176Z"/><g id="Smart_Scheduling-2" data-name="Smart Scheduling-2" class="cls-5"><text class="cls-8" transform="translate(450.03 207.65)">Smart</text><text class="cls-8" transform="translate(450.03 244.33)">Scheduling</text></g><circle id="Ellipse_43" data-name="Ellipse 43" class="cls-9" cx="516.07" cy="265.88" r="104.68"/><path id="Path_1449" data-name="Path 1449" class="cls-3" d="M475,214.79h82.19a15.67,15.67,0,0,1,15.62,15.61v82.19a15.67,15.67,0,0,1-15.62,15.62H475a15.67,15.67,0,0,1-15.62-15.62V230.4A15.68,15.68,0,0,1,475,214.78ZM459.36,252H572.79M459.36,277.43H572.79M459.36,302.82H572.79M544.43,252v76.18M516.07,252v76.18M487.72,252v76.18m0-103.25a6.83,6.83,0,1,1-6.83,6.83A6.83,6.83,0,0,1,487.72,225Zm56.71,0a6.83,6.83,0,1,1-6.82,6.83h0A6.83,6.83,0,0,1,544.43,225Zm0,6.59v-28m-56.71,28v-28"/></g><g id="Smart_Marketing" data-name="Smart Marketing"><path id="Rectangle_317" data-name="Rectangle 317" class="cls-4" d="M818.43,462.7h30a55,55,0,0,1,55,55h0a55,55,0,0,1-55,55h-30a55,55,0,0,1-55-55h0A55,55,0,0,1,818.43,462.7Z"/><g id="Smart_Marketing-2" data-name="Smart Marketing-2" class="cls-10"><text class="cls-11" transform="translate(763.42 507.71)">Smart</text><text class="cls-11" transform="translate(763.42 544.39)">Marketing</text></g><circle id="Ellipse_42" data-name="Ellipse 42" class="cls-12" cx="827.06" cy="532.42" r="104.68"/><path id="Path_1448" data-name="Path 1448" class="cls-3" d="M879.38,510v76.57H853.22V520.64m-77.78,16.67,23.91-30.53a9.56,9.56,0,0,1,13.43-1.62,7,7,0,0,1,.71.62h0L828.21,520l27.89-32.08-9.58-9.58h32.86v32.86l-9.73-9.73-33.44,38.46c-.16.19-.32.38-.5.56a9.57,9.57,0,0,1-13.52.26l-14.34-13.81L775.43,568.3m51.62-25v43.25h26.16V520.65m-26.16,22.67v43.25H800.89V536.39m-26.16,33.5v16.68h26.16V536.4"/></g><g id="hierarchy"><circle id="Ellipse_51" data-name="Ellipse 51" class="cls-12" cx="727.48" cy="129.17" r="45.8"/><path id="Path_1457" data-name="Path 1457" class="cls-3" d="M743.33,148.11v-2.39a1.59,1.59,0,0,1,1.59-1.59h7.39a1.59,1.59,0,0,1,1.59,1.59v2.39m-5.29-4v-4m-26.43,8v-2.39a1.59,1.59,0,0,1,1.59-1.59h7.39a1.59,1.59,0,0,1,1.59,1.59v2.39m-5.28-4v-4m-26.42,8v-2.39a1.59,1.59,0,0,1,1.59-1.59H710a1.59,1.59,0,0,1,1.59,1.59v2.39m-5.28-4v-4m-7,8h3.4a1.59,1.59,0,0,1,1.59,1.59v1.53a1.6,1.6,0,0,1-1.59,1.6h-3.4a1.61,1.61,0,0,1-1.6-1.6V149.7A1.6,1.6,0,0,1,699.35,148.11Zm14,0h-3.4a1.59,1.59,0,0,0-1.59,1.59v1.53a1.6,1.6,0,0,0,1.59,1.6h3.4a1.61,1.61,0,0,0,1.6-1.6V149.7A1.6,1.6,0,0,0,713.32,148.11Zm21.15,0h-3.4a1.59,1.59,0,0,0-1.59,1.59v1.53a1.6,1.6,0,0,0,1.59,1.6h3.4a1.6,1.6,0,0,0,1.59-1.6V149.7A1.59,1.59,0,0,0,734.47,148.11Zm-14,0h3.4a1.59,1.59,0,0,1,1.59,1.59v1.53a1.6,1.6,0,0,1-1.59,1.6h-3.41a1.61,1.61,0,0,1-1.6-1.6V149.7a1.6,1.6,0,0,1,1.6-1.59Zm21.14,0H745a1.6,1.6,0,0,1,1.6,1.59v1.53a1.61,1.61,0,0,1-1.6,1.6h-3.4a1.6,1.6,0,0,1-1.59-1.6V149.7A1.59,1.59,0,0,1,741.64,148.11Zm14,0h-3.4a1.61,1.61,0,0,0-1.6,1.59v1.53a1.62,1.62,0,0,0,1.6,1.6h3.4a1.6,1.6,0,0,0,1.59-1.6V149.7A1.59,1.59,0,0,0,755.62,148.11Zm-56.27-8H713.3a1.6,1.6,0,0,0,1.59-1.6v-9.07a1.6,1.6,0,0,0-1.59-1.6H699.35a1.6,1.6,0,0,0-1.59,1.6v9.07A1.6,1.6,0,0,0,699.35,140.14Zm35.1,0h-14a1.61,1.61,0,0,1-1.6-1.6v-9.07a1.61,1.61,0,0,1,1.6-1.6h14a1.6,1.6,0,0,1,1.59,1.6v9.07a1.6,1.6,0,0,1-1.59,1.6Zm7.19,0h14a1.6,1.6,0,0,0,1.6-1.6v-9.07a1.62,1.62,0,0,0-1.6-1.6h-14a1.6,1.6,0,0,0-1.59,1.6v9.07A1.6,1.6,0,0,0,741.64,140.14ZM740.2,120H714.74a1.88,1.88,0,0,1-1.87-1.88V107.4a1.87,1.87,0,0,1,1.87-1.87H740.2a1.88,1.88,0,0,1,1.88,1.87v10.67A1.88,1.88,0,0,1,740.2,120Zm-33.87,7.92v-2.39a1.59,1.59,0,0,1,1.59-1.59H747a1.59,1.59,0,0,1,1.59,1.59v2.39m-21.15,0v-7.6"/></g><g id="graduate"><circle id="Ellipse_49" data-name="Ellipse 49" class="cls-7" cx="743.8" cy="325.55" r="65.43"/><path id="Path_1455" data-name="Path 1455" class="cls-3" d="M694.23,316.31l49.57-23.63,49.57,23.63L743.8,339.93Zm44.45-2.45a13.48,13.48,0,0,1,10.25,0c2.83,1.35,2.83,3.54,0,4.89a13.48,13.48,0,0,1-10.25,0C735.84,317.4,735.84,315.21,738.68,313.86Zm.79,5.22-19.71,9.39m.87.65,4.17,29.29h-8.33l4.17-29.29Zm54-3.45v15.52c0,9.28-19,15-31.21,15A56.84,56.84,0,0,1,724,352.45m-6.19-3.13c-3.36-2.24-5.54-5-5.54-8.13V325.67"/></g><g id="Tick"><circle id="Ellipse_46" data-name="Ellipse 46" class="cls-12" cx="365.5" cy="426.66" r="45.8"/><path id="Path_1452" data-name="Path 1452" class="cls-13" d="M386,410.25a3.34,3.34,0,1,1,4.72,4.72L365,440.71a11.49,11.49,0,0,1-16.19,0l-8.48-8.48a3.34,3.34,0,1,1,4.72-4.72h0L353.5,436a4.78,4.78,0,0,0,6.75,0Z"/></g><g id="Phone"><circle id="Ellipse_48" data-name="Ellipse 48" class="cls-9" cx="1036.05" cy="421.21" r="45.8"/><path id="Path_1454" data-name="Path 1454" class="cls-3" d="M1022.83,390.94h26.45a2.73,2.73,0,0,1,2.72,2.72v55.09a2.74,2.74,0,0,1-2.72,2.73h-26.45a2.75,2.75,0,0,1-2.73-2.73V393.66A2.74,2.74,0,0,1,1022.83,390.94Zm3.48,4.39h19.49a2,2,0,0,1,2,2v40.57a2,2,0,0,1-2,2h-19.49a2,2,0,0,1-2-2V397.34a2,2,0,0,1,2-2Zm9.74,48.25a2.12,2.12,0,1,1-2.11,2.12h0a2.12,2.12,0,0,1,2.11-2.13h0Z"/></g><g id="Globe"><circle id="Ellipse_45" data-name="Ellipse 45" class="cls-2" cx="532.84" cy="516.36" r="85.05"/><path id="Path_1451" data-name="Path 1451" class="cls-3" d="M537.21,467.1a40.47,40.47,0,1,1-40.47,40.47h0A40.47,40.47,0,0,1,537.21,467.1Zm-13.66-10.51,3.18,11.88m21,78.21,3.18,11.88m15.54,17.59a49.21,49.21,0,0,0-58.4,0m29.2-9.6v-9.62m19.93-4.34A49.22,49.22,0,1,1,532,458.65"/></g><g id="Chair"><circle id="Ellipse_47" data-name="Ellipse 47" class="cls-9" cx="239.47" cy="542.77" r="65.43"/><path id="Path_1453" data-name="Path 1453" class="cls-3" d="M222.12,541.82h34.69a3.05,3.05,0,0,0,3.05-3V501.17a7,7,0,0,0-7-7H226.08a7,7,0,0,0-7,7v37.61a3,3,0,0,0,3,3Zm1.82,15.34H255a4.89,4.89,0,0,0,4.87-4.87h0a4.89,4.89,0,0,0-4.87-4.86H223.94a4.87,4.87,0,0,0-4.86,4.86h0A4.87,4.87,0,0,0,223.94,557.16ZM212.1,532.35v14.22a5.73,5.73,0,0,0,5.72,5.72h1.26m40.78,0h1.25a5.72,5.72,0,0,0,5.72-5.72V532.35m-52.63-4.83h-7.06m57.59,0h7.06M210.12,579c19.55-11.21,39.1-11.3,58.64,0m-29.32,0V562.56m-28.71,28.81a3.59,3.59,0,1,0-3.59-3.59h0A3.59,3.59,0,0,0,210.73,591.37Zm28.71,0a3.59,3.59,0,1,0-3.59-3.59,3.59,3.59,0,0,0,3.59,3.59Zm25.73,0a3.59,3.59,0,1,0-3.59-3.6h0a3.59,3.59,0,0,0,3.59,3.59Z"/></g><g id="Sandclock"><circle id="Ellipse_41" data-name="Ellipse 41" class="cls-2" cx="950.82" cy="723.68" r="52.34"/><path id="Path_1447" data-name="Path 1447" class="cls-3" d="M933.86,695.31c0,14.93,8.1,28.37,16.95,28.37s17-13.44,17-28.37Zm0,56.75c0-14.93,8.1-28.37,16.95-28.37s17,13.44,17,28.37Zm-3.2-61.49H971M930.66,756.8H971m-35.74-14.1c6.28,0,12.78-2.09,15.59-6.51,2.8,4.42,9.31,6.51,15.58,6.51m-25.76-25.42H961"/></g><g id="Gift"><circle id="Ellipse_40" data-name="Ellipse 40" class="cls-9" cx="533.5" cy="723.68" r="52.34"/><path id="Path_1446" data-name="Path 1446" class="cls-3" d="M529.92,703.13h8.14a2.3,2.3,0,0,1,2.29,2.29v48.7a2.3,2.3,0,0,1-2.29,2.3h-8.14a2.31,2.31,0,0,1-2.3-2.3v-48.7A2.3,2.3,0,0,1,529.92,703.13Zm10.43,18.58h21.76V748a6.64,6.64,0,0,1-6.61,6.61H540.29m-12.61,0H511.51A6.65,6.65,0,0,1,504.9,748V721.71h22.73m0-16.58h-17.1a6.64,6.64,0,0,0-6.61,6.61v10h23.69m12.73,0h22.72v-10a6.62,6.62,0,0,0-6.61-6.61H540.33m-10.36-2h8a1.8,1.8,0,0,0,1.69-1.91v0c0-6.18-11.4-6.18-11.4,0,0,1.32.76,1.94,1.69,1.94Zm9.48-1h9.74a5.64,5.64,0,0,0,5.62-5.62h0a5.64,5.64,0,0,0-5.62-5.62A16.09,16.09,0,0,0,536.56,697m-8.09,5.17h-9.7a5.64,5.64,0,0,1-5.62-5.62h0a5.64,5.64,0,0,1,5.62-5.62A16.08,16.08,0,0,1,531.4,697"/></g><g id="Credit_Card" data-name="Credit Card"><circle id="Ellipse_53" data-name="Ellipse 53" class="cls-7" cx="764.31" cy="763.96" r="65.43"/><path id="Path_1459" data-name="Path 1459" class="cls-3" d="M729.06,735.83h70.49a6.12,6.12,0,0,1,6.1,6.09V786a6.12,6.12,0,0,1-6.1,6.09H729.06A6.11,6.11,0,0,1,723,786V741.92A6.11,6.11,0,0,1,729.06,735.83ZM723,749.5h82.68v13H723Zm13.9,20.92h5.79a6.54,6.54,0,0,1,6.52,6.52h0a6.54,6.54,0,0,1-6.52,6.52h-5.79a6.53,6.53,0,0,1-6.52-6.52h0a6.55,6.55,0,0,1,6.52-6.53Z"/></g><g id="Calculator"><circle id="Ellipse_38" data-name="Ellipse 38" class="cls-12" cx="646.6" cy="876.54" r="45.8"/><path id="Path_1444" data-name="Path 1444" class="cls-3" d="M631.22,843.83H662a3.18,3.18,0,0,1,3.17,3.16v59.09a3.19,3.19,0,0,1-3.17,3.17H631.22a3.18,3.18,0,0,1-3.17-3.17V847a3.18,3.18,0,0,1,3.17-3.16Zm2.68,6.69h25.41v12.07H633.9V850.52Zm.28,18.29h5.51v5.52h-5.51Zm15.18,0h-5.52v5.52h5.52Zm4.14,0H659v5.52H653.5ZM634.17,884h5.52v-5.51h-5.52Zm15.19,0h-5.53v-5.51h5.53Zm4.14,0H659v-5.51H653.5Zm-19.33,4.15h5.52v5.52h-5.52Zm15.18,0h-5.52v5.52h5.52Zm4.15,0H659v5.52H653.5Zm-19.33,15.18h5.52V897.8h-5.52Zm15.18,0h-5.52V897.8h5.52Zm4.14,0H659V897.8h-5.52Z"/></g></g><g id="filler"><circle id="filler_01" data-name="filler 01" class="cls-14" cx="726.49" cy="1036.13" r="20.79"/><circle id="filler_02" data-name="filler 02" class="cls-14" cx="648.45" cy="674.55" r="20.79"/><circle id="filler_03" data-name="filler 03" class="cls-14" cx="392.68" cy="632" r="20.79"/><circle id="filler_04" data-name="filler 04" class="cls-14" cx="1036.38" cy="587.8" r="20.79"/><circle id="filler_05" data-name="filler 05" class="cls-14" cx="137.87" cy="455.4" r="20.79"/><circle id="filler_06" data-name="filler 06" class="cls-14" cx="648.64" cy="421.65" r="20.79"/><circle id="filler_07" data-name="filler 07" class="cls-14" cx="895.38" cy="352.89" r="20.79"/><circle id="filler_08" data-name="filler 08" class="cls-14" cx="311.75" cy="296.58" r="20.79"/><circle id="filler_09" data-name="filler 09" class="cls-14" cx="533.79" cy="71.9" r="20.79"/></g></svg>