<svg xmlns="http://www.w3.org/2000/svg" xmlns:xlink="http://www.w3.org/1999/xlink" width="122" height="132.6" viewBox="0 0 122 132.6"><defs><linearGradient id="a" x1="0.022" y1="1.046" x2="0.94" y2="-0.002" gradientUnits="objectBoundingBox"><stop offset="0" stop-color="#9b4a69"/><stop offset="1" stop-color="#f388b0"/></linearGradient><linearGradient id="b" x1="-0.119" y1="22.044" x2="0.798" y2="-9.886" xlink:href="#a"/><linearGradient id="c" x1="-6.121" y1="4.939" x2="1.131" y2="0.077" xlink:href="#a"/><linearGradient id="d" x1="-4.191" y1="3.645" x2="3.061" y2="-1.217" xlink:href="#a"/><linearGradient id="e" x1="-4.834" y1="4.076" x2="2.418" y2="-0.786" xlink:href="#a"/><linearGradient id="f" x1="-5.477" y1="4.507" x2="1.775" y2="-0.354" xlink:href="#a"/><linearGradient id="g" x1="-1.908" y1="3.189" x2="5.343" y2="-4.907" xlink:href="#a"/><linearGradient id="h" x1="-3.308" y1="4.751" x2="3.944" y2="-3.344" xlink:href="#a"/><linearGradient id="i" x1="-1.795" y1="3.063" x2="5.456" y2="-5.033" xlink:href="#a"/><linearGradient id="j" x1="-3.195" y1="4.625" x2="4.057" y2="-3.471" xlink:href="#a"/><linearGradient id="k" x1="-2.439" y1="3.781" x2="4.813" y2="-4.315" xlink:href="#a"/><linearGradient id="l" x1="-4.594" y1="6.187" x2="2.657" y2="-1.908" xlink:href="#a"/><linearGradient id="m" x1="-3.491" y1="3.902" x2="4.64" y2="-3.029" xlink:href="#a"/><linearGradient id="n" x1="-1.449" y1="2.161" x2="6.683" y2="-4.771" xlink:href="#a"/><linearGradient id="o" x1="-3.599" y1="3.995" x2="4.532" y2="-2.938" xlink:href="#a"/><linearGradient id="p" x1="-5.748" y1="5.826" x2="2.382" y2="-1.105" xlink:href="#a"/><linearGradient id="q" x1="-5.856" y1="5.92" x2="2.274" y2="-1.013" xlink:href="#a"/><linearGradient id="r" x1="-4.835" y1="5.049" x2="3.296" y2="-1.884" xlink:href="#a"/></defs><g transform="translate(-40.526 -32.7)"><path d="M160.526,56.04v96.65a10.61,10.61,0,0,1-10.61,10.61H53.126a10.608,10.608,0,0,1-10.6-10.61V56.04a10.605,10.605,0,0,1,10.6-10.6h8.4v5.82a5.642,5.642,0,0,0,1.68,4.03,5.706,5.706,0,0,0,9.75-4.03V45.44h11.43v5.82a5.642,5.642,0,0,0,1.68,4.03,5.706,5.706,0,0,0,9.75-4.03V45.44h11.42v5.82a5.725,5.725,0,0,0,1.68,4.03,5.706,5.706,0,0,0,9.75-4.03V45.44H130.1v5.82a5.715,5.715,0,0,0,11.43,0V45.44h8.39A10.608,10.608,0,0,1,160.526,56.04Z" fill="#ffe1ed"/><path d="M149.916,165.3H53.126a12.619,12.619,0,0,1-12.6-12.611V56.04a12.615,12.615,0,0,1,12.6-12.6h8.4a2,2,0,0,1,2,2V51.26a3.646,3.646,0,0,0,1.087,2.609,3.707,3.707,0,0,0,6.343-2.615V45.439a2,2,0,0,1,2-2h11.43a2,2,0,0,1,2,2V51.26a3.646,3.646,0,0,0,1.087,2.609,3.707,3.707,0,0,0,6.343-2.615V45.439a2,2,0,0,1,2-2h11.42a2,2,0,0,1,2,2V51.26a3.719,3.719,0,0,0,1.1,2.617,3.707,3.707,0,0,0,6.335-2.623V45.439a2,2,0,0,1,2-2H130.1a2,2,0,0,1,2,2V51.26a3.715,3.715,0,0,0,7.43-.006V45.439a2,2,0,0,1,2-2h8.39a12.62,12.62,0,0,1,12.61,12.6v96.649A12.625,12.625,0,0,1,149.916,165.3ZM53.126,47.439a8.61,8.61,0,0,0-8.6,8.6v96.649a8.614,8.614,0,0,0,8.6,8.611h96.79a8.619,8.619,0,0,0,8.61-8.611V56.04a8.615,8.615,0,0,0-8.61-8.6h-6.39V51.26a7.715,7.715,0,0,1-15.43.012V47.439h-7.43V51.26a7.715,7.715,0,0,1-15.43.012V47.439h-7.42V51.26A7.706,7.706,0,0,1,84.652,56.7a7.611,7.611,0,0,1-2.266-5.444V47.439h-7.43V51.26A7.706,7.706,0,0,1,61.792,56.7a7.611,7.611,0,0,1-2.266-5.444V47.439Z" fill="url(#a)"/><path d="M160.522,71.577h-118a2,2,0,0,1,0-4h118a2,2,0,0,1,0,4Z" fill="url(#b)"/><path d="M135.812,58.97a7.737,7.737,0,0,1-7.716-7.7V40.42a7.715,7.715,0,1,1,15.43-.006V51.26A7.753,7.753,0,0,1,135.812,58.97ZM135.8,36.7a3.739,3.739,0,0,0-3.7,3.726V51.26a3.715,3.715,0,0,0,7.43-.006V40.424A3.747,3.747,0,0,0,135.8,36.7Z" fill="url(#c)"/><path d="M67.242,58.97a7.714,7.714,0,0,1-5.45-2.266,7.611,7.611,0,0,1-2.266-5.444V40.42a7.715,7.715,0,1,1,15.43-.006V51.26A7.753,7.753,0,0,1,67.242,58.97ZM67.23,36.7a3.739,3.739,0,0,0-3.7,3.726V51.26a3.646,3.646,0,0,0,1.087,2.609,3.707,3.707,0,0,0,6.343-2.615V40.424A3.747,3.747,0,0,0,67.23,36.7Z" fill="url(#d)"/><path d="M90.1,58.97a7.714,7.714,0,0,1-5.45-2.266,7.611,7.611,0,0,1-2.266-5.444V40.42a7.715,7.715,0,1,1,15.43-.006V51.26A7.753,7.753,0,0,1,90.1,58.97ZM90.09,36.7a3.739,3.739,0,0,0-3.7,3.726V51.26a3.646,3.646,0,0,0,1.087,2.609,3.707,3.707,0,0,0,6.343-2.615V40.424A3.747,3.747,0,0,0,90.09,36.7Z" fill="url(#e)"/><path d="M112.962,58.97a7.735,7.735,0,0,1-7.726-7.7V40.42a7.715,7.715,0,1,1,15.43-.006V51.26A7.748,7.748,0,0,1,112.962,58.97ZM112.95,36.7a3.744,3.744,0,0,0-3.714,3.726V51.26a3.719,3.719,0,0,0,1.1,2.617,3.707,3.707,0,0,0,6.335-2.623V40.424A3.742,3.742,0,0,0,112.95,36.7Z" fill="url(#f)"/><rect width="102.888" height="79.75" rx="2.651" transform="translate(50.08 76.393)" fill="#fff"/><path d="M67.239,87.453h0a5.73,5.73,0,0,1,5.715,5.715v.347a5.731,5.731,0,0,1-5.715,5.716h0a5.731,5.731,0,0,1-5.715-5.716v-.342A5.729,5.729,0,0,1,67.239,87.453Z" fill="none" stroke="#707070" stroke-linecap="round" stroke-linejoin="round" stroke-width="4" fill-rule="evenodd"/><path d="M67.244,124.769a7.748,7.748,0,0,1-7.72-7.708v-.347a7.747,7.747,0,0,1,7.709-7.721h.012a7.749,7.749,0,0,1,7.71,7.709v.354A7.748,7.748,0,0,1,67.244,124.769Zm-.005-11.776a3.738,3.738,0,0,0-3.715,3.724v.339a3.716,3.716,0,1,0,7.431-.006v-.342A3.739,3.739,0,0,0,67.239,112.993Z" fill="url(#g)"/><path d="M67.239,134.536h0a5.728,5.728,0,0,1,5.715,5.712v.348a5.73,5.73,0,0,1-5.715,5.715h0a5.73,5.73,0,0,1-5.715-5.715v-.342A5.727,5.727,0,0,1,67.239,134.536Z" fill="none" stroke="#707070" stroke-linecap="round" stroke-linejoin="round" stroke-width="4" fill-rule="evenodd"/><path d="M90.1,101.23a7.751,7.751,0,0,1-7.722-7.709v-.348a7.749,7.749,0,0,1,7.71-7.721H90.1a7.749,7.749,0,0,1,7.709,7.71v.354A7.748,7.748,0,0,1,90.1,101.23ZM90.1,89.452a3.74,3.74,0,0,0-3.716,3.725v.339a3.716,3.716,0,1,0,7.431-.006v-.342A3.739,3.739,0,0,0,90.1,89.452Z" fill="url(#h)"/><path d="M90.1,110.993h0a5.732,5.732,0,0,1,5.716,5.715v.347a5.729,5.729,0,0,1-5.716,5.713h0a5.728,5.728,0,0,1-5.715-5.713v-.342A5.731,5.731,0,0,1,90.1,110.993Z" fill="none" stroke="#707070" stroke-linecap="round" stroke-linejoin="round" stroke-width="4" fill-rule="evenodd"/><path d="M90.1,148.311a7.75,7.75,0,0,1-7.721-7.709v-.348a7.747,7.747,0,0,1,7.711-7.719h.01a7.747,7.747,0,0,1,7.71,7.707v.354A7.749,7.749,0,0,1,90.1,148.311Zm0-11.776a3.738,3.738,0,0,0-3.716,3.723v.338a3.716,3.716,0,1,0,7.431-.006v-.342A3.737,3.737,0,0,0,90.1,136.535Z" fill="url(#i)"/><path d="M112.951,87.453h0a5.731,5.731,0,0,1,5.716,5.715v.347a5.729,5.729,0,0,1-5.716,5.716h0a5.732,5.732,0,0,1-5.715-5.716v-.342A5.73,5.73,0,0,1,112.951,87.453Z" fill="none" stroke="#707070" stroke-linecap="round" stroke-linejoin="round" stroke-width="4" fill-rule="evenodd"/><path d="M112.957,124.769a7.749,7.749,0,0,1-7.721-7.707v-.348a7.749,7.749,0,0,1,7.71-7.721h.012a7.748,7.748,0,0,1,7.709,7.709v.354A7.748,7.748,0,0,1,112.957,124.769Zm0-11.776a3.74,3.74,0,0,0-3.716,3.725v.338a3.716,3.716,0,1,0,7.431-.006v-.342A3.739,3.739,0,0,0,112.952,112.993Z" fill="url(#j)"/><path d="M112.957,148.311a7.75,7.75,0,0,1-7.721-7.709v-.348a7.747,7.747,0,0,1,7.711-7.719h.01a7.747,7.747,0,0,1,7.71,7.707v.354A7.749,7.749,0,0,1,112.957,148.311Zm0-11.776a3.738,3.738,0,0,0-3.716,3.723v.338a3.716,3.716,0,1,0,7.431-.006v-.342A3.737,3.737,0,0,0,112.952,136.535Z" fill="url(#k)"/><path d="M135.816,101.23a7.75,7.75,0,0,1-7.721-7.709v-.348a7.748,7.748,0,0,1,7.709-7.721h.012a7.75,7.75,0,0,1,7.71,7.71v.354A7.749,7.749,0,0,1,135.816,101.23Zm-.006-11.778a3.74,3.74,0,0,0-3.715,3.725v.339a3.716,3.716,0,1,0,7.431-.006v-.342A3.74,3.74,0,0,0,135.81,89.452Z" fill="url(#l)"/><path d="M135.81,110.993h0a5.732,5.732,0,0,1,5.716,5.715v.347a5.729,5.729,0,0,1-5.716,5.713h0a5.728,5.728,0,0,1-5.715-5.713v-.342A5.731,5.731,0,0,1,135.81,110.993Z" fill="none" stroke="#707070" stroke-linecap="round" stroke-linejoin="round" stroke-width="4" fill-rule="evenodd"/><path d="M135.81,134.536h0a5.728,5.728,0,0,1,5.716,5.712v.348a5.732,5.732,0,0,1-5.716,5.715h0A5.731,5.731,0,0,1,130.1,140.6v-.342A5.728,5.728,0,0,1,135.81,134.536Z" fill="none" stroke="#707070" stroke-linecap="round" stroke-linejoin="round" stroke-width="4" fill-rule="evenodd"/><path d="M67.239,87.453h0a5.73,5.73,0,0,1,5.715,5.715v.347a5.731,5.731,0,0,1-5.715,5.716h0a5.731,5.731,0,0,1-5.715-5.716v-.342A5.729,5.729,0,0,1,67.239,87.453Z" fill-rule="evenodd" fill="url(#m)"/><path d="M67.239,134.536h0a5.728,5.728,0,0,1,5.715,5.712v.348a5.73,5.73,0,0,1-5.715,5.715h0a5.73,5.73,0,0,1-5.715-5.715v-.342A5.727,5.727,0,0,1,67.239,134.536Z" fill-rule="evenodd" fill="url(#n)"/><path d="M90.1,110.993h0a5.732,5.732,0,0,1,5.716,5.715v.347a5.729,5.729,0,0,1-5.716,5.713h0a5.728,5.728,0,0,1-5.715-5.713v-.342A5.731,5.731,0,0,1,90.1,110.993Z" fill-rule="evenodd" fill="url(#o)"/><path d="M112.951,87.453h0a5.731,5.731,0,0,1,5.716,5.715v.347a5.729,5.729,0,0,1-5.716,5.716h0a5.732,5.732,0,0,1-5.715-5.716v-.342A5.73,5.73,0,0,1,112.951,87.453Z" fill-rule="evenodd" fill="url(#p)"/><path d="M135.81,110.993h0a5.732,5.732,0,0,1,5.716,5.715v.347a5.729,5.729,0,0,1-5.716,5.713h0a5.728,5.728,0,0,1-5.715-5.713v-.342A5.731,5.731,0,0,1,135.81,110.993Z" fill-rule="evenodd" fill="url(#q)"/><path d="M135.81,134.536h0a5.728,5.728,0,0,1,5.716,5.712v.348a5.732,5.732,0,0,1-5.716,5.715h0A5.731,5.731,0,0,1,130.1,140.6v-.342A5.728,5.728,0,0,1,135.81,134.536Z" fill-rule="evenodd" fill="url(#r)"/></g></svg>