<svg xmlns="http://www.w3.org/2000/svg" xmlns:xlink="http://www.w3.org/1999/xlink" width="77.643" height="127.985" viewBox="0 0 77.643 127.985"><defs><linearGradient id="a" x1="1.027" y1="-0.035" x2="-0.41" y2="1.425" gradientUnits="objectBoundingBox"><stop offset="0" stop-color="#34a096"/><stop offset="1" stop-color="#14645d"/></linearGradient><linearGradient id="b" x1="2.165" y1="-4.129" x2="-1.08" y2="4.634" xlink:href="#a"/><linearGradient id="c" x1="0.742" y1="-1.008" x2="-0.695" y2="9.176" xlink:href="#a"/><linearGradient id="d" x1="1.463" y1="-0.534" x2="-0.056" y2="1.075" xlink:href="#a"/><linearGradient id="e" x1="0" y1="0.5" x2="1" y2="0.5" xlink:href="#a"/><linearGradient id="f" x1="2.257" y1="-2.681" x2="0.235" y2="0.98" xlink:href="#a"/><linearGradient id="g" x1="1.734" y1="-2.647" x2="-1.208" y2="5.522" xlink:href="#a"/><linearGradient id="i" x1="3.505" y1="-1.903" x2="-1.41" y2="1.883" xlink:href="#a"/><linearGradient id="j" x1="2.407" y1="-1.301" x2="-1.486" y2="2.377" xlink:href="#a"/><linearGradient id="k" x1="1.833" y1="-0.759" x2="-2.059" y2="2.919" xlink:href="#a"/><linearGradient id="l" x1="1.369" y1="-0.25" x2="-3.034" y2="3.536" xlink:href="#a"/></defs><g transform="translate(-46.142 -31.49)"><g transform="translate(70.666 31.49)"><path d="M121.295,118.216H104.9l.356-1.979a28.272,28.272,0,0,0,.436-4.991V84.557A3.778,3.778,0,0,0,98.4,83.151l-7.981,19.907a3.76,3.76,0,0,1-2.721,2.29l-7.854,1.641a3.769,3.769,0,0,1-4.54-3.689V38.62a7.138,7.138,0,0,1,7.13-7.13h38.856a7.139,7.139,0,0,1,7.131,7.13v72.474A7.135,7.135,0,0,1,121.295,118.216Zm-12.444-3.363h12.444a3.767,3.767,0,0,0,3.768-3.759V38.62a3.772,3.772,0,0,0-3.768-3.767H82.438a3.771,3.771,0,0,0-3.767,3.767V103.3a.394.394,0,0,0,.149.314.41.41,0,0,0,.343.082l7.85-1.639a.4.4,0,0,0,.288-.251l7.98-19.9a7.142,7.142,0,0,1,13.77,2.653v26.689A32.235,32.235,0,0,1,108.851,114.853Z" transform="translate(-75.308 -31.49)" fill="url(#a)"/></g><g transform="translate(100.255 103.761)"><path d="M126.894,131.894H110.5l.356-1.979a28.272,28.272,0,0,0,.436-4.991v-7.484h22.738v7.333A7.135,7.135,0,0,1,126.894,131.894Zm-12.444-3.363h12.444a3.767,3.767,0,0,0,3.768-3.759V120.8H114.652v4.121A32.235,32.235,0,0,1,114.451,128.531Z" transform="translate(-110.496 -117.439)" fill="url(#b)"/></g><g transform="translate(70.67 31.827)"><path d="M128.426,44.33H75.312V39.018a7.135,7.135,0,0,1,7.127-7.127H121.3a7.136,7.136,0,0,1,7.128,7.127Zm-49.75-3.363h46.387V39.018a3.768,3.768,0,0,0-3.765-3.764H82.439a3.767,3.767,0,0,0-3.764,3.764Z" transform="translate(-75.312 -31.891)" fill="url(#c)"/></g><g transform="translate(54.155 71.914)"><path d="M83.135,158.309,55.672,135.153l3.113-5.85-.542-19.67a20.064,20.064,0,0,1,4.039-12.588L75.547,79.565v31.386a.394.394,0,0,0,.149.314.41.41,0,0,0,.343.082l7.85-1.639a.4.4,0,0,0,.288-.251l7.98-19.9a7.142,7.142,0,0,1,13.77,2.653V118.9a31.691,31.691,0,0,1-.489,5.586,32.572,32.572,0,0,1-7.2,15.41ZM59.917,134.333,82.7,153.539l12.958-15.8a29.242,29.242,0,0,0,6.47-13.844,28.3,28.3,0,0,0,.438-5V92.207A3.778,3.778,0,0,0,95.28,90.8L87.3,110.71A3.76,3.76,0,0,1,84.577,113l-7.854,1.641a3.769,3.769,0,0,1-4.54-3.689V89.562l-7.22,9.515a16.679,16.679,0,0,0-3.358,10.466l.566,20.555Z" transform="translate(-55.672 -79.565)" fill="url(#d)"/></g><path d="M74.07,175.249l-25.121-21.18a2.279,2.279,0,0,1-.273-3.211l4.71-5.5a2.279,2.279,0,0,1,3.211-.273l25.121,21.181a2.278,2.278,0,0,1,.273,3.211l-4.71,5.5A2.277,2.277,0,0,1,74.07,175.249Z" transform="translate(-0.318 -17.992)" opacity="0.26" fill="url(#e)"/><g transform="translate(46.142 124.874)"><path d="M75.215,177.149a3.932,3.932,0,0,1-2.547-.933L47.546,155.035a3.966,3.966,0,0,1-.474-5.58l4.717-5.509a3.961,3.961,0,0,1,5.573-.464l25.121,21.18a3.959,3.959,0,0,1,.475,5.581l-4.719,5.508a3.92,3.92,0,0,1-2.682,1.384C75.442,177.144,75.328,177.149,75.215,177.149Zm-.378-3.5a.608.608,0,0,0,.436.139.587.587,0,0,0,.4-.209l4.72-5.509a.6.6,0,0,0-.081-.832l-25.121-21.18a.606.606,0,0,0-.435-.139.594.594,0,0,0-.407.21l-4.716,5.508a.594.594,0,0,0,.08.832Z" transform="translate(-46.142 -142.548)" fill="url(#f)"/></g><g transform="translate(84.266 71.901)"><path d="M117.218,95.054l-3.308-.609a9.917,9.917,0,0,0,.163-1.786,9.749,9.749,0,0,0-19.3-1.966l-3.294-.675a13.113,13.113,0,0,1,25.737,5.036Z" transform="translate(-91.481 -79.549)" fill="url(#g)"/></g><rect width="40.052" height="14.018" rx="6.977" transform="translate(77.2 51.074)" opacity="0.26" fill="url(#e)"/><g transform="translate(84.006 54.598)"><path d="M91.172,59.1h2.309a3.931,3.931,0,0,1,2,.4,1.359,1.359,0,0,1,.655,1.248,1.583,1.583,0,0,1-.285.951,1.279,1.279,0,0,1-.752.507v.045a1.541,1.541,0,0,1,.892.543,1.647,1.647,0,0,1,.276.987,1.694,1.694,0,0,1-.677,1.42,2.964,2.964,0,0,1-1.845.518H91.172Zm1.789,2.54h.54a.978.978,0,0,0,.6-.158.553.553,0,0,0,.21-.472q0-.556-.843-.557h-.5Zm0,1.308v1.39h.63q.837,0,.837-.706a.607.607,0,0,0-.224-.507,1.034,1.034,0,0,0-.65-.177Z" transform="translate(-91.172 -58.992)" fill="url(#i)"/><path d="M104.752,62.377a3.573,3.573,0,0,1-.819,2.541,3.727,3.727,0,0,1-4.79-.005,4.29,4.29,0,0,1,0-5.069,3.746,3.746,0,0,1,4.8-.007A3.569,3.569,0,0,1,104.752,62.377Zm-4.556,0q0,1.921,1.336,1.921a1.148,1.148,0,0,0,1.007-.467,3.38,3.38,0,0,0-.005-2.919,1.133,1.133,0,0,0-.993-.473Q100.2,60.439,100.2,62.377Z" transform="translate(-92.308 -58.972)" fill="url(#j)"/><path d="M113.54,62.377a3.573,3.573,0,0,1-.819,2.541,3.727,3.727,0,0,1-4.79-.005,4.29,4.29,0,0,1,0-5.069,3.747,3.747,0,0,1,4.8-.007A3.572,3.572,0,0,1,113.54,62.377Zm-4.556,0q0,1.921,1.336,1.921a1.148,1.148,0,0,0,1.007-.467,3.384,3.384,0,0,0,0-2.919,1.136,1.136,0,0,0-.994-.473Q108.985,60.439,108.985,62.377Z" transform="translate(-93.707 -58.972)" fill="url(#k)"/><path d="M121.836,65.716h-2.02l-1.308-2.531-.531.317v2.214h-1.8V59.1h1.8v2.876a7.8,7.8,0,0,1,.548-.847l1.39-2.029h1.957l-2.088,2.966Z" transform="translate(-95.152 -58.992)" fill="url(#l)"/></g></g></svg>