<svg xmlns="http://www.w3.org/2000/svg" xmlns:xlink="http://www.w3.org/1999/xlink" width="86.2" height="141.72" viewBox="0 0 86.2 141.72"><defs><clipPath id="a"><path d="M103.33,160a3.33,3.33,0,1,1-.972-2.361A3.33,3.33,0,0,1,103.33,160Z" fill="none"/></clipPath><linearGradient id="b" x1="1.027" y1="-0.155" x2="-0.24" y2="1.432" gradientUnits="objectBoundingBox"><stop offset="0" stop-color="#d8805a"/><stop offset="1" stop-color="#7b4129"/></linearGradient><linearGradient id="c" x1="1.334" y1="-4.734" x2="0.067" y2="3.039" xlink:href="#b"/><linearGradient id="d" x1="0.728" y1="-1.015" x2="-0.538" y2="8.142" xlink:href="#b"/><linearGradient id="e" x1="1.938" y1="-1.792" x2="-3.335" y2="6.605" xlink:href="#b"/><linearGradient id="f" x1="0" y1="0.499" x2="1" y2="0.499" xlink:href="#b"/><linearGradient id="h" x1="0" y1="0.5" x2="1" y2="0.5" xlink:href="#b"/></defs><g transform="translate(-56.9 -29.14)"><g clip-path="url(#a)"><rect width="0.07" height="6.66" transform="translate(96.67 156.61)" fill="#d8805a"/><rect width="0.07" height="6.66" transform="translate(96.74 156.61)" fill="#d77f59"/><rect width="0.07" height="6.66" transform="translate(96.81 156.61)" fill="#d67f59"/><rect width="0.07" height="6.66" transform="translate(96.89 156.61)" fill="#d57e58"/><rect width="0.07" height="6.66" transform="translate(96.96 156.61)" fill="#d47d58"/><rect width="0.07" height="6.66" transform="translate(97.03 156.61)" fill="#d37d57"/><rect width="0.07" height="6.66" transform="translate(97.1 156.61)" fill="#d27c57"/><rect width="0.07" height="6.66" transform="translate(97.17 156.61)" fill="#d17b56"/><rect width="0.07" height="6.66" transform="translate(97.24 156.61)" fill="#d07b56"/><rect width="0.07" height="6.66" transform="translate(97.32 156.61)" fill="#cf7a55"/><rect width="0.07" height="6.66" transform="translate(97.39 156.61)" fill="#ce7955"/><rect width="0.07" height="6.66" transform="translate(97.46 156.61)" fill="#cd7854"/><rect width="0.07" height="6.66" transform="translate(97.53 156.61)" fill="#cc7854"/><rect width="0.07" height="6.66" transform="translate(97.6 156.61)" fill="#cb7753"/><rect width="0.07" height="6.66" transform="translate(97.67 156.61)" fill="#ca7653"/><rect width="0.07" height="6.66" transform="translate(97.75 156.61)" fill="#c97652"/><rect width="0.07" height="6.66" transform="translate(97.82 156.61)" fill="#c87551"/><rect width="0.07" height="6.66" transform="translate(97.89 156.61)" fill="#c77451"/><rect width="0.07" height="6.66" transform="translate(97.96 156.61)" fill="#c67450"/><rect width="0.07" height="6.66" transform="translate(98.03 156.61)" fill="#c57350"/><rect width="0.07" height="6.66" transform="translate(98.1 156.61)" fill="#c4724f"/><rect width="0.07" height="6.66" transform="translate(98.18 156.61)" fill="#c3724f"/><rect width="0.07" height="6.66" transform="translate(98.25 156.61)" fill="#c2714e"/><rect width="0.07" height="6.66" transform="translate(98.32 156.61)" fill="#c1704e"/><rect width="0.07" height="6.66" transform="translate(98.39 156.61)" fill="#c0704d"/><rect width="0.07" height="6.66" transform="translate(98.46 156.61)" fill="#bf6f4d"/><rect width="0.07" height="6.66" transform="translate(98.53 156.61)" fill="#be6e4c"/><rect width="0.07" height="6.66" transform="translate(98.61 156.61)" fill="#bd6e4c"/><rect width="0.07" height="6.66" transform="translate(98.68 156.61)" fill="#bc6d4b"/><rect width="0.07" height="6.66" transform="translate(98.75 156.61)" fill="#bb6c4b"/><rect width="0.07" height="6.66" transform="translate(98.82 156.61)" fill="#ba6b4a"/><rect width="0.07" height="6.66" transform="translate(98.89 156.61)" fill="#b96b49"/><rect width="0.07" height="6.66" transform="translate(98.96 156.61)" fill="#b86a49"/><rect width="0.07" height="6.66" transform="translate(99.03 156.61)" fill="#b76948"/><rect width="0.07" height="6.66" transform="translate(99.11 156.61)" fill="#b66948"/><rect width="0.07" height="6.66" transform="translate(99.18 156.61)" fill="#b56847"/><rect width="0.07" height="6.66" transform="translate(99.25 156.61)" fill="#b46747"/><rect width="0.07" height="6.66" transform="translate(99.32 156.61)" fill="#b36746"/><rect width="0.07" height="6.66" transform="translate(99.39 156.61)" fill="#b26646"/><rect width="0.07" height="6.66" transform="translate(99.46 156.61)" fill="#b16545"/><rect width="0.07" height="6.66" transform="translate(99.54 156.61)" fill="#b06545"/><rect width="0.07" height="6.66" transform="translate(99.61 156.61)" fill="#af6444"/><rect width="0.07" height="6.66" transform="translate(99.68 156.61)" fill="#ae6344"/><rect width="0.07" height="6.66" transform="translate(99.75 156.61)" fill="#ad6343"/><rect width="0.07" height="6.66" transform="translate(99.82 156.61)" fill="#ac6243"/><rect width="0.07" height="6.66" transform="translate(99.89 156.61)" fill="#ab6142"/><rect width="0.07" height="6.66" transform="translate(99.97 156.61)" fill="#aa6142"/><rect width="0.07" height="6.66" transform="translate(100.04 156.61)" fill="#a86041"/><rect width="0.07" height="6.66" transform="translate(100.11 156.61)" fill="#a75f40"/><rect width="0.07" height="6.66" transform="translate(100.18 156.61)" fill="#a65e40"/><rect width="0.07" height="6.66" transform="translate(100.25 156.61)" fill="#a55e3f"/><rect width="0.07" height="6.66" transform="translate(100.32 156.61)" fill="#a45d3f"/><rect width="0.07" height="6.66" transform="translate(100.4 156.61)" fill="#a35c3e"/><rect width="0.07" height="6.66" transform="translate(100.47 156.61)" fill="#a25c3e"/><rect width="0.07" height="6.66" transform="translate(100.54 156.61)" fill="#a15b3d"/><rect width="0.07" height="6.66" transform="translate(100.61 156.61)" fill="#a05a3d"/><rect width="0.07" height="6.66" transform="translate(100.68 156.61)" fill="#9f5a3c"/><rect width="0.07" height="6.66" transform="translate(100.75 156.61)" fill="#9e593c"/><rect width="0.07" height="6.66" transform="translate(100.83 156.61)" fill="#9d583b"/><rect width="0.07" height="6.66" transform="translate(100.9 156.61)" fill="#9c583b"/><rect width="0.07" height="6.66" transform="translate(100.97 156.61)" fill="#9b573a"/><rect width="0.07" height="6.66" transform="translate(101.04 156.61)" fill="#9a563a"/><rect width="0.07" height="6.66" transform="translate(101.11 156.61)" fill="#995639"/><rect width="0.07" height="6.66" transform="translate(101.18 156.61)" fill="#985538"/><rect width="0.07" height="6.66" transform="translate(101.26 156.61)" fill="#975438"/><rect width="0.07" height="6.66" transform="translate(101.33 156.61)" fill="#965337"/><rect width="0.07" height="6.66" transform="translate(101.4 156.61)" fill="#955337"/><rect width="0.07" height="6.66" transform="translate(101.47 156.61)" fill="#945236"/><rect width="0.07" height="6.66" transform="translate(101.54 156.61)" fill="#935136"/><rect width="0.07" height="6.66" transform="translate(101.61 156.61)" fill="#925135"/><rect width="0.07" height="6.66" transform="translate(101.69 156.61)" fill="#915035"/><rect width="0.07" height="6.66" transform="translate(101.76 156.61)" fill="#904f34"/><rect width="0.07" height="6.66" transform="translate(101.83 156.61)" fill="#8f4f34"/><rect width="0.07" height="6.66" transform="translate(101.9 156.61)" fill="#8e4e33"/><rect width="0.07" height="6.66" transform="translate(101.97 156.61)" fill="#8d4d33"/><rect width="0.07" height="6.66" transform="translate(102.04 156.61)" fill="#8c4d32"/><rect width="0.07" height="6.66" transform="translate(102.12 156.61)" fill="#8b4c32"/><rect width="0.07" height="6.66" transform="translate(102.19 156.61)" fill="#8a4b31"/><rect width="0.07" height="6.66" transform="translate(102.26 156.61)" fill="#894b30"/><rect width="0.07" height="6.66" transform="translate(102.33 156.61)" fill="#884a30"/><rect width="0.07" height="6.66" transform="translate(102.4 156.61)" fill="#87492f"/><rect width="0.07" height="6.66" transform="translate(102.47 156.61)" fill="#86492f"/><rect width="0.07" height="6.66" transform="translate(102.55 156.61)" fill="#85482e"/><rect width="0.07" height="6.66" transform="translate(102.62 156.61)" fill="#84472e"/><rect width="0.07" height="6.66" transform="translate(102.69 156.61)" fill="#83462d"/><rect width="0.07" height="6.66" transform="translate(102.76 156.61)" fill="#82462d"/><rect width="0.07" height="6.66" transform="translate(102.83 156.61)" fill="#81452c"/><rect width="0.07" height="6.66" transform="translate(102.9 156.61)" fill="#80442c"/><rect width="0.07" height="6.66" transform="translate(102.98 156.61)" fill="#7f442b"/><rect width="0.07" height="6.66" transform="translate(103.05 156.61)" fill="#7e432b"/><rect width="0.07" height="6.66" transform="translate(103.12 156.61)" fill="#7d422a"/><rect width="0.07" height="6.66" transform="translate(103.19 156.61)" fill="#7c422a"/><rect width="0.07" height="6.66" transform="translate(103.26 156.61)" fill="#7b4129"/></g><path d="M141.1,152.5H58.92a2,2,0,0,1-2-2V46.12a2,2,0,0,1,2-2H139.3a2,2,0,0,1,3.78.81V150.5a2,2,0,0,1-1.98,2Zm-80.18-4H139.1V48.12H60.92Z" fill="url(#b)"/><path d="M133.83,170.86H66.19a9.27,9.27,0,0,1-9.27-9.26V150.5a2,2,0,0,1,2-2H141.1a2,2,0,0,1,2,2v11.1a9.27,9.27,0,0,1-9.27,9.26ZM60.92,152.5v9.1a5.27,5.27,0,0,0,5.27,5.26h67.64a5.27,5.27,0,0,0,5.27-5.26v-9.1Z" fill="url(#c)"/><path d="M141.08,48.12H58.9a2,2,0,0,1-2-2V38.4a9.27,9.27,0,0,1,9.27-9.26h67.64a9.27,9.27,0,0,1,9.27,9.26v7.72a2,2,0,0,1-2,2Zm-80.18-4h78.18V38.4a5.27,5.27,0,0,0-5.27-5.26H66.17A5.27,5.27,0,0,0,60.9,38.4Z" fill="url(#d)"/><path d="M100.62,74.41A10.35,10.35,0,1,1,111,64.06a10.35,10.35,0,0,1-10.38,10.35Zm0-16.69a6.34,6.34,0,1,0,4.509,1.843,6.35,6.35,0,0,0-4.509-1.843Z" fill="url(#e)"/><rect width="61.22" height="13.48" transform="translate(70.01 82.01)" opacity="0.3" fill="url(#f)"/><rect width="61.22" height="13.48" transform="translate(70.01 101.66)" opacity="0.3" fill="url(#f)"/><rect width="40.94" height="13.48" transform="translate(80.15 121.3)" opacity="0.3" fill="url(#h)"/></g></svg>