<svg xmlns="http://www.w3.org/2000/svg" xmlns:xlink="http://www.w3.org/1999/xlink" width="135.253" height="120.207" viewBox="0 0 135.253 120.207"><defs><linearGradient id="a" x1="0.063" y1="0.27" x2="0.991" y2="0.69" gradientUnits="objectBoundingBox"><stop offset="0" stop-color="#9b4a69"/><stop offset="1" stop-color="#f288af"/></linearGradient></defs><g transform="translate(0 0)"><path d="M-1655.12,378.167a10.54,10.54,0,0,0,9,5.078,10.5,10.5,0,0,0,10.49-10.491,10.513,10.513,0,0,0-10.49-10.5,10.515,10.515,0,0,0-10.5,10.5,10.467,10.467,0,0,0,.395,2.849l-29.3,17.254a16.261,16.261,0,0,0-8.992-6.744l4.111-18.211a10.117,10.117,0,0,0,1.647.128,10.507,10.507,0,0,0,10.5-10.491,10.515,10.515,0,0,0-10.5-10.5,10.515,10.515,0,0,0-10.5,10.5,10.474,10.474,0,0,0,6.2,9.564l-4.17,18.447a15.645,15.645,0,0,0-1.933-.118,16.159,16.159,0,0,0-9.889,3.362l-25.575-20.675a10.434,10.434,0,0,0,2.149-6.359,10.5,10.5,0,0,0-10.49-10.491,10.507,10.507,0,0,0-10.5,10.491,10.515,10.515,0,0,0,10.5,10.5,10.486,10.486,0,0,0,6.379-2.169l25.477,20.6a16.152,16.152,0,0,0-4.309,11,16.053,16.053,0,0,0,.967,5.521l-36.579,18.437a10.492,10.492,0,0,0-9.347-5.728,10.507,10.507,0,0,0-10.5,10.491,10.515,10.515,0,0,0,10.5,10.5,10.507,10.507,0,0,0,10.49-10.5,10.942,10.942,0,0,0-.217-2.14l36.815-18.546a16.267,16.267,0,0,0,12.591,8.144l-3.116,28.386a10.515,10.515,0,0,0-10.254,10.49,10.515,10.515,0,0,0,10.5,10.5,10.507,10.507,0,0,0,10.49-10.5,10.5,10.5,0,0,0-7.986-10.185l3.155-28.672a16.185,16.185,0,0,0,11.674-6.359l25.99,19.325a10.234,10.234,0,0,0-.769,3.924,10.507,10.507,0,0,0,10.5,10.491,10.5,10.5,0,0,0,10.491-10.491,10.507,10.507,0,0,0-10.491-10.5,10.5,10.5,0,0,0-8.351,4.141l-25.881-19.226a16.033,16.033,0,0,0,1.843-7.5,16.082,16.082,0,0,0-1.321-6.4.212.212,0,0,0,.069-.03Zm9-13.143a7.734,7.734,0,0,1,7.72,7.73,7.725,7.725,0,0,1-7.72,7.72,7.734,7.734,0,0,1-7.73-7.72A7.742,7.742,0,0,1-1646.118,365.024Zm-50.363-7.483a7.734,7.734,0,0,1,7.72-7.73,7.742,7.742,0,0,1,7.73,7.73,7.734,7.734,0,0,1-7.73,7.72A7.725,7.725,0,0,1-1696.481,357.54Zm-46.488,11.95a7.743,7.743,0,0,1-7.73-7.73,7.734,7.734,0,0,1,7.73-7.72,7.725,7.725,0,0,1,7.72,7.72A7.734,7.734,0,0,1-1742.969,369.49Zm-17.412,68.652a7.742,7.742,0,0,1-7.73-7.73,7.734,7.734,0,0,1,7.73-7.72,7.725,7.725,0,0,1,7.72,7.72A7.734,7.734,0,0,1-1760.38,438.142Zm64.531,18.6a7.734,7.734,0,0,1-7.72,7.73,7.742,7.742,0,0,1-7.73-7.73,7.734,7.734,0,0,1,7.73-7.72,6.914,6.914,0,0,1,.789.039.09.09,0,0,0,.049.01h.05A7.726,7.726,0,0,1-1695.85,456.747Zm8.174-48.006c-.04.069-.079.128-.118.187a13.465,13.465,0,0,1-11.368,6.241,13.508,13.508,0,0,1-12.285-7.917v-.01a13.39,13.39,0,0,1-1.2-5.551,13.443,13.443,0,0,1,4.466-10.017c.049-.039.089-.079.138-.118a13.378,13.378,0,0,1,8.884-3.352,13.5,13.5,0,0,1,13.488,13.488A13.329,13.329,0,0,1-1687.676,408.741Zm30.367,22.361c.01-.02.03-.039.03-.059a7.741,7.741,0,0,1,6.764-3.993,7.734,7.734,0,0,1,7.72,7.73,7.726,7.726,0,0,1-7.72,7.72,7.734,7.734,0,0,1-7.73-7.72A7.607,7.607,0,0,1-1657.309,431.1Z" transform="translate(1770.881 -347.04)" fill="url(#a)"/></g></svg>