<svg xmlns="http://www.w3.org/2000/svg" width="214.985" height="15.356" viewBox="0 0 214.985 15.356"><g transform="translate(0 1.321)"><path d="M249.864,9.2h6.213V7.588h-6.213V3.4H256.5V1.787h-8.12v13.7h8.381V13.866h-6.895Z" transform="translate(-181.63 -2.273)"/><path d="M313.167,10.587q-.335,1.646-.553,2.982a47.616,47.616,0,0,0-.888-4.849l-1.591-6.932H308.33l-2.15,9.251-.5,2.534q-.206-1.422-.476-2.8l-1.7-8.98h-1.536l3,13.7h1.5l2.383-10.442q.169-.713.329-1.609l.353,1.609,2.374,10.442h1.428l3.087-13.7h-1.5Z" transform="translate(-220.819 -2.274)"/><path d="M192.935,10a3.836,3.836,0,0,0-.952-.762,3.761,3.761,0,0,0,2.35-1.228A3.771,3.771,0,0,0,195.14,5.5a4.3,4.3,0,0,0-.476-2.067,2.922,2.922,0,0,0-1.228-1.275,5.25,5.25,0,0,0-2.3-.384H186.16v13.7h1.486V9.394h1.717a2.714,2.714,0,0,1,1.161.2,2.573,2.573,0,0,1,.857.78,17.88,17.88,0,0,1,1.318,2.239l1.5,2.85h1.867L194.1,11.737A9.691,9.691,0,0,0,192.935,10ZM190.84,7.824h-3.194V3.294h3.55a2.483,2.483,0,0,1,1.8.593,2.175,2.175,0,0,1,.614,1.631,2.457,2.457,0,0,1-.307,1.259,1.935,1.935,0,0,1-.86.8,3.906,3.906,0,0,1-1.606.252Z" transform="translate(-136.133 -2.265)"/><path d="M131.741,3.219a3.72,3.72,0,0,0-1.7-1.195,7.243,7.243,0,0,0-2.187-.252h-3.879v13.7h4.054a5.168,5.168,0,0,0,2.8-.679,4.82,4.82,0,0,0,1.754-2.3,10.164,10.164,0,0,0,.682-3.947,10.812,10.812,0,0,0-.4-3.133A6.245,6.245,0,0,0,131.741,3.219Zm-.541,8.646a2.985,2.985,0,0,1-1.149,1.517,4.165,4.165,0,0,1-2.2.47h-2.393V3.395h2.359a4.91,4.91,0,0,1,1.895.27,3.1,3.1,0,0,1,1.45,1.573,7.774,7.774,0,0,1,.565,3.274A9.359,9.359,0,0,1,131.2,11.865Z" transform="translate(-90.661 -2.259)"/><path d="M4.33,1.787,0,15.485H1.566l1.228-4.149H7.515l1.305,4.149h1.7L5.915,1.787ZM3.222,9.858l1.25-4.017a20.21,20.21,0,0,0,.614-2.617q.252,1.093.8,2.841L7.064,9.858Z" transform="translate(0 -2.273)"/><path d="M70.721,12.561,64.815,1.787H63.292v13.7h1.431V4.7l5.894,10.78H72.14V1.787H70.721Z" transform="translate(-46.283 -2.273)"/><path d="M713.4,9.463h3.3v2.552a4.564,4.564,0,0,1-1.462,1,4.3,4.3,0,0,1-1.8.421,3.72,3.72,0,0,1-2.995-1.37,6.3,6.3,0,0,1-1.152-4.119,7.753,7.753,0,0,1,.537-3.071,4.076,4.076,0,0,1,1.422-1.843,3.685,3.685,0,0,1,2.107-.577,3.419,3.419,0,0,1,1.514.307,2.829,2.829,0,0,1,1.1.921,5,5,0,0,1,.682,1.732l1.336-.448a6.042,6.042,0,0,0-.9-2.307,4.043,4.043,0,0,0-1.536-1.3A4.806,4.806,0,0,0,713.407.9a5.22,5.22,0,0,0-2.9.789A5.547,5.547,0,0,0,708.53,4.15a9.375,9.375,0,0,0-.755,3.907,8.773,8.773,0,0,0,.752,3.8,5.629,5.629,0,0,0,2.042,2.4,5.325,5.325,0,0,0,2.933.823,5.7,5.7,0,0,0,2.4-.537,8.176,8.176,0,0,0,2.26-1.6v-5.1h-4.757V9.454h0Z" transform="translate(-517.571 -1.625)"/><path d="M659.9,12.561,653.992,1.787h-1.523v13.7H653.9V4.7l5.894,10.78h1.523V1.787H659.9Z" transform="translate(-477.131 -2.273)"/><rect width="1.487" height="13.698" transform="translate(167.476 -0.486)"/><path d="M770.3,13.866V9.2h6.213V7.588H770.3V3.4h6.634V1.787h-8.12v13.7h8.381V13.866Z" transform="translate(-562.209 -2.273)"/><path d="M421.027,12.654a2.9,2.9,0,0,1-2.1.857,3.071,3.071,0,0,1-2.635-1.407,7.235,7.235,0,0,1-1-4.214,8.3,8.3,0,0,1,.491-3.071A3.873,3.873,0,0,1,417.1,3.029a3.314,3.314,0,0,1,1.96-.574q2.254,0,3,2.85l1.459-.421a5.474,5.474,0,0,0-1.637-2.97A4.134,4.134,0,0,0,419.086.9a4.756,4.756,0,0,0-2.694.8A5.4,5.4,0,0,0,414.48,4.07a9.28,9.28,0,0,0-.706,3.83,10.242,10.242,0,0,0,.7,3.974,5.392,5.392,0,0,0,1.815,2.457,4.587,4.587,0,0,0,2.669.762,4.3,4.3,0,0,0,3.013-1.136,6.424,6.424,0,0,0,1.732-3.443l-1.5-.458A4.623,4.623,0,0,1,421.027,12.654Z" transform="translate(-302.577 -1.626)"/><path d="M578.012,1.787h-1.487v13.7h7.018V13.866h-5.531Z" transform="translate(-421.595 -2.273)"/><path d="M477.014,1.726A4.678,4.678,0,0,0,474.3.884a4.767,4.767,0,0,0-3.839,1.883,8.325,8.325,0,0,0-1.536,5.387,8.055,8.055,0,0,0,1.367,4.73,4.794,4.794,0,0,0,7.985.055,8.279,8.279,0,0,0,1.382-4.96,9.335,9.335,0,0,0-.7-3.811A5.666,5.666,0,0,0,477.014,1.726Zm0,10.368a3.351,3.351,0,0,1-5.458,0,6.147,6.147,0,0,1-1.118-3.931,7.051,7.051,0,0,1,1.091-4.34,3.379,3.379,0,0,1,2.764-1.4,3.215,3.215,0,0,1,1.929.642,3.9,3.9,0,0,1,1.324,1.7,8.317,8.317,0,0,1,.571,3.163,6.577,6.577,0,0,1-1.091,4.165Z" transform="translate(-342.91 -1.613)"/><path d="M531.3,1.787h-1.483v13.7h7.018V13.866H531.3Z" transform="translate(-387.439 -2.273)"/><rect width="214.985" height="15.356" transform="translate(0 -1.321)" fill="none"/></g></svg>