<svg xmlns="http://www.w3.org/2000/svg" width="405.913" height="612.103" viewBox="0 0 405.913 612.103"><g transform="translate(-14348.273 -1982.182)"><path d="M.862,0H210.276a0,0,0,0,1,0,0V14.646a0,0,0,0,1,0,0H.862A.862.862,0,0,1,0,13.785V.862A.862.862,0,0,1,.862,0Z" transform="translate(14348.273 2506.573)" fill="#333"/><path d="M14531.074,2265.3h-141.532l-40.8-156.915a2.418,2.418,0,0,1,.716-2.4l10.451-9.489,125.8,5Z" fill="#333"/><rect width="141.531" height="254.528" transform="translate(14389.543 2265.302)" fill="#333"/><path d="M14545.957,2267.7h-141.531l-44.514-171.207,141.081,5.607a1.4,1.4,0,0,1,1.3,1.044Z" fill="#b2b2b2"/><path d="M14534.029,2256.689l-123.7-2.283a.389.389,0,0,1-.369-.291l-38.6-148.267a.388.388,0,0,1,.389-.486l124.065,4.312a.388.388,0,0,1,.362.291l38.234,146.237A.389.389,0,0,1,14534.029,2256.689Z" fill="#eff0f2"/><path d="M14531.076,2254.007l-90.531-1.838-22.1-.444h-.016l-6.234-.123-2.312-8.9-8.609-33.134-26.47-101.775,94.988,3.661,24.2.934,1.885,7.2,4.059,15.472,6.112,23.36Z" fill="#fff"/><path d="M14545.957,2519.83h-141.531V2265.3l141.531,2.4Z" fill="#b2b2b2"/><rect width="210.276" height="14.646" rx="0.737" transform="translate(14371.638 2506.573)" fill="#4d4d4d"/><path d="M14495.875,2119.588l-86,123.114-8.609-33.134,68.519-98.114,24.2.934Z" fill="#ebebeb"/><path d="M14506.046,2158.42l-65.5,93.748-22.1-.444,81.493-116.664Z" fill="#ebebeb"/><path d="M14497.864,2506.842h-93.438a.268.268,0,0,1,0-.536h93.438a.268.268,0,0,1,0,.536Z" fill="#322630"/><path d="M14545.957,2506.842H14513.2a.268.268,0,1,1,0-.536h32.761a.268.268,0,0,1,0,.536Z" fill="#322630"/><path d="M14533.711,2231.311l-14.114,1.576a116.427,116.427,0,0,1-12.154-17.46c-7.97,1.77-17.771-3.165-23.211-10.436s-2.171-13.609-2.171-13.609c-.789-6.261,4.75-8.29,6.5-8.77-1.14.179-4.35-.621-13.109-1.52-23.57-2.4-14.23-16.19-12.37-15.031s20.99,6.451,34.51,8.4,24.87,4.79,37.36,34.64C14537.541,2215.3,14534.791,2222.251,14533.711,2231.311Z" fill="#efd4e0" fill-rule="evenodd"/><path d="M14506.22,2185.516s-12.351-2.02-15.733,0-3.264,6.817-6.527,8.837,2.1,8.459,5.711,5.176,4.913-4.419,4.913-4.419,6.625-.754,7.79,1.642,3.613,6.69,8.508,6.313a25.086,25.086,0,0,0,4.041-1.557s-4.119,1.094-5.556.673-4.235-1.852-5.322-4-2.059-3.408-5.438-3.62-3.847-.126-4.547.421-5.4,5.6-6.643,4.752-4.818-2.778-2.955-4.587a16.079,16.079,0,0,0,3.263-5.345c.467-1.052,1.826-4.082,4.507-4.334S14506.22,2185.516,14506.22,2185.516Z" fill="#d392ac" fill-rule="evenodd"/><path d="M14483.5,2190.779s1.166,10.315,3.729,10.839a4.89,4.89,0,0,0,5.205-2.255c.544-1.178,1.089,2.441-1.709,2.778s-5.517.42-6.138-3.114S14482.178,2191.957,14483.5,2190.779Z" fill="#d392ac" fill-rule="evenodd"/><path d="M14489.088,2182.486s-.815,2.489,0,4.211l-.655.872S14486.987,2183.117,14489.088,2182.486Z" fill="#d392ac" fill-rule="evenodd"/><path d="M14493.418,2196.145s1.944,6.819,7.412-.6l.772.382a6.385,6.385,0,0,1-3,3.079c-2.021.818-4.638,2.33-5.815-2.3" fill="#d392ac" fill-rule="evenodd"/><path d="M14480.658,2176.839s-1.943,3.017-1.943,3.712C14478.715,2180.551,14478.4,2177.69,14480.658,2176.839Z" fill="#d392ac" fill-rule="evenodd"/><path d="M14500.315,2182.486s-13.352.239-13.984.209-8.04-.172-12.011-1.874Z" fill="#d392ac" fill-rule="evenodd"/><path d="M14509.628,2215.244s7.729-2.011,8.974-3.093C14518.6,2212.15,14518.37,2215.86,14509.628,2215.244Z" fill="#d392ac" fill-rule="evenodd"/><path d="M14498.609,2208.29s2.3-7.647,3.429-8.851C14502.038,2199.44,14498.322,2199.531,14498.609,2208.29Z" fill="#d392ac" fill-rule="evenodd"/><line x2="62.096" transform="translate(14649.11 2572.514)" fill="none" stroke="#7160b1" stroke-linecap="round" stroke-linejoin="round" stroke-width="1.692"/><line x2="111.787" transform="translate(14518.174 2585.062)" fill="none" stroke="#7160b1" stroke-linecap="round" stroke-linejoin="round" stroke-width="1.692"/><path d="M14657.685,2551.236a99.53,99.53,0,0,0-3.873,16.9c-1.712,10.955-2.679,19.266,2.67,23.282,5.883,4.419,35.79,3.528,39.932-1.284,2.105-2.445,2.6-8.635-.128-12.84-6.42-9.887-5.949-26.548-5.949-26.548S14670.943,2553.837,14657.685,2551.236Z" fill="#b8d170" fill-rule="evenodd"/><path d="M14695.129,2578.706s6.935,9.5-33.769,2.825c0,0-5.137-1.028-6.55-2.825s-2.182,4.424,17.721,5.807S14699.923,2584.912,14695.129,2578.706Z" fill="#3f2112" fill-rule="evenodd"/><path d="M14657.336,2547.544a61.859,61.859,0,0,0-2.444,7.75S14658.383,2549.848,14657.336,2547.544Z" fill="#3f2112" fill-rule="evenodd"/><path d="M14612.576,2549.573s3.79,15.664,1.675,23.595c-1.066,3.99-8.445,8.327-11.442,9.886-2.39,1.244-4.317-6.2-5.3-3.913-1.328,3.085,2,5.222-.693,6.906-17.889,11.193-43.49,4.281-44.779,3.631s-6.586-2.214-5.854-5.333c.763-3.247.554-10.814,4.593-11.1,4.09-.834,6.2-.442,9.832-2.334,2.788-2.812,16.681-14.476,16.58-21.946S14612.576,2549.573,14612.576,2549.573Z" fill="#b8d170" fill-rule="evenodd"/><path d="M14548.45,2574.177s-.105,3.757,6.045,5.347c9.423,2.437,27.757,3.977,58.026-12.573,8.9-4.864-30.3,20.147-54.882,15.224C14547.262,2580.094,14547.4,2577.913,14548.45,2574.177Z" fill="#3f2112" fill-rule="evenodd"/><path d="M14598.2,2578.784s3.468-2.369,3.7-1.925.918,6.193.918,6.193-.837-5.264-1.483-5.2A13.277,13.277,0,0,0,14598.2,2578.784Z" fill="#3f2112" fill-rule="evenodd"/><path d="M14725.06,2331.635c-.092,1.525-4.651,31.073-12.152,45.171-2.559,8.556-.888,42.05-6.878,40.359.155.205.11-1.139-.458-.689-.66.526-1,1.239-1.605,1.606-.89.538-1.42.732-2.979-1.606-.541-.813.226.794-.918,1.147-1.121.346-2.223-1.25-2.981-2.981-15.234-34.738-15.781-135.835-6.421-133.91,4.051-5.9-1.494-29.926-1.146-35.082s23.863-10.268,31.413-2.521c.867,5.938.308,20.86.23,28.663-.024,2.359.527,7.979,1.375,9.631C14730.5,2300.032,14725.06,2331.635,14725.06,2331.635Z" fill="#efd4e0" fill-rule="evenodd"/><path d="M14683.1,2250.694s17.444,13.748,22.7,33.934,3.637,67.954-2.752,89.424c-5.343,17.948-6.65,49.529-6.65,49.529s7.511,78,7.791,129.95c0,0-29.66,9.046-63.12-1.423-.572,3.934,2.873-74.949,14.521-145.493.374-2.264.922-26.318,2.055-37.153,3.213-30.72,5.773-47.524,5.5-51.132-.346-.938-2.479,2.074-3.153,3.795-3.857,9.857-9.2,47.22-15.577,78.058-4.578,22.157-8.889,141.752-9.876,152.344-41.307,14.662-63.852.166-63.852.166,3.778-52.169,34-144.925,35.593-157.546,1.088-8.578,4.039-59.121,4.586-66.266s3.435-43.652,20.174-62.828c4.533-4.205-4.2-16.855-1.877-20.566C14630.966,2242.624,14683.1,2250.694,14683.1,2250.694Z" fill="#70678e" fill-rule="evenodd"/><path d="M14632.882,2267.2c-.672.946,1.743,3.993,7.108,5.5,11.4,3.205,32.71,4.148,47.006-12.608,5.555-6.508-11.777,15.758-40.586,12.153C14633.907,2270.682,14633.555,2266.257,14632.882,2267.2Z" fill="#5b5474" fill-rule="evenodd"/><path d="M14670.487,2315.585s-11.866.549-15.822,4.129c.141.308,4.127-.919,4.127-.919l-7.565,34.164s5.036-21.515,8.484-30.265a10.474,10.474,0,0,1,2.981-4.126C14664.693,2317.416,14665,2317.366,14670.487,2315.585Z" fill="#5b5474" fill-rule="evenodd"/><path d="M14665.119,2318.745s9.267-1.083,11.52.239S14668.661,2318.4,14665.119,2318.745Z" fill="#5b5474" fill-rule="evenodd"/><path d="M14594.361,2234.643s7.216-19.36,10.317-27.975,9.447-11.324,28.663-21.094c2.672-1.933,12.676-13.81,23.16-8.026,12.791,7.057,13.9-9.6,19.259-.688a4.626,4.626,0,0,0,2.982,2.065s4.837,3.193,16.508,9.17c16.232,8.314,17.944,14.415,20.408,19.261,2.647,5.206,5.27,36.228,5.27,36.228a25.058,25.058,0,0,1-12.608,4.586c-7.817.361-18.8-2.521-18.8-2.521l.229-2.064a24.255,24.255,0,0,1-6.878,8.943c-7.253,6.111-36.5,20.885-58.013,3.21a53.863,53.863,0,0,1-6.19-5.96l-17.773-9.939Z" fill="#fce78e" fill-rule="evenodd"/><path d="M14633.342,2213.092s-8.767,7.214-15.13,1.6c-1.122-.986,4.509-4.22,4.815-5.27,1.565-5.4,9.266-23.757,11.7-27.286s8.677-9.772,20.637-10.318c12.792-.586,18.392-.531,23.617,5.96.268.361,2.975,9.379,1.834,16.967-.081,4.058-1.918,13.444-1.834,19.031.033,2.268,1.6,2.967,1.834,3.9.813,3.223-3.9,4.127-3.9,4.127a22.022,22.022,0,0,1-11.465-1.834c-6.051-2.718-5.622-4.617-7.565-3.67-4.137,2.014-3.21,2.522-3.21,2.522-.236-.33-1.24,20.413-.459,27.057-3.018-.488-6.094.132-8.483-1.372,1.184-12.841,3.217-19.878,1.605-25.453C14643.921,2207.259,14633.342,2213.092,14633.342,2213.092Z" fill="#ec701e" fill-rule="evenodd"/><path d="M14691.376,2239.333s13.009,6.845,29.654-3.133c-9.771,3.466-14.344,4.517-22.916,3.778C14695.1,2239.715,14692.135,2239.259,14691.376,2239.333Z" fill="#d3b151" fill-rule="evenodd"/><path d="M14694.564,2211.254c-.03-2.166,1.02,23.537-5.045,33.018C14688.917,2245.21,14694.743,2224.448,14694.564,2211.254Z" fill="#d3b151" fill-rule="evenodd"/><path d="M14694.105,2221.343s4.224-4.66,3.668-6.42S14697.5,2217.024,14694.105,2221.343Z" fill="#d3b151" fill-rule="evenodd"/><path d="M14614.539,2214.923a105.933,105.933,0,0,0-.918,17.2c.361,9.283,3.861,15.307,3.669,14.447C14615.35,2237.963,14614.915,2244.045,14614.539,2214.923Z" fill="#d3b151" fill-rule="evenodd"/><path d="M14610.412,2214.692s2.919,8.15,3.9,7.8S14611.917,2225.633,14610.412,2214.692Z" fill="#d3b151" fill-rule="evenodd"/><path d="M14614.31,2233.269s-3.666-5.139-16.278-5.27c-2.828-.03,2.7-2.758,12.151,1.372C14611.8,2230.072,14614.31,2233.269,14614.31,2233.269Z" fill="#d3b151" fill-rule="evenodd"/><path d="M14650.591,2219.345s-.223,6.086-.187,12.107c.036,5.947.325,11.826.325,11.826l-1.371-.337C14648.636,2243.237,14648.95,2222.55,14650.591,2219.345Z" fill="#804c32" fill-rule="evenodd"/><path d="M14644.255,2178.619s-2.137,3.393-2.073,5.84C14642.213,2185.7,14644.049,2179.435,14644.255,2178.619Z" fill="#804c32" fill-rule="evenodd"/><path d="M14673.289,2177.115s.47,6.443-.753,8.475S14675.338,2181.4,14673.289,2177.115Z" fill="#804c32" fill-rule="evenodd"/><path d="M14559.982,2100.447s-34.453,9.6-20.808,46.515c8.729,23.617,46.38,40.4,130.728,15.537,88.3-26.032,86.494-71.29,83.14-79.007-4.418-10.168-17.943-27.913-44.5-19.214-.478-.894.049-5.655-5.849-10.359-7.6-4.332-18.159-5.84-21.68,0-1.891,3.134-.927-21.882-29.223-16.764-32.286,5.843-56.291,12.411-66.362,21.285-4.152,6-5.71,9.626-5.849,19.967C14581.454,2080.347,14563.758,2069.373,14559.982,2100.447Z" fill="#dc4427" fill-rule="evenodd"/><path d="M14537.066,2123.68c-2.351,5.3-2.646,12.8,2.105,23.289,10.389,22.94,46.448,40.682,130.728,15.537,93.3-27.836,84.293-71.706,83.14-79.194,5.52,35.823-98.361,89.859-154.963,86.034C14558.149,2166.647,14544.595,2140.111,14537.066,2123.68Z" fill="#c13f28" fill-rule="evenodd"/><path d="M14637.658,2037.722s12.323-18.388,2.451-28.064c-11.105-10.884-30.975-18.371-35.362-25.349-4.944-7.858,6.471,6.894-6.116,30.435-10.173,19.036.482,31.755,14.532,30.441S14636.716,2038.991,14637.658,2037.722Z" fill="#dc4427" fill-rule="evenodd"/><path d="M14638.034,2037.348s12.466-18.109,1.7-28.064c8.376,26.792-37.68,35.689-41.643,8.122-10.173,19.035,1.023,29.1,15.075,27.781S14636,2039.374,14638.034,2037.348Z" fill="#c13f28" fill-rule="evenodd"/><path d="M14639.354,2035.842l1.7,3.39-32.75,8.284-.937-2.58S14628.795,2037.532,14639.354,2035.842Z" fill="#fce78e" fill-rule="evenodd"/><path d="M14678.028,2094.726c-4.981,7.254-7.81,20.552-7.81,20.552l-1.074,10.221s-2.263,23.421.189,41.817c1.568,11.768,3.166,12.364,3.22,15.73s-5.855,14.361-12.382,21.557c-3.858,4.253-8.17,14.694-10.087,14.675.392-1.866-9.482-16.065-9.218-24.083.1-2.949,1.124-9.392,2.073-11.679.512-1.228,1.533.671,1.886-1.505,1.521-9.421,1.286-23.472.188-34.472-5.96.626-33.352,8.254-42.009-22.77-3.525-20.116-.841-39.308,1.936-41.18l4.574-8.582s28.357-4.595,47-2.44c2.657.308,8.882,13.844,9.242,17.14,1.317-12.656,9.53-11.2,10.935-9.983C14679.381,2081.89,14680.463,2086.664,14678.028,2094.726Z" fill="#efd4e0" fill-rule="evenodd"/><path d="M14668.2,2151.116s-8.664,13.558-27.337,46.53a78.6,78.6,0,0,1,.754-8.853,34.392,34.392,0,0,1,1.319-5.65c.256-.55.668-.025,1.321-.189.525-.134.48-1.421.753-3.014,1.343-7.814,1.049-21.883,0-32.4,2.46-.786,10.073-4.038,14.518-8.475a44.1,44.1,0,0,0,6.6-9.042c1.825-3.654,1.9-8.115,2.451-7.911,1.583.584-.321,16.822-.377,19.778C14668.127,2145.69,14668.2,2151.116,14668.2,2151.116Z" fill="#e3c1ce" fill-rule="evenodd"/><path d="M14636.671,2110.534l.866.055s-3.141,8.947-12.074,12.847l2.189.4a32.346,32.346,0,0,0,6.671-5.817,24.113,24.113,0,0,0,3.875-7.258l1.584-.64.384-.78-4.192.482Zm6.661-19.735c3.393.984,5.178,3.6,4.115,1.789-2.046-3.5-9-5.368-9-5.368l-2.493,3.393a19.589,19.589,0,0,1,7.372.182Zm-10.2,16.534c1.465-.009,2.651-1.526,2.642-3.387s-1.207-3.365-2.677-3.357-2.646,1.525-2.639,3.388,1.207,3.364,2.675,3.358Zm-7.551,7.678c-.421.57-10.061,1.5-7.075-.63s4.224-8.577,4.224-8.577a15.11,15.11,0,0,1-2.364,8.891s5.641-.251,5.216.317Zm-11.689-3.765c1.465-.009,2.648-1.525,2.64-3.386s-1.206-3.365-2.671-3.356-2.651,1.524-2.642,3.387S14612.427,2111.256,14613.894,2111.246Zm-8.3-10.513a5.026,5.026,0,0,1,1.372-1.373s-.761-.8-1.6-1.606c-1.534-.387-1.589,6.23-1.589,6.23a28,28,0,0,1,1.816-3.249Z" fill="#804c33" fill-rule="evenodd"/><path d="M14669.534,2095.115a14.817,14.817,0,1,0,18.318,10.714,15,15,0,0,0-18.3-10.719Z" fill="#fbe68e" fill-rule="evenodd"/><path d="M14655.753,2071.044a56.262,56.262,0,0,1,5.5,10.88c2.44,6.39,2.751,9.435,2.751,9.435l1.7-8.054s7.32-9.847,15.4-7.925-14.474-14.675-20.2-13.8-28.512,2.9-28.512,2.9l-38.941,8.451-4.034,10.882,3.8,5.072s3.07,14.892,8.438.965c2.1,10.97,16.077,12.724,16.077,12.724s25.105-6.787,25.612-25.419C14644.018,2079.862,14649.641,2082.1,14655.753,2071.044Z" fill="#dc4427" fill-rule="evenodd"/><path d="M14653.4,2075.117s6.821,3.947,8.837,10.486,2.521,7.565,2.521,7.565l2.063-9.17-14.883-21.429s3.07,15.529-4.2,15.406c-5.45-.092-.7-9.963-5.639-7.53-.425.209-2.657,10.792-3.574,14.776-.962,4.183-4.343,6.323-8.4,8.839-13.137,8.146-22.6,8.216-26.569-1.138a25.041,25.041,0,0,1-1.756-5.343,45.9,45.9,0,0,1-3.181,6.331c-1.717,2.959-5.508-4.6-5.515-4.7,0,0,3.07,14.892,8.438.965,2.516,13.346,16.078,12.726,16.078,12.726s25.594-4.312,26.1-22.94C14644.483,2082.745,14652.523,2081.9,14653.4,2075.117Z" fill="#c13f28" fill-rule="evenodd"/><path d="M14620.5,2252.072c-3.36,10.35-15.82,27.509-15.82,27.509.311-1.38-4.859,5.841-9.629,7.341-5.221,1.639-17.891-.75-23.391-3.671-15.63-8.3-45.72-39.57-61.57-63.46l19.25-4.869,5.61-5.821a9.043,9.043,0,0,0,.939,1.69c10.411,14.85,17.811,21.27,28.891,26.6,10.04,4.83,14.92,5.411,18.35,8.491a14.442,14.442,0,0,0,3.44,1.6c1.73-2.08,5.02-7.91,8.02-13.531,5.51-.839,12.63-1.1,20.181,6.65A53.909,53.909,0,0,0,14620.5,2252.072Z" fill="#efd4e0" fill-rule="evenodd"/><path d="M14704.879,2412.346c.381,2.892.65,3.589.794,3.714.007-.1.044-.134.126-.044,0,0-.043.116-.126.044-.019.277.217,1.024.355.415.071-.326-.271-2.474-.23-2.982.063-.787-.179-2.743-.229-3.669-.138-2.511-.814-9.752-.918-14.675-.045-2.057,1.146-4.441.459-3.9a13.659,13.659,0,0,0-.918,5.276c.217,5.867.268,12.644.688,15.819Zm-107.338-156.475c.009.031.02.064.03.1a.565.565,0,0,0-.029-.1Zm-2.034-.361c-2.439-5.207-4.476-4.8-8.713-8.025,0,0,9.2,2.513,10.748,8.385-.1-.2,1.635,9.041,1.635,9.041a65.776,65.776,0,0,0-3.669-9.4Zm-61.552-50.3a2.556,2.556,0,0,0,.062-.5s-.019.191-.062.5Z" fill="#d392ac" fill-rule="evenodd"/><path d="M14700.525,2415.785s-1.554-19.069-1.146-20.866c.223-.984,1.22-4.887,1.146-4.128-.091.871-.693,4.023-.688,5.271.01,2.3,1.147,19.95,1.147,19.95Z" fill="#e3c1ce" fill-rule="evenodd"/><path d="M14575.323,2541.572s13.978,2.431,25.96,4.6,18.286-2,27.176-2.952,0,.347,0,.347a42.759,42.759,0,0,1-13.978,5.036C14606.753,2549.82,14588.259,2550.081,14575.323,2541.572Z" fill="#5b5474" fill-rule="evenodd"/><path d="M14699.809,2542.31s.531.327-11.449,2.5-30.722.93-41.687-.848v.347a91.342,91.342,0,0,0,14.783,3.759C14669.183,2549.281,14696.085,2548.066,14699.809,2542.31Z" fill="#5b5474" fill-rule="evenodd"/></g></svg>