<svg xmlns="http://www.w3.org/2000/svg" width="128.437" height="112.929" viewBox="0 0 128.437 112.929"><g transform="translate(-36.626 -50.468)"><path d="M39.565,124.863s-8.037,12.381,8.3,17.01,50.478,23.347,99.968-6.692c0,0-.2-29-54.693-33.3C93.139,101.88,65.246,97.806,39.565,124.863Z" fill="#fff"/><path d="M119.822,122.344a27.6,27.6,0,1,1-48.08-18.471,93.451,93.451,0,0,1,41.21.27h.01A27.486,27.486,0,0,1,119.822,122.344Z" fill="#ce809d"/><path d="M149.676,64.937l-6.544,7.8,5.885,9.783,8.06-8.644Z" fill="#fff"/><path d="M125.449,54.7l-3.874,4.617,3.484,5.792,4.771-5.117Z" fill="#fff"/><path d="M92.229,151.421A30.052,30.052,0,0,1,62.211,121.4a29.745,29.745,0,0,1,6.135-18.187,1.66,1.66,0,1,1,2.64,2.014A26.454,26.454,0,0,0,65.532,121.4a26.7,26.7,0,1,0,53.394,0,26.451,26.451,0,0,0-5.457-16.176,1.661,1.661,0,0,1,2.64-2.015,29.744,29.744,0,0,1,6.138,18.191A30.052,30.052,0,0,1,92.229,151.421Z" fill="#fff"/><path d="M92.229,136.9a15.494,15.494,0,1,1,15.5-15.495A15.513,15.513,0,0,1,92.229,136.9Zm0-27.668A12.173,12.173,0,1,0,104.4,121.4,12.187,12.187,0,0,0,92.229,109.23Z" fill="#fff"/><path d="M85.517,123.064a1.661,1.661,0,0,1-1.661-1.661,8.381,8.381,0,0,1,8.373-8.372,1.66,1.66,0,1,1,0,3.321,5.058,5.058,0,0,0-5.052,5.051A1.661,1.661,0,0,1,85.517,123.064Z" fill="#fff"/><path d="M38.285,128.042a1.66,1.66,0,0,1-1.356-2.617c11.446-16.242,32.636-26.332,55.3-26.332s43.855,10.09,55.3,26.332a1.661,1.661,0,0,1-2.715,1.913c-10.833-15.373-30.982-24.924-52.585-24.924s-41.751,9.551-52.585,24.924A1.659,1.659,0,0,1,38.285,128.042Z" fill="#70678f"/><path d="M92.229,153.579a107.9,107.9,0,0,1-45.573-9.994,1.661,1.661,0,0,1,1.405-3.01,105.543,105.543,0,0,0,88.336,0,1.661,1.661,0,0,1,1.4,3.01A107.924,107.924,0,0,1,92.229,153.579Z" fill="#70678f"/><path d="M152.274,121.042a48.727,48.727,0,0,1-15.777-3.006,1.661,1.661,0,0,1,1.2-3.1c.159.062,16,6.1,24.771.172a1.661,1.661,0,1,1,1.859,2.752C160.8,120.252,156.462,121.042,152.274,121.042Z" fill="#70678f"/><path d="M133.991,112.774c-2.487,0-4.146-.148-4.354-.168a1.661,1.661,0,0,1,.312-3.307c.155.015,15.536,1.373,24.537-4.708a1.661,1.661,0,1,1,1.859,2.752C149.421,112.021,139.6,112.774,133.991,112.774Z" fill="#70678f"/><path d="M146.172,128.043A1.662,1.662,0,0,1,144.6,126.9c-8.122-24.475-27.321-33.475-42-36.716C80.035,85.206,56.81,91.4,50.734,97.86a1.661,1.661,0,1,1-2.418-2.277c7.645-8.122,32.789-13.542,55-8.638,15.517,3.426,35.82,12.958,44.434,38.914a1.663,1.663,0,0,1-1.576,2.184Z" fill="#70678f"/><path d="M125.173,110.178a1.661,1.661,0,0,1-.234-3.305c.117-.017,9.7-1.556,17.486-12.587a1.661,1.661,0,1,1,2.713,1.916c-8.673,12.281-19.285,13.9-19.732,13.959A1.672,1.672,0,0,1,125.173,110.178Z" fill="#70678f"/><path d="M117.06,106.657a1.661,1.661,0,0,1-1.111-2.9c5.059-4.547,12.184-12.3,12.184-15.314a1.66,1.66,0,1,1,3.321,0c0,5.568-11.067,15.791-13.285,17.784A1.65,1.65,0,0,1,117.06,106.657Z" fill="#70678f"/><path d="M106.6,103.788a1.661,1.661,0,0,1-1.168-2.842h0a32.258,32.258,0,0,0,8.092-16.215,1.66,1.66,0,1,1,3.282.507,35.085,35.085,0,0,1-9.041,18.072A1.652,1.652,0,0,1,106.6,103.788Z" fill="#70678f"/><path d="M96.849,102.555a1.661,1.661,0,0,1-1.548-2.262c.045-.117,4.5-11.688,3.229-17.858a1.661,1.661,0,1,1,3.253-.671c1.47,7.131-3.188,19.221-3.387,19.733A1.659,1.659,0,0,1,96.849,102.555Z" fill="#70678f"/><path d="M83.943,102.866a1.662,1.662,0,0,1-1.533-2.3h0a34.453,34.453,0,0,0,1.652-17.24,1.661,1.661,0,1,1,3.27-.581,37.234,37.234,0,0,1-1.856,19.1A1.661,1.661,0,0,1,83.943,102.866Z" fill="#70678f"/><path d="M70.748,105.551a1.663,1.663,0,0,1-1.651-1.857c.014-.12,1.391-12.062-1.344-18.859a1.661,1.661,0,1,1,3.081-1.24c3.054,7.589,1.623,19.969,1.56,20.492A1.66,1.66,0,0,1,70.748,105.551Z" fill="#70678f"/><path d="M58.647,110.506a1.66,1.66,0,0,1-1.657-1.589c-.006-.118-.557-11.836-4.645-18.015a1.661,1.661,0,0,1,2.77-1.833c4.6,6.953,5.171,19.188,5.193,19.706A1.66,1.66,0,0,1,58.72,110.5Z" fill="#70678f"/><path d="M137.818,151.421a1.66,1.66,0,0,1-1.66-1.609c-.147-.718-1.809-3.131-3.581-5.2a1.661,1.661,0,0,1,2.521-2.163c1.636,1.907,4.381,5.392,4.381,7.309A1.661,1.661,0,0,1,137.818,151.421Z" fill="#70678f"/><path d="M127.623,156.279a1.66,1.66,0,0,1-1.661-1.66c-.065-.783-1.626-4.159-3.043-6.805a1.661,1.661,0,0,1,2.928-1.568c1.283,2.4,3.436,6.671,3.436,8.373A1.66,1.66,0,0,1,127.623,156.279Z" fill="#70678f"/><path d="M113.922,159.934a1.661,1.661,0,0,1-1.64-1.929,27.086,27.086,0,0,0,0-7.956,1.66,1.66,0,0,1,3.27-.578,30.017,30.017,0,0,1,0,9.071A1.661,1.661,0,0,1,113.922,159.934Z" fill="#70678f"/><path d="M103,162.243a1.661,1.661,0,0,1-1.532-2.3c.333-.843-.867-4.412-2.518-7.49a1.661,1.661,0,0,1,2.926-1.572c.92,1.714,3.833,7.522,2.658,10.34A1.662,1.662,0,0,1,103,162.243Z" fill="#70678f"/><path d="M90.882,163.4a1.66,1.66,0,0,1-1.583-2.165c1.191-3.744-.019-8.82-.031-8.87a1.661,1.661,0,0,1,3.227-.785c.06.244,1.439,6.04-.031,10.662A1.661,1.661,0,0,1,90.882,163.4Z" fill="#70678f"/><path d="M77.2,162.242a1.66,1.66,0,0,1-1.406-2.54c1.32-2.113,1.136-6.8.953-8.434a1.661,1.661,0,0,1,3.3-.373c.081.716.73,7.1-1.438,10.567A1.659,1.659,0,0,1,77.2,162.242Z" fill="#70678f"/><path d="M65.105,159.934a1.66,1.66,0,0,1-1.269-2.73,21.582,21.582,0,0,0,3.834-8.061,1.661,1.661,0,0,1,3.246.705,24.681,24.681,0,0,1-4.539,9.495A1.66,1.66,0,0,1,65.105,159.934Z" fill="#70678f"/><path d="M51.833,153.641a1.661,1.661,0,0,1-1.161-2.848,22.5,22.5,0,0,0,4.009-5.768A1.66,1.66,0,0,1,57.7,146.41a25.517,25.517,0,0,1-4.705,6.757A1.655,1.655,0,0,1,51.833,153.641Z" fill="#70678f"/><path d="M119.787,61.059c-.043,0-.087,0-.131,0l-.073-.006a1.66,1.66,0,0,1,.251-3.311l.093.007a1.661,1.661,0,0,1-.078,3.314Z" fill="#25847b"/><path d="M125.705,68.321l-.1,0a1.66,1.66,0,0,1-1.556-1.739l0-.07a1.66,1.66,0,0,1,3.315-.015,1.518,1.518,0,0,1,0,.191c0,.034,0,.084,0,.1A1.662,1.662,0,0,1,125.705,68.321Z" fill="#25847b"/><path d="M125.7,53.853l-.089,0a1.66,1.66,0,0,1-1.573-1.658c0-.029,0-.058,0-.088l1.658.087-1.655-.146a1.661,1.661,0,0,1,3.319.081c0,.028,0,.057,0,.086l0,.067A1.661,1.661,0,0,1,125.7,53.853Z" fill="#25847b"/><path d="M131.675,61.055c-.034,0-.068,0-.1,0l-.092-.006a1.661,1.661,0,0,1,.246-3.313l.1.008a1.66,1.66,0,0,1-.149,3.314Z" fill="#25847b"/><path d="M125.708,68.258l-.083,0a1.662,1.662,0,0,1-1.577-1.73,5.634,5.634,0,0,0-1.391-3.6,4.77,4.77,0,0,0-3.007-1.872,1.66,1.66,0,0,1,.24-3.312h0a3.463,3.463,0,0,0,2.5-1.547,7.569,7.569,0,0,0,1.656-4.092,1.661,1.661,0,0,1,3.318.159,5.645,5.645,0,0,0,1.391,3.6,4.765,4.765,0,0,0,3.007,1.872,1.66,1.66,0,0,1-.241,3.312h0a3.464,3.464,0,0,0-2.494,1.547,7.6,7.6,0,0,0-1.657,4.1A1.661,1.661,0,0,1,125.708,68.258Zm-1.867-8.813a9.385,9.385,0,0,1,1.382,1.372c.184.224.352.448.507.672a10.114,10.114,0,0,1,.726-1,9.189,9.189,0,0,1,1.11-1.142,9.444,9.444,0,0,1-1.382-1.373c-.184-.224-.352-.447-.506-.671a10.27,10.27,0,0,1-.726,1A9.067,9.067,0,0,1,123.841,59.445Z" fill="#25847b"/><path d="M140.352,75.538c-.038,0-.076,0-.114,0l-.1-.007a1.661,1.661,0,0,1,.223-3.314l.032,0h0l.088.007a1.661,1.661,0,0,1-.132,3.316Z" fill="#25847b"/><path d="M149.68,86.983l-.095,0a1.659,1.659,0,0,1-1.565-1.736l.006-.112a1.661,1.661,0,0,1,3.317.166l-.007.133A1.661,1.661,0,0,1,149.68,86.983Z" fill="#25847b"/><path d="M149.675,64.178l-.084,0a1.662,1.662,0,0,1-1.577-1.732l.007-.133a1.661,1.661,0,0,1,3.316.186l-.005.113A1.661,1.661,0,0,1,149.675,64.178Z" fill="#25847b"/><path d="M159.09,75.532c-.042,0-.085,0-.128,0l-.089-.007a1.661,1.661,0,0,1,.246-3.312l.023,0h0l.106.009a1.661,1.661,0,0,1-.158,3.314Z" fill="#25847b"/><path d="M149.685,86.885l-.081,0a1.66,1.66,0,0,1-1.579-1.727,9.92,9.92,0,0,0-2.41-6.326,8.39,8.39,0,0,0-5.4-3.3,1.661,1.661,0,0,1,.242-3.312l.08,0c.554,0,2.528-.2,4.654-2.789a13.008,13.008,0,0,0,2.828-7.009,1.661,1.661,0,0,1,3.317.162,9.919,9.919,0,0,0,2.409,6.327,8.389,8.389,0,0,0,5.4,3.3,1.66,1.66,0,0,1-.24,3.312l-.081,0c-.554,0-2.526.2-4.653,2.789a12.975,12.975,0,0,0-2.828,7.007A1.661,1.661,0,0,1,149.685,86.885Zm-4.536-12.914a13.515,13.515,0,0,1,3.033,2.751,14.5,14.5,0,0,1,1.566,2.327A15.556,15.556,0,0,1,151.6,76.2a12.637,12.637,0,0,1,2.6-2.43,13.546,13.546,0,0,1-3.031-2.75,14.4,14.4,0,0,1-1.566-2.329,15.581,15.581,0,0,1-1.856,2.849A12.59,12.59,0,0,1,145.149,73.971Z" fill="#25847b"/></g></svg>