<svg width="36" height="36" viewBox="0 0 36 36" fill="none" xmlns="http://www.w3.org/2000/svg">
<path d="M7.4745 10.7954C9.2871 10.7954 10.7565 9.32604 10.7565 7.51344C10.7565 5.70085 9.2871 4.23145 7.4745 4.23145C5.66191 4.23145 4.1925 5.70085 4.1925 7.51344C4.1925 9.32604 5.66191 10.7954 7.4745 10.7954Z" fill="white"/>
<path d="M13.8555 13.2825V31.491H19.509V22.4865C19.509 20.1105 19.956 17.8095 22.902 17.8095C25.8075 17.8095 25.8435 20.526 25.8435 22.6365V31.4925H31.5V21.507C31.5 16.602 30.444 12.8325 24.711 12.8325C21.9585 12.8325 20.1135 14.343 19.359 15.7725H19.2825V13.2825H13.8555ZM4.64246 13.2825H10.305V31.491H4.64246V13.2825Z" fill="white"/>
</svg>
