<svg xmlns="http://www.w3.org/2000/svg" xmlns:xlink="http://www.w3.org/1999/xlink" width="123.54" height="127.21" viewBox="0 0 123.54 127.21"><defs><linearGradient id="a" x1="0.882" y1="0.155" x2="-0.143" y2="1.081" gradientUnits="objectBoundingBox"><stop offset="0" stop-color="#1cabe0"/><stop offset="1" stop-color="#107aa3"/></linearGradient><linearGradient id="b" x1="2.38" y1="-1.379" x2="-2.72" y2="3.368" xlink:href="#a"/><linearGradient id="c" x1="2.32" y1="-1.194" x2="-4.622" y2="5.269" xlink:href="#a"/><linearGradient id="d" x1="1.843" y1="-1.919" x2="-2.2" y2="6.14" xlink:href="#a"/></defs><g transform="translate(-634.781 -360.07)"><path d="M756.321,487.28H636.781a2,2,0,0,1-2-2V362.07a2,2,0,0,1,2-2h119.54a2,2,0,0,1,2,2V485.28A2,2,0,0,1,756.321,487.28Zm-117.54-4h115.54V364.07H638.781Z" fill="url(#a)"/><path d="M722.85,462.681a1.994,1.994,0,0,1-1.412-.584l-6.158-6.148-3.406,3.4a2,2,0,0,1-3.407-1.247l-1.54-18.086a2,2,0,0,1,2.165-2.163l18.077,1.549a2,2,0,0,1,1.245,3.407l-3.406,3.408,6.147,6.156a2,2,0,0,1,0,2.827l-6.89,6.89A1.994,1.994,0,0,1,722.85,462.681Zm-7.57-11.56a1.99,1.99,0,0,1,1.414.586l6.155,6.146,4.064-4.063-6.148-6.156a2,2,0,0,1,0-2.827l1.777-1.779-11.427-.98.973,11.434,1.777-1.775A1.994,1.994,0,0,1,715.28,451.121Z" fill="url(#b)"/><circle cx="22.777" cy="22.777" r="22.777" transform="translate(673.777 376.219)" fill="#1cabe0" opacity="0.15"/><path d="M696.554,404.693a9.117,9.117,0,1,1,9.117-9.117A9.127,9.127,0,0,1,696.554,404.693Zm0-14.234a5.117,5.117,0,1,0,5.117,5.117A5.123,5.123,0,0,0,696.554,390.459Z" fill="url(#c)"/><path d="M710.208,416.887a2,2,0,0,1-1.941-1.527c-.092-.364-2.4-9.1-11.713-9.1-9.386,0-11.621,8.727-11.712,9.1a2,2,0,1,1-3.885-.947c1.024-4.2,5.6-12.151,15.6-12.151s14.574,7.948,15.6,12.151a2,2,0,0,1-1.469,2.417A2.056,2.056,0,0,1,710.208,416.887Z" fill="url(#d)"/><path d="M742.111,438.96a7.2,7.2,0,0,1-7.19,7.19h-12.67L727,441.4l-9.05-.77-9.03-.779.54,6.3h-51.28a7.185,7.185,0,0,1,0-14.37h76.74A7.183,7.183,0,0,1,742.111,438.96Z" fill="#1cabe0" opacity="0.39"/><path d="M742.111,463.331a7.2,7.2,0,0,1-7.19,7.189h-76.74a7.185,7.185,0,0,1,0-14.37h60.13l4.54,4.531,4.53-4.531h7.54A7.19,7.19,0,0,1,742.111,463.331Z" fill="#1cabe0" opacity="0.39"/></g></svg>