<svg xmlns="http://www.w3.org/2000/svg" xmlns:xlink="http://www.w3.org/1999/xlink" width="127" height="87" viewBox="0 0 127 87"><defs><clipPath id="a"><rect width="127" height="87" transform="translate(1031 2868)" fill="none" stroke="#707070" stroke-width="1"/></clipPath><linearGradient id="b" x1="-0.241" y1="2.439" x2="1.535" y2="-1.861" gradientUnits="objectBoundingBox"><stop offset="0" stop-color="#9b8fc4"/><stop offset="1" stop-color="#251d41"/></linearGradient><linearGradient id="c" x1="-1.391" y1="2.719" x2="2.912" y2="-2.332" xlink:href="#b"/><linearGradient id="d" x1="-2.772" y1="4.945" x2="5.772" y2="-7.116" xlink:href="#b"/><linearGradient id="e" x1="-4.287" y1="7.261" x2="4.249" y2="-4.799" xlink:href="#b"/><linearGradient id="f" x1="-1.799" y1="3.226" x2="6.374" y2="-6.044" xlink:href="#b"/><linearGradient id="g" x1="-3.673" y1="5.416" x2="4.501" y2="-3.857" xlink:href="#b"/><linearGradient id="h" x1="-4.007" y1="4.19" x2="6.187" y2="-4.157" xlink:href="#b"/><linearGradient id="i" x1="-18.821" y1="11.28" x2="27.751" y2="-14.684" xlink:href="#b"/><linearGradient id="j" x1="-21.286" y1="15.518" x2="25.286" y2="-16.563" xlink:href="#b"/><linearGradient id="k" x1="-0.167" y1="16.599" x2="1.666" y2="-27.654" xlink:href="#b"/><linearGradient id="l" x1="-0.151" y1="15.662" x2="1.741" y2="-28.421" xlink:href="#b"/><linearGradient id="m" x1="-0.138" y1="14.764" x2="1.829" y2="-29.319" xlink:href="#b"/></defs><g transform="translate(-1031 -2868)" clip-path="url(#a)"><g transform="translate(1002.366 2828.895)"><path d="M144.809,102.541H40.1a2.059,2.059,0,0,1-1.954-2.734L51.2,61.367A2.059,2.059,0,0,1,53.164,60h78.545a2.075,2.075,0,0,1,1.994,1.367L146.57,99.4a2.067,2.067,0,0,1-1.793,3.1ZM42.991,98.4h98.915L130.229,64.1H54.636Z" fill="url(#b)"/><path d="M100.213,97.112A27.342,27.342,0,0,1,93.98,96.4a24.005,24.005,0,0,1-9.505-4.479,13.937,13.937,0,0,1-1.552-1.383A15.591,15.591,0,0,1,77.9,77.064C79.127,67.848,88.729,60.9,100.213,60.9s21.086,6.916,22.324,16.164a15.683,15.683,0,0,1-5.042,13.526c-.273.273-.563.531-.869.8a23.675,23.675,0,0,1-10.213,5.05,27.6,27.6,0,0,1-6.2.667Zm0-32.1C90.949,65,82.947,70.534,81.974,77.579a11.643,11.643,0,0,0,3.844,10.028A10.9,10.9,0,0,0,87,88.66a19.839,19.839,0,0,0,7.913,3.683,23.788,23.788,0,0,0,10.567,0,19.533,19.533,0,0,0,8.436-4.15c.249-.209.474-.418.692-.635a11.685,11.685,0,0,0,3.828-10.012C117.487,70.534,109.485,65,100.213,65Z" transform="translate(-7.78 -0.176)" fill="url(#c)"/><path d="M51.666,75.167a2.059,2.059,0,0,1-1.681-.869,2.083,2.083,0,0,1-.281-1.866l3.764-11.066A2.059,2.059,0,0,1,55.43,60H70.147a2.075,2.075,0,0,1,2.019,2.525C70.589,69.473,61.4,75.167,51.666,75.167ZM56.91,64.1l-2.284,6.723C60.2,70.02,64.815,67.2,66.962,64.1Z" transform="translate(-2.266 0)" fill="url(#d)"/><path d="M154.241,75.167h-.04c-9.723,0-18.914-5.694-20.491-12.682A2.075,2.075,0,0,1,135.729,60h14.709a2.075,2.075,0,0,1,1.994,1.367l3.6,10.7a2.027,2.027,0,0,1,.273,1.029,2.067,2.067,0,0,1-2.067,2.075ZM138.913,64.1c2.139,3.1,6.755,5.951,12.328,6.723L148.957,64.1Z" transform="translate(-18.728)" fill="url(#e)"/><path d="M59.228,108.095H40.1a2.059,2.059,0,0,1-1.954-2.734l5.3-15.593A2.059,2.059,0,0,1,45.4,88.36c5.557,0,10.454,2.091,13.333,5.734a14.362,14.362,0,0,1,2.517,12.384A2.075,2.075,0,0,1,59.228,108.095Zm-16.236-4.142H57.467a9.706,9.706,0,0,0-1.978-7.238,11.875,11.875,0,0,0-8.637-4.125Z" transform="translate(0 -5.553)" fill="url(#f)"/><path d="M165.55,108.1H146.4a2.075,2.075,0,0,1-2.027-1.608A14.374,14.374,0,0,1,146.893,94.1c2.911-3.635,7.768-5.726,13.317-5.726a2.067,2.067,0,0,1,1.962,1.407l5.139,15.183a2.067,2.067,0,0,1-1.793,3.1Zm-17.395-4.142h14.475l-3.876-11.4a11.964,11.964,0,0,0-8.621,4.117A9.7,9.7,0,0,0,148.156,103.955Z" transform="translate(-20.741 -5.555)" fill="url(#g)"/><path d="M103.472,90.454a10.879,10.879,0,0,1-7.833-2.919A5.517,5.517,0,0,1,94,83.385a2.069,2.069,0,1,1,4.134.209,1.5,1.5,0,0,0,.5,1.094,8.042,8.042,0,0,0,9.65,0,1.52,1.52,0,0,0,.507-1.086c0-.676-1.431-2.638-5.4-2.638-4.125,0-6.337-1.423-7.471-2.614a5.34,5.34,0,0,1-1.608-3.828c.177-3.41,4.021-5.983,9-5.983s8.846,2.573,8.983,5.983a2.07,2.07,0,0,1-4.134.217c0-.732-1.906-2.059-4.825-2.059S98.51,74.008,98.51,74.74c0,.394.949,2.083,4.906,2.083,6.691,0,9.393,4.021,9.53,6.554a5.549,5.549,0,0,1-1.608,4.166A11.085,11.085,0,0,1,103.472,90.454Z" transform="translate(-10.959 -1.672)" fill="url(#h)"/><path d="M105.2,97.8a2.067,2.067,0,0,1-2.067-2.075V92.963a2.075,2.075,0,1,1,4.142,0V95.73A2.075,2.075,0,0,1,105.2,97.8Z" transform="translate(-12.747 -6.023)" fill="url(#i)"/><path d="M105.2,71.822a2.067,2.067,0,0,1-2.067-2.067V68.323a2.075,2.075,0,1,1,4.142,0v1.431a2.075,2.075,0,0,1-2.075,2.067Z" transform="translate(-12.747 -1.198)" fill="url(#j)"/><path d="M143.714,121.534H42.387a2.067,2.067,0,1,1,0-4.133H143.714a2.067,2.067,0,1,1,0,4.134Z" transform="translate(-0.449 -11.24)" fill="url(#k)"/><path d="M142.3,131.1H44.583a2.075,2.075,0,1,1,0-4.142H142.3a2.075,2.075,0,1,1,0,4.142Z" transform="translate(-0.852 -13.111)" fill="url(#l)"/><path d="M141,140.9H46.906a2.075,2.075,0,0,1,0-4.142H141a2.075,2.075,0,1,1,0,4.142Z" transform="translate(-1.357 -15.03)" fill="url(#m)"/></g></g></svg>