<svg xmlns="http://www.w3.org/2000/svg" xmlns:xlink="http://www.w3.org/1999/xlink" width="120.502" height="147.186" viewBox="0 0 120.502 147.186"><defs><linearGradient id="a" x1="1.256" y1="-0.747" x2="-0.462" y2="2.086" gradientUnits="objectBoundingBox"><stop offset="0" stop-color="#9b8fc4"/><stop offset="1" stop-color="#251d41"/></linearGradient><linearGradient id="b" x1="3.109" y1="-3.265" x2="-3.355" y2="6.064" xlink:href="#a"/><linearGradient id="c" x1="2.319" y1="-3.838" x2="-1.357" y2="5.452" xlink:href="#a"/><linearGradient id="d" x1="1.297" y1="-0.814" x2="-0.421" y2="2.019" xlink:href="#a"/><linearGradient id="e" x1="1.675" y1="-1.438" x2="-0.042" y2="1.394" xlink:href="#a"/><linearGradient id="f" x1="0.877" y1="-0.122" x2="-0.84" y2="2.71" xlink:href="#a"/><linearGradient id="g" x1="3.262" y1="-3.487" x2="-3.202" y2="5.842" xlink:href="#a"/><linearGradient id="h" x1="2.406" y1="-4.058" x2="-1.27" y2="5.231" xlink:href="#a"/></defs><g transform="translate(1616.24 -3984.88)"><path d="M-1514.534,4103.565h-32.911a2.339,2.339,0,0,1-2.026-1.17l-16.455-28.5a2.34,2.34,0,0,1,0-2.34l16.455-28.5a2.34,2.34,0,0,1,2.026-1.169h32.911a2.342,2.342,0,0,1,2.027,1.169l16.455,28.5a2.34,2.34,0,0,1,0,2.34l-16.455,28.5A2.341,2.341,0,0,1-1514.534,4103.565Zm-31.56-4.68h30.21l15.1-26.162-15.1-26.161h-30.21l-15.1,26.161Z" fill="url(#a)"/><path d="M-1530.991,4072.659a9.375,9.375,0,0,1-9.364-9.364,9.376,9.376,0,0,1,9.364-9.366,9.377,9.377,0,0,1,9.366,9.366A9.376,9.376,0,0,1-1530.991,4072.659Zm0-14.05a4.69,4.69,0,0,0-4.684,4.686,4.689,4.689,0,0,0,4.684,4.684,4.69,4.69,0,0,0,4.686-4.684A4.691,4.691,0,0,0-1530.991,4058.609Z" fill="url(#b)"/><path d="M-1516.861,4091.41h-28.258a2.339,2.339,0,0,1-2.339-2.34,16.487,16.487,0,0,1,16.468-16.469,16.488,16.488,0,0,1,16.469,16.469A2.34,2.34,0,0,1-1516.861,4091.41Zm-25.684-4.68h23.111a11.807,11.807,0,0,0-11.556-9.449A11.807,11.807,0,0,0-1542.545,4086.73Z" fill="url(#c)"/><path d="M-1564.534,4075.063h-32.911a2.339,2.339,0,0,1-2.026-1.17l-16.455-28.5a2.34,2.34,0,0,1,0-2.34l16.455-28.5a2.34,2.34,0,0,1,2.026-1.169h32.911a2.342,2.342,0,0,1,2.027,1.169l16.455,28.5a2.34,2.34,0,0,1,0,2.34l-16.455,28.5A2.341,2.341,0,0,1-1564.534,4075.063Zm-31.56-4.68h30.21l15.1-26.161-15.1-26.161h-30.21l-15.1,26.161Z" fill="url(#d)"/><path d="M-1564.535,4072.724h-32.911l-16.455,28.5,16.455,28.5h32.911l16.455-28.5Z" fill="#867bad" opacity="0.35"/><path d="M-1514.534,3987.22h-32.911l-16.455,28.5,16.455,28.5h32.911l16.455-28.5Z" fill="#867bad" opacity="0.35"/><path d="M-1564.535,4132.066h-32.911a2.339,2.339,0,0,1-2.026-1.17l-16.455-28.5a2.34,2.34,0,0,1,0-2.34l16.455-28.5a2.342,2.342,0,0,1,2.026-1.17h32.911a2.343,2.343,0,0,1,2.027,1.17l16.455,28.5a2.34,2.34,0,0,1,0,2.34l-16.455,28.5A2.34,2.34,0,0,1-1564.535,4132.066Zm-31.56-4.68h30.21l15.1-26.161-15.1-26.162h-30.21l-15.1,26.162Z" fill="url(#e)"/><path d="M-1514.534,4046.562h-32.911a2.339,2.339,0,0,1-2.026-1.17l-16.455-28.5a2.34,2.34,0,0,1,0-2.34l16.455-28.5a2.339,2.339,0,0,1,2.026-1.17h32.911a2.341,2.341,0,0,1,2.027,1.17l16.455,28.5a2.34,2.34,0,0,1,0,2.34l-16.455,28.5A2.341,2.341,0,0,1-1514.534,4046.562Zm-31.56-4.679h30.21l15.1-26.162-15.1-26.162h-30.21l-15.1,26.162Z" fill="url(#f)"/><path d="M-1580.99,4044.158a9.375,9.375,0,0,1-9.365-9.365,9.376,9.376,0,0,1,9.365-9.365,9.377,9.377,0,0,1,9.365,9.365A9.376,9.376,0,0,1-1580.99,4044.158Zm0-14.05a4.69,4.69,0,0,0-4.685,4.685,4.69,4.69,0,0,0,4.685,4.685,4.69,4.69,0,0,0,4.685-4.685A4.691,4.691,0,0,0-1580.99,4030.108Z" fill="url(#g)"/><path d="M-1566.86,4062.908h-28.259a2.339,2.339,0,0,1-2.339-2.34,16.488,16.488,0,0,1,16.469-16.469,16.488,16.488,0,0,1,16.469,16.469A2.34,2.34,0,0,1-1566.86,4062.908Zm-25.685-4.68h23.112a11.807,11.807,0,0,0-11.556-9.449A11.808,11.808,0,0,0-1592.545,4058.228Z" fill="url(#h)"/></g></svg>