<svg xmlns="http://www.w3.org/2000/svg" xmlns:xlink="http://www.w3.org/1999/xlink" width="48.762" height="80.766" viewBox="0 0 48.762 80.766"><defs><linearGradient id="a" x1="9.967" y1="-11.59" x2="-2.214" y2="3.966" gradientUnits="objectBoundingBox"><stop offset="0" stop-color="#cf6a47"/><stop offset="1" stop-color="#68311e"/></linearGradient><linearGradient id="b" x1="1.163" y1="-0.159" x2="-0.145" y2="1.151" xlink:href="#a"/><linearGradient id="c" x1="1.502" y1="-4.822" x2="0.193" y2="1.98" xlink:href="#a"/><linearGradient id="e" x1="0.835" y1="-1.439" x2="-0.474" y2="6.681" xlink:href="#a"/><linearGradient id="f" x1="1.653" y1="-3.405" x2="-0.257" y2="3.064" xlink:href="#a"/><linearGradient id="h" x1="4.729" y1="-4.901" x2="-3.813" y2="6.008" xlink:href="#a"/><linearGradient id="i" x1="1.781" y1="-22.128" x2="-1.522" y2="36.206" xlink:href="#a"/><linearGradient id="j" x1="5.395" y1="-5.751" x2="-3.147" y2="5.158" xlink:href="#a"/><linearGradient id="k" x1="2.039" y1="-26.673" x2="-1.265" y2="31.66" xlink:href="#a"/></defs><g transform="translate(-6749.89 4428.075)"><g transform="translate(6771.654 -4355.765)"><path d="M6830.427-4163.948a2.62,2.62,0,0,1-2.617-2.617,2.622,2.622,0,0,1,2.617-2.62,2.622,2.622,0,0,1,2.62,2.62A2.621,2.621,0,0,1,6830.427-4163.948Zm0-3.84a1.223,1.223,0,0,0-1.221,1.223,1.222,1.222,0,0,0,1.221,1.221,1.224,1.224,0,0,0,1.223-1.221A1.225,1.225,0,0,0,6830.427-4167.789Z" transform="translate(-6827.81 4169.185)" fill="url(#a)"/></g><g transform="translate(6749.898 -4420.065)"><path d="M6797.976-4337.221h-47.357a.7.7,0,0,1-.7-.7v-60.152a.7.7,0,0,1,.7-.7h46.654a.7.7,0,0,1,.677-.625.691.691,0,0,1,.716.662c.006.118.009.239.009.357v60.457A.7.7,0,0,1,6797.976-4337.221Zm-46.659-1.4h45.961v-58.756h-45.961Z" transform="translate(-6749.92 4399.396)" fill="url(#b)"/></g><g transform="translate(6749.898 -4359.287)"><path d="M6793.786-4169.818h-38.978a4.893,4.893,0,0,1-4.888-4.885v-6.394a.7.7,0,0,1,.7-.7h47.357a.7.7,0,0,1,.7.7v6.394A4.892,4.892,0,0,1,6793.786-4169.818Zm-42.47-10.581v5.7a3.494,3.494,0,0,0,3.492,3.488h38.978a3.494,3.494,0,0,0,3.491-3.488v-5.7Zm22.977,7.363a2.62,2.62,0,0,1-2.617-2.617,2.621,2.621,0,0,1,2.617-2.62,2.622,2.622,0,0,1,2.62,2.62A2.622,2.622,0,0,1,6774.293-4173.036Zm0-3.84a1.224,1.224,0,0,0-1.221,1.223,1.222,1.222,0,0,0,1.221,1.221,1.224,1.224,0,0,0,1.223-1.221A1.225,1.225,0,0,0,6774.293-4176.876Z" transform="translate(-6749.92 4181.795)" fill="url(#c)"/></g><g transform="translate(6771.654 -4355.765)"><path d="M6830.427-4163.948a2.62,2.62,0,0,1-2.617-2.617,2.622,2.622,0,0,1,2.617-2.62,2.622,2.622,0,0,1,2.62,2.62A2.621,2.621,0,0,1,6830.427-4163.948Zm0-3.84a1.223,1.223,0,0,0-1.221,1.223,1.222,1.222,0,0,0,1.221,1.221,1.224,1.224,0,0,0,1.223-1.221A1.225,1.225,0,0,0,6830.427-4167.789Z" transform="translate(-6827.81 4169.185)" fill="url(#a)"/></g><g transform="translate(6749.89 -4428.075)"><path d="M6797.946-4418.042h-47.357a.7.7,0,0,1-.7-.7v-4.45a4.892,4.892,0,0,1,4.888-4.885h38.978a4.892,4.892,0,0,1,4.888,4.885v4.45A.7.7,0,0,1,6797.946-4418.042Zm-46.659-1.4h45.96v-3.751a3.494,3.494,0,0,0-3.491-3.489h-38.978a3.494,3.494,0,0,0-3.491,3.489Z" transform="translate(-6749.89 4428.075)" fill="url(#e)"/></g><g transform="translate(6757.893 -4382.003)"><path d="M6805.633-4250.534h-20.8a6.3,6.3,0,0,1-6.3-6.3,6.3,6.3,0,0,1,6.3-6.3h20.8a6.3,6.3,0,0,1,6.3,6.3A6.3,6.3,0,0,1,6805.633-4250.534Zm-20.8-11.2a4.906,4.906,0,0,0-4.9,4.9,4.905,4.905,0,0,0,4.9,4.9h20.8a4.905,4.905,0,0,0,4.9-4.9,4.906,4.906,0,0,0-4.9-4.9Z" transform="translate(-6778.54 4263.126)" fill="url(#f)"/></g><g transform="translate(6771.654 -4355.765)"><path d="M6830.427-4163.948a2.62,2.62,0,0,1-2.617-2.617,2.622,2.622,0,0,1,2.617-2.62,2.622,2.622,0,0,1,2.62,2.62A2.621,2.621,0,0,1,6830.427-4163.948Zm0-3.84a1.223,1.223,0,0,0-1.221,1.223,1.222,1.222,0,0,0,1.221,1.221,1.224,1.224,0,0,0,1.223-1.221A1.225,1.225,0,0,0,6830.427-4167.789Z" transform="translate(-6827.81 4169.185)" fill="url(#a)"/></g><g transform="translate(6758.218 -4403.597)"><path d="M6783.44-4332.968a3.738,3.738,0,0,1-3.734-3.734,3.738,3.738,0,0,1,3.734-3.734,3.738,3.738,0,0,1,3.734,3.734A3.738,3.738,0,0,1,6783.44-4332.968Zm0-6.071a2.34,2.34,0,0,0-2.337,2.337,2.34,2.34,0,0,0,2.337,2.337,2.34,2.34,0,0,0,2.337-2.337A2.34,2.34,0,0,0,6783.44-4339.04Z" transform="translate(-6779.706 4340.436)" fill="url(#h)"/></g><g transform="translate(6770.696 -4400.243)"><path d="M6842.993-4327.032h-17.914a.7.7,0,0,1-.7-.7.7.7,0,0,1,.7-.7h17.914a.7.7,0,0,1,.7.7A.7.7,0,0,1,6842.993-4327.032Z" transform="translate(-6824.381 4328.428)" fill="url(#i)"/></g><g transform="translate(6758.218 -4393.358)"><path d="M6783.44-4296.313a3.738,3.738,0,0,1-3.734-3.733,3.738,3.738,0,0,1,3.734-3.734,3.738,3.738,0,0,1,3.734,3.734A3.738,3.738,0,0,1,6783.44-4296.313Zm0-6.071a2.34,2.34,0,0,0-2.337,2.337,2.34,2.34,0,0,0,2.337,2.337,2.34,2.34,0,0,0,2.337-2.337A2.34,2.34,0,0,0,6783.44-4302.384Z" transform="translate(-6779.706 4303.781)" fill="url(#j)"/></g><g transform="translate(6770.696 -4390.003)"><path d="M6842.993-4290.371h-17.914a.7.7,0,0,1-.7-.7.7.7,0,0,1,.7-.7h17.914a.7.7,0,0,1,.7.7A.7.7,0,0,1,6842.993-4290.371Z" transform="translate(-6824.381 4291.767)" fill="url(#k)"/></g></g></svg>