<svg xmlns="http://www.w3.org/2000/svg" xmlns:xlink="http://www.w3.org/1999/xlink" width="92.339" height="152.208" viewBox="0 0 92.339 152.208"><defs><linearGradient id="a" y1="0.5" x2="1" y2="0.5" gradientUnits="objectBoundingBox"><stop offset="0" stop-color="#34a096"/><stop offset="1" stop-color="#14645d"/></linearGradient><clipPath id="e"><path d="M80.42,180.059,50.544,154.87a2.71,2.71,0,0,1-.325-3.819l5.6-6.54a2.709,2.709,0,0,1,3.818-.325l29.876,25.19a2.709,2.709,0,0,1,.325,3.819l-5.6,6.539A2.708,2.708,0,0,1,80.42,180.059Z" fill="none"/></clipPath></defs><g transform="translate(-47.581 -30.49)"><path d="M131.44,133.63h-19.5l.423-2.354a33.651,33.651,0,0,0,.519-5.936V93.6a4.492,4.492,0,0,0-8.661-1.671L94.727,115.6a4.484,4.484,0,0,1-3.236,2.723l-9.342,1.951a4.483,4.483,0,0,1-5.4-4.387V38.97a8.49,8.49,0,0,1,8.48-8.48h46.21a8.489,8.489,0,0,1,8.48,8.48v86.19A8.485,8.485,0,0,1,131.44,133.63Zm-14.8-4h14.8a4.48,4.48,0,0,0,4.48-4.47V38.97a4.485,4.485,0,0,0-4.48-4.48H85.23a4.485,4.485,0,0,0-4.48,4.48v76.921a.469.469,0,0,0,.178.373.481.481,0,0,0,.407.1l9.336-1.949a.5.5,0,0,0,.345-.3L100.5,90.446A8.493,8.493,0,0,1,116.88,93.6V125.34A38.521,38.521,0,0,1,116.642,129.63Z" fill="url(#a)"/><path d="M131.44,133.63h-19.5l.423-2.354a33.651,33.651,0,0,0,.519-5.936v-8.9h27.04v8.72A8.485,8.485,0,0,1,131.44,133.63Zm-14.8-4h14.8a4.48,4.48,0,0,0,4.48-4.47v-4.72H116.88v4.9A38.521,38.521,0,0,1,116.642,129.63Z" fill="url(#a)"/><path d="M139.92,45.684H76.754V39.367a8.486,8.486,0,0,1,8.476-8.476h46.212a8.486,8.486,0,0,1,8.478,8.476Zm-59.166-4H135.92V39.367a4.482,4.482,0,0,0-4.478-4.476H85.23a4.481,4.481,0,0,0-4.476,4.476Z" fill="url(#a)"/><path d="M89.775,172.212,57.113,144.674l3.7-6.956-.645-23.393a23.854,23.854,0,0,1,4.8-14.972L80.75,78.565v37.326a.469.469,0,0,0,.178.373.481.481,0,0,0,.407.1l9.336-1.949a.5.5,0,0,0,.345-.3L100.5,90.446A8.493,8.493,0,0,1,116.88,93.6V125.34a37.631,37.631,0,0,1-.581,6.643,38.768,38.768,0,0,1-8.561,18.328ZM62.164,143.7l27.09,22.841,15.409-18.788a34.782,34.782,0,0,0,7.7-16.465,33.678,33.678,0,0,0,.521-5.947V93.6a4.492,4.492,0,0,0-8.661-1.671L94.727,115.6a4.482,4.482,0,0,1-3.236,2.723l-9.342,1.951a4.483,4.483,0,0,1-5.4-4.387V90.454l-8.587,11.315a19.856,19.856,0,0,0-3.994,12.449l.675,24.445Z" fill="url(#a)"/><g opacity="0.26"><g clip-path="url(#e)"><rect width="0.327" height="37.803" transform="translate(49.254 143.221)" fill="#34a096"/><rect width="0.682" height="37.803" transform="translate(49.581 143.221)" fill="#34a096"/><rect width="0.682" height="37.803" transform="translate(50.262 143.221)" fill="#339f95"/><rect width="0.682" height="37.803" transform="translate(50.944 143.221)" fill="#339e94"/><rect width="0.682" height="37.803" transform="translate(51.625 143.221)" fill="#329d93"/><rect width="0.682" height="37.803" transform="translate(52.307 143.221)" fill="#329c92"/><rect width="0.682" height="37.803" transform="translate(52.989 143.221)" fill="#319b91"/><rect width="0.682" height="37.803" transform="translate(53.67 143.221)" fill="#319a90"/><rect width="0.682" height="37.803" transform="translate(54.352 143.221)" fill="#30998f"/><rect width="0.682" height="37.803" transform="translate(55.034 143.221)" fill="#30988e"/><rect width="0.682" height="37.803" transform="translate(55.715 143.221)" fill="#2f978d"/><rect width="0.682" height="37.803" transform="translate(56.397 143.221)" fill="#2f968c"/><rect width="0.682" height="37.803" transform="translate(57.078 143.221)" fill="#2e958b"/><rect width="0.682" height="37.803" transform="translate(57.76 143.221)" fill="#2d948a"/><rect width="0.682" height="37.803" transform="translate(58.442 143.221)" fill="#2d9389"/><rect width="0.682" height="37.803" transform="translate(59.123 143.221)" fill="#2c9288"/><rect width="0.682" height="37.803" transform="translate(59.805 143.221)" fill="#2c9188"/><rect width="0.682" height="37.803" transform="translate(60.486 143.221)" fill="#2b9087"/><rect width="0.682" height="37.803" transform="translate(61.168 143.221)" fill="#2b8f86"/><rect width="0.682" height="37.803" transform="translate(61.85 143.221)" fill="#2a8e85"/><rect width="0.682" height="37.803" transform="translate(62.531 143.221)" fill="#2a8d84"/><rect width="0.682" height="37.803" transform="translate(63.213 143.221)" fill="#298c83"/><rect width="0.682" height="37.803" transform="translate(63.895 143.221)" fill="#298b82"/><rect width="0.682" height="37.803" transform="translate(64.576 143.221)" fill="#288a81"/><rect width="0.682" height="37.803" transform="translate(65.258 143.221)" fill="#288980"/><rect width="0.682" height="37.803" transform="translate(65.939 143.221)" fill="#27887f"/><rect width="0.682" height="37.803" transform="translate(66.621 143.221)" fill="#26877e"/><rect width="0.682" height="37.803" transform="translate(67.303 143.221)" fill="#26867d"/><rect width="0.682" height="37.803" transform="translate(67.984 143.221)" fill="#25857c"/><rect width="0.682" height="37.803" transform="translate(68.666 143.221)" fill="#25847b"/><rect width="0.682" height="37.803" transform="translate(69.347 143.221)" fill="#24837a"/><rect width="0.682" height="37.803" transform="translate(70.029 143.221)" fill="#248179"/><rect width="0.682" height="37.803" transform="translate(70.711 143.221)" fill="#238078"/><rect width="0.682" height="37.803" transform="translate(71.392 143.221)" fill="#237f77"/><rect width="0.682" height="37.803" transform="translate(72.074 143.221)" fill="#227e76"/><rect width="0.682" height="37.803" transform="translate(72.755 143.221)" fill="#227d75"/><rect width="0.682" height="37.803" transform="translate(73.437 143.221)" fill="#217c74"/><rect width="0.682" height="37.803" transform="translate(74.119 143.221)" fill="#207b73"/><rect width="0.682" height="37.803" transform="translate(74.8 143.221)" fill="#207a72"/><rect width="0.682" height="37.803" transform="translate(75.482 143.221)" fill="#1f7971"/><rect width="0.682" height="37.803" transform="translate(76.164 143.221)" fill="#1f7870"/><rect width="0.682" height="37.803" transform="translate(76.845 143.221)" fill="#1e776f"/><rect width="0.682" height="37.803" transform="translate(77.527 143.221)" fill="#1e766e"/><rect width="0.682" height="37.803" transform="translate(78.208 143.221)" fill="#1d756d"/><rect width="0.682" height="37.803" transform="translate(78.89 143.221)" fill="#1d746c"/><rect width="0.682" height="37.803" transform="translate(79.572 143.221)" fill="#1c736b"/><rect width="0.682" height="37.803" transform="translate(80.253 143.221)" fill="#1c726b"/><rect width="0.682" height="37.803" transform="translate(80.935 143.221)" fill="#1b716a"/><rect width="0.682" height="37.803" transform="translate(81.616 143.221)" fill="#1b7069"/><rect width="0.682" height="37.803" transform="translate(82.298 143.221)" fill="#1a6f68"/><rect width="0.682" height="37.803" transform="translate(82.98 143.221)" fill="#196e67"/><rect width="0.682" height="37.803" transform="translate(83.661 143.221)" fill="#196d66"/><rect width="0.682" height="37.803" transform="translate(84.343 143.221)" fill="#186c65"/><rect width="0.682" height="37.803" transform="translate(85.025 143.221)" fill="#186b64"/><rect width="0.682" height="37.803" transform="translate(85.706 143.221)" fill="#176a63"/><rect width="0.682" height="37.803" transform="translate(86.388 143.221)" fill="#176962"/><rect width="0.682" height="37.803" transform="translate(87.069 143.221)" fill="#166861"/><rect width="0.682" height="37.803" transform="translate(87.751 143.221)" fill="#166760"/><rect width="0.682" height="37.803" transform="translate(88.433 143.221)" fill="#15665f"/><rect width="0.682" height="37.803" transform="translate(89.114 143.221)" fill="#15655e"/><rect width="0.682" height="37.803" transform="translate(89.796 143.221)" fill="#14645d"/><rect width="0.327" height="37.803" transform="translate(90.477 143.221)" fill="#14645d"/></g></g><path d="M82.158,182.7a4.674,4.674,0,0,1-3.027-1.109L49.255,156.4a4.71,4.71,0,0,1-.566-6.636L54.3,143.21a4.712,4.712,0,0,1,6.628-.553L90.8,167.847a4.71,4.71,0,0,1,.563,6.637l-5.609,6.551a4.677,4.677,0,0,1-3.193,1.646C82.43,182.692,82.294,182.7,82.158,182.7ZM57.892,145.549a.706.706,0,0,0-.544.252l-5.61,6.551a.7.7,0,0,0-.155.506.711.711,0,0,0,.249.482L81.71,178.531a.75.75,0,0,0,.517.164.7.7,0,0,0,.482-.25l5.61-6.551a.7.7,0,0,0,.156-.506.71.71,0,0,0-.25-.484L58.35,145.716A.7.7,0,0,0,57.892,145.549Z" fill="url(#a)"/></g></svg>