<svg xmlns="http://www.w3.org/2000/svg" xmlns:xlink="http://www.w3.org/1999/xlink" width="102.558" height="131.15" viewBox="0 0 102.558 131.15"><defs><linearGradient id="a" x1="1.371" y1="-0.034" x2="-0.055" y2="1.036" gradientUnits="objectBoundingBox"><stop offset="0" stop-color="#69c373"/><stop offset="1" stop-color="#205026"/></linearGradient><linearGradient id="b" x1="3.569" y1="-9.592" x2="-7.1" y2="25.491" xlink:href="#a"/><linearGradient id="c" x1="7.562" y1="-8.715" x2="-1.536" y2="3.157" xlink:href="#a"/><linearGradient id="d" x1="1.25" y1="-9.204" x2="-1.462" y2="25.878" xlink:href="#a"/><linearGradient id="e" x1="1.272" y1="-0.079" x2="-0.154" y2="0.991" xlink:href="#a"/><linearGradient id="f" x1="3.8" y1="-10.351" x2="-6.869" y2="24.732" xlink:href="#a"/><linearGradient id="g" x1="1.592" y1="-13.618" x2="-1.121" y2="21.464" xlink:href="#a"/><linearGradient id="h" x1="1.544" y1="-25.16" x2="0.117" y2="9.923" xlink:href="#a"/><linearGradient id="i" x1="1.277" y1="-0.495" x2="-0.641" y2="1.961" xlink:href="#a"/><linearGradient id="j" x1="2.748" y1="-1.075" x2="-2.896" y2="2.874" xlink:href="#a"/></defs><g transform="translate(-48.721 -34.425)"><path d="M58.174,165.575a9.662,9.662,0,0,1-9.449-9.927V72.725a2.035,2.035,0,0,1,2-2.04,1.966,1.966,0,0,1,2,1.96v83.04a5.667,5.667,0,0,0,5.507,5.891h57.863a5.663,5.663,0,0,0,5.451-5.829V44.314A5.675,5.675,0,0,0,120,40.188a5.617,5.617,0,0,0-3.955-1.764H87.134a2,2,0,0,1,0-4h28.96a9.654,9.654,0,0,1,9.449,9.927V155.685a9.661,9.661,0,0,1-9.368,9.889Z" fill="url(#a)"/><path d="M93.4,47.1H87.129a2,2,0,0,1,0-4H93.4a2,2,0,0,1,0,4Z" fill="url(#b)"/><path d="M87.129,158.933a5.911,5.911,0,1,1,6.023-5.91A5.974,5.974,0,0,1,87.129,158.933Zm0-7.82a1.913,1.913,0,1,0,2.023,1.91A1.972,1.972,0,0,0,87.129,151.113Z" fill="url(#c)"/><path d="M123.535,56.369H87.129a2,2,0,0,1,0-4h36.406a2,2,0,0,1,0,4Z" fill="url(#d)"/><path d="M58.174,165.575a9.691,9.691,0,0,1-9.448-9.952V44.314a9.654,9.654,0,0,1,9.4-9.888H87.135a2,2,0,0,1,0,4H58.174a5.657,5.657,0,0,0-5.45,5.813V155.685a5.686,5.686,0,0,0,5.492,5.891H116.1a5.666,5.666,0,0,0,5.451-5.813V72.725a2.034,2.034,0,0,1,2-2.04,1.966,1.966,0,0,1,2,1.96v83.04a9.663,9.663,0,0,1-9.393,9.889Z" fill="url(#e)"/><path d="M87.14,47.1H80.867a2,2,0,0,1,0-4H87.14a2,2,0,0,1,0,4Z" fill="url(#f)"/><path d="M87.14,56.369H50.734a2,2,0,0,1,0-4H87.14a2,2,0,0,1,0,4Z" fill="url(#g)"/><path d="M123.535,144.906H50.723a2,2,0,1,1,0-4h72.812a2,2,0,0,1,0,4Z" fill="url(#h)"/><circle cx="26.567" cy="26.567" r="26.567" transform="translate(96.144 70.375)" fill="#d2fff1"/><path d="M122.712,125.51a28.568,28.568,0,1,1,28.567-28.568A28.6,28.6,0,0,1,122.712,125.51Zm0-53.135a24.568,24.568,0,1,0,24.567,24.567A24.6,24.6,0,0,0,122.712,72.375Z" fill="url(#i)"/><path d="M121.222,113.928V109.79a17.53,17.53,0,0,1-7.4-1.872l1.307-5.1a15.37,15.37,0,0,0,7.229,1.916c2.482,0,4.181-.958,4.181-2.7,0-1.655-1.394-2.7-4.617-3.789-4.659-1.567-7.839-3.745-7.839-7.97,0-3.832,2.7-6.837,7.36-7.751V78.392h4.268v3.832a15.686,15.686,0,0,1,6.315,1.437l-1.263,4.921a14.464,14.464,0,0,0-6.271-1.48c-2.831,0-3.745,1.219-3.745,2.438,0,1.438,1.524,2.352,5.226,3.745,5.182,1.829,7.272,4.225,7.272,8.144,0,3.876-2.744,7.185-7.751,8.056v4.443Z" fill="url(#j)"/></g></svg>