<svg xmlns="http://www.w3.org/2000/svg" xmlns:xlink="http://www.w3.org/1999/xlink" width="78.878" height="130.646" viewBox="0 0 78.878 130.646"><defs><linearGradient id="a" x1="9.967" y1="-11.589" x2="-2.214" y2="3.966" gradientUnits="objectBoundingBox"><stop offset="0" stop-color="#d7805b"/><stop offset="1" stop-color="#7b4129"/></linearGradient><linearGradient id="b" x1="1.163" y1="-0.159" x2="-0.145" y2="1.151" xlink:href="#a"/><linearGradient id="c" x1="1.502" y1="-4.822" x2="0.193" y2="1.98" xlink:href="#a"/><linearGradient id="e" x1="0.835" y1="-1.439" x2="-0.474" y2="6.681" xlink:href="#a"/><linearGradient id="f" x1="1.653" y1="-3.405" x2="-0.257" y2="3.064" xlink:href="#a"/><linearGradient id="h" x1="4.729" y1="-4.901" x2="-3.813" y2="6.008" xlink:href="#a"/><linearGradient id="i" x1="1.781" y1="-22.134" x2="-1.522" y2="36.215" xlink:href="#a"/><linearGradient id="j" x1="5.395" y1="-5.751" x2="-3.147" y2="5.158" xlink:href="#a"/><linearGradient id="k" x1="2.039" y1="-26.68" x2="-1.265" y2="31.668" xlink:href="#a"/></defs><g transform="translate(35.206 116.97)"><path d="M98.969,480.707a4.236,4.236,0,1,1,4.237-4.234A4.238,4.238,0,0,1,98.969,480.707Zm0-6.213a1.977,1.977,0,1,0,1.978,1.979A1.979,1.979,0,0,0,98.969,474.494Z" transform="translate(-94.735 -472.235)" fill="url(#a)"/></g><g transform="translate(0.014 12.958)"><path d="M128.7,443.445H52.095a1.13,1.13,0,0,1-1.13-1.13v-97.3a1.13,1.13,0,0,1,1.13-1.13h75.468a1.129,1.129,0,0,1,1.094-1.011,1.117,1.117,0,0,1,1.158,1.071c.01.191.014.387.014.577v97.8A1.13,1.13,0,0,1,128.7,443.445Zm-75.476-2.259H127.57V346.143H53.224Z" transform="translate(-50.965 -342.871)" fill="url(#b)"/></g><g transform="translate(0.014 111.273)"><path d="M121.923,484.523H58.872a7.914,7.914,0,0,1-7.907-7.9V466.279a1.13,1.13,0,0,1,1.13-1.13H128.7a1.13,1.13,0,0,1,1.13,1.13v10.342A7.914,7.914,0,0,1,121.923,484.523Zm-68.7-17.115v9.213a5.652,5.652,0,0,0,5.647,5.643h63.051a5.652,5.652,0,0,0,5.647-5.643v-9.213Zm37.167,11.91a4.236,4.236,0,1,1,4.237-4.234A4.238,4.238,0,0,1,90.391,479.318Zm0-6.213a1.977,1.977,0,1,0,1.978,1.979A1.979,1.979,0,0,0,90.391,473.106Z" transform="translate(-50.965 -465.149)" fill="url(#c)"/></g><g transform="translate(35.206 116.97)"><path d="M98.969,480.707a4.236,4.236,0,1,1,4.237-4.234A4.238,4.238,0,0,1,98.969,480.707Zm0-6.213a1.977,1.977,0,1,0,1.978,1.979A1.979,1.979,0,0,0,98.969,474.494Z" transform="translate(-94.735 -472.235)" fill="url(#a)"/></g><g transform="translate(0 0)"><path d="M128.683,342.984H52.078a1.13,1.13,0,0,1-1.13-1.13v-7.2a7.914,7.914,0,0,1,7.907-7.9h63.051a7.913,7.913,0,0,1,7.907,7.9v7.2A1.13,1.13,0,0,1,128.683,342.984Zm-75.476-2.259h74.347v-6.068a5.652,5.652,0,0,0-5.648-5.644H58.855a5.652,5.652,0,0,0-5.647,5.644Z" transform="translate(-50.948 -326.755)" fill="url(#e)"/></g><g transform="translate(12.945 74.526)"><path d="M110.874,439.814H77.233a10.184,10.184,0,1,1,0-20.368h33.64a10.184,10.184,0,1,1,0,20.368Zm-33.64-18.109a7.925,7.925,0,1,0,0,15.851h33.64a7.925,7.925,0,1,0,0-15.851Z" transform="translate(-67.048 -419.446)" fill="url(#f)"/></g><g transform="translate(35.206 116.97)"><path d="M98.969,480.707a4.236,4.236,0,1,1,4.237-4.234A4.238,4.238,0,0,1,98.969,480.707Zm0-6.213a1.977,1.977,0,1,0,1.978,1.979A1.979,1.979,0,0,0,98.969,474.494Z" transform="translate(-94.735 -472.235)" fill="url(#a)"/></g><g transform="translate(13.471 39.597)"><path d="M73.743,388.083a6.04,6.04,0,1,1,6.04-6.04A6.047,6.047,0,0,1,73.743,388.083Zm0-9.821a3.781,3.781,0,1,0,3.781,3.781A3.785,3.785,0,0,0,73.743,378.261Z" transform="translate(-67.703 -376.003)" fill="url(#h)"/></g><g transform="translate(33.657 45.022)"><path d="M122.915,385.01H93.938a1.129,1.129,0,1,1,0-2.258h28.977a1.129,1.129,0,0,1,0,2.258Z" transform="translate(-92.808 -382.751)" fill="url(#i)"/></g><g transform="translate(13.471 56.158)"><path d="M73.743,408.681a6.04,6.04,0,1,1,6.04-6.04A6.047,6.047,0,0,1,73.743,408.681Zm0-9.821a3.781,3.781,0,1,0,3.781,3.781A3.785,3.785,0,0,0,73.743,398.859Z" transform="translate(-67.703 -396.601)" fill="url(#j)"/></g><g transform="translate(33.657 61.586)"><path d="M122.915,405.611H93.938a1.129,1.129,0,1,1,0-2.259h28.977a1.129,1.129,0,0,1,0,2.259Z" transform="translate(-92.808 -403.352)" fill="url(#k)"/></g></svg>