<svg xmlns="http://www.w3.org/2000/svg" xmlns:xlink="http://www.w3.org/1999/xlink" width="133.807" height="149.149" viewBox="0 0 133.807 149.149"><defs><linearGradient id="a" x1="0.976" y1="1.241" x2="-0.3" y2="0.183" gradientUnits="objectBoundingBox"><stop offset="0" stop-color="#1cabe0"/><stop offset="1" stop-color="#107aa3"/></linearGradient><linearGradient id="b" x1="1.165" y1="1.068" x2="-0.056" y2="0.026" xlink:href="#a"/><linearGradient id="c" x1="1.206" y1="13.706" x2="-0.592" y2="-19.935" xlink:href="#a"/><linearGradient id="d" x1="5.604" y1="3.628" x2="-4.181" y2="-2.369" xlink:href="#a"/><linearGradient id="e" x1="5.328" y1="2.207" x2="-4.456" y2="-1.252" xlink:href="#a"/><linearGradient id="f" x1="4.443" y1="2.74" x2="-5.342" y2="-2.82" xlink:href="#a"/><linearGradient id="g" x1="3.995" y1="2.009" x2="-5.791" y2="-2.216" xlink:href="#a"/><linearGradient id="h" x1="1.574" y1="3.013" x2="-0.386" y2="-1.355" xlink:href="#a"/><linearGradient id="i" x1="7.603" y1="21.475" x2="-3.79" y2="-12.168" xlink:href="#a"/><linearGradient id="j" x1="18.074" y1="7.636" x2="-13.052" y2="-5.003" xlink:href="#a"/><linearGradient id="k" x1="9.789" y1="17.013" x2="-9.136" y2="-16.63" xlink:href="#a"/><linearGradient id="l" x1="2.711" y1="26.195" x2="-0.184" y2="-7.446" xlink:href="#a"/><linearGradient id="m" x1="4.376" y1="21.742" x2="-1.762" y2="-11.898" xlink:href="#a"/><linearGradient id="n" x1="4.424" y1="26.144" x2="-0.724" y2="-7.497" xlink:href="#a"/><linearGradient id="o" x1="3.278" y1="22.362" x2="-0.997" y2="-11.279" xlink:href="#a"/><linearGradient id="p" x1="0.829" y1="0.856" x2="-1.881" y2="-2.073" xlink:href="#a"/><linearGradient id="q" x1="1.165" y1="1.237" x2="-3.892" y2="-5.792" xlink:href="#a"/></defs><g transform="translate(1388.024 -3768.848)"><path d="M-1298.323,3895.271l2.845,11.209h-91.634V3783.308h12.126v111.963Z" fill="#1cabe0" opacity="0.15"/><path d="M-1290.4,3909.168h-97.629v-127.25h16.13v112.031h75.681l.078,1.919a18.687,18.687,0,0,0,3.478,10.137Zm-93.629-4h86.218a22.644,22.644,0,0,1-2.167-7.219h-75.921V3785.918h-8.13Z" fill="url(#a)"/><path d="M-1296,3897.949h-79.9v-129.1h102v107.441l-2.181-.2c-.37-.034-.74-.042-1.119-.042a18.991,18.991,0,0,0-18.969,18.97c0,.267.008.532.026.8Zm-75.9-4h71.755a23,23,0,0,1,22.245-21.89v-99.211h-94Z" fill="url(#b)"/><path d="M-1292.318,3873.513h-65.277a2,2,0,0,1-2-2,2,2,0,0,1,2-2h65.277a2,2,0,0,1,2,2A2,2,0,0,1-1292.318,3873.513Z" fill="url(#c)"/><path d="M-1345.325,3873.386h-8.726a2,2,0,0,1-2-2v-18.437a2,2,0,0,1,2-2h8.726a2,2,0,0,1,2,2v18.437A2,2,0,0,1-1345.325,3873.386Zm-6.726-4h4.726v-14.437h-4.726Z" fill="url(#d)"/><path d="M-1328.837,3873.386h-8.727a2,2,0,0,1-2-2v-34.9a2,2,0,0,1,2-2h8.727a2,2,0,0,1,2,2v34.9A2,2,0,0,1-1328.837,3873.386Zm-6.727-4h4.727v-30.9h-4.727Z" fill="url(#e)"/><path d="M-1312.35,3873.386h-8.726a2,2,0,0,1-2-2v-20.2a2,2,0,0,1,2-2h8.726a2,2,0,0,1,2,2v20.2A2,2,0,0,1-1312.35,3873.386Zm-6.726-4h4.726v-16.2h-4.726Z" fill="url(#f)"/><path d="M-1295.863,3873.386h-8.725a2,2,0,0,1-2-2V3843.54a2,2,0,0,1,2-2h8.725a2,2,0,0,1,2,2v27.846A2,2,0,0,1-1295.863,3873.386Zm-6.725-4h4.725V3845.54h-4.725Z" fill="url(#g)"/><path d="M-1349.688,3844.4a7.041,7.041,0,0,1-7.033-7.033,7.041,7.041,0,0,1,7.033-7.033,7.041,7.041,0,0,1,7.033,7.033A7.041,7.041,0,0,1-1349.688,3844.4Zm0-10.066a3.036,3.036,0,0,0-3.033,3.033,3.036,3.036,0,0,0,3.033,3.033,3.036,3.036,0,0,0,3.033-3.033A3.036,3.036,0,0,0-1349.688,3834.33Zm32.975,8.3a7.041,7.041,0,0,1-7.033-7.033,7.041,7.041,0,0,1,7.033-7.033,7.041,7.041,0,0,1,7.034,7.033A7.041,7.041,0,0,1-1316.713,3842.627Zm0-10.066a3.036,3.036,0,0,0-3.033,3.033,3.036,3.036,0,0,0,3.033,3.033,3.036,3.036,0,0,0,3.034-3.033A3.036,3.036,0,0,0-1316.713,3832.561Zm16.488,2.452a7.041,7.041,0,0,1-7.034-7.033,7.041,7.041,0,0,1,7.034-7.033,7.041,7.041,0,0,1,7.033,7.033A7.041,7.041,0,0,1-1300.225,3835.013Zm0-10.066a3.036,3.036,0,0,0-3.034,3.033,3.036,3.036,0,0,0,3.034,3.033,3.036,3.036,0,0,0,3.033-3.033A3.036,3.036,0,0,0-1300.225,3824.947Zm-32.976,2.707a7.041,7.041,0,0,1-7.033-7.034,7.041,7.041,0,0,1,7.033-7.033,7.042,7.042,0,0,1,7.034,7.033A7.042,7.042,0,0,1-1333.2,3827.654Zm0-10.067a3.037,3.037,0,0,0-3.033,3.033,3.037,3.037,0,0,0,3.033,3.034,3.037,3.037,0,0,0,3.034-3.034A3.037,3.037,0,0,0-1333.2,3817.587Z" fill="url(#h)"/><rect width="10.93" height="4" transform="translate(-1346.59 3831.366) rotate(-44.604)" fill="url(#i)"/><rect width="4.001" height="10.646" transform="matrix(0.675, -0.738, 0.738, 0.675, -1330.007, 3826.209)" fill="url(#j)"/><rect width="6.58" height="4" transform="translate(-1312.632 3831.65) rotate(-25.914)" fill="url(#k)"/><path d="M-1318.58,3792.929h-39.015a2,2,0,0,1-2-2,2,2,0,0,1,2-2h39.015a2,2,0,0,1,2,2A2,2,0,0,1-1318.58,3792.929Z" fill="url(#l)"/><path d="M-1294.219,3792.929h-16.287a2,2,0,0,1-2-2,2,2,0,0,1,2-2h16.287a2,2,0,0,1,2,2A2,2,0,0,1-1294.219,3792.929Z" fill="url(#m)"/><path d="M-1337.405,3802.016h-20.19a2,2,0,0,1-2-2,2,2,0,0,1,2-2h20.19a2,2,0,0,1,2,2A2,2,0,0,1-1337.405,3802.016Z" fill="url(#n)"/><path d="M-1304.588,3802.016h-25.128a2,2,0,0,1-2-2,2,2,0,0,1,2-2h25.128a2,2,0,0,1,2,2A2,2,0,0,1-1304.588,3802.016Z" fill="url(#o)"/><path d="M-1277.19,3918a23,23,0,0,1-22.973-22.974,23,23,0,0,1,22.973-22.974,23,23,0,0,1,22.973,22.974A23,23,0,0,1-1277.19,3918Zm0-41.948a19,19,0,0,0-18.973,18.974A19,19,0,0,0-1277.19,3914a19,19,0,0,0,18.973-18.974A19,19,0,0,0-1277.19,3876.049Z" fill="url(#p)"/><path d="M-1280.74,3905.263l-7.724-7.724a2,2,0,0,1,0-2.829,2,2,0,0,1,2.828,0l4.9,4.9,12.9-12.9a2,2,0,0,1,2.828,0,2,2,0,0,1,0,2.828Z" fill="url(#q)"/></g></svg>