<svg xmlns="http://www.w3.org/2000/svg" xmlns:xlink="http://www.w3.org/1999/xlink" width="112.779" height="117.094" viewBox="0 0 112.779 117.094"><defs><clipPath id="a"><rect width="23.57" height="39.542" rx="11.785" fill="none"/></clipPath></defs><g transform="translate(-20.616 -18.282)"><path d="M15.67,0h0a15.67,15.67,0,0,1,15.67,15.67V49.8a0,0,0,0,1,0,0H0a0,0,0,0,1,0,0V15.67A15.67,15.67,0,0,1,15.67,0Z" transform="translate(20.616 85.573)" fill="#ce809d"/><path d="M15.67,0h0a15.67,15.67,0,0,1,15.67,15.67V49.8a0,0,0,0,1,0,0H0a0,0,0,0,1,0,0V15.67A15.67,15.67,0,0,1,15.67,0Z" transform="translate(102.055 85.573)" fill="#ce809d"/><path d="M15.67,0h0a15.67,15.67,0,0,1,15.67,15.67V74.546a0,0,0,0,1,0,0H0a0,0,0,0,1,0,0V15.67A15.67,15.67,0,0,1,15.67,0Z" transform="translate(61.227 60.83)" fill="#ce809d"/><rect width="23.943" height="40.169" rx="11.972" transform="translate(24.314 74.594)" fill="#70678f"/><rect width="23.943" height="40.169" rx="11.972" transform="translate(65.033 50.392)" fill="#fff"/><path d="M11.972-1A12.972,12.972,0,0,1,24.943,11.972V28.2A12.972,12.972,0,0,1,11.972,41.169,12.972,12.972,0,0,1-1,28.2V11.972A12.972,12.972,0,0,1,11.972-1Zm0,40.169A10.984,10.984,0,0,0,22.943,28.2V11.972A10.972,10.972,0,0,0,1,11.972V28.2A10.984,10.984,0,0,0,11.972,39.169Z" transform="translate(65.033 50.392)" fill="#25847b"/><g transform="translate(65.22 50.705)"><g clip-path="url(#a)"><g transform="translate(-17.735 -8.991)"><rect width="42.116" height="6.627" transform="translate(0 27.032) rotate(-39.93)" fill="#25847b"/><rect width="42.116" height="6.627" transform="translate(4.254 32.114) rotate(-39.93)" fill="#fff"/><rect width="42.116" height="6.627" transform="translate(8.507 37.196) rotate(-39.93)" fill="#25847b"/><rect width="42.116" height="6.627" transform="translate(12.761 42.278) rotate(-39.93)" fill="#fff"/><rect width="42.116" height="6.627" transform="translate(17.015 47.36) rotate(-39.93)" fill="#ce809d"/><rect width="42.116" height="6.627" transform="translate(21.269 52.442) rotate(-39.93)" fill="#fff"/><rect width="42.116" height="6.627" transform="translate(17.015 47.36) rotate(-39.93)" fill="#25847b"/></g></g></g><path d="M164.415,110.342v16.352a11.973,11.973,0,0,1-23.945-.128V110.342a11.972,11.972,0,0,1,11.976-11.97c.085,0,.163,0,.249.007a11.907,11.907,0,0,1,7.451,2.807,9.786,9.786,0,0,1,.76.689A11.933,11.933,0,0,1,164.415,110.342Z" transform="translate(-34.718 -22.91)" fill="#fff" fill-rule="evenodd"/><path d="M152.446,97.372c.087,0,.185,0,.3.008a12.987,12.987,0,0,1,8.039,3.034,10.818,10.818,0,0,1,.831.753,12.89,12.89,0,0,1,3.8,9.174v16.352s0,.007,0,.011a12.975,12.975,0,0,1-18.8,11.458,13.072,13.072,0,0,1-4.463-3.693,12.832,12.832,0,0,1-2.686-7.9V110.342a12.972,12.972,0,0,1,12.976-12.97Zm10.969,29.316V110.342a10.9,10.9,0,0,0-3.216-7.76,8.8,8.8,0,0,0-.682-.618l-.016-.013a10.98,10.98,0,0,0-6.828-2.572l-.063,0c-.044,0-.095,0-.166,0a10.985,10.985,0,0,0-10.976,10.97v16.224a10.978,10.978,0,0,0,10.976,10.976A11.011,11.011,0,0,0,163.415,126.688Z" transform="translate(-34.718 -22.91)" fill="#70678f"/><path d="M164.415,110.342v16.352a31.119,31.119,0,0,1-19.953,7.2c-.511,0-1.016-.013-1.513-.035a11.9,11.9,0,0,1-2.479-7.3V110.342a11.972,11.972,0,0,1,11.976-11.97c.085,0,.163,0,.249.007a11.907,11.907,0,0,1,7.451,2.807,9.786,9.786,0,0,1,.76.689A11.933,11.933,0,0,1,164.415,110.342Z" transform="translate(-34.718 -22.91)" fill="#70678f" fill-rule="evenodd"/><path d="M164.415,110.342V114.6a23.239,23.239,0,0,1-19.953,11.315,23.839,23.839,0,0,1-3.992-.34V110.342a11.972,11.972,0,0,1,11.976-11.97c.085,0,.163,0,.249.007a11.907,11.907,0,0,1,7.451,2.807,9.786,9.786,0,0,1,.76.689A11.933,11.933,0,0,1,164.415,110.342Z" transform="translate(-34.718 -22.91)" fill="#fff" fill-rule="evenodd"/><path d="M152.446,97.372c.087,0,.185,0,.3.008a12.987,12.987,0,0,1,8.039,3.034,10.813,10.813,0,0,1,.831.753,12.89,12.89,0,0,1,3.8,9.174V114.6a1,1,0,0,1-.142.514,24.239,24.239,0,0,1-20.811,11.8,24.98,24.98,0,0,1-4.159-.354,1,1,0,0,1-.833-.986V110.342a12.972,12.972,0,0,1,12.976-12.97Zm10.969,16.952v-3.982a10.9,10.9,0,0,0-3.216-7.76,8.792,8.792,0,0,0-.681-.618l-.016-.013a10.98,10.98,0,0,0-6.828-2.572l-.063,0c-.044,0-.095,0-.165,0a10.985,10.985,0,0,0-10.976,10.97v14.376a22.774,22.774,0,0,0,2.992.2A22.385,22.385,0,0,0,163.415,114.324Z" transform="translate(-34.718 -22.91)" fill="#70678f"/><path d="M160.217,102.67a15.762,15.762,0,0,1-19.747,15.243v-7.571a11.972,11.972,0,0,1,11.976-11.97c.085,0,.163,0,.249.007a11.907,11.907,0,0,1,7.451,2.807A14.733,14.733,0,0,1,160.217,102.67Z" transform="translate(-34.718 -22.91)" fill="#70678f" fill-rule="evenodd"/><path d="M153.746,102.67a9.283,9.283,0,0,1-9.284,9.284,9.167,9.167,0,0,1-3.992-.9v-.71a11.972,11.972,0,0,1,11.976-11.97c.085,0,.163,0,.249.007A9.175,9.175,0,0,1,153.746,102.67Z" transform="translate(-34.718 -22.91)" fill="#fff" fill-rule="evenodd"/><path d="M152.446,97.372c.1,0,.205,0,.332.011a1,1,0,0,1,.8.53,10.283,10.283,0,0,1-9.117,15.042,10.1,10.1,0,0,1-4.427-1,1,1,0,0,1-.566-.9v-.71a12.972,12.972,0,0,1,12.976-12.97Zm-7.984,13.582a8.288,8.288,0,0,0,7.6-11.576,10.986,10.986,0,0,0-10.6,10.963v.056A8.163,8.163,0,0,0,144.462,110.954Z" transform="translate(-34.718 -22.91)" fill="#70678f"/><circle cx="2.172" cy="2.172" r="2.172" transform="translate(34.113 78.991)" fill="#fff"/><circle cx="2.172" cy="2.172" r="2.172" transform="translate(27.978 84.637)" fill="#fff"/><circle cx="2.172" cy="2.172" r="2.172" transform="translate(40.9 95.931)" fill="#fff"/><circle cx="2.172" cy="2.172" r="2.172" transform="translate(31.127 93.759)" fill="#fff"/><circle cx="2.172" cy="2.172" r="2.172" transform="translate(36.285 103.789)" fill="#fff"/><circle cx="2.172" cy="2.172" r="2.172" transform="translate(38.076 87.461)" fill="#fff"/><circle cx="2.172" cy="2.172" r="2.172" transform="translate(27.544 101.617)" fill="#fff"/><path d="M48.7,57.589c-5.264,0-9.6,4.866-10.175,11.117-.58-6.25-4.922-11.117-10.186-11.117,5.264,0,9.606-4.859,10.186-11.116C39.1,52.73,43.44,57.589,48.7,57.589Z" transform="translate(-2.238 -7.876)" fill="#fff" fill-rule="evenodd"/><path d="M38.529,45.473h0a1,1,0,0,1,1,.909c.534,5.819,4.481,10.207,9.179,10.207a1,1,0,0,1,0,2c-4.7,0-8.644,4.389-9.179,10.208a1,1,0,0,1-1,.908h0a1,1,0,0,1-1-.908c-.54-5.82-4.491-10.209-9.19-10.209a1,1,0,1,1,0-2c4.7,0,8.651-4.389,9.19-10.208A1,1,0,0,1,38.529,45.473ZM44.451,57.59a12.441,12.441,0,0,1-5.923-6.765A12.458,12.458,0,0,1,32.6,57.59a11.184,11.184,0,0,1,3.335,2.541,13.707,13.707,0,0,1,2.595,4.236,13.694,13.694,0,0,1,2.59-4.236A11.171,11.171,0,0,1,44.451,57.59Z" transform="translate(-2.238 -7.876)" fill="#70678f"/><path d="M163.355,57.589c-5.264,0-9.6,4.866-10.174,11.117-.58-6.25-4.922-11.117-10.186-11.117,5.264,0,9.606-4.859,10.186-11.116C153.756,52.73,158.091,57.589,163.355,57.589Z" transform="translate(-35.45 -7.876)" fill="#fff" fill-rule="evenodd"/><path d="M153.181,45.473h0a1,1,0,0,1,1,.909c.534,5.819,4.48,10.207,9.178,10.207a1,1,0,0,1,0,2c-4.7,0-8.643,4.389-9.178,10.208a1,1,0,0,1-1,.908h0a1,1,0,0,1-1-.908c-.54-5.82-4.491-10.209-9.19-10.209a1,1,0,0,1,0-2c4.7,0,8.651-4.389,9.19-10.208A1,1,0,0,1,153.181,45.473ZM159.1,57.59a12.44,12.44,0,0,1-5.923-6.765,12.457,12.457,0,0,1-5.93,6.765,11.184,11.184,0,0,1,3.335,2.541,13.709,13.709,0,0,1,2.595,4.236,13.694,13.694,0,0,1,2.59-4.236A11.17,11.17,0,0,1,159.1,57.59Z" transform="translate(-35.45 -7.876)" fill="#70678f"/><path d="M106.029,30.4c-5.264,0-9.6,4.866-10.175,11.117C95.274,35.264,90.932,30.4,85.668,30.4c5.264,0,9.606-4.859,10.186-11.117C96.429,25.54,100.765,30.4,106.029,30.4Z" transform="translate(-18.844)" fill="#fff" fill-rule="evenodd"/><path d="M95.854,18.282h0a1,1,0,0,1,1,.909c.534,5.82,4.481,10.208,9.179,10.208a1,1,0,0,1,0,2c-4.7,0-8.644,4.389-9.179,10.208a1,1,0,0,1-1,.908h0a1,1,0,0,1-1-.908c-.54-5.82-4.491-10.209-9.19-10.209a1,1,0,0,1,0-2c4.7,0,8.651-4.389,9.19-10.209A1,1,0,0,1,95.854,18.282ZM101.776,30.4a12.441,12.441,0,0,1-5.923-6.766,12.458,12.458,0,0,1-5.93,6.766,11.186,11.186,0,0,1,3.335,2.54,13.706,13.706,0,0,1,2.595,4.236,13.693,13.693,0,0,1,2.59-4.236A11.17,11.17,0,0,1,101.776,30.4Z" transform="translate(-18.844)" fill="#70678f"/></g></svg>