<svg xmlns="http://www.w3.org/2000/svg" width="48.444" height="33.193" viewBox="0 0 48.444 33.193"><g transform="translate(0 0)"><path d="M2330,2349.732h10.317v28.607a4.576,4.576,0,0,1-1.44,3.33h34.408a3.588,3.588,0,0,0,3.726-3.4v-28.536h1.433v28.67a4.536,4.536,0,0,1-4.523,4.523h-39.336A4.533,4.533,0,0,1,2330,2378.4v-28.67Z" transform="translate(-2330 -2349.732)" fill="#fff" fill-rule="evenodd"/><rect width="12.48" height="12.48" transform="translate(14.617 14.981)" fill="#fff"/><path d="M2354.295,2375.822v-1.043a2.939,2.939,0,0,0-2.931-2.93h0a2.938,2.938,0,0,0-2.93,2.93v1.043Zm-2.931-8.786h0a1.51,1.51,0,0,1,1.505,1.505v1.072a1.509,1.509,0,0,1-1.505,1.505h0a1.509,1.509,0,0,1-1.506-1.505v-1.072A1.51,1.51,0,0,1,2351.364,2367.036Z" transform="translate(-2330.507 -2350.208)" fill="#fff" fill-rule="evenodd"/><path d="M2351.474,2362.072h-2.448l-2.523-4.868h-.042q.089,1.148.089,1.753v3.115H2344.9v-6.911h2.439l2.513,4.8h.029c-.045-.7-.066-1.255-.066-1.678v-3.125h1.663v6.911Zm5.6,0h-4.1v-6.911h4.1v1.5h-2.237v1.084h2.071v1.5h-2.071v1.307h2.237v1.52Zm8.67,0h-2.208l-.661-3.012c-.03-.126-.08-.376-.148-.752s-.118-.687-.149-.94c-.025.2-.066.46-.123.764s-.113.583-.167.839-.286,1.289-.688,3.1h-2.208l-1.71-6.911h1.8l.752,3.466q.254,1.149.35,1.829c.04-.321.113-.759.219-1.31s.2-1.008.3-1.371l.61-2.614h1.729l.59,2.614q.153.628.306,1.452t.208,1.229c.043-.35.154-.957.336-1.82l.766-3.475h1.8l-1.7,6.911Zm7.112-2.1a2.038,2.038,0,0,1-.326,1.143,2.151,2.151,0,0,1-.94.776,3.494,3.494,0,0,1-1.44.275,5.884,5.884,0,0,1-1.158-.1,4.316,4.316,0,0,1-.973-.34v-1.664a5.6,5.6,0,0,0,1.11.427,4.149,4.149,0,0,0,1.058.154,1.033,1.033,0,0,0,.61-.144.439.439,0,0,0,.194-.369.4.4,0,0,0-.079-.248.9.9,0,0,0-.25-.215q-.172-.108-.92-.445a4.426,4.426,0,0,1-1.013-.6,1.831,1.831,0,0,1-.5-.661,2.207,2.207,0,0,1-.162-.884,1.774,1.774,0,0,1,.693-1.489,3.059,3.059,0,0,1,1.91-.534,5.353,5.353,0,0,1,2.187.5l-.571,1.439a4.15,4.15,0,0,0-1.673-.444.875.875,0,0,0-.529.128.39.39,0,0,0-.166.318.456.456,0,0,0,.211.365,8.052,8.052,0,0,0,1.141.585,3.176,3.176,0,0,1,1.241.864A1.883,1.883,0,0,1,2372.853,2359.974Z" transform="translate(-2330.41 -2349.879)" fill="#fff" fill-rule="evenodd"/><rect width="12.48" height="2.496" transform="translate(29.963 14.981)" fill="#fff"/><rect width="12.48" height="2.496" transform="translate(29.963 19.973)" fill="#fff"/><rect width="12.48" height="2.496" transform="translate(29.963 24.965)" fill="#fff"/></g></svg>