<svg xmlns="http://www.w3.org/2000/svg" xmlns:xlink="http://www.w3.org/1999/xlink" width="132.405" height="104.09" viewBox="0 0 132.405 104.09">
  <defs>
    <linearGradient id="linear-gradient" x1="-12.781" y1="-9.827" x2="-12.781" y2="-9.839" gradientUnits="objectBoundingBox">
      <stop offset="0" stop-color="#c59d48"/>
      <stop offset="1" stop-color="#9d7d3a"/>
    </linearGradient>
    <linearGradient id="linear-gradient-2" x1="-18.393" y1="-15.214" x2="-18.393" y2="-15.233" xlink:href="#linear-gradient"/>
    <linearGradient id="linear-gradient-3" x1="-51.174" y1="-21.68" x2="-51.174" y2="-21.706" xlink:href="#linear-gradient"/>
  </defs>
  <g id="noun_coin_2425852" data-name="noun coin 2425852" transform="translate(-1483.856 370.215)">
    <path id="Path_14858" data-name="Path 14858" d="M1551.242-272.925a108.286,108.286,0,0,1-24.927,2.671c-23.745,0-38.324-5.932-38.324-10.185V-283.5c7.208,5.133,22.819,7.8,38.324,7.8a122.584,122.584,0,0,0,19.861-1.554,2.069,2.069,0,0,0,1.748-2.346,2.07,2.07,0,0,0-2.348-1.748c-.028.005-.056.009-.085.015a118.14,118.14,0,0,1-19.185,1.489c-23.748,0-38.323-5.921-38.323-10.179,0-1.518,2.057-3.311,5.555-4.9,6.369,5.9,23.113,8.965,39.744,8.965,2.726,0,5.457-.083,8.11-.242a2.073,2.073,0,0,0,1.931-2.191,2.123,2.123,0,0,0-2.191-1.93c-2.574.154-5.219.234-7.862.234-20.73,0-34.467-4.521-37.623-8.5-.038-.05-.064-.111-.106-.157a2.671,2.671,0,0,1-.593-1.528v-3.062c7.208,5.133,22.818,7.8,38.32,7.8q3.086,0,6.069-.131a2.074,2.074,0,0,0,1.973-2.168,2.073,2.073,0,0,0-2.167-1.975c-1.912.086-3.861.132-5.868.132-23.743,0-38.32-5.932-38.32-10.185,0-1.065,1.127-2.331,3.034-3.542a108.145,108.145,0,0,0,28.323,3.416,128.056,128.056,0,0,0,14.68-.828,2.069,2.069,0,0,0,1.844-2.272,2.07,2.07,0,0,0-2.272-1.844l-.047.006a124.133,124.133,0,0,1-14.207.789,99.8,99.8,0,0,1-27.879-3.437,2.021,2.021,0,0,0-.31-.094c-6.528-2.008-10.133-4.532-10.133-6.644v-3.054c7.208,5.133,22.819,7.817,38.323,7.817a122.594,122.594,0,0,0,19.839-1.547,2.07,2.07,0,0,0,1.6-2.453,2.069,2.069,0,0,0-2.282-1.627,118.088,118.088,0,0,1-19.156,1.492c-23.744,0-38.323-5.944-38.323-10.205,0-1.657,2.736-4.317,10.205-6.621,6.726,5.6,23.032,8.507,39.232,8.507,21.1,0,42.457-4.919,42.457-14.32v-9.577c0-9.4-21.359-14.323-42.457-14.323s-42.455,4.933-42.455,14.335v9.576a6.09,6.09,0,0,0,.527,2.336c-7.606,2.585-11.643,6.041-11.643,10.077v9.572c0,3.884,3.685,6.99,9.446,9.312a7.108,7.108,0,0,0-2.47,5.145v9.572a6.087,6.087,0,0,0,.337,1.93c-5.942,2.9-7.313,6.078-7.313,8.327v9.572c0,9.4,21.36,14.323,42.461,14.323a111.086,111.086,0,0,0,25.911-2.781,2.071,2.071,0,0,0,1.518-2.5,2.069,2.069,0,0,0-2.5-1.517Zm-13.809-63.2c-23.743,0-38.321-5.932-38.321-10.182v-3.056c7.205,5.133,22.819,7.8,38.321,7.8s31.112-2.664,38.315-7.8v3.06C1575.747-342.057,1561.174-336.126,1537.434-336.126Zm0-29.938c23.743,0,38.32,5.932,38.32,10.185s-14.58,10.181-38.32,10.181-38.324-5.932-38.324-10.182S1513.682-366.063,1537.434-366.063Z" transform="translate(0 0)" fill="url(#linear-gradient)"/>
    <path id="Path_14859" data-name="Path 14859" d="M1567.907-343.422a35,35,0,0,0-35,35,35,35,0,0,0,35,35,35,35,0,0,0,35-35v-.005A35.007,35.007,0,0,0,1567.907-343.422Zm0,65.859a30.865,30.865,0,0,1-30.867-30.859,30.863,30.863,0,0,1,30.859-30.867,30.862,30.862,0,0,1,30.867,30.859v.006A30.863,30.863,0,0,1,1567.907-277.563Z" transform="translate(13.357 7.296)" fill="url(#linear-gradient-2)"/>
    <path id="Path_14860" data-name="Path 14860" d="M1565.945-311.479V-325c4.94.628,5.63,3.435,5.7,3.817a2.068,2.068,0,0,0,2.326,1.775,2.07,2.07,0,0,0,1.776-2.327c-.038-.276-.952-6.573-9.8-7.432v-3.345a2.069,2.069,0,0,0-2.069-2.069,2.069,2.069,0,0,0-2.069,2.069h0v3.415a11.5,11.5,0,0,0-7.107,3.249,9.416,9.416,0,0,0-2.451,7.232c.363,5.818,5.029,8.5,9.541,10.124V-295.1a7.128,7.128,0,0,1-6.658-5.953,2.069,2.069,0,0,0-2.359-1.732,2.069,2.069,0,0,0-1.732,2.359c.477,3.106,2.532,8.255,10.759,9.53v4.344a2.069,2.069,0,0,0,2.069,2.069,2.069,2.069,0,0,0,2.069-2.069v-4.143a10.267,10.267,0,0,0,10.226-8.1C1577.468-307.6,1571.464-309.739,1565.945-311.479Zm-9.546-7.387a5.311,5.311,0,0,1,1.323-4.138,7.125,7.125,0,0,1,4.08-1.93v12C1557.356-314.858,1556.52-316.909,1556.4-318.867Zm15.679,19.469a6.17,6.17,0,0,1-6.132,4.56v-12.288C1570.717-305.528,1572.78-304.189,1572.077-299.4Z" transform="translate(18.29 9.705)" fill="url(#linear-gradient-3)"/>
  </g>
</svg>
