<svg xmlns="http://www.w3.org/2000/svg" xmlns:xlink="http://www.w3.org/1999/xlink" width="108.233" height="108.065" viewBox="0 0 108.233 108.065">
  <defs>
    <linearGradient id="linear-gradient" x1="-3.37" y1="-8.374" x2="-3.352" y2="-8.386" gradientUnits="objectBoundingBox">
      <stop offset="0" stop-color="#9b4a69"/>
      <stop offset="1" stop-color="#f388b0"/>
    </linearGradient>
    <linearGradient id="linear-gradient-2" x1="-2.087" y1="-5.23" x2="-2.075" y2="-5.237" xlink:href="#linear-gradient"/>
    <linearGradient id="linear-gradient-3" x1="-11.487" y1="-14.412" x2="-11.503" y2="-14.401" gradientUnits="objectBoundingBox">
      <stop offset="0" stop-color="#e27ca2"/>
      <stop offset="1" stop-color="#b25a7b"/>
    </linearGradient>
  </defs>
  <g id="noun_Money_search_2139175" data-name="noun Money search 2139175" transform="translate(174.282 946.333)">
    <g id="Group_2829" data-name="Group 2829" transform="translate(-174.282 -946.333)">
      <path id="Path_14865" data-name="Path 14865" d="M-105.356-926.831a34.946,34.946,0,0,0-49.42.44,34.946,34.946,0,0,0,0,48.98,34.946,34.946,0,0,0,49.42-.44A34.947,34.947,0,0,0-105.356-926.831Zm-2.291,47.126a31.707,31.707,0,0,1-44.84,0,31.706,31.706,0,0,1,0-44.84,31.706,31.706,0,0,1,44.84,0h0a31.6,31.6,0,0,1,.149,44.691C-107.547-879.805-107.6-879.756-107.646-879.706Z" transform="translate(174.965 947.016)" fill="url(#linear-gradient)"/>
      <path id="Path_14866" data-name="Path 14866" d="M-84.871-871a5.76,5.76,0,0,0-.983-6.875l-3.6-3.6a44.782,44.782,0,0,0-19.973-60.1,44.783,44.783,0,0,0-60.1,19.973,44.782,44.782,0,0,0,19.973,60.1,44.779,44.779,0,0,0,40.135,0l3.6,3.6a5.654,5.654,0,0,0,6.875.982l15.712,15.71a10.067,10.067,0,0,0,14.238,0,10.068,10.068,0,0,0,0-14.237h0Zm-73.969-1.143a41.542,41.542,0,0,1,0-58.749,41.541,41.541,0,0,1,58.749,0,41.543,41.543,0,0,1,0,58.749A41.581,41.581,0,0,1-158.84-872.146Zm55.313,12.109-2.947-2.946a43.293,43.293,0,0,0,15.384-15.383l2.946,2.946a2.373,2.373,0,0,1,.083,3.355c-.027.028-.054.056-.083.083l-12.11,12.109A2.715,2.715,0,0,1-103.527-860.037ZM-71.447-843.5a6.715,6.715,0,0,1-9.491,0l-15.55-15.55L-87-868.547-71.447-853A6.717,6.717,0,0,1-71.447-843.5Z" transform="translate(174.282 946.333)" fill="url(#linear-gradient-2)"/>
      <path id="Path_14874" data-name="Path 14874" d="M-129.72-903.634v-11.388c4.163.53,4.744,2.893,4.8,3.215a1.744,1.744,0,0,0,1.961,1.5,1.744,1.744,0,0,0,1.5-1.961c-.032-.233-.8-5.539-8.258-6.262v-2.818a1.743,1.743,0,0,0-1.743-1.743,1.743,1.743,0,0,0-1.743,1.743h0v2.877a9.678,9.678,0,0,0-5.987,2.738,7.929,7.929,0,0,0-2.065,6.092c.3,4.9,4.236,7.166,8.039,8.531v11.282a6,6,0,0,1-5.611-5.015,1.743,1.743,0,0,0-1.987-1.459,1.743,1.743,0,0,0-1.459,1.986c.4,2.618,2.133,6.956,9.065,8.03v3.66a1.743,1.743,0,0,0,1.743,1.743,1.743,1.743,0,0,0,1.743-1.743v-3.491a8.648,8.648,0,0,0,8.616-6.821C-120.011-900.362-125.07-902.168-129.72-903.634Zm-8.043-6.224a4.479,4.479,0,0,1,1.115-3.486,6.008,6.008,0,0,1,3.438-1.627v10.115C-136.957-906.482-137.662-908.208-137.764-909.858Zm13.21,16.4a5.2,5.2,0,0,1-5.167,3.842v-10.354C-125.7-898.619-123.961-897.492-124.553-893.455Z" transform="translate(176.584 948.006)" fill="url(#linear-gradient-3)"/>
    </g>
  </g>
</svg>
