<svg xmlns="http://www.w3.org/2000/svg" xmlns:xlink="http://www.w3.org/1999/xlink" width="96.986" height="86.187" viewBox="0 0 96.986 86.187">
  <defs>
    <linearGradient id="linear-gradient" y1="0.5" x2="1" y2="0.5" gradientUnits="objectBoundingBox">
      <stop offset="0" stop-color="#1cabe0"/>
      <stop offset="1" stop-color="#107aa3"/>
    </linearGradient>
    <linearGradient id="linear-gradient-2" x1="0" y1="0.5" x2="1" y2="0.5" xlink:href="#linear-gradient"/>
    <linearGradient id="linear-gradient-3" x1="0" y1="0.5" x2="1" y2="0.5" xlink:href="#linear-gradient"/>
    <linearGradient id="linear-gradient-4" x1="0" y1="0.5" x2="1" y2="0.5" xlink:href="#linear-gradient"/>
  </defs>
  <g id="noun_online_transaction_3570061" data-name="noun online transaction 3570061" transform="translate(1141.364 1950.252)">
    <path id="Path_13721" data-name="Path 13721" d="M-1044.378-1943.783a6.469,6.469,0,0,0-6.469-6.469H-1134.9a6.469,6.469,0,0,0-6.469,6.469h0v73.249a6.469,6.469,0,0,0,6.469,6.469h84.048a6.469,6.469,0,0,0,6.469-6.469Zm-90.517-3.621h84.048a3.537,3.537,0,0,1,3.619,3.452v6.737h-91.284v-6.672a3.535,3.535,0,0,1,3.559-3.513h.057Zm84.048,80.279H-1134.9a3.537,3.537,0,0,1-3.62-3.451v-63.783h91.282v63.722a3.536,3.536,0,0,1-3.556,3.516h-.057Z" fill="url(#linear-gradient)"/>
    <path id="Path_13722" data-name="Path 13722" d="M-1133.208-1940.559a2.154,2.154,0,0,0,2.154-2.155,2.154,2.154,0,0,0-2.154-2.154,2.154,2.154,0,0,0-2.155,2.154A2.157,2.157,0,0,0-1133.208-1940.559Zm0-2.853a.7.7,0,0,1,.7.7.7.7,0,0,1-.7.7.7.7,0,0,1-.7-.7.7.7,0,0,1,.7-.694Z" fill="url(#linear-gradient-2)"/>
    <path id="Path_13723" data-name="Path 13723" d="M-1128.064-1940.559a2.154,2.154,0,0,0,2.154-2.155,2.153,2.153,0,0,0-2.154-2.154,2.154,2.154,0,0,0-2.155,2.154v0A2.156,2.156,0,0,0-1128.064-1940.559Zm0-2.853a.7.7,0,0,1,.7.7.7.7,0,0,1-.7.7.7.7,0,0,1-.7-.7.7.7,0,0,1,.7-.694Z" fill="url(#linear-gradient-3)"/>
    <path id="Path_13724" data-name="Path 13724" d="M-1122.919-1940.559a2.154,2.154,0,0,0,2.153-2.156,2.154,2.154,0,0,0-2.155-2.153,2.154,2.154,0,0,0-2.154,2.154A2.156,2.156,0,0,0-1122.919-1940.559Zm0-2.853a.7.7,0,0,1,.7.7.7.7,0,0,1-.7.7.7.7,0,0,1-.7-.7.7.7,0,0,1,.7-.694Z" fill="url(#linear-gradient-4)"/>
    <path id="Path_13725" data-name="Path 13725" d="M-1058.241-1917.238a.7.7,0,0,0-.016-.112v-.028c-.009-.045-.021-.09-.034-.135h0c-.014-.044-.029-.087-.047-.13h0a1.282,1.282,0,0,0-.057-.119v-.007c-.019-.034-.039-.067-.061-.1a.882.882,0,0,0-.07-.1l-.024-.032c-.019-.023-.04-.045-.061-.067s-.021-.024-.032-.035v-.005l-6.724-6.637a1.426,1.426,0,0,0-2.017.013,1.46,1.46,0,0,0,.014,2.043l4.249,4.222h-18.34a19.111,19.111,0,0,0-22.794,0h-17.325a1.426,1.426,0,0,0-1.429,1.424,1.426,1.426,0,0,0,1.424,1.428h14.243a18.438,18.438,0,0,0-4.648,12.441,18.869,18.869,0,0,0,4.634,12.417h-15.252l4.249-4.167a1.41,1.41,0,0,0,.023-1.994l-.009-.01a1.427,1.427,0,0,0-2.017-.006l-6.724,6.64h0a1.423,1.423,0,0,0-.414.873.7.7,0,0,1-.005.1v.038h0a1.358,1.358,0,0,0,.008.143.7.7,0,0,0,.016.113v.027a1.115,1.115,0,0,0,.034.134h0a1.41,1.41,0,0,0,.1.251v.008c.018.035.04.069.061.1a.953.953,0,0,0,.065.09.367.367,0,0,0,.028.037l.061.069c.01.011.02.023.031.034v.005l6.723,6.636a1.426,1.426,0,0,0,2.017-.012,1.46,1.46,0,0,0-.013-2.044l-4.248-4.221h18.326a19.113,19.113,0,0,0,22.8,0h17.324a1.426,1.426,0,0,0,1.424-1.429,1.426,1.426,0,0,0-1.424-1.424h-14.23a18.44,18.44,0,0,0,4.649-12.44,18.877,18.877,0,0,0-4.634-12.418h15.253l-4.25,4.168a1.418,1.418,0,0,0,0,2.005,1.417,1.417,0,0,0,2.006,0h0l6.723-6.637h0a1.42,1.42,0,0,0,.414-.872.71.71,0,0,1,.005-.1v-.039h0A1.127,1.127,0,0,0-1058.241-1917.238Zm-24.9,27.087a16.267,16.267,0,0,1-22.767-3.3,16.268,16.268,0,0,1,3.3-22.768,16.267,16.267,0,0,1,22.768,3.3,16.27,16.27,0,0,1,3.233,9.734A16.265,16.265,0,0,1-1083.138-1890.151Z" fill="url(#linear-gradient)"/>
    <path id="Path_14876" data-name="Path 14876" d="M-1091.234-1904.212v-5.606c2.049.261,2.336,1.424,2.364,1.584a.858.858,0,0,0,.953.752.859.859,0,0,0,.752-.953l0-.028c-.015-.115-.4-2.726-4.065-3.082v-1.387a.858.858,0,0,0-.828-.888.858.858,0,0,0-.888.828.545.545,0,0,0,0,.06v1.416a4.771,4.771,0,0,0-2.949,1.344,3.906,3.906,0,0,0-1.013,3c.15,2.413,2.086,3.527,3.957,4.2v5.556a2.957,2.957,0,0,1-2.762-2.469.858.858,0,0,0-.954-.751.86.86,0,0,0-.751.955c0,.018.005.037.009.056.2,1.288,1.05,3.424,4.462,3.953v1.8a.859.859,0,0,0,.888.828.858.858,0,0,0,.828-.828v-1.715a4.259,4.259,0,0,0,4.241-3.359C-1086.455-1902.6-1088.945-1903.49-1091.234-1904.212Zm-3.96-3.063a2.2,2.2,0,0,1,.549-1.716,2.951,2.951,0,0,1,1.694-.8v4.979C-1094.8-1905.613-1095.144-1906.463-1095.194-1907.275Zm6.5,8.073a2.56,2.56,0,0,1-2.544,1.888v-5.092C-1089.255-1901.743-1088.4-1901.187-1088.69-1899.2Z" fill="url(#linear-gradient)"/>
  </g>
</svg>
