<svg xmlns="http://www.w3.org/2000/svg" xmlns:xlink="http://www.w3.org/1999/xlink" width="136.68" height="129.681" viewBox="0 0 136.68 129.681"><defs><linearGradient id="a" x1="1.203" y1="-0.206" x2="-0.358" y2="1.311" gradientUnits="objectBoundingBox"><stop offset="0" stop-color="#9b8fc4"/><stop offset="1" stop-color="#251d41"/></linearGradient><linearGradient id="b" x1="2.145" y1="-1.05" x2="-2.718" y2="3.531" xlink:href="#a"/><linearGradient id="c" x1="1.853" y1="-1.637" x2="-0.83" y2="3.056" xlink:href="#a"/><linearGradient id="d" x1="2.494" y1="-2.821" x2="-0.189" y2="1.872" xlink:href="#a"/><linearGradient id="e" x1="3.346" y1="-2.181" x2="-1.517" y2="2.4" xlink:href="#a"/><linearGradient id="f" x1="3.038" y1="-1.891" x2="-1.825" y2="2.69" xlink:href="#a"/><linearGradient id="g" x1="2.346" y1="-2.497" x2="-0.337" y2="2.194" xlink:href="#a"/></defs><g transform="translate(571.127 3520.791)"><g opacity="0.2"><path d="M-468.677-3451.47a12.176,12.176,0,0,1-3.56-8.58v-8.65a12.1,12.1,0,0,1,1.98-6.62,23.686,23.686,0,0,0-14.04-4.64,23.567,23.567,0,0,0-10.23,2.34,23.5,23.5,0,0,0-8.2,6.55,23.635,23.635,0,0,0-18.44-8.89,23.574,23.574,0,0,0-14.11,4.71,12.136,12.136,0,0,1,1.94,6.55v8.65a12.187,12.187,0,0,1-11.47,12.13v5.92a23.707,23.707,0,0,1,22.97,23.62v2.83a23.551,23.551,0,0,1,2.3-2.68,23.644,23.644,0,0,1,16.7-6.95,23.629,23.629,0,0,1,19.1,9.77v-2.97a23.678,23.678,0,0,1,6.94-16.7,23.64,23.64,0,0,1,16.14-6.93v-5.91A12.118,12.118,0,0,1-468.677-3451.47Zm-22.02,8.27a12.18,12.18,0,0,1-12.14,12.15,12.142,12.142,0,0,1-8.58-3.57,12.143,12.143,0,0,1-3.57-8.58v-8.65a12.187,12.187,0,0,1,12.15-12.14,12.172,12.172,0,0,1,12.14,12.14Zm6.4-75.59a12.18,12.18,0,0,0-12.14,12.15v8.65a12.135,12.135,0,0,0,3.56,8.57,12.143,12.143,0,0,0,8.58,3.57,12.18,12.18,0,0,0,12.15-12.14v-8.65A12.189,12.189,0,0,0-484.3-3518.79Zm-36.88,0a12.18,12.18,0,0,0-12.14,12.15v8.65a12.135,12.135,0,0,0,3.56,8.57,12.143,12.143,0,0,0,8.58,3.57,12.18,12.18,0,0,0,12.15-12.14v-8.65A12.189,12.189,0,0,0-521.177-3518.79Z" fill="#9b8fc4" fill-rule="evenodd"/></g><path d="M-481.737-3409.25l-3.618-4.985a21.746,21.746,0,0,0-17.487-8.945,21.58,21.58,0,0,0-15.281,6.364,21.675,21.675,0,0,0-2.105,2.453l-3.609,4.893v-8.91A21.612,21.612,0,0,0-544.868-3440l-1.939-.06v-9.748l1.885-.109a10.2,10.2,0,0,0,9.585-10.139v-8.645a10.139,10.139,0,0,0-1.62-5.464l-1.012-1.565,1.49-1.119a25.46,25.46,0,0,1,15.3-5.111,25.5,25.5,0,0,1,18.447,7.856,25.688,25.688,0,0,1,7.332-5.317,25.68,25.68,0,0,1,11.1-2.539,25.579,25.579,0,0,1,15.23,5.033l1.521,1.126-1.04,1.581a10.1,10.1,0,0,0-1.651,5.528v8.642a10.154,10.154,0,0,0,2.977,7.169,10.145,10.145,0,0,0,6.7,2.963l1.9.09v9.768l-1.949.049a21.626,21.626,0,0,0-14.779,6.347,21.612,21.612,0,0,0-6.352,15.289Zm-21.106-17.93a25.773,25.773,0,0,1,17.2,6.669,25.579,25.579,0,0,1,7.432-15.982,25.621,25.621,0,0,1,15.556-7.393v-2.257a14.128,14.128,0,0,1-7.434-3.913l0,0a14.127,14.127,0,0,1-4.143-9.984v-8.658a14.173,14.173,0,0,1,1.343-6,21.619,21.619,0,0,0-11.411-3.263,21.664,21.664,0,0,0-9.353,2.141,21.629,21.629,0,0,0-7.5,5.992l-1.562,1.969-1.567-1.964a21.535,21.535,0,0,0-16.881-8.138,21.491,21.491,0,0,0-11.486,3.329,14.179,14.179,0,0,1,1.319,5.923v8.658a14.212,14.212,0,0,1-11.47,13.89v2.292a25.575,25.575,0,0,1,22.87,23.262A25.545,25.545,0,0,1-502.843-3427.18Zm18.552-56.67a14.1,14.1,0,0,1-10-4.156,14.074,14.074,0,0,1-4.146-9.978v-8.656a14.218,14.218,0,0,1,14.134-14.151h.012a14.224,14.224,0,0,1,14.145,14.145v8.656A14.219,14.219,0,0,1-484.291-3483.85Zm-.006-32.941a10.208,10.208,0,0,0-10.14,10.157v8.644a10.1,10.1,0,0,0,2.974,7.156,10.121,10.121,0,0,0,7.172,2.984A10.2,10.2,0,0,0-474.146-3498v-8.644A10.213,10.213,0,0,0-484.3-3516.791Zm-36.874,32.941a14.1,14.1,0,0,1-10-4.156,14.072,14.072,0,0,1-4.146-9.977v-8.657a14.218,14.218,0,0,1,14.134-14.151h.012a14.222,14.222,0,0,1,14.144,14.145v8.656A14.217,14.217,0,0,1-521.171-3483.85Zm-.006-32.941a10.207,10.207,0,0,0-10.14,10.157v8.644a10.1,10.1,0,0,0,2.974,7.156,10.12,10.12,0,0,0,7.172,2.984A10.2,10.2,0,0,0-511.027-3498v-8.644A10.211,10.211,0,0,0-521.177-3516.791Z" fill="url(#a)"/><path d="M-460.091-3445.9c-.236,0-.466-.011-.685-.024a14.12,14.12,0,0,1-9.315-4.132,14.13,14.13,0,0,1-4.146-9.987v-8.658a14.087,14.087,0,0,1,2.309-7.718,14.107,14.107,0,0,1,11.826-6.421,14.217,14.217,0,0,1,14.155,14.133v8.657A14.221,14.221,0,0,1-460.091-3445.9Zm-.012-32.94a10.114,10.114,0,0,0-8.477,4.611,10.11,10.11,0,0,0-1.657,5.537v8.642a10.152,10.152,0,0,0,2.977,7.169,10.141,10.141,0,0,0,6.7,2.963c.166.009.315.018.465.018a10.21,10.21,0,0,0,10.15-10.156v-8.642A10.2,10.2,0,0,0-460.1-3478.84Z" fill="url(#b)"/><path d="M-434.447-3407.96h-47.7l-.492-1.286a21.122,21.122,0,0,0-2.714-4.979l-.388-.528v-3.627a25.6,25.6,0,0,1,7.524-18.113,25.613,25.613,0,0,1,17.505-7.516c.158-.01.384-.011.611-.011a25.78,25.78,0,0,1,25.65,25.634Zm-44.985-4h40.985v-6.417A21.771,21.771,0,0,0-460.1-3440.02c-.149,0-.3,0-.446.007a21.664,21.664,0,0,0-14.836,6.349,21.612,21.612,0,0,0-6.352,15.289v2.325A25.027,25.027,0,0,1-479.432-3411.96Z" fill="url(#c)"/><path d="M-523.532-3407.96h-47.6v-10.42a25.56,25.56,0,0,1,7.536-18.114,25.552,25.552,0,0,1,18.109-7.526c.274,0,.534,0,.793.023a25.6,25.6,0,0,1,24.852,25.611v3.5l-.4.532a21.192,21.192,0,0,0-2.806,5.108Zm-43.6-4h40.885a25.088,25.088,0,0,1,2.405-4.24v-2.177A21.614,21.614,0,0,0-544.868-3440l-.123-.008c-.16-.015-.32-.012-.486-.012a21.583,21.583,0,0,0-15.286,6.354,21.583,21.583,0,0,0-6.364,15.291Z" fill="url(#d)"/><path d="M-545.477-3445.9a14.1,14.1,0,0,1-9.994-4.156,14.1,14.1,0,0,1-4.156-9.988v-8.657a14.216,14.216,0,0,1,14.145-14.139,14.125,14.125,0,0,1,11.886,6.507,14.136,14.136,0,0,1,2.259,7.625v8.658a14.2,14.2,0,0,1-13.354,14.127C-544.962-3445.911-545.214-3445.9-545.477-3445.9Zm0-32.94a10.2,10.2,0,0,0-10.146,10.145v8.645a10.118,10.118,0,0,0,2.984,7.166,10.118,10.118,0,0,0,7.172,2.984c.191,0,.378-.009.567-.018a10.192,10.192,0,0,0,9.567-10.138v-8.639a10.138,10.138,0,0,0-1.62-5.47A10.141,10.141,0,0,0-545.481-3478.84Z" fill="url(#e)"/><path d="M-502.831-3429.05a14.1,14.1,0,0,1-10-4.157,14.09,14.09,0,0,1-4.156-9.987v-8.656a14.23,14.23,0,0,1,14.144-14.14h.012a14.21,14.21,0,0,1,14.134,14.134v8.655A14.216,14.216,0,0,1-502.831-3429.05Zm-.006-32.94a10.219,10.219,0,0,0-10.15,10.149v8.64a10.115,10.115,0,0,0,2.984,7.166,10.122,10.122,0,0,0,7.172,2.985,10.2,10.2,0,0,0,10.134-10.157v-8.643A10.2,10.2,0,0,0-502.837-3461.99Z" fill="url(#f)"/><path d="M-477.2-3391.11h-51.28v-10.421a25.546,25.546,0,0,1,1.7-9.148,25.182,25.182,0,0,1,3.334-6.069,25.567,25.567,0,0,1,2.488-2.9,25.56,25.56,0,0,1,18.108-7.536,25.762,25.762,0,0,1,20.724,10.6,25.187,25.187,0,0,1,3.221,5.909,25.562,25.562,0,0,1,1.7,9.137Zm-47.28-4h43.28v-6.417a21.566,21.566,0,0,0-1.436-7.715,21.147,21.147,0,0,0-2.716-4.983,21.748,21.748,0,0,0-17.493-8.955,21.58,21.58,0,0,0-15.281,6.364,21.675,21.675,0,0,0-2.105,2.453,21.26,21.26,0,0,0-2.812,5.118,21.611,21.611,0,0,0-1.437,7.721Z" fill="url(#g)"/></g></svg>