<svg xmlns="http://www.w3.org/2000/svg" xmlns:xlink="http://www.w3.org/1999/xlink" width="132.482" height="128.569" viewBox="0 0 132.482 128.569"><defs><linearGradient id="a" x1="3.42" y1="3.576" x2="-1.185" y2="-1.063" gradientUnits="objectBoundingBox"><stop offset="0" stop-color="#d8805a"/><stop offset="1" stop-color="#7b4129"/></linearGradient><linearGradient id="b" x1="3.941" y1="1.407" x2="-3.997" y2="-0.685" xlink:href="#a"/><linearGradient id="c" x1="2.074" y1="1.63" x2="-0.84" y2="-0.462" xlink:href="#a"/><linearGradient id="d" x1="6.734" y1="1.435" x2="-7.218" y2="-0.657" xlink:href="#a"/><linearGradient id="e" x1="4.941" y1="4.602" x2="-9.011" y2="-8.285" xlink:href="#a"/><linearGradient id="f" x1="3.611" y1="3.769" x2="-0.993" y2="-0.87" xlink:href="#a"/><linearGradient id="g" x1="12.938" y1="40.868" x2="-5.114" y2="-17.718" xlink:href="#a"/><linearGradient id="h" x1="11.167" y1="35.119" x2="-6.885" y2="-23.467" xlink:href="#a"/><linearGradient id="i" x1="3.36" y1="3.496" x2="-1.76" y2="-2.158" xlink:href="#a"/><linearGradient id="j" x1="9.057" y1="4.63" x2="-4.018" y2="-1.68" xlink:href="#a"/><linearGradient id="k" x1="2.783" y1="2.705" x2="-1.09" y2="-0.753" xlink:href="#a"/><linearGradient id="l" x1="14.49" y1="14.741" x2="-7.459" y2="-7.601" xlink:href="#a"/></defs><g transform="translate(2497.859 937.605)"><g transform="translate(-2454.518 -937.605)"><g transform="translate(28.285 0.415)"><path d="M-2373.151-893.823a1.715,1.715,0,0,1-1.714-1.714v-20.156a18.02,18.02,0,0,0-18-18,18.02,18.02,0,0,0-18,18v20.156a1.715,1.715,0,0,1-1.714,1.714,1.715,1.715,0,0,1-1.714-1.714v-20.156a21.452,21.452,0,0,1,21.428-21.428,21.452,21.452,0,0,1,21.428,21.428v20.156A1.715,1.715,0,0,1-2373.151-893.823Z" transform="translate(2414.293 937.121)" fill="url(#a)"/></g><g transform="translate(64.284 32.571)"><rect width="21.428" height="92.569" transform="translate(1.714 1.714)" fill="#fff"/><path d="M-2349.151-803.607h-21.428a1.715,1.715,0,0,1-1.714-1.714v-92.569a1.714,1.714,0,0,1,1.714-1.714h21.428a1.714,1.714,0,0,1,1.714,1.714v92.569A1.715,1.715,0,0,1-2349.151-803.607Zm-19.714-3.428h18v-89.141h-18Z" transform="translate(2372.293 899.605)" fill="url(#b)"/></g><g transform="translate(0 32.571)"><rect width="64.284" height="92.569" transform="translate(1.714 1.714)" fill="#fff"/><path d="M-2381.294-803.607h-64.284a1.715,1.715,0,0,1-1.714-1.714v-92.569a1.714,1.714,0,0,1,1.714-1.714h64.284a1.714,1.714,0,0,1,1.714,1.714v92.569A1.715,1.715,0,0,1-2381.294-803.607Zm-62.57-3.428h60.856v-89.141h-60.856Z" transform="translate(2447.293 899.605)" fill="url(#c)"/></g><g transform="translate(64.284 32.571)"><path d="M-2370.293-805.036l10.714-12.046v-80.523" transform="translate(2372.007 899.319)" fill="#fff"/><path d="M-2370.579-803.607a1.707,1.707,0,0,1-1.139-.434,1.714,1.714,0,0,1-.142-2.42l10.281-11.559v-79.871a1.714,1.714,0,0,1,1.714-1.714,1.714,1.714,0,0,1,1.714,1.714v80.522a1.713,1.713,0,0,1-.433,1.139l-10.714,12.047A1.714,1.714,0,0,1-2370.579-803.607Z" transform="translate(2372.293 899.605)" fill="url(#d)"/></g><g transform="translate(74.998 112.981)"><path d="M-2347.364-790.2a1.711,1.711,0,0,1-1.287-.581l-10.714-12.158a1.715,1.715,0,0,1,.152-2.421,1.715,1.715,0,0,1,2.419.153l10.714,12.159a1.714,1.714,0,0,1-.153,2.42A1.708,1.708,0,0,1-2347.364-790.2Z" transform="translate(2359.793 805.79)" fill="url(#e)"/></g><g transform="translate(8.259)"><g transform="translate(3.74)"><path d="M-2392.151-894.307a1.715,1.715,0,0,1-1.714-1.714v-20.156a18.02,18.02,0,0,0-18-18,18.02,18.02,0,0,0-18,18v20.156a1.715,1.715,0,0,1-1.714,1.714,1.715,1.715,0,0,1-1.714-1.714v-20.156a21.453,21.453,0,0,1,21.428-21.428,21.452,21.452,0,0,1,21.428,21.428v20.156A1.715,1.715,0,0,1-2392.151-894.307Z" transform="translate(2433.293 937.605)" fill="url(#f)"/></g><g transform="translate(0 39.87)"><path d="M-2428.44-887.66h-7.5a1.714,1.714,0,0,1-1.714-1.714,1.714,1.714,0,0,1,1.714-1.714h7.5a1.714,1.714,0,0,1,1.714,1.714A1.715,1.715,0,0,1-2428.44-887.66Z" transform="translate(2437.657 891.089)" fill="url(#g)"/></g><g transform="translate(39.428 39.87)"><path d="M-2382.44-887.66h-7.5a1.714,1.714,0,0,1-1.714-1.714,1.714,1.714,0,0,1,1.714-1.714h7.5a1.714,1.714,0,0,1,1.714,1.714A1.715,1.715,0,0,1-2382.44-887.66Z" transform="translate(2391.657 891.089)" fill="url(#h)"/></g></g><g transform="translate(14.161 61.718)"><path d="M-2411.5-830.071a1.706,1.706,0,0,1-1.212-.5l-14.546-14.546a12.013,12.013,0,0,1,0-16.969,12.016,12.016,0,0,1,15.758-1.061,12.019,12.019,0,0,1,15.758,1.061h0a12.013,12.013,0,0,1,0,16.969l-14.546,14.546A1.706,1.706,0,0,1-2411.5-830.071Zm-7.273-32.1a8.545,8.545,0,0,0-6.062,2.506,8.582,8.582,0,0,0,0,12.122l13.334,13.334,13.334-13.334a8.582,8.582,0,0,0,0-12.122,8.582,8.582,0,0,0-12.122,0,1.714,1.714,0,0,1-2.424,0A8.544,8.544,0,0,0-2418.777-862.171Z" transform="translate(2430.771 865.599)" fill="url(#i)"/></g></g><g transform="translate(-2497.859 -875.895)"><g transform="translate(0 26.246)"><path d="M-2484.2-806.258l-11.664,1.676v-28.4h11.664Z" transform="translate(2497.573 834.701)" fill="#fff"/><path d="M-2496.145-803.153a1.716,1.716,0,0,1-1.123-.419,1.714,1.714,0,0,1-.591-1.3v-28.405a1.714,1.714,0,0,1,1.714-1.714h11.664a1.715,1.715,0,0,1,1.714,1.714v26.729a1.713,1.713,0,0,1-1.47,1.7l-11.664,1.677A1.668,1.668,0,0,1-2496.145-803.153Zm11.664-3.391h0Zm-9.949-25.014v24.713l8.235-1.185v-23.528Z" transform="translate(2497.859 834.987)" fill="url(#j)"/></g><g transform="translate(11.666)"><path d="M-2438.951-834.327l-.375.007a4.218,4.218,0,0,1,4.063,4.223,4.225,4.225,0,0,1-4.222,4.229c-.72,0,.592.32,0,0l-2.146.067a4.224,4.224,0,0,1,3.49,4.163,4.231,4.231,0,0,1-4.229,4.229c-.513,0,.452.173,0,0l-2.653.287c1.585.606,2.541,3.053,2.541,3.943a4.226,4.226,0,0,1-4.23,4.223,3.754,3.754,0,0,1-.679-.06l1.2.06h-24.1a17.379,17.379,0,0,1-5.611-.933l-6.351-3.035v-24.441A11.928,11.928,0,0,0-2470.8-843.7c3.127-5.592,7.543-9.09,7.674-12.754a61.379,61.379,0,0,0-.1-7.051s6.72-1.649,6.72,8.35c0,5.192-2.226,12.367-2.226,12.367h19.779a4.231,4.231,0,0,1,4.229,4.229,4.227,4.227,0,0,1-4.229,4.23C-2439.731-834.327-2438.325-833.955-2438.951-834.327Z" transform="translate(2483.962 865.322)" fill="#fff"/><path d="M-2446.472-807.529h-24.1a19.1,19.1,0,0,1-6.1-1,1.694,1.694,0,0,1-.248-.1l-6.351-3.035a1.716,1.716,0,0,1-.975-1.547v-24.441a1.715,1.715,0,0,1,.584-1.288,1.727,1.727,0,0,1,1.353-.411,10.17,10.17,0,0,0,9.734-5.471,49.966,49.966,0,0,1,4.1-6c1.768-2.314,3.293-4.312,3.352-5.982a60.544,60.544,0,0,0-.1-6.834,1.715,1.715,0,0,1,1.3-1.82,6.943,6.943,0,0,1,5.632,1.251c2.131,1.671,3.212,4.62,3.212,8.764a46.658,46.658,0,0,1-1.678,10.653h17.516a5.95,5.95,0,0,1,5.943,5.944,5.931,5.931,0,0,1-2.049,4.486,5.932,5.932,0,0,1,1.509,3.973,5.953,5.953,0,0,1-3.666,5.492,5.942,5.942,0,0,1,.788,2.967,5.953,5.953,0,0,1-5.059,5.878,6.431,6.431,0,0,1,.719,2.581,5.951,5.951,0,0,1-4.827,5.833A1.72,1.72,0,0,1-2446.472-807.529Zm-29.093-4.251a15.5,15.5,0,0,0,4.993.823h22.448a1.854,1.854,0,0,1,.533-.058l.867.044a2.515,2.515,0,0,0,2.243-2.494,3.775,3.775,0,0,0-1.44-2.342,1.715,1.715,0,0,1-1.088-1.821,1.714,1.714,0,0,1,1.516-1.484l2.427-.262a2.356,2.356,0,0,1,.41-.034,2.517,2.517,0,0,0,2.515-2.515,2.5,2.5,0,0,0-2.071-2.475,1.713,1.713,0,0,1-1.415-1.809,1.715,1.715,0,0,1,1.658-1.593l2.046-.063a.431.431,0,0,1,.152,0h0a2.515,2.515,0,0,0,2.506-2.515,2.5,2.5,0,0,0-1.648-2.364,2.231,2.231,0,0,1-.848-.075,2.386,2.386,0,0,1-.472-.185,1.715,1.715,0,0,1-1.094-1.614,1.713,1.713,0,0,1,1.683-1.7l.315-.005.091,0a2.517,2.517,0,0,0,2.515-2.515,2.517,2.517,0,0,0-2.515-2.516h-19.779a1.716,1.716,0,0,1-1.38-.7,1.716,1.716,0,0,1-.257-1.526c.021-.069,2.15-6.993,2.15-11.859,0-2.971-.647-5.06-1.871-6.044a3.121,3.121,0,0,0-1.32-.617c.05,1.268.081,3.134,0,5.423-.1,2.76-1.931,5.16-4.052,7.94a47.092,47.092,0,0,0-3.837,5.589,13.534,13.534,0,0,1-11.234,7.23v21.628Z" transform="translate(2484.248 865.608)" fill="url(#k)"/></g><g transform="translate(3.05 44.41)"><path d="M-2489.8-804.806a4.5,4.5,0,0,1-4.5-4.5,4.5,4.5,0,0,1,4.5-4.495,4.5,4.5,0,0,1,4.495,4.495A4.5,4.5,0,0,1-2489.8-804.806Zm0-5.562a1.068,1.068,0,0,0-1.067,1.066,1.068,1.068,0,0,0,1.067,1.067,1.068,1.068,0,0,0,1.066-1.067A1.067,1.067,0,0,0-2489.8-810.367Z" transform="translate(2494.3 813.796)" fill="url(#l)"/></g></g></g></svg>