<svg xmlns="http://www.w3.org/2000/svg" xmlns:xlink="http://www.w3.org/1999/xlink" width="137.329" height="109.723" viewBox="0 0 137.329 109.723"><defs><linearGradient id="a" x1="13.234" y1="-1.484" x2="-11.871" y2="2.427" gradientUnits="objectBoundingBox"><stop offset="0" stop-color="#1cabe0"/><stop offset="1" stop-color="#107aa3"/></linearGradient><linearGradient id="b" x1="1.095" y1="-3.049" x2="0.031" y2="3.298" xlink:href="#a"/><linearGradient id="c" x1="8.573" y1="-7.391" x2="-0.501" y2="1.479" xlink:href="#a"/><linearGradient id="d" x1="6.485" y1="-5.35" x2="-2.589" y2="3.519" xlink:href="#a"/><linearGradient id="e" x1="4.397" y1="-3.309" x2="-4.677" y2="5.56" xlink:href="#a"/><linearGradient id="f" x1="14.537" y1="-3.049" x2="-10.568" y2="3.298" xlink:href="#a"/><linearGradient id="g" x1="1.361" y1="-14.075" x2="-0.793" y2="22.383" xlink:href="#a"/><linearGradient id="h" x1="5.814" y1="-2.446" x2="-5.911" y2="4.054" xlink:href="#a"/><linearGradient id="i" x1="4.827" y1="-0.884" x2="-6.895" y2="2.865" xlink:href="#a"/><linearGradient id="j" x1="4.454" y1="-1.532" x2="-7.269" y2="4.493" xlink:href="#a"/><linearGradient id="k" x1="3.642" y1="-0.727" x2="-8.083" y2="3.852" xlink:href="#a"/></defs><g transform="translate(-23.687 -41.257)"><g transform="translate(89.644 85.058)"><path d="M98.771,128.738a2.708,2.708,0,0,1-2.708-2.707V97.465a2.708,2.708,0,1,1,5.416,0v28.565A2.707,2.707,0,0,1,98.771,128.738Z" transform="translate(-96.063 -94.757)" fill="url(#a)"/></g><g transform="translate(28.471 105.695)"><path d="M153.99,138.342a2.708,2.708,0,0,1-2.708-2.708V122.819H34.353v12.815a2.708,2.708,0,1,1-5.416,0V120.11a2.708,2.708,0,0,1,2.708-2.708H153.99a2.708,2.708,0,0,1,2.708,2.708v15.523A2.708,2.708,0,0,1,153.99,138.342Z" transform="translate(-28.937 -117.402)" fill="url(#b)"/></g><g transform="translate(23.687 135.995)"><path d="M31.18,165.636a7.492,7.492,0,1,1,7.492-7.492A7.5,7.5,0,0,1,31.18,165.636Zm0-9.568a2.076,2.076,0,1,0,2.076,2.076A2.079,2.079,0,0,0,31.18,156.068Z" transform="translate(-23.687 -150.651)" fill="url(#c)"/></g><g transform="translate(84.86 135.995)"><path d="M98.306,165.636a7.492,7.492,0,1,1,7.491-7.492A7.5,7.5,0,0,1,98.306,165.636Zm0-9.568a2.076,2.076,0,1,0,2.075,2.076A2.079,2.079,0,0,0,98.306,156.068Z" transform="translate(-90.813 -150.651)" fill="url(#d)"/></g><g transform="translate(146.032 135.995)"><path d="M165.431,165.636a7.492,7.492,0,1,1,7.492-7.492A7.5,7.5,0,0,1,165.431,165.636Zm0-9.568a2.076,2.076,0,1,0,2.076,2.076A2.078,2.078,0,0,0,165.431,156.068Z" transform="translate(-157.939 -150.651)" fill="url(#e)"/></g><g transform="translate(89.644 105.695)"><path d="M98.771,138.342a2.708,2.708,0,0,1-2.708-2.708V120.11a2.708,2.708,0,1,1,5.416,0v15.523A2.708,2.708,0,0,1,98.771,138.342Z" transform="translate(-96.063 -117.402)" fill="url(#f)"/></g><g transform="translate(58.077 73.18)"><path d="M122.735,79.932H63.247a1.823,1.823,0,0,1,0-3.645h59.489a1.823,1.823,0,0,1,0,3.645Z" transform="translate(-61.424 -76.287)" fill="url(#g)"/></g><g transform="translate(61.308 56.264)"><path d="M74.743,78.171H66.792a1.822,1.822,0,0,1-1.823-1.823v-16.8a1.822,1.822,0,0,1,1.823-1.823h7.951a1.822,1.822,0,0,1,1.823,1.823v16.8A1.822,1.822,0,0,1,74.743,78.171Zm-6.129-3.645H72.92V61.369H68.614Z" transform="translate(-64.969 -57.724)" fill="url(#h)"/></g><g transform="translate(76.333 41.257)"><path d="M91.232,76.711H83.279a1.823,1.823,0,0,1-1.823-1.823V43.08a1.823,1.823,0,0,1,1.823-1.823h7.953a1.823,1.823,0,0,1,1.823,1.823V74.888A1.823,1.823,0,0,1,91.232,76.711ZM85.1,73.065h4.308V44.9H85.1Z" transform="translate(-81.456 -41.257)" fill="url(#i)"/></g><g transform="translate(91.357 54.655)"><path d="M107.719,78.015H99.766a1.823,1.823,0,0,1-1.823-1.823V57.782a1.823,1.823,0,0,1,1.823-1.823h7.953a1.823,1.823,0,0,1,1.823,1.823v18.41A1.823,1.823,0,0,1,107.719,78.015Zm-6.13-3.645H105.9V59.6h-4.308Z" transform="translate(-97.943 -55.959)" fill="url(#j)"/></g><g transform="translate(106.384 47.688)"><path d="M124.206,77.337h-7.951a1.822,1.822,0,0,1-1.823-1.823V50.137a1.823,1.823,0,0,1,1.823-1.823h7.951a1.823,1.823,0,0,1,1.823,1.823V75.514A1.822,1.822,0,0,1,124.206,77.337Zm-6.129-3.645h4.306V51.959h-4.306Z" transform="translate(-114.432 -48.314)" fill="url(#k)"/></g></g></svg>