<svg xmlns="http://www.w3.org/2000/svg" xmlns:xlink="http://www.w3.org/1999/xlink" width="154.566" height="150" viewBox="0 0 154.566 150"><defs><linearGradient id="a" y1="0.5" x2="1" y2="0.5" gradientUnits="objectBoundingBox"><stop offset="0" stop-color="#69c373"/><stop offset="1" stop-color="#205026"/></linearGradient><linearGradient id="g" y1="0.5" y2="0.5" xlink:href="#a"/></defs><g transform="translate(287.566 -325)"><path d="M-156,376a2,2,0,0,1-2-2V350.484a21.024,21.024,0,0,0-21-21,21.024,21.024,0,0,0-21,21V374a2,2,0,0,1-2,2,2,2,0,0,1-2-2V350.484a25.028,25.028,0,0,1,25-25,25.028,25.028,0,0,1,25,25V374A2,2,0,0,1-156,376Z" fill="url(#a)"/><rect width="25" height="108" transform="translate(-160 365)" fill="#fff"/><path d="M-135,475h-25a2,2,0,0,1-2-2V365a2,2,0,0,1,2-2h25a2,2,0,0,1,2,2V473A2,2,0,0,1-135,475Zm-23-4h21V367h-21Z" fill="url(#a)"/><rect width="75" height="108" transform="translate(-235 365)" fill="#fff"/><path d="M-160,475h-75a2,2,0,0,1-2-2V365a2,2,0,0,1,2-2h75a2,2,0,0,1,2,2V473A2,2,0,0,1-160,475Zm-73-4h71V367h-71Z" fill="url(#a)"/><path d="M-160,473l12.5-14.054V365" fill="none" stroke="#707070" stroke-miterlimit="10" stroke-width="1"/><path d="M-160,475a1.991,1.991,0,0,1-1.329-.506,2,2,0,0,1-.166-2.823l11.995-13.486V365a2,2,0,0,1,2-2,2,2,0,0,1,2,2v93.945a2,2,0,0,1-.505,1.329l-12.5,14.055A2,2,0,0,1-160,475Z" fill="url(#a)"/><path d="M-135,475a1.992,1.992,0,0,1-1.5-.678L-149,460.137a2,2,0,0,1,.178-2.824,2,2,0,0,1,2.822.179l12.5,14.186a2,2,0,0,1-.178,2.823A1.992,1.992,0,0,1-135,475Z" fill="url(#a)"/><path d="M-175,375.516a2,2,0,0,1-2-2V350a21.024,21.024,0,0,0-21-21,21.024,21.024,0,0,0-21,21v23.516a2,2,0,0,1-2,2,2,2,0,0,1-2-2V350a25.028,25.028,0,0,1,25-25,25.028,25.028,0,0,1,25,25v23.516A2,2,0,0,1-175,375.516Z" fill="url(#a)"/><path d="M-216.611,375.516h-8.753a2,2,0,0,1-2-2,2,2,0,0,1,2-2h8.753a2,2,0,0,1,2,2A2,2,0,0,1-216.611,375.516Z" fill="url(#g)"/><path d="M-170.611,375.516h-8.753a2,2,0,0,1-2-2,2,2,0,0,1,2-2h8.753a2,2,0,0,1,2,2A2,2,0,0,1-170.611,375.516Z" fill="url(#g)"/><path d="M-198,438.456a1.99,1.99,0,0,1-1.414-.586L-216.385,420.9a14.016,14.016,0,0,1,0-19.8A14.02,14.02,0,0,1-198,399.863a14.022,14.022,0,0,1,18.385,1.238h0a14.016,14.016,0,0,1,0,19.8l-16.971,16.971A1.99,1.99,0,0,1-198,438.456Zm-8.485-37.451a9.969,9.969,0,0,0-7.072,2.924,10.013,10.013,0,0,0,0,14.142L-198,433.628l15.557-15.557a10.013,10.013,0,0,0,0-14.142,10.013,10.013,0,0,0-14.143,0,2,2,0,0,1-2.828,0A9.969,9.969,0,0,0-206.485,401.005Z" fill="url(#a)"/><path d="M-271.958,460.8l-13.608,1.956v-33.14h13.608Z" fill="#fff"/><path d="M-285.566,464.758a2.006,2.006,0,0,1-1.31-.488,2,2,0,0,1-.69-1.512v-33.14a2,2,0,0,1,2-2h13.608a2,2,0,0,1,2,2V460.8a2,2,0,0,1-1.715,1.979l-13.609,1.956A1.948,1.948,0,0,1-285.566,464.758Zm13.608-3.956h0Zm-11.608-29.184V460.45l9.608-1.382v-27.45Z" fill="url(#a)"/><path d="M-221.441,433.158l-.437.008a4.921,4.921,0,0,1,4.74,4.927,4.93,4.93,0,0,1-4.926,4.934c-.84,0,.691.373,0,0l-2.5.078a4.928,4.928,0,0,1,4.072,4.857,4.937,4.937,0,0,1-4.934,4.935c-.6,0,.528.2,0,0l-3.1.334c1.849.707,2.965,3.562,2.965,4.6a4.93,4.93,0,0,1-4.935,4.927,4.378,4.378,0,0,1-.792-.07l1.4.07H-258a20.25,20.25,0,0,1-6.546-1.088l-7.409-3.541V429.615a13.918,13.918,0,0,0,13.361-7.391c3.648-6.524,8.8-10.6,8.953-14.88a71.626,71.626,0,0,0-.119-8.226s7.84-1.924,7.84,9.742c0,6.058-2.6,14.429-2.6,14.429h23.076a4.937,4.937,0,0,1,4.934,4.934,4.932,4.932,0,0,1-4.934,4.935C-222.351,433.158-220.711,433.593-221.441,433.158Z" fill="#fff"/><path d="M-229.882,464.758H-258a22.281,22.281,0,0,1-7.119-1.172,1.873,1.873,0,0,1-.289-.111l-7.409-3.541a2,2,0,0,1-1.138-1.8V429.614a2,2,0,0,1,.681-1.5,2.015,2.015,0,0,1,1.578-.48,11.866,11.866,0,0,0,11.357-6.383,58.229,58.229,0,0,1,4.788-7c2.062-2.7,3.842-5.031,3.911-6.979a70.549,70.549,0,0,0-.112-7.973,2,2,0,0,1,1.515-2.124,8.1,8.1,0,0,1,6.57,1.459c2.487,1.95,3.748,5.39,3.748,10.225a54.426,54.426,0,0,1-1.958,12.429h20.436a6.942,6.942,0,0,1,6.934,6.935,6.919,6.919,0,0,1-2.391,5.234,6.92,6.92,0,0,1,1.76,4.635,6.945,6.945,0,0,1-4.277,6.407,6.932,6.932,0,0,1,.92,3.462,6.945,6.945,0,0,1-5.9,6.858,7.5,7.5,0,0,1,.839,3.011,6.943,6.943,0,0,1-5.632,6.8A2,2,0,0,1-229.882,464.758Zm-33.943-4.96a18.079,18.079,0,0,0,5.825.96h26.19a2.165,2.165,0,0,1,.622-.068l1.012.051a2.934,2.934,0,0,0,2.617-2.91c-.037-.587-.869-2.423-1.68-2.732a2,2,0,0,1-1.269-2.125,2,2,0,0,1,1.769-1.732l2.832-.3a2.652,2.652,0,0,1,.478-.041,2.937,2.937,0,0,0,2.934-2.934,2.921,2.921,0,0,0-2.416-2.888,2,2,0,0,1-1.651-2.111,2,2,0,0,1,1.934-1.858l2.387-.073a.5.5,0,0,1,.177-.005h0a2.934,2.934,0,0,0,2.925-2.934,2.917,2.917,0,0,0-1.922-2.758,2.606,2.606,0,0,1-.99-.088,2.774,2.774,0,0,1-.551-.216,2,2,0,0,1-1.277-1.883,2,2,0,0,1,1.964-1.982l.367-.006.106,0a2.937,2.937,0,0,0,2.934-2.934,2.937,2.937,0,0,0-2.934-2.935h-23.076a2,2,0,0,1-1.61-.813,2,2,0,0,1-.3-1.78c.025-.08,2.508-8.159,2.508-13.836,0-3.465-.755-5.9-2.183-7.051a3.641,3.641,0,0,0-1.54-.72c.058,1.48.1,3.656,0,6.327-.114,3.22-2.253,6.021-4.728,9.263a54.869,54.869,0,0,0-4.477,6.521,15.792,15.792,0,0,1-13.107,8.435v25.233Z" fill="url(#a)"/><path d="M-278.762,459.3a5.251,5.251,0,0,1-5.245-5.245,5.25,5.25,0,0,1,5.245-5.244,5.249,5.249,0,0,1,5.244,5.244A5.25,5.25,0,0,1-278.762,459.3Zm0-6.489a1.246,1.246,0,0,0-1.245,1.244,1.246,1.246,0,0,0,1.245,1.245,1.246,1.246,0,0,0,1.244-1.245A1.245,1.245,0,0,0-278.762,452.809Z" fill="url(#a)"/></g></svg>