<svg xmlns="http://www.w3.org/2000/svg" xmlns:xlink="http://www.w3.org/1999/xlink" width="99.8" height="88.13" viewBox="0 0 99.8 88.13"><defs><linearGradient id="a" x1="0.834" y1="0.151" x2="0" y2="0.935" gradientUnits="objectBoundingBox"><stop offset="0" stop-color="#1cabe0"/><stop offset="1" stop-color="#107aa3"/></linearGradient></defs><g transform="translate(0 0)"><path d="M.788,78A3.976,3.976,0,0,0,4,79.647H61.387c.058,0,.109-.029.167-.033A18.419,18.419,0,1,0,91.277,58.475c.017-.042.054-.071.067-.113l7.774-22.726a12.7,12.7,0,0,0,.731-4.133,9.281,9.281,0,0,0-1.587-5.332,8.5,8.5,0,0,0-4.3-3.211,10.756,10.756,0,0,0-3.678-.605H85.532V18.067a9.446,9.446,0,0,0-9.148-9.482h-33.1L38.761,2.945a3.957,3.957,0,0,0-3.094-1.5H9.193a9.151,9.151,0,0,0-9.144,9.14V75.238a1.58,1.58,0,0,0,.1.468A3.842,3.842,0,0,0,.788,78Zm77.066,8.233A15.135,15.135,0,1,1,92.989,71.1,15.151,15.151,0,0,1,77.854,86.232ZM92.86,26.113a5.2,5.2,0,0,1,2.66,1.962A5.986,5.986,0,0,1,96.5,31.5a9.377,9.377,0,0,1-.547,3.048L88.572,56.108A18.306,18.306,0,0,0,60.209,76.3H4a.609.609,0,0,1-.5-.251.617.617,0,0,1-.075-.559l13.6-39.723a15.284,15.284,0,0,1,5.407-7.11A13.825,13.825,0,0,1,30.49,25.7H90.279A7.435,7.435,0,0,1,92.86,26.113ZM9.193,4.79H35.668a.6.6,0,0,1,.48.234L41.175,11.3a1.671,1.671,0,0,0,1.307.626h33.9a6.14,6.14,0,0,1,5.808,6.142v4.284H30.49a17.188,17.188,0,0,0-10.054,3.632,18.667,18.667,0,0,0-6.576,8.709L3.393,65.285V10.59A5.805,5.805,0,0,1,9.193,4.79Z" transform="translate(-0.049 -1.446)" fill="url(#a)"/><path d="M33.649,17.169l-9.666,9.661h-.063c-.15,0-.514,0-.53,0l-4.284-4.28a1.668,1.668,0,1,0-2.355,2.363l4.28,4.28a3.76,3.76,0,0,0,5.319,0l9.666-9.661a1.672,1.672,0,0,0-2.367-2.363Z" transform="translate(51.425 46.928)" fill="url(#a)"/></g></svg>