<svg xmlns="http://www.w3.org/2000/svg" width="139" height="77.654" viewBox="0 0 139 77.654"><g transform="translate(-163 -5186)"><circle cx="36.5" cy="36.5" r="36.5" transform="translate(163 5189)" fill="#ededed" opacity="0.8"/><circle cx="21.5" cy="21.5" r="21.5" transform="translate(259 5186)" fill="#ededed" opacity="0.8"/><g transform="translate(160.087 4883.407)"><g transform="translate(47.23 331.122)"><path d="M82.333,323.564,40.9,325.558a67.021,67.021,0,0,0-7.635-1.209l1.576,18.1c4.564-2,5.644-6.979,5.644-6.979l43.038-8.534Z" transform="translate(-33.269 -321.165)" fill="#ffa69c"/><path d="M59.739,324.669l1.249-.009,1.922-2.389a.963.963,0,0,1,.248,1.1l-.487,1.129,5.633-.176a.371.371,0,0,1,.032.741l-2.938.15,3.4.437a.384.384,0,0,1-.065.764l-3.492-.139,2.977.931a.346.346,0,0,1-.174.669l-3.014-.63,2.057.964a.354.354,0,0,1-.23.665l-4.727-1-1.2.156Z" transform="translate(-10.675 -322.27)" fill="#ffa69c"/></g><path d="M76.529,324.269l1.655-1.57a2.523,2.523,0,0,0,3.131-.412c1.939-1.828.51-3.34.51-3.34l3.6-6.3c.271-.593-.411-1.014-.9-.552L73.988,320.97Z" transform="translate(48.718 0)" fill="#ffa69c"/><path d="M41.052,368.1l.86,1.238a13.281,13.281,0,0,0,11.2,5.7l2.767-.059a13.29,13.29,0,0,0,9.146-3.922c5.763-5.8,15.885-17.34,17.75-28.51,0,0,12.92-2.9,22.2-22.749l-2.871-3.025L53.4,355.266Z" transform="translate(20.605 4.159)" fill="#cf7f9d"/><path d="M76.741,325.352l1.689-1.533a2.521,2.521,0,0,0,3.138-.345c1.98-1.787.582-3.329.582-3.329l3.737-6.219c.284-.589-.389-1.023-.886-.573L74.27,322Z" transform="translate(48.959 1.082)" fill="#ffcec8"/><path d="M31.94,341.525l8.558,9.807,14.247-10.591L43.1,325.666S43.208,341,31.94,341.525Z" transform="translate(12.827 11.75)" fill="#ce809d"/><path d="M50.8,333.8l6.429,6.934L44.327,354.355l-7.77-9.964Z" transform="translate(16.768 18.693)" fill="#ffcec8"/><path d="M40.749,367.916l.832,1.257a13.288,13.288,0,0,0,11.071,5.943h2.769a13.283,13.283,0,0,0,9.227-3.726c5.885-5.674,16.254-17,18.358-28.124,0,0,12.977-2.625,22.68-22.267l-2.8-3.086L54.686,353.2Z" transform="translate(20.346 5.132)" fill="#ce809d"/><path d="M34.96,343.033l-4.2-4.315a6.657,6.657,0,0,1-1.831-3.766l-.467-3.5a6.612,6.612,0,0,1,6.69-7.546,33.882,33.882,0,0,1,10.586,2.6l41.392,2.7.8,3.483L44.208,336.3S41.95,343.033,34.96,343.033Z" transform="translate(9.807 10.242)" fill="#ffcec8"/><path d="M60.085,327.692l1.24.132,2.18-2.158a.965.965,0,0,1,.122,1.127l-.61,1.068,5.616.46a.371.371,0,0,1-.054.74l-2.936-.182,3.329.817a.384.384,0,0,1-.152.753l-3.453-.534,2.853,1.26a.347.347,0,0,1-.248.647l-2.925-.968,1.937,1.19a.354.354,0,0,1-.3.636L62.1,331.156l-1.207.019Z" transform="translate(36.851 11.75)" fill="#ffcec8"/><g transform="translate(16.913 316.606)"><path d="M24.628,320.576a7.066,7.066,0,0,0,.339,3.88,1.021,1.021,0,0,0,.417.517l10.328,6.33a2.45,2.45,0,0,0,.843.324,2.537,2.537,0,0,0,3-2.754l-.8-7.7a6.69,6.69,0,0,0-.417-1.785A7.19,7.19,0,0,0,33,314.891a7.036,7.036,0,0,0-2.971.059A7.168,7.168,0,0,0,24.628,320.576Z" transform="translate(-10.437 -314.165)" fill="#ffcec8"/><path d="M19.2,341.994c.951-.321,2.254-.078,2.751-.951.458-.806-.263-1.781-.241-2.71.03-1.177,1.229-1.972,2.36-2.3,1.368-.4,3.136-.512,3.9-1.918a4.512,4.512,0,0,0-.007-3.273c-.68-2.578-1.722-5.6-1.008-8.269.658-2.469,2.9-4.273,5.042-5.5a24.316,24.316,0,0,1,6.426-2.463,5.694,5.694,0,0,1,3.9.41c5.038,2.569,4.836,6.975,4.836,6.975l-9.5,3.941c11.463,6.869,2.678,23.47,1.957,24.757l-22.708-5.218C17.263,344.067,17.831,342.456,19.2,341.994Z" transform="translate(-16.913 -314.439)" fill="#1eb5f0"/><path d="M30.14,321.341c.588.817,1.414,1.231.753,1.705s-2.556.834-3.146.015a1.681,1.681,0,0,1,.13-2.343A1.68,1.68,0,0,1,30.14,321.341Z" transform="translate(-8.012 -309.277)" fill="#ffcec8"/></g></g></g></svg>