<svg xmlns="http://www.w3.org/2000/svg" xmlns:xlink="http://www.w3.org/1999/xlink" width="124.53" height="113.515" viewBox="0 0 124.53 113.515"><defs><linearGradient id="a" x1="1.208" y1="-31.638" x2="-0.138" y2="29.479" gradientUnits="objectBoundingBox"><stop offset="0" stop-color="#d7805b"/><stop offset="1" stop-color="#7b4129"/></linearGradient><linearGradient id="b" x1="1.051" y1="-0.525" x2="-0.082" y2="1.531" xlink:href="#a"/><linearGradient id="c" x1="0.887" y1="-1.744" x2="-0.246" y2="5.015" xlink:href="#a"/><linearGradient id="d" x1="1.266" y1="-0.996" x2="0.134" y2="1.178" xlink:href="#a"/><linearGradient id="e" x1="1.129" y1="-33.466" x2="-0.003" y2="27.652" xlink:href="#a"/><linearGradient id="f" x1="1.093" y1="-2.976" x2="-0.04" y2="3.787" xlink:href="#a"/><linearGradient id="h" x1="6.298" y1="-6.215" x2="-6.362" y2="8.447" xlink:href="#a"/><linearGradient id="i" x1="5.782" y1="-5.617" x2="-6.877" y2="9.044" xlink:href="#a"/><linearGradient id="j" x1="5.266" y1="-5.02" x2="-7.393" y2="9.641" xlink:href="#a"/><linearGradient id="k" x1="3.931" y1="-3.473" x2="-0.69" y2="1.879" xlink:href="#a"/><linearGradient id="l" x1="4.436" y1="-4.889" x2="-0.183" y2="1.435" xlink:href="#a"/><linearGradient id="m" x1="2.708" y1="-4.015" x2="-0.385" y2="2.309" xlink:href="#a"/><linearGradient id="n" x1="5.602" y1="-3.29" x2="-2.911" y2="3.034" xlink:href="#a"/><linearGradient id="o" x1="1.645" y1="-2.866" x2="-0.39" y2="3.116" xlink:href="#a"/></defs><g transform="translate(-2576.675 -552.667)"><g transform="translate(2593.719 601.284)"><rect width="90.441" height="2.306" rx="1.153" fill="url(#a)"/></g><g transform="translate(2593.719 567.5)"><path d="M2699.041,639.7h-11.835a1.129,1.129,0,0,1-1.129-1.128V606.1a1.115,1.115,0,0,1,.019-.2V591.76a3.146,3.146,0,0,0-3.124-3.123h-83.95a1.128,1.128,0,0,1-1.129-1.129V572.262a1.128,1.128,0,0,1,1.129-1.129H2704.25a1.128,1.128,0,0,1,1.129,1.129v60.8A6.5,6.5,0,0,1,2699.041,639.7Zm-10.706-2.257h10.706a4.247,4.247,0,0,0,4.08-4.387V573.389h-102.97V586.38h82.826a5.41,5.41,0,0,1,5.375,5.376V606.1a1.124,1.124,0,0,1-.018.2Z" transform="translate(-2597.894 -571.133)" fill="url(#b)"/></g><g transform="translate(2593.72 552.667)"><path d="M2704.252,573.523a1.128,1.128,0,0,1-1.128-1.129V558.06a3.118,3.118,0,0,0-3.095-3.136h-96.625a1.119,1.119,0,0,1-.127.007,3.123,3.123,0,0,0-3.125,3.133v14.331a1.129,1.129,0,0,1-2.257,0V558.067a5.38,5.38,0,0,1,5.238-5.391,1.065,1.065,0,0,1,.144-.01h96.758a5.377,5.377,0,0,1,5.345,5.4v14.328A1.128,1.128,0,0,1,2704.252,573.523Z" transform="translate(-2597.896 -552.667)" fill="url(#c)"/></g><g transform="translate(2576.675 601.334)"><path d="M2677.822,678.1h-94.814a6.343,6.343,0,0,1-6.333-6.338V614.384a1.128,1.128,0,0,1,1.128-1.128h105.228a1.128,1.128,0,0,1,1.129,1.128v57.383A6.345,6.345,0,0,1,2677.822,678.1Zm-98.89-62.592v56.254a4.083,4.083,0,0,0,4.075,4.08h94.814a4.085,4.085,0,0,0,4.08-4.08V615.512Z" transform="translate(-2576.675 -613.256)" fill="url(#d)"/></g><g transform="translate(2576.675 601.284)"><rect width="107.484" height="2.306" rx="1.153" fill="url(#e)"/></g><g transform="translate(2576.675 582.746)"><path d="M2683.049,610.959a1.151,1.151,0,0,1-.333-.049H2577.8a1.128,1.128,0,0,1-1.128-1.129V595.5a5.386,5.386,0,0,1,5.365-5.38H2678.8a5.41,5.41,0,0,1,5.375,5.376V609.83A1.129,1.129,0,0,1,2683.049,610.959Zm-104.116-2.306h102.989V595.5a3.147,3.147,0,0,0-3.124-3.128h-96.756a3.124,3.124,0,0,0-3.109,3.123Z" transform="translate(-2576.675 -590.115)" fill="url(#f)"/></g><g transform="translate(2576.675 601.284)"><rect width="107.484" height="2.306" rx="1.153" fill="url(#e)"/></g><g transform="translate(2642.707 588.337)"><path d="M2663.69,606.69a4.807,4.807,0,1,1,4.807-4.807A4.813,4.813,0,0,1,2663.69,606.69Zm0-7.358a2.55,2.55,0,1,0,2.551,2.55A2.553,2.553,0,0,0,2663.69,599.332Z" transform="translate(-2658.883 -597.075)" fill="url(#h)"/></g><g transform="translate(2654.32 588.337)"><path d="M2678.147,606.69a4.807,4.807,0,1,1,4.807-4.807A4.812,4.812,0,0,1,2678.147,606.69Zm0-7.358a2.55,2.55,0,1,0,2.55,2.55A2.553,2.553,0,0,0,2678.147,599.332Z" transform="translate(-2673.34 -597.075)" fill="url(#i)"/></g><g transform="translate(2665.929 588.337)"><path d="M2692.6,606.69a4.807,4.807,0,1,1,4.807-4.807A4.813,4.813,0,0,1,2692.6,606.69Zm0-7.358a2.55,2.55,0,1,0,2.55,2.55A2.553,2.553,0,0,0,2692.6,599.332Z" transform="translate(-2687.794 -597.075)" fill="url(#j)"/></g><g transform="translate(2584.355 606.791)"><path d="M2599.405,646.388a13.169,13.169,0,1,1,13.169-13.169A13.184,13.184,0,0,1,2599.405,646.388Zm0-24.081a10.912,10.912,0,1,0,10.912,10.912A10.924,10.924,0,0,0,2599.405,622.307Z" transform="translate(-2586.236 -620.05)" fill="url(#k)"/></g><g transform="translate(2584.355 635.831)"><path d="M2611.458,678.493h-24.094a1.128,1.128,0,0,1-1.128-1.129V657.333a1.128,1.128,0,0,1,1.128-1.129h24.094a1.128,1.128,0,0,1,1.129,1.129v20.032A1.128,1.128,0,0,1,2611.458,678.493Zm-22.965-2.257h21.837V658.46h-21.837Z" transform="translate(-2586.236 -656.204)" fill="url(#l)"/></g><g transform="translate(2617.24 635.831)"><path d="M2665.4,678.493h-37.091a1.129,1.129,0,0,1-1.129-1.129V657.333a1.129,1.129,0,0,1,1.129-1.129H2665.4a1.129,1.129,0,0,1,1.128,1.129v20.032A1.129,1.129,0,0,1,2665.4,678.493Zm-35.962-2.257h34.834V658.46h-34.834Z" transform="translate(-2627.177 -656.204)" fill="url(#m)"/></g><g transform="translate(2662.442 635.831)"><path d="M2696.621,678.493h-12.04a1.129,1.129,0,0,1-1.129-1.129V657.333a1.129,1.129,0,0,1,1.129-1.129h12.04a1.128,1.128,0,0,1,1.129,1.129v20.032A1.128,1.128,0,0,1,2696.621,678.493Zm-10.912-2.257h9.783V658.46h-9.783Z" transform="translate(-2683.452 -656.204)" fill="url(#n)"/></g><g transform="translate(2617.205 606.791)"><path d="M2685.839,643.618h-57.577a1.128,1.128,0,0,1-1.128-1.129V621.179a1.128,1.128,0,0,1,1.128-1.129h57.577a1.128,1.128,0,0,1,1.128,1.129v21.311A1.128,1.128,0,0,1,2685.839,643.618Zm-56.449-2.256h55.32V622.307h-55.32Z" transform="translate(-2627.133 -620.05)" fill="url(#o)"/></g></g></svg>