<svg xmlns="http://www.w3.org/2000/svg" xmlns:xlink="http://www.w3.org/1999/xlink" width="128.79" height="138.024" viewBox="0 0 128.79 138.024"><defs><linearGradient id="a" x1="0.934" y1="0.041" x2="-0.058" y2="0.978" gradientUnits="objectBoundingBox"><stop offset="0" stop-color="#1cabe0"/><stop offset="1" stop-color="#107aa3"/></linearGradient><linearGradient id="b" x1="5.799" y1="-3.353" x2="-1.904" y2="2.248" xlink:href="#a"/><linearGradient id="c" x1="1.293" y1="-0.351" x2="-0.585" y2="1.449" xlink:href="#a"/><linearGradient id="d" x1="1.354" y1="-2.79" x2="-0.937" y2="7.064" xlink:href="#a"/><linearGradient id="e" x1="2.201" y1="-1.527" x2="-1.5" y2="2.883" xlink:href="#a"/></defs><g transform="translate(-29.03 -24.941)"><path d="M45.826,155.572a1.456,1.456,0,0,0,.873,1.867,1.429,1.429,0,0,0,.5.087,1.456,1.456,0,0,0,1.369-.96c2.868-7.908,1.492-24.938-2.941-36.441-1.6-4.159-8.972-22.11-12.09-26.866a7.766,7.766,0,0,1-1.4-6.205,5.932,5.932,0,0,1,3.389-3.73c3.2-1.556,7.273.4,10.129,4.876.89,1.4,1.905,2.915,2.987,4.536,5.12,7.654,12.129,18.141,13.826,28.163a1.481,1.481,0,0,0,1.68,1.2,1.46,1.46,0,0,0,1.193-1.681c-1.137-6.719-4.433-13.493-8.034-19.559l23.076-63.68a6.675,6.675,0,0,1,7.76-4.479,6.308,6.308,0,0,1,4.29,8.24v0l-15.214,41.5a1.457,1.457,0,1,0,2.737,1L95.172,41.934h0l0,0a.029.029,0,0,0,0-.015l3.4-9.386a6.659,6.659,0,0,1,7.761-4.478,6.307,6.307,0,0,1,4.288,8.239l-3.594,9.923,0,.005L91.775,87.711a1.458,1.458,0,0,0,2.737,1.009l15.257-41.492v-.006h0l0-.012a6.309,6.309,0,0,1,11.86,4.307l-4.11,11.34-.005.015,0,.008-11.183,30.1a1.459,1.459,0,0,0,.86,1.875,1.477,1.477,0,0,0,.506.091A1.46,1.46,0,0,0,109.066,94l11.222-30.207a7.146,7.146,0,0,1,2.74-3.767,5.253,5.253,0,0,1,4.643-.144c3.872,1.4,3.917,6.061,3.344,7.974-.381,1.275-3.933,12.471-8.159,25.177a1.457,1.457,0,0,0,2.767.918c4.305-12.949,7.788-23.929,8.186-25.261.854-2.85.721-9.424-5.143-11.549a8.456,8.456,0,0,0-5.9-.205l1.6-4.425A9.225,9.225,0,0,0,112.061,40.9l1.309-3.613a9.214,9.214,0,0,0-6.26-12.041c-4.59-1.257-9.537,1.514-11.27,6.292L94.726,34.61a9.242,9.242,0,0,0-5.813-4.722c-4.583-1.271-9.535,1.511-11.268,6.292L55.36,97.675c-1.476-2.342-2.948-4.548-4.294-6.559-1.071-1.6-2.072-3.1-2.951-4.482C44.421,80.845,38.85,78.47,34.248,80.7a8.84,8.84,0,0,0-4.921,5.576A10.594,10.594,0,0,0,31.1,94.854c2.786,4.25,10,21.628,11.8,26.319C47.444,132.949,48.19,149.048,45.826,155.572Z" transform="translate(0 0)" fill="url(#a)"/><path d="M108.986,153.211l-.348.471c-2.066,2.8-4.2,5.7-6.057,8.809a62.33,62.33,0,0,0-4.414,10.361,1.457,1.457,0,1,0,2.747.971,60.087,60.087,0,0,1,4.171-9.84c1.782-2.991,3.873-5.826,5.9-8.57l.348-.47a1.458,1.458,0,1,0-2.345-1.731Z" transform="translate(-6.398 -11.829)" fill="url(#b)"/><path d="M163.975,111.582c-12.611-1.131-25.38-10.1-25.5-10.19v0a1.3,1.3,0,0,0-1.871,0c-.115.087-12.867,9.052-25.494,10.187a1.457,1.457,0,0,0-1.327,1.484c.3,12.653,1.973,24.194,4.724,32.5.829,2.5,8.514,24.449,23.034,24.449s22.206-21.947,23.035-24.449c2.75-8.3,4.427-19.845,4.724-32.5A1.458,1.458,0,0,0,163.975,111.582Zm-6.164,33.063c-2.761,8.339-10.137,22.452-20.268,22.452s-17.506-14.114-20.267-22.452c-2.566-7.746-4.169-18.471-4.539-30.312,10.843-1.4,21.439-7.742,24.807-10.046,3.373,2.3,14.018,8.646,24.808,10.046C161.98,126.174,160.377,136.9,157.811,144.645Z" transform="translate(-7.482 -7.047)" fill="url(#c)"/><path d="M137.117,108.609c-.087.064-9.68,6.865-20.676,9.4a1.457,1.457,0,1,0,.652,2.839,68.193,68.193,0,0,0,20.961-9.359c2.962,2,11.561,7.2,20.959,9.359a1.416,1.416,0,0,0,.328.038,1.457,1.457,0,0,0,.325-2.877c-10.9-2.508-20.443-9.23-20.5-9.23v0a1.523,1.523,0,0,0-1.131-.5C137.613,108.279,137.393,108.286,137.117,108.609Z" transform="translate(-7.994 -7.721)" fill="url(#d)"/><path d="M150.433,134.359h-6.5v-6.5a2.589,2.589,0,0,0-2.589-2.585h-4.808a2.589,2.589,0,0,0-2.589,2.585v6.5h-6.5a2.587,2.587,0,0,0-2.588,2.584v4.813a2.588,2.588,0,0,0,2.588,2.584h6.5v6.5a2.592,2.592,0,0,0,2.589,2.589h4.808a2.592,2.592,0,0,0,2.589-2.589v-6.5h6.5a2.588,2.588,0,0,0,2.588-2.584v-4.813A2.588,2.588,0,0,0,150.433,134.359Zm-.327,7.066h-7.632a1.458,1.458,0,0,0-1.458,1.457v7.636h-4.156v-7.636a1.457,1.457,0,0,0-1.457-1.457h-7.632v-4.152H135.4a1.457,1.457,0,0,0,1.457-1.457v-7.633h4.156v7.633a1.458,1.458,0,0,0,1.458,1.457h7.632Z" transform="translate(-8.879 -9.295)" fill="url(#e)"/></g></svg>