<svg xmlns="http://www.w3.org/2000/svg" xmlns:xlink="http://www.w3.org/1999/xlink" width="128.218" height="139.82" viewBox="0 0 128.218 139.82"><defs><linearGradient id="a" x1="-0.506" y1="1.221" x2="1.736" y2="-0.386" gradientUnits="objectBoundingBox"><stop offset="0" stop-color="#9b8fc4"/><stop offset="1" stop-color="#251d41"/></linearGradient><linearGradient id="b" x1="-0.617" y1="1.381" x2="1.646" y2="-0.22" xlink:href="#a"/><linearGradient id="c" x1="-4.011" y1="5.161" x2="4.55" y2="-2.802" xlink:href="#a"/><linearGradient id="d" x1="-4.01" y1="5.162" x2="4.549" y2="-2.803" xlink:href="#a"/><linearGradient id="e" x1="-2.946" y1="4.707" x2="3.829" y2="-3.564" xlink:href="#a"/><linearGradient id="f" x1="-1.528" y1="24.179" x2="2.812" y2="-26.496" xlink:href="#a"/><linearGradient id="g" x1="-2.918" y1="33.142" x2="2.388" y2="-17.533" xlink:href="#a"/><linearGradient id="h" x1="-1.398" y1="22.087" x2="3.057" y2="-28.588" xlink:href="#a"/><linearGradient id="i" x1="-6.326" y1="31.996" x2="4.657" y2="-18.679" xlink:href="#a"/><linearGradient id="j" x1="-5.89" y1="29.984" x2="5.093" y2="-20.691" xlink:href="#a"/><linearGradient id="k" x1="-2.662" y1="3.317" x2="2.745" y2="-1.711" xlink:href="#a"/></defs><g transform="translate(1378.459 -4210.189)"><path d="M-1285.829,4332.749v14.82h-90.91v-122.14h29.51l-2.43,2.44-8.02,8.02v96.86Z" fill="#9b8fc4" opacity="0.15"/><path d="M-1269.739,4315.753c-19.872-5.636-17.362-32-17.362-32l17.575-3.766,17.16,3.766S-1249.441,4310.117-1269.739,4315.753Z" fill="#9b8fc4" opacity="0.2"/><path d="M-1287.559,4332.749v13.26h-86.9V4227.868h27.14l3.9-4h-35.04v126.14h94.9v-17.26Z" fill="url(#a)"/><path d="M-1269.529,4279.989l1.88.41v-70.21h-70l-13.67,13.68-10.36,10.36v102.52h94.03v-21.68c-.66.25-1.36.48-2.09.68-.66-.19-1.3-.4-1.91-.631v17.631h-86.03v-96.861l8.02-8.02,2.43-2.439,1.56-1.56,9.68-9.68h64.34v66.25Z" fill="url(#b)"/><path d="M-1340.387,4220.768v11.053h-10.794l10.794-11.053m4.168-10.233-24.857,25.454h24.857v-25.454Z" fill="url(#c)"/><path d="M-1349.239,4223.869l-3.91,4-7.93,8.121h24.86v-25.45Zm8.85,7.95h-10.79l3.86-3.951,3.9-4,3.03-3.1Z" fill="url(#d)"/><path d="M-1317.305,4271.573h-31.409v-24.506h31.409Zm-27.409-4h23.409v-16.506h-23.409Z" fill="url(#e)"/><rect width="49.04" height="4" transform="translate(-1346.714 4286.296)" fill="url(#f)"/><rect width="40.099" height="4" transform="translate(-1325.656 4228.343)" fill="url(#g)"/><rect width="47.77" height="4" transform="translate(-1346.714 4303.215)" fill="url(#h)"/><rect width="19.375" height="4" transform="translate(-1304.932 4248.861)" fill="url(#i)"/><rect width="19.375" height="4" transform="translate(-1304.932 4265.779)" fill="url(#j)"/><path d="M-1269.952,4318.224l-.54-.153c-21.462-6.087-19.039-34.207-19.012-34.491l.139-1.459,19.64-4.209,19.187,4.211.159,1.426c.031.284,2.893,28.437-19.032,34.525Zm-15.655-32.817c-.195,5.39.294,23.877,15.667,28.656,15.736-4.782,15.963-23.316,15.69-28.658l-15.485-3.4Z" fill="url(#k)"/></g></svg>