<svg xmlns="http://www.w3.org/2000/svg" xmlns:xlink="http://www.w3.org/1999/xlink" width="93.24" height="93.24" viewBox="0 0 93.24 93.24"><defs><linearGradient id="a" x1="1" y1="0.5" x2="0.5" y2="2.026" gradientUnits="objectBoundingBox"><stop offset="0" stop-color="#9182c4"/><stop offset="1" stop-color="#251d41"/></linearGradient></defs><path d="M249.866,151.8a1.364,1.364,0,0,0,1.366-1.366v-3.169a1.366,1.366,0,0,0-2.732,0v3.169A1.376,1.376,0,0,0,249.866,151.8Z" transform="translate(-203.237 -119.325)" fill="url(#a)"/><path d="M339.6,249.866a1.376,1.376,0,0,0-1.366-1.366h-3.169a1.366,1.366,0,0,0,0,2.732h3.169A1.376,1.376,0,0,0,339.6,249.866Z" transform="translate(-272.919 -203.237)" fill="url(#a)"/><path d="M249.866,333.7a1.364,1.364,0,0,0-1.366,1.366v3.169a1.366,1.366,0,0,0,2.732,0v-3.169A1.376,1.376,0,0,0,249.866,333.7Z" transform="translate(-203.237 -272.919)" fill="url(#a)"/><path d="M150.435,248.5h-3.169a1.366,1.366,0,0,0,0,2.732h3.169a1.366,1.366,0,0,0,0-2.732Z" transform="translate(-119.325 -203.237)" fill="url(#a)"/><path d="M254.206,184.321,244.17,194.357a2.8,2.8,0,1,0,1.931,1.931l10.036-10.036a1.365,1.365,0,1,0-1.931-1.931Z" transform="translate(-196.776 -150.424)" fill="url(#a)"/><path d="M91.163,40.053l-9.526-3.9c-.71-.291-.346-1.821-3.115-6.885-.273-.51-.036-.291,3.861-9.854a3.367,3.367,0,0,0-.729-3.679L77.138,11.22a3.36,3.36,0,0,0-3.679-.729l-9.49,3.971c-.71.291-1.548-1.038-7.085-2.659-.546-.164-.237-.2-4.244-9.69A3.276,3.276,0,0,0,49.543,0H43.168a3.364,3.364,0,0,0-3.115,2.095c-4.08,9.726-3.77,9.708-4.3,9.89-5.537,1.73-6.32,3.1-7.049,2.787l-9.308-3.9a3.367,3.367,0,0,0-3.679.729L11.2,16.1a3.36,3.36,0,0,0-.729,3.679l3.971,9.49c.291.71-1.038,1.548-2.678,7.085-.164.546-.109.219-9.69,4.226A3.382,3.382,0,0,0,0,43.715V50.09A3.364,3.364,0,0,0,2.095,53.2l9.526,3.9c.71.291.346,1.821,3.115,6.885.273.51.036.291-3.861,9.854A3.367,3.367,0,0,0,11.6,77.52l4.517,4.517a3.36,3.36,0,0,0,3.679.729l9.49-3.971c.71-.291,1.548,1.038,7.085,2.659.546.164.237.2,4.244,9.69a3.364,3.364,0,0,0,3.115,2.095H50.09A3.364,3.364,0,0,0,53.2,91.145l3.9-9.526c.128-.31,4.444-2.113,6.266-2.823.073-.018.146-.055.2-.073.2-.073.364-.146.474-.182a1.113,1.113,0,0,0,.255-.128.629.629,0,0,1,.237.055l9.308,3.9a3.367,3.367,0,0,0,3.679-.729l4.517-4.517a3.36,3.36,0,0,0,.729-3.679c-4.007-9.781-4.208-9.526-3.953-10.036a35.607,35.607,0,0,0,2.641-6.539c.164-.546.182-.237,9.69-4.226a3.364,3.364,0,0,0,2.095-3.115V43.168A3.285,3.285,0,0,0,91.163,40.053ZM90.125,50.126,80.8,53.951a3.351,3.351,0,0,0-1.949,2.168c-1.785,6.047-3.57,6.521-2.568,8.907l3.971,9.49a.618.618,0,0,1-.146.692L75.59,79.724a.612.612,0,0,1-.692.128l-9.308-3.9a3.375,3.375,0,0,0-3.115.255c-2.04.783-7.34,2.987-7.905,4.371l-3.9,9.526a.633.633,0,0,1-.583.4H43.715a.607.607,0,0,1-.583-.4l-3.825-9.326a3.351,3.351,0,0,0-2.168-1.949c-6.011-1.767-6.521-3.57-8.907-2.568l-9.49,3.971a.618.618,0,0,1-.692-.146l-4.517-4.517a.612.612,0,0,1-.128-.692l3.9-9.308a3.345,3.345,0,0,0-.146-2.914c-3.005-5.519-2.095-7.122-4.481-8.105l-9.526-3.9a.633.633,0,0,1-.4-.583V43.715a.607.607,0,0,1,.4-.583l9.326-3.825a3.351,3.351,0,0,0,1.949-2.168c1.785-6.047,3.57-6.521,2.568-8.907l-3.971-9.49a.618.618,0,0,1,.146-.692l4.517-4.517a.612.612,0,0,1,.692-.128l9.308,3.9a3.345,3.345,0,0,0,2.914-.146c5.519-3.005,7.122-2.095,8.105-4.481l3.9-9.526a.633.633,0,0,1,.583-.4h6.357a.607.607,0,0,1,.583.4l3.825,9.326a3.351,3.351,0,0,0,2.168,1.949c6.047,1.785,6.521,3.57,8.907,2.568l9.49-3.971a.618.618,0,0,1,.692.146l4.517,4.517a.612.612,0,0,1,.128.692l-3.9,9.308A3.345,3.345,0,0,0,76.1,30.6c3.005,5.519,2.095,7.122,4.481,8.105l9.526,3.9a.633.633,0,0,1,.4.583v6.357h.018A.607.607,0,0,1,90.125,50.126Z" fill="url(#a)"/><path d="M163.722,136c-.018-.237-.018-.455-.036-.692,0-.073-.018-.164-.018-.237-.055-.6-.109-1.2-.2-1.785-.018-.091-.018-.164-.036-.255-.036-.219-.073-.419-.109-.638-.018-.091-.036-.182-.055-.291-.036-.237-.091-.455-.146-.692-.036-.146-.073-.31-.109-.455-.036-.164-.073-.31-.109-.474s-.091-.328-.128-.51a1.178,1.178,0,0,0-.073-.237,26.4,26.4,0,0,0-15.318-17.049.887.887,0,0,0-.2-.073,26.342,26.342,0,0,0-19.708,0,.652.652,0,0,0-.2.073,26.349,26.349,0,0,0-15.318,17.049,1.179,1.179,0,0,1-.073.237,4.172,4.172,0,0,0-.128.51c-.036.164-.073.31-.109.474-.036.146-.073.291-.109.455-.055.237-.091.455-.146.692-.018.091-.036.182-.055.291-.036.219-.073.419-.109.638-.018.091-.018.164-.036.255-.091.583-.146,1.184-.2,1.785,0,.073-.018.164-.018.237-.018.219-.036.455-.036.692a1.2,1.2,0,0,1-.018.255c-.018.31-.018.6-.018.911a26.461,26.461,0,0,0,26.429,26.429,25.747,25.747,0,0,0,3.37-.219c.255-.036.51-.073.747-.109q.6-.082,1.2-.219a6.535,6.535,0,0,0,.637-.146c.419-.091.856-.2,1.257-.328.2-.055.419-.127.619-.182a22.679,22.679,0,0,0,2.423-.893c.2-.091.4-.164.583-.255a28.042,28.042,0,0,0,3.7-2.04,26.6,26.6,0,0,0,2.477-1.858c.182-.146.346-.291.51-.437.146-.128.291-.273.455-.4.164-.146.31-.291.474-.455.31-.291.6-.6.893-.911a26.515,26.515,0,0,0,2.914-3.752q.355-.546.656-1.093a26.354,26.354,0,0,0,1.676-3.461c.164-.4.31-.8.437-1.22.2-.565.364-1.148.528-1.73.073-.255.128-.51.2-.765.091-.419.182-.856.273-1.293s.146-.874.2-1.311.109-.893.128-1.33c.055-.674.073-1.348.073-2.022,0-.31,0-.6-.018-.911A1.2,1.2,0,0,0,163.722,136Zm-50.09,1.184v-.073c0-.237,0-.492.018-.729a1.667,1.667,0,0,1,.018-.31c0-.164.018-.31.018-.474,0-.128.018-.237.018-.364.018-.146.018-.273.036-.419.018-.273.055-.528.091-.8.018-.073.018-.146.036-.219.018-.182.055-.364.091-.546,0-.036.018-.091.018-.128A23.8,23.8,0,0,1,133.65,113.76a23.371,23.371,0,0,1,7.359,0,23.755,23.755,0,0,1,19.672,19.362c0,.036.018.091.018.128.036.182.055.364.091.546.018.073.018.146.036.219.036.255.073.528.091.8a3.251,3.251,0,0,1,.036.419,2.44,2.44,0,0,1,.018.364,4.115,4.115,0,0,1,.018.474c0,.109.018.219.018.31,0,.237.018.492.018.729v.073a23.7,23.7,0,1,1-47.394,0Z" transform="translate(-90.7 -90.537)" fill="url(#a)"/></svg>