<svg xmlns="http://www.w3.org/2000/svg" xmlns:xlink="http://www.w3.org/1999/xlink" width="140.51" height="122.921" viewBox="0 0 140.51 122.921"><defs><linearGradient id="a" x1="9.572" y1="-10.258" x2="-4.476" y2="6.401" gradientUnits="objectBoundingBox"><stop offset="0" stop-color="#34a096"/><stop offset="1" stop-color="#14645d"/></linearGradient><linearGradient id="b" x1="1.107" y1="-0.968" x2="-0.676" y2="3.382" xlink:href="#a"/><linearGradient id="c" x1="1.491" y1="-1.951" x2="-0.291" y2="2.456" xlink:href="#a"/><linearGradient id="d" x1="1.636" y1="-4.743" x2="-0.146" y2="3.321" xlink:href="#a"/><linearGradient id="e" x1="0.973" y1="-1.895" x2="-0.81" y2="7.58" xlink:href="#a"/><linearGradient id="f" x1="1.148" y1="-1.794" x2="-0.249" y2="3.446" xlink:href="#a"/><linearGradient id="g" x1="1.113" y1="-0.227" x2="-1.416" y2="2.772" xlink:href="#a"/><linearGradient id="h" x1="2.368" y1="-0.106" x2="-5.034" y2="2.178" xlink:href="#a"/></defs><g transform="translate(-26.356 -33.83)"><rect width="52.982" height="11.657" transform="translate(48.368 87.534)" fill="#d0e4e2"/><g transform="translate(69.573 142.422)"><path d="M77.45,159.786a4.749,4.749,0,1,1,4.751-4.747A4.752,4.752,0,0,1,77.45,159.786Zm0-5.768a1.019,1.019,0,1,0,1.021,1.021A1.02,1.02,0,0,0,77.45,154.018Z" transform="translate(-72.704 -150.288)" fill="url(#a)"/></g><g transform="translate(36.905 45.86)"><path d="M110.647,83.1H39.534a1.865,1.865,0,0,1-1.865-1.865v-31.7a1.866,1.866,0,0,1,1.865-1.865h69.482a1.862,1.862,0,0,1,1.573-.942h.049A1.864,1.864,0,0,1,112.5,48.5c.011.2.012.385.012.583V81.238A1.865,1.865,0,0,1,110.647,83.1ZM41.4,79.373h67.383V51.4H41.4Z" transform="translate(-37.669 -46.731)" fill="url(#b)"/></g><g transform="translate(36.905 104.967)"><path d="M110.647,146.018H39.534a1.865,1.865,0,0,1-1.865-1.865V111.985a1.866,1.866,0,0,1,1.865-1.865h71.113a1.866,1.866,0,0,1,1.865,1.865v32.168A1.865,1.865,0,0,1,110.647,146.018ZM41.4,142.288h67.383V113.85H41.4Z" transform="translate(-37.669 -110.12)" fill="url(#c)"/></g><g transform="translate(36.902 137.132)"><path d="M104.357,164.234H45.823a8.164,8.164,0,0,1-8.157-8.152v-9.6a1.866,1.866,0,0,1,1.865-1.865h71.118a1.866,1.866,0,0,1,1.865,1.865v9.6A8.164,8.164,0,0,1,104.357,164.234ZM41.4,148.345v7.737a4.43,4.43,0,0,0,4.427,4.423h58.534a4.43,4.43,0,0,0,4.427-4.423v-7.737Z" transform="translate(-37.666 -144.615)" fill="url(#d)"/></g><g transform="translate(36.89 33.83)"><path d="M110.635,50.529H39.518a1.864,1.864,0,0,1-1.865-1.865V41.982a8.164,8.164,0,0,1,8.156-8.152h58.535a8.164,8.164,0,0,1,8.156,8.152v6.682A1.864,1.864,0,0,1,110.635,50.529ZM41.383,46.8h67.388V41.982a4.43,4.43,0,0,0-4.426-4.423H45.809a4.43,4.43,0,0,0-4.426,4.423Z" transform="translate(-37.653 -33.83)" fill="url(#e)"/></g><rect width="52.984" height="11.662" transform="translate(48.368 59.749)" fill="#d0e4e2"/><rect width="35.43" height="11.662" transform="translate(57.145 113.728)" fill="#d0e4e2"/><g transform="translate(26.356 78.502)"><path d="M119.774,111.933H41.453a15.1,15.1,0,0,1,0-30.195h78.529a1.865,1.865,0,0,1,1.559,2.888,22.568,22.568,0,0,0-.195,24.439,1.865,1.865,0,0,1-1.572,2.868ZM41.453,85.468a11.368,11.368,0,0,0,0,22.735h75.163a26.352,26.352,0,0,1,.161-22.735Z" transform="translate(-26.356 -81.738)" fill="url(#f)"/></g><g transform="translate(114.119 67.39)"><path d="M146.85,122.57A26.29,26.29,0,0,1,124.833,110.7l-.091-.143c-.072-.111-.144-.224-.208-.336a26.3,26.3,0,0,1,.245-28.45,1.247,1.247,0,0,1,.069-.111,26.371,26.371,0,1,1,22,40.9Zm0-49.019a22.591,22.591,0,0,0-18.9,10.189,1.174,1.174,0,0,1-.078.124,22.571,22.571,0,0,0-.166,24.4c.02.031.038.062.056.094.035.061.075.12.115.182l.1.151A22.641,22.641,0,1,0,146.85,73.551Z" transform="translate(-120.476 -69.821)" fill="url(#g)"/></g><g transform="translate(138.114 80.028)"><path d="M146.209,107.14a3.274,3.274,0,1,1,3.292,3.33A3.179,3.179,0,0,1,146.209,107.14Zm1.207-7.191-.842-16.574h5.818l-.806,16.574Z" transform="translate(-146.209 -83.374)" fill="url(#h)"/></g></g></svg>