<svg xmlns="http://www.w3.org/2000/svg" xmlns:xlink="http://www.w3.org/1999/xlink" width="128.218" height="139.82" viewBox="0 0 128.218 139.82"><defs><linearGradient id="a" x1="1.218" y1="-0.236" x2="-0.028" y2="1.041" gradientUnits="objectBoundingBox"><stop offset="0" stop-color="#c59d48"/><stop offset="1" stop-color="#9d7d3a"/></linearGradient><linearGradient id="b" x1="1.832" y1="-1.461" x2="-1.406" y2="2.899" xlink:href="#a"/><linearGradient id="c" x1="1.189" y1="-0.214" x2="-0.004" y2="1.022" xlink:href="#a"/><linearGradient id="d" x1="1.128" y1="-0.048" x2="-0.076" y2="1.184" xlink:href="#a"/><linearGradient id="e" x1="2.402" y1="-1.557" x2="-2.155" y2="4.568" xlink:href="#a"/><linearGradient id="f" x1="2.187" y1="-2.476" x2="-1.42" y2="3.887" xlink:href="#a"/><linearGradient id="g" x1="1.785" y1="-21.188" x2="-0.525" y2="17.793" xlink:href="#a"/><linearGradient id="h" x1="1.242" y1="-9.733" x2="-1.583" y2="29.248" xlink:href="#a"/><linearGradient id="i" x1="1.992" y1="-24.032" x2="-0.379" y2="14.948" xlink:href="#a"/><linearGradient id="j" x1="2.354" y1="-11.859" x2="-3.493" y2="27.122" xlink:href="#a"/><linearGradient id="k" x1="2.769" y1="-14.627" x2="-3.078" y2="24.354" xlink:href="#a"/><linearGradient id="l" x1="1.682" y1="-1.25" x2="-1.196" y2="2.618" xlink:href="#a"/></defs><g transform="translate(-43.601 -29.2)"><path d="M136.231,151.76v14.82H45.321V44.44h29.51L72.4,46.88l-8.02,8.02v96.86Z" opacity="0.15" fill="url(#a)"/><path d="M152.321,134.764c-19.872-5.636-17.361-32-17.361-32L152.534,99l17.161,3.766S172.62,129.128,152.321,134.764Z" opacity="0.15" fill="url(#b)"/><path d="M134.5,151.76v13.26H47.6V46.88h27.14l3.9-4H43.6V169.02h94.9V151.76Z" fill="url(#c)"/><path d="M152.531,99l1.88.41V29.2h-70L70.741,42.88,60.381,53.24V155.76h94.03V134.08c-.66.25-1.36.48-2.09.68-.66-.19-1.3-.4-1.91-.63v17.63H64.381V54.9l8.02-8.02,2.43-2.44,1.56-1.56,9.68-9.68h64.34V99.45Z" fill="url(#d)"/><path d="M81.674,39.779V50.832H70.88L81.674,39.779m4.167-10.233L60.984,55H85.841V29.546Z" fill="url(#e)"/><path d="M104.755,90.584H73.346V66.078h31.409Zm-27.409-4h23.409V70.078H77.346Z" fill="url(#f)"/><rect width="49.04" height="4" transform="translate(75.346 105.308)" fill="url(#g)"/><rect width="40.099" height="4" transform="translate(96.404 47.354)" fill="url(#h)"/><rect width="47.77" height="4" transform="translate(75.346 122.227)" fill="url(#i)"/><rect width="19.375" height="4" transform="translate(117.128 67.872)" fill="url(#j)"/><rect width="19.375" height="4" transform="translate(117.128 84.79)" fill="url(#k)"/><path d="M152.108,137.235l-.54-.153c-21.462-6.087-19.038-34.207-19.011-34.49l.139-1.459,19.639-4.209,19.188,4.211.158,1.426c.031.284,2.894,28.436-19.032,34.524Zm-15.655-32.817c-.194,5.391.294,23.877,15.667,28.656,15.736-4.782,15.963-23.315,15.69-28.658l-15.485-3.4Z" fill="url(#l)"/></g></svg>