<svg xmlns="http://www.w3.org/2000/svg" xmlns:xlink="http://www.w3.org/1999/xlink" width="140.339" height="139.23" viewBox="0 0 140.339 139.23"><defs><linearGradient id="a" y1="0.5" x2="1" y2="0.5" gradientUnits="objectBoundingBox"><stop offset="0" stop-color="#c59d48"/><stop offset="1" stop-color="#9d7d3a"/></linearGradient><clipPath id="d"><path d="M127.09,65.44c0,15.81-9.8,28.63-21.89,28.63a16.473,16.473,0,0,1-4.23-.54c10.83-2.559,19.01-14.17,19.01-28.09s-8.18-25.52-19.01-28.08a16.517,16.517,0,0,1,4.23-.54C117.29,36.82,127.09,49.641,127.09,65.44Z" fill="none"/></clipPath></defs><g transform="translate(-25.962 -34.82)"><path d="M69.119,158.368a1.992,1.992,0,0,1-1.4-.573L41.64,132.171a2,2,0,0,1,.048-2.9c.048-.043,4.84-4.447,9.554-9.16,9.553-9.552,18.711-10.584,22.2-10.584h6.66c5.956,0,9.455,1.9,12.543,3.574,2.8,1.52,5.222,2.833,9.356,2.833h14.25a12.025,12.025,0,0,1,8.908,3.383l2.385-.822a47.745,47.745,0,0,0,16.173-12.8,16.156,16.156,0,0,1,9.026-5.725c7.205-1.672,11.133,1.229,13.158,3.959a2,2,0,0,1,.234,1.978c-3.086,7.22-13.875,23.383-16.362,26.169-.2.23-.494.578-.866,1.025-12.2,14.641-24.324,22.065-36.023,22.065H75.525a5.13,5.13,0,0,0-4.459,2.059c-.182.2-.358.384-.533.559A1.993,1.993,0,0,1,69.119,158.368ZM45.936,130.785l23.15,22.747a8.8,8.8,0,0,1,6.439-2.367h37.364c10.456,0,21.543-6.939,32.951-20.627.409-.49.728-.873.954-1.125,2.192-2.458,11.716-16.725,15.16-23.961-1.921-1.915-4.647-2.433-8.3-1.587a12.2,12.2,0,0,0-6.871,4.4,51.652,51.652,0,0,1-17.639,13.9,1.953,1.953,0,0,1-.191.077l-1.627.561a9.4,9.4,0,0,1,.54,3.138c0,4.973-3.987,10.007-11.609,10.007H87.429a2,2,0,0,1,0-4h28.827a8.351,8.351,0,0,0,5.839-1.961,5.536,5.536,0,0,0,.9-7.029,2,2,0,0,1-.233-.337c-1.169-1.559-3.3-2.687-6.511-2.687h-14.25c-5.15,0-8.258-1.687-11.264-3.318-2.928-1.588-5.694-3.089-10.635-3.089h-6.66c-3,0-10.882.917-19.377,9.412C50.93,126.08,47.755,129.084,45.936,130.785Z" fill="url(#a)"/><path d="M63.345,174.05a11.025,11.025,0,0,1-7.82-3.235L29.2,144.486a11.059,11.059,0,0,1,15.64-15.64l26.329,26.329a11.055,11.055,0,0,1-7.82,18.875ZM37.017,129.609a7.057,7.057,0,0,0-4.993,12.049l26.33,26.329A7.059,7.059,0,1,0,68.337,158L42.008,131.674A7.038,7.038,0,0,0,37.017,129.609Z" fill="url(#a)"/><path d="M105.2,96.07a18.415,18.415,0,0,1-4.739-.605,2,2,0,0,1,.049-3.881c10.123-2.393,17.47-13.388,17.47-26.144S110.633,41.7,100.51,39.307a2,2,0,0,1-.049-3.881,18.416,18.416,0,0,1,4.739-.606c13.173,0,23.89,13.737,23.89,30.62S118.373,96.07,105.2,96.07ZM110.27,39.7C117.381,45.2,121.98,54.8,121.98,65.44s-4.6,20.246-11.711,25.754c8.519-3.008,14.821-13.415,14.821-25.754S118.79,42.7,110.27,39.7Z" fill="url(#a)"/><g opacity="0.15"><g clip-path="url(#d)"><path d="M100.97,36.82v0Z" fill="#c59d48"/><rect width="0.653" height="57.25" transform="translate(100.97 36.82)" fill="#c59d48"/><rect width="0.653" height="57.25" transform="translate(101.623 36.82)" fill="#c49c48"/><rect width="0.653" height="57.25" transform="translate(102.276 36.82)" fill="#c39b47"/><rect width="0.653" height="57.25" transform="translate(102.929 36.82)" fill="#c29b47"/><rect width="0.653" height="57.25" transform="translate(103.582 36.82)" fill="#c19a47"/><rect width="0.653" height="57.25" transform="translate(104.235 36.82)" fill="#c09946"/><rect width="0.653" height="57.25" transform="translate(104.888 36.82)" fill="#bf9846"/><rect width="0.653" height="57.25" transform="translate(105.541 36.82)" fill="#be9745"/><rect width="0.653" height="57.25" transform="translate(106.194 36.82)" fill="#bd9645"/><rect width="0.653" height="57.25" transform="translate(106.847 36.82)" fill="#bc9645"/><rect width="0.653" height="57.25" transform="translate(107.5 36.82)" fill="#bb9544"/><rect width="0.653" height="57.25" transform="translate(108.153 36.82)" fill="#ba9444"/><rect width="0.653" height="57.25" transform="translate(108.806 36.82)" fill="#b99344"/><rect width="0.653" height="57.25" transform="translate(109.459 36.82)" fill="#b89243"/><rect width="0.653" height="57.25" transform="translate(110.112 36.82)" fill="#b79243"/><rect width="0.653" height="57.25" transform="translate(110.765 36.82)" fill="#b69143"/><rect width="0.653" height="57.25" transform="translate(111.418 36.82)" fill="#b59042"/><rect width="0.653" height="57.25" transform="translate(112.071 36.82)" fill="#b48f42"/><rect width="0.653" height="57.25" transform="translate(112.724 36.82)" fill="#b38e42"/><rect width="0.653" height="57.25" transform="translate(113.377 36.82)" fill="#b28d41"/><rect width="0.653" height="57.25" transform="translate(114.03 36.82)" fill="#b08d41"/><rect width="0.653" height="57.25" transform="translate(114.683 36.82)" fill="#af8c40"/><rect width="0.653" height="57.25" transform="translate(115.336 36.82)" fill="#ae8b40"/><rect width="0.653" height="57.25" transform="translate(115.989 36.82)" fill="#ad8a40"/><rect width="0.653" height="57.25" transform="translate(116.642 36.82)" fill="#ac893f"/><rect width="0.653" height="57.25" transform="translate(117.295 36.82)" fill="#ab883f"/><rect width="0.653" height="57.25" transform="translate(117.948 36.82)" fill="#aa883f"/><rect width="0.653" height="57.25" transform="translate(118.601 36.82)" fill="#a9873e"/><rect width="0.653" height="57.25" transform="translate(119.254 36.82)" fill="#a8863e"/><rect width="0.653" height="57.25" transform="translate(119.907 36.82)" fill="#a7853e"/><rect width="0.653" height="57.25" transform="translate(120.56 36.82)" fill="#a6843d"/><rect width="0.653" height="57.25" transform="translate(121.213 36.82)" fill="#a5843d"/><rect width="0.653" height="57.25" transform="translate(121.866 36.82)" fill="#a4833d"/><rect width="0.653" height="57.25" transform="translate(122.519 36.82)" fill="#a3823c"/><rect width="0.653" height="57.25" transform="translate(123.172 36.82)" fill="#a2813c"/><rect width="0.653" height="57.25" transform="translate(123.825 36.82)" fill="#a1803b"/><rect width="0.653" height="57.25" transform="translate(124.478 36.82)" fill="#a07f3b"/><rect width="0.653" height="57.25" transform="translate(125.131 36.82)" fill="#9f7f3b"/><rect width="0.653" height="57.25" transform="translate(125.784 36.82)" fill="#9e7e3a"/><rect width="0.653" height="57.25" transform="translate(126.437 36.82)" fill="#9d7d3a"/><path d="M127.09,94.07v0Z" fill="#9d7d3a"/></g></g><path d="M96.44,96.07c-14.077,0-25.53-13.74-25.53-30.63S82.363,34.82,96.44,34.82a20.872,20.872,0,0,1,5.009.6c11.889,2.809,20.531,15.437,20.531,30.021s-8.642,27.222-20.55,30.037A20.9,20.9,0,0,1,96.44,96.07Zm0-57.25c-11.872,0-21.53,11.942-21.53,26.62s9.658,26.63,21.53,26.63a16.947,16.947,0,0,0,4.05-.481c10.143-2.4,17.49-13.393,17.49-26.149S110.633,41.7,100.51,39.307A16.933,16.933,0,0,0,96.44,38.82Z" fill="url(#a)"/><path d="M93.587,79.144V75.622a14.914,14.914,0,0,1-6.3-1.594L88.4,69.689a13.077,13.077,0,0,0,6.155,1.632c2.113,0,3.559-.815,3.559-2.3,0-1.409-1.186-2.3-3.93-3.225-3.967-1.335-6.674-3.19-6.674-6.786,0-3.263,2.3-5.822,6.266-6.6V48.889h3.634v3.262a13.357,13.357,0,0,1,5.376,1.224l-1.075,4.189a12.315,12.315,0,0,0-5.339-1.259c-2.41,0-3.189,1.038-3.189,2.076,0,1.223,1.3,2,4.45,3.188,4.412,1.558,6.191,3.6,6.191,6.934,0,3.3-2.336,6.118-6.6,6.859v3.782Z" fill="#b38e42"/></g></svg>