<svg xmlns="http://www.w3.org/2000/svg" xmlns:xlink="http://www.w3.org/1999/xlink" width="93.764" height="83.324" viewBox="0 0 93.764 83.324"><defs><linearGradient id="a" x1="-0.077" y1="1" x2="1.125" y2="-0.095" gradientUnits="objectBoundingBox"><stop offset="0" stop-color="#d8805a"/><stop offset="1" stop-color="#7b4129"/></linearGradient><linearGradient id="b" x1="-0.077" y1="1" x2="1.125" y2="-0.095" gradientUnits="objectBoundingBox"><stop offset="0" stop-color="#d8805a"/><stop offset="1" stop-color="#603726"/></linearGradient><linearGradient id="f" x1="0.5" y1="0.843" x2="0.5" gradientUnits="objectBoundingBox"><stop offset="0" stop-color="#c77451"/><stop offset="1" stop-color="#8d5239"/></linearGradient></defs><g transform="translate(-18 -45)"><path d="M111.764,51.254A6.254,6.254,0,0,0,105.51,45H24.254A6.254,6.254,0,0,0,18,51.254V122.07a6.254,6.254,0,0,0,6.254,6.254H105.51a6.254,6.254,0,0,0,6.254-6.254Zm-87.51-3.5H105.51a3.419,3.419,0,0,1,3.5,3.4v6.45H20.758v-6.45A3.419,3.419,0,0,1,24.254,47.758Zm81.256,77.612H24.254a3.419,3.419,0,0,1-3.5-3.4V60.365h88.249V121.97A3.419,3.419,0,0,1,105.51,125.369Z" transform="translate(0 0)" fill="url(#a)"/><path d="M49.537,75.6a2.083,2.083,0,1,0-2.083-2.083A2.084,2.084,0,0,0,49.537,75.6Zm0-2.758a.674.674,0,1,1-.674.674A.675.675,0,0,1,49.537,72.845Z" transform="translate(-23.652 -21.229)" fill="url(#b)"/><path d="M74.783,75.6A2.083,2.083,0,1,0,72.7,73.52,2.084,2.084,0,0,0,74.783,75.6Zm0-2.758a.674.674,0,1,1-.674.674A.674.674,0,0,1,74.783,72.845Z" transform="translate(-43.925 -21.229)" fill="url(#b)"/><path d="M100.029,75.6a2.083,2.083,0,1,0-2.084-2.083A2.084,2.084,0,0,0,100.029,75.6Zm0-2.758a.674.674,0,1,1-.674.674A.674.674,0,0,1,100.029,72.845Z" transform="translate(-64.197 -21.229)" fill="url(#b)"/><path d="M152.97,175.821c0-.036-.01-.072-.016-.108,0-.009,0-.018,0-.027a1.305,1.305,0,0,0-.033-.13h0a1.33,1.33,0,0,0-.045-.126v0a1.176,1.176,0,0,0-.055-.115l0-.007c-.018-.033-.038-.065-.059-.1s-.044-.064-.068-.094l-.023-.031c-.018-.022-.039-.044-.059-.065s-.02-.023-.031-.034l0-.005-6.5-6.416a1.379,1.379,0,0,0-1.95.012,1.411,1.411,0,0,0,.013,1.976l4.108,4.081H130.521a18.477,18.477,0,0,0-22.037,0H91.735a1.379,1.379,0,1,0,0,2.758H105.5a17.827,17.827,0,0,0-4.494,12.027,18.247,18.247,0,0,0,4.48,12.005H90.741l4.108-4.029a1.363,1.363,0,0,0,.013-1.937,1.379,1.379,0,0,0-1.95-.006l-6.5,6.419v0a1.376,1.376,0,0,0-.4.844c0,.034,0,.068-.005.1,0,.012,0,.024,0,.037h0a1.362,1.362,0,0,0,.007.138c0,.037.01.073.016.109,0,.009,0,.018,0,.026q.013.067.033.13h0a1.367,1.367,0,0,0,.1.243l0,.007c.018.034.039.067.059.1a.973.973,0,0,0,.063.087c.009.012.018.025.027.036l.059.066c.01.011.02.023.03.033l0,.005,6.5,6.416a1.379,1.379,0,0,0,1.95-.012,1.411,1.411,0,0,0-.013-1.976l-4.107-4.081h17.718a18.477,18.477,0,0,0,22.037,0h16.749a1.379,1.379,0,0,0,0-2.758H133.478a17.826,17.826,0,0,0,4.494-12.027,18.246,18.246,0,0,0-4.48-12.005h14.746l-4.108,4.029a1.371,1.371,0,1,0,1.938,1.94l6.5-6.417h0a1.376,1.376,0,0,0,.4-.843c0-.033,0-.067.005-.1,0-.012,0-.024,0-.037h0A1.356,1.356,0,0,0,152.97,175.821ZM128.9,202.009a15.727,15.727,0,1,1,6.317-12.6A15.727,15.727,0,0,1,128.9,202.009Z" transform="translate(-54.608 -98.904)" fill="url(#b)"/><path d="M36.952,30.831v-5.42c1.981.252,2.258,1.377,2.285,1.531a.83.83,0,1,0,1.645-.221c-.015-.111-.382-2.636-3.93-2.98V22.4a.83.83,0,1,0-1.659,0v1.369a4.611,4.611,0,0,0-2.851,1.3,3.775,3.775,0,0,0-.98,2.9c.145,2.333,2.017,3.41,3.826,4.06V37.4a2.858,2.858,0,0,1-2.67-2.387.83.83,0,1,0-1.64.251c.191,1.246,1.015,3.311,4.314,3.822v1.74a.83.83,0,0,0,1.659,0V39.168a4.117,4.117,0,0,0,4.1-3.247C41.572,32.389,39.165,31.529,36.952,30.831Zm-3.829-2.962a2.132,2.132,0,0,1,.531-1.659,2.857,2.857,0,0,1,1.638-.774v4.814C33.507,29.476,33.172,28.654,33.123,27.869Zm6.288,7.805A2.475,2.475,0,0,1,36.952,37.5V32.577C38.865,33.218,39.693,33.755,39.411,35.674Z" transform="translate(29.513 58.68)" fill="url(#f)"/></g></svg>