<svg xmlns="http://www.w3.org/2000/svg" xmlns:xlink="http://www.w3.org/1999/xlink" width="154.202" height="140.872" viewBox="0 0 154.202 140.872"><defs><linearGradient id="a" x1="3.773" y1="-3.003" x2="-1.115" y2="2.229" gradientUnits="objectBoundingBox"><stop offset="0" stop-color="#d8805a"/><stop offset="1" stop-color="#7b4129"/></linearGradient><linearGradient id="b" x1="2.615" y1="-3.481" x2="0.022" y2="1.725" xlink:href="#a"/><linearGradient id="c" x1="1.72" y1="-0.407" x2="-1.413" y2="2.16" xlink:href="#a"/><linearGradient id="d" x1="2.807" y1="-0.711" x2="-6.65" y2="3.98" xlink:href="#a"/><linearGradient id="e" x1="2.915" y1="-1.55" x2="-3.37" y2="3.786" xlink:href="#a"/><linearGradient id="f" x1="5.781" y1="-5.153" x2="-8.43" y2="10.059" xlink:href="#a"/><linearGradient id="g" x1="6.053" y1="-5.443" x2="-8.159" y2="9.768" xlink:href="#a"/><linearGradient id="h" x1="1.305" y1="-0.744" x2="-0.506" y2="2.053" xlink:href="#a"/><linearGradient id="i" x1="19.859" y1="-0.885" x2="-19.236" y2="1.912" xlink:href="#a"/><linearGradient id="j" x1="1.305" y1="-18.112" x2="-0.506" y2="23.736" xlink:href="#a"/><linearGradient id="k" x1="2.499" y1="-1.463" x2="-1.541" y2="2.59" xlink:href="#a"/></defs><g transform="translate(-616.305 -11.044)"><g transform="translate(616.305 90.308)"><g transform="translate(12.573)"><path d="M644.669,128.7a14.21,14.21,0,1,1,14.21-14.21A14.225,14.225,0,0,1,644.669,128.7Zm0-24.867a10.657,10.657,0,1,0,10.656,10.657A10.668,10.668,0,0,0,644.669,103.832Z" transform="translate(-630.46 -100.279)" fill="url(#a)"/></g><g transform="translate(0 33.048)"><path d="M668.1,166.044H618.082a1.777,1.777,0,0,1-1.777-1.777,26.784,26.784,0,0,1,53.568,0A1.777,1.777,0,0,1,668.1,166.044Zm-48.17-3.553h46.327a23.232,23.232,0,0,0-46.327,0Z" transform="translate(-616.305 -137.484)" fill="url(#b)"/></g></g><g transform="translate(661.931 11.045)"><g transform="translate(0 19.464)"><path d="M710.232,90.89H669.447a1.777,1.777,0,0,1-1.777-1.777V47.867a1.777,1.777,0,0,1,.366-1.079l10.049-13.135a1.778,1.778,0,0,1,1.411-.7h20.688a1.779,1.779,0,0,1,1.411.7l10.049,13.135a1.777,1.777,0,0,1,.366,1.079V89.114A1.777,1.777,0,0,1,710.232,90.89Zm-39.009-3.553h37.232V48.47l-9.15-11.96H680.373l-9.15,11.96Z" transform="translate(-667.67 -32.957)" fill="url(#c)"/></g><g transform="translate(15.31)"><path d="M689.883,42.741a1.779,1.779,0,0,1-1.689-1.227c-.826-2.539-7.807-24.935,1.5-29.633,3.531-1.784,5.811-.315,6.857.722,4.05,4.013,3.626,15.6,1.221,20.468a1.776,1.776,0,1,1-3.186-1.572c2.024-4.1,2.09-13.77-.536-16.372-.318-.315-.978-.969-2.755-.074-4.989,2.518-2.479,16.892.274,25.361a1.779,1.779,0,0,1-1.69,2.327Z" transform="translate(-684.906 -11.045)" fill="url(#d)"/></g><g transform="translate(11.06 38.358)"><path d="M681.9,82.092a1.777,1.777,0,0,1-1.411-2.854l18.55-24.31a1.776,1.776,0,1,1,2.824,2.154L683.31,81.393A1.771,1.771,0,0,1,681.9,82.092Z" transform="translate(-680.121 -54.228)" fill="url(#e)"/></g><g transform="translate(9.332 36.515)"><path d="M683.063,61.927a4.887,4.887,0,1,1,4.887-4.887A4.893,4.893,0,0,1,683.063,61.927Zm0-6.221A1.334,1.334,0,1,0,684.4,57.04,1.336,1.336,0,0,0,683.063,55.706Z" transform="translate(-678.176 -52.153)" fill="url(#f)"/></g><g transform="translate(25.654 57.077)"><path d="M701.438,85.075a4.887,4.887,0,1,1,4.887-4.887A4.893,4.893,0,0,1,701.438,85.075Zm0-6.221a1.334,1.334,0,1,0,1.334,1.334A1.336,1.336,0,0,0,701.438,78.854Z" transform="translate(-696.551 -75.301)" fill="url(#g)"/></g></g><g transform="translate(693.806 98.548)"><path d="M778.48,162.725H705.331a1.777,1.777,0,0,1-1.776-1.777V111.332a1.777,1.777,0,0,1,1.776-1.777H778.48a1.777,1.777,0,0,1,1.777,1.777v49.617A1.777,1.777,0,0,1,778.48,162.725Zm-71.372-3.553h69.6V113.108h-69.6Z" transform="translate(-703.555 -109.555)" fill="url(#h)"/><g transform="translate(21.546)"><path d="M729.587,162.725a1.777,1.777,0,0,1-1.776-1.777V111.332a1.777,1.777,0,1,1,3.553,0v49.617A1.776,1.776,0,0,1,729.587,162.725Z" transform="translate(-727.811 -109.555)" fill="url(#i)"/></g><g transform="translate(0 24.808)"><path d="M778.48,141.037H705.331a1.777,1.777,0,0,1,0-3.553H778.48a1.777,1.777,0,1,1,0,3.553Z" transform="translate(-703.555 -137.484)" fill="url(#j)"/></g><g transform="translate(7.344 7.709)"><path d="M744.426,154.918a1.777,1.777,0,0,1-1.669-1.17,28.414,28.414,0,0,0-13.38-15.818,1.776,1.776,0,0,1-1.135.9c-.052.014-6.8,2-11.548,13.459a1.776,1.776,0,1,1-3.282-1.36c3.25-7.848,7.428-11.822,10.362-13.775-4.222-2.2-10.914-6.372-11.839-11.149a6.222,6.222,0,0,1,1.975-5.775c2.167-2.166,4.218-2.188,5.555-1.818,3.914,1.073,6.776,7,8.448,11.61,1.937-4.75,5.233-10.927,9.47-11.678,1.558-.273,3.894.048,6.205,3.144a6.722,6.722,0,0,1,1.26,6.467c-1.437,4.126-7.074,6.937-11.043,8.45a32.525,32.525,0,0,1,12.289,16.128,1.777,1.777,0,0,1-1.669,2.384Zm-26.269-33.134a2.566,2.566,0,0,0-1.735.959,2.71,2.71,0,0,0-1,2.587c.565,2.922,5.671,6.427,10.083,8.723-1.592-5.211-4.429-11.514-6.98-12.213A1.311,1.311,0,0,0,718.157,121.784Zm20.1.037a1.38,1.38,0,0,0-.25.023c-2.671.472-5.862,6.723-7.753,12.04,4.265-1.34,10.2-4.1,11.243-7.1.22-.633.382-1.65-.753-3.171C739.853,122.424,739.017,121.822,738.253,121.822Z" transform="translate(-711.823 -118.233)" fill="url(#k)"/></g></g></g></svg>