<svg xmlns="http://www.w3.org/2000/svg" xmlns:xlink="http://www.w3.org/1999/xlink" width="115.641" height="142.368" viewBox="0 0 115.641 142.368"><defs><linearGradient id="a" x1="1.31" y1="-0.185" x2="-0.039" y2="0.956" gradientUnits="objectBoundingBox"><stop offset="0" stop-color="#c39b46"/><stop offset="1" stop-color="#9c7d39"/></linearGradient><linearGradient id="b" x1="1.181" y1="-0.076" x2="-0.167" y2="1.064" xlink:href="#a"/><linearGradient id="c" x1="3.075" y1="-37.27" x2="-0.498" y2="15.142" xlink:href="#a"/><linearGradient id="d" x1="9.003" y1="-4.452" x2="-2.806" y2="2.425" xlink:href="#a"/><linearGradient id="e" x1="7.984" y1="-1.953" x2="-3.831" y2="1.919" xlink:href="#a"/><linearGradient id="f" x1="1.79" y1="-13.36" x2="-3.089" y2="39.052" xlink:href="#a"/><linearGradient id="g" x1="2.475" y1="-15.699" x2="-3.916" y2="36.714" xlink:href="#a"/><linearGradient id="h" x1="2.276" y1="-18.58" x2="-2.603" y2="33.832" xlink:href="#a"/><linearGradient id="i" x1="2.598" y1="-22.035" x2="-2.281" y2="30.377" xlink:href="#a"/><linearGradient id="j" x1="2.786" y1="-24.063" x2="-2.093" y2="28.368" xlink:href="#a"/><linearGradient id="k" x1="3.112" y1="-20.926" x2="-3.28" y2="31.504" xlink:href="#a"/><linearGradient id="l" x1="2.206" y1="-1.331" x2="-1.458" y2="2.602" xlink:href="#a"/><linearGradient id="m" x1="2.993" y1="-2.701" x2="-1.605" y2="3.203" xlink:href="#a"/></defs><g transform="translate(-529.26 -93.267)"><path d="M631.027,235.635H529.26V106.512h16.684V219.58h85.083Zm-98.958-2.81h96.148V222.39H543.134V109.322H532.069Z" fill="url(#a)"/><path d="M644.9,222.39H543.134V93.267H644.9Zm-98.957-2.81h96.148V96.077H545.944Z" fill="url(#b)"/><path d="M596.585,204.267h-35.6a1.4,1.4,0,0,1,0-2.81h35.6a1.4,1.4,0,0,1,0,2.81Z" fill="url(#c)"/><path d="M574.79,204.266H563.169V182.85H574.79Zm-8.811-2.809h6v-15.8h-6Z" fill="url(#d)"/><path d="M591.425,204.257H579.81V166.224h11.615Zm-8.806-2.809h6V169.033h-6Z" fill="url(#e)"/><path d="M631.791,116.341H606.475a1.405,1.405,0,0,1,0-2.81h25.316a1.405,1.405,0,0,1,0,2.81Z" fill="url(#f)"/><path d="M625.135,125.516h-18.66a1.4,1.4,0,0,1,0-2.81h18.66a1.4,1.4,0,0,1,0,2.81Z" fill="url(#g)"/><path d="M631.791,143.745H606.475a1.4,1.4,0,0,1,0-2.81h25.316a1.4,1.4,0,0,1,0,2.81Z" fill="url(#h)"/><path d="M631.791,161.881H606.475a1.4,1.4,0,0,1,0-2.81h25.316a1.4,1.4,0,0,1,0,2.81Z" fill="url(#i)"/><path d="M631.791,172.482H606.475a1.4,1.4,0,1,1,0-2.809h25.316a1.4,1.4,0,0,1,0,2.809Z" fill="url(#j)"/><path d="M625.135,152.919h-18.66a1.4,1.4,0,1,1,0-2.809h18.66a1.4,1.4,0,0,1,0,2.809Z" fill="url(#k)"/><path d="M597.033,150.98H559.585V113.531h37.448ZM562.4,148.17h31.829V116.341H562.4Z" fill="url(#l)"/><path d="M634.531,204.266h-29.85V179.321h29.85Zm-27.04-2.809h24.23V182.13h-24.23Z" fill="url(#m)"/></g></svg>