<svg xmlns="http://www.w3.org/2000/svg" xmlns:xlink="http://www.w3.org/1999/xlink" width="149.599" height="128.251" viewBox="0 0 149.599 128.251"><defs><linearGradient id="a" y1="0.5" x2="1" y2="0.5" gradientUnits="objectBoundingBox"><stop offset="0" stop-color="#9b4a69"/><stop offset="1" stop-color="#f288af"/></linearGradient><linearGradient id="e" x1="0" y1="0.5" x2="1" y2="0.5" xlink:href="#a"/></defs><g transform="translate(-1953.388 -311.223)"><path d="M2000.916,436.43a63.638,63.638,0,1,1,77.924-76.739l-3.885.953a59.64,59.64,0,1,0-73.025,71.917Z" fill="url(#a)"/><path d="M2022.591,372.644a2,2,0,0,1-1.414-3.414l29.65-29.651a2,2,0,0,1,2.828,2.828l-29.65,29.651A1.992,1.992,0,0,1,2022.591,372.644Z" fill="url(#a)"/><path d="M2010.635,374a1.985,1.985,0,0,1-1-.268l-22.495-12.993a2,2,0,1,1,2-3.463l22.495,12.993a2,2,0,0,1-1,3.731Z" fill="url(#a)"/><path d="M2016.97,383.8a8.945,8.945,0,1,1,8.951-8.945A8.956,8.956,0,0,1,2016.97,383.8Zm0-13.89a4.954,4.954,0,0,0-4.51,2.913,4.9,4.9,0,0,0-.436,2.032,4.948,4.948,0,1,0,4.946-4.945Z" fill="url(#a)"/><path d="M2016.973,334.38a2,2,0,0,1-2-2v-4.332a2,2,0,0,1,4,0v4.332A2,2,0,0,1,2016.973,334.38Z" fill="url(#e)"/><path d="M2039.531,419.653a12.241,12.241,0,0,1-12.216-12.213v-6.983a12.212,12.212,0,0,1,24.425-.006v6.983A12.25,12.25,0,0,1,2039.531,419.653Zm-.006-26.553a7.427,7.427,0,0,0-7.369,7.369v6.965a7.372,7.372,0,1,0,14.744,0v-6.967A7.4,7.4,0,0,0,2039.524,393.1Z" transform="translate(5.588 -10.757)" fill="url(#a)"/><path d="M2054.08,444.8h-34.418v-9.2A21.46,21.46,0,0,1,2056.8,420.93l1.268,1.355-.978,1.574a20.008,20.008,0,0,0-3.01,10.532Zm-29.578-4.84h24.738V434.39a24.852,24.852,0,0,1,2.766-11.368,16.463,16.463,0,0,0-10.876-4.056,16.689,16.689,0,0,0-16.628,16.643Z" transform="translate(3.981 -5.324)" fill="url(#a)"/><path d="M2067.109,416.094a14.007,14.007,0,0,1-14-14v-8.268a14,14,0,1,1,27.994,0v8.268A14.012,14.012,0,0,1,2067.109,416.094Zm0-31.428a9.171,9.171,0,0,0-9.161,9.16v8.268a9.157,9.157,0,1,0,18.314,0v-8.268A9.167,9.167,0,0,0,2067.109,384.665Z" transform="translate(11.006 -12.529)" fill="url(#a)"/><path d="M2093.871,445.6h-49.765V435.191a24.85,24.85,0,0,1,3.737-13.082,25.106,25.106,0,0,1,3.57-4.5,24.863,24.863,0,0,1,42.459,17.575Zm-44.925-4.84h40.085v-5.565a20.158,20.158,0,0,0-20.053-20.044,19.951,19.951,0,0,0-14.144,5.88,20.266,20.266,0,0,0-2.88,3.634,20,20,0,0,0-3.008,10.53Z" transform="translate(9.115 -6.126)" fill="url(#a)"/></g></svg>