<svg xmlns="http://www.w3.org/2000/svg" xmlns:xlink="http://www.w3.org/1999/xlink" width="157.68" height="126.738" viewBox="0 0 157.68 126.738"><defs><linearGradient id="a" x1="1.508" y1="-0.032" x2="-1.639" y2="2.309" gradientUnits="objectBoundingBox"><stop offset="0" stop-color="#34a096"/><stop offset="1" stop-color="#14645d"/></linearGradient><linearGradient id="b" x1="0.938" y1="-0.261" x2="-0.163" y2="1.651" xlink:href="#a"/><linearGradient id="c" x1="2.042" y1="-0.932" x2="-1.694" y2="2.54" xlink:href="#a"/><linearGradient id="d" x1="4.147" y1="-3.865" x2="-1.51" y2="2.905" xlink:href="#a"/><linearGradient id="e" x1="2.3" y1="-1.597" x2="-3.362" y2="4.517" xlink:href="#a"/><linearGradient id="f" x1="3.448" y1="-2.881" x2="-2.208" y2="3.886" xlink:href="#a"/><linearGradient id="g" x1="1.548" y1="-1.621" x2="-4.092" y2="9.5" xlink:href="#a"/><linearGradient id="h" x1="6.419" y1="-6.146" x2="-5.052" y2="6.676" xlink:href="#a"/><linearGradient id="i" x1="3.998" y1="-3.44" x2="-7.474" y2="9.382" xlink:href="#a"/><linearGradient id="j" x1="1.167" y1="-3.278" x2="-0.015" y2="2.981" xlink:href="#a"/><linearGradient id="k" x1="4.908" y1="-15.358" x2="-5.227" y2="21.1" xlink:href="#a"/><linearGradient id="l" x1="4.624" y1="-17.618" x2="-3.675" y2="18.84" xlink:href="#a"/><linearGradient id="m" x1="13.502" y1="-26.47" x2="-4.069" y2="9.99" xlink:href="#a"/><linearGradient id="n" x1="2.841" y1="-7.32" x2="-2.566" y2="10.272" xlink:href="#a"/><linearGradient id="o" x1="2.188" y1="-1.128" x2="-2.019" y2="3.074" xlink:href="#a"/><linearGradient id="p" x1="3.624" y1="-2.567" x2="-5.856" y2="7.307" xlink:href="#a"/><linearGradient id="q" x1="1.325" y1="-0.421" x2="-0.802" y2="1.955" xlink:href="#a"/></defs><g transform="translate(-30 -42.102)"><path d="M153.54,58.06v53.6c-.73-.07-1.48-.11-2.23-.11a22.05,22.05,0,0,0-13.79,4.81H116.28c19.08,0,30.28-14,30.28-14V58.06Z" fill="#d0e4e2"/><path d="M137.52,118.36H116.28a2,2,0,0,1,0-4c15.88,0,26.09-10.27,28.28-12.7V58.06a2,2,0,0,1,2-2h7a2,2,0,0,1,2,2v50.76a2.26,2.26,0,0,1,.21.92,2,2,0,0,1-2.2,2h0c-4.36,0-10.93,3.17-14.77,6.22a2,2,0,0,1-1.28.4Zm-3.59-4h2.9c3.35-2.51,9.33-5.81,14.71-6.52V60.06h-3v42.35a2,2,0,0,1-.44,1.25,43.16,43.16,0,0,1-14.17,10.7Z" fill="url(#a)"/><path d="M116.28,118.36H32a2,2,0,0,1-2-2V58.06a2,2,0,0,1,2-2h83.78c18.38,0,29.15-13.08,29.26-13.21a2,2,0,0,1,3.56,1.26v58.3a2,2,0,0,1-.44,1.25C147.63,104.26,136.09,118.36,116.28,118.36Zm-82.32-4h82.32c15.82,0,26.08-10.28,28.28-12.7V49a43.48,43.48,0,0,1-28.82,11.08H34Z" fill="url(#b)"/><path d="M92.75,106.18c8.54,0,15.47-8.49,15.47-19s-6.93-19-15.47-19-15.48,8.49-15.48,19S84.2,106.18,92.75,106.18Z" fill="#d0e4e2"/><path d="M61.75,90.89a3.69,3.69,0,1,0-4-3.68,3.86,3.86,0,0,0,4,3.68Z" fill="#d0e4e2"/><path d="M123.68,90.89a3.69,3.69,0,1,0-4-3.68,3.85,3.85,0,0,0,4,3.68Z" fill="#d0e4e2"/><path d="M92.75,108.18c-9.64,0-17.48-9.41-17.48-21s7.84-21,17.48-21,17.47,9.41,17.47,21S102.38,108.18,92.75,108.18Zm0-37.94c-7.43,0-13.48,7.61-13.48,17s6,17,13.48,17,13.47-7.61,13.47-17-6.04-17-13.47-17Z" fill="url(#c)"/><path d="M54.1,115.79a2,2,0,0,1-2-2c0-8.57-7.66-15.54-17.08-15.54a2,2,0,1,1,0-4c11.62,0,21.08,8.76,21.08,19.54A2,2,0,0,1,54.1,115.79Z" fill="url(#d)"/><path d="M124.44,114.78a2,2,0,0,1-2-2c0-10.31,9-21.85,21.06-21.85a2,2,0,0,1,0,4c-9.61,0-17.06,9.6-17.06,17.85A2,2,0,0,1,124.44,114.78Z" fill="url(#e)"/><path d="M35,80.18a2,2,0,0,1,0-4c9.42,0,17.08-7,17.08-15.55a2,2,0,0,1,4,0C56.1,71.41,46.64,80.18,35,80.18Z" fill="url(#f)"/><path d="M134.63,71.73a13.8,13.8,0,0,1-8.27-2.32c-1.8-1.33-4-3.93-4-8.78a2,2,0,0,1,4,0c0,2.59.76,4.41,2.33,5.56,2.69,2,8,2,14.17.14a2,2,0,1,1,1.18,3.82,33.38,33.38,0,0,1-9.41,1.58Z" fill="url(#g)"/><path d="M61.75,92.89a5.69,5.69,0,1,1,6-5.68,5.86,5.86,0,0,1-6,5.68Zm0-7.36a1.71,1.71,0,1,0,2,1.68,1.87,1.87,0,0,0-2-1.68Z" fill="url(#h)"/><path d="M123.68,92.89a5.69,5.69,0,1,1,6-5.68,5.85,5.85,0,0,1-6,5.68Zm0-7.36a1.71,1.71,0,1,0,2,1.68,1.87,1.87,0,0,0-2-1.68Z" fill="url(#i)"/><path d="M137.52,116.36a22.2,22.2,0,0,0-8.39,17.36,13.93,13.93,0,0,0,.09,1.94H32v-19.3Z" fill="#d0e4e2"/><path d="M128,137.66H32a2,2,0,0,1-2-2v-19.3a2,2,0,0,1,2-2H138.4a2,2,0,0,1,1.25,3.56,20.4,20.4,0,0,0-5.64,6.73c-2.9,5.73-3.51,8.88-3.51,10.51a2.24,2.24,0,0,1-.86,1.85,2.67,2.67,0,0,1-.45.26A2,2,0,0,1,128,137.66Zm-94-4h92.6c.34-2.84,1.6-6.4,3.84-10.81a22,22,0,0,1,3-4.49H34Z" fill="url(#j)"/><path d="M131.5,125.76h-8.88a2,2,0,0,1,0-4h8.88a2,2,0,0,1,0,4Z" fill="url(#k)"/><path d="M114.73,125.76H103a2,2,0,0,1,0-4h11.73a2,2,0,0,1,0,4Z" fill="url(#l)"/><path d="M45.46,131.25H42a2,2,0,0,1,0-4h3.43a2,2,0,0,1,0,4Z" fill="url(#m)"/><path d="M157.14,155a16.788,16.788,0,0,1-12.857-6,1.391,1.391,0,0,1,2.117-1.8,14,14,0,0,0,7.16,4.51,15.21,15.21,0,0,0,12.35-2.59,1.39,1.39,0,0,1,1.67,2.22A16.55,16.55,0,0,1,157.14,155Z" fill="url(#n)"/><path d="M156.76,155.45a15.778,15.778,0,0,1-4.11-.49,17.26,17.26,0,0,1-8.83-5.57l-.33-.4c-.32-.4-.59-.77-.84-1.15l-.42-.65a17.31,17.31,0,0,1-2.45-7.51c0-.49-.07-1-.07-1.52a17.14,17.14,0,0,1,1.87-7.83,17.42,17.42,0,0,1,28.82-3.46,2,2,0,0,1-3,2.6,13.35,13.35,0,0,0-8.87-4.66c-.46,0-.92-.06-1.35-.06a13.28,13.28,0,0,0-8.35,2.9,13.58,13.58,0,0,0-3.64,4.48,13.29,13.29,0,0,0-1.44,6,11.452,11.452,0,0,0,.06,1.169,13.25,13.25,0,0,0,1.89,5.791,4.535,4.535,0,0,0,.3.46c.21.33.41.6.62.87l.29.35a13.33,13.33,0,0,0,6.85,4.31,14.62,14.62,0,0,0,11.84-2.5,2,2,0,1,1,2.21,3.33,19,19,0,0,1-11.05,3.54Z" fill="url(#o)"/><path d="M173.56,138.17a2,2,0,0,1-.92-.23l-9.54-5a2,2,0,0,1-.07-3.5l9.77-5.77a2,2,0,0,1,3,1.77l-.24,10.73a2,2,0,0,1-1,1.68,2.06,2.06,0,0,1-1,.32Zm-5.41-7.08,3.48,1.82.09-3.92Z" fill="url(#p)"/><path d="M157,168.84a30.68,30.68,0,1,1,30.68-30.677A30.68,30.68,0,0,1,157,168.84Zm0-57.35a26.68,26.68,0,1,0,26.68,26.68A26.68,26.68,0,0,0,157,111.49Z" fill="url(#q)"/></g></svg>