<svg xmlns="http://www.w3.org/2000/svg" xmlns:xlink="http://www.w3.org/1999/xlink" width="160.294" height="114.034" viewBox="0 0 160.294 114.034"><defs><linearGradient id="a" x1="2.661" y1="-1.55" x2="-0.19" y2="1.065" gradientUnits="objectBoundingBox"><stop offset="0" stop-color="#9b8fc4"/><stop offset="1" stop-color="#251d41"/></linearGradient><linearGradient id="b" x1="1.31" y1="-0.032" x2="0.009" y2="1.119" xlink:href="#a"/><linearGradient id="c" x1="16.88" y1="-1.119" x2="-13.373" y2="1.872" xlink:href="#a"/><linearGradient id="d" x1="3.945" y1="-16.603" x2="-1.503" y2="10.442" xlink:href="#a"/><linearGradient id="e" x1="4.151" y1="-17.63" x2="-1.297" y2="9.421" xlink:href="#a"/><linearGradient id="f" x1="1.58" y1="0.167" x2="-5.585" y2="1.799" xlink:href="#a"/><linearGradient id="g" x1="2.329" y1="-0.028" x2="-6.669" y2="2.178" xlink:href="#a"/><linearGradient id="h" x1="3.993" y1="-0.579" x2="-9.14" y2="3.211" xlink:href="#a"/></defs><g transform="translate(-21.014 -366.11)"><path d="M60.042,480.144a13.188,13.188,0,0,1-11.41-6.539L26.517,435.249a2.34,2.34,0,0,1,3.724-2.78,16.366,16.366,0,0,0,11.5,5.11c.291.009.563.01.836,0l14.192,0a2.339,2.339,0,0,1,2.025,1.168l16.308,28.193a5.687,5.687,0,0,1-2.1,7.738l-6.457,3.731A13.054,13.054,0,0,1,60.042,480.144ZM35.31,441.131,52.681,471.26a8.5,8.5,0,0,0,11.538,3.093l6.451-3.728.007,0a.994.994,0,0,0,.37-1.352L55.423,442.258H42.664c-.3.011-.683.013-1.066,0A21.23,21.23,0,0,1,35.31,441.131Z" fill="url(#a)"/><path d="M120.99,476.09c-5.751,0-7.764-5.375-9.9-11.065-3.8-10.143-8.528-22.767-33.158-22.767H42.664c-.3.011-.683.013-1.066,0a21.169,21.169,0,0,1,1.127-42.323H77.936c24.629-.007,29.354-12.624,33.149-22.762,2.13-5.688,4.142-11.06,9.878-11.06a8.837,8.837,0,0,1,8.821,8.79v92.381A8.89,8.89,0,0,1,120.99,476.09ZM77.936,437.578c27.875,0,33.691,15.529,37.541,25.806,2.136,5.7,3.231,8.026,5.5,8.026a4.184,4.184,0,0,0,4.129-4.144V374.908a4.146,4.146,0,0,0-4.141-4.118c-2.266,0-3.361,2.321-5.495,8.021-3.846,10.271-9.657,25.792-37.532,25.8H42.664a16.49,16.49,0,1,0-.919,32.968c.291.009.563.01.836,0Z" fill="url(#b)"/><path d="M77.933,442.245a2.34,2.34,0,0,1-2.34-2.34V402.266a2.34,2.34,0,1,1,4.679,0V439.9A2.34,2.34,0,0,1,77.933,442.245Z" fill="url(#c)"/><path d="M60.6,418.044H39.3a2.34,2.34,0,0,1,0-4.68H60.6a2.34,2.34,0,1,1,0,4.68Z" fill="url(#d)"/><path d="M60.6,428.818H39.3a2.339,2.339,0,0,1,0-4.679H60.6a2.339,2.339,0,1,1,0,4.679Z" fill="url(#e)"/><path d="M163.891,459.878a2.341,2.341,0,0,1-1.76-3.881c.036-.041.076-.083.117-.124h0a49.26,49.26,0,0,0-.01-69.585,2.339,2.339,0,1,1,3.308-3.309,53.944,53.944,0,0,1,.03,76.183A2.333,2.333,0,0,1,163.891,459.878Zm.011-2.351h0Z" fill="url(#f)"/><path d="M155.825,449.424l-3.342-3.276a35.449,35.449,0,0,0,0-50.1,2.34,2.34,0,1,1,3.307-3.311A40.126,40.126,0,0,1,155.825,449.424Z" fill="url(#g)"/><path d="M144.292,437.445l-3.327-3.29a18.451,18.451,0,0,0,0-26.11,2.339,2.339,0,1,1,3.306-3.311,23.129,23.129,0,0,1,.02,32.711Z" fill="url(#h)"/></g></svg>