<svg xmlns="http://www.w3.org/2000/svg" xmlns:xlink="http://www.w3.org/1999/xlink" width="139.465" height="139.556" viewBox="0 0 139.465 139.556"><defs><linearGradient id="a" x1="1.167" y1="-1.212" x2="-0.291" y2="2.899" gradientUnits="objectBoundingBox"><stop offset="0" stop-color="#34a096"/><stop offset="1" stop-color="#14645d"/></linearGradient><linearGradient id="b" x1="2.01" y1="-1.564" x2="-1.526" y2="3.266" xlink:href="#a"/><linearGradient id="c" x1="3.868" y1="-5.194" x2="-3.147" y2="6.316" xlink:href="#a"/><linearGradient id="d" x1="2.57" y1="-2.906" x2="-4.434" y2="8.603" xlink:href="#a"/><linearGradient id="e" x1="4.513" y1="-4.687" x2="-2.174" y2="4.181" xlink:href="#a"/><linearGradient id="f" x1="2.921" y1="-2.513" x2="-3.771" y2="6.355" xlink:href="#a"/><linearGradient id="g" x1="4.056" y1="-2.902" x2="-4.328" y2="5.117" xlink:href="#a"/><linearGradient id="h" x1="18.029" y1="-11.083" x2="-20.319" y2="14.255" xlink:href="#a"/><linearGradient id="i" x1="15.566" y1="-11.832" x2="-22.781" y2="19.556" xlink:href="#a"/><linearGradient id="j" x1="1.282" y1="-21.471" x2="-0.226" y2="20.83" xlink:href="#a"/><linearGradient id="k" x1="1.346" y1="-22.48" x2="-0.212" y2="19.822" xlink:href="#a"/><linearGradient id="l" x1="1.417" y1="-23.526" x2="-0.198" y2="18.776" xlink:href="#a"/><linearGradient id="m" x1="2.009" y1="-0.065" x2="-3.147" y2="1.646" xlink:href="#a"/><linearGradient id="n" x1="1.855" y1="-0.881" x2="-3.649" y2="4.78" xlink:href="#a"/><linearGradient id="o" x1="1.073" y1="-0.164" x2="-0.071" y2="1.098" xlink:href="#a"/></defs><g transform="translate(-30.987 -26.604)"><path d="M144.58,107.92H56.51a1.75,1.75,0,0,1-1.65-2.3l11-32.33a1.73,1.73,0,0,1,1.65-1.18h66.06a1.73,1.73,0,0,1,1.65,1.18l10.88,32a1.71,1.71,0,0,1,.23.87,1.74,1.74,0,0,1-1.75,1.76Zm-85.64-3.48h83.18l-9.81-28.85H68.75Z" fill="url(#a)"/><path d="M100.53,103.2a22.65,22.65,0,0,1-5.25-.59,20.1,20.1,0,0,1-8-3.77A11.831,11.831,0,0,1,86,97.68a13.15,13.15,0,0,1-4.22-11.36c1-7.75,9.11-13.6,18.77-13.6s17.73,5.85,18.77,13.6a13.17,13.17,0,0,1-4.24,11.37c-.23.23-.47.45-.73.68a19.9,19.9,0,0,1-8.59,4.24A22.37,22.37,0,0,1,100.53,103.2Zm0-27c-7.8,0-14.53,4.65-15.32,10.58a9.79,9.79,0,0,0,3.23,8.43,10.061,10.061,0,0,0,1,.89,16.71,16.71,0,0,0,6.64,3.12,20,20,0,0,0,8.88,0,16.29,16.29,0,0,0,7.1-3.49c.21-.18.4-.35.58-.53a9.77,9.77,0,0,0,3.22-8.42C115.06,80.85,108.32,76.2,100.53,76.2Z" fill="url(#b)"/><path d="M64.34,84.9a1.74,1.74,0,0,1-1.65-2.31l3.16-9.3a1.73,1.73,0,0,1,1.65-1.18H79.88a1.75,1.75,0,0,1,1.36.65,1.72,1.72,0,0,1,.33,1.47C80.25,80.11,72.52,84.9,64.34,84.9Zm4.41-9.31-1.93,5.65c4.69-.65,8.58-3,10.38-5.65Z" fill="url(#c)"/><path d="M136.76,84.9h0c-8.17,0-15.9-4.79-17.23-10.67a1.74,1.74,0,0,1,1.7-2.12H133.6a1.73,1.73,0,0,1,1.65,1.18l3.06,9a1.85,1.85,0,0,1,.23.87,1.74,1.74,0,0,1-1.78,1.74Zm-12.89-9.31c1.8,2.61,5.68,5,10.36,5.65l-1.92-5.65Z" fill="url(#d)"/><path d="M72.6,107.92H56.51a1.75,1.75,0,0,1-1.65-2.3L59.32,92.5A1.75,1.75,0,0,1,61,91.32c4.67,0,8.76,1.76,11.21,4.83a12,12,0,0,1,2.12,10.41,1.74,1.74,0,0,1-1.73,1.36Zm-13.66-3.48H71.12a8.15,8.15,0,0,0-1.66-6.12,10,10,0,0,0-7.26-3.47Z" fill="url(#e)"/><path d="M144.58,107.92H128.47a1.74,1.74,0,0,1-1.7-1.36,12.07,12.07,0,0,1,2.12-10.42c2.44-3.06,6.53-4.82,11.2-4.82a1.75,1.75,0,0,1,1.65,1.18l4.35,12.81a1.71,1.71,0,0,1,.23.87A1.74,1.74,0,0,1,144.58,107.92ZM130,104.44h12.17l-3.26-9.59a10,10,0,0,0-7.25,3.47,8.14,8.14,0,0,0-1.66,6.12Z" fill="url(#f)"/><path d="M100.59,96.35A9.15,9.15,0,0,1,94,93.89a4.65,4.65,0,0,1-1.38-3.49,1.742,1.742,0,1,1,3.48.18,1.28,1.28,0,0,0,.42.92,6.69,6.69,0,0,0,8.11,0,1.23,1.23,0,0,0,.42-.92c0-.56-1.2-2.21-4.53-2.21s-5.33-1.2-6.29-2.2A4.56,4.56,0,0,1,92.92,83c.15-2.87,3.41-5,7.57-5s7.41,2.16,7.56,5a1.742,1.742,0,1,1-3.48.18c0-.61-1.6-1.73-4.08-1.73s-4.06,1.12-4.09,1.73c0,.34.8,1.76,4.13,1.76,5.62,0,7.9,3.38,8,5.51a4.68,4.68,0,0,1-1.37,3.5,9.19,9.19,0,0,1-6.57,2.4Z" fill="url(#g)"/><path d="M100.54,98.87a1.74,1.74,0,0,1-1.74-1.74V94.8a1.74,1.74,0,1,1,3.48,0v2.33a1.74,1.74,0,0,1-1.74,1.74Z" fill="url(#h)"/><path d="M100.54,81.08a1.74,1.74,0,0,1-1.74-1.75v-1.2a1.74,1.74,0,1,1,3.48,0v1.2a1.74,1.74,0,0,1-1.74,1.75Z" fill="url(#i)"/><path d="M143.28,114.44H58A1.74,1.74,0,0,1,58,111h85.24a1.74,1.74,0,0,1,0,3.48Z" fill="url(#j)"/><path d="M141.75,120.91H59.57a1.74,1.74,0,1,1,0-3.48h82.18a1.74,1.74,0,1,1,0,3.48Z" fill="url(#k)"/><path d="M140.23,127.54H61.09a1.74,1.74,0,1,1,0-3.48h79.14a1.74,1.74,0,1,1,0,3.48Z" fill="url(#l)"/><path d="M157,136.72a1.43,1.43,0,0,1-.79-.24,1.39,1.39,0,0,1-.36-1.93A66.81,66.81,0,0,0,167.5,95.78c0-.36.15-30.95-27.46-53.45a1.39,1.39,0,1,1,1.7-2.2,68.86,68.86,0,0,1,26.18,37.81,69.72,69.72,0,0,1-9.78,58.18,1.38,1.38,0,0,1-1.14.6Z" fill="url(#m)"/><path d="M135.6,55.89a2,2,0,0,1-1.39-.57l-19.67-19a2.029,2.029,0,0,1,.91-3.42l25-6.24A2,2,0,0,1,142.88,29L142,33.41,137.6,54.3A2,2,0,0,1,135.6,55.89Zm-15.68-20,14.47,14,3.92-18.6Z" fill="url(#n)"/><path d="M100.66,166.09A69.75,69.75,0,0,1,67.54,35a2,2,0,0,1,1.9,3.52,65.76,65.76,0,1,0,68.88,4,2,2,0,1,1,2.3-3.28,69.75,69.75,0,0,1-40,126.92Z" fill="url(#o)"/></g></svg>