<svg xmlns="http://www.w3.org/2000/svg" xmlns:xlink="http://www.w3.org/1999/xlink" width="130.966" height="115.651" viewBox="0 0 130.966 115.651"><defs><linearGradient id="a" x1="1.53" y1="-0.081" x2="-0.651" y2="1.149" gradientUnits="objectBoundingBox"><stop offset="0" stop-color="#d8805a"/><stop offset="1" stop-color="#7b4129"/></linearGradient><linearGradient id="b" x1="1.651" y1="-3.259" x2="-2.334" y2="9.162" xlink:href="#a"/><linearGradient id="c" x1="1.51" y1="-1.088" x2="-0.855" y2="2.63" xlink:href="#a"/><linearGradient id="d" x1="2.425" y1="-17.18" x2="-2.126" y2="24.61" xlink:href="#a"/><linearGradient id="e" x1="3.39" y1="-19.039" x2="-2.792" y2="22.751" xlink:href="#a"/><linearGradient id="f" x1="2.211" y1="-1.143" x2="-1.118" y2="2.054" xlink:href="#a"/><linearGradient id="g" x1="22.257" y1="-3.991" x2="-21.253" y2="4.99" xlink:href="#a"/><linearGradient id="h" x1="24.129" y1="-13.722" x2="-19.38" y2="12.466" xlink:href="#a"/><linearGradient id="i" x1="10.123" y1="-4.584" x2="-11.285" y2="6.726" xlink:href="#a"/><linearGradient id="j" x1="7.971" y1="-8.48" x2="-5.173" y2="7.319" xlink:href="#a"/><linearGradient id="k" x1="11.194" y1="-7.883" x2="-4.704" y2="4.579" xlink:href="#a"/><linearGradient id="l" x1="7.95" y1="-19.321" x2="-3.253" y2="10.486" xlink:href="#a"/></defs><g transform="translate(-925.635 289.682)"><g transform="translate(963.544 -287.584)"><g transform="translate(0 0.127)"><path d="M1029.079-173.591h-49.45a8.59,8.59,0,0,1-8.581-8.58V-231a1.669,1.669,0,0,1,1.67-1.67A18.5,18.5,0,0,0,991.2-251.147a18.5,18.5,0,0,0-18.481-18.482,1.669,1.669,0,0,1-1.67-1.669v-7.136a8.591,8.591,0,0,1,8.581-8.582h49.45a8.592,8.592,0,0,1,8.582,8.582V-230.3a1.67,1.67,0,0,1-1.67,1.669h-29.968v30.852h29.968a1.67,1.67,0,0,1,1.67,1.67v13.94A8.591,8.591,0,0,1,1029.079-173.591Zm-54.692-55.8v47.219a5.247,5.247,0,0,0,5.242,5.241h49.45a5.248,5.248,0,0,0,5.243-5.241v-12.271h-29.968a1.67,1.67,0,0,1-1.67-1.67V-230.3a1.67,1.67,0,0,1,1.67-1.67h29.968v-46.462a5.249,5.249,0,0,0-5.243-5.243h-49.45a5.249,5.249,0,0,0-5.242,5.243v5.531a21.849,21.849,0,0,1,20.15,21.757A21.85,21.85,0,0,1,974.387-229.39Z" transform="translate(-971.048 287.017)" fill="url(#a)"/></g><g transform="translate(15.258)"><path d="M1018.741-275.935H995.967a5.034,5.034,0,0,1-4.822-3.536L989.4-285a1.667,1.667,0,0,1,.248-1.492,1.736,1.736,0,0,1,1.351-.68l33.113.126a1.669,1.669,0,0,1,1.375.733,1.665,1.665,0,0,1,.171,1.549l-2.217,5.625A5.026,5.026,0,0,1,1018.741-275.935Zm-25.466-7.886,1.054,3.347a1.709,1.709,0,0,0,1.637,1.2h22.775a1.706,1.706,0,0,0,1.6-1.086l1.322-3.352Z" transform="translate(-989.326 287.169)" fill="url(#b)"/></g></g><g transform="translate(995.18 -232.413)"><path d="M1068.7-183.545h-58.082a1.67,1.67,0,0,1-1.67-1.67v-34.191a1.67,1.67,0,0,1,1.67-1.67h47.874a1.669,1.669,0,0,1,1.669,1.67v24.28l9.654,8.669a1.67,1.67,0,0,1,.444,1.84A1.67,1.67,0,0,1,1068.7-183.545Zm-56.413-3.339h52.055l-6.966-6.254a1.67,1.67,0,0,1-.554-1.243v-23.356h-44.535Z" transform="translate(-1008.947 221.076)" fill="url(#c)"/></g><g transform="translate(1004.833 -221.794)"><path d="M1050.764-205.016H1022.18a1.67,1.67,0,0,1-1.669-1.67,1.669,1.669,0,0,1,1.669-1.67h28.584a1.67,1.67,0,0,1,1.67,1.67A1.67,1.67,0,0,1,1050.764-205.016Z" transform="translate(-1020.511 208.355)" fill="url(#d)"/></g><g transform="translate(1004.833 -213.244)"><path d="M1042.341-194.774H1022.18a1.67,1.67,0,0,1-1.669-1.67,1.669,1.669,0,0,1,1.669-1.669h20.161a1.669,1.669,0,0,1,1.67,1.669A1.67,1.67,0,0,1,1042.341-194.774Z" transform="translate(-1020.511 198.113)" fill="url(#e)"/></g><g transform="translate(943.392 -273.408)"><path d="M968.728-226.545a21.846,21.846,0,0,1-21.821-21.82,21.846,21.846,0,0,1,21.821-21.821,21.845,21.845,0,0,1,21.82,21.821A21.845,21.845,0,0,1,968.728-226.545Zm0-40.3a18.5,18.5,0,0,0-18.482,18.482,18.5,18.5,0,0,0,18.482,18.481,18.5,18.5,0,0,0,18.481-18.481A18.5,18.5,0,0,0,968.728-266.848Z" transform="translate(-946.907 270.187)" fill="url(#f)"/></g><g transform="translate(963.544 -263.376)"><path d="M972.718-242.633a1.669,1.669,0,0,1-1.67-1.67v-12.2a1.67,1.67,0,0,1,1.67-1.669,1.67,1.67,0,0,1,1.669,1.669v12.2A1.67,1.67,0,0,1,972.718-242.633Z" transform="translate(-971.048 258.169)" fill="url(#g)"/></g><g transform="translate(963.544 -245.757)"><path d="M972.718-231.734a1.669,1.669,0,0,1-1.67-1.67v-1.989a1.67,1.67,0,0,1,1.67-1.67,1.67,1.67,0,0,1,1.669,1.67v1.989A1.67,1.67,0,0,1,972.718-231.734Z" transform="translate(-971.048 237.062)" fill="url(#h)"/></g><g transform="translate(949.132 -289.682)"><path d="M958.9-277.344a1.671,1.671,0,0,1-1.559-1.074l-3.446-9a1.67,1.67,0,0,1,.963-2.156,1.671,1.671,0,0,1,2.156.962l3.446,9a1.67,1.67,0,0,1-.963,2.156A1.663,1.663,0,0,1,958.9-277.344Z" transform="translate(-953.783 289.682)" fill="url(#i)"/></g><g transform="translate(928.823 -272.281)"><path d="M938.836-260a1.659,1.659,0,0,1-.967-.31l-7.714-5.493a1.669,1.669,0,0,1-.392-2.328,1.667,1.667,0,0,1,2.328-.391l7.714,5.493a1.669,1.669,0,0,1,.391,2.328A1.666,1.666,0,0,1,938.836-260Z" transform="translate(-929.454 268.836)" fill="url(#j)"/></g><g transform="translate(942.625 -229.769)"><path d="M947.656-206.712a1.658,1.658,0,0,1-.989-.326,1.67,1.67,0,0,1-.352-2.335l5.8-7.858a1.671,1.671,0,0,1,2.335-.352,1.67,1.67,0,0,1,.352,2.335l-5.8,7.858A1.668,1.668,0,0,1,947.656-206.712Z" transform="translate(-945.989 217.909)" fill="url(#k)"/></g><g transform="translate(925.635 -244.44)"><path d="M927.3-230.8a1.67,1.67,0,0,1-1.651-1.44,1.668,1.668,0,0,1,1.423-1.882l9.63-1.341a1.663,1.663,0,0,1,1.882,1.423,1.667,1.667,0,0,1-1.423,1.883l-9.628,1.34A1.58,1.58,0,0,1,927.3-230.8Z" transform="translate(-925.635 235.484)" fill="url(#l)"/></g></g></svg>