<svg xmlns="http://www.w3.org/2000/svg" xmlns:xlink="http://www.w3.org/1999/xlink" width="138.992" height="126.698" viewBox="0 0 138.992 126.698"><defs><linearGradient id="a" x1="1.208" y1="-31.638" x2="-0.138" y2="29.479" gradientUnits="objectBoundingBox"><stop offset="0" stop-color="#d7805b"/><stop offset="1" stop-color="#7b4129"/></linearGradient><linearGradient id="b" x1="1.051" y1="-0.525" x2="-0.082" y2="1.531" xlink:href="#a"/><linearGradient id="c" x1="0.887" y1="-1.744" x2="-0.246" y2="5.015" xlink:href="#a"/><linearGradient id="d" x1="1.266" y1="-0.996" x2="0.134" y2="1.178" xlink:href="#a"/><linearGradient id="e" x1="1.129" y1="-33.466" x2="-0.003" y2="27.652" xlink:href="#a"/><linearGradient id="f" x1="1.093" y1="-2.976" x2="-0.04" y2="3.787" xlink:href="#a"/><linearGradient id="h" x1="6.298" y1="-6.215" x2="-6.362" y2="8.447" xlink:href="#a"/><linearGradient id="i" x1="5.782" y1="-5.617" x2="-6.877" y2="9.044" xlink:href="#a"/><linearGradient id="j" x1="5.266" y1="-5.02" x2="-7.393" y2="9.641" xlink:href="#a"/><linearGradient id="k" x1="3.931" y1="-3.473" x2="-0.69" y2="1.879" xlink:href="#a"/><linearGradient id="l" x1="4.436" y1="-4.889" x2="-0.183" y2="1.435" xlink:href="#a"/><linearGradient id="m" x1="2.708" y1="-4.015" x2="-0.385" y2="2.309" xlink:href="#a"/><linearGradient id="n" x1="5.602" y1="-3.29" x2="-2.911" y2="3.034" xlink:href="#a"/><linearGradient id="o" x1="1.645" y1="-2.866" x2="-0.39" y2="3.116" xlink:href="#a"/></defs><g transform="translate(-2576.675 -552.667)"><g transform="translate(2595.698 606.93)"><rect width="100.944" height="2.574" rx="1.287" fill="url(#a)"/></g><g transform="translate(2595.698 569.222)"><path d="M2710.788,647.668h-13.209a1.26,1.26,0,0,1-1.26-1.26V610.156a1.216,1.216,0,0,1,.021-.225V594.155a3.511,3.511,0,0,0-3.487-3.486h-93.7a1.26,1.26,0,0,1-1.26-1.26V572.393a1.26,1.26,0,0,1,1.26-1.26H2716.6a1.26,1.26,0,0,1,1.26,1.26v67.86A7.26,7.26,0,0,1,2710.788,647.668Zm-11.95-2.519h11.95a4.74,4.74,0,0,0,4.554-4.9v-66.6H2600.413v14.5h92.445a6.038,6.038,0,0,1,6,6v16a1.27,1.27,0,0,1-.02.226Z" transform="translate(-2597.894 -571.133)" fill="url(#b)"/></g><g transform="translate(2595.7 552.667)"><path d="M2716.6,575.945a1.259,1.259,0,0,1-1.259-1.26v-16a3.48,3.48,0,0,0-3.454-3.5H2604.045a1.269,1.269,0,0,1-.142.008,3.486,3.486,0,0,0-3.488,3.5v15.995a1.26,1.26,0,1,1-2.519,0V558.694a6,6,0,0,1,5.846-6.016,1.182,1.182,0,0,1,.161-.011H2711.9a6,6,0,0,1,5.965,6.026v15.992A1.259,1.259,0,0,1,2716.6,575.945Z" transform="translate(-2597.896 -552.667)" fill="url(#c)"/></g><g transform="translate(2576.675 606.986)"><path d="M2689.569,685.635H2583.743a7.079,7.079,0,0,1-7.068-7.074V614.515a1.259,1.259,0,0,1,1.26-1.259h117.448a1.259,1.259,0,0,1,1.26,1.259v64.047A7.082,7.082,0,0,1,2689.569,685.635Zm-110.374-69.861v62.787a4.557,4.557,0,0,0,4.549,4.554h105.825a4.56,4.56,0,0,0,4.554-4.554V615.774Z" transform="translate(-2576.675 -613.256)" fill="url(#d)"/></g><g transform="translate(2576.675 606.93)"><rect width="119.967" height="2.574" rx="1.287" fill="url(#e)"/></g><g transform="translate(2576.675 586.24)"><path d="M2695.4,613.38a1.287,1.287,0,0,1-.372-.055h-117.1a1.259,1.259,0,0,1-1.26-1.26V596.12a6.011,6.011,0,0,1,5.988-6h108a6.038,6.038,0,0,1,6,6v16A1.26,1.26,0,0,1,2695.4,613.38Zm-116.208-2.574h114.949v-14.68a3.512,3.512,0,0,0-3.487-3.491H2582.665a3.487,3.487,0,0,0-3.47,3.486Z" transform="translate(-2576.675 -590.115)" fill="url(#f)"/></g><g transform="translate(2576.675 606.93)"><rect width="119.967" height="2.574" rx="1.287" fill="url(#e)"/></g><g transform="translate(2650.376 592.479)"><path d="M2664.249,607.806a5.366,5.366,0,1,1,5.366-5.366A5.372,5.372,0,0,1,2664.249,607.806Zm0-8.212a2.846,2.846,0,1,0,2.847,2.846A2.849,2.849,0,0,0,2664.249,599.594Z" transform="translate(-2658.883 -597.075)" fill="url(#h)"/></g><g transform="translate(2663.337 592.479)"><path d="M2678.706,607.806a5.366,5.366,0,1,1,5.366-5.366A5.371,5.371,0,0,1,2678.706,607.806Zm0-8.212a2.846,2.846,0,1,0,2.847,2.846A2.85,2.85,0,0,0,2678.706,599.594Z" transform="translate(-2673.34 -597.075)" fill="url(#i)"/></g><g transform="translate(2676.295 592.479)"><path d="M2693.16,607.806a5.366,5.366,0,1,1,5.365-5.366A5.372,5.372,0,0,1,2693.16,607.806Zm0-8.212a2.846,2.846,0,1,0,2.846,2.846A2.85,2.85,0,0,0,2693.16,599.594Z" transform="translate(-2687.794 -597.075)" fill="url(#j)"/></g><g transform="translate(2585.247 613.077)"><path d="M2600.934,649.447a14.7,14.7,0,1,1,14.7-14.7A14.715,14.715,0,0,1,2600.934,649.447Zm0-26.878a12.179,12.179,0,1,0,12.179,12.179A12.193,12.193,0,0,0,2600.934,622.569Z" transform="translate(-2586.236 -620.05)" fill="url(#k)"/></g><g transform="translate(2585.247 645.489)"><path d="M2614.387,681.081H2587.5a1.259,1.259,0,0,1-1.26-1.26V657.464a1.259,1.259,0,0,1,1.26-1.26h26.892a1.259,1.259,0,0,1,1.26,1.26v22.358A1.259,1.259,0,0,1,2614.387,681.081Zm-25.632-2.519h24.373v-19.84h-24.373Z" transform="translate(-2586.236 -656.204)" fill="url(#l)"/></g><g transform="translate(2621.951 645.489)"><path d="M2669.835,681.081h-41.4a1.259,1.259,0,0,1-1.26-1.26V657.464a1.259,1.259,0,0,1,1.26-1.26h41.4a1.26,1.26,0,0,1,1.26,1.26v22.358A1.26,1.26,0,0,1,2669.835,681.081Zm-40.139-2.519h38.879v-19.84H2629.7Z" transform="translate(-2627.177 -656.204)" fill="url(#m)"/></g><g transform="translate(2672.402 645.489)"><path d="M2698.15,681.081h-13.439a1.26,1.26,0,0,1-1.26-1.26V657.464a1.26,1.26,0,0,1,1.26-1.26h13.439a1.259,1.259,0,0,1,1.26,1.26v22.358A1.259,1.259,0,0,1,2698.15,681.081Zm-12.179-2.519h10.919v-19.84h-10.919Z" transform="translate(-2683.452 -656.204)" fill="url(#n)"/></g><g transform="translate(2621.911 613.077)"><path d="M2692.656,646.355h-64.264a1.259,1.259,0,0,1-1.26-1.26V621.31a1.259,1.259,0,0,1,1.26-1.26h64.264a1.259,1.259,0,0,1,1.259,1.26v23.785A1.259,1.259,0,0,1,2692.656,646.355Zm-63-2.518H2691.4V622.569h-61.745Z" transform="translate(-2627.133 -620.05)" fill="url(#o)"/></g></g></svg>