<svg xmlns="http://www.w3.org/2000/svg" xmlns:xlink="http://www.w3.org/1999/xlink" width="131.941" height="91.814" viewBox="0 0 131.941 91.814"><defs><linearGradient id="a" x1="1.379" y1="-2.802" x2="-0.943" y2="5.786" gradientUnits="objectBoundingBox"><stop offset="0" stop-color="#1cabe0"/><stop offset="1" stop-color="#107aa3"/></linearGradient><linearGradient id="b" x1="1.463" y1="-1.57" x2="-0.858" y2="3.129" xlink:href="#a"/><linearGradient id="c" x1="1.627" y1="-1.869" x2="-0.694" y2="2.738" xlink:href="#a"/><linearGradient id="d" x1="1.791" y1="-2.142" x2="-0.53" y2="2.356" xlink:href="#a"/><linearGradient id="e" x1="9.706" y1="-9.218" x2="-8.798" y2="10.319" xlink:href="#a"/><linearGradient id="f" x1="10.606" y1="-10.168" x2="-7.898" y2="9.369" xlink:href="#a"/><linearGradient id="g" x1="13.542" y1="-13.268" x2="-4.963" y2="6.269" xlink:href="#a"/><linearGradient id="h" x1="16.028" y1="-15.891" x2="-2.477" y2="3.645" xlink:href="#a"/><linearGradient id="i" x1="11.053" y1="-10.639" x2="-7.452" y2="8.897" xlink:href="#a"/><linearGradient id="j" x1="12.399" y1="-12.061" x2="-6.105" y2="7.475" xlink:href="#a"/><linearGradient id="k" x1="5.791" y1="-6.203" x2="-4.123" y2="6.366" xlink:href="#a"/><linearGradient id="l" x1="8.102" y1="-8.952" x2="-1.93" y2="3.521" xlink:href="#a"/><linearGradient id="m" x1="5.902" y1="-31.25" x2="-2.407" y2="17.59" xlink:href="#a"/><linearGradient id="n" x1="8.795" y1="-8.255" x2="-9.709" y2="11.281" xlink:href="#a"/><linearGradient id="o" x1="5.859" y1="-5.156" x2="-12.645" y2="14.38" xlink:href="#a"/><linearGradient id="p" x1="3.374" y1="-2.532" x2="-15.131" y2="17.005" xlink:href="#a"/><linearGradient id="q" x1="5.107" y1="-5.342" x2="-4.891" y2="7.328" xlink:href="#a"/><linearGradient id="r" x1="2.884" y1="-2.469" x2="-7.184" y2="10.076" xlink:href="#a"/><linearGradient id="s" x1="3.366" y1="-16.32" x2="-4.958" y2="32.522" xlink:href="#a"/></defs><g transform="translate(-19.73 -42.11)"><path d="M96.8,65.515c-15.1,0-29.317-4.2-30.411-8.989a3.29,3.29,0,0,1-.076-.666c0-6.12,19.126-7.75,30.487-7.75s30.48,1.637,30.48,7.75a3.3,3.3,0,0,1-.069.673C126.122,61.315,111.907,65.515,96.8,65.515Zm0-14.345c-17.061,0-26.922,3.06-27.427,4.728.451,1.913,11.568,6.556,27.427,6.556s26.892-4.59,27.435-6.579C123.643,54.223,113.789,51.17,96.8,51.17ZM124.217,55.9Z" transform="translate(-10.944 -1.41)" fill="url(#a)"/><path d="M96.8,87.852c-14.245,0-28.7-4.345-30.311-9.119a2.93,2.93,0,0,1-.176-.995V57.725a1.53,1.53,0,0,1,3.06,0c.451,1.951,11.568,6.595,27.427,6.595s26.953-4.59,27.435-6.595a1.147,1.147,0,0,1,0-.283,1.537,1.537,0,1,1,3.06.283V77.738a3.06,3.06,0,0,1-.176,1.01C125.5,83.507,111.05,87.852,96.8,87.852ZM69.37,61.756V77.738c.765,2.165,11.858,7.054,27.427,7.054s26.7-4.889,27.427-7.038v-16C119.1,64.985,108.2,67.38,96.79,67.38S74.488,64.985,69.37,61.756Z" transform="translate(-10.944 -3.274)" fill="url(#b)"/><path d="M96.8,114.838c-15.247,0-28.819-5.355-30.319-9.946a2.983,2.983,0,0,1-.168-.972V83.93a1.53,1.53,0,0,1,3.06,0c.765,2.165,11.858,7.054,27.427,7.054s26.7-4.889,27.427-7.038a1.53,1.53,0,0,1,3.06,0h0v20.021a3.152,3.152,0,0,1-.161.972C125.632,109.513,112.06,114.838,96.8,114.838ZM69.37,88.061v15.913c.765,2.341,12.241,7.826,27.427,7.826s26.654-5.508,27.419-7.826V88.038c-5.21,3.389-16.38,6.006-27.435,6.006S74.588,91.428,69.37,88.038Z" transform="translate(-10.944 -9.466)" fill="url(#c)"/><path d="M96.8,141.8c-15.7,0-30.487-6.579-30.487-11.682V110.1a1.53,1.53,0,1,1,3.06,0c.765,2.341,12.241,7.826,27.427,7.826s26.654-5.485,27.419-7.8a1.534,1.534,0,1,1,3.068-.023h0v20.014C127.277,135.217,112.5,141.8,96.8,141.8ZM69.37,114.331v15.783c.245,2.142,11.652,8.622,27.427,8.622s27.2-6.48,27.435-8.63V114.331c-5.042,3.527-15.745,6.656-27.435,6.656S74.412,117.858,69.37,114.331Z" transform="translate(-10.944 -15.615)" fill="url(#d)"/><path d="M76.2,77.8a3.825,3.825,0,1,1,3.825-3.825A3.825,3.825,0,0,1,76.2,77.8Zm0-4.59a.754.754,0,1,1,0,.023Z" transform="translate(-12.368 -6.588)" fill="url(#e)"/><path d="M27.565,49.761a3.825,3.825,0,1,1,3.825-3.825A3.825,3.825,0,0,1,27.565,49.761Zm0-4.59a.75.75,0,1,1,0,.031Z" transform="translate(-0.942)" fill="url(#f)"/><path d="M23.555,104.771a3.825,3.825,0,1,1,3.825-3.825,3.825,3.825,0,0,1-3.825,3.825Zm0-4.59a.754.754,0,1,1,0,.023Z" transform="translate(0 -12.925)" fill="url(#g)"/><path d="M29.065,159.771a3.825,3.825,0,1,1,3.825-3.825A3.825,3.825,0,0,1,29.065,159.771Zm0-4.59a.754.754,0,1,1,0,.023Z" transform="translate(-1.295 -25.847)" fill="url(#h)"/><path d="M76.2,104.771a3.825,3.825,0,1,1,3.825-3.825,3.825,3.825,0,0,1-3.825,3.825Zm0-4.59a.754.754,0,1,1,0,.023Z" transform="translate(-12.368 -12.925)" fill="url(#i)"/><path d="M76.2,131.741a3.825,3.825,0,1,1,3.825-3.825A3.825,3.825,0,0,1,76.2,131.741Zm0-4.59a.754.754,0,1,1,0,.023Z" transform="translate(-12.368 -19.261)" fill="url(#j)"/><path d="M51.353,64.729a1.53,1.53,0,0,1-.972-.291L39.242,55.617a1.53,1.53,0,1,1,1.89-2.4L52.294,62a1.53,1.53,0,0,1-.941,2.731Z" transform="translate(-4.433 -2.521)" fill="url(#k)"/><path d="M38.461,146.21a1.53,1.53,0,0,1-.964-2.716l11.055-8.928a1.532,1.532,0,0,1,1.92,2.387l-11.055,8.921A1.53,1.53,0,0,1,38.461,146.21Z" transform="translate(-4.042 -21.643)" fill="url(#l)"/><path d="M50.508,103.2H36.53a1.53,1.53,0,1,1,0-3.06H50.508a1.53,1.53,0,1,1,0,3.06Z" transform="translate(-3.588 -13.634)" fill="url(#m)"/><path d="M182.005,159.771a3.825,3.825,0,1,1,3.825-3.825A3.825,3.825,0,0,1,182.005,159.771Zm0-4.59a.754.754,0,1,1,0,.023Z" transform="translate(-37.228 -25.847)" fill="url(#n)"/><path d="M186.015,104.771a3.825,3.825,0,1,1,3.825-3.825,3.825,3.825,0,0,1-3.825,3.825Zm0-4.59a.754.754,0,1,1,0,.023Z" transform="translate(-38.17 -12.925)" fill="url(#o)"/><path d="M180.505,49.761a3.825,3.825,0,1,1,3.825-3.825A3.825,3.825,0,0,1,180.505,49.761Zm0-4.59a.75.75,0,1,1,0,.031Z" transform="translate(-36.875)" fill="url(#p)"/><path d="M167.369,147.747a1.53,1.53,0,0,1-.949-.329l-11.162-8.783a1.53,1.53,0,0,1,1.89-2.4l11.162,8.783a1.53,1.53,0,0,1-.941,2.731Z" transform="translate(-31.719 -22.048)" fill="url(#q)"/><path d="M158.081,66.341a1.51,1.51,0,0,1-.956-2.693l11.047-8.92a1.53,1.53,0,0,1,1.92,2.379l-11.047,8.928A1.576,1.576,0,0,1,158.081,66.341Z" transform="translate(-32.146 -2.894)" fill="url(#r)"/><path d="M170.137,103.2H156.19a1.53,1.53,0,0,1,0-3.06h13.947a1.53,1.53,0,0,1,0,3.06Z" transform="translate(-31.702 -13.634)" fill="url(#s)"/></g></svg>