<svg xmlns="http://www.w3.org/2000/svg" width="230.044" height="159.522" viewBox="0 0 230.044 159.522"><g transform="translate(-768.414 0.704)"><g transform="translate(769.22)"><g transform="translate(21.869)"><g transform="translate(0 96.892)"><rect width="179.064" height="1.779" fill="none" stroke="#d3d3d3" stroke-linecap="round" stroke-linejoin="round" stroke-width="1.403"/><rect width="6.056" height="13.728" transform="translate(172.499 1.773)" fill="none" stroke="#d3d3d3" stroke-linecap="round" stroke-linejoin="round" stroke-width="1.403"/><rect width="6.31" height="15.501" transform="translate(120.152)" fill="none" stroke="#d3d3d3" stroke-linecap="round" stroke-linejoin="round" stroke-width="1.403"/><rect width="46.043" height="2.201" transform="translate(126.465 13.3)" fill="none" stroke="#d3d3d3" stroke-linecap="round" stroke-linejoin="round" stroke-width="1.403"/><rect width="3.006" height="10.968" transform="translate(121.974 2.627)" fill="none" stroke="#d3d3d3" stroke-linecap="round" stroke-linejoin="round" stroke-width="1.403"/></g><g transform="translate(7.792 38.378)"><line y1="36.974" transform="translate(0.001 16.33)" fill="none" stroke="#d3d3d3" stroke-linecap="round" stroke-linejoin="round" stroke-width="1.403"/><path d="M974.579,276.026s8.024-9.111,22.785-8.979c12.931.116,17.522,4.672,30.62,4.278,12.716-.383,23.173-5.788,27.656-7.242,4.914-1.594,21.526-7.449,31.51-2.329" transform="translate(-974.578 -259.696)" fill="none" stroke="#d3d3d3" stroke-linecap="round" stroke-linejoin="round" stroke-width="1.403"/><path d="M1091.48,273.617l-.212,56.456H981.28v-3.049L979.659,327l.466-.762" transform="translate(-978.907 -271.56)" fill="none" stroke="#d3d3d3" stroke-linecap="round" stroke-linejoin="round" stroke-width="1.403"/><path d="M975.791,621.763a.374.374,0,0,0-.243-.527c-.415-.125-.982-.6-.975-.847" transform="translate(-974.574 -567.085)" fill="none" stroke="#d3d3d3" stroke-linecap="round" stroke-linejoin="round" stroke-width="1.403"/><path d="M1102.659,349.6l-.169-52.221c-10.558-3.049-25.419,2.945-29.731,5-4.072,1.938-13.049,4.775-24.479,4.786-12.113.012-16.621-3.982-28.574-4.089-13.644-.122-20.681,6.672-20.681,6.672l-.085,39.855Z" transform="translate(-995.339 -291.091)" fill="#d3d3d3" stroke="#d3d3d3" stroke-linecap="round" stroke-linejoin="round" stroke-width="1.403" fill-rule="evenodd" opacity="0.5" style="isolation:isolate"/></g><g transform="translate(1.991 87.898)"><rect width="8.174" height="3.049" transform="translate(0 5.945)" fill="none" stroke="#d3d3d3" stroke-linecap="round" stroke-linejoin="round" stroke-width="1.403"/><path d="M950.434,600.681s.774-1.131.3-1.228a2.9,2.9,0,0,1-1.482-1.144c-.155-.37.55-1.117-.17-1.271s-1.469-2.47-2.117-2.245-.664,1.185-.635,1.779-.975.678-.975.678.9,1.852.72,2.2,1.29.912,1.271,1.4" transform="translate(-943.869 -594.779)" fill="none" stroke="#d3d3d3" stroke-linecap="round" stroke-linejoin="round" stroke-width="1.403"/><path d="M941.786,615.8s-.931.772-.8,1.144,1.589,1.467,1.694,1.779" transform="translate(-940.135 -612.695)" fill="none" stroke="#d3d3d3" stroke-linecap="round" stroke-linejoin="round" stroke-width="1.403"/><path d="M951.5,595.456s.556,1.379-1.567,2.2" transform="translate(-947.774 -595.356)" fill="none" stroke="#d3d3d3" stroke-linecap="round" stroke-linejoin="round" stroke-width="1.403"/><path d="M948.194,610.073s-.171,1.15,1.821,2.033,1.92.889,2.075,1.144.339.55.339.55" transform="translate(-946.288 -607.813)" fill="none" stroke="#d3d3d3" stroke-linecap="round" stroke-linejoin="round" stroke-width="1.403"/></g><g transform="translate(12.581 81.381)"><path d="M1029.8,648.23s-.185-1.292.72-1.355c.935-.065,2.711,0,2.711,0s.752.085.635,1.355" transform="translate(-1026.416 -632.635)" fill="none" stroke="#d3d3d3" stroke-linecap="round" stroke-linejoin="round" stroke-width="1.403"/><path d="M1040.006,582.273l-.084,9.529h.932v-9.36" transform="translate(-1035.055 -577.605)" fill="none" stroke="#d3d3d3" stroke-linecap="round" stroke-linejoin="round" stroke-width="1.403"/><line y2="0.932" transform="translate(3.893 3.398)" fill="none" stroke="#d3d3d3" stroke-linecap="round" stroke-linejoin="round" stroke-width="1.403"/><path d="M1033.311,573.213s-.059.322.339.424a15.772,15.772,0,0,0,2.372.084s.129-.57.042-.635a8.609,8.609,0,0,0-1.228-.085s.239-.866-.3-.889c-.6-.026-1.207-.223-1.228.169" transform="translate(-1029.418 -568.884)" fill="none" stroke="#d3d3d3" stroke-linecap="round" stroke-linejoin="round" stroke-width="1.403"/><path d="M1007.66,567.369s-.954.485-.593,1.271,1.049.443,1.44.423c.443-.022,2.414-.042,2.414-.042" transform="translate(-1006.985 -564.903)" fill="none" stroke="#d3d3d3" stroke-linecap="round" stroke-linejoin="round" stroke-width="1.403"/><path d="M1052.244,569.392l3.388.466,5.378-2.2" transform="translate(-1045.555 -565.147)" fill="none" stroke="#d3d3d3" stroke-linecap="round" stroke-linejoin="round" stroke-width="1.403"/><path d="M1111.567,554.952s1.706-2.168,1.143-2.2a1.033,1.033,0,0,0-.381.169" transform="translate(-1096.112 -552.444)" fill="none" stroke="#d3d3d3" stroke-linecap="round" stroke-linejoin="round" stroke-width="1.403"/><path d="M1094.994,553.9l-1.058,1.864-2.456.381-.254-.593" transform="translate(-1078.776 -553.426)" fill="none" stroke="#d3d3d3" stroke-linecap="round" stroke-linejoin="round" stroke-width="1.403"/><path d="M1023.321,555.637a3.662,3.662,0,0,0-1.144.466c-.259.251-3.9-4.765-10.63-.127" transform="translate(-1010.873 -553.51)" fill="none" stroke="#d3d3d3" stroke-linecap="round" stroke-linejoin="round" stroke-width="1.403"/><path d="M1033.707,555.333s-.832.428-.041.466,1.916-.178,2.245.042,2.019.187,1.44-.466" transform="translate(-1029.432 -554.646)" fill="none" stroke="#d3d3d3" stroke-linecap="round" stroke-linejoin="round" stroke-width="1.403"/><path d="M1076.251,567.083a2.805,2.805,0,0,0-1.1,2.372" transform="translate(-1065.073 -564.66)" fill="none" stroke="#d3d3d3" stroke-linecap="round" stroke-linejoin="round" stroke-width="1.403"/><path d="M1072.369,565.364a2.289,2.289,0,0,0-1.313,2.541" transform="translate(-1061.572 -563.195)" fill="none" stroke="#d3d3d3" stroke-linecap="round" stroke-linejoin="round" stroke-width="1.403"/><path d="M1076.566,555.811s-1.859,1.348-2.16,1.271a3.654,3.654,0,0,0-.381,1.525,12.345,12.345,0,0,1,2.88-2.075c1.011-.326,1.264-2,1.271-2.16S1077.338,555.155,1076.566,555.811Z" transform="translate(-1064.118 -553.811)" fill="none" stroke="#d3d3d3" stroke-linecap="round" stroke-linejoin="round" stroke-width="1.403"/><path d="M1098.807,552.779s.964-.713.889-.424a4.251,4.251,0,0,1-1.313,2.287" transform="translate(-1084.877 -552.05)" fill="none" stroke="#d3d3d3" stroke-linecap="round" stroke-linejoin="round" stroke-width="1.403"/><path d="M1104.168,551.323s.775-.651.8-.381a4.334,4.334,0,0,1-1.143,2.372" transform="translate(-1089.517 -550.848)" fill="none" stroke="#d3d3d3" stroke-linecap="round" stroke-linejoin="round" stroke-width="1.403"/><path d="M1109.246,551.032s.984-.566.975-.254a5.862,5.862,0,0,1-1.228,2.244" transform="translate(-1093.918 -550.684)" fill="none" stroke="#d3d3d3" stroke-linecap="round" stroke-linejoin="round" stroke-width="1.403"/></g><g transform="translate(25.69 91.005)"><path d="M1097.527,628.171a1.993,1.993,0,0,0-1.821,1.863c-.177,1.774,1.058,1.95,1.44,1.991s5.04,0,5.04,0a1.782,1.782,0,0,0,1.1-2.117c-.367-1.771-1.638-1.781-1.821-1.779" transform="translate(-1095.689 -626.308)" fill="none" stroke="#d3d3d3" stroke-linecap="round" stroke-linejoin="round" stroke-width="1.403"/><path d="M1107.268,635.1v1.948h4.235l-.042-2.033Z" transform="translate(-1105.557 -632.173)" fill="none" stroke="#d3d3d3" stroke-linecap="round" stroke-linejoin="round" stroke-width="1.403"/><path d="M1111.623,617.625l-4.024.042-.042-1.863,4.066.041Z" transform="translate(-1105.804 -615.804)" fill="none" stroke="#d3d3d3" stroke-linecap="round" stroke-linejoin="round" stroke-width="1.403"/><line x1="3.896" transform="translate(1.838 1.398)" fill="none" stroke="#d3d3d3" stroke-linecap="round" stroke-linejoin="round" stroke-width="1.403"/><line y2="1.228" transform="translate(2.516 0.127)" fill="none" stroke="#d3d3d3" stroke-linecap="round" stroke-linejoin="round" stroke-width="1.403"/><line y2="1.228" transform="translate(3.194 0.085)" fill="none" stroke="#d3d3d3" stroke-linecap="round" stroke-linejoin="round" stroke-width="1.403"/><line y2="1.186" transform="translate(3.871 0.127)" fill="none" stroke="#d3d3d3" stroke-linecap="round" stroke-linejoin="round" stroke-width="1.403"/><line y2="1.143" transform="translate(4.591 0.127)" fill="none" stroke="#d3d3d3" stroke-linecap="round" stroke-linejoin="round" stroke-width="1.403"/><line y2="1.143" transform="translate(5.227 0.169)" fill="none" stroke="#d3d3d3" stroke-linecap="round" stroke-linejoin="round" stroke-width="1.403"/></g><g transform="translate(125.87 74.911)"><path d="M1799.7,595.973l-.042,6.92h1.61v-6.92Z" transform="translate(-1795.803 -582.81)" fill="none" stroke="#d3d3d3" stroke-linecap="round" stroke-linejoin="round" stroke-width="1.403"/><line x2="1.782" transform="translate(3.789 12.282)" fill="none" stroke="#d3d3d3" stroke-linecap="round" stroke-linejoin="round" stroke-width="1.403"/><path d="M1811.27,590.009a.359.359,0,0,1,.359.359" transform="translate(-1805.699 -577.727)" fill="none" stroke="#d3d3d3" stroke-linecap="round" stroke-linejoin="round" stroke-width="1.403"/><line y2="0.13" transform="translate(5.93 12.641)" fill="none" stroke="#d3d3d3" stroke-linecap="round" stroke-linejoin="round" stroke-width="1.403"/><path d="M1811.629,593.319a.359.359,0,0,1-.359.359" transform="translate(-1805.699 -580.548)" fill="none" stroke="#d3d3d3" stroke-linecap="round" stroke-linejoin="round" stroke-width="1.403"/><line x1="1.782" transform="translate(3.789 13.13)" fill="none" stroke="#d3d3d3" stroke-linecap="round" stroke-linejoin="round" stroke-width="1.403"/><path d="M1797.146,593.679a.359.359,0,0,1-.359-.359" transform="translate(-1793.356 -580.549)" fill="none" stroke="#d3d3d3" stroke-linecap="round" stroke-linejoin="round" stroke-width="1.403"/><line y1="0.13" transform="translate(3.43 12.641)" fill="none" stroke="#d3d3d3" stroke-linecap="round" stroke-linejoin="round" stroke-width="1.403"/><path d="M1796.787,590.368a.359.359,0,0,1,.359-.359" transform="translate(-1793.356 -577.727)" fill="none" stroke="#d3d3d3" stroke-linecap="round" stroke-linejoin="round" stroke-width="1.403"/><rect width="0.677" height="1.171" transform="translate(4.32 11.119)" fill="none" stroke="#d3d3d3" stroke-linecap="round" stroke-linejoin="round" stroke-width="1.403"/><line x2="8.454" transform="translate(0.537)" fill="none" stroke="#d3d3d3" stroke-linecap="round" stroke-linejoin="round" stroke-width="1.403"/><path d="M1834.415,506.9a.537.537,0,0,1,.537.537" transform="translate(-1825.424 -506.903)" fill="none" stroke="#d3d3d3" stroke-linecap="round" stroke-linejoin="round" stroke-width="1.403"/><line y2="10.021" transform="translate(9.528 0.537)" fill="none" stroke="#d3d3d3" stroke-linecap="round" stroke-linejoin="round" stroke-width="1.403"/><path d="M1834.952,578.348a.537.537,0,0,1-.537.537" transform="translate(-1825.424 -567.79)" fill="none" stroke="#d3d3d3" stroke-linecap="round" stroke-linejoin="round" stroke-width="1.403"/><line x1="8.454" transform="translate(0.537 11.095)" fill="none" stroke="#d3d3d3" stroke-linecap="round" stroke-linejoin="round" stroke-width="1.403"/><path d="M1774.111,578.885a.537.537,0,0,1-.537-.537" transform="translate(-1773.574 -567.79)" fill="none" stroke="#d3d3d3" stroke-linecap="round" stroke-linejoin="round" stroke-width="1.403"/><line y1="10.021" transform="translate(0 0.537)" fill="none" stroke="#d3d3d3" stroke-linecap="round" stroke-linejoin="round" stroke-width="1.403"/><path d="M1773.574,507.44a.537.537,0,0,1,.537-.537" transform="translate(-1773.574 -506.903)" fill="none" stroke="#d3d3d3" stroke-linecap="round" stroke-linejoin="round" stroke-width="1.403"/><line x2="6.634" transform="translate(1.553 1.058)" fill="none" stroke="#d3d3d3" stroke-linecap="round" stroke-linejoin="round" stroke-width="1.403"/><path d="M1828.971,514.061a.537.537,0,0,1,.537.537h0" transform="translate(-1820.784 -513.003)" fill="none" stroke="#d3d3d3" stroke-linecap="round" stroke-linejoin="round" stroke-width="1.403"/><line y2="8.074" transform="translate(8.724 1.595)" fill="none" stroke="#d3d3d3" stroke-linecap="round" stroke-linejoin="round" stroke-width="1.403"/><path d="M1829.511,572.328a.537.537,0,0,1-.537.537" transform="translate(-1820.787 -562.659)" fill="none" stroke="#d3d3d3" stroke-linecap="round" stroke-linejoin="round" stroke-width="1.403"/><line x1="6.634" transform="translate(1.553 10.206)" fill="none" stroke="#d3d3d3" stroke-linecap="round" stroke-linejoin="round" stroke-width="1.403"/><path d="M1780.99,572.865a.537.537,0,0,1-.537-.537" transform="translate(-1779.437 -562.659)" fill="none" stroke="#d3d3d3" stroke-linecap="round" stroke-linejoin="round" stroke-width="1.403"/><line y1="8.074" transform="translate(1.016 1.595)" fill="none" stroke="#d3d3d3" stroke-linecap="round" stroke-linejoin="round" stroke-width="1.403"/><path d="M1780.45,514.6a.537.537,0,0,1,.537-.537h0" transform="translate(-1779.434 -513.003)" fill="none" stroke="#d3d3d3" stroke-linecap="round" stroke-linejoin="round" stroke-width="1.403"/><line y1="0.855" transform="translate(7.369 21.134)" fill="none" stroke="#d3d3d3" stroke-linecap="round" stroke-linejoin="round" stroke-width="1.403"/><path d="M1792.672,643.8s.128-1.078-.847-1.059-3.727,0-3.727,0a1.212,1.212,0,0,0-.72,1.186c.021.91-.042.728-.042.728" transform="translate(-1785.303 -622.667)" fill="none" stroke="#d3d3d3" stroke-linecap="round" stroke-linejoin="round" stroke-width="1.403"/><line x2="5.336" transform="translate(2.033 21.989)" fill="none" stroke="#d3d3d3" stroke-linecap="round" stroke-linejoin="round" stroke-width="1.403"/></g><g transform="translate(138.068 87.108)"><rect width="1.184" height="9.793" fill="none" stroke="#d3d3d3" stroke-linecap="round" stroke-linejoin="round" stroke-width="1.403"/><rect width="1.184" height="0.636" transform="translate(0 3.643)" fill="none" stroke="#d3d3d3" stroke-linecap="round" stroke-linejoin="round" stroke-width="1.403"/><rect width="1.186" height="9.793" transform="translate(2.244)" fill="none" stroke="#d3d3d3" stroke-linecap="round" stroke-linejoin="round" stroke-width="1.403"/><rect width="1.186" height="0.636" transform="translate(2.244 3.643)" fill="none" stroke="#d3d3d3" stroke-linecap="round" stroke-linejoin="round" stroke-width="1.403"/></g><g transform="translate(142.175 81.433)"><line x2="3.261" transform="translate(1.017 13.129)" fill="none" stroke="#d3d3d3" stroke-linecap="round" stroke-linejoin="round" stroke-width="1.403"/><path d="M1912.852,639.877s.283.007.254.635c.023,1.177,0,1.7,0,1.7" transform="translate(-1908.574 -626.748)" fill="none" stroke="#d3d3d3" stroke-linecap="round" stroke-linejoin="round" stroke-width="1.403"/><path d="M1893.568,646.6h-3.642v-1.576" transform="translate(-1889.036 -631.137)" fill="none" stroke="#d3d3d3" stroke-linecap="round" stroke-linejoin="round" stroke-width="1.403"/><path d="M1889.814,640.64s-.093-.674.127-.762" transform="translate(-1888.924 -626.748)" fill="none" stroke="#d3d3d3" stroke-linecap="round" stroke-linejoin="round" stroke-width="1.403"/><path d="M1888.015,564.939l1.652-13.045-5.76.085" transform="translate(-1883.907 -551.767)" fill="none" stroke="#d3d3d3" stroke-linecap="round" stroke-linejoin="round" stroke-width="1.403"/><path d="M1883.908,552.472s1.39,12.541,1.355,12.96" transform="translate(-1883.908 -552.26)" fill="none" stroke="#d3d3d3" stroke-linecap="round" stroke-linejoin="round" stroke-width="1.403"/><line x1="5.633" y2="0.085" transform="translate(0.042 1.186)" fill="none" stroke="#d3d3d3" stroke-linecap="round" stroke-linejoin="round" stroke-width="1.403"/><line y1="0.085" x2="1.821" transform="translate(1.864 6.734)" fill="none" stroke="#d3d3d3" stroke-linecap="round" stroke-linejoin="round" stroke-width="1.403"/><line y1="0.127" x2="1.864" transform="translate(1.991 7.285)" fill="none" stroke="#d3d3d3" stroke-linecap="round" stroke-linejoin="round" stroke-width="1.403"/><line y2="1.017" transform="translate(0.89 0.085)" fill="none" stroke="#d3d3d3" stroke-linecap="round" stroke-linejoin="round" stroke-width="1.403"/><line y2="1.059" transform="translate(1.652 0.127)" fill="none" stroke="#d3d3d3" stroke-linecap="round" stroke-linejoin="round" stroke-width="1.403"/><line y2="1.059" transform="translate(2.541 0.085)" fill="none" stroke="#d3d3d3" stroke-linecap="round" stroke-linejoin="round" stroke-width="1.403"/><line y2="0.974" transform="translate(3.388 0.127)" fill="none" stroke="#d3d3d3" stroke-linecap="round" stroke-linejoin="round" stroke-width="1.403"/><line y2="1.017" transform="translate(4.278 0.085)" fill="none" stroke="#d3d3d3" stroke-linecap="round" stroke-linejoin="round" stroke-width="1.403"/><line y2="1.143" transform="translate(5.082)" fill="none" stroke="#d3d3d3" stroke-linecap="round" stroke-linejoin="round" stroke-width="1.403"/></g><g transform="translate(148.267 84.567)"><line x1="0.72" transform="translate(2.505 0)" fill="none" stroke="#d3d3d3" stroke-linecap="round" stroke-linejoin="round" stroke-width="1.403"/><path d="M1927.636,572.242a2.567,2.567,0,0,1-.127.889,6.116,6.116,0,0,1-1.4.89,1.653,1.653,0,0,0-.975,1.652c.04.849,0,8.9,0,8.9" transform="translate(-1925.131 -572.242)" fill="none" stroke="#d3d3d3" stroke-linecap="round" stroke-linejoin="round" stroke-width="1.403"/><path d="M1925.176,584.575h3.684l-.085-9.072v-1.567l-.381-1.694" transform="translate(-1925.17 -572.242)" fill="none" stroke="#d3d3d3" stroke-linecap="round" stroke-linejoin="round" stroke-width="1.403"/><path d="M1928.734,598.894s-3.028.035-3.558.085c0,.211,0,.551,0,.551s3.2-.139,3.558-.127A2,2,0,0,0,1928.734,598.894Z" transform="translate(-1925.17 -594.955)" fill="none" stroke="#d3d3d3" stroke-linecap="round" stroke-linejoin="round" stroke-width="1.403"/><path d="M1936.708,614.372h-2.075v4.065h2.161" transform="translate(-1933.229 -608.146)" fill="none" stroke="#d3d3d3" stroke-linecap="round" stroke-linejoin="round" stroke-width="1.403"/></g><g transform="translate(152.859 79.716)"><path d="M1958.993,612.165l.042-7.493,6.4-.042.041,7.527Z" transform="translate(-1958.581 -594.993)" fill="none" stroke="#d3d3d3" stroke-linecap="round" stroke-linejoin="round" stroke-width="1.403"/><path d="M1962.984,575.845l-.55-4.955.678-.085.8,5.04" transform="translate(-1961.513 -566.167)" fill="none" stroke="#d3d3d3" stroke-linecap="round" stroke-linejoin="round" stroke-width="1.403"/><path d="M1965.562,586.276s-.475-.027-.551.127" transform="translate(-1963.71 -579.35)" fill="none" stroke="#d3d3d3" stroke-linecap="round" stroke-linejoin="round" stroke-width="1.403"/><path d="M1957.167,544.185s-1.546-2.893-.72-4.15,1.448-.3,1.525.339a15.26,15.26,0,0,1-.212,3.811" transform="translate(-1956.204 -539.419)" fill="none" stroke="#d3d3d3" stroke-linecap="round" stroke-linejoin="round" stroke-width="1.403"/><path d="M1960.2,553.354a23.936,23.936,0,0,1-.635-3.176" transform="translate(-1959.068 -548.588)" fill="none" stroke="#d3d3d3" stroke-linecap="round" stroke-linejoin="round" stroke-width="1.403"/><path d="M1961.752,550.664s-.359-3.456-.466-3.642" transform="translate(-1960.535 -545.898)" fill="none" stroke="#d3d3d3" stroke-linecap="round" stroke-linejoin="round" stroke-width="1.403"/><path d="M1964.81,553.552s-.008-2.658-.085-3.092" transform="translate(-1963.466 -548.828)" fill="none" stroke="#d3d3d3" stroke-linecap="round" stroke-linejoin="round" stroke-width="1.403"/><path d="M1979.052,584.123V580.6l1.143-.042v3.6" transform="translate(-1975.676 -574.478)" fill="none" stroke="#d3d3d3" stroke-linecap="round" stroke-linejoin="round" stroke-width="1.403"/><line x1="0.974" transform="translate(3.461 7.603)" fill="none" stroke="#d3d3d3" stroke-linecap="round" stroke-linejoin="round" stroke-width="1.403"/><path d="M1971.98,563.657s-1.6-1.931-1.143-2.626,3.786-.99,3.431.678a2.774,2.774,0,0,1-1.228,1.906" transform="translate(-1968.604 -557.366)" fill="none" stroke="#d3d3d3" stroke-linecap="round" stroke-linejoin="round" stroke-width="1.403"/><line x1="1.059" y2="0.042" transform="translate(3.377 6.248)" fill="none" stroke="#d3d3d3" stroke-linecap="round" stroke-linejoin="round" stroke-width="1.403"/><path d="M1975.042,563.07a10.867,10.867,0,0,0,.8,2.245" transform="translate(-1972.258 -559.575)" fill="none" stroke="#d3d3d3" stroke-linecap="round" stroke-linejoin="round" stroke-width="1.403"/><path d="M1981.027,560.779a9.751,9.751,0,0,0,.212,2.583" transform="translate(-1977.354 -557.622)" fill="none" stroke="#d3d3d3" stroke-linecap="round" stroke-linejoin="round" stroke-width="1.403"/><path d="M1984.627,561.351a17.092,17.092,0,0,1-.127,2.541" transform="translate(-1980.318 -558.11)" fill="none" stroke="#d3d3d3" stroke-linecap="round" stroke-linejoin="round" stroke-width="1.403"/><path d="M1986.812,562.784a9.05,9.05,0,0,1-.593,2.329" transform="translate(-1981.783 -559.331)" fill="none" stroke="#d3d3d3" stroke-linecap="round" stroke-linejoin="round" stroke-width="1.403"/><line y1="7.251" x2="1.736" transform="translate(5.283 2.394)" fill="none" stroke="#d3d3d3" stroke-linecap="round" stroke-linejoin="round" stroke-width="1.403"/><path d="M1997.6,554.517s.394-.505.593.127c-.06.793-1.651,7.124-1.651,7.124" transform="translate(-1990.577 -552.123)" fill="none" stroke="#d3d3d3" stroke-linecap="round" stroke-linejoin="round" stroke-width="1.403"/><line x1="0.678" transform="translate(5.283 9.645)" fill="none" stroke="#d3d3d3" stroke-linecap="round" stroke-linejoin="round" stroke-width="1.403"/><line x2="1.186" y2="0.296" transform="translate(6.68 2.775)" fill="none" stroke="#d3d3d3" stroke-linecap="round" stroke-linejoin="round" stroke-width="1.403"/><line x2="1.143" y2="0.296" transform="translate(6.511 3.58)" fill="none" stroke="#d3d3d3" stroke-linecap="round" stroke-linejoin="round" stroke-width="1.403"/><line x2="1.271" y2="0.339" transform="translate(6.214 4.385)" fill="none" stroke="#d3d3d3" stroke-linecap="round" stroke-linejoin="round" stroke-width="1.403"/><line x2="1.313" y2="0.339" transform="translate(6.045 5.232)" fill="none" stroke="#d3d3d3" stroke-linecap="round" stroke-linejoin="round" stroke-width="1.403"/><line x2="1.186" y2="0.339" transform="translate(5.918 5.909)" fill="none" stroke="#d3d3d3" stroke-linecap="round" stroke-linejoin="round" stroke-width="1.403"/><line x2="1.228" y2="0.339" transform="translate(5.748 6.714)" fill="none" stroke="#d3d3d3" stroke-linecap="round" stroke-linejoin="round" stroke-width="1.403"/></g><g transform="translate(7.114)"><g transform="translate(0 1.931)"><line x2="0.088" y2="25.718" transform="translate(3.853)" fill="none" stroke="#d3d3d3" stroke-linecap="round" stroke-linejoin="round" stroke-width="1.403"/><rect width="2.073" height="2.583" transform="translate(2.882 25.672)" fill="none" stroke="#d3d3d3" stroke-linecap="round" stroke-linejoin="round" stroke-width="1.403"/><path d="M973.949,203.108a3.448,3.448,0,1,1-3.96,3.41A3.716,3.716,0,0,1,973.949,203.108Z" transform="translate(-969.989 -175.023)" fill="none" stroke="#d3d3d3" stroke-linecap="round" stroke-linejoin="round" stroke-width="1.403"/></g><g transform="translate(17.45)"><line x2="0.088" y2="27.913" transform="translate(3.858)" fill="none" stroke="#d3d3d3" stroke-linecap="round" stroke-linejoin="round" stroke-width="1.403"/><rect width="2.076" height="2.583" transform="translate(2.88 27.856)" fill="none" stroke="#d3d3d3" stroke-linecap="round" stroke-linejoin="round" stroke-width="1.403"/><path d="M1092.029,204.837a3.448,3.448,0,1,1-3.96,3.409A3.716,3.716,0,0,1,1092.029,204.837Z" transform="translate(-1088.069 -174.566)" fill="none" stroke="#d3d3d3" stroke-linecap="round" stroke-linejoin="round" stroke-width="1.403"/></g><g transform="translate(131.969 1.125)"><line x2="0.262" y2="33.672" transform="translate(3.677)" fill="none" stroke="#d3d3d3" stroke-linecap="round" stroke-linejoin="round" stroke-width="1.403"/><rect width="2.076" height="2.583" transform="translate(2.88 33.635)" fill="none" stroke="#d3d3d3" stroke-linecap="round" stroke-linejoin="round" stroke-width="1.403"/><path d="M1866.949,252.641c2.187,0,3.96,1.366,3.96,3.248a4,4,0,0,1-7.92,0C1862.989,254.007,1864.762,252.641,1866.949,252.641Z" transform="translate(-1862.989 -216.43)" fill="none" stroke="#d3d3d3" stroke-linecap="round" stroke-linejoin="round" stroke-width="1.403"/></g></g><g transform="translate(121.974 99.518)"><rect width="3.006" height="1.355" transform="translate(0 4.659)" fill="none" stroke="#d3d3d3" stroke-linecap="round" stroke-linejoin="round" stroke-width="1.403"/><rect width="3.008" height="10.968" transform="translate(52.092)" fill="none" stroke="#d3d3d3" stroke-linecap="round" stroke-linejoin="round" stroke-width="1.403"/><rect width="3.008" height="1.355" transform="translate(52.092 4.659)" fill="none" stroke="#d3d3d3" stroke-linecap="round" stroke-linejoin="round" stroke-width="1.403"/><path d="M1759.073,693.987a.4.4,0,1,1,.4-.4h0A.4.4,0,0,1,1759.073,693.987Z" transform="translate(-1756.978 -690.261)" fill="none" stroke="#d3d3d3" stroke-linecap="round" stroke-linejoin="round" stroke-width="1.403"/><path d="M1754.02,682.973a.489.489,0,1,1,.443-.532c0,.015,0,.029,0,.044A.467.467,0,0,1,1754.02,682.973Z" transform="translate(-1752.559 -680.728)" fill="none" stroke="#d3d3d3" stroke-linecap="round" stroke-linejoin="round" stroke-width="1.403"/><path d="M1751.166,693.585a.4.4,0,1,1-.4-.4h0A.4.4,0,0,1,1751.166,693.585Z" transform="translate(-1749.897 -690.261)" fill="none" stroke="#d3d3d3" stroke-linecap="round" stroke-linejoin="round" stroke-width="1.403"/><path d="M1750.765,735.033a.4.4,0,1,1-.4.4h0A.4.4,0,0,1,1750.765,735.033Z" transform="translate(-1749.898 -725.927)" fill="none" stroke="#d3d3d3" stroke-linecap="round" stroke-linejoin="round" stroke-width="1.403"/><path d="M1754.088,724.8a.446.446,0,1,1,.445.487A.467.467,0,0,1,1754.088,724.8Z" transform="translate(-1753.071 -716.861)" fill="none" stroke="#d3d3d3" stroke-linecap="round" stroke-linejoin="round" stroke-width="1.403"/><path d="M1759.074,735.033a.4.4,0,1,1-.4.4h0A.4.4,0,0,1,1759.074,735.033Z" transform="translate(-1756.979 -725.927)" fill="none" stroke="#d3d3d3" stroke-linecap="round" stroke-linejoin="round" stroke-width="1.403"/><path d="M2112.151,692.271a.4.4,0,1,1,.4-.4.4.4,0,0,1-.4.4Z" transform="translate(-2057.878 -688.799)" fill="none" stroke="#d3d3d3" stroke-linecap="round" stroke-linejoin="round" stroke-width="1.403"/><path d="M2107.088,681.251a.489.489,0,1,1,.442-.532c0,.015,0,.03,0,.045A.467.467,0,0,1,2107.088,681.251Z" transform="translate(-2053.45 -679.261)" fill="none" stroke="#d3d3d3" stroke-linecap="round" stroke-linejoin="round" stroke-width="1.403"/><path d="M2104.233,691.87a.4.4,0,1,1-.4-.4h0A.4.4,0,0,1,2104.233,691.87Z" transform="translate(-2050.785 -688.8)" fill="none" stroke="#d3d3d3" stroke-linecap="round" stroke-linejoin="round" stroke-width="1.403"/><path d="M2103.83,733.3a.4.4,0,1,1-.4.4A.4.4,0,0,1,2103.83,733.3Z" transform="translate(-2050.785 -724.452)" fill="none" stroke="#d3d3d3" stroke-linecap="round" stroke-linejoin="round" stroke-width="1.403"/><path d="M2107.151,723.082a.447.447,0,1,1,.445.487A.467.467,0,0,1,2107.151,723.082Z" transform="translate(-2053.959 -715.396)" fill="none" stroke="#d3d3d3" stroke-linecap="round" stroke-linejoin="round" stroke-width="1.403"/><path d="M2112.14,733.3a.4.4,0,1,1-.4.4A.4.4,0,0,1,2112.14,733.3Z" transform="translate(-2057.867 -724.452)" fill="none" stroke="#d3d3d3" stroke-linecap="round" stroke-linejoin="round" stroke-width="1.403"/></g><g transform="translate(160.556 40.52)"><path d="M2008.583,274.189l-.3,23.972,23.04.085.254-24.014Z" transform="translate(-2008.287 -274.189)" fill="none" stroke="#d3d3d3" stroke-linecap="round" stroke-linejoin="round" stroke-width="1.403"/><line x1="3.397" y2="2.147" transform="translate(8.004 14.455)" fill="none" stroke="#d3d3d3" stroke-linecap="round" stroke-linejoin="round" stroke-width="1.403"/><path d="M2049.856,358.626s-1.2.917-1.948,0,.378-4.074,2.079-4.69c2.089-.756,1.986,1.535,1.309,2.911a20.085,20.085,0,0,0,2.545-1.572" transform="translate(-2041.851 -342.024)" fill="none" stroke="#d3d3d3" stroke-linecap="round" stroke-linejoin="round" stroke-width="1.403"/><line x1="4.998" y2="9.275" transform="translate(11.816 6.395)" fill="none" stroke="#d3d3d3" stroke-linecap="round" stroke-linejoin="round" stroke-width="1.403"/><path d="M2075.02,326.717s2.484-1.551,1.948,1.1c-.564,2.79-2.731,3-3.727,2.711s-.252-1.473-.169-1.779,2.2-4.616,2.2-4.616a5.44,5.44,0,0,1,.975-4.362c1.571-1.981,3.236-2.378,3.769-2.329" transform="translate(-2063.204 -311.046)" fill="none" stroke="#d3d3d3" stroke-linecap="round" stroke-linejoin="round" stroke-width="1.403"/><path d="M2055.4,363.878c.5-.752,1.82-1.146,1.144.508-.67,1.636-1.606,1.167-1.567,1.186S2054.4,365.37,2055.4,363.878Z" transform="translate(-2047.948 -350.07)" fill="none" stroke="#d3d3d3" stroke-linecap="round" stroke-linejoin="round" stroke-width="1.403"/><path d="M2080.557,386.648s-.914-.386.508-1.736c1.272-1.208,1.828-.1,1.016.847C2081.978,385.879,2081.022,386.829,2080.557,386.648Z" transform="translate(-2069.63 -368.098)" fill="none" stroke="#d3d3d3" stroke-linecap="round" stroke-linejoin="round" stroke-width="1.403"/><path d="M2096.691,333.255s5.257-3.473,6.237-4.1c.1-.062.042.169.042.169s-.616,2.995-2.287,4.065a7.624,7.624,0,0,1-4.7,1.186" transform="translate(-2083.022 -321.022)" fill="none" stroke="#d3d3d3" stroke-linecap="round" stroke-linejoin="round" stroke-width="1.403"/><path d="M2090.973,360.427s.183-.57.381-.551c.522.05.06.813-.042.89S2090.857,360.686,2090.973,360.427Z" transform="translate(-2078.734 -347.213)" fill="none" stroke="#d3d3d3" stroke-linecap="round" stroke-linejoin="round" stroke-width="1.403"/><path d="M2106.465,364.448l2.444,3.137-.847.635-2.676-3.58" transform="translate(-2091.037 -351.109)" fill="none" stroke="#d3d3d3" stroke-linecap="round" stroke-linejoin="round" stroke-width="1.403"/><line x1="5.16" y1="5.741" transform="translate(7.2 4.151)" fill="none" stroke="#d3d3d3" stroke-linecap="round" stroke-linejoin="round" stroke-width="1.403"/><path d="M2039.665,301.858a.4.4,0,0,0-.55.085c-.279.294-2.456,3.049-2.456,3.049" transform="translate(-2032.465 -297.708)" fill="none" stroke="#d3d3d3" stroke-linecap="round" stroke-linejoin="round" stroke-width="1.403"/><path d="M2036.658,313.226l.085.085,2.16-1.864-1.355,2.414.127.085,1.948-1.779-1.482,2.244.085.085,1.948-1.694-1.44,2.16.127.127,1.948-1.652-1.44,2.245.127.127,1.991-1.652-1.525,2.117.127.127,2.118-1.652-1.44,2.329.169.169,2.117-1.821,1.4,1.431" transform="translate(-2032.465 -305.941)" fill="none" stroke="#d3d3d3" stroke-linecap="round" stroke-linejoin="round" stroke-width="1.403"/><path d="M2053.852,308.494s.224-.138.72.424,3.3,3.643,3.3,3.643" transform="translate(-2047.118 -303.411)" fill="none" stroke="#d3d3d3" stroke-linecap="round" stroke-linejoin="round" stroke-width="1.403"/></g></g><line y1="0.124" x2="228.536" transform="translate(0 151.299)" fill="none" stroke="#d3d3d3" stroke-linecap="round" stroke-linejoin="round" stroke-width="1.403"/></g><g transform="translate(768.414 37.74)"><g transform="translate(44.492 111.711)"><path d="M1198.989,1014.243a9.992,9.992,0,0,0,5.167,4.278c1.484,1.508,1.9,3.057.847,3.388s-6.421,1.213-8.852-.678-5.33-5.852-4.235-6.9S1198.989,1014.243,1198.989,1014.243Z" transform="translate(-1173.619 -1013.461)" fill="#b8d170" fill-rule="evenodd"/><path d="M1204.368,1016.818c1.484,1.508,1.684,2.591.635,2.922s-6.421,1.213-8.852-.678-5.33-5.852-4.235-6.9c2.564-2.463-.172.945,1.991,2.541,1.376,1.015,3.709,4.2,6.353,4.489C1201.572,1019.334,1203.969,1016.654,1204.368,1016.818Z" transform="translate(-1173.619 -1011.293)" fill="#f8f7e6" fill-rule="evenodd"/><path d="M1076.3,1031.774s3.121,5.031,1.948,5.675c-1.125.618-6.091,1.284-8.132-.678-.611-.365-.124-1.474.3-1.991a16.84,16.84,0,0,0,1.229-2.626Z" transform="translate(-1069.775 -1028.747)" fill="#b8d170" fill-rule="evenodd"/><path d="M1077.907,1054.247s.737,1.348.042,1.906c-1,.8-6.423,1.147-8.047-.551-.681-.712-.4-1.037-.133-1.572.5-1.01,1.573.767,1.573.767Z" transform="translate(-1069.478 -1047.45)" fill="#f8f7e6" fill-rule="evenodd"/><path d="M1201.887,1030.054s5.07,5.24,6.565,5.463,5.377-.147,5.717-1.228c.166-.381-.608-1.1-1.271-1.651s-5.646.284-6.438,1.016A53.759,53.759,0,0,1,1201.887,1030.054Z" transform="translate(-1182.319 -1027.281)" fill="#97ab54" fill-rule="evenodd"/><path d="M1070.633,1051.326s.218,1.694,4.87,1.609c3.816-.069,3.649-.881,3.473-1.44-.153-.485-1.016-.812-1.906-1.058s-5.458-.361-6.141.3A2.892,2.892,0,0,0,1070.633,1051.326Z" transform="translate(-1070.462 -1044.487)" fill="#97ab54" fill-rule="evenodd"/></g><path d="M1018.623,631.308s-.944,1.769,3.5,11.012c4.482,9.328,14.261,27.374,16.221,31.68,1.9,4.172,3.147,12.6,3.049,13s-4.515,3.291-11.816-.254c-1.872-6.258-5.4-17.581-7.284-22.532-1.02-2.676-4.58-11.329-5.167-12.621-.392-.864-3.194-8.012-3.346-9.4a5.392,5.392,0,0,0-.635-.381s3.518,15.827,4.235,18.3,7.54,25.281,8.894,27.784c-.316,1.68-10.717,3.082-12.79,1.058-1.708-1.668-4.094-11.421-4.574-16.983-.488-5.653-2.762-27.174-2.964-29.1-.155-1.47-1.8-10.354-.585-12.905.087-.184.2-.968.43-1.021C1008.584,628.311,1018.623,631.308,1018.623,631.308Z" transform="translate(-969.961 -573.662)" fill="#69485e" fill-rule="evenodd"/><path d="M1055.45,713.082l4.024,1.186S1058.232,714.956,1055.45,713.082Z" transform="translate(-1013.031 -645.441)" fill="#4a2e40" fill-rule="evenodd"/><path d="M1072.352,724.264s1.7,1.873,2.033,1.821S1072.8,724.292,1072.352,724.264Z" transform="translate(-1027.435 -654.971)" fill="#4a2e40" fill-rule="evenodd"/><path d="M1063.517,1008.25s-6.307,4.024-12.706.042c-1.309-1.369,3.9,1.816,6.988,1.313A34.579,34.579,0,0,0,1063.517,1008.25Z" transform="translate(-1008.902 -896.731)" fill="#4a2e40" fill-rule="evenodd"/><path d="M1170.649,1003.688a11,11,0,0,0,9.515,1.59c1.385-.445,1.807-.674,1.708-.785-.3-.338-4.536,1.382-6.692.72C1172.344,1004.342,1170.649,1003.688,1170.649,1003.688Z" transform="translate(-1111.206 -893.101)" fill="#4a2e40" fill-rule="evenodd"/><path d="M1022.721,607.608s-.656,3.193-.967,4.351c-.485.771-8.372-.326-13.105-1.987a26.256,26.256,0,0,0,.161-4.136Z" transform="translate(-973.147 -554.044)" fill="#382012" fill-rule="evenodd"/><path d="M1049.059,619.368a2.478,2.478,0,1,1-2.5,2.478A2.478,2.478,0,0,1,1049.059,619.368Z" transform="translate(-1005.456 -565.577)" fill="#bcbcbd" fill-rule="evenodd"/><path d="M1051.957,622.407a1.97,1.97,0,1,1-1.97,1.97h0A1.97,1.97,0,0,1,1051.957,622.407Z" transform="translate(-1008.376 -568.166)" fill="#69485e" fill-rule="evenodd"/><path d="M1059.576,629.627a.863.863,0,1,1-.7.848A.784.784,0,0,1,1059.576,629.627Z" transform="translate(-1015.952 -574.319)" fill="#4a2e40" fill-rule="evenodd"/><path d="M951.955,465.835s2.486-9.735,3.477-10.371,5.22-3.08,7.581-3.346a34.035,34.035,0,0,1,7.5-.381c2.2.245,3.981.593,3.981.593s1.17-.1,2.245,1.864c1.122,2.05,4.823,8.042,5.167,8.428s-4.865,3.213-4.865,3.213a32.4,32.4,0,0,1-1.4,7.036,23.5,23.5,0,0,0-1.182,3.6s-3.023.718-13.965-1.773c-.087-2.042-.273-4.542-.591-7.036-.211.759-.256.669-.43,1.343A10.583,10.583,0,0,0,951.955,465.835Z" transform="translate(-924.831 -422.637)" fill="#b8d170" fill-rule="evenodd"/><path d="M962.767,542.415s-1.454-3.557-6.8-3.012c-.659.067.313-.073.122-.092C954.728,539.168,962.231,538.24,962.767,542.415Z" transform="translate(-928.051 -497.191)" fill="#97ab54" fill-rule="evenodd"/><path d="M981.393,474s4.154-.624,5.586,4.082a8.462,8.462,0,0,1,.27,2.739S988.141,472.878,981.393,474Z" transform="translate(-949.918 -441.601)" fill="#97ab54" fill-rule="evenodd"/><path d="M1006.284,522.244a4.2,4.2,0,0,0-.484.859c-.632,1.486-1.537,4.233-1.934,5.424C1003.408,529.907,1005.207,522.569,1006.284,522.244Z" transform="translate(-969.009 -482.806)" fill="#97ab54" fill-rule="evenodd"/><path d="M1017.1,528.784a13.57,13.57,0,0,1-1.933.537c-.093-.077,1.4.214,1.719-.161S1017.1,528.784,1017.1,528.784Z" transform="translate(-978.701 -488.379)" fill="#97ab54" fill-rule="evenodd"/><path d="M1095.85,473.21a21.432,21.432,0,0,1,3.727,10.927C1099.274,485.831,1100.97,477.783,1095.85,473.21Z" transform="translate(-1047.461 -441.018)" fill="#97ab54" fill-rule="evenodd"/><path d="M1108.438,473.5s.256,2.456-.085,2.457S1108.525,475.049,1108.438,473.5Z" transform="translate(-1058.016 -441.263)" fill="#97ab54" fill-rule="evenodd"/><path d="M1026.86,455.156s2.29,1.02,1.991,2.626-1.7,2.34-3.558,2.075-4.627-2.535-4.15-4.108-2.1,2.325,3.557,4.193c1.844.608,3.605-.27,3.981-1.016a2.609,2.609,0,0,0,.3-1.863C1028.824,456.629,1028.055,455.261,1026.86,455.156Z" transform="translate(-983.638 -425.632)" fill="#97ab54" fill-rule="evenodd"/><path d="M1026.388,458.308a3.409,3.409,0,0,0,1.906,2.457C1030.011,461.609,1025.494,460,1026.388,458.308Z" transform="translate(-988.163 -428.318)" fill="#97ab54" fill-rule="evenodd"/><path d="M1124.945,521.644s-3.25,1.184-3.981,2.541S1121.292,522.163,1124.945,521.644Z" transform="translate(-1068.678 -482.294)" fill="#97ab54" fill-rule="evenodd"/><path d="M1287,432.108s-.611-.047-.806.752-1.611,8.11-1.611,8.11l-3.007,9.99s-.285.712.322.805,2.524.107,2.524.107a.619.619,0,0,0,.376-.645c-.085-1.74,2.161-9.61,2.256-9.99l2.578.054.054-.215-2.471-.7,2.578-.054.054-.215-2.471-.644,2.578.054.054-.27-2.525-.7,2.632.107.054-.268-2.524-.591,2.578.107.054-.268-2.471-.7,2.524.215.054-.269-2.417-.752,2.524.107.054-.268-2.363-.645,2.417.215.054-.322-2.309-.644,2.363.215.054-.269-2.256-.7,2.31.161.054-.215-2.256-.644s1.4.129,2.256.161a1.682,1.682,0,0,0,.107-.268Z" transform="translate(-1205.682 -405.99)" fill="#fde48b" fill-rule="evenodd"/><path d="M1286.63,436c-.264.779-1.612,8.11-1.612,8.11l-2.954,9.775s-.232.39.376.483,2.309.108,2.309.108.54-.031.484-.537c-.048-.436,2.161-9.181,2.256-9.56,0,0-.389-.048-.591-.054-.086,0,1.659-8.093,1.557-8.11s-1.6,8.159-1.719,8.11a1.823,1.823,0,0,1-.967-2.256C1286.285,439.332,1287.051,434.755,1286.63,436Z" transform="translate(-1206.12 -409.126)" fill="#e24b27" fill-rule="evenodd"/><path d="M1124.291,487.792a9.787,9.787,0,0,0-4.78,3.3,30.864,30.864,0,0,1-.376,3.437,24.1,24.1,0,0,0,4.028,5.21c.906.7,3.766-.172,5.854-.859s13.581-7.3,13.7-7.466a2.13,2.13,0,0,0,.86.269c.762-2.228,2.236-5.307,2.3-7.462,0-.162-.321.033-.477.05.643-.348,1.3-.961,1.289-1.557-.3-2.688-.975-.893-1.772-.268a5.336,5.336,0,0,0-1.772,2.2,7.687,7.687,0,0,1-3.277,2.793c-.38.157-9.491,2.125-11.494,3.169-1.184.617-1.541.5-1.719.268C1126.5,490.674,1124.291,487.792,1124.291,487.792Z" transform="translate(-1067.303 -447.892)" fill="#f8f7e6" fill-rule="evenodd"/><path d="M1293.924,506.412c-.011.278.345.364.591.322,1.178-.2,2.691-.565,2.954-1.02.493-.855.52-1.908-.752-1.557.436-.4.415-1.436.376-1.88a2.832,2.832,0,0,0,1.182-.806c.534-.6.627-1.987-.054-2.31a5.312,5.312,0,0,0-1.987,0c-.086-.014-.217-.027-.269.054-.128.2-.117.683-.269,1.02-.055.122-.869.18-1.289.913-.25.437-.57,1.342.108,1.45-1.521.4-1.861.667-2.149,1.4-.261.664-.511,1,2.31.913A1.561,1.561,0,0,0,1293.924,506.412Z" transform="translate(-1214.808 -463.053)" fill="#f8f7e6" fill-rule="evenodd"/><path d="M1150.568,485.861s-.363.794-2.148,1.128a2.9,2.9,0,0,1-2.095-.108,1.752,1.752,0,0,1,.913-1.987,12.156,12.156,0,0,1,1.987-.483,13.609,13.609,0,0,0-1.88.591,1.325,1.325,0,0,0-.537.483c-.3.382-.514,1.261-.322,1.4a2.86,2.86,0,0,0,1.5.054c1.167-.227,2.472-.465,2.9-2.095.112.34-.322,1.02-.322,1.02Zm-5.278-2.149h0a2.09,2.09,0,0,0,.927-1.288,2.321,2.321,0,0,0-.323-1.611c.26.015.537.859.537.859C1146.6,483.775,1144.7,483.916,1145.291,483.712Zm-1.221,3.922a3.127,3.127,0,0,0,1.074-3.76,7.96,7.96,0,0,1,0,1.987c-.078.434-1.315,2.277-2.31,2.2.166.117.631-.023,1.235-.43Zm-2.877,2.744h0c.04.095.726.9.726.9A1.371,1.371,0,0,1,1141.193,490.377Zm-15.975,2.574h0c-.139,1.159-.611-2.276,1.665-2.31A2.72,2.72,0,0,0,1125.217,492.951Zm.967-2.631c.182.177-2.2-2.922-2.2-2.922a9.825,9.825,0,0,0-4.834,3.3,32.1,32.1,0,0,1-.376,3.491c-.043.338,3.633,5.355,4.512,5.371-.238-.25-.233-1.205-.906-2.52-1.35-2.506-2.544-5.825-.726-7.607a2.254,2.254,0,0,1,3.261-.254,14.837,14.837,0,0,1,1.271,1.144Z" transform="translate(-1066.995 -447.497)" fill="#d5d0a7" fill-rule="evenodd"/><path d="M1321.634,501.524s-.422.58-.376.645-.165-.064-.107-.215S1321.552,501.511,1321.634,501.524Z" transform="translate(-1239.457 -465.148)" fill="#ebe7c8" fill-rule="evenodd"/><path d="M1294.76,522.971s-1.94.29-2.363,1.289c-.247.581-.055.795,0,.806a5.165,5.165,0,0,0,4.135-.591,5.565,5.565,0,0,0,.483-.806s-.065.649-.322.86a5.266,5.266,0,0,1-4.511.591,1.307,1.307,0,0,1,.268-1.235A3.1,3.1,0,0,1,1294.76,522.971Z" transform="translate(-1214.731 -483.425)" fill="#ebe7c8" fill-rule="evenodd"/><path d="M1303.961,540.6a.4.4,0,0,1-.269-.161c-.2-.263-.311-.822.43-1.558.192-.269-.325.253-.483.43C1303.5,539.464,1303.1,540.791,1303.961,540.6Z" transform="translate(-1224.362 -496.922)" fill="#ecb2c5" fill-rule="evenodd"/><path d="M1272.872,543.323s.793.991,1.182,1.02S1273.245,544.683,1272.872,543.323Z" transform="translate(-1198.322 -500.77)" fill="#ebe7c8" fill-rule="evenodd"/><path d="M795.646,491.924a7.789,7.789,0,0,1,7.411,3.156c-.729,3.164-2.5,7.591-3.759,8.876-2.856,2.9-5.823,1.814-7.466.859s-10.146-9.136-11.44-10.688c-.4-.415-.613-.37-1.182-.483a28.185,28.185,0,0,1-5.854-2.417c-.263-.2-3.315-2.987-3.6-3.76a.93.93,0,0,1-.215-.483,9.429,9.429,0,0,1-1.128-1.128c.8-1.56,2.74.43,3.115.215.536-.308,4.933.762,6.338.644-.228-.631-.271-.686-.859-.806-1.808-.4-1.63-3.732-.591-3.652a3.282,3.282,0,0,0,1.343,1.88,10.722,10.722,0,0,0,2.309,1.02c.714.327,1.59.557,2.632,3.062.485,1.166-.021,1.574.591,2.148a48.424,48.424,0,0,0,4.726,2.686c2.145,1.193,5.237,2.295,5.962,3.223a.283.283,0,0,0,.372-.15l0-.011A37.193,37.193,0,0,0,795.646,491.924Z" transform="translate(-768.414 -448.726)" fill="#f8f7e6" fill-rule="evenodd"/><path d="M802.873,515.967c-.164-.772-2.059-2.34-2.059-2.34A3.291,3.291,0,0,1,802.873,515.967Zm-20.482-8.624h0c-1.292.062,4.188-1.276,6.184,1.636C788.439,508.793,787.07,507.116,782.392,507.343Zm6.2,1.653-.012-.017Zm-3.941-4.929a2.581,2.581,0,0,0,.215,1.182,3.95,3.95,0,0,0,1.235,1.074,3.569,3.569,0,0,1-1.074-1.074,8.2,8.2,0,0,1-.268-1.665.916.916,0,0,0-.7-.323c-.093.015.63.223.591.806Zm-5,.375h0a19.252,19.252,0,0,0-3.061-1.825,9.719,9.719,0,0,1,3.115,1.611,15.222,15.222,0,0,0,2.417,1.825,8.121,8.121,0,0,1-2.471-1.611Zm-1.264-.139c-1.386-1.2-2.271.391-1.851.032a1.237,1.237,0,0,1,1.665.054c.086.056,1.232,1.179,1.611,1.558a9.889,9.889,0,0,0,2.148,1.235,24.57,24.57,0,0,1-2.148-1.45c-.542-.52-1.36-1.372-1.425-1.428Z" transform="translate(-775.247 -466.079)" fill="#d5d0a7" fill-rule="evenodd"/><path d="M866.3,534.6s.217.8,0,.913S866.268,534.859,866.3,534.6Z" transform="translate(-851.749 -493.336)" fill="#d5d0a7" fill-rule="evenodd"/><path d="M846.194,557.742s1.189-.189,1.235-.376A.876.876,0,0,1,846.194,557.742Z" transform="translate(-834.699 -512.717)" fill="#d5d0a7" fill-rule="evenodd"/><path d="M812.915,517.883a3.582,3.582,0,0,0-.591,1.075,1.857,1.857,0,0,0,0,1.128C812.628,520.9,811.216,519.1,812.915,517.883Z" transform="translate(-805.61 -479.089)" fill="#d5d0a7" fill-rule="evenodd"/><path d="M1024.3,329.966s1.283-11.89.847-12.579c-.608.014-1.3-1.227-1.4-1.906-.074-.5-.077-2.149.847-2.075a1,1,0,0,1,.975,1.059c.04.643.3-.339.3-.339l-.085-1.525.508-.3-.17-2.965,3.727-1.779,4.447.593.085.678s2.215,6.787,1.228,12.536c-1.02,3.413-5.875,3.283-6.226,3.049-.028.6-.426,3.888,0,5.336.85.933,1.394,2.2.381,3.007C1028.652,333.643,1023.741,331.8,1024.3,329.966Z" transform="translate(-985.99 -299.849)" fill="#f8f7e6" fill-rule="evenodd"/><path d="M1036.607,399.252s1.432,3.042,3.727,3.346c-.086,1.368-.111,2.012-.169,2.8s.139,4.2.127,3.939c-.2-4.252-3.388-8.894-3.388-8.894S1036.442,399.176,1036.607,399.252Z" transform="translate(-996.943 -377.987)" fill="#d5d0a7" fill-rule="evenodd"/><path d="M1028.651,270.924c0-.017-.235-2.2-1.237-1.97-.062-.454-.287-3.2-.287-3.2a2.235,2.235,0,0,1,.466-1.864,9.547,9.547,0,0,1,3.3-1.567,4.516,4.516,0,0,1-.3-4.574c1.175-2.363,4.065-2.4,5-2.372.966.028,4.727.345,4.7,4.4-.02,3.081-1.174,4-1.906,4.362.079.314.211,2.224-.381,2.965-.215-.528-.678-2.668-.678-2.668a20.7,20.7,0,0,1-4.658,0,3.84,3.84,0,0,0-3.473,1.271c-.148.311.622,1.78-.042,2.372s-.078,2.224-.127,2.711C1029.008,271.035,1028.651,270.924,1028.651,270.924Z" transform="translate(-988.859 -255.376)" fill="#724527" fill-rule="evenodd"/><path d="M1054.584,286.565s4.264,1.59,4.151-1.736a1.534,1.534,0,0,0-1.1-1.059s1.98.311,1.525,1.737S1057.44,288.213,1054.584,286.565Z" transform="translate(-1012.293 -279.574)" fill="#3a2115" fill-rule="evenodd"/><path d="M1040.615,333.628c-.137-.362-1.906-.551-1.906-.551l.169-.889a10.217,10.217,0,0,1,1.694.72s.18,1.082.042.72Zm-1.779,2.245a3.326,3.326,0,0,1-.635-2.457,3,3,0,0,0,.339,2.329c.05.113-.678.042-.678.042s-.15.206-.042.254,1.152.093,1.016-.169Zm-3.33.933h0a1.19,1.19,0,0,0-.27.211c-.042.088-.085-.211-.085-.211s.568-.439.762-.254c0,0-.21.124-.4.247.118.307.651,1.379,2.133.684.134.047.127.3.127.3s-1.921.774-2.272-.973Zm.365-2.139h0c0,.339-.162.614-.36.614s-.361-.275-.361-.614.161-.614.361-.614S1035.871,334.328,1035.871,334.667Zm-2.329-.319,2.88-1.4a7.246,7.246,0,0,1-.042-.847,11.131,11.131,0,0,0-2.8,1.609l-.042.635Zm-3.516.762h0c.138-.027.348.536.449.835C1030.31,335.6,1029.869,335.142,1030.026,335.111Zm.508,1.016a.59.59,0,0,0-.059-.181C1030.512,336.053,1030.534,336.127,1030.534,336.127Zm8.746-1.991h0c.2,0,.359.275.359.614s-.161.614-.359.614-.359-.275-.359-.614.162-.614.36-.614Z" transform="translate(-991.336 -320.749)" fill="#724527" fill-rule="evenodd"/></g><g transform="translate(841.318 48.731)"><path d="M1558.44,884.147s-1.92-.289-1.969,2.153-.092,15.615-.092,15.615l11.449.321.045-16.072s.121-1.956-1.556-2.018S1558.44,884.147,1558.44,884.147Z" transform="translate(-1512.836 -802.192)" fill="#6a465c" fill-rule="evenodd"/><path d="M1578.079,798.827v12.047l5.082.139.092-12.872Z" transform="translate(-1531.329 -728.921)" fill="#4a2e40" fill-rule="evenodd"/><path d="M1553.418,916.426v1.231h-16.8l-.045-1.467Z" transform="translate(-1495.952 -829.525)" fill="#4a2e40" fill-rule="evenodd"/><path d="M1540.587,1002.153l-22.719.145s-.684-3.514,2.467-3.754,18.317-.092,18.317-.092A3.2,3.2,0,0,1,1540.587,1002.153Z" transform="translate(-1479.962 -899.591)" fill="#4a2e40" fill-rule="evenodd"/><path d="M1380.626,752.891H1398.9a3.732,3.732,0,0,1,3.732,3.732h0a3.732,3.732,0,0,1-3.732,3.731h-18.276a3.732,3.732,0,0,1-3.732-3.731h0A3.732,3.732,0,0,1,1380.626,752.891Z" transform="translate(-1359.875 -690.358)" fill="#246f68"/><path d="M1495.512,752.8h26.6a3.747,3.747,0,0,1,3.747,3.745h0a3.745,3.745,0,0,1-3.745,3.744h-26.6a3.745,3.745,0,0,1-3.745-3.745h0a3.745,3.745,0,0,1,3.745-3.745Z" transform="translate(-1457.772 -690.278)" fill="#368c84"/><path d="M1418.1,619.006l-.2,3.077-24.388,3.941-2.018-.484s.085-4.915,5.922-5.68c2.646-.128,7.778.448,12.312.105C1414.309,619.609,1418.1,619,1418.1,619.006Z" transform="translate(-1372.318 -576.258)" fill="#6a465c" fill-rule="evenodd"/><path d="M1410.924,625.245c2.655-.353,6.689.48,10.452.329,3.826-.155,7.015-.843,7.624-.8.319,1.184-.673,5.434-.673,5.432l-23.179.731A6.735,6.735,0,0,1,1410.924,625.245Z" transform="translate(-1383.955 -581.173)" fill="#4a2e40" fill-rule="evenodd"/><path d="M1673.2,564.371s-.762,1.673-1.917,1.742c-.861.052-4.261.014-6.62,0,2.328-.123,3.855-2.276,4.18-2.846.578-2.678,9.629-25.341,8.943-28.8-.39-.356-.448-.408-.058-.581,1.377-.61,4.288.9,3.891,2.556C1676.485,554.822,1673.2,564.371,1673.2,564.371Z" transform="translate(-1605.119 -503.598)" fill="#246f68" fill-rule="evenodd"/><path d="M1525.97,566.417c1.361.437,21.214,0,21.214,0a4.155,4.155,0,0,0,3.462-2.85c.56-1.5,5.831-15.025,8.015-23.52,2.352-7.122.872-5.864.872-5.864a16.594,16.594,0,0,1-7.2,2.367c-4.393.332-11.618-1.323-12.367-1.621-1.027-.117-3.775-.639-4.53,1.621C1533.4,542.626,1534.038,541.326,1525.97,566.417Z" transform="translate(-1486.921 -503.898)" fill="#368c84" fill-rule="evenodd"/><path d="M1620.922,629.288l-4.819,4s-12.578,1.913-18,3.252c-.659-.179-2.207-.525-2.207-.525s1.489-6.705,10.4-7.026c5.115-.184,4.918,0,8.187-.224a20.8,20.8,0,0,0,3.194-.7,3.684,3.684,0,0,1,3.252,1.215Z" transform="translate(-1546.51 -583.957)" fill="#6a465c" fill-rule="evenodd"/><path d="M1629.946,633.784s3.312-1.283,3.716.116a41.146,41.146,0,0,1-1.626,5.284l-21.194,1.794a12.558,12.558,0,0,1,6.91-5.983c2.518-.919,6.055-.763,8.768-.753A13.107,13.107,0,0,0,1629.946,633.784Z" transform="translate(-1559.25 -588.395)" fill="#4a2e40" fill-rule="evenodd"/><g transform="translate(36.666 30.107)"><path d="M1509.84,547.779s3.718-4.077,4.819-5.227a8.7,8.7,0,0,1,6.969-2.323,17.038,17.038,0,0,1,2.613,0c2.388.2,1.606-.552,2.265,1.278.2.408,1.1-.348,1.1-.348a7.785,7.785,0,0,1,3.891,3.019c1.455,2.052,1,5.573-.7,7.849-1.5,2-2.5,3.079-2.5,3.079a10.179,10.179,0,0,0-3.949,2.613,8.3,8.3,0,0,1-6.562-.058c-3.812-1.523-3.484-6.156-3.484-6.156a3.964,3.964,0,0,0-1.452-2.207A11.215,11.215,0,0,0,1509.84,547.779Z" transform="translate(-1509.84 -539.175)" fill="#f8e6e6" fill-rule="evenodd"/><path d="M1566.345,540.452a1.586,1.586,0,0,1-.928-.814,4.263,4.263,0,0,1,.117-2.033,7.161,7.161,0,0,1,2.5-3.66,5.51,5.51,0,0,1,3.891-.224c1.612.436,2.287-.334,3.252,1.742a3.476,3.476,0,0,1,.166.643,8.808,8.808,0,0,1-.224,3.424,9.292,9.292,0,0,0-3.364,2.323,3.845,3.845,0,0,0-2.384-.59.919.919,0,0,0-.814.756,40.662,40.662,0,0,0-1.684,4.819c-.348-.159-1.286-.058-1.626-.464.128-2.646,1.444-4.588,1.742-5.633C1567.041,540.543,1566.345,540.452,1566.345,540.452Z" transform="translate(-1557.055 -533.473)" fill="#f5d1d1" fill-rule="evenodd"/><path d="M1593.79,594.437a5.5,5.5,0,0,1-.35.987,9.873,9.873,0,0,1-2.265,2.323,17.861,17.861,0,0,0,2.092-2.381C1593.458,595.072,1593.673,594.429,1593.79,594.437Z" transform="translate(-1579.155 -585.428)" fill="#f1b6b6" fill-rule="evenodd"/><path d="M1617.184,621.325s3.85-4.35,4.463-5.021C1622.651,615.2,1618.931,620.136,1617.184,621.325Z" transform="translate(-1601.32 -603.926)" fill="#f1b6b6" fill-rule="evenodd"/><path d="M1643.036,620.766s-.987.487-.987.289-.175.224-.175.224A2.069,2.069,0,0,0,1643.036,620.766Z" transform="translate(-1622.362 -607.866)" fill="#f1b6b6" fill-rule="evenodd"/><path d="M1606.9,577.331a6.076,6.076,0,0,1,1.626-2.787,4.2,4.2,0,0,1,2.729-.987C1611.43,573.637,1609.056,573.3,1606.9,577.331Z" transform="translate(-1592.553 -567.624)" fill="#f1b6b6" fill-rule="evenodd"/><path d="M1596.911,610.16s2.96.491,4.162,5.066c.191-.191.18-.238.247-.278C1601.594,614.782,1599.882,610.315,1596.911,610.16Z" transform="translate(-1584.044 -598.827)" fill="#f1b6b6" fill-rule="evenodd"/><path d="M1514.954,585.671s2.915.52,3.833,2.382a5.2,5.2,0,0,0,0-.7C1518.073,586.59,1516.243,585.487,1514.954,585.671Z" transform="translate(-1514.198 -577.94)" fill="#f1b6b6" fill-rule="evenodd"/><path d="M1541.131,572.041a29.511,29.511,0,0,0-.987,2.787,21.2,21.2,0,0,0-.35,5.575C1540.01,581.451,1538.452,575.719,1541.131,572.041Z" transform="translate(-1535.148 -566.341)" fill="#f1b6b6" fill-rule="evenodd"/><path d="M1540.857,574.514s.448,1.594.643,1.6S1541.052,576.732,1540.857,574.514Z" transform="translate(-1536.273 -568.449)" fill="#f1b6b6" fill-rule="evenodd"/><path d="M1572.21,586.821s-.436,1.054-.819,2.11-.706,2.095-.706,2.095l-.224-.148A15.29,15.29,0,0,1,1572.21,586.821Z" transform="translate(-1561.493 -578.937)" fill="#f1b6b6" fill-rule="evenodd"/><path d="M1594.171,538.034a2.562,2.562,0,0,0-.594,1C1593.537,539.258,1594.1,538.175,1594.171,538.034Z" transform="translate(-1581.2 -537.36)" fill="#f1b6b6" fill-rule="evenodd"/><path d="M1622.667,544.423a4.191,4.191,0,0,1-.3,1.536C1622.111,546.309,1622.956,545.248,1622.667,544.423Z" transform="translate(-1605.698 -542.805)" fill="#f1b6b6" fill-rule="evenodd"/></g><g transform="translate(0 79.94)"><path d="M1279.934,875.036s-.926,3.767-2.272,5.225c-.673.735-2.731.841-3.543.841-.65,0-.224-1.794-.7-1.424-.626.511-.155,1.345-.917,1.4-5.064.4-9.766-3.92-9.968-4.2s-1.161-1.2-.659-1.794,1.321-2.242,2.215-1.861a7.294,7.294,0,0,0,2.359.594c.908-.289,5.173-1.238,5.983-2.845S1279.934,875.036,1279.934,875.036Z" transform="translate(-1261.733 -870.679)" fill="#fde48b" fill-rule="evenodd"/><path d="M1375.057,908.78s1.866,9.405.693,11.7a5.659,5.659,0,0,1-2.646,1.182s-1.164-1.135-1.345-.969a6.768,6.768,0,0,0-1.135,2.269c-.224.955-2.151,1.442-2.79,1.727a34.352,34.352,0,0,1-3.913.868s-3.736-.314-4.371-.747c-.26-.464-1.6-3.781,2.534-4.135,1.976-.17,3.512-4.326,4.1-5.577s-.332-3.92-.332-3.92Z" transform="translate(-1344.742 -903.149)" fill="#fde48b" fill-rule="evenodd"/><path d="M1372.45,933.4c-.209,0-.357-.406-.357-.406l-1.094-2.98.137-.049s1.108,2.785,1.121,2.888.069.368.224.368a6.649,6.649,0,0,0,1.027-.448c.139-.067.161-.289.119-.514-.187-.946-.944-3.119-.944-3.119l.224-.092s.612,2.243.812,3.025c.177.691-.105.769-.105.769a6.854,6.854,0,0,1-1.155.565Zm.37-.581.3-.137-.94-3.263-.287.191Zm3.826.913h0a61.252,61.252,0,0,0-5.7,3.561c-.865.814-3.023,2.691-4.124,2.931a6.9,6.9,0,0,1-4.413.224c-.915-.164-1.724-1.168-2.4-1.168.426-.09,1.3.509,2.265.839,3.588,1.141,6.665-1.509,8.545-3.074a55.839,55.839,0,0,1,5.83-3.321Zm-3.049,3.68c-.09-.2-1.072.522-1.072.522s.175-.065.715-.224.621,1.144.621,1.144a2.835,2.835,0,0,0-.265-1.435Z" transform="translate(-1345.483 -920.425)" fill="#3f2112" fill-rule="evenodd"/><path d="M1270.969,887.489s-.448.792.7,1.814c1.742,1.57,5.488,3.936,13.793,3.763,2.44-.049-8.711.937-13.417-2.848C1270.058,888.619,1270.332,888.171,1270.969,887.489Z" transform="translate(-1269.203 -885.005)" fill="#3f2112" fill-rule="evenodd"/><path d="M1342.206,931.25s1-.119,1,0-.493,1.426-.493,1.426.406-1.218.262-1.276A3.264,3.264,0,0,0,1342.206,931.25Z" transform="translate(-1330.314 -922.254)" fill="#3f2112" fill-rule="evenodd"/></g><path d="M1390.912,499.116a5.218,5.218,0,0,1,4.356,3.949,11.158,11.158,0,0,1-2.033,1.974s-3.16,2.756-3.949,3.194a2.147,2.147,0,0,1-1.915.35c-3.9-1.431-8.248-8.313-11.919-14.8a1.245,1.245,0,0,0-.5-.65c-.7-.774-2.332-1.57-3.8-3.588-1.188-1.646-1.074-4.75-.567-4.9a.623.623,0,0,0,.2-.224,1.626,1.626,0,0,1,.145-1.159c.07-.1.843-.179,1.041.875.224,1.2.673,2.821,1.473,3.431.3.224.253-.029.141-.224a11.221,11.221,0,0,1-1.121-3.039c-.121-1.249.745-1.193,1.047-.047a6.979,6.979,0,0,0,1.224,2.613,3.463,3.463,0,0,0,.567.657c.7.466.758.605.817.612.3.043.673-.659.565-1-.756-1.449,1.011-2.5.823-2.034-.534,1.323.477,1.186.92,2.59.332,1.065-.15,2.382-.038,3.074a3.889,3.889,0,0,0,.872,1.541c5.994,5.519,8.134,6.708,8.988,8.282.325.386.37.821.527.832A30.584,30.584,0,0,1,1390.912,499.116Z" transform="translate(-1354.188 -460.522)" fill="#ecc298" fill-rule="evenodd"/><path d="M1470.749,590.9a6.641,6.641,0,0,1,2.5,1.045,5.178,5.178,0,0,1,1.857,2.787,1.683,1.683,0,0,1-.408.63,33.51,33.51,0,0,1-5.111,4.065,4.055,4.055,0,0,1-3.14.523,7.413,7.413,0,0,1-2.613-1.917c1.28.6,6.849,1.363,8.362-2.729,1.121-3.012-1.2-3.941-2.388-3.547C1470.526,591.106,1470.749,590.9,1470.749,590.9Z" transform="translate(-1433.966 -552.31)" fill="#c37e57" fill-rule="evenodd"/><path d="M1409.669,507.382s.612.448-.332,1.72a2.218,2.218,0,0,0-.206,1.236,1.925,1.925,0,0,1,.121-1.493C1410.252,507.5,1409.451,507.564,1409.669,507.382Z" transform="translate(-1387.261 -481.131)" fill="#c37e57" fill-rule="evenodd"/><path d="M1387.112,512.755s-2.261,1.369-2.436,2.242S1384.39,513.6,1387.112,512.755Z" transform="translate(-1366.443 -485.71)" fill="#c37e57" fill-rule="evenodd"/><path d="M1374.27,491.837a.507.507,0,0,1,.419.52c.047.913.112,3.321,1.6,3.982a6.194,6.194,0,0,1-1.417-3.692C1374.914,491.9,1374.4,491.485,1374.27,491.837Z" transform="translate(-1357.639 -467.774)" fill="#c37e57" fill-rule="evenodd"/><g transform="translate(9.347 47.181)"><path d="M1357.477,649.007l-.448,2.633a.539.539,0,0,1-.594.088c-.35-.159-9.107-3.084-14.944-.913-2.759,1.141-4.909,5.89-5.867,7.667-.919,1.7-11.1,18.44-10.627,20.672.11.359,1.57,7.609,8.643,8.439.354.04,3.014-5.631,3.005-5.265,0,.462-1.121,6.055-.819,6.49,3.451,5.01,13.18,2.117,13.186,2.633,0,.567-.359-5.209-.359-5.209s3.139-10.814.386-20.79c-.6-1.807,2.969-1.011,4.878-1.1,2.61.054,11.125,1.545,15.1-.289,1.287-.594,4.835-2.294,1.973-9.99-1.242.1-2.879.283-3.775.292-.72-.224-1.651-.381-1.917-.523a6.267,6.267,0,0,1,2.034-3.891,8.408,8.408,0,0,1-6.64.691A14.043,14.043,0,0,1,1357.477,649.007Z" transform="translate(-1324.981 -649.007)" fill="#5f3d53" fill-rule="evenodd"/><path d="M1362.2,651.549a10.723,10.723,0,0,0,7.2,1.626C1371.8,652.973,1365.454,654.738,1362.2,651.549Zm-9.643-1.218c1.5-2.243,16.842,5.689,16.842,5.689-3.447-2.752-13.885-6.593-15.216-6.679-4.3-.27-4.416,2.68-1.626.987Zm-22.3,27.114h0c4.375,8.634,8.746,7.849,8.746,7.849C1335.179,686.562,1330.5,679.175,1330.264,677.446Zm23.578-12.892h0c1.452-.125,4.768-.175,4.994.058.029.031-5.118-.09-5.111.581.011,1.105.871,5.864.871,5.864s-1.207-5.294-1.278-5.981c0-.065-.5-2.256-.224-2.323.224-.054.029,1.794.406,1.859.139,0,.707-1.731.871-1.742.26-.016-.812,1.709-.522,1.684Zm-13.029,23.582h0a26.5,26.5,0,0,0,11.132,1.366C1346.493,691.464,1340.039,688.048,1340.813,688.136Z" transform="translate(-1329.483 -649.277)" fill="#3f2112" fill-rule="evenodd"/><path d="M1579.217,683.46s-3.054-1.168-3.891-1.045-.7-.348-.7-.348A8.146,8.146,0,0,1,1579.217,683.46Z" transform="translate(-1537.728 -677.181)" fill="#3f2112" fill-rule="evenodd"/><path d="M1443.874,711.935s10.592,5.606,16.55,6.445c.56.081,1.794.139,2.5.175,1.709.085,1.278-.117,1.278-.117a32.393,32.393,0,0,1-6.727-1.161C1452.336,715.626,1446.5,712.738,1443.874,711.935Z" transform="translate(-1426.304 -702.635)" fill="#3f2112" fill-rule="evenodd"/><path d="M1407.955,715.472s-2.284.707-2.671,3.949-3.139,21.806-3.139,21.806,2.633-21.537,3.028-22.679A3.325,3.325,0,0,1,1407.955,715.472Z" transform="translate(-1390.742 -705.65)" fill="#3f2112" fill-rule="evenodd"/></g><path d="M1429.449,620.725a69.521,69.521,0,0,1-5.866,4.821c-.5.224-1.778,1.691-5.4.987a77.182,77.182,0,0,0-14.8-1.511c-.285,0-.926.41-1.22.408-3.812,0-4.4,3.061-4.994,4.005-.179-.135-.1.062-.175-.464-.047-.339.018-.314.058-.581-.025-.161-.376-.034-.058-1.1-.173-.3-.343-.336-.116-1.393a6.765,6.765,0,0,1,1.1-2.207,2.154,2.154,0,0,1,1.045-.987,8.352,8.352,0,0,1,.987-.639,12.262,12.262,0,0,1,4.35-1.1c1.742-.121,3.261-.354,4.42-.523,4.635-.673,7.293-1.274,10.569-.581.256.159.937-.449,2.265-1.346s3.9-2.857,4.588-2.9C1428.173,616,1429.687,619.409,1429.449,620.725Z" transform="translate(-1376.812 -573.363)" fill="#ecc298" fill-rule="evenodd"/><path d="M1425.933,624.009s3.456-3.265,3.539-4.933a3.585,3.585,0,0,0-3.14-3.788s.8-.65,1.161-.871c0,0,2.862.448,3.658,5.158-1.292,1.33-5.225,4.416-5.225,4.416Zm-25.094.056h0c-.224.224-.26.507-.406.7a9.479,9.479,0,0,0-1.794,2.729,6.221,6.221,0,0,1,1.626-2.787c.269-.314.177-.612.464-.812a.805.805,0,0,1,.872-.116,1.106,1.106,0,0,0-.763.289Z" transform="translate(-1378.407 -572.348)" fill="#c37e57" fill-rule="evenodd"/><path d="M1549.463,645.176s-1.151-.962-1.626-.871S1548.913,644.786,1549.463,645.176Z" transform="translate(-1505.48 -597.814)" fill="#e3c1ce" fill-rule="evenodd"/><path d="M1387.108,525.5a8.843,8.843,0,0,0,2.734.812c1.007,0,1.222,1.153,1.146,1.388s.612-1.366-.9-1.621A10.8,10.8,0,0,1,1387.108,525.5Z" transform="translate(-1368.58 -496.572)" fill="#c37e57" fill-rule="evenodd"/><path d="M1493.491,604.257a2.567,2.567,0,0,1,0,2.9C1492.863,607.988,1494.159,605.194,1493.491,604.257Z" transform="translate(-1459.09 -563.689)" fill="#c37e57" fill-rule="evenodd"/><path d="M1402.07,549.8l.948-.083a1.638,1.638,0,0,1-.6.193A.894.894,0,0,1,1402.07,549.8Z" transform="translate(-1381.331 -517.212)" fill="#e3c1ce" fill-rule="evenodd"/><path d="M1400.626,669.812s-.637-.094-.814.224a.77.77,0,0,0-.1.482,7.53,7.53,0,0,0-1.471,2.945c.056-.018.289-.749.639-1.452a3.658,3.658,0,0,1,.987-1.395.658.658,0,0,1,.058-.522A.785.785,0,0,1,1400.626,669.812Z" transform="translate(-1378.07 -619.545)" fill="#e3c1ce" fill-rule="evenodd"/><path d="M1406.107,662.87l.464-.408a7.2,7.2,0,0,1,1.161-.522,1.946,1.946,0,0,0-1.1.35C1406.531,662.34,1406.478,662.421,1406.107,662.87Z" transform="translate(-1384.771 -612.834)" fill="#e3c1ce" fill-rule="evenodd"/><path d="M1588.655,402.522a13.243,13.243,0,0,0-2.639,3.151l-.821,1.736a63.487,63.487,0,0,0-3.1,7.909c-.608,2.136.144,2.743.144,2.743s-1.177,3.458-3.22,3.878c-2.393.491-2.218.991-2.556.871.184-.3.021-2.77.224-4.413a5.98,5.98,0,0,1,.538-2.182c.166-.187,0,.049.191-.314a28.11,28.11,0,0,0,2.148-6.079c-1.092-.256-4.772-.224-4.4-6.227.612-3.772.637-7.373,1.242-7.535l1.345-1.236a40.1,40.1,0,0,1,8.459,2.467c.449.224.72,2.991.581,3.588,1.016-2.153,2.361-1.39,2.545-1.094C1589.682,400.333,1589.581,401.246,1588.655,402.522Z" transform="translate(-1528.824 -385.207)" fill="#ecc298" fill-rule="evenodd"/><path d="M1608.7,480.883s-1.872,3.438-1.529,5.416c-1.121-1.754-.437-2.864-.872-5.4-.328-1.915-1.846-.538-1.478-2.07a6.4,6.4,0,0,0,4.808-1.8c.547-.534.834-1.316.92-1.247.244.2-1.088,2.953-1.281,3.471C1609.018,479.91,1608.7,480.883,1608.7,480.883Z" transform="translate(-1554.069 -454.197)" fill="#c37e57" fill-rule="evenodd"/><path d="M1587.09,400.812l-2.451,1.57-.614.4h0a7.569,7.569,0,0,1-6.714,2.207l-.3-.09c-1.271-.482-3.837-.386-3.364-8.746s4.767-7.091,4.767-7.091,10.682,6.757,10.814,6.929A48.676,48.676,0,0,1,1587.09,400.812Z" transform="translate(-1527.505 -380.238)" fill="#ecc298" fill-rule="evenodd"/><path d="M1645.03,478.551l-.865.56A1.957,1.957,0,0,1,1645.03,478.551Z" transform="translate(-1587.648 -456.56)" fill="#c37e57" fill-rule="evenodd"/><path d="M1566.752,338.672a12.63,12.63,0,0,0,7.712,8.717l1.475,2.8s-.522.821-1.141.119a6.9,6.9,0,0,1-1.386,1.985l-2.347,5.066s6.663,1.9,9.921-1.709,1.155-10.264-.336-13.87-2.942-5.456-3.678-8.015-1.875-4.308-5.537-3.982-5.481,1.545-5.59,4.447a6.117,6.117,0,0,0-4.261,4.261c-.8,3.4-.624,5.5,1.438,7.9C1563.023,346.38,1563.16,338.681,1566.752,338.672Z" transform="translate(-1516.896 -329.746)" fill="#75432a" fill-rule="evenodd"/><path d="M1581.019,388.025c-3.256,3.615-9.919,1.709-9.919,1.709l2.348-5.064a6.638,6.638,0,0,0,1.383-1.987c.624.7,1.146-.119,1.146-.119l-1.476-2.806a12.625,12.625,0,0,1-7.714-8.714c-3.588,0-3.729,7.708-3.729,7.708a6.8,6.8,0,0,1-1.872-4.947c.052.166.975,3.008,1.4,2.657s.094-5.093,2.982-5.831c0,0,.783-.092,1.061-1.33a2.818,2.818,0,0,1,.709-1.57s-.125,4.848,2.765,7.624,4.771,3.021,5.349,4.037.9,4.433,2.915,4.261c1.877-.168,3.484-3.287,3.519-6.1C1582.916,381.074,1583.414,385.375,1581.019,388.025Z" transform="translate(-1516.929 -362.119)" fill="#75432a" fill-rule="evenodd"/><path d="M1593.712,433.588a2.36,2.36,0,0,1-1.424,1.794c-1.237.449.877.7,1.121.525s-.718.179-.554-.361a.448.448,0,0,1,.27-.285A1.612,1.612,0,0,0,1593.712,433.588Z" transform="translate(-1543.109 -418.242)" fill="#c37e57"/><path d="M1592.219,448.2a3.342,3.342,0,0,0,3.332-.646s.117-.209-.224-.449.406-.381.617.224.37.449-.047.372-1.151,1.57-3.693.673C1592.2,448.362,1591.84,448.2,1592.219,448.2Z" transform="translate(-1543.231 -429.589)" fill="#c37e57"/><path d="M1591.79,430.06c.04-.306.255-.53.481-.5a.5.5,0,0,1,.337.607c-.04.306-.255.53-.481.5A.5.5,0,0,1,1591.79,430.06Z" transform="translate(-1543.008 -414.806)" fill="#3c3427"/><path d="M1617.565,433.406c.04-.306.255-.53.481-.5a.5.5,0,0,1,.337.607c-.039.306-.255.53-.481.5A.5.5,0,0,1,1617.565,433.406Z" transform="translate(-1564.974 -417.658)" fill="#3c3427"/><path d="M1589.869,419.488s.276-1.069,1.915-.857l-.079.61s-1.3-.576-1.767.256Z" transform="translate(-1541.376 -405.472)" fill="#3c3427"/><path d="M1614.784,421.507s0-1.105-1.63-1.319l-.081.61s1.4-.224,1.641.7Z" transform="translate(-1561.151 -406.823)" fill="#3c3427"/><path d="M1581.006,388.025c-3.256,3.615-9.919,1.709-9.919,1.709L1573,385.1a11.883,11.883,0,0,0,1.812-2.42c.624.7,1.146-.119,1.146-.119l-1.475-2.805a12.627,12.627,0,0,1-7.714-8.714c-3.588,0-3.729,7.708-3.729,7.708a6.8,6.8,0,0,1-1.872-4.947c.052.166.975,3.008,1.4,2.657s.094-5.093,2.983-5.831c0,0,.783-.092,1.061-1.33a2.818,2.818,0,0,1,.709-1.57s-.125,4.848,2.765,7.624,4.77,3.021,5.348,4.037.9,4.433,2.916,4.261c1.877-.168,3.484-3.287,3.518-6.1C1582.9,381.074,1583.4,385.375,1581.006,388.025Z" transform="translate(-1516.917 -362.119)" fill="#58311d"/></g></g></svg>