<svg xmlns="http://www.w3.org/2000/svg" xmlns:xlink="http://www.w3.org/1999/xlink" width="145.09" height="134.483" viewBox="0 0 145.09 134.483"><defs><linearGradient id="a" x1="-0.212" y1="1.558" x2="0.872" y2="-0.214" gradientUnits="objectBoundingBox"><stop offset="0" stop-color="#9b4a69"/><stop offset="1" stop-color="#f388b0"/></linearGradient><linearGradient id="b" x1="-3.71" y1="6.214" x2="2.93" y2="-2.794" xlink:href="#a"/><linearGradient id="c" x1="-3.217" y1="5.543" x2="3.423" y2="-3.464" xlink:href="#a"/><linearGradient id="d" x1="-8.709" y1="9.681" x2="5.25" y2="-4.235" xlink:href="#a"/><linearGradient id="e" x1="-10.282" y1="11.107" x2="3.864" y2="-2.809" xlink:href="#a"/><linearGradient id="f" x1="-11.657" y1="12.531" x2="2.406" y2="-1.385" xlink:href="#a"/><linearGradient id="g" x1="-13.122" y1="13.954" x2="0.968" y2="0.038" xlink:href="#a"/><linearGradient id="h" x1="-6.074" y1="4.672" x2="3.446" y2="-1.37" xlink:href="#a"/><linearGradient id="i" x1="-6.682" y1="5.061" x2="2.838" y2="-0.982" xlink:href="#a"/><linearGradient id="j" x1="-7.311" y1="5.457" x2="2.209" y2="-0.586" xlink:href="#a"/><linearGradient id="k" x1="-7.958" y1="5.868" x2="1.562" y2="-0.175" xlink:href="#a"/><linearGradient id="l" x1="-7.104" y1="8.095" x2="6.854" y2="-5.847" xlink:href="#a"/><linearGradient id="m" x1="-8.655" y1="9.524" x2="5.49" y2="-4.419" xlink:href="#a"/><linearGradient id="n" x1="-5.501" y1="6.543" x2="8.456" y2="-7.504" xlink:href="#a"/><linearGradient id="o" x1="-5.732" y1="6.604" x2="8.495" y2="-7.338" xlink:href="#a"/><linearGradient id="p" x1="-4.061" y1="5.039" x2="10.057" y2="-9.005" xlink:href="#a"/><linearGradient id="q" x1="-7.031" y1="7.985" x2="7.113" y2="-6.065" xlink:href="#a"/><linearGradient id="r" x1="-11.504" y1="12.375" x2="2.588" y2="-1.566" xlink:href="#a"/><linearGradient id="s" x1="-0.423" y1="1.748" x2="1.113" y2="-0.329" xlink:href="#a"/><linearGradient id="t" x1="-2.205" y1="2.015" x2="1.246" y2="0.081" xlink:href="#a"/></defs><g transform="translate(-32.25 -43.197)"><path d="M110.46,135.33H40a7.78,7.78,0,0,1-7.75-7.75V60.72A7.81,7.81,0,0,1,40,53h7.71a2,2,0,0,1,2,2v7a1.26,1.26,0,0,0,.42.92,1.85,1.85,0,0,0,1.25.46A1.54,1.54,0,0,0,53.06,62V55a2,2,0,0,1,2-2h12.5a2,2,0,0,1,2,2v7.15A1.25,1.25,0,0,0,70,63a1.85,1.85,0,0,0,1.25.46,1.56,1.56,0,0,0,1.66-1.37V55a2,2,0,0,1,2-2H87.36a2,2,0,0,1,2,2v7a1.31,1.31,0,0,0,.43.93,1.85,1.85,0,0,0,1.24.45A1.54,1.54,0,0,0,92.69,62V55a2,2,0,0,1,2-2h13.42a2,2,0,0,1,2,2v7a1.29,1.29,0,0,0,.42.93,1.85,1.85,0,0,0,1.24.45A1.54,1.54,0,0,0,113.44,62V55a2,2,0,0,1,2-2h8.46a7.84,7.84,0,0,1,7.76,7.75h0V112a2,2,0,0,1-1.25,1.85,31.34,31.34,0,0,0-18,20.07A2,2,0,0,1,110.46,135.33ZM40,57a3.79,3.79,0,0,0-3.75,3.77v66.84A3.77,3.77,0,0,0,40,131.33h69a35.43,35.43,0,0,1,18.67-20.67V60.73A3.83,3.83,0,0,0,123.88,57h-6.44v5a5.54,5.54,0,0,1-5.67,5.38,5.81,5.81,0,0,1-3.94-1.51A5.27,5.27,0,0,1,106.11,62V57H96.69v5A5.53,5.53,0,0,1,91,67.33a5.79,5.79,0,0,1-4-1.52A5.27,5.27,0,0,1,85.36,62V57H76.89v5.15a5.52,5.52,0,0,1-5.66,5.37,5.79,5.79,0,0,1-4-1.52,5.16,5.16,0,0,1-1.72-3.85V57h-8.5v5a5.53,5.53,0,0,1-5.66,5.38,5.79,5.79,0,0,1-3.95-1.52A5.24,5.24,0,0,1,45.73,62V57Z" fill="url(#a)"/><path d="M93.79,95.65h6.68a2.79,2.79,0,0,1,2.78,2.79v6.61a2.78,2.78,0,0,1-2.78,2.77H93.81A2.79,2.79,0,0,1,91,105.05V98.41a2.8,2.8,0,0,1,2.79-2.78Z" fill="#ffebfc"/><path d="M48.06,78.62h6.66A2.77,2.77,0,0,1,57.5,81.4V88a2.78,2.78,0,0,1-2.78,2.77H48.06A2.79,2.79,0,0,1,45.27,88V81.36A2.79,2.79,0,0,1,48.06,78.62Z" fill="#ffebfc"/><path d="M100.47,109.82H93.81A4.8,4.8,0,0,1,89,105.05V98.41a4.81,4.81,0,0,1,4.78-4.78h6.67a4.8,4.8,0,0,1,4.78,4.78v6.62a4.78,4.78,0,0,1-4.76,4.79ZM93.65,97.65a.8.8,0,0,0-.63.77v6.63a.79.79,0,0,0,.79.77h6.66a.78.78,0,0,0,.78-.78v-6.6a.79.79,0,0,0-.79-.79H93.65Z" fill="url(#b)"/><path d="M54.72,92.81H48.06a4.79,4.79,0,0,1-4.79-4.76V81.36a4.82,4.82,0,0,1,4.79-4.74h6.66a4.78,4.78,0,0,1,4.78,4.77V88a4.78,4.78,0,0,1-4.78,4.81ZM48.06,80.62a.79.79,0,0,0-.79.77V88a.79.79,0,0,0,.79.77h6.66A.78.78,0,0,0,55.5,88V81.39a.78.78,0,0,0-.78-.77Z" fill="url(#c)"/><path d="M65.57,82.06h2.85a1.2,1.2,0,0,1,1.21,1.19h0v2.86a1.19,1.19,0,0,1-1.2,1.19H65.57a1.21,1.21,0,0,1-1.23-1.18h0V83.25a1.21,1.21,0,0,1,1.19-1.19Z" fill="url(#d)"/><path d="M80.49,82.06h2.86a1.19,1.19,0,0,1,1.19,1.19v2.86a1.19,1.19,0,0,1-1.19,1.19H80.49a1.21,1.21,0,0,1-1.17-1.19V83.25a1.21,1.21,0,0,1,1.2-1.19Z" fill="url(#e)"/><path d="M95.42,82.06h2.86a1.21,1.21,0,0,1,1.19,1.19v2.86a1.21,1.21,0,0,1-1.19,1.19H95.42a1.2,1.2,0,0,1-1.2-1.19V83.25a1.21,1.21,0,0,1,1.2-1.19Z" fill="url(#f)"/><path d="M110.34,82.06h2.86a1.21,1.21,0,0,1,1.19,1.19v2.86a1.21,1.21,0,0,1-1.19,1.19h-2.86a1.2,1.2,0,0,1-1.19-1.19V83.25a1.2,1.2,0,0,1,1.19-1.19Z" fill="url(#g)"/><path d="M51.39,67.33a5.75,5.75,0,0,1-4-1.53A5.24,5.24,0,0,1,45.73,62V48.53a5.67,5.67,0,0,1,11.32,0V62a5.53,5.53,0,0,1-5.66,5.33Zm0-20.18a1.54,1.54,0,0,0-1.66,1.38V62a1.3,1.3,0,0,0,.42.91,1.83,1.83,0,0,0,1.24.46A1.54,1.54,0,0,0,53.05,62V48.53a1.54,1.54,0,0,0-1.66-1.38Z" fill="url(#h)"/><path d="M71.22,67.48a5.73,5.73,0,0,1-4-1.53,5.15,5.15,0,0,1-1.71-3.84V48.68a5.67,5.67,0,0,1,11.32,0V62.11A5.52,5.52,0,0,1,71.22,67.48Zm0-20.17a1.54,1.54,0,0,0-1.66,1.37V62.11A1.25,1.25,0,0,0,70,63a1.83,1.83,0,0,0,1.24.46,1.55,1.55,0,0,0,1.66-1.37V48.68a1.54,1.54,0,0,0-1.68-1.37Z" fill="url(#i)"/><path d="M91,67.33a5.75,5.75,0,0,1-4-1.53A5.24,5.24,0,0,1,85.36,62V48.53a5.67,5.67,0,0,1,11.32,0V62A5.52,5.52,0,0,1,91,67.33Zm0-20.18a1.55,1.55,0,0,0-1.67,1.38V62a1.26,1.26,0,0,0,.43.91,1.81,1.81,0,0,0,1.24.46A1.54,1.54,0,0,0,92.68,62V48.53A1.54,1.54,0,0,0,91,47.15Z" fill="url(#j)"/><path d="M111.77,67.33a5.8,5.8,0,0,1-4-1.52A5.19,5.19,0,0,1,106.11,62V48.53a5.67,5.67,0,0,1,11.32,0V62a5.53,5.53,0,0,1-5.66,5.33Zm0-20.18a1.54,1.54,0,0,0-1.66,1.38V62a1.24,1.24,0,0,0,.42.91,1.81,1.81,0,0,0,1.24.46A1.54,1.54,0,0,0,113.43,62V48.53a1.54,1.54,0,0,0-1.66-1.38Z" fill="url(#k)"/><path d="M65.57,99.05h2.85a1.19,1.19,0,0,1,1.21,1.17v2.87a1.19,1.19,0,0,1-1.2,1.19H65.57a1.21,1.21,0,0,1-1.23-1.18h0v-2.85a1.19,1.19,0,0,1,1.19-1.19Z" fill="url(#l)"/><path d="M80.49,99.05h2.86a1.19,1.19,0,0,1,1.19,1.17v2.87a1.19,1.19,0,0,1-1.19,1.19H80.49a1.21,1.21,0,0,1-1.17-1.19v-2.85a1.19,1.19,0,0,1,1.19-1.19h0Z" fill="url(#m)"/><path d="M65.57,116h2.85a1.19,1.19,0,0,1,1.21,1.17V120a1.19,1.19,0,0,1-1.2,1.19H65.57a1.21,1.21,0,0,1-1.23-1.17v-2.86A1.19,1.19,0,0,1,65.53,116Z" fill="url(#n)"/><path d="M50,99.05h2.86A1.19,1.19,0,0,1,54,100.22v2.87a1.19,1.19,0,0,1-1.19,1.19H50a1.19,1.19,0,0,1-1.19-1.19v-2.85A1.19,1.19,0,0,1,50,99.05Z" fill="url(#o)"/><path d="M50,116h2.86A1.18,1.18,0,0,1,54,117.15V120a1.19,1.19,0,0,1-1.19,1.19H50A1.19,1.19,0,0,1,48.77,120v-2.84A1.19,1.19,0,0,1,50,116Z" fill="url(#p)"/><path d="M80.49,116h2.86a1.18,1.18,0,0,1,1.19,1.17V120a1.19,1.19,0,0,1-1.19,1.19H80.49A1.2,1.2,0,0,1,79.32,120v-2.84A1.19,1.19,0,0,1,80.51,116h0Z" fill="url(#q)"/><path d="M110.34,99.05h2.86a1.19,1.19,0,0,1,1.19,1.19v2.85a1.21,1.21,0,0,1-1.19,1.19h-2.86a1.2,1.2,0,0,1-1.19-1.19v-2.85a1.19,1.19,0,0,1,1.19-1.19Z" fill="url(#r)"/><path d="M175.32,142.57a33.087,33.087,0,1,1-66.175,0h0a33.085,33.085,0,0,1,66.17,0Z" fill="#ffebfc"/><path d="M142.24,177.68a35.14,35.14,0,0,1-35.09-35.11,34.75,34.75,0,0,1,1.39-9.8,35.1,35.1,0,1,1,33.7,44.91Zm0-66.2a30.4,30.4,0,0,0-6,.59,30.79,30.79,0,0,0-5.81,1.75,31.112,31.112,0,1,0,11.86-2.34Z" fill="url(#s)"/><path d="M140,161.66v-4.42a18.59,18.59,0,0,1-7.9-2l1.39-5.44a16.45,16.45,0,0,0,7.72,2c2.65,0,4.46-1,4.46-2.88s-1.49-2.88-4.93-4c-5-1.67-8.36-4-8.36-8.51,0-4.09,2.88-7.29,7.85-8.27v-4.42h4.56v4.1a16.53,16.53,0,0,1,6.74,1.53l-1.35,5.25a15.45,15.45,0,0,0-6.69-1.58c-3,0-4,1.3-4,2.6,0,1.54,1.63,2.51,5.58,4,5.53,2,7.76,4.51,7.76,8.69s-2.93,7.67-8.28,8.6v4.74Z" fill="url(#t)"/></g></svg>