<svg xmlns="http://www.w3.org/2000/svg" xmlns:xlink="http://www.w3.org/1999/xlink" width="80.784" height="105.624" viewBox="0 0 80.784 105.624"><defs><linearGradient id="a" x1="1.369" y1="0.272" x2="-0.248" y2="0.95" gradientUnits="objectBoundingBox"><stop offset="0" stop-color="#69c373"/><stop offset="1" stop-color="#205026"/></linearGradient></defs><g transform="translate(-700.608 -2843.1)"><g transform="translate(687.441 2841.258)"><path d="M30.521,31.136a1.1,1.1,0,0,1,1.1-1.1H65.107a1.1,1.1,0,0,1,0,2.193H31.618A1.1,1.1,0,0,1,30.521,31.136Zm42.744,14.8a1.1,1.1,0,0,1-1.1,1.1H31.33a4.021,4.021,0,1,1,0-2.193H72.168A1.1,1.1,0,0,1,73.265,45.936Zm-43.957,0a1.828,1.828,0,1,0-1.828,1.828A1.83,1.83,0,0,0,29.308,45.936Zm43.957,13.7a1.1,1.1,0,0,1-1.1,1.1H31.33a4.021,4.021,0,1,1,0-2.193H72.168A1.1,1.1,0,0,1,73.265,59.64Zm-43.957,0a1.828,1.828,0,1,0-1.828,1.828A1.829,1.829,0,0,0,29.308,59.64ZM73.265,87.048a1.1,1.1,0,0,1-1.1,1.1H31.33a4.021,4.021,0,1,1,0-2.193H72.168A1.1,1.1,0,0,1,73.265,87.048Zm-43.957,0a1.828,1.828,0,1,0-1.828,1.828A1.83,1.83,0,0,0,29.308,87.048Zm43.957-13.7a1.1,1.1,0,0,1-1.1,1.1H31.33a4.021,4.021,0,1,1,0-2.193H72.168A1.1,1.1,0,0,1,73.265,73.345Zm-43.957,0a1.828,1.828,0,1,0-1.828,1.827A1.83,1.83,0,0,0,29.308,73.345ZM93.951,16.276A14.453,14.453,0,0,1,83.557,30.125v74.051a3.294,3.294,0,0,1-3.29,3.29H16.457a3.294,3.294,0,0,1-3.29-3.29V16.933a3.294,3.294,0,0,1,3.29-3.29H65.333a14.43,14.43,0,0,1,28.618,2.633ZM81.363,30.58a14.34,14.34,0,0,1-16.282-14.3c0-.149.018-.293.022-.44H16.457a1.1,1.1,0,0,0-1.1,1.1v87.243a1.1,1.1,0,0,0,1.1,1.1H80.267a1.1,1.1,0,0,0,1.1-1.1Zm10.394-14.3A12.242,12.242,0,1,0,79.516,28.518,12.255,12.255,0,0,0,91.758,16.276ZM86.423,9.369a1.1,1.1,0,0,0-1.551,0l-5.356,5.356L74.159,9.369a1.1,1.1,0,0,0-1.551,1.551l5.356,5.357-5.356,5.357a1.1,1.1,0,1,0,1.551,1.551l5.356-5.356,5.356,5.356a1.1,1.1,0,0,0,1.551-1.551l-5.356-5.357,5.356-5.357A1.1,1.1,0,0,0,86.423,9.369Z" transform="translate(0 0)" fill="url(#a)"/></g></g></svg>