<svg xmlns="http://www.w3.org/2000/svg" xmlns:xlink="http://www.w3.org/1999/xlink" width="128.218" height="139.82" viewBox="0 0 128.218 139.82"><defs><linearGradient id="a" x1="-0.506" y1="1.221" x2="1.736" y2="-0.386" gradientUnits="objectBoundingBox"><stop offset="0" stop-color="#9b8fc4"/><stop offset="1" stop-color="#251d41"/></linearGradient><linearGradient id="b" x1="-0.617" y1="1.381" x2="1.646" y2="-0.22" xlink:href="#a"/><linearGradient id="c" x1="-4.011" y1="5.161" x2="4.55" y2="-2.802" xlink:href="#a"/><linearGradient id="d" x1="-4.01" y1="5.162" x2="4.549" y2="-2.803" xlink:href="#a"/><linearGradient id="e" x1="-2.946" y1="4.707" x2="3.829" y2="-3.564" xlink:href="#a"/><linearGradient id="f" x1="-1.528" y1="24.179" x2="2.812" y2="-26.496" xlink:href="#a"/><linearGradient id="g" x1="-2.918" y1="33.142" x2="2.388" y2="-17.533" xlink:href="#a"/><linearGradient id="h" x1="-1.398" y1="22.087" x2="3.057" y2="-28.588" xlink:href="#a"/><linearGradient id="i" x1="-6.326" y1="31.996" x2="4.657" y2="-18.679" xlink:href="#a"/><linearGradient id="j" x1="-5.89" y1="29.984" x2="5.093" y2="-20.691" xlink:href="#a"/><linearGradient id="k" x1="-2.662" y1="3.317" x2="2.745" y2="-1.711" xlink:href="#a"/></defs><g transform="translate(-43.76 -29.2)"><path d="M136.39,151.76v14.82H45.48V44.44H74.99l-2.43,2.44L64.54,54.9v96.86Z" fill="#9b8fc4" opacity="0.15"/><path d="M152.48,134.764c-19.872-5.636-17.362-32-17.362-32L152.693,99l17.161,3.766S172.778,129.128,152.48,134.764Z" fill="#9b8fc4" opacity="0.2"/><path d="M134.66,151.76v13.26H47.76V46.88H74.9l3.9-4H43.76V169.02h94.9V151.76Z" fill="url(#a)"/><path d="M152.69,99l1.88.41V29.2h-70L70.9,42.88,60.54,53.24V155.76h94.03V134.08c-.66.25-1.36.48-2.09.68-.66-.19-1.3-.4-1.91-.63v17.63H64.54V54.9l8.02-8.02,2.43-2.44,1.56-1.56,9.68-9.68h64.34V99.45Z" fill="url(#b)"/><path d="M81.832,39.779V50.832H71.038L81.832,39.779M86,29.546,61.143,55H86V29.546Z" fill="url(#c)"/><path d="M72.98,42.88l-3.91,4L61.14,55H86V29.55Zm8.85,7.95H71.04l3.86-3.95,3.9-4,3.03-3.1Z" fill="url(#d)"/><path d="M104.914,90.584H73.5V66.078h31.409Zm-27.409-4h23.409V70.078H77.5Z" fill="url(#e)"/><rect width="49.04" height="4" transform="translate(75.505 105.308)" fill="url(#f)"/><rect width="40.099" height="4" transform="translate(96.563 47.354)" fill="url(#g)"/><rect width="47.77" height="4" transform="translate(75.505 122.227)" fill="url(#h)"/><rect width="19.375" height="4" transform="translate(117.287 67.872)" fill="url(#i)"/><rect width="19.375" height="4" transform="translate(117.287 84.79)" fill="url(#j)"/><path d="M152.267,137.235l-.54-.153c-21.462-6.087-19.039-34.207-19.012-34.49l.139-1.459,19.64-4.209,19.188,4.211.158,1.426c.031.284,2.893,28.436-19.032,34.524Zm-15.655-32.817c-.195,5.391.294,23.877,15.667,28.656,15.736-4.782,15.963-23.315,15.69-28.658l-15.485-3.4Z" fill="url(#k)"/></g></svg>