<svg xmlns="http://www.w3.org/2000/svg" xmlns:xlink="http://www.w3.org/1999/xlink" width="129.86" height="122.34" viewBox="0 0 129.86 122.34"><defs><linearGradient id="a" y1="0.5" x2="1" y2="0.5" gradientUnits="objectBoundingBox"><stop offset="0" stop-color="#c59d48"/><stop offset="1" stop-color="#9d7d3a"/></linearGradient><clipPath id="c"><path d="M114.129,72.745l-2.547,7.576H63.194V72.745Z" fill="none"/></clipPath><clipPath id="d"><path d="M81.056,87v7.576H63.193V87Z" fill="none"/></clipPath><clipPath id="e"><path d="M106.025,87v7.576H88.162V87Z" fill="none"/></clipPath><clipPath id="f"><path d="M109.03,101.251v7.576H63.194v-7.576Z" fill="none"/></clipPath><clipPath id="g"><path d="M73.786,115.5v7.576H63.193V115.5Z" fill="none"/></clipPath><clipPath id="h"><path d="M119.788,118.65v4.429H81.056V115.5h34.859Z" fill="none"/></clipPath><clipPath id="i"><rect width="61.449" height="5.313" transform="translate(63.056 48.485)" fill="none"/></clipPath><clipPath id="j"><rect width="42.501" height="5.313" transform="translate(63.056 60.756)" fill="none"/></clipPath></defs><g transform="translate(-39.64 -33.24)"><path d="M122.47,141.85v9.73H43.64V48.59H54.18v-4H41.64a2,2,0,0,0-2,2V153.58a2,2,0,0,0,2,2h82.83a2,2,0,0,0,2-2V141.85Z" fill="url(#a)"/><path d="M54.18,141.85V48.59h-4v95.26a2.006,2.006,0,0,0,2,2h70.29v-4Zm0,0V48.59h-4v95.26a2.006,2.006,0,0,0,2,2h70.29v-4ZM137.26,33.24H52.18a2.006,2.006,0,0,0-2,2V143.85a2.006,2.006,0,0,0,2,2h85.08a2,2,0,0,0,2-2V122.8c-.66.06-1.33.08-2,.08s-1.34-.02-2-.08v19.05H54.18V37.24h81.08V66.49c.66-.06,1.33-.08,2-.08s1.34.02,2,.08V35.24A2,2,0,0,0,137.26,33.24Zm-2,66.8a24.979,24.979,0,0,1,3.14.49v7.27a2.006,2.006,0,0,0,.86,1.64V96.62a28.653,28.653,0,0,0-4-.58Zm2.83-23.36v8.39a24.511,24.511,0,0,0-2.83.37v4.09a20.488,20.488,0,0,1,4-.52V74.87A1.978,1.978,0,0,0,138.09,76.68ZM54.18,141.85V48.59h-4v95.26a2.006,2.006,0,0,0,2,2h70.29v-4Z" fill="url(#a)"/><g opacity="0.35"><g clip-path="url(#c)"><path d="M63.194,72.745v0Z" fill="#c59d48"/><rect width="1.273" height="7.576" transform="translate(63.194 72.745)" fill="#c59d48"/><rect width="1.273" height="7.576" transform="translate(64.467 72.745)" fill="#c49c48"/><rect width="1.273" height="7.576" transform="translate(65.74 72.745)" fill="#c39b47"/><rect width="1.273" height="7.576" transform="translate(67.014 72.745)" fill="#c29b47"/><rect width="1.273" height="7.576" transform="translate(68.287 72.745)" fill="#c19a47"/><rect width="1.273" height="7.576" transform="translate(69.561 72.745)" fill="#c09946"/><rect width="1.273" height="7.576" transform="translate(70.834 72.745)" fill="#bf9846"/><rect width="1.273" height="7.576" transform="translate(72.107 72.745)" fill="#be9745"/><rect width="1.273" height="7.576" transform="translate(73.381 72.745)" fill="#bd9645"/><rect width="1.273" height="7.576" transform="translate(74.654 72.745)" fill="#bc9645"/><rect width="1.273" height="7.576" transform="translate(75.928 72.745)" fill="#bb9544"/><rect width="1.273" height="7.576" transform="translate(77.201 72.745)" fill="#ba9444"/><rect width="1.273" height="7.576" transform="translate(78.474 72.745)" fill="#b99344"/><rect width="1.273" height="7.576" transform="translate(79.748 72.745)" fill="#b89243"/><rect width="1.273" height="7.576" transform="translate(81.021 72.745)" fill="#b79243"/><rect width="1.273" height="7.576" transform="translate(82.295 72.745)" fill="#b69143"/><rect width="1.273" height="7.576" transform="translate(83.568 72.745)" fill="#b59042"/><rect width="1.273" height="7.576" transform="translate(84.841 72.745)" fill="#b48f42"/><rect width="1.273" height="7.576" transform="translate(86.115 72.745)" fill="#b38e42"/><rect width="1.273" height="7.576" transform="translate(87.388 72.745)" fill="#b28d41"/><rect width="1.273" height="7.576" transform="translate(88.662 72.745)" fill="#b08d41"/><rect width="1.273" height="7.576" transform="translate(89.935 72.745)" fill="#af8c40"/><rect width="1.273" height="7.576" transform="translate(91.208 72.745)" fill="#ae8b40"/><rect width="1.273" height="7.576" transform="translate(92.482 72.745)" fill="#ad8a40"/><rect width="1.273" height="7.576" transform="translate(93.755 72.745)" fill="#ac893f"/><rect width="1.273" height="7.576" transform="translate(95.028 72.745)" fill="#ab883f"/><rect width="1.273" height="7.576" transform="translate(96.302 72.745)" fill="#aa883f"/><rect width="1.273" height="7.576" transform="translate(97.575 72.745)" fill="#a9873e"/><rect width="1.273" height="7.576" transform="translate(98.849 72.745)" fill="#a8863e"/><rect width="1.273" height="7.576" transform="translate(100.122 72.745)" fill="#a7853e"/><rect width="1.273" height="7.576" transform="translate(101.395 72.745)" fill="#a6843d"/><rect width="1.273" height="7.576" transform="translate(102.669 72.745)" fill="#a5843d"/><rect width="1.273" height="7.576" transform="translate(103.942 72.745)" fill="#a4833d"/><rect width="1.273" height="7.576" transform="translate(105.216 72.745)" fill="#a3823c"/><rect width="1.273" height="7.576" transform="translate(106.489 72.745)" fill="#a2813c"/><rect width="1.273" height="7.576" transform="translate(107.762 72.745)" fill="#a1803b"/><rect width="1.273" height="7.576" transform="translate(109.036 72.745)" fill="#a07f3b"/><rect width="1.273" height="7.576" transform="translate(110.309 72.745)" fill="#9f7f3b"/><rect width="1.273" height="7.576" transform="translate(111.583 72.745)" fill="#9e7e3a"/><rect width="1.273" height="7.576" transform="translate(112.856 72.745)" fill="#9d7d3a"/><path d="M114.129,80.321v0Z" fill="#9d7d3a"/></g></g><g opacity="0.35"><g clip-path="url(#d)"><path d="M63.193,87v0Z" fill="#c59d48"/><rect width="0.447" height="7.576" transform="translate(63.193 86.997)" fill="#c59d48"/><rect width="0.447" height="7.576" transform="translate(63.639 86.997)" fill="#c49c48"/><rect width="0.447" height="7.576" transform="translate(64.086 86.997)" fill="#c39b47"/><rect width="0.447" height="7.576" transform="translate(64.532 86.997)" fill="#c29b47"/><rect width="0.447" height="7.576" transform="translate(64.979 86.997)" fill="#c19a47"/><rect width="0.447" height="7.576" transform="translate(65.426 86.997)" fill="#c09946"/><rect width="0.447" height="7.576" transform="translate(65.872 86.997)" fill="#bf9846"/><rect width="0.447" height="7.576" transform="translate(66.319 86.997)" fill="#be9745"/><rect width="0.447" height="7.576" transform="translate(66.765 86.997)" fill="#bd9645"/><rect width="0.447" height="7.576" transform="translate(67.212 86.997)" fill="#bc9645"/><rect width="0.447" height="7.576" transform="translate(67.658 86.997)" fill="#bb9544"/><rect width="0.447" height="7.576" transform="translate(68.105 86.997)" fill="#ba9444"/><rect width="0.447" height="7.576" transform="translate(68.552 86.997)" fill="#b99344"/><rect width="0.447" height="7.576" transform="translate(68.998 86.997)" fill="#b89243"/><rect width="0.447" height="7.576" transform="translate(69.445 86.997)" fill="#b79243"/><rect width="0.447" height="7.576" transform="translate(69.891 86.997)" fill="#b69143"/><rect width="0.447" height="7.576" transform="translate(70.338 86.997)" fill="#b59042"/><rect width="0.447" height="7.576" transform="translate(70.784 86.997)" fill="#b48f42"/><rect width="0.447" height="7.576" transform="translate(71.231 86.997)" fill="#b38e42"/><rect width="0.447" height="7.576" transform="translate(71.678 86.997)" fill="#b28d41"/><rect width="0.447" height="7.576" transform="translate(72.124 86.997)" fill="#b08d41"/><rect width="0.447" height="7.576" transform="translate(72.571 86.997)" fill="#af8c40"/><rect width="0.447" height="7.576" transform="translate(73.017 86.997)" fill="#ae8b40"/><rect width="0.447" height="7.576" transform="translate(73.464 86.997)" fill="#ad8a40"/><rect width="0.447" height="7.576" transform="translate(73.911 86.997)" fill="#ac893f"/><rect width="0.447" height="7.576" transform="translate(74.357 86.997)" fill="#ab883f"/><rect width="0.447" height="7.576" transform="translate(74.804 86.997)" fill="#aa883f"/><rect width="0.447" height="7.576" transform="translate(75.25 86.997)" fill="#a9873e"/><rect width="0.447" height="7.576" transform="translate(75.697 86.997)" fill="#a8863e"/><rect width="0.447" height="7.576" transform="translate(76.143 86.997)" fill="#a7853e"/><rect width="0.447" height="7.576" transform="translate(76.59 86.997)" fill="#a6843d"/><rect width="0.447" height="7.576" transform="translate(77.037 86.997)" fill="#a5843d"/><rect width="0.447" height="7.576" transform="translate(77.483 86.997)" fill="#a4833d"/><rect width="0.447" height="7.576" transform="translate(77.93 86.997)" fill="#a3823c"/><rect width="0.447" height="7.576" transform="translate(78.376 86.997)" fill="#a2813c"/><rect width="0.447" height="7.576" transform="translate(78.823 86.997)" fill="#a1803b"/><rect width="0.447" height="7.576" transform="translate(79.269 86.997)" fill="#a07f3b"/><rect width="0.447" height="7.576" transform="translate(79.716 86.997)" fill="#9f7f3b"/><rect width="0.447" height="7.576" transform="translate(80.163 86.997)" fill="#9e7e3a"/><rect width="0.447" height="7.576" transform="translate(80.609 86.997)" fill="#9d7d3a"/><path d="M81.056,94.573v0Z" fill="#9d7d3a"/></g></g><g opacity="0.35"><g clip-path="url(#e)"><path d="M88.162,87v0Z" fill="#c59d48"/><rect width="0.447" height="7.576" transform="translate(88.162 86.997)" fill="#c59d48"/><rect width="0.447" height="7.576" transform="translate(88.608 86.997)" fill="#c49c48"/><rect width="0.447" height="7.576" transform="translate(89.055 86.997)" fill="#c39b47"/><rect width="0.447" height="7.576" transform="translate(89.502 86.997)" fill="#c29b47"/><rect width="0.447" height="7.576" transform="translate(89.948 86.997)" fill="#c19a47"/><rect width="0.447" height="7.576" transform="translate(90.395 86.997)" fill="#c09946"/><rect width="0.447" height="7.576" transform="translate(90.841 86.997)" fill="#bf9846"/><rect width="0.447" height="7.576" transform="translate(91.288 86.997)" fill="#be9745"/><rect width="0.447" height="7.576" transform="translate(91.735 86.997)" fill="#bd9645"/><rect width="0.447" height="7.576" transform="translate(92.181 86.997)" fill="#bc9645"/><rect width="0.447" height="7.576" transform="translate(92.628 86.997)" fill="#bb9544"/><rect width="0.447" height="7.576" transform="translate(93.074 86.997)" fill="#ba9444"/><rect width="0.447" height="7.576" transform="translate(93.521 86.997)" fill="#b99344"/><rect width="0.447" height="7.576" transform="translate(93.967 86.997)" fill="#b89243"/><rect width="0.447" height="7.576" transform="translate(94.414 86.997)" fill="#b79243"/><rect width="0.447" height="7.576" transform="translate(94.861 86.997)" fill="#b69143"/><rect width="0.447" height="7.576" transform="translate(95.307 86.997)" fill="#b59042"/><rect width="0.447" height="7.576" transform="translate(95.754 86.997)" fill="#b48f42"/><rect width="0.447" height="7.576" transform="translate(96.2 86.997)" fill="#b38e42"/><rect width="0.447" height="7.576" transform="translate(96.647 86.997)" fill="#b28d41"/><rect width="0.447" height="7.576" transform="translate(97.093 86.997)" fill="#b08d41"/><rect width="0.447" height="7.576" transform="translate(97.54 86.997)" fill="#af8c40"/><rect width="0.447" height="7.576" transform="translate(97.987 86.997)" fill="#ae8b40"/><rect width="0.447" height="7.576" transform="translate(98.433 86.997)" fill="#ad8a40"/><rect width="0.447" height="7.576" transform="translate(98.88 86.997)" fill="#ac893f"/><rect width="0.447" height="7.576" transform="translate(99.326 86.997)" fill="#ab883f"/><rect width="0.447" height="7.576" transform="translate(99.773 86.997)" fill="#aa883f"/><rect width="0.447" height="7.576" transform="translate(100.219 86.997)" fill="#a9873e"/><rect width="0.447" height="7.576" transform="translate(100.666 86.997)" fill="#a8863e"/><rect width="0.447" height="7.576" transform="translate(101.113 86.997)" fill="#a7853e"/><rect width="0.447" height="7.576" transform="translate(101.559 86.997)" fill="#a6843d"/><rect width="0.447" height="7.576" transform="translate(102.006 86.997)" fill="#a5843d"/><rect width="0.447" height="7.576" transform="translate(102.452 86.997)" fill="#a4833d"/><rect width="0.447" height="7.576" transform="translate(102.899 86.997)" fill="#a3823c"/><rect width="0.447" height="7.576" transform="translate(103.345 86.997)" fill="#a2813c"/><rect width="0.447" height="7.576" transform="translate(103.792 86.997)" fill="#a1803b"/><rect width="0.447" height="7.576" transform="translate(104.239 86.997)" fill="#a07f3b"/><rect width="0.447" height="7.576" transform="translate(104.685 86.997)" fill="#9f7f3b"/><rect width="0.447" height="7.576" transform="translate(105.132 86.997)" fill="#9e7e3a"/><rect width="0.447" height="7.576" transform="translate(105.578 86.997)" fill="#9d7d3a"/><path d="M106.025,94.573v0Z" fill="#9d7d3a"/></g></g><g opacity="0.35"><g clip-path="url(#f)"><path d="M63.194,101.251v0Z" fill="#c59d48"/><rect width="1.146" height="7.576" transform="translate(63.194 101.251)" fill="#c59d48"/><rect width="1.146" height="7.576" transform="translate(64.34 101.251)" fill="#c49c48"/><rect width="1.146" height="7.576" transform="translate(65.486 101.251)" fill="#c39b47"/><rect width="1.146" height="7.576" transform="translate(66.631 101.251)" fill="#c29b47"/><rect width="1.146" height="7.576" transform="translate(67.777 101.251)" fill="#c19a47"/><rect width="1.146" height="7.576" transform="translate(68.923 101.251)" fill="#c09946"/><rect width="1.146" height="7.576" transform="translate(70.069 101.251)" fill="#bf9846"/><rect width="1.146" height="7.576" transform="translate(71.215 101.251)" fill="#be9745"/><rect width="1.146" height="7.576" transform="translate(72.361 101.251)" fill="#bd9645"/><rect width="1.146" height="7.576" transform="translate(73.507 101.251)" fill="#bc9645"/><rect width="1.146" height="7.576" transform="translate(74.653 101.251)" fill="#bb9544"/><rect width="1.146" height="7.576" transform="translate(75.799 101.251)" fill="#ba9444"/><rect width="1.146" height="7.576" transform="translate(76.945 101.251)" fill="#b99344"/><rect width="1.146" height="7.576" transform="translate(78.09 101.251)" fill="#b89243"/><rect width="1.146" height="7.576" transform="translate(79.236 101.251)" fill="#b79243"/><rect width="1.146" height="7.576" transform="translate(80.382 101.251)" fill="#b69143"/><rect width="1.146" height="7.576" transform="translate(81.528 101.251)" fill="#b59042"/><rect width="1.146" height="7.576" transform="translate(82.674 101.251)" fill="#b48f42"/><rect width="1.146" height="7.576" transform="translate(83.82 101.251)" fill="#b38e42"/><rect width="1.146" height="7.576" transform="translate(84.966 101.251)" fill="#b28d41"/><rect width="1.146" height="7.576" transform="translate(86.112 101.251)" fill="#b08d41"/><rect width="1.146" height="7.576" transform="translate(87.258 101.251)" fill="#af8c40"/><rect width="1.146" height="7.576" transform="translate(88.404 101.251)" fill="#ae8b40"/><rect width="1.146" height="7.576" transform="translate(89.55 101.251)" fill="#ad8a40"/><rect width="1.146" height="7.576" transform="translate(90.695 101.251)" fill="#ac893f"/><rect width="1.146" height="7.576" transform="translate(91.841 101.251)" fill="#ab883f"/><rect width="1.146" height="7.576" transform="translate(92.987 101.251)" fill="#aa883f"/><rect width="1.146" height="7.576" transform="translate(94.133 101.251)" fill="#a9873e"/><rect width="1.146" height="7.576" transform="translate(95.279 101.251)" fill="#a8863e"/><rect width="1.146" height="7.576" transform="translate(96.425 101.251)" fill="#a7853e"/><rect width="1.146" height="7.576" transform="translate(97.571 101.251)" fill="#a6843d"/><rect width="1.146" height="7.576" transform="translate(98.717 101.251)" fill="#a5843d"/><rect width="1.146" height="7.576" transform="translate(99.863 101.251)" fill="#a4833d"/><rect width="1.146" height="7.576" transform="translate(101.009 101.251)" fill="#a3823c"/><rect width="1.146" height="7.576" transform="translate(102.155 101.251)" fill="#a2813c"/><rect width="1.146" height="7.576" transform="translate(103.3 101.251)" fill="#a1803b"/><rect width="1.146" height="7.576" transform="translate(104.446 101.251)" fill="#a07f3b"/><rect width="1.146" height="7.576" transform="translate(105.592 101.251)" fill="#9f7f3b"/><rect width="1.146" height="7.576" transform="translate(106.738 101.251)" fill="#9e7e3a"/><rect width="1.146" height="7.576" transform="translate(107.884 101.251)" fill="#9d7d3a"/><path d="M109.03,108.827v0Z" fill="#9d7d3a"/></g></g><g opacity="0.35"><g clip-path="url(#g)"><path d="M63.193,115.5v0Z" fill="#c59d48"/><rect width="0.265" height="7.576" transform="translate(63.193 115.503)" fill="#c59d48"/><rect width="0.265" height="7.576" transform="translate(63.457 115.503)" fill="#c49c48"/><rect width="0.265" height="7.576" transform="translate(63.722 115.503)" fill="#c39b47"/><rect width="0.265" height="7.576" transform="translate(63.987 115.503)" fill="#c29b47"/><rect width="0.265" height="7.576" transform="translate(64.252 115.503)" fill="#c19a47"/><rect width="0.265" height="7.576" transform="translate(64.517 115.503)" fill="#c09946"/><rect width="0.265" height="7.576" transform="translate(64.782 115.503)" fill="#bf9846"/><rect width="0.265" height="7.576" transform="translate(65.046 115.503)" fill="#be9745"/><rect width="0.265" height="7.576" transform="translate(65.311 115.503)" fill="#bd9645"/><rect width="0.265" height="7.576" transform="translate(65.576 115.503)" fill="#bc9645"/><rect width="0.265" height="7.576" transform="translate(65.841 115.503)" fill="#bb9544"/><rect width="0.265" height="7.576" transform="translate(66.106 115.503)" fill="#ba9444"/><rect width="0.265" height="7.576" transform="translate(66.371 115.503)" fill="#b99344"/><rect width="0.265" height="7.576" transform="translate(66.635 115.503)" fill="#b89243"/><rect width="0.265" height="7.576" transform="translate(66.9 115.503)" fill="#b79243"/><rect width="0.265" height="7.576" transform="translate(67.165 115.503)" fill="#b69143"/><rect width="0.265" height="7.576" transform="translate(67.43 115.503)" fill="#b59042"/><rect width="0.265" height="7.576" transform="translate(67.695 115.503)" fill="#b48f42"/><rect width="0.265" height="7.576" transform="translate(67.96 115.503)" fill="#b38e42"/><rect width="0.265" height="7.576" transform="translate(68.225 115.503)" fill="#b28d41"/><rect width="0.265" height="7.576" transform="translate(68.489 115.503)" fill="#b08d41"/><rect width="0.265" height="7.576" transform="translate(68.754 115.503)" fill="#af8c40"/><rect width="0.265" height="7.576" transform="translate(69.019 115.503)" fill="#ae8b40"/><rect width="0.265" height="7.576" transform="translate(69.284 115.503)" fill="#ad8a40"/><rect width="0.265" height="7.576" transform="translate(69.549 115.503)" fill="#ac893f"/><rect width="0.265" height="7.576" transform="translate(69.814 115.503)" fill="#ab883f"/><rect width="0.265" height="7.576" transform="translate(70.078 115.503)" fill="#aa883f"/><rect width="0.265" height="7.576" transform="translate(70.343 115.503)" fill="#a9873e"/><rect width="0.265" height="7.576" transform="translate(70.608 115.503)" fill="#a8863e"/><rect width="0.265" height="7.576" transform="translate(70.873 115.503)" fill="#a7853e"/><rect width="0.265" height="7.576" transform="translate(71.138 115.503)" fill="#a6843d"/><rect width="0.265" height="7.576" transform="translate(71.403 115.503)" fill="#a5843d"/><rect width="0.265" height="7.576" transform="translate(71.668 115.503)" fill="#a4833d"/><rect width="0.265" height="7.576" transform="translate(71.932 115.503)" fill="#a3823c"/><rect width="0.265" height="7.576" transform="translate(72.197 115.503)" fill="#a2813c"/><rect width="0.265" height="7.576" transform="translate(72.462 115.503)" fill="#a1803b"/><rect width="0.265" height="7.576" transform="translate(72.727 115.503)" fill="#a07f3b"/><rect width="0.265" height="7.576" transform="translate(72.992 115.503)" fill="#9f7f3b"/><rect width="0.265" height="7.576" transform="translate(73.257 115.503)" fill="#9e7e3a"/><rect width="0.265" height="7.576" transform="translate(73.521 115.503)" fill="#9d7d3a"/><path d="M73.786,123.079v0Z" fill="#9d7d3a"/></g></g><g opacity="0.35"><g clip-path="url(#h)"><path d="M81.056,115.5v0Z" fill="#c59d48"/><rect width="0.968" height="7.576" transform="translate(81.056 115.503)" fill="#c59d48"/><rect width="0.968" height="7.576" transform="translate(82.025 115.503)" fill="#c49c48"/><rect width="0.968" height="7.576" transform="translate(82.993 115.503)" fill="#c39b47"/><rect width="0.968" height="7.576" transform="translate(83.961 115.503)" fill="#c29b47"/><rect width="0.968" height="7.576" transform="translate(84.929 115.503)" fill="#c19a47"/><rect width="0.968" height="7.576" transform="translate(85.898 115.503)" fill="#c09946"/><rect width="0.968" height="7.576" transform="translate(86.866 115.503)" fill="#bf9846"/><rect width="0.968" height="7.576" transform="translate(87.834 115.503)" fill="#be9745"/><rect width="0.968" height="7.576" transform="translate(88.803 115.503)" fill="#bd9645"/><rect width="0.968" height="7.576" transform="translate(89.771 115.503)" fill="#bc9645"/><rect width="0.968" height="7.576" transform="translate(90.739 115.503)" fill="#bb9544"/><rect width="0.968" height="7.576" transform="translate(91.708 115.503)" fill="#ba9444"/><rect width="0.968" height="7.576" transform="translate(92.676 115.503)" fill="#b99344"/><rect width="0.968" height="7.576" transform="translate(93.644 115.503)" fill="#b89243"/><rect width="0.968" height="7.576" transform="translate(94.612 115.503)" fill="#b79243"/><rect width="0.968" height="7.576" transform="translate(95.581 115.503)" fill="#b69143"/><rect width="0.968" height="7.576" transform="translate(96.549 115.503)" fill="#b59042"/><rect width="0.968" height="7.576" transform="translate(97.517 115.503)" fill="#b48f42"/><rect width="0.968" height="7.576" transform="translate(98.486 115.503)" fill="#b38e42"/><rect width="0.968" height="7.576" transform="translate(99.454 115.503)" fill="#b28d41"/><rect width="0.968" height="7.576" transform="translate(100.422 115.503)" fill="#b08d41"/><rect width="0.968" height="7.576" transform="translate(101.391 115.503)" fill="#af8c40"/><rect width="0.968" height="7.576" transform="translate(102.359 115.503)" fill="#ae8b40"/><rect width="0.968" height="7.576" transform="translate(103.327 115.503)" fill="#ad8a40"/><rect width="0.968" height="7.576" transform="translate(104.296 115.503)" fill="#ac893f"/><rect width="0.968" height="7.576" transform="translate(105.264 115.503)" fill="#ab883f"/><rect width="0.968" height="7.576" transform="translate(106.232 115.503)" fill="#aa883f"/><rect width="0.968" height="7.576" transform="translate(107.2 115.503)" fill="#a9873e"/><rect width="0.968" height="7.576" transform="translate(108.169 115.503)" fill="#a8863e"/><rect width="0.968" height="7.576" transform="translate(109.137 115.503)" fill="#a7853e"/><rect width="0.968" height="7.576" transform="translate(110.105 115.503)" fill="#a6843d"/><rect width="0.968" height="7.576" transform="translate(111.074 115.503)" fill="#a5843d"/><rect width="0.968" height="7.576" transform="translate(112.042 115.503)" fill="#a4833d"/><rect width="0.968" height="7.576" transform="translate(113.01 115.503)" fill="#a3823c"/><rect width="0.968" height="7.576" transform="translate(113.979 115.503)" fill="#a2813c"/><rect width="0.968" height="7.576" transform="translate(114.947 115.503)" fill="#a1803b"/><rect width="0.968" height="7.576" transform="translate(115.915 115.503)" fill="#a07f3b"/><rect width="0.968" height="7.576" transform="translate(116.883 115.503)" fill="#9f7f3b"/><rect width="0.968" height="7.576" transform="translate(117.852 115.503)" fill="#9e7e3a"/><rect width="0.968" height="7.576" transform="translate(118.82 115.503)" fill="#9d7d3a"/><path d="M119.788,123.079v0Z" fill="#9d7d3a"/></g></g><g opacity="0.35"><g clip-path="url(#i)"><path d="M63.056,48.485v0Z" fill="#c59d48"/><rect width="1.536" height="5.313" transform="translate(63.056 48.485)" fill="#c59d48"/><rect width="1.536" height="5.313" transform="translate(64.592 48.485)" fill="#c49c48"/><rect width="1.536" height="5.313" transform="translate(66.128 48.485)" fill="#c39b47"/><rect width="1.536" height="5.313" transform="translate(67.664 48.485)" fill="#c29b47"/><rect width="1.536" height="5.313" transform="translate(69.2 48.485)" fill="#c19a47"/><rect width="1.536" height="5.313" transform="translate(70.737 48.485)" fill="#c09946"/><rect width="1.536" height="5.313" transform="translate(72.273 48.485)" fill="#bf9846"/><rect width="1.536" height="5.313" transform="translate(73.809 48.485)" fill="#be9745"/><rect width="1.536" height="5.313" transform="translate(75.345 48.485)" fill="#bd9645"/><rect width="1.536" height="5.313" transform="translate(76.882 48.485)" fill="#bc9645"/><rect width="1.536" height="5.313" transform="translate(78.418 48.485)" fill="#bb9544"/><rect width="1.536" height="5.313" transform="translate(79.954 48.485)" fill="#ba9444"/><rect width="1.536" height="5.313" transform="translate(81.49 48.485)" fill="#b99344"/><rect width="1.536" height="5.313" transform="translate(83.026 48.485)" fill="#b89243"/><rect width="1.536" height="5.313" transform="translate(84.563 48.485)" fill="#b79243"/><rect width="1.536" height="5.313" transform="translate(86.099 48.485)" fill="#b69143"/><rect width="1.536" height="5.313" transform="translate(87.635 48.485)" fill="#b59042"/><rect width="1.536" height="5.313" transform="translate(89.171 48.485)" fill="#b48f42"/><rect width="1.536" height="5.313" transform="translate(90.708 48.485)" fill="#b38e42"/><rect width="1.536" height="5.313" transform="translate(92.244 48.485)" fill="#b28d41"/><rect width="1.536" height="5.313" transform="translate(93.78 48.485)" fill="#b08d41"/><rect width="1.536" height="5.313" transform="translate(95.316 48.485)" fill="#af8c40"/><rect width="1.536" height="5.313" transform="translate(96.852 48.485)" fill="#ae8b40"/><rect width="1.536" height="5.313" transform="translate(98.389 48.485)" fill="#ad8a40"/><rect width="1.536" height="5.313" transform="translate(99.925 48.485)" fill="#ac893f"/><rect width="1.536" height="5.313" transform="translate(101.461 48.485)" fill="#ab883f"/><rect width="1.536" height="5.313" transform="translate(102.997 48.485)" fill="#aa883f"/><rect width="1.536" height="5.313" transform="translate(104.534 48.485)" fill="#a9873e"/><rect width="1.536" height="5.313" transform="translate(106.07 48.485)" fill="#a8863e"/><rect width="1.536" height="5.313" transform="translate(107.606 48.485)" fill="#a7853e"/><rect width="1.536" height="5.313" transform="translate(109.142 48.485)" fill="#a6843d"/><rect width="1.536" height="5.313" transform="translate(110.679 48.485)" fill="#a5843d"/><rect width="1.536" height="5.313" transform="translate(112.215 48.485)" fill="#a4833d"/><rect width="1.536" height="5.313" transform="translate(113.751 48.485)" fill="#a3823c"/><rect width="1.536" height="5.313" transform="translate(115.287 48.485)" fill="#a2813c"/><rect width="1.536" height="5.313" transform="translate(116.823 48.485)" fill="#a1803b"/><rect width="1.536" height="5.313" transform="translate(118.36 48.485)" fill="#a07f3b"/><rect width="1.536" height="5.313" transform="translate(119.896 48.485)" fill="#9f7f3b"/><rect width="1.536" height="5.313" transform="translate(121.432 48.485)" fill="#9e7e3a"/><rect width="1.536" height="5.313" transform="translate(122.968 48.485)" fill="#9d7d3a"/><path d="M124.5,53.8v0Z" fill="#9d7d3a"/></g></g><g opacity="0.35"><g clip-path="url(#j)"><path d="M63.056,60.756v0Z" fill="#c59d48"/><rect width="1.063" height="5.313" transform="translate(63.056 60.756)" fill="#c59d48"/><rect width="1.063" height="5.313" transform="translate(64.118 60.756)" fill="#c49c48"/><rect width="1.063" height="5.313" transform="translate(65.181 60.756)" fill="#c39b47"/><rect width="1.063" height="5.313" transform="translate(66.243 60.756)" fill="#c29b47"/><rect width="1.063" height="5.313" transform="translate(67.306 60.756)" fill="#c19a47"/><rect width="1.063" height="5.313" transform="translate(68.368 60.756)" fill="#c09946"/><rect width="1.063" height="5.313" transform="translate(69.431 60.756)" fill="#bf9846"/><rect width="1.063" height="5.313" transform="translate(70.493 60.756)" fill="#be9745"/><rect width="1.063" height="5.313" transform="translate(71.556 60.756)" fill="#bd9645"/><rect width="1.063" height="5.313" transform="translate(72.618 60.756)" fill="#bc9645"/><rect width="1.063" height="5.313" transform="translate(73.681 60.756)" fill="#bb9544"/><rect width="1.063" height="5.313" transform="translate(74.743 60.756)" fill="#ba9444"/><rect width="1.063" height="5.313" transform="translate(75.806 60.756)" fill="#b99344"/><rect width="1.063" height="5.313" transform="translate(76.868 60.756)" fill="#b89243"/><rect width="1.063" height="5.313" transform="translate(77.931 60.756)" fill="#b79243"/><rect width="1.063" height="5.313" transform="translate(78.993 60.756)" fill="#b69143"/><rect width="1.063" height="5.313" transform="translate(80.056 60.756)" fill="#b59042"/><rect width="1.063" height="5.313" transform="translate(81.118 60.756)" fill="#b48f42"/><rect width="1.063" height="5.313" transform="translate(82.181 60.756)" fill="#b38e42"/><rect width="1.063" height="5.313" transform="translate(83.243 60.756)" fill="#b28d41"/><rect width="1.063" height="5.313" transform="translate(84.306 60.756)" fill="#b08d41"/><rect width="1.063" height="5.313" transform="translate(85.368 60.756)" fill="#af8c40"/><rect width="1.063" height="5.313" transform="translate(86.431 60.756)" fill="#ae8b40"/><rect width="1.063" height="5.313" transform="translate(87.493 60.756)" fill="#ad8a40"/><rect width="1.063" height="5.313" transform="translate(88.556 60.756)" fill="#ac893f"/><rect width="1.063" height="5.313" transform="translate(89.618 60.756)" fill="#ab883f"/><rect width="1.063" height="5.313" transform="translate(90.681 60.756)" fill="#aa883f"/><rect width="1.063" height="5.313" transform="translate(91.744 60.756)" fill="#a9873e"/><rect width="1.063" height="5.313" transform="translate(92.806 60.756)" fill="#a8863e"/><rect width="1.063" height="5.313" transform="translate(93.869 60.756)" fill="#a7853e"/><rect width="1.063" height="5.313" transform="translate(94.931 60.756)" fill="#a6843d"/><rect width="1.063" height="5.313" transform="translate(95.994 60.756)" fill="#a5843d"/><rect width="1.063" height="5.313" transform="translate(97.056 60.756)" fill="#a4833d"/><rect width="1.063" height="5.313" transform="translate(98.119 60.756)" fill="#a3823c"/><rect width="1.063" height="5.313" transform="translate(99.181 60.756)" fill="#a2813c"/><rect width="1.063" height="5.313" transform="translate(100.244 60.756)" fill="#a1803b"/><rect width="1.063" height="5.313" transform="translate(101.306 60.756)" fill="#a07f3b"/><rect width="1.063" height="5.313" transform="translate(102.369 60.756)" fill="#9f7f3b"/><rect width="1.063" height="5.313" transform="translate(103.431 60.756)" fill="#9e7e3a"/><rect width="1.063" height="5.313" transform="translate(104.494 60.756)" fill="#9d7d3a"/><path d="M105.556,66.068v0Z" fill="#9d7d3a"/></g></g><path d="M139.26,62.47c-.66-.04-1.33-.06-2-.06s-1.34.02-2,.06a32.1,32.1,0,0,0-8.79,1.8c-.68.24-1.34.5-2,.79-.68.29-1.34.61-2,.95a32.228,32.228,0,0,0,0,57.27c.66.34,1.32.66,2,.95.66.28,1.32.55,2,.79a32.1,32.1,0,0,0,8.79,1.8c.66.04,1.33.06,2,.06s1.34-.02,2-.06a32.237,32.237,0,0,0,0-64.35Zm0,60.33c-.66.06-1.33.08-2,.08s-1.34-.02-2-.08a27.766,27.766,0,0,1-8.79-2.07c-.68-.28-1.35-.59-2-.93a21.742,21.742,0,0,1-2-1.12,28.211,28.211,0,0,1,0-48.07,21.74,21.74,0,0,1,2-1.12c.65-.34,1.32-.65,2-.93a27.766,27.766,0,0,1,8.79-2.07c.66-.06,1.33-.08,2-.08s1.34.02,2,.08a28.225,28.225,0,0,1,0,56.31Z" fill="url(#a)"/><path d="M157.02,92.55,141.58,75.34a2.016,2.016,0,0,0-2.2-.53.672.672,0,0,0-.12.06,1.978,1.978,0,0,0-1.17,1.81v8.39a24.511,24.511,0,0,0-2.83.37,21.541,21.541,0,0,0-8.79,3.78,23.307,23.307,0,0,0-2,1.64,24.314,24.314,0,0,0-2,2.08,27.586,27.586,0,0,0-5.42,10.11,2,2,0,0,0,3.36,1.88,14.3,14.3,0,0,1,2.06-1.74,13.716,13.716,0,0,1,2-1.24,15.216,15.216,0,0,1,2-.88,20.421,20.421,0,0,1,8.79-1.03,24.979,24.979,0,0,1,3.14.49v7.27a2.006,2.006,0,0,0,.86,1.64,1.35,1.35,0,0,0,.33.19,2.064,2.064,0,0,0,.81.17,2.032,2.032,0,0,0,1.35-.53l15.13-13.91A2,2,0,0,0,157.02,92.55ZM142.4,103.24V99a2.009,2.009,0,0,0-1.37-1.9c-.11-.03-.74-.24-1.77-.48a28.653,28.653,0,0,0-4-.58c-.67-.06-1.38-.09-2.12-.09a23.834,23.834,0,0,0-6.67.91,19.741,19.741,0,0,0-2,.69c-.25.1-.51.21-.77.32.24-.37.49-.74.77-1.11a19.347,19.347,0,0,1,2-2.33,17.842,17.842,0,0,1,8.79-4.9,20.488,20.488,0,0,1,4-.52c.27-.01.55-.01.83-.01a2,2,0,0,0,2-2V81.9l10.63,11.85Z" fill="url(#a)"/></g></svg>