<svg xmlns="http://www.w3.org/2000/svg" xmlns:xlink="http://www.w3.org/1999/xlink" width="110.51" height="144.89" viewBox="0 0 110.51 144.89"><defs><linearGradient id="a" x1="1.258" y1="-0.142" x2="-0.051" y2="1.033" gradientUnits="objectBoundingBox"><stop offset="0" stop-color="#34a096"/><stop offset="1" stop-color="#14645d"/></linearGradient><linearGradient id="b" x1="1.245" y1="0.026" x2="0.205" y2="1.159" xlink:href="#a"/><linearGradient id="c" x1="3.071" y1="-6.806" x2="-1.234" y2="5.686" xlink:href="#a"/><linearGradient id="d" x1="1.22" y1="-0.727" x2="-1.998" y2="5.934" xlink:href="#a"/><linearGradient id="e" x1="1.527" y1="-0.861" x2="-1.569" y2="3.752" xlink:href="#a"/><linearGradient id="f" x1="1.939" y1="-0.762" x2="-0.696" y2="1.559" xlink:href="#a"/></defs><g transform="translate(550.443 299.546)"><path d="M-548.443-159.36a2,2,0,0,1-1.379-.552,2,2,0,0,1-.612-1.636l10.663-113.385a2,2,0,0,1,1.755-1.8l67.643-8.026a2.02,2.02,0,0,1,1.526.458,2,2,0,0,1,.707,1.428l5.5,109.376a2,2,0,0,1-1.714,2.08l-83.809,12.034A1.94,1.94,0,0,1-548.443-159.36Zm12.5-113.589L-546.214-163.7l79.491-11.414-5.3-105.417Z" fill="url(#a)"/><path d="M-526.811-154.656a1.98,1.98,0,0,1-.484-.06c-9.134-2.279-19.423-4.632-20.955-4.654a1.994,1.994,0,0,1-2.172-1.705,2,2,0,0,1,1.694-2.265c1.751-.259,12.851,2.363,22.016,4.647l82.6-12.273-10.762-108.717-6.115,3.058a2,2,0,0,1-1.828-.021L-471.071-281a2,2,0,0,1-.835-2.7,2,2,0,0,1,2.7-.835l7.347,3.877,7.794-3.9a2,2,0,0,1,1.86.039,2,2,0,0,1,1.024,1.553l11.236,113.5a2,2,0,0,1-1.7,2.176l-84.878,12.611A1.92,1.92,0,0,1-526.811-154.656Zm-21.347-4.725-.06.008Z" fill="url(#b)"/><path d="M-441.935-167.268a1.993,1.993,0,0,1-1.187-.391l-9.741-7.2-11.193,3.38a2,2,0,0,1-2.492-1.337,2,2,0,0,1,1.336-2.494l12.153-3.669a2,2,0,0,1,1.767.307l10.548,7.8a2,2,0,0,1,.419,2.8A2,2,0,0,1-441.935-167.268Z" fill="url(#c)"/><path d="M-498.35-277.424a2.034,2.034,0,0,1-.345-.03,2,2,0,0,1-1.627-2.31c.128-.74,3.307-18.161,18.29-19.673,9.935-1,15.768,4.952,17.319,17.7l.069.564a2,2,0,0,1-1.726,2.24,1.991,1.991,0,0,1-2.24-1.726l-.074-.6c-.868-7.131-3.125-15.213-12.946-14.2-11.946,1.2-14.642,15.758-14.751,16.377A2,2,0,0,1-498.35-277.424Z" fill="url(#d)"/><path d="M-522.534-264.949a2,2,0,0,1-1.986-1.782c-.981-8.963,1.435-26.728,17.607-29.814,4.884-.928,8.984.027,12.191,2.845,8.026,7.058,7.133,23.428,7.091,24.121a2.009,2.009,0,0,1-2.116,1.875,2,2,0,0,1-1.877-2.115c.009-.152.816-15.119-5.744-20.881-2.262-1.987-5.139-2.617-8.8-1.915-16.624,3.172-14.4,25.225-14.379,25.448a2,2,0,0,1-1.771,2.206A2.041,2.041,0,0,1-522.534-264.949Z" fill="url(#e)"/><path d="M-522.151-208.683a33.268,33.268,0,0,0,14.465,3.6c5.99,0,9.157-2.481,9.157-6.251,0-3.6-2.738-5.645-9.669-8.133-9.587-3.339-15.835-8.642-15.835-17.033,0-9.841,8.217-17.375,21.825-17.375a35.352,35.352,0,0,1,14.722,2.913l-2.909,10.531a27.4,27.4,0,0,0-12.071-2.746c-5.649,0-8.388,2.572-8.388,5.569,0,3.679,3.255,5.3,10.7,8.133,10.182,3.763,14.977,9.067,14.977,17.2,0,9.674-7.447,17.89-23.281,17.89-6.59,0-13.1-1.714-16.347-3.512Z" fill="#e6ffe9"/><path d="M-508.457-192.389c-7.223,0-14.039-1.95-17.314-3.762a2,2,0,0,1-.974-2.228l2.652-10.781a2,2,0,0,1,1.112-1.342,2,2,0,0,1,1.742.039,31.632,31.632,0,0,0,13.553,3.376c2.673,0,7.158-.553,7.158-4.251,0-2.111-1.33-3.732-8.347-6.251-11.379-3.963-17.158-10.329-17.158-18.915,0-11.407,9.8-19.375,23.825-19.375a37.677,37.677,0,0,1,15.542,3.089,2,2,0,0,1,1.108,2.356l-2.909,10.531a2,2,0,0,1-1.1,1.289,2,2,0,0,1-1.7-.02,25.627,25.627,0,0,0-11.2-2.547c-3.881,0-6.388,1.4-6.388,3.569s1.847,3.389,9.412,6.263c11.092,4.1,16.267,10.161,16.267,19.07C-483.175-203.1-489.8-192.389-508.457-192.389ZM-522.474-199a38.749,38.749,0,0,0,14.017,2.608c13.127,0,21.282-6.089,21.282-15.89,0-7.1-4.217-11.83-13.671-15.325-7.451-2.831-12.008-4.825-12.008-10.008,0-3.768,3.212-7.569,10.388-7.569a29.617,29.617,0,0,1,10.756,2l1.826-6.609a34.78,34.78,0,0,0-12.324-2.085c-11.858,0-19.825,6.179-19.825,15.375,0,6.795,4.741,11.748,14.492,15.144,6.981,2.506,11.013,4.946,11.013,10.022,0,3.989-2.931,8.251-11.158,8.251a34.612,34.612,0,0,1-13.1-2.763Z" fill="url(#f)"/></g></svg>