<svg xmlns="http://www.w3.org/2000/svg" xmlns:xlink="http://www.w3.org/1999/xlink" width="141.667" height="111.313" viewBox="0 0 141.667 111.313"><defs><linearGradient id="a" x1="-0.575" y1="-0.755" x2="-0.575" y2="-0.767" gradientUnits="objectBoundingBox"><stop offset="0" stop-color="#c59d48"/><stop offset="1" stop-color="#9d7d3a"/></linearGradient><linearGradient id="b" x1="-1.714" y1="-1.637" x2="-1.714" y2="-1.656" xlink:href="#a"/><linearGradient id="c" x1="-6.299" y1="-2.553" x2="-6.299" y2="-2.579" xlink:href="#a"/></defs><g transform="translate(-37.11 -45.36)"><path d="M109.222,149.393a116.311,116.311,0,0,1-26.67,2.861c-25.406,0-41-6.349-41-10.9v-3.272c7.711,5.487,24.416,8.348,41,8.348a130.927,130.927,0,0,0,21.251-1.656,2.214,2.214,0,0,0-.647-4.38h-.088A126.392,126.392,0,0,1,82.493,142c-25.406,0-41-6.339-41-10.9,0-1.617,2.2-3.537,5.947-5.242,6.809,6.31,24.73,9.592,42.523,9.592,2.939,0,5.879-.088,8.671-.255a2.224,2.224,0,0,0,2.067-2.342,2.263,2.263,0,0,0-2.342-2.067c-2.753.167-5.585.245-8.416.245-22.172,0-36.869-4.83-40.249-9.092a1.97,1.97,0,0,0-.108-.167,2.851,2.851,0,0,1-.637-1.636v-3.272c7.711,5.487,24.416,8.348,40.994,8.348q3.312,0,6.5-.137a2.217,2.217,0,0,0-.206-4.429c-2.048.088-4.135.137-6.28.137-25.4,0-40.994-6.349-40.994-10.9,0-1.137,1.205-2.5,3.243-3.792a115.781,115.781,0,0,0,30.3,3.655,137.969,137.969,0,0,0,15.677-.882,2.217,2.217,0,0,0-.461-4.409h0a133.506,133.506,0,0,1-15.2.843,106.8,106.8,0,0,1-29.844-3.664,1.361,1.361,0,0,0-.323-.1c-6.986-2.156-10.846-4.9-10.846-7.113V91.165c7.711,5.487,24.416,8.358,41,8.358a130.476,130.476,0,0,0,21.261-1.607,2.214,2.214,0,0,0-.735-4.36,126.938,126.938,0,0,1-20.487,1.6c-25.406,0-41-6.359-41-10.925,0-1.764,2.939-4.615,10.925-7.084,7.192,5.947,24.632,9.014,41.964,9.014,22.535,0,45.423-5.261,45.423-15.314V60.684c0-10.062-22.849-15.324-45.423-15.324S49.024,50.592,49.024,60.684V70.893a6.447,6.447,0,0,0,.558,2.528C41.45,76.184,37.13,79.887,37.13,84.2V94.408c0,4.154,3.919,7.486,10.1,9.964a7.6,7.6,0,0,0-2.636,5.506v10.239a6.457,6.457,0,0,0,.353,2.067c-6.349,3.1-7.838,6.5-7.838,8.906V141.33c0,10.062,22.849,15.324,45.423,15.324a118.82,118.82,0,0,0,27.718-2.939,2.209,2.209,0,0,0-1.048-4.291Zm-14.775-67.6c-25.406,0-40.994-6.339-40.994-10.885V67.621c7.7,5.487,24.406,8.348,40.994,8.348s33.313-2.851,40.994-8.348v3.272c-.01,4.546-15.6,10.885-40.994,10.885Zm0-32.029c25.4,0,40.994,6.349,40.994,10.9S119.843,71.54,94.447,71.54s-41-6.339-41-10.856,15.588-10.934,41-10.934Z" transform="translate(0 0)" fill="url(#a)"/><path d="M142.717,82.53a37.447,37.447,0,1,0,37.437,37.444v0A37.457,37.457,0,0,0,142.717,82.53Zm0,70.456a33.019,33.019,0,1,1,33.009-33.015v0A33.009,33.009,0,0,1,142.717,152.986Z" transform="translate(-1.378 -0.752)" fill="url(#b)"/><path d="M146.4,119.491V105.069c5.291.676,6.026,3.674,6.094,4.086a2.214,2.214,0,0,0,4.389-.588c0-.294-.98-7.035-10.484-7.956V97.034a2.214,2.214,0,1,0-4.429,0h0v3.655a12.335,12.335,0,0,0-7.6,3.478,10.052,10.052,0,0,0-2.616,7.73c.382,6.231,5.379,9.1,10.209,10.836v14.324a7.613,7.613,0,0,1-7.123-6.369,2.216,2.216,0,1,0-4.38.676c.509,3.321,2.7,8.818,11.512,10.19V146.2a2.214,2.214,0,1,0,4.419,0v-4.429a10.983,10.983,0,0,0,10.944-8.661C158.726,123.684,152.309,121.392,146.4,119.491Zm-10.209-7.838a5.663,5.663,0,0,1,1.411-4.429,7.6,7.6,0,0,1,4.37-2.067V118C137.21,115.915,136.319,113.72,136.191,111.653Zm16.774,20.82a6.594,6.594,0,0,1-6.565,4.9V124.184c5.1,1.715,7.319,3.145,6.565,8.269Z" transform="translate(-1.887 -1)" fill="url(#c)"/></g></svg>