<svg xmlns="http://www.w3.org/2000/svg" xmlns:xlink="http://www.w3.org/1999/xlink" width="126.857" height="143.765" viewBox="0 0 126.857 143.765"><defs><linearGradient id="a" y1="0.5" x2="1" y2="0.5" gradientUnits="objectBoundingBox"><stop offset="0" stop-color="#1aaade"/><stop offset="1" stop-color="#0e7aa3"/></linearGradient><linearGradient id="f" x1="-2.751" y1="0.5" x2="3.751" y2="0.5" xlink:href="#a"/><linearGradient id="j" x1="0.025" y1="0.5" x2="0.975" y2="0.5" xlink:href="#a"/></defs><g transform="translate(-36.571 -28.118)"><path d="M107.576,39.936,100,32.36l-7.576,7.576L90.3,37.815l9.7-9.7,9.7,9.7Z" fill="url(#a)"/><rect width="3" height="20.709" transform="translate(98.5 30.239)" fill="url(#a)"/><path d="M100,171.882l-9.7-9.7,2.121-2.121L100,167.64l7.576-7.576,2.121,2.121Z" fill="url(#a)"/><rect width="3" height="20.709" transform="translate(98.5 149.052)" fill="url(#a)"/><path d="M41.079,77.878,37.4,64.666l13.212-3.679.8,2.891L41.1,66.752,43.97,77.074Z" fill="url(#a)"/><rect width="3.001" height="20.709" transform="matrix(0.492, -0.871, 0.871, 0.492, 38.511, 67.016)" fill="url(#f)"/><path d="M149.387,139.012l-.8-2.891,10.322-2.874-2.874-10.321,2.891-.8,3.679,13.212Z" fill="url(#a)"/><rect width="3.001" height="20.708" transform="translate(141.98 125.418) rotate(-60.559)" fill="url(#f)"/><path d="M49.692,137.815l-13.12-3.994L40.566,120.7l2.869.873-3.119,10.25,10.249,3.121Z" fill="url(#a)"/><rect width="20.708" height="3" transform="translate(37.739 131.502) rotate(-28.083)" fill="url(#j)"/><path d="M159.434,79.3l-2.869-.873,3.12-10.25-10.249-3.121.873-2.869,13.12,3.994Z" fill="url(#a)"/><rect width="20.709" height="3" transform="translate(142.579 75.6) rotate(-28.083)" fill="url(#j)"/><path d="M100.956,135.3A34.643,34.643,0,1,1,135.6,100.654,34.682,34.682,0,0,1,100.956,135.3Zm-21.39-11.344a31.553,31.553,0,0,0,16.843,8.018,40.5,40.5,0,0,1-9.279-12.05A27.015,27.015,0,0,0,79.566,123.952Zm35.624-3.872a40.508,40.508,0,0,1-9.1,11.8,31.554,31.554,0,0,0,16.236-7.913A26.677,26.677,0,0,0,115.19,120.08Zm-12.734-2.4v13.339a37.343,37.343,0,0,0,9.839-11.872A42.256,42.256,0,0,0,102.456,117.679Zm-12.415,1.343a37.371,37.371,0,0,0,9.415,11.6V117.678A42.493,42.493,0,0,0,90.041,119.022Zm26.418-1.657a29.263,29.263,0,0,1,8,4.459,31.522,31.522,0,0,0,8.11-19.67H119.8A42.574,42.574,0,0,1,116.459,117.365ZM69.348,102.154a31.511,31.511,0,0,0,8.1,19.654,29.6,29.6,0,0,1,8.428-4.611A42.575,42.575,0,0,1,82.6,102.154Zm33.108,12.523a45.06,45.06,0,0,1,11.15,1.733,39.541,39.541,0,0,0,3.195-14.256H102.456ZM85.6,102.154a39.542,39.542,0,0,0,3.137,14.123,45.244,45.244,0,0,1,10.718-1.6V102.154Zm34.2-3h12.766a31.52,31.52,0,0,0-8.11-19.67,29.33,29.33,0,0,1-8.043,4.476A42.514,42.514,0,0,1,119.8,99.154Zm-17.342,0H116.8a39.536,39.536,0,0,0-3.24-14.242,45.077,45.077,0,0,1-11.1,1.717Zm-16.85,0h13.85V86.63a45.257,45.257,0,0,1-10.667-1.586A39.518,39.518,0,0,0,85.606,99.154Zm-16.258,0H82.6a42.558,42.558,0,0,1,3.315-15.027A29.635,29.635,0,0,1,77.444,79.5,31.507,31.507,0,0,0,69.348,99.154ZM90.1,82.3a42.528,42.528,0,0,0,9.354,1.328V70.809A37.367,37.367,0,0,0,90.1,82.3Zm12.354-11.885V83.627a42.288,42.288,0,0,0,9.78-1.45A37.347,37.347,0,0,0,102.456,70.415Zm-22.889,6.94a27.037,27.037,0,0,0,7.62,4.051,40.494,40.494,0,0,1,9.394-12.093A31.551,31.551,0,0,0,79.567,77.355ZM105.919,69.4a40.511,40.511,0,0,1,9.214,11.846,26.665,26.665,0,0,0,7.2-3.9A31.559,31.559,0,0,0,105.919,69.4Z" fill="url(#a)"/></g></svg>