<svg xmlns="http://www.w3.org/2000/svg" xmlns:xlink="http://www.w3.org/1999/xlink" width="114.33" height="120.996" viewBox="0 0 114.33 120.996">
  <defs>
    <linearGradient id="linear-gradient" x1="0.956" y1="0.022" x2="-0.15" y2="1.101" gradientUnits="objectBoundingBox">
      <stop offset="0" stop-color="#d8805a"/>
      <stop offset="1" stop-color="#7b4129"/>
    </linearGradient>
    <linearGradient id="linear-gradient-2" x1="1.303" y1="-0.531" x2="-0.743" y2="2.095" xlink:href="#linear-gradient"/>
    <linearGradient id="linear-gradient-3" x1="1.324" y1="-4.727" x2="0.197" y2="2.424" xlink:href="#linear-gradient"/>
    <linearGradient id="linear-gradient-4" x1="0.854" y1="0.053" x2="-2.526" y2="4.321" xlink:href="#linear-gradient"/>
    <linearGradient id="linear-gradient-5" x1="1.146" y1="-11.07" x2="-0.652" y2="21.145" xlink:href="#linear-gradient"/>
    <linearGradient id="linear-gradient-6" x1="2.046" y1="-14.796" x2="-1.21" y2="17.419" xlink:href="#linear-gradient"/>
    <linearGradient id="linear-gradient-7" x1="2.254" y1="-16.85" x2="-1.003" y2="15.365" xlink:href="#linear-gradient"/>
    <linearGradient id="linear-gradient-8" x1="2.461" y1="-18.907" x2="-0.795" y2="13.315" xlink:href="#linear-gradient"/>
    <clipPath id="clip-path">
      <path id="Path_62003" data-name="Path 62003" d="M132.977,111.645a8.2,8.2,0,0,1-2.57-1.492,2.558,2.558,0,0,1-.678-1.863,2.914,2.914,0,0,1,.64-1.99,2.541,2.541,0,0,1,2.048-.745,2.579,2.579,0,0,1,2.084.888,3.812,3.812,0,0,1,.745,2.522h4.31v-.071a6.4,6.4,0,0,0-1.492-4.536,6.665,6.665,0,0,0-4.25-2.12V98.974H131.44v3.219a7.175,7.175,0,0,0-4.465,1.906,5.661,5.661,0,0,0-1.647,4.179,5.555,5.555,0,0,0,1.647,4.274,14.131,14.131,0,0,0,5.056,2.677,7.211,7.211,0,0,1,2.523,1.433,2.784,2.784,0,0,1,.7,1.989,2.619,2.619,0,0,1-.733,1.977,3.048,3.048,0,0,1-2.214.721,3.1,3.1,0,0,1-3.4-3.577h-4.286v.1a6.077,6.077,0,0,0,1.811,4.891,8.021,8.021,0,0,0,4.744,1.93v2.983h2.372v-2.98a7.258,7.258,0,0,0,4.476-1.863,5.546,5.546,0,0,0,1.623-4.144,5.673,5.673,0,0,0-1.655-4.33,13.039,13.039,0,0,0-5.008-2.711Z" transform="translate(-124.595 -98.974)" fill="none"/>
    </clipPath>
  </defs>
  <g id="speed-invopicing" transform="translate(-31.208 -29.86)">
    <g id="Group_7727" data-name="Group 7727" transform="translate(45.185 29.86)">
      <path id="Path_61995" data-name="Path 61995" d="M124.651,150.846h-3.488a15.084,15.084,0,0,1-14.774-14.205H49.167a2.028,2.028,0,0,1-2.027-2.027V32.252a2.027,2.027,0,0,1,2.016-2.027l61.005-.365h.012a2.028,2.028,0,0,1,1.433.594l26.979,26.979a2.028,2.028,0,0,1,.594,1.433V87.508a2.027,2.027,0,0,1-3.319,1.563A20.591,20.591,0,0,0,122.6,84.314a20.825,20.825,0,1,0,0,41.65,20.583,20.583,0,0,0,13.258-4.757,2.027,2.027,0,0,1,3.319,1.564v14.2c0,9.091-9.287,13.031-14.2,13.844A1.988,1.988,0,0,1,124.651,150.846ZM51.2,132.585h57.192a2.028,2.028,0,0,1,2.025,2.144,7.156,7.156,0,0,0,0,.823c0,.039,0,.079,0,.118a11.044,11.044,0,0,0,10.8,11.121h3.25c1.353-.259,10.656-2.314,10.656-9.815v-10.33a24.881,24.881,0,1,1,0-43.01V59.706L109.338,33.921,51.2,34.268Z" transform="translate(-47.14 -29.86)" fill="url(#linear-gradient)"/>
    </g>
    <g id="Group_7728" data-name="Group 7728" transform="translate(95.768 80.259)">
      <path id="Path_61996" data-name="Path 61996" d="M129.678,137.07a24.877,24.877,0,1,1,15.841-5.685A24.908,24.908,0,0,1,129.678,137.07Zm0-45.706a20.825,20.825,0,1,0,0,41.65,20.825,20.825,0,1,0,0-41.65Z" transform="translate(-104.798 -87.309)" fill="url(#linear-gradient-2)"/>
    </g>
    <g id="Group_7729" data-name="Group 7729" transform="translate(31.208 132.585)">
      <path id="Path_61997" data-name="Path 61997" d="M119.543,165.224H46.411A15.209,15.209,0,0,1,31.224,150.06a10.438,10.438,0,0,1,0-1.193,2.027,2.027,0,0,1,2.024-1.912h73.182a2.028,2.028,0,0,1,2.025,2.144,7.156,7.156,0,0,0,0,.823c0,.039,0,.079,0,.118a11.046,11.046,0,0,0,10.8,11.121c.041,0,.083,0,.125.007l.037,0h.118a2.027,2.027,0,1,1,0,4.055ZM35.323,151.01a11.153,11.153,0,0,0,11.089,10.16H109.2a15.085,15.085,0,0,1-4.768-10.16Z" transform="translate(-31.208 -146.954)" fill="url(#linear-gradient-3)"/>
    </g>
    <g id="Path_16707" data-name="Path 16707" transform="translate(106.191 29.86)">
      <path id="Path_61998" data-name="Path 61998" d="M144.783,60.477H119.252a2.028,2.028,0,0,1-2.027-1.986L116.68,31.93a2.028,2.028,0,0,1,3.474-1.462L146.23,57.028a2.028,2.028,0,0,1-1.447,3.449Zm-23.544-4.056h18.712L120.839,36.955Z" transform="translate(-116.679 -29.86)" fill="url(#linear-gradient-4)"/>
    </g>
    <g id="Line_968" data-name="Line 968" transform="translate(60.648 71.401)">
      <path id="Path_61999" data-name="Path 61999" d="M119.36,81.268H66.794a2.028,2.028,0,1,1,0-4.056H119.36a2.028,2.028,0,0,1,0,4.056Z" transform="translate(-64.766 -77.212)" fill="url(#linear-gradient-5)"/>
    </g>
    <g id="Line_969" data-name="Line 969" transform="translate(60.648 85.812)">
      <path id="Path_62000" data-name="Path 62000" d="M94.007,97.694H66.794a2.028,2.028,0,1,1,0-4.056H94.007a2.028,2.028,0,0,1,0,4.056Z" transform="translate(-64.766 -93.638)" fill="url(#linear-gradient-6)"/>
    </g>
    <g id="Line_970" data-name="Line 970" transform="translate(60.648 99.205)">
      <path id="Path_62001" data-name="Path 62001" d="M94.007,112.96H66.794a2.028,2.028,0,1,1,0-4.056H94.007a2.028,2.028,0,0,1,0,4.056Z" transform="translate(-64.766 -108.904)" fill="url(#linear-gradient-7)"/>
    </g>
    <g id="Line_971" data-name="Line 971" transform="translate(60.648 112.587)">
      <path id="Path_62002" data-name="Path 62002" d="M94.007,128.213H66.794a2.027,2.027,0,1,1,0-4.055H94.007a2.027,2.027,0,1,1,0,4.055Z" transform="translate(-64.766 -124.158)" fill="url(#linear-gradient-8)"/>
    </g>
    <g id="Path_16708" data-name="Path 16708" transform="translate(113.135 90.493)">
      <g id="Group_7731" data-name="Group 7731">
        <g id="Group_7730" data-name="Group 7730" clip-path="url(#clip-path)">
          <rect id="Rectangle_19408" data-name="Rectangle 19408" width="0.138" height="28.7" transform="translate(-0.138 0)" fill="#d8805a"/>
          <rect id="Rectangle_19409" data-name="Rectangle 19409" width="0.162" height="28.7" transform="translate(0 0)" fill="#d8805a"/>
          <rect id="Rectangle_19410" data-name="Rectangle 19410" width="0.162" height="28.7" transform="translate(0.162 0)" fill="#d77f59"/>
          <rect id="Rectangle_19411" data-name="Rectangle 19411" width="0.162" height="28.7" transform="translate(0.324 0)" fill="#d67f59"/>
          <rect id="Rectangle_19412" data-name="Rectangle 19412" width="0.162" height="28.7" transform="translate(0.486 0)" fill="#d57e58"/>
          <rect id="Rectangle_19413" data-name="Rectangle 19413" width="0.162" height="28.7" transform="translate(0.648 0)" fill="#d47d58"/>
          <rect id="Rectangle_19414" data-name="Rectangle 19414" width="0.162" height="28.7" transform="translate(0.81 0)" fill="#d37d57"/>
          <rect id="Rectangle_19415" data-name="Rectangle 19415" width="0.162" height="28.7" transform="translate(0.972 0)" fill="#d27c57"/>
          <rect id="Rectangle_19416" data-name="Rectangle 19416" width="0.162" height="28.7" transform="translate(1.133 0)" fill="#d17b56"/>
          <rect id="Rectangle_19417" data-name="Rectangle 19417" width="0.162" height="28.7" transform="translate(1.295 0)" fill="#d07b56"/>
          <rect id="Rectangle_19418" data-name="Rectangle 19418" width="0.162" height="28.7" transform="translate(1.457 0)" fill="#cf7a55"/>
          <rect id="Rectangle_19419" data-name="Rectangle 19419" width="0.162" height="28.7" transform="translate(1.619 0)" fill="#ce7955"/>
          <rect id="Rectangle_19420" data-name="Rectangle 19420" width="0.162" height="28.7" transform="translate(1.781 0)" fill="#cd7854"/>
          <rect id="Rectangle_19421" data-name="Rectangle 19421" width="0.162" height="28.7" transform="translate(1.943 0)" fill="#cc7854"/>
          <rect id="Rectangle_19422" data-name="Rectangle 19422" width="0.162" height="28.7" transform="translate(2.105 0)" fill="#cb7753"/>
          <rect id="Rectangle_19423" data-name="Rectangle 19423" width="0.162" height="28.7" transform="translate(2.267 0)" fill="#ca7653"/>
          <rect id="Rectangle_19424" data-name="Rectangle 19424" width="0.162" height="28.7" transform="translate(2.429 0)" fill="#c97652"/>
          <rect id="Rectangle_19425" data-name="Rectangle 19425" width="0.162" height="28.7" transform="translate(2.591 0)" fill="#c87551"/>
          <rect id="Rectangle_19426" data-name="Rectangle 19426" width="0.162" height="28.7" transform="translate(2.753 0)" fill="#c77451"/>
          <rect id="Rectangle_19427" data-name="Rectangle 19427" width="0.162" height="28.7" transform="translate(2.915 0)" fill="#c67450"/>
          <rect id="Rectangle_19428" data-name="Rectangle 19428" width="0.162" height="28.7" transform="translate(3.077 0)" fill="#c57350"/>
          <rect id="Rectangle_19429" data-name="Rectangle 19429" width="0.162" height="28.7" transform="translate(3.238 0)" fill="#c4724f"/>
          <rect id="Rectangle_19430" data-name="Rectangle 19430" width="0.162" height="28.7" transform="translate(3.4 0)" fill="#c3724f"/>
          <rect id="Rectangle_19431" data-name="Rectangle 19431" width="0.162" height="28.7" transform="translate(3.562 0)" fill="#c2714e"/>
          <rect id="Rectangle_19432" data-name="Rectangle 19432" width="0.162" height="28.7" transform="translate(3.724 0)" fill="#c1704e"/>
          <rect id="Rectangle_19433" data-name="Rectangle 19433" width="0.162" height="28.7" transform="translate(3.886 0)" fill="#c0704d"/>
          <rect id="Rectangle_19434" data-name="Rectangle 19434" width="0.162" height="28.7" transform="translate(4.048 0)" fill="#bf6f4d"/>
          <rect id="Rectangle_19435" data-name="Rectangle 19435" width="0.162" height="28.7" transform="translate(4.21 0)" fill="#be6e4c"/>
          <rect id="Rectangle_19436" data-name="Rectangle 19436" width="0.162" height="28.7" transform="translate(4.372 0)" fill="#bd6e4c"/>
          <rect id="Rectangle_19437" data-name="Rectangle 19437" width="0.162" height="28.7" transform="translate(4.534 0)" fill="#bc6d4b"/>
          <rect id="Rectangle_19438" data-name="Rectangle 19438" width="0.162" height="28.7" transform="translate(4.696 0)" fill="#bb6c4b"/>
          <rect id="Rectangle_19439" data-name="Rectangle 19439" width="0.162" height="28.7" transform="translate(4.858 0)" fill="#ba6b4a"/>
          <rect id="Rectangle_19440" data-name="Rectangle 19440" width="0.162" height="28.7" transform="translate(5.02 0)" fill="#b96b49"/>
          <rect id="Rectangle_19441" data-name="Rectangle 19441" width="0.162" height="28.7" transform="translate(5.182 0)" fill="#b86a49"/>
          <rect id="Rectangle_19442" data-name="Rectangle 19442" width="0.162" height="28.7" transform="translate(5.343 0)" fill="#b76948"/>
          <rect id="Rectangle_19443" data-name="Rectangle 19443" width="0.162" height="28.7" transform="translate(5.505 0)" fill="#b66948"/>
          <rect id="Rectangle_19444" data-name="Rectangle 19444" width="0.162" height="28.7" transform="translate(5.667 0)" fill="#b56847"/>
          <rect id="Rectangle_19445" data-name="Rectangle 19445" width="0.162" height="28.7" transform="translate(5.829 0)" fill="#b46747"/>
          <rect id="Rectangle_19446" data-name="Rectangle 19446" width="0.162" height="28.7" transform="translate(5.991 0)" fill="#b36746"/>
          <rect id="Rectangle_19447" data-name="Rectangle 19447" width="0.162" height="28.7" transform="translate(6.153 0)" fill="#b26646"/>
          <rect id="Rectangle_19448" data-name="Rectangle 19448" width="0.162" height="28.7" transform="translate(6.315 0)" fill="#b16545"/>
          <rect id="Rectangle_19449" data-name="Rectangle 19449" width="0.162" height="28.7" transform="translate(6.477 0)" fill="#b06545"/>
          <rect id="Rectangle_19450" data-name="Rectangle 19450" width="0.162" height="28.7" transform="translate(6.639 0)" fill="#af6444"/>
          <rect id="Rectangle_19451" data-name="Rectangle 19451" width="0.162" height="28.7" transform="translate(6.801 0)" fill="#ae6344"/>
          <rect id="Rectangle_19452" data-name="Rectangle 19452" width="0.162" height="28.7" transform="translate(6.963 0)" fill="#ad6343"/>
          <rect id="Rectangle_19453" data-name="Rectangle 19453" width="0.162" height="28.7" transform="translate(7.125 0)" fill="#ac6243"/>
          <rect id="Rectangle_19454" data-name="Rectangle 19454" width="0.162" height="28.7" transform="translate(7.287 0)" fill="#ab6142"/>
          <rect id="Rectangle_19455" data-name="Rectangle 19455" width="0.162" height="28.7" transform="translate(7.449 0)" fill="#aa6142"/>
          <rect id="Rectangle_19456" data-name="Rectangle 19456" width="0.162" height="28.7" transform="translate(7.61 0)" fill="#a86041"/>
          <rect id="Rectangle_19457" data-name="Rectangle 19457" width="0.162" height="28.7" transform="translate(7.772 0)" fill="#a75f40"/>
          <rect id="Rectangle_19458" data-name="Rectangle 19458" width="0.162" height="28.7" transform="translate(7.934 0)" fill="#a65e40"/>
          <rect id="Rectangle_19459" data-name="Rectangle 19459" width="0.162" height="28.7" transform="translate(8.096 0)" fill="#a55e3f"/>
          <rect id="Rectangle_19460" data-name="Rectangle 19460" width="0.162" height="28.7" transform="translate(8.258 0)" fill="#a45d3f"/>
          <rect id="Rectangle_19461" data-name="Rectangle 19461" width="0.162" height="28.7" transform="translate(8.42 0)" fill="#a35c3e"/>
          <rect id="Rectangle_19462" data-name="Rectangle 19462" width="0.162" height="28.7" transform="translate(8.582 0)" fill="#a25c3e"/>
          <rect id="Rectangle_19463" data-name="Rectangle 19463" width="0.162" height="28.7" transform="translate(8.744 0)" fill="#a15b3d"/>
          <rect id="Rectangle_19464" data-name="Rectangle 19464" width="0.162" height="28.7" transform="translate(8.906 0)" fill="#a05a3d"/>
          <rect id="Rectangle_19465" data-name="Rectangle 19465" width="0.162" height="28.7" transform="translate(9.068 0)" fill="#9f5a3c"/>
          <rect id="Rectangle_19466" data-name="Rectangle 19466" width="0.162" height="28.7" transform="translate(9.23 0)" fill="#9e593c"/>
          <rect id="Rectangle_19467" data-name="Rectangle 19467" width="0.162" height="28.7" transform="translate(9.392 0)" fill="#9d583b"/>
          <rect id="Rectangle_19468" data-name="Rectangle 19468" width="0.162" height="28.7" transform="translate(9.554 0)" fill="#9c583b"/>
          <rect id="Rectangle_19469" data-name="Rectangle 19469" width="0.162" height="28.7" transform="translate(9.715 0)" fill="#9b573a"/>
          <rect id="Rectangle_19470" data-name="Rectangle 19470" width="0.162" height="28.7" transform="translate(9.877 0)" fill="#9a563a"/>
          <rect id="Rectangle_19471" data-name="Rectangle 19471" width="0.162" height="28.7" transform="translate(10.039 0)" fill="#995639"/>
          <rect id="Rectangle_19472" data-name="Rectangle 19472" width="0.162" height="28.7" transform="translate(10.201 0)" fill="#985538"/>
          <rect id="Rectangle_19473" data-name="Rectangle 19473" width="0.162" height="28.7" transform="translate(10.363 0)" fill="#975438"/>
          <rect id="Rectangle_19474" data-name="Rectangle 19474" width="0.162" height="28.7" transform="translate(10.525 0)" fill="#965337"/>
          <rect id="Rectangle_19475" data-name="Rectangle 19475" width="0.162" height="28.7" transform="translate(10.687 0)" fill="#955337"/>
          <rect id="Rectangle_19476" data-name="Rectangle 19476" width="0.162" height="28.7" transform="translate(10.849 0)" fill="#945236"/>
          <rect id="Rectangle_19477" data-name="Rectangle 19477" width="0.162" height="28.7" transform="translate(11.011 0)" fill="#935136"/>
          <rect id="Rectangle_19478" data-name="Rectangle 19478" width="0.162" height="28.7" transform="translate(11.173 0)" fill="#925135"/>
          <rect id="Rectangle_19479" data-name="Rectangle 19479" width="0.162" height="28.7" transform="translate(11.335 0)" fill="#915035"/>
          <rect id="Rectangle_19480" data-name="Rectangle 19480" width="0.162" height="28.7" transform="translate(11.497 0)" fill="#904f34"/>
          <rect id="Rectangle_19481" data-name="Rectangle 19481" width="0.162" height="28.7" transform="translate(11.659 0)" fill="#8f4f34"/>
          <rect id="Rectangle_19482" data-name="Rectangle 19482" width="0.162" height="28.7" transform="translate(11.82 0)" fill="#8e4e33"/>
          <rect id="Rectangle_19483" data-name="Rectangle 19483" width="0.162" height="28.7" transform="translate(11.982 0)" fill="#8d4d33"/>
          <rect id="Rectangle_19484" data-name="Rectangle 19484" width="0.162" height="28.7" transform="translate(12.144 0)" fill="#8c4d32"/>
          <rect id="Rectangle_19485" data-name="Rectangle 19485" width="0.162" height="28.7" transform="translate(12.306 0)" fill="#8b4c32"/>
          <rect id="Rectangle_19486" data-name="Rectangle 19486" width="0.162" height="28.7" transform="translate(12.468 0)" fill="#8a4b31"/>
          <rect id="Rectangle_19487" data-name="Rectangle 19487" width="0.162" height="28.7" transform="translate(12.63 0)" fill="#894b30"/>
          <rect id="Rectangle_19488" data-name="Rectangle 19488" width="0.162" height="28.7" transform="translate(12.792 0)" fill="#884a30"/>
          <rect id="Rectangle_19489" data-name="Rectangle 19489" width="0.162" height="28.7" transform="translate(12.954 0)" fill="#87492f"/>
          <rect id="Rectangle_19490" data-name="Rectangle 19490" width="0.162" height="28.7" transform="translate(13.116 0)" fill="#86492f"/>
          <rect id="Rectangle_19491" data-name="Rectangle 19491" width="0.162" height="28.7" transform="translate(13.278 0)" fill="#85482e"/>
          <rect id="Rectangle_19492" data-name="Rectangle 19492" width="0.162" height="28.7" transform="translate(13.44 0)" fill="#84472e"/>
          <rect id="Rectangle_19493" data-name="Rectangle 19493" width="0.162" height="28.7" transform="translate(13.602 0)" fill="#83462d"/>
          <rect id="Rectangle_19494" data-name="Rectangle 19494" width="0.162" height="28.7" transform="translate(13.764 0)" fill="#82462d"/>
          <rect id="Rectangle_19495" data-name="Rectangle 19495" width="0.162" height="28.7" transform="translate(13.926 0)" fill="#81452c"/>
          <rect id="Rectangle_19496" data-name="Rectangle 19496" width="0.162" height="28.7" transform="translate(14.087 0)" fill="#80442c"/>
          <rect id="Rectangle_19497" data-name="Rectangle 19497" width="0.162" height="28.7" transform="translate(14.249 0)" fill="#7f442b"/>
          <rect id="Rectangle_19498" data-name="Rectangle 19498" width="0.162" height="28.7" transform="translate(14.411 0)" fill="#7e432b"/>
          <rect id="Rectangle_19499" data-name="Rectangle 19499" width="0.162" height="28.7" transform="translate(14.573 0)" fill="#7d422a"/>
          <rect id="Rectangle_19500" data-name="Rectangle 19500" width="0.162" height="28.7" transform="translate(14.735 0)" fill="#7c422a"/>
          <rect id="Rectangle_19501" data-name="Rectangle 19501" width="0.162" height="28.7" transform="translate(14.897 0)" fill="#7b4129"/>
          <rect id="Rectangle_19502" data-name="Rectangle 19502" width="0.081" height="28.7" transform="translate(15.059 0)" fill="#7b4129"/>
        </g>
      </g>
    </g>
  </g>
</svg>
