<svg xmlns="http://www.w3.org/2000/svg" xmlns:xlink="http://www.w3.org/1999/xlink" width="154.832" height="92.883" viewBox="0 0 154.832 92.883"><defs><linearGradient id="a" x1="0.968" y1="-0.144" x2="-0.158" y2="1.462" gradientUnits="objectBoundingBox"><stop offset="0" stop-color="#1cabe0"/><stop offset="1" stop-color="#107aa3"/></linearGradient><linearGradient id="b" x1="1.004" y1="-5.285" x2="0.099" y2="4.66" xlink:href="#a"/><linearGradient id="c" x1="3.52" y1="-10.46" x2="-1.651" y2="8.59" xlink:href="#a"/><linearGradient id="d" x1="1.036" y1="-0.244" x2="-0.235" y2="1.518" xlink:href="#a"/><linearGradient id="e" x1="4.268" y1="-3.081" x2="-3.162" y2="3.979" xlink:href="#a"/><linearGradient id="f" x1="1.339" y1="-12.89" x2="-1.133" y2="26.55" xlink:href="#a"/><linearGradient id="g" x1="4.938" y1="-3.717" x2="-2.492" y2="3.343" xlink:href="#a"/><linearGradient id="h" x1="1.562" y1="-16.444" x2="-0.91" y2="22.995" xlink:href="#a"/></defs><g transform="translate(-1510.242 276.121)"><g transform="translate(1525.461 -276.121)"><path d="M1652.675-193.247H1528.28v-76.006a6.876,6.876,0,0,1,6.868-6.869h110.66a6.876,6.876,0,0,1,6.868,6.869Zm-121.02-3.375H1649.3v-72.631a3.5,3.5,0,0,0-3.493-3.494h-110.66a3.5,3.5,0,0,0-3.493,3.494Z" transform="translate(-1528.28 276.121)" fill="url(#a)"/></g><g transform="translate(1510.242 -196.622)"><path d="M1653.379-168.51H1521.938a11.709,11.709,0,0,1-11.7-11.7v-1.687h154.832v1.687A11.709,11.709,0,0,1,1653.379-168.51Zm-139.59-10.009a8.336,8.336,0,0,0,8.148,6.634h131.442a8.336,8.336,0,0,0,8.148-6.634Z" transform="translate(-1510.242 181.894)" fill="url(#b)"/></g><g transform="translate(1574.116 -190.225)"><path d="M1613.034-167.325h-27.085v-2.92a4.072,4.072,0,0,1,4.067-4.067h18.951a4.072,4.072,0,0,1,4.067,4.067ZM1589.5-170.7h19.992a.691.691,0,0,0-.521-.237h-18.951A.691.691,0,0,0,1589.5-170.7Z" transform="translate(-1585.949 174.312)" fill="url(#c)"/></g><g transform="translate(1532.556 -268.778)"><path d="M1646.894-191.887h-110.2v-75.531h110.2Zm-106.829-3.375h103.454v-68.782H1540.065Z" transform="translate(-1536.69 267.418)" fill="url(#d)"/></g><g transform="translate(1546.14 -250.327)"><path d="M1562.216-226.7a9.437,9.437,0,0,1-9.426-9.427,9.437,9.437,0,0,1,9.426-9.426,9.437,9.437,0,0,1,9.426,9.426A9.437,9.437,0,0,1,1562.216-226.7Zm0-15.478a6.058,6.058,0,0,0-6.051,6.051,6.058,6.058,0,0,0,6.051,6.052,6.058,6.058,0,0,0,6.051-6.052A6.058,6.058,0,0,0,1562.216-242.173Z" transform="translate(-1552.79 245.548)" fill="url(#e)"/></g><g transform="translate(1571.934 -242.588)"><path d="M1638.328-233h-53.278a1.688,1.688,0,0,1-1.687-1.687,1.688,1.688,0,0,1,1.688-1.687h53.278a1.688,1.688,0,0,1,1.687,1.687A1.687,1.687,0,0,1,1638.328-233Z" transform="translate(-1583.363 236.376)" fill="url(#f)"/></g><g transform="translate(1546.14 -225.048)"><path d="M1562.216-196.734a9.437,9.437,0,0,1-9.426-9.426,9.437,9.437,0,0,1,9.426-9.426,9.437,9.437,0,0,1,9.426,9.426A9.437,9.437,0,0,1,1562.216-196.734Zm0-15.477a6.057,6.057,0,0,0-6.051,6.051,6.057,6.057,0,0,0,6.051,6.051,6.058,6.058,0,0,0,6.051-6.051A6.058,6.058,0,0,0,1562.216-212.211Z" transform="translate(-1552.79 215.586)" fill="url(#g)"/></g><g transform="translate(1571.934 -217.309)"><path d="M1638.328-203.039h-53.278a1.688,1.688,0,0,1-1.687-1.687,1.688,1.688,0,0,1,1.688-1.687h53.278a1.687,1.687,0,0,1,1.687,1.687A1.688,1.688,0,0,1,1638.328-203.039Z" transform="translate(-1583.363 206.414)" fill="url(#h)"/></g></g></svg>