<svg xmlns="http://www.w3.org/2000/svg" xmlns:xlink="http://www.w3.org/1999/xlink" width="105.978" height="118.359" viewBox="0 0 105.978 118.359"><defs><linearGradient id="a" y1="0.5" x2="1" y2="0.5" gradientUnits="objectBoundingBox"><stop offset="0" stop-color="#33a096"/><stop offset="1" stop-color="#16655e"/></linearGradient></defs><g transform="translate(-2285.613 -767.073)"><path d="M2352.571,923.728c-.17,0-.341,0-.512-.008a16.8,16.8,0,0,1-16.27-16.265v-2.1h33.537v2.056a16.773,16.773,0,0,1-16.755,16.316Zm-13.84-15.479a13.886,13.886,0,0,0,27.65,0Z" transform="translate(-13.896 -38.296)" fill="url(#a)"/><path d="M2364.894,787.984l-1.756-.386a37.1,37.1,0,0,0-15.655-.031l-1.75.377V776.93a9.585,9.585,0,0,1,19.16-.594v.014c.005.2.005.406,0,.612Zm-9.667-4.129q.877,0,1.754.038a39.991,39.991,0,0,1,5.02.539v-7.5c0-.191,0-.349,0-.5a6.693,6.693,0,0,0-13.378.455V784.4A39.865,39.865,0,0,1,2355.227,783.854Z" transform="translate(-16.648)" fill="url(#a)"/><path d="M2291.546,876.38a5.933,5.933,0,0,1-4.839-9.367L2298.9,849.75v-21.4a39.75,39.75,0,0,1,48.21-37.148,39.2,39.2,0,0,1,10.775,4.07l1.4.779-.915,1.312a16.325,16.325,0,0,0,17.644,25.081l1.548-.418.257,1.583a40.172,40.172,0,0,1,.48,4.679V849.75L2390.49,867a5.941,5.941,0,0,1-1.379,8.272h0a5.894,5.894,0,0,1-3.361,1.108h-94.2Zm47.033-83.206a36.8,36.8,0,0,0-36.789,35.238l0,22.256-12.722,18.014a3.041,3.041,0,0,0,2.481,4.806h94.178a3,3,0,0,0,1.7-.567h0a3.047,3.047,0,0,0,.7-4.244l-12.726-18.007v-22.32c-.04-.892-.117-1.821-.23-2.757a19.222,19.222,0,0,1-22.622-18.908,19.1,19.1,0,0,1,2.568-9.605,36.369,36.369,0,0,0-8.628-3.053,36.87,36.87,0,0,0-6.286-.816C2339.665,793.185,2339.121,793.174,2338.58,793.174Z" transform="translate(0 -6.427)" fill="url(#a)"/><path d="M2319.869,826.167l-2.766-.846a32.026,32.026,0,0,1,21.746-21.446l.808,2.778A29.141,29.141,0,0,0,2319.869,826.167Z" transform="translate(-8.721 -10.192)" fill="url(#a)"/><rect width="2.892" height="8.667" transform="translate(2307.267 821.319)" fill="url(#a)"/><path d="M2397.4,824.82a19.2,19.2,0,1,1,5-.659A19.232,19.232,0,0,1,2397.4,824.82Zm0-35.529a16.32,16.32,0,1,0,16.318,16.317A16.344,16.344,0,0,0,2397.4,789.291Z" transform="translate(-25.639 -5.352)" fill="url(#a)"/></g></svg>