<svg xmlns="http://www.w3.org/2000/svg" xmlns:xlink="http://www.w3.org/1999/xlink" width="112.314" height="88.25" viewBox="0 0 112.314 88.25"><defs><linearGradient id="a" x1="-0.575" y1="-0.755" x2="-0.575" y2="-0.767" gradientUnits="objectBoundingBox"><stop offset="0" stop-color="#c59d48"/><stop offset="1" stop-color="#9d7d3a"/></linearGradient><linearGradient id="b" x1="-1.714" y1="-1.637" x2="-1.714" y2="-1.656" xlink:href="#a"/><linearGradient id="c" x1="-6.299" y1="-2.553" x2="-6.299" y2="-2.579" xlink:href="#a"/></defs><g transform="translate(-37.11 -45.36)"><path d="M94.281,127.838a92.211,92.211,0,0,1-21.144,2.268c-20.142,0-32.508-5.034-32.508-8.638v-2.594c6.113,4.35,19.357,6.618,32.508,6.618a103.8,103.8,0,0,0,16.848-1.313,1.756,1.756,0,0,0-.513-3.472H89.4a100.2,100.2,0,0,1-16.312,1.266c-20.142,0-32.508-5.026-32.508-8.638,0-1.282,1.748-2.8,4.715-4.156,5.4,5,19.606,7.6,33.712,7.6,2.33,0,4.661-.07,6.874-.2a1.763,1.763,0,0,0,1.639-1.857,1.794,1.794,0,0,0-1.857-1.639c-2.183.132-4.428.194-6.673.194-17.578,0-29.23-3.83-31.91-7.209a1.562,1.562,0,0,0-.085-.132,2.26,2.26,0,0,1-.5-1.3v-2.594c6.113,4.35,19.357,6.618,32.5,6.618q2.626,0,5.15-.109a1.757,1.757,0,1,0-.163-3.511c-1.623.07-3.278.109-4.979.109-20.134,0-32.5-5.034-32.5-8.638,0-.9.955-1.981,2.571-3.006A91.792,91.792,0,0,0,73.1,96.41a109.381,109.381,0,0,0,12.428-.7,1.757,1.757,0,0,0-.365-3.5h0a105.845,105.845,0,0,1-12.048.668,84.669,84.669,0,0,1-23.661-2.905A1.079,1.079,0,0,0,49.2,89.9c-5.538-1.709-8.6-3.884-8.6-5.639V81.674c6.113,4.35,19.357,6.626,32.508,6.626a103.442,103.442,0,0,0,16.856-1.274,1.756,1.756,0,0,0-.583-3.457,100.638,100.638,0,0,1-16.242,1.266c-20.142,0-32.508-5.041-32.508-8.661,0-1.4,2.33-3.659,8.661-5.616,5.7,4.715,19.528,7.146,33.269,7.146,17.866,0,36.011-4.171,36.011-12.141V57.509c0-7.978-18.114-12.149-36.011-12.149s-36,4.148-36,12.149V65.6a5.111,5.111,0,0,0,.443,2c-6.447,2.191-9.873,5.127-9.873,8.545v8.094c0,3.294,3.107,5.935,8.009,7.9a6.028,6.028,0,0,0-2.09,4.365v8.117a5.119,5.119,0,0,0,.28,1.639c-5.034,2.455-6.214,5.15-6.214,7.061v8.117c0,7.978,18.114,12.149,36.011,12.149a94.2,94.2,0,0,0,21.975-2.33,1.751,1.751,0,0,0-.831-3.4Zm-11.714-53.6c-20.142,0-32.5-5.026-32.5-8.63v-2.6c6.105,4.35,19.35,6.618,32.5,6.618s26.41-2.26,32.5-6.618V65.6c-.008,3.6-12.366,8.63-32.5,8.63Zm0-25.393c20.134,0,32.5,5.034,32.5,8.646s-12.366,8.622-32.5,8.622S50.059,61.09,50.059,57.509,62.417,48.84,82.567,48.84Z" transform="translate(0)" fill="url(#a)"/><path d="M134.956,82.53a29.688,29.688,0,1,0,29.681,29.686v0A29.7,29.7,0,0,0,134.956,82.53Zm0,55.858a26.177,26.177,0,1,1,26.17-26.175v0A26.17,26.17,0,0,1,134.956,138.388Z" transform="translate(-15.213 -8.297)" fill="url(#b)"/><path d="M143.092,114.379V102.945c4.195.536,4.777,2.913,4.832,3.239a1.756,1.756,0,1,0,3.48-.466c0-.233-.777-5.577-8.312-6.307V96.576a1.756,1.756,0,0,0-3.511,0h0v2.9a9.78,9.78,0,0,0-6.028,2.758,7.97,7.97,0,0,0-2.074,6.129c.3,4.94,4.265,7.216,8.094,8.591v11.357a6.036,6.036,0,0,1-5.647-5.049,1.757,1.757,0,0,0-3.472.536c.4,2.633,2.144,6.991,9.127,8.078v3.682a1.756,1.756,0,1,0,3.5,0v-3.511a8.708,8.708,0,0,0,8.677-6.867C152.864,117.7,147.776,115.886,143.092,114.379ZM135,108.165a4.49,4.49,0,0,1,1.119-3.511,6.028,6.028,0,0,1,3.464-1.639V113.2C135.806,111.544,135.1,109.8,135,108.165Zm13.3,16.507a5.228,5.228,0,0,1-5.2,3.884V118.1c4.047,1.359,5.8,2.493,5.2,6.556Z" transform="translate(-20.832 -11.041)" fill="url(#c)"/></g></svg>