<svg xmlns="http://www.w3.org/2000/svg" xmlns:xlink="http://www.w3.org/1999/xlink" width="164.004" height="90.295" viewBox="0 0 164.004 90.295">
  <defs>
    <clipPath id="clip-path">
      <rect id="Rectangle_11627" data-name="Rectangle 11627" width="164.003" height="90.295" fill="none"/>
    </clipPath>
    <clipPath id="clip-path-3">
      <rect id="Rectangle_11619" data-name="Rectangle 11619" width="7.583" height="14.007" fill="none"/>
    </clipPath>
    <clipPath id="clip-path-4">
      <rect id="Rectangle_11620" data-name="Rectangle 11620" width="11.76" height="8.868" fill="none"/>
    </clipPath>
    <clipPath id="clip-path-5">
      <rect id="Rectangle_11621" data-name="Rectangle 11621" width="10.71" height="8.669" fill="none"/>
    </clipPath>
    <clipPath id="clip-path-6">
      <rect id="Rectangle_11622" data-name="Rectangle 11622" width="7.912" height="13.317" fill="none"/>
    </clipPath>
    <clipPath id="clip-path-7">
      <rect id="Rectangle_11623" data-name="Rectangle 11623" width="14.284" height="7.788" fill="none"/>
    </clipPath>
    <clipPath id="clip-path-8">
      <rect id="Rectangle_11624" data-name="Rectangle 11624" width="13.508" height="7.816" fill="none"/>
    </clipPath>
    <clipPath id="clip-path-9">
      <rect id="Rectangle_11625" data-name="Rectangle 11625" width="11.011" height="9.433" fill="none"/>
    </clipPath>
  </defs>
  <g id="Group_5857" data-name="Group 5857" transform="translate(14095 18441)">
    <g id="Group_5856" data-name="Group 5856" transform="translate(-14095 -18441)">
      <g id="Group_5855" data-name="Group 5855" clip-path="url(#clip-path)">
        <g id="Group_5854" data-name="Group 5854">
          <g id="Group_5853" data-name="Group 5853" clip-path="url(#clip-path)">
            <path id="Path_16442" data-name="Path 16442" d="M55.476,46.611c3.719-.189,6.944,3.068,6.944,3.068s-2.8,3.562-6.521,3.751-6.945-3.068-6.945-3.068,2.8-3.562,6.522-3.751" transform="translate(5.032 4.79)" fill="#fff"/>
            <path id="Path_16443" data-name="Path 16443" d="M55.476,46.611c3.719-.189,6.944,3.068,6.944,3.068s-2.8,3.562-6.521,3.751-6.945-3.068-6.945-3.068S51.757,46.8,55.476,46.611Z" transform="translate(5.032 4.79)" fill="none" stroke="#333" stroke-linecap="round" stroke-miterlimit="10" stroke-width="0.601"/>
            <path id="Path_16444" data-name="Path 16444" d="M62.418,46.579c2.918,1.707,3.72,5.764,3.72,5.764s-3.929,1.289-6.847-.418-3.72-5.764-3.72-5.764,3.929-1.288,6.847.418" transform="translate(5.712 4.697)" fill="#fff"/>
            <path id="Path_16445" data-name="Path 16445" d="M62.418,46.579c2.918,1.707,3.72,5.764,3.72,5.764s-3.929,1.289-6.847-.418-3.72-5.764-3.72-5.764S59.5,44.873,62.418,46.579Z" transform="translate(5.712 4.697)" fill="none" stroke="#333" stroke-linecap="round" stroke-miterlimit="10" stroke-width="0.601"/>
            <path id="Path_16446" data-name="Path 16446" d="M62.586,37.676c.395,3.07-2.1,5.915-2.1,5.915s-3.136-2.131-3.531-5.2,2.1-5.914,2.1-5.914,3.137,2.131,3.531,5.2" transform="translate(5.849 3.338)" fill="#fff"/>
            <path id="Path_16447" data-name="Path 16447" d="M62.586,37.676c.395,3.07-2.1,5.915-2.1,5.915s-3.136-2.131-3.531-5.2,2.1-5.914,2.1-5.914S62.192,34.607,62.586,37.676Z" transform="translate(5.849 3.338)" fill="none" stroke="#333" stroke-linecap="round" stroke-miterlimit="10" stroke-width="0.601"/>
            <path id="Path_16448" data-name="Path 16448" d="M54.7,58.74c-.6.315-1.543-.247-1.234.362l.877,1.614c.59,1.1,2.872,1.043,5.095-.127s3.548-3.009,2.958-4.11l-.13-.254a1.28,1.28,0,0,0-1.727-.558Z" transform="translate(5.489 5.707)" fill="#0e6877"/>
            <path id="Path_16449" data-name="Path 16449" d="M54.7,58.74c-.6.315-1.543-.247-1.234.362l.877,1.614c.59,1.1,2.872,1.043,5.095-.127s3.548-3.009,2.958-4.11l-.13-.254a1.28,1.28,0,0,0-1.727-.558Z" transform="translate(5.489 5.707)" fill="none" stroke="#333" stroke-linecap="round" stroke-miterlimit="10" stroke-width="0.601"/>
            <path id="Path_16450" data-name="Path 16450" d="M61.433,54.821c.59,1.1-.733,2.941-2.957,4.11s-4.5,1.226-5.095.127.732-2.941,2.957-4.11,4.5-1.227,5.095-.127" transform="translate(5.472 5.553)" fill="#00b6ed"/>
            <path id="Path_16451" data-name="Path 16451" d="M61.433,54.821c.59,1.1-.733,2.941-2.957,4.11s-4.5,1.226-5.095.127.732-2.941,2.957-4.11S60.841,53.72,61.433,54.821Z" transform="translate(5.472 5.553)" fill="none" stroke="#333" stroke-miterlimit="10" stroke-width="0.601"/>
            <path id="Path_16452" data-name="Path 16452" d="M69.448,37.843c.124-.664-.934-1.489-.261-1.366l2.04.457c1.225.248,1.847,2.448,1.392,4.912s-1.82,4.26-3.044,4.011l-.281-.051a1.291,1.291,0,0,1-1.043-1.492Z" transform="translate(7.013 3.748)" fill="#0e6877"/>
            <path id="Path_16453" data-name="Path 16453" d="M69.448,37.843c.124-.664-.934-1.489-.261-1.366l2.04.457c1.225.248,1.847,2.448,1.392,4.912s-1.82,4.26-3.044,4.011l-.281-.051a1.291,1.291,0,0,1-1.043-1.492Z" transform="translate(7.013 3.748)" fill="none" stroke="#333" stroke-linecap="round" stroke-miterlimit="10" stroke-width="0.601"/>
            <path id="Path_16454" data-name="Path 16454" d="M67.764,45.441c1.224.249,2.587-1.547,3.043-4.011s-.167-4.664-1.391-4.912-2.587,1.547-3.043,4.011.167,4.663,1.391,4.912" transform="translate(6.807 3.751)" fill="#00b6ed"/>
            <path id="Path_16455" data-name="Path 16455" d="M67.764,45.441c1.224.249,2.587-1.547,3.043-4.011s-.167-4.664-1.391-4.912-2.587,1.547-3.043,4.011S66.539,45.192,67.764,45.441Z" transform="translate(6.807 3.751)" fill="none" stroke="#333" stroke-miterlimit="10" stroke-width="0.601"/>
            <line id="Line_1302" data-name="Line 1302" x1="163.341" transform="translate(0.331 89.887)" fill="#f2f2f2"/>
            <line id="Line_1303" data-name="Line 1303" x1="163.341" transform="translate(0.331 89.887)" fill="none" stroke="#333" stroke-linecap="round" stroke-miterlimit="10" stroke-width="0.601"/>
            <path id="Path_16456" data-name="Path 16456" d="M18.139,75.92a20.3,20.3,0,0,0-2.385-5.189.153.153,0,0,1,.228-.2,17.936,17.936,0,0,1,2.639,3.437" transform="translate(1.616 7.245)" fill="#fff"/>
            <path id="Path_16457" data-name="Path 16457" d="M18.139,75.92a20.3,20.3,0,0,0-2.385-5.189.153.153,0,0,1,.228-.2,17.936,17.936,0,0,1,2.639,3.437" transform="translate(1.616 7.245)" fill="none" stroke="#333" stroke-linecap="round" stroke-miterlimit="10" stroke-width="0.601"/>
            <path id="Path_16458" data-name="Path 16458" d="M22.353,66.5a6.65,6.65,0,0,0-2.068,1.288,8.675,8.675,0,0,0-1.932,2.543,3.544,3.544,0,0,0-.189.409c-.058.142-.122.28-.175.429a7.757,7.757,0,0,0-.26.924l-.049.225-.013.057-.006.029,0,.014,0,.038-.012.127c-.015.169-.031.34-.046.512s0,.34,0,.512a4.374,4.374,0,0,0,.026.513c.121,1.365.444,2.718.7,4.1a27.991,27.991,0,0,1,.506,4.227l1.847-.153a29.826,29.826,0,0,0-.949-4.4c-.391-1.384-.827-2.681-1.05-3.9a3.473,3.473,0,0,1-.067-.452c-.014-.148-.039-.3-.045-.442s0-.287,0-.429v-.106c0,.006,0-.032,0,.009l0-.014,0-.029.007-.057.028-.229a6.777,6.777,0,0,1,.151-.834c.034-.133.082-.266.121-.4A3.26,3.26,0,0,1,19,70.62a8.146,8.146,0,0,1,1.576-2.532,6.329,6.329,0,0,1,1.849-1.407c.174-.095.055-.239-.076-.181" transform="translate(1.808 6.834)" fill="#fff"/>
            <path id="Path_16459" data-name="Path 16459" d="M22.353,66.5a6.65,6.65,0,0,0-2.068,1.288,8.675,8.675,0,0,0-1.932,2.543,3.544,3.544,0,0,0-.189.409c-.058.142-.122.28-.175.429a7.757,7.757,0,0,0-.26.924l-.049.225-.013.057-.006.029,0,.014,0,.038-.012.127c-.015.169-.031.34-.046.512s0,.34,0,.512a4.374,4.374,0,0,0,.026.513c.121,1.365.444,2.718.7,4.1a27.991,27.991,0,0,1,.506,4.227l1.847-.153a29.826,29.826,0,0,0-.949-4.4c-.391-1.384-.827-2.681-1.05-3.9a3.473,3.473,0,0,1-.067-.452c-.014-.148-.039-.3-.045-.442s0-.287,0-.429v-.106c0,.006,0-.032,0,.009l0-.014,0-.029.007-.057.028-.229a6.777,6.777,0,0,1,.151-.834c.034-.133.082-.266.121-.4A3.26,3.26,0,0,1,19,70.62a8.146,8.146,0,0,1,1.576-2.532,6.329,6.329,0,0,1,1.849-1.407C22.6,66.586,22.484,66.442,22.353,66.5Z" transform="translate(1.808 6.834)" fill="none" stroke="#333" stroke-linecap="round" stroke-miterlimit="10" stroke-width="0.601"/>
            <path id="Path_16460" data-name="Path 16460" d="M13.564,81.868H23.622a3.843,3.843,0,0,0-3.843-3.843H17.407a3.843,3.843,0,0,0-3.843,3.843" transform="translate(1.394 8.02)" fill="#e2e2e2"/>
            <path id="Path_16461" data-name="Path 16461" d="M13.564,81.868H23.622a3.843,3.843,0,0,0-3.843-3.843H17.407A3.843,3.843,0,0,0,13.564,81.868Z" transform="translate(1.394 8.02)" fill="none" stroke="#333" stroke-linecap="round" stroke-miterlimit="10" stroke-width="0.601"/>
            <path id="Path_16462" data-name="Path 16462" d="M17.255,71.721c.8-3.2-1.721-7.174-7.7-6.268a10.493,10.493,0,0,0,.752,3.2,5.9,5.9,0,0,0,5.41,3.673c1.789-.184,1.538-.589,1.542-.6" transform="translate(0.982 6.714)" fill="#fff"/>
            <path id="Path_16463" data-name="Path 16463" d="M17.255,71.721c.8-3.2-1.721-7.174-7.7-6.268a10.493,10.493,0,0,0,.752,3.2,5.9,5.9,0,0,0,5.41,3.673C17.5,72.14,17.252,71.736,17.255,71.721Z" transform="translate(0.982 6.714)" fill="none" stroke="#333" stroke-linecap="round" stroke-miterlimit="10" stroke-width="0.601"/>
            <path id="Path_16464" data-name="Path 16464" d="M20.176,68.115c2.839,1.682,7.365.407,8.211-5.586a10.478,10.478,0,0,0-3.279-.2,5.894,5.894,0,0,0-5.069,4.131c-.336,1.767.124,1.642.137,1.65" transform="translate(2.047 6.401)" fill="#fff"/>
            <path id="Path_16465" data-name="Path 16465" d="M20.176,68.115c2.839,1.682,7.365.407,8.211-5.586a10.478,10.478,0,0,0-3.279-.2,5.894,5.894,0,0,0-5.069,4.131C19.7,68.232,20.163,68.107,20.176,68.115Z" transform="translate(2.047 6.401)" fill="none" stroke="#333" stroke-linecap="round" stroke-miterlimit="10" stroke-width="0.601"/>
            <path id="Path_16466" data-name="Path 16466" d="M18.036,74.106c-1.435-4.416,1.546-6.514-2.871-13.027" transform="translate(1.559 6.278)" fill="none" stroke="#333" stroke-linecap="round" stroke-miterlimit="10" stroke-width="0.601"/>
            <path id="Path_16467" data-name="Path 16467" d="M112.808,51.21c3.156-1.948,7.5-.634,7.5-.634s-.775,4.47-3.933,6.417-7.5.633-7.5.633.775-4.468,3.931-6.416" transform="translate(11.191 5.154)" fill="#fff"/>
            <path id="Path_16468" data-name="Path 16468" d="M112.808,51.21c3.156-1.948,7.5-.634,7.5-.634s-.775,4.47-3.933,6.417-7.5.633-7.5.633S109.652,53.158,112.808,51.21Z" transform="translate(11.191 5.154)" fill="none" stroke="#333" stroke-linecap="round" stroke-miterlimit="10" stroke-width="0.601"/>
            <path id="Path_16469" data-name="Path 16469" d="M132.34,9.4c-2.145,3.039-1.1,7.51-1.1,7.51s4.516-.458,6.661-3.5S139,5.9,139,5.9s-4.517.458-6.661,3.5" transform="translate(13.463 0.607)" fill="#fff"/>
            <path id="Path_16470" data-name="Path 16470" d="M132.34,9.4c-2.145,3.039-1.1,7.51-1.1,7.51s4.516-.458,6.661-3.5S139,5.9,139,5.9,134.484,6.36,132.34,9.4Z" transform="translate(13.463 0.607)" fill="none" stroke="#333" stroke-linecap="round" stroke-miterlimit="10" stroke-width="0.601"/>
            <path id="Path_16471" data-name="Path 16471" d="M131.275,34.985c.765,3.629,4.71,5.87,4.71,5.87s2.7-3.642,1.938-7.272-4.71-5.87-4.71-5.87-2.7,3.642-1.938,7.272" transform="translate(13.479 2.848)" fill="#fff"/>
            <path id="Path_16472" data-name="Path 16472" d="M131.275,34.985c.765,3.629,4.71,5.87,4.71,5.87s2.7-3.642,1.938-7.272-4.71-5.87-4.71-5.87S130.509,31.355,131.275,34.985Z" transform="translate(13.479 2.848)" fill="none" stroke="#333" stroke-linecap="round" stroke-miterlimit="10" stroke-width="0.601"/>
            <g id="Group_5834" data-name="Group 5834" transform="translate(143.986 29.953)" opacity="0.22">
              <g id="Group_5833" data-name="Group 5833">
                <g id="Group_5832" data-name="Group 5832" clip-path="url(#clip-path-3)">
                  <path id="Path_16473" data-name="Path 16473" d="M131,34.825c.765,3.629,4.71,5.87,4.71,5.87s2.7-3.642,1.939-7.272-4.71-5.87-4.71-5.87-2.7,3.642-1.939,7.272" transform="translate(-130.535 -27.121)" fill="#333"/>
                  <path id="Path_16474" data-name="Path 16474" d="M131,34.825c.765,3.629,4.71,5.87,4.71,5.87s2.7-3.642,1.939-7.272-4.71-5.87-4.71-5.87S130.237,31.2,131,34.825Z" transform="translate(-130.535 -27.121)" fill="none" stroke="#333" stroke-linecap="round" stroke-miterlimit="10" stroke-width="0.601"/>
                </g>
              </g>
            </g>
            <path id="Path_16475" data-name="Path 16475" d="M119.847,57.874l4.425-10.067,4.207-6.637a6.46,6.46,0,0,0,.892-4.656l-1.484-7.863-2.9-7.478-1.4-5.228-2.288.615,1.46,5.41,2.884,7.435,1.24,6.641a6.46,6.46,0,0,1-.887,4.633l-3.872,6.133-4.379,9.163Z" transform="translate(12.101 1.639)" fill="#f2f2f2"/>
            <path id="Path_16476" data-name="Path 16476" d="M119.847,57.874l4.425-10.067,4.207-6.637a6.46,6.46,0,0,0,.892-4.656l-1.484-7.863-2.9-7.478-1.4-5.228-2.288.615,1.46,5.41,2.884,7.435,1.24,6.641a6.46,6.46,0,0,1-.887,4.633l-3.872,6.133-4.379,9.163Z" transform="translate(12.101 1.639)" fill="none" stroke="#333" stroke-miterlimit="10" stroke-width="0.601"/>
            <path id="Path_16477" data-name="Path 16477" d="M126.964,34.9c-3.047,2.114-7.454,1.038-7.454,1.038s.534-4.5,3.58-6.62,7.454-1.037,7.454-1.037-.533,4.5-3.58,6.619" transform="translate(12.283 2.878)" fill="#fff"/>
            <path id="Path_16478" data-name="Path 16478" d="M126.964,34.9c-3.047,2.114-7.454,1.038-7.454,1.038s.534-4.5,3.58-6.62,7.454-1.037,7.454-1.037S130.011,32.785,126.964,34.9Z" transform="translate(12.283 2.878)" fill="none" stroke="#333" stroke-linecap="round" stroke-miterlimit="10" stroke-width="0.601"/>
            <g id="Group_5837" data-name="Group 5837" transform="translate(131.429 30.553)" opacity="0.22">
              <g id="Group_5836" data-name="Group 5836">
                <g id="Group_5835" data-name="Group 5835" clip-path="url(#clip-path-4)">
                  <path id="Path_16479" data-name="Path 16479" d="M126.964,34.9c-3.047,2.114-7.454,1.038-7.454,1.038s.534-4.5,3.58-6.62,7.454-1.037,7.454-1.037-.533,4.5-3.58,6.619" transform="translate(-119.146 -27.675)" fill="#333"/>
                  <path id="Path_16480" data-name="Path 16480" d="M126.964,34.9c-3.047,2.114-7.454,1.038-7.454,1.038s.534-4.5,3.58-6.62,7.454-1.037,7.454-1.037S130.011,32.785,126.964,34.9Z" transform="translate(-119.146 -27.675)" fill="none" stroke="#333" stroke-linecap="round" stroke-miterlimit="10" stroke-width="0.601"/>
                </g>
              </g>
            </g>
            <path id="Path_16481" data-name="Path 16481" d="M110.509,36.864c3.377,1.533,7.519-.316,7.519-.316s-1.333-4.336-4.71-5.87S105.8,31,105.8,31s1.332,4.335,4.71,5.869" transform="translate(10.874 3.091)" fill="#fff"/>
            <path id="Path_16482" data-name="Path 16482" d="M110.509,36.864c3.377,1.533,7.519-.316,7.519-.316s-1.333-4.336-4.71-5.87S105.8,31,105.8,31,107.131,35.33,110.509,36.864Z" transform="translate(10.874 3.091)" fill="none" stroke="#333" stroke-linecap="round" stroke-miterlimit="10" stroke-width="0.601"/>
            <path id="Path_16483" data-name="Path 16483" d="M112.451,30.469c.508,3.674,4.285,6.186,4.285,6.186s2.953-3.443,2.445-7.117-4.287-6.186-4.287-6.186-2.952,3.444-2.444,7.117" transform="translate(11.552 2.4)" fill="#fff"/>
            <path id="Path_16484" data-name="Path 16484" d="M112.451,30.469c.508,3.674,4.285,6.186,4.285,6.186s2.953-3.443,2.445-7.117-4.287-6.186-4.287-6.186S111.943,26.8,112.451,30.469Z" transform="translate(11.552 2.4)" fill="none" stroke="#333" stroke-linecap="round" stroke-miterlimit="10" stroke-width="0.601"/>
            <path id="Path_16485" data-name="Path 16485" d="M140.6,37.472C136.92,37.007,133.511,40,133.511,40s2.617,3.4,6.236,4.212c3.168.708,6.633-2.313,7.089-2.529,0,0-2.557-3.747-6.237-4.212" transform="translate(13.722 3.846)" fill="#fff"/>
            <path id="Path_16486" data-name="Path 16486" d="M140.6,37.472C136.92,37.007,133.511,40,133.511,40s2.617,3.4,6.236,4.212c3.168.708,6.633-2.313,7.089-2.529C146.836,41.683,144.279,37.936,140.6,37.472Z" transform="translate(13.722 3.846)" fill="none" stroke="#333" stroke-linecap="round" stroke-miterlimit="10" stroke-width="0.601"/>
            <path id="Path_16487" data-name="Path 16487" d="M138.1,28.44c-2.315,2.9-1.535,7.368-1.535,7.368s4.53-.23,6.844-3.129,1.536-7.368,1.536-7.368-4.531.23-6.845,3.129" transform="translate(14.023 2.601)" fill="#fff"/>
            <path id="Path_16488" data-name="Path 16488" d="M138.1,28.44c-2.315,2.9-1.535,7.368-1.535,7.368s4.53-.23,6.844-3.129,1.536-7.368,1.536-7.368S140.413,25.541,138.1,28.44Z" transform="translate(14.023 2.601)" fill="none" stroke="#333" stroke-linecap="round" stroke-miterlimit="10" stroke-width="0.601"/>
            <g id="Group_5840" data-name="Group 5840" transform="translate(146.182 33.799)" opacity="0.22">
              <g id="Group_5839" data-name="Group 5839">
                <g id="Group_5838" data-name="Group 5838" clip-path="url(#clip-path-5)">
                  <path id="Path_16489" data-name="Path 16489" d="M136.047,32.094a8.421,8.421,0,0,0-3.012,3.833,2.17,2.17,0,0,0,1.936,3.025,8.42,8.42,0,0,0,4.744-1.139,8.413,8.413,0,0,0,3.012-3.833,2.171,2.171,0,0,0-1.936-3.026,8.422,8.422,0,0,0-4.744,1.14" transform="translate(-132.527 -30.618)" fill="#333"/>
                  <path id="Path_16490" data-name="Path 16490" d="M136.047,32.094a8.421,8.421,0,0,0-3.012,3.833,2.17,2.17,0,0,0,1.936,3.025,8.42,8.42,0,0,0,4.744-1.139,8.413,8.413,0,0,0,3.012-3.833,2.171,2.171,0,0,0-1.936-3.026A8.422,8.422,0,0,0,136.047,32.094Z" transform="translate(-132.527 -30.618)" fill="none" stroke="#333" stroke-linecap="round" stroke-miterlimit="10" stroke-width="0.601"/>
                </g>
              </g>
            </g>
            <path id="Path_16491" data-name="Path 16491" d="M138.858,32.843c-3.34,1.611-4.572,5.977-4.572,5.977s4.183,1.755,7.524.143,4.572-5.977,4.572-5.977-4.184-1.755-7.524-.143" transform="translate(13.802 3.306)" fill="#fff"/>
            <path id="Path_16492" data-name="Path 16492" d="M138.858,32.843c-3.34,1.611-4.572,5.977-4.572,5.977s4.183,1.755,7.524.143,4.572-5.977,4.572-5.977S142.2,31.232,138.858,32.843Z" transform="translate(13.802 3.306)" fill="none" stroke="#333" stroke-linecap="round" stroke-miterlimit="10" stroke-width="0.601"/>
            <path id="Path_16493" data-name="Path 16493" d="M136.554,21.93c-1.822,3.23-.341,7.518-.341,7.518s4.435-.949,6.258-4.18.341-7.517.341-7.517-4.436.948-6.258,4.178" transform="translate(13.942 1.825)" fill="#fff"/>
            <path id="Path_16494" data-name="Path 16494" d="M136.554,21.93c-1.822,3.23-.341,7.518-.341,7.518s4.435-.949,6.258-4.18.341-7.517.341-7.517S138.375,18.7,136.554,21.93Z" transform="translate(13.942 1.825)" fill="none" stroke="#333" stroke-linecap="round" stroke-miterlimit="10" stroke-width="0.601"/>
            <path id="Path_16495" data-name="Path 16495" d="M118.222,51.625,119.494,40.7l2.072-7.579a6.454,6.454,0,0,0-.515-4.712l-3.73-7.08-4.969-6.3-2.878-4.584-2.007,1.26,2.985,4.742,4.942,6.259L118.53,28.7a6.462,6.462,0,0,1,.513,4.688l-1.9,7L115.65,50.429Z" transform="translate(11.046 1.074)" fill="#f2f2f2"/>
            <path id="Path_16496" data-name="Path 16496" d="M118.222,51.625,119.494,40.7l2.072-7.579a6.454,6.454,0,0,0-.515-4.712l-3.73-7.08-4.969-6.3-2.878-4.584-2.007,1.26,2.985,4.742,4.942,6.259L118.53,28.7a6.462,6.462,0,0,1,.513,4.688l-1.9,7L115.65,50.429Z" transform="translate(11.046 1.074)" fill="none" stroke="#333" stroke-miterlimit="10" stroke-width="0.601"/>
            <path id="Path_16497" data-name="Path 16497" d="M112.886,32.99c1.565,3.362,5.914,4.654,5.914,4.654s1.81-4.16.245-7.522-5.914-4.654-5.914-4.654-1.81,4.16-.245,7.522" transform="translate(11.537 2.618)" fill="#fff"/>
            <path id="Path_16498" data-name="Path 16498" d="M112.886,32.99c1.565,3.362,5.914,4.654,5.914,4.654s1.81-4.16.245-7.522-5.914-4.654-5.914-4.654S111.322,29.628,112.886,32.99Z" transform="translate(11.537 2.618)" fill="none" stroke="#333" stroke-linecap="round" stroke-miterlimit="10" stroke-width="0.601"/>
            <path id="Path_16499" data-name="Path 16499" d="M111.008,38.677c2.391,2.834,6.927,2.941,6.927,2.941s.656-4.488-1.735-7.324-6.928-2.94-6.928-2.94-.657,4.488,1.736,7.322" transform="translate(11.223 3.223)" fill="#fff"/>
            <path id="Path_16500" data-name="Path 16500" d="M111.008,38.677c2.391,2.834,6.927,2.941,6.927,2.941s.656-4.488-1.735-7.324-6.928-2.94-6.928-2.94S108.615,35.843,111.008,38.677Z" transform="translate(11.223 3.223)" fill="none" stroke="#333" stroke-linecap="round" stroke-miterlimit="10" stroke-width="0.601"/>
            <path id="Path_16501" data-name="Path 16501" d="M99.678,35.206c3.708.11,6.813-3.2,6.813-3.2s-2.9-3.485-6.612-3.594-6.813,3.2-6.813,3.2,2.906,3.484,6.612,3.594" transform="translate(9.565 2.92)" fill="#fff"/>
            <path id="Path_16502" data-name="Path 16502" d="M99.678,35.206c3.708.11,6.813-3.2,6.813-3.2s-2.9-3.485-6.612-3.594-6.813,3.2-6.813,3.2S95.972,35.1,99.678,35.206Z" transform="translate(9.565 2.92)" fill="none" stroke="#333" stroke-linecap="round" stroke-miterlimit="10" stroke-width="0.601"/>
            <path id="Path_16503" data-name="Path 16503" d="M99.137,24.264c1.46,3.41,5.766,4.837,5.766,4.837s1.939-4.1.48-7.51-5.765-4.838-5.765-4.838-1.94,4.1-.481,7.511" transform="translate(10.134 1.722)" fill="#fff"/>
            <path id="Path_16504" data-name="Path 16504" d="M99.137,24.264c1.46,3.41,5.766,4.837,5.766,4.837s1.939-4.1.48-7.51-5.765-4.838-5.765-4.838S97.678,20.854,99.137,24.264Z" transform="translate(10.134 1.722)" fill="none" stroke="#333" stroke-linecap="round" stroke-miterlimit="10" stroke-width="0.601"/>
            <path id="Path_16505" data-name="Path 16505" d="M128.648,28.45c-2.89,2.324-3.105,6.855-3.105,6.855s4.471.764,7.362-1.559,3.105-6.855,3.105-6.855-4.471-.764-7.362,1.559" transform="translate(12.903 2.751)" fill="#fff"/>
            <path id="Path_16506" data-name="Path 16506" d="M128.648,28.45c-2.89,2.324-3.105,6.855-3.105,6.855s4.471.764,7.362-1.559,3.105-6.855,3.105-6.855S131.54,26.126,128.648,28.45Z" transform="translate(12.903 2.751)" fill="none" stroke="#333" stroke-linecap="round" stroke-miterlimit="10" stroke-width="0.601"/>
            <path id="Path_16507" data-name="Path 16507" d="M126.23,23.254c-1.36,3.45.7,7.492.7,7.492s4.263-1.551,5.623-5-.7-7.493-.7-7.493-4.263,1.551-5.623,5" transform="translate(12.926 1.876)" fill="#fff"/>
            <path id="Path_16508" data-name="Path 16508" d="M126.23,23.254c-1.36,3.45.7,7.492.7,7.492s4.263-1.551,5.623-5-.7-7.493-.7-7.493S127.59,19.8,126.23,23.254Z" transform="translate(12.926 1.876)" fill="none" stroke="#333" stroke-linecap="round" stroke-miterlimit="10" stroke-width="0.601"/>
            <g id="Group_5843" data-name="Group 5843" transform="translate(138.408 19.717)" opacity="0.22">
              <g id="Group_5842" data-name="Group 5842">
                <g id="Group_5841" data-name="Group 5841" clip-path="url(#clip-path-6)">
                  <path id="Path_16509" data-name="Path 16509" d="M126.273,23.254c-1.36,3.45.7,7.492.7,7.492s4.263-1.551,5.623-5-.7-7.493-.7-7.493-4.263,1.551-5.623,5" transform="translate(-125.477 -17.841)" fill="#333"/>
                  <path id="Path_16510" data-name="Path 16510" d="M126.273,23.254c-1.36,3.45.7,7.492.7,7.492s4.263-1.551,5.623-5-.7-7.493-.7-7.493S127.633,19.8,126.273,23.254Z" transform="translate(-125.477 -17.841)" fill="none" stroke="#333" stroke-linecap="round" stroke-miterlimit="10" stroke-width="0.601"/>
                </g>
              </g>
            </g>
            <path id="Path_16511" data-name="Path 16511" d="M121.744,15.067c.775,3.627,4.725,5.858,4.725,5.858s2.694-3.651,1.919-7.277-4.725-5.858-4.725-5.858-2.694,3.65-1.919,7.277" transform="translate(12.499 0.801)" fill="#fff"/>
            <path id="Path_16512" data-name="Path 16512" d="M121.744,15.067c.775,3.627,4.725,5.858,4.725,5.858s2.694-3.651,1.919-7.277-4.725-5.858-4.725-5.858S120.969,11.44,121.744,15.067Z" transform="translate(12.499 0.801)" fill="none" stroke="#333" stroke-linecap="round" stroke-miterlimit="10" stroke-width="0.601"/>
            <path id="Path_16513" data-name="Path 16513" d="M127.377,15.354c1.1,3.54,5.242,5.4,5.242,5.4s2.349-3.882,1.244-7.422-5.242-5.4-5.242-5.4-2.348,3.882-1.244,7.422" transform="translate(13.062 0.815)" fill="#fff"/>
            <path id="Path_16514" data-name="Path 16514" d="M127.377,15.354c1.1,3.54,5.242,5.4,5.242,5.4s2.349-3.882,1.244-7.422-5.242-5.4-5.242-5.4S126.273,11.814,127.377,15.354Z" transform="translate(13.062 0.815)" fill="none" stroke="#333" stroke-linecap="round" stroke-miterlimit="10" stroke-width="0.601"/>
            <path id="Path_16515" data-name="Path 16515" d="M114.166,15.565c-1.071,3.551,1.313,7.41,1.313,7.41s4.121-1.9,5.191-5.449-1.313-7.41-1.313-7.41-4.12,1.9-5.191,5.449" transform="translate(11.706 1.04)" fill="#fff"/>
            <path id="Path_16516" data-name="Path 16516" d="M114.166,15.565c-1.071,3.551,1.313,7.41,1.313,7.41s4.121-1.9,5.191-5.449-1.313-7.41-1.313-7.41S115.237,12.014,114.166,15.565Z" transform="translate(11.706 1.04)" fill="none" stroke="#333" stroke-linecap="round" stroke-miterlimit="10" stroke-width="0.601"/>
            <path id="Path_16517" data-name="Path 16517" d="M118.842,18.1c-2.585,2.66-2.244,7.184-2.244,7.184s4.532.212,7.116-2.449,2.244-7.182,2.244-7.182-4.531-.212-7.116,2.448" transform="translate(11.983 1.608)" fill="#fff"/>
            <path id="Path_16518" data-name="Path 16518" d="M118.842,18.1c-2.585,2.66-2.244,7.184-2.244,7.184s4.532.212,7.116-2.449,2.244-7.182,2.244-7.182S121.426,15.44,118.842,18.1Z" transform="translate(11.983 1.608)" fill="none" stroke="#333" stroke-linecap="round" stroke-miterlimit="10" stroke-width="0.601"/>
            <path id="Path_16519" data-name="Path 16519" d="M110.494,8.406c-1.632,3.33.095,7.525.095,7.525s4.374-1.205,6.006-4.536-.1-7.525-.1-7.525-4.374,1.205-6,4.536" transform="translate(11.285 0.398)" fill="#fff"/>
            <path id="Path_16520" data-name="Path 16520" d="M110.494,8.406c-1.632,3.33.095,7.525.095,7.525s4.374-1.205,6.006-4.536-.1-7.525-.1-7.525S112.125,5.075,110.494,8.406Z" transform="translate(11.285 0.398)" fill="none" stroke="#333" stroke-linecap="round" stroke-miterlimit="10" stroke-width="0.601"/>
            <path id="Path_16521" data-name="Path 16521" d="M104.373,7.854c1.3,3.475,5.528,5.106,5.528,5.106s2.134-4,.838-7.478S105.211.376,105.211.376s-2.133,4-.838,7.478" transform="translate(10.685 0.039)" fill="#fff"/>
            <path id="Path_16522" data-name="Path 16522" d="M104.373,7.854c1.3,3.475,5.528,5.106,5.528,5.106s2.134-4,.838-7.478S105.211.376,105.211.376,103.078,4.379,104.373,7.854Z" transform="translate(10.685 0.039)" fill="none" stroke="#333" stroke-linecap="round" stroke-miterlimit="10" stroke-width="0.601"/>
            <path id="Path_16523" data-name="Path 16523" d="M121.172,58.419,115.1,47.594l-5.331-5.773a6.464,6.464,0,0,1-1.714-4.42l.05-8,1.511-7.877-.067.432,2.363.194.044-.243-1.5,7.832-.028,6.756a6.456,6.456,0,0,0,1.7,4.4l4.91,5.337,5.952,8.229Z" transform="translate(11.106 2.212)" fill="#f2f2f2"/>
            <path id="Path_16524" data-name="Path 16524" d="M121.172,58.419,115.1,47.594l-5.331-5.773a6.464,6.464,0,0,1-1.714-4.42l.05-8,1.511-7.877-.067.432,2.363.194.044-.243-1.5,7.832-.028,6.756a6.456,6.456,0,0,0,1.7,4.4l4.91,5.337,5.952,8.229Z" transform="translate(11.106 2.212)" fill="none" stroke="#333" stroke-miterlimit="10" stroke-width="0.601"/>
            <path id="Path_16525" data-name="Path 16525" d="M117.42,38.257c.16,3.705-3.105,6.855-3.105,6.855s-3.523-2.858-3.682-6.563,3.105-6.856,3.105-6.856,3.522,2.858,3.682,6.564" transform="translate(11.37 3.257)" fill="#fff"/>
            <path id="Path_16526" data-name="Path 16526" d="M117.42,38.257c.16,3.705-3.105,6.855-3.105,6.855s-3.523-2.858-3.682-6.563,3.105-6.856,3.105-6.856S117.26,34.551,117.42,38.257Z" transform="translate(11.37 3.257)" fill="none" stroke="#333" stroke-linecap="round" stroke-miterlimit="10" stroke-width="0.601"/>
            <path id="Path_16527" data-name="Path 16527" d="M112.657,42.044c3.189,1.893,4.039,6.35,4.039,6.35s-4.32,1.385-7.509-.508-4.039-6.35-4.039-6.35,4.32-1.385,7.509.508" transform="translate(10.807 4.219)" fill="#fff"/>
            <path id="Path_16528" data-name="Path 16528" d="M112.657,42.044c3.189,1.893,4.039,6.35,4.039,6.35s-4.32,1.385-7.509-.508-4.039-6.35-4.039-6.35S109.468,40.15,112.657,42.044Z" transform="translate(10.807 4.219)" fill="none" stroke="#333" stroke-linecap="round" stroke-miterlimit="10" stroke-width="0.601"/>
            <path id="Path_16529" data-name="Path 16529" d="M122.1,26.353c1.641,3.326-.075,7.524-.075,7.524s-4.378-1.193-6.018-4.518.074-7.525.074-7.525,4.377,1.193,6.019,4.519" transform="translate(11.85 2.244)" fill="#fff"/>
            <path id="Path_16530" data-name="Path 16530" d="M122.1,26.353c1.641,3.326-.075,7.524-.075,7.524s-4.378-1.193-6.018-4.518.074-7.525.074-7.525S120.455,23.027,122.1,26.353Z" transform="translate(11.85 2.244)" fill="none" stroke="#333" stroke-linecap="round" stroke-miterlimit="10" stroke-width="0.601"/>
            <path id="Path_16531" data-name="Path 16531" d="M98.592,40.125c3.156-1.948,7.5-.634,7.5-.634s-.775,4.47-3.933,6.417-7.5.633-7.5.633.775-4.468,3.931-6.416" transform="translate(9.729 4.014)" fill="#fff"/>
            <path id="Path_16532" data-name="Path 16532" d="M98.592,40.125c3.156-1.948,7.5-.634,7.5-.634s-.775,4.47-3.933,6.417-7.5.633-7.5.633S95.436,42.073,98.592,40.125Z" transform="translate(9.729 4.014)" fill="none" stroke="#333" stroke-linecap="round" stroke-miterlimit="10" stroke-width="0.601"/>
            <path id="Path_16533" data-name="Path 16533" d="M107.538,36.791c1.543,3.373-.3,7.52-.3,7.52s-4.339-1.321-5.882-4.693.3-7.52.3-7.52,4.339,1.321,5.881,4.693" transform="translate(10.355 3.299)" fill="#fff"/>
            <path id="Path_16534" data-name="Path 16534" d="M107.538,36.791c1.543,3.373-.3,7.52-.3,7.52s-4.339-1.321-5.882-4.693.3-7.52.3-7.52S106,33.419,107.538,36.791Z" transform="translate(10.355 3.299)" fill="none" stroke="#333" stroke-linecap="round" stroke-miterlimit="10" stroke-width="0.601"/>
            <path id="Path_16535" data-name="Path 16535" d="M99.683,34.673c3.665.568,6.1,4.373,6.1,4.373s-3.5,2.884-7.163,2.316-6.106-4.373-6.106-4.373,3.5-2.884,7.164-2.316" transform="translate(9.509 3.556)" fill="#fff"/>
            <path id="Path_16536" data-name="Path 16536" d="M99.683,34.673c3.665.568,6.1,4.373,6.1,4.373s-3.5,2.884-7.163,2.316-6.106-4.373-6.106-4.373S96.018,34.1,99.683,34.673Z" transform="translate(9.509 3.556)" fill="none" stroke="#333" stroke-linecap="round" stroke-miterlimit="10" stroke-width="0.601"/>
            <path id="Path_16537" data-name="Path 16537" d="M99.592,22.749c2.836,2.38,2.944,6.9,2.944,6.9s-4.487.665-7.324-1.715-2.944-6.9-2.944-6.9,4.488-.665,7.324,1.715" transform="translate(9.483 2.153)" fill="#fff"/>
            <path id="Path_16538" data-name="Path 16538" d="M99.592,22.749c2.836,2.38,2.944,6.9,2.944,6.9s-4.487.665-7.324-1.715-2.944-6.9-2.944-6.9S96.756,20.369,99.592,22.749Z" transform="translate(9.483 2.153)" fill="none" stroke="#333" stroke-linecap="round" stroke-miterlimit="10" stroke-width="0.601"/>
            <path id="Path_16539" data-name="Path 16539" d="M109.925,24.244c.945,3.586-1.573,7.359-1.573,7.359s-4.052-2.04-5-5.626,1.573-7.36,1.573-7.36,4.053,2.041,5,5.627" transform="translate(10.601 1.913)" fill="#fff"/>
            <path id="Path_16540" data-name="Path 16540" d="M109.925,24.244c.945,3.586-1.573,7.359-1.573,7.359s-4.052-2.04-5-5.626,1.573-7.36,1.573-7.36S108.98,20.658,109.925,24.244Z" transform="translate(10.601 1.913)" fill="none" stroke="#333" stroke-linecap="round" stroke-miterlimit="10" stroke-width="0.601"/>
            <g id="Group_5846" data-name="Group 5846" transform="translate(106.952 31.098)" opacity="0.22">
              <g id="Group_5845" data-name="Group 5845">
                <g id="Group_5844" data-name="Group 5844" clip-path="url(#clip-path-7)">
                  <path id="Path_16541" data-name="Path 16541" d="M104.809,28.835c3.519,1.17,5.3,5.342,5.3,5.342s-1.349-1.537-2.618-1.127c-1.45.468-2.95,2.856-4.827,2.232-3.519-1.17-5.3-5.343-5.3-5.343s3.925-2.274,7.444-1.1" transform="translate(-96.945 -28.169)" fill="#333"/>
                  <path id="Path_16542" data-name="Path 16542" d="M104.809,28.835c3.519,1.17,5.3,5.342,5.3,5.342s-1.349-1.537-2.618-1.127c-1.45.468-2.95,2.856-4.827,2.232-3.519-1.17-5.3-5.343-5.3-5.343S101.29,27.665,104.809,28.835Z" transform="translate(-96.945 -28.169)" fill="none" stroke="#333" stroke-linecap="round" stroke-miterlimit="10" stroke-width="0.601"/>
                </g>
              </g>
            </g>
            <path id="Path_16543" data-name="Path 16543" d="M105.689,27.552c3.519,1.17,5.3,5.342,5.3,5.342s-3.925,2.275-7.444,1.1-5.3-5.343-5.3-5.343,3.925-2.274,7.444-1.1" transform="translate(10.098 2.797)" fill="#fff"/>
            <path id="Path_16544" data-name="Path 16544" d="M105.689,27.552c3.519,1.17,5.3,5.342,5.3,5.342s-3.925,2.275-7.444,1.1-5.3-5.343-5.3-5.343S102.17,26.382,105.689,27.552Z" transform="translate(10.098 2.797)" fill="none" stroke="#333" stroke-linecap="round" stroke-miterlimit="10" stroke-width="0.601"/>
            <path id="Path_16545" data-name="Path 16545" d="M110.063,16.487c3.7.216,6.505,3.783,6.505,3.783s-3.2,3.216-6.9,3-6.508-3.781-6.508-3.781,3.2-3.217,6.9-3" transform="translate(10.603 1.693)" fill="#fff"/>
            <path id="Path_16546" data-name="Path 16546" d="M110.063,16.487c3.7.216,6.505,3.783,6.505,3.783s-3.2,3.216-6.9,3-6.508-3.781-6.508-3.781S106.361,16.271,110.063,16.487Z" transform="translate(10.603 1.693)" fill="none" stroke="#333" stroke-linecap="round" stroke-miterlimit="10" stroke-width="0.601"/>
            <path id="Path_16547" data-name="Path 16547" d="M107.076,10.327c3.529,1.141,5.344,5.3,5.344,5.3s-3.906,2.306-7.435,1.166-5.344-5.3-5.344-5.3,3.906-2.307,7.435-1.166" transform="translate(10.241 1.029)" fill="#fff"/>
            <path id="Path_16548" data-name="Path 16548" d="M107.076,10.327c3.529,1.141,5.344,5.3,5.344,5.3s-3.906,2.306-7.435,1.166-5.344-5.3-5.344-5.3S103.547,9.185,107.076,10.327Z" transform="translate(10.241 1.029)" fill="none" stroke="#333" stroke-linecap="round" stroke-miterlimit="10" stroke-width="0.601"/>
            <path id="Path_16549" data-name="Path 16549" d="M133.413,16.624c-1.874,3.2-.46,7.512-.46,7.512s4.45-.879,6.323-4.08.461-7.511.461-7.511-4.451.879-6.324,4.079" transform="translate(13.612 1.289)" fill="#fff"/>
            <path id="Path_16550" data-name="Path 16550" d="M133.413,16.624c-1.874,3.2-.46,7.512-.46,7.512s4.45-.879,6.323-4.08.461-7.511.461-7.511S135.286,13.424,133.413,16.624Z" transform="translate(13.612 1.289)" fill="none" stroke="#333" stroke-linecap="round" stroke-miterlimit="10" stroke-width="0.601"/>
            <path id="Path_16551" data-name="Path 16551" d="M124.325,22.16c-3.4,1.47-4.818,5.781-4.818,5.781s4.106,1.927,7.511.457,4.819-5.781,4.819-5.781-4.108-1.927-7.512-.457" transform="translate(12.283 2.221)" fill="#fff"/>
            <path id="Path_16552" data-name="Path 16552" d="M124.325,22.16c-3.4,1.47-4.818,5.781-4.818,5.781s4.106,1.927,7.511.457,4.819-5.781,4.819-5.781S127.729,20.69,124.325,22.16Z" transform="translate(12.283 2.221)" fill="none" stroke="#333" stroke-linecap="round" stroke-miterlimit="10" stroke-width="0.601"/>
            <path id="Path_16553" data-name="Path 16553" d="M131.943,23.785c-2.214,2.975-1.285,7.415-1.285,7.415s4.52-.384,6.735-3.358,1.285-7.415,1.285-7.415-4.52.383-6.735,3.358" transform="translate(13.409 2.1)" fill="#fff"/>
            <path id="Path_16554" data-name="Path 16554" d="M131.943,23.785c-2.214,2.975-1.285,7.415-1.285,7.415s4.52-.384,6.735-3.358,1.285-7.415,1.285-7.415S134.157,20.81,131.943,23.785Z" transform="translate(13.409 2.1)" fill="none" stroke="#333" stroke-linecap="round" stroke-miterlimit="10" stroke-width="0.601"/>
            <path id="Path_16555" data-name="Path 16555" d="M122.366,41.879l1.253,1.471.471,42.133h-4.444L120.1,49.6s-.389-11.957-.067-10.453L121.7,41.1" transform="translate(12.297 4.01)" fill="#f2f2f2"/>
            <path id="Path_16556" data-name="Path 16556" d="M122.366,41.879l1.253,1.471.471,42.133h-4.444L120.1,49.6s-.389-11.957-.067-10.453L121.7,41.1" transform="translate(12.297 4.01)" fill="none" stroke="#333" stroke-linecap="round" stroke-miterlimit="10" stroke-width="0.601"/>
            <path id="Path_16557" data-name="Path 16557" d="M122.783,56.083l7.423-11.3,6.43-9.907,2.05,1.625-15.6,23.258" transform="translate(12.62 3.585)" fill="#f2f2f2"/>
            <path id="Path_16558" data-name="Path 16558" d="M122.783,56.083l7.423-11.3,6.43-9.907,2.05,1.625-15.6,23.258" transform="translate(12.62 3.585)" fill="none" stroke="#333" stroke-linecap="round" stroke-miterlimit="10" stroke-width="0.601"/>
            <path id="Path_16559" data-name="Path 16559" d="M121.254,61.649l-8.137-12.938a6.459,6.459,0,0,1-.339-4.729l2.4-7.633,3.758-7.086,4.055-11.033,2.2.88-4.132,11.208-3.737,7.046-2.011,6.448a6.459,6.459,0,0,0,.337,4.706L121.505,57" transform="translate(11.561 1.874)" fill="#f2f2f2"/>
            <path id="Path_16560" data-name="Path 16560" d="M121.254,61.649l-8.137-12.938a6.459,6.459,0,0,1-.339-4.729l2.4-7.633,3.758-7.086,4.055-11.033,2.2.88-4.132,11.208-3.737,7.046-2.011,6.448a6.459,6.459,0,0,0,.337,4.706L121.505,57" transform="translate(11.561 1.874)" fill="none" stroke="#333" stroke-linecap="round" stroke-miterlimit="10" stroke-width="0.601"/>
            <path id="Path_16561" data-name="Path 16561" d="M128.864,36.492c-3.109,2.021-7.481.814-7.481.814s.668-4.487,3.777-6.509,7.482-.813,7.482-.813-.669,4.487-3.778,6.508" transform="translate(12.476 3.045)" fill="#fff"/>
            <path id="Path_16562" data-name="Path 16562" d="M128.864,36.492c-3.109,2.021-7.481.814-7.481.814s.668-4.487,3.777-6.509,7.482-.813,7.482-.813S131.973,34.472,128.864,36.492Z" transform="translate(12.476 3.045)" fill="none" stroke="#333" stroke-linecap="round" stroke-miterlimit="10" stroke-width="0.601"/>
            <path id="Path_16563" data-name="Path 16563" d="M105.728,38.332c3.7-.25,7.078,2.561,7.078,2.561s-2.574,3.736-6.255,4.184-7.077-2.561-7.077-2.561c.395-.425,2.77-3.947,6.254-4.184" transform="translate(10.224 3.938)" fill="#fff"/>
            <path id="Path_16564" data-name="Path 16564" d="M105.728,38.332c3.7-.25,7.078,2.561,7.078,2.561s-2.574,3.736-6.255,4.184-7.077-2.561-7.077-2.561C99.869,42.092,102.244,38.57,105.728,38.332Z" transform="translate(10.224 3.938)" fill="none" stroke="#333" stroke-linecap="round" stroke-miterlimit="10" stroke-width="0.601"/>
            <path id="Path_16565" data-name="Path 16565" d="M107.1,43.574c3.044-2.118,7.448-1.059,7.448-1.059s-.532,4.5-3.575,6.614-7.447,1.059-7.447,1.059.53-4.5,3.574-6.614" transform="translate(10.641 4.343)" fill="#fff"/>
            <path id="Path_16566" data-name="Path 16566" d="M107.1,43.574c3.044-2.118,7.448-1.059,7.448-1.059s-.532,4.5-3.575,6.614-7.447,1.059-7.447,1.059S104.056,45.693,107.1,43.574Z" transform="translate(10.641 4.343)" fill="none" stroke="#333" stroke-linecap="round" stroke-miterlimit="10" stroke-width="0.601"/>
            <path id="Path_16567" data-name="Path 16567" d="M110.543,35.95c3.486,1.267,5.15,5.487,5.15,5.487s-3.985,2.166-7.471.9-5.15-5.487-5.15-5.487,3.985-2.166,7.471-.9" transform="translate(10.594 3.654)" fill="#fff"/>
            <path id="Path_16568" data-name="Path 16568" d="M110.543,35.95c3.486,1.267,5.15,5.487,5.15,5.487s-3.985,2.166-7.471.9-5.15-5.487-5.15-5.487S107.057,34.683,110.543,35.95Z" transform="translate(10.594 3.654)" fill="none" stroke="#333" stroke-linecap="round" stroke-miterlimit="10" stroke-width="0.601"/>
            <g id="Group_5849" data-name="Group 5849" transform="translate(115.151 21.517)" opacity="0.22">
              <g id="Group_5848" data-name="Group 5848">
                <g id="Group_5847" data-name="Group 5847" clip-path="url(#clip-path-8)">
                  <path id="Path_16569" data-name="Path 16569" d="M112.258,20.183c3.5,1.227,5.213,5.428,5.213,5.428s-3.962,2.21-7.461.983-5.213-5.427-5.213-5.427,3.961-2.211,7.461-.984" transform="translate(-104.38 -19.481)" fill="#333"/>
                  <path id="Path_16570" data-name="Path 16570" d="M112.258,20.183c3.5,1.227,5.213,5.428,5.213,5.428s-3.962,2.21-7.461.983-5.213-5.427-5.213-5.427S108.758,18.955,112.258,20.183Z" transform="translate(-104.38 -19.481)" fill="none" stroke="#333" stroke-linecap="round" stroke-miterlimit="10" stroke-width="0.601"/>
                </g>
              </g>
            </g>
            <path id="Path_16571" data-name="Path 16571" d="M122.98,32.352C122.9,36.064,119.441,39,119.441,39s-3.33-3.083-3.252-6.8,3.54-6.649,3.54-6.649,3.33,3.083,3.251,6.8" transform="translate(11.942 2.627)" fill="#fff"/>
            <path id="Path_16572" data-name="Path 16572" d="M122.98,32.352C122.9,36.064,119.441,39,119.441,39s-3.33-3.083-3.252-6.8,3.54-6.649,3.54-6.649S123.059,28.639,122.98,32.352Z" transform="translate(11.942 2.627)" fill="none" stroke="#333" stroke-linecap="round" stroke-miterlimit="10" stroke-width="0.601"/>
            <g id="Group_5852" data-name="Group 5852" transform="translate(132.585 12.539)" opacity="0.22">
              <g id="Group_5851" data-name="Group 5851">
                <g id="Group_5850" data-name="Group 5850" clip-path="url(#clip-path-9)">
                  <path id="Path_16573" data-name="Path 16573" d="M127.873,18.669c-2.853,2.37-7.336,1.678-7.336,1.678s.141-4.535,2.994-6.9,7.336-1.677,7.336-1.677-.142,4.534-2.994,6.9" transform="translate(-120.196 -11.34)" fill="#333"/>
                  <path id="Path_16574" data-name="Path 16574" d="M127.873,18.669c-2.853,2.37-7.336,1.678-7.336,1.678s.141-4.535,2.994-6.9,7.336-1.677,7.336-1.677S130.724,16.3,127.873,18.669Z" transform="translate(-120.196 -11.34)" fill="none" stroke="#333" stroke-linecap="round" stroke-miterlimit="10" stroke-width="0.601"/>
                </g>
              </g>
            </g>
            <path id="Path_16575" data-name="Path 16575" d="M127.968,20.928c-2.834,2.392-7.322,1.735-7.322,1.735s.107-4.535,2.941-6.927S130.91,14,130.91,14s-.107,4.535-2.941,6.927" transform="translate(12.4 1.431)" fill="#fff"/>
            <path id="Path_16576" data-name="Path 16576" d="M127.968,20.928c-2.834,2.392-7.322,1.735-7.322,1.735s.107-4.535,2.941-6.927S130.91,14,130.91,14,130.8,18.536,127.968,20.928Z" transform="translate(12.4 1.431)" fill="none" stroke="#333" stroke-linecap="round" stroke-miterlimit="10" stroke-width="0.601"/>
            <path id="Path_16577" data-name="Path 16577" d="M127.418,81.943V80.395a5.436,5.436,0,0,0-5.436-5.436H118.63a5.436,5.436,0,0,0-5.436,5.436V82.12" transform="translate(11.634 7.704)" fill="#e2e2e2"/>
            <path id="Path_16578" data-name="Path 16578" d="M127.418,81.943V80.395a5.436,5.436,0,0,0-5.436-5.436H118.63a5.436,5.436,0,0,0-5.436,5.436V82.12" transform="translate(11.634 7.704)" fill="none" stroke="#333" stroke-linecap="round" stroke-miterlimit="10" stroke-width="0.601"/>
            <path id="Path_16579" data-name="Path 16579" d="M118.755,81.816h-9.666a4.346,4.346,0,0,1,4.346-4.346h.974a4.32,4.32,0,0,1,1.692.342" transform="translate(11.212 7.962)" fill="#e2e2e2"/>
            <path id="Path_16580" data-name="Path 16580" d="M118.755,81.816h-9.666a4.346,4.346,0,0,1,4.346-4.346h.974a4.32,4.32,0,0,1,1.692.342" transform="translate(11.212 7.962)" fill="none" stroke="#333" stroke-linecap="round" stroke-miterlimit="10" stroke-width="0.601"/>
            <path id="Path_16581" data-name="Path 16581" d="M118.567,77.853a6.2,6.2,0,0,1,4.667-2.111h1.83a6.215,6.215,0,0,1,6.214,6.215H117.02" transform="translate(12.027 7.785)" fill="#e2e2e2"/>
            <path id="Path_16582" data-name="Path 16582" d="M118.567,77.853a6.2,6.2,0,0,1,4.667-2.111h1.83a6.215,6.215,0,0,1,6.214,6.215H117.02" transform="translate(12.027 7.785)" fill="none" stroke="#333" stroke-linecap="round" stroke-miterlimit="10" stroke-width="0.601"/>
            <path id="Path_16583" data-name="Path 16583" d="M126.154,78.892a4.576,4.576,0,0,1,3.515-1.64H130.7a4.586,4.586,0,0,1,4.586,4.585h-10.2" transform="translate(12.856 7.94)" fill="#e2e2e2"/>
            <path id="Path_16584" data-name="Path 16584" d="M126.154,78.892a4.576,4.576,0,0,1,3.515-1.64H130.7a4.586,4.586,0,0,1,4.586,4.585h-10.2" transform="translate(12.856 7.94)" fill="none" stroke="#333" stroke-linecap="round" stroke-miterlimit="10" stroke-width="0.601"/>
            <path id="Path_16585" data-name="Path 16585" d="M19.168,56.3c.911,5.216-2.029,6.334-1.7,11.965" transform="translate(1.793 5.786)" fill="none" stroke="#333" stroke-linecap="round" stroke-miterlimit="10" stroke-width="0.601"/>
            <path id="Path_16586" data-name="Path 16586" d="M17.613,58.513l1.671.707c1.654.695,3.77-.622,4.728-2.941s.394-4.765-1.26-5.461l-1.671-.707Z" transform="translate(1.81 5.15)" fill="#0e6877"/>
            <path id="Path_16587" data-name="Path 16587" d="M17.613,58.513l1.671.707c1.654.695,3.77-.622,4.728-2.941s.394-4.765-1.26-5.461l-1.671-.707Z" transform="translate(1.81 5.15)" fill="none" stroke="#333" stroke-linecap="round" stroke-miterlimit="10" stroke-width="0.601"/>
            <path id="Path_16588" data-name="Path 16588" d="M21.1,50.069c1.653.695,2.218,3.14,1.26,5.46s-3.075,3.637-4.728,2.941-2.218-3.14-1.26-5.46,3.075-3.637,4.728-2.941" transform="translate(1.635 5.127)" fill="#00b6ed"/>
            <path id="Path_16589" data-name="Path 16589" d="M21.1,50.069c1.653.695,2.218,3.14,1.26,5.46s-3.075,3.637-4.728,2.941-2.218-3.14-1.26-5.46S19.444,49.373,21.1,50.069Z" transform="translate(1.635 5.127)" fill="none" stroke="#333" stroke-miterlimit="10" stroke-width="0.601"/>
            <path id="Path_16590" data-name="Path 16590" d="M15.936,63.558l1.193-1.016c.923-.82.309-3-1.371-4.862s-3.79-2.712-4.713-1.89L9.852,56.8Z" transform="translate(1.013 5.702)" fill="#0e6877"/>
            <path id="Path_16591" data-name="Path 16591" d="M15.936,63.558l1.193-1.016c.923-.82.309-3-1.371-4.862s-3.79-2.712-4.713-1.89L9.852,56.8Z" transform="translate(1.013 5.702)" fill="none" stroke="#333" stroke-linecap="round" stroke-miterlimit="10" stroke-width="0.601"/>
            <path id="Path_16592" data-name="Path 16592" d="M9.6,57.017c.923-.822,3.034.025,4.713,1.89s2.294,4.042,1.371,4.863-3.033-.026-4.713-1.891S8.673,57.838,9.6,57.017" transform="translate(0.942 5.828)" fill="#00b6ed"/>
            <path id="Path_16593" data-name="Path 16593" d="M9.6,57.017c.923-.822,3.034.025,4.713,1.89s2.294,4.042,1.371,4.863-3.033-.026-4.713-1.891S8.673,57.838,9.6,57.017Z" transform="translate(0.942 5.828)" fill="none" stroke="#333" stroke-miterlimit="10" stroke-width="0.601"/>
            <path id="Path_16594" data-name="Path 16594" d="M63.093,48.7c-1.034-2.907-3.679-5-4.889-6.215a.2.2,0,0,1,.243-.318C59.8,42.941,64.1,44.6,65.069,48" transform="translate(5.976 4.331)" fill="#fff"/>
            <path id="Path_16595" data-name="Path 16595" d="M63.093,48.7c-1.034-2.907-3.679-5-4.889-6.215a.2.2,0,0,1,.243-.318C59.8,42.941,64.1,44.6,65.069,48" transform="translate(5.976 4.331)" fill="none" stroke="#333" stroke-linecap="round" stroke-miterlimit="10" stroke-width="0.601"/>
            <path id="Path_16596" data-name="Path 16596" d="M59.759,43.6c-3.013,1.344-7.364-.442-7.517-6.492a10.53,10.53,0,0,1,3.28.183,5.893,5.893,0,0,1,4.561,4.686c.132,1.793-.311,1.618-.324,1.623" transform="translate(5.369 3.809)" fill="#fff"/>
            <path id="Path_16597" data-name="Path 16597" d="M59.759,43.6c-3.013,1.344-7.364-.442-7.517-6.492a10.53,10.53,0,0,1,3.28.183,5.893,5.893,0,0,1,4.561,4.686C60.215,43.772,59.772,43.6,59.759,43.6Z" transform="translate(5.369 3.809)" fill="none" stroke="#333" stroke-linecap="round" stroke-miterlimit="10" stroke-width="0.601"/>
            <path id="Path_16598" data-name="Path 16598" d="M73.658,54.256c1.838-2.792.77-6.74.77-6.74s-4.048.581-5.887,3.373-.769,6.74-.769,6.74" transform="translate(6.934 4.884)" fill="#fff"/>
            <path id="Path_16599" data-name="Path 16599" d="M73.658,54.256c1.838-2.792.77-6.74.77-6.74s-4.048.581-5.887,3.373-.769,6.74-.769,6.74" transform="translate(6.934 4.884)" fill="none" stroke="#333" stroke-linecap="round" stroke-miterlimit="10" stroke-width="0.601"/>
            <path id="Path_16600" data-name="Path 16600" d="M60.882,57.193c2.378-2.129,6.249-1.685,6.249-1.685s.019,3.9-2.359,6.026-6.249,1.685-6.249,1.685-.019-3.9,2.359-6.026" transform="translate(6.015 5.701)" fill="#fff"/>
            <path id="Path_16601" data-name="Path 16601" d="M60.882,57.193c2.378-2.129,6.249-1.685,6.249-1.685s.019,3.9-2.359,6.026-6.249,1.685-6.249,1.685S58.5,59.322,60.882,57.193Z" transform="translate(6.015 5.701)" fill="none" stroke="#333" stroke-linecap="round" stroke-miterlimit="10" stroke-width="0.601"/>
            <path id="Path_16602" data-name="Path 16602" d="M62.476,47.778,63.7,52.135,66.769,59.5l1.374,6.77a49.948,49.948,0,0,1,.4,6.127l2.364.745c-.054-1.191-.128-6.485-.228-6.774l-1.622-7.416a2.922,2.922,0,0,0-.159-.508l-2.982-7.157L64.5,47.135" transform="translate(6.421 4.845)" fill="#fff"/>
            <path id="Path_16603" data-name="Path 16603" d="M62.476,47.778,63.7,52.135,66.769,59.5l1.374,6.77a49.948,49.948,0,0,1,.4,6.127l2.364.745c-.054-1.191-.128-6.485-.228-6.774l-1.622-7.416a2.922,2.922,0,0,0-.159-.508l-2.982-7.157L64.5,47.135" transform="translate(6.421 4.845)" fill="none" stroke="#333" stroke-miterlimit="10" stroke-width="0.601"/>
            <path id="Path_16604" data-name="Path 16604" d="M70.344,69.879c.235,5.194.094,10.116.094,10.116l-2.362-1.57s.017-3.978-.133-9.241" transform="translate(6.983 7.111)" fill="#f2f2f2"/>
            <path id="Path_16605" data-name="Path 16605" d="M70.344,69.879c.235,5.194.094,10.116.094,10.116l-2.362-1.57s.017-3.978-.133-9.241" transform="translate(6.983 7.111)" fill="none" stroke="#333" stroke-miterlimit="10" stroke-width="0.601"/>
            <path id="Path_16606" data-name="Path 16606" d="M66.61,46.624c-1.656,2.963-.3,6.907-.3,6.907s4.045-.86,5.7-3.823.3-6.906.3-6.906-4.045.859-5.7,3.822" transform="translate(6.762 4.399)" fill="#fff"/>
            <path id="Path_16607" data-name="Path 16607" d="M66.61,46.624c-1.656,2.963-.3,6.907-.3,6.907s4.045-.86,5.7-3.823.3-6.906.3-6.906S68.265,43.661,66.61,46.624Z" transform="translate(6.762 4.399)" fill="none" stroke="#333" stroke-linecap="round" stroke-miterlimit="10" stroke-width="0.601"/>
            <path id="Path_16608" data-name="Path 16608" d="M71.51,81.478h0a3.986,3.986,0,0,0-3.987-3.985H66.037a3.985,3.985,0,0,0-3.984,3.985" transform="translate(6.378 7.965)" fill="#e2e2e2"/>
            <path id="Path_16609" data-name="Path 16609" d="M71.51,81.478h0a3.986,3.986,0,0,0-3.987-3.985H66.037a3.985,3.985,0,0,0-3.984,3.985" transform="translate(6.378 7.965)" fill="none" stroke="#333" stroke-linecap="round" stroke-miterlimit="10" stroke-width="0.601"/>
            <path id="Path_16610" data-name="Path 16610" d="M67.925,79.046c.674-1.774,3.469-3.1,5.33-3.1H74.42a6.215,6.215,0,0,1,6.215,6.215H61.919" transform="translate(6.364 7.806)" fill="#e2e2e2"/>
            <path id="Path_16611" data-name="Path 16611" d="M67.925,79.046c.674-1.774,3.469-3.1,5.33-3.1H74.42a6.215,6.215,0,0,1,6.215,6.215H61.919" transform="translate(6.364 7.806)" fill="none" stroke="#333" stroke-linecap="round" stroke-miterlimit="10" stroke-width="0.601"/>
            <path id="Path_16612" data-name="Path 16612" d="M69.542,70.943a31.018,31.018,0,0,1,4.98-6.487.2.2,0,0,0-.243-.316,17.053,17.053,0,0,0-4.893,3.946" transform="translate(7.132 6.589)" fill="#fff"/>
            <path id="Path_16613" data-name="Path 16613" d="M69.542,70.943a31.018,31.018,0,0,1,4.98-6.487.2.2,0,0,0-.243-.316,17.053,17.053,0,0,0-4.893,3.946" transform="translate(7.132 6.589)" fill="none" stroke="#333" stroke-linecap="round" stroke-miterlimit="10" stroke-width="0.601"/>
            <path id="Path_16614" data-name="Path 16614" d="M73.219,65.574c3.015,1.34,7.363-.454,7.507-6.5a10.518,10.518,0,0,0-3.281.189,5.9,5.9,0,0,0-4.553,4.693c-.128,1.793.314,1.617.328,1.622" transform="translate(7.489 6.066)" fill="#fff"/>
            <path id="Path_16615" data-name="Path 16615" d="M73.219,65.574c3.015,1.34,7.363-.454,7.507-6.5a10.518,10.518,0,0,0-3.281.189,5.9,5.9,0,0,0-4.553,4.693C72.763,65.744,73.205,65.568,73.219,65.574Z" transform="translate(7.489 6.066)" fill="none" stroke="#333" stroke-linecap="round" stroke-miterlimit="10" stroke-width="0.601"/>
            <path id="Path_16616" data-name="Path 16616" d="M71.661,43.366c-2.05,1.409-4.338,4.708-5.262,9.89" transform="translate(6.825 4.457)" fill="none" stroke="#333" stroke-linecap="round" stroke-miterlimit="10" stroke-width="0.601"/>
            <path id="Path_16617" data-name="Path 16617" d="M68.739,45.455l1.071,1.464c1.062,1.446,3.554,1.4,5.567-.1S78.16,42.936,77.1,41.49l-1.071-1.464Z" transform="translate(7.065 4.114)" fill="#0e6877"/>
            <path id="Path_16618" data-name="Path 16618" d="M68.739,45.455l1.071,1.464c1.062,1.446,3.554,1.4,5.567-.1S78.16,42.936,77.1,41.49l-1.071-1.464Z" transform="translate(7.065 4.114)" fill="none" stroke="#333" stroke-linecap="round" stroke-miterlimit="10" stroke-width="0.601"/>
            <path id="Path_16619" data-name="Path 16619" d="M75.98,40c1.06,1.446.291,3.833-1.724,5.332s-4.5,1.544-5.566.1-.291-3.833,1.721-5.333,4.5-1.543,5.568-.1" transform="translate(7.011 4.002)" fill="#00b6ed"/>
            <path id="Path_16620" data-name="Path 16620" d="M75.98,40c1.06,1.446.291,3.833-1.724,5.332s-4.5,1.544-5.566.1-.291-3.833,1.721-5.333S74.917,38.552,75.98,40Z" transform="translate(7.011 4.002)" fill="none" stroke="#333" stroke-miterlimit="10" stroke-width="0.601"/>
            <path id="Path_16621" data-name="Path 16621" d="M58.651,48.615c2.328.879,5.546,3.216,7.681,8.026" transform="translate(6.028 4.997)" fill="none" stroke="#333" stroke-linecap="round" stroke-miterlimit="10" stroke-width="0.601"/>
            <path id="Path_16622" data-name="Path 16622" d="M62.252,49.9l-.689,1.677c-.687,1.657-3.118,2.211-5.43,1.236s-3.63-3.11-2.946-4.767l.69-1.677Z" transform="translate(5.448 4.766)" fill="#0e6877"/>
            <path id="Path_16623" data-name="Path 16623" d="M62.252,49.9l-.689,1.677c-.687,1.657-3.118,2.211-5.43,1.236s-3.63-3.11-2.946-4.767l.69-1.677Z" transform="translate(5.448 4.766)" fill="none" stroke="#333" stroke-linecap="round" stroke-miterlimit="10" stroke-width="0.601"/>
            <path id="Path_16624" data-name="Path 16624" d="M53.873,46.384c-.686,1.657.633,3.791,2.946,4.766s4.743.423,5.429-1.234-.633-3.792-2.946-4.767-4.743-.422-5.429,1.235" transform="translate(5.518 4.591)" fill="#00b6ed"/>
            <path id="Path_16625" data-name="Path 16625" d="M53.873,46.384c-.686,1.657.633,3.791,2.946,4.766s4.743.423,5.429-1.234-.633-3.792-2.946-4.767S54.559,44.727,53.873,46.384Z" transform="translate(5.518 4.591)" fill="none" stroke="#333" stroke-miterlimit="10" stroke-width="0.601"/>
            <path id="Path_16626" data-name="Path 16626" d="M72.489,49.153a13.075,13.075,0,0,0-3.795,10.1" transform="translate(7.059 5.052)" fill="none" stroke="#333" stroke-linecap="round" stroke-miterlimit="10" stroke-width="0.601"/>
            <path id="Path_16627" data-name="Path 16627" d="M70.114,51.879l1.369,1.191c1.356,1.174,3.777.58,5.407-1.328s1.854-4.407.5-5.581l-1.37-1.191Z" transform="translate(7.206 4.622)" fill="#0e6877"/>
            <path id="Path_16628" data-name="Path 16628" d="M70.114,51.879l1.369,1.191c1.356,1.174,3.777.58,5.407-1.328s1.854-4.407.5-5.581l-1.37-1.191Z" transform="translate(7.206 4.622)" fill="none" stroke="#333" stroke-linecap="round" stroke-miterlimit="10" stroke-width="0.601"/>
            <path id="Path_16629" data-name="Path 16629" d="M75.982,44.924c1.355,1.174,1.133,3.673-.5,5.581s-4.052,2.5-5.407,1.328-1.133-3.673.5-5.581,4.052-2.5,5.407-1.328" transform="translate(7.112 4.555)" fill="#00b6ed"/>
            <path id="Path_16630" data-name="Path 16630" d="M75.982,44.924c1.355,1.174,1.133,3.673-.5,5.581s-4.052,2.5-5.407,1.328-1.133-3.673.5-5.581S74.627,43.75,75.982,44.924Z" transform="translate(7.112 4.555)" fill="none" stroke="#333" stroke-miterlimit="10" stroke-width="0.601"/>
            <path id="Path_16631" data-name="Path 16631" d="M62.617,40.486c-.114.666-.915,1.233-.253,1.363l1.587.137c1.216.213,2.54-1.621,2.957-4.1s-.234-4.655-1.449-4.868l-2.029-.33c-.689-.136.395.6.279,1.292Z" transform="translate(6.383 3.359)" fill="#0e6877"/>
            <path id="Path_16632" data-name="Path 16632" d="M62.617,40.486c-.114.666-.915,1.233-.253,1.363l1.587.137c1.216.213,2.54-1.621,2.957-4.1s-.234-4.655-1.449-4.868l-2.029-.33c-.689-.136.395.6.279,1.292Z" transform="translate(6.383 3.359)" fill="none" stroke="#333" stroke-linecap="round" stroke-miterlimit="10" stroke-width="0.601"/>
            <path id="Path_16633" data-name="Path 16633" d="M63.614,32.676c1.216.213,1.866,2.392,1.449,4.868s-1.739,4.309-2.955,4.1-1.866-2.392-1.45-4.867,1.739-4.31,2.957-4.1" transform="translate(6.222 3.357)" fill="#00b6ed"/>
            <path id="Path_16634" data-name="Path 16634" d="M63.614,32.676c1.216.213,1.866,2.392,1.449,4.868s-1.739,4.309-2.955,4.1-1.866-2.392-1.45-4.867S62.4,32.463,63.614,32.676Z" transform="translate(6.222 3.357)" fill="none" stroke="#333" stroke-miterlimit="10" stroke-width="0.601"/>
            <path id="Path_16635" data-name="Path 16635" d="M74.829,57.4c-2.774,1.867-6.731.84-6.731.84s.538-4.055,3.312-5.921,6.732-.841,6.732-.841S77.6,55.537,74.829,57.4" transform="translate(6.999 5.262)" fill="#fff"/>
            <path id="Path_16636" data-name="Path 16636" d="M74.829,57.4c-2.774,1.867-6.731.84-6.731.84s.538-4.055,3.312-5.921,6.732-.841,6.732-.841S77.6,55.537,74.829,57.4Z" transform="translate(6.999 5.262)" fill="none" stroke="#333" stroke-linecap="round" stroke-linejoin="round" stroke-width="0.601"/>
            <path id="Path_16637" data-name="Path 16637" d="M61.424,51.783c3.6.9,5.687,4.944,5.687,4.944S63.372,59.3,59.776,58.4s-5.687-4.945-5.687-4.945,3.738-2.575,7.335-1.672" transform="translate(5.559 5.303)" fill="#fff"/>
            <path id="Path_16638" data-name="Path 16638" d="M61.424,51.783c3.6.9,5.687,4.944,5.687,4.944S63.372,59.3,59.776,58.4s-5.687-4.945-5.687-4.945S57.827,50.88,61.424,51.783Z" transform="translate(5.559 5.303)" fill="none" stroke="#333" stroke-linecap="round" stroke-miterlimit="10" stroke-width="0.601"/>
            <path id="Path_16639" data-name="Path 16639" d="M138.6,41.665c2.444,2.773,1.869,7.275,1.869,7.275s-4.535.007-6.978-2.766-1.87-7.275-1.87-7.275,4.536-.007,6.98,2.766" transform="translate(13.522 3.998)" fill="#fff"/>
            <path id="Path_16640" data-name="Path 16640" d="M138.6,41.665c2.444,2.773,1.869,7.275,1.869,7.275s-4.535.007-6.978-2.766-1.87-7.275-1.87-7.275S136.156,38.892,138.6,41.665Z" transform="translate(13.522 3.998)" fill="none" stroke="#333" stroke-linecap="round" stroke-miterlimit="10" stroke-width="0.601"/>
            <path id="Path_16641" data-name="Path 16641" d="M62.922,42.015c-1.274,3.132.564,6.837.564,6.837s3.9-1.373,5.174-4.5-.564-6.836-.564-6.836-3.9,1.372-5.174,4.5" transform="translate(6.421 3.855)" fill="#fff"/>
            <path id="Path_16642" data-name="Path 16642" d="M62.922,42.015c-1.274,3.132.564,6.837.564,6.837s3.9-1.373,5.174-4.5-.564-6.836-.564-6.836S64.195,38.883,62.922,42.015Z" transform="translate(6.421 3.855)" fill="none" stroke="#333" stroke-linecap="round" stroke-miterlimit="10" stroke-width="0.601"/>
            <path id="Path_16643" data-name="Path 16643" d="M115.346,24.829a6.424,6.424,0,0,1-.729.044,4.419,4.419,0,0,1-2.281-.583,4.052,4.052,0,0,1-1.844-2.569,4.525,4.525,0,0,1-.149-1.7,3.989,3.989,0,0,1,.479-1.456,5.466,5.466,0,0,1,1.009-1.268,15.53,15.53,0,0,1,1.748-1.378,4.9,4.9,0,0,0,1.4-1.317,1.519,1.519,0,0,0,.124-1.222,1.632,1.632,0,0,0-.739-1.09,1.43,1.43,0,0,0-.712-.174,2.451,2.451,0,0,0-.614.087,1.5,1.5,0,0,0-1.07.9,2.827,2.827,0,0,0-.023,1.835l.085.32-2.964.786-.085-.321a5.357,5.357,0,0,1,.118-3.515,4.189,4.189,0,0,1,2.121-2.158l-.572-2.163,2.177-.578.566,2.136c.191-.019.378-.028.56-.028a4.329,4.329,0,0,1,2.322.633,4.126,4.126,0,0,1,1.811,2.562,4.285,4.285,0,0,1-1.391,4.474,14.517,14.517,0,0,1-1.712,1.322,4.448,4.448,0,0,0-1.374,1.308,1.592,1.592,0,0,0-.129,1.24A1.551,1.551,0,0,0,114.251,22a1.63,1.63,0,0,0,.772.174,3.141,3.141,0,0,0,.794-.115,1.978,1.978,0,0,0,1.341-.954,2.456,2.456,0,0,0,.086-1.8l-.084-.32,2.974-.788.084.32a4.927,4.927,0,0,1-.237,3.56,4.754,4.754,0,0,1-2.466,2.186l.5,1.9-2.168.576Z" transform="translate(11.176 0.751)" fill="#00b6ed"/>
            <path id="Path_16644" data-name="Path 16644" d="M112.613,7.749l.555,2.094a5.536,5.536,0,0,1,.805-.061,3.994,3.994,0,0,1,2.149.582,3.8,3.8,0,0,1,1.665,2.367,3.959,3.959,0,0,1-1.3,4.146,13.893,13.893,0,0,1-1.673,1.291,4.7,4.7,0,0,0-1.474,1.418,1.922,1.922,0,0,0-.161,1.488,1.877,1.877,0,0,0,.943,1.251,1.947,1.947,0,0,0,.927.213,3.459,3.459,0,0,0,.879-.126,2.3,2.3,0,0,0,1.548-1.119,2.759,2.759,0,0,0,.115-2.035l2.335-.619a4.594,4.594,0,0,1-.214,3.326,4.54,4.54,0,0,1-2.564,2.138l.493,1.864-1.527.4-.5-1.873a6.326,6.326,0,0,1-.974.079,4.077,4.077,0,0,1-2.114-.537,3.713,3.713,0,0,1-1.691-2.369,4.163,4.163,0,0,1-.14-1.577,3.613,3.613,0,0,1,.438-1.333,5.1,5.1,0,0,1,.948-1.192,15.373,15.373,0,0,1,1.709-1.348,5.182,5.182,0,0,0,1.491-1.418,1.856,1.856,0,0,0,.159-1.476,1.959,1.959,0,0,0-.9-1.294,1.764,1.764,0,0,0-.874-.217,2.718,2.718,0,0,0-.7.1A1.831,1.831,0,0,0,111.687,13a3.136,3.136,0,0,0-.037,2.051l-2.324.615a5.015,5.015,0,0,1,.1-3.3,3.93,3.93,0,0,1,2.209-2.1l-.56-2.114,1.537-.407m.471-.811-.641.17-1.537.407-.64.17.17.641.419,1.585a4.455,4.455,0,0,0-2.038,2.2,5.681,5.681,0,0,0-.132,3.73l.17.641.641-.17,2.324-.616.641-.169-.17-.641a2.514,2.514,0,0,1,.007-1.621,1.173,1.173,0,0,1,.85-.706,2.04,2.04,0,0,1,.529-.077,1.107,1.107,0,0,1,.552.132,1.326,1.326,0,0,1,.579.886,1.2,1.2,0,0,1-.088.967,4.437,4.437,0,0,1-1.3,1.214,15.735,15.735,0,0,0-1.785,1.409,5.792,5.792,0,0,0-1.071,1.348,4.3,4.3,0,0,0-.517,1.576,4.826,4.826,0,0,0,.157,1.83,4.369,4.369,0,0,0,1.995,2.769,4.743,4.743,0,0,0,2.45.63c.157,0,.316-.007.48-.018l.348,1.318.17.641.641-.17,1.527-.4.641-.17-.17-.641-.348-1.312a4.967,4.967,0,0,0,2.37-2.222,5.252,5.252,0,0,0,.262-3.792l-.17-.642-.64.17-2.335.619-.641.17.17.641a2.142,2.142,0,0,1-.06,1.556,1.665,1.665,0,0,1-1.133.788,2.826,2.826,0,0,1-.709.1,1.293,1.293,0,0,1-.618-.136,1.217,1.217,0,0,1-.612-.834,1.262,1.262,0,0,1,.1-.995,4.015,4.015,0,0,1,1.27-1.2,14.464,14.464,0,0,0,1.755-1.356,4.6,4.6,0,0,0,1.482-4.8A4.452,4.452,0,0,0,116.472,9.8a4.671,4.671,0,0,0-2.5-.683c-.1,0-.205,0-.31.009l-.41-1.549Z" transform="translate(11.145 0.713)" fill="#333"/>
            <path id="Path_16645" data-name="Path 16645" d="M125.837,42.458c2.79,2.444,7.289,1.869,7.289,1.869s-.023-4.536-2.812-6.98-7.29-1.869-7.29-1.869.023,4.536,2.813,6.979" transform="translate(12.645 3.64)" fill="#fff"/>
            <path id="Path_16646" data-name="Path 16646" d="M125.837,42.458c2.79,2.444,7.289,1.869,7.289,1.869s-.023-4.536-2.812-6.98-7.29-1.869-7.29-1.869S123.047,40.014,125.837,42.458Z" transform="translate(12.645 3.64)" fill="none" stroke="#333" stroke-linecap="round" stroke-miterlimit="10" stroke-width="0.601"/>
            <path id="Path_16647" data-name="Path 16647" d="M106.446,35.735a4.205,4.205,0,0,1-1.721.4,3.233,3.233,0,0,1-2.8-1.606,3.676,3.676,0,0,1-.551-1.288,3.243,3.243,0,0,1,0-1.258,4.446,4.446,0,0,1,.459-1.244,12.74,12.74,0,0,1,1-1.5,3.877,3.877,0,0,0,.725-1.332,1.162,1.162,0,0,0-.2-.918,1.26,1.26,0,0,0-.8-.62,1,1,0,0,0-.19-.018,1.494,1.494,0,0,0-.8.276,1.148,1.148,0,0,0-.564.908,2.219,2.219,0,0,0,.435,1.37l.181.278L99.428,30.6l-.181-.278a4.383,4.383,0,0,1-.805-2.759A3.425,3.425,0,0,1,99.5,25.374l-.989-1.52,1.629-1.061.976,1.5a3.943,3.943,0,0,1,1.555-.34,3.443,3.443,0,0,1,.794.094,3.389,3.389,0,0,1,2.069,1.533,3.51,3.51,0,0,1,.065,3.839,11.778,11.778,0,0,1-.983,1.451,3.494,3.494,0,0,0-.71,1.32,1.222,1.222,0,0,0,.205.933,1.185,1.185,0,0,0,.814.573,1.056,1.056,0,0,0,.179.015,1.866,1.866,0,0,0,.989-.355,1.533,1.533,0,0,0,.758-1.023,1.921,1.921,0,0,0-.376-1.35l-.181-.278,2.186-1.421.181.278a4.033,4.033,0,0,1,.723,2.828,3.879,3.879,0,0,1-1.316,2.295l.869,1.337-1.621,1.055Z" transform="translate(10.117 2.343)" fill="#00b6ed"/>
            <path id="Path_16648" data-name="Path 16648" d="M100.081,23.293l.952,1.463a3.75,3.75,0,0,1,1.677-.429,3.01,3.01,0,0,1,.716.085A3.054,3.054,0,0,1,105.3,25.8a3.189,3.189,0,0,1,.052,3.5,11.321,11.321,0,0,1-.955,1.409,3.785,3.785,0,0,0-.772,1.456,1.551,1.551,0,0,0,.251,1.179,1.515,1.515,0,0,0,1.037.72,1.5,1.5,0,0,0,.234.019,2.181,2.181,0,0,0,1.17-.407,1.854,1.854,0,0,0,.9-1.246,2.22,2.22,0,0,0-.425-1.586l1.63-1.061a3.4,3.4,0,0,1-.75,4.881l.847,1.3-1.066.695-.851-1.308a4.045,4.045,0,0,1-1.839.5,2.9,2.9,0,0,1-2.528-1.456,3.368,3.368,0,0,1-.505-1.171,2.91,2.91,0,0,1,0-1.13,4.119,4.119,0,0,1,.426-1.15,12.42,12.42,0,0,1,.969-1.462,4.152,4.152,0,0,0,.783-1.459,1.488,1.488,0,0,0-.25-1.169,1.573,1.573,0,0,0-1.012-.764,1.3,1.3,0,0,0-.254-.024,1.8,1.8,0,0,0-.979.33,1.473,1.473,0,0,0-.713,1.156,2.518,2.518,0,0,0,.487,1.579l-1.623,1.056a4.037,4.037,0,0,1-.753-2.552,3.167,3.167,0,0,1,1.161-2.164l-.961-1.476,1.073-.7m.194-.916-.555.362-1.074.7-.555.362.361.555.666,1.023a3.7,3.7,0,0,0-.972,2.2,4.711,4.711,0,0,0,.858,2.968l.361.556.556-.362,1.623-1.055.556-.362-.362-.556a1.91,1.91,0,0,1-.383-1.16.818.818,0,0,1,.415-.657,1.166,1.166,0,0,1,.619-.224.625.625,0,0,1,.129.013c.077.014.312.06.582.474a.819.819,0,0,1,.159.664,3.478,3.478,0,0,1-.667,1.208,12.776,12.776,0,0,0-1.022,1.544,4.8,4.8,0,0,0-.492,1.337,3.575,3.575,0,0,0,0,1.386,4.025,4.025,0,0,0,.6,1.4,3.556,3.556,0,0,0,3.083,1.756,4.364,4.364,0,0,0,1.595-.321l.54.833.362.556.555-.362,1.067-.694.555-.361-.361-.556-.539-.829a4.09,4.09,0,0,0,1.215-2.294,4.35,4.35,0,0,0-.773-3.058l-.362-.556-.555.361-1.631,1.061-.555.362.361.555a1.612,1.612,0,0,1,.328,1.115,1.219,1.219,0,0,1-.612.8,1.55,1.55,0,0,1-.808.3.64.64,0,0,1-.122-.011.846.846,0,0,1-.592-.427.893.893,0,0,1-.157-.69,3.109,3.109,0,0,1,.646-1.181,11.68,11.68,0,0,0,1.012-1.5,3.865,3.865,0,0,0-.079-4.176,3.658,3.658,0,0,0-3.14-1.778,4.183,4.183,0,0,0-1.426.264l-.647-.995Z" transform="translate(10.082 2.3)" fill="#333"/>
            <path id="Path_16649" data-name="Path 16649" d="M129.841,23.8l.549-1.489a3.81,3.81,0,0,1-1.7-1.736A3.3,3.3,0,0,1,128.665,18a3.672,3.672,0,0,1,.7-1.2,3.238,3.238,0,0,1,1-.747,4.46,4.46,0,0,1,1.259-.373,12.582,12.582,0,0,1,1.761-.1h.035a3.825,3.825,0,0,0,1.474-.213,1.151,1.151,0,0,0,.607-.7,1.242,1.242,0,0,0,.019-1,1.317,1.317,0,0,0-.788-.632,1.343,1.343,0,0,0-.459-.088,1.1,1.1,0,0,0-.593.178,2.2,2.2,0,0,0-.829,1.155l-.115.311-2.422-.892.115-.311a4.332,4.332,0,0,1,1.716-2.275,3.284,3.284,0,0,1,1.769-.5,4.007,4.007,0,0,1,.6.046l.621-1.687,1.813.668-.613,1.664a3.646,3.646,0,0,1,1.585,1.72,3.364,3.364,0,0,1,.009,2.554A3.484,3.484,0,0,1,134.91,17.9a10.447,10.447,0,0,1-1.442.081l-.395,0a3.327,3.327,0,0,0-1.365.218,1.206,1.206,0,0,0-.619.713,1.171,1.171,0,0,0,.026.984,1.655,1.655,0,0,0,.959.726,1.983,1.983,0,0,0,.675.133,1.245,1.245,0,0,0,.584-.139,1.893,1.893,0,0,0,.848-1.1l.115-.311,2.429.9-.115.311a4,4,0,0,1-1.818,2.252,3.532,3.532,0,0,1-1.686.407,4.8,4.8,0,0,1-.915-.093l-.547,1.483Z" transform="translate(13.199 0.922)" fill="#00b6ed"/>
            <path id="Path_16650" data-name="Path 16650" d="M135.358,9.434l1.191.439-.6,1.622a3.412,3.412,0,0,1,1.689,1.7,3.027,3.027,0,0,1,0,2.308,3.163,3.163,0,0,1-2.748,2.114,10.131,10.131,0,0,1-1.4.078l-.289,0H133.1a3.621,3.621,0,0,0-1.509.25,1.543,1.543,0,0,0-.786.9,1.505,1.505,0,0,0,.042,1.251,1.963,1.963,0,0,0,1.14.884,2.29,2.29,0,0,0,.788.154,1.591,1.591,0,0,0,.737-.175,2.2,2.2,0,0,0,1.007-1.277l1.809.667a3.662,3.662,0,0,1-1.665,2.073,3.184,3.184,0,0,1-1.53.368,4.68,4.68,0,0,1-1.126-.147l-.532,1.444-1.183-.436.535-1.451a3.616,3.616,0,0,1-1.806-1.714,2.963,2.963,0,0,1-.019-2.324,3.326,3.326,0,0,1,.632-1.094,2.893,2.893,0,0,1,.9-.67,4.107,4.107,0,0,1,1.166-.343,12.137,12.137,0,0,1,1.709-.1h.034a4.086,4.086,0,0,0,1.614-.244,1.475,1.475,0,0,0,.781-.89,1.563,1.563,0,0,0,.007-1.257,1.876,1.876,0,0,0-1.546-.908,1.435,1.435,0,0,0-.768.227,2.5,2.5,0,0,0-.965,1.322l-1.8-.664a4.01,4.01,0,0,1,1.58-2.109,2.949,2.949,0,0,1,1.594-.45,3.854,3.854,0,0,1,.813.09l.6-1.638m-.393-.85-.229.621-.416,1.131c-.129-.011-.255-.018-.378-.018a3.616,3.616,0,0,0-1.944.55,4.668,4.668,0,0,0-1.852,2.443l-.229.621.622.229,1.8.664.622.229.228-.622a1.877,1.877,0,0,1,.694-.988.774.774,0,0,1,.418-.128.967.967,0,0,1,.343.068,1.011,1.011,0,0,1,.608.465.877.877,0,0,1-.033.739.809.809,0,0,1-.43.516,3.437,3.437,0,0,1-1.343.184h-.034a12.626,12.626,0,0,0-1.806.1,4.75,4.75,0,0,0-1.354.4,3.56,3.56,0,0,0-1.1.824,3.975,3.975,0,0,0-.762,1.309,3.61,3.61,0,0,0,.036,2.825,4.014,4.014,0,0,0,1.591,1.745l-.337.919-.229.622.621.228,1.183.437.622.228.228-.621.337-.914a5.117,5.117,0,0,0,.7.051A3.856,3.856,0,0,0,134.981,23a4.319,4.319,0,0,0,1.973-2.428l.229-.622-.622-.229-1.807-.666-.622-.229-.229.622a1.591,1.591,0,0,1-.687.916.934.934,0,0,1-.435.1,1.623,1.623,0,0,1-.56-.114,1.351,1.351,0,0,1-.779-.565.834.834,0,0,1-.011-.718.881.881,0,0,1,.452-.53,2.94,2.94,0,0,1,1.222-.185h.1c.1,0,.2,0,.3,0a10.582,10.582,0,0,0,1.491-.085,3.834,3.834,0,0,0,3.274-2.541,3.682,3.682,0,0,0-.014-2.8,3.887,3.887,0,0,0-1.485-1.73l.4-1.1.229-.622-.621-.229-1.192-.438Z" transform="translate(13.168 0.882)" fill="#333"/>
            <path id="Path_16651" data-name="Path 16651" d="M121.254,39.435l.256-1.535a3.733,3.733,0,0,1-1.949-1.363,3.234,3.234,0,0,1-.5-2.479,3.6,3.6,0,0,1,.452-1.288,3.193,3.193,0,0,1,.828-.9,4.4,4.4,0,0,1,1.148-.59,12.475,12.475,0,0,1,1.7-.422,3.766,3.766,0,0,0,1.391-.475,1.124,1.124,0,0,0,.454-.784,1.21,1.21,0,0,0-.163-.961,1.285,1.285,0,0,0-.872-.462,1.421,1.421,0,0,0-.242-.021,1.066,1.066,0,0,0-.75.3,2.148,2.148,0,0,0-.586,1.259l-.054.328-2.509-.42.054-.328a4.268,4.268,0,0,1,1.24-2.509,3.341,3.341,0,0,1,2.2-.871l.291-1.739,1.88.314-.287,1.716a3.585,3.585,0,0,1,1.839,1.37,3.309,3.309,0,0,1,.475,2.463,3.422,3.422,0,0,1-2.482,2.8,11.464,11.464,0,0,1-1.659.394,3.377,3.377,0,0,0-1.371.476,1.172,1.172,0,0,0-.462.8,1.145,1.145,0,0,0,.2.938,1.625,1.625,0,0,0,1.054.521,2.308,2.308,0,0,0,.369.033,1.309,1.309,0,0,0,.837-.267,1.859,1.859,0,0,0,.614-1.206l.054-.328,2.518.422-.055.325a3.923,3.923,0,0,1-1.344,2.506,3.756,3.756,0,0,1-2.425.78h-.02l-.257,1.53Z" transform="translate(12.232 2.484)" fill="#00b6ed"/>
            <path id="Path_16652" data-name="Path 16652" d="M123.947,24.585l1.227.206-.28,1.672a3.339,3.339,0,0,1,1.938,1.326,2.963,2.963,0,0,1,.425,2.223,3.1,3.1,0,0,1-2.262,2.539,10.946,10.946,0,0,1-1.609.38,3.691,3.691,0,0,0-1.51.536,1.5,1.5,0,0,0-.593,1.008,1.468,1.468,0,0,0,.268,1.2,1.927,1.927,0,0,0,1.259.644,2.528,2.528,0,0,0,.426.037,1.645,1.645,0,0,0,1.04-.336,2.151,2.151,0,0,0,.737-1.414l1.864.312a3.593,3.593,0,0,1-1.224,2.3,3.428,3.428,0,0,1-2.219.706c-.1,0-.2,0-.3-.009l-.248,1.488-1.22-.2.25-1.5a3.544,3.544,0,0,1-2.052-1.321,2.9,2.9,0,0,1-.442-2.234,3.284,3.284,0,0,1,.408-1.169,2.851,2.851,0,0,1,.743-.811,4.064,4.064,0,0,1,1.061-.544,12.005,12.005,0,0,1,1.653-.408,4.06,4.06,0,0,0,1.52-.53,1.449,1.449,0,0,0,.589-1,1.535,1.535,0,0,0-.223-1.212,1.608,1.608,0,0,0-1.083-.591,1.845,1.845,0,0,0-.3-.025,1.4,1.4,0,0,0-.975.384,2.447,2.447,0,0,0-.688,1.45l-1.856-.311a3.921,3.921,0,0,1,1.138-2.32,3.045,3.045,0,0,1,2.15-.787l.1,0,.282-1.688m-.544-.762-.11.653-.193,1.156a3.6,3.6,0,0,0-2.136.941,4.579,4.579,0,0,0-1.342,2.7l-.109.653.653.11,1.856.31.653.109.109-.653a1.833,1.833,0,0,1,.483-1.071.741.741,0,0,1,.527-.211,1.11,1.11,0,0,1,.185.017.978.978,0,0,1,.662.333.843.843,0,0,1,.1.708.778.778,0,0,1-.315.566,3.338,3.338,0,0,1-1.263.423,12.48,12.48,0,0,0-1.749.434,4.7,4.7,0,0,0-1.235.635,3.5,3.5,0,0,0-.915,1,3.938,3.938,0,0,0-.5,1.4,3.559,3.559,0,0,0,.554,2.725,3.95,3.95,0,0,0,1.848,1.392l-.157.935-.11.654.654.109,1.22.2.653.109.109-.653.157-.933a3.988,3.988,0,0,0,2.373-.847,4.25,4.25,0,0,0,1.462-2.708l.109-.653-.653-.11-1.864-.311-.654-.11-.109.654a1.542,1.542,0,0,1-.491,1,.986.986,0,0,1-.633.2,1.914,1.914,0,0,1-.315-.029,1.311,1.311,0,0,1-.846-.4.8.8,0,0,1-.139-.679.848.848,0,0,1,.333-.584,3,3,0,0,1,1.232-.417,11.435,11.435,0,0,0,1.71-.408,3.771,3.771,0,0,0,2.7-3.055,3.618,3.618,0,0,0-.527-2.7,3.828,3.828,0,0,0-1.742-1.4l.187-1.123.109-.654-.653-.109-1.227-.205Z" transform="translate(12.201 2.449)" fill="#333"/>
            <path id="Path_16653" data-name="Path 16653" d="M117.124,33.879c1.022,3.565-1.415,7.391-1.415,7.391s-4.095-1.953-5.116-5.518,1.415-7.392,1.415-7.392,4.094,1.954,5.116,5.519" transform="translate(11.341 2.915)" fill="#fff"/>
            <path id="Path_16654" data-name="Path 16654" d="M117.124,33.879c1.022,3.565-1.415,7.391-1.415,7.391s-4.095-1.953-5.116-5.518,1.415-7.392,1.415-7.392S116.1,30.314,117.124,33.879Z" transform="translate(11.341 2.915)" fill="none" stroke="#333" stroke-linecap="round" stroke-miterlimit="10" stroke-width="0.601"/>
            <path id="Path_16655" data-name="Path 16655" d="M134.089,38.77l.887-1.551a4.284,4.284,0,0,1-1.58-2.253,3.682,3.682,0,0,1,.446-2.841,4.109,4.109,0,0,1,.991-1.2,3.607,3.607,0,0,1,1.238-.637,4.941,4.941,0,0,1,1.354-.179h.108a14.409,14.409,0,0,1,2,.222,6.6,6.6,0,0,0,1.093.107,2.5,2.5,0,0,0,.622-.067,1.341,1.341,0,0,0,.834-.69,1.448,1.448,0,0,0,.212-1.144,1.531,1.531,0,0,0-.782-.877,1.415,1.415,0,0,0-.712-.206,1.334,1.334,0,0,0-.514.107,2.521,2.521,0,0,0-1.161,1.15L138.96,29,136.5,27.6l.164-.287a4.859,4.859,0,0,1,2.317-2.2,3.633,3.633,0,0,1,1.4-.279,4.21,4.21,0,0,1,1.331.227l1-1.757,1.821,1.041-.991,1.734A4.1,4.1,0,0,1,145,28.294a3.756,3.756,0,0,1-.464,2.815,3.863,3.863,0,0,1-3.593,2.01h-.161a13.061,13.061,0,0,1-1.942-.236,5.961,5.961,0,0,0-1.044-.108,2.384,2.384,0,0,0-.652.077,1.407,1.407,0,0,0-.848.7,1.368,1.368,0,0,0-.158,1.137,1.911,1.911,0,0,0,.954,1.011,2.025,2.025,0,0,0,1,.3,1.46,1.46,0,0,0,.44-.068,2.183,2.183,0,0,0,1.174-1.083l.164-.288,2.466,1.41-.165.288a4.473,4.473,0,0,1-2.424,2.149,3.822,3.822,0,0,1-1.221.2,4.919,4.919,0,0,1-1.742-.346l-.883,1.544Z" transform="translate(13.699 2.395)" fill="#00b6ed"/>
            <path id="Path_16656" data-name="Path 16656" d="M142.869,23.8l1.245.712-.969,1.7a3.861,3.861,0,0,1,1.567,2.207,3.422,3.422,0,0,1-.43,2.574,3.537,3.537,0,0,1-3.305,1.844l-.152,0a12.548,12.548,0,0,1-1.892-.23,6.192,6.192,0,0,0-1.1-.114,2.728,2.728,0,0,0-.742.09,1.73,1.73,0,0,0-1.044.854,1.7,1.7,0,0,0-.187,1.4,2.226,2.226,0,0,0,1.1,1.2,2.349,2.349,0,0,0,1.163.345,1.767,1.767,0,0,0,.54-.084,2.489,2.489,0,0,0,1.362-1.235l1.889,1.082a4.139,4.139,0,0,1-2.242,2,3.474,3.474,0,0,1-1.115.181,4.758,4.758,0,0,1-1.886-.431l-.863,1.509-1.236-.707.867-1.516a4.091,4.091,0,0,1-1.693-2.249,3.353,3.353,0,0,1,.414-2.593,3.766,3.766,0,0,1,.909-1.1,3.265,3.265,0,0,1,1.126-.579,4.559,4.559,0,0,1,1.262-.165h.1a13.92,13.92,0,0,1,1.951.217,7,7,0,0,0,1.147.111,2.8,2.8,0,0,0,.707-.078,1.665,1.665,0,0,0,1.037-.847,1.768,1.768,0,0,0,.244-1.4,1.859,1.859,0,0,0-.936-1.072,1.752,1.752,0,0,0-.877-.25,1.666,1.666,0,0,0-.64.132,2.819,2.819,0,0,0-1.322,1.292l-1.882-1.077a4.521,4.521,0,0,1,2.156-2.054,3.291,3.291,0,0,1,1.268-.254,3.99,3.99,0,0,1,1.48.3l.978-1.713m-.246-.9-.329.576-.709,1.241a4.357,4.357,0,0,0-1.174-.167,3.967,3.967,0,0,0-1.522.3,5.18,5.18,0,0,0-2.478,2.338l-.329.576.576.329,1.881,1.076.576.329.329-.575a2.216,2.216,0,0,1,1-1.009,1.01,1.01,0,0,1,.388-.082,1.088,1.088,0,0,1,.548.163,1.218,1.218,0,0,1,.629.683,1.136,1.136,0,0,1-.182.884.992.992,0,0,1-.629.535,2.178,2.178,0,0,1-.54.056,6.411,6.411,0,0,1-1.037-.1,14.316,14.316,0,0,0-2.049-.227h-.115a5.236,5.236,0,0,0-1.445.192,3.946,3.946,0,0,0-1.353.695A4.445,4.445,0,0,0,133.586,32a4,4,0,0,0-.479,3.091,4.5,4.5,0,0,0,1.474,2.245L134,38.36l-.329.575.575.33,1.237.707.575.329.33-.575.581-1.018a5.087,5.087,0,0,0,1.592.272,4.133,4.133,0,0,0,1.327-.215,4.8,4.8,0,0,0,2.606-2.3l.329-.575-.575-.329-1.89-1.082-.576-.329-.329.575a1.872,1.872,0,0,1-.987.933,1.115,1.115,0,0,1-.34.053,1.717,1.717,0,0,1-.834-.259,1.607,1.607,0,0,1-.8-.824,1.043,1.043,0,0,1,.13-.872,1.074,1.074,0,0,1,.653-.546,2.1,2.1,0,0,1,.559-.064,5.7,5.7,0,0,1,.985.1,13.055,13.055,0,0,0,1.995.24c.055,0,.111,0,.168,0a4.177,4.177,0,0,0,3.881-2.178,4.076,4.076,0,0,0,.5-3.058A4.327,4.327,0,0,0,144,26.049l.691-1.21.329-.575-.576-.33-1.245-.711Z" transform="translate(13.668 2.353)" fill="#333"/>
            <path id="Path_16657" data-name="Path 16657" d="M111.753,20.554c3.5,1.227,5.213,5.428,5.213,5.428s-3.962,2.211-7.461.984-5.213-5.428-5.213-5.428,3.961-2.211,7.461-.984" transform="translate(10.719 2.074)" fill="#fff"/>
            <path id="Path_16658" data-name="Path 16658" d="M111.753,20.554c3.5,1.227,5.213,5.428,5.213,5.428s-3.962,2.211-7.461.984-5.213-5.428-5.213-5.428S108.253,19.326,111.753,20.554Z" transform="translate(10.719 2.074)" fill="none" stroke="#333" stroke-linecap="round" stroke-miterlimit="10" stroke-width="0.601"/>
            <path id="Path_16659" data-name="Path 16659" d="M119.891,43.238c-2.408,2.821-6.943,2.9-6.943,2.9s-.632-4.492,1.775-7.313,6.944-2.9,6.944-2.9.632,4.492-1.777,7.313" transform="translate(11.601 3.692)" fill="#fff"/>
            <path id="Path_16660" data-name="Path 16660" d="M119.891,43.238c-2.408,2.821-6.943,2.9-6.943,2.9s-.632-4.492,1.775-7.313,6.944-2.9,6.944-2.9S122.3,40.417,119.891,43.238Z" transform="translate(11.601 3.692)" fill="none" stroke="#333" stroke-linecap="round" stroke-miterlimit="10" stroke-width="0.601"/>
            <path id="Path_16661" data-name="Path 16661" d="M119.35,42.739c.471,3.679,4.223,6.229,4.223,6.229s2.987-3.413,2.517-7.092-4.223-6.229-4.223-6.229-2.987,3.413-2.517,7.092" transform="translate(12.262 3.664)" fill="#fff"/>
            <path id="Path_16662" data-name="Path 16662" d="M119.35,42.739c.471,3.679,4.223,6.229,4.223,6.229s2.987-3.413,2.517-7.092-4.223-6.229-4.223-6.229S118.879,39.06,119.35,42.739Z" transform="translate(12.262 3.664)" fill="none" stroke="#333" stroke-linecap="round" stroke-miterlimit="10" stroke-width="0.601"/>
          </g>
        </g>
      </g>
    </g>
  </g>
</svg>
