<svg xmlns="http://www.w3.org/2000/svg" xmlns:xlink="http://www.w3.org/1999/xlink" width="188.209" height="67.383" viewBox="0 0 188.209 67.383">
  <defs>
    <clipPath id="clip-path">
      <rect id="Rectangle_11610" data-name="Rectangle 11610" width="86.86" height="26.408" fill="none"/>
    </clipPath>
    <clipPath id="clip-path-2">
      <rect id="Rectangle_11617" data-name="Rectangle 11617" width="98.213" height="67.382" fill="none"/>
    </clipPath>
  </defs>
  <g id="Group_5874" data-name="Group 5874" transform="translate(-7.994)">
    <g id="Group_5826" data-name="Group 5826" transform="translate(109.344 40.975)">
      <g id="Group_5825" data-name="Group 5825" clip-path="url(#clip-path)">
        <path id="Path_16384" data-name="Path 16384" d="M134.67,69.5l-.629-8.91-1.053-.113-.32-.324-.507-4.763.222-5.152c.023-.288.415-.622.69-.714l2.042-.667c2.107,1.264,1.313,1.264,3.42,0l2.041.667c.276.092.668.426.693.714l.222,5.152-.508,4.763-.32.324-1.053.113-.629,8.91" transform="translate(-96.692 -36.297)" fill="#fff" fill-rule="evenodd"/>
        <path id="Path_16385" data-name="Path 16385" d="M134.67,69.5l-.629-8.91-1.053-.113-.32-.324-.507-4.763.222-5.152c.023-.288.415-.622.69-.714l2.042-.667c2.107,1.264,1.313,1.264,3.42,0l2.041.667c.276.092.668.426.693.714l.222,5.152-.508,4.763-.32.324-1.053.113-.629,8.91" transform="translate(-96.692 -36.297)" fill="none" stroke="#333" stroke-linecap="round" stroke-linejoin="round" stroke-width="0.882"/>
        <path id="Path_16386" data-name="Path 16386" d="M124.431,69.5l-.629-8.91-1.053-.113-.32-.324-.508-4.763.222-5.152c.023-.288.416-.622.691-.714l2.042-.667c2.107,1.264,1.312,1.264,3.419,0l2.042.667c.276.092.668.426.691.714l.222,5.152-.507,4.763-.321.324-1.052.113-.629,8.91" transform="translate(-97.672 -36.297)" fill="#fff" fill-rule="evenodd"/>
        <path id="Path_16387" data-name="Path 16387" d="M124.431,69.5l-.629-8.91-1.053-.113-.32-.324-.508-4.763.222-5.152c.023-.288.416-.622.691-.714l2.042-.667c2.107,1.264,1.312,1.264,3.419,0l2.042.667c.276.092.668.426.691.714l.222,5.152-.507,4.763-.321.324-1.052.113-.629,8.91" transform="translate(-97.672 -36.297)" fill="none" stroke="#333" stroke-linecap="round" stroke-linejoin="round" stroke-width="0.882"/>
        <path id="Path_16388" data-name="Path 16388" d="M114.191,69.5l-.629-8.91-1.053-.113-.32-.324-.508-4.763.222-5.152c.023-.288.416-.622.691-.714l2.042-.667c2.107,1.264,1.312,1.264,3.419,0l2.042.667c.276.092.668.426.691.714l.222,5.152L120.5,60.15l-.321.324-1.052.113-.63,8.91" transform="translate(-98.653 -36.297)" fill="#fff" fill-rule="evenodd"/>
        <path id="Path_16389" data-name="Path 16389" d="M114.191,69.5l-.629-8.91-1.053-.113-.32-.324-.508-4.763.222-5.152c.023-.288.416-.622.691-.714l2.042-.667c2.107,1.264,1.312,1.264,3.419,0l2.042.667c.276.092.668.426.691.714l.222,5.152L120.5,60.15l-.321.324-1.052.113-.63,8.91" transform="translate(-98.653 -36.297)" fill="none" stroke="#333" stroke-linecap="round" stroke-linejoin="round" stroke-width="0.882"/>
        <path id="Path_16390" data-name="Path 16390" d="M103.951,69.5l-.629-8.91-1.053-.113-.32-.324-.507-4.763.222-5.152c.023-.288.415-.622.691-.714l2.042-.667c2.106,1.264,1.312,1.264,3.419,0l2.042.667c.276.092.667.426.691.714l.222,5.152-.508,4.763-.32.324-1.053.113-.629,8.91" transform="translate(-99.633 -36.297)" fill="#fff" fill-rule="evenodd"/>
        <path id="Path_16391" data-name="Path 16391" d="M103.951,69.5l-.629-8.91-1.053-.113-.32-.324-.507-4.763.222-5.152c.023-.288.415-.622.691-.714l2.042-.667c2.106,1.264,1.312,1.264,3.419,0l2.042.667c.276.092.667.426.691.714l.222,5.152-.508,4.763-.32.324-1.053.113-.629,8.91" transform="translate(-99.633 -36.297)" fill="none" stroke="#333" stroke-linecap="round" stroke-linejoin="round" stroke-width="0.882"/>
        <path id="Path_16392" data-name="Path 16392" d="M112.839,43.1a2.037,2.037,0,0,0-3.957,0,5.822,5.822,0,0,0,.327,2.3,2.138,2.138,0,0,0,1.335.968,1.869,1.869,0,0,0,.634,0,2.135,2.135,0,0,0,1.335-.968,5.842,5.842,0,0,0,.327-2.3" transform="translate(-98.922 -36.997)" fill="#fff" fill-rule="evenodd"/>
        <path id="Path_16393" data-name="Path 16393" d="M112.839,43.1a2.037,2.037,0,0,0-3.957,0,5.822,5.822,0,0,0,.327,2.3,2.138,2.138,0,0,0,1.335.968,1.869,1.869,0,0,0,.634,0,2.135,2.135,0,0,0,1.335-.968A5.842,5.842,0,0,0,112.839,43.1Z" transform="translate(-98.922 -36.997)" fill="none" stroke="#333" stroke-linecap="round" stroke-linejoin="round" stroke-width="0.882"/>
        <path id="Path_16394" data-name="Path 16394" d="M123.079,43.1a2.037,2.037,0,0,0-3.957,0,5.862,5.862,0,0,0,.327,2.3,2.138,2.138,0,0,0,1.335.968,1.869,1.869,0,0,0,.634,0,2.138,2.138,0,0,0,1.335-.968,5.841,5.841,0,0,0,.327-2.3" transform="translate(-97.941 -36.997)" fill="#fff" fill-rule="evenodd"/>
        <path id="Path_16395" data-name="Path 16395" d="M123.079,43.1a2.037,2.037,0,0,0-3.957,0,5.862,5.862,0,0,0,.327,2.3,2.138,2.138,0,0,0,1.335.968,1.869,1.869,0,0,0,.634,0,2.138,2.138,0,0,0,1.335-.968A5.841,5.841,0,0,0,123.079,43.1Z" transform="translate(-97.941 -36.997)" fill="none" stroke="#333" stroke-linecap="round" stroke-linejoin="round" stroke-width="0.882"/>
        <path id="Path_16396" data-name="Path 16396" d="M133.319,43.1a2.037,2.037,0,0,0-3.957,0,5.822,5.822,0,0,0,.327,2.3,2.138,2.138,0,0,0,1.335.968,1.862,1.862,0,0,0,.633,0,2.137,2.137,0,0,0,1.336-.968,5.841,5.841,0,0,0,.327-2.3" transform="translate(-96.961 -36.997)" fill="#fff" fill-rule="evenodd"/>
        <path id="Path_16397" data-name="Path 16397" d="M133.319,43.1a2.037,2.037,0,0,0-3.957,0,5.822,5.822,0,0,0,.327,2.3,2.138,2.138,0,0,0,1.335.968,1.862,1.862,0,0,0,.633,0,2.137,2.137,0,0,0,1.336-.968A5.841,5.841,0,0,0,133.319,43.1Z" transform="translate(-96.961 -36.997)" fill="none" stroke="#333" stroke-linecap="round" stroke-linejoin="round" stroke-width="0.882"/>
        <line id="Line_1228" data-name="Line 1228" y2="8.105" transform="translate(37.349 16.184)" fill="#fff"/>
        <line id="Line_1229" data-name="Line 1229" y2="8.105" transform="translate(37.349 16.184)" fill="none" stroke="#333" stroke-linecap="round" stroke-linejoin="round" stroke-width="0.882"/>
        <path id="Path_16398" data-name="Path 16398" d="M138.571,44.908a2.037,2.037,0,0,0-3.957,0,5.859,5.859,0,0,0,.327,2.3,2.138,2.138,0,0,0,1.335.968,1.815,1.815,0,0,0,.634,0,2.135,2.135,0,0,0,1.335-.968,5.838,5.838,0,0,0,.327-2.3" transform="translate(-96.458 -36.824)" fill="#fff" fill-rule="evenodd"/>
        <path id="Path_16399" data-name="Path 16399" d="M138.571,44.908a2.037,2.037,0,0,0-3.957,0,5.859,5.859,0,0,0,.327,2.3,2.138,2.138,0,0,0,1.335.968,1.815,1.815,0,0,0,.634,0,2.135,2.135,0,0,0,1.335-.968A5.838,5.838,0,0,0,138.571,44.908Z" transform="translate(-96.458 -36.824)" fill="none" stroke="#333" stroke-linecap="round" stroke-linejoin="round" stroke-width="0.882"/>
        <line id="Line_1230" data-name="Line 1230" y2="8.105" transform="translate(26.129 16.184)" fill="#fff"/>
        <line id="Line_1231" data-name="Line 1231" y2="8.105" transform="translate(26.129 16.184)" fill="none" stroke="#333" stroke-linecap="round" stroke-linejoin="round" stroke-width="0.882"/>
        <line id="Line_1232" data-name="Line 1232" y2="8.105" transform="translate(31.711 16.184)" fill="#fff"/>
        <line id="Line_1233" data-name="Line 1233" y2="8.105" transform="translate(31.711 16.184)" fill="none" stroke="#333" stroke-linecap="round" stroke-linejoin="round" stroke-width="0.882"/>
        <line id="Line_1234" data-name="Line 1234" y2="10.136" transform="translate(28.914 23.068)" fill="#fff"/>
        <line id="Line_1235" data-name="Line 1235" y2="10.136" transform="translate(28.914 23.068)" fill="none" stroke="#333" stroke-linecap="round" stroke-linejoin="round" stroke-width="0.882"/>
        <path id="Path_16400" data-name="Path 16400" d="M128.331,44.908a2.037,2.037,0,0,0-3.957,0,5.84,5.84,0,0,0,.327,2.3,2.138,2.138,0,0,0,1.335.968,1.815,1.815,0,0,0,.634,0,2.14,2.14,0,0,0,1.336-.968,5.858,5.858,0,0,0,.325-2.3" transform="translate(-97.439 -36.824)" fill="#fff" fill-rule="evenodd"/>
        <path id="Path_16401" data-name="Path 16401" d="M128.331,44.908a2.037,2.037,0,0,0-3.957,0,5.84,5.84,0,0,0,.327,2.3,2.138,2.138,0,0,0,1.335.968,1.815,1.815,0,0,0,.634,0,2.14,2.14,0,0,0,1.336-.968A5.858,5.858,0,0,0,128.331,44.908Z" transform="translate(-97.439 -36.824)" fill="none" stroke="#333" stroke-linecap="round" stroke-linejoin="round" stroke-width="0.882"/>
        <line id="Line_1236" data-name="Line 1236" y2="8.105" transform="translate(14.909 16.184)" fill="#fff"/>
        <line id="Line_1237" data-name="Line 1237" y2="8.105" transform="translate(14.909 16.184)" fill="none" stroke="#333" stroke-linecap="round" stroke-linejoin="round" stroke-width="0.882"/>
        <line id="Line_1238" data-name="Line 1238" y2="8.105" transform="translate(20.491 16.184)" fill="#fff"/>
        <line id="Line_1239" data-name="Line 1239" y2="8.105" transform="translate(20.491 16.184)" fill="none" stroke="#333" stroke-linecap="round" stroke-linejoin="round" stroke-width="0.882"/>
        <line id="Line_1240" data-name="Line 1240" y2="10.136" transform="translate(17.695 23.068)" fill="#fff"/>
        <line id="Line_1241" data-name="Line 1241" y2="10.136" transform="translate(17.695 23.068)" fill="none" stroke="#333" stroke-linecap="round" stroke-linejoin="round" stroke-width="0.882"/>
        <path id="Path_16402" data-name="Path 16402" d="M118.091,44.908a2.037,2.037,0,0,0-3.957,0,5.859,5.859,0,0,0,.327,2.3,2.138,2.138,0,0,0,1.335.968,1.815,1.815,0,0,0,.634,0,2.137,2.137,0,0,0,1.336-.968,5.858,5.858,0,0,0,.325-2.3" transform="translate(-98.419 -36.824)" fill="#fff" fill-rule="evenodd"/>
        <path id="Path_16403" data-name="Path 16403" d="M118.091,44.908a2.037,2.037,0,0,0-3.957,0,5.859,5.859,0,0,0,.327,2.3,2.138,2.138,0,0,0,1.335.968,1.815,1.815,0,0,0,.634,0,2.137,2.137,0,0,0,1.336-.968A5.858,5.858,0,0,0,118.091,44.908Z" transform="translate(-98.419 -36.824)" fill="none" stroke="#333" stroke-linecap="round" stroke-linejoin="round" stroke-width="0.882"/>
        <line id="Line_1242" data-name="Line 1242" y2="8.105" transform="translate(9.271 16.184)" fill="#fff"/>
        <line id="Line_1243" data-name="Line 1243" y2="8.105" transform="translate(9.271 16.184)" fill="none" stroke="#333" stroke-linecap="round" stroke-linejoin="round" stroke-width="0.882"/>
        <line id="Line_1244" data-name="Line 1244" y2="10.136" transform="translate(6.474 23.068)" fill="#fff"/>
        <line id="Line_1245" data-name="Line 1245" y2="10.136" transform="translate(6.474 23.068)" fill="none" stroke="#333" stroke-linecap="round" stroke-linejoin="round" stroke-width="0.882"/>
        <path id="Path_16404" data-name="Path 16404" d="M107.852,44.908a2.037,2.037,0,0,0-3.957,0,5.819,5.819,0,0,0,.327,2.3,2.138,2.138,0,0,0,1.335.968,1.815,1.815,0,0,0,.634,0,2.138,2.138,0,0,0,1.335-.968,5.838,5.838,0,0,0,.327-2.3" transform="translate(-99.399 -36.824)" fill="#fff" fill-rule="evenodd"/>
        <path id="Path_16405" data-name="Path 16405" d="M107.852,44.908a2.037,2.037,0,0,0-3.957,0,5.819,5.819,0,0,0,.327,2.3,2.138,2.138,0,0,0,1.335.968,1.815,1.815,0,0,0,.634,0,2.138,2.138,0,0,0,1.335-.968A5.838,5.838,0,0,0,107.852,44.908Z" transform="translate(-99.399 -36.824)" fill="none" stroke="#333" stroke-linecap="round" stroke-linejoin="round" stroke-width="0.882"/>
        <path id="Path_16406" data-name="Path 16406" d="M165.389,69.5l-.629-8.91-1.053-.113-.32-.324-.507-4.763.222-5.152c.023-.288.415-.622.69-.714l2.042-.667c2.107,1.264,1.313,1.264,3.42,0l2.041.667c.276.092.669.426.692.714l.222,5.152L171.7,60.15l-.32.324-1.053.113L169.7,69.5" transform="translate(-93.751 -36.297)" fill="#fff" fill-rule="evenodd"/>
        <path id="Path_16407" data-name="Path 16407" d="M165.389,69.5l-.629-8.91-1.053-.113-.32-.324-.507-4.763.222-5.152c.023-.288.415-.622.69-.714l2.042-.667c2.107,1.264,1.313,1.264,3.42,0l2.041.667c.276.092.669.426.692.714l.222,5.152L171.7,60.15l-.32.324-1.053.113L169.7,69.5" transform="translate(-93.751 -36.297)" fill="none" stroke="#333" stroke-linecap="round" stroke-linejoin="round" stroke-width="0.882"/>
        <path id="Path_16408" data-name="Path 16408" d="M155.15,69.5l-.629-8.91-1.053-.113-.32-.324-.508-4.763.222-5.152c.023-.288.416-.622.691-.714l2.042-.667c2.107,1.264,1.312,1.264,3.419,0l2.042.667c.276.092.668.426.691.714l.222,5.152-.507,4.763-.321.324-1.052.113-.629,8.91" transform="translate(-94.732 -36.297)" fill="#fff" fill-rule="evenodd"/>
        <path id="Path_16409" data-name="Path 16409" d="M155.15,69.5l-.629-8.91-1.053-.113-.32-.324-.508-4.763.222-5.152c.023-.288.416-.622.691-.714l2.042-.667c2.107,1.264,1.312,1.264,3.419,0l2.042.667c.276.092.668.426.691.714l.222,5.152-.507,4.763-.321.324-1.052.113-.629,8.91" transform="translate(-94.732 -36.297)" fill="none" stroke="#333" stroke-linecap="round" stroke-linejoin="round" stroke-width="0.882"/>
        <path id="Path_16410" data-name="Path 16410" d="M144.91,69.5l-.629-8.91-1.053-.113-.32-.324-.508-4.763.222-5.152c.023-.288.416-.622.691-.714l2.042-.667c2.107,1.264,1.312,1.264,3.419,0l2.042.667c.276.092.668.426.691.714l.222,5.152-.507,4.763-.321.324-1.052.113-.629,8.91" transform="translate(-95.712 -36.297)" fill="#fff" fill-rule="evenodd"/>
        <path id="Path_16411" data-name="Path 16411" d="M144.91,69.5l-.629-8.91-1.053-.113-.32-.324-.508-4.763.222-5.152c.023-.288.416-.622.691-.714l2.042-.667c2.107,1.264,1.312,1.264,3.419,0l2.042.667c.276.092.668.426.691.714l.222,5.152-.507,4.763-.321.324-1.052.113-.629,8.91" transform="translate(-95.712 -36.297)" fill="none" stroke="#333" stroke-linecap="round" stroke-linejoin="round" stroke-width="0.882"/>
        <path id="Path_16412" data-name="Path 16412" d="M134.67,69.5l-.629-8.91-1.053-.113-.32-.324-.507-4.763.222-5.152c.023-.288.415-.622.691-.714l2.042-.667c2.107,1.264,1.312,1.264,3.419,0l2.042.667c.276.092.667.426.691.714l.222,5.152-.508,4.763-.32.324-1.053.113-.629,8.91" transform="translate(-96.692 -36.297)" fill="#fff" fill-rule="evenodd"/>
        <path id="Path_16413" data-name="Path 16413" d="M134.67,69.5l-.629-8.91-1.053-.113-.32-.324-.507-4.763.222-5.152c.023-.288.415-.622.691-.714l2.042-.667c2.107,1.264,1.312,1.264,3.419,0l2.042.667c.276.092.667.426.691.714l.222,5.152-.508,4.763-.32.324-1.053.113-.629,8.91" transform="translate(-96.692 -36.297)" fill="none" stroke="#333" stroke-linecap="round" stroke-linejoin="round" stroke-width="0.882"/>
        <path id="Path_16414" data-name="Path 16414" d="M143.559,43.1a2.037,2.037,0,0,0-3.957,0,5.822,5.822,0,0,0,.327,2.3,2.138,2.138,0,0,0,1.335.968,1.869,1.869,0,0,0,.634,0,2.135,2.135,0,0,0,1.335-.968,5.842,5.842,0,0,0,.327-2.3" transform="translate(-95.981 -36.997)" fill="#fff" fill-rule="evenodd"/>
        <path id="Path_16415" data-name="Path 16415" d="M143.559,43.1a2.037,2.037,0,0,0-3.957,0,5.822,5.822,0,0,0,.327,2.3,2.138,2.138,0,0,0,1.335.968,1.869,1.869,0,0,0,.634,0,2.135,2.135,0,0,0,1.335-.968A5.842,5.842,0,0,0,143.559,43.1Z" transform="translate(-95.981 -36.997)" fill="none" stroke="#333" stroke-linecap="round" stroke-linejoin="round" stroke-width="0.882"/>
        <path id="Path_16416" data-name="Path 16416" d="M153.8,43.1a2.037,2.037,0,0,0-3.957,0,5.862,5.862,0,0,0,.327,2.3,2.138,2.138,0,0,0,1.335.968,1.869,1.869,0,0,0,.634,0,2.138,2.138,0,0,0,1.335-.968,5.842,5.842,0,0,0,.327-2.3" transform="translate(-95.001 -36.997)" fill="#fff" fill-rule="evenodd"/>
        <path id="Path_16417" data-name="Path 16417" d="M153.8,43.1a2.037,2.037,0,0,0-3.957,0,5.862,5.862,0,0,0,.327,2.3,2.138,2.138,0,0,0,1.335.968,1.869,1.869,0,0,0,.634,0,2.138,2.138,0,0,0,1.335-.968A5.842,5.842,0,0,0,153.8,43.1Z" transform="translate(-95.001 -36.997)" fill="none" stroke="#333" stroke-linecap="round" stroke-linejoin="round" stroke-width="0.882"/>
        <path id="Path_16418" data-name="Path 16418" d="M164.038,43.1a2.037,2.037,0,0,0-3.957,0,5.822,5.822,0,0,0,.327,2.3,2.138,2.138,0,0,0,1.335.968,1.862,1.862,0,0,0,.633,0,2.137,2.137,0,0,0,1.336-.968,5.842,5.842,0,0,0,.327-2.3" transform="translate(-94.02 -36.997)" fill="#fff" fill-rule="evenodd"/>
        <path id="Path_16419" data-name="Path 16419" d="M164.038,43.1a2.037,2.037,0,0,0-3.957,0,5.822,5.822,0,0,0,.327,2.3,2.138,2.138,0,0,0,1.335.968,1.862,1.862,0,0,0,.633,0,2.137,2.137,0,0,0,1.336-.968A5.842,5.842,0,0,0,164.038,43.1Z" transform="translate(-94.02 -36.997)" fill="none" stroke="#333" stroke-linecap="round" stroke-linejoin="round" stroke-width="0.882"/>
        <line id="Line_1246" data-name="Line 1246" y2="8.105" transform="translate(71.009 16.184)" fill="#fff"/>
        <line id="Line_1247" data-name="Line 1247" y2="8.105" transform="translate(71.009 16.184)" fill="none" stroke="#333" stroke-linecap="round" stroke-linejoin="round" stroke-width="0.882"/>
        <path id="Path_16420" data-name="Path 16420" d="M169.29,44.908a2.037,2.037,0,0,0-3.957,0,5.858,5.858,0,0,0,.327,2.3,2.138,2.138,0,0,0,1.335.968,1.815,1.815,0,0,0,.634,0,2.135,2.135,0,0,0,1.335-.968,5.839,5.839,0,0,0,.327-2.3" transform="translate(-93.518 -36.824)" fill="#fff" fill-rule="evenodd"/>
        <path id="Path_16421" data-name="Path 16421" d="M169.29,44.908a2.037,2.037,0,0,0-3.957,0,5.858,5.858,0,0,0,.327,2.3,2.138,2.138,0,0,0,1.335.968,1.815,1.815,0,0,0,.634,0,2.135,2.135,0,0,0,1.335-.968A5.839,5.839,0,0,0,169.29,44.908Z" transform="translate(-93.518 -36.824)" fill="none" stroke="#333" stroke-linecap="round" stroke-linejoin="round" stroke-width="0.882"/>
        <line id="Line_1248" data-name="Line 1248" y2="8.105" transform="translate(59.789 16.184)" fill="#fff"/>
        <line id="Line_1249" data-name="Line 1249" y2="8.105" transform="translate(59.789 16.184)" fill="none" stroke="#333" stroke-linecap="round" stroke-linejoin="round" stroke-width="0.882"/>
        <line id="Line_1250" data-name="Line 1250" y2="8.105" transform="translate(65.371 16.184)" fill="#fff"/>
        <line id="Line_1251" data-name="Line 1251" y2="8.105" transform="translate(65.371 16.184)" fill="none" stroke="#333" stroke-linecap="round" stroke-linejoin="round" stroke-width="0.882"/>
        <line id="Line_1252" data-name="Line 1252" y2="10.136" transform="translate(62.574 23.068)" fill="#fff"/>
        <line id="Line_1253" data-name="Line 1253" y2="10.136" transform="translate(62.574 23.068)" fill="none" stroke="#333" stroke-linecap="round" stroke-linejoin="round" stroke-width="0.882"/>
        <path id="Path_16422" data-name="Path 16422" d="M159.05,44.908a2.037,2.037,0,0,0-3.957,0,5.839,5.839,0,0,0,.327,2.3,2.138,2.138,0,0,0,1.335.968,1.815,1.815,0,0,0,.634,0,2.14,2.14,0,0,0,1.336-.968,5.859,5.859,0,0,0,.325-2.3" transform="translate(-94.498 -36.824)" fill="#fff" fill-rule="evenodd"/>
        <path id="Path_16423" data-name="Path 16423" d="M159.05,44.908a2.037,2.037,0,0,0-3.957,0,5.839,5.839,0,0,0,.327,2.3,2.138,2.138,0,0,0,1.335.968,1.815,1.815,0,0,0,.634,0,2.14,2.14,0,0,0,1.336-.968A5.859,5.859,0,0,0,159.05,44.908Z" transform="translate(-94.498 -36.824)" fill="none" stroke="#333" stroke-linecap="round" stroke-linejoin="round" stroke-width="0.882"/>
        <line id="Line_1254" data-name="Line 1254" y2="8.105" transform="translate(48.569 16.184)" fill="#fff"/>
        <line id="Line_1255" data-name="Line 1255" y2="8.105" transform="translate(48.569 16.184)" fill="none" stroke="#333" stroke-linecap="round" stroke-linejoin="round" stroke-width="0.882"/>
        <line id="Line_1256" data-name="Line 1256" y2="8.105" transform="translate(54.151 16.184)" fill="#fff"/>
        <line id="Line_1257" data-name="Line 1257" y2="8.105" transform="translate(54.151 16.184)" fill="none" stroke="#333" stroke-linecap="round" stroke-linejoin="round" stroke-width="0.882"/>
        <line id="Line_1258" data-name="Line 1258" y2="10.136" transform="translate(51.355 23.068)" fill="#fff"/>
        <line id="Line_1259" data-name="Line 1259" y2="10.136" transform="translate(51.355 23.068)" fill="none" stroke="#333" stroke-linecap="round" stroke-linejoin="round" stroke-width="0.882"/>
        <path id="Path_16424" data-name="Path 16424" d="M148.811,44.908a2.037,2.037,0,0,0-3.957,0,5.819,5.819,0,0,0,.327,2.3,2.138,2.138,0,0,0,1.335.968,1.815,1.815,0,0,0,.634,0,2.138,2.138,0,0,0,1.335-.968,5.839,5.839,0,0,0,.327-2.3" transform="translate(-95.478 -36.824)" fill="#fff" fill-rule="evenodd"/>
        <path id="Path_16425" data-name="Path 16425" d="M148.811,44.908a2.037,2.037,0,0,0-3.957,0,5.819,5.819,0,0,0,.327,2.3,2.138,2.138,0,0,0,1.335.968,1.815,1.815,0,0,0,.634,0,2.138,2.138,0,0,0,1.335-.968A5.839,5.839,0,0,0,148.811,44.908Z" transform="translate(-95.478 -36.824)" fill="none" stroke="#333" stroke-linecap="round" stroke-linejoin="round" stroke-width="0.882"/>
        <line id="Line_1260" data-name="Line 1260" y2="8.105" transform="translate(42.931 16.184)" fill="#fff"/>
        <line id="Line_1261" data-name="Line 1261" y2="8.105" transform="translate(42.931 16.184)" fill="none" stroke="#333" stroke-linecap="round" stroke-linejoin="round" stroke-width="0.882"/>
        <line id="Line_1262" data-name="Line 1262" y2="10.136" transform="translate(40.134 23.068)" fill="#fff"/>
        <line id="Line_1263" data-name="Line 1263" y2="10.136" transform="translate(40.134 23.068)" fill="none" stroke="#333" stroke-linecap="round" stroke-linejoin="round" stroke-width="0.882"/>
        <path id="Path_16426" data-name="Path 16426" d="M138.571,44.908a2.037,2.037,0,0,0-3.957,0,5.819,5.819,0,0,0,.327,2.3,2.138,2.138,0,0,0,1.335.968,1.815,1.815,0,0,0,.634,0,2.138,2.138,0,0,0,1.335-.968,5.838,5.838,0,0,0,.327-2.3" transform="translate(-96.458 -36.824)" fill="#fff" fill-rule="evenodd"/>
        <path id="Path_16427" data-name="Path 16427" d="M138.571,44.908a2.037,2.037,0,0,0-3.957,0,5.819,5.819,0,0,0,.327,2.3,2.138,2.138,0,0,0,1.335.968,1.815,1.815,0,0,0,.634,0,2.138,2.138,0,0,0,1.335-.968A5.838,5.838,0,0,0,138.571,44.908Z" transform="translate(-96.458 -36.824)" fill="none" stroke="#333" stroke-linecap="round" stroke-linejoin="round" stroke-width="0.882"/>
      </g>
    </g>
    <g id="Group_5828" data-name="Group 5828" transform="translate(7.994)">
      <g id="Group_5827" data-name="Group 5827" clip-path="url(#clip-path-2)">
        <path id="Path_16428" data-name="Path 16428" d="M74.867,62.862l-.716-10.137-1.2-.129-.365-.369-.576-5.418.252-5.861c.026-.328.473-.709.787-.813l2.323-.759c2.4,1.439,1.493,1.439,3.89,0l2.324.759c.313.1.76.485.787.813l.253,5.861-.577,5.418-.365.369-1.2.129-.716,10.137" transform="translate(-1.101 3.769)" fill="#fff" fill-rule="evenodd"/>
        <path id="Path_16429" data-name="Path 16429" d="M74.867,62.862l-.716-10.137-1.2-.129-.365-.369-.576-5.418.252-5.861c.026-.328.473-.709.787-.813l2.323-.759c2.4,1.439,1.493,1.439,3.89,0l2.324.759c.313.1.76.485.787.813l.253,5.861-.577,5.418-.365.369-1.2.129-.716,10.137" transform="translate(-1.101 3.769)" fill="none" stroke="#333" stroke-linecap="round" stroke-linejoin="round" stroke-width="0.882"/>
        <line id="Line_1264" data-name="Line 1264" y2="9.222" transform="translate(73.051 47.272)" fill="#fff"/>
        <line id="Line_1265" data-name="Line 1265" y2="9.222" transform="translate(73.051 47.272)" fill="none" stroke="#333" stroke-linecap="round" stroke-linejoin="round" stroke-width="0.882"/>
        <line id="Line_1266" data-name="Line 1266" y2="9.222" transform="translate(79.402 47.272)" fill="#fff"/>
        <line id="Line_1267" data-name="Line 1267" y2="9.222" transform="translate(79.402 47.272)" fill="none" stroke="#333" stroke-linecap="round" stroke-linejoin="round" stroke-width="0.882"/>
        <line id="Line_1268" data-name="Line 1268" y2="11.531" transform="translate(76.22 55.104)" fill="#fff"/>
        <line id="Line_1269" data-name="Line 1269" y2="11.531" transform="translate(76.22 55.104)" fill="none" stroke="#333" stroke-linecap="round" stroke-linejoin="round" stroke-width="0.882"/>
        <path id="Path_16430" data-name="Path 16430" d="M79.3,34.886a2.317,2.317,0,0,0-4.5,0,6.652,6.652,0,0,0,.37,2.619,2.435,2.435,0,0,0,1.519,1.1,2.1,2.1,0,0,0,.722,0,2.434,2.434,0,0,0,1.52-1.1,6.632,6.632,0,0,0,.37-2.619" transform="translate(-0.835 3.17)" fill="#fff" fill-rule="evenodd"/>
        <path id="Path_16431" data-name="Path 16431" d="M79.3,34.886a2.317,2.317,0,0,0-4.5,0,6.652,6.652,0,0,0,.37,2.619,2.435,2.435,0,0,0,1.519,1.1,2.1,2.1,0,0,0,.722,0,2.434,2.434,0,0,0,1.52-1.1A6.632,6.632,0,0,0,79.3,34.886Z" transform="translate(-0.835 3.17)" fill="none" stroke="#333" stroke-linecap="round" stroke-linejoin="round" stroke-width="0.882"/>
        <path id="Path_16432" data-name="Path 16432" d="M57.544,62.781h15.7V56.04H12.6v6.741H28.3" transform="translate(-6.788 5.364)" fill="none" stroke="#333" stroke-linecap="round" stroke-linejoin="round" stroke-width="0.882"/>
        <rect id="Rectangle_11611" data-name="Rectangle 11611" width="29.24" height="5.622" transform="translate(21.516 64.775)" fill="#00b6ed"/>
        <rect id="Rectangle_11612" data-name="Rectangle 11612" width="29.24" height="5.622" transform="translate(21.516 64.775)" fill="none" stroke="#333" stroke-miterlimit="10" stroke-width="1"/>
        <path id="Path_16433" data-name="Path 16433" d="M43.057,12.976a46.155,46.155,0,0,1,29.581,10.7l.606.53H12.6l.644-.53a46.05,46.05,0,0,1,29.543-10.7Z" transform="translate(-6.788 1.242)" fill="#00b6ed"/>
        <path id="Path_16434" data-name="Path 16434" d="M43.057,12.976a46.155,46.155,0,0,1,29.581,10.7l.606.53H12.6l.644-.53a46.05,46.05,0,0,1,29.543-10.7Z" transform="translate(-6.788 1.242)" fill="none" stroke="#333" stroke-miterlimit="10" stroke-width="1"/>
        <line id="Line_1270" data-name="Line 1270" y2="35.953" transform="translate(64.257 25.452)" fill="none" stroke="#333" stroke-linecap="round" stroke-linejoin="round" stroke-width="0.882"/>
        <line id="Line_1271" data-name="Line 1271" y2="35.953" transform="translate(55.231 25.452)" fill="none" stroke="#333" stroke-linecap="round" stroke-linejoin="round" stroke-width="0.882"/>
        <line id="Line_1272" data-name="Line 1272" y1="8.988" x2="9.027" transform="translate(55.231 25.453)" fill="none" stroke="#333" stroke-linecap="round" stroke-linejoin="round" stroke-width="0.882"/>
        <line id="Line_1273" data-name="Line 1273" x2="9.027" y2="8.988" transform="translate(55.231 25.452)" fill="none" stroke="#333" stroke-linecap="round" stroke-linejoin="round" stroke-width="0.882"/>
        <line id="Line_1274" data-name="Line 1274" y1="8.988" x2="9.027" transform="translate(55.231 34.44)" fill="none" stroke="#333" stroke-linecap="round" stroke-linejoin="round" stroke-width="0.882"/>
        <line id="Line_1275" data-name="Line 1275" x2="9.027" y2="8.988" transform="translate(55.231 34.441)" fill="none" stroke="#333" stroke-linecap="round" stroke-linejoin="round" stroke-width="0.882"/>
        <line id="Line_1276" data-name="Line 1276" y1="8.988" x2="9.027" transform="translate(55.231 43.428)" fill="none" stroke="#333" stroke-linecap="round" stroke-linejoin="round" stroke-width="0.882"/>
        <line id="Line_1277" data-name="Line 1277" x2="9.027" y2="8.988" transform="translate(55.231 43.429)" fill="none" stroke="#333" stroke-linecap="round" stroke-linejoin="round" stroke-width="0.882"/>
        <line id="Line_1278" data-name="Line 1278" y1="8.988" x2="9.027" transform="translate(55.231 52.417)" fill="none" stroke="#333" stroke-linecap="round" stroke-linejoin="round" stroke-width="0.882"/>
        <line id="Line_1279" data-name="Line 1279" x2="9.027" y2="8.988" transform="translate(55.231 52.417)" fill="none" stroke="#333" stroke-linecap="round" stroke-linejoin="round" stroke-width="0.882"/>
        <line id="Line_1280" data-name="Line 1280" y2="35.953" transform="translate(17.041 25.452)" fill="none" stroke="#333" stroke-linecap="round" stroke-linejoin="round" stroke-width="0.882"/>
        <line id="Line_1281" data-name="Line 1281" y2="35.953" transform="translate(8.053 25.452)" fill="none" stroke="#333" stroke-linecap="round" stroke-linejoin="round" stroke-width="0.882"/>
        <line id="Line_1282" data-name="Line 1282" y1="8.988" x2="8.988" transform="translate(8.053 25.453)" fill="none" stroke="#333" stroke-linecap="round" stroke-linejoin="round" stroke-width="0.882"/>
        <line id="Line_1283" data-name="Line 1283" x2="8.988" y2="8.988" transform="translate(8.053 25.452)" fill="none" stroke="#333" stroke-linecap="round" stroke-linejoin="round" stroke-width="0.882"/>
        <line id="Line_1284" data-name="Line 1284" y1="8.988" x2="8.988" transform="translate(8.053 34.44)" fill="none" stroke="#333" stroke-linecap="round" stroke-linejoin="round" stroke-width="0.882"/>
        <line id="Line_1285" data-name="Line 1285" x2="8.988" y2="8.988" transform="translate(8.053 34.441)" fill="none" stroke="#333" stroke-linecap="round" stroke-linejoin="round" stroke-width="0.882"/>
        <line id="Line_1286" data-name="Line 1286" y1="8.988" x2="8.988" transform="translate(8.053 43.428)" fill="none" stroke="#333" stroke-linecap="round" stroke-linejoin="round" stroke-width="0.882"/>
        <line id="Line_1287" data-name="Line 1287" x2="8.988" y2="8.988" transform="translate(8.053 43.429)" fill="none" stroke="#333" stroke-linecap="round" stroke-linejoin="round" stroke-width="0.882"/>
        <line id="Line_1288" data-name="Line 1288" y1="8.988" x2="8.988" transform="translate(8.053 52.417)" fill="none" stroke="#333" stroke-linecap="round" stroke-linejoin="round" stroke-width="0.882"/>
        <line id="Line_1289" data-name="Line 1289" x2="8.988" y2="8.988" transform="translate(8.053 52.417)" fill="none" stroke="#333" stroke-linecap="round" stroke-linejoin="round" stroke-width="0.882"/>
        <line id="Line_1290" data-name="Line 1290" x2="38.19" transform="translate(17.041 29.942)" fill="none" stroke="#333" stroke-linecap="round" stroke-linejoin="round" stroke-width="0.882"/>
        <line id="Line_1291" data-name="Line 1291" y2="3.38" transform="translate(22.654 29.942)" fill="none" stroke="#333" stroke-linecap="round" stroke-linejoin="round" stroke-width="0.882"/>
        <line id="Line_1292" data-name="Line 1292" x2="2.276" transform="translate(21.516 33.322)" fill="none" stroke="#333" stroke-linecap="round" stroke-linejoin="round" stroke-width="0.882"/>
        <line id="Line_1293" data-name="Line 1293" y2="3.38" transform="translate(31.68 29.942)" fill="none" stroke="#333" stroke-linecap="round" stroke-linejoin="round" stroke-width="0.882"/>
        <line id="Line_1294" data-name="Line 1294" x2="2.237" transform="translate(30.542 33.322)" fill="none" stroke="#333" stroke-linecap="round" stroke-linejoin="round" stroke-width="0.882"/>
        <line id="Line_1295" data-name="Line 1295" y2="3.38" transform="translate(40.63 29.942)" fill="none" stroke="#333" stroke-linecap="round" stroke-linejoin="round" stroke-width="0.882"/>
        <line id="Line_1296" data-name="Line 1296" x2="2.237" transform="translate(39.53 33.322)" fill="none" stroke="#333" stroke-linecap="round" stroke-linejoin="round" stroke-width="0.882"/>
        <line id="Line_1297" data-name="Line 1297" y2="3.38" transform="translate(49.656 29.942)" fill="none" stroke="#333" stroke-linecap="round" stroke-linejoin="round" stroke-width="0.882"/>
        <line id="Line_1298" data-name="Line 1298" x2="2.237" transform="translate(48.518 33.322)" fill="none" stroke="#333" stroke-linecap="round" stroke-linejoin="round" stroke-width="0.882"/>
        <path id="Path_16435" data-name="Path 16435" d="M77.392,46.065,71.26,47.088v3.061h6.132" transform="translate(-1.173 4.409)" fill="#00b6ed"/>
        <path id="Path_16436" data-name="Path 16436" d="M77.392,46.065,71.26,47.088v3.061h6.132" transform="translate(-1.173 4.409)" fill="none" stroke="#333" stroke-miterlimit="10" stroke-width="1"/>
        <rect id="Rectangle_11613" data-name="Rectangle 11613" width="17.828" height="13.779" transform="translate(71.654 54.559)" fill="#fff"/>
        <rect id="Rectangle_11614" data-name="Rectangle 11614" width="17.828" height="13.779" transform="translate(71.654 54.559)" fill="none" stroke="#333" stroke-linecap="round" stroke-linejoin="round" stroke-width="0.882"/>
        <line id="Line_1299" data-name="Line 1299" y2="13.779" transform="translate(78.372 54.558)" fill="#fff"/>
        <line id="Line_1300" data-name="Line 1300" y2="13.779" transform="translate(78.372 54.558)" fill="none" stroke="#333" stroke-linecap="round" stroke-linejoin="round" stroke-width="0.882"/>
        <path id="Path_16437" data-name="Path 16437" d="M89.324,46.51l-1.016-5.1H85.156" transform="translate(0.158 3.964)" fill="#fff"/>
        <path id="Path_16438" data-name="Path 16438" d="M89.324,46.51l-1.016-5.1H85.156" transform="translate(0.158 3.964)" fill="none" stroke="#333" stroke-linecap="round" stroke-linejoin="round" stroke-width="0.882"/>
        <path id="Path_16439" data-name="Path 16439" d="M83.348,41.454a.5.5,0,0,0,.5.506h1.016a.506.506,0,1,0,0-1.012H83.848a.505.505,0,0,0-.5.506" transform="translate(-0.015 3.92)" fill="#fff"/>
        <path id="Path_16440" data-name="Path 16440" d="M83.348,41.454a.5.5,0,0,0,.5.506h1.016a.506.506,0,1,0,0-1.012H83.848A.505.505,0,0,0,83.348,41.454Z" transform="translate(-0.015 3.92)" fill="none" stroke="#333" stroke-linecap="round" stroke-linejoin="round" stroke-width="0.882"/>
        <rect id="Rectangle_11615" data-name="Rectangle 11615" width="15.313" height="4.085" transform="translate(76.219 50.474)" fill="#00b6ed"/>
        <rect id="Rectangle_11616" data-name="Rectangle 11616" width="15.313" height="4.085" transform="translate(76.219 50.474)" fill="none" stroke="#333" stroke-miterlimit="10" stroke-width="1"/>
      </g>
    </g>
  </g>
</svg>
