<svg xmlns="http://www.w3.org/2000/svg" xmlns:xlink="http://www.w3.org/1999/xlink" width="116.728" height="91.5" viewBox="0 0 116.728 91.5"><defs><clipPath id="a"><rect width="116.728" height="91.5" transform="translate(0 0)" fill="none"/></clipPath></defs><g transform="translate(0 0)"><path d="M103.717,51.821h-1.236l5.02-7.86,4.363,7.86h-1.233" fill="#00b6ed"/><path d="M111.864,52.321h-1.233a.5.5,0,0,1,0-1h.384l-3.544-6.384-4.077,6.384h.323a.5.5,0,0,1,0,1h-1.236a.5.5,0,0,1-.421-.769l5.02-7.86a.5.5,0,0,1,.859.026l4.363,7.86a.5.5,0,0,1-.437.743Z" fill="#333"/><rect width="2.963" height="39.508" transform="translate(70.793 51.492)" fill="#00b6ed"/><g clip-path="url(#a)"><path d="M-.5-.5H3.463V40.008H-.5ZM2.463.5H.5V39.008H2.463Z" transform="translate(70.793 51.492)" fill="#333"/></g><rect width="2.963" height="39.508" transform="translate(81.987 51.492)" fill="#00b6ed"/><g clip-path="url(#a)"><path d="M-.5-.5H3.463V40.008H-.5ZM2.463.5H.5V39.008H2.463Z" transform="translate(81.987 51.492)" fill="#333"/><path d="M81.987,90.842a.5.5,0,0,1-.5-.5V38.493H74.256V90.342a.5.5,0,0,1-1,0V37.993a.5.5,0,0,1,.5-.5h8.231a.5.5,0,0,1,.5.5V90.342A.5.5,0,0,1,81.987,90.842Z" fill="#333"/></g><path d="M0-.5H.988a.5.5,0,0,1,.5.5V1.646a.5.5,0,0,1-.5.5H0a.5.5,0,0,1-.5-.5V0A.5.5,0,0,1,0-.5Z" transform="translate(77.377 31.408)" fill="#333"/><path d="M5.268.5H0A.5.5,0,0,1-.5,0,.5.5,0,0,1,0-.5H5.268a.5.5,0,0,1,.5.5A.5.5,0,0,1,5.268.5Z" transform="translate(75.402 35.689)" fill="#333"/><g clip-path="url(#a)"><path d="M84.95,91.171a.5.5,0,0,1-.5-.5V39.481H82.316a.5.5,0,0,1,0-1H84.95a.5.5,0,0,1,.5.5v51.69A.5.5,0,0,1,84.95,91.171Z" fill="#333"/></g><path d="M2.3.5H0A.5.5,0,0,1-.5,0,.5.5,0,0,1,0-.5H2.3a.5.5,0,0,1,.5.5A.5.5,0,0,1,2.3.5Z" transform="translate(82.316 43.919)" fill="#333"/><path d="M2.3.5H0A.5.5,0,0,1-.5,0,.5.5,0,0,1,0-.5H2.3a.5.5,0,0,1,.5.5A.5.5,0,0,1,2.3.5Z" transform="translate(82.316 47.87)" fill="#333"/><path d="M2.3.5H0A.5.5,0,0,1-.5,0,.5.5,0,0,1,0-.5H2.3a.5.5,0,0,1,.5.5A.5.5,0,0,1,2.3.5Z" transform="translate(82.316 59.394)" fill="#333"/><path d="M2.3.5H0A.5.5,0,0,1-.5,0,.5.5,0,0,1,0-.5H2.3a.5.5,0,0,1,.5.5A.5.5,0,0,1,2.3.5Z" transform="translate(82.316 61.369)" fill="#333"/><path d="M2.3.5H0A.5.5,0,0,1-.5,0,.5.5,0,0,1,0-.5H2.3a.5.5,0,0,1,.5.5A.5.5,0,0,1,2.3.5Z" transform="translate(82.316 63.344)" fill="#333"/><path d="M2.3.5H0A.5.5,0,0,1-.5,0,.5.5,0,0,1,0-.5H2.3a.5.5,0,0,1,.5.5A.5.5,0,0,1,2.3.5Z" transform="translate(82.316 65.32)" fill="#333"/><path d="M2.3.5H0A.5.5,0,0,1-.5,0,.5.5,0,0,1,0-.5H2.3a.5.5,0,0,1,.5.5A.5.5,0,0,1,2.3.5Z" transform="translate(82.316 67.295)" fill="#333"/><path d="M2.3.5H0A.5.5,0,0,1-.5,0,.5.5,0,0,1,0-.5H2.3a.5.5,0,0,1,.5.5A.5.5,0,0,1,2.3.5Z" transform="translate(82.316 69.271)" fill="#333"/><path d="M2.3.5H0A.5.5,0,0,1-.5,0,.5.5,0,0,1,0-.5H2.3a.5.5,0,0,1,.5.5A.5.5,0,0,1,2.3.5Z" transform="translate(82.316 71.246)" fill="#333"/><path d="M2.3.5H0A.5.5,0,0,1-.5,0,.5.5,0,0,1,0-.5H2.3a.5.5,0,0,1,.5.5A.5.5,0,0,1,2.3.5Z" transform="translate(82.316 73.221)" fill="#333"/><path d="M2.3.5H0A.5.5,0,0,1-.5,0,.5.5,0,0,1,0-.5H2.3a.5.5,0,0,1,.5.5A.5.5,0,0,1,2.3.5Z" transform="translate(82.316 75.197)" fill="#333"/><path d="M2.3.5H0A.5.5,0,0,1-.5,0,.5.5,0,0,1,0-.5H2.3a.5.5,0,0,1,.5.5A.5.5,0,0,1,2.3.5Z" transform="translate(82.316 77.173)" fill="#333"/><path d="M2.3.5H0A.5.5,0,0,1-.5,0,.5.5,0,0,1,0-.5H2.3a.5.5,0,0,1,.5.5A.5.5,0,0,1,2.3.5Z" transform="translate(82.316 79.148)" fill="#333"/><path d="M2.3.5H0A.5.5,0,0,1-.5,0,.5.5,0,0,1,0-.5H2.3a.5.5,0,0,1,.5.5A.5.5,0,0,1,2.3.5Z" transform="translate(82.316 81.123)" fill="#333"/><path d="M2.3.5H0A.5.5,0,0,1-.5,0,.5.5,0,0,1,0-.5H2.3a.5.5,0,0,1,.5.5A.5.5,0,0,1,2.3.5Z" transform="translate(82.316 83.099)" fill="#333"/><path d="M2.3.5H0A.5.5,0,0,1-.5,0,.5.5,0,0,1,0-.5H2.3a.5.5,0,0,1,.5.5A.5.5,0,0,1,2.3.5Z" transform="translate(82.316 85.074)" fill="#333"/><path d="M2.3.5H0A.5.5,0,0,1-.5,0,.5.5,0,0,1,0-.5H2.3a.5.5,0,0,1,.5.5A.5.5,0,0,1,2.3.5Z" transform="translate(82.316 87.05)" fill="#333"/><path d="M2.3.5H0A.5.5,0,0,1-.5,0,.5.5,0,0,1,0-.5H2.3a.5.5,0,0,1,.5.5A.5.5,0,0,1,2.3.5Z" transform="translate(82.316 89.025)" fill="#333"/><path d="M2.3.5H0A.5.5,0,0,1-.5,0,.5.5,0,0,1,0-.5H2.3a.5.5,0,0,1,.5.5A.5.5,0,0,1,2.3.5Z" transform="translate(71.122 83.099)" fill="#333"/><path d="M2.3.5H0A.5.5,0,0,1-.5,0,.5.5,0,0,1,0-.5H2.3a.5.5,0,0,1,.5.5A.5.5,0,0,1,2.3.5Z" transform="translate(71.122 85.074)" fill="#333"/><path d="M2.3.5H0A.5.5,0,0,1-.5,0,.5.5,0,0,1,0-.5H2.3a.5.5,0,0,1,.5.5A.5.5,0,0,1,2.3.5Z" transform="translate(71.122 87.05)" fill="#333"/><path d="M2.3.5H0A.5.5,0,0,1-.5,0,.5.5,0,0,1,0-.5H2.3a.5.5,0,0,1,.5.5A.5.5,0,0,1,2.3.5Z" transform="translate(71.122 89.025)" fill="#333"/><g clip-path="url(#a)"><path d="M70.793,90.842a.5.5,0,0,1-.5-.5V38.981a.5.5,0,0,1,.5-.5h2.634a.5.5,0,0,1,0,1H71.293V90.342A.5.5,0,0,1,70.793,90.842Z" fill="#333"/></g><path d="M2.305.5H0A.5.5,0,0,1-.5,0,.5.5,0,0,1,0-.5h2.3a.5.5,0,0,1,.5.5A.5.5,0,0,1,2.305.5Z" transform="translate(71.122 43.919)" fill="#333"/><path d="M2.305.5H0A.5.5,0,0,1-.5,0,.5.5,0,0,1,0-.5h2.3a.5.5,0,0,1,.5.5A.5.5,0,0,1,2.305.5Z" transform="translate(71.122 47.87)" fill="#333"/><g clip-path="url(#a)"><path d="M87.584,91.171a.5.5,0,0,1-.5-.5V51.992H68.659V90.671a.5.5,0,0,1-1,0V51.492a.5.5,0,0,1,.5-.5H87.584a.5.5,0,0,1,.5.5V90.671A.5.5,0,0,1,87.584,91.171Z" fill="#333"/></g><path d="M2.305.5H0A.5.5,0,0,1-.5,0,.5.5,0,0,1,0-.5h2.3a.5.5,0,0,1,.5.5A.5.5,0,0,1,2.305.5Z" transform="translate(71.122 59.394)" fill="#333"/><path d="M2.305.5H0A.5.5,0,0,1-.5,0,.5.5,0,0,1,0-.5h2.3a.5.5,0,0,1,.5.5A.5.5,0,0,1,2.305.5Z" transform="translate(71.122 61.369)" fill="#333"/><path d="M2.305.5H0A.5.5,0,0,1-.5,0,.5.5,0,0,1,0-.5h2.3a.5.5,0,0,1,.5.5A.5.5,0,0,1,2.305.5Z" transform="translate(71.122 63.344)" fill="#333"/><path d="M2.3.5H0A.5.5,0,0,1-.5,0,.5.5,0,0,1,0-.5H2.3a.5.5,0,0,1,.5.5A.5.5,0,0,1,2.3.5Z" transform="translate(82.316 53.467)" fill="#333"/><path d="M2.3.5H0A.5.5,0,0,1-.5,0,.5.5,0,0,1,0-.5H2.3a.5.5,0,0,1,.5.5A.5.5,0,0,1,2.3.5Z" transform="translate(82.316 55.443)" fill="#333"/><path d="M2.3.5H0A.5.5,0,0,1-.5,0,.5.5,0,0,1,0-.5H2.3a.5.5,0,0,1,.5.5A.5.5,0,0,1,2.3.5Z" transform="translate(82.316 57.418)" fill="#333"/><path d="M2.305.5H0A.5.5,0,0,1-.5,0,.5.5,0,0,1,0-.5h2.3a.5.5,0,0,1,.5.5A.5.5,0,0,1,2.305.5Z" transform="translate(71.122 53.467)" fill="#333"/><path d="M2.305.5H0A.5.5,0,0,1-.5,0,.5.5,0,0,1,0-.5h2.3a.5.5,0,0,1,.5.5A.5.5,0,0,1,2.305.5Z" transform="translate(71.122 55.443)" fill="#333"/><path d="M2.305.5H0A.5.5,0,0,1-.5,0,.5.5,0,0,1,0-.5h2.3a.5.5,0,0,1,.5.5A.5.5,0,0,1,2.305.5Z" transform="translate(71.122 57.418)" fill="#333"/><path d="M2.305.5H0A.5.5,0,0,1-.5,0,.5.5,0,0,1,0-.5h2.3a.5.5,0,0,1,.5.5A.5.5,0,0,1,2.305.5Z" transform="translate(71.122 65.32)" fill="#333"/><path d="M2.305.5H0A.5.5,0,0,1-.5,0,.5.5,0,0,1,0-.5h2.3a.5.5,0,0,1,.5.5A.5.5,0,0,1,2.305.5Z" transform="translate(71.122 67.295)" fill="#333"/><path d="M2.305.5H0A.5.5,0,0,1-.5,0,.5.5,0,0,1,0-.5h2.3a.5.5,0,0,1,.5.5A.5.5,0,0,1,2.305.5Z" transform="translate(71.122 69.271)" fill="#333"/><path d="M2.305.5H0A.5.5,0,0,1-.5,0,.5.5,0,0,1,0-.5h2.3a.5.5,0,0,1,.5.5A.5.5,0,0,1,2.305.5Z" transform="translate(71.122 71.246)" fill="#333"/><path d="M2.305.5H0A.5.5,0,0,1-.5,0,.5.5,0,0,1,0-.5h2.3a.5.5,0,0,1,.5.5A.5.5,0,0,1,2.305.5Z" transform="translate(71.122 73.221)" fill="#333"/><path d="M2.305.5H0A.5.5,0,0,1-.5,0,.5.5,0,0,1,0-.5h2.3a.5.5,0,0,1,.5.5A.5.5,0,0,1,2.305.5Z" transform="translate(71.122 75.197)" fill="#333"/><path d="M2.305.5H0A.5.5,0,0,1-.5,0,.5.5,0,0,1,0-.5h2.3a.5.5,0,0,1,.5.5A.5.5,0,0,1,2.305.5Z" transform="translate(71.122 77.173)" fill="#333"/><path d="M2.305.5H0A.5.5,0,0,1-.5,0,.5.5,0,0,1,0-.5h2.3a.5.5,0,0,1,.5.5A.5.5,0,0,1,2.305.5Z" transform="translate(71.122 79.148)" fill="#333"/><path d="M2.305.5H0A.5.5,0,0,1-.5,0,.5.5,0,0,1,0-.5h2.3a.5.5,0,0,1,.5.5A.5.5,0,0,1,2.305.5Z" transform="translate(71.122 81.123)" fill="#333"/><g clip-path="url(#a)"><path d="M81.484,41.615a3.594,3.594,0,0,0-7.034,0Z" fill="#00b6ed"/><path d="M82.1,42.115H73.834l.127-.6a4.094,4.094,0,0,1,8.013,0Zm-6.967-1H80.8a3.094,3.094,0,0,0-5.668,0Z" fill="#333"/><path d="M7.9.5H0A.5.5,0,0,1-.5,0,.5.5,0,0,1,0-.5H7.9a.5.5,0,0,1,.5.5A.5.5,0,0,1,7.9.5Z" transform="translate(73.756 43.919)" fill="#333"/><path d="M.659.5H0A.5.5,0,0,1-.5,0,.5.5,0,0,1,0-.5H.659a.5.5,0,0,1,.5.5A.5.5,0,0,1,.659.5Z" transform="translate(77.378 45.566)" fill="#333"/><path d="M.659.5H0A.5.5,0,0,1-.5,0,.5.5,0,0,1,0-.5H.659a.5.5,0,0,1,.5.5A.5.5,0,0,1,.659.5Z" transform="translate(77.378 47.541)" fill="#333"/><path d="M.659.5H0A.5.5,0,0,1-.5,0,.5.5,0,0,1,0-.5H.659a.5.5,0,0,1,.5.5A.5.5,0,0,1,.659.5Z" transform="translate(77.378 49.516)" fill="#333"/><path d="M.659.5H0A.5.5,0,0,1-.5,0,.5.5,0,0,1,0-.5H.659a.5.5,0,0,1,.5.5A.5.5,0,0,1,.659.5Z" transform="translate(76.39 53.467)" fill="#333"/><path d="M.659.5H0A.5.5,0,0,1-.5,0,.5.5,0,0,1,0-.5H.659a.5.5,0,0,1,.5.5A.5.5,0,0,1,.659.5Z" transform="translate(76.39 55.443)" fill="#333"/><path d="M.659.5H0A.5.5,0,0,1-.5,0,.5.5,0,0,1,0-.5H.659a.5.5,0,0,1,.5.5A.5.5,0,0,1,.659.5Z" transform="translate(76.39 57.418)" fill="#333"/><path d="M.659.5H0A.5.5,0,0,1-.5,0,.5.5,0,0,1,0-.5H.659a.5.5,0,0,1,.5.5A.5.5,0,0,1,.659.5Z" transform="translate(76.39 59.394)" fill="#333"/><path d="M.659.5H0A.5.5,0,0,1-.5,0,.5.5,0,0,1,0-.5H.659a.5.5,0,0,1,.5.5A.5.5,0,0,1,.659.5Z" transform="translate(76.39 61.369)" fill="#333"/><path d="M.659.5H0A.5.5,0,0,1-.5,0,.5.5,0,0,1,0-.5H.659a.5.5,0,0,1,.5.5A.5.5,0,0,1,.659.5Z" transform="translate(76.39 63.344)" fill="#333"/><path d="M.659.5H0A.5.5,0,0,1-.5,0,.5.5,0,0,1,0-.5H.659a.5.5,0,0,1,.5.5A.5.5,0,0,1,.659.5Z" transform="translate(76.39 65.32)" fill="#333"/><path d="M.659.5H0A.5.5,0,0,1-.5,0,.5.5,0,0,1,0-.5H.659a.5.5,0,0,1,.5.5A.5.5,0,0,1,.659.5Z" transform="translate(76.39 67.295)" fill="#333"/><path d="M.659.5H0A.5.5,0,0,1-.5,0,.5.5,0,0,1,0-.5H.659a.5.5,0,0,1,.5.5A.5.5,0,0,1,.659.5Z" transform="translate(76.39 69.271)" fill="#333"/><path d="M.659.5H0A.5.5,0,0,1-.5,0,.5.5,0,0,1,0-.5H.659a.5.5,0,0,1,.5.5A.5.5,0,0,1,.659.5Z" transform="translate(76.39 71.246)" fill="#333"/><path d="M.659.5H0A.5.5,0,0,1-.5,0,.5.5,0,0,1,0-.5H.659a.5.5,0,0,1,.5.5A.5.5,0,0,1,.659.5Z" transform="translate(76.39 73.221)" fill="#333"/><path d="M.659.5H0A.5.5,0,0,1-.5,0,.5.5,0,0,1,0-.5H.659a.5.5,0,0,1,.5.5A.5.5,0,0,1,.659.5Z" transform="translate(76.39 75.197)" fill="#333"/><path d="M.659.5H0A.5.5,0,0,1-.5,0,.5.5,0,0,1,0-.5H.659a.5.5,0,0,1,.5.5A.5.5,0,0,1,.659.5Z" transform="translate(76.39 77.173)" fill="#333"/><path d="M.659.5H0A.5.5,0,0,1-.5,0,.5.5,0,0,1,0-.5H.659a.5.5,0,0,1,.5.5A.5.5,0,0,1,.659.5Z" transform="translate(76.39 79.148)" fill="#333"/><path d="M.659.5H0A.5.5,0,0,1-.5,0,.5.5,0,0,1,0-.5H.659a.5.5,0,0,1,.5.5A.5.5,0,0,1,.659.5Z" transform="translate(76.39 81.452)" fill="#333"/><path d="M.659.5H0A.5.5,0,0,1-.5,0,.5.5,0,0,1,0-.5H.659a.5.5,0,0,1,.5.5A.5.5,0,0,1,.659.5Z" transform="translate(76.39 83.428)" fill="#333"/><path d="M.659.5H0A.5.5,0,0,1-.5,0,.5.5,0,0,1,0-.5H.659a.5.5,0,0,1,.5.5A.5.5,0,0,1,.659.5Z" transform="translate(76.39 85.404)" fill="#333"/><path d="M.659.5H0A.5.5,0,0,1-.5,0,.5.5,0,0,1,0-.5H.659a.5.5,0,0,1,.5.5A.5.5,0,0,1,.659.5Z" transform="translate(76.39 87.379)" fill="#333"/><path d="M.659.5H0A.5.5,0,0,1-.5,0,.5.5,0,0,1,0-.5H.659a.5.5,0,0,1,.5.5A.5.5,0,0,1,.659.5Z" transform="translate(78.694 53.467)" fill="#333"/><path d="M.659.5H0A.5.5,0,0,1-.5,0,.5.5,0,0,1,0-.5H.659a.5.5,0,0,1,.5.5A.5.5,0,0,1,.659.5Z" transform="translate(78.694 55.443)" fill="#333"/><path d="M.659.5H0A.5.5,0,0,1-.5,0,.5.5,0,0,1,0-.5H.659a.5.5,0,0,1,.5.5A.5.5,0,0,1,.659.5Z" transform="translate(78.694 57.418)" fill="#333"/><path d="M.659.5H0A.5.5,0,0,1-.5,0,.5.5,0,0,1,0-.5H.659a.5.5,0,0,1,.5.5A.5.5,0,0,1,.659.5Z" transform="translate(78.694 59.394)" fill="#333"/><path d="M.659.5H0A.5.5,0,0,1-.5,0,.5.5,0,0,1,0-.5H.659a.5.5,0,0,1,.5.5A.5.5,0,0,1,.659.5Z" transform="translate(78.694 61.369)" fill="#333"/><path d="M.659.5H0A.5.5,0,0,1-.5,0,.5.5,0,0,1,0-.5H.659a.5.5,0,0,1,.5.5A.5.5,0,0,1,.659.5Z" transform="translate(78.694 63.344)" fill="#333"/><path d="M.659.5H0A.5.5,0,0,1-.5,0,.5.5,0,0,1,0-.5H.659a.5.5,0,0,1,.5.5A.5.5,0,0,1,.659.5Z" transform="translate(78.694 65.32)" fill="#333"/><path d="M.659.5H0A.5.5,0,0,1-.5,0,.5.5,0,0,1,0-.5H.659a.5.5,0,0,1,.5.5A.5.5,0,0,1,.659.5Z" transform="translate(78.694 67.295)" fill="#333"/><path d="M.659.5H0A.5.5,0,0,1-.5,0,.5.5,0,0,1,0-.5H.659a.5.5,0,0,1,.5.5A.5.5,0,0,1,.659.5Z" transform="translate(78.694 69.271)" fill="#333"/><path d="M.659.5H0A.5.5,0,0,1-.5,0,.5.5,0,0,1,0-.5H.659a.5.5,0,0,1,.5.5A.5.5,0,0,1,.659.5Z" transform="translate(78.694 71.246)" fill="#333"/><path d="M.659.5H0A.5.5,0,0,1-.5,0,.5.5,0,0,1,0-.5H.659a.5.5,0,0,1,.5.5A.5.5,0,0,1,.659.5Z" transform="translate(78.694 73.221)" fill="#333"/><path d="M.659.5H0A.5.5,0,0,1-.5,0,.5.5,0,0,1,0-.5H.659a.5.5,0,0,1,.5.5A.5.5,0,0,1,.659.5Z" transform="translate(78.694 75.197)" fill="#333"/><path d="M.659.5H0A.5.5,0,0,1-.5,0,.5.5,0,0,1,0-.5H.659a.5.5,0,0,1,.5.5A.5.5,0,0,1,.659.5Z" transform="translate(78.694 77.173)" fill="#333"/><path d="M.659.5H0A.5.5,0,0,1-.5,0,.5.5,0,0,1,0-.5H.659a.5.5,0,0,1,.5.5A.5.5,0,0,1,.659.5Z" transform="translate(78.694 79.148)" fill="#333"/><path d="M.659.5H0A.5.5,0,0,1-.5,0,.5.5,0,0,1,0-.5H.659a.5.5,0,0,1,.5.5A.5.5,0,0,1,.659.5Z" transform="translate(78.694 81.452)" fill="#333"/><path d="M.659.5H0A.5.5,0,0,1-.5,0,.5.5,0,0,1,0-.5H.659a.5.5,0,0,1,.5.5A.5.5,0,0,1,.659.5Z" transform="translate(78.694 83.428)" fill="#333"/><path d="M.659.5H0A.5.5,0,0,1-.5,0,.5.5,0,0,1,0-.5H.659a.5.5,0,0,1,.5.5A.5.5,0,0,1,.659.5Z" transform="translate(78.694 85.404)" fill="#333"/><path d="M.659.5H0A.5.5,0,0,1-.5,0,.5.5,0,0,1,0-.5H.659a.5.5,0,0,1,.5.5A.5.5,0,0,1,.659.5Z" transform="translate(78.694 87.379)" fill="#333"/><path d="M66.869,14.242l-6.92-2.132c-1.119-.5-.564-1.706.482-2.273a27.847,27.847,0,0,0-8.194,0c1.046.567,1.585,1.774.466,2.273l-7,2.132c7.1-.317,14.156-.333,21.166,0" fill="#00b6ed"/><path d="M70.8,14.929l-3.952-.188c-3.4-.161-6.9-.243-10.4-.243s-7.109.082-10.724.243l-3.959.177,10.759-3.277c.291-.138.3-.293.3-.345A1.392,1.392,0,0,0,52,10.277L50.98,9.725l1.1-.362a19.8,19.8,0,0,1,4.3-.328,19.861,19.861,0,0,1,4.225.333l1.045.38-.977.53a1.434,1.434,0,0,0-.836,1.028c0,.056.008.2.294.337ZM53.384,10.152a1.842,1.842,0,0,1,.439,1.183,1.383,1.383,0,0,1-.916,1.231l-.028.013L49.525,13.6c2.335-.068,4.652-.1,6.925-.1,2.217,0,4.433.033,6.623.1l-3.3-1.017-.028-.012a1.374,1.374,0,0,1-.911-1.224,1.851,1.851,0,0,1,.45-1.2c-.736-.07-1.775-.112-2.908-.112C55.221,10.034,54.148,10.079,53.384,10.152Z" fill="#333"/><path d="M65.277,18.618a.5.5,0,0,1-.028-1c.819-.046,1.482-.094,2.018-.142-.528-.047-1.18-.095-1.983-.14-2.475-.14-5.67-.218-9-.218s-6.523.077-9,.218c-.8.046-1.454.093-1.983.14.5.045,1.122.09,1.877.134a.5.5,0,1,1-.058,1c-1.388-.081-2.485-.177-3.258-.285a7.065,7.065,0,0,1-.95-.184c-.165-.048-.667-.195-.667-.663,0-.561.646-.7,1.49-.829.7-.1,1.686-.2,2.944-.277,2.567-.163,5.978-.252,9.6-.252s7.038.09,9.6.252c1.257.08,2.248.173,2.944.277a6.114,6.114,0,0,1,.863.178c.416.129.627.348.627.651,0,.579-.687.718-1.659.853-.8.11-1.93.207-3.359.288Z" fill="#333"/><path d="M0,2.771H-.031A.5.5,0,0,1-.5,2.24L-.36-.031A.5.5,0,0,1,.17-.5a.5.5,0,0,1,.469.53L.5,2.3A.5.5,0,0,1,0,2.771Z" transform="translate(47.477 17.315)" fill="#333"/><path d="M.139,2.771A.5.5,0,0,1-.36,2.3L-.5.031A.5.5,0,0,1-.031-.5.5.5,0,0,1,.5-.031L.638,2.24a.5.5,0,0,1-.469.53Z" transform="translate(64.724 17.315)" fill="#333"/><path d="M58.687,21.571H53.965c-2.316,0-4.526-.007-6.108-.094a13.424,13.424,0,0,1-1.858-.2c-.285-.059-1.044-.216-1.044-.835,0-.546.609-.811,1.2-1a16.7,16.7,0,0,1,2.406-.5,55.126,55.126,0,0,1,7.76-.5,55.146,55.146,0,0,1,7.762.5,16.71,16.71,0,0,1,2.407.5c.6.187,1.2.452,1.2,1,0,.62-.758.776-1.044.835a13.426,13.426,0,0,1-1.858.2C63.214,21.564,61,21.571,58.687,21.571Zm-2.361-1h2.361c1.983,0,4.046-.005,5.57-.069.865-.036,1.44-.088,1.821-.139a18.43,18.43,0,0,0-2.605-.5,59.881,59.881,0,0,0-14.294,0,18.424,18.424,0,0,0-2.6.5c.381.051.956.1,1.821.139,1.524.064,3.587.069,5.569.069Z" fill="#333"/><path d="M0,2.475a.5.5,0,0,1-.5-.5V0A.5.5,0,0,1,0-.5.5.5,0,0,1,.5,0V1.975A.5.5,0,0,1,0,2.475Z" transform="translate(47.417 14.617)" fill="#333"/><path d="M0,2.475a.5.5,0,0,1-.5-.5V0A.5.5,0,0,1,0-.5.5.5,0,0,1,.5,0V1.975A.5.5,0,0,1,0,2.475Z" transform="translate(64.537 14.617)" fill="#333"/><path d="M.187,8.943a.5.5,0,0,1-.5-.489L-.5.011A.5.5,0,0,1-.011-.5.5.5,0,0,1,.5-.011L.687,8.432A.5.5,0,0,1,.2,8.943Z" transform="translate(56.679 81.955)" fill="#333"/><path d="M56.552,74.873a.5.5,0,0,1-.5-.493l-.388-26c-.184-8.075-.5-11.742-.871-15.989-.242-2.788-.516-5.947-.8-10.826a.5.5,0,1,1,1-.058c.281,4.864.554,8.016.8,10.8.37,4.264.69,7.946.874,16.057l.388,26.008a.5.5,0,0,1-.492.507Z" fill="#333"/><path d="M64.141,90.686a.5.5,0,0,1-.494-.424c-.136-.89-.274-1.617-.419-2.387-.282-1.493-.574-3.037-.865-5.866a.5.5,0,1,1,.995-.1c.286,2.787.574,4.31.853,5.782.141.744.286,1.514.425,2.421a.5.5,0,0,1-.495.576Z" fill="#333"/><path d="M62.28,75.294a.5.5,0,0,1-.5-.474c-.487-9.2-1.25-15.706-1.863-20.935a93.768,93.768,0,0,1-.986-14.164c-.194-5.671,1.608-11.822,3.351-17.771l.184-.627a.5.5,0,0,1,.96.281l-.184.628c-1.722,5.879-3.5,11.958-3.31,17.472q0,.017,0,.034a91.554,91.554,0,0,0,.979,14.032c.615,5.244,1.38,11.769,1.869,21a.5.5,0,0,1-.473.526Z" fill="#333"/><path d="M56.688,21.2c.321,5.887.543,11.364,1.692,9.308.226-.871,1.158-4.389,2.534-9.047" fill="#00b6ed"/><path d="M57.939,31.453a.717.717,0,0,1-.162-.019c-.6-.14-.886-.941-1.124-3.177-.172-1.62-.289-3.78-.412-6.068q-.026-.476-.052-.959l1-.054q.026.482.052.96c.114,2.11.221,4.1.371,5.654a15.028,15.028,0,0,0,.354,2.336c.258-.982,1.149-4.328,2.471-8.8l.959.283c-1.488,5.038-2.427,8.637-2.53,9.031l-.016.062-.031.056C58.557,31.219,58.262,31.453,57.939,31.453Z" fill="#333"/><path d="M59.85,65.4c-.043-.5-.446-5.017-.446-5.017H57.937c.053,1.975.112,3.112.175,5.03Z" fill="#00b6ed"/><path d="M57.749,65.789l-.012-.365c-.025-.776-.05-1.424-.074-2.051-.036-.928-.069-1.8-.1-2.981l-.01-.385h2.2l.03.342c0,.045.4,4.526.446,5.018l.035.4Zm.573-5.033c.028.985.058,1.766.09,2.588.02.527.041,1.069.062,1.69l.966-.007c-.088-1-.3-3.381-.38-4.27Z" fill="#333"/><path d="M58.148,67.425c.079,2.327.217,3.733.3,5.55l2.031.009s-.53-5.392-.557-5.594Z" fill="#00b6ed"/><path d="M60.246,67.008l.044.332c.027.2.5,5.054.559,5.607l.041.414-2.8-.012-.016-.357c-.033-.755-.076-1.432-.122-2.15-.064-1-.129-2.043-.176-3.4l-.013-.38Zm-.184,5.6c-.172-1.749-.394-3.995-.48-4.835l-1.046.021c.045,1.168.1,2.1.161,3,.038.607.075,1.185.106,1.807Z" fill="#333"/><path d="M0,9.228a.5.5,0,0,1-.081-.007.5.5,0,0,1-.413-.574L.936-.081A.5.5,0,0,1,1.51-.493a.5.5,0,0,1,.413.574L.493,8.809A.5.5,0,0,1,0,9.228Z" transform="translate(45.561 81.822)" fill="#333"/><path d="M47.658,75.391l-.055,0a.5.5,0,0,1-.443-.551l3.445-31.711c.714-9.321.135-11.567-.825-15.289-.417-1.616-.889-3.448-1.355-6.221a.5.5,0,1,1,.986-.166c.459,2.731.925,4.54,1.337,6.137.952,3.692,1.58,6.13.853,15.623v.016L48.154,74.945A.5.5,0,0,1,47.658,75.391Z" fill="#333"/><path d="M0,8.711a.5.5,0,0,1-.069,0A.5.5,0,0,1-.5,8.142L.643-.069A.5.5,0,0,1,1.207-.5a.5.5,0,0,1,.427.564L.5,8.28A.5.5,0,0,1,0,8.711Z" transform="translate(48.498 81.953)" fill="#333"/><path d="M50.462,74.956l-.052,0a.5.5,0,0,1-.446-.548l3.2-31.272c.5-9.029-.149-11.513-1.049-14.951a60.446,60.446,0,0,1-1.409-6.571.5.5,0,0,1,.988-.155,59.582,59.582,0,0,0,1.389,6.473c.923,3.528,1.591,6.076,1.08,15.271q0,.012,0,.023l-3.2,31.284A.5.5,0,0,1,50.462,74.956Z" fill="#333"/><path d="M.988.5H0A.5.5,0,0,1-.5,0,.5.5,0,0,1,0-.5H.988a.5.5,0,0,1,.5.5A.5.5,0,0,1,.988.5Z" transform="translate(53.672 31.079)" fill="#333"/><path d="M.988.5H0A.5.5,0,0,1-.5,0,.5.5,0,0,1,0-.5H.988a.5.5,0,0,1,.5.5A.5.5,0,0,1,.988.5Z" transform="translate(53.672 33.384)" fill="#333"/><path d="M4.28.5H0A.5.5,0,0,1-.5,0,.5.5,0,0,1,0-.5H4.28a.5.5,0,0,1,.5.5A.5.5,0,0,1,4.28.5Z" transform="translate(51.368 65.978)" fill="#333"/><path d="M4.609.5H0A.5.5,0,0,1-.5,0,.5.5,0,0,1,0-.5H4.609a.5.5,0,0,1,.5.5A.5.5,0,0,1,4.609.5Z" transform="translate(51.039 68.283)" fill="#333"/><path d="M62.7,74.868H47.587l-2.225,2.305H64.973Z" fill="#00b6ed"/><path d="M47.375,74.368H62.91l3.258,3.3H44.185Zm15.117,1H47.8l-1.26,1.3H63.778Z" fill="#333"/><path d="M62.7,81.452H47.587l-2.225-2.634H64.973Z" fill="#00b6ed"/><path d="M62.93,81.952H47.355l-3.07-3.634H66.065Zm-15.111-1H62.472l1.409-1.634H46.439Z" fill="#333"/><path d="M61.573,85.733,61.1,83.342l-2.573.028.207,2.363Z" fill="#00b6ed"/><path d="M62.029,86.108H58.392L58.12,83l3.29-.036Zm-2.949-.75h2.037l-.323-1.638-1.856.02Z" fill="#333"/><path d="M62.289,90.215l-.36-2.507H58.776l.113,2.593" fill="#00b6ed"/><path d="M58.514,90.317l-.13-2.984h3.87l.406,2.829-.742.107L61.6,88.083H59.167l.1,2.2Z" fill="#333"/><path d="M53.26,9.849h-.007a.5.5,0,0,1-.493-.507l.021-1.481a.5.5,0,0,1,.4-.482,17.788,17.788,0,0,1,5.833-.006.5.5,0,0,1,.429.495V9.349a.5.5,0,1,1-1,0V8.305a16.661,16.661,0,0,0-4.665-.021L53.76,9.356A.5.5,0,0,1,53.26,9.849Z" fill="#333"/><path d="M57.086,7.833a.5.5,0,0,1-.495-.433L56.1,3.751c-.328,1.843-.633,3.526-.677,3.659a.5.5,0,0,1-.954-.3c.076-.306.76-4.164,1.2-6.694a.5.5,0,0,1,.988.019l.923,6.832a.5.5,0,0,1-.429.562A.505.505,0,0,1,57.086,7.833Z" fill="#333"/><path d="M59.119,58.735l-.852-6.54-.2,6.54Z" fill="#00b6ed"/><path d="M59.689,59.235H57.55l.218-7.055,1-.049Z" fill="#333"/><path d="M0,2.146a.5.5,0,0,1-.5-.5V0A.5.5,0,0,1,0-.5.5.5,0,0,1,.5,0V1.646A.5.5,0,0,1,0,2.146Z" transform="translate(49.393 14.617)" fill="#333"/><path d="M0,2.146a.5.5,0,0,1-.5-.5V0A.5.5,0,0,1,0-.5.5.5,0,0,1,.5,0V1.646A.5.5,0,0,1,0,2.146Z" transform="translate(51.697 14.617)" fill="#333"/><path d="M0,2.146a.5.5,0,0,1-.5-.5V0A.5.5,0,0,1,0-.5.5.5,0,0,1,.5,0V1.646A.5.5,0,0,1,0,2.146Z" transform="translate(54.001 14.617)" fill="#333"/><path d="M0,2.146a.5.5,0,0,1-.5-.5V0A.5.5,0,0,1,0-.5.5.5,0,0,1,.5,0V1.646A.5.5,0,0,1,0,2.146Z" transform="translate(55.977 14.617)" fill="#333"/><path d="M0,2.146a.5.5,0,0,1-.5-.5V0A.5.5,0,0,1,0-.5.5.5,0,0,1,.5,0V1.646A.5.5,0,0,1,0,2.146Z" transform="translate(58.282 14.617)" fill="#333"/><path d="M0,2.146a.5.5,0,0,1-.5-.5V0A.5.5,0,0,1,0-.5.5.5,0,0,1,.5,0V1.646A.5.5,0,0,1,0,2.146Z" transform="translate(60.257 14.617)" fill="#333"/><path d="M0,2.146a.5.5,0,0,1-.5-.5V0A.5.5,0,0,1,0-.5.5.5,0,0,1,.5,0V1.646A.5.5,0,0,1,0,2.146Z" transform="translate(62.562 14.617)" fill="#333"/><path d="M115.233.5H0A.5.5,0,0,1-.5,0,.5.5,0,0,1,0-.5H115.233a.5.5,0,0,1,.5.5A.5.5,0,0,1,115.233.5Z" transform="translate(0.995 91)" fill="#333"/><path d="M6.6,86.833a.5.5,0,0,1-.135-.019L.53,85.147A.5.5,0,0,1,.5,84.195l8.328-2.968A.5.5,0,0,1,9,81.2l21.317.507a.5.5,0,0,1,.074.992L6.689,86.825A.5.5,0,0,1,6.6,86.833Zm-4.29-2.224,4.316,1.212,18.589-3.237L9.074,82.2Z" fill="#333"/><path d="M.5,85.121H.467A.5.5,0,0,1,0,84.589l.186-2.852a.5.5,0,0,1,.32-.435l8.21-3.138a.5.5,0,0,1,.679.467v3.15a.5.5,0,0,1-1,0V79.358L1.164,82.122,1,84.654A.5.5,0,0,1,.5,85.121Z" fill="#333"/><path d="M2.641,80.794V75.4l13.828-9.028v7.29l-7.638,4.92" fill="#00b6ed"/><path d="M3.141,80.794h-1V75.125l14.828-9.681v8.486L9.1,79l-.542-.841,7.409-4.772V67.292L3.141,75.667Z" fill="#333"/><path d="M16.809,66.464,33.919,75.4v4.345L16.552,73.658" fill="#00b6ed"/><path d="M34.419,80.446,16.386,74.13l.331-.944,16.7,5.85V75.7L16.577,66.907l.463-.886,17.379,9.072Z" fill="#333"/><path d="M34.408,75.746a.5.5,0,0,1-.219-.95l2.392-1.165L25.465,65.055l-8.762,1.8a.5.5,0,0,1-.332-.933l9.117-4.777a.5.5,0,0,1,.55.057l11.82,9.757a.5.5,0,0,1,.182.386v2.21a.905.905,0,0,0-.018.228.5.5,0,0,1-.278.4L34.627,75.7A.5.5,0,0,1,34.408,75.746ZM25.589,64.019a.5.5,0,0,1,.305.1l11.146,8.6V71.576l-11.382-9.4L19.973,65.16l5.516-1.131A.5.5,0,0,1,25.589,64.019Z" fill="#333"/><path d="M0,3.463a.5.5,0,0,1-.5-.5V0A.5.5,0,0,1,0-.5.5.5,0,0,1,.5,0V2.963A.5.5,0,0,1,0,3.463Z" transform="translate(25.358 61.698)" fill="#333"/><path d="M42.525,85.746a.5.5,0,0,1-.124-.016L29.9,82.544a.5.5,0,0,1-.141-.06L16.913,74.469a.5.5,0,1,1,.529-.848l12.777,7.974L39.672,84l-5.963-3.841a.5.5,0,0,1,.541-.841l8.546,5.5a.5.5,0,0,1-.271.92Z" fill="#333"/><path d="M0,4.451a.5.5,0,0,1-.5-.5V0A.5.5,0,0,1,0-.5.5.5,0,0,1,.5,0V3.951A.5.5,0,0,1,0,4.451Z" transform="translate(6.591 86.72)" fill="#333"/><path d="M0,8.073a.5.5,0,0,1-.5-.5V0A.5.5,0,0,1,0-.5.5.5,0,0,1,.5,0V7.573A.5.5,0,0,1,0,8.073Z" transform="translate(30.296 82.769)" fill="#333"/><path d="M0,5.768a.5.5,0,0,1-.5-.5V0A.5.5,0,0,1,0-.5.5.5,0,0,1,.5,0V5.268A.5.5,0,0,1,0,5.768Z" transform="translate(42.479 85.404)" fill="#333"/><path d="M0,4.451a.5.5,0,0,1-.5-.5V0A.5.5,0,0,1,0-.5.5.5,0,0,1,.5,0V3.951A.5.5,0,0,1,0,4.451Z" transform="translate(9.226 86.391)" fill="#333"/><path d="M0,5.109a.5.5,0,0,1-.5-.5V0A.5.5,0,0,1,0-.5.5.5,0,0,1,.5,0V4.609A.5.5,0,0,1,0,5.109Z" transform="translate(12.189 85.733)" fill="#333"/><path d="M0,5.768a.5.5,0,0,1-.5-.5V0A.5.5,0,0,1,0-.5.5.5,0,0,1,.5,0V5.268A.5.5,0,0,1,0,5.768Z" transform="translate(15.152 85.074)" fill="#333"/><path d="M0,6.1a.5.5,0,0,1-.5-.5V0A.5.5,0,0,1,0-.5.5.5,0,0,1,.5,0V5.6A.5.5,0,0,1,0,6.1Z" transform="translate(18.115 84.745)" fill="#333"/><path d="M0,6.426a.5.5,0,0,1-.5-.5V0A.5.5,0,0,1,0-.5.5.5,0,0,1,.5,0V5.926A.5.5,0,0,1,0,6.426Z" transform="translate(21.078 84.416)" fill="#333"/><path d="M0,6.756a.5.5,0,0,1-.5-.5V0A.5.5,0,0,1,0-.5.5.5,0,0,1,.5,0V6.256A.5.5,0,0,1,0,6.756Z" transform="translate(24.041 84.086)" fill="#333"/><path d="M0,7.414a.5.5,0,0,1-.5-.5V0A.5.5,0,0,1,0-.5.5.5,0,0,1,.5,0V6.914A.5.5,0,0,1,0,7.414Z" transform="translate(27.004 83.428)" fill="#333"/><path d="M0,7.414a.5.5,0,0,1-.5-.5V0A.5.5,0,0,1,0-.5.5.5,0,0,1,.5,0V6.914A.5.5,0,0,1,0,7.414Z" transform="translate(33.589 83.428)" fill="#333"/><path d="M0,6.756a.5.5,0,0,1-.5-.5V0A.5.5,0,0,1,0-.5.5.5,0,0,1,.5,0V6.256A.5.5,0,0,1,0,6.756Z" transform="translate(36.223 84.086)" fill="#333"/><path d="M0,6.1a.5.5,0,0,1-.5-.5V0A.5.5,0,0,1,0-.5.5.5,0,0,1,.5,0V5.6A.5.5,0,0,1,0,6.1Z" transform="translate(38.857 84.745)" fill="#333"/><path d="M95.486,91.5a.5.5,0,0,1-.5-.5V76.185a.5.5,0,0,1,.5-.5h5.268a.5.5,0,0,1,.5.5V90.342a.5.5,0,0,1-1,0V76.685H95.986V91A.5.5,0,0,1,95.486,91.5Z" fill="#333"/><path d="M0,4.369A.5.5,0,0,1-.442,4.1a.5.5,0,0,1,.209-.676L7.093-.442a.5.5,0,0,1,.676.209A.5.5,0,0,1,7.56.442L.234,4.311A.5.5,0,0,1,0,4.369Z" transform="translate(88.24 76.185)" fill="#333"/><path d="M108,91.171a.5.5,0,0,1-.5-.5V80.352l-6.816-3.672a.5.5,0,0,1,.474-.88l7.079,3.814a.5.5,0,0,1,.263.44V90.671A.5.5,0,0,1,108,91.171Z" fill="#333"/><path d="M88.2,77.666,95.32,73.88h5.734l7.6,4.527v1.728H108l-7.243-3.95H95.486l-7.9,4.271V78Z" fill="#00b6ed"/><path d="M87.084,81.295v-3.59l.878-.478,7.233-3.847h6l7.964,4.743v2.512h-1.286l-7.243-3.95H95.612Zm21.04-1.66h.032v-.944l-7.24-4.311H95.444l-7.009,3.727-.352.192v1.318l7.276-3.932h5.522Z" fill="#333"/><path d="M0,1.488a.5.5,0,0,1-.5-.5V0A.5.5,0,0,1,0-.5.5.5,0,0,1,.5,0V.988A.5.5,0,0,1,0,1.488Z" transform="translate(98.12 78.16)" fill="#333"/><path d="M0,1.488a.5.5,0,0,1-.5-.5V0A.5.5,0,0,1,0-.5.5.5,0,0,1,.5,0V.988A.5.5,0,0,1,0,1.488Z" transform="translate(98.12 81.123)" fill="#333"/><path d="M0,1.488a.5.5,0,0,1-.5-.5V0A.5.5,0,0,1,0-.5.5.5,0,0,1,.5,0V.988A.5.5,0,0,1,0,1.488Z" transform="translate(98.12 84.086)" fill="#333"/><path d="M101.083,74.051a.5.5,0,0,1-.5-.5V65.32a.5.5,0,0,1,.5-.5h2.3a.5.5,0,0,1,0,1h-1.8v7.731A.5.5,0,0,1,101.083,74.051Z" fill="#333"/><path d="M113.265,90.842a.5.5,0,0,1-.5-.5V65.82h-1.8a.5.5,0,1,1,0-1h2.3a.5.5,0,0,1,.5.5V90.342A.5.5,0,0,1,113.265,90.842Z" fill="#333"/><path d="M110.96,65.82a.5.5,0,0,1-.5-.5v-13h-6.573v13a.5.5,0,0,1-1,0v-13.5a.5.5,0,0,1,.5-.5h7.573a.5.5,0,0,1,.5.5v13.5A.5.5,0,0,1,110.96,65.82Z" fill="#333"/><path d="M.47-.5A.97.97,0,1,1-.5.47.971.971,0,0,1,.47-.5Z" transform="translate(107.073 42.338)" fill="#333"/><path d="M.329.5H0A.5.5,0,0,1-.5,0,.5.5,0,0,1,0-.5H.329a.5.5,0,0,1,.5.5A.5.5,0,0,1,.329.5Z" transform="translate(105.034 53.797)" fill="#333"/><path d="M.33.5H0A.5.5,0,0,1-.5,0,.5.5,0,0,1,0-.5H.33a.5.5,0,0,1,.5.5A.5.5,0,0,1,.33.5Z" transform="translate(107.009 53.797)" fill="#333"/><path d="M.329.5H0A.5.5,0,0,1-.5,0,.5.5,0,0,1,0-.5H.329a.5.5,0,0,1,.5.5A.5.5,0,0,1,.329.5Z" transform="translate(108.984 53.797)" fill="#333"/><path d="M.329.5H0A.5.5,0,0,1-.5,0,.5.5,0,0,1,0-.5H.329a.5.5,0,0,1,.5.5A.5.5,0,0,1,.329.5Z" transform="translate(105.034 55.772)" fill="#333"/><path d="M.33.5H0A.5.5,0,0,1-.5,0,.5.5,0,0,1,0-.5H.33a.5.5,0,0,1,.5.5A.5.5,0,0,1,.33.5Z" transform="translate(107.009 55.772)" fill="#333"/><path d="M.329.5H0A.5.5,0,0,1-.5,0,.5.5,0,0,1,0-.5H.329a.5.5,0,0,1,.5.5A.5.5,0,0,1,.329.5Z" transform="translate(108.984 55.772)" fill="#333"/><path d="M.329.5H0A.5.5,0,0,1-.5,0,.5.5,0,0,1,0-.5H.329a.5.5,0,0,1,.5.5A.5.5,0,0,1,.329.5Z" transform="translate(105.034 57.747)" fill="#333"/><path d="M.33.5H0A.5.5,0,0,1-.5,0,.5.5,0,0,1,0-.5H.33a.5.5,0,0,1,.5.5A.5.5,0,0,1,.33.5Z" transform="translate(107.009 57.747)" fill="#333"/><path d="M.329.5H0A.5.5,0,0,1-.5,0,.5.5,0,0,1,0-.5H.329a.5.5,0,0,1,.5.5A.5.5,0,0,1,.329.5Z" transform="translate(108.984 57.747)" fill="#333"/><path d="M.329.5H0A.5.5,0,0,1-.5,0,.5.5,0,0,1,0-.5H.329a.5.5,0,0,1,.5.5A.5.5,0,0,1,.329.5Z" transform="translate(105.034 59.723)" fill="#333"/><path d="M.33.5H0A.5.5,0,0,1-.5,0,.5.5,0,0,1,0-.5H.33a.5.5,0,0,1,.5.5A.5.5,0,0,1,.33.5Z" transform="translate(107.009 59.723)" fill="#333"/><path d="M.329.5H0A.5.5,0,0,1-.5,0,.5.5,0,0,1,0-.5H.329a.5.5,0,0,1,.5.5A.5.5,0,0,1,.329.5Z" transform="translate(108.984 59.723)" fill="#333"/><path d="M.329.5H0A.5.5,0,0,1-.5,0,.5.5,0,0,1,0-.5H.329a.5.5,0,0,1,.5.5A.5.5,0,0,1,.329.5Z" transform="translate(105.034 61.698)" fill="#333"/><path d="M.33.5H0A.5.5,0,0,1-.5,0,.5.5,0,0,1,0-.5H.33a.5.5,0,0,1,.5.5A.5.5,0,0,1,.33.5Z" transform="translate(107.009 61.698)" fill="#333"/><path d="M.329.5H0A.5.5,0,0,1-.5,0,.5.5,0,0,1,0-.5H.329a.5.5,0,0,1,.5.5A.5.5,0,0,1,.329.5Z" transform="translate(108.984 61.698)" fill="#333"/><path d="M.329.5H0A.5.5,0,0,1-.5,0,.5.5,0,0,1,0-.5H.329a.5.5,0,0,1,.5.5A.5.5,0,0,1,.329.5Z" transform="translate(105.034 63.674)" fill="#333"/><path d="M.33.5H0A.5.5,0,0,1-.5,0,.5.5,0,0,1,0-.5H.33a.5.5,0,0,1,.5.5A.5.5,0,0,1,.33.5Z" transform="translate(107.009 63.674)" fill="#333"/><path d="M.329.5H0A.5.5,0,0,1-.5,0,.5.5,0,0,1,0-.5H.329a.5.5,0,0,1,.5.5A.5.5,0,0,1,.329.5Z" transform="translate(108.984 63.674)" fill="#333"/><path d="M.329.5H0A.5.5,0,0,1-.5,0,.5.5,0,0,1,0-.5H.329a.5.5,0,0,1,.5.5A.5.5,0,0,1,.329.5Z" transform="translate(105.034 65.649)" fill="#333"/><path d="M.33.5H0A.5.5,0,0,1-.5,0,.5.5,0,0,1,0-.5H.33a.5.5,0,0,1,.5.5A.5.5,0,0,1,.33.5Z" transform="translate(107.009 65.649)" fill="#333"/><path d="M.329.5H0A.5.5,0,0,1-.5,0,.5.5,0,0,1,0-.5H.329a.5.5,0,0,1,.5.5A.5.5,0,0,1,.329.5Z" transform="translate(108.984 65.649)" fill="#333"/><path d="M.329.5H0A.5.5,0,0,1-.5,0,.5.5,0,0,1,0-.5H.329a.5.5,0,0,1,.5.5A.5.5,0,0,1,.329.5Z" transform="translate(105.034 67.625)" fill="#333"/><path d="M.329.5H0A.5.5,0,0,1-.5,0,.5.5,0,0,1,0-.5H.329a.5.5,0,0,1,.5.5A.5.5,0,0,1,.329.5Z" transform="translate(103.058 67.625)" fill="#333"/><path d="M.33.5H0A.5.5,0,0,1-.5,0,.5.5,0,0,1,0-.5H.33a.5.5,0,0,1,.5.5A.5.5,0,0,1,.33.5Z" transform="translate(107.009 67.625)" fill="#333"/><path d="M.329.5H0A.5.5,0,0,1-.5,0,.5.5,0,0,1,0-.5H.329a.5.5,0,0,1,.5.5A.5.5,0,0,1,.329.5Z" transform="translate(108.984 67.625)" fill="#333"/><path d="M.329.5H0A.5.5,0,0,1-.5,0,.5.5,0,0,1,0-.5H.329a.5.5,0,0,1,.5.5A.5.5,0,0,1,.329.5Z" transform="translate(110.96 67.625)" fill="#333"/><path d="M.329.5H0A.5.5,0,0,1-.5,0,.5.5,0,0,1,0-.5H.329a.5.5,0,0,1,.5.5A.5.5,0,0,1,.329.5Z" transform="translate(105.034 69.6)" fill="#333"/><path d="M.329.5H0A.5.5,0,0,1-.5,0,.5.5,0,0,1,0-.5H.329a.5.5,0,0,1,.5.5A.5.5,0,0,1,.329.5Z" transform="translate(103.058 69.6)" fill="#333"/><path d="M.33.5H0A.5.5,0,0,1-.5,0,.5.5,0,0,1,0-.5H.33a.5.5,0,0,1,.5.5A.5.5,0,0,1,.33.5Z" transform="translate(107.009 69.6)" fill="#333"/><path d="M.329.5H0A.5.5,0,0,1-.5,0,.5.5,0,0,1,0-.5H.329a.5.5,0,0,1,.5.5A.5.5,0,0,1,.329.5Z" transform="translate(108.984 69.6)" fill="#333"/><path d="M.329.5H0A.5.5,0,0,1-.5,0,.5.5,0,0,1,0-.5H.329a.5.5,0,0,1,.5.5A.5.5,0,0,1,.329.5Z" transform="translate(110.96 69.6)" fill="#333"/><path d="M.329.5H0A.5.5,0,0,1-.5,0,.5.5,0,0,1,0-.5H.329a.5.5,0,0,1,.5.5A.5.5,0,0,1,.329.5Z" transform="translate(105.034 71.575)" fill="#333"/><path d="M.329.5H0A.5.5,0,0,1-.5,0,.5.5,0,0,1,0-.5H.329a.5.5,0,0,1,.5.5A.5.5,0,0,1,.329.5Z" transform="translate(103.058 71.575)" fill="#333"/><path d="M.33.5H0A.5.5,0,0,1-.5,0,.5.5,0,0,1,0-.5H.33a.5.5,0,0,1,.5.5A.5.5,0,0,1,.33.5Z" transform="translate(107.009 71.575)" fill="#333"/><path d="M.329.5H0A.5.5,0,0,1-.5,0,.5.5,0,0,1,0-.5H.329a.5.5,0,0,1,.5.5A.5.5,0,0,1,.329.5Z" transform="translate(108.984 71.575)" fill="#333"/><path d="M.329.5H0A.5.5,0,0,1-.5,0,.5.5,0,0,1,0-.5H.329a.5.5,0,0,1,.5.5A.5.5,0,0,1,.329.5Z" transform="translate(110.96 71.575)" fill="#333"/><path d="M.329.5H0A.5.5,0,0,1-.5,0,.5.5,0,0,1,0-.5H.329a.5.5,0,0,1,.5.5A.5.5,0,0,1,.329.5Z" transform="translate(105.034 73.551)" fill="#333"/><path d="M.33.5H0A.5.5,0,0,1-.5,0,.5.5,0,0,1,0-.5H.33a.5.5,0,0,1,.5.5A.5.5,0,0,1,.33.5Z" transform="translate(107.009 73.551)" fill="#333"/><path d="M.329.5H0A.5.5,0,0,1-.5,0,.5.5,0,0,1,0-.5H.329a.5.5,0,0,1,.5.5A.5.5,0,0,1,.329.5Z" transform="translate(108.984 73.551)" fill="#333"/><path d="M.329.5H0A.5.5,0,0,1-.5,0,.5.5,0,0,1,0-.5H.329a.5.5,0,0,1,.5.5A.5.5,0,0,1,.329.5Z" transform="translate(110.96 73.551)" fill="#333"/><path d="M.329.5H0A.5.5,0,0,1-.5,0,.5.5,0,0,1,0-.5H.329a.5.5,0,0,1,.5.5A.5.5,0,0,1,.329.5Z" transform="translate(108.984 75.526)" fill="#333"/><path d="M.329.5H0A.5.5,0,0,1-.5,0,.5.5,0,0,1,0-.5H.329a.5.5,0,0,1,.5.5A.5.5,0,0,1,.329.5Z" transform="translate(110.96 75.526)" fill="#333"/><path d="M.329.5H0A.5.5,0,0,1-.5,0,.5.5,0,0,1,0-.5H.329a.5.5,0,0,1,.5.5A.5.5,0,0,1,.329.5Z" transform="translate(110.96 77.502)" fill="#333"/><path d="M.329.5H0A.5.5,0,0,1-.5,0,.5.5,0,0,1,0-.5H.329a.5.5,0,0,1,.5.5A.5.5,0,0,1,.329.5Z" transform="translate(110.96 79.477)" fill="#333"/><path d="M.329.5H0A.5.5,0,0,1-.5,0,.5.5,0,0,1,0-.5H.329a.5.5,0,0,1,.5.5A.5.5,0,0,1,.329.5Z" transform="translate(110.96 81.452)" fill="#333"/><path d="M.329.5H0A.5.5,0,0,1-.5,0,.5.5,0,0,1,0-.5H.329a.5.5,0,0,1,.5.5A.5.5,0,0,1,.329.5Z" transform="translate(110.96 83.428)" fill="#333"/><path d="M.329.5H0A.5.5,0,0,1-.5,0,.5.5,0,0,1,0-.5H.329a.5.5,0,0,1,.5.5A.5.5,0,0,1,.329.5Z" transform="translate(110.96 85.404)" fill="#333"/><path d="M.329.5H0A.5.5,0,0,1-.5,0,.5.5,0,0,1,0-.5H.329a.5.5,0,0,1,.5.5A.5.5,0,0,1,.329.5Z" transform="translate(110.96 87.379)" fill="#333"/><path d="M100.505,88.208H95.9a.5.5,0,0,1-.15-.023l-7.682-2.414a.5.5,0,1,1,.3-.954l7.609,2.391h4.458l7.39-2.282a.5.5,0,0,1,.3.956l-7.462,2.3A.5.5,0,0,1,100.505,88.208Z" fill="#333"/><path d="M6.584.5H0A.5.5,0,0,1-.5,0,.5.5,0,0,1,0-.5H6.584a.5.5,0,0,1,.5.5A.5.5,0,0,1,6.584.5Z" transform="translate(103.717 49.845)" fill="#333"/><path d="M1.317.5H0A.5.5,0,0,1-.5,0,.5.5,0,0,1,0-.5H1.317a.5.5,0,0,1,.5.5A.5.5,0,0,1,1.317.5Z" transform="translate(100.424 65.32)" fill="#333"/><path d="M1.317.5H0A.5.5,0,0,1-.5,0,.5.5,0,0,1,0-.5H1.317a.5.5,0,0,1,.5.5A.5.5,0,0,1,1.317.5Z" transform="translate(112.606 65.32)" fill="#333"/><path d="M71.587,38.981h2.169v-.988h8.231v.988h2.347l-.29-.274-6.21-5.777s-5.988,5.964-6.247,6.051" fill="#00b6ed"/><path d="M84.334,39.481H81.987a.5.5,0,0,1-.5-.5v-.488H74.256v.488a.5.5,0,0,1-.5.5H71.587a.5.5,0,0,1-.243-.937c.434-.327,3.979-3.819,6.137-5.968a.5.5,0,0,1,.693-.012l6.21,5.777.293.277a.5.5,0,0,1-.343.863Zm-1.847-1h.58l-.583-.542a.506.506,0,0,1,0,.054Zm-9.595,0h.364v-.348Zm1.025-.988h8.088l-4.16-3.87c-.531.527-1.606,1.594-2.688,2.656C74.677,36.752,74.267,37.153,73.917,37.493Z" fill="#333"/></g></g></svg>