<svg xmlns="http://www.w3.org/2000/svg" xmlns:xlink="http://www.w3.org/1999/xlink" width="98.249" height="105.624" viewBox="0 0 98.249 105.624"><defs><linearGradient id="a" x1="1.096" y1="-0.262" x2="-0.173" y2="1.179" gradientUnits="objectBoundingBox"><stop offset="0" stop-color="#69c373"/><stop offset="1" stop-color="#205026"/></linearGradient><linearGradient id="b" x1="5.855" y1="-1.837" x2="-7.902" y2="4.156" xlink:href="#a"/><linearGradient id="c" x1="3.766" y1="-0.925" x2="-9.992" y2="5.067" xlink:href="#a"/><linearGradient id="d" x1="1.008" y1="-17.327" x2="-0.263" y2="27.255" xlink:href="#a"/><linearGradient id="e" x1="5.5" y1="-4.941" x2="-1.895" y2="3.106" xlink:href="#a"/><linearGradient id="g" x1="4.792" y1="-4.17" x2="-2.603" y2="3.877" xlink:href="#a"/><linearGradient id="j" x1="1.794" y1="-0.903" x2="-0.716" y2="1.822" xlink:href="#a"/><linearGradient id="k" x1="2.881" y1="-3.409" x2="-1.835" y2="3.911" xlink:href="#a"/></defs><g transform="translate(-33.59 -23.672)"><path d="M92.379,114.316H44.644A11.089,11.089,0,0,1,33.59,103.261V48.293A11.1,11.1,0,0,1,44.644,37.238h9.749a1.251,1.251,0,0,1,1.251,1.2v4.235a1.216,1.216,0,1,0,2.432,0V38.44a1.244,1.244,0,0,1,1.244-1.251H88.337A1.251,1.251,0,0,1,89.6,38.44v4.235a1.216,1.216,0,1,0,2.425,0V38.44a1.251,1.251,0,0,1,1.264-1.23h9.749a11.1,11.1,0,0,1,11.054,11.054V93.92a1.251,1.251,0,0,1-1.313,1.251c-.415,0-.836-.041-1.251-.041a17.963,17.963,0,0,0-17.9,17.929,1.251,1.251,0,0,1-1.251,1.257ZM44.644,39.7a8.6,8.6,0,0,0-8.588,8.595v54.941a8.6,8.6,0,0,0,8.588,8.588H91.17a20.444,20.444,0,0,1,20.375-19.166h.069V48.293a8.6,8.6,0,0,0-8.588-8.588h-8.5V42.7a3.717,3.717,0,0,1-7.427,0V39.7H60.57V42.7a3.717,3.717,0,0,1-7.427,0V39.7Z" transform="translate(0 -4.178)" fill="url(#a)"/><path d="M65.607,42.228a3.717,3.717,0,0,1-3.717-3.71V27.229a3.717,3.717,0,0,1,7.427,0V38.518a3.717,3.717,0,0,1-3.71,3.71Zm0-16.216a1.216,1.216,0,0,0-1.216,1.216V38.518a1.216,1.216,0,0,0,2.432,0V27.229A1.216,1.216,0,0,0,65.607,26.013Z" transform="translate(-8.747)" fill="url(#b)"/><path d="M114.745,42.228A3.717,3.717,0,0,1,111,38.518V27.229a3.717,3.717,0,0,1,7.427,0V38.518A3.717,3.717,0,0,1,114.745,42.228Zm0-16.215a1.216,1.216,0,0,0-1.216,1.216V38.518a1.216,1.216,0,1,0,2.425,0V27.229a1.209,1.209,0,0,0-1.209-1.216Z" transform="translate(-23.927 0)" fill="url(#c)"/><path d="M112.884,63.414H34.812a1.251,1.251,0,0,1,0-2.494h78.072a1.251,1.251,0,0,1,0,2.494Z" transform="translate(-0.02 -11.513)" fill="url(#d)"/><path d="M57.8,120.118a6.909,6.909,0,1,1,6.909-6.909A6.909,6.909,0,0,1,57.8,120.118Zm0-11.324a4.415,4.415,0,1,0,4.415,4.415A4.415,4.415,0,0,0,57.8,108.794Z" transform="translate(-5.347 -25.54)" fill="url(#e)"/><path d="M57.8,120.118a6.909,6.909,0,1,1,6.909-6.909A6.909,6.909,0,0,1,57.8,120.118Zm0-11.324a4.415,4.415,0,1,0,4.415,4.415A4.415,4.415,0,0,0,57.8,108.794Z" transform="translate(-5.347 -45.54)" fill="url(#e)"/><path d="M88.749,120.118a6.909,6.909,0,1,1,6.909-6.909A6.909,6.909,0,0,1,88.749,120.118Zm0-11.324a4.415,4.415,0,1,0,4.415,4.415A4.415,4.415,0,0,0,88.749,108.794Z" transform="translate(-14.914 -25.54)" fill="url(#g)"/><path d="M88.749,120.118a6.909,6.909,0,1,1,6.909-6.909A6.909,6.909,0,0,1,88.749,120.118Zm0-11.324a4.415,4.415,0,1,0,4.415,4.415A4.415,4.415,0,0,0,88.749,108.794Z" transform="translate(-14.914 -45.54)" fill="url(#g)"/><path d="M88.749,120.118a6.909,6.909,0,1,1,6.909-6.909A6.909,6.909,0,0,1,88.749,120.118Zm0-11.324a4.415,4.415,0,1,0,4.415,4.415A4.415,4.415,0,0,0,88.749,108.794Z" transform="translate(6.47 -45.54)" fill="url(#g)"/><path d="M137.289,158.289a20.409,20.409,0,0,1,0-40.819,13.126,13.126,0,0,1,1.382.048,20.409,20.409,0,0,1-1.382,40.763Zm0-38.318a17.791,17.791,0,1,0,1.23,0c-.394.014-.829,0-1.23,0Z" transform="translate(-25.745 -28.993)" fill="url(#j)"/><path d="M138.469,152.934a1.216,1.216,0,0,1-.884-.366L131.1,146.08a1.246,1.246,0,1,1,1.762-1.762l5.61,5.6,11.794-11.814a1.257,1.257,0,0,1,1.769,0,1.244,1.244,0,0,1,0,1.769l-12.685,12.692a1.209,1.209,0,0,1-.877.366Z" transform="translate(-30.026 -35.259)" fill="url(#k)"/></g></svg>