<svg xmlns="http://www.w3.org/2000/svg" xmlns:xlink="http://www.w3.org/1999/xlink" width="109.636" height="116.718" viewBox="0 0 109.636 116.718">
  <defs>
    <linearGradient id="linear-gradient" x1="0.5" x2="0.5" y2="1" gradientUnits="objectBoundingBox">
      <stop offset="0" stop-color="#19a8dc"/>
      <stop offset="1" stop-color="#0f7ea8"/>
    </linearGradient>
    <linearGradient id="linear-gradient-2" y1="0.5" x2="1" y2="0.5" gradientUnits="objectBoundingBox">
      <stop offset="0" stop-color="#1aaade"/>
      <stop offset="1" stop-color="#0e7aa3"/>
    </linearGradient>
    <linearGradient id="linear-gradient-3" x1="0" y1="0.5" x2="1" y2="0.5" xlink:href="#linear-gradient-2"/>
    <linearGradient id="linear-gradient-5" x1="0" y1="0.5" x2="1" y2="0.5" xlink:href="#linear-gradient-2"/>
    <linearGradient id="linear-gradient-6" x1="0" y1="0.5" x2="1" y2="0.5" xlink:href="#linear-gradient-2"/>
  </defs>
  <g id="Group_7754" data-name="Group 7754" transform="translate(-653 -2730)">
    <g id="Group_7752" data-name="Group 7752" transform="matrix(0.695, -0.719, 0.719, 0.695, 749.894, 2821.777)">
      <path id="Path_62027" data-name="Path 62027" d="M71.149,88.182a1.776,1.776,0,0,1-1.777-1.777l-.324-22.8a1.777,1.777,0,0,1,3.554,0l.324,22.8A1.777,1.777,0,0,1,71.149,88.182Z" transform="matrix(0.996, 0.087, -0.087, 0.996, -66.178, -75.315)" fill="url(#linear-gradient)"/>
    </g>
    <g id="Group_7659" data-name="Group 7659" transform="translate(-637.523 2416.341)">
      <path id="Path_61890" data-name="Path 61890" d="M1296.53,430.377a6.052,6.052,0,0,1-6.007-5.978V319.656a6,6,0,0,1,6-5.993h46.822a1.744,1.744,0,1,1,0,3.488h-46.818a2.513,2.513,0,0,0-2.513,2.508V424.384a2.546,2.546,0,0,0,2.527,2.5H1366.8a2.545,2.545,0,0,0,2.5-2.526V405.106a1.744,1.744,0,1,1,3.488,0v19.278a6.027,6.027,0,0,1-5.966,5.993Z" transform="translate(0 -0.001)" fill="url(#linear-gradient-2)"/>
      <path id="Path_61891" data-name="Path 61891" d="M1382.61,367.391a1.745,1.745,0,0,1-1.744-1.744V347.173a1.744,1.744,0,0,1,3.488,0v18.474A1.744,1.744,0,0,1,1382.61,367.391Z" transform="translate(-11.561 -4.066)" fill="url(#linear-gradient-3)"/>
      <path id="Path_61892" data-name="Path 61892" d="M1378.543,344.852h-23.456a6,6,0,0,1-5.993-6.021V315.4a1.744,1.744,0,0,1,2.977-1.233l27.7,27.7a1.744,1.744,0,0,1-1.233,2.977Zm-25.96-25.238v19.209a2.523,2.523,0,0,0,2.51,2.541h19.24Z" transform="translate(-7.495 0)" fill="url(#linear-gradient-2)"/>
      <g id="Group_7654" data-name="Group 7654" transform="translate(1307.516 336.44)">
        <line id="Line_998" data-name="Line 998" x2="22.405" transform="translate(1.744 1.744)" fill="#fff"/>
        <path id="Path_61893" data-name="Path 61893" d="M1334.158,343.271h-22.4a1.744,1.744,0,1,1,0-3.488h22.4a1.744,1.744,0,1,1,0,3.488Z" transform="translate(-1310.01 -339.783)" fill="url(#linear-gradient-5)"/>
      </g>
      <g id="Group_7655" data-name="Group 7655" transform="translate(1307.516 357.632)">
        <line id="Line_999" data-name="Line 999" x2="44.795" transform="translate(1.744 1.745)" fill="#fff"/>
        <path id="Path_61894" data-name="Path 61894" d="M1356.549,367.573h-44.795a1.744,1.744,0,1,1,0-3.488h44.795a1.744,1.744,0,0,1,0,3.488Z" transform="translate(-1310.01 -364.085)" fill="url(#linear-gradient-6)"/>
      </g>
      <path id="Path_61895" data-name="Path 61895" d="M1311.754,381.759a1.744,1.744,0,1,1,0-3.488l40.644,0a1.744,1.744,0,0,1,0,3.488Z" transform="translate(-2.494 -8.268)" fill="url(#linear-gradient-2)"/>
      <path id="Path_61896" data-name="Path 61896" d="M1349.1,395.945h-37.341a1.744,1.744,0,1,1,0-3.488H1349.1a1.744,1.744,0,0,1,0,3.488Z" transform="translate(-2.494 -10.084)" fill="url(#linear-gradient-6)"/>
      <g id="Group_7656" data-name="Group 7656" transform="translate(1307.516 394.743)">
        <line id="Line_1002" data-name="Line 1002" x2="22.405" transform="translate(1.744 1.744)" fill="#fff"/>
        <path id="Path_61897" data-name="Path 61897" d="M1334.158,410.13h-22.4a1.744,1.744,0,1,1,0-3.488h22.4a1.744,1.744,0,1,1,0,3.488Z" transform="translate(-1310.01 -406.642)" fill="url(#linear-gradient-2)"/>
      </g>
      <path id="Path_61901" data-name="Path 61901" d="M1376.467,413.752a23.556,23.556,0,0,1-23.637-22.818c-.01-.269-.016-.551-.016-.835a23.64,23.64,0,0,1,23.653-23.653,23.924,23.924,0,0,1,2.756.158,23.654,23.654,0,0,1-2.756,47.148Zm0-43.818A20.153,20.153,0,0,0,1356.3,390.1c0,.235,0,.473.013.7a20.163,20.163,0,1,0,22.5-20.734A20.468,20.468,0,0,0,1376.467,369.934Z" transform="translate(-7.971 -6.755)" fill="url(#linear-gradient-2)"/>
    </g>
    <g id="Group_7753" data-name="Group 7753" transform="translate(-40 -33.934)">
      <g id="Group_7749" data-name="Group 7749" transform="translate(769.348 2822.293)">
        <path id="Path_62027-2" data-name="Path 62027" d="M70.825,78.367a1.776,1.776,0,0,1-1.777-1.777V63.608a1.777,1.777,0,0,1,3.554,0V76.59A1.777,1.777,0,0,1,70.825,78.367Z" transform="translate(-69.048 -61.831)" fill="url(#linear-gradient)"/>
      </g>
      <g id="Group_7750" data-name="Group 7750" transform="translate(769.348 2841.046)">
        <path id="Path_62028" data-name="Path 62028" d="M70.825,88.609a1.776,1.776,0,0,1-1.777-1.777V84.715a1.777,1.777,0,0,1,3.554,0v2.117A1.777,1.777,0,0,1,70.825,88.609Z" transform="translate(-69.048 -82.938)" fill="url(#linear-gradient)"/>
      </g>
    </g>
  </g>
</svg>
