<svg xmlns="http://www.w3.org/2000/svg" width="111.328" height="85.986" viewBox="0 0 111.328 85.986"><path d="M12.012-147.656a61.246,61.246,0,0,1,8.276-30.981,74.777,74.777,0,0,1,22.632-24.39l16.553,13.184a50.418,50.418,0,0,0-14.5,12.231q-7.031,8.276-8.936,16.187,1.318-.879,6.006-.879a19.452,19.452,0,0,1,14.5,6.006q5.859,6.006,5.859,15.527a22.813,22.813,0,0,1-7.031,16.7,22.813,22.813,0,0,1-16.7,7.031,24.937,24.937,0,0,1-18.9-8.276Q12.012-133.594,12.012-147.656Zm61.23,0a62.068,62.068,0,0,1,8.2-31.055,72.956,72.956,0,0,1,22.412-24.316l16.7,13.184a48.384,48.384,0,0,0-14.575,12.3q-6.958,8.35-8.716,16.113,1.318-.879,6.006-.879a19.045,19.045,0,0,1,14.282,6.006q5.786,6.006,5.786,15.527a22.932,22.932,0,0,1-6.958,16.7,22.741,22.741,0,0,1-16.772,7.031,24.551,24.551,0,0,1-18.677-8.276Q73.242-133.594,73.242-147.656Z" transform="translate(-12.012 203.027)" fill="#fff" opacity="0.2"/></svg>