<svg xmlns="http://www.w3.org/2000/svg" xmlns:xlink="http://www.w3.org/1999/xlink" width="94.858" height="86.048" viewBox="0 0 94.858 86.048"><defs><linearGradient id="a" x1="0.796" x2="0.364" y2="1.066" gradientUnits="objectBoundingBox"><stop offset="0" stop-color="#1eb6ed"/><stop offset="1" stop-color="#198cb7"/></linearGradient></defs><g transform="translate(0.007 -0.001)"><g transform="translate(-0.007 0.001)"><path d="M12.872,51.054a1.333,1.333,0,0,1-.952-.4L6.038,44.77c-10.41-10.389-6.03-24.8,3-34.467A39.058,39.058,0,0,1,18.33,2.855C23.281.126,36.8-2.942,45.6,5.606L63.291,23.273a3.957,3.957,0,0,1,.212,6.009c-2.92,2.941-10.685,3.914-15.445-.783l-4.443-4.38c-2.285-2.116-4.845-1.46-8.8-.254-4.507,1.354-10.114,3.047-16.249-1.8a1.312,1.312,0,0,1-.212-1.862,1.333,1.333,0,0,1,1.862-.233c5.057,4,9.521,2.645,13.837,1.333,3.851-1.164,7.829-2.349,11.383.867l4.486,4.422a9.331,9.331,0,0,0,11.7.8c.529-.529.867-1.164-.19-2.243L43.741,7.51C35.976,0,23.937,2.75,19.642,5.162a36.286,36.286,0,0,0-8.654,6.961C3.456,20.205-1.876,33.133,7.921,42.908L13.8,48.79a1.291,1.291,0,0,1,0,1.862,1.248,1.248,0,0,1-.931.4Z" transform="translate(0.007 -0.001)" fill="url(#a)"/><path d="M56.295,48.168a1.4,1.4,0,0,1-.952-.381,1.354,1.354,0,0,1,0-1.883l5.882-5.8c9.31-9.31,5.48-21.751-2.116-29.367s-20.5-12.1-30.256-2.624L24.9,12.051a1.333,1.333,0,0,1-1.862-1.883l3.957-3.914C37.57-4.05,52.148-.242,61.077,8.835,69.54,17.3,73.772,31.347,63.192,41.926l-6.051,5.861a1.312,1.312,0,0,1-.846.381Z" transform="translate(25.39 0.092)" fill="url(#a)"/><path d="M11.368,48.8a6.347,6.347,0,0,1-4.443-1.883,7.405,7.405,0,0,1-.55-10.389L29.141,12.666a1.333,1.333,0,0,1,1.925,1.82L8.3,38.352a4.782,4.782,0,0,0,.465,6.665,3.808,3.808,0,0,0,5.84-.508l10.579-11a1.333,1.333,0,0,1,1.883,0,1.354,1.354,0,0,1,0,1.883l-10.579,11a7.194,7.194,0,0,1-5.12,2.412Z" transform="translate(5.044 13.78)" fill="url(#a)"/><path d="M15.95,46.262a8.1,8.1,0,0,1-5.543-2.306,6.728,6.728,0,0,1,0-10.008L21.959,22.205a1.333,1.333,0,0,1,1.883,0,1.291,1.291,0,0,1,0,1.862L12.4,35.916a4.084,4.084,0,0,0-.169,6.242,4.612,4.612,0,0,0,6.5.36L30.443,30.478a1.333,1.333,0,0,1,1.883,0,1.312,1.312,0,0,1,0,1.883L20.6,44.421A6.347,6.347,0,0,1,15.95,46.262Z" transform="translate(9.137 24.341)" fill="url(#a)"/><path d="M20.252,43.409a7.871,7.871,0,0,1-5.374-2.222,6.665,6.665,0,0,1,.19-9.987,1.354,1.354,0,0,1,1.883,0,1.333,1.333,0,0,1,0,1.883,4.041,4.041,0,0,0-.275,6.157,4.549,4.549,0,0,0,6.347.254l5.861-5.924a1.354,1.354,0,0,1,1.883,0,1.312,1.312,0,0,1,0,1.883l-5.861,5.9a6.559,6.559,0,0,1-4.655,2.052Z" transform="translate(14.208 34.387)" fill="url(#a)"/><path d="M30.9,65.352h0a6.707,6.707,0,0,1-4.782-1.968l-5.438-5.438a6.749,6.749,0,0,1,0-9.563l.635-.635a6.6,6.6,0,0,1,4.38-1.968,6.813,6.813,0,0,1,.592-8.929l.635-.614a6.686,6.686,0,0,1,4.612-1.925,6.644,6.644,0,0,1-1.862-4.655,6.749,6.749,0,0,1,1.968-4.8l.635-.614a6.665,6.665,0,0,1,4.782-1.989h0a6.728,6.728,0,0,1,4.8,1.989l1.46,1.46a6.644,6.644,0,0,1,1.968-4.549l.635-.635A6.707,6.707,0,0,1,50.7,18.55h0a6.707,6.707,0,0,1,4.782,1.968l8.1,8.1a6.771,6.771,0,0,1,0,9.585l-.614.635a6.749,6.749,0,0,1-4.8,1.968h0a7.722,7.722,0,0,1-1.566-.169,6.517,6.517,0,0,1,.127,1.291,6.749,6.749,0,0,1-1.968,4.8l-.635.614a6.792,6.792,0,0,1-6.792,1.693,6.749,6.749,0,0,1-1.9,5.692l-.635.635A6.771,6.771,0,0,1,38.239,57.1a7.827,7.827,0,0,1-1.968,5.67l-.614.614A6.792,6.792,0,0,1,30.9,65.352Zm-7.723-15.72-.614.614a4.1,4.1,0,0,0,0,5.818L28,61.5a4.02,4.02,0,0,0,2.9,1.206h0a4.062,4.062,0,0,0,2.92-1.206l.614-.614a4.1,4.1,0,0,0,1.206-2.92,4.02,4.02,0,0,0-1.206-2.9l-5.438-5.438a4.1,4.1,0,0,0-5.818,0Zm8.611-12.695a4.232,4.232,0,0,0-2.92,1.206l-.614.614a4.1,4.1,0,0,0-1.206,2.92,4.02,4.02,0,0,0,1.206,2.9L37.1,53.355a4.1,4.1,0,0,0,5.818,0l.635-.635a4.1,4.1,0,0,0,0-5.818l-8.865-8.781a4.041,4.041,0,0,0-2.9-1.206Zm5.268-12.06a4.084,4.084,0,0,0-2.9,1.185h0l-.635.635a4.232,4.232,0,0,0-1.185,2.92,4.084,4.084,0,0,0,1.185,2.9L46.427,45.421a4.232,4.232,0,0,0,5.84,0l.614-.614a4.062,4.062,0,0,0,1.206-2.92,4.02,4.02,0,0,0-1.206-2.9L39.974,26.061a4.232,4.232,0,0,0-2.92-1.185ZM50.7,21.152a4.1,4.1,0,0,0-2.92,1.206h0l-.614.635a4.02,4.02,0,0,0-1.206,2.856,4.1,4.1,0,0,0,1.206,2.92l8.146,8.125a4.083,4.083,0,0,0,2.9,1.185h0a4.232,4.232,0,0,0,2.92-1.185l.635-.635a4.232,4.232,0,0,0,0-5.818l-8.125-8.1A4.02,4.02,0,0,0,50.7,21.131Z" transform="translate(20.87 20.696)" fill="url(#a)"/></g></g></svg>