<svg xmlns="http://www.w3.org/2000/svg" width="119.702" height="117.73" viewBox="0 0 119.702 117.73"><g transform="translate(-34.38 -32.166)"><path d="M108.155,46.631c-6.377,0-11.628,5.894-12.325,13.465-.7-7.572-5.962-13.465-12.338-13.465,6.377,0,11.635-5.885,12.338-13.465C96.526,40.746,101.778,46.631,108.155,46.631Z" transform="translate(-6.855)" fill="#fff" fill-rule="evenodd"/><path d="M95.83,32.166h0a1,1,0,0,1,1,.909c.657,7.159,5.528,12.557,11.329,12.557a1,1,0,0,1,0,2c-5.8,0-10.671,5.4-11.329,12.557a1,1,0,0,1-1,.908h0a1,1,0,0,1-1-.908c-.665-7.159-5.541-12.558-11.343-12.558a1,1,0,0,1,0-2c5.8,0,10.679-5.4,11.343-12.558A1,1,0,0,1,95.83,32.166ZM103.5,46.632a13.192,13.192,0,0,1-4.381-3.218,16.5,16.5,0,0,1-3.294-5.594,16.514,16.514,0,0,1-3.3,5.595,13.209,13.209,0,0,1-4.384,3.218,13.216,13.216,0,0,1,4.384,3.22,16.528,16.528,0,0,1,3.3,5.594,16.51,16.51,0,0,1,3.294-5.594A13.2,13.2,0,0,1,103.5,46.632Z" transform="translate(-6.855)" fill="#70678f"/><path d="M156.446,77.55c-3.188,0-5.814,2.947-6.162,6.733-.351-3.786-2.98-6.733-6.169-6.733,3.189,0,5.818-2.943,6.169-6.733C150.633,74.607,153.259,77.55,156.446,77.55Z" transform="translate(-15.318 -5.256)" fill="#fff" fill-rule="evenodd"/><path d="M150.284,69.817h0a1,1,0,0,1,1,.908c.305,3.32,2.526,5.824,5.166,5.824a1,1,0,0,1,0,2c-2.64,0-4.861,2.5-5.166,5.824a1,1,0,0,1-1,.908h0a1,1,0,0,1-1-.908c-.308-3.321-2.532-5.825-5.173-5.825a1,1,0,0,1,0-2c2.642,0,4.866-2.5,5.173-5.825A1,1,0,0,1,150.284,69.817Zm2.78,7.733a7.92,7.92,0,0,1-2.782-3.133A7.929,7.929,0,0,1,147.5,77.55a7.928,7.928,0,0,1,2.784,3.134A7.922,7.922,0,0,1,153.065,77.55Z" transform="translate(-15.318 -5.256)" fill="#70678f"/><path d="M140.786,101.722c-3.188,0-5.814,2.947-6.162,6.733-.351-3.786-2.98-6.733-6.169-6.733,3.189,0,5.818-2.943,6.169-6.733C134.973,98.779,137.6,101.722,140.786,101.722Z" transform="translate(-13.132 -8.63)" fill="#fff" fill-rule="evenodd"/><path d="M134.624,109.454a1,1,0,0,1-1-.908c-.308-3.321-2.532-5.825-5.173-5.825a1,1,0,1,1,0-2c2.642,0,4.866-2.5,5.173-5.825a1,1,0,0,1,1-.908h0a1,1,0,0,1,1,.908c.305,3.32,2.526,5.824,5.166,5.824a1,1,0,0,1,0,2c-2.64,0-4.861,2.5-5.166,5.824a1,1,0,0,1-1,.908Zm-2.786-7.733a7.928,7.928,0,0,1,2.784,3.134,7.922,7.922,0,0,1,2.782-3.134,7.92,7.92,0,0,1-2.782-3.133A7.929,7.929,0,0,1,131.839,101.722Z" transform="translate(-13.132 -8.63)" fill="#70678f"/><path d="M87.989,84.883c-4.626,0-8.435,4.275-8.939,9.767-.51-5.491-4.324-9.767-8.949-9.767,4.625,0,8.439-4.269,8.949-9.767C79.554,80.614,83.363,84.883,87.989,84.883Z" transform="translate(-4.986 -5.856)" fill="#fff" fill-rule="evenodd"/><path d="M79.05,74.116h0a1,1,0,0,1,1,.909c.463,5.05,3.878,8.858,7.943,8.858a1,1,0,0,1,0,2c-4.065,0-7.479,3.808-7.943,8.858a1,1,0,0,1-1,.909h0a1,1,0,0,1-1-.907c-.469-5.05-3.889-8.859-7.953-8.859a1,1,0,0,1,0-2c4.066,0,7.485-3.809,7.953-8.859A1,1,0,0,1,79.05,74.116Zm4.932,10.767a11.046,11.046,0,0,1-4.934-5.618,11.064,11.064,0,0,1-4.939,5.618A11.067,11.067,0,0,1,79.048,90.5,11.049,11.049,0,0,1,83.982,84.883Z" transform="translate(-4.986 -5.856)" fill="#70678f"/><path d="M34.38,161.965h119.7V119.627H112.769a24.331,24.331,0,1,1-37.073,0H34.38Z" transform="translate(0 -12.069)" fill="#ce809d"/><path d="M139.556,40.561c-29.67,20.546-38.593,54.54-41.222,71.71a12.612,12.612,0,1,0,8.7.551C108.344,96.65,114.306,64.325,139.556,40.561Z" transform="translate(-7.669 -1.032)" fill="#25847b"/><g transform="translate(37.759 116.23)"><path d="M41.38,132.693H39.8a1.493,1.493,0,0,1,0-2.987H41.38a1.493,1.493,0,0,1,0,2.987Z" transform="translate(-38.307 -129.706)" fill="#fff"/></g><g transform="translate(48.791 116.23)"><path d="M54.193,132.693H52.622a1.493,1.493,0,0,1,0-2.987h1.571a1.493,1.493,0,0,1,0,2.987Z" transform="translate(-51.129 -129.706)" fill="#fff"/></g><g transform="translate(59.814 116.23)"><path d="M67,132.693h-1.57a1.493,1.493,0,0,1,0-2.987H67a1.493,1.493,0,0,1,0,2.987Z" transform="translate(-63.94 -129.706)" fill="#fff"/></g><g transform="translate(44.06 124.112)"><path d="M48.7,141.853H47.123a1.493,1.493,0,0,1,0-2.987H48.7a1.493,1.493,0,1,1,0,2.987Z" transform="translate(-45.63 -138.866)" fill="#fff"/></g><g transform="translate(55.082 124.112)"><path d="M61.514,141.853H59.933a1.493,1.493,0,0,1,0-2.987h1.581a1.493,1.493,0,0,1,0,2.987Z" transform="translate(-58.44 -138.866)" fill="#fff"/></g><g transform="translate(37.759 131.983)"><path d="M41.38,151H39.8a1.493,1.493,0,0,1,0-2.986H41.38a1.493,1.493,0,0,1,0,2.986Z" transform="translate(-38.307 -148.014)" fill="#fff"/></g><g transform="translate(48.791 131.983)"><path d="M54.193,151H52.622a1.493,1.493,0,0,1,0-2.986h1.571a1.493,1.493,0,0,1,0,2.986Z" transform="translate(-51.129 -148.014)" fill="#fff"/></g><g transform="translate(59.814 131.983)"><path d="M67,151h-1.57a1.493,1.493,0,0,1,0-2.986H67A1.493,1.493,0,0,1,67,151Z" transform="translate(-63.94 -148.014)" fill="#fff"/></g><g transform="translate(44.06 139.854)"><path d="M48.7,160.148H47.123a1.493,1.493,0,0,1,0-2.986H48.7a1.493,1.493,0,1,1,0,2.986Z" transform="translate(-45.63 -157.162)" fill="#fff"/></g><g transform="translate(55.082 139.854)"><path d="M61.514,160.148H59.933a1.493,1.493,0,0,1,0-2.986h1.581a1.493,1.493,0,0,1,0,2.986Z" transform="translate(-58.44 -157.162)" fill="#fff"/></g><g transform="translate(66.115 139.854)"><path d="M74.326,160.148h-1.57a1.493,1.493,0,0,1,0-2.986h1.57a1.493,1.493,0,1,1,0,2.986Z" transform="translate(-71.263 -157.162)" fill="#fff"/></g><g transform="translate(121.654 116.23)"><path d="M138.886,132.693h-1.581a1.493,1.493,0,0,1,0-2.987h1.581a1.493,1.493,0,0,1,0,2.987Z" transform="translate(-135.813 -129.706)" fill="#fff"/></g><g transform="translate(132.686 116.23)"><path d="M151.7,132.693h-1.569a1.493,1.493,0,0,1,0-2.987H151.7a1.493,1.493,0,1,1,0,2.987Z" transform="translate(-148.634 -129.706)" fill="#fff"/></g><g transform="translate(142.93 115.87)"><path d="M156.292,127.909h-1.57a1.493,1.493,0,1,1,0-2.986h1.57a1.493,1.493,0,0,1,0,2.986Z" transform="translate(-153.228 -124.923)" fill="#fff"/></g><g transform="translate(127.955 124.112)"><path d="M146.209,141.853h-1.581a1.493,1.493,0,0,1,0-2.987h1.581a1.493,1.493,0,0,1,0,2.987Z" transform="translate(-143.136 -138.866)" fill="#fff"/></g><g transform="translate(144.268 131.982)"><path d="M159.02,141.853H157.44a1.493,1.493,0,1,1,0-2.987h1.581a1.493,1.493,0,0,1,0,2.987Z" transform="translate(-155.946 -138.866)" fill="#fff"/></g><g transform="translate(121.654 131.983)"><path d="M138.886,151h-1.581a1.493,1.493,0,0,1,0-2.986h1.581a1.493,1.493,0,0,1,0,2.986Z" transform="translate(-135.813 -148.014)" fill="#fff"/></g><g transform="translate(132.686 131.983)"><path d="M151.7,151h-1.569a1.493,1.493,0,0,1,0-2.986H151.7a1.493,1.493,0,1,1,0,2.986Z" transform="translate(-148.634 -148.014)" fill="#fff"/></g><g transform="translate(138.373 124.112)"><path d="M156.292,146.216h-1.57a1.493,1.493,0,1,1,0-2.986h1.57a1.493,1.493,0,0,1,0,2.986Z" transform="translate(-153.228 -143.23)" fill="#fff"/></g><g transform="translate(127.955 139.854)"><path d="M146.209,160.148h-1.581a1.493,1.493,0,0,1,0-2.986h1.581a1.493,1.493,0,0,1,0,2.986Z" transform="translate(-143.136 -157.162)" fill="#fff"/></g><g transform="translate(138.977 139.854)"><path d="M159.02,160.148H157.44a1.493,1.493,0,1,1,0-2.986h1.581a1.493,1.493,0,0,1,0,2.986Z" transform="translate(-155.946 -157.162)" fill="#fff"/></g><g transform="translate(116.932 139.854)"><path d="M133.389,160.148h-1.57a1.493,1.493,0,1,1,0-2.986h1.57a1.493,1.493,0,0,1,0,2.986Z" transform="translate(-130.325 -157.162)" fill="#fff"/></g></g></svg>