<svg xmlns="http://www.w3.org/2000/svg" width="21.97" height="17.86" viewBox="0 0 21.97 17.86"><path d="M920.179,3101.84a8.541,8.541,0,0,1-2.588.7,4.479,4.479,0,0,0,1.982-2.486,9.069,9.069,0,0,1-2.863,1.093,4.509,4.509,0,0,0-7.681,4.1,12.716,12.716,0,0,1-9.291-4.708,4.52,4.52,0,0,0,1.393,6.027,4.5,4.5,0,0,1-2.041-.565v.05a4.508,4.508,0,0,0,3.617,4.419,4.68,4.68,0,0,1-1.189.163,3.773,3.773,0,0,1-.847-.087,4.512,4.512,0,0,0,4.208,3.138,9.056,9.056,0,0,1-5.6,1.921,7.756,7.756,0,0,1-1.075-.063,12.806,12.806,0,0,0,19.734-10.8c0-.188,0-.389-.014-.578a9.217,9.217,0,0,0,2.25-2.335Z" transform="translate(-898.209 -3099.726)" fill="#fff" fill-rule="evenodd"/></svg>