<svg xmlns="http://www.w3.org/2000/svg" xmlns:xlink="http://www.w3.org/1999/xlink" width="87.141" height="86.809" viewBox="0 0 87.141 86.809"><defs><linearGradient id="a" x1="1.366" y1="2.229" x2="-0.59" y2="-2.78" gradientUnits="objectBoundingBox"><stop offset="0" stop-color="#7de388"/><stop offset="0.445" stop-color="#4c9354"/><stop offset="1" stop-color="#325c37"/></linearGradient></defs><g transform="translate(-4.23 -4.36)"><g transform="translate(4.23 4.36)"><path d="M55.4,62.96h-26.6a1,1,0,1,0,0,1.995H55.4a1,1,0,1,0,0-1.995Z" transform="translate(3.547 14.966)" fill="url(#a)"/><path d="M45.887,10.935h3.045a1,1,0,0,0,0-1.995H45.887a1,1,0,0,0,0,1.995Z" transform="translate(9.179 -2.85)" fill="url(#a)"/><path d="M40.537,10.935H42.7a1,1,0,1,0,0-1.995H40.537a1,1,0,0,0,0,1.995Z" transform="translate(7.415 -2.85)" fill="url(#a)"/><path d="M25.6,10.935h2.168a1,1,0,1,0,0-1.995H25.6a1,1,0,1,0,0,1.995Z" transform="translate(2.488 -2.85)" fill="url(#a)"/><path d="M87.728,31.953H74.3V8.017A3.655,3.655,0,0,0,70.64,4.36H27.023a4.955,4.955,0,0,0-4.947,4.947V41.7H7.887A3.655,3.655,0,0,0,4.23,45.358V56.847A3.655,3.655,0,0,0,7.887,60.5H22.076V86.222a4.955,4.955,0,0,0,4.947,4.947H69.337a4.955,4.955,0,0,0,4.947-4.947v-36.8H87.714a3.655,3.655,0,0,0,3.657-3.657V35.61A3.635,3.635,0,0,0,87.728,31.953ZM27.023,6.355h43.6a1.663,1.663,0,0,1,1.662,1.662V16.86H24.071V9.307A2.954,2.954,0,0,1,27.023,6.355ZM6.225,56.847V45.358A1.663,1.663,0,0,1,7.887,43.7H41.079a1.663,1.663,0,0,1,1.662,1.662V56.847a1.663,1.663,0,0,1-1.662,1.662H37.94a1,1,0,0,0-1,1v3.8l-3.5-4.428a1,1,0,0,0-.785-.386H7.887A1.643,1.643,0,0,1,6.225,56.847ZM69.337,89.174H27.023a2.954,2.954,0,0,1-2.952-2.952v-8.71H72.3v8.71A2.957,2.957,0,0,1,69.337,89.174ZM72.3,75.517H24.071V60.5h8.112l4.973,6.3a1.022,1.022,0,0,0,.785.386.966.966,0,0,0,.332-.053.991.991,0,0,0,.665-.944V60.517h2.141a3.655,3.655,0,0,0,3.657-3.657V45.371a3.655,3.655,0,0,0-3.657-3.657H24.071V18.855H72.3v13.1H53.871a3.655,3.655,0,0,0-3.657,3.657V45.77a3.655,3.655,0,0,0,3.657,3.657h2.141V55.1a1,1,0,0,0,.665.944.918.918,0,0,0,.332.053.982.982,0,0,0,.785-.386l4.973-6.3H72.3v26.1ZM89.39,45.77a1.663,1.663,0,0,1-1.662,1.662H62.289a.964.964,0,0,0-.785.386l-3.5,4.428V48.429a1,1,0,0,0-1-1H53.871a1.663,1.663,0,0,1-1.662-1.662V35.61a1.663,1.663,0,0,1,1.662-1.662H87.728A1.663,1.663,0,0,1,89.39,35.61Z" transform="translate(-4.23 -4.36)" fill="url(#a)"/><path d="M69.557,28.83H45.487a1,1,0,0,0,0,1.995H69.543a1,1,0,0,0,1-1A.993.993,0,0,0,69.557,28.83Z" transform="translate(9.048 3.71)" fill="url(#a)"/><path d="M65.213,32.53H58.657a1,1,0,1,0,0,1.995h6.556a1,1,0,0,0,0-1.995Z" transform="translate(13.391 4.93)" fill="url(#a)"/><path d="M58.583,32.53H45.5a1,1,0,0,0,0,1.995H58.583a1,1,0,0,0,0-1.995Z" transform="translate(9.051 4.93)" fill="url(#a)"/><path d="M15.947,39.165H35.708a1,1,0,1,0,0-1.995H15.947a1,1,0,1,0,0,1.995Z" transform="translate(-0.695 6.461)" fill="url(#a)"/><path d="M18.208,40.86H15.947a1,1,0,1,0,0,1.995h2.261a1,1,0,1,0,0-1.995Z" transform="translate(-0.695 7.677)" fill="url(#a)"/><path d="M34.053,40.86H20.967a1,1,0,0,0,0,1.995H34.053a1,1,0,0,0,0-1.995Z" transform="translate(0.961 7.677)" fill="url(#a)"/><path d="M11.7,35.79A3.683,3.683,0,0,0,8.02,39.474a1,1,0,0,0,1.995,0A1.689,1.689,0,1,1,11.7,41.162a1,1,0,0,0-1,1v2.593a1,1,0,0,0,1,1h0a1,1,0,0,0,1-1V43.024a3.686,3.686,0,0,0-1-7.234Z" transform="translate(-2.98 6.005)" fill="url(#a)"/></g></g></svg>