<svg xmlns="http://www.w3.org/2000/svg" xmlns:xlink="http://www.w3.org/1999/xlink" width="155.521" height="122.51" viewBox="0 0 155.521 122.51"><defs><linearGradient id="a" x1="0.061" y1="0.273" x2="0.985" y2="0.757" gradientUnits="objectBoundingBox"><stop offset="0" stop-color="#998ec4"/><stop offset="1" stop-color="#241d41"/></linearGradient><linearGradient id="b" x1="0" y1="0.5" x2="1" y2="0.5" xlink:href="#a"/></defs><g transform="translate(0)"><path d="M-470.015,434a14.753,14.753,0,0,0-10.5,4.349,14.74,14.74,0,0,0-4.3,9.264h-17.473A14.864,14.864,0,0,0-517.065,434h-.026a14.933,14.933,0,0,0-10.484,4.34,14.71,14.71,0,0,0-4.3,9.272h-11.294l8.113-20.113h86l15.338-57.046h-45.055a14.884,14.884,0,0,0-14.806-13.63,14.768,14.768,0,0,0-10.492,4.349,14.725,14.725,0,0,0-4.3,9.281H-551.68l-8.959-29.264h-28.593v2.449h26.78l11.965,39.094h.009l13.3,43.495-9.621,23.834h14.928a14.69,14.69,0,0,0,4.279,9.281,14.8,14.8,0,0,0,10.5,4.357h.009a14.858,14.858,0,0,0,14.8-13.638h17.473a14.871,14.871,0,0,0,14.8,13.638,14.877,14.877,0,0,0,14.8-13.638h11.146v-2.449h-11.146A14.874,14.874,0,0,0-470.015,434Zm-3.773-61.1H-436.9l-6.449,23.983h-30.44Zm0,26.431h29.778l-6.919,25.717h-22.858Zm-32.122-28.88a12.31,12.31,0,0,1,3.573-7.547,12.314,12.314,0,0,1,8.767-3.634,12.426,12.426,0,0,1,12.349,11.181,11.164,11.164,0,0,1,.061,1.211v.009a11.373,11.373,0,0,1-.061,1.229,12.425,12.425,0,0,1-12.349,11.172,12.423,12.423,0,0,1-12.34-11.172,11.665,11.665,0,0,1-.061-1.237C-505.972,371.256-505.945,370.856-505.911,370.455Zm-4.044,2.449h1.586a14.868,14.868,0,0,0,14.8,13.621A14.871,14.871,0,0,0-478.765,372.9h2.527v23.983h-33.717Zm0,26.431h33.717v25.717h-33.717Zm-38.187-17.316-2.789-9.116H-512.4v23.983h-31.19Zm5.3,17.316h30.44v25.717h-22.571Zm38.161,49.525a12.415,12.415,0,0,1-12.4,12.392h-.009a12.359,12.359,0,0,1-8.767-3.643,12.3,12.3,0,0,1-3.617-8.767,12.314,12.314,0,0,1,3.634-8.767,12.462,12.462,0,0,1,8.758-3.625h.009a12.407,12.407,0,0,1,12.392,12.392Zm47.068-.009a12.422,12.422,0,0,1-12.4,12.4,12.418,12.418,0,0,1-12.4-12.41,12.264,12.264,0,0,1,3.634-8.758,12.3,12.3,0,0,1,8.767-3.634,12.415,12.415,0,0,1,12.4,12.392Z" transform="translate(589.231 -341.191)" fill="url(#a)"/></g><g transform="translate(93.662 22.672)"><path d="M-481.754,381.67a1.843,1.843,0,0,1,.493-1.393,2,2,0,0,1,1.436-.471,1.946,1.946,0,0,1,1.41.483,1.835,1.835,0,0,1,.5,1.382,1.833,1.833,0,0,1-.5,1.365,1.913,1.913,0,0,1-1.4.5,1.964,1.964,0,0,1-1.425-.488A1.827,1.827,0,0,1-481.754,381.67Zm3.278-3.751h-2.675l-.559-10.712h3.794Z" transform="translate(481.754 -367.207)" fill="url(#b)"/></g></svg>