<svg xmlns="http://www.w3.org/2000/svg" xmlns:xlink="http://www.w3.org/1999/xlink" width="101.583" height="93.242" viewBox="0 0 101.583 93.242"><defs><linearGradient id="a" x1="0.841" y1="0.5" x2="0.032" y2="0.656" gradientUnits="objectBoundingBox"><stop offset="0" stop-color="#1cabe0"/><stop offset="0.975" stop-color="#107ba5"/><stop offset="1" stop-color="#107aa3"/></linearGradient></defs><g transform="translate(-2.331 -3.857)"><g transform="translate(2.331 3.857)"><path d="M15.247,60.231h8.772v8.84a.767.767,0,0,1-.766.766H18.9a4.4,4.4,0,1,0,0,2.4h4.351a3.169,3.169,0,0,0,3.166-3.166v-8.84H37.43V76.955a.762.762,0,0,1-.224.542l-5.271,5.271a4.511,4.511,0,0,0-5.3.669,4.4,4.4,0,1,0,6.975,1.053l5.3-5.3a3.146,3.146,0,0,0,.927-2.239V60.231H50.841V88.488a4.4,4.4,0,1,0,2.4,0V60.231H64.252V76.955a3.146,3.146,0,0,0,.928,2.239l5.3,5.3a4.39,4.39,0,1,0,6.979-1.061,4.512,4.512,0,0,0-5.311-.665L66.877,77.5a.761.761,0,0,1-.225-.542V60.231H77.664v8.84a3.169,3.169,0,0,0,3.165,3.166H85.18a4.4,4.4,0,1,0,0-2.4H80.829a.767.767,0,0,1-.766-.766v-8.84h8.788a13.985,13.985,0,1,0-1.2-27.918,15,15,0,0,0-18.5-16.575,18.259,18.259,0,0,0-34.214-.012A14.991,14.991,0,0,0,16.464,32.313a13.986,13.986,0,1,0-1.216,27.918Zm-.56,12.813a2,2,0,0,1-2-2,1.978,1.978,0,0,1,2-2,2,2,0,1,1,0,4ZM31.156,87.962a2.047,2.047,0,0,1-2.828,0,2,2,0,1,1,2.828-2.828A2,2,0,0,1,31.156,87.962ZM54.041,92.7a2,2,0,1,1-4,0,1.978,1.978,0,0,1,2-2A2,2,0,0,1,54.041,92.7Zm21.725-7.567a2,2,0,0,1,0,2.828,2.052,2.052,0,0,1-2.829,0,2,2,0,0,1,2.829-2.829ZM89.395,69.045a2,2,0,1,1-2,2A1.978,1.978,0,0,1,89.395,69.045ZM15.24,34.661a12.511,12.511,0,0,1,2.488.255,1.2,1.2,0,0,0,1.4-1.475A12.577,12.577,0,0,1,35.313,18.347a1.2,1.2,0,0,0,1.549-.8,15.847,15.847,0,0,1,30.36.021,1.2,1.2,0,0,0,1.551.8A12.582,12.582,0,0,1,84.984,33.441a1.2,1.2,0,0,0,1.4,1.475,12.466,12.466,0,0,1,2.478-.253,11.585,11.585,0,0,1-.012,23.169h-73.6a11.585,11.585,0,1,1-.008-23.171Z" transform="translate(-1.25 -3.857)" fill="url(#a)"/></g></g></svg>