<svg xmlns="http://www.w3.org/2000/svg" width="588" height="477.507" viewBox="0 0 588 477.507">
  <g id="waitlist-mgmnt-hero" transform="translate(-714.5 -202.408)">
    <g id="Group_7668" data-name="Group 7668" transform="translate(-7946.332 -1351.533)">
      <path id="Path_61989" data-name="Path 61989" d="M8951.832,1709.1a48.6,48.6,0,0,1,1.888,8.24c.835,5.341,1.308,9.392-1.3,11.352-2.872,2.154-17.453,1.719-19.471-.626-1.027-1.193-1.268-4.21.063-6.261,3.13-4.821,2.9-12.944,2.9-12.944S8945.367,1710.371,8951.832,1709.1Z" transform="translate(12.049 122.288)" fill="#b8d170" fill-rule="evenodd"/>
      <path id="Path_61990" data-name="Path 61990" d="M8933.224,1716.552s-3.381,4.632,16.465,1.377c0,0,2.506-.5,3.193-1.377s1.063,2.158-8.64,2.831S8930.889,1719.577,8933.224,1716.552Z" transform="translate(12.402 128.232)" fill="#3f2112" fill-rule="evenodd"/>
      <path id="Path_61991" data-name="Path 61991" d="M8943.263,1707.991a30.082,30.082,0,0,1,1.191,3.779S8942.751,1709.115,8943.263,1707.991Z" transform="translate(20.789 121.6)" fill="#3f2112" fill-rule="evenodd"/>
      <g id="Group_7667" data-name="Group 7667" transform="translate(8984.745 1828.738)">
        <path id="Path_61992" data-name="Path 61992" d="M8955.916,1709.357s-1.85,7.637-.816,11.5c.521,1.945,4.116,4.06,5.577,4.821,1.167.607,2.107-3.022,2.586-1.907.646,1.5-.977,2.544.337,3.366,8.722,5.457,21.2,2.088,21.832,1.771s3.212-1.079,2.853-2.6c-.37-1.583-.267-5.273-2.237-5.413-2-.408-3.02-.216-4.792-1.138-1.36-1.373-8.135-7.059-8.087-10.7S8955.916,1709.357,8955.916,1709.357Z" transform="translate(-8954.786 -1707.514)" fill="#b8d170" fill-rule="evenodd"/>
        <path id="Path_61993" data-name="Path 61993" d="M8986.947,1716.938s.055,1.832-2.944,2.607c-4.6,1.188-13.537,1.94-28.292-6.13-4.339-2.371,14.773,9.823,26.757,7.422C8987.529,1719.822,8987.459,1718.76,8986.947,1716.938Z" transform="translate(-8954.555 -1703.099)" fill="#3f2112" fill-rule="evenodd"/>
        <path id="Path_61994" data-name="Path 61994" d="M8960.326,1716.929s-1.691-1.154-1.8-.938-.446,3.019-.446,3.019.407-2.566.723-2.534A6.478,6.478,0,0,1,8960.326,1716.929Z" transform="translate(-8952.188 -1700.844)" fill="#3f2112" fill-rule="evenodd"/>
      </g>
      <path id="Path_61995" data-name="Path 61995" d="M8925.157,1669.049c.045.744,2.27,15.15,5.926,22.024,1.248,4.172.433,20.5,3.354,19.677-.077.1-.055-.555.224-.335.321.256.487.6.781.782.434.263.693.358,1.455-.782.263-.4-.112.387.446.558s1.082-.608,1.452-1.453c7.43-16.938,7.7-66.228,3.131-65.29-1.975-2.877.729-14.59.56-17.1s-11.634-5.007-15.314-1.229c-.422,2.9-.15,10.171-.112,13.975a16.187,16.187,0,0,1-.671,4.7C8922.5,1653.641,8925.157,1669.049,8925.157,1669.049Z" transform="translate(5.875 55.272)" fill="#efd4e0" fill-rule="evenodd"/>
      <path id="Path_61996" data-name="Path 61996" d="M8941.76,1628.356s-8.5,6.7-11.07,16.546-1.771,33.132,1.343,43.6c2.605,8.75,3.243,24.149,3.243,24.149s-3.661,38.031-3.8,63.357a57.243,57.243,0,0,0,30.775-.692c.277,1.918-1.4-36.544-7.08-70.937-.184-1.1-.449-12.831-1-18.115-1.565-14.977-2.813-23.17-2.683-24.929.17-.458,1.209,1.011,1.537,1.85,1.882,4.806,4.488,23.022,7.595,38.058,2.233,10.8,4.334,69.114,4.814,74.278,20.143,7.149,31.134.081,31.134.081-1.844-25.436-16.574-70.66-17.355-76.813-.53-4.182-1.968-28.825-2.234-32.309s-1.675-21.283-9.837-30.632c-2.209-2.051,2.046-8.219.916-10.027C8967.178,1624.423,8941.76,1628.356,8941.76,1628.356Z" transform="translate(9.732 56.501)" fill="#70678e" fill-rule="evenodd"/>
      <path id="Path_61997" data-name="Path 61997" d="M8961.744,1633.389c.33.462-.849,1.947-3.464,2.682-5.557,1.564-15.949,2.022-22.921-6.146-2.707-3.175,5.744,7.682,19.79,5.924C8961.246,1635.087,8961.419,1632.929,8961.744,1633.389Z" transform="translate(14.231 59.516)" fill="#5b5474" fill-rule="evenodd"/>
      <path id="Path_61998" data-name="Path 61998" d="M8939.637,1644.787s5.788.267,7.714,2.013a8.8,8.8,0,0,1-2.011-.449l3.688,16.659s-2.455-10.491-4.135-14.757a5.108,5.108,0,0,0-1.454-2.011A15.5,15.5,0,0,0,8939.637,1644.787Z" transform="translate(18.003 71.709)" fill="#5b5474" fill-rule="evenodd"/>
      <path id="Path_61999" data-name="Path 61999" d="M8943.648,1645.738s-4.52-.528-5.619.116S8941.92,1645.568,8943.648,1645.738Z" transform="translate(16.611 72.299)" fill="#5b5474" fill-rule="evenodd"/>
      <path id="Path_62000" data-name="Path 62000" d="M8987.6,1635.74s-3.518-9.439-5.03-13.641-4.605-5.52-13.977-10.283c-1.3-.943-6.182-6.733-11.29-3.915-6.237,3.441-6.778-4.679-9.391-.334a2.263,2.263,0,0,1-1.455,1.008s-2.356,1.557-8.049,4.47c-7.912,4.055-8.749,7.028-9.947,9.392-1.293,2.537-2.572,17.663-2.572,17.663a12.233,12.233,0,0,0,6.147,2.237,38.168,38.168,0,0,0,9.169-1.229l-.114-1.007a11.872,11.872,0,0,0,3.354,4.361c3.539,2.979,17.8,10.183,28.287,1.566a26.481,26.481,0,0,0,3.017-2.906l8.666-4.846Z" transform="translate(7.154 41.293)" fill="#fce78e" fill-rule="evenodd"/>
      <path id="Path_62001" data-name="Path 62001" d="M8960.029,1625.787s4.273,3.516,7.375.782c.549-.481-2.2-2.058-2.346-2.57-.766-2.634-4.52-11.584-5.7-13.3s-4.232-4.765-10.062-5.032c-6.234-.284-8.967-.257-11.514,2.906a19.863,19.863,0,0,0-.895,8.274c.039,1.977.932,6.555.895,9.278-.016,1.106-.781,1.448-.895,1.9-.4,1.573,1.9,2.013,1.9,2.013a10.73,10.73,0,0,0,5.59-.895c2.951-1.324,2.742-2.251,3.691-1.789,2.018.982,1.564,1.229,1.564,1.229a101.1,101.1,0,0,1,.223,13.193c1.473-.238,2.973.064,4.137-.669-.578-6.261-1.568-9.691-.783-12.409C8954.869,1622.942,8960.029,1625.787,8960.029,1625.787Z" transform="translate(15.723 40.738)" fill="#ec701e" fill-rule="evenodd"/>
      <path id="Path_62002" data-name="Path 62002" d="M8940.324,1624.684s-6.342,3.337-14.458-1.528c4.765,1.689,6.992,2.2,11.174,1.843C8938.508,1624.87,8939.952,1624.648,8940.324,1624.684Z" transform="translate(7.131 54.635)" fill="#d3b151" fill-rule="evenodd"/>
      <path id="Path_62003" data-name="Path 62003" d="M8933.089,1616.387c.014-1.056-.5,11.475,2.458,16.1C8935.841,1632.942,8933,1622.819,8933.089,1616.387Z" transform="translate(12.812 49.242)" fill="#d3b151" fill-rule="evenodd"/>
      <path id="Path_62004" data-name="Path 62004" d="M8934,1620.582s-2.061-2.273-1.79-3.13S8932.347,1618.476,8934,1620.582Z" transform="translate(12.123 49.965)" fill="#d3b151" fill-rule="evenodd"/>
      <path id="Path_62005" data-name="Path 62005" d="M8955.476,1617.359a51.533,51.533,0,0,1,.448,8.385c-.175,4.525-1.883,7.462-1.791,7.043C8955.08,1628.591,8955.293,1631.557,8955.476,1617.359Z" transform="translate(29.444 50.059)" fill="#d3b151" fill-rule="evenodd"/>
      <path id="Path_62006" data-name="Path 62006" d="M8956.882,1617.3s-1.422,3.972-1.9,3.8S8956.147,1622.63,8956.882,1617.3Z" transform="translate(30.048 50.009)" fill="#d3b151" fill-rule="evenodd"/>
      <path id="Path_62007" data-name="Path 62007" d="M8954.945,1623.688s1.787-2.507,7.936-2.571c1.381-.015-1.316-1.344-5.922.669A8.322,8.322,0,0,0,8954.945,1623.688Z" transform="translate(30.085 52.675)" fill="#d3b151" fill-rule="evenodd"/>
      <path id="Path_62008" data-name="Path 62008" d="M8945.088,1618.564s.108,2.967.092,5.9c-.019,2.9-.158,5.767-.158,5.767l.669-.164C8946.04,1630.211,8945.889,1620.126,8945.088,1618.564Z" transform="translate(22.253 51.01)" fill="#804c32" fill-rule="evenodd"/>
      <path id="Path_62009" data-name="Path 62009" d="M8946.786,1607.466a6.662,6.662,0,0,1,1.01,2.849C8947.78,1610.918,8946.885,1607.865,8946.786,1607.466Z" transform="translate(23.644 42.25)" fill="#804c32" fill-rule="evenodd"/>
      <path id="Path_62010" data-name="Path 62010" d="M8939,1607.057s-.229,3.14.366,4.132S8938,1609.147,8939,1607.057Z" transform="translate(17.273 41.927)" fill="#804c32" fill-rule="evenodd"/>
      <path id="Path_62011" data-name="Path 62011" d="M9011.519,1599.928s16.8,4.681,10.144,22.678c-4.256,11.516-22.611,19.7-63.738,7.576-43.05-12.692-42.17-34.758-40.535-38.521,2.152-4.956,8.749-13.608,21.7-9.367a7.281,7.281,0,0,1,2.853-5.051c3.7-2.112,8.853-2.847,10.567,0,.925,1.528.453-10.668,14.25-8.174,15.741,2.849,27.444,6.052,32.357,10.378,2.022,2.926,2.783,4.694,2.849,9.736C9001.051,1590.128,9009.676,1584.778,9011.519,1599.928Z" transform="translate(0.001 11.674)" fill="#dc4427" fill-rule="evenodd"/>
      <path id="Path_62012" data-name="Path 62012" d="M9022.606,1601.18c1.146,2.584,1.291,6.24-1.027,11.355-5.063,11.184-22.646,19.835-63.737,7.574-45.488-13.572-41.1-34.962-40.536-38.613-2.691,17.466,47.958,43.813,75.555,41.948C9012.327,1622.128,9018.938,1609.191,9022.606,1601.18Z" transform="translate(0.084 21.751)" fill="#c13f28" fill-rule="evenodd"/>
      <path id="Path_62013" data-name="Path 62013" d="M8949.935,1581.021s-6.009-8.967-1.2-13.683c5.416-5.307,15.1-8.958,17.24-12.359,2.412-3.831-3.153,3.361,2.98,14.839,4.963,9.281-.233,15.482-7.083,14.841S8950.393,1581.64,8949.935,1581.021Z" transform="translate(23.713 0)" fill="#dc4427" fill-rule="evenodd"/>
      <path id="Path_62014" data-name="Path 62014" d="M8949.789,1575.009s-6.079-8.829-.828-13.683c-4.083,13.062,18.372,17.4,20.3,3.96,4.961,9.281-.5,14.186-7.35,13.545S8950.781,1576,8949.789,1575.009Z" transform="translate(23.674 5.829)" fill="#c13f28" fill-rule="evenodd"/>
      <path id="Path_62015" data-name="Path 62015" d="M8948.485,1568.563l-.826,1.651,15.968,4.04.458-1.258S8953.636,1569.386,8948.485,1568.563Z" transform="translate(24.334 11.542)" fill="#fce78e" fill-rule="evenodd"/>
      <path id="Path_62016" data-name="Path 62016" d="M8937.873,1589.5c2.432,3.537,3.809,10.02,3.809,10.02l.523,4.983s1.1,11.42-.09,20.388c-.766,5.739-1.545,6.029-1.572,7.671s2.855,7,6.039,10.511c1.879,2.072,3.98,7.163,4.916,7.154-.191-.909,4.623-7.832,4.494-11.742a23.891,23.891,0,0,0-1.012-5.694c-.248-.6-.748.326-.918-.734a73.634,73.634,0,0,1-.092-16.807c2.906.3,16.262,4.024,20.482-11.1,1.719-9.807.41-19.164-.945-20.077l-2.229-4.185s-13.826-2.24-22.916-1.19c-1.3.15-4.33,6.751-4.506,8.358-.643-6.172-4.646-5.459-5.332-4.869C8937.215,1583.239,8936.688,1585.567,8937.873,1589.5Z" transform="translate(16.09 19.316)" fill="#efd4e0" fill-rule="evenodd"/>
      <path id="Path_62017" data-name="Path 62017" d="M8940.478,1606.211s4.224,6.612,13.328,22.687a37.561,37.561,0,0,0-.367-4.316,16.839,16.839,0,0,0-.645-2.756c-.123-.269-.325-.012-.644-.091-.257-.066-.232-.693-.367-1.471-.655-3.81-.512-10.668,0-15.8a21.028,21.028,0,0,1-7.078-4.132,21.579,21.579,0,0,1-3.217-4.409c-.891-1.781-.926-3.956-1.193-3.856-.774.284.155,8.2.181,9.643C8940.513,1603.566,8940.478,1606.211,8940.478,1606.211Z" transform="translate(18.278 30.095)" fill="#e3c1ce" fill-rule="evenodd"/>
      <path id="Path_62018" data-name="Path 62018" d="M8951.573,1593.583l-2.042-.234.188.38.77.313a11.778,11.778,0,0,0,1.89,3.537,15.747,15.747,0,0,0,3.253,2.836l1.068-.195a11.715,11.715,0,0,1-5.888-6.263l.422-.027Zm-3.584-9.278a9.552,9.552,0,0,1,3.594-.088l-1.215-1.655s-3.389.913-4.388,2.618c-.517.884.354-.394,2.007-.873Zm4.972,8.065a1.691,1.691,0,1,0-1.289-1.653,1.5,1.5,0,0,0,1.289,1.653Zm3.681,3.743c-.206-.277,2.543-.156,2.543-.156a7.357,7.357,0,0,1-1.151-4.334s.6,3.144,2.059,4.182-3.246.585-3.45.306Zm7-3.473a1.332,1.332,0,1,0-1.3,1.637A1.5,1.5,0,0,0,8963.645,1592.64Zm2.745-3.487a13.91,13.91,0,0,1,.887,1.583s-.029-3.226-.776-3.038c-.411.394-.781.784-.781.784a2.441,2.441,0,0,1,.666.669Z" transform="translate(22.893 22.592)" fill="#804c33" fill-rule="evenodd"/>
      <path id="Path_62019" data-name="Path 62019" d="M8943.934,1584.819a7.225,7.225,0,1,1-8.934,5.225,7.31,7.31,0,0,1,8.922-5.227Z" transform="translate(14.172 24.183)" fill="#fbe68e" fill-rule="evenodd"/>
      <path id="Path_62020" data-name="Path 62020" d="M8949.478,1580.2a27.44,27.44,0,0,0-2.682,5.306,20.671,20.671,0,0,0-1.341,4.6l-.825-3.928s-3.571-4.8-7.511-3.863,7.057-7.156,9.85-6.73,13.9,1.414,13.9,1.414l18.986,4.121,1.969,5.306-1.854,2.473s-1.5,7.261-4.112.47c-1.023,5.348-7.84,6.206-7.84,6.206s-12.241-3.31-12.488-12.395C8955.2,1584.5,8952.456,1585.588,8949.478,1580.2Z" transform="translate(15.348 17.07)" fill="#dc4427" fill-rule="evenodd"/>
      <path id="Path_62021" data-name="Path 62021" d="M8947.181,1581.963s-3.327,1.925-4.309,5.112-1.229,3.69-1.229,3.69l-1.007-4.472,7.258-10.448s-1.5,7.573,2.046,7.511c2.659-.044.343-4.858,2.749-3.672.208.1,1.295,5.262,1.742,7.2.471,2.04,2.118,3.083,4.1,4.311,6.4,3.97,11.018,4,12.954-.555a12.292,12.292,0,0,0,.857-2.605,22.306,22.306,0,0,0,1.549,3.087c.838,1.442,2.686-2.246,2.688-2.292,0,0-1.5,7.259-4.115.469-1.224,6.508-7.836,6.206-7.836,6.206s-12.479-2.1-12.727-11.185C8951.526,1585.683,8947.607,1585.271,8947.181,1581.963Z" transform="translate(18.793 17.29)" fill="#c13f28" fill-rule="evenodd"/>
      <path id="Path_62022" data-name="Path 62022" d="M8960.972,1660.029c-.152-.673,2.368,2.847,4.7,3.579,2.543.8,8.723-.365,11.4-1.787,7.679-4.076,22.506-19.515,30.183-31.192,1.73-2.628,3.449-2.929,4.7-4.248,4.79-5.066,9.167-14.759,9.167-14.759s-1.275-.968-.894-1.789c.267-.571,2.55-1.924,2.235-2.011-3.438-.947-14.991,2.328-14.991,2.328s-2.469.317-2.884-.481c-.671-1.285,1.957-3.634.659-5.536a3.8,3.8,0,0,0-1.229-.895,12.624,12.624,0,0,1-2.011,3.915c-.883.884-1.713.528-3.244,1.787a12.486,12.486,0,0,0-3.8,5.7c-1.153,2.94,1.922,8.469-.446,11.851-5.077,7.238-8.685,10.367-14.087,12.969-4.893,2.353-7.274,2.634-8.944,4.137a6.947,6.947,0,0,1-1.677.782,54.153,54.153,0,0,1-3.912-6.6,10.2,10.2,0,0,0-9.838,3.24,26.363,26.363,0,0,1-2.8,5.59C8954.894,1651.662,8960.972,1660.029,8960.972,1660.029Z" transform="translate(28.753 38.912)" fill="#efd4e0" fill-rule="evenodd"/>
      <path id="Path_62023" data-name="Path 62023" d="M9004.16,1597.3l1.268-.61,1.256,1.455a.829.829,0,0,1,.135,1.075c-.68,1.271-13.488,28.25-13.488,28.25a3.466,3.466,0,0,1-2.256,1.857c-1.594.331-10.939-1.373-10.939-1.373s-.844-.091-1.041-.707c-.164-.512-.369-1.626-.369-1.626l22.635-28.746Z" transform="translate(48.857 33.74)" fill="#31726c" fill-rule="evenodd"/>
      <path id="Path_62024" data-name="Path 62024" d="M8992.755,1596.679l12.035-.038a.681.681,0,0,1,.88.392.644.644,0,0,1,.042.313l-13.846,29.354a2.114,2.114,0,0,1-1.8,1.227l-10.569-1.514c-.659-.093-1.019-.583-.664-1.367,0,0,12.5-26.33,12.778-27.093A1.849,1.849,0,0,1,8992.755,1596.679Z" transform="translate(48.831 33.67)" fill="#eee" fill-rule="evenodd"/>
      <path id="Path_62025" data-name="Path 62025" d="M9005.8,1596.616a1.015,1.015,0,0,1,.4.911l-.008.057-13.867,29.4a2.509,2.509,0,0,1-.781.956,2.124,2.124,0,0,1-1.2.483,1.19,1.19,0,0,1-.182-.014l-10.562-1.514a1.25,1.25,0,0,1-.963-.594,1.334,1.334,0,0,1,.033-1.244l0-.005c4.324-9.1,12.557-26.474,12.77-27.062a2.113,2.113,0,0,1,1.379-1.489l.041-.009,12.016-.036a1.038,1.038,0,0,1,.3-.047h0A1.02,1.02,0,0,1,9005.8,1596.616Zm-13.725,1.6c-.275.766-12.258,26-12.789,27.119a.768.768,0,0,0-.059.641.628.628,0,0,0,.469.254l10.568,1.514h.006a.273.273,0,0,0,.076.006,1.915,1.915,0,0,0,1.359-1.026l13.826-29.313a.344.344,0,0,0-.139-.261.34.34,0,0,0-.211-.07h0a.345.345,0,0,0-.125.023l-.057.022-12.051.037A1.63,1.63,0,0,0,8992.076,1598.218Z" transform="translate(48.682 33.522)" fill="#378e87"/>
      <path id="Path_62026" data-name="Path 62026" d="M8992.124,1597.717l10.125.087-12.723,27.085-9.788-1.075Z" transform="translate(49.657 34.554)" fill="#378e87" fill-rule="evenodd"/>
      <path id="Path_62027" data-name="Path 62027" d="M8993.947,1602.732s2.385-1.848,2.795-2.348c.395-.478,2.729-1.432,3.129-1.118.941.734.74,2.264-1.787,4.25-3.719,2.918-6.582,4.7-6.582,4.7Z" transform="translate(58.943 35.729)" fill="#efd4e0" fill-rule="evenodd"/>
      <path id="Path_62028" data-name="Path 62028" d="M8992.3,1606.75a6.923,6.923,0,0,1,.076,1.4c-.013.092,1.983.719,2.513.141.664-.725,2.229-3.137-2.156-4.973a8.921,8.921,0,0,0-3.674-.818c-1.674.347.1,3.115.557,3.353a7.643,7.643,0,0,0,2.685.9Z" transform="translate(56.457 38.309)" fill="#efd4e0" fill-rule="evenodd"/>
      <path id="Path_62029" data-name="Path 62029" d="M8988.5,1607.825a6.6,6.6,0,0,1,2.332,1.283c.308.26.381.948.419,1.719.748.381,1.134.5,1.68.306a2.627,2.627,0,0,0-.052-4.912c-2.166-.873-4.548-2.13-4.94-1.3C8987.53,1605.787,8987.406,1607.261,8988.5,1607.825Z" transform="translate(55.897 40.026)" fill="#efd4e0" fill-rule="evenodd"/>
      <path id="Path_62030" data-name="Path 62030" d="M8930.516,1723.822c.2-1.548.229-4.853.336-7.712a6.656,6.656,0,0,0-.448-2.573c-.336-.265.247.9.224,1.9-.051,2.4-.381,5.93-.447,7.154-.024.451-.144,1.406-.112,1.789.021.247-.147,1.3-.112,1.453.069.3.183-.066.173-.2-.039.036-.062-.022-.062-.022.043-.043.06-.025.063.022.071-.061.2-.4.388-1.811Zm52.333-76.291a.365.365,0,0,0-.015.048l.016-.048Zm.994-.175a31.777,31.777,0,0,0-1.79,4.582s.847-4.505.8-4.407c.754-2.863,5.242-4.089,5.242-4.089-2.067,1.573-3.059,1.374-4.248,3.913Zm30.011-24.527c-.021-.152-.03-.245-.03-.245a1.094,1.094,0,0,0,.03.245Zm1.378,2.622c-.937-.066-1.284-1.942-1.378-2.622.282,1.33,2.454,2.7,1.38,2.622Zm4.605-12.082c-.191.54,1.433-2.526.338-2.906A5.986,5.986,0,0,1,9019.837,1613.369Zm.338-3.019a11.661,11.661,0,0,0,2.347-3.13,22.218,22.218,0,0,0,1.455-2.795c-.153,4.13-4.94,6.624-3.8,5.924Zm18,1.342c.549-.118-1.2-.16-1.455-1.229,0,0,.072,1.526,1.454,1.229Zm.338-6.5c.547.988,1.566.047,1.109.243s-1.109-.24-1.109-.24Z" transform="translate(10.357 39.85)" fill="#e3c1ce" fill-rule="evenodd"/>
      <path id="Path_62031" data-name="Path 62031" d="M8931.551,1677.485s.758-9.3.561-10.172a15.176,15.176,0,0,0-.561-2.013c.045.424.338,1.961.336,2.569,0,1.122-.559,9.727-.559,9.727Z" transform="translate(11.443 87.864)" fill="#e3c1ce" fill-rule="evenodd"/>
      <path id="Path_62032" data-name="Path 62032" d="M8980.936,1614.3s.465.431.446,1.787C8982.146,1615.25,8981.158,1614.413,8980.936,1614.3Z" transform="translate(50.6 47.643)" fill="#e3c1ce" fill-rule="evenodd"/>
      <path id="Path_62033" data-name="Path 62033" d="M8983.27,1614.672s-2.476,2.056-2.459,3.017S8980.795,1614.865,8983.27,1614.672Z" transform="translate(50.503 47.938)" fill="#e3c1ce" fill-rule="evenodd"/>
      <path id="Path_62034" data-name="Path 62034" d="M8989.961,1605.295a14.01,14.01,0,0,1,1.737,1.125,5.582,5.582,0,0,1,1,1.054C8993,1607.911,8992.392,1605.96,8989.961,1605.295Z" transform="translate(57.726 40.536)" fill="#e3c1ce" fill-rule="evenodd"/>
      <path id="Path_62035" data-name="Path 62035" d="M8989.246,1606.988a3.635,3.635,0,0,0,2.012,1.453A17.941,17.941,0,0,0,8989.246,1606.988Z" transform="translate(57.16 41.873)" fill="#e3c1ce" fill-rule="evenodd"/>
      <path id="Path_62036" data-name="Path 62036" d="M8991.746,1603.426a2.121,2.121,0,0,1,1,1.118C8992.926,1605.233,8992.352,1603.98,8991.746,1603.426Z" transform="translate(59.134 39.061)" fill="#e3c1ce" fill-rule="evenodd"/>
      <path id="Path_62037" data-name="Path 62037" d="M8977.848,1706.364s-6.816,1.185-12.656,2.244-8.918-.974-13.252-1.441,0,.17,0,.17a20.84,20.84,0,0,0,6.816,2.455C8962.522,1710.385,8971.541,1710.512,8977.848,1706.364Z" transform="translate(26.19 120.315)" fill="#5b5474" fill-rule="evenodd"/>
      <path id="Path_62038" data-name="Path 62038" d="M8931.648,1706.565s-.26.16,5.582,1.217,14.978.455,20.324-.413v.17a44.444,44.444,0,0,1-7.207,1.832C8946.581,1709.963,8933.465,1709.371,8931.648,1706.565Z" transform="translate(11.697 120.474)" fill="#5b5474" fill-rule="evenodd"/>
    </g>
    <g id="Group_7707" data-name="Group 7707">
      <line id="Line_1071" data-name="Line 1071" x2="70" transform="translate(887.5 674.366)" fill="none" stroke="#406734" stroke-width="1"/>
      <line id="Line_1072" data-name="Line 1072" x2="47" transform="translate(833.5 669.366)" fill="none" stroke="#406734" stroke-width="1"/>
      <line id="Line_1073" data-name="Line 1073" x2="135.1" transform="translate(1066.5 666.366)" fill="none" stroke="#406734" stroke-width="1"/>
      <line id="Line_1074" data-name="Line 1074" x2="588" transform="translate(714.5 585.366)" fill="none" stroke="#406734" stroke-width="1"/>
      <g id="Group_7666" data-name="Group 7666" transform="translate(-5961.725 -890.374)">
        <path id="Path_61903" data-name="Path 61903" d="M6865.228,1312.393a58.812,58.812,0,0,0-2.544,6.245c.329,1.5-.91,1.839,1.156,3.006,7.387,2.354,24.075,1.583,34.226-4.394,2.428-1.43,3.995-2.869,0-6.7S6865.228,1312.393,6865.228,1312.393Z" transform="translate(191.153 234.223)" fill="#c2d168" fill-rule="evenodd"/>
        <path id="Path_61904" data-name="Path 61904" d="M6862.142,1320.179c.514,1.615,5.292,4.071,9.481,4.394,4,.309,16.8-.042,25.669-4.625,5.653-2.922,5.3-4.72,3.933-8.557-3.221,5.011-14.479,7.686-19.89,8.1s-14.275.991-18.268-3.239A18.523,18.523,0,0,0,6862.142,1320.179Z" transform="translate(190.538 237.075)" fill="#faf8ea" fill-rule="evenodd"/>
        <path id="Path_61905" data-name="Path 61905" d="M6873.878,1311.365s3.372,1.779,2.546,4.392,2.2-4.085-1.157-5.087S6873.878,1311.365,6873.878,1311.365Z" transform="translate(205.164 235.715)" fill="#a0ad4b" fill-rule="evenodd"/>
        <path id="Path_61906" data-name="Path 61906" d="M6876.221,1310.9s4.317.816,4.676,4.579c.026.256-5.376,3.6-5.138,3.514a15.489,15.489,0,0,0,4.856-2.544,11.805,11.805,0,0,0,2.776-2.544s-1.224-4.972-4.164-4.394S6876.221,1310.9,6876.221,1310.9Z" transform="translate(208.373 234.556)" fill="#a0ad4b" fill-rule="evenodd"/>
        <path id="Path_61907" data-name="Path 61907" d="M6888.025,1313.279a58.634,58.634,0,0,0-2.544,6.242c.329,1.5-.91,1.839,1.155,3.008,7.39,2.354,24.076,1.58,34.227-4.394,2.429-1.432,3.995-2.872,0-6.707S6888.025,1313.279,6888.025,1313.279Z" transform="translate(221.024 235.381)" fill="#c2d168" fill-rule="evenodd"/>
        <path id="Path_61908" data-name="Path 61908" d="M6884.938,1321.063c.516,1.615,5.293,4.071,9.482,4.394,4,.31,16.8-.041,25.669-4.625,5.653-2.922,5.3-4.72,3.932-8.557-3.22,5.011-14.479,7.689-19.889,8.1s-14.276.991-18.268-3.239A18.577,18.577,0,0,0,6884.938,1321.063Z" transform="translate(220.41 238.233)" fill="#faf8ea" fill-rule="evenodd"/>
        <path id="Path_61909" data-name="Path 61909" d="M6896.676,1312.249s3.371,1.779,2.546,4.394,2.2-4.087-1.157-5.089S6896.676,1312.249,6896.676,1312.249Z" transform="translate(235.035 236.873)" fill="#a0ad4b" fill-rule="evenodd"/>
        <path id="Path_61910" data-name="Path 61910" d="M6899.018,1311.788s4.316.816,4.676,4.579c.026.256-5.375,3.6-5.138,3.516a15.574,15.574,0,0,0,4.856-2.546,11.8,11.8,0,0,0,2.775-2.544s-1.222-4.972-4.162-4.394S6899.018,1311.788,6899.018,1311.788Z" transform="translate(238.243 235.714)" fill="#a0ad4b" fill-rule="evenodd"/>
        <g id="Group_7660" data-name="Group 7660" transform="translate(6784.688 1299.639)">
          <path id="Path_16771" data-name="Path 16771" d="M6746.143,1203.691s1.724-.381,7.7,7.7a80.514,80.514,0,0,0,14.374,14.375h188s-9.751-8.114-16.426-12.127a35.548,35.548,0,0,1-10.518-9.946Z" transform="translate(-6746.143 -1203.688)" fill="#d7a848"/>
          <g id="Group_5915" data-name="Group 5915" transform="translate(9.176 1.291)" opacity="0.4">
            <path id="Path_16772" data-name="Path 16772" d="M6750.115,1205.375s137.649-1.578,168.486-1C6918.6,1204.373,6759.18,1206.212,6750.115,1205.375Z" transform="translate(-6750.115 -1204.247)" fill="#fff"/>
            <path id="Path_16773" data-name="Path 16773" d="M6752.06,1207.583s137.649-1.578,168.484-1.007C6920.544,1206.576,6761.115,1208.415,6752.06,1207.583Z" transform="translate(-6747.565 -1201.357)" fill="#fff"/>
            <path id="Path_16774" data-name="Path 16774" d="M6920.544,1205.41s-137.649,1.578-168.484,1C6752.06,1206.415,6911.49,1204.576,6920.544,1205.41Z" transform="translate(-6747.565 -1203.006)" fill="#fff"/>
            <path id="Path_16775" data-name="Path 16775" d="M6921.7,1207.927s-137.65,1.58-168.483,1C6753.219,1208.93,6912.647,1207.093,6921.7,1207.927Z" transform="translate(-6746.044 -1199.708)" fill="#fff"/>
            <path id="Path_16776" data-name="Path 16776" d="M6755.368,1211.356s137.65-1.575,168.483-1C6923.852,1210.351,6764.423,1212.19,6755.368,1211.356Z" transform="translate(-6743.229 -1196.409)" fill="#fff"/>
            <path id="Path_16777" data-name="Path 16777" d="M6923.852,1209.186s-137.65,1.564-168.483,1C6755.368,1210.191,6914.8,1208.352,6923.852,1209.186Z" transform="translate(-6743.229 -1198.058)" fill="#fff"/>
            <path id="Path_16778" data-name="Path 16778" d="M6925.011,1211.7s-137.649,1.58-168.483,1C6756.528,1212.708,6915.96,1210.869,6925.011,1211.7Z" transform="translate(-6741.71 -1194.76)" fill="#fff"/>
          </g>
        </g>
        <g id="Group_7661" data-name="Group 7661" transform="translate(7147.023 1315.227)">
          <path id="Path_61911" data-name="Path 61911" d="M6905.613,1210.511s16.151-.423,19.941.716c.692,5.522,2.7,16.708,3.788,19.952-5.977.053-20.9,0-20.9,0Z" transform="translate(-6899.524 -1210.435)" fill="#e43a24" stroke="#fdfdfd" stroke-linecap="round" stroke-linejoin="round" stroke-width="0.295" fill-rule="evenodd"/>
          <path id="Path_61912" data-name="Path 61912" d="M6909.067,1210.468l-6.09,20.669h8.923Z" transform="translate(-6902.977 -1210.391)" fill="#e43a24" stroke="#fdfdfd" stroke-linecap="round" stroke-linejoin="round" stroke-width="0.295" fill-rule="evenodd"/>
        </g>
        <rect id="Rectangle_19401" data-name="Rectangle 19401" width="480.722" height="117.172" transform="translate(6730.963 1358.374)" fill="#729368" stroke="#fdfdfd" stroke-linecap="round" stroke-linejoin="round" stroke-width="2"/>
        <path id="Path_62039" data-name="Path 62039" d="M0,0H509.2V14.379H0Z" transform="translate(6716.725 1335.996)" fill="#729368" stroke="#fdfdfd" stroke-linecap="round" stroke-width="2"/>
        <g id="Group_7665" data-name="Group 7665" transform="translate(6773.231 1130.459)">
          <g id="Group_7664" data-name="Group 7664">
            <g id="Group_7662" data-name="Group 7662">
              <rect id="Rectangle_19403" data-name="Rectangle 19403" width="19.288" height="11.438" transform="translate(190.879 194.276)" fill="#de4528"/>
              <path id="Rectangle_19404" data-name="Rectangle 19404" d="M1.612,0H86.2a1.612,1.612,0,0,1,1.612,1.612V4.754a0,0,0,0,1,0,0H0a0,0,0,0,1,0,0V1.612A1.612,1.612,0,0,1,1.612,0Z" transform="translate(156.716 200.96)" fill="#de4528"/>
              <path id="Path_61913" data-name="Path 61913" d="M6815.539,1316.1a58.673,58.673,0,0,1,2.544,6.242c-.33,1.5.91,1.839-1.154,3.008-7.388,2.354-24.078,1.58-34.228-4.394-2.43-1.432-4-2.869,0-6.707S6815.539,1316.1,6815.539,1316.1Z" transform="translate(-6689.987 -891.382)" fill="#c2d168" fill-rule="evenodd"/>
              <path id="Path_61914" data-name="Path 61914" d="M6819.776,1323.882c-.512,1.615-5.292,4.071-9.481,4.394-4,.309-16.8-.042-25.669-4.626-5.653-2.922-5.295-4.72-3.929-8.555,3.22,5.011,14.477,7.686,19.886,8.093s14.278.991,18.27-3.237A18.352,18.352,0,0,1,6819.776,1323.882Z" transform="translate(-6690.525 -888.529)" fill="#faf8ea" fill-rule="evenodd"/>
              <path id="Path_61915" data-name="Path 61915" d="M6775.253,1310.518s-2.118,12.071.694,22.433a3.239,3.239,0,0,0,3.7,2.775c6.693-1.938,12.817,6.961,11.794,9.481-.818,2.017-14.193,3.752-16.65,1.388-6.164-20.957-21.405-40.77-25.208-46.021,1.1-.815,10.87-7.4,10.87-7.4Z" transform="translate(-6730.178 -917.254)" fill="#c2d168" fill-rule="evenodd"/>
              <path id="Path_61916" data-name="Path 61916" d="M6791.32,1345.035s-17.5,3.221-22.2,0c-4.547-8.742-21.861-37.96-21.74-45.325,1.635-1.837,3.055-1.885,5.087-3.239,1.222-2.479,18.42,23.489,24.977,45.095,1.393,4.588,16.881-.462,16.881-.462a17.711,17.711,0,0,1-1.155,2.544A5.974,5.974,0,0,1,6791.32,1345.035Z" transform="translate(-6733.065 -913.15)" fill="#ada9a7" fill-rule="evenodd"/>
              <path id="Path_61917" data-name="Path 61917" d="M6791.057,1345.035s-13.34,3.452-18.039.231c-4.544-8.742-18.634-40.587-25.436-45.557,1.633-1.837,2.59-1.885,4.623-3.239,1.222-2.479,18.42,23.489,24.977,45.095,1.393,4.588,16.881-.462,16.881-.462a17.651,17.651,0,0,1-1.155,2.544A5.968,5.968,0,0,1,6791.057,1345.035Z" transform="translate(-6732.8 -913.15)" fill="#faf8ea" fill-rule="evenodd"/>
              <path id="Path_61918" data-name="Path 61918" d="M6762.831,1310.992s-1.843,3.094-2.544,2.079S6761.239,1315.382,6762.831,1310.992Z" transform="translate(-6716.369 -893.907)" fill="#a0ad4b" fill-rule="evenodd"/>
              <path id="Path_61919" data-name="Path 61919" d="M6764.437,1327.026s1.693,1.767,9.945.693c4.865-.631,7.011-1.351,6.706-3.468-.242-1.694-.074-2.918-2.311-5.321-2.71-2.906-8.714-4.672-11.566-3.237-.187.095-.037,2.971-.692,5.783-.186.793-1.123,3.436-1.387,4.161-.212.584-7.431-17.81-7.632-17.344-.271.633,3.173,8.539,5.317,13.876A39.307,39.307,0,0,1,6764.437,1327.026Z" transform="translate(-6719.824 -897.454)" fill="#a0ad4b" fill-rule="evenodd"/>
              <path id="Path_61920" data-name="Path 61920" d="M6787.425,1315.068s-3.37,1.781-2.542,4.394-2.2-4.087,1.157-5.087S6787.425,1315.068,6787.425,1315.068Z" transform="translate(-6684.538 -889.89)" fill="#a0ad4b" fill-rule="evenodd"/>
              <path id="Path_61921" data-name="Path 61921" d="M6787.383,1314.607s-4.319.818-4.678,4.579c-.024.256,5.378,3.6,5.14,3.516a15.569,15.569,0,0,1-4.856-2.543,11.884,11.884,0,0,1-2.775-2.544s1.223-4.974,4.161-4.394S6787.383,1314.607,6787.383,1314.607Z" transform="translate(-6690.043 -891.048)" fill="#a0ad4b" fill-rule="evenodd"/>
              <path id="Path_61922" data-name="Path 61922" d="M6811.1,1183.174l103.035,1.564c2.29.058,4.5,1.816,4.567,3.643l2.148,63.69c.072,2.04-1.828,3.7-4.257,3.7H6806.971c-2.622,0-4.646-1.731-4.519-3.854l3.982-65.425C6806.548,1184.6,6808.641,1183.114,6811.1,1183.174Z" transform="translate(-6660.91 -1061.389)" fill="#de4528" fill-rule="evenodd"/>
              <path id="Path_61923" data-name="Path 61923" d="M6811.835,1184.8l97.851,1.4c2.172.051,4.27,1.629,4.337,3.271l2.038,57.208c.073,1.834-1.738,3.324-4.038,3.324h-104.11c-2.488,0-4.41-1.55-4.288-3.463l3.777-58.765C6807.513,1186.074,6809.5,1184.74,6811.835,1184.8Z" transform="translate(-6659.373 -1059.263)" fill="#e8f1d2" fill-rule="evenodd"/>
              <rect id="Rectangle_19405" data-name="Rectangle 19405" width="17.319" height="6.363" rx="0.828" transform="translate(154.312 129.832)" fill="#378e87"/>
              <rect id="Rectangle_19406" data-name="Rectangle 19406" width="17.319" height="6.363" rx="0.828" transform="translate(174.197 129.832)" fill="#378e87"/>
              <rect id="Rectangle_19407" data-name="Rectangle 19407" width="17.319" height="6.363" rx="0.828" transform="translate(194.083 129.832)" fill="#378e87"/>
              <rect id="Rectangle_19408" data-name="Rectangle 19408" width="17.319" height="6.363" rx="0.828" transform="translate(213.97 129.832)" fill="#378e87"/>
              <rect id="Rectangle_19409" data-name="Rectangle 19409" width="17.319" height="6.363" rx="0.828" transform="translate(233.856 129.832)" fill="#378e87"/>
              <rect id="Rectangle_19410" data-name="Rectangle 19410" width="17.319" height="47.654" rx="1.033" transform="translate(154.312 137.893)" fill="#fdfdfd"/>
              <rect id="Rectangle_19411" data-name="Rectangle 19411" width="17.319" height="47.654" rx="1.033" transform="translate(174.197 137.893)" fill="#fdfdfd"/>
              <rect id="Rectangle_19412" data-name="Rectangle 19412" width="17.319" height="47.654" rx="1.033" transform="translate(194.083 137.893)" fill="#fdfdfd"/>
              <rect id="Rectangle_19413" data-name="Rectangle 19413" width="17.319" height="47.654" rx="1.033" transform="translate(213.97 137.893)" fill="#fdfdfd"/>
              <rect id="Rectangle_19414" data-name="Rectangle 19414" width="17.319" height="47.654" rx="1.033" transform="translate(233.856 137.893)" fill="#fdfdfd"/>
              <rect id="Rectangle_19415" data-name="Rectangle 19415" width="16.053" height="6.363" rx="0.798" transform="translate(154.945 139.271)" fill="#fbe68e"/>
              <rect id="Rectangle_19416" data-name="Rectangle 19416" width="16.053" height="6.363" rx="0.798" transform="translate(214.603 139.271)" fill="#fbe68e"/>
              <rect id="Rectangle_19417" data-name="Rectangle 19417" width="16.053" height="6.363" rx="0.798" transform="translate(194.716 139.271)" fill="#fbe68e"/>
              <rect id="Rectangle_19418" data-name="Rectangle 19418" width="16.053" height="6.363" rx="0.798" transform="translate(154.945 154.157)" fill="#fbe68e"/>
              <rect id="Rectangle_19419" data-name="Rectangle 19419" width="16.053" height="6.363" rx="0.798" transform="translate(234.488 154.157)" fill="#fbe68e"/>
              <rect id="Rectangle_19420" data-name="Rectangle 19420" width="16.053" height="6.363" rx="0.798" transform="translate(174.83 146.589)" fill="#fbe68e"/>
              <rect id="Rectangle_19421" data-name="Rectangle 19421" width="16.053" height="6.363" rx="0.798" transform="translate(234.488 146.589)" fill="#fbe68e"/>
              <rect id="Rectangle_19422" data-name="Rectangle 19422" width="16.053" height="6.363" rx="0.798" transform="translate(214.603 146.589)" fill="#fbe68e"/>
              <rect id="Rectangle_19423" data-name="Rectangle 19423" width="16.053" height="6.363" rx="0.798" transform="translate(154.945 161.44)" fill="#fbe68e"/>
              <rect id="Rectangle_19424" data-name="Rectangle 19424" width="16.053" height="6.363" rx="0.798" transform="translate(154.945 176.075)" fill="#fbe68e"/>
              <rect id="Rectangle_19425" data-name="Rectangle 19425" width="16.053" height="6.363" rx="0.798" transform="translate(174.83 161.44)" fill="#fbe68e"/>
              <rect id="Rectangle_19426" data-name="Rectangle 19426" width="16.053" height="6.363" rx="0.798" transform="translate(174.83 176.075)" fill="#fbe68e"/>
              <rect id="Rectangle_19427" data-name="Rectangle 19427" width="16.053" height="6.363" rx="0.798" transform="translate(194.716 161.44)" fill="#fbe68e"/>
              <rect id="Rectangle_19428" data-name="Rectangle 19428" width="16.053" height="6.363" rx="0.798" transform="translate(214.603 161.44)" fill="#fbe68e"/>
              <rect id="Rectangle_19429" data-name="Rectangle 19429" width="16.053" height="6.363" rx="0.798" transform="translate(194.716 168.758)" fill="#fbe68e"/>
              <rect id="Rectangle_19430" data-name="Rectangle 19430" width="16.053" height="6.363" rx="0.798" transform="translate(234.488 168.758)" fill="#fbe68e"/>
              <rect id="Rectangle_19431" data-name="Rectangle 19431" width="16.053" height="6.363" rx="0.798" transform="translate(194.716 176.075)" fill="#fbe68e"/>
              <rect id="Rectangle_19432" data-name="Rectangle 19432" width="16.053" height="6.363" rx="0.798" transform="translate(214.603 176.075)" fill="#fbe68e"/>
              <path id="Path_61924" data-name="Path 61924" d="M6843.119,1234.315s1.358,19.931,2.313,28.676c.723,6.633,8.013,56.6,10.175,82.79.693,8.4-5.355,12.72-8.093,15.264-1.71,1.587-2.595,2.592-4.855,4.626,11.007,51.3,24.126,74.37,23.817,75.62-.163.668-14.787,14.3-50.646-.231a2.468,2.468,0,0,1-1.616-1.851c-1.01-21.183-2.9-31.787-4.164-47.869-.03-2.641-21.374,32.894-25.437,40.469a119.108,119.108,0,0,0-14.338-22.664c-7.456-9.357-16.393-18.942-19.891-18.963.352-1.74,40.719-36.854,50.185-43.475-3.638-22.445-9.574-77.85-11.331-84.178-8.421-30.323,2.949-44.281,8.092-47.641S6843.119,1234.315,6843.119,1234.315Z" transform="translate(-6729.13 -1020.275)" fill="#734e63" fill-rule="evenodd"/>
              <path id="Path_61925" data-name="Path 61925" d="M6771.3,1232.214a45.919,45.919,0,0,0,12.72,6.707c5.606,1.881,12.083,2.158,16.651,3.006a18.708,18.708,0,0,1,5.78,2.082,15.755,15.755,0,0,0-5.78-1.157C6792.037,1242.687,6776.309,1240.533,6771.3,1232.214Z" transform="translate(-6701.716 -997.129)" fill="#553b47" fill-rule="evenodd"/>
              <path id="Path_61926" data-name="Path 61926" d="M6804.725,1337.2l-17.808-70.533s-7.427-27.081-5.549-29.371c1.234-1.5-1.85-1.158-1.85-1.158s-.331,5.286,3,18.734S6804.725,1337.2,6804.725,1337.2Z" transform="translate(-6690.966 -992.035)" fill="#553b47" fill-rule="evenodd"/>
              <path id="Path_61927" data-name="Path 61927" d="M6772.468,1271.553l9.251,44.864-.927.925-8.788-45.1Z" transform="translate(-6700.798 -945.584)" fill="#553b47" fill-rule="evenodd"/>
              <path id="Path_61928" data-name="Path 61928" d="M6780.148,1237.534s6.181,6.861,7.4,6.67S6781.78,1237.638,6780.148,1237.534Z" transform="translate(-6690.128 -990.159)" fill="#553b47" fill-rule="evenodd"/>
              <path id="Path_61929" data-name="Path 61929" d="M6780.657,1325.1c-1.047-1.5-8.377-24.034-23.666-38.333,2.547,5.429,7.9,9.9,13.41,19.887C6774.724,1314.48,6782.257,1327.39,6780.657,1325.1Z" transform="translate(-6720.472 -925.648)" fill="#553b47" fill-rule="evenodd"/>
              <path id="Path_61930" data-name="Path 61930" d="M6778.111,1310.452s27.026,7.68,39.08,3.47c5.012-1.749,6.375-5.838,6.014-6.245-1.092-1.231-2,5.115-10.174,6.014C6801.921,1314.911,6778.111,1310.452,6778.111,1310.452Z" transform="translate(-6692.797 -898.457)" fill="#553b47" fill-rule="evenodd"/>
              <path id="Path_61931" data-name="Path 61931" d="M6784.707,1332.9s-5.418-3.539-11.1-12.025c-.5-.746.979-5.711.461-6.474-4.183-6.18-10.042-12.425-14.337-17.115-.837-.915-3.092,1.578-4.594,2.444-3.848-5.066-5.965-8.929-4.193-9.151,1.464-.185,4.392,2.347,8.324,6.245C6768.689,1306.157,6781.095,1322.667,6784.707,1332.9Z" transform="translate(-6729.225 -920.67)" fill="#553b47" fill-rule="evenodd"/>
              <path id="Path_61932" data-name="Path 61932" d="M6818.806,1232.124s-1.412,5.027-2.544,9.25c-1.3-.621-14.321-8.661-45.559-20.12a75.321,75.321,0,0,0,2.313-11.563Z" transform="translate(-6702.503 -1026.641)" fill="#443228" fill-rule="evenodd"/>
              <path id="Path_61933" data-name="Path 61933" d="M6752.386,1205.887s34.314-18.882,41.627-22.2a41.931,41.931,0,0,1,7.631-3.008c6.155-1.322,14.175-2.1,20.121-2.775.284-2.13,1.43-3.167,4.163-3.237,13.908-.351,21.969,4.163,21.969,4.163s3.516,2.481,3.7,5.087a88.134,88.134,0,0,1,22.43,10.175c9.394,5.919,9.383,56.87,10.639,58.278s-13.938,11.533-30.064,5.551c-1.614,1.828-5.924,9.606-12.255,22.431-4.633-3.327-12.01-6.633-20.814-11.1a144.588,144.588,0,0,0-24.977-9.713s-1.282-27.675-.231-38.852c-4.491,1.493-17.111,10.408-17.111,10.408s-3.919-11.016-10.408-17.113C6761.9,1207.488,6752.386,1205.887,6752.386,1205.887Z" transform="translate(-6726.507 -1072.557)" fill="#c2d168" fill-rule="evenodd"/>
              <path id="Path_61934" data-name="Path 61934" d="M6797.53,1211.27s12.406,4.24,26.792-5.2C6827.694,1203.856,6810.243,1218.5,6797.53,1211.27Z" transform="translate(-6667.353 -1031.688)" fill="#a0ad4b" fill-rule="evenodd"/>
              <path id="Path_61935" data-name="Path 61935" d="M6756.09,1186.4s12.418-4.4,22.2,25.439C6772.664,1197.113,6764.779,1186.936,6756.09,1186.4Z" transform="translate(-6721.653 -1057.462)" fill="#a0ad4b" fill-rule="evenodd"/>
              <path id="Path_61936" data-name="Path 61936" d="M6809.642,1189.8s-1.64,28.054-13.409,49.184C6795.823,1239.9,6816.386,1213.926,6809.642,1189.8Z" transform="translate(-6669.06 -1052.699)" fill="#a0ad4b" fill-rule="evenodd"/>
              <path id="Path_61937" data-name="Path 61937" d="M6769.207,1190.511s4.318,7.906,5.343,7.2S6772.159,1195.354,6769.207,1190.511Z" transform="translate(-6704.466 -1051.773)" fill="#a0ad4b" fill-rule="evenodd"/>
              <path id="Path_61938" data-name="Path 61938" d="M6812.271,1181.751c.047,0-11.168-4.08-18.27-4.625-5.359-.411-7.185-1.25-10.871-.926-2.367.208,1.049.213,9.481,1.62,9.125,1.522,11.458,2.008,14.338,3.006C6812.421,1182.721,6811.888,1181.7,6812.271,1181.751Z" transform="translate(-6687.18 -1070.62)" fill="#a0ad4b" fill-rule="evenodd"/>
              <path id="Path_61939" data-name="Path 61939" d="M6774.774,1185.468s-3.071,23.5-3.467,30.526C6770.987,1221.608,6770.617,1196.754,6774.774,1185.468Z" transform="translate(-6701.949 -1058.381)" fill="#a0ad4b" fill-rule="evenodd"/>
              <path id="Path_61940" data-name="Path 61940" d="M6826.332,1212.275s-8.051,5.8-17.116,5.78c-5.414-.012-8.854.383-12.486-1.386.116,3.041,8.361,36.935,8.789,38.157a14.015,14.015,0,0,0,9.943,9.25c7.3,2.01,17.184-2.479,23.356-10.87,4.034-5.478,6.937-14.705,9.481-22.2a2.07,2.07,0,0,1,2.545-1.155c3.326,1.379,6.634-2.271,6.938-4.394.224-1.568-2.3-4.239-3.93-5.318.887.8,2.128.982,2.313.231.719-2.941-2.715-5.559-6.014-6.938-.353-.148-.39-.229-.231-.462,1.075-1.148,3.821-2.052,4.856-3.005,1.084-1,.186-2.551-.462-3.239-.917-.97-3.652-.7-6.476.462a29.487,29.487,0,0,0-6.937,6.245c-4.825,5.621-8.545,11.6-9.481,12.256-.86.6-2.109,3.4-3.239-3.005C6827.8,1220.522,6826.332,1212.275,6826.332,1212.275Z" transform="translate(-6668.402 -1031.304)" fill="#faf8ea" fill-rule="evenodd"/>
              <path id="Path_61941" data-name="Path 61941" d="M6810.634,1214.988c-1.1-4.4,3.951,6.157.692,11.794,0,0,.34-7.661-.692-11.794Zm20.668,4.688a23,23,0,0,0,3.382-1.451,24.3,24.3,0,0,0,2.313-1.386C6835.864,1219.371,6830.935,1219.722,6831.3,1219.676Z" transform="translate(-6650.392 -1021.068)" fill="#ebe7c8" fill-rule="evenodd"/>
              <path id="Path_61942" data-name="Path 61942" d="M6793.891,1213.056c-.479-.989-11.69-29.006-27.521-24.281-14.059,7.883-20.687,13.314-24.051,16.651-1.4,1.386-1.783,2.643.462,6.242,2.928,6.434,9.742,16.9,18.5,26.132,6.971,7.351,15.708,13.822,20.814,17.576a49.548,49.548,0,0,1,9.944,9.019,11.693,11.693,0,0,1,.462,8.789,3.012,3.012,0,0,0,.695,3.237c.469.458,2.394,2.606,5.087,2.313.234-1.183-.094-2.929.463-4.394,1.956-.707,8.058-5.554,6.707-9.944-.25-.411.325-1.4.692-1.85,2.968-3.652,3.9-5.924,2.894-9.094-.865-2.708,1.01-4.78.577-5.937-2.255-6.051-4.025-3.9-3.932-1.85.081,1.79-.463,1.85-.463,1.85a6.206,6.206,0,0,0-2.081,1.386c-.518.513.143,1.017-.7,2.544-1.779,3.246-2.874-.926-5.55-5.781-2.56-4.644-1.7-18.466-10.175-27.52C6791.4,1214.963,6794.369,1214.046,6793.891,1213.056Z" transform="translate(-6741.183 -1054.75)" fill="#faf8ea" fill-rule="evenodd"/>
              <path id="Path_61943" data-name="Path 61943" d="M6759.265,1204.838c2.559-1.314,9.018-4.856,9.018-4.856-3.185,3.119-11.581,6.171-9.018,4.856Zm20.348,36.771c.5-1.883-2.311-4.625-2.311-4.625,3.947.866,3.4,7.7.463,8.555-.335.1,1.283-1.793,1.848-3.93Zm.927,6.938a10.124,10.124,0,0,0,2.313-.926l1.618-2.544s-4.416,3.445-3.931,3.47Zm114.935-27.521s1.826-1.326,5.087.693c4.715,2.918-2.216-1.266-5.087-.693Zm8.327,7.631c-1.091-.751-4.626-.693-4.626-.693C6904.446,1226.781,6905.169,1229.6,6903.8,1228.657Z" transform="translate(-6718.121 -1039.363)" fill="#ebe7c8" fill-rule="evenodd"/>
              <path id="Path_61944" data-name="Path 61944" d="M6813.246,1221.468s2.266-2.5,5.09-6.011c3.566-4.438,9.049-9.195,12.486-8.557,2.864.531,2.733,2.077,2.081,3.008-.1.141-1.52.806-2.543,1.617a23.618,23.618,0,0,0-2.082,1.85c-.577.582.608-.481,2.082-1.62a28.922,28.922,0,0,1,2.543-1.386,2.312,2.312,0,0,0-.231-3.7c-3.962-2.853-11.341,4.2-12.72,6.014C6818.458,1214.644,6813.246,1221.468,6813.246,1221.468Z" transform="translate(-6646.761 -1031.481)" fill="#ebe7c8" fill-rule="evenodd"/>
              <path id="Path_61945" data-name="Path 61945" d="M6806.086,1218.431s-10.754-5.253-21.968-4.163c.264-1.85,6.829-37.575,6.241-40.007-.258-1.076-6.369-3.534,0-13.876a1.532,1.532,0,0,1,1.852-.462c.08-1.83,1.619-15.5,1.619-15.5l41.627,6.476-3.239,11.563s8.444-1.536,2.776,12.025c-3.12,4.179-5.659,4.782-6.94,3.93-.1,2.206-2.138,11.706-5.78,18.965s-11.71,4.993-14.106,5.087C6806.837,1206.734,6806.449,1214.233,6806.086,1218.431Z" transform="translate(-6684.928 -1112.156)" fill="#faf8ea" fill-rule="evenodd"/>
              <path id="Path_61946" data-name="Path 61946" d="M6796.147,1165.648c-.317,4.99.755,12.855,12.949,3.237.825-.649-2.6,5.238-6.013,5.783a52.44,52.44,0,0,1-8.556.462S6795.215,1174.067,6796.147,1165.648Z" transform="translate(-6671.287 -1084.351)" fill="#ebe7c8" fill-rule="evenodd"/>
              <path id="Path_61947" data-name="Path 61947" d="M6806.648,1153.166s-2.466,1.767-2.774,4.163.415-3.828,2.774-5.087c1.207-.645,2.959.589,2.313.462A3.383,3.383,0,0,0,6806.648,1153.166Z" transform="translate(-6659.127 -1102.163)" fill="#efbccf" fill-rule="evenodd"/>
              <path id="Path_61948" data-name="Path 61948" d="M6820.853,1209.792s4.51,3.279,3.468,5.78c-.664,1.6-2.08-.231-2.08-.231s1.379,1.6,2.08,1.389c.6-.183.539-2.137.464-2.544A9.074,9.074,0,0,0,6820.853,1209.792Z" transform="translate(-6636.792 -1026.509)" fill="#ebe7c8" fill-rule="evenodd"/>
              <path id="Path_61949" data-name="Path 61949" d="M6823.956,1212.494s4.129,3.643,2.313,6.476a6.413,6.413,0,0,1-4.625,3.006s-1.481-.379-1.388-.693.043.878.926.924a6.3,6.3,0,0,0,5.781-4.161C6827.785,1215.47,6824.212,1212.494,6823.956,1212.494Z" transform="translate(-6637.583 -1022.968)" fill="#ebe7c8" fill-rule="evenodd"/>
              <path id="Path_61950" data-name="Path 61950" d="M6788.893,1150.833s-1.414,16.828-2.081,18.5S6787.652,1156.535,6788.893,1150.833Z" transform="translate(-6681.611 -1103.763)" fill="#efbccf" fill-rule="evenodd"/>
              <path id="Path_61951" data-name="Path 61951" d="M6804.176,1157.64s-.608,5.88-1.158,6.707S6803.583,1158.474,6804.176,1157.64Z" transform="translate(-6660.353 -1094.844)" fill="#efbccf" fill-rule="evenodd"/>
              <path id="Path_61952" data-name="Path 61952" d="M6792.761,1151.4c3.625-1.285,11.059-.922,12.486-1.155-.647-.767-7.146-5.471-2.9-14.114,4.219-8.585,28.288-5.378,31.113-3.463,4.1,2.777,7.129,5.228,7.63,14.338a18.539,18.539,0,0,1-10.174,17.808c.289,1.146,2.162,4.237,0,6.938-1.459,2.208-6.246,7.4-6.246,7.4s-23.271,27.393-31.219,23.819c-4.884-2.195-5.489-30.519-5.317-35.151C6788.512,1157.531,6790.552,1152.181,6792.761,1151.4Z" transform="translate(-6679.695 -1130.459)" fill="#7e4e31" fill-rule="evenodd"/>
              <path id="Path_61953" data-name="Path 61953" d="M6796.13,1140.831s7.361.869,14.107,2.082c1.62.294,4.545,2.5,5.549,3.7.723.866,2.058,2.144,2.543,2.081,2.894-.374,3.838-1.289,4.164-6.014-.388-3.137-3.283-5.57-3.283-5.57s6.175,4.944,3.745,10.2c-1.356,2.929-3.96,3.743-5.318,2.544.69.61-3.565-4.545-6.014-5.78C6806.506,1141.484,6799.1,1142.975,6796.13,1140.831Z" transform="translate(-6669.188 -1121.743)" fill="#463329" fill-rule="evenodd"/>
              <path id="Path_61954" data-name="Path 61954" d="M6806.5,1146.078s.278-3.579-.923-3.932S6806.1,1144.112,6806.5,1146.078Z" transform="translate(-6657.359 -1115.193)" fill="#463329" fill-rule="evenodd"/>
            </g>
            <g id="Group_7663" data-name="Group 7663" transform="translate(253.781 50.31)">
              <path id="Path_61955" data-name="Path 61955" d="M6922.226,1226.249s-4.076,30.193-23.771,23.108-8.68-16.472-8.68-16.879,1.577-8.026,2.624-8.3,6.217-2.04,6.76-2.04S6922.226,1226.249,6922.226,1226.249Z" transform="translate(-6804.287 -1060.64)" fill="#faf8ea" fill-rule="evenodd"/>
              <path id="Path_61956" data-name="Path 61956" d="M6860.906,1289.957c.071,1.164,3.55,23.72,9.274,34.479,1.953,6.531.677,32.094,5.25,30.8-.118.157-.083-.871.352-.524.5.4.764.945,1.224,1.224.679.411,1.087.561,2.277-1.224.413-.619-.174.6.7.875.855.264,1.7-.954,2.276-2.276,11.63-26.515,12.044-103.679,4.9-102.21-3.091-4.5,1.142-22.84.876-26.776s-14.386-9.7-20.148-3.789c-.663,4.533-4.064,17.787-4,23.741.016,1.8-.4,6.09-1.052,7.351C6856.749,1265.835,6860.906,1289.957,6860.906,1289.957Z" transform="translate(-6839.908 -1066.059)" fill="#faf8ea" fill-rule="evenodd"/>
              <path id="Path_61957" data-name="Path 61957" d="M6885.984,1228.2s-13.314,10.491-17.328,25.9-2.774,51.866,2.1,68.255c4.076,13.7,5.076,37.8,5.076,37.8s-11.5,53.058-13.781,63.358c0,0,8.248,5.974,13.6,6.032,5.755.06,29.039-6.032,29.039-6.032-.278-11.769-4.014-136.606-3.486-143.691.263-.714,1.892,1.585,2.407,2.9,2.943,7.522,9.53,34.643,14.393,58.182,3.375,16.329-5.344,76.263-4.852,84.266a.711.711,0,0,0,.724.654,57.411,57.411,0,0,0,25.559,3.722c4.915-.5,19.4-3.722,19.4-3.722-2.294-14.222-13.008-77.734-14.228-87.371-.828-6.547-3.081-45.125-3.5-50.579s-2.622-33.317-15.4-47.955c-3.46-3.209,3.2-12.864,1.431-15.7C6925.777,1222.037,6885.984,1228.2,6885.984,1228.2Z" transform="translate(-6836.586 -1058.523)" fill="#734e63" fill-rule="evenodd"/>
              <path id="Path_61958" data-name="Path 61958" d="M6912.874,1234.728c.514.723-1.328,3.05-5.425,4.2-8.7,2.447-24.965,3.167-35.877-9.625-4.24-4.972,8.99,12.028,30.979,9.276C6912.093,1237.384,6912.361,1234.007,6912.874,1234.728Z" transform="translate(-6825.149 -1052.455)" fill="#553b47" fill-rule="evenodd"/>
              <path id="Path_61959" data-name="Path 61959" d="M6923.122,1225.64s3.59,8.957-6.677,8.964c-.307-.049-4.525,2-8.3,1.895-2.195-.772-21.288-18.882-25.728-21.382-.9,1.894-5.239,4.237-6.7,3.426-.9-.494-5.291,4.983-8.3,2.266-.441-.4,1.036-1.183,1.408-2.491.635-2.223.463-5.281-.306-5.843-2.247-1.64-1.1-4.142.571-7.28-2.709-1.811-12.128-.677-13.935-1.98-2.694-1.943-1.037-3.932-.731-3.99a47.338,47.338,0,0,1,16.552.014c9.855,1.643,15.564,2.971,24.859,9.024C6907.462,1215.826,6923.122,1225.64,6923.122,1225.64Z" transform="translate(-6847.627 -1091.615)" fill="#faf8ea" fill-rule="evenodd"/>
              <path id="Path_61960" data-name="Path 61960" d="M6868.245,1201.8a20.879,20.879,0,0,0-4.392,2.867,22.272,22.272,0,0,0-3.583,4.288C6859.237,1210.566,6863.5,1201.454,6868.245,1201.8Z" transform="translate(-6839.128 -1087.302)" fill="#ebe7c8" fill-rule="evenodd"/>
              <path id="Path_61961" data-name="Path 61961" d="M6866.089,1204.716s.125.352.258.9c.355,1.493,1.576,3.983-.585,5.487a13.2,13.2,0,0,1-5.221,2.4C6860.137,1213.615,6866.624,1212.345,6866.089,1204.716Z" transform="translate(-6838.595 -1083.47)" fill="#ebe7c8" fill-rule="evenodd"/>
              <path id="Path_61962" data-name="Path 61962" d="M6870.519,1205.429s-4.637,3.509-7.287,2.068C6861.71,1206.667,6868.743,1207.467,6870.519,1205.429Z" transform="translate(-6835.326 -1082.535)" fill="#ebe7c8" fill-rule="evenodd"/>
              <path id="Path_61963" data-name="Path 61963" d="M6862.8,1209.361s4.992.529,7.375-3.243S6868.007,1213.39,6862.8,1209.361Z" transform="translate(-6835.611 -1082.679)" fill="#ebe7c8" fill-rule="evenodd"/>
              <path id="Path_61964" data-name="Path 61964" d="M6874.876,1204.382s-6.722,1.95-11.038,1.749C6859.465,1205.926,6872.515,1209.06,6874.876,1204.382Z" transform="translate(-6835.417 -1083.907)" fill="#ebe7c8" fill-rule="evenodd"/>
              <path id="Path_61965" data-name="Path 61965" d="M6858.9,1200.9a40.659,40.659,0,0,1,5.026.908,12.805,12.805,0,0,1,3.888,1.555,38.034,38.034,0,0,1-5.856-1.379A30.043,30.043,0,0,0,6858.9,1200.9Z" transform="translate(-6840.726 -1088.467)" fill="#ebe7c8" fill-rule="evenodd"/>
              <path id="Path_61966" data-name="Path 61966" d="M6861.935,1246.668a204,204,0,0,1,6.23-23.526c2.374-6.587,7.21-8.643,21.876-16.1,2.038-1.474,13.173-3.821,21.174.594,9.765,5.388,3.528-6.464,7.617.34,1.1,1.479,5.864-6.007,5.864-6.007s3.695,2.438,12.6,7c12.387,6.347,13.695,11,15.575,14.7,2.021,3.976,4.025,27.652,4.025,27.652a19.1,19.1,0,0,1-9.625,3.5c-5.967.275-14.351-1.927-14.351-1.927l.174-1.576a18.522,18.522,0,0,1-5.252,6.827c-5.534,4.665-22.748,11.51-44.236,1.308a13.664,13.664,0,0,1-7.236-8.991h0S6867.449,1251.779,6861.935,1246.668Z" transform="translate(-6836.745 -1087.073)" fill="#c4d368" fill-rule="evenodd"/>
              <path id="Path_61967" data-name="Path 61967" d="M6893.274,1223.279s9.929,5.224,22.636-2.391c-7.458,2.648-10.948,3.447-17.491,2.883C6896.116,1223.573,6893.854,1223.224,6893.274,1223.279Z" transform="translate(-6795.682 -1062.28)" fill="#9eac4c" fill-rule="evenodd"/>
              <path id="Path_61968" data-name="Path 61968" d="M6896.531,1212.7c-.023-1.649.779,17.967-3.851,25.2C6892.22,1238.622,6896.667,1222.773,6896.531,1212.7Z" transform="translate(-6796.504 -1073.133)" fill="#9eac4c" fill-rule="evenodd"/>
              <path id="Path_61969" data-name="Path 61969" d="M6894.175,1218.947s3.223-3.558,2.8-4.9S6896.767,1215.653,6894.175,1218.947Z" transform="translate(-6794.499 -1071.677)" fill="#9eac4c" fill-rule="evenodd"/>
              <path id="Path_61970" data-name="Path 61970" d="M6868.311,1213.859a81.035,81.035,0,0,0-.7,13.127c.272,7.086,2.947,11.681,2.8,11.025C6868.929,1231.44,6868.6,1236.089,6868.311,1213.859Z" transform="translate(-6829.365 -1071.489)" fill="#9eac4c" fill-rule="evenodd"/>
              <path id="Path_61971" data-name="Path 61971" d="M6866.525,1213.783s2.228,6.222,2.976,5.952S6867.674,1222.132,6866.525,1213.783Z" transform="translate(-6830.729 -1071.589)" fill="#9eac4c" fill-rule="evenodd"/>
              <path id="Path_61972" data-name="Path 61972" d="M6875.251,1223.025s-3.356,1.938-12.084-2.128c-1.958-.912.95,2.789,8.82,3.059A8.642,8.642,0,0,0,6875.251,1223.025Z" transform="translate(-6835.904 -1062.457)" fill="#9eac4c" fill-rule="evenodd"/>
              <path id="Path_61973" data-name="Path 61973" d="M6902.846,1245.951s-9.045,5.237-14.688,3.6-9.929-2.243-15.234-.816,7.753-.815,14.961,1.7S6902.234,1248.2,6902.846,1245.951Z" transform="translate(-6823.965 -1029.439)" fill="#553b47" fill-rule="evenodd"/>
              <path id="Path_61974" data-name="Path 61974" d="M6884.675,1248.533s-2.145,2.684-10.669,4.091C6874.005,1252.624,6880.588,1248.984,6884.675,1248.533Z" transform="translate(-6820.928 -1026.056)" fill="#553b47" fill-rule="evenodd"/>
              <path id="Path_61975" data-name="Path 61975" d="M6897.41,1193.625s.827,9.216,3.238,14.107a38.947,38.947,0,0,0,6.474,9.248l-30.26,1.779s3.783-3.646,3.9-8.484c.137-5.667-3.239-12.72-3.239-12.72S6893.507,1191.606,6897.41,1193.625Z" transform="translate(-6817.185 -1098.55)" fill="#faf8ea" fill-rule="evenodd"/>
              <path id="Path_61976" data-name="Path 61976" d="M6886.978,1205.581s.419-2.123,4.325-3.091c4.332-1.072,19.887-3.613,22.1-2.01a7.818,7.818,0,0,1,2.887,4.251c-1.084-.522,22.4,8.892,26.719,18.855,2.158,4.147-4.858,0-4.858,0s-7.022-2.747-10.686-2.708c-5.5-.208-18.9-2.2-26.888-5.408s-32.142,1.032-32.142,1.032S6877.583,1211.528,6886.978,1205.581Z" transform="translate(-6828.227 -1089.697)" fill="#c4d368" fill-rule="evenodd"/>
              <path id="Path_61977" data-name="Path 61977" d="M6876.461,1205.581s.419-2.123,4.325-3.091c4.332-1.072,19.887-3.613,22.1-2.01a7.95,7.95,0,0,1,2.936,4.018c-5.024.3-12.6.739-17,.464C6885.511,1204.754,6879.984,1205.339,6876.461,1205.581Z" transform="translate(-6817.71 -1089.697)" fill="#9eac4c" fill-rule="evenodd"/>
              <path id="Path_61978" data-name="Path 61978" d="M6890.463,1226.854s4.319,1.717,5.338,4.3c0,0-.685-4.63-4.22-5.307Z" transform="translate(-6799.363 -1055.781)" fill="#ebe7c8" fill-rule="evenodd"/>
              <path id="Path_61979" data-name="Path 61979" d="M6892.405,1218.3s-19.827,6.522-24.818-8.054c-2.756-8.037,3.7-29.262,3.7-29.262s16.251,1.224,18.626,1.361,15.13,3.944,15.13,3.944l-1.377,21.627Z" transform="translate(-6830.234 -1114.56)" fill="#faf8ea" fill-rule="evenodd"/>
              <path id="Path_61980" data-name="Path 61980" d="M6922.156,1233.258a154.524,154.524,0,0,0,30.334-5.949l-.293-15.812L6957.13,1226l15.529-5.221-2.322-8.414,5.8,7.543s13.178-16.045,6.391-36.415c-5.478-16.445-14.3-15.509-23.074-17.117s-66.361-2.426-80.986,1.451c-10.476,2.777-20,7.356-24.959,20.31-4.754,12.395-3.8,28.475,12.912,36.993,1.939-4.75,4.5-14.361,4.5-14.361l.726,16.974S6899.8,1235.037,6922.156,1233.258Z" transform="translate(-6851.031 -1135.457)" fill="#7e4d31" fill-rule="evenodd"/>
              <path id="Path_61981" data-name="Path 61981" d="M6922.156,1222.8a154.519,154.519,0,0,0,30.334-5.949l-.293-15.812,4.933,14.506,15.529-5.221-2.322-8.414,5.8,7.543s13.178-16.045,6.391-36.415c-.245-.716,2.419,23.955-5.081,29.886-2.668,2.109-5.272,1.206-7.544-2.467-2.072-3.341,1.6,4.891-.725,7.689-2.286,2.742-6.883,4.179-10.02,4.064-3.585-.132-4.015-8.033-7.839-13.058-1.387-1.827-1.422,13.171-4.062,15.234-6.651,2.158-21.481,5.064-40.339,5.8-7.378.286-25.641-.767-31.209-4.644-5.227-3.643-2.945-4.856-4.356-16.248-1.816-.878-5.882,10.727-7.255,10.881-21.065-10.778-5.626-45.45-10.59-32.5-4.754,12.395-3.8,28.475,12.912,36.993,1.939-4.75,4.5-14.361,4.5-14.361l.726,16.974S6899.8,1224.578,6922.156,1222.8Z" transform="translate(-6851.031 -1124.998)" fill="#4b3328" fill-rule="evenodd"/>
              <path id="Path_61982" data-name="Path 61982" d="M6883.812,1177.644s-12.045-3.232-12.045-13.056c0-9.283,9.749-12.667,16.106-12.33,5.4.284,21.758-.908,22.066,15.232-1.123,9.888-9.115,10.535-11.18,10.445A118.835,118.835,0,0,0,6883.812,1177.644Z" transform="translate(-6823.862 -1152.235)" fill="#7e4d31" fill-rule="evenodd"/>
              <path id="Path_61983" data-name="Path 61983" d="M6883.911,1172.733s-13.919-4.057-12.045-14.506c1.29-7.194.191,4.884,4.931,8.705,4.684,3.766,14.016,5.286,24.966,2.611,9.136-1.349,7.994-16.323,8.276-7.98-.329,10.627-9.071,11.51-11.18,11.461A127.7,127.7,0,0,0,6883.911,1172.733Z" transform="translate(-6823.96 -1147.324)" fill="#4b3328" fill-rule="evenodd"/>
              <path id="Path_61984" data-name="Path 61984" d="M6878.9,1174.827s-6.776-16.11,3.193-20.6c4.78-2.153-1.777-.467-4.792,3.336C6874.037,1161.693,6873.535,1169.146,6878.9,1174.827Z" transform="translate(-6819.821 -1150.867)" fill="#4b3328" fill-rule="evenodd"/>
              <path id="Path_61985" data-name="Path 61985" d="M6880.787,1172.54s-3.754-11.283,4.643-15.377-1.937-.679-3.772,1.451S6877.335,1166.933,6880.787,1172.54Z" transform="translate(-6814.304 -1148.291)" fill="#4b3328" fill-rule="evenodd"/>
              <path id="Path_61986" data-name="Path 61986" d="M6876.435,1163.754a3.478,3.478,0,0,0,.584,4.5c1.6.1,4.189.169,7.255.146,5.748-.044,11.611-.434,11.611-.434s.192-4.105-10.738-5.078C6877.98,1162.245,6876.435,1163.754,6876.435,1163.754Z" transform="translate(-6818.518 -1138.489)" fill="#9eac4c" fill-rule="evenodd"/>
            </g>
          </g>
        </g>
        <path id="Path_61987" data-name="Path 61987" d="M6918.41,1307.941s-18.991,5.395-27.46,2.438c-3.521-1.227-4.478-4.1-4.225-4.387.766-.864,1.4,3.6,7.149,4.226C6901.681,1311.074,6918.41,1307.941,6918.41,1307.941Z" transform="translate(222.699 229.854)" fill="#553b47" fill-rule="evenodd"/>
        <path id="Path_61988" data-name="Path 61988" d="M6896.031,1309.107s-18.991,5.394-27.461,2.438c-3.521-1.229-4.477-4.1-4.225-4.387.767-.866,1.4,3.593,7.15,4.223C6879.3,1312.24,6896.031,1309.107,6896.031,1309.107Z" transform="translate(193.376 231.382)" fill="#553b47" fill-rule="evenodd"/>
      </g>
      <rect id="Rectangle_19433" data-name="Rectangle 19433" width="68" height="6" transform="translate(993 461)" fill="#729368"/>
    </g>
  </g>
</svg>
