<svg xmlns="http://www.w3.org/2000/svg" xmlns:xlink="http://www.w3.org/1999/xlink" width="183.516" height="110.09" viewBox="0 0 183.516 110.09"><defs><linearGradient id="a" y1="0.5" x2="1" y2="0.5" gradientUnits="objectBoundingBox"><stop offset="0" stop-color="#d8805a"/><stop offset="1" stop-color="#7b4129"/></linearGradient></defs><g transform="translate(-608.242 -43.879)"><path d="M773.72,142.106H626.28V52.02a8.15,8.15,0,0,1,8.14-8.141H765.58a8.15,8.15,0,0,1,8.14,8.141Zm-143.44-4H769.72V52.02a4.145,4.145,0,0,0-4.14-4.141H634.42a4.145,4.145,0,0,0-4.14,4.141Z" fill="url(#a)"/><path d="M777.9,153.969H622.1a13.879,13.879,0,0,1-13.862-13.863v-2H791.758v2A13.879,13.879,0,0,1,777.9,153.969Zm-165.45-11.863a9.88,9.88,0,0,0,9.658,7.863H777.9a9.88,9.88,0,0,0,9.658-7.863Z" fill="url(#a)"/><path d="M716.051,153.969h-32.1v-3.461a4.826,4.826,0,0,1,4.82-4.82h22.462a4.826,4.826,0,0,1,4.82,4.82Zm-27.9-4h23.7a.819.819,0,0,0-.617-.281H688.769A.819.819,0,0,0,688.152,149.969Z" fill="url(#a)"/><path d="M765.31,142.106H634.69V52.582H765.31Zm-126.62-4H761.31V56.582H638.69Z" fill="url(#a)"/><path d="M661.962,96.8a11.172,11.172,0,1,1,11.172-11.173A11.185,11.185,0,0,1,661.962,96.8Zm0-18.345a7.172,7.172,0,1,0,7.172,7.172A7.18,7.18,0,0,0,661.962,78.452Z" fill="url(#a)"/><path d="M746.511,87.624H683.363a2,2,0,0,1,0-4h63.148a2,2,0,0,1,0,4Z" fill="url(#a)"/><path d="M661.962,126.758a11.172,11.172,0,1,1,11.172-11.172A11.185,11.185,0,0,1,661.962,126.758Zm0-18.344a7.172,7.172,0,1,0,7.172,7.172A7.18,7.18,0,0,0,661.962,108.414Z" fill="url(#a)"/><path d="M746.511,117.586H683.363a2,2,0,0,1,0-4h63.148a2,2,0,0,1,0,4Z" fill="url(#a)"/></g></svg>