<svg xmlns="http://www.w3.org/2000/svg" width="48.624" height="48.624" viewBox="0 0 48.624 48.624"><g transform="translate(0 0)"><path d="M1934.8,2356.917h-2.686l7.321,20.693,4.1-11.711-3.177-8.982h-2.833v-1.971h12.546v1.971h-2.938l7.32,20.693,2.631-7.52c3.452-9.633-2.829-12.635-2.829-14.784a3.893,3.893,0,0,1,3.893-3.894c.117,0,.229.007.34.016a20.343,20.343,0,0,0-30.893,3.518h7.205v1.971Z" transform="translate(-1920.209 -2341.91)" fill="#fff" fill-rule="evenodd"/><path d="M1924.082,2366.573a20.338,20.338,0,0,0,10.805,17.97l-9.18-25.95A20.278,20.278,0,0,0,1924.082,2366.573Z" transform="translate(-1920.112 -2342.26)" fill="#fff" fill-rule="evenodd"/><path d="M1962.974,2356.491a14.363,14.363,0,0,1-.244,5.571h.082l-.308.879h0a18.814,18.814,0,0,1-.672,1.922l-7,19.61a20.351,20.351,0,0,0,8.142-27.982Z" transform="translate(-1920.959 -2342.202)" fill="#fff" fill-rule="evenodd"/><path d="M1938.549,2386.228a20.444,20.444,0,0,0,12.274.087l-5.951-16.82Z" transform="translate(-1920.51 -2342.56)" fill="#fff" fill-rule="evenodd"/><path d="M1961.5,2348.919a24.312,24.312,0,1,0,7.12,17.191,24.149,24.149,0,0,0-7.12-17.191Zm-17.191,39.788a22.6,22.6,0,1,1,22.6-22.6A22.622,22.622,0,0,1,1944.312,2388.707Z" transform="translate(-1920 -2341.798)" fill="#fff" fill-rule="evenodd"/></g></svg>