<svg xmlns="http://www.w3.org/2000/svg" width="21.871" height="21.393" viewBox="0 0 21.871 21.393"><path d="M1076.668,3106.175h-13.886a3.986,3.986,0,0,0-3.993,3.992v3.214a4,4,0,0,0,3.993,3.992h13.886a4,4,0,0,0,3.993-3.992v-3.214a3.986,3.986,0,0,0-3.993-3.993Zm-10.973,2.5h-1.281v6.4h-1.255v-6.4h-1.281v-1.093h3.817Zm3.654,6.4h-1.1v-.6a2.362,2.362,0,0,1-.64.514,1.3,1.3,0,0,1-.64.176.679.679,0,0,1-.578-.251,1.112,1.112,0,0,1-.2-.741v-4.62h1.1v4.243a.405.405,0,0,0,.076.276.269.269,0,0,0,.226.088.6.6,0,0,0,.3-.113,1.537,1.537,0,0,0,.352-.288v-4.207h1.1v5.524Zm4.017-1.13a1.325,1.325,0,0,1-.264.891.916.916,0,0,1-.753.314,1.4,1.4,0,0,1-.578-.114,1.653,1.653,0,0,1-.477-.376v.414h-1.117v-7.5h1.117v2.41a1.849,1.849,0,0,1,.477-.376,1.13,1.13,0,0,1,.515-.138.991.991,0,0,1,.8.351,1.748,1.748,0,0,1,.276,1.042v3.075Zm3.829-1.494h-2.109v1.042a1.18,1.18,0,0,0,.1.6.415.415,0,0,0,.377.163.447.447,0,0,0,.389-.138,1.139,1.139,0,0,0,.113-.627v-.251h1.13v.276a1.839,1.839,0,0,1-.414,1.293,1.688,1.688,0,0,1-1.243.427,1.53,1.53,0,0,1-1.168-.465,1.731,1.731,0,0,1-.427-1.255v-2.486a1.542,1.542,0,0,1,.465-1.168,1.681,1.681,0,0,1,1.218-.452,1.584,1.584,0,0,1,1.167.415,1.631,1.631,0,0,1,.4,1.2v1.419Zm-1.62-2.071a.441.441,0,0,0-.377.151.826.826,0,0,0-.113.489v.565h.979v-.565a.82.82,0,0,0-.126-.49.432.432,0,0,0-.364-.151Zm-3.817-.025a.61.61,0,0,0-.238.063.648.648,0,0,0-.226.163v3.453a.862.862,0,0,0,.264.188.671.671,0,0,0,.264.063.377.377,0,0,0,.3-.113.629.629,0,0,0,.1-.389v-2.85a.664.664,0,0,0-.113-.427.438.438,0,0,0-.351-.151Zm-7.156-6.115h1.406v-3.427l1.632-4.834h-1.431l-.866,3.3h-.088l-.917-3.3h-1.406l1.67,4.984v3.277Zm4.934.163a1.881,1.881,0,0,0,1.331-.451,1.578,1.578,0,0,0,.49-1.231v-3.139a1.464,1.464,0,0,0-.49-1.142,1.832,1.832,0,0,0-1.281-.452,2.028,2.028,0,0,0-1.343.427,1.382,1.382,0,0,0-.5,1.13v3.151a1.633,1.633,0,0,0,.49,1.243,1.865,1.865,0,0,0,1.306.464Zm-.515-4.909a.457.457,0,0,1,.138-.326.611.611,0,0,1,.377-.113.689.689,0,0,1,.4.113.422.422,0,0,1,.151.327v3.327a.475.475,0,0,1-.151.377.543.543,0,0,1-.4.138.523.523,0,0,1-.39-.126.558.558,0,0,1-.125-.39Zm4.219,4.846a1.631,1.631,0,0,0,.715-.2,2.668,2.668,0,0,0,.716-.565v.665h1.243v-6.089h-1.243v4.62a1.583,1.583,0,0,1-.377.339.919.919,0,0,1-.352.126.313.313,0,0,1-.251-.1.519.519,0,0,1-.088-.314v-4.67h-1.243v5.1a1.263,1.263,0,0,0,.226.816.8.8,0,0,0,.653.275Z" transform="translate(-1058.79 -3095.98)" fill="#fff" fill-rule="evenodd"/></svg>