<svg xmlns="http://www.w3.org/2000/svg" width="454.434" height="413" viewBox="0 0 454.434 413"><g transform="translate(-13696.78 -1558.023)"><line x2="370.451" transform="translate(13725.77 1961.527)" fill="none" stroke="#7160b1" stroke-linecap="round" stroke-linejoin="round" stroke-width="0.5"/><circle cx="177.987" cy="177.987" r="177.987" transform="translate(13756.752 1596.404)" fill="#b8b8b8" opacity="0.5"/><path d="M14033.45,1935.024c-4.2,3.021,3.69,17.76,10.989,25.291s25.833,7.119,29.523,6.5,3.046-6.033-1.229-11.825c-12.3-7.185-15.386-16.882-15.386-16.882S14037.645,1932,14033.45,1935.024Z" fill="#edc298" fill-rule="evenodd"/><path d="M14058.233,1962.686c-8.775-2.238-15.126-14.083-19.272-18.161-6.532-6.41,4.318-16.6-5.5-9.513-4.2,3.02,3.69,17.76,10.989,25.29s25.833,7.119,29.522,6.5,3.539-4.361-.746-10.152C14071.949,1955.922,14062.592,1963.814,14058.233,1962.686Z" fill="#414141" fill-rule="evenodd"/><path d="M13967.461,1946.636s-3.725,6.726-5.4,8.267-3.839,5.042-1.948,6.558c5.941,7.587,23.008,7.71,27.1,6.149,4.265-1.611-3.865-20.06-3.865-20.06Z" fill="#edc298" fill-rule="evenodd"/><path d="M13965.578,1959.912s-2.78-6.5-4.92-3.336c-1.145,1.681-2.259,2.639-.3,5.365,4.666,6.5,23.117,7.923,26.873,5.69,2.608-1.545.768-6.443.768-6.443Z" fill="#414141" fill-rule="evenodd"/><path d="M14050.537,1956.371c3.018-2.095,20.223-2.534,22.2-.357s4.234,4.967,3.492,6.173c-1.665,3.483-14.929,2.869-19.866,1.414s-19.53-21.547-19.53-21.547S14048.868,1955.661,14050.537,1956.371Z" fill="#15616d" fill-rule="evenodd"/><path d="M13961.391,1955.541c2.616-1.889,17.973.673,20.852,1.927s5.642,2.766,5.921,4.475c.328,1.967.5,4.784-12.4,3.2-15.729-1.935-15.655-7.751-15.655-7.751a9.938,9.938,0,0,1,1.282-1.853Z" fill="#15616d" fill-rule="evenodd"/><path d="M14054.315,1896.877c-7-33.04-15-66.691-24.587-102.886-4.558-17.174-7.524-30.331-9.346-39.161-1.807-8.709-2.5-12.5-2.5-12.5s-45.232-11.518-48.94-7.15a42.2,42.2,0,0,0-5.705,6.538c-12.461,17.646-8.712,40.765-8.874,45.214-.242,6.551-2.832,80.209-3.884,99.487-1.038,18.98,2.359,53.005,7.322,59.435,6.029,7.818,38.274,3.653,40.136-1.86-3.372-9.086-7.876-65.584-7.795-99.959,0-8.371-.392-49.554-.433-53.113.054,5.352,6.029,30.749,6.933,33.782,1.362,4.624,10.466,39.148,12.622,48.651,4.021,17.593,8.82,44.271,12.152,66.244,22.926,15.422,40.3,3.4,40.822,2.09S14058.981,1922.706,14054.315,1896.877Zm-64.6-106.092c-.121-.067-.2-.134,0-.108C13990.12,1790.96,13989.877,1790.88,13989.715,1790.785Z" fill="#00a1c6" fill-rule="evenodd"/><path d="M13977.1,1940.284c-10.661.225-26.7-13-22.937-7.76,19.681,16.469,42.866,5.915,42.866,5.915C13994.519,1939.16,13985.424,1940.107,13977.1,1940.284Z" fill="#00a1c6" fill-rule="evenodd" opacity="0.54" style="mix-blend-mode:multiply;isolation:isolate"/><path d="M14037.673,1934.015c6.971,3.28,22.062-.516,22.912.767.281.409-1.229.988-6.151,1.832-18.66,3.213-31.332-9.894-31.332-9.894S14028.521,1929.732,14037.673,1934.015Z" fill="#00a1c6" fill-rule="evenodd" opacity="0.54" style="mix-blend-mode:multiply;isolation:isolate"/><path d="M14000.691,1839.708s-7.86-35.774-9.51-49.993l1.649-1.958s-7.319-.1-6.6,1.752,3.6,13.7,3.6,13.7l-.117-12.538.342,3.6S13995.254,1821.594,14000.691,1839.708Z" fill="#00a1c6" opacity="0.54" style="mix-blend-mode:multiply;isolation:isolate"/><path d="M14020.383,1755.525c-14.6.58-46.8-9.98-57.141-13.809a42.2,42.2,0,0,1,5.705-6.538c3.708-4.368,48.94,7.15,48.94,7.15S14018.576,1746.816,14020.383,1755.525Z" fill="#00a1c6" opacity="0.54" style="mix-blend-mode:multiply;isolation:isolate"/><path d="M14073.73,1666.718c-.407,1.011-.753,1.851-.865,2.086C14072.966,1668.575,14073.3,1667.778,14073.73,1666.718Z" fill="#fff" fill-rule="evenodd"/><path d="M14090.8,1675.684a1.1,1.1,0,0,1-.382.073s-7.029,43.312-20.9,53.4c-10.815,7.863-21.863-5.6-24.189-9.847v0a93.451,93.451,0,0,1-7.916-13.844l1.458-4.051,18.166-9.668s2.315,4.906,3.9,8.819v0a34.143,34.143,0,0,1,1.3,3.641,62.462,62.462,0,0,1,4.436-15.561,225.524,225.524,0,0,0,8.948-26.57c-.4.977-.828,2.04-1.229,3.027.611-1.524,1.183-2.948,1.229-3.03v0c.807-1.985,1.47-3.635,1.47-3.635s-1.433,12.629,4.318,14.813,6.824,2.7,9.37,2.441Z" fill="#f8f7e6" fill-rule="evenodd"/><path d="M14060.932,1700.562v0s-17.924-5.114-15.6,18.741a93.451,93.451,0,0,1-7.916-13.844l1.458-4.051,18.166-9.668S14059.352,1696.649,14060.932,1700.562Z" fill="#ecb2c5"/><path d="M14007.682,1642.173s19.65-1.975,26.658,6.29,25.648,40.627,25.648,40.627-11.247,10.924-21.758,14.147c0,0-3.561,10.792-15.943,34.066,0,0-2.1,4.6-1.962,7.264,0,0-33.356,1.541-56.062-10.087,0,0,10.933-21.855,8.55-51.414l-24.387,14.99a38.444,38.444,0,0,1-15.7-22.348s25.508-23.743,34.057-26.4,24.6-5.6,24.6-5.6Z" fill="#2dc8e2"/><path d="M14065.137,1714.018h0c2.873,2.393-7.181-2.322-3.3-8.494A8.693,8.693,0,0,0,14065.137,1714.018Z" fill="#ecb2c5" fill-rule="evenodd"/><path d="M13974.288,1681.691a26.673,26.673,0,0,1,2.912-18.626C13979.379,1661.036,13968.545,1670.438,13974.288,1681.691Z" fill="#00a1c6" fill-rule="evenodd"/><path d="M14056.577,1685.681s-7.405,6.3-15.2,11.56C14038.269,1697.518,14051.345,1694.694,14056.577,1685.681Z" fill="#00a1c6" fill-rule="evenodd"/><path d="M13949.3,1693.823a32.757,32.757,0,0,1-11.383-18.383C13938.146,1672.093,13936.517,1688.133,13949.3,1693.823Z" fill="#00a1c6" fill-rule="evenodd"/><path d="M13981.461,1674.985s-4.421,6.558-5.259,5.859S13978.483,1678.978,13981.461,1674.985Z" fill="#00a1c6" fill-rule="evenodd"/><path d="M14007,1641.024s7.458,2.974,6.7,8.15-5.159,7.7-11.127,7.085-15.132-7.533-13.8-12.618-6.44,7.7,11.907,12.967c5.979,1.715,11.507-1.318,12.613-3.754,1.326-2.919,1.037-5.193.714-6C14013.475,1645.488,14010.841,1641.21,14007,1641.024Z" fill="#00a1c6" fill-rule="evenodd"/><path d="M14021.656,1726.318c.25,1.156-4.891-14.091-24.78-22.113,0,0,11.048,3.81,15.928,8.5S14021.242,1724.4,14021.656,1726.318Z" fill="#00a1c6" fill-rule="evenodd"/><path d="M14038.23,1703.237c-.657,1.331,6.2-17.672-7.091-41.085,0,0,7.888,12.369,9.021,20.793S14039.319,1701.032,14038.23,1703.237Z" fill="#00a1c6" fill-rule="evenodd"/><path d="M14029.762,1593.78s1.682-6.724.935-9.993-3.457-5.6-5.046-5.977a8.225,8.225,0,0,0-3.177-8.126c-4.392-3.642-18.406-6.537-27.47-.934s-16.444,19.8-10.371,35.49,10.371,14.383,10.371,14.383Z" fill="#151e21"/><path d="M13985.847,1581.919s-4.483-4.576-10.65-3.222-10.838,6.584-8.129,19.566,2.429,15.224.841,18.959c0,0,9.9-3.362,11.679-9.152s-1.588-18.4,4.392-20.361Z" fill="#151e21"/><path d="M14024.88,1578.7s-5.279,10.507-13.875,13.028-11.61,9.527-11.7,12.422h-2.383s-1.4-6.187-4.7-6.187-4.835,4.693-3.5,9.316,2.452,8.335,4.835,7.915l-2.242,29.49s-2.663.63-.561,3.642,10.441,8.195,17.379,5.744,3.434-7.986-.491-10.507l.491-16.531s11.072,2.895,15.463-2.522,8.129-14.1,6.167-30.727A54.521,54.521,0,0,1,14024.88,1578.7Z" fill="#f8f7e6"/><path d="M14028.205,1593.748c-.485-1.142-6.168-1.52-6.168-1.52l-.381-2.634a62.835,62.835,0,0,1,6.321,1.857s.716,3.438.228,2.3Z" fill="#151e21" fill-rule="evenodd"/><path d="M14023.675,1606.013c-2.919-3.14-2.344-7.779-2.344-7.779-.744,4.783,1.206,7.06,1.376,7.4s-2.164.224-2.164.224-.455.677-.1.817,3.7.156,3.231-.67Z" fill="#151e21" fill-rule="evenodd"/><path d="M14006.036,1595.473l10.294-2.314c.145-.891-.3-1.725-.048-2.6.244-.607-8.6,2.266-9.565,2.987Z" fill="#151e21" fill-rule="evenodd"/><path d="M13996.868,1605.6a1.9,1.9,0,0,0-.211-.572c.13.342.212.574.212.574Z" fill="#151e21" fill-rule="evenodd"/><path d="M13994,1615.793s6.738,11.157,14.135,11.7c-.019,4.387-.207,5.19-.243,7.709s-.115,9.221-.2,8.4c-4.981-10.833-12.521-24.086-12.521-24.086S13993.457,1615.58,13994,1615.793Z" fill="#ecb2c5" fill-rule="evenodd"/><path d="M14008.1,1600.093a3.91,3.91,0,0,1,4.078,0S14010.547,1596.3,14008.1,1600.093Z" fill="#151e21" fill-rule="evenodd"/><path d="M14023.717,1599.579a3.223,3.223,0,0,1,4.078,0S14025.268,1595.778,14023.717,1599.579Z" fill="#151e21" fill-rule="evenodd"/><path d="M14030.593,1606.427a1.769,1.769,0,0,0-1.281-1.592c-2.155-.692-6.608-1.946-9.1-1.4-3.369.74-13.552,2.78-15.686,2.455,0,0-1.825,15.516-5.635,17.765,0,0-.144,8.727,18.582,5.846C14034.12,1626.942,14031.125,1619.067,14030.593,1606.427Z" fill="#67ebf9" fill-rule="evenodd"/><path d="M14008.588,1607.884a26.878,26.878,0,0,0,7.819-1.4,13.335,13.335,0,0,1,9.028-.283,13.185,13.185,0,0,0,3.847.7,20.586,20.586,0,0,1-5.472-.174c-3.394-.488-3.494-.067-8.839.9S14008.588,1607.884,14008.588,1607.884Z" fill="#00a1c6" opacity="0.28" style="isolation:isolate"/><path d="M14006.72,1610.454s6.158.281,9.6-1.042a13.3,13.3,0,0,1,9.028-.282,12.9,12.9,0,0,0,3.846.695,20.54,20.54,0,0,1-5.472-.174c-3.394-.49-3.491-.066-8.839.905S14006.72,1610.454,14006.72,1610.454Z" fill="#00a1c6" opacity="0.28" style="isolation:isolate"/><path d="M14003.441,1620.447s7.734,2.321,11.262,1.235,6.489-1.247,9.312-.248,3.88.436,3.88.436a11.536,11.536,0,0,1-5.538-.032c-3.327-.733-3.79.283-9.179.882A16.17,16.17,0,0,1,14003.441,1620.447Z" fill="#00a1c6" opacity="0.28" style="isolation:isolate"/><path d="M14005.913,1613.38s7.079.156,10.52-1.167a13.309,13.309,0,0,1,9.029-.282,12.991,12.991,0,0,0,3.843.7,20.518,20.518,0,0,1-5.469-.175c-3.394-.489-3.494-.065-8.839.905A23.594,23.594,0,0,1,14005.913,1613.38Z" fill="#00a1c6" opacity="0.28" style="isolation:isolate"/><path d="M14005.266,1615.759s7.44,1.108,10.882-.215a13.306,13.306,0,0,1,9.028-.282,12.965,12.965,0,0,0,3.846.7,20.543,20.543,0,0,1-5.471-.173c-3.394-.488-3.5-.067-8.84.9A17.32,17.32,0,0,1,14005.266,1615.759Z" fill="#00a1c6" opacity="0.28" style="isolation:isolate"/><path d="M14004.518,1618.445s7.951,1.527,11.393.2a13.33,13.33,0,0,1,9.028-.282,13.178,13.178,0,0,0,3.846.7,20.618,20.618,0,0,1-5.471-.174c-3.395-.488-3.5-.067-8.841.9A17.485,17.485,0,0,1,14004.518,1618.445Z" fill="#00a1c6" opacity="0.28" style="isolation:isolate"/><path d="M14004.524,1605.892l-7.832-3.653.226.776,7.436,4.166Z" fill="#00a1c6" fill-rule="evenodd"/><path d="M13992.914,1613.974l5.976,9.682.972-.8-6.582-8.73-.13-.155Z" fill="#00a1c6" fill-rule="evenodd"/><path d="M14097.949,1648.973c-.933,3.69-7.044,9.61-6.039,24.551,0,.1.012.2.019.3a4.47,4.47,0,0,1-.557,2.573l0,.006c-1.9,2.117-14.342-2.957-16.738-4.054a9.8,9.8,0,0,1-2.6-1.592c-.076-.2,1.815-5.724,2.063-6.3,1.541-3.61,3.952-6.855,3.689-8.217-1.064-5.468-2.032-6.43.422-13.45l0-.006c.235-.673.5-1.4.8-2.191,0,0,1.04-3.256,1.367-3.934s4.037-3.275,3.211,3.1a39.405,39.405,0,0,1-.9,5.96l4.676-6.546S14098.884,1645.255,14097.949,1648.973Z" fill="#67ebf9" fill-rule="evenodd"/><path d="M13992.539,1601.113h0c.57-.14,1.545,2.186,2.019,3.42-.753-1.429-2.672-3.262-2.017-3.418Z" fill="#151e21" fill-rule="evenodd"/><path d="M14099.462,1646.452s-1.522-2.077-3.25-1-5,7.594-3.587,9.016S14100.623,1648.119,14099.462,1646.452Z" fill="#67ebf9"/><path d="M14099.553,1647.369c-.54,2.6-5.7,8.339-6.928,7.1-.629-.635-.327-2.285.355-4.011-.413,1.338-.512,2.508,0,3.021C14094.068,1654.578,14098.242,1650.191,14099.553,1647.369Z" fill="#00a1c6"/><path d="M14096.125,1645.518a16.976,16.976,0,0,1-2.338,3.2A10.061,10.061,0,0,1,14096.125,1645.518Z" fill="#00a1c6"/><path d="M14096.589,1644.451a5.837,5.837,0,0,1-.464,1.067,16.976,16.976,0,0,1-2.338,3.2,17.429,17.429,0,0,0-.807,1.747,15.373,15.373,0,0,1,.55-1.475l0,0c.183-.422.382-.846.6-1.253l0-.006a16.722,16.722,0,0,0,2.347-3.2.447.447,0,0,1,.083-.058A.257.257,0,0,1,14096.589,1644.451Z" fill="#00a1c6"/><path d="M14082.785,1646.005l.886-7.016a34.656,34.656,0,0,0-1.073,3.449,17.327,17.327,0,0,0-.359,5.674C14082.448,1650.539,14082.785,1646.005,14082.785,1646.005Z" fill="#00a1c6"/><path d="M14083.107,1653.757a7.618,7.618,0,0,1,8.9-.569C14089.038,1652.7,14087.9,1651.628,14083.107,1653.757Z" fill="#00a1c6"/><path d="M14086.7,1637.745l10.766,6.244a.43.43,0,0,0,.36.032h0a.427.427,0,0,0,.067-.774l-10.768-6.244a.431.431,0,0,0-.586.159.421.421,0,0,0-.042.322h0a.427.427,0,0,0,.2.261Z" fill="#e24b27"/><path d="M14095.664,1640.969l-5.025-2.858-.526.8,5.01,2.91Z" fill="#a82309"/><path d="M14090.64,1638.111l10.438-18.493,5.354,3.032-10.768,18.314Z" fill="#67ebf9"/><path d="M14100.22,1621.142l5.327,3.022.89-1.512-5.354-3.033Z" fill="#e24b27"/><path d="M14095.987,1628.639l5.256,2.841,4.3-7.316-5.328-3.021Z" fill="#c5ebf9"/><path d="M14094.88,1640.523l9.832-16.832-1.34-.759-9.579,16.973Z" fill="#b0e2f8" style="mix-blend-mode:multiply;isolation:isolate"/><path d="M14101.933,1620.1l3.6,2.04.854-1.372-3.664-1.959Z" fill="#a82309"/><path d="M14104.884,1619.97l10.105-17.429-.507-.329-10.187,17.444Z" fill="#e24b27"/><path d="M14090.735,1639.957l-5.566,9.487,2.7,1.327,5.963-9.026Z" fill="#e24b27"/><path d="M14083.232,1648.549l6.766,3.2-.69,1.261-6.428-3.626Z" fill="#e24b27"/><path d="M14090.35,1639.654s-1.943-1.692-3.39-.257-3.2,8.506-1.514,9.583S14091.849,1641.024,14090.35,1639.654Z" fill="#67ebf9"/><path d="M14090.383,1642.11c-.868,3.073-3.7,7.652-4.935,6.87-1.2-.763-.664-4.545.262-7.188-.758,2.554-1.088,5.707-.006,6.394C14086.832,1648.907,14089.31,1645.116,14090.383,1642.11Z" fill="#00a1c6"/><path d="M14096.574,1643.311s-1.488-2.1-3.232-1.052-5.129,7.507-3.742,8.953S14097.706,1645,14096.574,1643.311Z" fill="#67ebf9"/><path d="M14096.662,1644.167a2.6,2.6,0,0,1-.073.284,5.837,5.837,0,0,1-.464,1.067,16.976,16.976,0,0,1-2.338,3.2c-.086.092-.171.18-.254.269l0,0c-1.589,1.674-3.3,2.88-3.931,2.227-.6-.623-.312-2.175.349-3.822-.389,1.253-.474,2.337,0,2.832.66.687,2.524-.684,4.178-2.493l0-.006a16.722,16.722,0,0,0,2.347-3.2C14096.546,1644.4,14096.6,1644.283,14096.662,1644.167Z" fill="#00a1c6"/><path d="M14091.372,1676.4l0,.006c-1.9,2.117-14.342-2.957-16.738-4.054a9.8,9.8,0,0,1-2.6-1.592c-.076-.2,1.815-5.724,2.063-6.3,1.541-3.61,3.952-6.855,3.689-8.217-1.064-5.468-2.032-6.43.422-13.45-.046.223-1.345,6.247.513,10.737,1.893,4.579-6.867,14.8-4.135,16.765,2.57,1.845,15.413,6.446,17.325,3.232,0,.1.012.2.019.3A4.47,4.47,0,0,1,14091.372,1676.4Z" fill="#00a1c6" opacity="0.28" style="isolation:isolate"/><path d="M13954.281,1724.188a6.339,6.339,0,0,0-1.369,1.606c-1.4,2.661-5.73,7.714-7.848,8.407a21.361,21.361,0,0,0-2.124.687c-7.629-5.862-18.364-14.553-22.754-20.234-7.147-9.25-4.627-20.8,0-25s13.176-11.709,13.176-11.709c2.173,8.416,13.34,19.212,13.34,19.212l-8.78,7.053S13947.316,1716.276,13954.281,1724.188Z" fill="#f8f7e6" fill-rule="evenodd"/><path d="M13937.922,1704.206s3.358-6.027-1.968-12.463-15.768-2.093-15.768-2.093c4.624-4.2,13.176-11.709,13.176-11.709,2.173,8.416,13.34,19.212,13.34,19.212Z" fill="#ecb2c5" fill-rule="evenodd"/><path d="M13988.821,1746.268c-.013,2.3-1.366,1.521-2.861,1.68-1.473.152-10.43-1.6-10.7-1.65.1.089,1.824,1.521,3.958,3.046,2.206,1.573,7.527,5.367,3.985,6.155-2.21.492-7.519-3.534-10.205-5.468,1.027.788,3.857,3.134,4.487,3.6a18.656,18.656,0,0,1,2.483,2.013c.7.745,1.07,1.524.508,2.218-1.246,1.536-3.37.192-8.187-2.515-4.544-2.559-5.238-2.266-11.356-4.249-5.59-1.808-9.761-9.2-9.761-9.2s-3.469-2.5-8.291-6.174a.739.739,0,0,1,.241-1.3c.318-.092.669-.192,1.045-.315,2.381-.779,7.24-6.454,8.814-9.442a4.936,4.936,0,0,1,.65-.913,1.122,1.122,0,0,1,1.682.006c.164.186.329.366.488.547l0,0c3.271,3.629,5.874,6.17,6.7,6.1a54.466,54.466,0,0,0,7.16-.709c2.045-.47,2.992-5.269,3.778-5.9.626-.5,2.145.488,2.542,2.333l0,.007a4.48,4.48,0,0,1,.049,1.591c-.391,2.835-4.168,5.428-4.407,8.184s4.487,5.01,4.96,5.321S13988.821,1744.691,13988.821,1746.268Z" fill="#67ebf9" fill-rule="evenodd"/><path d="M13976.593,1741.233c-4.778-1.545-5.216-4.056-5.427-5.318s1.717-4.341,3.083-5.673,1.739-4.112,1.739-4.112l0,.007a4.48,4.48,0,0,1,.049,1.591c-.391,2.835-4.168,5.428-4.407,8.184S13976.12,1740.922,13976.593,1741.233Z" fill="#00a1c6" opacity="0.28" style="isolation:isolate"/><path d="M13972.657,1744.405s-1.437.107-1.3,1.928Z" fill="#00a1c6" opacity="0.28" style="isolation:isolate"/><path d="M13969.383,1748.313s-1.437.108-1.3,1.929Z" fill="#00a1c6" opacity="0.28" style="isolation:isolate"/><path d="M13980.478,1757.858c-1.246,1.536-3.37.192-8.187-2.515-4.544-2.559-5.238-2.266-11.356-4.249-5.59-1.808-9.761-9.2-9.761-9.2s-3.469-2.5-8.291-6.174a.739.739,0,0,1,.241-1.3c.318-.092.669-.192,1.045-.315,2.381-.779,7.24-6.454,8.814-9.442a4.936,4.936,0,0,1,.65-.913,1.122,1.122,0,0,1,1.682.006c.164.186.329.366.488.547-.083-.028-1.559-.462-2.68,3.351-1.159,3.922-8.759,7.738-8.759,7.738s6.619,4.582,7.286,5.547,3.013,5.8,8.059,8.34,10.188,3.415,16.884,7.618c0,0,4.523,2.765,3.473-.806a2.653,2.653,0,0,1-.1-.449C13980.67,1756.385,13981.04,1757.164,13980.478,1757.858Z" fill="#00a1c6" opacity="0.28" style="isolation:isolate"/><path d="M13834.045,1947.206s-10.972,17.677-6.849,19.939c3.955,2.172,21.414,4.515,28.587-2.38,2.147-1.283.439-5.178-1.043-6.993s-4.318-9.227-4.318-9.227Z" fill="#c2d168" fill-rule="evenodd"/><path d="M13827.344,1960.451s-2.59,4.735-.147,6.694c3.519,2.824,22.581,4.034,28.289-1.933,2.395-2.5,1.393-3.643.468-5.523-1.747-3.545-5.531,2.7-5.531,2.7Z" fill="#faf8ea" fill-rule="evenodd"/><path d="M13856.378,1960.6s-.767,5.951-17.122,5.652c-13.413-.242-12.827-3.095-12.209-5.057.537-1.7,3.573-2.855,6.7-3.722s19.188-1.267,21.589,1.043A10.181,10.181,0,0,1,13856.378,1960.6Z" fill="#a0ad4b" fill-rule="evenodd"/><path d="M13767.816,1939.383s-4.57,9.461-18.165,15.029c-5.217,5.3-6.667,10.741-2.979,11.9s22.572,4.261,31.119-2.381,18.738-20.558,14.889-24.253S13767.816,1939.383,13767.816,1939.383Z" fill="#c2d168" fill-rule="evenodd"/><path d="M13748.907,1956.048c-5.217,5.3-5.923,9.1-2.235,10.267s22.572,4.261,31.119-2.381,18.738-20.558,14.889-24.253c-9.014-8.654.605,3.321-7,8.927-4.837,3.568-13.04,14.754-22.333,15.774C13758.736,1964.888,13750.306,1955.476,13748.907,1956.048Z" fill="#faf8ea" fill-rule="evenodd"/><path d="M13788.214,1946.376s-17.825,18.409-23.078,19.2-18.9-.515-20.1-4.314c-.584-1.339,2.139-3.867,4.468-5.8s19.849.995,22.632,3.57C13773.938,1958.541,13788.214,1946.376,13788.214,1946.376Z" fill="#a0ad4b" fill-rule="evenodd"/><path d="M13842.483,1748.041s4.295,5.045-12.432,37.333-50.138,96.173-57.026,111.3c-6.674,14.661-11.065,44.284-10.72,45.682s15.872,11.564,41.54-.893c6.582-21.985,18.974-61.766,25.61-79.162,3.587-9.4,16.1-39.8,18.165-44.342,1.379-3.038,11.228-28.148,11.762-33.035a19.258,19.258,0,0,1,2.233-1.338s-12.367,55.606-14.89,64.283-26.507,88.819-31.267,97.612c1.108,5.9,37.676,10.83,44.965,3.721,6.007-5.859,14.393-40.127,16.08-59.67,1.716-19.861,9.709-95.472,10.423-102.227.545-5.164,5.85-42.3.894-45.533S13842.483,1748.041,13842.483,1748.041Z" fill="#734e63" fill-rule="evenodd"/><path d="M13864.3,1781.8l-14.145,4.167S13854.513,1788.383,13864.3,1781.8Z" fill="#553b47" fill-rule="evenodd"/><path d="M13855.512,1787.606s-5.964,6.581-7.146,6.4S13853.936,1787.7,13855.512,1787.606Z" fill="#553b47" fill-rule="evenodd"/><path d="M13821.416,1935.96s22.173,14.135,44.667.149c4.6-4.808-13.72,6.381-24.567,4.612C13833.015,1939.336,13823.871,1937.06,13821.416,1935.96Z" fill="#553b47" fill-rule="evenodd"/><path d="M13804.442,1932.686s-14.846,11.57-33.451,5.586c-4.869-1.564-6.353-2.368-6-2.757,1.052-1.187,15.945,4.852,23.523,2.53C13798.485,1934.984,13804.442,1932.686,13804.442,1932.686Z" fill="#553b47" fill-rule="evenodd"/><path d="M13839.019,1731.29s2.448,12.965,3.539,17.032c1.705,2.71,42.5-6.089,44.966-7.142s-9.826-12.054-9.826-12.054Z" fill="#443228" fill-rule="evenodd"/><path d="M13860.128,1733.142a8.707,8.707,0,1,0,8.783,8.708A8.747,8.747,0,0,0,13860.128,1733.142Z" fill="#c7c5c5" fill-rule="evenodd"/><path d="M13860.2,1733.59a6.921,6.921,0,1,0,6.925,6.919A6.921,6.921,0,0,0,13860.2,1733.59Z" fill="#734e63" fill-rule="evenodd"/><path d="M13866.77,1779.451l-13.106,3.861S13857.706,1785.549,13866.77,1779.451Z" fill="#553b47" fill-rule="evenodd"/><path d="M13858.632,1784.829s-1.784,1.97-3.524,3.638c-.187.179-.371.355-.558.524h-1.467c.2-.21.424-.43.66-.65C13855.44,1786.72,13857.806,1784.883,13858.632,1784.829Z" fill="#553b47" fill-rule="evenodd"/><path d="M13862.907,1734.356a8.069,8.069,0,1,0,8.14,8.068,8.071,8.071,0,0,0-8.14-8.068Z" fill="#c7c5c5" fill-rule="evenodd"/><path d="M13862.981,1734.77a6.412,6.412,0,1,0,6.412,6.414v0A6.412,6.412,0,0,0,13862.981,1734.77Z" fill="#734e63" fill-rule="evenodd"/><path d="M13862.84,1738.768a2.813,2.813,0,1,0,2.276,2.761A2.553,2.553,0,0,0,13862.84,1738.768Z" fill="#553b47" fill-rule="evenodd"/><path d="M13847.317,1664.028a69.789,69.789,0,0,0-12.141,35.578C13836.164,1705.124,13830.638,1678.917,13847.317,1664.028Z" fill="#a0ad4b" fill-rule="evenodd"/><path d="M13840.7,1664.166s-.834,8,.275,8S13840.412,1669.221,13840.7,1664.166Z" fill="#a0ad4b" fill-rule="evenodd"/><path d="M13864.319,1653.882s-27,3.119-31,4.447c-10.99,3.652-29.431,24.613-29.431,24.613s10.4,1.523,26.051,7.98c2-.341,1.868.768,2.6-.731l.09-3.552c-.4,8.246.549,14.157,2.742,22.115.764,2.772,1.706,6.123,2.867,10.17a148.915,148.915,0,0,1,4.587,15.937l43.625-.091s.843-8.638,3.638-14.8c3.593-7.922,21.944-25.693,16.679-43.257-3.76-12.544-10.726-17.385-27.423-21.369C13879.345,1655.341,13871.591,1652.287,13864.319,1653.882Z" fill="#c2d168" fill-rule="evenodd"/><path d="M13847.82,1655.942s-4.924,13.518-12.554,22.193c0,0-12.395,17.033,7.56,56.726l39.216.258a44.586,44.586,0,0,1,1.676-22.726c4.205-12.036-3.9-3.042-3.9-3.042l-11.729-21.157s.791-8.421,9.382-16.029l14.188-12.936a29.243,29.243,0,0,0-8.407-2.8c-.328.557-6.606,15.85-24.328,13.97-8.98-.953-7.887-6.756-4.831-15.275Z" fill="#bf6e4b" fill-rule="evenodd"/><path d="M13817.278,1698.688a70.978,70.978,0,0,0,9.431-2.124c4.954-1.495,9.574-4.682,12.61-6.143s5.873,1,5.873,1c3.9-1.884,5.091.715,5.091.715,5.442-1.214,6.126,1.851,6.126,1.851,4.072-.3,4.468,4.575,4.468,4.575l-7.627-.471c-1.653-.221-10.788,9.4-14.295,9.068s-8.024,1.527-8.024,1.527c-16.716,6.415-25.234,3.79-31.8-1.762-8.562-7.246,6.522-23.659,6.522-23.659s3.086.035,11.944,3.114c8.815,3.064,11.334,3.816,11.334,3.816l-4.5,6.965Z" fill="#faf8ea" fill-rule="evenodd"/><path d="M13872.267,1682.2c.893.437,22.583-11.721,29.746,4.052,0,0-12.091,35.731-34.134,32.949s-38.146-22.261-42.594-22.225l-8.007,1.714s.311-5.1,4.01-4.409a2.949,2.949,0,0,1,4.081-1.544s1.157-2.546,4.327-1.027h0s-.186-.558.983-.975,3.013-.542,6.856,1.2c0,0,14.537,7.045,23.341,6.627Z" fill="#faf8ea" fill-rule="evenodd"/><path d="M13840.327,1706.92c-.21.007,6.6-2.481,10.326-7.076,0,0,2.956-3.546,8.809-1.258,0,0-6.114-.812-8.069,1.512S13845.165,1706.759,13840.327,1706.92Z" fill="#ebe7c8" fill-rule="evenodd"/><path d="M13849.306,1696.516s-.256-2.265-2.973-1.307C13846.333,1695.209,13848.473,1694.932,13849.306,1696.516Z" fill="#ebe7c8" fill-rule="evenodd"/><path d="M13843.732,1694.279s-.256-2.266-2.973-1.307C13840.76,1692.972,13842.9,1692.694,13843.732,1694.279Z" fill="#ebe7c8" fill-rule="evenodd"/><path d="M13836.958,1691.678s-10.128,5.771-17.265,6.493C13819.693,1698.171,13830.027,1698.46,13836.958,1691.678Z" fill="#ebe7c8" fill-rule="evenodd"/><path d="M13828.326,1691.092s-2.322-.988-3.212,1.8c0,0-2.583-1.959-4.435,1.677,0,0-2.684-.783-3.817,2.43a5.352,5.352,0,0,1,4.09-1.951c.144,0,1.206-3.27,4.507-1.635A2.941,2.941,0,0,1,13828.326,1691.092Z" fill="#ebe7c8" fill-rule="evenodd"/><path d="M13874.827,1714.817s-1.881-3.882-5.1-1.822A8.852,8.852,0,0,1,13874.827,1714.817Z" fill="#ebe7c8" fill-rule="evenodd"/><path d="M13867.512,1688.194s20.208,7.741,25.229,19.255l12.251-21.866s-7.5-10.306-9.02-10.171-20.7-.663-21.145,0S13867.512,1688.194,13867.512,1688.194Z" fill="#c2d168" fill-rule="evenodd"/><path d="M13868.092,1688.194s3.954-10.586,7.762-13.6A15.033,15.033,0,0,0,13868.092,1688.194Z" fill="#a0ad4b" fill-rule="evenodd"/><path d="M13831.349,1689.609l5.609-16.427-4.749,10.131a10.612,10.612,0,0,0-.86,6.3Z" fill="#a0ad4b" fill-rule="evenodd"/><path d="M13860.809,1654.153s-7.131,3.228-6.152,8.455,4.242,6.282,10.279,5.419,13.242-6.58,13.768-11.124c.614-5.318,6.607,5.32-11.836,11.4-6,1.979-10.791.055-12.017-2.377-1.466-2.913-1.237-4.736-.939-5.569C13854.413,1658.948,13856.917,1654.5,13860.809,1654.153Z" fill="#a0ad4b" fill-rule="evenodd"/><path d="M13877.088,1655.67a11.1,11.1,0,0,1-6.207,8C13865.287,1666.417,13880,1661.179,13877.088,1655.67Z" fill="#a0ad4b" fill-rule="evenodd"/><path d="M13876.813,1656.083s-4.179-38.712-2.759-40.956c1.978.045,4.226-3.995,4.552-6.2.241-1.638.252-7-2.763-6.757a3.245,3.245,0,0,0-3.172,3.448c-.132,2.094-.967-1.1-.967-1.1l.277-4.964-1.658-.965.553-9.654-12.14-5.791-14.486,1.932-.276,2.209s-7.213,22.1-4,40.818c3.324,11.112,19.139,10.689,20.28,9.929.09,1.968,1.388,12.658,0,17.375-2.768,3.037-4.543,7.17-1.242,9.791C13862.634,1668.056,13878.632,1662.06,13876.813,1656.083Z" fill="#faf8ea" fill-rule="evenodd"/><path d="M13872.4,1627.262s-4.665,9.9-12.142,10.894c.281,4.453.362,6.548.553,9.1s-.45,13.659-.415,12.825c.666-13.842,11.039-28.959,11.039-28.959S13872.937,1627.015,13872.4,1627.262Z" fill="#ebe7c8" fill-rule="evenodd"/><path d="M13871.984,1608.646c.013-.055.768-7.149,4.031-6.417.205-1.476.937-10.407.937-10.407s.793-3.761-1.519-6.068c-2.43-2.429-9.483-4.894-10.759-5.1a14.7,14.7,0,0,0,.965-14.893c-3.828-7.7-13.24-7.811-16.278-7.722-3.149.092-15.4,1.124-15.316,14.341.067,10.033,3.825,13.008,6.212,14.2-.261,1.022-.689,7.242,1.242,9.653.7-1.718,2.205-8.688,2.205-8.688s9.376,1.049,15.176,0c4.7-.849,10.322,2.058,11.313,4.137.481,1.014-2.027,5.8.137,7.723s.256,7.24.414,8.825C13870.821,1609.009,13871.984,1608.646,13871.984,1608.646Z" fill="#7e4e31" fill-rule="evenodd"/><path d="M13863.845,1580.79s-13.89,5.178-13.521-5.654a5,5,0,0,1,3.591-3.447s-6.45,1.014-4.967,5.654S13854.541,1586.153,13863.845,1580.79Z" fill="#463329" fill-rule="evenodd"/><path d="M13847.295,1598.164l-.554-2.9a30.713,30.713,0,0,0-5.37,2.268l-.151.075s-.251,1.508-.3,2.221v0c-.024.377.009.528.163.123h0C13841.531,1598.78,13847.295,1598.164,13847.295,1598.164Zm2.755,8.824s-2.375.229-2.205-.135,2.033-2.739,1.112-7.526c.075.552.572,4.846-2.08,7.937-.44.858,2.96.71,3.313.553S13850.05,1606.988,13850.05,1606.988Zm6.342,2.481s.686.408,1.291.807c-.386,1-2.121,4.489-6.946,2.227-.435.151-.415.968-.415.968s6.256,2.519,7.4-3.17h0a3.727,3.727,0,0,1,.874.688c.139.286.276-.691.276-.691S13857.027,1608.869,13856.392,1609.469Zm7.593-9.238c-.748-.974-9.177-5.9-9.1-5.239a23.952,23.952,0,0,1-.141,2.761l9.383,4.548Zm11.589,4.555c-.394-.082-.972,1.332-1.329,2.334-.047.135-.091.267-.132.383a4.407,4.407,0,0,1,.226-.415C13874.963,1606.039,13876.026,1604.874,13875.573,1604.786Zm-1.653,3.3c.016-.054.085-.273.189-.578A1.85,1.85,0,0,0,13873.92,1608.084Z" fill="#7e4e31" fill-rule="evenodd"/><ellipse cx="0.948" cy="1.629" rx="0.948" ry="1.629" transform="translate(13858.093 1602.27)" fill="#7e4e31"/><ellipse cx="0.948" cy="1.629" rx="0.948" ry="1.629" transform="translate(13844.896 1601.676)" fill="#7e4e31"/><path d="M13892.978,1701.032s-7.371-12.676-21.717-14.5C13871.261,1686.534,13885.606,1692.116,13892.978,1701.032Z" fill="#a0ad4b" fill-rule="evenodd"/><path d="M13829.093,1687.676s-6.312-9.838-18.6-11.252C13810.5,1676.424,13822.78,1680.757,13829.093,1687.676Z" fill="#a0ad4b" fill-rule="evenodd"/><path d="M13893.869,1705.434a43.013,43.013,0,0,0,7.669-10.857s-3.592,10.855-8.8,12.872S13893.869,1705.434,13893.869,1705.434Z" fill="#a0ad4b" fill-rule="evenodd"/><path d="M13889.92,1722.627l-11.369-1.062-.937,3.486,10.785,2.774Z" fill="#bf6e4b" fill-rule="evenodd"/><path d="M13878.551,1731.619l9.173-.5-.625,4.3-8.548.322Z" fill="#bf6e4b" fill-rule="evenodd"/><path d="M13793.517,1846.911s51.428-84.154,44.386-122.937v-.006l0-.01,2.168.547,1.059.27,12.021,3.037,1.518.384,2.52.637,2.067.522v0l2.558.644,1.248.317,3.718.939,10.577,2.673,1.2.3.8.2.008,0,1.345.343h.006l1.332.336s.029.166.076.487c.138.917.452,3.093.8,6.121.122,1.046.245,2.2.368,3.431,1.143,11.618,4.565,36.644-12.024,98.833C13870.38,1844.136,13831.267,1863.393,13793.517,1846.911Z" fill="#bf6e4b" fill-rule="evenodd"/><path d="M13845.691,1738.024h26.58s.862,16.9-12.7,16.9S13845.691,1738.024,13845.691,1738.024Z" fill="#aa5335" fill-rule="evenodd"/><path d="M13854.627,1734.451l-4.927-4.874s-1.682-1.989-3.285-.722-.872,7,1.768,8.669c3.24,2.047,3.916-1.85,3.285-4.418-.514-.849,3.782,3.9,3.782,3.9" fill="none" stroke="#fdfdfd" stroke-linecap="round" stroke-linejoin="round" stroke-width="0.336"/><path d="M13857.358,1738.1l-1.581-5.541s3.612,3.532,3.692-1.132c.082-4.907-3.492-6.057-5.277-5.946s-.972,2.386-.944,2.933,2,8.591,2,8.591a7.586,7.586,0,0,0-.409,1.095" fill="none" stroke="#fdfdfd" stroke-linecap="round" stroke-linejoin="round" stroke-width="0.336"/><path d="M13847.736,1734.08c.571,1.453,2.643,2.6,2.114-.433-.521-3-2.273-2.56-2.2-2.577S13846.6,1731.2,13847.736,1734.08Z" fill="none" stroke="#fdfdfd" stroke-linecap="round" stroke-linejoin="round" stroke-width="0.336"/><path d="M13855.344,1727.378s-1.683.312.215,3.112c1.7,2.507,3.042.843,2.028-1.049C13857.456,1729.2,13856.2,1727.247,13855.344,1727.378Z" fill="none" stroke="#fdfdfd" stroke-linecap="round" stroke-linejoin="round" stroke-width="0.336"/><path d="M13860.01,1738.155a4.425,4.425,0,0,0-3.089-1.607" fill="none" stroke="#fdfdfd" stroke-linecap="round" stroke-linejoin="round" stroke-width="0.336"/><path d="M13855.582,1736.852s.1,1.027.439,1.068c.9.109.4-1.346.257-1.513S13855.482,1736.372,13855.582,1736.852Z" fill="none" stroke="#fdfdfd" stroke-linecap="round" stroke-linejoin="round" stroke-width="0.336"/><path d="M13862.652,1738.155l-1.406-13.59a.7.7,0,0,1,.747-.6c.7-.014,6.744.406,6.744.406l.01.206-4.886.592,4.653,1.074-.04.261-4.529.419,4.584.716.01.206-4.423.517,4.429.669.016.309-4.371.569,4.536.768.015.31-4.419.622,4.474.511.014.311-4.567.785,4.645.866.021.412-4.783.587.056,3.079" fill="none" stroke="#fdfdfd" stroke-linecap="round" stroke-linejoin="round" stroke-width="0.336"/><path d="M13862.975,1725.051s-.435.126-.3,1.411.812,8.441.812,8.441" fill="none" stroke="#fdfdfd" stroke-linecap="round" stroke-linejoin="round" stroke-width="0.336"/><path d="M13878.118,1719.353s-.53,9.586,1.635,25.316c1.3,9.464,4.614,39.433-12.241,94.406,0,0-51.827,13.108-67.135,3.759a388.275,388.275,0,0,0,24.877-46.842c7.36-16.491,12.57-32.962,14.812-47.154,1.93-12.22,1.678-20.974.257-26.441s-3.405-7.148-3.344-14.382" fill="none" stroke="#bf6e4b" stroke-linecap="round" stroke-linejoin="round" stroke-width="0.346" fill-rule="evenodd" opacity="0.41" style="mix-blend-mode:multiply;isolation:isolate"/><line x1="6.776" transform="translate(13868.923 1738.768)" fill="none" stroke="#bf6e4b" stroke-linecap="round" stroke-linejoin="round" stroke-width="0.346" opacity="0.41" style="mix-blend-mode:multiply;isolation:isolate"/><line x1="6.776" transform="translate(13869.134 1742.151)" fill="none" stroke="#bf6e4b" stroke-linecap="round" stroke-linejoin="round" stroke-width="0.346" opacity="0.41" style="mix-blend-mode:multiply;isolation:isolate"/><line x1="1.638" transform="translate(13844.154 1742.151)" fill="none" stroke="#bf6e4b" stroke-linecap="round" stroke-linejoin="round" stroke-width="0.346" opacity="0.41" style="mix-blend-mode:multiply;isolation:isolate"/><line x1="1.492" transform="translate(13843.877 1738.768)" fill="none" stroke="#bf6e4b" stroke-linecap="round" stroke-linejoin="round" stroke-width="0.346" opacity="0.41" style="mix-blend-mode:multiply;isolation:isolate"/><path d="M13833.706,1690.622s2.741-8.993,6.69-14.942,8.909-19.932,8.909-19.932" fill="none" stroke="#bf6e4b" stroke-linecap="round" stroke-linejoin="round" stroke-width="0.346" fill-rule="evenodd" opacity="0.41" style="mix-blend-mode:multiply;isolation:isolate"/><path d="M13851.963,1655.274s-8.477,16.1,6.5,16.891c9.621.506,20.532-2.45,26.234-15.18" fill="none" stroke="#bf6e4b" stroke-linecap="round" stroke-linejoin="round" stroke-width="0.346" fill-rule="evenodd" opacity="0.41" style="mix-blend-mode:multiply;isolation:isolate"/><path d="M13889.905,1658.575a102.587,102.587,0,0,1-15.078,12.434,19.036,19.036,0,0,0-6.191,7.613c-1.674,3.559-3.391,8.235-2.7,12.675" fill="none" stroke="#bf6e4b" stroke-linecap="round" stroke-linejoin="round" stroke-width="0.346" fill-rule="evenodd" opacity="0.41" style="mix-blend-mode:multiply;isolation:isolate"/><path d="M13897.157,1936.366c4.329,3.116-3.808,18.323-11.337,26.092s-26.652,7.345-30.46,6.711-3.144-6.224,1.269-12.2c12.689-7.413,15.873-17.418,15.873-17.418S13892.829,1933.245,13897.157,1936.366Z" fill="#edc298" fill-rule="evenodd"/><path d="M13871.589,1964.905c9.053-2.309,15.606-14.53,19.883-18.737,6.739-6.614-4.455-17.123,5.679-9.815,4.327,3.116-3.809,18.323-11.339,26.092s-26.651,7.345-30.46,6.711-3.65-4.5.771-10.475C13857.438,1957.927,13867.091,1966.068,13871.589,1964.905Z" fill="#414141" fill-rule="evenodd"/><path d="M13965.24,1948.346s3.843,6.939,5.566,8.53,3.96,5.2,2.01,6.766c-6.13,7.827-23.737,7.954-27.955,6.343-4.4-1.662,3.987-20.7,3.987-20.7Z" fill="#edc298" fill-rule="evenodd"/><path d="M13967.183,1962.043s2.868-6.706,5.075-3.442c1.182,1.734,2.331,2.723.313,5.535-4.814,6.7-23.852,8.175-27.727,5.871-2.69-1.594-.792-6.647-.792-6.647Z" fill="#414141" fill-rule="evenodd"/><path d="M13879.529,1958.389c-3.114-2.16-20.865-2.613-22.9-.368s-4.37,5.125-3.6,6.369c1.717,3.594,15.4,2.96,20.5,1.459s20.148-22.231,20.148-22.231S13881.251,1957.657,13879.529,1958.389Z" fill="#606060" fill-rule="evenodd"/><path d="M13971.5,1957.534c-2.7-1.95-18.542.693-21.512,1.987s-5.821,2.854-6.109,4.618c-.339,2.029-.516,4.935,12.793,3.3,16.229-2,16.152-8,16.152-8a10.332,10.332,0,0,0-1.324-1.911Z" fill="#606060" fill-rule="evenodd"/><path d="M13963.7,1730.183c19.824,18.45,14.864,48.207,15.052,53.391.241,6.766,2.919,82.748,4,102.648,1.07,19.584-2.433,54.678-7.556,61.318-6.219,8.059-39.483,3.763-41.4-1.925,3.481-9.371,8.121-67.66,8.038-103.121,0-9.033.442-55.055.442-55.055-.711.5.508-.088,0,0,.16,4.909-6.207,31.923-7.146,35.1-1.4,4.784-10.8,40.4-13.033,50.2-4.133,18.149-9.095,45.67-12.526,68.34-23.661,15.917-41.581,3.506-42.114,2.169s3.364-19.582,8.169-46.242c7.228-34.081,18.046-68.247,27.952-105.59,9.319-35.132,12.209-54.018,12.209-54.018S13959.877,1725.674,13963.7,1730.183Z" fill="#f1b6b6" fill-rule="evenodd"/><path d="M13908.8,1699.9c-1.548,4.228-2.9,8.1-4.136,11.612-6.337,18.035-9.313,26.39-16.9,23.526-9.063-3.418-7.843-5-9.812-9.491-1.084-2.471,2.042-11.916,5.083-19.914,2.473-6.531,4.887-12.095,4.887-12.095C13891.594,1686.93,13908.8,1699.9,13908.8,1699.9Z" fill="#edc298"/><path d="M13908.8,1699.9c-1.548,4.228-2.9,8.1-4.136,11.612a33.454,33.454,0,0,0-5.783-7.775c-5.142-4.988-15.841,1.879-15.841,1.879,2.473-6.531,4.887-12.095,4.887-12.095C13891.594,1686.93,13908.8,1699.9,13908.8,1699.9Z" fill="#c37e57" opacity="0.5" style="isolation:isolate"/><path d="M13912.816,1706.467s2.764,20.347,2.407,30.915c0,0,29.978,7.42,51-3.061,0,0-2.291-8.495,4.655-29.447C13974.423,1694.173,13915.855,1697.434,13912.816,1706.467Z" fill="#f8e6e6"/><path d="M13955.862,1648.957s-23.793-9.006-37.878.129-22.471,11.735-27.268,26.738a120.06,120.06,0,0,0-4.725,16.92s12.256,10.795,24.62,6.845c0,0,3.6,22.307,30.19,23.007s32.821-21.047,33.649-31.778l.261-.52a23.153,23.153,0,0,0,10.116-3.91c5.857-4.04,6.7-8.063,6.7-8.063s-3.784-6.572-12.387-16.41C13971.711,1653.419,13955.862,1648.957,13955.862,1648.957Z" fill="#f8e6e6"/><path d="M13912.816,1706.467s-8.83-16.539-5.42-30.643C13907.39,1675.843,13908.91,1697.563,13912.816,1706.467Z" fill="#f1b6b6"/><path d="M13900.86,1676.437s2.955,11.194,6.223,11.478S13907.288,1690.7,13900.86,1676.437Z" fill="#f1b6b6"/><path d="M13889.405,1689.918s6.721,5.753,19.917,4.865c0,0,.749.142-.878.546S13895.922,1697.314,13889.405,1689.918Z" fill="#f1b6b6"/><path d="M13974.385,1688.083s8.538-4.447,10.837-9c0,0,.43,3.574-4.3,6.416S13974.385,1688.083,13974.385,1688.083Z" fill="#f1b6b6"/><path d="M13974.137,1680.088a18.855,18.855,0,0,0,3.442-3.785s.515,3.386-3.947,4.916Z" fill="#f1b6b6"/><path d="M13948.262,1643.979c-.248,4.463.523,8.262.592,11.03.213,9.725,5.205,35.525-9.294,39.509s-19.146-25.078-16.006-37.2c1.9-7.314,2.609-16.76,2.874-23.107.17-4.175.148-7.01.148-7.01l.928-11.736s29.489-13.207,25.816-3.481C13950.68,1618.958,13948.894,1632.736,13948.262,1643.979Z" fill="#edc298"/><path d="M13954.03,1611.121c-2.63,6.967-5.116,21.239-5.757,32.482-3.558.317-7.174-4.1-14.494-9.062-4.236-2.875-6.329-1.928-7.364-.337.17-4.175.15-7.01.15-7.01l.928-11.742S13957.709,1601.379,13954.03,1611.121Z" fill="#c57c59"/><path d="M13925.326,1576.96s-8.256.145-11.653,18.489-2.106,28.158,12.5,31.736c16.837,4.119,25.121-18.616,27.662-18.31s5.74-1.546,6.157-8.083-4.241-9.917-5.849-3.793-1.918,6.824-1.918,6.824l-.631-9.725s-1.429,2.061-2.076,2.045-.438-4.863-1.591-1.011-1.121,2.554-3.007-2.278-7.447-2.864-14.372-10.164S13925.326,1576.96,13925.326,1576.96Z" fill="#edc298"/><path d="M13939.294,1558.047s-21.921-1.447-27.057,18.438.593,24.129.593,24.129,2.4-20.782,11.778-22.964a33.85,33.85,0,0,0,13,10.77c8.554,3.968,7.469,8.081,8.119,11,0,0-.15,1.316,1.371-1.175a25.531,25.531,0,0,0,1.444-3.247c.332-1.089-.25,2.307.727,2.174s2.192-2.424,2.192-2.424.021,9.539.555,9.613,1.8-10.033,4.793-9.952,3.275,4.984,3.1,7.5a9.592,9.592,0,0,1-6.027,7.488,110.329,110.329,0,0,0-4.692,24.315s17.04-2.1,19.725-16.687a14.526,14.526,0,0,0-1.789-5.748c-1.628-2.83,1.73-19.6.839-27.141S13962.55,1559.392,13939.294,1558.047Z" fill="#3b3328"/><path d="M13935.445,1563.874a33.8,33.8,0,0,0,5.889,4.518c2.522,1.3,10.163,4.26,11.3,9.851s1.768,8.56-.41,15.564c0,0,3.837-7.983,1.658-15.642s-9.207-8.976-12.13-10.507S13935.445,1563.874,13935.445,1563.874Z" fill="#bbb"/><path d="M13931.172,1562.622s-5.076,3.478-6.043,7.691.053,6.44,2.43,10.11c0,0-1.93-6.626-.418-10.736A25.859,25.859,0,0,1,13931.172,1562.622Z" fill="#bbb"/><path d="M13918.831,1566.125s-.69-3.425-3.958-.8-1.612,3.273-1.612,3.273-2.628-.316-3.411,1.606a2.357,2.357,0,0,0,.9,2.933s-2.86.445-1.959,2.254,2.784,1.711,5.388,1.142a1.827,1.827,0,0,0,1.76.864c1.1-.216,4.635-2.342,5.333-5.675,0,0,.054-.684-1-.731,0,0,2.045-.939,2.041-2.315s-1.093-3.4-2.381-3.255S13918.831,1566.125,13918.831,1566.125Z" fill="#faf9e7"/><path d="M13913.544,1568.794a4.083,4.083,0,0,1,1.226,1.282,16.958,16.958,0,0,1,1.866-.966,9.989,9.989,0,0,1,2.063-2.817,10.286,10.286,0,0,0-1.7,2.985,1.043,1.043,0,0,1,.722,1.178,4.12,4.12,0,0,1,2.212.433,4.264,4.264,0,0,0-2.245.024s-.058,1.675-3.117,3.252a4.429,4.429,0,0,0-.4,2.087,2.76,2.76,0,0,1-.169-1.9,1.157,1.157,0,0,1-1-1.071c-.414-.476-1.8-.054-1.8-.054a2.2,2.2,0,0,1,1.761-.5c.018-.621.2-1.425,1.591-2.55a8.064,8.064,0,0,0-1.009-1.383Z" fill="#e34b28"/><path d="M13952.7,1607.257s-2.758-.8-3.5.75.127,2.563.774,2.506a3.115,3.115,0,0,0,.958-.162s-1.053,2.04.4,2.274a1.86,1.86,0,0,0,2.3-1.114s.125,1.082,1.044.917,2.154-.883,2.157-2.1-1.486-1.841-1.854-1.927A18.6,18.6,0,0,1,13952.7,1607.257Z" fill="#faf9e7"/><path d="M13953.765,1606.2a1.757,1.757,0,1,1-1.54,1.7A1.628,1.628,0,0,1,13953.765,1606.2Z" fill="#e34b28"/><path d="M13953.624,1611.108a8.264,8.264,0,0,0-.074-1.8c-.138-.188-1.26-.5-2.488.831a8.2,8.2,0,0,1,1.621-1.64c.45-.149,1.359.623,1.359.623A4.362,4.362,0,0,1,13953.624,1611.108Z" fill="#e34b28"/><path d="M13919.865,1591.771s2.314-2.082,6.128-.139c0,0,.688.9,1.029-.722S13921.952,1589.319,13919.865,1591.771Z" fill="#3b3328"/><path d="M13920.115,1597.486s1.55-2.1,4.091-.188c0,0,.455.892.677-.734S13921.528,1595.029,13920.115,1597.486Z" fill="#3b3328"/><path d="M13936.665,1598.975s-1.453-2.177-4.08-.4c0,0-.5.87-.673-.772S13935.388,1596.448,13936.665,1598.975Z" fill="#3b3328"/><path d="M13938.535,1592.263s-2.2-2.2-6.112-.462c0,0-.718.866-1-.757S13936.579,1589.715,13938.535,1592.263Z" fill="#3b3328"/><path d="M13927.887,1596.349a10.545,10.545,0,0,1-3.181,6.589c-2.626,2.5,2.1,2.048,3.359.9.627-.567-2.871.941-2.375-.7.059-.195.77-1.249,1.075-1.815A10.15,10.15,0,0,0,13927.887,1596.349Z" fill="#c37e57"/><path d="M13927.014,1607.523a6.842,6.842,0,0,0,6.57-2.537s.764-.675-.9-1.277c-1.228-.439.807-1.421,2.379.48,1.4,1.694.259,1.24-.184.992-1.092-.619-2.567,4.076-7.962,2.949C13926.92,1608.112,13925.886,1607.529,13927.014,1607.523Z" fill="#c37e57"/><path d="M13962.286,1674.9s-11.8,22.282-17.7,22.982-10.55,2.435-20.615-6.375-4.017-44.113-4.017-44.113,1.253-8.866,1.91-10.972,4.563-2.218,4.563-2.218l-.482,3.284h0a5.432,5.432,0,0,1,.532,1.7l1.122,3.606c2.244,5.554.632,18.278.632,18.278l-.166,4.99-2.331,15.415,5.918,5.575,3.569-6.511s.318-8.847.034-11.978.475-3.942.475-3.942.015-4.179.569-11.057,12.105-13.076,12.105-13.076l.513-4.974,2.715,1.169c2.833.627,2.338,7.137,2.42,8.3-.071,1.16.7,3.093.291,4.179C13956.476,1650.9,13962.286,1674.9,13962.286,1674.9Z" fill="#f8e6e6"/><path d="M13927.806,1649.587a18.181,18.181,0,0,0-1.936-6.807,24.286,24.286,0,0,1-2.209-6.356,9.867,9.867,0,0,0,.992,1.905l-.02.023,1.83,3.89C13927.167,1643.733,13927.823,1643.842,13927.806,1649.587Z" fill="#f1b6b6"/><path d="M13936,1658.4s1.639-8.216,5.828-11.64c3.591-2.935,8.673-7.505,8.673-7.505s-7.508,4.314-10.286,7.56C13936.714,1650.909,13936,1651.44,13936,1658.4Z" fill="#f1b6b6"/><path d="M13919.775,1648.729l6.536,12.432.484,3.112-.214.547S13920.086,1652.846,13919.775,1648.729Z" fill="#f1b6b6"/><path d="M13938.6,1663.206s6.965-4.1,15.747-14.035c0,0,.654.654-1.493,3.157a124.041,124.041,0,0,1-14.766,12.769A2.4,2.4,0,0,1,13938.6,1663.206Z" fill="#f1b6b6"/><path d="M13897.024,1730.547a18.063,18.063,0,0,0-13-7.852s9.747-1.292,11.471,3.108S13897.905,1728.236,13897.024,1730.547Z" fill="#c37e57" opacity="0.5" style="isolation:isolate"/><path d="M13973.063,1675.69s1.472,16.087-1.286,27.906C13971.773,1703.591,13977.47,1689.653,13973.063,1675.69Z" fill="#f1b6b6"/><path d="M13973.136,1698.5" fill="#f8e6e6"/><path d="M14005.628,1713.625c-1.913,11.8-28.933,28.613-28.933,28.613l-5.665-8.947c7.038-15.317,12.96-23.556,12.96-23.556l-7.927-11.233-2.229-3.158.876-5.044a24.537,24.537,0,0,0,15.7-9.515c3.345,4.3,6.007,7.915,8.117,11.014C14006.617,1703.7,14006.546,1707.945,14005.628,1713.625Z" fill="#edc298"/><path d="M13977.242,1753.694c.16,3.908.468,7.048-.387,7.069-4.146.1-3.416-8.5-3.488-9.064-.619,3.856-.515,11.519-3.331,11.1-1.854-.273-1.7-6.34-1.344-10.749-.484,3.381-1.356,7.385-2.776,7.242-2.068-.206-1.31-8.109-.248-14.037a10.463,10.463,0,0,0,.156-1.844,16.212,16.212,0,0,0-.611-4.185l0,0a20.967,20.967,0,0,0-1.436-3.807l2.446-1.094-.577-2.741a8.117,8.117,0,0,1,5.389,1.709l8.719,6.952C13977.086,1742.992,13977.053,1748.916,13977.242,1753.694Z" fill="#edc298"/><path d="M13998.526,1691.8c-2.389-.1-9.6-1.453-12.99-1.242-4.119.257-9.473,7.945-9.473,7.945l-2.229-3.158.876-5.044a24.537,24.537,0,0,0,15.7-9.515C13993.754,1685.083,13996.416,1688.7,13998.526,1691.8Z" fill="#c37e57" opacity="0.5" style="isolation:isolate"/><path d="M13984.8,1710.081s3.782-3.936,11.815-1.692C13996.611,1708.389,13987.985,1702.68,13984.8,1710.081Z" fill="#c37e57" opacity="0.5" style="isolation:isolate"/><path d="M13976.855,1760.763c-4.146.1-3.416-8.5-3.488-9.064-.619,3.856-.515,11.519-3.331,11.1-1.854-.273-1.7-6.34-1.344-10.749-.484,3.381-1.356,7.385-2.776,7.242-2.068-.206-1.31-8.109-.248-14.037a10.463,10.463,0,0,0,.156-1.844,16.212,16.212,0,0,0-.611-4.185c.06.1,1.192,2.075.813,7.961-.385,6.055-1.458,11.074.074,11.074,1.487,0,2.592-6.569,2.658-6.977,0-.008,0-.013,0-.017,0,.026,0,.148-.013.35v.021c-.051,1.878-.186,10.172,1.525,10.227,1.878.067,2.417-8.08,3.091-10.429.024-.068.042-.131.063-.19a.153.153,0,0,0,0,.03,39.365,39.365,0,0,0,.834,4.863c.581,2.315,2.258,4.766,2.7,3.86s.033-6.307.27-6.307C13977.4,1757.6,13977.71,1760.742,13976.855,1760.763Z" fill="#c37e57" fill-rule="evenodd" opacity="0.5" style="isolation:isolate"/><path d="M13973.753,1748.481c-.163.1,1.353.257,1.739.643S13975.17,1747.58,13973.753,1748.481Z" fill="#c37e57" fill-rule="evenodd" opacity="0.5" style="isolation:isolate"/><path d="M13968.708,1748.012c-.163.1,1.352.257,1.738.644S13970.124,1747.111,13968.708,1748.012Z" fill="#c37e57" fill-rule="evenodd" opacity="0.5" style="isolation:isolate"/><path d="M13897.753,1729.222l9.527,19.017-4.815,11.417s-26.64-17.472-24.615-37.043Z" fill="#edc298"/><path d="M13915.435,1737.009a2.541,2.541,0,0,1-.155.387l-.056-.012A3.755,3.755,0,0,1,13915.435,1737.009Z" fill="#edc298"/><path d="M13920.021,1752.183l-4-.446a.471.471,0,0,0,.051.012l.008,0c.763.165,6.6,1.478,8.222,2.649,1.735,1.254.094,3.187-3.187,2.219l-4.6-1.019c1.769.416,6.676,1.755,6.045,3.578-.775,2.219-6.23,0-7.73,0-1.015,0-.158-.293-1.666-.243l-1.177-.223c-.716.021-.517.8-.782,1.3-.821,1.549-6.269,1.41-8.745-.354l4.814-11.886c.27.37,6.5-7.077,7.556-9.393.064-.136.25-.137.483-.077a2.042,2.042,0,0,1,1.5,1.855l.053.772h0l-1.084,2.945s-.076,3.482,2.822,4.543,5.285,1.183,6.251,2.248S13925.48,1753.678,13920.021,1752.183Z" fill="#edc298"/><path d="M13921.117,1756.621l-4.6-1.019c1.769.416,6.676,1.755,6.045,3.578-.775,2.219-6.25.245-7.73,0a12.1,12.1,0,0,0-3.245-.551c2.8-.358,5.226.695,7.837,1.027s2.653-.379,2.459-1.368c-.185-.956-5.593-2.7-5.964-2.821a.052.052,0,0,1,.021,0c.476.051,4.831.569,6.4.91,1.668.362,2.448-.249,1.813-1.546-.6-1.212-7.245-2.879-8.075-3.082.763.165,6.6,1.478,8.222,2.649C13926.04,1755.656,13924.4,1757.589,13921.117,1756.621Z" fill="#c37e57" opacity="0.5" style="isolation:isolate"/><path d="M13920.021,1752.183l-4-.446a.107.107,0,0,0-.025-.005c2.944-.278,8.4,1.007,8.715-.345s-3.838-2-6.449-2.8-2.83-2.818-2.83-4.611a9.015,9.015,0,0,1,1.115-3.754l.318.7-1.084,2.945s-.076,3.482,2.822,4.543,5.285,1.183,6.251,2.248S13925.48,1753.678,13920.021,1752.183Z" fill="#c37e57" opacity="0.5" style="isolation:isolate"/><path d="M13912.478,1750.056c.083.175.424-1.309.854-1.645S13911.758,1748.54,13912.478,1750.056Z" fill="#c37e57" fill-rule="evenodd" opacity="0.5" style="isolation:isolate"/><path d="M13911.078,1754.883c.082.175.422-1.309.853-1.645S13910.358,1753.367,13911.078,1754.883Z" fill="#c37e57" fill-rule="evenodd" opacity="0.5" style="isolation:isolate"/><path d="M13955.3,1941.792c11,.233,27.549-13.409,23.666-8.005-20.3,16.991-44.226,6.1-44.226,6.1C13937.324,1940.633,13946.707,1941.61,13955.3,1941.792Z" fill="#414141" fill-rule="evenodd"/><path d="M13892.8,1935.325c-7.191,3.383-22.76-.533-23.638.791-.29.422,1.269,1.019,6.346,1.89,19.253,3.315,32.326-10.208,32.326-10.208S13902.243,1930.906,13892.8,1935.325Z" fill="#414141" fill-rule="evenodd"/><path d="M13915.786,1737.4s29.409,7.133,47.986-1.979l1.3,3.345s-12.459,9.6-49.757-.462Z" fill="#f1b6b6" style="mix-blend-mode:multiply;isolation:isolate"/><path d="M13930.955,1838.026s8.11-36.908,9.812-51.578l-1.7-2.02s7.551-.106,6.806,1.807-3.716,14.14-3.716,14.14l.121-12.936-.354,3.715S13936.565,1819.337,13930.955,1838.026Z" fill="#f1b6b6" style="mix-blend-mode:multiply;isolation:isolate"/><circle cx="41.572" cy="41.572" r="41.572" transform="translate(13735.613 1854.676)" fill="#afce64"/><path d="M13775.851,1899.72v-5.868a6.455,6.455,0,0,0-6.438-6.438h0a6.457,6.457,0,0,0-6.438,6.438v6.563Zm-6.438-22.879h0a3.316,3.316,0,0,1,3.307,3.307v2.356a3.317,3.317,0,0,1-3.307,3.308h0a3.316,3.316,0,0,1-3.307-3.308v-2.356A3.316,3.316,0,0,1,13769.412,1876.841Z" fill="#fff" stroke="#333" stroke-linecap="round" stroke-linejoin="round" stroke-width="0.909" fill-rule="evenodd"/><path d="M13796.055,1896.144v-2.292a6.455,6.455,0,0,0-6.437-6.438h0a6.457,6.457,0,0,0-6.438,6.438v8.368Zm-6.437-19.3h0a3.316,3.316,0,0,1,3.307,3.307v2.356a3.317,3.317,0,0,1-3.307,3.308h0a3.319,3.319,0,0,1-3.309-3.308v-2.356A3.319,3.319,0,0,1,13789.617,1876.841Z" fill="#fff" stroke="#333" stroke-linecap="round" stroke-linejoin="round" stroke-width="0.909" fill-rule="evenodd"/><path d="M13787.082,1900.9v-7.348a7.588,7.588,0,0,0-7.568-7.568h0a7.589,7.589,0,0,0-7.566,7.568v7.348Zm-7.568-27.343h0a3.9,3.9,0,0,1,3.889,3.887v2.769a3.9,3.9,0,0,1-3.889,3.888h0a3.9,3.9,0,0,1-3.887-3.888v-2.769A3.9,3.9,0,0,1,13779.514,1873.558Z" fill="#fff" stroke="#333" stroke-linecap="round" stroke-linejoin="round" stroke-width="0.909" fill-rule="evenodd"/><path d="M13771.947,1904.328h11.177c4.967,0,4.967-6.209,0-6.209h-5.525c-3.7,0-4.376-2.484-8.49-2.484h-2.582c-1.679,0-4.832.647-8.062,3.876-1.862,1.862-3.728,3.575-3.728,3.575l10.11,9.935a2.951,2.951,0,0,1,2.483-1.242h14.487c7.084,0,12.759-7.611,13.724-8.693a66.325,66.325,0,0,0,6.21-9.935c-.72-.97-2-1.776-4.3-1.242a5.5,5.5,0,0,0-3.082,1.964,19.3,19.3,0,0,1-6.573,5.183l-1.466.505" fill="#ccc"/><path d="M13771.947,1904.328h11.177c4.967,0,4.967-6.209,0-6.209h-5.525c-3.7,0-4.376-2.484-8.49-2.484h-2.582c-1.679,0-4.832.647-8.062,3.876-1.862,1.862-3.728,3.575-3.728,3.575l10.11,9.935a2.951,2.951,0,0,1,2.483-1.242h14.487c7.084,0,12.759-7.611,13.724-8.693a66.325,66.325,0,0,0,6.21-9.935c-.72-.97-2-1.776-4.3-1.242a5.5,5.5,0,0,0-3.082,1.964,19.3,19.3,0,0,1-6.573,5.183l-1.466.505" fill="none" stroke="#333" stroke-linecap="round" stroke-linejoin="round" stroke-width="0.909"/><rect width="7.025" height="21.462" rx="3.513" transform="matrix(0.707, -0.707, 0.707, 0.707, 13747.433, 1905.382)" fill="#ccc"/><rect width="7.025" height="21.462" rx="3.513" transform="matrix(0.707, -0.707, 0.707, 0.707, 13747.433, 1905.382)" fill="none" stroke="#333" stroke-linecap="round" stroke-linejoin="round" stroke-width="0.909"/><circle cx="41.572" cy="41.572" r="41.572" transform="translate(13696.78 1742.141)" fill="#a3d3f2"/><rect width="39.582" height="18.98" transform="translate(13718.561 1773.354)" fill="#ccc" stroke="#333" stroke-linecap="round" stroke-linejoin="round" stroke-width="0.909"/><path d="M13718.561,1792.334h27.451a13.471,13.471,0,0,0,9.859-4.544v-18.979a13.6,13.6,0,0,1-10.033,4.543h-27.277v18.98Z" fill="#fff" stroke="#333" stroke-linecap="round" stroke-linejoin="round" stroke-width="0.909"/><path d="M13738.352,1789.02c2.783,0,5.038-2.765,5.038-6.176s-2.255-6.177-5.038-6.177-5.038,2.765-5.038,6.177,2.256,6.176,5.038,6.176Z" fill="#ccc" stroke="#333" stroke-linecap="round" stroke-linejoin="round" stroke-width="0.909"/><path d="M13725.77,1791.5a5.978,5.978,0,0,0-6.213-5.713" fill="#fff" stroke="#333" stroke-linecap="round" stroke-linejoin="round" stroke-width="0.909"/><path d="M13748.672,1791.17c0-3.155,2.772-6.463,6.2-6.463" fill="#fff" stroke="#333" stroke-linecap="round" stroke-linejoin="round" stroke-width="0.909"/><path d="M13725.77,1774.19a5.978,5.978,0,0,1-6.213,5.713" fill="#fff" stroke="#333" stroke-linecap="round" stroke-linejoin="round" stroke-width="0.909"/><path d="M13748.662,1774.19c0,3.155,3.106,3.433,6.213,2.477" fill="#fff" stroke="#333" stroke-linecap="round" stroke-linejoin="round" stroke-width="0.909"/><path d="M13728.262,1784.041a1.2,1.2,0,1,0-1.3-1.2,1.254,1.254,0,0,0,1.3,1.2Z" fill="#ccc" stroke="#333" stroke-linecap="round" stroke-linejoin="round" stroke-width="0.909"/><path d="M13748.423,1784.041a1.2,1.2,0,1,0-1.3-1.2,1.253,1.253,0,0,0,1.3,1.2Z" fill="#ccc" stroke="#333" stroke-linecap="round" stroke-linejoin="round" stroke-width="0.909"/><rect width="39.582" height="6.281" transform="translate(13718.561 1792.334)" fill="#ccc" stroke="#333" stroke-linecap="round" stroke-linejoin="round" stroke-width="0.909"/><line x1="10.065" transform="translate(13748.078 1794.742)" fill="#fff" stroke="#333" stroke-linecap="round" stroke-linejoin="round" stroke-width="0.909"/><line x1="3.82" transform="translate(13741.688 1794.742)" fill="#fff" stroke="#333" stroke-linecap="round" stroke-linejoin="round" stroke-width="0.909"/><line x1="1.116" transform="translate(13721.842 1796.531)" fill="#fff" stroke="#333" stroke-linecap="round" stroke-linejoin="round" stroke-width="0.909"/><circle cx="41.572" cy="41.572" r="41.572" transform="translate(14041.342 1828.113)" fill="#ce809d"/><path d="M14078.056,1885.942h9.914c4.406,0,4.406-5.508,0-5.508h-4.9c-3.281,0-3.882-2.2-7.532-2.2h-2.29c-1.489,0-4.286.574-7.15,3.438-1.65,1.651-3.307,3.171-3.307,3.171l8.968,8.812a2.621,2.621,0,0,1,2.2-1.1h12.849c6.284,0,11.317-6.751,12.175-7.711a59,59,0,0,0,5.507-8.812c-.638-.861-1.777-1.576-3.817-1.1a4.881,4.881,0,0,0-2.733,1.742,17.125,17.125,0,0,1-5.83,4.6l-1.3.449" fill="#ccc"/><path d="M14078.056,1885.942h9.914c4.406,0,4.406-5.508,0-5.508h-4.9c-3.281,0-3.882-2.2-7.532-2.2h-2.29c-1.489,0-4.286.574-7.15,3.438-1.65,1.651-3.307,3.171-3.307,3.171l8.968,8.812a2.621,2.621,0,0,1,2.2-1.1h12.849c6.284,0,11.317-6.751,12.175-7.711a59,59,0,0,0,5.507-8.812c-.638-.861-1.777-1.576-3.817-1.1a4.881,4.881,0,0,0-2.733,1.742,17.125,17.125,0,0,1-5.83,4.6l-1.3.449" fill="none" stroke="#333" stroke-linecap="round" stroke-linejoin="round" stroke-width="1.363"/><rect width="6.231" height="19.037" rx="3.116" transform="translate(14056.313 1886.876) rotate(-45)" fill="#ccc"/><rect width="6.231" height="19.037" rx="3.116" transform="translate(14056.313 1886.876) rotate(-45)" fill="none" stroke="#333" stroke-linecap="round" stroke-linejoin="round" stroke-width="1.363"/><path d="M14082.284,1849.226l3.962,8.028,8.859,1.287-6.411,6.249,1.514,8.823-7.924-4.166-7.924,4.166,1.513-8.823-6.41-6.249,8.859-1.287Z" fill="#fff" stroke="#333" stroke-linecap="round" stroke-linejoin="round" stroke-width="1.363" fill-rule="evenodd"/><line y2="3.327" transform="translate(14082.284 1840.171)" fill="#fff" stroke="#333" stroke-linecap="round" stroke-linejoin="round" stroke-width="1.363"/><line x2="1.53" y2="1.466" transform="translate(14064.481 1850.225)" fill="#fff" stroke="#333" stroke-linecap="round" stroke-linejoin="round" stroke-width="1.363"/><circle cx="41.572" cy="41.572" r="41.572" transform="translate(14068.07 1690.188)" fill="#c27b53"/><line x2="44.478" transform="translate(14087.403 1749.239)" fill="#fff" stroke="#333" stroke-linecap="round" stroke-linejoin="round" stroke-width="0.909"/><path d="M14089.818,1736.59h5.945v12.563h-5.945V1736.59Z" fill="#fff" stroke="#333" stroke-linecap="round" stroke-linejoin="round" stroke-width="0.909"/><path d="M14101.052,1725.37H14107v23.783h-5.946V1725.37Z" fill="#fff" stroke="#333" stroke-linecap="round" stroke-linejoin="round" stroke-width="0.909"/><path d="M14112.286,1735.388h5.946v13.765h-5.946v-13.765Z" fill="#fff" stroke="#333" stroke-linecap="round" stroke-linejoin="round" stroke-width="0.909"/><path d="M14123.521,1730.178h5.945v18.974h-5.945v-18.974Z" fill="#fff" stroke="#333" stroke-linecap="round" stroke-linejoin="round" stroke-width="0.909"/><path d="M14092.791,1722.541a3.429,3.429,0,1,0,3.43,3.429,3.43,3.43,0,0,0-3.43-3.429Zm11.234-11.409a3.43,3.43,0,1,0,3.43,3.43,3.431,3.431,0,0,0-3.43-3.43Zm11.233,10.2a3.429,3.429,0,1,0,3.431,3.429,3.429,3.429,0,0,0-3.431-3.429Zm11.234-5.189a3.43,3.43,0,1,0,3.43,3.43,3.43,3.43,0,0,0-3.43-3.43Z" fill="#ccc" stroke="#333" stroke-linecap="round" stroke-linejoin="round" stroke-width="0.909"/><line y1="5.231" x2="5.301" transform="translate(14095.859 1717.624)" fill="#fff" stroke="#333" stroke-linecap="round" stroke-linejoin="round" stroke-width="0.909"/><line x2="5.351" y2="4.898" transform="translate(14107.121 1717.365)" fill="#fff" stroke="#333" stroke-linecap="round" stroke-linejoin="round" stroke-width="0.909"/><line y1="1.96" x2="4.032" transform="translate(14118.636 1721.343)" fill="#fff" stroke="#333" stroke-linecap="round" stroke-linejoin="round" stroke-width="0.909"/><circle cx="41.719" cy="41.719" r="41.719" transform="translate(13743.282 1602.448)" fill="#25847b"/><rect width="32.34" height="54.192" rx="1.588" transform="translate(13769.978 1615.417)" fill="#fff" stroke="#333" stroke-linecap="round" stroke-linejoin="round" stroke-width="0.549"/><path d="M0,0H32.34a0,0,0,0,1,0,0V5.623a1.588,1.588,0,0,1-1.588,1.588H1.588A1.588,1.588,0,0,1,0,5.623V0A0,0,0,0,1,0,0Z" transform="translate(13769.978 1662.398)" fill="#ccc" stroke="#333" stroke-linecap="round" stroke-linejoin="round" stroke-width="0.549"/><path d="M0,0H32.34a0,0,0,0,1,0,0V4.312A1.588,1.588,0,0,1,30.752,5.9H1.588A1.588,1.588,0,0,1,0,4.312V0A0,0,0,0,1,0,0Z" transform="translate(13802.317 1621.535) rotate(180)" fill="#ccc" stroke="#333" stroke-linecap="round" stroke-linejoin="round" stroke-width="0.549"/><circle cx="1.311" cy="1.311" r="1.311" transform="translate(13784.836 1664.802)" fill="#333"/><rect width="25.33" height="30.687" transform="translate(13773.828 1625.979)" fill="#ccc"/><path d="M13779.827,1636.456h0a3.43,3.43,0,0,1,3.421,3.42v2.438a3.43,3.43,0,0,1-3.421,3.421h0a3.43,3.43,0,0,1-3.42-3.421v-2.438A3.43,3.43,0,0,1,13779.827,1636.456Z" fill="#fff" stroke="#333" stroke-linecap="round" stroke-linejoin="round" stroke-width="0.492" fill-rule="evenodd"/><path d="M13778.645,1647.392h10.512a1.067,1.067,0,0,0,.756-.314l4.651-4.651a1.831,1.831,0,0,1,2.588,0h0a1.831,1.831,0,0,1,0,2.588l-5.421,5.42a5.061,5.061,0,0,1-3.578,1.482h-2.848V1662.4h-11.683v-4.8l-1.636-1.234v-3.644a5.327,5.327,0,0,1,5.327-5.326Z" fill="#fff" stroke="#333" stroke-linecap="round" stroke-linejoin="round" stroke-width="0.492" fill-rule="evenodd"/><path d="M13779.508,1657.292" fill="#fff" stroke="#333" stroke-linecap="round" stroke-linejoin="round" stroke-width="0.492" fill-rule="evenodd"/><path d="M13771.986,1654.251v2.068a2.953,2.953,0,0,0,2.954,2.953h3.131a1.756,1.756,0,0,0,1.756-1.756h0a1.756,1.756,0,0,0-1.756-1.756h-1.8a.654.654,0,0,1-.654-.655v-1.936" fill="#fff" stroke="#333" stroke-linecap="round" stroke-linejoin="round" stroke-width="0.492" fill-rule="evenodd"/></g></svg>