<svg xmlns="http://www.w3.org/2000/svg" width="124.437" height="110.197" viewBox="0 0 124.437 110.197"><g transform="translate(-978 -5164)"><circle cx="36.5" cy="36.5" r="36.5" transform="translate(988 5164)" fill="#ededed" opacity="0.8"/><circle cx="21.5" cy="21.5" r="21.5" transform="translate(1054 5229)" fill="#ededed" opacity="0.8"/><g transform="translate(41.219 80)"><g transform="translate(423.704 4977.297)"><g transform="translate(555.537 117.33)"><path d="M547.225,127.966l2.041-.166.032,3.62,5.282.158v-6.656l-2.077-.067s.509-1.2-.311-1.66-1.56.486-1.6,1.149l1.221-3.306-.573-1.541-3.931-.426-2.02,5.4a.521.521,0,0,0,.307.672l.653.241.153,1.8A.855.855,0,0,0,547.225,127.966Z" transform="translate(-545.254 -116.774)" fill="#ffcec8"/><path d="M555.375,123.4a.705.705,0,0,0-.091-.466.272.272,0,0,0-.414-.04,2.981,2.981,0,0,0,.3-1,2.541,2.541,0,0,1-.538.05c0-.065-.005-.129-.009-.191a4.024,4.024,0,0,0,.23-1.283c0-.48-.184-1.069-.657-1.14a1.74,1.74,0,0,0-.7.141.9.9,0,0,1-.326.028c-.082-.032-.162-.065-.249-.1a.344.344,0,0,1-.084-.079,1.071,1.071,0,0,1-.1-.253,1,1,0,0,0-1.008-.656c-.467.044-.909.421-1.357.278a1.618,1.618,0,0,1-.639-.56.773.773,0,0,0-.746-.329c-.354.111-.526.647-.895.6a.556.556,0,0,1-.3-.179c-.352-.354-.643-.9-1.141-.893a.929.929,0,0,0-.694.42,1.707,1.707,0,0,0-.106,1.829,1.649,1.649,0,0,0,1.647.784,1.191,1.191,0,0,1,.4-.036c.421.079.5.682.863.908a.937.937,0,0,0,.887-.05,1.038,1.038,0,0,1,.582-.178.573.573,0,0,1,.43.438,1.587,1.587,0,0,1-.005.645.411.411,0,0,0-.562.141,1.008,1.008,0,0,0-.112.629,4.712,4.712,0,0,0,.1.746,2.23,2.23,0,0,0,.309,1.12l.656-.872s.735-.366,1.145.154a1.154,1.154,0,0,1,.082,1.4l2.188.07.012-.107a1.2,1.2,0,0,0,.532-.589A3.711,3.711,0,0,0,555.375,123.4Z" transform="translate(-545.133 -117.33)" fill="#fda74c"/></g><path d="M564.178,129.322l21.013,2.374v2.813l-22.516,1.137Z" transform="translate(15.851 3.832)" fill="#ffcec8"/><path d="M579.61,131.471l2.494.092,1.746-1.7a.766.766,0,0,1,.089.9l-.492.843,4.458.4a.294.294,0,0,1,.257.375.3.3,0,0,1-.3.212l-2.332-.164,2.638.672a.3.3,0,0,1-.124.6l-2.741-.447,2.259,1.02a.276.276,0,0,1-.2.512L585.04,134l1.529.958a.281.281,0,0,1-.245.5l-3.445-1.192-3.3.083Z" transform="translate(21.252 4.006)" fill="#ffcec8"/><path d="M554.079,130.556s0,3.067-2.923,3.067a3.341,3.341,0,0,1-3.3-2.947l.3-3.372H554.3Z" transform="translate(11.114 3.188)" fill="#ffcec8"/><path d="M558.244,127.3c-1.028,3.678-3.069,3.6-3.069,3.6s-2.048.075-3.076-3.6l-5.289.9c-1.624.342-11.288,1.764-11.288,1.764L537.193,137l7.664.619,1.222,12.573,9.1,1.566,8.835-1.566,1.485-13h5.813l2.989-7.749Z" transform="translate(7.173 3.188)" fill="#1eb5f0"/><path d="M540.611,129.322,519.6,131.7v2.813l22.516,1.137Z" transform="translate(2.084 3.832)" fill="#ffcec8"/><path d="M549.161,144.646h17.931l31.182,30.928-2.205,3.106L559.358,155.74l-3.3-.713-21.939,3.6-2.461,21.892h-4.484l-1.283-19.955a8.477,8.477,0,0,1,5.19-8.365Z" transform="translate(4.09 8.73)" fill="#ce809d"/><path d="M532.8,171.812l1.222,2.654a1.461,1.461,0,0,1-1.391,1.905h-10.62a.531.531,0,0,1-.174-1.033,5.617,5.617,0,0,1,1.66-.278c2.523-.082,5.557-3.247,5.557-3.247Z" transform="translate(2.684 17.412)" fill="#ffcec8"/><path d="M581.274,168.084l1.874,1.244a2.176,2.176,0,0,1,2.673,0,1.849,1.849,0,0,1,.645,2.72l3.451,4.84c.267.464-.282.888-.723.558l-10.125-6.255Z" transform="translate(21.09 16.22)" fill="#ffcec8"/><path d="M521.861,131.471l-2.494.092-1.746-1.7a.766.766,0,0,0-.089.9l.492.843-4.458.4a.295.295,0,0,0,.046.587l2.332-.164-2.638.672a.3.3,0,0,0-.209.408.307.307,0,0,0,.333.189l2.739-.447-2.258,1.02a.276.276,0,0,0,.2.512l2.316-.788-1.529.958a.281.281,0,0,0,.245.5l3.445-1.192,3.3.083Z" transform="translate(0 4.006)" fill="#ffcec8"/></g><g transform="translate(941.688 4895.422)"><path d="M54.164,215.828h1.548l-2.726,8.4h-7.17L44.034,219.2l1.558-3.2.844-.081Z" transform="translate(15.086 7.841)" fill="#ffcec8"/><path d="M63.866,212.356c-5.771,2.774-13.062-.412-13.062-.412s2.066-7.684,7.835-10.457,11.618-2.591,13.062.41S69.637,209.581,63.866,212.356Z" transform="translate(18.341 0)" fill="#ce809d"/><g transform="translate(59.514 209.559)"><path d="M54.978,211.1a4.558,4.558,0,0,1-.783,2.386.659.659,0,0,1-.339.262l-7.41,2.449a1.568,1.568,0,0,1-.578.08,1.636,1.636,0,0,1-1.476-2.171l1.636-4.713a4.311,4.311,0,0,1,.526-1.059,4.631,4.631,0,0,1,4.014-2.032,4.54,4.54,0,0,1,1.854.475A4.615,4.615,0,0,1,54.978,211.1Z" transform="translate(-44.3 -206.299)" fill="#ffcec8"/><path d="M54.246,211.1a4.558,4.558,0,0,1-.783,2.386.659.659,0,0,1-.339.262l-1.183.391L51.3,212.6s1.488-.791.57-1.656-1.657.465-1.657.465a4.457,4.457,0,0,1-2.409-.591,4.537,4.537,0,0,1-1.98-2.482,4.612,4.612,0,0,1,4.014-2.032,4.54,4.54,0,0,1,1.854.475A4.615,4.615,0,0,1,54.246,211.1Z" transform="translate(-43.568 -206.299)" fill="#ce809d"/></g><path d="M45.867,213.653,45.5,224.96l8.414-6.606-1.823-6.76Z" transform="translate(15.792 5.805)" fill="#ffcec8"/><path d="M45.766,213.6s2.485-.564,3.449-1.882c0,0-1.45,3.21-3.5,3.517Z" transform="translate(15.893 5.862)" fill="#ffa69c"/><path d="M63.5,240.316l-19.367,2.07L42.5,227.069l15.888-1.695v6.093Z" transform="translate(14.348 12.431)" fill="#ffcec8"/><path d="M54.055,215.828H88.181l-.111,3.2-33.309,5.746A8.073,8.073,0,0,1,54.055,215.828Z" transform="translate(19.389 7.841)" fill="#ffcec8"/><path d="M52.928,216.164l-32.091-.336-.029,3.2,31.659,4.836Z" transform="translate(3.919 7.841)" fill="#ffcec8"/><path d="M100,270.889l-1.7,2.776L68.5,250.833,63.439,247.3a38.261,38.261,0,0,1-6.967,3.751,37.509,37.509,0,0,1-21.129,2.307c3.526,17.465-5.726,22.4-5.726,22.4H26.329l2.936-25.847a5.85,5.85,0,0,1,3.6-4.632l19.043-7.74,19.366-2.07s.13.107.379.283c.071.059.142.118.237.19a31.266,31.266,0,0,1,2.72,2.378c.379.355.758.734,1.148,1.136a43.469,43.469,0,0,1,2.876,3.336c.047.071.095.13.142.2a52.1,52.1,0,0,1,7.441,13.475C97.739,258.018,100,270.889,100,270.889Z" transform="translate(6.574 17.282)" fill="#ffcec8"/><path d="M58.537,230.439l1.416-5.67a9.129,9.129,0,0,1-.706-8.941H56.6l-3.073,5.32a3.98,3.98,0,0,1-7.4-2.431L46.481,216l-3.831.169s-1.045,5.666,0,15.5Z" transform="translate(14.197 7.841)" fill="#ce809d"/><path d="M72.044,245.862l-10.269,7.844-5.064-3.538a38.261,38.261,0,0,1-6.967,3.751l-9.418-11.535,4.851-1.975-.994-9.347,15.249-1.573,5.11,8.849s.13.107.379.283c.071.059.144.117.237.19.615.484,1.608,1.337,2.72,2.378.379.355.758.734,1.148,1.136a25.07,25.07,0,0,1,2.876,3.336C71.949,245.732,72,245.791,72.044,245.862Z" transform="translate(13.303 14.409)" fill="#1eb5f0"/><path d="M32.662,262.673,34.3,265.7a1.665,1.665,0,0,1-1.586,2.172H20.6a.606.606,0,0,1-.2-1.179,6.385,6.385,0,0,1,1.894-.317c2.876-.093,7.077-3.7,7.077-3.7Z" transform="translate(3.528 30.364)" fill="#ffcec8"/><path d="M76.687,259.344l1.562,1.2a2.379,2.379,0,0,1,2.978.078c2,1.527.809,3.086.809,3.086l4,5.559c.311.532-.287.992-.789.607l-10.531-7.931Z" transform="translate(29.839 28.763)" fill="#ffcec8"/><path d="M24.727,219.024l.453-3.2-12.228.133a.319.319,0,0,0-.071.622l5.578,1.222-2.02.126a.187.187,0,0,0-.1.327c.736.647,3.1,1.889,6.569.6Z" transform="translate(0 7.841)" fill="#ffcec8"/><path d="M76.825,219.024l-.453-3.2,12.23.133a.318.318,0,0,1,.07.622L83.093,217.8l2.02.126a.188.188,0,0,1,.1.327c-.737.647-3.1,1.889-6.57.6Z" transform="translate(30.634 7.841)" fill="#ffcec8"/></g></g></g></svg>